<?xml version="1.0" encoding="utf-8" standalone="no"?>
<!DOCTYPE svg PUBLIC "-//W3C//DTD SVG 1.1//EN"
  "http://www.w3.org/Graphics/SVG/1.1/DTD/svg11.dtd">
<svg height="180pt" version="1.1" viewBox="0 0 432 180" width="432pt" xmlns="http://www.w3.org/2000/svg" xmlns:xlink="http://www.w3.org/1999/xlink">
 <metadata>
  <rdf:RDF xmlns:cc="http://creativecommons.org/ns#" xmlns:dc="http://purl.org/dc/elements/1.1/" xmlns:rdf="http://www.w3.org/1999/02/22-rdf-syntax-ns#">
   <cc:Work>
    <dc:type rdf:resource="http://purl.org/dc/dcmitype/StillImage"/>
    <dc:date>2021-08-12T10:43:36.411823</dc:date>
    <dc:format>image/svg+xml</dc:format>
    <dc:creator>
     <cc:Agent>
      <dc:title>Matplotlib v3.4.2, https://matplotlib.org/</dc:title>
     </cc:Agent>
    </dc:creator>
   </cc:Work>
  </rdf:RDF>
 </metadata>
 <defs>
  <style type="text/css">*{stroke-linecap:butt;stroke-linejoin:round;}</style>
 </defs>
 <g id="figure_1">
  <g id="patch_1">
   <path d="M 0 180 
L 432 180 
L 432 0 
L 0 0 
z
" style="fill:#ffffff;"/>
  </g>
  <g id="axes_1">
   <g id="patch_2">
    <path d="M 34.56 162 
L 414.72 162 
L 414.72 3.6 
L 34.56 3.6 
z
" style="fill:#ffffff;"/>
   </g>
   <g id="PolyCollection_1">
    <path clip-path="url(#p93c31dff27)" d="M 120.525829 81.313723 
L 120.525829 84.286277 
L 121.481005 85.750481 
L 122.436181 87.200043 
L 123.391357 88.634962 
L 124.346533 90.05524 
L 125.301709 91.460876 
L 126.256884 92.851869 
L 127.21206 94.228221 
L 128.167236 95.589931 
L 129.122412 96.936998 
L 129.122412 68.663002 
L 129.122412 68.663002 
L 128.167236 70.010069 
L 127.21206 71.371779 
L 126.256884 72.748131 
L 125.301709 74.139124 
L 124.346533 75.54476 
L 123.391357 76.965038 
L 122.436181 78.399957 
L 121.481005 79.849519 
L 120.525829 81.313723 
z
" style="fill:#0000ff;fill-opacity:0.1;stroke:#0000ff;stroke-opacity:0.1;"/>
    <path clip-path="url(#p93c31dff27)" d="M 131.032764 67.330576 
L 131.032764 98.269424 
L 131.98794 99.587207 
L 132.943116 100.890349 
L 133.898291 102.178848 
L 134.853467 103.452705 
L 135.808643 104.711921 
L 136.763819 105.956494 
L 137.718995 107.186425 
L 138.674171 108.401714 
L 139.629347 109.602362 
L 140.584523 110.788367 
L 141.539698 111.95973 
L 142.494874 113.116451 
L 143.45005 114.25853 
L 144.405226 115.385967 
L 145.360402 116.498762 
L 146.315578 117.596915 
L 147.270754 118.680425 
L 148.22593 119.749294 
L 149.181106 120.803521 
L 150.136281 121.843106 
L 151.091457 122.868048 
L 152.046633 123.878349 
L 153.001809 124.874008 
L 153.956985 125.855024 
L 154.912161 126.821399 
L 155.867337 127.773131 
L 156.822513 128.710222 
L 157.777688 129.63267 
L 158.732864 130.540477 
L 159.68804 131.433641 
L 160.643216 132.312163 
L 161.598392 133.176044 
L 162.553568 134.025282 
L 163.508744 134.859878 
L 164.46392 135.679832 
L 165.419095 136.485144 
L 166.374271 137.275814 
L 167.329447 138.051842 
L 168.284623 138.813228 
L 169.239799 139.559972 
L 170.194975 140.292074 
L 171.150151 141.009534 
L 172.105327 141.712352 
L 173.060503 142.400528 
L 174.015678 143.074062 
L 174.970854 143.732953 
L 175.92603 144.377203 
L 176.881206 145.006811 
L 177.836382 145.621776 
L 178.791558 146.2221 
L 179.746734 146.807781 
L 180.70191 147.378821 
L 181.657085 147.935218 
L 182.612261 148.476974 
L 182.612261 17.123026 
L 182.612261 17.123026 
L 181.657085 17.664782 
L 180.70191 18.221179 
L 179.746734 18.792219 
L 178.791558 19.3779 
L 177.836382 19.978224 
L 176.881206 20.593189 
L 175.92603 21.222797 
L 174.970854 21.867047 
L 174.015678 22.525938 
L 173.060503 23.199472 
L 172.105327 23.887648 
L 171.150151 24.590466 
L 170.194975 25.307926 
L 169.239799 26.040028 
L 168.284623 26.786772 
L 167.329447 27.548158 
L 166.374271 28.324186 
L 165.419095 29.114856 
L 164.46392 29.920168 
L 163.508744 30.740122 
L 162.553568 31.574718 
L 161.598392 32.423956 
L 160.643216 33.287837 
L 159.68804 34.166359 
L 158.732864 35.059523 
L 157.777688 35.96733 
L 156.822513 36.889778 
L 155.867337 37.826869 
L 154.912161 38.778601 
L 153.956985 39.744976 
L 153.001809 40.725992 
L 152.046633 41.721651 
L 151.091457 42.731952 
L 150.136281 43.756894 
L 149.181106 44.796479 
L 148.22593 45.850706 
L 147.270754 46.919575 
L 146.315578 48.003085 
L 145.360402 49.101238 
L 144.405226 50.214033 
L 143.45005 51.34147 
L 142.494874 52.483549 
L 141.539698 53.64027 
L 140.584523 54.811633 
L 139.629347 55.997638 
L 138.674171 57.198286 
L 137.718995 58.413575 
L 136.763819 59.643506 
L 135.808643 60.888079 
L 134.853467 62.147295 
L 133.898291 63.421152 
L 132.943116 64.709651 
L 131.98794 66.012793 
L 131.032764 67.330576 
z
" style="fill:#0000ff;fill-opacity:0.1;stroke:#0000ff;stroke-opacity:0.1;"/>
    <path clip-path="url(#p93c31dff27)" d="M 184.522613 16.595913 
L 184.522613 149.004087 
L 185.477789 149.516559 
L 186.432965 150.014388 
L 187.388141 150.497575 
L 188.343317 150.96612 
L 189.298492 151.420024 
L 190.253668 151.859285 
L 191.208844 152.283904 
L 192.16402 152.693881 
L 193.119196 153.089216 
L 194.074372 153.469909 
L 195.029548 153.83596 
L 195.984724 154.187369 
L 196.939899 154.524136 
L 197.895075 154.846261 
L 198.850251 155.153743 
L 199.805427 155.446584 
L 200.760603 155.724783 
L 201.715779 155.98834 
L 202.670955 156.237254 
L 202.670955 9.362746 
L 202.670955 9.362746 
L 201.715779 9.61166 
L 200.760603 9.875217 
L 199.805427 10.153416 
L 198.850251 10.446257 
L 197.895075 10.753739 
L 196.939899 11.075864 
L 195.984724 11.412631 
L 195.029548 11.76404 
L 194.074372 12.130091 
L 193.119196 12.510784 
L 192.16402 12.906119 
L 191.208844 13.316096 
L 190.253668 13.740715 
L 189.298492 14.179976 
L 188.343317 14.63388 
L 187.388141 15.102425 
L 186.432965 15.585612 
L 185.477789 16.083441 
L 184.522613 16.595913 
z
" style="fill:#0000ff;fill-opacity:0.1;stroke:#0000ff;stroke-opacity:0.1;"/>
    <path clip-path="url(#p93c31dff27)" d="M 204.581307 9.128473 
L 204.581307 156.471527 
L 205.536482 156.691157 
L 206.491658 156.896146 
L 207.446834 157.086492 
L 208.40201 157.262197 
L 209.357186 157.423259 
L 210.312362 157.56968 
L 211.267538 157.701458 
L 212.222714 157.818594 
L 213.177889 157.921089 
L 214.133065 158.008941 
L 215.088241 158.082151 
L 216.043417 158.140719 
L 216.998593 158.184645 
L 217.953769 158.213929 
L 218.908945 158.228571 
L 219.864121 158.228571 
L 220.819296 158.213929 
L 221.774472 158.184645 
L 222.729648 158.140719 
L 223.684824 158.082151 
L 224.64 158.008941 
L 225.595176 157.921089 
L 226.550352 157.818594 
L 227.505528 157.701458 
L 227.505528 7.898542 
L 227.505528 7.898542 
L 226.550352 7.781406 
L 225.595176 7.678911 
L 224.64 7.591059 
L 223.684824 7.517849 
L 222.729648 7.459281 
L 221.774472 7.415355 
L 220.819296 7.386071 
L 219.864121 7.371429 
L 218.908945 7.371429 
L 217.953769 7.386071 
L 216.998593 7.415355 
L 216.043417 7.459281 
L 215.088241 7.517849 
L 214.133065 7.591059 
L 213.177889 7.678911 
L 212.222714 7.781406 
L 211.267538 7.898542 
L 210.312362 8.03032 
L 209.357186 8.176741 
L 208.40201 8.337803 
L 207.446834 8.513508 
L 206.491658 8.703854 
L 205.536482 8.908843 
L 204.581307 9.128473 
z
" style="fill:#0000ff;fill-opacity:0.1;stroke:#0000ff;stroke-opacity:0.1;"/>
    <path clip-path="url(#p93c31dff27)" d="M 229.415879 8.03032 
L 229.415879 157.56968 
L 230.371055 157.423259 
L 231.326231 157.262197 
L 232.281407 157.086492 
L 233.236583 156.896146 
L 234.191759 156.691157 
L 235.146935 156.471527 
L 236.102111 156.237254 
L 237.057286 155.98834 
L 238.012462 155.724783 
L 238.012462 9.875217 
L 238.012462 9.875217 
L 237.057286 9.61166 
L 236.102111 9.362746 
L 235.146935 9.128473 
L 234.191759 8.908843 
L 233.236583 8.703854 
L 232.281407 8.513508 
L 231.326231 8.337803 
L 230.371055 8.176741 
L 229.415879 8.03032 
z
" style="fill:#0000ff;fill-opacity:0.1;stroke:#0000ff;stroke-opacity:0.1;"/>
    <path clip-path="url(#p93c31dff27)" d="M 239.922814 10.153416 
L 239.922814 155.446584 
L 240.87799 155.153743 
L 241.833166 154.846261 
L 242.788342 154.524136 
L 243.743518 154.187369 
L 244.698693 153.83596 
L 245.653869 153.469909 
L 246.609045 153.089216 
L 247.564221 152.693881 
L 248.519397 152.283904 
L 249.474573 151.859285 
L 250.429749 151.420024 
L 251.384925 150.96612 
L 252.340101 150.497575 
L 253.295276 150.014388 
L 254.250452 149.516559 
L 255.205628 149.004087 
L 256.160804 148.476974 
L 257.11598 147.935218 
L 258.071156 147.378821 
L 259.026332 146.807781 
L 259.981508 146.2221 
L 260.936683 145.621776 
L 261.891859 145.006811 
L 262.847035 144.377203 
L 263.802211 143.732953 
L 264.757387 143.074062 
L 265.712563 142.400528 
L 266.667739 141.712352 
L 267.622915 141.009534 
L 268.57809 140.292074 
L 269.533266 139.559972 
L 270.488442 138.813228 
L 271.443618 138.051842 
L 272.398794 137.275814 
L 272.398794 28.324186 
L 272.398794 28.324186 
L 271.443618 27.548158 
L 270.488442 26.786772 
L 269.533266 26.040028 
L 268.57809 25.307926 
L 267.622915 24.590466 
L 266.667739 23.887648 
L 265.712563 23.199472 
L 264.757387 22.525938 
L 263.802211 21.867047 
L 262.847035 21.222797 
L 261.891859 20.593189 
L 260.936683 19.978224 
L 259.981508 19.3779 
L 259.026332 18.792219 
L 258.071156 18.221179 
L 257.11598 17.664782 
L 256.160804 17.123026 
L 255.205628 16.595913 
L 254.250452 16.083441 
L 253.295276 15.585612 
L 252.340101 15.102425 
L 251.384925 14.63388 
L 250.429749 14.179976 
L 249.474573 13.740715 
L 248.519397 13.316096 
L 247.564221 12.906119 
L 246.609045 12.510784 
L 245.653869 12.130091 
L 244.698693 11.76404 
L 243.743518 11.412631 
L 242.788342 11.075864 
L 241.833166 10.753739 
L 240.87799 10.446257 
L 239.922814 10.153416 
z
" style="fill:#0000ff;fill-opacity:0.1;stroke:#0000ff;stroke-opacity:0.1;"/>
    <path clip-path="url(#p93c31dff27)" d="M 274.309146 29.114856 
L 274.309146 136.485144 
L 275.264322 135.679832 
L 276.219497 134.859878 
L 277.174673 134.025282 
L 278.129849 133.176044 
L 279.085025 132.312163 
L 280.040201 131.433641 
L 280.040201 34.166359 
L 280.040201 34.166359 
L 279.085025 33.287837 
L 278.129849 32.423956 
L 277.174673 31.574718 
L 276.219497 30.740122 
L 275.264322 29.920168 
L 274.309146 29.114856 
z
" style="fill:#0000ff;fill-opacity:0.1;stroke:#0000ff;stroke-opacity:0.1;"/>
    <path clip-path="url(#p93c31dff27)" d="M 281.950553 35.059523 
L 281.950553 130.540477 
L 282.905729 129.63267 
L 283.860905 128.710222 
L 284.81608 127.773131 
L 285.771256 126.821399 
L 286.726432 125.855024 
L 287.681608 124.874008 
L 288.636784 123.878349 
L 289.59196 122.868048 
L 290.547136 121.843106 
L 291.502312 120.803521 
L 292.457487 119.749294 
L 293.412663 118.680425 
L 293.412663 46.919575 
L 293.412663 46.919575 
L 292.457487 45.850706 
L 291.502312 44.796479 
L 290.547136 43.756894 
L 289.59196 42.731952 
L 288.636784 41.721651 
L 287.681608 40.725992 
L 286.726432 39.744976 
L 285.771256 38.778601 
L 284.81608 37.826869 
L 283.860905 36.889778 
L 282.905729 35.96733 
L 281.950553 35.059523 
z
" style="fill:#0000ff;fill-opacity:0.1;stroke:#0000ff;stroke-opacity:0.1;"/>
    <path clip-path="url(#p93c31dff27)" d="M 296.278191 48.003085 
L 296.278191 117.596915 
L 297.233367 116.498762 
L 297.233367 49.101238 
L 297.233367 49.101238 
L 296.278191 48.003085 
z
" style="fill:#0000ff;fill-opacity:0.1;stroke:#0000ff;stroke-opacity:0.1;"/>
    <path clip-path="url(#p93c31dff27)" d="M 299.143719 50.214033 
L 299.143719 115.385967 
L 300.098894 114.25853 
L 301.05407 113.116451 
L 302.009246 111.95973 
L 302.964422 110.788367 
L 302.964422 54.811633 
L 302.964422 54.811633 
L 302.009246 53.64027 
L 301.05407 52.483549 
L 300.098894 51.34147 
L 299.143719 50.214033 
z
" style="fill:#0000ff;fill-opacity:0.1;stroke:#0000ff;stroke-opacity:0.1;"/>
    <path clip-path="url(#p93c31dff27)" d="M 307.740302 55.997638 
L 307.740302 109.602362 
L 308.695477 108.401714 
L 309.650653 107.186425 
L 310.605829 105.956494 
L 310.605829 59.643506 
L 310.605829 59.643506 
L 309.650653 58.413575 
L 308.695477 57.198286 
L 307.740302 55.997638 
z
" style="fill:#0000ff;fill-opacity:0.1;stroke:#0000ff;stroke-opacity:0.1;"/>
    <path clip-path="url(#p93c31dff27)" d="M 313.471357 60.888079 
L 313.471357 104.711921 
L 314.426533 103.452705 
L 315.381709 102.178848 
L 316.336884 100.890349 
L 317.29206 99.587207 
L 317.29206 66.012793 
L 317.29206 66.012793 
L 316.336884 64.709651 
L 315.381709 63.421152 
L 314.426533 62.147295 
L 313.471357 60.888079 
z
" style="fill:#0000ff;fill-opacity:0.1;stroke:#0000ff;stroke-opacity:0.1;"/>
    <path clip-path="url(#p93c31dff27)" d="M 319.202412 67.330576 
L 319.202412 98.269424 
L 320.157588 96.936998 
L 321.112764 95.589931 
L 322.06794 94.228221 
L 323.023116 92.851869 
L 323.978291 91.460876 
L 324.933467 90.05524 
L 325.888643 88.634962 
L 326.843819 87.200043 
L 327.798995 85.750481 
L 328.754171 84.286277 
L 328.754171 81.313723 
L 328.754171 81.313723 
L 327.798995 79.849519 
L 326.843819 78.399957 
L 325.888643 76.965038 
L 324.933467 75.54476 
L 323.978291 74.139124 
L 323.023116 72.748131 
L 322.06794 71.371779 
L 321.112764 70.010069 
L 320.157588 68.663002 
L 319.202412 67.330576 
z
" style="fill:#0000ff;fill-opacity:0.1;stroke:#0000ff;stroke-opacity:0.1;"/>
   </g>
   <g id="matplotlib.axis_1">
    <g id="xtick_1">
     <g id="line2d_1">
      <defs>
       <path d="M 0 0 
L 0 3.5 
" id="md5b319275f" style="stroke:#000000;stroke-width:0.8;"/>
      </defs>
      <g>
       <use style="stroke:#000000;stroke-width:0.8;" x="88.527437" xlink:href="#md5b319275f" y="162"/>
      </g>
     </g>
     <g id="text_1">
      <!-- 1975 -->
      <g transform="translate(75.802437 176.598438)scale(0.1 -0.1)">
       <defs>
        <path d="M 794 531 
L 1825 531 
L 1825 4091 
L 703 3866 
L 703 4441 
L 1819 4666 
L 2450 4666 
L 2450 531 
L 3481 531 
L 3481 0 
L 794 0 
L 794 531 
z
" id="DejaVuSans-31" transform="scale(0.015625)"/>
        <path d="M 703 97 
L 703 672 
Q 941 559 1184 500 
Q 1428 441 1663 441 
Q 2288 441 2617 861 
Q 2947 1281 2994 2138 
Q 2813 1869 2534 1725 
Q 2256 1581 1919 1581 
Q 1219 1581 811 2004 
Q 403 2428 403 3163 
Q 403 3881 828 4315 
Q 1253 4750 1959 4750 
Q 2769 4750 3195 4129 
Q 3622 3509 3622 2328 
Q 3622 1225 3098 567 
Q 2575 -91 1691 -91 
Q 1453 -91 1209 -44 
Q 966 3 703 97 
z
M 1959 2075 
Q 2384 2075 2632 2365 
Q 2881 2656 2881 3163 
Q 2881 3666 2632 3958 
Q 2384 4250 1959 4250 
Q 1534 4250 1286 3958 
Q 1038 3666 1038 3163 
Q 1038 2656 1286 2365 
Q 1534 2075 1959 2075 
z
" id="DejaVuSans-39" transform="scale(0.015625)"/>
        <path d="M 525 4666 
L 3525 4666 
L 3525 4397 
L 1831 0 
L 1172 0 
L 2766 4134 
L 525 4134 
L 525 4666 
z
" id="DejaVuSans-37" transform="scale(0.015625)"/>
        <path d="M 691 4666 
L 3169 4666 
L 3169 4134 
L 1269 4134 
L 1269 2991 
Q 1406 3038 1543 3061 
Q 1681 3084 1819 3084 
Q 2600 3084 3056 2656 
Q 3513 2228 3513 1497 
Q 3513 744 3044 326 
Q 2575 -91 1722 -91 
Q 1428 -91 1123 -41 
Q 819 9 494 109 
L 494 744 
Q 775 591 1075 516 
Q 1375 441 1709 441 
Q 2250 441 2565 725 
Q 2881 1009 2881 1497 
Q 2881 1984 2565 2268 
Q 2250 2553 1709 2553 
Q 1456 2553 1204 2497 
Q 953 2441 691 2322 
L 691 4666 
z
" id="DejaVuSans-35" transform="scale(0.015625)"/>
       </defs>
       <use xlink:href="#DejaVuSans-31"/>
       <use x="63.623047" xlink:href="#DejaVuSans-39"/>
       <use x="127.246094" xlink:href="#DejaVuSans-37"/>
       <use x="190.869141" xlink:href="#DejaVuSans-35"/>
      </g>
     </g>
    </g>
    <g id="xtick_2">
     <g id="line2d_2">
      <g>
       <use style="stroke:#000000;stroke-width:0.8;" x="145.83799" xlink:href="#md5b319275f" y="162"/>
      </g>
     </g>
     <g id="text_2">
      <!-- 1980 -->
      <g transform="translate(133.11299 176.598438)scale(0.1 -0.1)">
       <defs>
        <path d="M 2034 2216 
Q 1584 2216 1326 1975 
Q 1069 1734 1069 1313 
Q 1069 891 1326 650 
Q 1584 409 2034 409 
Q 2484 409 2743 651 
Q 3003 894 3003 1313 
Q 3003 1734 2745 1975 
Q 2488 2216 2034 2216 
z
M 1403 2484 
Q 997 2584 770 2862 
Q 544 3141 544 3541 
Q 544 4100 942 4425 
Q 1341 4750 2034 4750 
Q 2731 4750 3128 4425 
Q 3525 4100 3525 3541 
Q 3525 3141 3298 2862 
Q 3072 2584 2669 2484 
Q 3125 2378 3379 2068 
Q 3634 1759 3634 1313 
Q 3634 634 3220 271 
Q 2806 -91 2034 -91 
Q 1263 -91 848 271 
Q 434 634 434 1313 
Q 434 1759 690 2068 
Q 947 2378 1403 2484 
z
M 1172 3481 
Q 1172 3119 1398 2916 
Q 1625 2713 2034 2713 
Q 2441 2713 2670 2916 
Q 2900 3119 2900 3481 
Q 2900 3844 2670 4047 
Q 2441 4250 2034 4250 
Q 1625 4250 1398 4047 
Q 1172 3844 1172 3481 
z
" id="DejaVuSans-38" transform="scale(0.015625)"/>
        <path d="M 2034 4250 
Q 1547 4250 1301 3770 
Q 1056 3291 1056 2328 
Q 1056 1369 1301 889 
Q 1547 409 2034 409 
Q 2525 409 2770 889 
Q 3016 1369 3016 2328 
Q 3016 3291 2770 3770 
Q 2525 4250 2034 4250 
z
M 2034 4750 
Q 2819 4750 3233 4129 
Q 3647 3509 3647 2328 
Q 3647 1150 3233 529 
Q 2819 -91 2034 -91 
Q 1250 -91 836 529 
Q 422 1150 422 2328 
Q 422 3509 836 4129 
Q 1250 4750 2034 4750 
z
" id="DejaVuSans-30" transform="scale(0.015625)"/>
       </defs>
       <use xlink:href="#DejaVuSans-31"/>
       <use x="63.623047" xlink:href="#DejaVuSans-39"/>
       <use x="127.246094" xlink:href="#DejaVuSans-38"/>
       <use x="190.869141" xlink:href="#DejaVuSans-30"/>
      </g>
     </g>
    </g>
    <g id="xtick_3">
     <g id="line2d_3">
      <g>
       <use style="stroke:#000000;stroke-width:0.8;" x="203.148543" xlink:href="#md5b319275f" y="162"/>
      </g>
     </g>
     <g id="text_3">
      <!-- 1985 -->
      <g transform="translate(190.423543 176.598438)scale(0.1 -0.1)">
       <use xlink:href="#DejaVuSans-31"/>
       <use x="63.623047" xlink:href="#DejaVuSans-39"/>
       <use x="127.246094" xlink:href="#DejaVuSans-38"/>
       <use x="190.869141" xlink:href="#DejaVuSans-35"/>
      </g>
     </g>
    </g>
    <g id="xtick_4">
     <g id="line2d_4">
      <g>
       <use style="stroke:#000000;stroke-width:0.8;" x="260.459095" xlink:href="#md5b319275f" y="162"/>
      </g>
     </g>
     <g id="text_4">
      <!-- 1990 -->
      <g transform="translate(247.734095 176.598438)scale(0.1 -0.1)">
       <use xlink:href="#DejaVuSans-31"/>
       <use x="63.623047" xlink:href="#DejaVuSans-39"/>
       <use x="127.246094" xlink:href="#DejaVuSans-39"/>
       <use x="190.869141" xlink:href="#DejaVuSans-30"/>
      </g>
     </g>
    </g>
    <g id="xtick_5">
     <g id="line2d_5">
      <g>
       <use style="stroke:#000000;stroke-width:0.8;" x="317.769648" xlink:href="#md5b319275f" y="162"/>
      </g>
     </g>
     <g id="text_5">
      <!-- 1995 -->
      <g transform="translate(305.044648 176.598438)scale(0.1 -0.1)">
       <use xlink:href="#DejaVuSans-31"/>
       <use x="63.623047" xlink:href="#DejaVuSans-39"/>
       <use x="127.246094" xlink:href="#DejaVuSans-39"/>
       <use x="190.869141" xlink:href="#DejaVuSans-35"/>
      </g>
     </g>
    </g>
    <g id="xtick_6">
     <g id="line2d_6">
      <g>
       <use style="stroke:#000000;stroke-width:0.8;" x="375.080201" xlink:href="#md5b319275f" y="162"/>
      </g>
     </g>
     <g id="text_6">
      <!-- 2000 -->
      <g transform="translate(362.355201 176.598438)scale(0.1 -0.1)">
       <defs>
        <path d="M 1228 531 
L 3431 531 
L 3431 0 
L 469 0 
L 469 531 
Q 828 903 1448 1529 
Q 2069 2156 2228 2338 
Q 2531 2678 2651 2914 
Q 2772 3150 2772 3378 
Q 2772 3750 2511 3984 
Q 2250 4219 1831 4219 
Q 1534 4219 1204 4116 
Q 875 4013 500 3803 
L 500 4441 
Q 881 4594 1212 4672 
Q 1544 4750 1819 4750 
Q 2544 4750 2975 4387 
Q 3406 4025 3406 3419 
Q 3406 3131 3298 2873 
Q 3191 2616 2906 2266 
Q 2828 2175 2409 1742 
Q 1991 1309 1228 531 
z
" id="DejaVuSans-32" transform="scale(0.015625)"/>
       </defs>
       <use xlink:href="#DejaVuSans-32"/>
       <use x="63.623047" xlink:href="#DejaVuSans-30"/>
       <use x="127.246094" xlink:href="#DejaVuSans-30"/>
       <use x="190.869141" xlink:href="#DejaVuSans-30"/>
      </g>
     </g>
    </g>
   </g>
   <g id="matplotlib.axis_2">
    <g id="ytick_1">
     <g id="line2d_7">
      <defs>
       <path d="M 0 0 
L -3.5 0 
" id="mfaf225d707" style="stroke:#000000;stroke-width:0.8;"/>
      </defs>
      <g>
       <use style="stroke:#000000;stroke-width:0.8;" x="34.56" xlink:href="#mfaf225d707" y="150.708964"/>
      </g>
     </g>
     <g id="text_7">
      <!-- −30 -->
      <g transform="translate(6.455313 154.508183)scale(0.1 -0.1)">
       <defs>
        <path d="M 678 2272 
L 4684 2272 
L 4684 1741 
L 678 1741 
L 678 2272 
z
" id="DejaVuSans-2212" transform="scale(0.015625)"/>
        <path d="M 2597 2516 
Q 3050 2419 3304 2112 
Q 3559 1806 3559 1356 
Q 3559 666 3084 287 
Q 2609 -91 1734 -91 
Q 1441 -91 1130 -33 
Q 819 25 488 141 
L 488 750 
Q 750 597 1062 519 
Q 1375 441 1716 441 
Q 2309 441 2620 675 
Q 2931 909 2931 1356 
Q 2931 1769 2642 2001 
Q 2353 2234 1838 2234 
L 1294 2234 
L 1294 2753 
L 1863 2753 
Q 2328 2753 2575 2939 
Q 2822 3125 2822 3475 
Q 2822 3834 2567 4026 
Q 2313 4219 1838 4219 
Q 1578 4219 1281 4162 
Q 984 4106 628 3988 
L 628 4550 
Q 988 4650 1302 4700 
Q 1616 4750 1894 4750 
Q 2613 4750 3031 4423 
Q 3450 4097 3450 3541 
Q 3450 3153 3228 2886 
Q 3006 2619 2597 2516 
z
" id="DejaVuSans-33" transform="scale(0.015625)"/>
       </defs>
       <use xlink:href="#DejaVuSans-2212"/>
       <use x="83.789062" xlink:href="#DejaVuSans-33"/>
       <use x="147.412109" xlink:href="#DejaVuSans-30"/>
      </g>
     </g>
    </g>
    <g id="ytick_2">
     <g id="line2d_8">
      <g>
       <use style="stroke:#000000;stroke-width:0.8;" x="34.56" xlink:href="#mfaf225d707" y="128.072643"/>
      </g>
     </g>
     <g id="text_8">
      <!-- −20 -->
      <g transform="translate(6.455313 131.871861)scale(0.1 -0.1)">
       <use xlink:href="#DejaVuSans-2212"/>
       <use x="83.789062" xlink:href="#DejaVuSans-32"/>
       <use x="147.412109" xlink:href="#DejaVuSans-30"/>
      </g>
     </g>
    </g>
    <g id="ytick_3">
     <g id="line2d_9">
      <g>
       <use style="stroke:#000000;stroke-width:0.8;" x="34.56" xlink:href="#mfaf225d707" y="105.436321"/>
      </g>
     </g>
     <g id="text_9">
      <!-- −10 -->
      <g transform="translate(6.455313 109.23554)scale(0.1 -0.1)">
       <use xlink:href="#DejaVuSans-2212"/>
       <use x="83.789062" xlink:href="#DejaVuSans-31"/>
       <use x="147.412109" xlink:href="#DejaVuSans-30"/>
      </g>
     </g>
    </g>
    <g id="ytick_4">
     <g id="line2d_10">
      <g>
       <use style="stroke:#000000;stroke-width:0.8;" x="34.56" xlink:href="#mfaf225d707" y="82.8"/>
      </g>
     </g>
     <g id="text_10">
      <!-- 0 -->
      <g transform="translate(21.1975 86.599219)scale(0.1 -0.1)">
       <use xlink:href="#DejaVuSans-30"/>
      </g>
     </g>
    </g>
    <g id="ytick_5">
     <g id="line2d_11">
      <g>
       <use style="stroke:#000000;stroke-width:0.8;" x="34.56" xlink:href="#mfaf225d707" y="60.163679"/>
      </g>
     </g>
     <g id="text_11">
      <!-- 10 -->
      <g transform="translate(14.835 63.962897)scale(0.1 -0.1)">
       <use xlink:href="#DejaVuSans-31"/>
       <use x="63.623047" xlink:href="#DejaVuSans-30"/>
      </g>
     </g>
    </g>
    <g id="ytick_6">
     <g id="line2d_12">
      <g>
       <use style="stroke:#000000;stroke-width:0.8;" x="34.56" xlink:href="#mfaf225d707" y="37.527357"/>
      </g>
     </g>
     <g id="text_12">
      <!-- 20 -->
      <g transform="translate(14.835 41.326576)scale(0.1 -0.1)">
       <use xlink:href="#DejaVuSans-32"/>
       <use x="63.623047" xlink:href="#DejaVuSans-30"/>
      </g>
     </g>
    </g>
    <g id="ytick_7">
     <g id="line2d_13">
      <g>
       <use style="stroke:#000000;stroke-width:0.8;" x="34.56" xlink:href="#mfaf225d707" y="14.891036"/>
      </g>
     </g>
     <g id="text_13">
      <!-- 30 -->
      <g transform="translate(14.835 18.690255)scale(0.1 -0.1)">
       <use xlink:href="#DejaVuSans-33"/>
       <use x="63.623047" xlink:href="#DejaVuSans-30"/>
      </g>
     </g>
    </g>
   </g>
   <g id="line2d_14">
    <path clip-path="url(#p93c31dff27)" d="M 120.525829 80.739247 
L 121.481005 78.723169 
L 122.436181 77.484364 
L 123.391357 75.347908 
L 124.346533 73.931591 
L 126.256884 73.65874 
L 127.21206 73.255603 
L 128.167236 73.772749 
L 129.122412 72.326597 
M 131.032764 71.359723 
L 131.98794 70.86672 
L 132.943116 71.130096 
L 133.898291 68.507108 
L 134.853467 67.969869 
L 135.808643 65.75086 
L 136.763819 65.200063 
L 137.718995 65.027506 
L 138.674171 63.794245 
L 140.584523 61.738421 
L 141.539698 61.355676 
L 142.494874 59.697991 
L 143.45005 57.716925 
L 144.405226 58.416771 
L 145.360402 58.267158 
L 146.315578 57.323546 
L 147.270754 56.653077 
L 148.22593 57.454263 
L 149.181106 57.710731 
L 150.136281 57.54426 
L 151.091457 56.24722 
L 152.046633 57.155561 
L 153.001809 55.292625 
L 153.956985 54.427281 
L 154.912161 54.782578 
L 155.867337 54.771008 
L 156.822513 54.292398 
L 157.777688 53.047054 
L 158.732864 52.803673 
L 159.68804 53.370202 
L 160.643216 52.42578 
L 162.553568 51.220151 
L 164.46392 50.135692 
L 165.419095 50.022705 
L 167.329447 48.489816 
L 168.284623 48.770267 
L 169.239799 48.880323 
L 170.194975 50.51963 
L 171.150151 49.176614 
L 172.105327 49.676813 
L 173.060503 49.386126 
L 174.015678 49.481619 
L 174.970854 48.834628 
L 175.92603 48.456814 
L 176.881206 48.221998 
L 177.836382 46.99755 
L 178.791558 46.083134 
L 179.746734 45.640116 
L 180.70191 45.865456 
L 181.657085 44.692347 
L 182.612261 44.201255 
M 184.522613 43.570341 
L 185.477789 42.956684 
L 186.432965 43.02475 
L 187.388141 44.626796 
L 188.343317 43.538015 
L 189.298492 41.959518 
L 190.253668 42.370648 
L 191.208844 41.125883 
L 192.16402 40.237455 
L 193.119196 39.893607 
L 194.074372 39.333608 
L 195.029548 39.761668 
L 195.984724 39.665546 
L 196.939899 40.560994 
L 197.895075 41.82994 
L 198.850251 43.691289 
L 199.805427 44.837392 
L 200.760603 44.670728 
L 201.715779 43.977942 
L 202.670955 42.251471 
M 204.581307 41.682712 
L 205.536482 42.48337 
L 206.491658 43.861149 
L 207.446834 44.630569 
L 208.40201 45.999147 
L 209.357186 46.904259 
L 210.312362 46.308896 
L 211.267538 46.50231 
L 212.222714 47.361851 
L 213.177889 48.027875 
L 214.133065 48.935781 
L 215.088241 49.073321 
L 216.043417 49.886716 
L 216.998593 49.901412 
L 217.953769 50.702111 
L 218.908945 50.50456 
L 219.864121 48.733974 
L 221.774472 51.790194 
L 223.684824 52.890601 
L 224.64 52.236874 
L 225.595176 52.648944 
L 226.550352 53.572518 
L 227.505528 56.259846 
M 229.415879 56.766992 
L 230.371055 58.862148 
L 231.326231 59.21814 
L 233.236583 61.368703 
L 234.191759 62.003308 
L 235.146935 63.081489 
L 236.102111 62.539986 
L 238.012462 64.394771 
M 239.922814 64.259061 
L 241.833166 66.313314 
L 242.788342 66.439813 
L 243.743518 66.401958 
L 244.698693 67.725355 
L 246.609045 69.875041 
L 247.564221 71.555518 
L 248.519397 72.211801 
L 249.474573 74.148644 
L 250.429749 73.752021 
L 252.340101 73.242481 
L 253.295276 71.752044 
L 254.250452 72.663231 
L 255.205628 72.00605 
L 256.160804 71.807091 
L 257.11598 72.57211 
L 258.071156 73.511388 
L 259.026332 74.27068 
L 260.936683 73.272221 
L 261.891859 73.410888 
L 262.847035 74.30564 
L 263.802211 73.943332 
L 264.757387 74.016195 
L 265.712563 74.624381 
L 266.667739 75.615432 
L 267.622915 74.679679 
L 268.57809 75.645223 
L 269.533266 76.017914 
L 270.488442 75.891313 
L 271.443618 76.902912 
L 272.398794 77.708174 
M 274.309146 78.755388 
L 275.264322 78.500727 
L 277.174673 79.802884 
L 278.129849 78.82024 
L 279.085025 79.612717 
L 280.040201 79.069719 
M 281.950553 79.791897 
L 282.905729 81.887576 
L 283.860905 83.154728 
L 284.81608 83.156639 
L 285.771256 82.679049 
L 286.726432 81.195838 
L 287.681608 80.588111 
L 288.636784 81.087664 
L 289.59196 80.526671 
L 290.547136 80.361848 
L 291.502312 80.411748 
L 292.457487 80.654429 
L 293.412663 79.840799 
M 296.278191 81.209976 
L 297.233367 80.983707 
M 299.143719 81.647837 
L 300.098894 80.409643 
L 301.05407 80.093251 
L 302.009246 78.334376 
L 302.964422 78.595499 
M 307.740302 79.593672 
L 308.695477 79.121676 
L 309.650653 78.457528 
L 310.605829 78.35584 
M 313.471357 77.899422 
L 314.426533 77.745743 
L 315.381709 78.771284 
L 316.336884 79.254447 
L 317.29206 80.533563 
M 319.202412 79.917119 
L 320.157588 80.382802 
L 321.112764 79.847165 
L 323.023116 80.821957 
L 323.978291 80.440459 
L 324.933467 79.443551 
L 325.888643 79.454974 
L 326.843819 81.245058 
L 328.754171 82.8 
L 328.754171 82.8 
" style="fill:none;stroke:#1f77b4;stroke-linecap:square;stroke-width:1.5;"/>
   </g>
   <g id="line2d_15">
    <path clip-path="url(#p93c31dff27)" d="M 34.56 82.8 
L 414.72 82.8 
" style="fill:none;stroke:#000000;stroke-dasharray:1.5,2.475;stroke-dashoffset:0;stroke-width:1.5;"/>
   </g>
   <g id="patch_3">
    <path d="M 34.56 162 
L 34.56 3.6 
" style="fill:none;stroke:#000000;stroke-linecap:square;stroke-linejoin:miter;stroke-width:0.8;"/>
   </g>
   <g id="patch_4">
    <path d="M 414.72 162 
L 414.72 3.6 
" style="fill:none;stroke:#000000;stroke-linecap:square;stroke-linejoin:miter;stroke-width:0.8;"/>
   </g>
   <g id="patch_5">
    <path d="M 34.56 162 
L 414.72 162 
" style="fill:none;stroke:#000000;stroke-linecap:square;stroke-linejoin:miter;stroke-width:0.8;"/>
   </g>
   <g id="patch_6">
    <path d="M 34.56 3.6 
L 414.72 3.6 
" style="fill:none;stroke:#000000;stroke-linecap:square;stroke-linejoin:miter;stroke-width:0.8;"/>
   </g>
  </g>
 </g>
 <defs>
  <clipPath id="p93c31dff27">
   <rect height="158.4" width="380.16" x="34.56" y="3.6"/>
  </clipPath>
 </defs>
</svg>
