<?xml version="1.0" encoding="utf-8" standalone="no"?>
<!DOCTYPE svg PUBLIC "-//W3C//DTD SVG 1.1//EN"
  "http://www.w3.org/Graphics/SVG/1.1/DTD/svg11.dtd">
<svg height="180pt" version="1.1" viewBox="0 0 432 180" width="432pt" xmlns="http://www.w3.org/2000/svg" xmlns:xlink="http://www.w3.org/1999/xlink">
 <metadata>
  <rdf:RDF xmlns:cc="http://creativecommons.org/ns#" xmlns:dc="http://purl.org/dc/elements/1.1/" xmlns:rdf="http://www.w3.org/1999/02/22-rdf-syntax-ns#">
   <cc:Work>
    <dc:type rdf:resource="http://purl.org/dc/dcmitype/StillImage"/>
    <dc:date>2021-08-12T10:41:47.449019</dc:date>
    <dc:format>image/svg+xml</dc:format>
    <dc:creator>
     <cc:Agent>
      <dc:title>Matplotlib v3.4.2, https://matplotlib.org/</dc:title>
     </cc:Agent>
    </dc:creator>
   </cc:Work>
  </rdf:RDF>
 </metadata>
 <defs>
  <style type="text/css">*{stroke-linecap:butt;stroke-linejoin:round;}</style>
 </defs>
 <g id="figure_1">
  <g id="patch_1">
   <path d="M 0 180 
L 432 180 
L 432 0 
L 0 0 
z
" style="fill:#ffffff;"/>
  </g>
  <g id="axes_1">
   <g id="patch_2">
    <path d="M 34.56 162 
L 414.72 162 
L 414.72 3.6 
L 34.56 3.6 
z
" style="fill:#ffffff;"/>
   </g>
   <g id="PolyCollection_1">
    <path clip-path="url(#p6adfd9ae43)" d="M 67.395317 82.440388 
L 67.395317 83.159612 
L 67.760154 83.517936 
L 68.12499 83.875403 
L 68.489827 84.232013 
L 68.854664 84.587766 
L 69.219501 84.942661 
L 69.584338 85.2967 
L 69.949175 85.649881 
L 70.314012 86.002204 
L 70.678848 86.353671 
L 71.043685 86.70428 
L 71.408522 87.054032 
L 71.773359 87.402927 
L 72.138196 87.750964 
L 72.503033 88.098145 
L 72.867869 88.444468 
L 73.232706 88.789934 
L 73.597543 89.134542 
L 73.96238 89.478294 
L 74.327217 89.821188 
L 74.692054 90.163225 
L 75.056891 90.504405 
L 75.421727 90.844727 
L 75.786564 91.184192 
L 76.151401 91.5228 
L 76.516238 91.860551 
L 76.881075 92.197444 
L 77.245912 92.533481 
L 77.610749 92.86866 
L 77.975585 93.202982 
L 78.340422 93.536446 
L 78.705259 93.869053 
L 79.070096 94.200804 
L 79.434933 94.531696 
L 79.79977 94.861732 
L 80.164607 95.19091 
L 80.529443 95.519232 
L 80.89428 95.846695 
L 81.259117 96.173302 
L 81.623954 96.499052 
L 81.988791 96.823944 
L 82.353628 97.147979 
L 82.718464 97.471156 
L 83.083301 97.793477 
L 83.448138 98.11494 
L 83.812975 98.435546 
L 84.177812 98.755295 
L 84.542649 99.074187 
L 84.907486 99.392221 
L 85.272322 99.709398 
L 85.637159 100.025718 
L 86.001996 100.341181 
L 86.366833 100.655786 
L 86.73167 100.969534 
L 87.096507 101.282425 
L 87.461344 101.594459 
L 87.82618 101.905635 
L 88.191017 102.215954 
L 88.555854 102.525416 
L 88.920691 102.834021 
L 89.285528 103.141769 
L 89.650365 103.448659 
L 90.015202 103.754692 
L 90.380038 104.059868 
L 90.744875 104.364186 
L 91.109712 104.667648 
L 91.474549 104.970252 
L 91.839386 105.271998 
L 92.204223 105.572888 
L 92.56906 105.87292 
L 92.933896 106.172096 
L 93.298733 106.470414 
L 93.66357 106.767874 
L 94.028407 107.064478 
L 94.393244 107.360224 
L 94.758081 107.655113 
L 95.122917 107.949145 
L 95.487754 108.242319 
L 95.852591 108.534636 
L 96.217428 108.826096 
L 96.582265 109.116699 
L 96.947102 109.406445 
L 97.311939 109.695333 
L 97.676775 109.983364 
L 98.041612 110.270538 
L 98.406449 110.556855 
L 98.771286 110.842314 
L 99.136123 111.126916 
L 99.50096 111.410661 
L 99.865797 111.693549 
L 100.230633 111.975579 
L 100.59547 112.256752 
L 100.960307 112.537068 
L 101.325144 112.816527 
L 101.689981 113.095129 
L 102.054818 113.372873 
L 102.419655 113.64976 
L 102.784491 113.92579 
L 103.149328 114.200962 
L 103.514165 114.475278 
L 103.879002 114.748736 
L 104.243839 115.021336 
L 104.608676 115.29308 
L 104.973512 115.563966 
L 105.338349 115.833996 
L 105.703186 116.103168 
L 106.068023 116.371482 
L 106.068023 49.228518 
L 106.068023 49.228518 
L 105.703186 49.496832 
L 105.338349 49.766004 
L 104.973512 50.036034 
L 104.608676 50.30692 
L 104.243839 50.578664 
L 103.879002 50.851264 
L 103.514165 51.124722 
L 103.149328 51.399038 
L 102.784491 51.67421 
L 102.419655 51.95024 
L 102.054818 52.227127 
L 101.689981 52.504871 
L 101.325144 52.783473 
L 100.960307 53.062932 
L 100.59547 53.343248 
L 100.230633 53.624421 
L 99.865797 53.906451 
L 99.50096 54.189339 
L 99.136123 54.473084 
L 98.771286 54.757686 
L 98.406449 55.043145 
L 98.041612 55.329462 
L 97.676775 55.616636 
L 97.311939 55.904667 
L 96.947102 56.193555 
L 96.582265 56.483301 
L 96.217428 56.773904 
L 95.852591 57.065364 
L 95.487754 57.357681 
L 95.122917 57.650855 
L 94.758081 57.944887 
L 94.393244 58.239776 
L 94.028407 58.535522 
L 93.66357 58.832126 
L 93.298733 59.129586 
L 92.933896 59.427904 
L 92.56906 59.72708 
L 92.204223 60.027112 
L 91.839386 60.328002 
L 91.474549 60.629748 
L 91.109712 60.932352 
L 90.744875 61.235814 
L 90.380038 61.540132 
L 90.015202 61.845308 
L 89.650365 62.151341 
L 89.285528 62.458231 
L 88.920691 62.765979 
L 88.555854 63.074584 
L 88.191017 63.384046 
L 87.82618 63.694365 
L 87.461344 64.005541 
L 87.096507 64.317575 
L 86.73167 64.630466 
L 86.366833 64.944214 
L 86.001996 65.258819 
L 85.637159 65.574282 
L 85.272322 65.890602 
L 84.907486 66.207779 
L 84.542649 66.525813 
L 84.177812 66.844705 
L 83.812975 67.164454 
L 83.448138 67.48506 
L 83.083301 67.806523 
L 82.718464 68.128844 
L 82.353628 68.452021 
L 81.988791 68.776056 
L 81.623954 69.100948 
L 81.259117 69.426698 
L 80.89428 69.753305 
L 80.529443 70.080768 
L 80.164607 70.40909 
L 79.79977 70.738268 
L 79.434933 71.068304 
L 79.070096 71.399196 
L 78.705259 71.730947 
L 78.340422 72.063554 
L 77.975585 72.397018 
L 77.610749 72.73134 
L 77.245912 73.066519 
L 76.881075 73.402556 
L 76.516238 73.739449 
L 76.151401 74.0772 
L 75.786564 74.415808 
L 75.421727 74.755273 
L 75.056891 75.095595 
L 74.692054 75.436775 
L 74.327217 75.778812 
L 73.96238 76.121706 
L 73.597543 76.465458 
L 73.232706 76.810066 
L 72.867869 77.155532 
L 72.503033 77.501855 
L 72.138196 77.849036 
L 71.773359 78.197073 
L 71.408522 78.545968 
L 71.043685 78.89572 
L 70.678848 79.246329 
L 70.314012 79.597796 
L 69.949175 79.950119 
L 69.584338 80.3033 
L 69.219501 80.657339 
L 68.854664 81.012234 
L 68.489827 81.367987 
L 68.12499 81.724597 
L 67.760154 82.082064 
L 67.395317 82.440388 
z
" style="fill:#0000ff;fill-opacity:0.1;stroke:#0000ff;stroke-opacity:0.1;"/>
    <path clip-path="url(#p6adfd9ae43)" d="M 115.553781 48.96106 
L 115.553781 116.63894 
L 115.918618 116.90554 
L 116.283455 117.171283 
L 116.648292 117.436169 
L 117.013129 117.700197 
L 117.377965 117.963368 
L 117.742802 118.225682 
L 118.107639 118.487139 
L 118.472476 118.747739 
L 118.837313 119.007481 
L 119.20215 119.266366 
L 119.566987 119.524394 
L 119.931823 119.781565 
L 120.29666 120.037878 
L 120.661497 120.293334 
L 121.026334 120.547933 
L 121.391171 120.801675 
L 121.756008 121.054559 
L 122.120845 121.306586 
L 122.485681 121.557756 
L 122.850518 121.808069 
L 123.215355 122.057524 
L 123.580192 122.306123 
L 123.945029 122.553864 
L 124.309866 122.800748 
L 124.674702 123.046774 
L 125.039539 123.291943 
L 125.404376 123.536256 
L 125.769213 123.77971 
L 126.13405 124.022308 
L 126.498887 124.264048 
L 126.863724 124.504931 
L 127.22856 124.744957 
L 127.593397 124.984126 
L 127.958234 125.222438 
L 128.323071 125.459892 
L 128.687908 125.696489 
L 129.052745 125.932228 
L 129.417582 126.167111 
L 129.782418 126.401136 
L 130.147255 126.634304 
L 130.512092 126.866615 
L 130.876929 127.098069 
L 131.241766 127.328665 
L 131.606603 127.558404 
L 131.97144 127.787286 
L 132.336276 128.01531 
L 132.701113 128.242478 
L 133.06595 128.468788 
L 133.430787 128.694241 
L 133.795624 128.918836 
L 134.160461 129.142575 
L 134.525298 129.365456 
L 134.890134 129.58748 
L 135.254971 129.808647 
L 135.619808 130.028956 
L 135.984645 130.248409 
L 136.349482 130.467004 
L 136.714319 130.684741 
L 137.079155 130.901622 
L 137.443992 131.117645 
L 137.808829 131.332811 
L 138.173666 131.54712 
L 138.538503 131.760572 
L 138.90334 131.973166 
L 139.268177 132.184903 
L 139.633013 132.395783 
L 139.99785 132.605806 
L 140.362687 132.814971 
L 140.727524 133.023279 
L 141.092361 133.23073 
L 141.457198 133.437324 
L 141.822035 133.643061 
L 142.186871 133.84794 
L 142.551708 134.051962 
L 142.916545 134.255127 
L 143.281382 134.457434 
L 143.646219 134.658885 
L 144.011056 134.859478 
L 144.375893 135.059214 
L 144.740729 135.258092 
L 145.105566 135.456114 
L 145.470403 135.653278 
L 145.83524 135.849585 
L 146.200077 136.045034 
L 146.564914 136.239627 
L 146.92975 136.433362 
L 147.294587 136.62624 
L 147.659424 136.818261 
L 148.024261 137.009424 
L 148.389098 137.19973 
L 148.753935 137.389179 
L 149.118772 137.577771 
L 149.483608 137.765506 
L 149.848445 137.952383 
L 150.213282 138.138403 
L 150.578119 138.323566 
L 150.942956 138.507871 
L 151.307793 138.69132 
L 151.67263 138.873911 
L 152.037466 139.055645 
L 152.402303 139.236522 
L 152.76714 139.416541 
L 153.131977 139.595703 
L 153.496814 139.774008 
L 153.861651 139.951456 
L 154.226488 140.128046 
L 154.591324 140.30378 
L 154.956161 140.478656 
L 155.320998 140.652674 
L 155.685835 140.825836 
L 156.050672 140.99814 
L 156.415509 141.169587 
L 156.780345 141.340177 
L 157.145182 141.50991 
L 157.510019 141.678785 
L 157.874856 141.846803 
L 158.239693 142.013964 
L 158.60453 142.180268 
L 158.969367 142.345714 
L 159.334203 142.510303 
L 159.69904 142.674035 
L 160.063877 142.83691 
L 160.428714 142.998928 
L 160.793551 143.160088 
L 161.158388 143.320391 
L 161.523225 143.479837 
L 161.888061 143.638425 
L 162.252898 143.796157 
L 162.617735 143.953031 
L 162.982572 144.109047 
L 163.347409 144.264207 
L 163.712246 144.418509 
L 164.077083 144.571955 
L 164.441919 144.724542 
L 164.806756 144.876273 
L 165.171593 145.027147 
L 165.53643 145.177163 
L 165.901267 145.326322 
L 166.266104 145.474623 
L 166.63094 145.622068 
L 166.995777 145.768655 
L 167.360614 145.914385 
L 167.725451 146.059258 
L 168.090288 146.203273 
L 168.455125 146.346432 
L 168.819962 146.488733 
L 169.184798 146.630177 
L 169.549635 146.770763 
L 169.914472 146.910493 
L 170.279309 147.049365 
L 170.644146 147.18738 
L 171.008983 147.324537 
L 171.37382 147.460838 
L 171.738656 147.596281 
L 172.103493 147.730867 
L 172.46833 147.864596 
L 172.833167 147.997467 
L 173.198004 148.129481 
L 173.562841 148.260638 
L 173.927678 148.390938 
L 174.292514 148.520381 
L 174.657351 148.648966 
L 175.022188 148.776694 
L 175.387025 148.903565 
L 175.751862 149.029579 
L 176.116699 149.154735 
L 176.481536 149.279034 
L 176.846372 149.402476 
L 177.211209 149.525061 
L 177.576046 149.646788 
L 177.940883 149.767658 
L 178.30572 149.887671 
L 178.670557 150.006827 
L 179.035393 150.125125 
L 179.40023 150.242567 
L 179.765067 150.359151 
L 180.129904 150.474877 
L 180.494741 150.589747 
L 180.859578 150.703759 
L 181.224415 150.816914 
L 181.589251 150.929212 
L 181.954088 151.040653 
L 182.318925 151.151236 
L 182.683762 151.260962 
L 183.048599 151.369831 
L 183.413436 151.477843 
L 183.778273 151.584997 
L 184.143109 151.691294 
L 184.507946 151.796734 
L 184.872783 151.901317 
L 185.23762 152.005043 
L 185.602457 152.107911 
L 185.967294 152.209922 
L 186.332131 152.311076 
L 186.696967 152.411372 
L 187.061804 152.510811 
L 187.426641 152.609393 
L 187.791478 152.707118 
L 188.156315 152.803986 
L 188.521152 152.899996 
L 188.885988 152.995149 
L 189.250825 153.089445 
L 189.615662 153.182884 
L 189.980499 153.275465 
L 190.345336 153.36719 
L 190.710173 153.458057 
L 191.07501 153.548066 
L 191.439846 153.637219 
L 191.804683 153.725514 
L 192.16952 153.812952 
L 192.534357 153.899533 
L 192.899194 153.985256 
L 193.264031 154.070123 
L 193.628868 154.154132 
L 193.993704 154.237283 
L 194.358541 154.319578 
L 194.723378 154.401015 
L 195.088215 154.481596 
L 195.453052 154.561318 
L 195.817889 154.640184 
L 196.182726 154.718193 
L 196.547562 154.795344 
L 196.912399 154.871638 
L 197.277236 154.947074 
L 197.642073 155.021654 
L 198.00691 155.095376 
L 198.371747 155.168241 
L 198.736583 155.240249 
L 199.10142 155.311399 
L 199.466257 155.381693 
L 199.831094 155.451129 
L 200.195931 155.519708 
L 200.560768 155.587429 
L 200.925605 155.654294 
L 201.290441 155.720301 
L 201.655278 155.785451 
L 202.020115 155.849743 
L 202.384952 155.913179 
L 202.749789 155.975757 
L 203.114626 156.037478 
L 203.479463 156.098342 
L 203.844299 156.158348 
L 204.209136 156.217497 
L 204.573973 156.275789 
L 204.93881 156.333224 
L 205.303647 156.389802 
L 205.668484 156.445522 
L 206.033321 156.500385 
L 206.398157 156.554391 
L 206.762994 156.607539 
L 207.127831 156.659831 
L 207.492668 156.711265 
L 207.857505 156.761842 
L 208.222342 156.811561 
L 208.587179 156.860424 
L 208.952015 156.908429 
L 209.316852 156.955577 
L 209.681689 157.001868 
L 210.046526 157.047301 
L 210.411363 157.091877 
L 210.7762 157.135596 
L 211.141036 157.178458 
L 211.505873 157.220463 
L 211.87071 157.26161 
L 212.235547 157.3019 
L 212.600384 157.341333 
L 212.965221 157.379908 
L 213.330058 157.417627 
L 213.694894 157.454488 
L 214.059731 157.490492 
L 214.424568 157.525638 
L 214.789405 157.559928 
L 215.154242 157.59336 
L 215.519079 157.625935 
L 215.883916 157.657653 
L 216.248752 157.688513 
L 216.613589 157.718516 
L 216.978426 157.747662 
L 217.343263 157.775951 
L 217.7081 157.803383 
L 218.072937 157.829957 
L 218.437774 157.855674 
L 218.80261 157.880534 
L 219.167447 157.904536 
L 219.532284 157.927682 
L 219.897121 157.94997 
L 220.261958 157.971401 
L 220.626795 157.991974 
L 220.991631 158.011691 
L 221.356468 158.03055 
L 221.721305 158.048552 
L 222.086142 158.065697 
L 222.450979 158.081984 
L 222.815816 158.097414 
L 223.180653 158.111987 
L 223.545489 158.125703 
L 223.910326 158.138562 
L 224.275163 158.150563 
L 224.64 158.161707 
L 225.004837 158.171994 
L 225.369674 158.181423 
L 225.734511 158.189996 
L 226.099347 158.197711 
L 226.464184 158.204569 
L 226.829021 158.210569 
L 227.193858 158.215713 
L 227.558695 158.219999 
L 227.923532 158.223428 
L 228.288369 158.226 
L 228.653205 158.227714 
L 229.018042 158.228571 
L 229.382879 158.228571 
L 229.747716 158.227714 
L 230.112553 158.226 
L 230.47739 158.223428 
L 230.842226 158.219999 
L 231.207063 158.215713 
L 231.5719 158.210569 
L 231.936737 158.204569 
L 232.301574 158.197711 
L 232.666411 158.189996 
L 233.031248 158.181423 
L 233.396084 158.171994 
L 233.760921 158.161707 
L 234.125758 158.150563 
L 234.490595 158.138562 
L 234.855432 158.125703 
L 235.220269 158.111987 
L 235.585106 158.097414 
L 235.949942 158.081984 
L 236.314779 158.065697 
L 236.679616 158.048552 
L 237.044453 158.03055 
L 237.40929 158.011691 
L 237.774127 157.991974 
L 238.138964 157.971401 
L 238.5038 157.94997 
L 238.868637 157.927682 
L 239.233474 157.904536 
L 239.598311 157.880534 
L 239.963148 157.855674 
L 240.327985 157.829957 
L 240.692821 157.803383 
L 241.057658 157.775951 
L 241.422495 157.747662 
L 241.787332 157.718516 
L 242.152169 157.688513 
L 242.517006 157.657653 
L 242.881843 157.625935 
L 243.246679 157.59336 
L 243.611516 157.559928 
L 243.976353 157.525638 
L 244.34119 157.490492 
L 244.706027 157.454488 
L 245.070864 157.417627 
L 245.435701 157.379908 
L 245.800537 157.341333 
L 246.165374 157.3019 
L 246.530211 157.26161 
L 246.895048 157.220463 
L 247.259885 157.178458 
L 247.624722 157.135596 
L 247.989559 157.091877 
L 248.354395 157.047301 
L 248.719232 157.001868 
L 249.084069 156.955577 
L 249.448906 156.908429 
L 249.813743 156.860424 
L 250.17858 156.811561 
L 250.543417 156.761842 
L 250.908253 156.711265 
L 251.27309 156.659831 
L 251.637927 156.607539 
L 252.002764 156.554391 
L 252.367601 156.500385 
L 252.732438 156.445522 
L 253.097274 156.389802 
L 253.462111 156.333224 
L 253.826948 156.275789 
L 254.191785 156.217497 
L 254.556622 156.158348 
L 254.921459 156.098342 
L 255.286296 156.037478 
L 255.651132 155.975757 
L 256.015969 155.913179 
L 256.380806 155.849743 
L 256.745643 155.785451 
L 257.11048 155.720301 
L 257.475317 155.654294 
L 257.840154 155.587429 
L 258.20499 155.519708 
L 258.569827 155.451129 
L 258.934664 155.381693 
L 259.299501 155.311399 
L 259.664338 155.240249 
L 260.029175 155.168241 
L 260.394012 155.095376 
L 260.758848 155.021654 
L 261.123685 154.947074 
L 261.488522 154.871638 
L 261.853359 154.795344 
L 262.218196 154.718193 
L 262.583033 154.640184 
L 262.947869 154.561318 
L 263.312706 154.481596 
L 263.677543 154.401015 
L 264.04238 154.319578 
L 264.407217 154.237283 
L 264.772054 154.154132 
L 265.136891 154.070123 
L 265.501727 153.985256 
L 265.866564 153.899533 
L 266.231401 153.812952 
L 266.596238 153.725514 
L 266.961075 153.637219 
L 267.325912 153.548066 
L 267.690749 153.458057 
L 268.055585 153.36719 
L 268.420422 153.275465 
L 268.785259 153.182884 
L 269.150096 153.089445 
L 269.514933 152.995149 
L 269.87977 152.899996 
L 270.244607 152.803986 
L 270.609443 152.707118 
L 270.97428 152.609393 
L 271.339117 152.510811 
L 271.703954 152.411372 
L 272.068791 152.311076 
L 272.433628 152.209922 
L 272.798464 152.107911 
L 273.163301 152.005043 
L 273.528138 151.901317 
L 273.892975 151.796734 
L 274.257812 151.691294 
L 274.622649 151.584997 
L 274.987486 151.477843 
L 275.352322 151.369831 
L 275.717159 151.260962 
L 276.081996 151.151236 
L 276.446833 151.040653 
L 276.81167 150.929212 
L 277.176507 150.816914 
L 277.541344 150.703759 
L 277.90618 150.589747 
L 278.271017 150.474877 
L 278.635854 150.359151 
L 279.000691 150.242567 
L 279.365528 150.125125 
L 279.730365 150.006827 
L 280.095202 149.887671 
L 280.460038 149.767658 
L 280.824875 149.646788 
L 281.189712 149.525061 
L 281.554549 149.402476 
L 281.919386 149.279034 
L 282.284223 149.154735 
L 282.64906 149.029579 
L 283.013896 148.903565 
L 283.378733 148.776694 
L 283.74357 148.648966 
L 284.108407 148.520381 
L 284.473244 148.390938 
L 284.838081 148.260638 
L 285.202917 148.129481 
L 285.567754 147.997467 
L 285.932591 147.864596 
L 286.297428 147.730867 
L 286.662265 147.596281 
L 287.027102 147.460838 
L 287.391939 147.324537 
L 287.756775 147.18738 
L 288.121612 147.049365 
L 288.486449 146.910493 
L 288.851286 146.770763 
L 289.216123 146.630177 
L 289.58096 146.488733 
L 289.945797 146.346432 
L 290.310633 146.203273 
L 290.67547 146.059258 
L 291.040307 145.914385 
L 291.405144 145.768655 
L 291.769981 145.622068 
L 292.134818 145.474623 
L 292.499655 145.326322 
L 292.864491 145.177163 
L 293.229328 145.027147 
L 293.594165 144.876273 
L 293.959002 144.724542 
L 294.323839 144.571955 
L 294.688676 144.418509 
L 295.053512 144.264207 
L 295.418349 144.109047 
L 295.783186 143.953031 
L 296.148023 143.796157 
L 296.51286 143.638425 
L 296.877697 143.479837 
L 297.242534 143.320391 
L 297.60737 143.160088 
L 297.972207 142.998928 
L 298.337044 142.83691 
L 298.701881 142.674035 
L 299.066718 142.510303 
L 299.431555 142.345714 
L 299.796392 142.180268 
L 300.161228 142.013964 
L 300.526065 141.846803 
L 300.890902 141.678785 
L 301.255739 141.50991 
L 301.620576 141.340177 
L 301.985413 141.169587 
L 302.35025 140.99814 
L 302.715086 140.825836 
L 303.079923 140.652674 
L 303.44476 140.478656 
L 303.809597 140.30378 
L 304.174434 140.128046 
L 304.539271 139.951456 
L 304.904107 139.774008 
L 305.268944 139.595703 
L 305.633781 139.416541 
L 305.998618 139.236522 
L 306.363455 139.055645 
L 306.728292 138.873911 
L 307.093129 138.69132 
L 307.457965 138.507871 
L 307.822802 138.323566 
L 308.187639 138.138403 
L 308.552476 137.952383 
L 308.917313 137.765506 
L 309.28215 137.577771 
L 309.646987 137.389179 
L 310.011823 137.19973 
L 310.37666 137.009424 
L 310.741497 136.818261 
L 311.106334 136.62624 
L 311.471171 136.433362 
L 311.836008 136.239627 
L 312.200845 136.045034 
L 312.565681 135.849585 
L 312.930518 135.653278 
L 313.295355 135.456114 
L 313.660192 135.258092 
L 314.025029 135.059214 
L 314.389866 134.859478 
L 314.754702 134.658885 
L 315.119539 134.457434 
L 315.484376 134.255127 
L 315.849213 134.051962 
L 316.21405 133.84794 
L 316.578887 133.643061 
L 316.943724 133.437324 
L 317.30856 133.23073 
L 317.673397 133.023279 
L 318.038234 132.814971 
L 318.403071 132.605806 
L 318.767908 132.395783 
L 319.132745 132.184903 
L 319.497582 131.973166 
L 319.862418 131.760572 
L 320.227255 131.54712 
L 320.592092 131.332811 
L 320.956929 131.117645 
L 321.321766 130.901622 
L 321.686603 130.684741 
L 322.05144 130.467004 
L 322.416276 130.248409 
L 322.781113 130.028956 
L 323.14595 129.808647 
L 323.510787 129.58748 
L 323.875624 129.365456 
L 324.240461 129.142575 
L 324.605298 128.918836 
L 324.970134 128.694241 
L 325.334971 128.468788 
L 325.699808 128.242478 
L 326.064645 128.01531 
L 326.429482 127.787286 
L 326.794319 127.558404 
L 327.159155 127.328665 
L 327.523992 127.098069 
L 327.888829 126.866615 
L 328.253666 126.634304 
L 328.618503 126.401136 
L 328.98334 126.167111 
L 329.348177 125.932228 
L 329.713013 125.696489 
L 330.07785 125.459892 
L 330.442687 125.222438 
L 330.807524 124.984126 
L 331.172361 124.744957 
L 331.537198 124.504931 
L 331.902035 124.264048 
L 332.266871 124.022308 
L 332.631708 123.77971 
L 332.996545 123.536256 
L 333.361382 123.291943 
L 333.726219 123.046774 
L 334.091056 122.800748 
L 334.455893 122.553864 
L 334.820729 122.306123 
L 335.185566 122.057524 
L 335.550403 121.808069 
L 335.91524 121.557756 
L 336.280077 121.306586 
L 336.644914 121.054559 
L 337.00975 120.801675 
L 337.374587 120.547933 
L 337.739424 120.293334 
L 338.104261 120.037878 
L 338.469098 119.781565 
L 338.833935 119.524394 
L 339.198772 119.266366 
L 339.563608 119.007481 
L 339.928445 118.747739 
L 340.293282 118.487139 
L 340.658119 118.225682 
L 341.022956 117.963368 
L 341.387793 117.700197 
L 341.75263 117.436169 
L 342.117466 117.171283 
L 342.482303 116.90554 
L 342.84714 116.63894 
L 343.211977 116.371482 
L 343.576814 116.103168 
L 343.941651 115.833996 
L 344.306488 115.563966 
L 344.671324 115.29308 
L 345.036161 115.021336 
L 345.400998 114.748736 
L 345.765835 114.475278 
L 346.130672 114.200962 
L 346.495509 113.92579 
L 346.860345 113.64976 
L 347.225182 113.372873 
L 347.590019 113.095129 
L 347.954856 112.816527 
L 348.319693 112.537068 
L 348.68453 112.256752 
L 349.049367 111.975579 
L 349.414203 111.693549 
L 349.77904 111.410661 
L 350.143877 111.126916 
L 350.508714 110.842314 
L 350.873551 110.556855 
L 351.238388 110.270538 
L 351.603225 109.983364 
L 351.968061 109.695333 
L 352.332898 109.406445 
L 352.697735 109.116699 
L 353.062572 108.826096 
L 353.427409 108.534636 
L 353.792246 108.242319 
L 354.157083 107.949145 
L 354.521919 107.655113 
L 354.886756 107.360224 
L 355.251593 107.064478 
L 355.61643 106.767874 
L 355.981267 106.470414 
L 356.346104 106.172096 
L 356.71094 105.87292 
L 357.075777 105.572888 
L 357.440614 105.271998 
L 357.805451 104.970252 
L 358.170288 104.667648 
L 358.535125 104.364186 
L 358.899962 104.059868 
L 359.264798 103.754692 
L 359.629635 103.448659 
L 359.994472 103.141769 
L 360.359309 102.834021 
L 360.724146 102.525416 
L 361.088983 102.215954 
L 361.45382 101.905635 
L 361.818656 101.594459 
L 362.183493 101.282425 
L 362.54833 100.969534 
L 362.913167 100.655786 
L 363.278004 100.341181 
L 363.642841 100.025718 
L 364.007678 99.709398 
L 364.372514 99.392221 
L 364.737351 99.074187 
L 365.102188 98.755295 
L 365.467025 98.435546 
L 365.831862 98.11494 
L 366.196699 97.793477 
L 366.561536 97.471156 
L 366.926372 97.147979 
L 367.291209 96.823944 
L 367.656046 96.499052 
L 368.020883 96.173302 
L 368.38572 95.846695 
L 368.750557 95.519232 
L 369.115393 95.19091 
L 369.48023 94.861732 
L 369.845067 94.531696 
L 370.209904 94.200804 
L 370.574741 93.869053 
L 370.939578 93.536446 
L 371.304415 93.202982 
L 371.669251 92.86866 
L 372.034088 92.533481 
L 372.398925 92.197444 
L 372.763762 91.860551 
L 373.128599 91.5228 
L 373.493436 91.184192 
L 373.858273 90.844727 
L 374.223109 90.504405 
L 374.587946 90.163225 
L 374.952783 89.821188 
L 375.31762 89.478294 
L 375.682457 89.134542 
L 376.047294 88.789934 
L 376.412131 88.444468 
L 376.776967 88.098145 
L 377.141804 87.750964 
L 377.506641 87.402927 
L 377.871478 87.054032 
L 378.236315 86.70428 
L 378.601152 86.353671 
L 378.965988 86.002204 
L 379.330825 85.649881 
L 379.695662 85.2967 
L 380.060499 84.942661 
L 380.425336 84.587766 
L 380.790173 84.232013 
L 381.15501 83.875403 
L 381.519846 83.517936 
L 381.884683 83.159612 
L 381.884683 82.440388 
L 381.884683 82.440388 
L 381.519846 82.082064 
L 381.15501 81.724597 
L 380.790173 81.367987 
L 380.425336 81.012234 
L 380.060499 80.657339 
L 379.695662 80.3033 
L 379.330825 79.950119 
L 378.965988 79.597796 
L 378.601152 79.246329 
L 378.236315 78.89572 
L 377.871478 78.545968 
L 377.506641 78.197073 
L 377.141804 77.849036 
L 376.776967 77.501855 
L 376.412131 77.155532 
L 376.047294 76.810066 
L 375.682457 76.465458 
L 375.31762 76.121706 
L 374.952783 75.778812 
L 374.587946 75.436775 
L 374.223109 75.095595 
L 373.858273 74.755273 
L 373.493436 74.415808 
L 373.128599 74.0772 
L 372.763762 73.739449 
L 372.398925 73.402556 
L 372.034088 73.066519 
L 371.669251 72.73134 
L 371.304415 72.397018 
L 370.939578 72.063554 
L 370.574741 71.730947 
L 370.209904 71.399196 
L 369.845067 71.068304 
L 369.48023 70.738268 
L 369.115393 70.40909 
L 368.750557 70.080768 
L 368.38572 69.753305 
L 368.020883 69.426698 
L 367.656046 69.100948 
L 367.291209 68.776056 
L 366.926372 68.452021 
L 366.561536 68.128844 
L 366.196699 67.806523 
L 365.831862 67.48506 
L 365.467025 67.164454 
L 365.102188 66.844705 
L 364.737351 66.525813 
L 364.372514 66.207779 
L 364.007678 65.890602 
L 363.642841 65.574282 
L 363.278004 65.258819 
L 362.913167 64.944214 
L 362.54833 64.630466 
L 362.183493 64.317575 
L 361.818656 64.005541 
L 361.45382 63.694365 
L 361.088983 63.384046 
L 360.724146 63.074584 
L 360.359309 62.765979 
L 359.994472 62.458231 
L 359.629635 62.151341 
L 359.264798 61.845308 
L 358.899962 61.540132 
L 358.535125 61.235814 
L 358.170288 60.932352 
L 357.805451 60.629748 
L 357.440614 60.328002 
L 357.075777 60.027112 
L 356.71094 59.72708 
L 356.346104 59.427904 
L 355.981267 59.129586 
L 355.61643 58.832126 
L 355.251593 58.535522 
L 354.886756 58.239776 
L 354.521919 57.944887 
L 354.157083 57.650855 
L 353.792246 57.357681 
L 353.427409 57.065364 
L 353.062572 56.773904 
L 352.697735 56.483301 
L 352.332898 56.193555 
L 351.968061 55.904667 
L 351.603225 55.616636 
L 351.238388 55.329462 
L 350.873551 55.043145 
L 350.508714 54.757686 
L 350.143877 54.473084 
L 349.77904 54.189339 
L 349.414203 53.906451 
L 349.049367 53.624421 
L 348.68453 53.343248 
L 348.319693 53.062932 
L 347.954856 52.783473 
L 347.590019 52.504871 
L 347.225182 52.227127 
L 346.860345 51.95024 
L 346.495509 51.67421 
L 346.130672 51.399038 
L 345.765835 51.124722 
L 345.400998 50.851264 
L 345.036161 50.578664 
L 344.671324 50.30692 
L 344.306488 50.036034 
L 343.941651 49.766004 
L 343.576814 49.496832 
L 343.211977 49.228518 
L 342.84714 48.96106 
L 342.482303 48.69446 
L 342.117466 48.428717 
L 341.75263 48.163831 
L 341.387793 47.899803 
L 341.022956 47.636632 
L 340.658119 47.374318 
L 340.293282 47.112861 
L 339.928445 46.852261 
L 339.563608 46.592519 
L 339.198772 46.333634 
L 338.833935 46.075606 
L 338.469098 45.818435 
L 338.104261 45.562122 
L 337.739424 45.306666 
L 337.374587 45.052067 
L 337.00975 44.798325 
L 336.644914 44.545441 
L 336.280077 44.293414 
L 335.91524 44.042244 
L 335.550403 43.791931 
L 335.185566 43.542476 
L 334.820729 43.293877 
L 334.455893 43.046136 
L 334.091056 42.799252 
L 333.726219 42.553226 
L 333.361382 42.308057 
L 332.996545 42.063744 
L 332.631708 41.82029 
L 332.266871 41.577692 
L 331.902035 41.335952 
L 331.537198 41.095069 
L 331.172361 40.855043 
L 330.807524 40.615874 
L 330.442687 40.377562 
L 330.07785 40.140108 
L 329.713013 39.903511 
L 329.348177 39.667772 
L 328.98334 39.432889 
L 328.618503 39.198864 
L 328.253666 38.965696 
L 327.888829 38.733385 
L 327.523992 38.501931 
L 327.159155 38.271335 
L 326.794319 38.041596 
L 326.429482 37.812714 
L 326.064645 37.58469 
L 325.699808 37.357522 
L 325.334971 37.131212 
L 324.970134 36.905759 
L 324.605298 36.681164 
L 324.240461 36.457425 
L 323.875624 36.234544 
L 323.510787 36.01252 
L 323.14595 35.791353 
L 322.781113 35.571044 
L 322.416276 35.351591 
L 322.05144 35.132996 
L 321.686603 34.915259 
L 321.321766 34.698378 
L 320.956929 34.482355 
L 320.592092 34.267189 
L 320.227255 34.05288 
L 319.862418 33.839428 
L 319.497582 33.626834 
L 319.132745 33.415097 
L 318.767908 33.204217 
L 318.403071 32.994194 
L 318.038234 32.785029 
L 317.673397 32.576721 
L 317.30856 32.36927 
L 316.943724 32.162676 
L 316.578887 31.956939 
L 316.21405 31.75206 
L 315.849213 31.548038 
L 315.484376 31.344873 
L 315.119539 31.142566 
L 314.754702 30.941115 
L 314.389866 30.740522 
L 314.025029 30.540786 
L 313.660192 30.341908 
L 313.295355 30.143886 
L 312.930518 29.946722 
L 312.565681 29.750415 
L 312.200845 29.554966 
L 311.836008 29.360373 
L 311.471171 29.166638 
L 311.106334 28.97376 
L 310.741497 28.781739 
L 310.37666 28.590576 
L 310.011823 28.40027 
L 309.646987 28.210821 
L 309.28215 28.022229 
L 308.917313 27.834494 
L 308.552476 27.647617 
L 308.187639 27.461597 
L 307.822802 27.276434 
L 307.457965 27.092129 
L 307.093129 26.90868 
L 306.728292 26.726089 
L 306.363455 26.544355 
L 305.998618 26.363478 
L 305.633781 26.183459 
L 305.268944 26.004297 
L 304.904107 25.825992 
L 304.539271 25.648544 
L 304.174434 25.471954 
L 303.809597 25.29622 
L 303.44476 25.121344 
L 303.079923 24.947326 
L 302.715086 24.774164 
L 302.35025 24.60186 
L 301.985413 24.430413 
L 301.620576 24.259823 
L 301.255739 24.09009 
L 300.890902 23.921215 
L 300.526065 23.753197 
L 300.161228 23.586036 
L 299.796392 23.419732 
L 299.431555 23.254286 
L 299.066718 23.089697 
L 298.701881 22.925965 
L 298.337044 22.76309 
L 297.972207 22.601072 
L 297.60737 22.439912 
L 297.242534 22.279609 
L 296.877697 22.120163 
L 296.51286 21.961575 
L 296.148023 21.803843 
L 295.783186 21.646969 
L 295.418349 21.490953 
L 295.053512 21.335793 
L 294.688676 21.181491 
L 294.323839 21.028045 
L 293.959002 20.875458 
L 293.594165 20.723727 
L 293.229328 20.572853 
L 292.864491 20.422837 
L 292.499655 20.273678 
L 292.134818 20.125377 
L 291.769981 19.977932 
L 291.405144 19.831345 
L 291.040307 19.685615 
L 290.67547 19.540742 
L 290.310633 19.396727 
L 289.945797 19.253568 
L 289.58096 19.111267 
L 289.216123 18.969823 
L 288.851286 18.829237 
L 288.486449 18.689507 
L 288.121612 18.550635 
L 287.756775 18.41262 
L 287.391939 18.275463 
L 287.027102 18.139162 
L 286.662265 18.003719 
L 286.297428 17.869133 
L 285.932591 17.735404 
L 285.567754 17.602533 
L 285.202917 17.470519 
L 284.838081 17.339362 
L 284.473244 17.209062 
L 284.108407 17.079619 
L 283.74357 16.951034 
L 283.378733 16.823306 
L 283.013896 16.696435 
L 282.64906 16.570421 
L 282.284223 16.445265 
L 281.919386 16.320966 
L 281.554549 16.197524 
L 281.189712 16.074939 
L 280.824875 15.953212 
L 280.460038 15.832342 
L 280.095202 15.712329 
L 279.730365 15.593173 
L 279.365528 15.474875 
L 279.000691 15.357433 
L 278.635854 15.240849 
L 278.271017 15.125123 
L 277.90618 15.010253 
L 277.541344 14.896241 
L 277.176507 14.783086 
L 276.81167 14.670788 
L 276.446833 14.559347 
L 276.081996 14.448764 
L 275.717159 14.339038 
L 275.352322 14.230169 
L 274.987486 14.122157 
L 274.622649 14.015003 
L 274.257812 13.908706 
L 273.892975 13.803266 
L 273.528138 13.698683 
L 273.163301 13.594957 
L 272.798464 13.492089 
L 272.433628 13.390078 
L 272.068791 13.288924 
L 271.703954 13.188628 
L 271.339117 13.089189 
L 270.97428 12.990607 
L 270.609443 12.892882 
L 270.244607 12.796014 
L 269.87977 12.700004 
L 269.514933 12.604851 
L 269.150096 12.510555 
L 268.785259 12.417116 
L 268.420422 12.324535 
L 268.055585 12.23281 
L 267.690749 12.141943 
L 267.325912 12.051934 
L 266.961075 11.962781 
L 266.596238 11.874486 
L 266.231401 11.787048 
L 265.866564 11.700467 
L 265.501727 11.614744 
L 265.136891 11.529877 
L 264.772054 11.445868 
L 264.407217 11.362717 
L 264.04238 11.280422 
L 263.677543 11.198985 
L 263.312706 11.118404 
L 262.947869 11.038682 
L 262.583033 10.959816 
L 262.218196 10.881807 
L 261.853359 10.804656 
L 261.488522 10.728362 
L 261.123685 10.652926 
L 260.758848 10.578346 
L 260.394012 10.504624 
L 260.029175 10.431759 
L 259.664338 10.359751 
L 259.299501 10.288601 
L 258.934664 10.218307 
L 258.569827 10.148871 
L 258.20499 10.080292 
L 257.840154 10.012571 
L 257.475317 9.945706 
L 257.11048 9.879699 
L 256.745643 9.814549 
L 256.380806 9.750257 
L 256.015969 9.686821 
L 255.651132 9.624243 
L 255.286296 9.562522 
L 254.921459 9.501658 
L 254.556622 9.441652 
L 254.191785 9.382503 
L 253.826948 9.324211 
L 253.462111 9.266776 
L 253.097274 9.210198 
L 252.732438 9.154478 
L 252.367601 9.099615 
L 252.002764 9.045609 
L 251.637927 8.992461 
L 251.27309 8.940169 
L 250.908253 8.888735 
L 250.543417 8.838158 
L 250.17858 8.788439 
L 249.813743 8.739576 
L 249.448906 8.691571 
L 249.084069 8.644423 
L 248.719232 8.598132 
L 248.354395 8.552699 
L 247.989559 8.508123 
L 247.624722 8.464404 
L 247.259885 8.421542 
L 246.895048 8.379537 
L 246.530211 8.33839 
L 246.165374 8.2981 
L 245.800537 8.258667 
L 245.435701 8.220092 
L 245.070864 8.182373 
L 244.706027 8.145512 
L 244.34119 8.109508 
L 243.976353 8.074362 
L 243.611516 8.040072 
L 243.246679 8.00664 
L 242.881843 7.974065 
L 242.517006 7.942347 
L 242.152169 7.911487 
L 241.787332 7.881484 
L 241.422495 7.852338 
L 241.057658 7.824049 
L 240.692821 7.796617 
L 240.327985 7.770043 
L 239.963148 7.744326 
L 239.598311 7.719466 
L 239.233474 7.695464 
L 238.868637 7.672318 
L 238.5038 7.65003 
L 238.138964 7.628599 
L 237.774127 7.608026 
L 237.40929 7.588309 
L 237.044453 7.56945 
L 236.679616 7.551448 
L 236.314779 7.534303 
L 235.949942 7.518016 
L 235.585106 7.502586 
L 235.220269 7.488013 
L 234.855432 7.474297 
L 234.490595 7.461438 
L 234.125758 7.449437 
L 233.760921 7.438293 
L 233.396084 7.428006 
L 233.031248 7.418577 
L 232.666411 7.410004 
L 232.301574 7.402289 
L 231.936737 7.395431 
L 231.5719 7.389431 
L 231.207063 7.384287 
L 230.842226 7.380001 
L 230.47739 7.376572 
L 230.112553 7.374 
L 229.747716 7.372286 
L 229.382879 7.371429 
L 229.018042 7.371429 
L 228.653205 7.372286 
L 228.288369 7.374 
L 227.923532 7.376572 
L 227.558695 7.380001 
L 227.193858 7.384287 
L 226.829021 7.389431 
L 226.464184 7.395431 
L 226.099347 7.402289 
L 225.734511 7.410004 
L 225.369674 7.418577 
L 225.004837 7.428006 
L 224.64 7.438293 
L 224.275163 7.449437 
L 223.910326 7.461438 
L 223.545489 7.474297 
L 223.180653 7.488013 
L 222.815816 7.502586 
L 222.450979 7.518016 
L 222.086142 7.534303 
L 221.721305 7.551448 
L 221.356468 7.56945 
L 220.991631 7.588309 
L 220.626795 7.608026 
L 220.261958 7.628599 
L 219.897121 7.65003 
L 219.532284 7.672318 
L 219.167447 7.695464 
L 218.80261 7.719466 
L 218.437774 7.744326 
L 218.072937 7.770043 
L 217.7081 7.796617 
L 217.343263 7.824049 
L 216.978426 7.852338 
L 216.613589 7.881484 
L 216.248752 7.911487 
L 215.883916 7.942347 
L 215.519079 7.974065 
L 215.154242 8.00664 
L 214.789405 8.040072 
L 214.424568 8.074362 
L 214.059731 8.109508 
L 213.694894 8.145512 
L 213.330058 8.182373 
L 212.965221 8.220092 
L 212.600384 8.258667 
L 212.235547 8.2981 
L 211.87071 8.33839 
L 211.505873 8.379537 
L 211.141036 8.421542 
L 210.7762 8.464404 
L 210.411363 8.508123 
L 210.046526 8.552699 
L 209.681689 8.598132 
L 209.316852 8.644423 
L 208.952015 8.691571 
L 208.587179 8.739576 
L 208.222342 8.788439 
L 207.857505 8.838158 
L 207.492668 8.888735 
L 207.127831 8.940169 
L 206.762994 8.992461 
L 206.398157 9.045609 
L 206.033321 9.099615 
L 205.668484 9.154478 
L 205.303647 9.210198 
L 204.93881 9.266776 
L 204.573973 9.324211 
L 204.209136 9.382503 
L 203.844299 9.441652 
L 203.479463 9.501658 
L 203.114626 9.562522 
L 202.749789 9.624243 
L 202.384952 9.686821 
L 202.020115 9.750257 
L 201.655278 9.814549 
L 201.290441 9.879699 
L 200.925605 9.945706 
L 200.560768 10.012571 
L 200.195931 10.080292 
L 199.831094 10.148871 
L 199.466257 10.218307 
L 199.10142 10.288601 
L 198.736583 10.359751 
L 198.371747 10.431759 
L 198.00691 10.504624 
L 197.642073 10.578346 
L 197.277236 10.652926 
L 196.912399 10.728362 
L 196.547562 10.804656 
L 196.182726 10.881807 
L 195.817889 10.959816 
L 195.453052 11.038682 
L 195.088215 11.118404 
L 194.723378 11.198985 
L 194.358541 11.280422 
L 193.993704 11.362717 
L 193.628868 11.445868 
L 193.264031 11.529877 
L 192.899194 11.614744 
L 192.534357 11.700467 
L 192.16952 11.787048 
L 191.804683 11.874486 
L 191.439846 11.962781 
L 191.07501 12.051934 
L 190.710173 12.141943 
L 190.345336 12.23281 
L 189.980499 12.324535 
L 189.615662 12.417116 
L 189.250825 12.510555 
L 188.885988 12.604851 
L 188.521152 12.700004 
L 188.156315 12.796014 
L 187.791478 12.892882 
L 187.426641 12.990607 
L 187.061804 13.089189 
L 186.696967 13.188628 
L 186.332131 13.288924 
L 185.967294 13.390078 
L 185.602457 13.492089 
L 185.23762 13.594957 
L 184.872783 13.698683 
L 184.507946 13.803266 
L 184.143109 13.908706 
L 183.778273 14.015003 
L 183.413436 14.122157 
L 183.048599 14.230169 
L 182.683762 14.339038 
L 182.318925 14.448764 
L 181.954088 14.559347 
L 181.589251 14.670788 
L 181.224415 14.783086 
L 180.859578 14.896241 
L 180.494741 15.010253 
L 180.129904 15.125123 
L 179.765067 15.240849 
L 179.40023 15.357433 
L 179.035393 15.474875 
L 178.670557 15.593173 
L 178.30572 15.712329 
L 177.940883 15.832342 
L 177.576046 15.953212 
L 177.211209 16.074939 
L 176.846372 16.197524 
L 176.481536 16.320966 
L 176.116699 16.445265 
L 175.751862 16.570421 
L 175.387025 16.696435 
L 175.022188 16.823306 
L 174.657351 16.951034 
L 174.292514 17.079619 
L 173.927678 17.209062 
L 173.562841 17.339362 
L 173.198004 17.470519 
L 172.833167 17.602533 
L 172.46833 17.735404 
L 172.103493 17.869133 
L 171.738656 18.003719 
L 171.37382 18.139162 
L 171.008983 18.275463 
L 170.644146 18.41262 
L 170.279309 18.550635 
L 169.914472 18.689507 
L 169.549635 18.829237 
L 169.184798 18.969823 
L 168.819962 19.111267 
L 168.455125 19.253568 
L 168.090288 19.396727 
L 167.725451 19.540742 
L 167.360614 19.685615 
L 166.995777 19.831345 
L 166.63094 19.977932 
L 166.266104 20.125377 
L 165.901267 20.273678 
L 165.53643 20.422837 
L 165.171593 20.572853 
L 164.806756 20.723727 
L 164.441919 20.875458 
L 164.077083 21.028045 
L 163.712246 21.181491 
L 163.347409 21.335793 
L 162.982572 21.490953 
L 162.617735 21.646969 
L 162.252898 21.803843 
L 161.888061 21.961575 
L 161.523225 22.120163 
L 161.158388 22.279609 
L 160.793551 22.439912 
L 160.428714 22.601072 
L 160.063877 22.76309 
L 159.69904 22.925965 
L 159.334203 23.089697 
L 158.969367 23.254286 
L 158.60453 23.419732 
L 158.239693 23.586036 
L 157.874856 23.753197 
L 157.510019 23.921215 
L 157.145182 24.09009 
L 156.780345 24.259823 
L 156.415509 24.430413 
L 156.050672 24.60186 
L 155.685835 24.774164 
L 155.320998 24.947326 
L 154.956161 25.121344 
L 154.591324 25.29622 
L 154.226488 25.471954 
L 153.861651 25.648544 
L 153.496814 25.825992 
L 153.131977 26.004297 
L 152.76714 26.183459 
L 152.402303 26.363478 
L 152.037466 26.544355 
L 151.67263 26.726089 
L 151.307793 26.90868 
L 150.942956 27.092129 
L 150.578119 27.276434 
L 150.213282 27.461597 
L 149.848445 27.647617 
L 149.483608 27.834494 
L 149.118772 28.022229 
L 148.753935 28.210821 
L 148.389098 28.40027 
L 148.024261 28.590576 
L 147.659424 28.781739 
L 147.294587 28.97376 
L 146.92975 29.166638 
L 146.564914 29.360373 
L 146.200077 29.554966 
L 145.83524 29.750415 
L 145.470403 29.946722 
L 145.105566 30.143886 
L 144.740729 30.341908 
L 144.375893 30.540786 
L 144.011056 30.740522 
L 143.646219 30.941115 
L 143.281382 31.142566 
L 142.916545 31.344873 
L 142.551708 31.548038 
L 142.186871 31.75206 
L 141.822035 31.956939 
L 141.457198 32.162676 
L 141.092361 32.36927 
L 140.727524 32.576721 
L 140.362687 32.785029 
L 139.99785 32.994194 
L 139.633013 33.204217 
L 139.268177 33.415097 
L 138.90334 33.626834 
L 138.538503 33.839428 
L 138.173666 34.05288 
L 137.808829 34.267189 
L 137.443992 34.482355 
L 137.079155 34.698378 
L 136.714319 34.915259 
L 136.349482 35.132996 
L 135.984645 35.351591 
L 135.619808 35.571044 
L 135.254971 35.791353 
L 134.890134 36.01252 
L 134.525298 36.234544 
L 134.160461 36.457425 
L 133.795624 36.681164 
L 133.430787 36.905759 
L 133.06595 37.131212 
L 132.701113 37.357522 
L 132.336276 37.58469 
L 131.97144 37.812714 
L 131.606603 38.041596 
L 131.241766 38.271335 
L 130.876929 38.501931 
L 130.512092 38.733385 
L 130.147255 38.965696 
L 129.782418 39.198864 
L 129.417582 39.432889 
L 129.052745 39.667772 
L 128.687908 39.903511 
L 128.323071 40.140108 
L 127.958234 40.377562 
L 127.593397 40.615874 
L 127.22856 40.855043 
L 126.863724 41.095069 
L 126.498887 41.335952 
L 126.13405 41.577692 
L 125.769213 41.82029 
L 125.404376 42.063744 
L 125.039539 42.308057 
L 124.674702 42.553226 
L 124.309866 42.799252 
L 123.945029 43.046136 
L 123.580192 43.293877 
L 123.215355 43.542476 
L 122.850518 43.791931 
L 122.485681 44.042244 
L 122.120845 44.293414 
L 121.756008 44.545441 
L 121.391171 44.798325 
L 121.026334 45.052067 
L 120.661497 45.306666 
L 120.29666 45.562122 
L 119.931823 45.818435 
L 119.566987 46.075606 
L 119.20215 46.333634 
L 118.837313 46.592519 
L 118.472476 46.852261 
L 118.107639 47.112861 
L 117.742802 47.374318 
L 117.377965 47.636632 
L 117.013129 47.899803 
L 116.648292 48.163831 
L 116.283455 48.428717 
L 115.918618 48.69446 
L 115.553781 48.96106 
z
" style="fill:#0000ff;fill-opacity:0.1;stroke:#0000ff;stroke-opacity:0.1;"/>
   </g>
   <g id="matplotlib.axis_1">
    <g id="xtick_1">
     <g id="line2d_1">
      <defs>
       <path d="M 0 0 
L 0 3.5 
" id="mc3d770ff00" style="stroke:#000000;stroke-width:0.8;"/>
      </defs>
      <g>
       <use style="stroke:#000000;stroke-width:0.8;" x="40.944645" xlink:href="#mc3d770ff00" y="162"/>
      </g>
     </g>
     <g id="text_1">
      <!-- 1930 -->
      <g transform="translate(28.219645 176.598438)scale(0.1 -0.1)">
       <defs>
        <path d="M 794 531 
L 1825 531 
L 1825 4091 
L 703 3866 
L 703 4441 
L 1819 4666 
L 2450 4666 
L 2450 531 
L 3481 531 
L 3481 0 
L 794 0 
L 794 531 
z
" id="DejaVuSans-31" transform="scale(0.015625)"/>
        <path d="M 703 97 
L 703 672 
Q 941 559 1184 500 
Q 1428 441 1663 441 
Q 2288 441 2617 861 
Q 2947 1281 2994 2138 
Q 2813 1869 2534 1725 
Q 2256 1581 1919 1581 
Q 1219 1581 811 2004 
Q 403 2428 403 3163 
Q 403 3881 828 4315 
Q 1253 4750 1959 4750 
Q 2769 4750 3195 4129 
Q 3622 3509 3622 2328 
Q 3622 1225 3098 567 
Q 2575 -91 1691 -91 
Q 1453 -91 1209 -44 
Q 966 3 703 97 
z
M 1959 2075 
Q 2384 2075 2632 2365 
Q 2881 2656 2881 3163 
Q 2881 3666 2632 3958 
Q 2384 4250 1959 4250 
Q 1534 4250 1286 3958 
Q 1038 3666 1038 3163 
Q 1038 2656 1286 2365 
Q 1534 2075 1959 2075 
z
" id="DejaVuSans-39" transform="scale(0.015625)"/>
        <path d="M 2597 2516 
Q 3050 2419 3304 2112 
Q 3559 1806 3559 1356 
Q 3559 666 3084 287 
Q 2609 -91 1734 -91 
Q 1441 -91 1130 -33 
Q 819 25 488 141 
L 488 750 
Q 750 597 1062 519 
Q 1375 441 1716 441 
Q 2309 441 2620 675 
Q 2931 909 2931 1356 
Q 2931 1769 2642 2001 
Q 2353 2234 1838 2234 
L 1294 2234 
L 1294 2753 
L 1863 2753 
Q 2328 2753 2575 2939 
Q 2822 3125 2822 3475 
Q 2822 3834 2567 4026 
Q 2313 4219 1838 4219 
Q 1578 4219 1281 4162 
Q 984 4106 628 3988 
L 628 4550 
Q 988 4650 1302 4700 
Q 1616 4750 1894 4750 
Q 2613 4750 3031 4423 
Q 3450 4097 3450 3541 
Q 3450 3153 3228 2886 
Q 3006 2619 2597 2516 
z
" id="DejaVuSans-33" transform="scale(0.015625)"/>
        <path d="M 2034 4250 
Q 1547 4250 1301 3770 
Q 1056 3291 1056 2328 
Q 1056 1369 1301 889 
Q 1547 409 2034 409 
Q 2525 409 2770 889 
Q 3016 1369 3016 2328 
Q 3016 3291 2770 3770 
Q 2525 4250 2034 4250 
z
M 2034 4750 
Q 2819 4750 3233 4129 
Q 3647 3509 3647 2328 
Q 3647 1150 3233 529 
Q 2819 -91 2034 -91 
Q 1250 -91 836 529 
Q 422 1150 422 2328 
Q 422 3509 836 4129 
Q 1250 4750 2034 4750 
z
" id="DejaVuSans-30" transform="scale(0.015625)"/>
       </defs>
       <use xlink:href="#DejaVuSans-31"/>
       <use x="63.623047" xlink:href="#DejaVuSans-39"/>
       <use x="127.246094" xlink:href="#DejaVuSans-33"/>
       <use x="190.869141" xlink:href="#DejaVuSans-30"/>
      </g>
     </g>
    </g>
    <g id="xtick_2">
     <g id="line2d_2">
      <g>
       <use style="stroke:#000000;stroke-width:0.8;" x="84.725067" xlink:href="#mc3d770ff00" y="162"/>
      </g>
     </g>
     <g id="text_2">
      <!-- 1940 -->
      <g transform="translate(72.000067 176.598438)scale(0.1 -0.1)">
       <defs>
        <path d="M 2419 4116 
L 825 1625 
L 2419 1625 
L 2419 4116 
z
M 2253 4666 
L 3047 4666 
L 3047 1625 
L 3713 1625 
L 3713 1100 
L 3047 1100 
L 3047 0 
L 2419 0 
L 2419 1100 
L 313 1100 
L 313 1709 
L 2253 4666 
z
" id="DejaVuSans-34" transform="scale(0.015625)"/>
       </defs>
       <use xlink:href="#DejaVuSans-31"/>
       <use x="63.623047" xlink:href="#DejaVuSans-39"/>
       <use x="127.246094" xlink:href="#DejaVuSans-34"/>
       <use x="190.869141" xlink:href="#DejaVuSans-30"/>
      </g>
     </g>
    </g>
    <g id="xtick_3">
     <g id="line2d_3">
      <g>
       <use style="stroke:#000000;stroke-width:0.8;" x="128.505489" xlink:href="#mc3d770ff00" y="162"/>
      </g>
     </g>
     <g id="text_3">
      <!-- 1950 -->
      <g transform="translate(115.780489 176.598438)scale(0.1 -0.1)">
       <defs>
        <path d="M 691 4666 
L 3169 4666 
L 3169 4134 
L 1269 4134 
L 1269 2991 
Q 1406 3038 1543 3061 
Q 1681 3084 1819 3084 
Q 2600 3084 3056 2656 
Q 3513 2228 3513 1497 
Q 3513 744 3044 326 
Q 2575 -91 1722 -91 
Q 1428 -91 1123 -41 
Q 819 9 494 109 
L 494 744 
Q 775 591 1075 516 
Q 1375 441 1709 441 
Q 2250 441 2565 725 
Q 2881 1009 2881 1497 
Q 2881 1984 2565 2268 
Q 2250 2553 1709 2553 
Q 1456 2553 1204 2497 
Q 953 2441 691 2322 
L 691 4666 
z
" id="DejaVuSans-35" transform="scale(0.015625)"/>
       </defs>
       <use xlink:href="#DejaVuSans-31"/>
       <use x="63.623047" xlink:href="#DejaVuSans-39"/>
       <use x="127.246094" xlink:href="#DejaVuSans-35"/>
       <use x="190.869141" xlink:href="#DejaVuSans-30"/>
      </g>
     </g>
    </g>
    <g id="xtick_4">
     <g id="line2d_4">
      <g>
       <use style="stroke:#000000;stroke-width:0.8;" x="172.285912" xlink:href="#mc3d770ff00" y="162"/>
      </g>
     </g>
     <g id="text_4">
      <!-- 1960 -->
      <g transform="translate(159.560912 176.598438)scale(0.1 -0.1)">
       <defs>
        <path d="M 2113 2584 
Q 1688 2584 1439 2293 
Q 1191 2003 1191 1497 
Q 1191 994 1439 701 
Q 1688 409 2113 409 
Q 2538 409 2786 701 
Q 3034 994 3034 1497 
Q 3034 2003 2786 2293 
Q 2538 2584 2113 2584 
z
M 3366 4563 
L 3366 3988 
Q 3128 4100 2886 4159 
Q 2644 4219 2406 4219 
Q 1781 4219 1451 3797 
Q 1122 3375 1075 2522 
Q 1259 2794 1537 2939 
Q 1816 3084 2150 3084 
Q 2853 3084 3261 2657 
Q 3669 2231 3669 1497 
Q 3669 778 3244 343 
Q 2819 -91 2113 -91 
Q 1303 -91 875 529 
Q 447 1150 447 2328 
Q 447 3434 972 4092 
Q 1497 4750 2381 4750 
Q 2619 4750 2861 4703 
Q 3103 4656 3366 4563 
z
" id="DejaVuSans-36" transform="scale(0.015625)"/>
       </defs>
       <use xlink:href="#DejaVuSans-31"/>
       <use x="63.623047" xlink:href="#DejaVuSans-39"/>
       <use x="127.246094" xlink:href="#DejaVuSans-36"/>
       <use x="190.869141" xlink:href="#DejaVuSans-30"/>
      </g>
     </g>
    </g>
    <g id="xtick_5">
     <g id="line2d_5">
      <g>
       <use style="stroke:#000000;stroke-width:0.8;" x="216.066334" xlink:href="#mc3d770ff00" y="162"/>
      </g>
     </g>
     <g id="text_5">
      <!-- 1970 -->
      <g transform="translate(203.341334 176.598438)scale(0.1 -0.1)">
       <defs>
        <path d="M 525 4666 
L 3525 4666 
L 3525 4397 
L 1831 0 
L 1172 0 
L 2766 4134 
L 525 4134 
L 525 4666 
z
" id="DejaVuSans-37" transform="scale(0.015625)"/>
       </defs>
       <use xlink:href="#DejaVuSans-31"/>
       <use x="63.623047" xlink:href="#DejaVuSans-39"/>
       <use x="127.246094" xlink:href="#DejaVuSans-37"/>
       <use x="190.869141" xlink:href="#DejaVuSans-30"/>
      </g>
     </g>
    </g>
    <g id="xtick_6">
     <g id="line2d_6">
      <g>
       <use style="stroke:#000000;stroke-width:0.8;" x="259.846756" xlink:href="#mc3d770ff00" y="162"/>
      </g>
     </g>
     <g id="text_6">
      <!-- 1980 -->
      <g transform="translate(247.121756 176.598438)scale(0.1 -0.1)">
       <defs>
        <path d="M 2034 2216 
Q 1584 2216 1326 1975 
Q 1069 1734 1069 1313 
Q 1069 891 1326 650 
Q 1584 409 2034 409 
Q 2484 409 2743 651 
Q 3003 894 3003 1313 
Q 3003 1734 2745 1975 
Q 2488 2216 2034 2216 
z
M 1403 2484 
Q 997 2584 770 2862 
Q 544 3141 544 3541 
Q 544 4100 942 4425 
Q 1341 4750 2034 4750 
Q 2731 4750 3128 4425 
Q 3525 4100 3525 3541 
Q 3525 3141 3298 2862 
Q 3072 2584 2669 2484 
Q 3125 2378 3379 2068 
Q 3634 1759 3634 1313 
Q 3634 634 3220 271 
Q 2806 -91 2034 -91 
Q 1263 -91 848 271 
Q 434 634 434 1313 
Q 434 1759 690 2068 
Q 947 2378 1403 2484 
z
M 1172 3481 
Q 1172 3119 1398 2916 
Q 1625 2713 2034 2713 
Q 2441 2713 2670 2916 
Q 2900 3119 2900 3481 
Q 2900 3844 2670 4047 
Q 2441 4250 2034 4250 
Q 1625 4250 1398 4047 
Q 1172 3844 1172 3481 
z
" id="DejaVuSans-38" transform="scale(0.015625)"/>
       </defs>
       <use xlink:href="#DejaVuSans-31"/>
       <use x="63.623047" xlink:href="#DejaVuSans-39"/>
       <use x="127.246094" xlink:href="#DejaVuSans-38"/>
       <use x="190.869141" xlink:href="#DejaVuSans-30"/>
      </g>
     </g>
    </g>
    <g id="xtick_7">
     <g id="line2d_7">
      <g>
       <use style="stroke:#000000;stroke-width:0.8;" x="303.627179" xlink:href="#mc3d770ff00" y="162"/>
      </g>
     </g>
     <g id="text_7">
      <!-- 1990 -->
      <g transform="translate(290.902179 176.598438)scale(0.1 -0.1)">
       <use xlink:href="#DejaVuSans-31"/>
       <use x="63.623047" xlink:href="#DejaVuSans-39"/>
       <use x="127.246094" xlink:href="#DejaVuSans-39"/>
       <use x="190.869141" xlink:href="#DejaVuSans-30"/>
      </g>
     </g>
    </g>
    <g id="xtick_8">
     <g id="line2d_8">
      <g>
       <use style="stroke:#000000;stroke-width:0.8;" x="347.407601" xlink:href="#mc3d770ff00" y="162"/>
      </g>
     </g>
     <g id="text_8">
      <!-- 2000 -->
      <g transform="translate(334.682601 176.598438)scale(0.1 -0.1)">
       <defs>
        <path d="M 1228 531 
L 3431 531 
L 3431 0 
L 469 0 
L 469 531 
Q 828 903 1448 1529 
Q 2069 2156 2228 2338 
Q 2531 2678 2651 2914 
Q 2772 3150 2772 3378 
Q 2772 3750 2511 3984 
Q 2250 4219 1831 4219 
Q 1534 4219 1204 4116 
Q 875 4013 500 3803 
L 500 4441 
Q 881 4594 1212 4672 
Q 1544 4750 1819 4750 
Q 2544 4750 2975 4387 
Q 3406 4025 3406 3419 
Q 3406 3131 3298 2873 
Q 3191 2616 2906 2266 
Q 2828 2175 2409 1742 
Q 1991 1309 1228 531 
z
" id="DejaVuSans-32" transform="scale(0.015625)"/>
       </defs>
       <use xlink:href="#DejaVuSans-32"/>
       <use x="63.623047" xlink:href="#DejaVuSans-30"/>
       <use x="127.246094" xlink:href="#DejaVuSans-30"/>
       <use x="190.869141" xlink:href="#DejaVuSans-30"/>
      </g>
     </g>
    </g>
    <g id="xtick_9">
     <g id="line2d_9">
      <g>
       <use style="stroke:#000000;stroke-width:0.8;" x="391.188023" xlink:href="#mc3d770ff00" y="162"/>
      </g>
     </g>
     <g id="text_9">
      <!-- 2010 -->
      <g transform="translate(378.463023 176.598438)scale(0.1 -0.1)">
       <use xlink:href="#DejaVuSans-32"/>
       <use x="63.623047" xlink:href="#DejaVuSans-30"/>
       <use x="127.246094" xlink:href="#DejaVuSans-31"/>
       <use x="190.869141" xlink:href="#DejaVuSans-30"/>
      </g>
     </g>
    </g>
   </g>
   <g id="matplotlib.axis_2">
    <g id="ytick_1">
     <g id="line2d_10">
      <defs>
       <path d="M 0 0 
L -3.5 0 
" id="m978cd5b088" style="stroke:#000000;stroke-width:0.8;"/>
      </defs>
      <g>
       <use style="stroke:#000000;stroke-width:0.8;" x="34.56" xlink:href="#m978cd5b088" y="159.991817"/>
      </g>
     </g>
     <g id="text_10">
      <!-- 100 -->
      <g transform="translate(0.092813 163.791036)scale(0.1 -0.1)">
       <defs>
        <path d="M 678 2272 
L 4684 2272 
L 4684 1741 
L 678 1741 
L 678 2272 
z
" id="DejaVuSans-2212" transform="scale(0.015625)"/>
       </defs>
       <use xlink:href="#DejaVuSans-2212"/>
       <use x="83.789062" xlink:href="#DejaVuSans-31"/>
       <use x="147.412109" xlink:href="#DejaVuSans-30"/>
       <use x="211.035156" xlink:href="#DejaVuSans-30"/>
      </g>
     </g>
    </g>
    <g id="ytick_2">
     <g id="line2d_11">
      <g>
       <use style="stroke:#000000;stroke-width:0.8;" x="34.56" xlink:href="#m978cd5b088" y="121.395909"/>
      </g>
     </g>
     <g id="text_11">
      <!-- 50 -->
      <g transform="translate(6.455313 125.195127)scale(0.1 -0.1)">
       <use xlink:href="#DejaVuSans-2212"/>
       <use x="83.789062" xlink:href="#DejaVuSans-35"/>
       <use x="147.412109" xlink:href="#DejaVuSans-30"/>
      </g>
     </g>
    </g>
    <g id="ytick_3">
     <g id="line2d_12">
      <g>
       <use style="stroke:#000000;stroke-width:0.8;" x="34.56" xlink:href="#m978cd5b088" y="82.8"/>
      </g>
     </g>
     <g id="text_12">
      <!-- 0 -->
      <g transform="translate(21.1975 86.599219)scale(0.1 -0.1)">
       <use xlink:href="#DejaVuSans-30"/>
      </g>
     </g>
    </g>
    <g id="ytick_4">
     <g id="line2d_13">
      <g>
       <use style="stroke:#000000;stroke-width:0.8;" x="34.56" xlink:href="#m978cd5b088" y="44.204091"/>
      </g>
     </g>
     <g id="text_13">
      <!-- 50 -->
      <g transform="translate(14.835 48.00331)scale(0.1 -0.1)">
       <use xlink:href="#DejaVuSans-35"/>
       <use x="63.623047" xlink:href="#DejaVuSans-30"/>
      </g>
     </g>
    </g>
    <g id="ytick_5">
     <g id="line2d_14">
      <g>
       <use style="stroke:#000000;stroke-width:0.8;" x="34.56" xlink:href="#m978cd5b088" y="5.608183"/>
      </g>
     </g>
     <g id="text_14">
      <!-- 100 -->
      <g transform="translate(8.4725 9.407401)scale(0.1 -0.1)">
       <use xlink:href="#DejaVuSans-31"/>
       <use x="63.623047" xlink:href="#DejaVuSans-30"/>
       <use x="127.246094" xlink:href="#DejaVuSans-30"/>
      </g>
     </g>
    </g>
   </g>
   <g id="line2d_15">
    <path clip-path="url(#p6adfd9ae43)" d="M 67.395317 82.669697 
L 67.760154 82.558535 
L 68.489827 82.784426 
L 69.949175 84.199962 
L 70.314012 84.431693 
L 71.043685 84.639336 
L 72.138196 84.428485 
L 72.503033 84.396782 
L 73.232706 84.788381 
L 74.692054 86.3916 
L 75.056891 86.661332 
L 75.786564 86.758266 
L 76.881075 86.494542 
L 77.610749 87.24461 
L 77.975585 87.736412 
L 78.705259 88.057777 
L 79.434933 88.142538 
L 79.79977 88.073895 
L 80.529443 88.286344 
L 80.89428 88.22709 
L 81.623954 88.434452 
L 81.988791 88.63531 
L 82.718464 89.474183 
L 83.083301 90.003405 
L 83.812975 90.252559 
L 84.542649 90.213181 
L 84.907486 90.825609 
L 85.272322 91.049008 
L 85.637159 91.141679 
L 86.001996 91.399186 
L 87.096507 92.565242 
L 87.82618 92.901631 
L 88.191017 92.970964 
L 88.555854 92.869269 
L 88.920691 92.943994 
L 89.650365 93.296935 
L 90.015202 93.338397 
L 90.744875 93.823958 
L 91.474549 94.499369 
L 92.933896 95.280408 
L 93.66357 95.479232 
L 94.028407 95.764217 
L 95.122917 96.189712 
L 95.852591 96.871775 
L 96.582265 97.353467 
L 96.947102 97.36519 
L 97.311939 97.499531 
L 98.406449 97.356053 
L 99.865797 97.654187 
L 100.230633 98.091148 
L 100.960307 98.141387 
L 101.325144 98.424735 
L 101.689981 98.544766 
L 103.514165 98.354584 
L 104.243839 98.758935 
L 104.608676 99.085865 
L 104.973512 99.588389 
L 105.703186 100.014761 
L 106.068023 99.938378 
M 115.553781 100.151284 
L 116.283455 100.456873 
L 116.648292 100.59204 
L 117.742802 101.520033 
L 118.107639 101.487294 
L 118.472476 101.26795 
L 118.837313 101.603192 
L 119.20215 101.552346 
L 120.29666 102.041641 
L 121.026334 102.420011 
L 121.391171 102.49432 
L 121.756008 102.812912 
L 122.120845 103.282565 
L 123.580192 103.959346 
L 123.945029 104.336331 
L 125.039539 104.780304 
L 126.13405 104.929733 
L 128.687908 104.983537 
L 129.417582 104.859673 
L 130.147255 105.210217 
L 130.512092 105.674387 
L 131.606603 106.212908 
L 132.336276 106.298828 
L 133.430787 106.787728 
L 133.795624 106.859928 
L 134.525298 107.427471 
L 135.984645 108.528883 
L 136.349482 109.112121 
L 137.079155 109.369396 
L 138.173666 109.389721 
L 138.90334 109.785682 
L 140.362687 110.362316 
L 142.551708 110.840952 
L 143.281382 111.483019 
L 143.646219 111.792523 
L 144.740729 112.308615 
L 145.105566 112.532483 
L 145.470403 112.520521 
L 146.564914 112.823323 
L 148.024261 113.234671 
L 150.213282 113.40917 
L 150.578119 113.537476 
L 151.307793 113.998003 
L 152.037466 114.197181 
L 153.131977 114.822487 
L 153.496814 114.896303 
L 154.226488 115.319344 
L 155.320998 115.684124 
L 155.685835 115.937194 
L 156.050672 116.013751 
L 156.415509 116.298461 
L 156.780345 116.403088 
L 157.510019 116.458664 
L 157.874856 116.729568 
L 158.239693 116.625906 
L 158.969367 116.635243 
L 159.334203 116.587046 
L 160.063877 116.798422 
L 160.428714 116.804598 
L 161.158388 116.955401 
L 161.888061 117.059848 
L 162.982572 117.035194 
L 164.077083 116.945154 
L 164.441919 116.815743 
L 164.806756 116.835751 
L 166.266104 116.430327 
L 166.995777 116.34859 
L 168.090288 116.156984 
L 168.455125 116.277389 
L 171.008983 115.299804 
L 171.37382 115.523316 
L 172.103493 115.37265 
L 173.198004 115.24592 
L 173.562841 115.240169 
L 174.657351 114.795264 
L 175.387025 114.867459 
L 176.116699 114.793736 
L 177.576046 114.517278 
L 177.940883 114.337355 
L 178.670557 114.396857 
L 179.035393 114.306387 
L 179.765067 114.414316 
L 180.859578 114.49449 
L 181.589251 114.391418 
L 181.954088 114.265186 
L 182.318925 114.284269 
L 182.683762 114.129847 
L 183.413436 114.141602 
L 184.507946 114.154271 
L 185.23762 114.262815 
L 185.602457 114.243309 
L 186.332131 114.496338 
L 187.061804 114.741617 
L 188.521152 115.088627 
L 188.885988 114.957592 
L 189.980499 115.176017 
L 190.710173 114.965174 
L 192.16952 114.965797 
L 192.534357 115.006675 
L 193.264031 114.965788 
L 193.628868 115.020647 
L 194.358541 114.867627 
L 196.547562 114.623112 
L 196.912399 114.736493 
L 197.277236 114.693399 
L 198.00691 114.761077 
L 199.831094 114.320069 
L 200.925605 114.207408 
L 202.020115 114.271732 
L 202.384952 114.476374 
L 202.749789 114.533962 
L 203.844299 114.319948 
L 205.668484 114.494561 
L 206.033321 114.556841 
L 206.762994 114.5223 
L 207.492668 114.533679 
L 208.222342 114.482466 
L 208.587179 114.27633 
L 209.681689 114.419854 
L 210.046526 114.221326 
L 211.141036 114.087597 
L 212.600384 114.327781 
L 213.330058 114.15127 
L 214.424568 114.093502 
L 215.154242 113.832309 
L 215.519079 113.746572 
L 216.248752 113.84065 
L 217.343263 113.828424 
L 217.7081 113.768577 
L 218.072937 113.514527 
L 220.261958 113.036564 
L 220.626795 113.131965 
L 221.356468 112.995445 
L 222.086142 112.854973 
L 222.815816 112.650451 
L 223.180653 112.547855 
L 223.545489 112.568637 
L 223.910326 112.41615 
L 224.64 112.333543 
L 225.369674 112.333587 
L 225.734511 112.380849 
L 226.829021 111.964516 
L 227.193858 111.58679 
L 229.018042 111.10339 
L 230.112553 110.948047 
L 231.207063 110.63532 
L 231.5719 110.636119 
L 231.936737 110.863799 
L 233.031248 111.079069 
L 234.125758 110.925307 
L 234.490595 110.928112 
L 235.220269 111.218319 
L 236.314779 111.301903 
L 236.679616 111.381359 
L 237.044453 111.327888 
L 237.40929 111.412921 
L 238.138964 111.463132 
L 239.598311 111.641417 
L 240.327985 111.829796 
L 242.152169 111.783264 
L 243.611516 111.855811 
L 244.706027 111.31235 
L 245.070864 111.094488 
L 245.800537 110.986772 
L 247.259885 110.972633 
L 247.989559 111.072788 
L 248.354395 110.933423 
L 248.719232 111.039656 
L 249.813743 110.766221 
L 250.543417 110.673346 
L 251.637927 110.622802 
L 252.002764 110.49551 
L 252.367601 110.51312 
L 253.462111 110.213729 
L 254.191785 110.22987 
L 254.921459 110.23821 
L 256.380806 110.682618 
L 257.475317 111.082123 
L 258.569827 110.760097 
L 259.664338 110.835441 
L 260.394012 111.029139 
L 261.123685 111.07801 
L 262.218196 110.959343 
L 262.947869 110.597543 
L 264.04238 110.52173 
L 264.772054 110.611947 
L 265.501727 110.561879 
L 266.231401 110.178505 
L 266.961075 110.133242 
L 267.690749 109.992016 
L 268.420422 110.159616 
L 268.785259 110.466365 
L 269.87977 110.805686 
L 270.97428 110.851289 
L 271.703954 110.887441 
L 272.433628 110.818762 
L 273.528138 111.059873 
L 274.622649 111.016564 
L 276.446833 110.584866 
L 276.81167 110.870213 
L 277.541344 110.959393 
L 278.635854 111.117453 
L 279.730365 111.246994 
L 280.460038 111.149878 
L 281.189712 111.060653 
L 281.919386 111.133096 
L 283.013896 111.091804 
L 283.74357 110.799842 
L 284.838081 110.544782 
L 285.567754 110.554337 
L 285.932591 110.633434 
L 286.662265 110.609961 
L 287.027102 110.701595 
L 289.216123 110.453272 
L 289.945797 110.338814 
L 290.67547 110.344833 
L 291.040307 110.458567 
L 291.769981 110.200156 
L 292.499655 109.92177 
L 294.323839 109.253733 
L 295.783186 109.233019 
L 297.60737 108.463807 
L 297.972207 108.298431 
L 298.701881 108.330072 
L 299.431555 108.24428 
L 300.526065 108.440241 
L 300.890902 108.396027 
L 301.255739 108.143133 
L 301.985413 108.015253 
L 302.35025 107.785174 
L 302.715086 107.717803 
L 303.44476 108.019776 
L 304.174434 107.937599 
L 304.904107 108.15887 
L 305.268944 108.194066 
L 306.363455 107.9679 
L 307.093129 108.040679 
L 307.822802 108.215193 
L 308.552476 108.144047 
L 309.28215 107.887953 
L 310.011823 107.710958 
L 310.741497 107.428373 
L 312.200845 107.838428 
L 313.295355 108.189213 
L 314.389866 107.972164 
L 315.119539 107.344323 
L 315.849213 107.019699 
L 317.30856 106.185983 
L 317.673397 106.144401 
L 319.862418 104.519896 
L 320.227255 104.305248 
L 320.592092 104.251949 
L 320.956929 104.047936 
L 321.321766 103.702926 
L 322.05144 103.452065 
L 323.875624 101.875172 
L 324.240461 101.676393 
L 324.970134 101.420729 
L 326.794319 100.282218 
L 327.888829 99.168046 
L 329.348177 98.522032 
L 331.172361 97.867066 
L 332.266871 96.785388 
L 332.631708 96.420584 
L 332.996545 96.443286 
L 334.820729 95.736724 
L 335.185566 95.537775 
L 335.550403 95.514498 
L 337.00975 94.236235 
L 337.374587 94.243215 
L 337.739424 94.117333 
L 338.469098 93.62544 
L 339.563608 92.943084 
L 340.293282 92.475822 
L 341.022956 91.643418 
L 341.75263 91.432818 
L 342.482303 90.981898 
L 343.211977 90.62623 
L 343.941651 89.935063 
L 344.306488 89.65563 
L 345.036161 88.617713 
L 345.765835 87.834656 
L 346.130672 87.731116 
L 346.860345 87.290934 
L 347.225182 87.081034 
L 347.954856 86.503359 
L 348.68453 86.114097 
L 350.143877 84.815266 
L 350.873551 84.225623 
L 351.968061 83.359038 
L 352.332898 83.156271 
L 352.697735 82.8 
L 353.062572 82.90943 
L 353.792246 82.942702 
L 354.157083 83.020438 
L 355.251593 82.809834 
L 355.981267 82.731839 
L 357.075777 82.852825 
L 358.170288 82.894996 
L 358.535125 82.774622 
L 359.264798 82.785862 
L 360.724146 82.691585 
L 361.45382 83.033108 
L 362.183493 83.110177 
L 362.54833 82.96192 
L 362.913167 82.971106 
L 363.278004 82.855976 
L 365.102188 83.469657 
L 365.831862 83.314317 
L 366.196699 83.099677 
L 367.291209 82.98095 
L 368.020883 83.043283 
L 368.750557 82.926253 
L 369.845067 82.86563 
L 370.939578 82.549617 
L 372.034088 82.538539 
L 372.763762 82.843028 
L 373.858273 82.838303 
L 374.223109 82.630598 
L 375.31762 82.709854 
L 376.776967 82.89954 
L 377.506641 82.715739 
L 377.871478 82.540269 
L 380.060499 82.981081 
L 381.884683 82.8 
L 381.884683 82.8 
" style="fill:none;stroke:#1f77b4;stroke-linecap:square;stroke-width:1.5;"/>
   </g>
   <g id="line2d_16">
    <path clip-path="url(#p6adfd9ae43)" d="M 34.56 82.8 
L 414.72 82.8 
" style="fill:none;stroke:#000000;stroke-dasharray:1.5,2.475;stroke-dashoffset:0;stroke-width:1.5;"/>
   </g>
   <g id="patch_3">
    <path d="M 34.56 162 
L 34.56 3.6 
" style="fill:none;stroke:#000000;stroke-linecap:square;stroke-linejoin:miter;stroke-width:0.8;"/>
   </g>
   <g id="patch_4">
    <path d="M 414.72 162 
L 414.72 3.6 
" style="fill:none;stroke:#000000;stroke-linecap:square;stroke-linejoin:miter;stroke-width:0.8;"/>
   </g>
   <g id="patch_5">
    <path d="M 34.56 162 
L 414.72 162 
" style="fill:none;stroke:#000000;stroke-linecap:square;stroke-linejoin:miter;stroke-width:0.8;"/>
   </g>
   <g id="patch_6">
    <path d="M 34.56 3.6 
L 414.72 3.6 
" style="fill:none;stroke:#000000;stroke-linecap:square;stroke-linejoin:miter;stroke-width:0.8;"/>
   </g>
  </g>
 </g>
 <defs>
  <clipPath id="p6adfd9ae43">
   <rect height="158.4" width="380.16" x="34.56" y="3.6"/>
  </clipPath>
 </defs>
</svg>
