<?xml version="1.0" encoding="utf-8" standalone="no"?>
<!DOCTYPE svg PUBLIC "-//W3C//DTD SVG 1.1//EN"
  "http://www.w3.org/Graphics/SVG/1.1/DTD/svg11.dtd">
<svg height="180pt" version="1.1" viewBox="0 0 432 180" width="432pt" xmlns="http://www.w3.org/2000/svg" xmlns:xlink="http://www.w3.org/1999/xlink">
 <metadata>
  <rdf:RDF xmlns:cc="http://creativecommons.org/ns#" xmlns:dc="http://purl.org/dc/elements/1.1/" xmlns:rdf="http://www.w3.org/1999/02/22-rdf-syntax-ns#">
   <cc:Work>
    <dc:type rdf:resource="http://purl.org/dc/dcmitype/StillImage"/>
    <dc:date>2021-08-12T10:41:49.085042</dc:date>
    <dc:format>image/svg+xml</dc:format>
    <dc:creator>
     <cc:Agent>
      <dc:title>Matplotlib v3.4.2, https://matplotlib.org/</dc:title>
     </cc:Agent>
    </dc:creator>
   </cc:Work>
  </rdf:RDF>
 </metadata>
 <defs>
  <style type="text/css">*{stroke-linecap:butt;stroke-linejoin:round;}</style>
 </defs>
 <g id="figure_1">
  <g id="patch_1">
   <path d="M 0 180 
L 432 180 
L 432 0 
L 0 0 
z
" style="fill:#ffffff;"/>
  </g>
  <g id="axes_1">
   <g id="patch_2">
    <path d="M 34.56 162 
L 414.72 162 
L 414.72 3.6 
L 34.56 3.6 
z
" style="fill:#ffffff;"/>
   </g>
   <g id="PolyCollection_1">
    <defs>
     <path d="M 56.619574 -97.419748 
L 56.619574 -96.980252 
L 56.864681 -96.760984 
L 57.109787 -96.542036 
L 57.354894 -96.323409 
L 57.6 -96.105102 
L 57.845106 -95.887114 
L 58.090213 -95.669447 
L 58.335319 -95.4521 
L 58.580426 -95.235073 
L 58.825532 -95.018366 
L 59.070638 -94.801979 
L 59.315745 -94.585912 
L 59.560851 -94.370166 
L 59.805957 -94.154739 
L 60.051064 -93.939633 
L 60.29617 -93.724847 
L 60.541277 -93.51038 
L 60.786383 -93.296234 
L 61.031489 -93.082408 
L 61.276596 -92.868902 
L 61.521702 -92.655716 
L 61.766809 -92.442851 
L 62.011915 -92.230305 
L 62.257021 -92.01808 
L 62.502128 -91.806174 
L 62.747234 -91.594589 
L 62.99234 -91.383324 
L 63.237447 -91.172378 
L 63.482553 -90.961753 
L 63.72766 -90.751448 
L 63.972766 -90.541464 
L 64.217872 -90.331799 
L 64.462979 -90.122454 
L 64.708085 -89.91343 
L 64.953191 -89.704725 
L 65.198298 -89.496341 
L 65.443404 -89.288277 
L 65.688511 -89.080532 
L 65.933617 -88.873108 
L 66.178723 -88.666004 
L 66.42383 -88.459221 
L 66.668936 -88.252757 
L 66.914043 -88.046613 
L 67.159149 -87.84079 
L 67.404255 -87.635286 
L 67.649362 -87.430103 
L 67.894468 -87.22524 
L 68.139574 -87.020696 
L 68.384681 -86.816473 
L 68.629787 -86.61257 
L 68.874894 -86.408988 
L 69.12 -86.205725 
L 69.365106 -86.002782 
L 69.610213 -85.80016 
L 69.855319 -85.597857 
L 70.100426 -85.395875 
L 70.345532 -85.194212 
L 70.590638 -84.99287 
L 70.835745 -84.791848 
L 71.080851 -84.591146 
L 71.325957 -84.390764 
L 71.571064 -84.190703 
L 71.81617 -83.990961 
L 72.061277 -83.791539 
L 72.306383 -83.592438 
L 72.551489 -83.393656 
L 72.796596 -83.195195 
L 73.041702 -82.997054 
L 73.286809 -82.799233 
L 73.531915 -82.601732 
L 73.777021 -82.404551 
L 74.022128 -82.20769 
L 74.267234 -82.01115 
L 74.51234 -81.814929 
L 74.757447 -81.619029 
L 75.002553 -81.423448 
L 75.24766 -81.228188 
L 75.492766 -81.033248 
L 75.737872 -80.838628 
L 75.982979 -80.644328 
L 76.228085 -80.450348 
L 76.473191 -80.256688 
L 76.718298 -80.063348 
L 76.963404 -79.870329 
L 77.208511 -79.677629 
L 77.453617 -79.48525 
L 77.698723 -79.29319 
L 77.94383 -79.101451 
L 78.188936 -78.910032 
L 78.434043 -78.718933 
L 78.679149 -78.528154 
L 78.924255 -78.337695 
L 79.169362 -78.147557 
L 79.414468 -77.957738 
L 79.659574 -77.768239 
L 79.904681 -77.579061 
L 80.149787 -77.390203 
L 80.394894 -77.201664 
L 80.64 -77.013446 
L 80.885106 -76.825548 
L 81.130213 -76.63797 
L 81.375319 -76.450713 
L 81.620426 -76.263775 
L 81.865532 -76.077157 
L 82.110638 -75.89086 
L 82.355745 -75.704882 
L 82.600851 -75.519225 
L 82.845957 -75.333888 
L 83.091064 -75.148871 
L 83.33617 -74.964174 
L 83.581277 -74.779797 
L 83.826383 -74.59574 
L 84.071489 -74.412003 
L 84.316596 -74.228586 
L 84.561702 -74.04549 
L 84.806809 -73.862713 
L 85.051915 -73.680257 
L 85.297021 -73.498121 
L 85.542128 -73.316305 
L 85.787234 -73.134809 
L 86.03234 -72.953633 
L 86.277447 -72.772777 
L 86.522553 -72.592241 
L 86.76766 -72.412026 
L 87.012766 -72.23213 
L 87.257872 -72.052555 
L 87.502979 -71.873299 
L 87.748085 -71.694364 
L 87.993191 -71.515749 
L 88.238298 -71.337454 
L 88.483404 -71.159479 
L 88.728511 -70.981824 
L 88.973617 -70.804489 
L 89.218723 -70.627474 
L 89.46383 -70.45078 
L 89.708936 -70.274405 
L 89.954043 -70.098351 
L 90.199149 -69.922617 
L 90.444255 -69.747203 
L 90.689362 -69.572109 
L 90.934468 -69.397335 
L 91.179574 -69.222881 
L 91.424681 -69.048747 
L 91.669787 -68.874933 
L 91.914894 -68.70144 
L 92.16 -68.528266 
L 92.405106 -68.355413 
L 92.650213 -68.18288 
L 92.895319 -68.010666 
L 93.140426 -67.838773 
L 93.385532 -67.6672 
L 93.630638 -67.495948 
L 93.875745 -67.325015 
L 94.120851 -67.154402 
L 94.365957 -66.984109 
L 94.611064 -66.814137 
L 94.85617 -66.644485 
L 95.101277 -66.475152 
L 95.346383 -66.30614 
L 95.591489 -66.137448 
L 95.836596 -65.969076 
L 96.081702 -65.801024 
L 96.326809 -65.633292 
L 96.571915 -65.465881 
L 96.817021 -65.298789 
L 97.062128 -65.132018 
L 97.307234 -64.965566 
L 97.55234 -64.799435 
L 97.797447 -64.633624 
L 98.042553 -64.468133 
L 98.28766 -64.302962 
L 98.532766 -64.138111 
L 98.777872 -63.97358 
L 99.022979 -63.809369 
L 99.268085 -63.645479 
L 99.513191 -63.481908 
L 99.758298 -63.318658 
L 100.003404 -63.155727 
L 100.248511 -62.993117 
L 100.493617 -62.830827 
L 100.738723 -62.668857 
L 100.98383 -62.507207 
L 101.228936 -62.345877 
L 101.474043 -62.184868 
L 101.719149 -62.024178 
L 101.964255 -61.863808 
L 102.209362 -61.703759 
L 102.454468 -61.54403 
L 102.699574 -61.38462 
L 102.944681 -61.225531 
L 103.189787 -61.066762 
L 103.434894 -60.908313 
L 103.68 -60.750185 
L 103.925106 -60.592376 
L 104.170213 -60.434887 
L 104.415319 -60.277719 
L 104.660426 -60.12087 
L 104.905532 -59.964342 
L 105.150638 -59.808134 
L 105.395745 -59.652246 
L 105.640851 -59.496677 
L 105.885957 -59.34143 
L 106.131064 -59.186502 
L 106.37617 -59.031894 
L 106.621277 -58.877606 
L 106.866383 -58.723639 
L 107.111489 -58.569991 
L 107.356596 -58.416664 
L 107.601702 -58.263657 
L 107.846809 -58.11097 
L 108.091915 -57.958603 
L 108.337021 -57.806556 
L 108.582128 -57.654829 
L 108.827234 -57.503422 
L 109.07234 -57.352335 
L 109.317447 -57.201569 
L 109.562553 -57.051122 
L 109.80766 -56.900996 
L 110.052766 -56.75119 
L 110.297872 -56.601704 
L 110.542979 -56.452538 
L 110.788085 -56.303692 
L 111.033191 -56.155166 
L 111.278298 -56.00696 
L 111.523404 -55.859074 
L 111.768511 -55.711509 
L 112.013617 -55.564263 
L 112.258723 -55.417338 
L 112.50383 -55.270733 
L 112.748936 -55.124447 
L 112.994043 -54.978482 
L 113.239149 -54.832837 
L 113.484255 -54.687513 
L 113.729362 -54.542508 
L 113.974468 -54.397823 
L 114.219574 -54.253458 
L 114.464681 -54.109414 
L 114.709787 -53.96569 
L 114.954894 -53.822285 
L 115.2 -53.679201 
L 115.445106 -53.536437 
L 115.690213 -53.393993 
L 115.935319 -53.251869 
L 116.180426 -53.110065 
L 116.425532 -52.968582 
L 116.670638 -52.827418 
L 116.915745 -52.686575 
L 117.160851 -52.546051 
L 117.405957 -52.405848 
L 117.651064 -52.265965 
L 117.89617 -52.126402 
L 118.141277 -51.987159 
L 118.386383 -51.848236 
L 118.631489 -51.709633 
L 118.876596 -51.57135 
L 119.121702 -51.433388 
L 119.366809 -51.295745 
L 119.611915 -51.158423 
L 119.857021 -51.02142 
L 120.102128 -50.884738 
L 120.347234 -50.748376 
L 120.59234 -50.612334 
L 120.837447 -50.476612 
L 121.082553 -50.34121 
L 121.32766 -50.206129 
L 121.572766 -50.071367 
L 121.817872 -49.936926 
L 122.062979 -49.802804 
L 122.308085 -49.669003 
L 122.553191 -49.535522 
L 122.798298 -49.402361 
L 123.043404 -49.26952 
L 123.288511 -49.136999 
L 123.533617 -49.004798 
L 123.778723 -48.872917 
L 124.02383 -48.741356 
L 124.268936 -48.610116 
L 124.514043 -48.479195 
L 124.759149 -48.348595 
L 125.004255 -48.218315 
L 125.249362 -48.088355 
L 125.494468 -47.958715 
L 125.739574 -47.829395 
L 125.984681 -47.700395 
L 126.229787 -47.571715 
L 126.474894 -47.443356 
L 126.72 -47.315316 
L 126.965106 -47.187597 
L 127.210213 -47.060197 
L 127.455319 -46.933118 
L 127.700426 -46.806359 
L 127.945532 -46.67992 
L 128.190638 -46.553801 
L 128.435745 -46.428002 
L 128.680851 -46.302523 
L 128.925957 -46.177365 
L 129.171064 -46.052526 
L 129.41617 -45.928008 
L 129.661277 -45.803809 
L 129.906383 -45.679931 
L 130.151489 -45.556373 
L 130.396596 -45.433135 
L 130.641702 -45.310217 
L 130.886809 -45.187619 
L 131.131915 -45.065341 
L 131.377021 -44.943384 
L 131.622128 -44.821746 
L 131.867234 -44.700429 
L 132.11234 -44.579431 
L 132.357447 -44.458754 
L 132.602553 -44.338397 
L 132.84766 -44.21836 
L 133.092766 -44.098643 
L 133.337872 -43.979246 
L 133.582979 -43.860169 
L 133.828085 -43.741413 
L 134.073191 -43.622976 
L 134.318298 -43.504859 
L 134.563404 -43.387063 
L 134.808511 -43.269587 
L 135.053617 -43.152431 
L 135.298723 -43.035595 
L 135.54383 -42.919079 
L 135.788936 -42.802883 
L 136.034043 -42.687007 
L 136.279149 -42.571451 
L 136.524255 -42.456216 
L 136.769362 -42.3413 
L 137.014468 -42.226705 
L 137.259574 -42.11243 
L 137.504681 -41.998474 
L 137.749787 -41.884839 
L 137.994894 -41.771524 
L 138.24 -41.658529 
L 138.485106 -41.545855 
L 138.730213 -41.4335 
L 138.975319 -41.321465 
L 139.220426 -41.209751 
L 139.465532 -41.098356 
L 139.710638 -40.987282 
L 139.955745 -40.876528 
L 140.200851 -40.766094 
L 140.445957 -40.65598 
L 140.691064 -40.546186 
L 140.93617 -40.436712 
L 141.181277 -40.327558 
L 141.426383 -40.218725 
L 141.671489 -40.110211 
L 141.916596 -40.002018 
L 142.161702 -39.894145 
L 142.406809 -39.786591 
L 142.651915 -39.679358 
L 142.897021 -39.572445 
L 143.142128 -39.465852 
L 143.387234 -39.359579 
L 143.63234 -39.253627 
L 143.877447 -39.147994 
L 144.122553 -39.042682 
L 144.36766 -38.937689 
L 144.612766 -38.833017 
L 144.857872 -38.728665 
L 145.102979 -38.624633 
L 145.348085 -38.520921 
L 145.593191 -38.417529 
L 145.838298 -38.314457 
L 146.083404 -38.211705 
L 146.328511 -38.109273 
L 146.573617 -38.007162 
L 146.818723 -37.90537 
L 147.06383 -37.803899 
L 147.308936 -37.702748 
L 147.554043 -37.601917 
L 147.799149 -37.501406 
L 148.044255 -37.401215 
L 148.289362 -37.301344 
L 148.534468 -37.201793 
L 148.779574 -37.102563 
L 149.024681 -37.003652 
L 149.269787 -36.905062 
L 149.514894 -36.806791 
L 149.76 -36.708841 
L 150.005106 -36.611211 
L 150.250213 -36.513901 
L 150.495319 -36.416911 
L 150.740426 -36.320241 
L 150.985532 -36.223891 
L 151.230638 -36.127862 
L 151.475745 -36.032152 
L 151.720851 -35.936763 
L 151.965957 -35.841693 
L 152.211064 -35.746944 
L 152.45617 -35.652515 
L 152.701277 -35.558406 
L 152.946383 -35.464617 
L 153.191489 -35.371148 
L 153.436596 -35.277999 
L 153.681702 -35.185171 
L 153.926809 -35.092662 
L 154.171915 -35.000473 
L 154.417021 -34.908605 
L 154.662128 -34.817057 
L 154.907234 -34.725829 
L 155.15234 -34.634921 
L 155.397447 -34.544333 
L 155.642553 -34.454065 
L 155.88766 -34.364117 
L 156.132766 -34.274489 
L 156.377872 -34.185182 
L 156.622979 -34.096194 
L 156.868085 -34.007527 
L 157.113191 -33.91918 
L 157.358298 -33.831152 
L 157.603404 -33.743445 
L 157.848511 -33.656058 
L 158.093617 -33.568991 
L 158.338723 -33.482245 
L 158.58383 -33.395818 
L 158.828936 -33.309711 
L 159.074043 -33.223925 
L 159.319149 -33.138459 
L 159.564255 -33.053312 
L 159.809362 -32.968486 
L 160.054468 -32.88398 
L 160.299574 -32.799794 
L 160.544681 -32.715928 
L 160.789787 -32.632382 
L 161.034894 -32.549157 
L 161.28 -32.466251 
L 161.525106 -32.383665 
L 161.770213 -32.3014 
L 162.015319 -32.219455 
L 162.260426 -32.13783 
L 162.505532 -32.056524 
L 162.750638 -31.975539 
L 162.995745 -31.894875 
L 163.240851 -31.81453 
L 163.485957 -31.734505 
L 163.731064 -31.6548 
L 163.97617 -31.575416 
L 164.221277 -31.496351 
L 164.466383 -31.417607 
L 164.711489 -31.339183 
L 164.956596 -31.261079 
L 165.201702 -31.183295 
L 165.446809 -31.105831 
L 165.691915 -31.028687 
L 165.937021 -30.951863 
L 166.182128 -30.87536 
L 166.427234 -30.799176 
L 166.67234 -30.723313 
L 166.917447 -30.647769 
L 167.162553 -30.572546 
L 167.40766 -30.497643 
L 167.652766 -30.42306 
L 167.897872 -30.348797 
L 168.142979 -30.274854 
L 168.388085 -30.201232 
L 168.633191 -30.127929 
L 168.878298 -30.054946 
L 169.123404 -29.982284 
L 169.368511 -29.909942 
L 169.613617 -29.837919 
L 169.858723 -29.766217 
L 170.10383 -29.694835 
L 170.348936 -29.623773 
L 170.594043 -29.553031 
L 170.839149 -29.48261 
L 171.084255 -29.412508 
L 171.329362 -29.342726 
L 171.574468 -29.273265 
L 171.819574 -29.204124 
L 172.064681 -29.135302 
L 172.309787 -29.066801 
L 172.554894 -28.99862 
L 172.8 -28.930759 
L 173.045106 -28.863218 
L 173.290213 -28.795998 
L 173.535319 -28.729097 
L 173.780426 -28.662516 
L 174.025532 -28.596256 
L 174.270638 -28.530316 
L 174.515745 -28.464695 
L 174.760851 -28.399395 
L 175.005957 -28.334415 
L 175.251064 -28.269755 
L 175.49617 -28.205415 
L 175.741277 -28.141396 
L 175.986383 -28.077696 
L 176.231489 -28.014316 
L 176.476596 -27.951257 
L 176.721702 -27.888517 
L 176.966809 -27.826098 
L 177.211915 -27.763999 
L 177.457021 -27.70222 
L 177.702128 -27.640761 
L 177.947234 -27.579622 
L 178.19234 -27.518803 
L 178.437447 -27.458305 
L 178.682553 -27.398126 
L 178.92766 -27.338268 
L 179.172766 -27.278729 
L 179.417872 -27.219511 
L 179.662979 -27.160613 
L 179.908085 -27.102035 
L 180.153191 -27.043777 
L 180.398298 -26.985839 
L 180.643404 -26.928221 
L 180.888511 -26.870923 
L 181.133617 -26.813946 
L 181.378723 -26.757288 
L 181.62383 -26.700951 
L 181.868936 -26.644933 
L 182.114043 -26.589236 
L 182.359149 -26.533859 
L 182.604255 -26.478802 
L 182.849362 -26.424065 
L 183.094468 -26.369648 
L 183.339574 -26.315552 
L 183.584681 -26.261775 
L 183.829787 -26.208319 
L 184.074894 -26.155182 
L 184.32 -26.102366 
L 184.565106 -26.04987 
L 184.810213 -25.997694 
L 185.055319 -25.945838 
L 185.300426 -25.894302 
L 185.545532 -25.843086 
L 185.790638 -25.79219 
L 186.035745 -25.741614 
L 186.280851 -25.691359 
L 186.525957 -25.641424 
L 186.771064 -25.591808 
L 187.01617 -25.542513 
L 187.261277 -25.493538 
L 187.506383 -25.444883 
L 187.751489 -25.396548 
L 187.996596 -25.348533 
L 188.241702 -25.300838 
L 188.486809 -25.253464 
L 188.731915 -25.206409 
L 188.977021 -25.159675 
L 189.222128 -25.11326 
L 189.467234 -25.067166 
L 189.71234 -25.021392 
L 189.957447 -24.975938 
L 190.202553 -24.930804 
L 190.44766 -24.88599 
L 190.692766 -24.841497 
L 190.937872 -24.797323 
L 191.182979 -24.753469 
L 191.428085 -24.709936 
L 191.673191 -24.666723 
L 191.918298 -24.623829 
L 192.163404 -24.581256 
L 192.408511 -24.539003 
L 192.653617 -24.49707 
L 192.898723 -24.455457 
L 193.14383 -24.414165 
L 193.388936 -24.373192 
L 193.634043 -24.332539 
L 193.879149 -24.292207 
L 194.124255 -24.252195 
L 194.369362 -24.212502 
L 194.614468 -24.17313 
L 194.859574 -24.134078 
L 195.104681 -24.095346 
L 195.349787 -24.056934 
L 195.594894 -24.018843 
L 195.84 -23.981071 
L 196.085106 -23.943619 
L 196.330213 -23.906488 
L 196.575319 -23.869676 
L 196.820426 -23.833185 
L 197.065532 -23.797014 
L 197.310638 -23.761163 
L 197.555745 -23.725632 
L 197.800851 -23.690421 
L 198.045957 -23.65553 
L 198.291064 -23.62096 
L 198.53617 -23.586709 
L 198.781277 -23.552779 
L 199.026383 -23.519168 
L 199.271489 -23.485878 
L 199.516596 -23.452908 
L 199.761702 -23.420258 
L 200.006809 -23.387928 
L 200.251915 -23.355918 
L 200.497021 -23.324228 
L 200.742128 -23.292858 
L 200.987234 -23.261809 
L 201.23234 -23.231079 
L 201.477447 -23.20067 
L 201.722553 -23.170581 
L 201.96766 -23.140811 
L 202.212766 -23.111362 
L 202.457872 -23.082233 
L 202.702979 -23.053424 
L 202.948085 -23.024936 
L 203.193191 -22.996767 
L 203.438298 -22.968918 
L 203.683404 -22.94139 
L 203.928511 -22.914181 
L 204.173617 -22.887293 
L 204.418723 -22.860725 
L 204.66383 -22.834477 
L 204.908936 -22.808549 
L 205.154043 -22.782941 
L 205.399149 -22.757653 
L 205.644255 -22.732685 
L 205.889362 -22.708038 
L 206.134468 -22.68371 
L 206.379574 -22.659703 
L 206.624681 -22.636016 
L 206.869787 -22.612648 
L 207.114894 -22.589601 
L 207.36 -22.566874 
L 207.605106 -22.544467 
L 207.850213 -22.52238 
L 208.095319 -22.500614 
L 208.340426 -22.479167 
L 208.585532 -22.458041 
L 208.830638 -22.437234 
L 209.075745 -22.416748 
L 209.320851 -22.396582 
L 209.565957 -22.376735 
L 209.811064 -22.357209 
L 210.05617 -22.338004 
L 210.301277 -22.319118 
L 210.546383 -22.300552 
L 210.791489 -22.282306 
L 211.036596 -22.264381 
L 211.281702 -22.246775 
L 211.526809 -22.22949 
L 211.771915 -22.212525 
L 212.017021 -22.19588 
L 212.262128 -22.179555 
L 212.507234 -22.16355 
L 212.75234 -22.147865 
L 212.997447 -22.1325 
L 213.242553 -22.117455 
L 213.48766 -22.102731 
L 213.732766 -22.088326 
L 213.977872 -22.074242 
L 214.222979 -22.060478 
L 214.468085 -22.047034 
L 214.713191 -22.03391 
L 214.958298 -22.021106 
L 215.203404 -22.008622 
L 215.448511 -21.996458 
L 215.693617 -21.984614 
L 215.938723 -21.973091 
L 216.18383 -21.961887 
L 216.428936 -21.951004 
L 216.674043 -21.940441 
L 216.919149 -21.930198 
L 217.164255 -21.920275 
L 217.409362 -21.910672 
L 217.654468 -21.901389 
L 217.899574 -21.892426 
L 218.144681 -21.883783 
L 218.389787 -21.875461 
L 218.634894 -21.867458 
L 218.88 -21.859776 
L 219.125106 -21.852414 
L 219.370213 -21.845371 
L 219.615319 -21.838649 
L 219.860426 -21.832247 
L 220.105532 -21.826165 
L 220.350638 -21.820404 
L 220.595745 -21.814962 
L 220.840851 -21.80984 
L 221.085957 -21.805039 
L 221.331064 -21.800558 
L 221.57617 -21.796396 
L 221.821277 -21.792555 
L 222.066383 -21.789034 
L 222.311489 -21.785833 
L 222.556596 -21.782952 
L 222.801702 -21.780391 
L 223.046809 -21.778151 
L 223.291915 -21.77623 
L 223.537021 -21.77463 
L 223.782128 -21.773349 
L 224.027234 -21.772389 
L 224.27234 -21.771749 
L 224.517447 -21.771429 
L 224.762553 -21.771429 
L 225.00766 -21.771749 
L 225.252766 -21.772389 
L 225.497872 -21.773349 
L 225.742979 -21.77463 
L 225.988085 -21.77623 
L 226.233191 -21.778151 
L 226.478298 -21.780391 
L 226.723404 -21.782952 
L 226.968511 -21.785833 
L 227.213617 -21.789034 
L 227.458723 -21.792555 
L 227.70383 -21.796396 
L 227.948936 -21.800558 
L 228.194043 -21.805039 
L 228.439149 -21.80984 
L 228.684255 -21.814962 
L 228.929362 -21.820404 
L 229.174468 -21.826165 
L 229.419574 -21.832247 
L 229.664681 -21.838649 
L 229.909787 -21.845371 
L 230.154894 -21.852414 
L 230.4 -21.859776 
L 230.645106 -21.867458 
L 230.890213 -21.875461 
L 231.135319 -21.883783 
L 231.380426 -21.892426 
L 231.625532 -21.901389 
L 231.870638 -21.910672 
L 232.115745 -21.920275 
L 232.360851 -21.930198 
L 232.605957 -21.940441 
L 232.851064 -21.951004 
L 233.09617 -21.961887 
L 233.341277 -21.973091 
L 233.586383 -21.984614 
L 233.831489 -21.996458 
L 234.076596 -22.008622 
L 234.321702 -22.021106 
L 234.566809 -22.03391 
L 234.811915 -22.047034 
L 235.057021 -22.060478 
L 235.302128 -22.074242 
L 235.547234 -22.088326 
L 235.79234 -22.102731 
L 236.037447 -22.117455 
L 236.282553 -22.1325 
L 236.52766 -22.147865 
L 236.772766 -22.16355 
L 237.017872 -22.179555 
L 237.262979 -22.19588 
L 237.508085 -22.212525 
L 237.753191 -22.22949 
L 237.998298 -22.246775 
L 238.243404 -22.264381 
L 238.488511 -22.282306 
L 238.733617 -22.300552 
L 238.978723 -22.319118 
L 239.22383 -22.338004 
L 239.468936 -22.357209 
L 239.714043 -22.376735 
L 239.959149 -22.396582 
L 240.204255 -22.416748 
L 240.449362 -22.437234 
L 240.694468 -22.458041 
L 240.939574 -22.479167 
L 241.184681 -22.500614 
L 241.429787 -22.52238 
L 241.674894 -22.544467 
L 241.92 -22.566874 
L 242.165106 -22.589601 
L 242.410213 -22.612648 
L 242.655319 -22.636016 
L 242.900426 -22.659703 
L 243.145532 -22.68371 
L 243.390638 -22.708038 
L 243.635745 -22.732685 
L 243.880851 -22.757653 
L 244.125957 -22.782941 
L 244.371064 -22.808549 
L 244.61617 -22.834477 
L 244.861277 -22.860725 
L 245.106383 -22.887293 
L 245.351489 -22.914181 
L 245.596596 -22.94139 
L 245.841702 -22.968918 
L 246.086809 -22.996767 
L 246.331915 -23.024936 
L 246.577021 -23.053424 
L 246.822128 -23.082233 
L 247.067234 -23.111362 
L 247.31234 -23.140811 
L 247.557447 -23.170581 
L 247.802553 -23.20067 
L 248.04766 -23.231079 
L 248.292766 -23.261809 
L 248.537872 -23.292858 
L 248.782979 -23.324228 
L 249.028085 -23.355918 
L 249.273191 -23.387928 
L 249.518298 -23.420258 
L 249.763404 -23.452908 
L 250.008511 -23.485878 
L 250.253617 -23.519168 
L 250.498723 -23.552779 
L 250.74383 -23.586709 
L 250.988936 -23.62096 
L 251.234043 -23.65553 
L 251.479149 -23.690421 
L 251.724255 -23.725632 
L 251.969362 -23.761163 
L 252.214468 -23.797014 
L 252.459574 -23.833185 
L 252.704681 -23.869676 
L 252.949787 -23.906488 
L 253.194894 -23.943619 
L 253.44 -23.981071 
L 253.685106 -24.018843 
L 253.930213 -24.056934 
L 254.175319 -24.095346 
L 254.420426 -24.134078 
L 254.665532 -24.17313 
L 254.910638 -24.212502 
L 255.155745 -24.252195 
L 255.400851 -24.292207 
L 255.645957 -24.332539 
L 255.891064 -24.373192 
L 256.13617 -24.414165 
L 256.381277 -24.455457 
L 256.626383 -24.49707 
L 256.871489 -24.539003 
L 257.116596 -24.581256 
L 257.361702 -24.623829 
L 257.606809 -24.666723 
L 257.851915 -24.709936 
L 258.097021 -24.753469 
L 258.342128 -24.797323 
L 258.587234 -24.841497 
L 258.83234 -24.88599 
L 259.077447 -24.930804 
L 259.322553 -24.975938 
L 259.56766 -25.021392 
L 259.812766 -25.067166 
L 260.057872 -25.11326 
L 260.302979 -25.159675 
L 260.548085 -25.206409 
L 260.793191 -25.253464 
L 261.038298 -25.300838 
L 261.283404 -25.348533 
L 261.528511 -25.396548 
L 261.773617 -25.444883 
L 262.018723 -25.493538 
L 262.26383 -25.542513 
L 262.508936 -25.591808 
L 262.754043 -25.641424 
L 262.999149 -25.691359 
L 263.244255 -25.741614 
L 263.489362 -25.79219 
L 263.734468 -25.843086 
L 263.979574 -25.894302 
L 264.224681 -25.945838 
L 264.469787 -25.997694 
L 264.714894 -26.04987 
L 264.96 -26.102366 
L 265.205106 -26.155182 
L 265.450213 -26.208319 
L 265.695319 -26.261775 
L 265.940426 -26.315552 
L 266.185532 -26.369648 
L 266.430638 -26.424065 
L 266.675745 -26.478802 
L 266.920851 -26.533859 
L 267.165957 -26.589236 
L 267.411064 -26.644933 
L 267.65617 -26.700951 
L 267.901277 -26.757288 
L 268.146383 -26.813946 
L 268.391489 -26.870923 
L 268.636596 -26.928221 
L 268.881702 -26.985839 
L 269.126809 -27.043777 
L 269.371915 -27.102035 
L 269.617021 -27.160613 
L 269.862128 -27.219511 
L 270.107234 -27.278729 
L 270.35234 -27.338268 
L 270.597447 -27.398126 
L 270.842553 -27.458305 
L 271.08766 -27.518803 
L 271.332766 -27.579622 
L 271.577872 -27.640761 
L 271.822979 -27.70222 
L 272.068085 -27.763999 
L 272.313191 -27.826098 
L 272.558298 -27.888517 
L 272.803404 -27.951257 
L 273.048511 -28.014316 
L 273.293617 -28.077696 
L 273.538723 -28.141396 
L 273.78383 -28.205415 
L 274.028936 -28.269755 
L 274.274043 -28.334415 
L 274.519149 -28.399395 
L 274.764255 -28.464695 
L 275.009362 -28.530316 
L 275.254468 -28.596256 
L 275.499574 -28.662516 
L 275.744681 -28.729097 
L 275.989787 -28.795998 
L 276.234894 -28.863218 
L 276.48 -28.930759 
L 276.725106 -28.99862 
L 276.970213 -29.066801 
L 277.215319 -29.135302 
L 277.460426 -29.204124 
L 277.705532 -29.273265 
L 277.950638 -29.342726 
L 278.195745 -29.412508 
L 278.440851 -29.48261 
L 278.685957 -29.553031 
L 278.931064 -29.623773 
L 279.17617 -29.694835 
L 279.421277 -29.766217 
L 279.666383 -29.837919 
L 279.911489 -29.909942 
L 280.156596 -29.982284 
L 280.401702 -30.054946 
L 280.646809 -30.127929 
L 280.891915 -30.201232 
L 281.137021 -30.274854 
L 281.382128 -30.348797 
L 281.627234 -30.42306 
L 281.87234 -30.497643 
L 282.117447 -30.572546 
L 282.362553 -30.647769 
L 282.60766 -30.723313 
L 282.852766 -30.799176 
L 283.097872 -30.87536 
L 283.342979 -30.951863 
L 283.588085 -31.028687 
L 283.833191 -31.105831 
L 284.078298 -31.183295 
L 284.323404 -31.261079 
L 284.568511 -31.339183 
L 284.813617 -31.417607 
L 285.058723 -31.496351 
L 285.30383 -31.575416 
L 285.548936 -31.6548 
L 285.794043 -31.734505 
L 286.039149 -31.81453 
L 286.284255 -31.894875 
L 286.529362 -31.975539 
L 286.774468 -32.056524 
L 287.019574 -32.13783 
L 287.264681 -32.219455 
L 287.509787 -32.3014 
L 287.754894 -32.383665 
L 288 -32.466251 
L 288.245106 -32.549157 
L 288.490213 -32.632382 
L 288.735319 -32.715928 
L 288.980426 -32.799794 
L 289.225532 -32.88398 
L 289.470638 -32.968486 
L 289.715745 -33.053312 
L 289.960851 -33.138459 
L 290.205957 -33.223925 
L 290.451064 -33.309711 
L 290.69617 -33.395818 
L 290.941277 -33.482245 
L 291.186383 -33.568991 
L 291.431489 -33.656058 
L 291.676596 -33.743445 
L 291.921702 -33.831152 
L 292.166809 -33.91918 
L 292.411915 -34.007527 
L 292.657021 -34.096194 
L 292.902128 -34.185182 
L 293.147234 -34.274489 
L 293.39234 -34.364117 
L 293.637447 -34.454065 
L 293.882553 -34.544333 
L 294.12766 -34.634921 
L 294.372766 -34.725829 
L 294.617872 -34.817057 
L 294.862979 -34.908605 
L 295.108085 -35.000473 
L 295.353191 -35.092662 
L 295.598298 -35.185171 
L 295.843404 -35.277999 
L 296.088511 -35.371148 
L 296.333617 -35.464617 
L 296.578723 -35.558406 
L 296.82383 -35.652515 
L 297.068936 -35.746944 
L 297.314043 -35.841693 
L 297.559149 -35.936763 
L 297.804255 -36.032152 
L 298.049362 -36.127862 
L 298.294468 -36.223891 
L 298.539574 -36.320241 
L 298.784681 -36.416911 
L 299.029787 -36.513901 
L 299.274894 -36.611211 
L 299.52 -36.708841 
L 299.765106 -36.806791 
L 300.010213 -36.905062 
L 300.255319 -37.003652 
L 300.500426 -37.102563 
L 300.745532 -37.201793 
L 300.990638 -37.301344 
L 301.235745 -37.401215 
L 301.480851 -37.501406 
L 301.725957 -37.601917 
L 301.971064 -37.702748 
L 302.21617 -37.803899 
L 302.461277 -37.90537 
L 302.706383 -38.007162 
L 302.951489 -38.109273 
L 303.196596 -38.211705 
L 303.441702 -38.314457 
L 303.686809 -38.417529 
L 303.931915 -38.520921 
L 304.177021 -38.624633 
L 304.422128 -38.728665 
L 304.667234 -38.833017 
L 304.91234 -38.937689 
L 305.157447 -39.042682 
L 305.402553 -39.147994 
L 305.64766 -39.253627 
L 305.892766 -39.359579 
L 306.137872 -39.465852 
L 306.382979 -39.572445 
L 306.628085 -39.679358 
L 306.873191 -39.786591 
L 307.118298 -39.894145 
L 307.363404 -40.002018 
L 307.608511 -40.110211 
L 307.853617 -40.218725 
L 308.098723 -40.327558 
L 308.34383 -40.436712 
L 308.588936 -40.546186 
L 308.834043 -40.65598 
L 309.079149 -40.766094 
L 309.324255 -40.876528 
L 309.569362 -40.987282 
L 309.814468 -41.098356 
L 310.059574 -41.209751 
L 310.304681 -41.321465 
L 310.549787 -41.4335 
L 310.794894 -41.545855 
L 311.04 -41.658529 
L 311.285106 -41.771524 
L 311.530213 -41.884839 
L 311.775319 -41.998474 
L 312.020426 -42.11243 
L 312.265532 -42.226705 
L 312.510638 -42.3413 
L 312.755745 -42.456216 
L 313.000851 -42.571451 
L 313.245957 -42.687007 
L 313.491064 -42.802883 
L 313.73617 -42.919079 
L 313.981277 -43.035595 
L 314.226383 -43.152431 
L 314.471489 -43.269587 
L 314.716596 -43.387063 
L 314.961702 -43.504859 
L 315.206809 -43.622976 
L 315.451915 -43.741413 
L 315.697021 -43.860169 
L 315.942128 -43.979246 
L 316.187234 -44.098643 
L 316.43234 -44.21836 
L 316.677447 -44.338397 
L 316.922553 -44.458754 
L 317.16766 -44.579431 
L 317.412766 -44.700429 
L 317.657872 -44.821746 
L 317.902979 -44.943384 
L 318.148085 -45.065341 
L 318.393191 -45.187619 
L 318.638298 -45.310217 
L 318.883404 -45.433135 
L 319.128511 -45.556373 
L 319.373617 -45.679931 
L 319.618723 -45.803809 
L 319.86383 -45.928008 
L 320.108936 -46.052526 
L 320.354043 -46.177365 
L 320.599149 -46.302523 
L 320.844255 -46.428002 
L 321.089362 -46.553801 
L 321.334468 -46.67992 
L 321.579574 -46.806359 
L 321.824681 -46.933118 
L 322.069787 -47.060197 
L 322.314894 -47.187597 
L 322.56 -47.315316 
L 322.805106 -47.443356 
L 323.050213 -47.571715 
L 323.295319 -47.700395 
L 323.540426 -47.829395 
L 323.785532 -47.958715 
L 324.030638 -48.088355 
L 324.275745 -48.218315 
L 324.520851 -48.348595 
L 324.765957 -48.479195 
L 325.011064 -48.610116 
L 325.25617 -48.741356 
L 325.501277 -48.872917 
L 325.746383 -49.004798 
L 325.991489 -49.136999 
L 326.236596 -49.26952 
L 326.481702 -49.402361 
L 326.726809 -49.535522 
L 326.971915 -49.669003 
L 327.217021 -49.802804 
L 327.462128 -49.936926 
L 327.707234 -50.071367 
L 327.95234 -50.206129 
L 328.197447 -50.34121 
L 328.442553 -50.476612 
L 328.68766 -50.612334 
L 328.932766 -50.748376 
L 329.177872 -50.884738 
L 329.422979 -51.02142 
L 329.668085 -51.158423 
L 329.913191 -51.295745 
L 330.158298 -51.433388 
L 330.403404 -51.57135 
L 330.648511 -51.709633 
L 330.893617 -51.848236 
L 331.138723 -51.987159 
L 331.38383 -52.126402 
L 331.628936 -52.265965 
L 331.874043 -52.405848 
L 332.119149 -52.546051 
L 332.364255 -52.686575 
L 332.609362 -52.827418 
L 332.854468 -52.968582 
L 333.099574 -53.110065 
L 333.344681 -53.251869 
L 333.589787 -53.393993 
L 333.834894 -53.536437 
L 334.08 -53.679201 
L 334.325106 -53.822285 
L 334.570213 -53.96569 
L 334.815319 -54.109414 
L 335.060426 -54.253458 
L 335.305532 -54.397823 
L 335.550638 -54.542508 
L 335.795745 -54.687513 
L 336.040851 -54.832837 
L 336.285957 -54.978482 
L 336.531064 -55.124447 
L 336.77617 -55.270733 
L 337.021277 -55.417338 
L 337.266383 -55.564263 
L 337.511489 -55.711509 
L 337.756596 -55.859074 
L 338.001702 -56.00696 
L 338.246809 -56.155166 
L 338.491915 -56.303692 
L 338.737021 -56.452538 
L 338.982128 -56.601704 
L 339.227234 -56.75119 
L 339.47234 -56.900996 
L 339.717447 -57.051122 
L 339.962553 -57.201569 
L 340.20766 -57.352335 
L 340.452766 -57.503422 
L 340.697872 -57.654829 
L 340.942979 -57.806556 
L 341.188085 -57.958603 
L 341.433191 -58.11097 
L 341.678298 -58.263657 
L 341.923404 -58.416664 
L 342.168511 -58.569991 
L 342.413617 -58.723639 
L 342.658723 -58.877606 
L 342.90383 -59.031894 
L 343.148936 -59.186502 
L 343.394043 -59.34143 
L 343.639149 -59.496677 
L 343.884255 -59.652246 
L 344.129362 -59.808134 
L 344.374468 -59.964342 
L 344.619574 -60.12087 
L 344.864681 -60.277719 
L 345.109787 -60.434887 
L 345.354894 -60.592376 
L 345.6 -60.750185 
L 345.845106 -60.908313 
L 346.090213 -61.066762 
L 346.335319 -61.225531 
L 346.580426 -61.38462 
L 346.825532 -61.54403 
L 347.070638 -61.703759 
L 347.315745 -61.863808 
L 347.560851 -62.024178 
L 347.805957 -62.184868 
L 348.051064 -62.345877 
L 348.29617 -62.507207 
L 348.541277 -62.668857 
L 348.786383 -62.830827 
L 349.031489 -62.993117 
L 349.276596 -63.155727 
L 349.521702 -63.318658 
L 349.766809 -63.481908 
L 350.011915 -63.645479 
L 350.257021 -63.809369 
L 350.502128 -63.97358 
L 350.747234 -64.138111 
L 350.99234 -64.302962 
L 351.237447 -64.468133 
L 351.482553 -64.633624 
L 351.72766 -64.799435 
L 351.972766 -64.965566 
L 352.217872 -65.132018 
L 352.462979 -65.298789 
L 352.708085 -65.465881 
L 352.953191 -65.633292 
L 353.198298 -65.801024 
L 353.443404 -65.969076 
L 353.688511 -66.137448 
L 353.933617 -66.30614 
L 354.178723 -66.475152 
L 354.42383 -66.644485 
L 354.668936 -66.814137 
L 354.914043 -66.984109 
L 355.159149 -67.154402 
L 355.404255 -67.325015 
L 355.649362 -67.495948 
L 355.894468 -67.6672 
L 356.139574 -67.838773 
L 356.384681 -68.010666 
L 356.629787 -68.18288 
L 356.874894 -68.355413 
L 357.12 -68.528266 
L 357.365106 -68.70144 
L 357.610213 -68.874933 
L 357.855319 -69.048747 
L 358.100426 -69.222881 
L 358.345532 -69.397335 
L 358.590638 -69.572109 
L 358.835745 -69.747203 
L 359.080851 -69.922617 
L 359.325957 -70.098351 
L 359.571064 -70.274405 
L 359.81617 -70.45078 
L 360.061277 -70.627474 
L 360.306383 -70.804489 
L 360.551489 -70.981824 
L 360.796596 -71.159479 
L 361.041702 -71.337454 
L 361.286809 -71.515749 
L 361.531915 -71.694364 
L 361.777021 -71.873299 
L 362.022128 -72.052555 
L 362.267234 -72.23213 
L 362.51234 -72.412026 
L 362.757447 -72.592241 
L 363.002553 -72.772777 
L 363.24766 -72.953633 
L 363.492766 -73.134809 
L 363.737872 -73.316305 
L 363.982979 -73.498121 
L 364.228085 -73.680257 
L 364.473191 -73.862713 
L 364.718298 -74.04549 
L 364.963404 -74.228586 
L 365.208511 -74.412003 
L 365.453617 -74.59574 
L 365.698723 -74.779797 
L 365.94383 -74.964174 
L 366.188936 -75.148871 
L 366.434043 -75.333888 
L 366.679149 -75.519225 
L 366.924255 -75.704882 
L 367.169362 -75.89086 
L 367.414468 -76.077157 
L 367.659574 -76.263775 
L 367.904681 -76.450713 
L 368.149787 -76.63797 
L 368.394894 -76.825548 
L 368.64 -77.013446 
L 368.885106 -77.201664 
L 369.130213 -77.390203 
L 369.375319 -77.579061 
L 369.620426 -77.768239 
L 369.865532 -77.957738 
L 370.110638 -78.147557 
L 370.355745 -78.337695 
L 370.600851 -78.528154 
L 370.845957 -78.718933 
L 371.091064 -78.910032 
L 371.33617 -79.101451 
L 371.581277 -79.29319 
L 371.826383 -79.48525 
L 372.071489 -79.677629 
L 372.316596 -79.870329 
L 372.561702 -80.063348 
L 372.806809 -80.256688 
L 373.051915 -80.450348 
L 373.297021 -80.644328 
L 373.542128 -80.838628 
L 373.787234 -81.033248 
L 374.03234 -81.228188 
L 374.277447 -81.423448 
L 374.522553 -81.619029 
L 374.76766 -81.814929 
L 375.012766 -82.01115 
L 375.257872 -82.20769 
L 375.502979 -82.404551 
L 375.748085 -82.601732 
L 375.993191 -82.799233 
L 376.238298 -82.997054 
L 376.483404 -83.195195 
L 376.728511 -83.393656 
L 376.973617 -83.592438 
L 377.218723 -83.791539 
L 377.46383 -83.990961 
L 377.708936 -84.190703 
L 377.954043 -84.390764 
L 378.199149 -84.591146 
L 378.444255 -84.791848 
L 378.689362 -84.99287 
L 378.934468 -85.194212 
L 379.179574 -85.395875 
L 379.424681 -85.597857 
L 379.669787 -85.80016 
L 379.914894 -86.002782 
L 380.16 -86.205725 
L 380.405106 -86.408988 
L 380.650213 -86.61257 
L 380.895319 -86.816473 
L 381.140426 -87.020696 
L 381.385532 -87.22524 
L 381.630638 -87.430103 
L 381.875745 -87.635286 
L 382.120851 -87.84079 
L 382.365957 -88.046613 
L 382.611064 -88.252757 
L 382.85617 -88.459221 
L 383.101277 -88.666004 
L 383.346383 -88.873108 
L 383.591489 -89.080532 
L 383.836596 -89.288277 
L 384.081702 -89.496341 
L 384.326809 -89.704725 
L 384.571915 -89.91343 
L 384.817021 -90.122454 
L 385.062128 -90.331799 
L 385.307234 -90.541464 
L 385.55234 -90.751448 
L 385.797447 -90.961753 
L 386.042553 -91.172378 
L 386.28766 -91.383324 
L 386.532766 -91.594589 
L 386.777872 -91.806174 
L 387.022979 -92.01808 
L 387.268085 -92.230305 
L 387.513191 -92.442851 
L 387.758298 -92.655716 
L 388.003404 -92.868902 
L 388.248511 -93.082408 
L 388.493617 -93.296234 
L 388.738723 -93.51038 
L 388.98383 -93.724847 
L 389.228936 -93.939633 
L 389.474043 -94.154739 
L 389.719149 -94.370166 
L 389.964255 -94.585912 
L 390.209362 -94.801979 
L 390.454468 -95.018366 
L 390.699574 -95.235073 
L 390.944681 -95.4521 
L 391.189787 -95.669447 
L 391.434894 -95.887114 
L 391.68 -96.105102 
L 391.925106 -96.323409 
L 392.170213 -96.542036 
L 392.415319 -96.760984 
L 392.660426 -96.980252 
L 392.660426 -97.419748 
L 392.660426 -97.419748 
L 392.415319 -97.639016 
L 392.170213 -97.857964 
L 391.925106 -98.076591 
L 391.68 -98.294898 
L 391.434894 -98.512886 
L 391.189787 -98.730553 
L 390.944681 -98.9479 
L 390.699574 -99.164927 
L 390.454468 -99.381634 
L 390.209362 -99.598021 
L 389.964255 -99.814088 
L 389.719149 -100.029834 
L 389.474043 -100.245261 
L 389.228936 -100.460367 
L 388.98383 -100.675153 
L 388.738723 -100.88962 
L 388.493617 -101.103766 
L 388.248511 -101.317592 
L 388.003404 -101.531098 
L 387.758298 -101.744284 
L 387.513191 -101.957149 
L 387.268085 -102.169695 
L 387.022979 -102.38192 
L 386.777872 -102.593826 
L 386.532766 -102.805411 
L 386.28766 -103.016676 
L 386.042553 -103.227622 
L 385.797447 -103.438247 
L 385.55234 -103.648552 
L 385.307234 -103.858536 
L 385.062128 -104.068201 
L 384.817021 -104.277546 
L 384.571915 -104.48657 
L 384.326809 -104.695275 
L 384.081702 -104.903659 
L 383.836596 -105.111723 
L 383.591489 -105.319468 
L 383.346383 -105.526892 
L 383.101277 -105.733996 
L 382.85617 -105.940779 
L 382.611064 -106.147243 
L 382.365957 -106.353387 
L 382.120851 -106.55921 
L 381.875745 -106.764714 
L 381.630638 -106.969897 
L 381.385532 -107.17476 
L 381.140426 -107.379304 
L 380.895319 -107.583527 
L 380.650213 -107.78743 
L 380.405106 -107.991012 
L 380.16 -108.194275 
L 379.914894 -108.397218 
L 379.669787 -108.59984 
L 379.424681 -108.802143 
L 379.179574 -109.004125 
L 378.934468 -109.205788 
L 378.689362 -109.40713 
L 378.444255 -109.608152 
L 378.199149 -109.808854 
L 377.954043 -110.009236 
L 377.708936 -110.209297 
L 377.46383 -110.409039 
L 377.218723 -110.608461 
L 376.973617 -110.807562 
L 376.728511 -111.006344 
L 376.483404 -111.204805 
L 376.238298 -111.402946 
L 375.993191 -111.600767 
L 375.748085 -111.798268 
L 375.502979 -111.995449 
L 375.257872 -112.19231 
L 375.012766 -112.38885 
L 374.76766 -112.585071 
L 374.522553 -112.780971 
L 374.277447 -112.976552 
L 374.03234 -113.171812 
L 373.787234 -113.366752 
L 373.542128 -113.561372 
L 373.297021 -113.755672 
L 373.051915 -113.949652 
L 372.806809 -114.143312 
L 372.561702 -114.336652 
L 372.316596 -114.529671 
L 372.071489 -114.722371 
L 371.826383 -114.91475 
L 371.581277 -115.10681 
L 371.33617 -115.298549 
L 371.091064 -115.489968 
L 370.845957 -115.681067 
L 370.600851 -115.871846 
L 370.355745 -116.062305 
L 370.110638 -116.252443 
L 369.865532 -116.442262 
L 369.620426 -116.631761 
L 369.375319 -116.820939 
L 369.130213 -117.009797 
L 368.885106 -117.198336 
L 368.64 -117.386554 
L 368.394894 -117.574452 
L 368.149787 -117.76203 
L 367.904681 -117.949287 
L 367.659574 -118.136225 
L 367.414468 -118.322843 
L 367.169362 -118.50914 
L 366.924255 -118.695118 
L 366.679149 -118.880775 
L 366.434043 -119.066112 
L 366.188936 -119.251129 
L 365.94383 -119.435826 
L 365.698723 -119.620203 
L 365.453617 -119.80426 
L 365.208511 -119.987997 
L 364.963404 -120.171414 
L 364.718298 -120.35451 
L 364.473191 -120.537287 
L 364.228085 -120.719743 
L 363.982979 -120.901879 
L 363.737872 -121.083695 
L 363.492766 -121.265191 
L 363.24766 -121.446367 
L 363.002553 -121.627223 
L 362.757447 -121.807759 
L 362.51234 -121.987974 
L 362.267234 -122.16787 
L 362.022128 -122.347445 
L 361.777021 -122.526701 
L 361.531915 -122.705636 
L 361.286809 -122.884251 
L 361.041702 -123.062546 
L 360.796596 -123.240521 
L 360.551489 -123.418176 
L 360.306383 -123.595511 
L 360.061277 -123.772526 
L 359.81617 -123.94922 
L 359.571064 -124.125595 
L 359.325957 -124.301649 
L 359.080851 -124.477383 
L 358.835745 -124.652797 
L 358.590638 -124.827891 
L 358.345532 -125.002665 
L 358.100426 -125.177119 
L 357.855319 -125.351253 
L 357.610213 -125.525067 
L 357.365106 -125.69856 
L 357.12 -125.871734 
L 356.874894 -126.044587 
L 356.629787 -126.21712 
L 356.384681 -126.389334 
L 356.139574 -126.561227 
L 355.894468 -126.7328 
L 355.649362 -126.904052 
L 355.404255 -127.074985 
L 355.159149 -127.245598 
L 354.914043 -127.415891 
L 354.668936 -127.585863 
L 354.42383 -127.755515 
L 354.178723 -127.924848 
L 353.933617 -128.09386 
L 353.688511 -128.262552 
L 353.443404 -128.430924 
L 353.198298 -128.598976 
L 352.953191 -128.766708 
L 352.708085 -128.934119 
L 352.462979 -129.101211 
L 352.217872 -129.267982 
L 351.972766 -129.434434 
L 351.72766 -129.600565 
L 351.482553 -129.766376 
L 351.237447 -129.931867 
L 350.99234 -130.097038 
L 350.747234 -130.261889 
L 350.502128 -130.42642 
L 350.257021 -130.590631 
L 350.011915 -130.754521 
L 349.766809 -130.918092 
L 349.521702 -131.081342 
L 349.276596 -131.244273 
L 349.031489 -131.406883 
L 348.786383 -131.569173 
L 348.541277 -131.731143 
L 348.29617 -131.892793 
L 348.051064 -132.054123 
L 347.805957 -132.215132 
L 347.560851 -132.375822 
L 347.315745 -132.536192 
L 347.070638 -132.696241 
L 346.825532 -132.85597 
L 346.580426 -133.01538 
L 346.335319 -133.174469 
L 346.090213 -133.333238 
L 345.845106 -133.491687 
L 345.6 -133.649815 
L 345.354894 -133.807624 
L 345.109787 -133.965113 
L 344.864681 -134.122281 
L 344.619574 -134.27913 
L 344.374468 -134.435658 
L 344.129362 -134.591866 
L 343.884255 -134.747754 
L 343.639149 -134.903323 
L 343.394043 -135.05857 
L 343.148936 -135.213498 
L 342.90383 -135.368106 
L 342.658723 -135.522394 
L 342.413617 -135.676361 
L 342.168511 -135.830009 
L 341.923404 -135.983336 
L 341.678298 -136.136343 
L 341.433191 -136.28903 
L 341.188085 -136.441397 
L 340.942979 -136.593444 
L 340.697872 -136.745171 
L 340.452766 -136.896578 
L 340.20766 -137.047665 
L 339.962553 -137.198431 
L 339.717447 -137.348878 
L 339.47234 -137.499004 
L 339.227234 -137.64881 
L 338.982128 -137.798296 
L 338.737021 -137.947462 
L 338.491915 -138.096308 
L 338.246809 -138.244834 
L 338.001702 -138.39304 
L 337.756596 -138.540926 
L 337.511489 -138.688491 
L 337.266383 -138.835737 
L 337.021277 -138.982662 
L 336.77617 -139.129267 
L 336.531064 -139.275553 
L 336.285957 -139.421518 
L 336.040851 -139.567163 
L 335.795745 -139.712487 
L 335.550638 -139.857492 
L 335.305532 -140.002177 
L 335.060426 -140.146542 
L 334.815319 -140.290586 
L 334.570213 -140.43431 
L 334.325106 -140.577715 
L 334.08 -140.720799 
L 333.834894 -140.863563 
L 333.589787 -141.006007 
L 333.344681 -141.148131 
L 333.099574 -141.289935 
L 332.854468 -141.431418 
L 332.609362 -141.572582 
L 332.364255 -141.713425 
L 332.119149 -141.853949 
L 331.874043 -141.994152 
L 331.628936 -142.134035 
L 331.38383 -142.273598 
L 331.138723 -142.412841 
L 330.893617 -142.551764 
L 330.648511 -142.690367 
L 330.403404 -142.82865 
L 330.158298 -142.966612 
L 329.913191 -143.104255 
L 329.668085 -143.241577 
L 329.422979 -143.37858 
L 329.177872 -143.515262 
L 328.932766 -143.651624 
L 328.68766 -143.787666 
L 328.442553 -143.923388 
L 328.197447 -144.05879 
L 327.95234 -144.193871 
L 327.707234 -144.328633 
L 327.462128 -144.463074 
L 327.217021 -144.597196 
L 326.971915 -144.730997 
L 326.726809 -144.864478 
L 326.481702 -144.997639 
L 326.236596 -145.13048 
L 325.991489 -145.263001 
L 325.746383 -145.395202 
L 325.501277 -145.527083 
L 325.25617 -145.658644 
L 325.011064 -145.789884 
L 324.765957 -145.920805 
L 324.520851 -146.051405 
L 324.275745 -146.181685 
L 324.030638 -146.311645 
L 323.785532 -146.441285 
L 323.540426 -146.570605 
L 323.295319 -146.699605 
L 323.050213 -146.828285 
L 322.805106 -146.956644 
L 322.56 -147.084684 
L 322.314894 -147.212403 
L 322.069787 -147.339803 
L 321.824681 -147.466882 
L 321.579574 -147.593641 
L 321.334468 -147.72008 
L 321.089362 -147.846199 
L 320.844255 -147.971998 
L 320.599149 -148.097477 
L 320.354043 -148.222635 
L 320.108936 -148.347474 
L 319.86383 -148.471992 
L 319.618723 -148.596191 
L 319.373617 -148.720069 
L 319.128511 -148.843627 
L 318.883404 -148.966865 
L 318.638298 -149.089783 
L 318.393191 -149.212381 
L 318.148085 -149.334659 
L 317.902979 -149.456616 
L 317.657872 -149.578254 
L 317.412766 -149.699571 
L 317.16766 -149.820569 
L 316.922553 -149.941246 
L 316.677447 -150.061603 
L 316.43234 -150.18164 
L 316.187234 -150.301357 
L 315.942128 -150.420754 
L 315.697021 -150.539831 
L 315.451915 -150.658587 
L 315.206809 -150.777024 
L 314.961702 -150.895141 
L 314.716596 -151.012937 
L 314.471489 -151.130413 
L 314.226383 -151.247569 
L 313.981277 -151.364405 
L 313.73617 -151.480921 
L 313.491064 -151.597117 
L 313.245957 -151.712993 
L 313.000851 -151.828549 
L 312.755745 -151.943784 
L 312.510638 -152.0587 
L 312.265532 -152.173295 
L 312.020426 -152.28757 
L 311.775319 -152.401526 
L 311.530213 -152.515161 
L 311.285106 -152.628476 
L 311.04 -152.741471 
L 310.794894 -152.854145 
L 310.549787 -152.9665 
L 310.304681 -153.078535 
L 310.059574 -153.190249 
L 309.814468 -153.301644 
L 309.569362 -153.412718 
L 309.324255 -153.523472 
L 309.079149 -153.633906 
L 308.834043 -153.74402 
L 308.588936 -153.853814 
L 308.34383 -153.963288 
L 308.098723 -154.072442 
L 307.853617 -154.181275 
L 307.608511 -154.289789 
L 307.363404 -154.397982 
L 307.118298 -154.505855 
L 306.873191 -154.613409 
L 306.628085 -154.720642 
L 306.382979 -154.827555 
L 306.137872 -154.934148 
L 305.892766 -155.040421 
L 305.64766 -155.146373 
L 305.402553 -155.252006 
L 305.157447 -155.357318 
L 304.91234 -155.462311 
L 304.667234 -155.566983 
L 304.422128 -155.671335 
L 304.177021 -155.775367 
L 303.931915 -155.879079 
L 303.686809 -155.982471 
L 303.441702 -156.085543 
L 303.196596 -156.188295 
L 302.951489 -156.290727 
L 302.706383 -156.392838 
L 302.461277 -156.49463 
L 302.21617 -156.596101 
L 301.971064 -156.697252 
L 301.725957 -156.798083 
L 301.480851 -156.898594 
L 301.235745 -156.998785 
L 300.990638 -157.098656 
L 300.745532 -157.198207 
L 300.500426 -157.297437 
L 300.255319 -157.396348 
L 300.010213 -157.494938 
L 299.765106 -157.593209 
L 299.52 -157.691159 
L 299.274894 -157.788789 
L 299.029787 -157.886099 
L 298.784681 -157.983089 
L 298.539574 -158.079759 
L 298.294468 -158.176109 
L 298.049362 -158.272138 
L 297.804255 -158.367848 
L 297.559149 -158.463237 
L 297.314043 -158.558307 
L 297.068936 -158.653056 
L 296.82383 -158.747485 
L 296.578723 -158.841594 
L 296.333617 -158.935383 
L 296.088511 -159.028852 
L 295.843404 -159.122001 
L 295.598298 -159.214829 
L 295.353191 -159.307338 
L 295.108085 -159.399527 
L 294.862979 -159.491395 
L 294.617872 -159.582943 
L 294.372766 -159.674171 
L 294.12766 -159.765079 
L 293.882553 -159.855667 
L 293.637447 -159.945935 
L 293.39234 -160.035883 
L 293.147234 -160.125511 
L 292.902128 -160.214818 
L 292.657021 -160.303806 
L 292.411915 -160.392473 
L 292.166809 -160.48082 
L 291.921702 -160.568848 
L 291.676596 -160.656555 
L 291.431489 -160.743942 
L 291.186383 -160.831009 
L 290.941277 -160.917755 
L 290.69617 -161.004182 
L 290.451064 -161.090289 
L 290.205957 -161.176075 
L 289.960851 -161.261541 
L 289.715745 -161.346688 
L 289.470638 -161.431514 
L 289.225532 -161.51602 
L 288.980426 -161.600206 
L 288.735319 -161.684072 
L 288.490213 -161.767618 
L 288.245106 -161.850843 
L 288 -161.933749 
L 287.754894 -162.016335 
L 287.509787 -162.0986 
L 287.264681 -162.180545 
L 287.019574 -162.26217 
L 286.774468 -162.343476 
L 286.529362 -162.424461 
L 286.284255 -162.505125 
L 286.039149 -162.58547 
L 285.794043 -162.665495 
L 285.548936 -162.7452 
L 285.30383 -162.824584 
L 285.058723 -162.903649 
L 284.813617 -162.982393 
L 284.568511 -163.060817 
L 284.323404 -163.138921 
L 284.078298 -163.216705 
L 283.833191 -163.294169 
L 283.588085 -163.371313 
L 283.342979 -163.448137 
L 283.097872 -163.52464 
L 282.852766 -163.600824 
L 282.60766 -163.676687 
L 282.362553 -163.752231 
L 282.117447 -163.827454 
L 281.87234 -163.902357 
L 281.627234 -163.97694 
L 281.382128 -164.051203 
L 281.137021 -164.125146 
L 280.891915 -164.198768 
L 280.646809 -164.272071 
L 280.401702 -164.345054 
L 280.156596 -164.417716 
L 279.911489 -164.490058 
L 279.666383 -164.562081 
L 279.421277 -164.633783 
L 279.17617 -164.705165 
L 278.931064 -164.776227 
L 278.685957 -164.846969 
L 278.440851 -164.91739 
L 278.195745 -164.987492 
L 277.950638 -165.057274 
L 277.705532 -165.126735 
L 277.460426 -165.195876 
L 277.215319 -165.264698 
L 276.970213 -165.333199 
L 276.725106 -165.40138 
L 276.48 -165.469241 
L 276.234894 -165.536782 
L 275.989787 -165.604002 
L 275.744681 -165.670903 
L 275.499574 -165.737484 
L 275.254468 -165.803744 
L 275.009362 -165.869684 
L 274.764255 -165.935305 
L 274.519149 -166.000605 
L 274.274043 -166.065585 
L 274.028936 -166.130245 
L 273.78383 -166.194585 
L 273.538723 -166.258604 
L 273.293617 -166.322304 
L 273.048511 -166.385684 
L 272.803404 -166.448743 
L 272.558298 -166.511483 
L 272.313191 -166.573902 
L 272.068085 -166.636001 
L 271.822979 -166.69778 
L 271.577872 -166.759239 
L 271.332766 -166.820378 
L 271.08766 -166.881197 
L 270.842553 -166.941695 
L 270.597447 -167.001874 
L 270.35234 -167.061732 
L 270.107234 -167.121271 
L 269.862128 -167.180489 
L 269.617021 -167.239387 
L 269.371915 -167.297965 
L 269.126809 -167.356223 
L 268.881702 -167.414161 
L 268.636596 -167.471779 
L 268.391489 -167.529077 
L 268.146383 -167.586054 
L 267.901277 -167.642712 
L 267.65617 -167.699049 
L 267.411064 -167.755067 
L 267.165957 -167.810764 
L 266.920851 -167.866141 
L 266.675745 -167.921198 
L 266.430638 -167.975935 
L 266.185532 -168.030352 
L 265.940426 -168.084448 
L 265.695319 -168.138225 
L 265.450213 -168.191681 
L 265.205106 -168.244818 
L 264.96 -168.297634 
L 264.714894 -168.35013 
L 264.469787 -168.402306 
L 264.224681 -168.454162 
L 263.979574 -168.505698 
L 263.734468 -168.556914 
L 263.489362 -168.60781 
L 263.244255 -168.658386 
L 262.999149 -168.708641 
L 262.754043 -168.758576 
L 262.508936 -168.808192 
L 262.26383 -168.857487 
L 262.018723 -168.906462 
L 261.773617 -168.955117 
L 261.528511 -169.003452 
L 261.283404 -169.051467 
L 261.038298 -169.099162 
L 260.793191 -169.146536 
L 260.548085 -169.193591 
L 260.302979 -169.240325 
L 260.057872 -169.28674 
L 259.812766 -169.332834 
L 259.56766 -169.378608 
L 259.322553 -169.424062 
L 259.077447 -169.469196 
L 258.83234 -169.51401 
L 258.587234 -169.558503 
L 258.342128 -169.602677 
L 258.097021 -169.646531 
L 257.851915 -169.690064 
L 257.606809 -169.733277 
L 257.361702 -169.776171 
L 257.116596 -169.818744 
L 256.871489 -169.860997 
L 256.626383 -169.90293 
L 256.381277 -169.944543 
L 256.13617 -169.985835 
L 255.891064 -170.026808 
L 255.645957 -170.067461 
L 255.400851 -170.107793 
L 255.155745 -170.147805 
L 254.910638 -170.187498 
L 254.665532 -170.22687 
L 254.420426 -170.265922 
L 254.175319 -170.304654 
L 253.930213 -170.343066 
L 253.685106 -170.381157 
L 253.44 -170.418929 
L 253.194894 -170.456381 
L 252.949787 -170.493512 
L 252.704681 -170.530324 
L 252.459574 -170.566815 
L 252.214468 -170.602986 
L 251.969362 -170.638837 
L 251.724255 -170.674368 
L 251.479149 -170.709579 
L 251.234043 -170.74447 
L 250.988936 -170.77904 
L 250.74383 -170.813291 
L 250.498723 -170.847221 
L 250.253617 -170.880832 
L 250.008511 -170.914122 
L 249.763404 -170.947092 
L 249.518298 -170.979742 
L 249.273191 -171.012072 
L 249.028085 -171.044082 
L 248.782979 -171.075772 
L 248.537872 -171.107142 
L 248.292766 -171.138191 
L 248.04766 -171.168921 
L 247.802553 -171.19933 
L 247.557447 -171.229419 
L 247.31234 -171.259189 
L 247.067234 -171.288638 
L 246.822128 -171.317767 
L 246.577021 -171.346576 
L 246.331915 -171.375064 
L 246.086809 -171.403233 
L 245.841702 -171.431082 
L 245.596596 -171.45861 
L 245.351489 -171.485819 
L 245.106383 -171.512707 
L 244.861277 -171.539275 
L 244.61617 -171.565523 
L 244.371064 -171.591451 
L 244.125957 -171.617059 
L 243.880851 -171.642347 
L 243.635745 -171.667315 
L 243.390638 -171.691962 
L 243.145532 -171.71629 
L 242.900426 -171.740297 
L 242.655319 -171.763984 
L 242.410213 -171.787352 
L 242.165106 -171.810399 
L 241.92 -171.833126 
L 241.674894 -171.855533 
L 241.429787 -171.87762 
L 241.184681 -171.899386 
L 240.939574 -171.920833 
L 240.694468 -171.941959 
L 240.449362 -171.962766 
L 240.204255 -171.983252 
L 239.959149 -172.003418 
L 239.714043 -172.023265 
L 239.468936 -172.042791 
L 239.22383 -172.061996 
L 238.978723 -172.080882 
L 238.733617 -172.099448 
L 238.488511 -172.117694 
L 238.243404 -172.135619 
L 237.998298 -172.153225 
L 237.753191 -172.17051 
L 237.508085 -172.187475 
L 237.262979 -172.20412 
L 237.017872 -172.220445 
L 236.772766 -172.23645 
L 236.52766 -172.252135 
L 236.282553 -172.2675 
L 236.037447 -172.282545 
L 235.79234 -172.297269 
L 235.547234 -172.311674 
L 235.302128 -172.325758 
L 235.057021 -172.339522 
L 234.811915 -172.352966 
L 234.566809 -172.36609 
L 234.321702 -172.378894 
L 234.076596 -172.391378 
L 233.831489 -172.403542 
L 233.586383 -172.415386 
L 233.341277 -172.426909 
L 233.09617 -172.438113 
L 232.851064 -172.448996 
L 232.605957 -172.459559 
L 232.360851 -172.469802 
L 232.115745 -172.479725 
L 231.870638 -172.489328 
L 231.625532 -172.498611 
L 231.380426 -172.507574 
L 231.135319 -172.516217 
L 230.890213 -172.524539 
L 230.645106 -172.532542 
L 230.4 -172.540224 
L 230.154894 -172.547586 
L 229.909787 -172.554629 
L 229.664681 -172.561351 
L 229.419574 -172.567753 
L 229.174468 -172.573835 
L 228.929362 -172.579596 
L 228.684255 -172.585038 
L 228.439149 -172.59016 
L 228.194043 -172.594961 
L 227.948936 -172.599442 
L 227.70383 -172.603604 
L 227.458723 -172.607445 
L 227.213617 -172.610966 
L 226.968511 -172.614167 
L 226.723404 -172.617048 
L 226.478298 -172.619609 
L 226.233191 -172.621849 
L 225.988085 -172.62377 
L 225.742979 -172.62537 
L 225.497872 -172.626651 
L 225.252766 -172.627611 
L 225.00766 -172.628251 
L 224.762553 -172.628571 
L 224.517447 -172.628571 
L 224.27234 -172.628251 
L 224.027234 -172.627611 
L 223.782128 -172.626651 
L 223.537021 -172.62537 
L 223.291915 -172.62377 
L 223.046809 -172.621849 
L 222.801702 -172.619609 
L 222.556596 -172.617048 
L 222.311489 -172.614167 
L 222.066383 -172.610966 
L 221.821277 -172.607445 
L 221.57617 -172.603604 
L 221.331064 -172.599442 
L 221.085957 -172.594961 
L 220.840851 -172.59016 
L 220.595745 -172.585038 
L 220.350638 -172.579596 
L 220.105532 -172.573835 
L 219.860426 -172.567753 
L 219.615319 -172.561351 
L 219.370213 -172.554629 
L 219.125106 -172.547586 
L 218.88 -172.540224 
L 218.634894 -172.532542 
L 218.389787 -172.524539 
L 218.144681 -172.516217 
L 217.899574 -172.507574 
L 217.654468 -172.498611 
L 217.409362 -172.489328 
L 217.164255 -172.479725 
L 216.919149 -172.469802 
L 216.674043 -172.459559 
L 216.428936 -172.448996 
L 216.18383 -172.438113 
L 215.938723 -172.426909 
L 215.693617 -172.415386 
L 215.448511 -172.403542 
L 215.203404 -172.391378 
L 214.958298 -172.378894 
L 214.713191 -172.36609 
L 214.468085 -172.352966 
L 214.222979 -172.339522 
L 213.977872 -172.325758 
L 213.732766 -172.311674 
L 213.48766 -172.297269 
L 213.242553 -172.282545 
L 212.997447 -172.2675 
L 212.75234 -172.252135 
L 212.507234 -172.23645 
L 212.262128 -172.220445 
L 212.017021 -172.20412 
L 211.771915 -172.187475 
L 211.526809 -172.17051 
L 211.281702 -172.153225 
L 211.036596 -172.135619 
L 210.791489 -172.117694 
L 210.546383 -172.099448 
L 210.301277 -172.080882 
L 210.05617 -172.061996 
L 209.811064 -172.042791 
L 209.565957 -172.023265 
L 209.320851 -172.003418 
L 209.075745 -171.983252 
L 208.830638 -171.962766 
L 208.585532 -171.941959 
L 208.340426 -171.920833 
L 208.095319 -171.899386 
L 207.850213 -171.87762 
L 207.605106 -171.855533 
L 207.36 -171.833126 
L 207.114894 -171.810399 
L 206.869787 -171.787352 
L 206.624681 -171.763984 
L 206.379574 -171.740297 
L 206.134468 -171.71629 
L 205.889362 -171.691962 
L 205.644255 -171.667315 
L 205.399149 -171.642347 
L 205.154043 -171.617059 
L 204.908936 -171.591451 
L 204.66383 -171.565523 
L 204.418723 -171.539275 
L 204.173617 -171.512707 
L 203.928511 -171.485819 
L 203.683404 -171.45861 
L 203.438298 -171.431082 
L 203.193191 -171.403233 
L 202.948085 -171.375064 
L 202.702979 -171.346576 
L 202.457872 -171.317767 
L 202.212766 -171.288638 
L 201.96766 -171.259189 
L 201.722553 -171.229419 
L 201.477447 -171.19933 
L 201.23234 -171.168921 
L 200.987234 -171.138191 
L 200.742128 -171.107142 
L 200.497021 -171.075772 
L 200.251915 -171.044082 
L 200.006809 -171.012072 
L 199.761702 -170.979742 
L 199.516596 -170.947092 
L 199.271489 -170.914122 
L 199.026383 -170.880832 
L 198.781277 -170.847221 
L 198.53617 -170.813291 
L 198.291064 -170.77904 
L 198.045957 -170.74447 
L 197.800851 -170.709579 
L 197.555745 -170.674368 
L 197.310638 -170.638837 
L 197.065532 -170.602986 
L 196.820426 -170.566815 
L 196.575319 -170.530324 
L 196.330213 -170.493512 
L 196.085106 -170.456381 
L 195.84 -170.418929 
L 195.594894 -170.381157 
L 195.349787 -170.343066 
L 195.104681 -170.304654 
L 194.859574 -170.265922 
L 194.614468 -170.22687 
L 194.369362 -170.187498 
L 194.124255 -170.147805 
L 193.879149 -170.107793 
L 193.634043 -170.067461 
L 193.388936 -170.026808 
L 193.14383 -169.985835 
L 192.898723 -169.944543 
L 192.653617 -169.90293 
L 192.408511 -169.860997 
L 192.163404 -169.818744 
L 191.918298 -169.776171 
L 191.673191 -169.733277 
L 191.428085 -169.690064 
L 191.182979 -169.646531 
L 190.937872 -169.602677 
L 190.692766 -169.558503 
L 190.44766 -169.51401 
L 190.202553 -169.469196 
L 189.957447 -169.424062 
L 189.71234 -169.378608 
L 189.467234 -169.332834 
L 189.222128 -169.28674 
L 188.977021 -169.240325 
L 188.731915 -169.193591 
L 188.486809 -169.146536 
L 188.241702 -169.099162 
L 187.996596 -169.051467 
L 187.751489 -169.003452 
L 187.506383 -168.955117 
L 187.261277 -168.906462 
L 187.01617 -168.857487 
L 186.771064 -168.808192 
L 186.525957 -168.758576 
L 186.280851 -168.708641 
L 186.035745 -168.658386 
L 185.790638 -168.60781 
L 185.545532 -168.556914 
L 185.300426 -168.505698 
L 185.055319 -168.454162 
L 184.810213 -168.402306 
L 184.565106 -168.35013 
L 184.32 -168.297634 
L 184.074894 -168.244818 
L 183.829787 -168.191681 
L 183.584681 -168.138225 
L 183.339574 -168.084448 
L 183.094468 -168.030352 
L 182.849362 -167.975935 
L 182.604255 -167.921198 
L 182.359149 -167.866141 
L 182.114043 -167.810764 
L 181.868936 -167.755067 
L 181.62383 -167.699049 
L 181.378723 -167.642712 
L 181.133617 -167.586054 
L 180.888511 -167.529077 
L 180.643404 -167.471779 
L 180.398298 -167.414161 
L 180.153191 -167.356223 
L 179.908085 -167.297965 
L 179.662979 -167.239387 
L 179.417872 -167.180489 
L 179.172766 -167.121271 
L 178.92766 -167.061732 
L 178.682553 -167.001874 
L 178.437447 -166.941695 
L 178.19234 -166.881197 
L 177.947234 -166.820378 
L 177.702128 -166.759239 
L 177.457021 -166.69778 
L 177.211915 -166.636001 
L 176.966809 -166.573902 
L 176.721702 -166.511483 
L 176.476596 -166.448743 
L 176.231489 -166.385684 
L 175.986383 -166.322304 
L 175.741277 -166.258604 
L 175.49617 -166.194585 
L 175.251064 -166.130245 
L 175.005957 -166.065585 
L 174.760851 -166.000605 
L 174.515745 -165.935305 
L 174.270638 -165.869684 
L 174.025532 -165.803744 
L 173.780426 -165.737484 
L 173.535319 -165.670903 
L 173.290213 -165.604002 
L 173.045106 -165.536782 
L 172.8 -165.469241 
L 172.554894 -165.40138 
L 172.309787 -165.333199 
L 172.064681 -165.264698 
L 171.819574 -165.195876 
L 171.574468 -165.126735 
L 171.329362 -165.057274 
L 171.084255 -164.987492 
L 170.839149 -164.91739 
L 170.594043 -164.846969 
L 170.348936 -164.776227 
L 170.10383 -164.705165 
L 169.858723 -164.633783 
L 169.613617 -164.562081 
L 169.368511 -164.490058 
L 169.123404 -164.417716 
L 168.878298 -164.345054 
L 168.633191 -164.272071 
L 168.388085 -164.198768 
L 168.142979 -164.125146 
L 167.897872 -164.051203 
L 167.652766 -163.97694 
L 167.40766 -163.902357 
L 167.162553 -163.827454 
L 166.917447 -163.752231 
L 166.67234 -163.676687 
L 166.427234 -163.600824 
L 166.182128 -163.52464 
L 165.937021 -163.448137 
L 165.691915 -163.371313 
L 165.446809 -163.294169 
L 165.201702 -163.216705 
L 164.956596 -163.138921 
L 164.711489 -163.060817 
L 164.466383 -162.982393 
L 164.221277 -162.903649 
L 163.97617 -162.824584 
L 163.731064 -162.7452 
L 163.485957 -162.665495 
L 163.240851 -162.58547 
L 162.995745 -162.505125 
L 162.750638 -162.424461 
L 162.505532 -162.343476 
L 162.260426 -162.26217 
L 162.015319 -162.180545 
L 161.770213 -162.0986 
L 161.525106 -162.016335 
L 161.28 -161.933749 
L 161.034894 -161.850843 
L 160.789787 -161.767618 
L 160.544681 -161.684072 
L 160.299574 -161.600206 
L 160.054468 -161.51602 
L 159.809362 -161.431514 
L 159.564255 -161.346688 
L 159.319149 -161.261541 
L 159.074043 -161.176075 
L 158.828936 -161.090289 
L 158.58383 -161.004182 
L 158.338723 -160.917755 
L 158.093617 -160.831009 
L 157.848511 -160.743942 
L 157.603404 -160.656555 
L 157.358298 -160.568848 
L 157.113191 -160.48082 
L 156.868085 -160.392473 
L 156.622979 -160.303806 
L 156.377872 -160.214818 
L 156.132766 -160.125511 
L 155.88766 -160.035883 
L 155.642553 -159.945935 
L 155.397447 -159.855667 
L 155.15234 -159.765079 
L 154.907234 -159.674171 
L 154.662128 -159.582943 
L 154.417021 -159.491395 
L 154.171915 -159.399527 
L 153.926809 -159.307338 
L 153.681702 -159.214829 
L 153.436596 -159.122001 
L 153.191489 -159.028852 
L 152.946383 -158.935383 
L 152.701277 -158.841594 
L 152.45617 -158.747485 
L 152.211064 -158.653056 
L 151.965957 -158.558307 
L 151.720851 -158.463237 
L 151.475745 -158.367848 
L 151.230638 -158.272138 
L 150.985532 -158.176109 
L 150.740426 -158.079759 
L 150.495319 -157.983089 
L 150.250213 -157.886099 
L 150.005106 -157.788789 
L 149.76 -157.691159 
L 149.514894 -157.593209 
L 149.269787 -157.494938 
L 149.024681 -157.396348 
L 148.779574 -157.297437 
L 148.534468 -157.198207 
L 148.289362 -157.098656 
L 148.044255 -156.998785 
L 147.799149 -156.898594 
L 147.554043 -156.798083 
L 147.308936 -156.697252 
L 147.06383 -156.596101 
L 146.818723 -156.49463 
L 146.573617 -156.392838 
L 146.328511 -156.290727 
L 146.083404 -156.188295 
L 145.838298 -156.085543 
L 145.593191 -155.982471 
L 145.348085 -155.879079 
L 145.102979 -155.775367 
L 144.857872 -155.671335 
L 144.612766 -155.566983 
L 144.36766 -155.462311 
L 144.122553 -155.357318 
L 143.877447 -155.252006 
L 143.63234 -155.146373 
L 143.387234 -155.040421 
L 143.142128 -154.934148 
L 142.897021 -154.827555 
L 142.651915 -154.720642 
L 142.406809 -154.613409 
L 142.161702 -154.505855 
L 141.916596 -154.397982 
L 141.671489 -154.289789 
L 141.426383 -154.181275 
L 141.181277 -154.072442 
L 140.93617 -153.963288 
L 140.691064 -153.853814 
L 140.445957 -153.74402 
L 140.200851 -153.633906 
L 139.955745 -153.523472 
L 139.710638 -153.412718 
L 139.465532 -153.301644 
L 139.220426 -153.190249 
L 138.975319 -153.078535 
L 138.730213 -152.9665 
L 138.485106 -152.854145 
L 138.24 -152.741471 
L 137.994894 -152.628476 
L 137.749787 -152.515161 
L 137.504681 -152.401526 
L 137.259574 -152.28757 
L 137.014468 -152.173295 
L 136.769362 -152.0587 
L 136.524255 -151.943784 
L 136.279149 -151.828549 
L 136.034043 -151.712993 
L 135.788936 -151.597117 
L 135.54383 -151.480921 
L 135.298723 -151.364405 
L 135.053617 -151.247569 
L 134.808511 -151.130413 
L 134.563404 -151.012937 
L 134.318298 -150.895141 
L 134.073191 -150.777024 
L 133.828085 -150.658587 
L 133.582979 -150.539831 
L 133.337872 -150.420754 
L 133.092766 -150.301357 
L 132.84766 -150.18164 
L 132.602553 -150.061603 
L 132.357447 -149.941246 
L 132.11234 -149.820569 
L 131.867234 -149.699571 
L 131.622128 -149.578254 
L 131.377021 -149.456616 
L 131.131915 -149.334659 
L 130.886809 -149.212381 
L 130.641702 -149.089783 
L 130.396596 -148.966865 
L 130.151489 -148.843627 
L 129.906383 -148.720069 
L 129.661277 -148.596191 
L 129.41617 -148.471992 
L 129.171064 -148.347474 
L 128.925957 -148.222635 
L 128.680851 -148.097477 
L 128.435745 -147.971998 
L 128.190638 -147.846199 
L 127.945532 -147.72008 
L 127.700426 -147.593641 
L 127.455319 -147.466882 
L 127.210213 -147.339803 
L 126.965106 -147.212403 
L 126.72 -147.084684 
L 126.474894 -146.956644 
L 126.229787 -146.828285 
L 125.984681 -146.699605 
L 125.739574 -146.570605 
L 125.494468 -146.441285 
L 125.249362 -146.311645 
L 125.004255 -146.181685 
L 124.759149 -146.051405 
L 124.514043 -145.920805 
L 124.268936 -145.789884 
L 124.02383 -145.658644 
L 123.778723 -145.527083 
L 123.533617 -145.395202 
L 123.288511 -145.263001 
L 123.043404 -145.13048 
L 122.798298 -144.997639 
L 122.553191 -144.864478 
L 122.308085 -144.730997 
L 122.062979 -144.597196 
L 121.817872 -144.463074 
L 121.572766 -144.328633 
L 121.32766 -144.193871 
L 121.082553 -144.05879 
L 120.837447 -143.923388 
L 120.59234 -143.787666 
L 120.347234 -143.651624 
L 120.102128 -143.515262 
L 119.857021 -143.37858 
L 119.611915 -143.241577 
L 119.366809 -143.104255 
L 119.121702 -142.966612 
L 118.876596 -142.82865 
L 118.631489 -142.690367 
L 118.386383 -142.551764 
L 118.141277 -142.412841 
L 117.89617 -142.273598 
L 117.651064 -142.134035 
L 117.405957 -141.994152 
L 117.160851 -141.853949 
L 116.915745 -141.713425 
L 116.670638 -141.572582 
L 116.425532 -141.431418 
L 116.180426 -141.289935 
L 115.935319 -141.148131 
L 115.690213 -141.006007 
L 115.445106 -140.863563 
L 115.2 -140.720799 
L 114.954894 -140.577715 
L 114.709787 -140.43431 
L 114.464681 -140.290586 
L 114.219574 -140.146542 
L 113.974468 -140.002177 
L 113.729362 -139.857492 
L 113.484255 -139.712487 
L 113.239149 -139.567163 
L 112.994043 -139.421518 
L 112.748936 -139.275553 
L 112.50383 -139.129267 
L 112.258723 -138.982662 
L 112.013617 -138.835737 
L 111.768511 -138.688491 
L 111.523404 -138.540926 
L 111.278298 -138.39304 
L 111.033191 -138.244834 
L 110.788085 -138.096308 
L 110.542979 -137.947462 
L 110.297872 -137.798296 
L 110.052766 -137.64881 
L 109.80766 -137.499004 
L 109.562553 -137.348878 
L 109.317447 -137.198431 
L 109.07234 -137.047665 
L 108.827234 -136.896578 
L 108.582128 -136.745171 
L 108.337021 -136.593444 
L 108.091915 -136.441397 
L 107.846809 -136.28903 
L 107.601702 -136.136343 
L 107.356596 -135.983336 
L 107.111489 -135.830009 
L 106.866383 -135.676361 
L 106.621277 -135.522394 
L 106.37617 -135.368106 
L 106.131064 -135.213498 
L 105.885957 -135.05857 
L 105.640851 -134.903323 
L 105.395745 -134.747754 
L 105.150638 -134.591866 
L 104.905532 -134.435658 
L 104.660426 -134.27913 
L 104.415319 -134.122281 
L 104.170213 -133.965113 
L 103.925106 -133.807624 
L 103.68 -133.649815 
L 103.434894 -133.491687 
L 103.189787 -133.333238 
L 102.944681 -133.174469 
L 102.699574 -133.01538 
L 102.454468 -132.85597 
L 102.209362 -132.696241 
L 101.964255 -132.536192 
L 101.719149 -132.375822 
L 101.474043 -132.215132 
L 101.228936 -132.054123 
L 100.98383 -131.892793 
L 100.738723 -131.731143 
L 100.493617 -131.569173 
L 100.248511 -131.406883 
L 100.003404 -131.244273 
L 99.758298 -131.081342 
L 99.513191 -130.918092 
L 99.268085 -130.754521 
L 99.022979 -130.590631 
L 98.777872 -130.42642 
L 98.532766 -130.261889 
L 98.28766 -130.097038 
L 98.042553 -129.931867 
L 97.797447 -129.766376 
L 97.55234 -129.600565 
L 97.307234 -129.434434 
L 97.062128 -129.267982 
L 96.817021 -129.101211 
L 96.571915 -128.934119 
L 96.326809 -128.766708 
L 96.081702 -128.598976 
L 95.836596 -128.430924 
L 95.591489 -128.262552 
L 95.346383 -128.09386 
L 95.101277 -127.924848 
L 94.85617 -127.755515 
L 94.611064 -127.585863 
L 94.365957 -127.415891 
L 94.120851 -127.245598 
L 93.875745 -127.074985 
L 93.630638 -126.904052 
L 93.385532 -126.7328 
L 93.140426 -126.561227 
L 92.895319 -126.389334 
L 92.650213 -126.21712 
L 92.405106 -126.044587 
L 92.16 -125.871734 
L 91.914894 -125.69856 
L 91.669787 -125.525067 
L 91.424681 -125.351253 
L 91.179574 -125.177119 
L 90.934468 -125.002665 
L 90.689362 -124.827891 
L 90.444255 -124.652797 
L 90.199149 -124.477383 
L 89.954043 -124.301649 
L 89.708936 -124.125595 
L 89.46383 -123.94922 
L 89.218723 -123.772526 
L 88.973617 -123.595511 
L 88.728511 -123.418176 
L 88.483404 -123.240521 
L 88.238298 -123.062546 
L 87.993191 -122.884251 
L 87.748085 -122.705636 
L 87.502979 -122.526701 
L 87.257872 -122.347445 
L 87.012766 -122.16787 
L 86.76766 -121.987974 
L 86.522553 -121.807759 
L 86.277447 -121.627223 
L 86.03234 -121.446367 
L 85.787234 -121.265191 
L 85.542128 -121.083695 
L 85.297021 -120.901879 
L 85.051915 -120.719743 
L 84.806809 -120.537287 
L 84.561702 -120.35451 
L 84.316596 -120.171414 
L 84.071489 -119.987997 
L 83.826383 -119.80426 
L 83.581277 -119.620203 
L 83.33617 -119.435826 
L 83.091064 -119.251129 
L 82.845957 -119.066112 
L 82.600851 -118.880775 
L 82.355745 -118.695118 
L 82.110638 -118.50914 
L 81.865532 -118.322843 
L 81.620426 -118.136225 
L 81.375319 -117.949287 
L 81.130213 -117.76203 
L 80.885106 -117.574452 
L 80.64 -117.386554 
L 80.394894 -117.198336 
L 80.149787 -117.009797 
L 79.904681 -116.820939 
L 79.659574 -116.631761 
L 79.414468 -116.442262 
L 79.169362 -116.252443 
L 78.924255 -116.062305 
L 78.679149 -115.871846 
L 78.434043 -115.681067 
L 78.188936 -115.489968 
L 77.94383 -115.298549 
L 77.698723 -115.10681 
L 77.453617 -114.91475 
L 77.208511 -114.722371 
L 76.963404 -114.529671 
L 76.718298 -114.336652 
L 76.473191 -114.143312 
L 76.228085 -113.949652 
L 75.982979 -113.755672 
L 75.737872 -113.561372 
L 75.492766 -113.366752 
L 75.24766 -113.171812 
L 75.002553 -112.976552 
L 74.757447 -112.780971 
L 74.51234 -112.585071 
L 74.267234 -112.38885 
L 74.022128 -112.19231 
L 73.777021 -111.995449 
L 73.531915 -111.798268 
L 73.286809 -111.600767 
L 73.041702 -111.402946 
L 72.796596 -111.204805 
L 72.551489 -111.006344 
L 72.306383 -110.807562 
L 72.061277 -110.608461 
L 71.81617 -110.409039 
L 71.571064 -110.209297 
L 71.325957 -110.009236 
L 71.080851 -109.808854 
L 70.835745 -109.608152 
L 70.590638 -109.40713 
L 70.345532 -109.205788 
L 70.100426 -109.004125 
L 69.855319 -108.802143 
L 69.610213 -108.59984 
L 69.365106 -108.397218 
L 69.12 -108.194275 
L 68.874894 -107.991012 
L 68.629787 -107.78743 
L 68.384681 -107.583527 
L 68.139574 -107.379304 
L 67.894468 -107.17476 
L 67.649362 -106.969897 
L 67.404255 -106.764714 
L 67.159149 -106.55921 
L 66.914043 -106.353387 
L 66.668936 -106.147243 
L 66.42383 -105.940779 
L 66.178723 -105.733996 
L 65.933617 -105.526892 
L 65.688511 -105.319468 
L 65.443404 -105.111723 
L 65.198298 -104.903659 
L 64.953191 -104.695275 
L 64.708085 -104.48657 
L 64.462979 -104.277546 
L 64.217872 -104.068201 
L 63.972766 -103.858536 
L 63.72766 -103.648552 
L 63.482553 -103.438247 
L 63.237447 -103.227622 
L 62.99234 -103.016676 
L 62.747234 -102.805411 
L 62.502128 -102.593826 
L 62.257021 -102.38192 
L 62.011915 -102.169695 
L 61.766809 -101.957149 
L 61.521702 -101.744284 
L 61.276596 -101.531098 
L 61.031489 -101.317592 
L 60.786383 -101.103766 
L 60.541277 -100.88962 
L 60.29617 -100.675153 
L 60.051064 -100.460367 
L 59.805957 -100.245261 
L 59.560851 -100.029834 
L 59.315745 -99.814088 
L 59.070638 -99.598021 
L 58.825532 -99.381634 
L 58.580426 -99.164927 
L 58.335319 -98.9479 
L 58.090213 -98.730553 
L 57.845106 -98.512886 
L 57.6 -98.294898 
L 57.354894 -98.076591 
L 57.109787 -97.857964 
L 56.864681 -97.639016 
L 56.619574 -97.419748 
z
" id="mfdab9bfa8f" style="stroke:#0000ff;stroke-opacity:0.1;"/>
    </defs>
    <g clip-path="url(#p377c4ac3ae)">
     <use style="fill:#0000ff;fill-opacity:0.1;stroke:#0000ff;stroke-opacity:0.1;" x="0" xlink:href="#mfdab9bfa8f" y="180"/>
    </g>
   </g>
   <g id="matplotlib.axis_1">
    <g id="xtick_1">
     <g id="line2d_1">
      <defs>
       <path d="M 0 0 
L 0 3.5 
" id="m4fc127e1f2" style="stroke:#000000;stroke-width:0.8;"/>
      </defs>
      <g>
       <use style="stroke:#000000;stroke-width:0.8;" x="38.114043" xlink:href="#m4fc127e1f2" y="162"/>
      </g>
     </g>
     <g id="text_1">
      <!-- 1900 -->
      <g transform="translate(25.389043 176.598438)scale(0.1 -0.1)">
       <defs>
        <path d="M 794 531 
L 1825 531 
L 1825 4091 
L 703 3866 
L 703 4441 
L 1819 4666 
L 2450 4666 
L 2450 531 
L 3481 531 
L 3481 0 
L 794 0 
L 794 531 
z
" id="DejaVuSans-31" transform="scale(0.015625)"/>
        <path d="M 703 97 
L 703 672 
Q 941 559 1184 500 
Q 1428 441 1663 441 
Q 2288 441 2617 861 
Q 2947 1281 2994 2138 
Q 2813 1869 2534 1725 
Q 2256 1581 1919 1581 
Q 1219 1581 811 2004 
Q 403 2428 403 3163 
Q 403 3881 828 4315 
Q 1253 4750 1959 4750 
Q 2769 4750 3195 4129 
Q 3622 3509 3622 2328 
Q 3622 1225 3098 567 
Q 2575 -91 1691 -91 
Q 1453 -91 1209 -44 
Q 966 3 703 97 
z
M 1959 2075 
Q 2384 2075 2632 2365 
Q 2881 2656 2881 3163 
Q 2881 3666 2632 3958 
Q 2384 4250 1959 4250 
Q 1534 4250 1286 3958 
Q 1038 3666 1038 3163 
Q 1038 2656 1286 2365 
Q 1534 2075 1959 2075 
z
" id="DejaVuSans-39" transform="scale(0.015625)"/>
        <path d="M 2034 4250 
Q 1547 4250 1301 3770 
Q 1056 3291 1056 2328 
Q 1056 1369 1301 889 
Q 1547 409 2034 409 
Q 2525 409 2770 889 
Q 3016 1369 3016 2328 
Q 3016 3291 2770 3770 
Q 2525 4250 2034 4250 
z
M 2034 4750 
Q 2819 4750 3233 4129 
Q 3647 3509 3647 2328 
Q 3647 1150 3233 529 
Q 2819 -91 2034 -91 
Q 1250 -91 836 529 
Q 422 1150 422 2328 
Q 422 3509 836 4129 
Q 1250 4750 2034 4750 
z
" id="DejaVuSans-30" transform="scale(0.015625)"/>
       </defs>
       <use xlink:href="#DejaVuSans-31"/>
       <use x="63.623047" xlink:href="#DejaVuSans-39"/>
       <use x="127.246094" xlink:href="#DejaVuSans-30"/>
       <use x="190.869141" xlink:href="#DejaVuSans-30"/>
      </g>
     </g>
    </g>
    <g id="xtick_2">
     <g id="line2d_2">
      <g>
       <use style="stroke:#000000;stroke-width:0.8;" x="96.939574" xlink:href="#m4fc127e1f2" y="162"/>
      </g>
     </g>
     <g id="text_2">
      <!-- 1920 -->
      <g transform="translate(84.214574 176.598438)scale(0.1 -0.1)">
       <defs>
        <path d="M 1228 531 
L 3431 531 
L 3431 0 
L 469 0 
L 469 531 
Q 828 903 1448 1529 
Q 2069 2156 2228 2338 
Q 2531 2678 2651 2914 
Q 2772 3150 2772 3378 
Q 2772 3750 2511 3984 
Q 2250 4219 1831 4219 
Q 1534 4219 1204 4116 
Q 875 4013 500 3803 
L 500 4441 
Q 881 4594 1212 4672 
Q 1544 4750 1819 4750 
Q 2544 4750 2975 4387 
Q 3406 4025 3406 3419 
Q 3406 3131 3298 2873 
Q 3191 2616 2906 2266 
Q 2828 2175 2409 1742 
Q 1991 1309 1228 531 
z
" id="DejaVuSans-32" transform="scale(0.015625)"/>
       </defs>
       <use xlink:href="#DejaVuSans-31"/>
       <use x="63.623047" xlink:href="#DejaVuSans-39"/>
       <use x="127.246094" xlink:href="#DejaVuSans-32"/>
       <use x="190.869141" xlink:href="#DejaVuSans-30"/>
      </g>
     </g>
    </g>
    <g id="xtick_3">
     <g id="line2d_3">
      <g>
       <use style="stroke:#000000;stroke-width:0.8;" x="155.765106" xlink:href="#m4fc127e1f2" y="162"/>
      </g>
     </g>
     <g id="text_3">
      <!-- 1940 -->
      <g transform="translate(143.040106 176.598438)scale(0.1 -0.1)">
       <defs>
        <path d="M 2419 4116 
L 825 1625 
L 2419 1625 
L 2419 4116 
z
M 2253 4666 
L 3047 4666 
L 3047 1625 
L 3713 1625 
L 3713 1100 
L 3047 1100 
L 3047 0 
L 2419 0 
L 2419 1100 
L 313 1100 
L 313 1709 
L 2253 4666 
z
" id="DejaVuSans-34" transform="scale(0.015625)"/>
       </defs>
       <use xlink:href="#DejaVuSans-31"/>
       <use x="63.623047" xlink:href="#DejaVuSans-39"/>
       <use x="127.246094" xlink:href="#DejaVuSans-34"/>
       <use x="190.869141" xlink:href="#DejaVuSans-30"/>
      </g>
     </g>
    </g>
    <g id="xtick_4">
     <g id="line2d_4">
      <g>
       <use style="stroke:#000000;stroke-width:0.8;" x="214.590638" xlink:href="#m4fc127e1f2" y="162"/>
      </g>
     </g>
     <g id="text_4">
      <!-- 1960 -->
      <g transform="translate(201.865638 176.598438)scale(0.1 -0.1)">
       <defs>
        <path d="M 2113 2584 
Q 1688 2584 1439 2293 
Q 1191 2003 1191 1497 
Q 1191 994 1439 701 
Q 1688 409 2113 409 
Q 2538 409 2786 701 
Q 3034 994 3034 1497 
Q 3034 2003 2786 2293 
Q 2538 2584 2113 2584 
z
M 3366 4563 
L 3366 3988 
Q 3128 4100 2886 4159 
Q 2644 4219 2406 4219 
Q 1781 4219 1451 3797 
Q 1122 3375 1075 2522 
Q 1259 2794 1537 2939 
Q 1816 3084 2150 3084 
Q 2853 3084 3261 2657 
Q 3669 2231 3669 1497 
Q 3669 778 3244 343 
Q 2819 -91 2113 -91 
Q 1303 -91 875 529 
Q 447 1150 447 2328 
Q 447 3434 972 4092 
Q 1497 4750 2381 4750 
Q 2619 4750 2861 4703 
Q 3103 4656 3366 4563 
z
" id="DejaVuSans-36" transform="scale(0.015625)"/>
       </defs>
       <use xlink:href="#DejaVuSans-31"/>
       <use x="63.623047" xlink:href="#DejaVuSans-39"/>
       <use x="127.246094" xlink:href="#DejaVuSans-36"/>
       <use x="190.869141" xlink:href="#DejaVuSans-30"/>
      </g>
     </g>
    </g>
    <g id="xtick_5">
     <g id="line2d_5">
      <g>
       <use style="stroke:#000000;stroke-width:0.8;" x="273.41617" xlink:href="#m4fc127e1f2" y="162"/>
      </g>
     </g>
     <g id="text_5">
      <!-- 1980 -->
      <g transform="translate(260.69117 176.598438)scale(0.1 -0.1)">
       <defs>
        <path d="M 2034 2216 
Q 1584 2216 1326 1975 
Q 1069 1734 1069 1313 
Q 1069 891 1326 650 
Q 1584 409 2034 409 
Q 2484 409 2743 651 
Q 3003 894 3003 1313 
Q 3003 1734 2745 1975 
Q 2488 2216 2034 2216 
z
M 1403 2484 
Q 997 2584 770 2862 
Q 544 3141 544 3541 
Q 544 4100 942 4425 
Q 1341 4750 2034 4750 
Q 2731 4750 3128 4425 
Q 3525 4100 3525 3541 
Q 3525 3141 3298 2862 
Q 3072 2584 2669 2484 
Q 3125 2378 3379 2068 
Q 3634 1759 3634 1313 
Q 3634 634 3220 271 
Q 2806 -91 2034 -91 
Q 1263 -91 848 271 
Q 434 634 434 1313 
Q 434 1759 690 2068 
Q 947 2378 1403 2484 
z
M 1172 3481 
Q 1172 3119 1398 2916 
Q 1625 2713 2034 2713 
Q 2441 2713 2670 2916 
Q 2900 3119 2900 3481 
Q 2900 3844 2670 4047 
Q 2441 4250 2034 4250 
Q 1625 4250 1398 4047 
Q 1172 3844 1172 3481 
z
" id="DejaVuSans-38" transform="scale(0.015625)"/>
       </defs>
       <use xlink:href="#DejaVuSans-31"/>
       <use x="63.623047" xlink:href="#DejaVuSans-39"/>
       <use x="127.246094" xlink:href="#DejaVuSans-38"/>
       <use x="190.869141" xlink:href="#DejaVuSans-30"/>
      </g>
     </g>
    </g>
    <g id="xtick_6">
     <g id="line2d_6">
      <g>
       <use style="stroke:#000000;stroke-width:0.8;" x="332.241702" xlink:href="#m4fc127e1f2" y="162"/>
      </g>
     </g>
     <g id="text_6">
      <!-- 2000 -->
      <g transform="translate(319.516702 176.598438)scale(0.1 -0.1)">
       <use xlink:href="#DejaVuSans-32"/>
       <use x="63.623047" xlink:href="#DejaVuSans-30"/>
       <use x="127.246094" xlink:href="#DejaVuSans-30"/>
       <use x="190.869141" xlink:href="#DejaVuSans-30"/>
      </g>
     </g>
    </g>
    <g id="xtick_7">
     <g id="line2d_7">
      <g>
       <use style="stroke:#000000;stroke-width:0.8;" x="391.067234" xlink:href="#m4fc127e1f2" y="162"/>
      </g>
     </g>
     <g id="text_7">
      <!-- 2020 -->
      <g transform="translate(378.342234 176.598438)scale(0.1 -0.1)">
       <use xlink:href="#DejaVuSans-32"/>
       <use x="63.623047" xlink:href="#DejaVuSans-30"/>
       <use x="127.246094" xlink:href="#DejaVuSans-32"/>
       <use x="190.869141" xlink:href="#DejaVuSans-30"/>
      </g>
     </g>
    </g>
   </g>
   <g id="matplotlib.axis_2">
    <g id="ytick_1">
     <g id="line2d_8">
      <defs>
       <path d="M 0 0 
L -3.5 0 
" id="md086d8df68" style="stroke:#000000;stroke-width:0.8;"/>
      </defs>
      <g>
       <use style="stroke:#000000;stroke-width:0.8;" x="34.56" xlink:href="#md086d8df68" y="136.273311"/>
      </g>
     </g>
     <g id="text_8">
      <!-- 100 -->
      <g transform="translate(0.092813 140.07253)scale(0.1 -0.1)">
       <defs>
        <path d="M 678 2272 
L 4684 2272 
L 4684 1741 
L 678 1741 
L 678 2272 
z
" id="DejaVuSans-2212" transform="scale(0.015625)"/>
       </defs>
       <use xlink:href="#DejaVuSans-2212"/>
       <use x="83.789062" xlink:href="#DejaVuSans-31"/>
       <use x="147.412109" xlink:href="#DejaVuSans-30"/>
       <use x="211.035156" xlink:href="#DejaVuSans-30"/>
      </g>
     </g>
    </g>
    <g id="ytick_2">
     <g id="line2d_9">
      <g>
       <use style="stroke:#000000;stroke-width:0.8;" x="34.56" xlink:href="#md086d8df68" y="109.536655"/>
      </g>
     </g>
     <g id="text_9">
      <!-- 50 -->
      <g transform="translate(6.455313 113.335874)scale(0.1 -0.1)">
       <defs>
        <path d="M 691 4666 
L 3169 4666 
L 3169 4134 
L 1269 4134 
L 1269 2991 
Q 1406 3038 1543 3061 
Q 1681 3084 1819 3084 
Q 2600 3084 3056 2656 
Q 3513 2228 3513 1497 
Q 3513 744 3044 326 
Q 2575 -91 1722 -91 
Q 1428 -91 1123 -41 
Q 819 9 494 109 
L 494 744 
Q 775 591 1075 516 
Q 1375 441 1709 441 
Q 2250 441 2565 725 
Q 2881 1009 2881 1497 
Q 2881 1984 2565 2268 
Q 2250 2553 1709 2553 
Q 1456 2553 1204 2497 
Q 953 2441 691 2322 
L 691 4666 
z
" id="DejaVuSans-35" transform="scale(0.015625)"/>
       </defs>
       <use xlink:href="#DejaVuSans-2212"/>
       <use x="83.789062" xlink:href="#DejaVuSans-35"/>
       <use x="147.412109" xlink:href="#DejaVuSans-30"/>
      </g>
     </g>
    </g>
    <g id="ytick_3">
     <g id="line2d_10">
      <g>
       <use style="stroke:#000000;stroke-width:0.8;" x="34.56" xlink:href="#md086d8df68" y="82.8"/>
      </g>
     </g>
     <g id="text_10">
      <!-- 0 -->
      <g transform="translate(21.1975 86.599219)scale(0.1 -0.1)">
       <use xlink:href="#DejaVuSans-30"/>
      </g>
     </g>
    </g>
    <g id="ytick_4">
     <g id="line2d_11">
      <g>
       <use style="stroke:#000000;stroke-width:0.8;" x="34.56" xlink:href="#md086d8df68" y="56.063345"/>
      </g>
     </g>
     <g id="text_11">
      <!-- 50 -->
      <g transform="translate(14.835 59.862563)scale(0.1 -0.1)">
       <use xlink:href="#DejaVuSans-35"/>
       <use x="63.623047" xlink:href="#DejaVuSans-30"/>
      </g>
     </g>
    </g>
    <g id="ytick_5">
     <g id="line2d_12">
      <g>
       <use style="stroke:#000000;stroke-width:0.8;" x="34.56" xlink:href="#md086d8df68" y="29.326689"/>
      </g>
     </g>
     <g id="text_12">
      <!-- 100 -->
      <g transform="translate(8.4725 33.125908)scale(0.1 -0.1)">
       <use xlink:href="#DejaVuSans-31"/>
       <use x="63.623047" xlink:href="#DejaVuSans-30"/>
       <use x="127.246094" xlink:href="#DejaVuSans-30"/>
      </g>
     </g>
    </g>
   </g>
   <g id="line2d_13">
    <path clip-path="url(#p377c4ac3ae)" d="M 56.619574 82.820938 
L 56.864681 82.98452 
L 57.354894 83.709397 
L 59.805957 86.022543 
L 61.521702 87.271892 
L 61.766809 87.341575 
L 62.011915 87.547705 
L 63.482553 86.934668 
L 63.72766 87.058854 
L 64.708085 86.335579 
L 64.953191 86.395072 
L 66.178723 85.439882 
L 66.42383 85.166215 
L 66.914043 84.881032 
L 67.649362 84.309053 
L 68.384681 83.518482 
L 69.12 83.044218 
L 69.365106 83.01735 
L 69.610213 82.834462 
L 69.855319 82.838771 
L 70.590638 82.359161 
L 71.080851 82.176608 
L 71.325957 81.992073 
L 71.571064 82.053098 
L 72.061277 81.694851 
L 72.551489 81.187788 
L 73.286809 81.146086 
L 73.531915 81.360084 
L 74.022128 81.071249 
L 74.267234 81.065998 
L 74.757447 80.719623 
L 75.002553 80.734949 
L 75.24766 80.524145 
L 75.492766 80.60399 
L 75.737872 80.493019 
L 75.982979 80.559963 
L 76.718298 80.293552 
L 76.963404 79.895835 
L 77.698723 79.549152 
L 78.188936 79.11272 
L 79.904681 78.922538 
L 81.375319 77.80212 
L 82.110638 77.86909 
L 82.600851 77.309999 
L 82.845957 77.2959 
L 83.091064 77.024024 
L 83.33617 76.936792 
L 83.581277 76.611926 
L 84.071489 76.444144 
L 84.806809 76.325771 
L 85.297021 76.014423 
L 85.542128 75.935961 
L 85.787234 75.601735 
L 86.03234 75.651119 
L 86.277447 75.538854 
L 86.76766 75.02611 
L 87.502979 75.288334 
L 87.748085 75.214697 
L 87.993191 74.95999 
L 88.238298 74.87301 
L 90.199149 75.20816 
L 90.689362 75.00165 
L 91.669787 74.140997 
L 91.914894 73.803682 
L 92.16 73.847673 
L 92.405106 73.601338 
L 92.650213 73.573849 
L 93.140426 73.266863 
L 93.385532 72.899466 
L 94.365957 72.700108 
L 94.85617 72.348509 
L 95.101277 72.40256 
L 95.346383 72.123903 
L 95.836596 72.01728 
L 96.081702 71.712762 
L 96.571915 71.818764 
L 96.817021 71.802756 
L 97.307234 71.884016 
L 98.042553 71.955698 
L 98.28766 71.548732 
L 98.532766 71.678509 
L 98.777872 71.273558 
L 99.513191 71.08893 
L 99.758298 71.236285 
L 100.003404 70.98542 
L 100.248511 70.940306 
L 100.493617 70.701133 
L 100.738723 70.868356 
L 100.98383 70.816021 
L 101.228936 70.976545 
L 101.719149 70.852637 
L 102.454468 70.389627 
L 103.189787 70.615877 
L 104.415319 70.929928 
L 104.905532 71.353724 
L 105.150638 71.264547 
L 105.640851 71.537779 
L 105.885957 71.544438 
L 106.621277 72.128206 
L 106.866383 71.868398 
L 107.111489 71.985267 
L 108.582128 71.579008 
L 108.827234 71.673482 
L 109.317447 71.535876 
L 110.297872 71.650703 
L 111.033191 71.347913 
L 111.523404 71.61204 
L 111.768511 71.610408 
L 112.013617 71.721533 
L 112.258723 71.708781 
L 112.50383 71.910429 
L 112.748936 71.919394 
L 113.484255 72.271476 
L 113.729362 71.906948 
L 114.464681 71.517331 
L 114.709787 71.638925 
L 114.954894 72.049303 
L 115.2 71.873142 
L 115.445106 71.846431 
L 115.690213 71.643272 
L 115.935319 71.587482 
L 116.180426 71.337577 
L 117.160851 71.067289 
L 117.89617 71.276348 
L 118.386383 71.189627 
L 118.631489 71.230621 
L 119.366809 70.809057 
L 119.857021 70.888848 
L 120.102128 70.716476 
L 120.347234 71.100763 
L 120.59234 71.113957 
L 120.837447 70.907504 
L 121.082553 71.1559 
L 121.817872 71.098503 
L 122.062979 71.017087 
L 122.553191 70.259628 
L 123.043404 70.489953 
L 123.288511 70.789039 
L 123.533617 70.879604 
L 124.268936 72.496133 
L 125.004255 72.624736 
L 125.739574 72.368314 
L 125.984681 72.695687 
L 126.229787 72.797075 
L 126.474894 73.114697 
L 127.210213 72.773456 
L 127.700426 72.747446 
L 127.945532 72.94747 
L 128.435745 73.018451 
L 128.680851 72.559465 
L 128.925957 72.432591 
L 129.906383 73.86053 
L 130.151489 73.943002 
L 130.641702 74.533225 
L 131.131915 74.304351 
L 131.867234 74.874081 
L 132.357447 74.43217 
L 132.602553 75.127632 
L 132.84766 75.415049 
L 133.092766 74.886227 
L 133.337872 74.74199 
L 133.828085 74.784439 
L 134.073191 74.751 
L 134.318298 74.43524 
L 134.808511 74.389236 
L 135.053617 74.3517 
L 135.298723 74.519924 
L 135.788936 74.485476 
L 136.034043 74.572743 
L 136.769362 74.358035 
L 137.014468 74.221796 
L 137.259574 73.927766 
L 137.504681 73.861855 
L 137.994894 74.157285 
L 139.465532 73.12008 
L 139.710638 72.723423 
L 140.445957 72.394367 
L 140.691064 72.467465 
L 141.181277 72.365913 
L 141.671489 72.655279 
L 142.161702 72.408282 
L 142.406809 72.142389 
L 142.651915 72.107164 
L 142.897021 71.750481 
L 143.63234 71.344712 
L 143.877447 71.278121 
L 144.36766 70.128455 
L 145.102979 69.384707 
L 145.348085 69.33371 
L 145.593191 68.889671 
L 146.083404 68.5604 
L 146.573617 67.878931 
L 146.818723 67.199652 
L 147.06383 67.312669 
L 147.799149 67.216206 
L 149.024681 65.717145 
L 149.76 65.649714 
L 150.005106 65.96731 
L 150.250213 65.932962 
L 150.495319 65.728892 
L 150.740426 65.756235 
L 151.720851 65.296117 
L 152.211064 65.281831 
L 152.701277 65.27049 
L 153.191489 65.049376 
L 153.436596 65.122519 
L 153.681702 64.90791 
L 153.926809 65.022453 
L 154.662128 64.45241 
L 155.15234 64.589242 
L 155.642553 64.495551 
L 155.88766 64.334428 
L 156.132766 64.608998 
L 157.113191 64.627374 
L 157.358298 64.668874 
L 157.603404 64.896619 
L 157.848511 64.914453 
L 158.093617 65.067213 
L 158.58383 65.041366 
L 159.564255 65.126657 
L 160.299574 65.612122 
L 160.789787 65.632278 
L 161.28 65.963978 
L 162.015319 65.893478 
L 162.505532 66.068733 
L 162.750638 66.004156 
L 162.995745 65.477148 
L 163.240851 65.576789 
L 163.731064 65.02797 
L 163.97617 64.978272 
L 164.711489 65.34239 
L 165.446809 65.249753 
L 165.691915 65.361725 
L 166.182128 65.310903 
L 166.67234 64.985056 
L 166.917447 65.010463 
L 167.162553 64.728766 
L 167.652766 64.782953 
L 167.897872 64.712707 
L 169.123404 65.033072 
L 169.368511 65.208158 
L 170.348936 65.037835 
L 171.329362 64.3187 
L 171.574468 64.432214 
L 172.064681 64.324751 
L 173.780426 63.607467 
L 174.025532 63.373673 
L 175.251064 63.778587 
L 175.49617 63.937936 
L 175.741277 64.284338 
L 175.986383 64.374878 
L 176.231489 64.212456 
L 176.476596 64.322466 
L 176.721702 64.557328 
L 177.211915 64.468085 
L 177.947234 64.911491 
L 178.19234 65.360705 
L 178.682553 65.387827 
L 179.662979 65.215346 
L 179.908085 64.988254 
L 180.153191 64.924951 
L 180.398298 64.984824 
L 180.643404 64.795237 
L 181.133617 64.949077 
L 181.62383 64.682784 
L 181.868936 64.666653 
L 182.604255 64.926202 
L 182.849362 64.906872 
L 183.584681 65.223853 
L 184.074894 65.08994 
L 184.565106 64.809371 
L 185.055319 64.665311 
L 186.280851 65.161995 
L 186.771064 65.041143 
L 187.506383 65.280128 
L 187.751489 65.366872 
L 187.996596 65.305048 
L 190.202553 66.291478 
L 190.44766 65.815885 
L 192.408511 66.916621 
L 192.653617 66.876333 
L 193.14383 67.153735 
L 193.388936 67.487419 
L 193.879149 67.496365 
L 194.369362 67.745781 
L 194.614468 67.728022 
L 196.330213 68.483487 
L 196.575319 68.731847 
L 196.820426 68.656462 
L 197.555745 69.182267 
L 198.045957 69.574134 
L 199.026383 69.761317 
L 199.516596 70.210323 
L 200.006809 70.413952 
L 200.497021 70.099675 
L 200.987234 70.564616 
L 201.23234 70.596546 
L 202.948085 71.524842 
L 203.193191 71.507624 
L 204.66383 72.450632 
L 205.154043 72.469343 
L 205.399149 72.70881 
L 205.644255 72.685791 
L 206.134468 72.981808 
L 206.379574 73.029331 
L 206.624681 72.872033 
L 207.36 72.922407 
L 207.850213 73.144172 
L 208.095319 73.220043 
L 208.340426 73.136011 
L 208.585532 73.255969 
L 209.075745 73.205614 
L 209.811064 73.481758 
L 210.791489 73.29865 
L 211.036596 73.385575 
L 212.262128 73.289407 
L 212.507234 73.441762 
L 212.75234 73.28865 
L 213.48766 73.253343 
L 213.732766 73.156907 
L 213.977872 72.750279 
L 214.713191 72.690136 
L 214.958298 72.764517 
L 215.448511 72.786359 
L 215.693617 72.805289 
L 215.938723 72.630509 
L 216.428936 72.603958 
L 216.674043 72.740082 
L 217.164255 72.78607 
L 217.409362 72.638726 
L 217.899574 72.769653 
L 218.144681 72.979264 
L 218.389787 72.977728 
L 218.634894 73.08952 
L 220.595745 72.994143 
L 221.085957 73.213164 
L 221.821277 73.281067 
L 222.311489 73.330548 
L 222.801702 73.407055 
L 223.291915 73.220938 
L 223.537021 73.286812 
L 223.782128 72.990642 
L 224.027234 73.188545 
L 224.762553 73.279123 
L 225.00766 73.089913 
L 225.252766 73.179855 
L 225.497872 73.095323 
L 225.988085 73.0684 
L 226.478298 72.885007 
L 227.213617 73.162407 
L 229.419574 73.211804 
L 229.664681 73.367325 
L 229.909787 73.308338 
L 230.4 73.494405 
L 230.645106 73.710892 
L 231.135319 73.750895 
L 231.380426 73.865108 
L 231.870638 73.76407 
L 233.341277 73.601148 
L 233.586383 73.533618 
L 234.321702 73.775353 
L 234.566809 73.740911 
L 234.811915 73.575352 
L 235.302128 73.742663 
L 236.037447 73.967397 
L 236.52766 73.920971 
L 237.262979 73.82386 
L 237.508085 73.887076 
L 237.753191 73.797666 
L 238.243404 73.882752 
L 238.978723 73.727603 
L 239.714043 73.978201 
L 240.204255 74.035489 
L 240.694468 74.330384 
L 240.939574 74.148792 
L 241.184681 74.111169 
L 241.674894 73.482895 
L 242.165106 73.430994 
L 242.655319 73.645803 
L 242.900426 73.694482 
L 243.635745 73.503162 
L 244.371064 72.768893 
L 244.61617 72.665639 
L 245.106383 72.825654 
L 245.351489 72.7392 
L 245.841702 72.80272 
L 246.086809 72.819914 
L 246.331915 72.988147 
L 246.577021 72.970209 
L 246.822128 73.077076 
L 247.067234 72.86602 
L 247.557447 73.061479 
L 247.802553 72.97794 
L 248.04766 72.691729 
L 248.782979 72.916973 
L 249.273191 73.084396 
L 249.763404 73.333769 
L 250.008511 73.17897 
L 250.253617 72.570061 
L 250.498723 72.372848 
L 250.988936 72.397769 
L 251.724255 72.194798 
L 252.704681 71.618329 
L 252.949787 71.501268 
L 253.194894 71.639549 
L 253.44 71.569844 
L 254.420426 71.700389 
L 254.910638 71.344016 
L 255.891064 71.34708 
L 256.13617 71.384102 
L 256.626383 70.924418 
L 256.871489 70.855299 
L 257.606809 71.158119 
L 257.851915 71.140079 
L 258.342128 71.440894 
L 258.83234 71.562069 
L 259.56766 71.185206 
L 259.812766 71.167023 
L 260.302979 71.290386 
L 261.528511 71.102113 
L 261.773617 71.191719 
L 262.018723 71.025599 
L 262.754043 71.020524 
L 263.244255 70.726503 
L 264.714894 69.317124 
L 264.96 68.969082 
L 265.205106 68.863318 
L 265.695319 69.060515 
L 266.920851 69.541335 
L 267.65617 69.870744 
L 268.391489 69.637679 
L 268.636596 69.644393 
L 268.881702 69.85177 
L 269.126809 69.843167 
L 269.617021 70.252641 
L 270.107234 70.001928 
L 270.597447 69.833107 
L 270.842553 69.400766 
L 271.08766 69.339374 
L 271.577872 69.394877 
L 271.822979 69.371469 
L 272.068085 69.477818 
L 272.558298 69.380535 
L 272.803404 69.177983 
L 273.293617 69.005938 
L 273.78383 68.479331 
L 274.764255 68.239 
L 275.254468 68.460636 
L 275.499574 68.355334 
L 277.460426 68.918619 
L 277.950638 69.472186 
L 279.17617 70.745399 
L 279.911489 70.587594 
L 281.137021 71.085242 
L 281.382128 70.995583 
L 283.342979 71.524621 
L 284.568511 70.76064 
L 285.30383 70.562366 
L 285.548936 70.417059 
L 286.284255 70.743769 
L 286.774468 71.161515 
L 287.019574 71.235705 
L 287.509787 71.692607 
L 287.754894 71.638165 
L 288 71.765114 
L 288.245106 71.759991 
L 288.490213 71.935463 
L 289.715745 72.000216 
L 290.69617 72.440926 
L 291.186383 72.378078 
L 291.431489 71.772876 
L 291.676596 71.613452 
L 292.411915 71.885412 
L 292.657021 71.859481 
L 293.39234 72.315325 
L 293.637447 72.388963 
L 294.12766 72.756167 
L 294.617872 72.646785 
L 295.108085 72.732567 
L 295.353191 72.880474 
L 295.843404 72.925911 
L 298.294468 74.279907 
L 298.784681 74.307409 
L 299.52 74.586068 
L 300.010213 74.960763 
L 300.745532 75.054546 
L 300.990638 74.825198 
L 301.971064 74.858352 
L 302.461277 75.008244 
L 303.196596 75.240586 
L 303.686809 75.382077 
L 303.931915 75.146724 
L 304.422128 75.21115 
L 304.667234 75.139916 
L 304.91234 75.359048 
L 305.157447 75.231123 
L 305.64766 75.462062 
L 306.137872 75.100223 
L 306.628085 74.866942 
L 306.873191 75.051095 
L 307.363404 75.091405 
L 307.608511 75.309672 
L 308.588936 75.091792 
L 308.834043 75.255422 
L 309.079149 75.247372 
L 309.569362 75.612279 
L 309.814468 75.583269 
L 310.304681 75.788284 
L 310.549787 75.874747 
L 311.04 75.794011 
L 311.530213 75.868729 
L 311.775319 75.84903 
L 312.265532 76.096156 
L 312.755745 75.847009 
L 313.491064 76.508909 
L 313.981277 76.61456 
L 314.471489 76.545648 
L 315.697021 76.679595 
L 315.942128 76.76721 
L 316.187234 76.471505 
L 316.43234 76.56822 
L 316.677447 76.785391 
L 317.412766 76.866898 
L 318.393191 77.074045 
L 318.638298 77.019278 
L 318.883404 77.138276 
L 319.128511 76.945722 
L 320.108936 77.028583 
L 320.844255 76.607198 
L 321.089362 76.65046 
L 321.334468 76.522293 
L 322.069787 76.849783 
L 322.314894 76.793685 
L 322.56 77.004999 
L 324.030638 76.540626 
L 324.275745 76.775714 
L 324.765957 76.840293 
L 325.011064 77.084815 
L 325.25617 76.958034 
L 325.501277 77.082868 
L 325.746383 77.341102 
L 326.481702 77.379234 
L 327.217021 77.625211 
L 327.462128 77.502159 
L 328.442553 78.483479 
L 328.932766 78.634357 
L 329.422979 78.583457 
L 329.913191 78.720473 
L 330.158298 78.634162 
L 330.648511 78.948323 
L 331.138723 79.315085 
L 331.628936 79.372629 
L 332.119149 79.40962 
L 333.099574 79.717899 
L 333.589787 79.755278 
L 333.834894 80.0069 
L 335.060426 80.333535 
L 335.550638 80.375626 
L 336.285957 80.581291 
L 337.021277 80.614616 
L 337.266383 80.957256 
L 338.491915 81.386543 
L 338.982128 81.457219 
L 339.227234 81.494126 
L 339.717447 81.741949 
L 340.20766 81.656152 
L 340.452766 81.851034 
L 340.942979 81.686349 
L 341.188085 81.72793 
L 341.433191 81.51032 
L 343.148936 81.042197 
L 343.639149 80.878121 
L 345.109787 80.953117 
L 345.6 80.732607 
L 346.825532 80.725268 
L 347.315745 80.886023 
L 347.560851 80.846343 
L 347.805957 80.540745 
L 348.786383 80.282227 
L 349.276596 79.731351 
L 349.766809 79.8024 
L 350.011915 79.673557 
L 350.747234 79.8289 
L 351.237447 79.545957 
L 351.482553 79.240986 
L 351.72766 79.469839 
L 351.972766 79.25279 
L 352.708085 79.532463 
L 353.198298 79.799291 
L 353.443404 79.850196 
L 353.688511 79.585214 
L 354.178723 79.481779 
L 354.668936 79.655012 
L 355.404255 80.362512 
L 356.384681 80.968548 
L 356.629787 81.099402 
L 357.12 80.908021 
L 357.855319 81.254523 
L 358.345532 81.095318 
L 358.835745 80.629729 
L 359.325957 80.607349 
L 359.81617 80.037889 
L 360.061277 80.153877 
L 360.551489 79.930193 
L 360.796596 79.702382 
L 361.041702 79.81183 
L 362.022128 79.359106 
L 363.002553 78.759211 
L 363.24766 78.375079 
L 363.982979 78.507272 
L 364.228085 78.418567 
L 364.473191 78.068978 
L 364.718298 77.978818 
L 364.963404 78.063999 
L 365.698723 77.786624 
L 365.94383 77.75072 
L 366.679149 78.062587 
L 366.924255 78.053525 
L 367.169362 77.622038 
L 367.904681 77.930803 
L 368.394894 78.079481 
L 368.885106 78.349352 
L 369.130213 78.438455 
L 369.375319 78.307357 
L 370.600851 78.629296 
L 371.826383 79.402369 
L 372.316596 79.357973 
L 372.561702 79.597257 
L 373.787234 79.820084 
L 374.03234 79.434898 
L 374.76766 79.54666 
L 375.257872 79.81613 
L 375.993191 80.057219 
L 377.218723 80.254705 
L 378.444255 80.265098 
L 379.179574 80.067545 
L 379.669787 80.110324 
L 380.16 80.204867 
L 381.140426 80.222222 
L 381.385532 79.948089 
L 381.630638 80.218649 
L 382.120851 80.258447 
L 382.365957 80.39127 
L 382.85617 80.376512 
L 383.101277 80.592353 
L 384.081702 80.754042 
L 384.817021 81.213927 
L 385.307234 81.326345 
L 385.55234 81.209955 
L 385.797447 81.227952 
L 386.28766 81.033645 
L 386.532766 81.192994 
L 386.777872 81.205198 
L 387.022979 81.068433 
L 387.268085 81.172331 
L 387.758298 80.720319 
L 388.738723 81.139133 
L 388.98383 81.025425 
L 389.228936 81.198668 
L 389.474043 81.145739 
L 389.964255 81.421786 
L 391.189787 81.887946 
L 391.434894 82.144321 
L 391.68 82.231608 
L 391.925106 82.107963 
L 392.660426 82.8 
L 392.660426 82.8 
" style="fill:none;stroke:#1f77b4;stroke-linecap:square;stroke-width:1.5;"/>
   </g>
   <g id="line2d_14">
    <path clip-path="url(#p377c4ac3ae)" d="M 34.56 82.8 
L 414.72 82.8 
" style="fill:none;stroke:#000000;stroke-dasharray:1.5,2.475;stroke-dashoffset:0;stroke-width:1.5;"/>
   </g>
   <g id="patch_3">
    <path d="M 34.56 162 
L 34.56 3.6 
" style="fill:none;stroke:#000000;stroke-linecap:square;stroke-linejoin:miter;stroke-width:0.8;"/>
   </g>
   <g id="patch_4">
    <path d="M 414.72 162 
L 414.72 3.6 
" style="fill:none;stroke:#000000;stroke-linecap:square;stroke-linejoin:miter;stroke-width:0.8;"/>
   </g>
   <g id="patch_5">
    <path d="M 34.56 162 
L 414.72 162 
" style="fill:none;stroke:#000000;stroke-linecap:square;stroke-linejoin:miter;stroke-width:0.8;"/>
   </g>
   <g id="patch_6">
    <path d="M 34.56 3.6 
L 414.72 3.6 
" style="fill:none;stroke:#000000;stroke-linecap:square;stroke-linejoin:miter;stroke-width:0.8;"/>
   </g>
  </g>
 </g>
 <defs>
  <clipPath id="p377c4ac3ae">
   <rect height="158.4" width="380.16" x="34.56" y="3.6"/>
  </clipPath>
 </defs>
</svg>
