<?xml version="1.0" encoding="utf-8" standalone="no"?>
<!DOCTYPE svg PUBLIC "-//W3C//DTD SVG 1.1//EN"
  "http://www.w3.org/Graphics/SVG/1.1/DTD/svg11.dtd">
<svg height="180pt" version="1.1" viewBox="0 0 432 180" width="432pt" xmlns="http://www.w3.org/2000/svg" xmlns:xlink="http://www.w3.org/1999/xlink">
 <metadata>
  <rdf:RDF xmlns:cc="http://creativecommons.org/ns#" xmlns:dc="http://purl.org/dc/elements/1.1/" xmlns:rdf="http://www.w3.org/1999/02/22-rdf-syntax-ns#">
   <cc:Work>
    <dc:type rdf:resource="http://purl.org/dc/dcmitype/StillImage"/>
    <dc:date>2021-08-12T10:43:36.273885</dc:date>
    <dc:format>image/svg+xml</dc:format>
    <dc:creator>
     <cc:Agent>
      <dc:title>Matplotlib v3.4.2, https://matplotlib.org/</dc:title>
     </cc:Agent>
    </dc:creator>
   </cc:Work>
  </rdf:RDF>
 </metadata>
 <defs>
  <style type="text/css">*{stroke-linecap:butt;stroke-linejoin:round;}</style>
 </defs>
 <g id="figure_1">
  <g id="patch_1">
   <path d="M 0 180 
L 432 180 
L 432 0 
L 0 0 
z
" style="fill:#ffffff;"/>
  </g>
  <g id="axes_1">
   <g id="patch_2">
    <path d="M 34.56 162 
L 414.72 162 
L 414.72 3.6 
L 34.56 3.6 
z
" style="fill:#ffffff;"/>
   </g>
   <g id="PolyCollection_1">
    <path clip-path="url(#p65a13211b5)" d="M 120.525829 81.390151 
L 120.525829 84.209849 
L 121.481005 85.599841 
L 122.436181 86.976658 
L 123.391357 88.340299 
L 124.346533 89.690765 
L 125.301709 91.028056 
L 126.256884 92.352172 
L 127.21206 93.663112 
L 128.167236 94.960877 
L 129.122412 96.245467 
L 130.077588 97.516881 
L 131.032764 98.775121 
L 131.98794 100.020185 
L 132.943116 101.252073 
L 133.898291 102.470787 
L 134.853467 103.676325 
L 135.808643 104.868688 
L 136.763819 106.047875 
L 137.718995 107.213888 
L 138.674171 108.366725 
L 139.629347 109.506386 
L 140.584523 110.632873 
L 141.539698 111.746184 
L 142.494874 112.84632 
L 143.45005 113.93328 
L 144.405226 115.007066 
L 145.360402 116.067676 
L 146.315578 117.11511 
L 147.270754 118.14937 
L 148.22593 119.170454 
L 149.181106 120.178363 
L 150.136281 121.173097 
L 151.091457 122.154655 
L 152.046633 123.123038 
L 153.001809 124.078246 
L 153.956985 125.020278 
L 154.912161 125.949136 
L 155.867337 126.864818 
L 156.822513 127.767324 
L 157.777688 128.656656 
L 158.732864 129.532812 
L 159.68804 130.395793 
L 160.643216 131.245598 
L 161.598392 132.082228 
L 162.553568 132.905683 
L 163.508744 133.715963 
L 164.46392 134.513068 
L 165.419095 135.296997 
L 166.374271 136.067751 
L 167.329447 136.825329 
L 168.284623 137.569732 
L 169.239799 138.300961 
L 170.194975 139.019013 
L 171.150151 139.723891 
L 172.105327 140.415593 
L 173.060503 141.09412 
L 174.015678 141.759472 
L 174.970854 142.411648 
L 175.92603 143.050649 
L 176.881206 143.676475 
L 177.836382 144.289125 
L 178.791558 144.8886 
L 179.746734 145.4749 
L 180.70191 146.048025 
L 181.657085 146.607975 
L 182.612261 147.154749 
L 182.612261 18.445251 
L 182.612261 18.445251 
L 181.657085 18.992025 
L 180.70191 19.551975 
L 179.746734 20.1251 
L 178.791558 20.7114 
L 177.836382 21.310875 
L 176.881206 21.923525 
L 175.92603 22.549351 
L 174.970854 23.188352 
L 174.015678 23.840528 
L 173.060503 24.50588 
L 172.105327 25.184407 
L 171.150151 25.876109 
L 170.194975 26.580987 
L 169.239799 27.299039 
L 168.284623 28.030268 
L 167.329447 28.774671 
L 166.374271 29.532249 
L 165.419095 30.303003 
L 164.46392 31.086932 
L 163.508744 31.884037 
L 162.553568 32.694317 
L 161.598392 33.517772 
L 160.643216 34.354402 
L 159.68804 35.204207 
L 158.732864 36.067188 
L 157.777688 36.943344 
L 156.822513 37.832676 
L 155.867337 38.735182 
L 154.912161 39.650864 
L 153.956985 40.579722 
L 153.001809 41.521754 
L 152.046633 42.476962 
L 151.091457 43.445345 
L 150.136281 44.426903 
L 149.181106 45.421637 
L 148.22593 46.429546 
L 147.270754 47.45063 
L 146.315578 48.48489 
L 145.360402 49.532324 
L 144.405226 50.592934 
L 143.45005 51.66672 
L 142.494874 52.75368 
L 141.539698 53.853816 
L 140.584523 54.967127 
L 139.629347 56.093614 
L 138.674171 57.233275 
L 137.718995 58.386112 
L 136.763819 59.552125 
L 135.808643 60.731312 
L 134.853467 61.923675 
L 133.898291 63.129213 
L 132.943116 64.347927 
L 131.98794 65.579815 
L 131.032764 66.824879 
L 130.077588 68.083119 
L 129.122412 69.354533 
L 128.167236 70.639123 
L 127.21206 71.936888 
L 126.256884 73.247828 
L 125.301709 74.571944 
L 124.346533 75.909235 
L 123.391357 77.259701 
L 122.436181 78.623342 
L 121.481005 80.000159 
L 120.525829 81.390151 
z
" style="fill:#0000ff;fill-opacity:0.1;stroke:#0000ff;stroke-opacity:0.1;"/>
    <path clip-path="url(#p65a13211b5)" d="M 184.522613 17.911653 
L 184.522613 147.688347 
L 185.477789 148.208771 
L 186.432965 148.716019 
L 187.388141 149.210092 
L 188.343317 149.69099 
L 189.298492 150.158712 
L 190.253668 150.61326 
L 191.208844 151.054632 
L 192.16402 151.482828 
L 193.119196 151.897849 
L 194.074372 152.299695 
L 195.029548 152.688366 
L 195.984724 153.063862 
L 196.939899 153.426182 
L 197.895075 153.775327 
L 198.850251 154.111296 
L 199.805427 154.434091 
L 200.760603 154.74371 
L 201.715779 155.040154 
L 202.670955 155.323422 
L 202.670955 10.276578 
L 202.670955 10.276578 
L 201.715779 10.559846 
L 200.760603 10.85629 
L 199.805427 11.165909 
L 198.850251 11.488704 
L 197.895075 11.824673 
L 196.939899 12.173818 
L 195.984724 12.536138 
L 195.029548 12.911634 
L 194.074372 13.300305 
L 193.119196 13.702151 
L 192.16402 14.117172 
L 191.208844 14.545368 
L 190.253668 14.98674 
L 189.298492 15.441288 
L 188.343317 15.90901 
L 187.388141 16.389908 
L 186.432965 16.883981 
L 185.477789 17.391229 
L 184.522613 17.911653 
z
" style="fill:#0000ff;fill-opacity:0.1;stroke:#0000ff;stroke-opacity:0.1;"/>
    <path clip-path="url(#p65a13211b5)" d="M 204.581307 10.006485 
L 204.581307 155.593515 
L 205.536482 155.850433 
L 206.491658 156.094176 
L 207.446834 156.324743 
L 208.40201 156.542136 
L 209.357186 156.746352 
L 210.312362 156.937394 
L 211.267538 157.11526 
L 212.222714 157.279951 
L 213.177889 157.431467 
L 214.133065 157.569807 
L 215.088241 157.694973 
L 216.043417 157.806962 
L 216.998593 157.905777 
L 217.953769 157.991416 
L 218.908945 158.06388 
L 219.864121 158.123169 
L 220.819296 158.169283 
L 221.774472 158.202221 
L 222.729648 158.221984 
L 223.684824 158.228571 
L 224.64 158.221984 
L 225.595176 158.202221 
L 226.550352 158.169283 
L 227.505528 158.123169 
L 228.460704 158.06388 
L 229.415879 157.991416 
L 230.371055 157.905777 
L 231.326231 157.806962 
L 232.281407 157.694973 
L 233.236583 157.569807 
L 234.191759 157.431467 
L 235.146935 157.279951 
L 236.102111 157.11526 
L 237.057286 156.937394 
L 238.012462 156.746352 
L 238.967638 156.542136 
L 238.967638 9.057864 
L 238.967638 9.057864 
L 238.012462 8.853648 
L 237.057286 8.662606 
L 236.102111 8.48474 
L 235.146935 8.320049 
L 234.191759 8.168533 
L 233.236583 8.030193 
L 232.281407 7.905027 
L 231.326231 7.793038 
L 230.371055 7.694223 
L 229.415879 7.608584 
L 228.460704 7.53612 
L 227.505528 7.476831 
L 226.550352 7.430717 
L 225.595176 7.397779 
L 224.64 7.378016 
L 223.684824 7.371429 
L 222.729648 7.378016 
L 221.774472 7.397779 
L 220.819296 7.430717 
L 219.864121 7.476831 
L 218.908945 7.53612 
L 217.953769 7.608584 
L 216.998593 7.694223 
L 216.043417 7.793038 
L 215.088241 7.905027 
L 214.133065 8.030193 
L 213.177889 8.168533 
L 212.222714 8.320049 
L 211.267538 8.48474 
L 210.312362 8.662606 
L 209.357186 8.853648 
L 208.40201 9.057864 
L 207.446834 9.275257 
L 206.491658 9.505824 
L 205.536482 9.749567 
L 204.581307 10.006485 
z
" style="fill:#0000ff;fill-opacity:0.1;stroke:#0000ff;stroke-opacity:0.1;"/>
    <path clip-path="url(#p65a13211b5)" d="M 240.87799 9.275257 
L 240.87799 156.324743 
L 241.833166 156.094176 
L 242.788342 155.850433 
L 243.743518 155.593515 
L 244.698693 155.323422 
L 245.653869 155.040154 
L 246.609045 154.74371 
L 247.564221 154.434091 
L 248.519397 154.111296 
L 249.474573 153.775327 
L 250.429749 153.426182 
L 251.384925 153.063862 
L 252.340101 152.688366 
L 253.295276 152.299695 
L 254.250452 151.897849 
L 255.205628 151.482828 
L 256.160804 151.054632 
L 257.11598 150.61326 
L 258.071156 150.158712 
L 259.026332 149.69099 
L 259.981508 149.210092 
L 259.981508 16.389908 
L 259.981508 16.389908 
L 259.026332 15.90901 
L 258.071156 15.441288 
L 257.11598 14.98674 
L 256.160804 14.545368 
L 255.205628 14.117172 
L 254.250452 13.702151 
L 253.295276 13.300305 
L 252.340101 12.911634 
L 251.384925 12.536138 
L 250.429749 12.173818 
L 249.474573 11.824673 
L 248.519397 11.488704 
L 247.564221 11.165909 
L 246.609045 10.85629 
L 245.653869 10.559846 
L 244.698693 10.276578 
L 243.743518 10.006485 
L 242.788342 9.749567 
L 241.833166 9.505824 
L 240.87799 9.275257 
z
" style="fill:#0000ff;fill-opacity:0.1;stroke:#0000ff;stroke-opacity:0.1;"/>
    <path clip-path="url(#p65a13211b5)" d="M 261.891859 16.883981 
L 261.891859 148.716019 
L 262.847035 148.208771 
L 263.802211 147.688347 
L 264.757387 147.154749 
L 265.712563 146.607975 
L 266.667739 146.048025 
L 267.622915 145.4749 
L 268.57809 144.8886 
L 269.533266 144.289125 
L 270.488442 143.676475 
L 271.443618 143.050649 
L 272.398794 142.411648 
L 273.35397 141.759472 
L 274.309146 141.09412 
L 275.264322 140.415593 
L 276.219497 139.723891 
L 277.174673 139.019013 
L 278.129849 138.300961 
L 279.085025 137.569732 
L 280.040201 136.825329 
L 280.995377 136.067751 
L 281.950553 135.296997 
L 282.905729 134.513068 
L 283.860905 133.715963 
L 284.81608 132.905683 
L 285.771256 132.082228 
L 286.726432 131.245598 
L 287.681608 130.395793 
L 288.636784 129.532812 
L 289.59196 128.656656 
L 290.547136 127.767324 
L 291.502312 126.864818 
L 292.457487 125.949136 
L 293.412663 125.020278 
L 293.412663 40.579722 
L 293.412663 40.579722 
L 292.457487 39.650864 
L 291.502312 38.735182 
L 290.547136 37.832676 
L 289.59196 36.943344 
L 288.636784 36.067188 
L 287.681608 35.204207 
L 286.726432 34.354402 
L 285.771256 33.517772 
L 284.81608 32.694317 
L 283.860905 31.884037 
L 282.905729 31.086932 
L 281.950553 30.303003 
L 280.995377 29.532249 
L 280.040201 28.774671 
L 279.085025 28.030268 
L 278.129849 27.299039 
L 277.174673 26.580987 
L 276.219497 25.876109 
L 275.264322 25.184407 
L 274.309146 24.50588 
L 273.35397 23.840528 
L 272.398794 23.188352 
L 271.443618 22.549351 
L 270.488442 21.923525 
L 269.533266 21.310875 
L 268.57809 20.7114 
L 267.622915 20.1251 
L 266.667739 19.551975 
L 265.712563 18.992025 
L 264.757387 18.445251 
L 263.802211 17.911653 
L 262.847035 17.391229 
L 261.891859 16.883981 
z
" style="fill:#0000ff;fill-opacity:0.1;stroke:#0000ff;stroke-opacity:0.1;"/>
    <path clip-path="url(#p65a13211b5)" d="M 296.278191 41.521754 
L 296.278191 124.078246 
L 297.233367 123.123038 
L 298.188543 122.154655 
L 299.143719 121.173097 
L 300.098894 120.178363 
L 301.05407 119.170454 
L 302.009246 118.14937 
L 302.964422 117.11511 
L 303.919598 116.067676 
L 304.874774 115.007066 
L 305.82995 113.93328 
L 306.785126 112.84632 
L 307.740302 111.746184 
L 308.695477 110.632873 
L 309.650653 109.506386 
L 310.605829 108.366725 
L 311.561005 107.213888 
L 312.516181 106.047875 
L 313.471357 104.868688 
L 314.426533 103.676325 
L 315.381709 102.470787 
L 316.336884 101.252073 
L 317.29206 100.020185 
L 318.247236 98.775121 
L 319.202412 97.516881 
L 320.157588 96.245467 
L 321.112764 94.960877 
L 322.06794 93.663112 
L 323.023116 92.352172 
L 323.978291 91.028056 
L 324.933467 89.690765 
L 325.888643 88.340299 
L 326.843819 86.976658 
L 327.798995 85.599841 
L 328.754171 84.209849 
L 328.754171 81.390151 
L 328.754171 81.390151 
L 327.798995 80.000159 
L 326.843819 78.623342 
L 325.888643 77.259701 
L 324.933467 75.909235 
L 323.978291 74.571944 
L 323.023116 73.247828 
L 322.06794 71.936888 
L 321.112764 70.639123 
L 320.157588 69.354533 
L 319.202412 68.083119 
L 318.247236 66.824879 
L 317.29206 65.579815 
L 316.336884 64.347927 
L 315.381709 63.129213 
L 314.426533 61.923675 
L 313.471357 60.731312 
L 312.516181 59.552125 
L 311.561005 58.386112 
L 310.605829 57.233275 
L 309.650653 56.093614 
L 308.695477 54.967127 
L 307.740302 53.853816 
L 306.785126 52.75368 
L 305.82995 51.66672 
L 304.874774 50.592934 
L 303.919598 49.532324 
L 302.964422 48.48489 
L 302.009246 47.45063 
L 301.05407 46.429546 
L 300.098894 45.421637 
L 299.143719 44.426903 
L 298.188543 43.445345 
L 297.233367 42.476962 
L 296.278191 41.521754 
z
" style="fill:#0000ff;fill-opacity:0.1;stroke:#0000ff;stroke-opacity:0.1;"/>
   </g>
   <g id="matplotlib.axis_1">
    <g id="xtick_1">
     <g id="line2d_1">
      <defs>
       <path d="M 0 0 
L 0 3.5 
" id="m4dbc584c43" style="stroke:#000000;stroke-width:0.8;"/>
      </defs>
      <g>
       <use style="stroke:#000000;stroke-width:0.8;" x="88.527437" xlink:href="#m4dbc584c43" y="162"/>
      </g>
     </g>
     <g id="text_1">
      <!-- 1975 -->
      <g transform="translate(75.802437 176.598438)scale(0.1 -0.1)">
       <defs>
        <path d="M 794 531 
L 1825 531 
L 1825 4091 
L 703 3866 
L 703 4441 
L 1819 4666 
L 2450 4666 
L 2450 531 
L 3481 531 
L 3481 0 
L 794 0 
L 794 531 
z
" id="DejaVuSans-31" transform="scale(0.015625)"/>
        <path d="M 703 97 
L 703 672 
Q 941 559 1184 500 
Q 1428 441 1663 441 
Q 2288 441 2617 861 
Q 2947 1281 2994 2138 
Q 2813 1869 2534 1725 
Q 2256 1581 1919 1581 
Q 1219 1581 811 2004 
Q 403 2428 403 3163 
Q 403 3881 828 4315 
Q 1253 4750 1959 4750 
Q 2769 4750 3195 4129 
Q 3622 3509 3622 2328 
Q 3622 1225 3098 567 
Q 2575 -91 1691 -91 
Q 1453 -91 1209 -44 
Q 966 3 703 97 
z
M 1959 2075 
Q 2384 2075 2632 2365 
Q 2881 2656 2881 3163 
Q 2881 3666 2632 3958 
Q 2384 4250 1959 4250 
Q 1534 4250 1286 3958 
Q 1038 3666 1038 3163 
Q 1038 2656 1286 2365 
Q 1534 2075 1959 2075 
z
" id="DejaVuSans-39" transform="scale(0.015625)"/>
        <path d="M 525 4666 
L 3525 4666 
L 3525 4397 
L 1831 0 
L 1172 0 
L 2766 4134 
L 525 4134 
L 525 4666 
z
" id="DejaVuSans-37" transform="scale(0.015625)"/>
        <path d="M 691 4666 
L 3169 4666 
L 3169 4134 
L 1269 4134 
L 1269 2991 
Q 1406 3038 1543 3061 
Q 1681 3084 1819 3084 
Q 2600 3084 3056 2656 
Q 3513 2228 3513 1497 
Q 3513 744 3044 326 
Q 2575 -91 1722 -91 
Q 1428 -91 1123 -41 
Q 819 9 494 109 
L 494 744 
Q 775 591 1075 516 
Q 1375 441 1709 441 
Q 2250 441 2565 725 
Q 2881 1009 2881 1497 
Q 2881 1984 2565 2268 
Q 2250 2553 1709 2553 
Q 1456 2553 1204 2497 
Q 953 2441 691 2322 
L 691 4666 
z
" id="DejaVuSans-35" transform="scale(0.015625)"/>
       </defs>
       <use xlink:href="#DejaVuSans-31"/>
       <use x="63.623047" xlink:href="#DejaVuSans-39"/>
       <use x="127.246094" xlink:href="#DejaVuSans-37"/>
       <use x="190.869141" xlink:href="#DejaVuSans-35"/>
      </g>
     </g>
    </g>
    <g id="xtick_2">
     <g id="line2d_2">
      <g>
       <use style="stroke:#000000;stroke-width:0.8;" x="145.83799" xlink:href="#m4dbc584c43" y="162"/>
      </g>
     </g>
     <g id="text_2">
      <!-- 1980 -->
      <g transform="translate(133.11299 176.598438)scale(0.1 -0.1)">
       <defs>
        <path d="M 2034 2216 
Q 1584 2216 1326 1975 
Q 1069 1734 1069 1313 
Q 1069 891 1326 650 
Q 1584 409 2034 409 
Q 2484 409 2743 651 
Q 3003 894 3003 1313 
Q 3003 1734 2745 1975 
Q 2488 2216 2034 2216 
z
M 1403 2484 
Q 997 2584 770 2862 
Q 544 3141 544 3541 
Q 544 4100 942 4425 
Q 1341 4750 2034 4750 
Q 2731 4750 3128 4425 
Q 3525 4100 3525 3541 
Q 3525 3141 3298 2862 
Q 3072 2584 2669 2484 
Q 3125 2378 3379 2068 
Q 3634 1759 3634 1313 
Q 3634 634 3220 271 
Q 2806 -91 2034 -91 
Q 1263 -91 848 271 
Q 434 634 434 1313 
Q 434 1759 690 2068 
Q 947 2378 1403 2484 
z
M 1172 3481 
Q 1172 3119 1398 2916 
Q 1625 2713 2034 2713 
Q 2441 2713 2670 2916 
Q 2900 3119 2900 3481 
Q 2900 3844 2670 4047 
Q 2441 4250 2034 4250 
Q 1625 4250 1398 4047 
Q 1172 3844 1172 3481 
z
" id="DejaVuSans-38" transform="scale(0.015625)"/>
        <path d="M 2034 4250 
Q 1547 4250 1301 3770 
Q 1056 3291 1056 2328 
Q 1056 1369 1301 889 
Q 1547 409 2034 409 
Q 2525 409 2770 889 
Q 3016 1369 3016 2328 
Q 3016 3291 2770 3770 
Q 2525 4250 2034 4250 
z
M 2034 4750 
Q 2819 4750 3233 4129 
Q 3647 3509 3647 2328 
Q 3647 1150 3233 529 
Q 2819 -91 2034 -91 
Q 1250 -91 836 529 
Q 422 1150 422 2328 
Q 422 3509 836 4129 
Q 1250 4750 2034 4750 
z
" id="DejaVuSans-30" transform="scale(0.015625)"/>
       </defs>
       <use xlink:href="#DejaVuSans-31"/>
       <use x="63.623047" xlink:href="#DejaVuSans-39"/>
       <use x="127.246094" xlink:href="#DejaVuSans-38"/>
       <use x="190.869141" xlink:href="#DejaVuSans-30"/>
      </g>
     </g>
    </g>
    <g id="xtick_3">
     <g id="line2d_3">
      <g>
       <use style="stroke:#000000;stroke-width:0.8;" x="203.148543" xlink:href="#m4dbc584c43" y="162"/>
      </g>
     </g>
     <g id="text_3">
      <!-- 1985 -->
      <g transform="translate(190.423543 176.598438)scale(0.1 -0.1)">
       <use xlink:href="#DejaVuSans-31"/>
       <use x="63.623047" xlink:href="#DejaVuSans-39"/>
       <use x="127.246094" xlink:href="#DejaVuSans-38"/>
       <use x="190.869141" xlink:href="#DejaVuSans-35"/>
      </g>
     </g>
    </g>
    <g id="xtick_4">
     <g id="line2d_4">
      <g>
       <use style="stroke:#000000;stroke-width:0.8;" x="260.459095" xlink:href="#m4dbc584c43" y="162"/>
      </g>
     </g>
     <g id="text_4">
      <!-- 1990 -->
      <g transform="translate(247.734095 176.598438)scale(0.1 -0.1)">
       <use xlink:href="#DejaVuSans-31"/>
       <use x="63.623047" xlink:href="#DejaVuSans-39"/>
       <use x="127.246094" xlink:href="#DejaVuSans-39"/>
       <use x="190.869141" xlink:href="#DejaVuSans-30"/>
      </g>
     </g>
    </g>
    <g id="xtick_5">
     <g id="line2d_5">
      <g>
       <use style="stroke:#000000;stroke-width:0.8;" x="317.769648" xlink:href="#m4dbc584c43" y="162"/>
      </g>
     </g>
     <g id="text_5">
      <!-- 1995 -->
      <g transform="translate(305.044648 176.598438)scale(0.1 -0.1)">
       <use xlink:href="#DejaVuSans-31"/>
       <use x="63.623047" xlink:href="#DejaVuSans-39"/>
       <use x="127.246094" xlink:href="#DejaVuSans-39"/>
       <use x="190.869141" xlink:href="#DejaVuSans-35"/>
      </g>
     </g>
    </g>
    <g id="xtick_6">
     <g id="line2d_6">
      <g>
       <use style="stroke:#000000;stroke-width:0.8;" x="375.080201" xlink:href="#m4dbc584c43" y="162"/>
      </g>
     </g>
     <g id="text_6">
      <!-- 2000 -->
      <g transform="translate(362.355201 176.598438)scale(0.1 -0.1)">
       <defs>
        <path d="M 1228 531 
L 3431 531 
L 3431 0 
L 469 0 
L 469 531 
Q 828 903 1448 1529 
Q 2069 2156 2228 2338 
Q 2531 2678 2651 2914 
Q 2772 3150 2772 3378 
Q 2772 3750 2511 3984 
Q 2250 4219 1831 4219 
Q 1534 4219 1204 4116 
Q 875 4013 500 3803 
L 500 4441 
Q 881 4594 1212 4672 
Q 1544 4750 1819 4750 
Q 2544 4750 2975 4387 
Q 3406 4025 3406 3419 
Q 3406 3131 3298 2873 
Q 3191 2616 2906 2266 
Q 2828 2175 2409 1742 
Q 1991 1309 1228 531 
z
" id="DejaVuSans-32" transform="scale(0.015625)"/>
       </defs>
       <use xlink:href="#DejaVuSans-32"/>
       <use x="63.623047" xlink:href="#DejaVuSans-30"/>
       <use x="127.246094" xlink:href="#DejaVuSans-30"/>
       <use x="190.869141" xlink:href="#DejaVuSans-30"/>
      </g>
     </g>
    </g>
   </g>
   <g id="matplotlib.axis_2">
    <g id="ytick_1">
     <g id="line2d_7">
      <defs>
       <path d="M 0 0 
L -3.5 0 
" id="mfa995108bd" style="stroke:#000000;stroke-width:0.8;"/>
      </defs>
      <g>
       <use style="stroke:#000000;stroke-width:0.8;" x="34.56" xlink:href="#mfa995108bd" y="126.177739"/>
      </g>
     </g>
     <g id="text_7">
      <!-- −20 -->
      <g transform="translate(6.455313 129.976957)scale(0.1 -0.1)">
       <defs>
        <path d="M 678 2272 
L 4684 2272 
L 4684 1741 
L 678 1741 
L 678 2272 
z
" id="DejaVuSans-2212" transform="scale(0.015625)"/>
       </defs>
       <use xlink:href="#DejaVuSans-2212"/>
       <use x="83.789062" xlink:href="#DejaVuSans-32"/>
       <use x="147.412109" xlink:href="#DejaVuSans-30"/>
      </g>
     </g>
    </g>
    <g id="ytick_2">
     <g id="line2d_8">
      <g>
       <use style="stroke:#000000;stroke-width:0.8;" x="34.56" xlink:href="#mfa995108bd" y="82.8"/>
      </g>
     </g>
     <g id="text_8">
      <!-- 0 -->
      <g transform="translate(21.1975 86.599219)scale(0.1 -0.1)">
       <use xlink:href="#DejaVuSans-30"/>
      </g>
     </g>
    </g>
    <g id="ytick_3">
     <g id="line2d_9">
      <g>
       <use style="stroke:#000000;stroke-width:0.8;" x="34.56" xlink:href="#mfa995108bd" y="39.422261"/>
      </g>
     </g>
     <g id="text_9">
      <!-- 20 -->
      <g transform="translate(14.835 43.22148)scale(0.1 -0.1)">
       <use xlink:href="#DejaVuSans-32"/>
       <use x="63.623047" xlink:href="#DejaVuSans-30"/>
      </g>
     </g>
    </g>
   </g>
   <g id="line2d_10">
    <path clip-path="url(#p65a13211b5)" d="M 120.525829 83.301156 
L 122.436181 84.728619 
L 124.346533 86.846188 
L 125.301709 87.580394 
L 128.167236 91.80941 
L 129.122412 92.750633 
L 130.077588 94.027323 
L 131.032764 95.53178 
L 131.98794 97.509555 
L 132.943116 98.392474 
L 133.898291 98.328648 
L 134.853467 99.305182 
L 135.808643 99.193149 
L 136.763819 101.409205 
L 137.718995 102.886126 
L 138.674171 103.102456 
L 139.629347 104.078532 
L 140.584523 104.284902 
L 142.494874 104.072999 
L 143.45005 105.849872 
L 144.405226 104.740276 
L 145.360402 104.820613 
L 146.315578 104.449393 
L 148.22593 106.692453 
L 149.181106 108.006601 
L 150.136281 110.237782 
L 151.091457 110.024788 
L 152.046633 112.01137 
L 153.001809 112.374512 
L 153.956985 112.273322 
L 154.912161 112.634209 
L 156.822513 112.940549 
L 157.777688 112.873376 
L 158.732864 113.039811 
L 159.68804 114.809933 
L 160.643216 115.745917 
L 161.598392 115.029066 
L 162.553568 115.664824 
L 163.508744 117.029198 
L 165.419095 116.917601 
L 166.374271 116.471813 
L 167.329447 115.775194 
L 168.284623 116.20609 
L 169.239799 116.146942 
L 170.194975 105.703528 
L 171.150151 88.361536 
L 172.105327 80.954364 
L 174.015678 81.432232 
L 174.970854 79.662641 
L 175.92603 79.480262 
L 176.881206 77.958175 
L 177.836382 77.230523 
L 179.746734 76.380613 
L 180.70191 75.557874 
L 181.657085 76.374507 
L 182.612261 76.699586 
M 184.522613 75.088656 
L 186.432965 72.807423 
L 188.343317 71.668922 
L 189.298492 70.107257 
L 190.253668 69.151071 
L 191.208844 67.251883 
L 192.16402 64.952468 
L 193.119196 65.618789 
L 194.074372 66.456514 
L 195.029548 66.447081 
L 195.984724 66.110599 
L 196.939899 64.599311 
L 197.895075 64.739747 
L 198.850251 64.110706 
L 199.805427 66.240788 
L 200.760603 65.361512 
L 201.715779 63.271248 
L 202.670955 61.790054 
M 204.581307 62.770213 
L 205.536482 64.276157 
L 206.491658 63.56624 
L 207.446834 63.061065 
L 208.40201 62.984983 
L 209.357186 62.281851 
L 211.267538 63.198714 
L 212.222714 63.11289 
L 213.177889 63.505202 
L 214.133065 64.664727 
L 215.088241 64.780104 
L 216.043417 65.831951 
L 216.998593 67.90649 
L 217.953769 69.554095 
L 218.908945 69.129115 
L 219.864121 68.581444 
L 220.819296 69.849075 
L 221.774472 70.300064 
L 222.729648 70.12725 
L 223.684824 70.558479 
L 224.64 70.732707 
L 225.595176 72.210339 
L 226.550352 74.429412 
L 227.505528 77.524563 
L 228.460704 79.703942 
L 229.415879 80.637539 
L 230.371055 81.119783 
L 231.326231 81.100831 
L 232.281407 81.715817 
L 233.236583 81.921389 
L 235.146935 81.218485 
L 236.102111 82.525089 
L 237.057286 84.664635 
L 238.012462 85.837774 
L 238.967638 86.621399 
M 240.87799 87.232719 
L 241.833166 88.144913 
L 242.788342 87.80349 
L 243.743518 89.890085 
L 244.698693 90.093164 
L 246.609045 89.588305 
L 248.519397 90.04232 
L 249.474573 90.711169 
L 250.429749 92.133321 
L 251.384925 93.014807 
L 252.340101 92.87769 
L 253.295276 93.821128 
L 254.250452 94.932523 
L 255.205628 95.131034 
L 256.160804 95.725325 
L 257.11598 96.640369 
L 258.071156 98.772947 
L 259.026332 99.512753 
L 259.981508 98.85222 
M 261.891859 100.689744 
L 262.847035 102.213508 
L 263.802211 103.098295 
L 266.667739 103.917679 
L 267.622915 103.84575 
L 268.57809 104.499509 
L 270.488442 106.60034 
L 271.443618 107.028625 
L 272.398794 106.18449 
L 273.35397 104.845793 
L 274.309146 106.360945 
L 275.264322 106.326639 
L 276.219497 106.063147 
L 277.174673 105.538 
L 278.129849 103.97308 
L 279.085025 104.379193 
L 280.040201 102.815531 
L 280.995377 100.176148 
L 281.950553 99.47985 
L 282.905729 97.84447 
L 283.860905 96.789737 
L 284.81608 96.307887 
L 286.726432 96.305846 
L 287.681608 95.647528 
L 288.636784 95.47275 
L 289.59196 94.258132 
L 290.547136 92.437892 
L 291.502312 93.128034 
L 292.457487 93.350696 
L 293.412663 94.673249 
M 296.278191 93.640931 
L 297.233367 93.635729 
L 299.143719 92.396859 
L 300.098894 92.650224 
L 301.05407 91.074729 
L 302.009246 90.779255 
L 302.964422 90.778449 
L 303.919598 87.689504 
L 304.874774 85.757208 
L 305.82995 84.905042 
L 306.785126 83.261303 
L 308.695477 82.452025 
L 309.650653 81.37899 
L 310.605829 80.648017 
L 312.516181 78.7318 
L 313.471357 77.749389 
L 314.426533 77.387321 
L 315.381709 77.762027 
L 316.336884 77.938158 
L 317.29206 78.311388 
L 321.112764 81.894751 
L 322.06794 81.186355 
L 323.023116 81.647672 
L 323.978291 81.534886 
L 324.933467 82.338577 
L 325.888643 80.997312 
L 326.843819 82.262273 
L 327.798995 82.869746 
L 328.754171 82.8 
L 328.754171 82.8 
" style="fill:none;stroke:#1f77b4;stroke-linecap:square;stroke-width:1.5;"/>
   </g>
   <g id="line2d_11">
    <path clip-path="url(#p65a13211b5)" d="M 34.56 82.8 
L 414.72 82.8 
" style="fill:none;stroke:#000000;stroke-dasharray:1.5,2.475;stroke-dashoffset:0;stroke-width:1.5;"/>
   </g>
   <g id="patch_3">
    <path d="M 34.56 162 
L 34.56 3.6 
" style="fill:none;stroke:#000000;stroke-linecap:square;stroke-linejoin:miter;stroke-width:0.8;"/>
   </g>
   <g id="patch_4">
    <path d="M 414.72 162 
L 414.72 3.6 
" style="fill:none;stroke:#000000;stroke-linecap:square;stroke-linejoin:miter;stroke-width:0.8;"/>
   </g>
   <g id="patch_5">
    <path d="M 34.56 162 
L 414.72 162 
" style="fill:none;stroke:#000000;stroke-linecap:square;stroke-linejoin:miter;stroke-width:0.8;"/>
   </g>
   <g id="patch_6">
    <path d="M 34.56 3.6 
L 414.72 3.6 
" style="fill:none;stroke:#000000;stroke-linecap:square;stroke-linejoin:miter;stroke-width:0.8;"/>
   </g>
  </g>
 </g>
 <defs>
  <clipPath id="p65a13211b5">
   <rect height="158.4" width="380.16" x="34.56" y="3.6"/>
  </clipPath>
 </defs>
</svg>
