<?xml version="1.0" encoding="utf-8" standalone="no"?>
<!DOCTYPE svg PUBLIC "-//W3C//DTD SVG 1.1//EN"
  "http://www.w3.org/Graphics/SVG/1.1/DTD/svg11.dtd">
<svg height="180pt" version="1.1" viewBox="0 0 432 180" width="432pt" xmlns="http://www.w3.org/2000/svg" xmlns:xlink="http://www.w3.org/1999/xlink">
 <metadata>
  <rdf:RDF xmlns:cc="http://creativecommons.org/ns#" xmlns:dc="http://purl.org/dc/elements/1.1/" xmlns:rdf="http://www.w3.org/1999/02/22-rdf-syntax-ns#">
   <cc:Work>
    <dc:type rdf:resource="http://purl.org/dc/dcmitype/StillImage"/>
    <dc:date>2021-08-10T10:27:39.191826</dc:date>
    <dc:format>image/svg+xml</dc:format>
    <dc:creator>
     <cc:Agent>
      <dc:title>Matplotlib v3.4.2, https://matplotlib.org/</dc:title>
     </cc:Agent>
    </dc:creator>
   </cc:Work>
  </rdf:RDF>
 </metadata>
 <defs>
  <style type="text/css">*{stroke-linecap:butt;stroke-linejoin:round;}</style>
 </defs>
 <g id="figure_1">
  <g id="patch_1">
   <path d="M 0 180 
L 432 180 
L 432 0 
L 0 0 
z
" style="fill:#ffffff;"/>
  </g>
  <g id="axes_1">
   <g id="patch_2">
    <path d="M 34.56 162 
L 414.72 162 
L 414.72 3.6 
L 34.56 3.6 
z
" style="fill:#ffffff;"/>
   </g>
   <g id="PolyCollection_1">
    <defs>
     <path d="M 89.390769 -97.876486 
L 89.390769 -96.523514 
L 90 -95.851589 
L 90.609231 -95.182697 
L 91.218462 -94.516838 
L 91.827692 -93.854013 
L 92.436923 -93.194222 
L 93.046154 -92.537464 
L 93.655385 -91.88374 
L 94.264615 -91.233049 
L 94.873846 -90.585392 
L 95.483077 -89.940768 
L 96.092308 -89.299178 
L 96.701538 -88.660621 
L 97.310769 -88.025098 
L 97.92 -87.392608 
L 98.529231 -86.763152 
L 99.138462 -86.13673 
L 99.747692 -85.513341 
L 100.356923 -84.892985 
L 100.966154 -84.275663 
L 101.575385 -83.661374 
L 102.184615 -83.050119 
L 102.793846 -82.441898 
L 103.403077 -81.83671 
L 104.012308 -81.234556 
L 104.621538 -80.635435 
L 105.230769 -80.039347 
L 105.84 -79.446294 
L 106.449231 -78.856273 
L 107.058462 -78.269286 
L 107.667692 -77.685333 
L 108.276923 -77.104413 
L 108.886154 -76.526527 
L 109.495385 -75.951675 
L 110.104615 -75.379855 
L 110.713846 -74.81107 
L 111.323077 -74.245318 
L 111.932308 -73.682599 
L 112.541538 -73.122914 
L 113.150769 -72.566262 
L 113.76 -72.012644 
L 114.369231 -71.46206 
L 114.978462 -70.914509 
L 115.587692 -70.369991 
L 116.196923 -69.828507 
L 116.806154 -69.290057 
L 117.415385 -68.75464 
L 118.024615 -68.222257 
L 118.633846 -67.692907 
L 119.243077 -67.166591 
L 119.852308 -66.643308 
L 120.461538 -66.123059 
L 121.070769 -65.605843 
L 121.68 -65.091661 
L 122.289231 -64.580512 
L 122.898462 -64.072397 
L 123.507692 -63.567315 
L 124.116923 -63.065267 
L 124.726154 -62.566252 
L 125.335385 -62.070271 
L 125.944615 -61.577324 
L 126.553846 -61.08741 
L 127.163077 -60.600529 
L 127.772308 -60.116682 
L 128.381538 -59.635869 
L 128.990769 -59.158089 
L 129.6 -58.683342 
L 130.209231 -58.211629 
L 130.818462 -57.74295 
L 131.427692 -57.277304 
L 132.036923 -56.814692 
L 132.646154 -56.355113 
L 133.255385 -55.898568 
L 133.864615 -55.445056 
L 134.473846 -54.994578 
L 135.083077 -54.547133 
L 135.692308 -54.102722 
L 136.301538 -53.661344 
L 136.910769 -53.223 
L 137.52 -52.787689 
L 138.129231 -52.355412 
L 138.738462 -51.926169 
L 139.347692 -51.499959 
L 139.956923 -51.076782 
L 140.566154 -50.656639 
L 141.175385 -50.23953 
L 141.784615 -49.825454 
L 142.393846 -49.414411 
L 143.003077 -49.006402 
L 143.612308 -48.601427 
L 144.221538 -48.199485 
L 144.830769 -47.800577 
L 145.44 -47.404702 
L 146.049231 -47.011861 
L 146.658462 -46.622053 
L 147.267692 -46.235279 
L 147.876923 -45.851538 
L 148.486154 -45.470831 
L 149.095385 -45.093157 
L 149.704615 -44.718517 
L 150.313846 -44.34691 
L 150.923077 -43.978337 
L 151.532308 -43.612798 
L 152.141538 -43.250292 
L 152.750769 -42.890819 
L 153.36 -42.53438 
L 153.969231 -42.180974 
L 154.578462 -41.830603 
L 155.187692 -41.483264 
L 155.796923 -41.138959 
L 156.406154 -40.797688 
L 157.015385 -40.45945 
L 157.624615 -40.124246 
L 158.233846 -39.792075 
L 158.843077 -39.462937 
L 159.452308 -39.136834 
L 160.061538 -38.813763 
L 160.670769 -38.493727 
L 161.28 -38.176724 
L 161.889231 -37.862754 
L 162.498462 -37.551818 
L 163.107692 -37.243915 
L 163.716923 -36.939046 
L 164.326154 -36.63721 
L 164.935385 -36.338408 
L 165.544615 -36.04264 
L 166.153846 -35.749905 
L 166.763077 -35.460203 
L 167.372308 -35.173535 
L 167.981538 -34.889901 
L 168.590769 -34.6093 
L 169.2 -34.331733 
L 169.809231 -34.057199 
L 170.418462 -33.785698 
L 171.027692 -33.517231 
L 171.636923 -33.251798 
L 172.246154 -32.989398 
L 172.855385 -32.730032 
L 173.464615 -32.473699 
L 174.073846 -32.2204 
L 174.683077 -31.970134 
L 175.292308 -31.722902 
L 175.901538 -31.478704 
L 176.510769 -31.237539 
L 177.12 -30.999407 
L 177.729231 -30.764309 
L 178.338462 -30.532244 
L 178.947692 -30.303213 
L 179.556923 -30.077216 
L 180.166154 -29.854252 
L 180.775385 -29.634321 
L 181.384615 -29.417424 
L 181.993846 -29.203561 
L 182.603077 -28.992731 
L 183.212308 -28.784935 
L 183.821538 -28.580172 
L 184.430769 -28.378443 
L 185.04 -28.179747 
L 185.649231 -27.984085 
L 186.258462 -27.791456 
L 186.867692 -27.601861 
L 187.476923 -27.415299 
L 188.086154 -27.231771 
L 188.695385 -27.051276 
L 189.304615 -26.873815 
L 189.913846 -26.699387 
L 190.523077 -26.527993 
L 191.132308 -26.359633 
L 191.741538 -26.194306 
L 192.350769 -26.032012 
L 192.96 -25.872752 
L 193.569231 -25.716526 
L 194.178462 -25.563333 
L 194.787692 -25.413174 
L 195.396923 -25.266048 
L 196.006154 -25.121955 
L 196.615385 -24.980896 
L 197.224615 -24.842871 
L 197.833846 -24.707879 
L 198.443077 -24.575921 
L 199.052308 -24.446996 
L 199.661538 -24.321105 
L 200.270769 -24.198247 
L 200.88 -24.078423 
L 201.489231 -23.961633 
L 202.098462 -23.847875 
L 202.707692 -23.737152 
L 203.316923 -23.629462 
L 203.926154 -23.524805 
L 204.535385 -23.423182 
L 205.144615 -23.324593 
L 205.753846 -23.229037 
L 206.363077 -23.136514 
L 206.972308 -23.047025 
L 207.581538 -22.96057 
L 208.190769 -22.877148 
L 208.8 -22.79676 
L 209.409231 -22.719405 
L 210.018462 -22.645083 
L 210.627692 -22.573796 
L 211.236923 -22.505541 
L 211.846154 -22.44032 
L 212.455385 -22.378133 
L 213.064615 -22.31898 
L 213.673846 -22.262859 
L 214.283077 -22.209773 
L 214.892308 -22.15972 
L 215.501538 -22.1127 
L 216.110769 -22.068714 
L 216.72 -22.027761 
L 217.329231 -21.989842 
L 217.938462 -21.954957 
L 218.547692 -21.923105 
L 219.156923 -21.894286 
L 219.766154 -21.868501 
L 220.375385 -21.84575 
L 220.984615 -21.826032 
L 221.593846 -21.809348 
L 222.203077 -21.795697 
L 222.812308 -21.785079 
L 223.421538 -21.777496 
L 224.030769 -21.772945 
L 224.64 -21.771429 
L 225.249231 -21.772945 
L 225.858462 -21.777496 
L 226.467692 -21.785079 
L 227.076923 -21.795697 
L 227.686154 -21.809348 
L 228.295385 -21.826032 
L 228.904615 -21.84575 
L 229.513846 -21.868501 
L 230.123077 -21.894286 
L 230.732308 -21.923105 
L 231.341538 -21.954957 
L 231.950769 -21.989842 
L 232.56 -22.027761 
L 233.169231 -22.068714 
L 233.778462 -22.1127 
L 234.387692 -22.15972 
L 234.996923 -22.209773 
L 235.606154 -22.262859 
L 236.215385 -22.31898 
L 236.824615 -22.378133 
L 237.433846 -22.44032 
L 238.043077 -22.505541 
L 238.652308 -22.573796 
L 239.261538 -22.645083 
L 239.870769 -22.719405 
L 240.48 -22.79676 
L 241.089231 -22.877148 
L 241.698462 -22.96057 
L 242.307692 -23.047025 
L 242.916923 -23.136514 
L 243.526154 -23.229037 
L 244.135385 -23.324593 
L 244.744615 -23.423182 
L 245.353846 -23.524805 
L 245.963077 -23.629462 
L 246.572308 -23.737152 
L 247.181538 -23.847875 
L 247.790769 -23.961633 
L 248.4 -24.078423 
L 249.009231 -24.198247 
L 249.618462 -24.321105 
L 250.227692 -24.446996 
L 250.836923 -24.575921 
L 251.446154 -24.707879 
L 252.055385 -24.842871 
L 252.664615 -24.980896 
L 253.273846 -25.121955 
L 253.883077 -25.266048 
L 254.492308 -25.413174 
L 255.101538 -25.563333 
L 255.710769 -25.716526 
L 256.32 -25.872752 
L 256.929231 -26.032012 
L 257.538462 -26.194306 
L 258.147692 -26.359633 
L 258.756923 -26.527993 
L 259.366154 -26.699387 
L 259.975385 -26.873815 
L 260.584615 -27.051276 
L 261.193846 -27.231771 
L 261.803077 -27.415299 
L 262.412308 -27.601861 
L 263.021538 -27.791456 
L 263.630769 -27.984085 
L 264.24 -28.179747 
L 264.849231 -28.378443 
L 265.458462 -28.580172 
L 266.067692 -28.784935 
L 266.676923 -28.992731 
L 267.286154 -29.203561 
L 267.895385 -29.417424 
L 268.504615 -29.634321 
L 269.113846 -29.854252 
L 269.723077 -30.077216 
L 270.332308 -30.303213 
L 270.941538 -30.532244 
L 271.550769 -30.764309 
L 272.16 -30.999407 
L 272.769231 -31.237539 
L 273.378462 -31.478704 
L 273.987692 -31.722902 
L 274.596923 -31.970134 
L 275.206154 -32.2204 
L 275.815385 -32.473699 
L 276.424615 -32.730032 
L 277.033846 -32.989398 
L 277.643077 -33.251798 
L 278.252308 -33.517231 
L 278.861538 -33.785698 
L 279.470769 -34.057199 
L 280.08 -34.331733 
L 280.689231 -34.6093 
L 281.298462 -34.889901 
L 281.907692 -35.173535 
L 282.516923 -35.460203 
L 283.126154 -35.749905 
L 283.735385 -36.04264 
L 284.344615 -36.338408 
L 284.953846 -36.63721 
L 285.563077 -36.939046 
L 286.172308 -37.243915 
L 286.781538 -37.551818 
L 287.390769 -37.862754 
L 288 -38.176724 
L 288.609231 -38.493727 
L 289.218462 -38.813763 
L 289.827692 -39.136834 
L 290.436923 -39.462937 
L 291.046154 -39.792075 
L 291.655385 -40.124246 
L 292.264615 -40.45945 
L 292.873846 -40.797688 
L 293.483077 -41.138959 
L 294.092308 -41.483264 
L 294.701538 -41.830603 
L 295.310769 -42.180974 
L 295.92 -42.53438 
L 296.529231 -42.890819 
L 297.138462 -43.250292 
L 297.747692 -43.612798 
L 298.356923 -43.978337 
L 298.966154 -44.34691 
L 299.575385 -44.718517 
L 300.184615 -45.093157 
L 300.793846 -45.470831 
L 301.403077 -45.851538 
L 302.012308 -46.235279 
L 302.621538 -46.622053 
L 303.230769 -47.011861 
L 303.84 -47.404702 
L 304.449231 -47.800577 
L 305.058462 -48.199485 
L 305.667692 -48.601427 
L 306.276923 -49.006402 
L 306.886154 -49.414411 
L 307.495385 -49.825454 
L 308.104615 -50.23953 
L 308.713846 -50.656639 
L 309.323077 -51.076782 
L 309.932308 -51.499959 
L 310.541538 -51.926169 
L 311.150769 -52.355412 
L 311.76 -52.787689 
L 312.369231 -53.223 
L 312.978462 -53.661344 
L 313.587692 -54.102722 
L 314.196923 -54.547133 
L 314.806154 -54.994578 
L 315.415385 -55.445056 
L 316.024615 -55.898568 
L 316.633846 -56.355113 
L 317.243077 -56.814692 
L 317.852308 -57.277304 
L 318.461538 -57.74295 
L 319.070769 -58.211629 
L 319.68 -58.683342 
L 320.289231 -59.158089 
L 320.898462 -59.635869 
L 321.507692 -60.116682 
L 322.116923 -60.600529 
L 322.726154 -61.08741 
L 323.335385 -61.577324 
L 323.944615 -62.070271 
L 324.553846 -62.566252 
L 325.163077 -63.065267 
L 325.772308 -63.567315 
L 326.381538 -64.072397 
L 326.990769 -64.580512 
L 327.6 -65.091661 
L 328.209231 -65.605843 
L 328.818462 -66.123059 
L 329.427692 -66.643308 
L 330.036923 -67.166591 
L 330.646154 -67.692907 
L 331.255385 -68.222257 
L 331.864615 -68.75464 
L 332.473846 -69.290057 
L 333.083077 -69.828507 
L 333.692308 -70.369991 
L 334.301538 -70.914509 
L 334.910769 -71.46206 
L 335.52 -72.012644 
L 336.129231 -72.566262 
L 336.738462 -73.122914 
L 337.347692 -73.682599 
L 337.956923 -74.245318 
L 338.566154 -74.81107 
L 339.175385 -75.379855 
L 339.784615 -75.951675 
L 340.393846 -76.526527 
L 341.003077 -77.104413 
L 341.612308 -77.685333 
L 342.221538 -78.269286 
L 342.830769 -78.856273 
L 343.44 -79.446294 
L 344.049231 -80.039347 
L 344.658462 -80.635435 
L 345.267692 -81.234556 
L 345.876923 -81.83671 
L 346.486154 -82.441898 
L 347.095385 -83.050119 
L 347.704615 -83.661374 
L 348.313846 -84.275663 
L 348.923077 -84.892985 
L 349.532308 -85.513341 
L 350.141538 -86.13673 
L 350.750769 -86.763152 
L 351.36 -87.392608 
L 351.969231 -88.025098 
L 352.578462 -88.660621 
L 353.187692 -89.299178 
L 353.796923 -89.940768 
L 354.406154 -90.585392 
L 355.015385 -91.233049 
L 355.624615 -91.88374 
L 356.233846 -92.537464 
L 356.843077 -93.194222 
L 357.452308 -93.854013 
L 358.061538 -94.516838 
L 358.670769 -95.182697 
L 359.28 -95.851589 
L 359.889231 -96.523514 
L 359.889231 -97.876486 
L 359.889231 -97.876486 
L 359.28 -98.548411 
L 358.670769 -99.217303 
L 358.061538 -99.883162 
L 357.452308 -100.545987 
L 356.843077 -101.205778 
L 356.233846 -101.862536 
L 355.624615 -102.51626 
L 355.015385 -103.166951 
L 354.406154 -103.814608 
L 353.796923 -104.459232 
L 353.187692 -105.100822 
L 352.578462 -105.739379 
L 351.969231 -106.374902 
L 351.36 -107.007392 
L 350.750769 -107.636848 
L 350.141538 -108.26327 
L 349.532308 -108.886659 
L 348.923077 -109.507015 
L 348.313846 -110.124337 
L 347.704615 -110.738626 
L 347.095385 -111.349881 
L 346.486154 -111.958102 
L 345.876923 -112.56329 
L 345.267692 -113.165444 
L 344.658462 -113.764565 
L 344.049231 -114.360653 
L 343.44 -114.953706 
L 342.830769 -115.543727 
L 342.221538 -116.130714 
L 341.612308 -116.714667 
L 341.003077 -117.295587 
L 340.393846 -117.873473 
L 339.784615 -118.448325 
L 339.175385 -119.020145 
L 338.566154 -119.58893 
L 337.956923 -120.154682 
L 337.347692 -120.717401 
L 336.738462 -121.277086 
L 336.129231 -121.833738 
L 335.52 -122.387356 
L 334.910769 -122.93794 
L 334.301538 -123.485491 
L 333.692308 -124.030009 
L 333.083077 -124.571493 
L 332.473846 -125.109943 
L 331.864615 -125.64536 
L 331.255385 -126.177743 
L 330.646154 -126.707093 
L 330.036923 -127.233409 
L 329.427692 -127.756692 
L 328.818462 -128.276941 
L 328.209231 -128.794157 
L 327.6 -129.308339 
L 326.990769 -129.819488 
L 326.381538 -130.327603 
L 325.772308 -130.832685 
L 325.163077 -131.334733 
L 324.553846 -131.833748 
L 323.944615 -132.329729 
L 323.335385 -132.822676 
L 322.726154 -133.31259 
L 322.116923 -133.799471 
L 321.507692 -134.283318 
L 320.898462 -134.764131 
L 320.289231 -135.241911 
L 319.68 -135.716658 
L 319.070769 -136.188371 
L 318.461538 -136.65705 
L 317.852308 -137.122696 
L 317.243077 -137.585308 
L 316.633846 -138.044887 
L 316.024615 -138.501432 
L 315.415385 -138.954944 
L 314.806154 -139.405422 
L 314.196923 -139.852867 
L 313.587692 -140.297278 
L 312.978462 -140.738656 
L 312.369231 -141.177 
L 311.76 -141.612311 
L 311.150769 -142.044588 
L 310.541538 -142.473831 
L 309.932308 -142.900041 
L 309.323077 -143.323218 
L 308.713846 -143.743361 
L 308.104615 -144.16047 
L 307.495385 -144.574546 
L 306.886154 -144.985589 
L 306.276923 -145.393598 
L 305.667692 -145.798573 
L 305.058462 -146.200515 
L 304.449231 -146.599423 
L 303.84 -146.995298 
L 303.230769 -147.388139 
L 302.621538 -147.777947 
L 302.012308 -148.164721 
L 301.403077 -148.548462 
L 300.793846 -148.929169 
L 300.184615 -149.306843 
L 299.575385 -149.681483 
L 298.966154 -150.05309 
L 298.356923 -150.421663 
L 297.747692 -150.787202 
L 297.138462 -151.149708 
L 296.529231 -151.509181 
L 295.92 -151.86562 
L 295.310769 -152.219026 
L 294.701538 -152.569397 
L 294.092308 -152.916736 
L 293.483077 -153.261041 
L 292.873846 -153.602312 
L 292.264615 -153.94055 
L 291.655385 -154.275754 
L 291.046154 -154.607925 
L 290.436923 -154.937063 
L 289.827692 -155.263166 
L 289.218462 -155.586237 
L 288.609231 -155.906273 
L 288 -156.223276 
L 287.390769 -156.537246 
L 286.781538 -156.848182 
L 286.172308 -157.156085 
L 285.563077 -157.460954 
L 284.953846 -157.76279 
L 284.344615 -158.061592 
L 283.735385 -158.35736 
L 283.126154 -158.650095 
L 282.516923 -158.939797 
L 281.907692 -159.226465 
L 281.298462 -159.510099 
L 280.689231 -159.7907 
L 280.08 -160.068267 
L 279.470769 -160.342801 
L 278.861538 -160.614302 
L 278.252308 -160.882769 
L 277.643077 -161.148202 
L 277.033846 -161.410602 
L 276.424615 -161.669968 
L 275.815385 -161.926301 
L 275.206154 -162.1796 
L 274.596923 -162.429866 
L 273.987692 -162.677098 
L 273.378462 -162.921296 
L 272.769231 -163.162461 
L 272.16 -163.400593 
L 271.550769 -163.635691 
L 270.941538 -163.867756 
L 270.332308 -164.096787 
L 269.723077 -164.322784 
L 269.113846 -164.545748 
L 268.504615 -164.765679 
L 267.895385 -164.982576 
L 267.286154 -165.196439 
L 266.676923 -165.407269 
L 266.067692 -165.615065 
L 265.458462 -165.819828 
L 264.849231 -166.021557 
L 264.24 -166.220253 
L 263.630769 -166.415915 
L 263.021538 -166.608544 
L 262.412308 -166.798139 
L 261.803077 -166.984701 
L 261.193846 -167.168229 
L 260.584615 -167.348724 
L 259.975385 -167.526185 
L 259.366154 -167.700613 
L 258.756923 -167.872007 
L 258.147692 -168.040367 
L 257.538462 -168.205694 
L 256.929231 -168.367988 
L 256.32 -168.527248 
L 255.710769 -168.683474 
L 255.101538 -168.836667 
L 254.492308 -168.986826 
L 253.883077 -169.133952 
L 253.273846 -169.278045 
L 252.664615 -169.419104 
L 252.055385 -169.557129 
L 251.446154 -169.692121 
L 250.836923 -169.824079 
L 250.227692 -169.953004 
L 249.618462 -170.078895 
L 249.009231 -170.201753 
L 248.4 -170.321577 
L 247.790769 -170.438367 
L 247.181538 -170.552125 
L 246.572308 -170.662848 
L 245.963077 -170.770538 
L 245.353846 -170.875195 
L 244.744615 -170.976818 
L 244.135385 -171.075407 
L 243.526154 -171.170963 
L 242.916923 -171.263486 
L 242.307692 -171.352975 
L 241.698462 -171.43943 
L 241.089231 -171.522852 
L 240.48 -171.60324 
L 239.870769 -171.680595 
L 239.261538 -171.754917 
L 238.652308 -171.826204 
L 238.043077 -171.894459 
L 237.433846 -171.95968 
L 236.824615 -172.021867 
L 236.215385 -172.08102 
L 235.606154 -172.137141 
L 234.996923 -172.190227 
L 234.387692 -172.24028 
L 233.778462 -172.2873 
L 233.169231 -172.331286 
L 232.56 -172.372239 
L 231.950769 -172.410158 
L 231.341538 -172.445043 
L 230.732308 -172.476895 
L 230.123077 -172.505714 
L 229.513846 -172.531499 
L 228.904615 -172.55425 
L 228.295385 -172.573968 
L 227.686154 -172.590652 
L 227.076923 -172.604303 
L 226.467692 -172.614921 
L 225.858462 -172.622504 
L 225.249231 -172.627055 
L 224.64 -172.628571 
L 224.030769 -172.627055 
L 223.421538 -172.622504 
L 222.812308 -172.614921 
L 222.203077 -172.604303 
L 221.593846 -172.590652 
L 220.984615 -172.573968 
L 220.375385 -172.55425 
L 219.766154 -172.531499 
L 219.156923 -172.505714 
L 218.547692 -172.476895 
L 217.938462 -172.445043 
L 217.329231 -172.410158 
L 216.72 -172.372239 
L 216.110769 -172.331286 
L 215.501538 -172.2873 
L 214.892308 -172.24028 
L 214.283077 -172.190227 
L 213.673846 -172.137141 
L 213.064615 -172.08102 
L 212.455385 -172.021867 
L 211.846154 -171.95968 
L 211.236923 -171.894459 
L 210.627692 -171.826204 
L 210.018462 -171.754917 
L 209.409231 -171.680595 
L 208.8 -171.60324 
L 208.190769 -171.522852 
L 207.581538 -171.43943 
L 206.972308 -171.352975 
L 206.363077 -171.263486 
L 205.753846 -171.170963 
L 205.144615 -171.075407 
L 204.535385 -170.976818 
L 203.926154 -170.875195 
L 203.316923 -170.770538 
L 202.707692 -170.662848 
L 202.098462 -170.552125 
L 201.489231 -170.438367 
L 200.88 -170.321577 
L 200.270769 -170.201753 
L 199.661538 -170.078895 
L 199.052308 -169.953004 
L 198.443077 -169.824079 
L 197.833846 -169.692121 
L 197.224615 -169.557129 
L 196.615385 -169.419104 
L 196.006154 -169.278045 
L 195.396923 -169.133952 
L 194.787692 -168.986826 
L 194.178462 -168.836667 
L 193.569231 -168.683474 
L 192.96 -168.527248 
L 192.350769 -168.367988 
L 191.741538 -168.205694 
L 191.132308 -168.040367 
L 190.523077 -167.872007 
L 189.913846 -167.700613 
L 189.304615 -167.526185 
L 188.695385 -167.348724 
L 188.086154 -167.168229 
L 187.476923 -166.984701 
L 186.867692 -166.798139 
L 186.258462 -166.608544 
L 185.649231 -166.415915 
L 185.04 -166.220253 
L 184.430769 -166.021557 
L 183.821538 -165.819828 
L 183.212308 -165.615065 
L 182.603077 -165.407269 
L 181.993846 -165.196439 
L 181.384615 -164.982576 
L 180.775385 -164.765679 
L 180.166154 -164.545748 
L 179.556923 -164.322784 
L 178.947692 -164.096787 
L 178.338462 -163.867756 
L 177.729231 -163.635691 
L 177.12 -163.400593 
L 176.510769 -163.162461 
L 175.901538 -162.921296 
L 175.292308 -162.677098 
L 174.683077 -162.429866 
L 174.073846 -162.1796 
L 173.464615 -161.926301 
L 172.855385 -161.669968 
L 172.246154 -161.410602 
L 171.636923 -161.148202 
L 171.027692 -160.882769 
L 170.418462 -160.614302 
L 169.809231 -160.342801 
L 169.2 -160.068267 
L 168.590769 -159.7907 
L 167.981538 -159.510099 
L 167.372308 -159.226465 
L 166.763077 -158.939797 
L 166.153846 -158.650095 
L 165.544615 -158.35736 
L 164.935385 -158.061592 
L 164.326154 -157.76279 
L 163.716923 -157.460954 
L 163.107692 -157.156085 
L 162.498462 -156.848182 
L 161.889231 -156.537246 
L 161.28 -156.223276 
L 160.670769 -155.906273 
L 160.061538 -155.586237 
L 159.452308 -155.263166 
L 158.843077 -154.937063 
L 158.233846 -154.607925 
L 157.624615 -154.275754 
L 157.015385 -153.94055 
L 156.406154 -153.602312 
L 155.796923 -153.261041 
L 155.187692 -152.916736 
L 154.578462 -152.569397 
L 153.969231 -152.219026 
L 153.36 -151.86562 
L 152.750769 -151.509181 
L 152.141538 -151.149708 
L 151.532308 -150.787202 
L 150.923077 -150.421663 
L 150.313846 -150.05309 
L 149.704615 -149.681483 
L 149.095385 -149.306843 
L 148.486154 -148.929169 
L 147.876923 -148.548462 
L 147.267692 -148.164721 
L 146.658462 -147.777947 
L 146.049231 -147.388139 
L 145.44 -146.995298 
L 144.830769 -146.599423 
L 144.221538 -146.200515 
L 143.612308 -145.798573 
L 143.003077 -145.393598 
L 142.393846 -144.985589 
L 141.784615 -144.574546 
L 141.175385 -144.16047 
L 140.566154 -143.743361 
L 139.956923 -143.323218 
L 139.347692 -142.900041 
L 138.738462 -142.473831 
L 138.129231 -142.044588 
L 137.52 -141.612311 
L 136.910769 -141.177 
L 136.301538 -140.738656 
L 135.692308 -140.297278 
L 135.083077 -139.852867 
L 134.473846 -139.405422 
L 133.864615 -138.954944 
L 133.255385 -138.501432 
L 132.646154 -138.044887 
L 132.036923 -137.585308 
L 131.427692 -137.122696 
L 130.818462 -136.65705 
L 130.209231 -136.188371 
L 129.6 -135.716658 
L 128.990769 -135.241911 
L 128.381538 -134.764131 
L 127.772308 -134.283318 
L 127.163077 -133.799471 
L 126.553846 -133.31259 
L 125.944615 -132.822676 
L 125.335385 -132.329729 
L 124.726154 -131.833748 
L 124.116923 -131.334733 
L 123.507692 -130.832685 
L 122.898462 -130.327603 
L 122.289231 -129.819488 
L 121.68 -129.308339 
L 121.070769 -128.794157 
L 120.461538 -128.276941 
L 119.852308 -127.756692 
L 119.243077 -127.233409 
L 118.633846 -126.707093 
L 118.024615 -126.177743 
L 117.415385 -125.64536 
L 116.806154 -125.109943 
L 116.196923 -124.571493 
L 115.587692 -124.030009 
L 114.978462 -123.485491 
L 114.369231 -122.93794 
L 113.76 -122.387356 
L 113.150769 -121.833738 
L 112.541538 -121.277086 
L 111.932308 -120.717401 
L 111.323077 -120.154682 
L 110.713846 -119.58893 
L 110.104615 -119.020145 
L 109.495385 -118.448325 
L 108.886154 -117.873473 
L 108.276923 -117.295587 
L 107.667692 -116.714667 
L 107.058462 -116.130714 
L 106.449231 -115.543727 
L 105.84 -114.953706 
L 105.230769 -114.360653 
L 104.621538 -113.764565 
L 104.012308 -113.165444 
L 103.403077 -112.56329 
L 102.793846 -111.958102 
L 102.184615 -111.349881 
L 101.575385 -110.738626 
L 100.966154 -110.124337 
L 100.356923 -109.507015 
L 99.747692 -108.886659 
L 99.138462 -108.26327 
L 98.529231 -107.636848 
L 97.92 -107.007392 
L 97.310769 -106.374902 
L 96.701538 -105.739379 
L 96.092308 -105.100822 
L 95.483077 -104.459232 
L 94.873846 -103.814608 
L 94.264615 -103.166951 
L 93.655385 -102.51626 
L 93.046154 -101.862536 
L 92.436923 -101.205778 
L 91.827692 -100.545987 
L 91.218462 -99.883162 
L 90.609231 -99.217303 
L 90 -98.548411 
L 89.390769 -97.876486 
z
" id="m8d3c208ed4" style="stroke:#0000ff;stroke-opacity:0.1;"/>
    </defs>
    <g clip-path="url(#p91db4bff15)">
     <use style="fill:#0000ff;fill-opacity:0.1;stroke:#0000ff;stroke-opacity:0.1;" x="0" xlink:href="#m8d3c208ed4" y="180"/>
    </g>
   </g>
   <g id="matplotlib.axis_1">
    <g id="xtick_1">
     <g id="line2d_1">
      <defs>
       <path d="M 0 0 
L 0 3.5 
" id="mc5a1949a41" style="stroke:#000000;stroke-width:0.8;"/>
      </defs>
      <g>
       <use style="stroke:#000000;stroke-width:0.8;" x="81.775385" xlink:href="#mc5a1949a41" y="162"/>
      </g>
     </g>
     <g id="text_1">
      <!-- 1960 -->
      <g transform="translate(69.050385 176.598438)scale(0.1 -0.1)">
       <defs>
        <path d="M 794 531 
L 1825 531 
L 1825 4091 
L 703 3866 
L 703 4441 
L 1819 4666 
L 2450 4666 
L 2450 531 
L 3481 531 
L 3481 0 
L 794 0 
L 794 531 
z
" id="DejaVuSans-31" transform="scale(0.015625)"/>
        <path d="M 703 97 
L 703 672 
Q 941 559 1184 500 
Q 1428 441 1663 441 
Q 2288 441 2617 861 
Q 2947 1281 2994 2138 
Q 2813 1869 2534 1725 
Q 2256 1581 1919 1581 
Q 1219 1581 811 2004 
Q 403 2428 403 3163 
Q 403 3881 828 4315 
Q 1253 4750 1959 4750 
Q 2769 4750 3195 4129 
Q 3622 3509 3622 2328 
Q 3622 1225 3098 567 
Q 2575 -91 1691 -91 
Q 1453 -91 1209 -44 
Q 966 3 703 97 
z
M 1959 2075 
Q 2384 2075 2632 2365 
Q 2881 2656 2881 3163 
Q 2881 3666 2632 3958 
Q 2384 4250 1959 4250 
Q 1534 4250 1286 3958 
Q 1038 3666 1038 3163 
Q 1038 2656 1286 2365 
Q 1534 2075 1959 2075 
z
" id="DejaVuSans-39" transform="scale(0.015625)"/>
        <path d="M 2113 2584 
Q 1688 2584 1439 2293 
Q 1191 2003 1191 1497 
Q 1191 994 1439 701 
Q 1688 409 2113 409 
Q 2538 409 2786 701 
Q 3034 994 3034 1497 
Q 3034 2003 2786 2293 
Q 2538 2584 2113 2584 
z
M 3366 4563 
L 3366 3988 
Q 3128 4100 2886 4159 
Q 2644 4219 2406 4219 
Q 1781 4219 1451 3797 
Q 1122 3375 1075 2522 
Q 1259 2794 1537 2939 
Q 1816 3084 2150 3084 
Q 2853 3084 3261 2657 
Q 3669 2231 3669 1497 
Q 3669 778 3244 343 
Q 2819 -91 2113 -91 
Q 1303 -91 875 529 
Q 447 1150 447 2328 
Q 447 3434 972 4092 
Q 1497 4750 2381 4750 
Q 2619 4750 2861 4703 
Q 3103 4656 3366 4563 
z
" id="DejaVuSans-36" transform="scale(0.015625)"/>
        <path d="M 2034 4250 
Q 1547 4250 1301 3770 
Q 1056 3291 1056 2328 
Q 1056 1369 1301 889 
Q 1547 409 2034 409 
Q 2525 409 2770 889 
Q 3016 1369 3016 2328 
Q 3016 3291 2770 3770 
Q 2525 4250 2034 4250 
z
M 2034 4750 
Q 2819 4750 3233 4129 
Q 3647 3509 3647 2328 
Q 3647 1150 3233 529 
Q 2819 -91 2034 -91 
Q 1250 -91 836 529 
Q 422 1150 422 2328 
Q 422 3509 836 4129 
Q 1250 4750 2034 4750 
z
" id="DejaVuSans-30" transform="scale(0.015625)"/>
       </defs>
       <use xlink:href="#DejaVuSans-31"/>
       <use x="63.623047" xlink:href="#DejaVuSans-39"/>
       <use x="127.246094" xlink:href="#DejaVuSans-36"/>
       <use x="190.869141" xlink:href="#DejaVuSans-30"/>
      </g>
     </g>
    </g>
    <g id="xtick_2">
     <g id="line2d_2">
      <g>
       <use style="stroke:#000000;stroke-width:0.8;" x="154.883077" xlink:href="#mc5a1949a41" y="162"/>
      </g>
     </g>
     <g id="text_2">
      <!-- 1970 -->
      <g transform="translate(142.158077 176.598438)scale(0.1 -0.1)">
       <defs>
        <path d="M 525 4666 
L 3525 4666 
L 3525 4397 
L 1831 0 
L 1172 0 
L 2766 4134 
L 525 4134 
L 525 4666 
z
" id="DejaVuSans-37" transform="scale(0.015625)"/>
       </defs>
       <use xlink:href="#DejaVuSans-31"/>
       <use x="63.623047" xlink:href="#DejaVuSans-39"/>
       <use x="127.246094" xlink:href="#DejaVuSans-37"/>
       <use x="190.869141" xlink:href="#DejaVuSans-30"/>
      </g>
     </g>
    </g>
    <g id="xtick_3">
     <g id="line2d_3">
      <g>
       <use style="stroke:#000000;stroke-width:0.8;" x="227.990769" xlink:href="#mc5a1949a41" y="162"/>
      </g>
     </g>
     <g id="text_3">
      <!-- 1980 -->
      <g transform="translate(215.265769 176.598438)scale(0.1 -0.1)">
       <defs>
        <path d="M 2034 2216 
Q 1584 2216 1326 1975 
Q 1069 1734 1069 1313 
Q 1069 891 1326 650 
Q 1584 409 2034 409 
Q 2484 409 2743 651 
Q 3003 894 3003 1313 
Q 3003 1734 2745 1975 
Q 2488 2216 2034 2216 
z
M 1403 2484 
Q 997 2584 770 2862 
Q 544 3141 544 3541 
Q 544 4100 942 4425 
Q 1341 4750 2034 4750 
Q 2731 4750 3128 4425 
Q 3525 4100 3525 3541 
Q 3525 3141 3298 2862 
Q 3072 2584 2669 2484 
Q 3125 2378 3379 2068 
Q 3634 1759 3634 1313 
Q 3634 634 3220 271 
Q 2806 -91 2034 -91 
Q 1263 -91 848 271 
Q 434 634 434 1313 
Q 434 1759 690 2068 
Q 947 2378 1403 2484 
z
M 1172 3481 
Q 1172 3119 1398 2916 
Q 1625 2713 2034 2713 
Q 2441 2713 2670 2916 
Q 2900 3119 2900 3481 
Q 2900 3844 2670 4047 
Q 2441 4250 2034 4250 
Q 1625 4250 1398 4047 
Q 1172 3844 1172 3481 
z
" id="DejaVuSans-38" transform="scale(0.015625)"/>
       </defs>
       <use xlink:href="#DejaVuSans-31"/>
       <use x="63.623047" xlink:href="#DejaVuSans-39"/>
       <use x="127.246094" xlink:href="#DejaVuSans-38"/>
       <use x="190.869141" xlink:href="#DejaVuSans-30"/>
      </g>
     </g>
    </g>
    <g id="xtick_4">
     <g id="line2d_4">
      <g>
       <use style="stroke:#000000;stroke-width:0.8;" x="301.098462" xlink:href="#mc5a1949a41" y="162"/>
      </g>
     </g>
     <g id="text_4">
      <!-- 1990 -->
      <g transform="translate(288.373462 176.598438)scale(0.1 -0.1)">
       <use xlink:href="#DejaVuSans-31"/>
       <use x="63.623047" xlink:href="#DejaVuSans-39"/>
       <use x="127.246094" xlink:href="#DejaVuSans-39"/>
       <use x="190.869141" xlink:href="#DejaVuSans-30"/>
      </g>
     </g>
    </g>
    <g id="xtick_5">
     <g id="line2d_5">
      <g>
       <use style="stroke:#000000;stroke-width:0.8;" x="374.206154" xlink:href="#mc5a1949a41" y="162"/>
      </g>
     </g>
     <g id="text_5">
      <!-- 2000 -->
      <g transform="translate(361.481154 176.598438)scale(0.1 -0.1)">
       <defs>
        <path d="M 1228 531 
L 3431 531 
L 3431 0 
L 469 0 
L 469 531 
Q 828 903 1448 1529 
Q 2069 2156 2228 2338 
Q 2531 2678 2651 2914 
Q 2772 3150 2772 3378 
Q 2772 3750 2511 3984 
Q 2250 4219 1831 4219 
Q 1534 4219 1204 4116 
Q 875 4013 500 3803 
L 500 4441 
Q 881 4594 1212 4672 
Q 1544 4750 1819 4750 
Q 2544 4750 2975 4387 
Q 3406 4025 3406 3419 
Q 3406 3131 3298 2873 
Q 3191 2616 2906 2266 
Q 2828 2175 2409 1742 
Q 1991 1309 1228 531 
z
" id="DejaVuSans-32" transform="scale(0.015625)"/>
       </defs>
       <use xlink:href="#DejaVuSans-32"/>
       <use x="63.623047" xlink:href="#DejaVuSans-30"/>
       <use x="127.246094" xlink:href="#DejaVuSans-30"/>
       <use x="190.869141" xlink:href="#DejaVuSans-30"/>
      </g>
     </g>
    </g>
   </g>
   <g id="matplotlib.axis_2">
    <g id="ytick_1">
     <g id="line2d_6">
      <defs>
       <path d="M 0 0 
L -3.5 0 
" id="m433371494d" style="stroke:#000000;stroke-width:0.8;"/>
      </defs>
      <g>
       <use style="stroke:#000000;stroke-width:0.8;" x="34.56" xlink:href="#m433371494d" y="156.553095"/>
      </g>
     </g>
     <g id="text_6">
      <!-- −60 -->
      <g transform="translate(6.455313 160.352314)scale(0.1 -0.1)">
       <defs>
        <path d="M 678 2272 
L 4684 2272 
L 4684 1741 
L 678 1741 
L 678 2272 
z
" id="DejaVuSans-2212" transform="scale(0.015625)"/>
       </defs>
       <use xlink:href="#DejaVuSans-2212"/>
       <use x="83.789062" xlink:href="#DejaVuSans-36"/>
       <use x="147.412109" xlink:href="#DejaVuSans-30"/>
      </g>
     </g>
    </g>
    <g id="ytick_2">
     <g id="line2d_7">
      <g>
       <use style="stroke:#000000;stroke-width:0.8;" x="34.56" xlink:href="#m433371494d" y="131.96873"/>
      </g>
     </g>
     <g id="text_7">
      <!-- −40 -->
      <g transform="translate(6.455313 135.767949)scale(0.1 -0.1)">
       <defs>
        <path d="M 2419 4116 
L 825 1625 
L 2419 1625 
L 2419 4116 
z
M 2253 4666 
L 3047 4666 
L 3047 1625 
L 3713 1625 
L 3713 1100 
L 3047 1100 
L 3047 0 
L 2419 0 
L 2419 1100 
L 313 1100 
L 313 1709 
L 2253 4666 
z
" id="DejaVuSans-34" transform="scale(0.015625)"/>
       </defs>
       <use xlink:href="#DejaVuSans-2212"/>
       <use x="83.789062" xlink:href="#DejaVuSans-34"/>
       <use x="147.412109" xlink:href="#DejaVuSans-30"/>
      </g>
     </g>
    </g>
    <g id="ytick_3">
     <g id="line2d_8">
      <g>
       <use style="stroke:#000000;stroke-width:0.8;" x="34.56" xlink:href="#m433371494d" y="107.384365"/>
      </g>
     </g>
     <g id="text_8">
      <!-- −20 -->
      <g transform="translate(6.455313 111.183584)scale(0.1 -0.1)">
       <use xlink:href="#DejaVuSans-2212"/>
       <use x="83.789062" xlink:href="#DejaVuSans-32"/>
       <use x="147.412109" xlink:href="#DejaVuSans-30"/>
      </g>
     </g>
    </g>
    <g id="ytick_4">
     <g id="line2d_9">
      <g>
       <use style="stroke:#000000;stroke-width:0.8;" x="34.56" xlink:href="#m433371494d" y="82.8"/>
      </g>
     </g>
     <g id="text_9">
      <!-- 0 -->
      <g transform="translate(21.1975 86.599219)scale(0.1 -0.1)">
       <use xlink:href="#DejaVuSans-30"/>
      </g>
     </g>
    </g>
    <g id="ytick_5">
     <g id="line2d_10">
      <g>
       <use style="stroke:#000000;stroke-width:0.8;" x="34.56" xlink:href="#m433371494d" y="58.215635"/>
      </g>
     </g>
     <g id="text_10">
      <!-- 20 -->
      <g transform="translate(14.835 62.014854)scale(0.1 -0.1)">
       <use xlink:href="#DejaVuSans-32"/>
       <use x="63.623047" xlink:href="#DejaVuSans-30"/>
      </g>
     </g>
    </g>
    <g id="ytick_6">
     <g id="line2d_11">
      <g>
       <use style="stroke:#000000;stroke-width:0.8;" x="34.56" xlink:href="#m433371494d" y="33.63127"/>
      </g>
     </g>
     <g id="text_11">
      <!-- 40 -->
      <g transform="translate(14.835 37.430489)scale(0.1 -0.1)">
       <use xlink:href="#DejaVuSans-34"/>
       <use x="63.623047" xlink:href="#DejaVuSans-30"/>
      </g>
     </g>
    </g>
    <g id="ytick_7">
     <g id="line2d_12">
      <g>
       <use style="stroke:#000000;stroke-width:0.8;" x="34.56" xlink:href="#m433371494d" y="9.046905"/>
      </g>
     </g>
     <g id="text_12">
      <!-- 60 -->
      <g transform="translate(14.835 12.846124)scale(0.1 -0.1)">
       <use xlink:href="#DejaVuSans-36"/>
       <use x="63.623047" xlink:href="#DejaVuSans-30"/>
      </g>
     </g>
    </g>
   </g>
   <g id="line2d_13">
    <path clip-path="url(#p91db4bff15)" d="M 89.390769 82.552577 
L 90.609231 83.783121 
L 91.218462 83.745858 
L 91.827692 83.590049 
L 92.436923 84.121518 
L 93.046154 83.992702 
L 93.655385 84.19535 
L 94.264615 83.918775 
L 94.873846 83.273172 
L 95.483077 83.338275 
L 96.092308 82.986511 
L 96.701538 82.884924 
L 97.310769 83.317576 
L 98.529231 82.978437 
L 99.138462 83.123747 
L 99.747692 83.144495 
L 100.356923 82.725931 
L 100.966154 82.623268 
L 102.184615 83.106826 
L 102.793846 82.799956 
L 104.621538 80.842378 
L 105.84 81.193491 
L 106.449231 80.997513 
L 107.058462 80.324891 
L 108.276923 79.678233 
L 108.886154 79.997567 
L 109.495385 79.851344 
L 110.104615 79.571173 
L 111.323077 79.5352 
L 111.932308 79.942695 
L 112.541538 79.349254 
L 113.150769 79.686634 
L 114.369231 79.45599 
L 114.978462 79.577327 
L 115.587692 79.980065 
L 116.196923 80.148609 
L 117.415385 80.259927 
L 118.024615 79.80398 
L 118.633846 80.138882 
L 119.243077 80.297355 
L 119.852308 80.146611 
L 121.070769 80.400779 
L 121.68 80.493906 
L 122.289231 79.907859 
L 123.507692 80.267395 
L 124.116923 80.087486 
L 124.726154 80.076045 
L 127.163077 80.541107 
L 127.772308 80.371515 
L 130.209231 80.535075 
L 131.427692 80.119805 
L 133.255385 81.755363 
L 133.864615 81.873634 
L 134.473846 82.486016 
L 135.692308 81.958479 
L 137.52 82.678613 
L 138.738462 82.870982 
L 139.347692 83.14193 
L 141.175385 82.860976 
L 141.784615 83.387852 
L 142.393846 83.449304 
L 143.003077 83.622695 
L 143.612308 83.589586 
L 144.221538 83.424793 
L 145.44 82.954131 
L 146.049231 83.078857 
L 146.658462 82.731657 
L 147.267692 82.743527 
L 147.876923 83.099112 
L 148.486154 82.761537 
L 149.095385 82.563445 
L 149.704615 82.67743 
L 150.313846 82.633298 
L 150.923077 82.332907 
L 152.141538 83.907835 
L 152.750769 83.403976 
L 153.36 83.280558 
L 153.969231 83.012378 
L 154.578462 82.89105 
L 155.187692 83.051895 
L 155.796923 82.890413 
L 157.015385 83.020805 
L 157.624615 83.974063 
L 158.233846 83.861561 
L 158.843077 83.888869 
L 159.452308 83.69641 
L 160.670769 83.907134 
L 161.28 83.794098 
L 163.716923 83.828145 
L 164.326154 83.269193 
L 164.935385 83.172351 
L 166.153846 82.440533 
L 166.763077 82.221158 
L 167.981538 82.399939 
L 168.590769 82.330834 
L 169.2 82.806123 
L 169.809231 82.761134 
L 170.418462 82.429089 
L 171.027692 81.771921 
L 172.246154 81.229809 
L 173.464615 80.775269 
L 175.292308 80.480814 
L 175.901538 80.882198 
L 176.510769 80.530142 
L 177.729231 80.545365 
L 178.338462 80.391627 
L 179.556923 79.586695 
L 180.166154 79.960279 
L 180.775385 79.674611 
L 181.384615 79.198263 
L 181.993846 79.103333 
L 182.603077 79.22893 
L 183.212308 79.012826 
L 183.821538 79.319383 
L 185.04 78.628988 
L 185.649231 78.426156 
L 186.258462 77.670561 
L 186.867692 77.81629 
L 187.476923 77.581628 
L 188.086154 77.580584 
L 188.695385 77.298748 
L 189.304615 77.505101 
L 189.913846 77.879365 
L 190.523077 78.093733 
L 191.132308 78.789347 
L 191.741538 79.020208 
L 192.350769 78.690808 
L 192.96 78.11444 
L 193.569231 78.262658 
L 194.178462 77.542377 
L 195.396923 76.814119 
L 196.006154 76.942656 
L 196.615385 76.525966 
L 199.052308 76.867813 
L 199.661538 77.190207 
L 200.270769 76.653872 
L 200.88 76.553986 
L 201.489231 77.455847 
L 202.098462 78.626818 
L 202.707692 78.845061 
L 203.316923 78.22719 
L 204.535385 77.620412 
L 205.144615 76.888246 
L 206.363077 76.365348 
L 206.972308 75.725458 
L 207.581538 75.255728 
L 208.190769 75.259962 
L 208.8 74.917919 
L 209.409231 74.854351 
L 210.018462 74.609737 
L 210.627692 74.237771 
L 211.236923 74.137734 
L 211.846154 73.754243 
L 212.455385 73.636851 
L 213.064615 74.012015 
L 213.673846 73.660775 
L 214.892308 73.882904 
L 215.501538 73.334771 
L 216.110769 73.690406 
L 216.72 73.916085 
L 217.329231 74.385992 
L 218.547692 74.851561 
L 219.156923 74.852283 
L 219.766154 74.535921 
L 220.375385 73.967049 
L 220.984615 73.005552 
L 221.593846 73.001097 
L 222.203077 72.76603 
L 222.812308 72.869865 
L 224.64 74.445951 
L 226.467692 74.31823 
L 227.076923 74.618193 
L 227.686154 74.721382 
L 228.295385 74.409766 
L 228.904615 74.336152 
L 229.513846 74.087073 
L 230.123077 74.065589 
L 231.341538 73.82043 
L 231.950769 73.783867 
L 232.56 74.089287 
L 233.778462 74.219927 
L 235.606154 75.430839 
L 236.824615 75.518989 
L 237.433846 75.010349 
L 238.043077 75.060351 
L 238.652308 74.910009 
L 239.261538 75.046309 
L 239.870769 75.318115 
L 240.48 74.684753 
L 241.089231 74.567927 
L 241.698462 74.781741 
L 242.307692 73.622404 
L 242.916923 73.517452 
L 243.526154 73.581659 
L 244.135385 73.481438 
L 245.353846 73.755455 
L 246.572308 73.127661 
L 247.181538 73.174125 
L 247.790769 72.85245 
L 248.4 72.396001 
L 249.618462 72.426514 
L 250.227692 73.153441 
L 250.836923 73.24914 
L 251.446154 73.501272 
L 252.055385 73.411179 
L 253.883077 74.49784 
L 254.492308 74.14535 
L 255.101538 74.174276 
L 255.710769 74.34393 
L 256.32 74.700487 
L 256.929231 74.742863 
L 257.538462 74.99681 
L 259.366154 75.255711 
L 259.975385 75.061867 
L 260.584615 75.624602 
L 261.193846 75.196627 
L 261.803077 75.257978 
L 262.412308 75.092816 
L 263.021538 75.30711 
L 263.630769 75.984698 
L 264.24 75.808891 
L 264.849231 75.980015 
L 265.458462 75.732355 
L 266.067692 75.670333 
L 266.676923 76.055214 
L 267.286154 76.046987 
L 267.895385 75.727566 
L 268.504615 75.539666 
L 269.113846 75.528725 
L 269.723077 76.203516 
L 270.941538 76.434941 
L 271.550769 76.840963 
L 272.16 76.381636 
L 272.769231 76.15045 
L 273.378462 76.50238 
L 273.987692 76.666493 
L 274.596923 77.01214 
L 275.206154 77.042197 
L 275.815385 77.413275 
L 276.424615 77.193074 
L 277.033846 77.766618 
L 278.252308 78.126795 
L 278.861538 78.21484 
L 279.470769 78.091139 
L 280.08 78.533487 
L 280.689231 78.306415 
L 281.298462 78.98085 
L 283.126154 79.098589 
L 283.735385 79.46384 
L 284.344615 79.674635 
L 284.953846 79.60505 
L 285.563077 79.748897 
L 286.172308 80.044375 
L 286.781538 80.025356 
L 287.390769 80.313451 
L 288 80.75481 
L 288.609231 80.357677 
L 289.218462 80.650954 
L 290.436923 79.544624 
L 291.046154 79.160437 
L 291.655385 79.494255 
L 292.264615 79.425225 
L 292.873846 79.173681 
L 293.483077 79.968816 
L 294.092308 80.018028 
L 294.701538 80.339751 
L 295.92 80.735643 
L 296.529231 80.311509 
L 297.138462 80.284292 
L 297.747692 80.55985 
L 298.356923 80.41326 
L 298.966154 80.599633 
L 299.575385 80.902553 
L 300.184615 80.700173 
L 300.793846 80.994565 
L 301.403077 81.148394 
L 303.230769 82.247452 
L 303.84 81.513689 
L 304.449231 81.069051 
L 305.058462 80.991509 
L 305.667692 81.219184 
L 306.276923 81.941319 
L 306.886154 82.203821 
L 307.495385 82.783837 
L 308.104615 83.612635 
L 309.323077 83.769343 
L 309.932308 84.193238 
L 310.541538 84.041441 
L 311.150769 84.228211 
L 311.76 83.889109 
L 312.369231 84.363267 
L 312.978462 84.654842 
L 313.587692 84.436045 
L 314.196923 85.003153 
L 315.415385 84.729966 
L 317.852308 85.755735 
L 318.461538 86.033558 
L 319.070769 85.921047 
L 319.68 85.603067 
L 320.289231 85.435843 
L 320.898462 85.654693 
L 322.116923 85.541367 
L 323.335385 85.159782 
L 323.944615 84.721254 
L 325.163077 84.38338 
L 325.772308 84.095846 
L 326.381538 84.49681 
L 326.990769 84.398357 
L 327.6 84.455614 
L 328.209231 84.148216 
L 328.818462 84.196166 
L 329.427692 83.856356 
L 330.036923 83.65038 
L 330.646154 83.934674 
L 331.255385 83.420564 
L 331.864615 83.681175 
L 332.473846 83.640828 
L 333.083077 83.267648 
L 334.301538 84.617266 
L 334.910769 84.923944 
L 335.52 85.007991 
L 336.129231 84.871124 
L 336.738462 84.859967 
L 337.347692 84.198504 
L 337.956923 83.734117 
L 338.566154 83.75226 
L 339.175385 83.563647 
L 339.784615 83.759735 
L 340.393846 83.826083 
L 341.003077 83.241889 
L 341.612308 83.086264 
L 342.221538 82.758136 
L 343.44 82.621851 
L 344.658462 81.588285 
L 345.267692 81.978516 
L 345.876923 81.729719 
L 346.486154 81.300753 
L 347.095385 81.891418 
L 347.704615 81.624961 
L 348.313846 81.966374 
L 348.923077 82.156735 
L 349.532308 82.153569 
L 350.141538 81.901639 
L 350.750769 81.939036 
L 351.36 81.451677 
L 351.969231 81.260803 
L 352.578462 81.312155 
L 353.187692 81.642475 
L 354.406154 82.647415 
L 355.015385 82.530677 
L 355.624615 82.233629 
L 356.233846 82.458345 
L 356.843077 83.153233 
L 358.061538 82.439685 
L 359.28 82.859727 
L 359.889231 82.8 
L 359.889231 82.8 
" style="fill:none;stroke:#1f77b4;stroke-linecap:square;stroke-width:1.5;"/>
   </g>
   <g id="line2d_14">
    <path clip-path="url(#p91db4bff15)" d="M 34.56 82.8 
L 414.72 82.8 
" style="fill:none;stroke:#000000;stroke-dasharray:1.5,2.475;stroke-dashoffset:0;stroke-width:1.5;"/>
   </g>
   <g id="patch_3">
    <path d="M 34.56 162 
L 34.56 3.6 
" style="fill:none;stroke:#000000;stroke-linecap:square;stroke-linejoin:miter;stroke-width:0.8;"/>
   </g>
   <g id="patch_4">
    <path d="M 414.72 162 
L 414.72 3.6 
" style="fill:none;stroke:#000000;stroke-linecap:square;stroke-linejoin:miter;stroke-width:0.8;"/>
   </g>
   <g id="patch_5">
    <path d="M 34.56 162 
L 414.72 162 
" style="fill:none;stroke:#000000;stroke-linecap:square;stroke-linejoin:miter;stroke-width:0.8;"/>
   </g>
   <g id="patch_6">
    <path d="M 34.56 3.6 
L 414.72 3.6 
" style="fill:none;stroke:#000000;stroke-linecap:square;stroke-linejoin:miter;stroke-width:0.8;"/>
   </g>
  </g>
 </g>
 <defs>
  <clipPath id="p91db4bff15">
   <rect height="158.4" width="380.16" x="34.56" y="3.6"/>
  </clipPath>
 </defs>
</svg>
