<?xml version="1.0" encoding="utf-8" standalone="no"?>
<!DOCTYPE svg PUBLIC "-//W3C//DTD SVG 1.1//EN"
  "http://www.w3.org/Graphics/SVG/1.1/DTD/svg11.dtd">
<svg height="180pt" version="1.1" viewBox="0 0 432 180" width="432pt" xmlns="http://www.w3.org/2000/svg" xmlns:xlink="http://www.w3.org/1999/xlink">
 <metadata>
  <rdf:RDF xmlns:cc="http://creativecommons.org/ns#" xmlns:dc="http://purl.org/dc/elements/1.1/" xmlns:rdf="http://www.w3.org/1999/02/22-rdf-syntax-ns#">
   <cc:Work>
    <dc:type rdf:resource="http://purl.org/dc/dcmitype/StillImage"/>
    <dc:date>2021-08-12T10:41:46.883135</dc:date>
    <dc:format>image/svg+xml</dc:format>
    <dc:creator>
     <cc:Agent>
      <dc:title>Matplotlib v3.4.2, https://matplotlib.org/</dc:title>
     </cc:Agent>
    </dc:creator>
   </cc:Work>
  </rdf:RDF>
 </metadata>
 <defs>
  <style type="text/css">*{stroke-linecap:butt;stroke-linejoin:round;}</style>
 </defs>
 <g id="figure_1">
  <g id="patch_1">
   <path d="M 0 180 
L 432 180 
L 432 0 
L 0 0 
z
" style="fill:#ffffff;"/>
  </g>
  <g id="axes_1">
   <g id="patch_2">
    <path d="M 34.56 162 
L 414.72 162 
L 414.72 3.6 
L 34.56 3.6 
z
" style="fill:#ffffff;"/>
   </g>
   <g id="PolyCollection_1">
    <defs>
     <path d="M 131.76 -98.933932 
L 131.76 -95.466068 
L 132.84 -93.762203 
L 133.92 -92.078267 
L 135 -90.414258 
L 136.08 -88.770178 
L 137.16 -87.146027 
L 138.24 -85.541803 
L 139.32 -83.957508 
L 140.4 -82.393141 
L 141.48 -80.848702 
L 142.56 -79.324192 
L 143.64 -77.819609 
L 144.72 -76.334955 
L 145.8 -74.87023 
L 146.88 -73.425432 
L 147.96 -72.000563 
L 149.04 -70.595622 
L 150.12 -69.210609 
L 151.2 -67.845524 
L 152.28 -66.500368 
L 153.36 -65.17514 
L 154.44 -63.86984 
L 155.52 -62.584468 
L 156.6 -61.319025 
L 157.68 -60.07351 
L 158.76 -58.847923 
L 159.84 -57.642264 
L 160.92 -56.456534 
L 162 -55.290732 
L 163.08 -54.144858 
L 164.16 -53.018912 
L 165.24 -51.912895 
L 166.32 -50.826806 
L 167.4 -49.760645 
L 168.48 -48.714412 
L 169.56 -47.688107 
L 170.64 -46.681731 
L 171.72 -45.695283 
L 172.8 -44.728763 
L 173.88 -43.782172 
L 174.96 -42.855509 
L 176.04 -41.948774 
L 177.12 -41.061967 
L 178.2 -40.195088 
L 179.28 -39.348138 
L 180.36 -38.521116 
L 181.44 -37.714022 
L 182.52 -36.926857 
L 183.6 -36.159619 
L 184.68 -35.41231 
L 185.76 -34.684929 
L 186.84 -33.977477 
L 187.92 -33.289952 
L 189 -32.622356 
L 190.08 -31.974689 
L 191.16 -31.346949 
L 192.24 -30.739138 
L 193.32 -30.151254 
L 194.4 -29.583299 
L 195.48 -29.035273 
L 196.56 -28.507174 
L 197.64 -27.999004 
L 198.72 -27.510762 
L 199.8 -27.042449 
L 200.88 -26.594063 
L 201.96 -26.165606 
L 203.04 -25.757077 
L 204.12 -25.368476 
L 205.2 -24.999804 
L 206.28 -24.65106 
L 207.36 -24.322244 
L 208.44 -24.013356 
L 209.52 -23.724396 
L 210.6 -23.455365 
L 211.68 -23.206262 
L 212.76 -22.977087 
L 213.84 -22.767841 
L 214.92 -22.578522 
L 216 -22.409132 
L 217.08 -22.259671 
L 218.16 -22.130137 
L 219.24 -22.020532 
L 220.32 -21.930855 
L 221.4 -21.861106 
L 222.48 -21.811285 
L 223.56 -21.781393 
L 224.64 -21.771429 
L 225.72 -21.781393 
L 226.8 -21.811285 
L 227.88 -21.861106 
L 228.96 -21.930855 
L 230.04 -22.020532 
L 231.12 -22.130137 
L 232.2 -22.259671 
L 233.28 -22.409132 
L 234.36 -22.578522 
L 235.44 -22.767841 
L 236.52 -22.977087 
L 237.6 -23.206262 
L 238.68 -23.455365 
L 239.76 -23.724396 
L 240.84 -24.013356 
L 241.92 -24.322244 
L 243 -24.65106 
L 244.08 -24.999804 
L 245.16 -25.368476 
L 246.24 -25.757077 
L 247.32 -26.165606 
L 248.4 -26.594063 
L 249.48 -27.042449 
L 250.56 -27.510762 
L 251.64 -27.999004 
L 252.72 -28.507174 
L 253.8 -29.035273 
L 254.88 -29.583299 
L 255.96 -30.151254 
L 257.04 -30.739138 
L 258.12 -31.346949 
L 259.2 -31.974689 
L 260.28 -32.622356 
L 261.36 -33.289952 
L 262.44 -33.977477 
L 263.52 -34.684929 
L 264.6 -35.41231 
L 265.68 -36.159619 
L 266.76 -36.926857 
L 267.84 -37.714022 
L 268.92 -38.521116 
L 270 -39.348138 
L 271.08 -40.195088 
L 272.16 -41.061967 
L 273.24 -41.948774 
L 274.32 -42.855509 
L 275.4 -43.782172 
L 276.48 -44.728763 
L 277.56 -45.695283 
L 278.64 -46.681731 
L 279.72 -47.688107 
L 280.8 -48.714412 
L 281.88 -49.760645 
L 282.96 -50.826806 
L 284.04 -51.912895 
L 285.12 -53.018912 
L 286.2 -54.144858 
L 287.28 -55.290732 
L 288.36 -56.456534 
L 289.44 -57.642264 
L 290.52 -58.847923 
L 291.6 -60.07351 
L 292.68 -61.319025 
L 293.76 -62.584468 
L 294.84 -63.86984 
L 295.92 -65.17514 
L 297 -66.500368 
L 298.08 -67.845524 
L 299.16 -69.210609 
L 300.24 -70.595622 
L 301.32 -72.000563 
L 302.4 -73.425432 
L 303.48 -74.87023 
L 304.56 -76.334955 
L 305.64 -77.819609 
L 306.72 -79.324192 
L 307.8 -80.848702 
L 308.88 -82.393141 
L 309.96 -83.957508 
L 311.04 -85.541803 
L 312.12 -87.146027 
L 313.2 -88.770178 
L 314.28 -90.414258 
L 315.36 -92.078267 
L 316.44 -93.762203 
L 317.52 -95.466068 
L 317.52 -98.933932 
L 317.52 -98.933932 
L 316.44 -100.637797 
L 315.36 -102.321733 
L 314.28 -103.985742 
L 313.2 -105.629822 
L 312.12 -107.253973 
L 311.04 -108.858197 
L 309.96 -110.442492 
L 308.88 -112.006859 
L 307.8 -113.551298 
L 306.72 -115.075808 
L 305.64 -116.580391 
L 304.56 -118.065045 
L 303.48 -119.52977 
L 302.4 -120.974568 
L 301.32 -122.399437 
L 300.24 -123.804378 
L 299.16 -125.189391 
L 298.08 -126.554476 
L 297 -127.899632 
L 295.92 -129.22486 
L 294.84 -130.53016 
L 293.76 -131.815532 
L 292.68 -133.080975 
L 291.6 -134.32649 
L 290.52 -135.552077 
L 289.44 -136.757736 
L 288.36 -137.943466 
L 287.28 -139.109268 
L 286.2 -140.255142 
L 285.12 -141.381088 
L 284.04 -142.487105 
L 282.96 -143.573194 
L 281.88 -144.639355 
L 280.8 -145.685588 
L 279.72 -146.711893 
L 278.64 -147.718269 
L 277.56 -148.704717 
L 276.48 -149.671237 
L 275.4 -150.617828 
L 274.32 -151.544491 
L 273.24 -152.451226 
L 272.16 -153.338033 
L 271.08 -154.204912 
L 270 -155.051862 
L 268.92 -155.878884 
L 267.84 -156.685978 
L 266.76 -157.473143 
L 265.68 -158.240381 
L 264.6 -158.98769 
L 263.52 -159.715071 
L 262.44 -160.422523 
L 261.36 -161.110048 
L 260.28 -161.777644 
L 259.2 -162.425311 
L 258.12 -163.053051 
L 257.04 -163.660862 
L 255.96 -164.248746 
L 254.88 -164.816701 
L 253.8 -165.364727 
L 252.72 -165.892826 
L 251.64 -166.400996 
L 250.56 -166.889238 
L 249.48 -167.357551 
L 248.4 -167.805937 
L 247.32 -168.234394 
L 246.24 -168.642923 
L 245.16 -169.031524 
L 244.08 -169.400196 
L 243 -169.74894 
L 241.92 -170.077756 
L 240.84 -170.386644 
L 239.76 -170.675604 
L 238.68 -170.944635 
L 237.6 -171.193738 
L 236.52 -171.422913 
L 235.44 -171.632159 
L 234.36 -171.821478 
L 233.28 -171.990868 
L 232.2 -172.140329 
L 231.12 -172.269863 
L 230.04 -172.379468 
L 228.96 -172.469145 
L 227.88 -172.538894 
L 226.8 -172.588715 
L 225.72 -172.618607 
L 224.64 -172.628571 
L 223.56 -172.618607 
L 222.48 -172.588715 
L 221.4 -172.538894 
L 220.32 -172.469145 
L 219.24 -172.379468 
L 218.16 -172.269863 
L 217.08 -172.140329 
L 216 -171.990868 
L 214.92 -171.821478 
L 213.84 -171.632159 
L 212.76 -171.422913 
L 211.68 -171.193738 
L 210.6 -170.944635 
L 209.52 -170.675604 
L 208.44 -170.386644 
L 207.36 -170.077756 
L 206.28 -169.74894 
L 205.2 -169.400196 
L 204.12 -169.031524 
L 203.04 -168.642923 
L 201.96 -168.234394 
L 200.88 -167.805937 
L 199.8 -167.357551 
L 198.72 -166.889238 
L 197.64 -166.400996 
L 196.56 -165.892826 
L 195.48 -165.364727 
L 194.4 -164.816701 
L 193.32 -164.248746 
L 192.24 -163.660862 
L 191.16 -163.053051 
L 190.08 -162.425311 
L 189 -161.777644 
L 187.92 -161.110048 
L 186.84 -160.422523 
L 185.76 -159.715071 
L 184.68 -158.98769 
L 183.6 -158.240381 
L 182.52 -157.473143 
L 181.44 -156.685978 
L 180.36 -155.878884 
L 179.28 -155.051862 
L 178.2 -154.204912 
L 177.12 -153.338033 
L 176.04 -152.451226 
L 174.96 -151.544491 
L 173.88 -150.617828 
L 172.8 -149.671237 
L 171.72 -148.704717 
L 170.64 -147.718269 
L 169.56 -146.711893 
L 168.48 -145.685588 
L 167.4 -144.639355 
L 166.32 -143.573194 
L 165.24 -142.487105 
L 164.16 -141.381088 
L 163.08 -140.255142 
L 162 -139.109268 
L 160.92 -137.943466 
L 159.84 -136.757736 
L 158.76 -135.552077 
L 157.68 -134.32649 
L 156.6 -133.080975 
L 155.52 -131.815532 
L 154.44 -130.53016 
L 153.36 -129.22486 
L 152.28 -127.899632 
L 151.2 -126.554476 
L 150.12 -125.189391 
L 149.04 -123.804378 
L 147.96 -122.399437 
L 146.88 -120.974568 
L 145.8 -119.52977 
L 144.72 -118.065045 
L 143.64 -116.580391 
L 142.56 -115.075808 
L 141.48 -113.551298 
L 140.4 -112.006859 
L 139.32 -110.442492 
L 138.24 -108.858197 
L 137.16 -107.253973 
L 136.08 -105.629822 
L 135 -103.985742 
L 133.92 -102.321733 
L 132.84 -100.637797 
L 131.76 -98.933932 
z
" id="m79ad2c05cc" style="stroke:#0000ff;stroke-opacity:0.1;"/>
    </defs>
    <g clip-path="url(#p752f1d1330)">
     <use style="fill:#0000ff;fill-opacity:0.1;stroke:#0000ff;stroke-opacity:0.1;" x="0" xlink:href="#m79ad2c05cc" y="180"/>
    </g>
   </g>
   <g id="matplotlib.axis_1">
    <g id="xtick_1">
     <g id="line2d_1">
      <defs>
       <path d="M 0 0 
L 0 3.5 
" id="m2c5773e3ff" style="stroke:#000000;stroke-width:0.8;"/>
      </defs>
      <g>
       <use style="stroke:#000000;stroke-width:0.8;" x="51.3" xlink:href="#m2c5773e3ff" y="162"/>
      </g>
     </g>
     <g id="text_1">
      <!-- 2000 -->
      <g transform="translate(38.575 176.598438)scale(0.1 -0.1)">
       <defs>
        <path d="M 1228 531 
L 3431 531 
L 3431 0 
L 469 0 
L 469 531 
Q 828 903 1448 1529 
Q 2069 2156 2228 2338 
Q 2531 2678 2651 2914 
Q 2772 3150 2772 3378 
Q 2772 3750 2511 3984 
Q 2250 4219 1831 4219 
Q 1534 4219 1204 4116 
Q 875 4013 500 3803 
L 500 4441 
Q 881 4594 1212 4672 
Q 1544 4750 1819 4750 
Q 2544 4750 2975 4387 
Q 3406 4025 3406 3419 
Q 3406 3131 3298 2873 
Q 3191 2616 2906 2266 
Q 2828 2175 2409 1742 
Q 1991 1309 1228 531 
z
" id="DejaVuSans-32" transform="scale(0.015625)"/>
        <path d="M 2034 4250 
Q 1547 4250 1301 3770 
Q 1056 3291 1056 2328 
Q 1056 1369 1301 889 
Q 1547 409 2034 409 
Q 2525 409 2770 889 
Q 3016 1369 3016 2328 
Q 3016 3291 2770 3770 
Q 2525 4250 2034 4250 
z
M 2034 4750 
Q 2819 4750 3233 4129 
Q 3647 3509 3647 2328 
Q 3647 1150 3233 529 
Q 2819 -91 2034 -91 
Q 1250 -91 836 529 
Q 422 1150 422 2328 
Q 422 3509 836 4129 
Q 1250 4750 2034 4750 
z
" id="DejaVuSans-30" transform="scale(0.015625)"/>
       </defs>
       <use xlink:href="#DejaVuSans-32"/>
       <use x="63.623047" xlink:href="#DejaVuSans-30"/>
       <use x="127.246094" xlink:href="#DejaVuSans-30"/>
       <use x="190.869141" xlink:href="#DejaVuSans-30"/>
      </g>
     </g>
    </g>
    <g id="xtick_2">
     <g id="line2d_2">
      <g>
       <use style="stroke:#000000;stroke-width:0.8;" x="116.1" xlink:href="#m2c5773e3ff" y="162"/>
      </g>
     </g>
     <g id="text_2">
      <!-- 2005 -->
      <g transform="translate(103.375 176.598438)scale(0.1 -0.1)">
       <defs>
        <path d="M 691 4666 
L 3169 4666 
L 3169 4134 
L 1269 4134 
L 1269 2991 
Q 1406 3038 1543 3061 
Q 1681 3084 1819 3084 
Q 2600 3084 3056 2656 
Q 3513 2228 3513 1497 
Q 3513 744 3044 326 
Q 2575 -91 1722 -91 
Q 1428 -91 1123 -41 
Q 819 9 494 109 
L 494 744 
Q 775 591 1075 516 
Q 1375 441 1709 441 
Q 2250 441 2565 725 
Q 2881 1009 2881 1497 
Q 2881 1984 2565 2268 
Q 2250 2553 1709 2553 
Q 1456 2553 1204 2497 
Q 953 2441 691 2322 
L 691 4666 
z
" id="DejaVuSans-35" transform="scale(0.015625)"/>
       </defs>
       <use xlink:href="#DejaVuSans-32"/>
       <use x="63.623047" xlink:href="#DejaVuSans-30"/>
       <use x="127.246094" xlink:href="#DejaVuSans-30"/>
       <use x="190.869141" xlink:href="#DejaVuSans-35"/>
      </g>
     </g>
    </g>
    <g id="xtick_3">
     <g id="line2d_3">
      <g>
       <use style="stroke:#000000;stroke-width:0.8;" x="180.9" xlink:href="#m2c5773e3ff" y="162"/>
      </g>
     </g>
     <g id="text_3">
      <!-- 2010 -->
      <g transform="translate(168.175 176.598438)scale(0.1 -0.1)">
       <defs>
        <path d="M 794 531 
L 1825 531 
L 1825 4091 
L 703 3866 
L 703 4441 
L 1819 4666 
L 2450 4666 
L 2450 531 
L 3481 531 
L 3481 0 
L 794 0 
L 794 531 
z
" id="DejaVuSans-31" transform="scale(0.015625)"/>
       </defs>
       <use xlink:href="#DejaVuSans-32"/>
       <use x="63.623047" xlink:href="#DejaVuSans-30"/>
       <use x="127.246094" xlink:href="#DejaVuSans-31"/>
       <use x="190.869141" xlink:href="#DejaVuSans-30"/>
      </g>
     </g>
    </g>
    <g id="xtick_4">
     <g id="line2d_4">
      <g>
       <use style="stroke:#000000;stroke-width:0.8;" x="245.7" xlink:href="#m2c5773e3ff" y="162"/>
      </g>
     </g>
     <g id="text_4">
      <!-- 2015 -->
      <g transform="translate(232.975 176.598438)scale(0.1 -0.1)">
       <use xlink:href="#DejaVuSans-32"/>
       <use x="63.623047" xlink:href="#DejaVuSans-30"/>
       <use x="127.246094" xlink:href="#DejaVuSans-31"/>
       <use x="190.869141" xlink:href="#DejaVuSans-35"/>
      </g>
     </g>
    </g>
    <g id="xtick_5">
     <g id="line2d_5">
      <g>
       <use style="stroke:#000000;stroke-width:0.8;" x="310.5" xlink:href="#m2c5773e3ff" y="162"/>
      </g>
     </g>
     <g id="text_5">
      <!-- 2020 -->
      <g transform="translate(297.775 176.598438)scale(0.1 -0.1)">
       <use xlink:href="#DejaVuSans-32"/>
       <use x="63.623047" xlink:href="#DejaVuSans-30"/>
       <use x="127.246094" xlink:href="#DejaVuSans-32"/>
       <use x="190.869141" xlink:href="#DejaVuSans-30"/>
      </g>
     </g>
    </g>
    <g id="xtick_6">
     <g id="line2d_6">
      <g>
       <use style="stroke:#000000;stroke-width:0.8;" x="375.3" xlink:href="#m2c5773e3ff" y="162"/>
      </g>
     </g>
     <g id="text_6">
      <!-- 2025 -->
      <g transform="translate(362.575 176.598438)scale(0.1 -0.1)">
       <use xlink:href="#DejaVuSans-32"/>
       <use x="63.623047" xlink:href="#DejaVuSans-30"/>
       <use x="127.246094" xlink:href="#DejaVuSans-32"/>
       <use x="190.869141" xlink:href="#DejaVuSans-35"/>
      </g>
     </g>
    </g>
   </g>
   <g id="matplotlib.axis_2">
    <g id="ytick_1">
     <g id="line2d_7">
      <defs>
       <path d="M 0 0 
L -3.5 0 
" id="m7f59ca0451" style="stroke:#000000;stroke-width:0.8;"/>
      </defs>
      <g>
       <use style="stroke:#000000;stroke-width:0.8;" x="34.56" xlink:href="#m7f59ca0451" y="159.865046"/>
      </g>
     </g>
     <g id="text_7">
      <!-- −30 -->
      <g transform="translate(6.455313 163.664264)scale(0.1 -0.1)">
       <defs>
        <path d="M 678 2272 
L 4684 2272 
L 4684 1741 
L 678 1741 
L 678 2272 
z
" id="DejaVuSans-2212" transform="scale(0.015625)"/>
        <path d="M 2597 2516 
Q 3050 2419 3304 2112 
Q 3559 1806 3559 1356 
Q 3559 666 3084 287 
Q 2609 -91 1734 -91 
Q 1441 -91 1130 -33 
Q 819 25 488 141 
L 488 750 
Q 750 597 1062 519 
Q 1375 441 1716 441 
Q 2309 441 2620 675 
Q 2931 909 2931 1356 
Q 2931 1769 2642 2001 
Q 2353 2234 1838 2234 
L 1294 2234 
L 1294 2753 
L 1863 2753 
Q 2328 2753 2575 2939 
Q 2822 3125 2822 3475 
Q 2822 3834 2567 4026 
Q 2313 4219 1838 4219 
Q 1578 4219 1281 4162 
Q 984 4106 628 3988 
L 628 4550 
Q 988 4650 1302 4700 
Q 1616 4750 1894 4750 
Q 2613 4750 3031 4423 
Q 3450 4097 3450 3541 
Q 3450 3153 3228 2886 
Q 3006 2619 2597 2516 
z
" id="DejaVuSans-33" transform="scale(0.015625)"/>
       </defs>
       <use xlink:href="#DejaVuSans-2212"/>
       <use x="83.789062" xlink:href="#DejaVuSans-33"/>
       <use x="147.412109" xlink:href="#DejaVuSans-30"/>
      </g>
     </g>
    </g>
    <g id="ytick_2">
     <g id="line2d_8">
      <g>
       <use style="stroke:#000000;stroke-width:0.8;" x="34.56" xlink:href="#m7f59ca0451" y="134.176697"/>
      </g>
     </g>
     <g id="text_8">
      <!-- −20 -->
      <g transform="translate(6.455313 137.975916)scale(0.1 -0.1)">
       <use xlink:href="#DejaVuSans-2212"/>
       <use x="83.789062" xlink:href="#DejaVuSans-32"/>
       <use x="147.412109" xlink:href="#DejaVuSans-30"/>
      </g>
     </g>
    </g>
    <g id="ytick_3">
     <g id="line2d_9">
      <g>
       <use style="stroke:#000000;stroke-width:0.8;" x="34.56" xlink:href="#m7f59ca0451" y="108.488349"/>
      </g>
     </g>
     <g id="text_9">
      <!-- −10 -->
      <g transform="translate(6.455313 112.287567)scale(0.1 -0.1)">
       <use xlink:href="#DejaVuSans-2212"/>
       <use x="83.789062" xlink:href="#DejaVuSans-31"/>
       <use x="147.412109" xlink:href="#DejaVuSans-30"/>
      </g>
     </g>
    </g>
    <g id="ytick_4">
     <g id="line2d_10">
      <g>
       <use style="stroke:#000000;stroke-width:0.8;" x="34.56" xlink:href="#m7f59ca0451" y="82.8"/>
      </g>
     </g>
     <g id="text_10">
      <!-- 0 -->
      <g transform="translate(21.1975 86.599219)scale(0.1 -0.1)">
       <use xlink:href="#DejaVuSans-30"/>
      </g>
     </g>
    </g>
    <g id="ytick_5">
     <g id="line2d_11">
      <g>
       <use style="stroke:#000000;stroke-width:0.8;" x="34.56" xlink:href="#m7f59ca0451" y="57.111651"/>
      </g>
     </g>
     <g id="text_11">
      <!-- 10 -->
      <g transform="translate(14.835 60.91087)scale(0.1 -0.1)">
       <use xlink:href="#DejaVuSans-31"/>
       <use x="63.623047" xlink:href="#DejaVuSans-30"/>
      </g>
     </g>
    </g>
    <g id="ytick_6">
     <g id="line2d_12">
      <g>
       <use style="stroke:#000000;stroke-width:0.8;" x="34.56" xlink:href="#m7f59ca0451" y="31.423303"/>
      </g>
     </g>
     <g id="text_12">
      <!-- 20 -->
      <g transform="translate(14.835 35.222522)scale(0.1 -0.1)">
       <use xlink:href="#DejaVuSans-32"/>
       <use x="63.623047" xlink:href="#DejaVuSans-30"/>
      </g>
     </g>
    </g>
    <g id="ytick_7">
     <g id="line2d_13">
      <g>
       <use style="stroke:#000000;stroke-width:0.8;" x="34.56" xlink:href="#m7f59ca0451" y="5.734954"/>
      </g>
     </g>
     <g id="text_13">
      <!-- 30 -->
      <g transform="translate(14.835 9.534173)scale(0.1 -0.1)">
       <use xlink:href="#DejaVuSans-33"/>
       <use x="63.623047" xlink:href="#DejaVuSans-30"/>
      </g>
     </g>
    </g>
   </g>
   <g id="line2d_14">
    <path clip-path="url(#p752f1d1330)" d="M 131.76 82.279829 
L 132.84 82.356062 
L 133.92 82.283634 
L 135 82.80043 
L 136.08 83.60422 
L 137.16 83.552371 
L 139.32 84.383725 
L 140.4 84.077073 
L 141.48 84.659477 
L 142.56 84.904605 
L 143.64 84.869369 
L 145.8 85.895204 
L 146.88 86.015705 
L 149.04 85.72763 
L 150.12 85.828525 
L 151.2 85.668401 
L 155.52 85.798668 
L 156.6 85.991527 
L 159.84 85.480393 
L 160.92 86.213445 
L 163.08 86.916159 
L 164.16 86.681552 
L 165.24 86.614331 
L 166.32 87.281147 
L 167.4 87.160345 
L 168.48 88.044731 
L 169.56 88.390561 
L 170.64 88.352853 
L 171.72 88.968848 
L 173.88 88.412323 
L 174.96 88.550046 
L 176.04 88.837488 
L 177.12 89.281996 
L 178.2 89.020514 
L 179.28 89.382989 
L 180.36 89.590186 
L 182.52 89.157752 
L 183.6 89.128134 
L 184.68 89.427418 
L 185.76 89.369907 
L 186.84 89.473042 
L 187.92 90.323847 
L 189 90.196929 
L 190.08 90.216311 
L 191.16 90.439687 
L 194.4 90.094902 
L 195.48 89.399197 
L 196.56 88.988221 
L 197.64 88.920146 
L 199.8 89.228852 
L 200.88 89.607311 
L 201.96 89.429307 
L 203.04 89.815863 
L 204.12 90.489961 
L 206.28 90.623695 
L 207.36 90.7136 
L 211.68 91.805281 
L 213.84 91.304614 
L 214.92 91.422303 
L 216 91.724343 
L 218.16 91.78656 
L 219.24 91.250134 
L 220.32 91.223452 
L 221.4 91.42033 
L 222.48 90.880319 
L 223.56 90.666032 
L 224.64 91.201028 
L 225.72 91.394245 
L 226.8 91.36516 
L 227.88 91.475507 
L 228.96 91.045167 
L 230.04 91.094869 
L 231.12 90.652 
L 232.2 90.529848 
L 233.28 89.470738 
L 234.36 89.143563 
L 235.44 89.445712 
L 236.52 88.984539 
L 238.68 88.519786 
L 240.84 88.632773 
L 241.92 88.917011 
L 243 88.966417 
L 245.16 88.394539 
L 246.24 88.746283 
L 248.4 90.152426 
L 250.56 89.511657 
L 253.8 88.301199 
L 254.88 87.606322 
L 257.04 87.63751 
L 258.12 87.827242 
L 259.2 86.974885 
L 260.28 86.903093 
L 261.36 86.959138 
L 262.44 86.543141 
L 263.52 87.043529 
L 265.68 85.962975 
L 266.76 85.811171 
L 267.84 86.333774 
L 268.92 85.690267 
L 270 85.25564 
L 272.16 86.061979 
L 273.24 85.773445 
L 274.32 86.055095 
L 275.4 85.882836 
L 277.56 85.233257 
L 278.64 84.311503 
L 279.72 83.764043 
L 281.88 82.966159 
L 282.96 82.868888 
L 284.04 82.452748 
L 287.28 80.497035 
L 288.36 80.129405 
L 289.44 79.419932 
L 291.6 79.115324 
L 292.68 79.222362 
L 293.76 78.528952 
L 294.84 78.426947 
L 295.92 78.945454 
L 297 79.057229 
L 299.16 80.101267 
L 301.32 80.244825 
L 302.4 80.602176 
L 303.48 81.46184 
L 304.56 81.399046 
L 305.64 81.750769 
L 307.8 82.047333 
L 309.96 81.996538 
L 311.04 82.488502 
L 314.28 82.883099 
L 315.36 83.144608 
L 316.44 82.861585 
L 317.52 82.8 
L 317.52 82.8 
" style="fill:none;stroke:#1f77b4;stroke-linecap:square;stroke-width:1.5;"/>
   </g>
   <g id="line2d_15">
    <path clip-path="url(#p752f1d1330)" d="M 34.56 82.8 
L 414.72 82.8 
" style="fill:none;stroke:#000000;stroke-dasharray:1.5,2.475;stroke-dashoffset:0;stroke-width:1.5;"/>
   </g>
   <g id="patch_3">
    <path d="M 34.56 162 
L 34.56 3.6 
" style="fill:none;stroke:#000000;stroke-linecap:square;stroke-linejoin:miter;stroke-width:0.8;"/>
   </g>
   <g id="patch_4">
    <path d="M 414.72 162 
L 414.72 3.6 
" style="fill:none;stroke:#000000;stroke-linecap:square;stroke-linejoin:miter;stroke-width:0.8;"/>
   </g>
   <g id="patch_5">
    <path d="M 34.56 162 
L 414.72 162 
" style="fill:none;stroke:#000000;stroke-linecap:square;stroke-linejoin:miter;stroke-width:0.8;"/>
   </g>
   <g id="patch_6">
    <path d="M 34.56 3.6 
L 414.72 3.6 
" style="fill:none;stroke:#000000;stroke-linecap:square;stroke-linejoin:miter;stroke-width:0.8;"/>
   </g>
  </g>
 </g>
 <defs>
  <clipPath id="p752f1d1330">
   <rect height="158.4" width="380.16" x="34.56" y="3.6"/>
  </clipPath>
 </defs>
</svg>
