<?xml version="1.0" encoding="utf-8" standalone="no"?>
<!DOCTYPE svg PUBLIC "-//W3C//DTD SVG 1.1//EN"
  "http://www.w3.org/Graphics/SVG/1.1/DTD/svg11.dtd">
<svg height="180pt" version="1.1" viewBox="0 0 432 180" width="432pt" xmlns="http://www.w3.org/2000/svg" xmlns:xlink="http://www.w3.org/1999/xlink">
 <metadata>
  <rdf:RDF xmlns:cc="http://creativecommons.org/ns#" xmlns:dc="http://purl.org/dc/elements/1.1/" xmlns:rdf="http://www.w3.org/1999/02/22-rdf-syntax-ns#">
   <cc:Work>
    <dc:type rdf:resource="http://purl.org/dc/dcmitype/StillImage"/>
    <dc:date>2021-08-10T10:27:39.532814</dc:date>
    <dc:format>image/svg+xml</dc:format>
    <dc:creator>
     <cc:Agent>
      <dc:title>Matplotlib v3.4.2, https://matplotlib.org/</dc:title>
     </cc:Agent>
    </dc:creator>
   </cc:Work>
  </rdf:RDF>
 </metadata>
 <defs>
  <style type="text/css">*{stroke-linecap:butt;stroke-linejoin:round;}</style>
 </defs>
 <g id="figure_1">
  <g id="patch_1">
   <path d="M 0 180 
L 432 180 
L 432 0 
L 0 0 
z
" style="fill:#ffffff;"/>
  </g>
  <g id="axes_1">
   <g id="patch_2">
    <path d="M 34.56 162 
L 414.72 162 
L 414.72 3.6 
L 34.56 3.6 
z
" style="fill:#ffffff;"/>
   </g>
   <g id="PolyCollection_1">
    <defs>
     <path d="M 67.145143 -97.546002 
L 67.145143 -96.853998 
L 67.5072 -96.509187 
L 67.869257 -96.165171 
L 68.231314 -95.821947 
L 68.593371 -95.479518 
L 68.955429 -95.137882 
L 69.317486 -94.797039 
L 69.679543 -94.45699 
L 70.0416 -94.117735 
L 70.403657 -93.779273 
L 70.765714 -93.441605 
L 71.127771 -93.10473 
L 71.489829 -92.768649 
L 71.851886 -92.433362 
L 72.213943 -92.098868 
L 72.576 -91.765167 
L 72.938057 -91.432261 
L 73.300114 -91.100147 
L 73.662171 -90.768828 
L 74.024229 -90.438302 
L 74.386286 -90.108569 
L 74.748343 -89.779631 
L 75.1104 -89.451485 
L 75.472457 -89.124134 
L 75.834514 -88.797576 
L 76.196571 -88.471811 
L 76.558629 -88.14684 
L 76.920686 -87.822663 
L 77.282743 -87.499279 
L 77.6448 -87.176689 
L 78.006857 -86.854892 
L 78.368914 -86.533889 
L 78.730971 -86.21368 
L 79.093029 -85.894264 
L 79.455086 -85.575642 
L 79.817143 -85.257813 
L 80.1792 -84.940778 
L 80.541257 -84.624536 
L 80.903314 -84.309088 
L 81.265371 -83.994434 
L 81.627429 -83.680573 
L 81.989486 -83.367506 
L 82.351543 -83.055232 
L 82.7136 -82.743752 
L 83.075657 -82.433066 
L 83.437714 -82.123173 
L 83.799771 -81.814073 
L 84.161829 -81.505768 
L 84.523886 -81.198255 
L 84.885943 -80.891537 
L 85.248 -80.585612 
L 85.610057 -80.28048 
L 85.972114 -79.976143 
L 86.334171 -79.672598 
L 86.696229 -79.369848 
L 87.058286 -79.06789 
L 87.420343 -78.766727 
L 87.7824 -78.466357 
L 88.144457 -78.166781 
L 88.506514 -77.867998 
L 88.868571 -77.570009 
L 89.230629 -77.272813 
L 89.592686 -76.976411 
L 89.954743 -76.680802 
L 90.3168 -76.385988 
L 90.678857 -76.091966 
L 91.040914 -75.798738 
L 91.402971 -75.506304 
L 91.765029 -75.214664 
L 92.127086 -74.923817 
L 92.489143 -74.633763 
L 92.8512 -74.344503 
L 93.213257 -74.056037 
L 93.575314 -73.768365 
L 93.937371 -73.481485 
L 94.299429 -73.1954 
L 94.661486 -72.910108 
L 95.023543 -72.62561 
L 95.3856 -72.341905 
L 95.747657 -72.058994 
L 96.109714 -71.776876 
L 96.471771 -71.495552 
L 96.833829 -71.215022 
L 97.195886 -70.935285 
L 97.557943 -70.656341 
L 97.92 -70.378192 
L 98.282057 -70.100835 
L 98.644114 -69.824273 
L 99.006171 -69.548504 
L 99.368229 -69.273529 
L 99.730286 -68.999347 
L 100.092343 -68.725958 
L 100.4544 -68.453364 
L 100.816457 -68.181563 
L 101.178514 -67.910555 
L 101.540571 -67.640341 
L 101.902629 -67.370921 
L 102.264686 -67.102294 
L 102.626743 -66.834461 
L 102.9888 -66.567421 
L 103.350857 -66.301175 
L 103.712914 -66.035723 
L 104.074971 -65.771064 
L 104.437029 -65.507199 
L 104.799086 -65.244127 
L 105.161143 -64.981849 
L 105.5232 -64.720364 
L 105.885257 -64.459673 
L 106.247314 -64.199776 
L 106.609371 -63.940672 
L 106.971429 -63.682362 
L 107.333486 -63.424845 
L 107.695543 -63.168122 
L 108.0576 -62.912193 
L 108.419657 -62.657057 
L 108.781714 -62.402715 
L 109.143771 -62.149166 
L 109.505829 -61.896411 
L 109.867886 -61.644449 
L 110.229943 -61.393281 
L 110.592 -61.142907 
L 110.954057 -60.893326 
L 111.316114 -60.644539 
L 111.678171 -60.396545 
L 112.040229 -60.149345 
L 112.402286 -59.902938 
L 112.764343 -59.657325 
L 113.1264 -59.412506 
L 113.488457 -59.16848 
L 113.850514 -58.925248 
L 114.212571 -58.682809 
L 114.574629 -58.441164 
L 114.936686 -58.200313 
L 115.298743 -57.960255 
L 115.6608 -57.720991 
L 116.022857 -57.48252 
L 116.384914 -57.244843 
L 116.746971 -57.007959 
L 117.109029 -56.771869 
L 117.471086 -56.536573 
L 117.833143 -56.30207 
L 118.1952 -56.068361 
L 118.557257 -55.835445 
L 118.919314 -55.603323 
L 119.281371 -55.371994 
L 119.643429 -55.141459 
L 120.005486 -54.911718 
L 120.367543 -54.68277 
L 120.7296 -54.454616 
L 121.091657 -54.227255 
L 121.453714 -54.000688 
L 121.815771 -53.774915 
L 122.177829 -53.549935 
L 122.539886 -53.325749 
L 122.901943 -53.102356 
L 123.264 -52.879757 
L 123.626057 -52.657951 
L 123.988114 -52.436939 
L 124.350171 -52.216721 
L 124.712229 -51.997296 
L 125.074286 -51.778665 
L 125.436343 -51.560827 
L 125.7984 -51.343783 
L 126.160457 -51.127533 
L 126.522514 -50.912076 
L 126.884571 -50.697412 
L 127.246629 -50.483543 
L 127.608686 -50.270467 
L 127.970743 -50.058184 
L 128.3328 -49.846695 
L 128.694857 -49.635999 
L 129.056914 -49.426098 
L 129.418971 -49.216989 
L 129.781029 -49.008675 
L 130.143086 -48.801154 
L 130.505143 -48.594426 
L 130.8672 -48.388492 
L 131.229257 -48.183352 
L 131.591314 -47.979005 
L 131.953371 -47.775452 
L 132.315429 -47.572692 
L 132.677486 -47.370726 
L 133.039543 -47.169553 
L 133.4016 -46.969175 
L 133.763657 -46.769589 
L 134.125714 -46.570797 
L 134.487771 -46.372799 
L 134.849829 -46.175595 
L 135.211886 -45.979184 
L 135.573943 -45.783566 
L 135.936 -45.588742 
L 136.298057 -45.394712 
L 136.660114 -45.201476 
L 137.022171 -45.009032 
L 137.384229 -44.817383 
L 137.746286 -44.626527 
L 138.108343 -44.436465 
L 138.4704 -44.247196 
L 138.832457 -44.058721 
L 139.194514 -43.871039 
L 139.556571 -43.684151 
L 139.918629 -43.498056 
L 140.280686 -43.312756 
L 140.642743 -43.128248 
L 141.0048 -42.944535 
L 141.366857 -42.761614 
L 141.728914 -42.579488 
L 142.090971 -42.398155 
L 142.453029 -42.217615 
L 142.815086 -42.03787 
L 143.177143 -41.858917 
L 143.5392 -41.680759 
L 143.901257 -41.503394 
L 144.263314 -41.326822 
L 144.625371 -41.151044 
L 144.987429 -40.97606 
L 145.349486 -40.801869 
L 145.711543 -40.628472 
L 146.0736 -40.455868 
L 146.435657 -40.284058 
L 146.797714 -40.113042 
L 147.159771 -39.942819 
L 147.521829 -39.77339 
L 147.883886 -39.604754 
L 148.245943 -39.436912 
L 148.608 -39.269863 
L 148.970057 -39.103608 
L 149.332114 -38.938147 
L 149.694171 -38.773479 
L 150.056229 -38.609605 
L 150.418286 -38.446524 
L 150.780343 -38.284237 
L 151.1424 -38.122744 
L 151.504457 -37.962044 
L 151.866514 -37.802137 
L 152.228571 -37.643025 
L 152.590629 -37.484705 
L 152.952686 -37.32718 
L 153.314743 -37.170448 
L 153.6768 -37.014509 
L 154.038857 -36.859365 
L 154.400914 -36.705013 
L 154.762971 -36.551456 
L 155.125029 -36.398692 
L 155.487086 -36.246721 
L 155.849143 -36.095544 
L 156.2112 -35.945161 
L 156.573257 -35.795571 
L 156.935314 -35.646775 
L 157.297371 -35.498772 
L 157.659429 -35.351563 
L 158.021486 -35.205148 
L 158.383543 -35.059526 
L 158.7456 -34.914697 
L 159.107657 -34.770663 
L 159.469714 -34.627421 
L 159.831771 -34.484974 
L 160.193829 -34.34332 
L 160.555886 -34.202459 
L 160.917943 -34.062393 
L 161.28 -33.923119 
L 161.642057 -33.78464 
L 162.004114 -33.646954 
L 162.366171 -33.510061 
L 162.728229 -33.373962 
L 163.090286 -33.238657 
L 163.452343 -33.104145 
L 163.8144 -32.970427 
L 164.176457 -32.837502 
L 164.538514 -32.705371 
L 164.900571 -32.574034 
L 165.262629 -32.44349 
L 165.624686 -32.313739 
L 165.986743 -32.184783 
L 166.3488 -32.05662 
L 166.710857 -31.92925 
L 167.072914 -31.802674 
L 167.434971 -31.676892 
L 167.797029 -31.551903 
L 168.159086 -31.427708 
L 168.521143 -31.304306 
L 168.8832 -31.181698 
L 169.245257 -31.059883 
L 169.607314 -30.938862 
L 169.969371 -30.818635 
L 170.331429 -30.699201 
L 170.693486 -30.580561 
L 171.055543 -30.462715 
L 171.4176 -30.345662 
L 171.779657 -30.229402 
L 172.141714 -30.113936 
L 172.503771 -29.999264 
L 172.865829 -29.885385 
L 173.227886 -29.7723 
L 173.589943 -29.660009 
L 173.952 -29.548511 
L 174.314057 -29.437806 
L 174.676114 -29.327895 
L 175.038171 -29.218778 
L 175.400229 -29.110455 
L 175.762286 -29.002925 
L 176.124343 -28.896188 
L 176.4864 -28.790245 
L 176.848457 -28.685096 
L 177.210514 -28.58074 
L 177.572571 -28.477178 
L 177.934629 -28.374409 
L 178.296686 -28.272434 
L 178.658743 -28.171253 
L 179.0208 -28.070865 
L 179.382857 -27.971271 
L 179.744914 -27.87247 
L 180.106971 -27.774463 
L 180.469029 -27.677249 
L 180.831086 -27.58083 
L 181.193143 -27.485203 
L 181.5552 -27.39037 
L 181.917257 -27.296331 
L 182.279314 -27.203086 
L 182.641371 -27.110633 
L 183.003429 -27.018975 
L 183.365486 -26.92811 
L 183.727543 -26.838039 
L 184.0896 -26.748761 
L 184.451657 -26.660277 
L 184.813714 -26.572586 
L 185.175771 -26.485689 
L 185.537829 -26.399586 
L 185.899886 -26.314276 
L 186.261943 -26.22976 
L 186.624 -26.146037 
L 186.986057 -26.063108 
L 187.348114 -25.980973 
L 187.710171 -25.899631 
L 188.072229 -25.819082 
L 188.434286 -25.739328 
L 188.796343 -25.660366 
L 189.1584 -25.582199 
L 189.520457 -25.504825 
L 189.882514 -25.428244 
L 190.244571 -25.352457 
L 190.606629 -25.277464 
L 190.968686 -25.203264 
L 191.330743 -25.129858 
L 191.6928 -25.057246 
L 192.054857 -24.985427 
L 192.416914 -24.914401 
L 192.778971 -24.84417 
L 193.141029 -24.774731 
L 193.503086 -24.706087 
L 193.865143 -24.638236 
L 194.2272 -24.571178 
L 194.589257 -24.504914 
L 194.951314 -24.439444 
L 195.313371 -24.374767 
L 195.675429 -24.310884 
L 196.037486 -24.247794 
L 196.399543 -24.185498 
L 196.7616 -24.123996 
L 197.123657 -24.063287 
L 197.485714 -24.003372 
L 197.847771 -23.94425 
L 198.209829 -23.885922 
L 198.571886 -23.828387 
L 198.933943 -23.771646 
L 199.296 -23.715699 
L 199.658057 -23.660545 
L 200.020114 -23.606185 
L 200.382171 -23.552618 
L 200.744229 -23.499845 
L 201.106286 -23.447866 
L 201.468343 -23.39668 
L 201.8304 -23.346288 
L 202.192457 -23.296689 
L 202.554514 -23.247884 
L 202.916571 -23.199872 
L 203.278629 -23.152654 
L 203.640686 -23.10623 
L 204.002743 -23.060599 
L 204.3648 -23.015762 
L 204.726857 -22.971718 
L 205.088914 -22.928468 
L 205.450971 -22.886011 
L 205.813029 -22.844348 
L 206.175086 -22.803479 
L 206.537143 -22.763403 
L 206.8992 -22.724121 
L 207.261257 -22.685633 
L 207.623314 -22.647937 
L 207.985371 -22.611036 
L 208.347429 -22.574928 
L 208.709486 -22.539614 
L 209.071543 -22.505093 
L 209.4336 -22.471366 
L 209.795657 -22.438432 
L 210.157714 -22.406292 
L 210.519771 -22.374946 
L 210.881829 -22.344393 
L 211.243886 -22.314634 
L 211.605943 -22.285668 
L 211.968 -22.257496 
L 212.330057 -22.230118 
L 212.692114 -22.203533 
L 213.054171 -22.177741 
L 213.416229 -22.152744 
L 213.778286 -22.128539 
L 214.140343 -22.105129 
L 214.5024 -22.082512 
L 214.864457 -22.060688 
L 215.226514 -22.039659 
L 215.588571 -22.019422 
L 215.950629 -21.99998 
L 216.312686 -21.98133 
L 216.674743 -21.963475 
L 217.0368 -21.946413 
L 217.398857 -21.930145 
L 217.760914 -21.91467 
L 218.122971 -21.899988 
L 218.485029 -21.886101 
L 218.847086 -21.873007 
L 219.209143 -21.860706 
L 219.5712 -21.849199 
L 219.933257 -21.838486 
L 220.295314 -21.828566 
L 220.657371 -21.81944 
L 221.019429 -21.811108 
L 221.381486 -21.803569 
L 221.743543 -21.796823 
L 222.1056 -21.790871 
L 222.467657 -21.785713 
L 222.829714 -21.781348 
L 223.191771 -21.777777 
L 223.553829 -21.775 
L 223.915886 -21.773016 
L 224.277943 -21.771825 
L 224.64 -21.771429 
L 225.002057 -21.771825 
L 225.364114 -21.773016 
L 225.726171 -21.775 
L 226.088229 -21.777777 
L 226.450286 -21.781348 
L 226.812343 -21.785713 
L 227.1744 -21.790871 
L 227.536457 -21.796823 
L 227.898514 -21.803569 
L 228.260571 -21.811108 
L 228.622629 -21.81944 
L 228.984686 -21.828566 
L 229.346743 -21.838486 
L 229.7088 -21.849199 
L 230.070857 -21.860706 
L 230.432914 -21.873007 
L 230.794971 -21.886101 
L 231.157029 -21.899988 
L 231.519086 -21.91467 
L 231.881143 -21.930145 
L 232.2432 -21.946413 
L 232.605257 -21.963475 
L 232.967314 -21.98133 
L 233.329371 -21.99998 
L 233.691429 -22.019422 
L 234.053486 -22.039659 
L 234.415543 -22.060688 
L 234.7776 -22.082512 
L 235.139657 -22.105129 
L 235.501714 -22.128539 
L 235.863771 -22.152744 
L 236.225829 -22.177741 
L 236.587886 -22.203533 
L 236.949943 -22.230118 
L 237.312 -22.257496 
L 237.674057 -22.285668 
L 238.036114 -22.314634 
L 238.398171 -22.344393 
L 238.760229 -22.374946 
L 239.122286 -22.406292 
L 239.484343 -22.438432 
L 239.8464 -22.471366 
L 240.208457 -22.505093 
L 240.570514 -22.539614 
L 240.932571 -22.574928 
L 241.294629 -22.611036 
L 241.656686 -22.647937 
L 242.018743 -22.685633 
L 242.3808 -22.724121 
L 242.742857 -22.763403 
L 243.104914 -22.803479 
L 243.466971 -22.844348 
L 243.829029 -22.886011 
L 244.191086 -22.928468 
L 244.553143 -22.971718 
L 244.9152 -23.015762 
L 245.277257 -23.060599 
L 245.639314 -23.10623 
L 246.001371 -23.152654 
L 246.363429 -23.199872 
L 246.725486 -23.247884 
L 247.087543 -23.296689 
L 247.4496 -23.346288 
L 247.811657 -23.39668 
L 248.173714 -23.447866 
L 248.535771 -23.499845 
L 248.897829 -23.552618 
L 249.259886 -23.606185 
L 249.621943 -23.660545 
L 249.984 -23.715699 
L 250.346057 -23.771646 
L 250.708114 -23.828387 
L 251.070171 -23.885922 
L 251.432229 -23.94425 
L 251.794286 -24.003372 
L 252.156343 -24.063287 
L 252.5184 -24.123996 
L 252.880457 -24.185498 
L 253.242514 -24.247794 
L 253.604571 -24.310884 
L 253.966629 -24.374767 
L 254.328686 -24.439444 
L 254.690743 -24.504914 
L 255.0528 -24.571178 
L 255.414857 -24.638236 
L 255.776914 -24.706087 
L 256.138971 -24.774731 
L 256.501029 -24.84417 
L 256.863086 -24.914401 
L 257.225143 -24.985427 
L 257.5872 -25.057246 
L 257.949257 -25.129858 
L 258.311314 -25.203264 
L 258.673371 -25.277464 
L 259.035429 -25.352457 
L 259.397486 -25.428244 
L 259.759543 -25.504825 
L 260.1216 -25.582199 
L 260.483657 -25.660366 
L 260.845714 -25.739328 
L 261.207771 -25.819082 
L 261.569829 -25.899631 
L 261.931886 -25.980973 
L 262.293943 -26.063108 
L 262.656 -26.146037 
L 263.018057 -26.22976 
L 263.380114 -26.314276 
L 263.742171 -26.399586 
L 264.104229 -26.485689 
L 264.466286 -26.572586 
L 264.828343 -26.660277 
L 265.1904 -26.748761 
L 265.552457 -26.838039 
L 265.914514 -26.92811 
L 266.276571 -27.018975 
L 266.638629 -27.110633 
L 267.000686 -27.203086 
L 267.362743 -27.296331 
L 267.7248 -27.39037 
L 268.086857 -27.485203 
L 268.448914 -27.58083 
L 268.810971 -27.677249 
L 269.173029 -27.774463 
L 269.535086 -27.87247 
L 269.897143 -27.971271 
L 270.2592 -28.070865 
L 270.621257 -28.171253 
L 270.983314 -28.272434 
L 271.345371 -28.374409 
L 271.707429 -28.477178 
L 272.069486 -28.58074 
L 272.431543 -28.685096 
L 272.7936 -28.790245 
L 273.155657 -28.896188 
L 273.517714 -29.002925 
L 273.879771 -29.110455 
L 274.241829 -29.218778 
L 274.603886 -29.327895 
L 274.965943 -29.437806 
L 275.328 -29.548511 
L 275.690057 -29.660009 
L 276.052114 -29.7723 
L 276.414171 -29.885385 
L 276.776229 -29.999264 
L 277.138286 -30.113936 
L 277.500343 -30.229402 
L 277.8624 -30.345662 
L 278.224457 -30.462715 
L 278.586514 -30.580561 
L 278.948571 -30.699201 
L 279.310629 -30.818635 
L 279.672686 -30.938862 
L 280.034743 -31.059883 
L 280.3968 -31.181698 
L 280.758857 -31.304306 
L 281.120914 -31.427708 
L 281.482971 -31.551903 
L 281.845029 -31.676892 
L 282.207086 -31.802674 
L 282.569143 -31.92925 
L 282.9312 -32.05662 
L 283.293257 -32.184783 
L 283.655314 -32.313739 
L 284.017371 -32.44349 
L 284.379429 -32.574034 
L 284.741486 -32.705371 
L 285.103543 -32.837502 
L 285.4656 -32.970427 
L 285.827657 -33.104145 
L 286.189714 -33.238657 
L 286.551771 -33.373962 
L 286.913829 -33.510061 
L 287.275886 -33.646954 
L 287.637943 -33.78464 
L 288 -33.923119 
L 288.362057 -34.062393 
L 288.724114 -34.202459 
L 289.086171 -34.34332 
L 289.448229 -34.484974 
L 289.810286 -34.627421 
L 290.172343 -34.770663 
L 290.5344 -34.914697 
L 290.896457 -35.059526 
L 291.258514 -35.205148 
L 291.620571 -35.351563 
L 291.982629 -35.498772 
L 292.344686 -35.646775 
L 292.706743 -35.795571 
L 293.0688 -35.945161 
L 293.430857 -36.095544 
L 293.792914 -36.246721 
L 294.154971 -36.398692 
L 294.517029 -36.551456 
L 294.879086 -36.705013 
L 295.241143 -36.859365 
L 295.6032 -37.014509 
L 295.965257 -37.170448 
L 296.327314 -37.32718 
L 296.689371 -37.484705 
L 297.051429 -37.643025 
L 297.413486 -37.802137 
L 297.775543 -37.962044 
L 298.1376 -38.122744 
L 298.499657 -38.284237 
L 298.861714 -38.446524 
L 299.223771 -38.609605 
L 299.585829 -38.773479 
L 299.947886 -38.938147 
L 300.309943 -39.103608 
L 300.672 -39.269863 
L 301.034057 -39.436912 
L 301.396114 -39.604754 
L 301.758171 -39.77339 
L 302.120229 -39.942819 
L 302.482286 -40.113042 
L 302.844343 -40.284058 
L 303.2064 -40.455868 
L 303.568457 -40.628472 
L 303.930514 -40.801869 
L 304.292571 -40.97606 
L 304.654629 -41.151044 
L 305.016686 -41.326822 
L 305.378743 -41.503394 
L 305.7408 -41.680759 
L 306.102857 -41.858917 
L 306.464914 -42.03787 
L 306.826971 -42.217615 
L 307.189029 -42.398155 
L 307.551086 -42.579488 
L 307.913143 -42.761614 
L 308.2752 -42.944535 
L 308.637257 -43.128248 
L 308.999314 -43.312756 
L 309.361371 -43.498056 
L 309.723429 -43.684151 
L 310.085486 -43.871039 
L 310.447543 -44.058721 
L 310.8096 -44.247196 
L 311.171657 -44.436465 
L 311.533714 -44.626527 
L 311.895771 -44.817383 
L 312.257829 -45.009032 
L 312.619886 -45.201476 
L 312.981943 -45.394712 
L 313.344 -45.588742 
L 313.706057 -45.783566 
L 314.068114 -45.979184 
L 314.430171 -46.175595 
L 314.792229 -46.372799 
L 315.154286 -46.570797 
L 315.516343 -46.769589 
L 315.8784 -46.969175 
L 316.240457 -47.169553 
L 316.602514 -47.370726 
L 316.964571 -47.572692 
L 317.326629 -47.775452 
L 317.688686 -47.979005 
L 318.050743 -48.183352 
L 318.4128 -48.388492 
L 318.774857 -48.594426 
L 319.136914 -48.801154 
L 319.498971 -49.008675 
L 319.861029 -49.216989 
L 320.223086 -49.426098 
L 320.585143 -49.635999 
L 320.9472 -49.846695 
L 321.309257 -50.058184 
L 321.671314 -50.270467 
L 322.033371 -50.483543 
L 322.395429 -50.697412 
L 322.757486 -50.912076 
L 323.119543 -51.127533 
L 323.4816 -51.343783 
L 323.843657 -51.560827 
L 324.205714 -51.778665 
L 324.567771 -51.997296 
L 324.929829 -52.216721 
L 325.291886 -52.436939 
L 325.653943 -52.657951 
L 326.016 -52.879757 
L 326.378057 -53.102356 
L 326.740114 -53.325749 
L 327.102171 -53.549935 
L 327.464229 -53.774915 
L 327.826286 -54.000688 
L 328.188343 -54.227255 
L 328.5504 -54.454616 
L 328.912457 -54.68277 
L 329.274514 -54.911718 
L 329.636571 -55.141459 
L 329.998629 -55.371994 
L 330.360686 -55.603323 
L 330.722743 -55.835445 
L 331.0848 -56.068361 
L 331.446857 -56.30207 
L 331.808914 -56.536573 
L 332.170971 -56.771869 
L 332.533029 -57.007959 
L 332.895086 -57.244843 
L 333.257143 -57.48252 
L 333.6192 -57.720991 
L 333.981257 -57.960255 
L 334.343314 -58.200313 
L 334.705371 -58.441164 
L 335.067429 -58.682809 
L 335.429486 -58.925248 
L 335.791543 -59.16848 
L 336.1536 -59.412506 
L 336.515657 -59.657325 
L 336.877714 -59.902938 
L 337.239771 -60.149345 
L 337.601829 -60.396545 
L 337.963886 -60.644539 
L 338.325943 -60.893326 
L 338.688 -61.142907 
L 339.050057 -61.393281 
L 339.412114 -61.644449 
L 339.774171 -61.896411 
L 340.136229 -62.149166 
L 340.498286 -62.402715 
L 340.860343 -62.657057 
L 341.2224 -62.912193 
L 341.584457 -63.168122 
L 341.946514 -63.424845 
L 342.308571 -63.682362 
L 342.670629 -63.940672 
L 343.032686 -64.199776 
L 343.394743 -64.459673 
L 343.7568 -64.720364 
L 344.118857 -64.981849 
L 344.480914 -65.244127 
L 344.842971 -65.507199 
L 345.205029 -65.771064 
L 345.567086 -66.035723 
L 345.929143 -66.301175 
L 346.2912 -66.567421 
L 346.653257 -66.834461 
L 347.015314 -67.102294 
L 347.377371 -67.370921 
L 347.739429 -67.640341 
L 348.101486 -67.910555 
L 348.463543 -68.181563 
L 348.8256 -68.453364 
L 349.187657 -68.725958 
L 349.549714 -68.999347 
L 349.911771 -69.273529 
L 350.273829 -69.548504 
L 350.635886 -69.824273 
L 350.997943 -70.100835 
L 351.36 -70.378192 
L 351.722057 -70.656341 
L 352.084114 -70.935285 
L 352.446171 -71.215022 
L 352.808229 -71.495552 
L 353.170286 -71.776876 
L 353.532343 -72.058994 
L 353.8944 -72.341905 
L 354.256457 -72.62561 
L 354.618514 -72.910108 
L 354.980571 -73.1954 
L 355.342629 -73.481485 
L 355.704686 -73.768365 
L 356.066743 -74.056037 
L 356.4288 -74.344503 
L 356.790857 -74.633763 
L 357.152914 -74.923817 
L 357.514971 -75.214664 
L 357.877029 -75.506304 
L 358.239086 -75.798738 
L 358.601143 -76.091966 
L 358.9632 -76.385988 
L 359.325257 -76.680802 
L 359.687314 -76.976411 
L 360.049371 -77.272813 
L 360.411429 -77.570009 
L 360.773486 -77.867998 
L 361.135543 -78.166781 
L 361.4976 -78.466357 
L 361.859657 -78.766727 
L 362.221714 -79.06789 
L 362.583771 -79.369848 
L 362.945829 -79.672598 
L 363.307886 -79.976143 
L 363.669943 -80.28048 
L 364.032 -80.585612 
L 364.394057 -80.891537 
L 364.756114 -81.198255 
L 365.118171 -81.505768 
L 365.480229 -81.814073 
L 365.842286 -82.123173 
L 366.204343 -82.433066 
L 366.5664 -82.743752 
L 366.928457 -83.055232 
L 367.290514 -83.367506 
L 367.652571 -83.680573 
L 368.014629 -83.994434 
L 368.376686 -84.309088 
L 368.738743 -84.624536 
L 369.1008 -84.940778 
L 369.462857 -85.257813 
L 369.824914 -85.575642 
L 370.186971 -85.894264 
L 370.549029 -86.21368 
L 370.911086 -86.533889 
L 371.273143 -86.854892 
L 371.6352 -87.176689 
L 371.997257 -87.499279 
L 372.359314 -87.822663 
L 372.721371 -88.14684 
L 373.083429 -88.471811 
L 373.445486 -88.797576 
L 373.807543 -89.124134 
L 374.1696 -89.451485 
L 374.531657 -89.779631 
L 374.893714 -90.108569 
L 375.255771 -90.438302 
L 375.617829 -90.768828 
L 375.979886 -91.100147 
L 376.341943 -91.432261 
L 376.704 -91.765167 
L 377.066057 -92.098868 
L 377.428114 -92.433362 
L 377.790171 -92.768649 
L 378.152229 -93.10473 
L 378.514286 -93.441605 
L 378.876343 -93.779273 
L 379.2384 -94.117735 
L 379.600457 -94.45699 
L 379.962514 -94.797039 
L 380.324571 -95.137882 
L 380.686629 -95.479518 
L 381.048686 -95.821947 
L 381.410743 -96.165171 
L 381.7728 -96.509187 
L 382.134857 -96.853998 
L 382.134857 -97.546002 
L 382.134857 -97.546002 
L 381.7728 -97.890813 
L 381.410743 -98.234829 
L 381.048686 -98.578053 
L 380.686629 -98.920482 
L 380.324571 -99.262118 
L 379.962514 -99.602961 
L 379.600457 -99.94301 
L 379.2384 -100.282265 
L 378.876343 -100.620727 
L 378.514286 -100.958395 
L 378.152229 -101.29527 
L 377.790171 -101.631351 
L 377.428114 -101.966638 
L 377.066057 -102.301132 
L 376.704 -102.634833 
L 376.341943 -102.967739 
L 375.979886 -103.299853 
L 375.617829 -103.631172 
L 375.255771 -103.961698 
L 374.893714 -104.291431 
L 374.531657 -104.620369 
L 374.1696 -104.948515 
L 373.807543 -105.275866 
L 373.445486 -105.602424 
L 373.083429 -105.928189 
L 372.721371 -106.25316 
L 372.359314 -106.577337 
L 371.997257 -106.900721 
L 371.6352 -107.223311 
L 371.273143 -107.545108 
L 370.911086 -107.866111 
L 370.549029 -108.18632 
L 370.186971 -108.505736 
L 369.824914 -108.824358 
L 369.462857 -109.142187 
L 369.1008 -109.459222 
L 368.738743 -109.775464 
L 368.376686 -110.090912 
L 368.014629 -110.405566 
L 367.652571 -110.719427 
L 367.290514 -111.032494 
L 366.928457 -111.344768 
L 366.5664 -111.656248 
L 366.204343 -111.966934 
L 365.842286 -112.276827 
L 365.480229 -112.585927 
L 365.118171 -112.894232 
L 364.756114 -113.201745 
L 364.394057 -113.508463 
L 364.032 -113.814388 
L 363.669943 -114.11952 
L 363.307886 -114.423857 
L 362.945829 -114.727402 
L 362.583771 -115.030152 
L 362.221714 -115.33211 
L 361.859657 -115.633273 
L 361.4976 -115.933643 
L 361.135543 -116.233219 
L 360.773486 -116.532002 
L 360.411429 -116.829991 
L 360.049371 -117.127187 
L 359.687314 -117.423589 
L 359.325257 -117.719198 
L 358.9632 -118.014012 
L 358.601143 -118.308034 
L 358.239086 -118.601262 
L 357.877029 -118.893696 
L 357.514971 -119.185336 
L 357.152914 -119.476183 
L 356.790857 -119.766237 
L 356.4288 -120.055497 
L 356.066743 -120.343963 
L 355.704686 -120.631635 
L 355.342629 -120.918515 
L 354.980571 -121.2046 
L 354.618514 -121.489892 
L 354.256457 -121.77439 
L 353.8944 -122.058095 
L 353.532343 -122.341006 
L 353.170286 -122.623124 
L 352.808229 -122.904448 
L 352.446171 -123.184978 
L 352.084114 -123.464715 
L 351.722057 -123.743659 
L 351.36 -124.021808 
L 350.997943 -124.299165 
L 350.635886 -124.575727 
L 350.273829 -124.851496 
L 349.911771 -125.126471 
L 349.549714 -125.400653 
L 349.187657 -125.674042 
L 348.8256 -125.946636 
L 348.463543 -126.218437 
L 348.101486 -126.489445 
L 347.739429 -126.759659 
L 347.377371 -127.029079 
L 347.015314 -127.297706 
L 346.653257 -127.565539 
L 346.2912 -127.832579 
L 345.929143 -128.098825 
L 345.567086 -128.364277 
L 345.205029 -128.628936 
L 344.842971 -128.892801 
L 344.480914 -129.155873 
L 344.118857 -129.418151 
L 343.7568 -129.679636 
L 343.394743 -129.940327 
L 343.032686 -130.200224 
L 342.670629 -130.459328 
L 342.308571 -130.717638 
L 341.946514 -130.975155 
L 341.584457 -131.231878 
L 341.2224 -131.487807 
L 340.860343 -131.742943 
L 340.498286 -131.997285 
L 340.136229 -132.250834 
L 339.774171 -132.503589 
L 339.412114 -132.755551 
L 339.050057 -133.006719 
L 338.688 -133.257093 
L 338.325943 -133.506674 
L 337.963886 -133.755461 
L 337.601829 -134.003455 
L 337.239771 -134.250655 
L 336.877714 -134.497062 
L 336.515657 -134.742675 
L 336.1536 -134.987494 
L 335.791543 -135.23152 
L 335.429486 -135.474752 
L 335.067429 -135.717191 
L 334.705371 -135.958836 
L 334.343314 -136.199687 
L 333.981257 -136.439745 
L 333.6192 -136.679009 
L 333.257143 -136.91748 
L 332.895086 -137.155157 
L 332.533029 -137.392041 
L 332.170971 -137.628131 
L 331.808914 -137.863427 
L 331.446857 -138.09793 
L 331.0848 -138.331639 
L 330.722743 -138.564555 
L 330.360686 -138.796677 
L 329.998629 -139.028006 
L 329.636571 -139.258541 
L 329.274514 -139.488282 
L 328.912457 -139.71723 
L 328.5504 -139.945384 
L 328.188343 -140.172745 
L 327.826286 -140.399312 
L 327.464229 -140.625085 
L 327.102171 -140.850065 
L 326.740114 -141.074251 
L 326.378057 -141.297644 
L 326.016 -141.520243 
L 325.653943 -141.742049 
L 325.291886 -141.963061 
L 324.929829 -142.183279 
L 324.567771 -142.402704 
L 324.205714 -142.621335 
L 323.843657 -142.839173 
L 323.4816 -143.056217 
L 323.119543 -143.272467 
L 322.757486 -143.487924 
L 322.395429 -143.702588 
L 322.033371 -143.916457 
L 321.671314 -144.129533 
L 321.309257 -144.341816 
L 320.9472 -144.553305 
L 320.585143 -144.764001 
L 320.223086 -144.973902 
L 319.861029 -145.183011 
L 319.498971 -145.391325 
L 319.136914 -145.598846 
L 318.774857 -145.805574 
L 318.4128 -146.011508 
L 318.050743 -146.216648 
L 317.688686 -146.420995 
L 317.326629 -146.624548 
L 316.964571 -146.827308 
L 316.602514 -147.029274 
L 316.240457 -147.230447 
L 315.8784 -147.430825 
L 315.516343 -147.630411 
L 315.154286 -147.829203 
L 314.792229 -148.027201 
L 314.430171 -148.224405 
L 314.068114 -148.420816 
L 313.706057 -148.616434 
L 313.344 -148.811258 
L 312.981943 -149.005288 
L 312.619886 -149.198524 
L 312.257829 -149.390968 
L 311.895771 -149.582617 
L 311.533714 -149.773473 
L 311.171657 -149.963535 
L 310.8096 -150.152804 
L 310.447543 -150.341279 
L 310.085486 -150.528961 
L 309.723429 -150.715849 
L 309.361371 -150.901944 
L 308.999314 -151.087244 
L 308.637257 -151.271752 
L 308.2752 -151.455465 
L 307.913143 -151.638386 
L 307.551086 -151.820512 
L 307.189029 -152.001845 
L 306.826971 -152.182385 
L 306.464914 -152.36213 
L 306.102857 -152.541083 
L 305.7408 -152.719241 
L 305.378743 -152.896606 
L 305.016686 -153.073178 
L 304.654629 -153.248956 
L 304.292571 -153.42394 
L 303.930514 -153.598131 
L 303.568457 -153.771528 
L 303.2064 -153.944132 
L 302.844343 -154.115942 
L 302.482286 -154.286958 
L 302.120229 -154.457181 
L 301.758171 -154.62661 
L 301.396114 -154.795246 
L 301.034057 -154.963088 
L 300.672 -155.130137 
L 300.309943 -155.296392 
L 299.947886 -155.461853 
L 299.585829 -155.626521 
L 299.223771 -155.790395 
L 298.861714 -155.953476 
L 298.499657 -156.115763 
L 298.1376 -156.277256 
L 297.775543 -156.437956 
L 297.413486 -156.597863 
L 297.051429 -156.756975 
L 296.689371 -156.915295 
L 296.327314 -157.07282 
L 295.965257 -157.229552 
L 295.6032 -157.385491 
L 295.241143 -157.540635 
L 294.879086 -157.694987 
L 294.517029 -157.848544 
L 294.154971 -158.001308 
L 293.792914 -158.153279 
L 293.430857 -158.304456 
L 293.0688 -158.454839 
L 292.706743 -158.604429 
L 292.344686 -158.753225 
L 291.982629 -158.901228 
L 291.620571 -159.048437 
L 291.258514 -159.194852 
L 290.896457 -159.340474 
L 290.5344 -159.485303 
L 290.172343 -159.629337 
L 289.810286 -159.772579 
L 289.448229 -159.915026 
L 289.086171 -160.05668 
L 288.724114 -160.197541 
L 288.362057 -160.337607 
L 288 -160.476881 
L 287.637943 -160.61536 
L 287.275886 -160.753046 
L 286.913829 -160.889939 
L 286.551771 -161.026038 
L 286.189714 -161.161343 
L 285.827657 -161.295855 
L 285.4656 -161.429573 
L 285.103543 -161.562498 
L 284.741486 -161.694629 
L 284.379429 -161.825966 
L 284.017371 -161.95651 
L 283.655314 -162.086261 
L 283.293257 -162.215217 
L 282.9312 -162.34338 
L 282.569143 -162.47075 
L 282.207086 -162.597326 
L 281.845029 -162.723108 
L 281.482971 -162.848097 
L 281.120914 -162.972292 
L 280.758857 -163.095694 
L 280.3968 -163.218302 
L 280.034743 -163.340117 
L 279.672686 -163.461138 
L 279.310629 -163.581365 
L 278.948571 -163.700799 
L 278.586514 -163.819439 
L 278.224457 -163.937285 
L 277.8624 -164.054338 
L 277.500343 -164.170598 
L 277.138286 -164.286064 
L 276.776229 -164.400736 
L 276.414171 -164.514615 
L 276.052114 -164.6277 
L 275.690057 -164.739991 
L 275.328 -164.851489 
L 274.965943 -164.962194 
L 274.603886 -165.072105 
L 274.241829 -165.181222 
L 273.879771 -165.289545 
L 273.517714 -165.397075 
L 273.155657 -165.503812 
L 272.7936 -165.609755 
L 272.431543 -165.714904 
L 272.069486 -165.81926 
L 271.707429 -165.922822 
L 271.345371 -166.025591 
L 270.983314 -166.127566 
L 270.621257 -166.228747 
L 270.2592 -166.329135 
L 269.897143 -166.428729 
L 269.535086 -166.52753 
L 269.173029 -166.625537 
L 268.810971 -166.722751 
L 268.448914 -166.81917 
L 268.086857 -166.914797 
L 267.7248 -167.00963 
L 267.362743 -167.103669 
L 267.000686 -167.196914 
L 266.638629 -167.289367 
L 266.276571 -167.381025 
L 265.914514 -167.47189 
L 265.552457 -167.561961 
L 265.1904 -167.651239 
L 264.828343 -167.739723 
L 264.466286 -167.827414 
L 264.104229 -167.914311 
L 263.742171 -168.000414 
L 263.380114 -168.085724 
L 263.018057 -168.17024 
L 262.656 -168.253963 
L 262.293943 -168.336892 
L 261.931886 -168.419027 
L 261.569829 -168.500369 
L 261.207771 -168.580918 
L 260.845714 -168.660672 
L 260.483657 -168.739634 
L 260.1216 -168.817801 
L 259.759543 -168.895175 
L 259.397486 -168.971756 
L 259.035429 -169.047543 
L 258.673371 -169.122536 
L 258.311314 -169.196736 
L 257.949257 -169.270142 
L 257.5872 -169.342754 
L 257.225143 -169.414573 
L 256.863086 -169.485599 
L 256.501029 -169.55583 
L 256.138971 -169.625269 
L 255.776914 -169.693913 
L 255.414857 -169.761764 
L 255.0528 -169.828822 
L 254.690743 -169.895086 
L 254.328686 -169.960556 
L 253.966629 -170.025233 
L 253.604571 -170.089116 
L 253.242514 -170.152206 
L 252.880457 -170.214502 
L 252.5184 -170.276004 
L 252.156343 -170.336713 
L 251.794286 -170.396628 
L 251.432229 -170.45575 
L 251.070171 -170.514078 
L 250.708114 -170.571613 
L 250.346057 -170.628354 
L 249.984 -170.684301 
L 249.621943 -170.739455 
L 249.259886 -170.793815 
L 248.897829 -170.847382 
L 248.535771 -170.900155 
L 248.173714 -170.952134 
L 247.811657 -171.00332 
L 247.4496 -171.053712 
L 247.087543 -171.103311 
L 246.725486 -171.152116 
L 246.363429 -171.200128 
L 246.001371 -171.247346 
L 245.639314 -171.29377 
L 245.277257 -171.339401 
L 244.9152 -171.384238 
L 244.553143 -171.428282 
L 244.191086 -171.471532 
L 243.829029 -171.513989 
L 243.466971 -171.555652 
L 243.104914 -171.596521 
L 242.742857 -171.636597 
L 242.3808 -171.675879 
L 242.018743 -171.714367 
L 241.656686 -171.752063 
L 241.294629 -171.788964 
L 240.932571 -171.825072 
L 240.570514 -171.860386 
L 240.208457 -171.894907 
L 239.8464 -171.928634 
L 239.484343 -171.961568 
L 239.122286 -171.993708 
L 238.760229 -172.025054 
L 238.398171 -172.055607 
L 238.036114 -172.085366 
L 237.674057 -172.114332 
L 237.312 -172.142504 
L 236.949943 -172.169882 
L 236.587886 -172.196467 
L 236.225829 -172.222259 
L 235.863771 -172.247256 
L 235.501714 -172.271461 
L 235.139657 -172.294871 
L 234.7776 -172.317488 
L 234.415543 -172.339312 
L 234.053486 -172.360341 
L 233.691429 -172.380578 
L 233.329371 -172.40002 
L 232.967314 -172.41867 
L 232.605257 -172.436525 
L 232.2432 -172.453587 
L 231.881143 -172.469855 
L 231.519086 -172.48533 
L 231.157029 -172.500012 
L 230.794971 -172.513899 
L 230.432914 -172.526993 
L 230.070857 -172.539294 
L 229.7088 -172.550801 
L 229.346743 -172.561514 
L 228.984686 -172.571434 
L 228.622629 -172.58056 
L 228.260571 -172.588892 
L 227.898514 -172.596431 
L 227.536457 -172.603177 
L 227.1744 -172.609129 
L 226.812343 -172.614287 
L 226.450286 -172.618652 
L 226.088229 -172.622223 
L 225.726171 -172.625 
L 225.364114 -172.626984 
L 225.002057 -172.628175 
L 224.64 -172.628571 
L 224.277943 -172.628175 
L 223.915886 -172.626984 
L 223.553829 -172.625 
L 223.191771 -172.622223 
L 222.829714 -172.618652 
L 222.467657 -172.614287 
L 222.1056 -172.609129 
L 221.743543 -172.603177 
L 221.381486 -172.596431 
L 221.019429 -172.588892 
L 220.657371 -172.58056 
L 220.295314 -172.571434 
L 219.933257 -172.561514 
L 219.5712 -172.550801 
L 219.209143 -172.539294 
L 218.847086 -172.526993 
L 218.485029 -172.513899 
L 218.122971 -172.500012 
L 217.760914 -172.48533 
L 217.398857 -172.469855 
L 217.0368 -172.453587 
L 216.674743 -172.436525 
L 216.312686 -172.41867 
L 215.950629 -172.40002 
L 215.588571 -172.380578 
L 215.226514 -172.360341 
L 214.864457 -172.339312 
L 214.5024 -172.317488 
L 214.140343 -172.294871 
L 213.778286 -172.271461 
L 213.416229 -172.247256 
L 213.054171 -172.222259 
L 212.692114 -172.196467 
L 212.330057 -172.169882 
L 211.968 -172.142504 
L 211.605943 -172.114332 
L 211.243886 -172.085366 
L 210.881829 -172.055607 
L 210.519771 -172.025054 
L 210.157714 -171.993708 
L 209.795657 -171.961568 
L 209.4336 -171.928634 
L 209.071543 -171.894907 
L 208.709486 -171.860386 
L 208.347429 -171.825072 
L 207.985371 -171.788964 
L 207.623314 -171.752063 
L 207.261257 -171.714367 
L 206.8992 -171.675879 
L 206.537143 -171.636597 
L 206.175086 -171.596521 
L 205.813029 -171.555652 
L 205.450971 -171.513989 
L 205.088914 -171.471532 
L 204.726857 -171.428282 
L 204.3648 -171.384238 
L 204.002743 -171.339401 
L 203.640686 -171.29377 
L 203.278629 -171.247346 
L 202.916571 -171.200128 
L 202.554514 -171.152116 
L 202.192457 -171.103311 
L 201.8304 -171.053712 
L 201.468343 -171.00332 
L 201.106286 -170.952134 
L 200.744229 -170.900155 
L 200.382171 -170.847382 
L 200.020114 -170.793815 
L 199.658057 -170.739455 
L 199.296 -170.684301 
L 198.933943 -170.628354 
L 198.571886 -170.571613 
L 198.209829 -170.514078 
L 197.847771 -170.45575 
L 197.485714 -170.396628 
L 197.123657 -170.336713 
L 196.7616 -170.276004 
L 196.399543 -170.214502 
L 196.037486 -170.152206 
L 195.675429 -170.089116 
L 195.313371 -170.025233 
L 194.951314 -169.960556 
L 194.589257 -169.895086 
L 194.2272 -169.828822 
L 193.865143 -169.761764 
L 193.503086 -169.693913 
L 193.141029 -169.625269 
L 192.778971 -169.55583 
L 192.416914 -169.485599 
L 192.054857 -169.414573 
L 191.6928 -169.342754 
L 191.330743 -169.270142 
L 190.968686 -169.196736 
L 190.606629 -169.122536 
L 190.244571 -169.047543 
L 189.882514 -168.971756 
L 189.520457 -168.895175 
L 189.1584 -168.817801 
L 188.796343 -168.739634 
L 188.434286 -168.660672 
L 188.072229 -168.580918 
L 187.710171 -168.500369 
L 187.348114 -168.419027 
L 186.986057 -168.336892 
L 186.624 -168.253963 
L 186.261943 -168.17024 
L 185.899886 -168.085724 
L 185.537829 -168.000414 
L 185.175771 -167.914311 
L 184.813714 -167.827414 
L 184.451657 -167.739723 
L 184.0896 -167.651239 
L 183.727543 -167.561961 
L 183.365486 -167.47189 
L 183.003429 -167.381025 
L 182.641371 -167.289367 
L 182.279314 -167.196914 
L 181.917257 -167.103669 
L 181.5552 -167.00963 
L 181.193143 -166.914797 
L 180.831086 -166.81917 
L 180.469029 -166.722751 
L 180.106971 -166.625537 
L 179.744914 -166.52753 
L 179.382857 -166.428729 
L 179.0208 -166.329135 
L 178.658743 -166.228747 
L 178.296686 -166.127566 
L 177.934629 -166.025591 
L 177.572571 -165.922822 
L 177.210514 -165.81926 
L 176.848457 -165.714904 
L 176.4864 -165.609755 
L 176.124343 -165.503812 
L 175.762286 -165.397075 
L 175.400229 -165.289545 
L 175.038171 -165.181222 
L 174.676114 -165.072105 
L 174.314057 -164.962194 
L 173.952 -164.851489 
L 173.589943 -164.739991 
L 173.227886 -164.6277 
L 172.865829 -164.514615 
L 172.503771 -164.400736 
L 172.141714 -164.286064 
L 171.779657 -164.170598 
L 171.4176 -164.054338 
L 171.055543 -163.937285 
L 170.693486 -163.819439 
L 170.331429 -163.700799 
L 169.969371 -163.581365 
L 169.607314 -163.461138 
L 169.245257 -163.340117 
L 168.8832 -163.218302 
L 168.521143 -163.095694 
L 168.159086 -162.972292 
L 167.797029 -162.848097 
L 167.434971 -162.723108 
L 167.072914 -162.597326 
L 166.710857 -162.47075 
L 166.3488 -162.34338 
L 165.986743 -162.215217 
L 165.624686 -162.086261 
L 165.262629 -161.95651 
L 164.900571 -161.825966 
L 164.538514 -161.694629 
L 164.176457 -161.562498 
L 163.8144 -161.429573 
L 163.452343 -161.295855 
L 163.090286 -161.161343 
L 162.728229 -161.026038 
L 162.366171 -160.889939 
L 162.004114 -160.753046 
L 161.642057 -160.61536 
L 161.28 -160.476881 
L 160.917943 -160.337607 
L 160.555886 -160.197541 
L 160.193829 -160.05668 
L 159.831771 -159.915026 
L 159.469714 -159.772579 
L 159.107657 -159.629337 
L 158.7456 -159.485303 
L 158.383543 -159.340474 
L 158.021486 -159.194852 
L 157.659429 -159.048437 
L 157.297371 -158.901228 
L 156.935314 -158.753225 
L 156.573257 -158.604429 
L 156.2112 -158.454839 
L 155.849143 -158.304456 
L 155.487086 -158.153279 
L 155.125029 -158.001308 
L 154.762971 -157.848544 
L 154.400914 -157.694987 
L 154.038857 -157.540635 
L 153.6768 -157.385491 
L 153.314743 -157.229552 
L 152.952686 -157.07282 
L 152.590629 -156.915295 
L 152.228571 -156.756975 
L 151.866514 -156.597863 
L 151.504457 -156.437956 
L 151.1424 -156.277256 
L 150.780343 -156.115763 
L 150.418286 -155.953476 
L 150.056229 -155.790395 
L 149.694171 -155.626521 
L 149.332114 -155.461853 
L 148.970057 -155.296392 
L 148.608 -155.130137 
L 148.245943 -154.963088 
L 147.883886 -154.795246 
L 147.521829 -154.62661 
L 147.159771 -154.457181 
L 146.797714 -154.286958 
L 146.435657 -154.115942 
L 146.0736 -153.944132 
L 145.711543 -153.771528 
L 145.349486 -153.598131 
L 144.987429 -153.42394 
L 144.625371 -153.248956 
L 144.263314 -153.073178 
L 143.901257 -152.896606 
L 143.5392 -152.719241 
L 143.177143 -152.541083 
L 142.815086 -152.36213 
L 142.453029 -152.182385 
L 142.090971 -152.001845 
L 141.728914 -151.820512 
L 141.366857 -151.638386 
L 141.0048 -151.455465 
L 140.642743 -151.271752 
L 140.280686 -151.087244 
L 139.918629 -150.901944 
L 139.556571 -150.715849 
L 139.194514 -150.528961 
L 138.832457 -150.341279 
L 138.4704 -150.152804 
L 138.108343 -149.963535 
L 137.746286 -149.773473 
L 137.384229 -149.582617 
L 137.022171 -149.390968 
L 136.660114 -149.198524 
L 136.298057 -149.005288 
L 135.936 -148.811258 
L 135.573943 -148.616434 
L 135.211886 -148.420816 
L 134.849829 -148.224405 
L 134.487771 -148.027201 
L 134.125714 -147.829203 
L 133.763657 -147.630411 
L 133.4016 -147.430825 
L 133.039543 -147.230447 
L 132.677486 -147.029274 
L 132.315429 -146.827308 
L 131.953371 -146.624548 
L 131.591314 -146.420995 
L 131.229257 -146.216648 
L 130.8672 -146.011508 
L 130.505143 -145.805574 
L 130.143086 -145.598846 
L 129.781029 -145.391325 
L 129.418971 -145.183011 
L 129.056914 -144.973902 
L 128.694857 -144.764001 
L 128.3328 -144.553305 
L 127.970743 -144.341816 
L 127.608686 -144.129533 
L 127.246629 -143.916457 
L 126.884571 -143.702588 
L 126.522514 -143.487924 
L 126.160457 -143.272467 
L 125.7984 -143.056217 
L 125.436343 -142.839173 
L 125.074286 -142.621335 
L 124.712229 -142.402704 
L 124.350171 -142.183279 
L 123.988114 -141.963061 
L 123.626057 -141.742049 
L 123.264 -141.520243 
L 122.901943 -141.297644 
L 122.539886 -141.074251 
L 122.177829 -140.850065 
L 121.815771 -140.625085 
L 121.453714 -140.399312 
L 121.091657 -140.172745 
L 120.7296 -139.945384 
L 120.367543 -139.71723 
L 120.005486 -139.488282 
L 119.643429 -139.258541 
L 119.281371 -139.028006 
L 118.919314 -138.796677 
L 118.557257 -138.564555 
L 118.1952 -138.331639 
L 117.833143 -138.09793 
L 117.471086 -137.863427 
L 117.109029 -137.628131 
L 116.746971 -137.392041 
L 116.384914 -137.155157 
L 116.022857 -136.91748 
L 115.6608 -136.679009 
L 115.298743 -136.439745 
L 114.936686 -136.199687 
L 114.574629 -135.958836 
L 114.212571 -135.717191 
L 113.850514 -135.474752 
L 113.488457 -135.23152 
L 113.1264 -134.987494 
L 112.764343 -134.742675 
L 112.402286 -134.497062 
L 112.040229 -134.250655 
L 111.678171 -134.003455 
L 111.316114 -133.755461 
L 110.954057 -133.506674 
L 110.592 -133.257093 
L 110.229943 -133.006719 
L 109.867886 -132.755551 
L 109.505829 -132.503589 
L 109.143771 -132.250834 
L 108.781714 -131.997285 
L 108.419657 -131.742943 
L 108.0576 -131.487807 
L 107.695543 -131.231878 
L 107.333486 -130.975155 
L 106.971429 -130.717638 
L 106.609371 -130.459328 
L 106.247314 -130.200224 
L 105.885257 -129.940327 
L 105.5232 -129.679636 
L 105.161143 -129.418151 
L 104.799086 -129.155873 
L 104.437029 -128.892801 
L 104.074971 -128.628936 
L 103.712914 -128.364277 
L 103.350857 -128.098825 
L 102.9888 -127.832579 
L 102.626743 -127.565539 
L 102.264686 -127.297706 
L 101.902629 -127.029079 
L 101.540571 -126.759659 
L 101.178514 -126.489445 
L 100.816457 -126.218437 
L 100.4544 -125.946636 
L 100.092343 -125.674042 
L 99.730286 -125.400653 
L 99.368229 -125.126471 
L 99.006171 -124.851496 
L 98.644114 -124.575727 
L 98.282057 -124.299165 
L 97.92 -124.021808 
L 97.557943 -123.743659 
L 97.195886 -123.464715 
L 96.833829 -123.184978 
L 96.471771 -122.904448 
L 96.109714 -122.623124 
L 95.747657 -122.341006 
L 95.3856 -122.058095 
L 95.023543 -121.77439 
L 94.661486 -121.489892 
L 94.299429 -121.2046 
L 93.937371 -120.918515 
L 93.575314 -120.631635 
L 93.213257 -120.343963 
L 92.8512 -120.055497 
L 92.489143 -119.766237 
L 92.127086 -119.476183 
L 91.765029 -119.185336 
L 91.402971 -118.893696 
L 91.040914 -118.601262 
L 90.678857 -118.308034 
L 90.3168 -118.014012 
L 89.954743 -117.719198 
L 89.592686 -117.423589 
L 89.230629 -117.127187 
L 88.868571 -116.829991 
L 88.506514 -116.532002 
L 88.144457 -116.233219 
L 87.7824 -115.933643 
L 87.420343 -115.633273 
L 87.058286 -115.33211 
L 86.696229 -115.030152 
L 86.334171 -114.727402 
L 85.972114 -114.423857 
L 85.610057 -114.11952 
L 85.248 -113.814388 
L 84.885943 -113.508463 
L 84.523886 -113.201745 
L 84.161829 -112.894232 
L 83.799771 -112.585927 
L 83.437714 -112.276827 
L 83.075657 -111.966934 
L 82.7136 -111.656248 
L 82.351543 -111.344768 
L 81.989486 -111.032494 
L 81.627429 -110.719427 
L 81.265371 -110.405566 
L 80.903314 -110.090912 
L 80.541257 -109.775464 
L 80.1792 -109.459222 
L 79.817143 -109.142187 
L 79.455086 -108.824358 
L 79.093029 -108.505736 
L 78.730971 -108.18632 
L 78.368914 -107.866111 
L 78.006857 -107.545108 
L 77.6448 -107.223311 
L 77.282743 -106.900721 
L 76.920686 -106.577337 
L 76.558629 -106.25316 
L 76.196571 -105.928189 
L 75.834514 -105.602424 
L 75.472457 -105.275866 
L 75.1104 -104.948515 
L 74.748343 -104.620369 
L 74.386286 -104.291431 
L 74.024229 -103.961698 
L 73.662171 -103.631172 
L 73.300114 -103.299853 
L 72.938057 -102.967739 
L 72.576 -102.634833 
L 72.213943 -102.301132 
L 71.851886 -101.966638 
L 71.489829 -101.631351 
L 71.127771 -101.29527 
L 70.765714 -100.958395 
L 70.403657 -100.620727 
L 70.0416 -100.282265 
L 69.679543 -99.94301 
L 69.317486 -99.602961 
L 68.955429 -99.262118 
L 68.593371 -98.920482 
L 68.231314 -98.578053 
L 67.869257 -98.234829 
L 67.5072 -97.890813 
L 67.145143 -97.546002 
z
" id="m5bee4a5d2a" style="stroke:#0000ff;stroke-opacity:0.1;"/>
    </defs>
    <g clip-path="url(#pce82fa2970)">
     <use style="fill:#0000ff;fill-opacity:0.1;stroke:#0000ff;stroke-opacity:0.1;" x="0" xlink:href="#m5bee4a5d2a" y="180"/>
    </g>
   </g>
   <g id="matplotlib.axis_1">
    <g id="xtick_1">
     <g id="line2d_1">
      <defs>
       <path d="M 0 0 
L 0 3.5 
" id="m2bb9761d9e" style="stroke:#000000;stroke-width:0.8;"/>
      </defs>
      <g>
       <use style="stroke:#000000;stroke-width:0.8;" x="75.653486" xlink:href="#m2bb9761d9e" y="162"/>
      </g>
     </g>
     <g id="text_1">
      <!-- 1950 -->
      <g transform="translate(62.928486 176.598438)scale(0.1 -0.1)">
       <defs>
        <path d="M 794 531 
L 1825 531 
L 1825 4091 
L 703 3866 
L 703 4441 
L 1819 4666 
L 2450 4666 
L 2450 531 
L 3481 531 
L 3481 0 
L 794 0 
L 794 531 
z
" id="DejaVuSans-31" transform="scale(0.015625)"/>
        <path d="M 703 97 
L 703 672 
Q 941 559 1184 500 
Q 1428 441 1663 441 
Q 2288 441 2617 861 
Q 2947 1281 2994 2138 
Q 2813 1869 2534 1725 
Q 2256 1581 1919 1581 
Q 1219 1581 811 2004 
Q 403 2428 403 3163 
Q 403 3881 828 4315 
Q 1253 4750 1959 4750 
Q 2769 4750 3195 4129 
Q 3622 3509 3622 2328 
Q 3622 1225 3098 567 
Q 2575 -91 1691 -91 
Q 1453 -91 1209 -44 
Q 966 3 703 97 
z
M 1959 2075 
Q 2384 2075 2632 2365 
Q 2881 2656 2881 3163 
Q 2881 3666 2632 3958 
Q 2384 4250 1959 4250 
Q 1534 4250 1286 3958 
Q 1038 3666 1038 3163 
Q 1038 2656 1286 2365 
Q 1534 2075 1959 2075 
z
" id="DejaVuSans-39" transform="scale(0.015625)"/>
        <path d="M 691 4666 
L 3169 4666 
L 3169 4134 
L 1269 4134 
L 1269 2991 
Q 1406 3038 1543 3061 
Q 1681 3084 1819 3084 
Q 2600 3084 3056 2656 
Q 3513 2228 3513 1497 
Q 3513 744 3044 326 
Q 2575 -91 1722 -91 
Q 1428 -91 1123 -41 
Q 819 9 494 109 
L 494 744 
Q 775 591 1075 516 
Q 1375 441 1709 441 
Q 2250 441 2565 725 
Q 2881 1009 2881 1497 
Q 2881 1984 2565 2268 
Q 2250 2553 1709 2553 
Q 1456 2553 1204 2497 
Q 953 2441 691 2322 
L 691 4666 
z
" id="DejaVuSans-35" transform="scale(0.015625)"/>
        <path d="M 2034 4250 
Q 1547 4250 1301 3770 
Q 1056 3291 1056 2328 
Q 1056 1369 1301 889 
Q 1547 409 2034 409 
Q 2525 409 2770 889 
Q 3016 1369 3016 2328 
Q 3016 3291 2770 3770 
Q 2525 4250 2034 4250 
z
M 2034 4750 
Q 2819 4750 3233 4129 
Q 3647 3509 3647 2328 
Q 3647 1150 3233 529 
Q 2819 -91 2034 -91 
Q 1250 -91 836 529 
Q 422 1150 422 2328 
Q 422 3509 836 4129 
Q 1250 4750 2034 4750 
z
" id="DejaVuSans-30" transform="scale(0.015625)"/>
       </defs>
       <use xlink:href="#DejaVuSans-31"/>
       <use x="63.623047" xlink:href="#DejaVuSans-39"/>
       <use x="127.246094" xlink:href="#DejaVuSans-35"/>
       <use x="190.869141" xlink:href="#DejaVuSans-30"/>
      </g>
     </g>
    </g>
    <g id="xtick_2">
     <g id="line2d_2">
      <g>
       <use style="stroke:#000000;stroke-width:0.8;" x="119.100343" xlink:href="#m2bb9761d9e" y="162"/>
      </g>
     </g>
     <g id="text_2">
      <!-- 1960 -->
      <g transform="translate(106.375343 176.598438)scale(0.1 -0.1)">
       <defs>
        <path d="M 2113 2584 
Q 1688 2584 1439 2293 
Q 1191 2003 1191 1497 
Q 1191 994 1439 701 
Q 1688 409 2113 409 
Q 2538 409 2786 701 
Q 3034 994 3034 1497 
Q 3034 2003 2786 2293 
Q 2538 2584 2113 2584 
z
M 3366 4563 
L 3366 3988 
Q 3128 4100 2886 4159 
Q 2644 4219 2406 4219 
Q 1781 4219 1451 3797 
Q 1122 3375 1075 2522 
Q 1259 2794 1537 2939 
Q 1816 3084 2150 3084 
Q 2853 3084 3261 2657 
Q 3669 2231 3669 1497 
Q 3669 778 3244 343 
Q 2819 -91 2113 -91 
Q 1303 -91 875 529 
Q 447 1150 447 2328 
Q 447 3434 972 4092 
Q 1497 4750 2381 4750 
Q 2619 4750 2861 4703 
Q 3103 4656 3366 4563 
z
" id="DejaVuSans-36" transform="scale(0.015625)"/>
       </defs>
       <use xlink:href="#DejaVuSans-31"/>
       <use x="63.623047" xlink:href="#DejaVuSans-39"/>
       <use x="127.246094" xlink:href="#DejaVuSans-36"/>
       <use x="190.869141" xlink:href="#DejaVuSans-30"/>
      </g>
     </g>
    </g>
    <g id="xtick_3">
     <g id="line2d_3">
      <g>
       <use style="stroke:#000000;stroke-width:0.8;" x="162.5472" xlink:href="#m2bb9761d9e" y="162"/>
      </g>
     </g>
     <g id="text_3">
      <!-- 1970 -->
      <g transform="translate(149.8222 176.598438)scale(0.1 -0.1)">
       <defs>
        <path d="M 525 4666 
L 3525 4666 
L 3525 4397 
L 1831 0 
L 1172 0 
L 2766 4134 
L 525 4134 
L 525 4666 
z
" id="DejaVuSans-37" transform="scale(0.015625)"/>
       </defs>
       <use xlink:href="#DejaVuSans-31"/>
       <use x="63.623047" xlink:href="#DejaVuSans-39"/>
       <use x="127.246094" xlink:href="#DejaVuSans-37"/>
       <use x="190.869141" xlink:href="#DejaVuSans-30"/>
      </g>
     </g>
    </g>
    <g id="xtick_4">
     <g id="line2d_4">
      <g>
       <use style="stroke:#000000;stroke-width:0.8;" x="205.994057" xlink:href="#m2bb9761d9e" y="162"/>
      </g>
     </g>
     <g id="text_4">
      <!-- 1980 -->
      <g transform="translate(193.269057 176.598438)scale(0.1 -0.1)">
       <defs>
        <path d="M 2034 2216 
Q 1584 2216 1326 1975 
Q 1069 1734 1069 1313 
Q 1069 891 1326 650 
Q 1584 409 2034 409 
Q 2484 409 2743 651 
Q 3003 894 3003 1313 
Q 3003 1734 2745 1975 
Q 2488 2216 2034 2216 
z
M 1403 2484 
Q 997 2584 770 2862 
Q 544 3141 544 3541 
Q 544 4100 942 4425 
Q 1341 4750 2034 4750 
Q 2731 4750 3128 4425 
Q 3525 4100 3525 3541 
Q 3525 3141 3298 2862 
Q 3072 2584 2669 2484 
Q 3125 2378 3379 2068 
Q 3634 1759 3634 1313 
Q 3634 634 3220 271 
Q 2806 -91 2034 -91 
Q 1263 -91 848 271 
Q 434 634 434 1313 
Q 434 1759 690 2068 
Q 947 2378 1403 2484 
z
M 1172 3481 
Q 1172 3119 1398 2916 
Q 1625 2713 2034 2713 
Q 2441 2713 2670 2916 
Q 2900 3119 2900 3481 
Q 2900 3844 2670 4047 
Q 2441 4250 2034 4250 
Q 1625 4250 1398 4047 
Q 1172 3844 1172 3481 
z
" id="DejaVuSans-38" transform="scale(0.015625)"/>
       </defs>
       <use xlink:href="#DejaVuSans-31"/>
       <use x="63.623047" xlink:href="#DejaVuSans-39"/>
       <use x="127.246094" xlink:href="#DejaVuSans-38"/>
       <use x="190.869141" xlink:href="#DejaVuSans-30"/>
      </g>
     </g>
    </g>
    <g id="xtick_5">
     <g id="line2d_5">
      <g>
       <use style="stroke:#000000;stroke-width:0.8;" x="249.440914" xlink:href="#m2bb9761d9e" y="162"/>
      </g>
     </g>
     <g id="text_5">
      <!-- 1990 -->
      <g transform="translate(236.715914 176.598438)scale(0.1 -0.1)">
       <use xlink:href="#DejaVuSans-31"/>
       <use x="63.623047" xlink:href="#DejaVuSans-39"/>
       <use x="127.246094" xlink:href="#DejaVuSans-39"/>
       <use x="190.869141" xlink:href="#DejaVuSans-30"/>
      </g>
     </g>
    </g>
    <g id="xtick_6">
     <g id="line2d_6">
      <g>
       <use style="stroke:#000000;stroke-width:0.8;" x="292.887771" xlink:href="#m2bb9761d9e" y="162"/>
      </g>
     </g>
     <g id="text_6">
      <!-- 2000 -->
      <g transform="translate(280.162771 176.598438)scale(0.1 -0.1)">
       <defs>
        <path d="M 1228 531 
L 3431 531 
L 3431 0 
L 469 0 
L 469 531 
Q 828 903 1448 1529 
Q 2069 2156 2228 2338 
Q 2531 2678 2651 2914 
Q 2772 3150 2772 3378 
Q 2772 3750 2511 3984 
Q 2250 4219 1831 4219 
Q 1534 4219 1204 4116 
Q 875 4013 500 3803 
L 500 4441 
Q 881 4594 1212 4672 
Q 1544 4750 1819 4750 
Q 2544 4750 2975 4387 
Q 3406 4025 3406 3419 
Q 3406 3131 3298 2873 
Q 3191 2616 2906 2266 
Q 2828 2175 2409 1742 
Q 1991 1309 1228 531 
z
" id="DejaVuSans-32" transform="scale(0.015625)"/>
       </defs>
       <use xlink:href="#DejaVuSans-32"/>
       <use x="63.623047" xlink:href="#DejaVuSans-30"/>
       <use x="127.246094" xlink:href="#DejaVuSans-30"/>
       <use x="190.869141" xlink:href="#DejaVuSans-30"/>
      </g>
     </g>
    </g>
    <g id="xtick_7">
     <g id="line2d_7">
      <g>
       <use style="stroke:#000000;stroke-width:0.8;" x="336.334629" xlink:href="#m2bb9761d9e" y="162"/>
      </g>
     </g>
     <g id="text_7">
      <!-- 2010 -->
      <g transform="translate(323.609629 176.598438)scale(0.1 -0.1)">
       <use xlink:href="#DejaVuSans-32"/>
       <use x="63.623047" xlink:href="#DejaVuSans-30"/>
       <use x="127.246094" xlink:href="#DejaVuSans-31"/>
       <use x="190.869141" xlink:href="#DejaVuSans-30"/>
      </g>
     </g>
    </g>
    <g id="xtick_8">
     <g id="line2d_8">
      <g>
       <use style="stroke:#000000;stroke-width:0.8;" x="379.781486" xlink:href="#m2bb9761d9e" y="162"/>
      </g>
     </g>
     <g id="text_8">
      <!-- 2020 -->
      <g transform="translate(367.056486 176.598438)scale(0.1 -0.1)">
       <use xlink:href="#DejaVuSans-32"/>
       <use x="63.623047" xlink:href="#DejaVuSans-30"/>
       <use x="127.246094" xlink:href="#DejaVuSans-32"/>
       <use x="190.869141" xlink:href="#DejaVuSans-30"/>
      </g>
     </g>
    </g>
   </g>
   <g id="matplotlib.axis_2">
    <g id="ytick_1">
     <g id="line2d_9">
      <defs>
       <path d="M 0 0 
L -3.5 0 
" id="m299e67c4bc" style="stroke:#000000;stroke-width:0.8;"/>
      </defs>
      <g>
       <use style="stroke:#000000;stroke-width:0.8;" x="34.56" xlink:href="#m299e67c4bc" y="157.831823"/>
      </g>
     </g>
     <g id="text_9">
      <!-- 100 -->
      <g transform="translate(0.092813 161.631042)scale(0.1 -0.1)">
       <defs>
        <path d="M 678 2272 
L 4684 2272 
L 4684 1741 
L 678 1741 
L 678 2272 
z
" id="DejaVuSans-2212" transform="scale(0.015625)"/>
       </defs>
       <use xlink:href="#DejaVuSans-2212"/>
       <use x="83.789062" xlink:href="#DejaVuSans-31"/>
       <use x="147.412109" xlink:href="#DejaVuSans-30"/>
       <use x="211.035156" xlink:href="#DejaVuSans-30"/>
      </g>
     </g>
    </g>
    <g id="ytick_2">
     <g id="line2d_10">
      <g>
       <use style="stroke:#000000;stroke-width:0.8;" x="34.56" xlink:href="#m299e67c4bc" y="120.315912"/>
      </g>
     </g>
     <g id="text_10">
      <!-- 50 -->
      <g transform="translate(6.455313 124.11513)scale(0.1 -0.1)">
       <use xlink:href="#DejaVuSans-2212"/>
       <use x="83.789062" xlink:href="#DejaVuSans-35"/>
       <use x="147.412109" xlink:href="#DejaVuSans-30"/>
      </g>
     </g>
    </g>
    <g id="ytick_3">
     <g id="line2d_11">
      <g>
       <use style="stroke:#000000;stroke-width:0.8;" x="34.56" xlink:href="#m299e67c4bc" y="82.8"/>
      </g>
     </g>
     <g id="text_11">
      <!-- 0 -->
      <g transform="translate(21.1975 86.599219)scale(0.1 -0.1)">
       <use xlink:href="#DejaVuSans-30"/>
      </g>
     </g>
    </g>
    <g id="ytick_4">
     <g id="line2d_12">
      <g>
       <use style="stroke:#000000;stroke-width:0.8;" x="34.56" xlink:href="#m299e67c4bc" y="45.284088"/>
      </g>
     </g>
     <g id="text_12">
      <!-- 50 -->
      <g transform="translate(14.835 49.083307)scale(0.1 -0.1)">
       <use xlink:href="#DejaVuSans-35"/>
       <use x="63.623047" xlink:href="#DejaVuSans-30"/>
      </g>
     </g>
    </g>
    <g id="ytick_5">
     <g id="line2d_13">
      <g>
       <use style="stroke:#000000;stroke-width:0.8;" x="34.56" xlink:href="#m299e67c4bc" y="7.768177"/>
      </g>
     </g>
     <g id="text_13">
      <!-- 100 -->
      <g transform="translate(8.4725 11.567396)scale(0.1 -0.1)">
       <use xlink:href="#DejaVuSans-31"/>
       <use x="63.623047" xlink:href="#DejaVuSans-30"/>
       <use x="127.246094" xlink:href="#DejaVuSans-30"/>
      </g>
     </g>
    </g>
   </g>
   <g id="line2d_14">
    <path clip-path="url(#pce82fa2970)" d="M 67.145143 82.875581 
L 68.593371 83.727971 
L 70.403657 85.233183 
L 71.127771 85.261206 
L 71.489829 85.810004 
L 72.576 86.704079 
L 73.662171 87.450062 
L 74.024229 87.824957 
L 75.1104 88.273741 
L 76.196571 89.152871 
L 76.558629 89.714803 
L 77.6448 90.743274 
L 78.368914 91.77986 
L 79.455086 93.169439 
L 80.541257 94.004544 
L 80.903314 94.350088 
L 81.627429 95.292688 
L 83.437714 97.115561 
L 84.161829 97.382806 
L 84.523886 97.708431 
L 84.885943 98.265757 
L 87.420343 100.626036 
L 87.7824 101.25599 
L 88.144457 101.24372 
L 88.868571 101.898576 
L 91.040914 103.798142 
L 91.765029 104.087505 
L 92.127086 104.24316 
L 95.3856 107.067562 
L 97.195886 109.356793 
L 97.557943 109.514573 
L 99.368229 111.035758 
L 99.730286 111.247523 
L 100.4544 112.297297 
L 100.816457 112.802572 
L 101.540571 113.356441 
L 101.902629 113.917041 
L 102.626743 114.283885 
L 104.437029 116.283288 
L 104.799086 116.594871 
L 105.885257 118.053265 
L 106.609371 118.619761 
L 106.971429 118.945604 
L 107.333486 119.101231 
L 107.695543 119.447162 
L 108.0576 119.616004 
L 108.781714 120.126247 
L 109.143771 120.087143 
L 110.592 121.476798 
L 110.954057 122.226668 
L 111.316114 122.398449 
L 112.040229 123.094608 
L 112.764343 123.59672 
L 113.850514 124.735119 
L 115.6608 125.814587 
L 116.384914 126.619683 
L 117.109029 127.128566 
L 118.919314 128.502136 
L 119.281371 128.569293 
L 119.643429 128.818694 
L 120.005486 128.824907 
L 120.367543 129.32873 
L 121.453714 130.065288 
L 121.815771 130.478809 
L 122.177829 130.562133 
L 125.436343 132.355079 
L 125.7984 132.412118 
L 127.246629 133.179568 
L 127.608686 133.044589 
L 127.970743 133.254896 
L 128.694857 133.797292 
L 129.056914 133.948964 
L 129.418971 134.235758 
L 129.781029 134.23928 
L 130.143086 134.411606 
L 130.505143 134.872004 
L 131.953371 135.633739 
L 132.315429 135.508906 
L 132.677486 135.218781 
L 133.4016 135.275524 
L 133.763657 135.438785 
L 134.849829 135.516538 
L 135.211886 135.706837 
L 136.660114 135.78338 
L 137.746286 136.07423 
L 138.108343 135.958216 
L 138.4704 136.081607 
L 139.194514 135.820512 
L 139.556571 135.572271 
L 140.642743 135.478127 
L 141.728914 135.61346 
L 142.453029 135.553649 
L 144.625371 135.917945 
L 144.987429 136.125987 
L 145.711543 136.160558 
L 146.435657 136.575961 
L 146.797714 136.592417 
L 147.159771 136.497523 
L 147.521829 136.743439 
L 147.883886 136.823085 
L 148.245943 136.739551 
L 148.608 136.840548 
L 150.056229 137.813526 
L 151.504457 139.257297 
L 154.762971 140.793844 
L 155.125029 140.70948 
L 155.487086 140.873385 
L 156.935314 142.048677 
L 157.659429 142.235545 
L 158.383543 142.182726 
L 158.7456 142.183363 
L 159.469714 142.399006 
L 160.193829 142.364052 
L 160.555886 142.23563 
L 160.917943 142.51676 
L 161.28 142.536976 
L 161.642057 142.21286 
L 162.366171 142.207517 
L 163.452343 142.00826 
L 163.8144 142.229122 
L 164.176457 142.143027 
L 164.538514 141.918507 
L 164.900571 142.089629 
L 166.710857 141.714219 
L 167.434971 141.240156 
L 168.521143 141.229531 
L 168.8832 141.447504 
L 169.245257 141.204177 
L 169.607314 141.324824 
L 170.331429 140.919226 
L 170.693486 140.770653 
L 171.055543 140.811115 
L 171.779657 140.537648 
L 172.141714 140.354716 
L 172.503771 140.465119 
L 173.589943 140.226748 
L 173.952 140.077086 
L 174.314057 140.085907 
L 174.676114 139.762993 
L 175.038171 140.009999 
L 175.400229 139.909034 
L 176.124343 140.135848 
L 176.848457 139.955557 
L 177.210514 139.975193 
L 177.572571 139.685637 
L 177.934629 139.717282 
L 178.658743 139.510862 
L 179.382857 139.561165 
L 179.744914 139.74438 
L 181.193143 139.688782 
L 181.5552 139.566592 
L 182.279314 139.638258 
L 182.641371 139.466101 
L 183.003429 139.49619 
L 183.365486 139.762694 
L 184.451657 139.885624 
L 184.813714 139.683648 
L 185.537829 139.712063 
L 185.899886 139.821152 
L 186.261943 139.793581 
L 186.624 139.590815 
L 186.986057 139.149317 
L 187.710171 139.022577 
L 188.072229 138.958787 
L 188.434286 139.118337 
L 189.1584 139.165087 
L 189.520457 139.017388 
L 189.882514 139.002964 
L 191.6928 137.369794 
L 192.054857 137.403794 
L 192.778971 137.174842 
L 193.141029 137.283598 
L 193.503086 137.063132 
L 194.2272 136.898483 
L 194.951314 137.065618 
L 195.313371 137.083221 
L 196.037486 137.291871 
L 198.209829 137.035985 
L 199.296 137.200957 
L 200.020114 137.133459 
L 200.744229 136.734583 
L 201.106286 136.425118 
L 202.192457 136.133503 
L 202.554514 136.098881 
L 202.916571 136.232886 
L 203.278629 136.185331 
L 203.640686 136.364836 
L 204.002743 136.304504 
L 204.726857 135.575576 
L 205.088914 135.435819 
L 207.261257 135.360556 
L 207.623314 135.199451 
L 208.709486 135.355411 
L 209.4336 135.296908 
L 211.605943 135.115276 
L 212.330057 135.484779 
L 212.692114 135.414831 
L 213.054171 135.458888 
L 213.416229 135.219252 
L 213.778286 135.271572 
L 215.588571 134.509269 
L 216.312686 134.370606 
L 216.674743 134.438511 
L 217.0368 134.640761 
L 217.398857 134.652451 
L 217.760914 134.522106 
L 218.122971 134.517493 
L 218.485029 134.650896 
L 219.5712 134.470935 
L 220.657371 134.321264 
L 221.019429 134.511074 
L 221.381486 134.216668 
L 222.467657 134.083257 
L 223.191771 133.7593 
L 224.277943 133.64807 
L 224.64 133.321215 
L 225.002057 133.5392 
L 225.364114 133.507032 
L 225.726171 133.224955 
L 226.088229 133.111074 
L 226.450286 133.28376 
L 227.536457 133.223552 
L 227.898514 133.128488 
L 228.260571 132.83027 
L 228.622629 132.814831 
L 229.346743 133.142323 
L 229.7088 133.38302 
L 230.794971 133.423621 
L 231.157029 133.150925 
L 231.519086 133.231826 
L 231.881143 133.121081 
L 232.2432 133.163684 
L 232.967314 133.056518 
L 233.329371 133.153216 
L 233.691429 133.410168 
L 235.501714 133.691837 
L 236.587886 133.570522 
L 236.949943 133.469708 
L 238.036114 133.677251 
L 238.760229 134.064109 
L 239.484343 134.391413 
L 239.8464 134.323378 
L 240.208457 134.49887 
L 240.570514 134.403951 
L 241.656686 134.866621 
L 242.018743 134.779483 
L 242.3808 134.817877 
L 243.104914 135.183796 
L 243.466971 135.134295 
L 244.9152 135.362676 
L 245.277257 135.237212 
L 245.639314 135.381875 
L 246.363429 135.336988 
L 247.087543 134.737739 
L 248.173714 134.792212 
L 249.621943 133.73577 
L 249.984 133.695211 
L 250.708114 133.339035 
L 251.070171 132.97812 
L 251.432229 133.080693 
L 252.156343 132.783312 
L 252.880457 132.771102 
L 255.0528 132.91116 
L 256.138971 133.213181 
L 256.501029 133.200076 
L 256.863086 133.041808 
L 257.949257 132.953365 
L 258.673371 132.591704 
L 259.397486 132.457462 
L 260.1216 131.987367 
L 260.483657 131.955735 
L 261.931886 132.260352 
L 262.656 132.199914 
L 263.018057 132.331334 
L 263.380114 132.079036 
L 264.104229 132.257661 
L 264.466286 132.236367 
L 264.828343 132.374711 
L 268.086857 132.575888 
L 268.448914 132.708648 
L 268.810971 132.633274 
L 269.173029 132.355043 
L 269.535086 132.248474 
L 269.897143 132.412789 
L 270.2592 132.265862 
L 270.621257 132.32512 
L 270.983314 132.242579 
L 271.707429 132.514544 
L 272.431543 132.540547 
L 272.7936 132.282684 
L 273.155657 132.535607 
L 273.517714 132.495197 
L 273.879771 132.309666 
L 274.241829 132.499507 
L 275.328 132.42879 
L 275.690057 132.59763 
L 276.052114 132.574898 
L 276.414171 132.664124 
L 276.776229 132.516859 
L 277.138286 132.652942 
L 277.500343 132.216096 
L 278.224457 131.988829 
L 278.586514 132.058689 
L 278.948571 131.911144 
L 280.758857 131.923094 
L 281.482971 131.304801 
L 281.845029 131.426251 
L 282.569143 131.155464 
L 282.9312 130.828859 
L 283.655314 130.658098 
L 285.103543 130.608546 
L 285.4656 130.755013 
L 285.827657 130.765631 
L 286.551771 130.987171 
L 286.913829 130.805817 
L 287.637943 130.960836 
L 288 131.039143 
L 288.362057 130.95016 
L 289.086171 131.052866 
L 289.448229 130.841453 
L 289.810286 130.848431 
L 291.982629 130.171502 
L 293.0688 129.931812 
L 293.792914 129.72334 
L 295.241143 129.58716 
L 295.965257 129.341586 
L 296.689371 129.441001 
L 298.1376 128.769693 
L 298.861714 128.556232 
L 299.223771 128.434042 
L 299.947886 127.690368 
L 300.309943 127.741342 
L 301.034057 127.565802 
L 301.396114 127.318447 
L 301.758171 126.914983 
L 302.482286 126.509395 
L 302.844343 126.155812 
L 303.568457 125.926163 
L 303.930514 125.755595 
L 305.016686 124.747468 
L 306.464914 124.610547 
L 307.913143 123.797184 
L 308.2752 123.828837 
L 308.999314 123.340808 
L 309.361371 123.33013 
L 310.085486 122.997092 
L 311.171657 123.216258 
L 311.895771 122.782588 
L 312.981943 122.805773 
L 313.344 122.79307 
L 314.430171 122.472482 
L 314.792229 122.584397 
L 316.240457 122.392023 
L 316.602514 122.025571 
L 316.964571 122.017805 
L 317.326629 121.839314 
L 318.774857 121.706849 
L 319.498971 121.593766 
L 319.861029 121.592601 
L 320.223086 121.759363 
L 320.585143 121.730364 
L 321.309257 120.985778 
L 321.671314 121.256131 
L 322.757486 121.548952 
L 323.4816 121.737402 
L 324.205714 121.669392 
L 324.567771 121.306523 
L 326.016 121.802399 
L 327.464229 121.338175 
L 327.826286 121.373161 
L 328.188343 121.23691 
L 328.5504 121.411881 
L 329.274514 121.507443 
L 329.998629 121.365678 
L 330.360686 121.467729 
L 331.0848 121.359581 
L 331.446857 121.451474 
L 332.170971 121.288108 
L 332.533029 121.366812 
L 333.257143 120.852496 
L 333.981257 120.238409 
L 334.343314 120.232824 
L 334.705371 119.929375 
L 336.515657 119.232867 
L 337.239771 118.71282 
L 338.325943 117.609821 
L 338.688 117.314869 
L 339.412114 116.996077 
L 340.498286 116.043029 
L 342.308571 114.032588 
L 343.032686 114.030691 
L 343.7568 113.718848 
L 344.118857 113.314512 
L 345.205029 112.91181 
L 346.2912 111.679014 
L 346.653257 111.476673 
L 347.377371 111.38655 
L 348.101486 110.754331 
L 349.549714 110.303946 
L 350.635886 109.748086 
L 352.446171 107.96613 
L 352.808229 107.714876 
L 353.170286 107.312969 
L 353.532343 107.096373 
L 356.4288 104.197417 
L 357.514971 103.393203 
L 358.9632 102.743113 
L 359.325257 102.29308 
L 360.049371 101.719319 
L 360.773486 101.007126 
L 361.4976 100.368548 
L 363.669943 98.607391 
L 364.032 98.322384 
L 364.394057 98.311588 
L 365.480229 97.427479 
L 366.5664 96.093842 
L 366.928457 95.952037 
L 367.652571 95.224589 
L 368.014629 94.670136 
L 369.462857 93.48964 
L 369.824914 93.40239 
L 371.6352 92.188217 
L 372.359314 91.970757 
L 374.1696 89.52974 
L 375.617829 88.501565 
L 376.341943 87.718402 
L 377.790171 86.160659 
L 378.876343 85.166707 
L 379.600457 84.767446 
L 379.962514 84.462318 
L 380.686629 84.094813 
L 381.410743 83.192935 
L 382.134857 82.8 
L 382.134857 82.8 
" style="fill:none;stroke:#1f77b4;stroke-linecap:square;stroke-width:1.5;"/>
   </g>
   <g id="line2d_15">
    <path clip-path="url(#pce82fa2970)" d="M 34.56 82.8 
L 414.72 82.8 
" style="fill:none;stroke:#000000;stroke-dasharray:1.5,2.475;stroke-dashoffset:0;stroke-width:1.5;"/>
   </g>
   <g id="line2d_16">
    <path clip-path="url(#pce82fa2970)" d="M 117.833143 162 
L 117.833143 3.6 
" style="fill:none;stroke:#008000;stroke-linecap:square;stroke-width:1.5;"/>
   </g>
   <g id="patch_3">
    <path d="M 34.56 162 
L 34.56 3.6 
" style="fill:none;stroke:#000000;stroke-linecap:square;stroke-linejoin:miter;stroke-width:0.8;"/>
   </g>
   <g id="patch_4">
    <path d="M 414.72 162 
L 414.72 3.6 
" style="fill:none;stroke:#000000;stroke-linecap:square;stroke-linejoin:miter;stroke-width:0.8;"/>
   </g>
   <g id="patch_5">
    <path d="M 34.56 162 
L 414.72 162 
" style="fill:none;stroke:#000000;stroke-linecap:square;stroke-linejoin:miter;stroke-width:0.8;"/>
   </g>
   <g id="patch_6">
    <path d="M 34.56 3.6 
L 414.72 3.6 
" style="fill:none;stroke:#000000;stroke-linecap:square;stroke-linejoin:miter;stroke-width:0.8;"/>
   </g>
  </g>
 </g>
 <defs>
  <clipPath id="pce82fa2970">
   <rect height="158.4" width="380.16" x="34.56" y="3.6"/>
  </clipPath>
 </defs>
</svg>
