<?xml version="1.0" encoding="utf-8" standalone="no"?>
<!DOCTYPE svg PUBLIC "-//W3C//DTD SVG 1.1//EN"
  "http://www.w3.org/Graphics/SVG/1.1/DTD/svg11.dtd">
<svg height="180pt" version="1.1" viewBox="0 0 432 180" width="432pt" xmlns="http://www.w3.org/2000/svg" xmlns:xlink="http://www.w3.org/1999/xlink">
 <metadata>
  <rdf:RDF xmlns:cc="http://creativecommons.org/ns#" xmlns:dc="http://purl.org/dc/elements/1.1/" xmlns:rdf="http://www.w3.org/1999/02/22-rdf-syntax-ns#">
   <cc:Work>
    <dc:type rdf:resource="http://purl.org/dc/dcmitype/StillImage"/>
    <dc:date>2021-08-12T10:43:36.132090</dc:date>
    <dc:format>image/svg+xml</dc:format>
    <dc:creator>
     <cc:Agent>
      <dc:title>Matplotlib v3.4.2, https://matplotlib.org/</dc:title>
     </cc:Agent>
    </dc:creator>
   </cc:Work>
  </rdf:RDF>
 </metadata>
 <defs>
  <style type="text/css">*{stroke-linecap:butt;stroke-linejoin:round;}</style>
 </defs>
 <g id="figure_1">
  <g id="patch_1">
   <path d="M 0 180 
L 432 180 
L 432 0 
L 0 0 
z
" style="fill:#ffffff;"/>
  </g>
  <g id="axes_1">
   <g id="patch_2">
    <path d="M 34.56 162 
L 414.72 162 
L 414.72 3.6 
L 34.56 3.6 
z
" style="fill:#ffffff;"/>
   </g>
   <g id="PolyCollection_1">
    <path clip-path="url(#p5d932a14aa)" d="M 55.602066 82.538776 
L 55.602066 83.061224 
L 55.835867 83.32177 
L 56.069668 83.581863 
L 56.303469 83.841504 
L 56.537269 84.100692 
L 56.77107 84.359428 
L 57.004871 84.617712 
L 57.238672 84.875543 
L 57.472472 85.132922 
L 57.706273 85.389849 
L 57.940074 85.646323 
L 58.173875 85.902345 
L 58.407675 86.157915 
L 58.641476 86.413032 
L 58.875277 86.667697 
L 59.109077 86.92191 
L 59.342878 87.175671 
L 59.576679 87.428979 
L 59.81048 87.681834 
L 60.04428 87.934238 
L 60.278081 88.186189 
L 60.511882 88.437687 
L 60.745683 88.688734 
L 60.979483 88.939328 
L 61.213284 89.189469 
L 61.447085 89.439159 
L 61.680886 89.688396 
L 61.914686 89.93718 
L 61.914686 75.66282 
L 61.914686 75.66282 
L 61.680886 75.911604 
L 61.447085 76.160841 
L 61.213284 76.410531 
L 60.979483 76.660672 
L 60.745683 76.911266 
L 60.511882 77.162313 
L 60.278081 77.413811 
L 60.04428 77.665762 
L 59.81048 77.918166 
L 59.576679 78.171021 
L 59.342878 78.424329 
L 59.109077 78.67809 
L 58.875277 78.932303 
L 58.641476 79.186968 
L 58.407675 79.442085 
L 58.173875 79.697655 
L 57.940074 79.953677 
L 57.706273 80.210151 
L 57.472472 80.467078 
L 57.238672 80.724457 
L 57.004871 80.982288 
L 56.77107 81.240572 
L 56.537269 81.499308 
L 56.303469 81.758496 
L 56.069668 82.018137 
L 55.835867 82.27823 
L 55.602066 82.538776 
z
" style="fill:#0000ff;fill-opacity:0.1;stroke:#0000ff;stroke-opacity:0.1;"/>
    <path clip-path="url(#p5d932a14aa)" d="M 62.849889 75.414487 
L 62.849889 90.185513 
L 63.08369 90.433393 
L 63.317491 90.68082 
L 63.551292 90.927796 
L 63.785092 91.174319 
L 64.018893 91.420389 
L 64.018893 74.179611 
L 64.018893 74.179611 
L 63.785092 74.425681 
L 63.551292 74.672204 
L 63.317491 74.91918 
L 63.08369 75.166607 
L 62.849889 75.414487 
z
" style="fill:#0000ff;fill-opacity:0.1;stroke:#0000ff;stroke-opacity:0.1;"/>
    <path clip-path="url(#p5d932a14aa)" d="M 65.187897 73.933992 
L 65.187897 91.666008 
L 65.421697 91.911174 
L 65.655498 92.155887 
L 65.889299 92.400149 
L 66.1231 92.643958 
L 66.3569 92.887314 
L 66.590701 93.130218 
L 66.824502 93.37267 
L 67.058303 93.61467 
L 67.292103 93.856217 
L 67.525904 94.097312 
L 67.759705 94.337955 
L 67.993506 94.578145 
L 68.227306 94.817883 
L 68.461107 95.057169 
L 68.694908 95.296002 
L 68.928708 95.534383 
L 69.162509 95.772312 
L 69.39631 96.009788 
L 69.630111 96.246812 
L 69.863911 96.483383 
L 70.097712 96.719503 
L 70.331513 96.95517 
L 70.565314 97.190384 
L 70.799114 97.425146 
L 71.032915 97.659456 
L 71.266716 97.893314 
L 71.500517 98.126719 
L 71.734317 98.359672 
L 71.968118 98.592173 
L 72.201919 98.824221 
L 72.43572 99.055817 
L 72.66952 99.28696 
L 72.903321 99.517652 
L 73.137122 99.747891 
L 73.370923 99.977677 
L 73.604723 100.207011 
L 73.838524 100.435893 
L 74.072325 100.664323 
L 74.306125 100.8923 
L 74.539926 101.119825 
L 74.773727 101.346898 
L 75.007528 101.573518 
L 75.241328 101.799686 
L 75.475129 102.025401 
L 75.70893 102.250664 
L 75.942731 102.475475 
L 76.176531 102.699834 
L 76.410332 102.92374 
L 76.644133 103.147194 
L 76.877934 103.370195 
L 77.111734 103.592745 
L 77.345535 103.814841 
L 77.579336 104.036486 
L 77.813137 104.257678 
L 78.046937 104.478418 
L 78.280738 104.698705 
L 78.514539 104.918541 
L 78.748339 105.137923 
L 78.98214 105.356854 
L 79.215941 105.575332 
L 79.449742 105.793358 
L 79.683542 106.010932 
L 79.917343 106.228053 
L 80.151144 106.444722 
L 80.384945 106.660938 
L 80.618745 106.876702 
L 80.852546 107.092014 
L 81.086347 107.306873 
L 81.320148 107.521281 
L 81.553948 107.735235 
L 81.787749 107.948738 
L 82.02155 108.161788 
L 82.255351 108.374386 
L 82.489151 108.586531 
L 82.722952 108.798224 
L 82.956753 109.009465 
L 82.956753 56.590535 
L 82.956753 56.590535 
L 82.722952 56.801776 
L 82.489151 57.013469 
L 82.255351 57.225614 
L 82.02155 57.438212 
L 81.787749 57.651262 
L 81.553948 57.864765 
L 81.320148 58.078719 
L 81.086347 58.293127 
L 80.852546 58.507986 
L 80.618745 58.723298 
L 80.384945 58.939062 
L 80.151144 59.155278 
L 79.917343 59.371947 
L 79.683542 59.589068 
L 79.449742 59.806642 
L 79.215941 60.024668 
L 78.98214 60.243146 
L 78.748339 60.462077 
L 78.514539 60.681459 
L 78.280738 60.901295 
L 78.046937 61.121582 
L 77.813137 61.342322 
L 77.579336 61.563514 
L 77.345535 61.785159 
L 77.111734 62.007255 
L 76.877934 62.229805 
L 76.644133 62.452806 
L 76.410332 62.67626 
L 76.176531 62.900166 
L 75.942731 63.124525 
L 75.70893 63.349336 
L 75.475129 63.574599 
L 75.241328 63.800314 
L 75.007528 64.026482 
L 74.773727 64.253102 
L 74.539926 64.480175 
L 74.306125 64.7077 
L 74.072325 64.935677 
L 73.838524 65.164107 
L 73.604723 65.392989 
L 73.370923 65.622323 
L 73.137122 65.852109 
L 72.903321 66.082348 
L 72.66952 66.31304 
L 72.43572 66.544183 
L 72.201919 66.775779 
L 71.968118 67.007827 
L 71.734317 67.240328 
L 71.500517 67.473281 
L 71.266716 67.706686 
L 71.032915 67.940544 
L 70.799114 68.174854 
L 70.565314 68.409616 
L 70.331513 68.64483 
L 70.097712 68.880497 
L 69.863911 69.116617 
L 69.630111 69.353188 
L 69.39631 69.590212 
L 69.162509 69.827688 
L 68.928708 70.065617 
L 68.694908 70.303998 
L 68.461107 70.542831 
L 68.227306 70.782117 
L 67.993506 71.021855 
L 67.759705 71.262045 
L 67.525904 71.502688 
L 67.292103 71.743783 
L 67.058303 71.98533 
L 66.824502 72.22733 
L 66.590701 72.469782 
L 66.3569 72.712686 
L 66.1231 72.956042 
L 65.889299 73.199851 
L 65.655498 73.444113 
L 65.421697 73.688826 
L 65.187897 73.933992 
z
" style="fill:#0000ff;fill-opacity:0.1;stroke:#0000ff;stroke-opacity:0.1;"/>
    <path clip-path="url(#p5d932a14aa)" d="M 83.424354 56.379746 
L 83.424354 109.220254 
L 83.658155 109.43059 
L 83.891956 109.640474 
L 84.125756 109.849905 
L 84.359557 110.058884 
L 84.593358 110.267411 
L 84.827159 110.475485 
L 85.060959 110.683108 
L 85.29476 110.890277 
L 85.528561 111.096995 
L 85.762362 111.30326 
L 85.996162 111.509073 
L 86.229963 111.714433 
L 86.463764 111.919341 
L 86.697565 112.123797 
L 86.931365 112.3278 
L 87.165166 112.531351 
L 87.398967 112.73445 
L 87.632768 112.937097 
L 87.866568 113.139291 
L 88.100369 113.341032 
L 88.33417 113.542322 
L 88.56797 113.743159 
L 88.801771 113.943544 
L 89.035572 114.143476 
L 89.269373 114.342956 
L 89.503173 114.541984 
L 89.736974 114.740559 
L 89.970775 114.938682 
L 90.204576 115.136353 
L 90.438376 115.333571 
L 90.672177 115.530338 
L 90.905978 115.726651 
L 91.139779 115.922513 
L 91.373579 116.117922 
L 91.60738 116.312878 
L 91.841181 116.507383 
L 92.074982 116.701435 
L 92.308782 116.895035 
L 92.542583 117.088182 
L 92.776384 117.280877 
L 93.010185 117.47312 
L 93.243985 117.66491 
L 93.477786 117.856248 
L 93.711587 118.047134 
L 93.945387 118.237567 
L 94.179188 118.427548 
L 94.412989 118.617077 
L 94.64679 118.806153 
L 94.88059 118.994777 
L 95.114391 119.182949 
L 95.348192 119.370668 
L 95.581993 119.557935 
L 95.815793 119.74475 
L 96.049594 119.931112 
L 96.283395 120.117022 
L 96.517196 120.30248 
L 96.750996 120.487485 
L 96.984797 120.672038 
L 97.218598 120.856139 
L 97.452399 121.039787 
L 97.686199 121.222983 
L 97.92 121.405727 
L 98.153801 121.588018 
L 98.387601 121.769857 
L 98.621402 121.951244 
L 98.855203 122.132178 
L 99.089004 122.31266 
L 99.322804 122.49269 
L 99.556605 122.672267 
L 99.790406 122.851392 
L 100.024207 123.030064 
L 100.258007 123.208285 
L 100.491808 123.386053 
L 100.725609 123.563368 
L 100.95941 123.740232 
L 101.19321 123.916642 
L 101.427011 124.092601 
L 101.660812 124.268107 
L 101.894613 124.443161 
L 102.128413 124.617763 
L 102.362214 124.791912 
L 102.596015 124.965609 
L 102.829815 125.138854 
L 103.063616 125.311646 
L 103.297417 125.483986 
L 103.531218 125.655873 
L 103.765018 125.827309 
L 103.998819 125.998292 
L 104.23262 126.168822 
L 104.466421 126.3389 
L 104.700221 126.508526 
L 104.934022 126.6777 
L 105.167823 126.846421 
L 105.401624 127.01469 
L 105.635424 127.182507 
L 105.635424 38.417493 
L 105.635424 38.417493 
L 105.401624 38.58531 
L 105.167823 38.753579 
L 104.934022 38.9223 
L 104.700221 39.091474 
L 104.466421 39.2611 
L 104.23262 39.431178 
L 103.998819 39.601708 
L 103.765018 39.772691 
L 103.531218 39.944127 
L 103.297417 40.116014 
L 103.063616 40.288354 
L 102.829815 40.461146 
L 102.596015 40.634391 
L 102.362214 40.808088 
L 102.128413 40.982237 
L 101.894613 41.156839 
L 101.660812 41.331893 
L 101.427011 41.507399 
L 101.19321 41.683358 
L 100.95941 41.859768 
L 100.725609 42.036632 
L 100.491808 42.213947 
L 100.258007 42.391715 
L 100.024207 42.569936 
L 99.790406 42.748608 
L 99.556605 42.927733 
L 99.322804 43.10731 
L 99.089004 43.28734 
L 98.855203 43.467822 
L 98.621402 43.648756 
L 98.387601 43.830143 
L 98.153801 44.011982 
L 97.92 44.194273 
L 97.686199 44.377017 
L 97.452399 44.560213 
L 97.218598 44.743861 
L 96.984797 44.927962 
L 96.750996 45.112515 
L 96.517196 45.29752 
L 96.283395 45.482978 
L 96.049594 45.668888 
L 95.815793 45.85525 
L 95.581993 46.042065 
L 95.348192 46.229332 
L 95.114391 46.417051 
L 94.88059 46.605223 
L 94.64679 46.793847 
L 94.412989 46.982923 
L 94.179188 47.172452 
L 93.945387 47.362433 
L 93.711587 47.552866 
L 93.477786 47.743752 
L 93.243985 47.93509 
L 93.010185 48.12688 
L 92.776384 48.319123 
L 92.542583 48.511818 
L 92.308782 48.704965 
L 92.074982 48.898565 
L 91.841181 49.092617 
L 91.60738 49.287122 
L 91.373579 49.482078 
L 91.139779 49.677487 
L 90.905978 49.873349 
L 90.672177 50.069662 
L 90.438376 50.266429 
L 90.204576 50.463647 
L 89.970775 50.661318 
L 89.736974 50.859441 
L 89.503173 51.058016 
L 89.269373 51.257044 
L 89.035572 51.456524 
L 88.801771 51.656456 
L 88.56797 51.856841 
L 88.33417 52.057678 
L 88.100369 52.258968 
L 87.866568 52.460709 
L 87.632768 52.662903 
L 87.398967 52.86555 
L 87.165166 53.068649 
L 86.931365 53.2722 
L 86.697565 53.476203 
L 86.463764 53.680659 
L 86.229963 53.885567 
L 85.996162 54.090927 
L 85.762362 54.29674 
L 85.528561 54.503005 
L 85.29476 54.709723 
L 85.060959 54.916892 
L 84.827159 55.124515 
L 84.593358 55.332589 
L 84.359557 55.541116 
L 84.125756 55.750095 
L 83.891956 55.959526 
L 83.658155 56.16941 
L 83.424354 56.379746 
z
" style="fill:#0000ff;fill-opacity:0.1;stroke:#0000ff;stroke-opacity:0.1;"/>
    <path clip-path="url(#p5d932a14aa)" d="M 106.103026 38.250129 
L 106.103026 127.349871 
L 106.336827 127.516783 
L 106.570627 127.683242 
L 106.804428 127.84925 
L 107.038229 128.014804 
L 107.27203 128.179907 
L 107.50583 128.344557 
L 107.739631 128.508755 
L 107.973432 128.672501 
L 108.207232 128.835794 
L 108.441033 128.998635 
L 108.674834 129.161023 
L 108.908635 129.322959 
L 109.142435 129.484443 
L 109.376236 129.645475 
L 109.610037 129.806054 
L 109.843838 129.966181 
L 110.077638 130.125855 
L 110.077638 35.474145 
L 110.077638 35.474145 
L 109.843838 35.633819 
L 109.610037 35.793946 
L 109.376236 35.954525 
L 109.142435 36.115557 
L 108.908635 36.277041 
L 108.674834 36.438977 
L 108.441033 36.601365 
L 108.207232 36.764206 
L 107.973432 36.927499 
L 107.739631 37.091245 
L 107.50583 37.255443 
L 107.27203 37.420093 
L 107.038229 37.585196 
L 106.804428 37.75075 
L 106.570627 37.916758 
L 106.336827 38.083217 
L 106.103026 38.250129 
z
" style="fill:#0000ff;fill-opacity:0.1;stroke:#0000ff;stroke-opacity:0.1;"/>
    <path clip-path="url(#p5d932a14aa)" d="M 110.779041 35.314922 
L 110.779041 130.285078 
L 111.012841 130.443847 
L 111.246642 130.602165 
L 111.480443 130.76003 
L 111.714244 130.917443 
L 111.948044 131.074404 
L 112.181845 131.230912 
L 112.415646 131.386968 
L 112.649446 131.542571 
L 112.883247 131.697722 
L 113.117048 131.852421 
L 113.350849 132.006668 
L 113.584649 132.160462 
L 113.81845 132.313804 
L 114.052251 132.466693 
L 114.286052 132.61913 
L 114.519852 132.771115 
L 114.753653 132.922647 
L 114.987454 133.073728 
L 115.221255 133.224355 
L 115.455055 133.374531 
L 115.688856 133.524254 
L 115.922657 133.673525 
L 116.156458 133.822343 
L 116.390258 133.970709 
L 116.624059 134.118623 
L 116.85786 134.266085 
L 117.091661 134.413094 
L 117.325461 134.559651 
L 117.559262 134.705755 
L 117.793063 134.851407 
L 118.026863 134.996607 
L 118.260664 135.141354 
L 118.494465 135.285649 
L 118.728266 135.429492 
L 118.962066 135.572883 
L 119.195867 135.715821 
L 119.429668 135.858307 
L 119.663469 136.00034 
L 119.897269 136.141921 
L 120.13107 136.28305 
L 120.364871 136.423726 
L 120.598672 136.56395 
L 120.832472 136.703722 
L 121.066273 136.843041 
L 121.300074 136.981909 
L 121.533875 137.120323 
L 121.767675 137.258286 
L 122.001476 137.395796 
L 122.235277 137.532853 
L 122.469077 137.669459 
L 122.702878 137.805612 
L 122.936679 137.941313 
L 123.17048 138.076561 
L 123.40428 138.211357 
L 123.638081 138.345701 
L 123.871882 138.479592 
L 124.105683 138.613031 
L 124.339483 138.746018 
L 124.573284 138.878552 
L 124.807085 139.010634 
L 125.040886 139.142264 
L 125.274686 139.273441 
L 125.508487 139.404167 
L 125.742288 139.534439 
L 125.976089 139.66426 
L 126.209889 139.793628 
L 126.44369 139.922543 
L 126.677491 140.051007 
L 126.911292 140.179018 
L 127.145092 140.306576 
L 127.378893 140.433683 
L 127.612694 140.560337 
L 127.846494 140.686538 
L 128.080295 140.812288 
L 128.314096 140.937585 
L 128.547897 141.062429 
L 128.781697 141.186822 
L 129.015498 141.310762 
L 129.249299 141.434249 
L 129.4831 141.557285 
L 129.7169 141.679868 
L 129.950701 141.801998 
L 130.184502 141.923677 
L 130.418303 142.044903 
L 130.652103 142.165676 
L 130.885904 142.285998 
L 131.119705 142.405867 
L 131.353506 142.525283 
L 131.587306 142.644248 
L 131.821107 142.76276 
L 132.054908 142.880819 
L 132.288708 142.998426 
L 132.522509 143.115581 
L 132.75631 143.232284 
L 132.990111 143.348534 
L 133.223911 143.464332 
L 133.457712 143.579678 
L 133.691513 143.694571 
L 133.925314 143.809012 
L 134.159114 143.923001 
L 134.392915 144.036537 
L 134.626716 144.149621 
L 134.860517 144.262253 
L 135.094317 144.374432 
L 135.328118 144.486159 
L 135.561919 144.597433 
L 135.79572 144.708256 
L 136.02952 144.818626 
L 136.263321 144.928543 
L 136.497122 145.038008 
L 136.730923 145.147021 
L 136.964723 145.255582 
L 137.198524 145.36369 
L 137.432325 145.471346 
L 137.666125 145.57855 
L 137.899926 145.685301 
L 138.133727 145.7916 
L 138.367528 145.897446 
L 138.601328 146.002841 
L 138.835129 146.107782 
L 139.06893 146.212272 
L 139.302731 146.316309 
L 139.536531 146.419894 
L 139.770332 146.523027 
L 140.004133 146.625707 
L 140.237934 146.727935 
L 140.471734 146.82971 
L 140.705535 146.931034 
L 140.939336 147.031904 
L 141.173137 147.132323 
L 141.406937 147.232289 
L 141.640738 147.331803 
L 141.874539 147.430865 
L 142.108339 147.529474 
L 142.34214 147.627631 
L 142.575941 147.725335 
L 142.809742 147.822587 
L 143.043542 147.919387 
L 143.277343 148.015735 
L 143.511144 148.11163 
L 143.744945 148.207073 
L 143.978745 148.302063 
L 144.212546 148.396601 
L 144.446347 148.490687 
L 144.680148 148.584321 
L 144.913948 148.677502 
L 145.147749 148.770231 
L 145.38155 148.862507 
L 145.615351 148.954331 
L 145.849151 149.045703 
L 146.082952 149.136623 
L 146.316753 149.22709 
L 146.550554 149.317105 
L 146.784354 149.406667 
L 147.018155 149.495777 
L 147.251956 149.584435 
L 147.485756 149.672641 
L 147.719557 149.760394 
L 147.953358 149.847695 
L 148.187159 149.934543 
L 148.420959 150.020939 
L 148.65476 150.106883 
L 148.888561 150.192374 
L 149.122362 150.277413 
L 149.356162 150.362 
L 149.589963 150.446135 
L 149.823764 150.529817 
L 150.057565 150.613047 
L 150.291365 150.695824 
L 150.525166 150.778149 
L 150.758967 150.860022 
L 150.992768 150.941442 
L 151.226568 151.02241 
L 151.460369 151.102926 
L 151.69417 151.18299 
L 151.92797 151.262601 
L 152.161771 151.34176 
L 152.395572 151.420466 
L 152.629373 151.49872 
L 152.863173 151.576522 
L 153.096974 151.653871 
L 153.330775 151.730768 
L 153.564576 151.807213 
L 153.798376 151.883205 
L 154.032177 151.958745 
L 154.265978 152.033833 
L 154.499779 152.108469 
L 154.733579 152.182652 
L 154.96738 152.256382 
L 155.201181 152.329661 
L 155.434982 152.402487 
L 155.668782 152.474861 
L 155.902583 152.546782 
L 156.136384 152.618251 
L 156.370185 152.689268 
L 156.603985 152.759832 
L 156.837786 152.829944 
L 157.071587 152.899604 
L 157.305387 152.968811 
L 157.539188 153.037566 
L 157.772989 153.105869 
L 158.00679 153.173719 
L 158.24059 153.241117 
L 158.474391 153.308063 
L 158.708192 153.374556 
L 158.941993 153.440597 
L 159.175793 153.506186 
L 159.409594 153.571322 
L 159.643395 153.636006 
L 159.877196 153.700238 
L 160.110996 153.764017 
L 160.344797 153.827345 
L 160.578598 153.890219 
L 160.812399 153.952642 
L 161.046199 154.014612 
L 161.28 154.076129 
L 161.513801 154.137194 
L 161.747601 154.197807 
L 161.981402 154.257968 
L 162.215203 154.317676 
L 162.449004 154.376932 
L 162.682804 154.435736 
L 162.916605 154.494087 
L 163.150406 154.551986 
L 163.384207 154.609433 
L 163.618007 154.666427 
L 163.851808 154.722969 
L 164.085609 154.779059 
L 164.31941 154.834696 
L 164.55321 154.889881 
L 164.787011 154.944614 
L 165.020812 154.998894 
L 165.254613 155.052722 
L 165.488413 155.106098 
L 165.722214 155.159021 
L 165.956015 155.211492 
L 166.189815 155.263511 
L 166.423616 155.315077 
L 166.657417 155.366191 
L 166.891218 155.416852 
L 167.125018 155.467062 
L 167.358819 155.516819 
L 167.59262 155.566123 
L 167.826421 155.614975 
L 168.060221 155.663375 
L 168.294022 155.711323 
L 168.527823 155.758818 
L 168.761624 155.805861 
L 168.995424 155.852452 
L 169.229225 155.89859 
L 169.463026 155.944276 
L 169.696827 155.989509 
L 169.930627 156.034291 
L 170.164428 156.07862 
L 170.398229 156.122496 
L 170.63203 156.16592 
L 170.86583 156.208892 
L 171.099631 156.251412 
L 171.333432 156.293479 
L 171.567232 156.335094 
L 171.801033 156.376256 
L 172.034834 156.416967 
L 172.268635 156.457225 
L 172.502435 156.49703 
L 172.736236 156.536383 
L 172.970037 156.575284 
L 173.203838 156.613733 
L 173.437638 156.651729 
L 173.671439 156.689273 
L 173.90524 156.726364 
L 174.139041 156.763004 
L 174.372841 156.79919 
L 174.606642 156.834925 
L 174.840443 156.870207 
L 175.074244 156.905037 
L 175.308044 156.939415 
L 175.541845 156.97334 
L 175.775646 157.006813 
L 176.009446 157.039833 
L 176.243247 157.072401 
L 176.477048 157.104517 
L 176.710849 157.136181 
L 176.944649 157.167392 
L 177.17845 157.198151 
L 177.412251 157.228457 
L 177.646052 157.258311 
L 177.879852 157.287713 
L 178.113653 157.316663 
L 178.347454 157.34516 
L 178.581255 157.373205 
L 178.815055 157.400797 
L 178.815055 8.199203 
L 178.815055 8.199203 
L 178.581255 8.226795 
L 178.347454 8.25484 
L 178.113653 8.283337 
L 177.879852 8.312287 
L 177.646052 8.341689 
L 177.412251 8.371543 
L 177.17845 8.401849 
L 176.944649 8.432608 
L 176.710849 8.463819 
L 176.477048 8.495483 
L 176.243247 8.527599 
L 176.009446 8.560167 
L 175.775646 8.593187 
L 175.541845 8.62666 
L 175.308044 8.660585 
L 175.074244 8.694963 
L 174.840443 8.729793 
L 174.606642 8.765075 
L 174.372841 8.80081 
L 174.139041 8.836996 
L 173.90524 8.873636 
L 173.671439 8.910727 
L 173.437638 8.948271 
L 173.203838 8.986267 
L 172.970037 9.024716 
L 172.736236 9.063617 
L 172.502435 9.10297 
L 172.268635 9.142775 
L 172.034834 9.183033 
L 171.801033 9.223744 
L 171.567232 9.264906 
L 171.333432 9.306521 
L 171.099631 9.348588 
L 170.86583 9.391108 
L 170.63203 9.43408 
L 170.398229 9.477504 
L 170.164428 9.52138 
L 169.930627 9.565709 
L 169.696827 9.610491 
L 169.463026 9.655724 
L 169.229225 9.70141 
L 168.995424 9.747548 
L 168.761624 9.794139 
L 168.527823 9.841182 
L 168.294022 9.888677 
L 168.060221 9.936625 
L 167.826421 9.985025 
L 167.59262 10.033877 
L 167.358819 10.083181 
L 167.125018 10.132938 
L 166.891218 10.183148 
L 166.657417 10.233809 
L 166.423616 10.284923 
L 166.189815 10.336489 
L 165.956015 10.388508 
L 165.722214 10.440979 
L 165.488413 10.493902 
L 165.254613 10.547278 
L 165.020812 10.601106 
L 164.787011 10.655386 
L 164.55321 10.710119 
L 164.31941 10.765304 
L 164.085609 10.820941 
L 163.851808 10.877031 
L 163.618007 10.933573 
L 163.384207 10.990567 
L 163.150406 11.048014 
L 162.916605 11.105913 
L 162.682804 11.164264 
L 162.449004 11.223068 
L 162.215203 11.282324 
L 161.981402 11.342032 
L 161.747601 11.402193 
L 161.513801 11.462806 
L 161.28 11.523871 
L 161.046199 11.585388 
L 160.812399 11.647358 
L 160.578598 11.709781 
L 160.344797 11.772655 
L 160.110996 11.835983 
L 159.877196 11.899762 
L 159.643395 11.963994 
L 159.409594 12.028678 
L 159.175793 12.093814 
L 158.941993 12.159403 
L 158.708192 12.225444 
L 158.474391 12.291937 
L 158.24059 12.358883 
L 158.00679 12.426281 
L 157.772989 12.494131 
L 157.539188 12.562434 
L 157.305387 12.631189 
L 157.071587 12.700396 
L 156.837786 12.770056 
L 156.603985 12.840168 
L 156.370185 12.910732 
L 156.136384 12.981749 
L 155.902583 13.053218 
L 155.668782 13.125139 
L 155.434982 13.197513 
L 155.201181 13.270339 
L 154.96738 13.343618 
L 154.733579 13.417348 
L 154.499779 13.491531 
L 154.265978 13.566167 
L 154.032177 13.641255 
L 153.798376 13.716795 
L 153.564576 13.792787 
L 153.330775 13.869232 
L 153.096974 13.946129 
L 152.863173 14.023478 
L 152.629373 14.10128 
L 152.395572 14.179534 
L 152.161771 14.25824 
L 151.92797 14.337399 
L 151.69417 14.41701 
L 151.460369 14.497074 
L 151.226568 14.57759 
L 150.992768 14.658558 
L 150.758967 14.739978 
L 150.525166 14.821851 
L 150.291365 14.904176 
L 150.057565 14.986953 
L 149.823764 15.070183 
L 149.589963 15.153865 
L 149.356162 15.238 
L 149.122362 15.322587 
L 148.888561 15.407626 
L 148.65476 15.493117 
L 148.420959 15.579061 
L 148.187159 15.665457 
L 147.953358 15.752305 
L 147.719557 15.839606 
L 147.485756 15.927359 
L 147.251956 16.015565 
L 147.018155 16.104223 
L 146.784354 16.193333 
L 146.550554 16.282895 
L 146.316753 16.37291 
L 146.082952 16.463377 
L 145.849151 16.554297 
L 145.615351 16.645669 
L 145.38155 16.737493 
L 145.147749 16.829769 
L 144.913948 16.922498 
L 144.680148 17.015679 
L 144.446347 17.109313 
L 144.212546 17.203399 
L 143.978745 17.297937 
L 143.744945 17.392927 
L 143.511144 17.48837 
L 143.277343 17.584265 
L 143.043542 17.680613 
L 142.809742 17.777413 
L 142.575941 17.874665 
L 142.34214 17.972369 
L 142.108339 18.070526 
L 141.874539 18.169135 
L 141.640738 18.268197 
L 141.406937 18.367711 
L 141.173137 18.467677 
L 140.939336 18.568096 
L 140.705535 18.668966 
L 140.471734 18.77029 
L 140.237934 18.872065 
L 140.004133 18.974293 
L 139.770332 19.076973 
L 139.536531 19.180106 
L 139.302731 19.283691 
L 139.06893 19.387728 
L 138.835129 19.492218 
L 138.601328 19.597159 
L 138.367528 19.702554 
L 138.133727 19.8084 
L 137.899926 19.914699 
L 137.666125 20.02145 
L 137.432325 20.128654 
L 137.198524 20.23631 
L 136.964723 20.344418 
L 136.730923 20.452979 
L 136.497122 20.561992 
L 136.263321 20.671457 
L 136.02952 20.781374 
L 135.79572 20.891744 
L 135.561919 21.002567 
L 135.328118 21.113841 
L 135.094317 21.225568 
L 134.860517 21.337747 
L 134.626716 21.450379 
L 134.392915 21.563463 
L 134.159114 21.676999 
L 133.925314 21.790988 
L 133.691513 21.905429 
L 133.457712 22.020322 
L 133.223911 22.135668 
L 132.990111 22.251466 
L 132.75631 22.367716 
L 132.522509 22.484419 
L 132.288708 22.601574 
L 132.054908 22.719181 
L 131.821107 22.83724 
L 131.587306 22.955752 
L 131.353506 23.074717 
L 131.119705 23.194133 
L 130.885904 23.314002 
L 130.652103 23.434324 
L 130.418303 23.555097 
L 130.184502 23.676323 
L 129.950701 23.798002 
L 129.7169 23.920132 
L 129.4831 24.042715 
L 129.249299 24.165751 
L 129.015498 24.289238 
L 128.781697 24.413178 
L 128.547897 24.537571 
L 128.314096 24.662415 
L 128.080295 24.787712 
L 127.846494 24.913462 
L 127.612694 25.039663 
L 127.378893 25.166317 
L 127.145092 25.293424 
L 126.911292 25.420982 
L 126.677491 25.548993 
L 126.44369 25.677457 
L 126.209889 25.806372 
L 125.976089 25.93574 
L 125.742288 26.065561 
L 125.508487 26.195833 
L 125.274686 26.326559 
L 125.040886 26.457736 
L 124.807085 26.589366 
L 124.573284 26.721448 
L 124.339483 26.853982 
L 124.105683 26.986969 
L 123.871882 27.120408 
L 123.638081 27.254299 
L 123.40428 27.388643 
L 123.17048 27.523439 
L 122.936679 27.658687 
L 122.702878 27.794388 
L 122.469077 27.930541 
L 122.235277 28.067147 
L 122.001476 28.204204 
L 121.767675 28.341714 
L 121.533875 28.479677 
L 121.300074 28.618091 
L 121.066273 28.756959 
L 120.832472 28.896278 
L 120.598672 29.03605 
L 120.364871 29.176274 
L 120.13107 29.31695 
L 119.897269 29.458079 
L 119.663469 29.59966 
L 119.429668 29.741693 
L 119.195867 29.884179 
L 118.962066 30.027117 
L 118.728266 30.170508 
L 118.494465 30.314351 
L 118.260664 30.458646 
L 118.026863 30.603393 
L 117.793063 30.748593 
L 117.559262 30.894245 
L 117.325461 31.040349 
L 117.091661 31.186906 
L 116.85786 31.333915 
L 116.624059 31.481377 
L 116.390258 31.629291 
L 116.156458 31.777657 
L 115.922657 31.926475 
L 115.688856 32.075746 
L 115.455055 32.225469 
L 115.221255 32.375645 
L 114.987454 32.526272 
L 114.753653 32.677353 
L 114.519852 32.828885 
L 114.286052 32.98087 
L 114.052251 33.133307 
L 113.81845 33.286196 
L 113.584649 33.439538 
L 113.350849 33.593332 
L 113.117048 33.747579 
L 112.883247 33.902278 
L 112.649446 34.057429 
L 112.415646 34.213032 
L 112.181845 34.369088 
L 111.948044 34.525596 
L 111.714244 34.682557 
L 111.480443 34.83997 
L 111.246642 34.997835 
L 111.012841 35.156153 
L 110.779041 35.314922 
z
" style="fill:#0000ff;fill-opacity:0.1;stroke:#0000ff;stroke-opacity:0.1;"/>
    <path clip-path="url(#p5d932a14aa)" d="M 184.660074 8.172063 
L 184.660074 157.427937 
L 184.893875 157.454625 
L 185.127675 157.48086 
L 185.361476 157.506644 
L 185.595277 157.531974 
L 185.829077 157.556853 
L 186.062878 157.581279 
L 186.296679 157.605253 
L 186.53048 157.628774 
L 186.53048 7.971226 
L 186.53048 7.971226 
L 186.296679 7.994747 
L 186.062878 8.018721 
L 185.829077 8.043147 
L 185.595277 8.068026 
L 185.361476 8.093356 
L 185.127675 8.11914 
L 184.893875 8.145375 
L 184.660074 8.172063 
z
" style="fill:#0000ff;fill-opacity:0.1;stroke:#0000ff;stroke-opacity:0.1;"/>
    <path clip-path="url(#p5d932a14aa)" d="M 186.998081 7.948157 
L 186.998081 157.651843 
L 187.231882 157.67446 
L 187.465683 157.696625 
L 187.699483 157.718337 
L 187.933284 157.739596 
L 188.167085 157.760404 
L 188.400886 157.780759 
L 188.634686 157.800662 
L 188.868487 157.820112 
L 189.102288 157.83911 
L 189.336089 157.857656 
L 189.569889 157.87575 
L 189.80369 157.893391 
L 190.037491 157.910579 
L 190.271292 157.927316 
L 190.505092 157.9436 
L 190.738893 157.959432 
L 190.972694 157.974811 
L 191.206494 157.989738 
L 191.440295 158.004213 
L 191.674096 158.018235 
L 191.907897 158.031805 
L 192.141697 158.044923 
L 192.375498 158.057589 
L 192.609299 158.069802 
L 192.8431 158.081562 
L 193.0769 158.092871 
L 193.310701 158.103727 
L 193.544502 158.11413 
L 193.778303 158.124082 
L 194.012103 158.133581 
L 194.245904 158.142628 
L 194.479705 158.151222 
L 194.713506 158.159364 
L 194.947306 158.167054 
L 195.181107 158.174291 
L 195.414908 158.181076 
L 195.648708 158.187409 
L 195.882509 158.193289 
L 196.11631 158.198717 
L 196.350111 158.203693 
L 196.583911 158.208216 
L 196.817712 158.212287 
L 197.051513 158.215906 
L 197.051513 7.384094 
L 197.051513 7.384094 
L 196.817712 7.387713 
L 196.583911 7.391784 
L 196.350111 7.396307 
L 196.11631 7.401283 
L 195.882509 7.406711 
L 195.648708 7.412591 
L 195.414908 7.418924 
L 195.181107 7.425709 
L 194.947306 7.432946 
L 194.713506 7.440636 
L 194.479705 7.448778 
L 194.245904 7.457372 
L 194.012103 7.466419 
L 193.778303 7.475918 
L 193.544502 7.48587 
L 193.310701 7.496273 
L 193.0769 7.507129 
L 192.8431 7.518438 
L 192.609299 7.530198 
L 192.375498 7.542411 
L 192.141697 7.555077 
L 191.907897 7.568195 
L 191.674096 7.581765 
L 191.440295 7.595787 
L 191.206494 7.610262 
L 190.972694 7.625189 
L 190.738893 7.640568 
L 190.505092 7.6564 
L 190.271292 7.672684 
L 190.037491 7.689421 
L 189.80369 7.706609 
L 189.569889 7.72425 
L 189.336089 7.742344 
L 189.102288 7.76089 
L 188.868487 7.779888 
L 188.634686 7.799338 
L 188.400886 7.819241 
L 188.167085 7.839596 
L 187.933284 7.860404 
L 187.699483 7.881663 
L 187.465683 7.903375 
L 187.231882 7.92554 
L 186.998081 7.948157 
z
" style="fill:#0000ff;fill-opacity:0.1;stroke:#0000ff;stroke-opacity:0.1;"/>
    <path clip-path="url(#p5d932a14aa)" d="M 197.519114 7.380928 
L 197.519114 158.219072 
L 197.752915 158.221786 
L 197.986716 158.224048 
L 198.220517 158.225857 
L 198.454317 158.227214 
L 198.688118 158.228119 
L 198.921919 158.228571 
L 199.15572 158.228571 
L 199.38952 158.228119 
L 199.623321 158.227214 
L 199.857122 158.225857 
L 200.090923 158.224048 
L 200.324723 158.221786 
L 200.558524 158.219072 
L 200.792325 158.215906 
L 201.026125 158.212287 
L 201.259926 158.208216 
L 201.493727 158.203693 
L 201.493727 7.396307 
L 201.493727 7.396307 
L 201.259926 7.391784 
L 201.026125 7.387713 
L 200.792325 7.384094 
L 200.558524 7.380928 
L 200.324723 7.378214 
L 200.090923 7.375952 
L 199.857122 7.374143 
L 199.623321 7.372786 
L 199.38952 7.371881 
L 199.15572 7.371429 
L 198.921919 7.371429 
L 198.688118 7.371881 
L 198.454317 7.372786 
L 198.220517 7.374143 
L 197.986716 7.375952 
L 197.752915 7.378214 
L 197.519114 7.380928 
z
" style="fill:#0000ff;fill-opacity:0.1;stroke:#0000ff;stroke-opacity:0.1;"/>
    <path clip-path="url(#p5d932a14aa)" d="M 201.961328 7.401283 
L 201.961328 158.198717 
L 202.195129 158.193289 
L 202.42893 158.187409 
L 202.662731 158.181076 
L 202.896531 158.174291 
L 203.130332 158.167054 
L 203.364133 158.159364 
L 203.597934 158.151222 
L 203.831734 158.142628 
L 204.065535 158.133581 
L 204.299336 158.124082 
L 204.533137 158.11413 
L 204.766937 158.103727 
L 205.000738 158.092871 
L 205.234539 158.081562 
L 205.468339 158.069802 
L 205.70214 158.057589 
L 205.935941 158.044923 
L 206.169742 158.031805 
L 206.169742 7.568195 
L 206.169742 7.568195 
L 205.935941 7.555077 
L 205.70214 7.542411 
L 205.468339 7.530198 
L 205.234539 7.518438 
L 205.000738 7.507129 
L 204.766937 7.496273 
L 204.533137 7.48587 
L 204.299336 7.475918 
L 204.065535 7.466419 
L 203.831734 7.457372 
L 203.597934 7.448778 
L 203.364133 7.440636 
L 203.130332 7.432946 
L 202.896531 7.425709 
L 202.662731 7.418924 
L 202.42893 7.412591 
L 202.195129 7.406711 
L 201.961328 7.401283 
z
" style="fill:#0000ff;fill-opacity:0.1;stroke:#0000ff;stroke-opacity:0.1;"/>
    <path clip-path="url(#p5d932a14aa)" d="M 206.637343 7.581765 
L 206.637343 158.018235 
L 206.637343 7.581765 
L 206.637343 7.581765 
z
" style="fill:#0000ff;fill-opacity:0.1;stroke:#0000ff;stroke-opacity:0.1;"/>
    <path clip-path="url(#p5d932a14aa)" d="M 212.01476 7.595787 
L 212.01476 158.004213 
L 212.248561 157.989738 
L 212.482362 157.974811 
L 212.716162 157.959432 
L 212.949963 157.9436 
L 213.183764 157.927316 
L 213.417565 157.910579 
L 213.651365 157.893391 
L 213.885166 157.87575 
L 213.885166 7.72425 
L 213.885166 7.72425 
L 213.651365 7.706609 
L 213.417565 7.689421 
L 213.183764 7.672684 
L 212.949963 7.6564 
L 212.716162 7.640568 
L 212.482362 7.625189 
L 212.248561 7.610262 
L 212.01476 7.595787 
z
" style="fill:#0000ff;fill-opacity:0.1;stroke:#0000ff;stroke-opacity:0.1;"/>
    <path clip-path="url(#p5d932a14aa)" d="M 214.352768 7.742344 
L 214.352768 157.857656 
L 214.586568 157.83911 
L 214.820369 157.820112 
L 215.05417 157.800662 
L 215.28797 157.780759 
L 215.521771 157.760404 
L 215.755572 157.739596 
L 215.989373 157.718337 
L 216.223173 157.696625 
L 216.456974 157.67446 
L 216.690775 157.651843 
L 216.924576 157.628774 
L 217.158376 157.605253 
L 217.392177 157.581279 
L 217.625978 157.556853 
L 217.859779 157.531974 
L 217.859779 8.068026 
L 217.859779 8.068026 
L 217.625978 8.043147 
L 217.392177 8.018721 
L 217.158376 7.994747 
L 216.924576 7.971226 
L 216.690775 7.948157 
L 216.456974 7.92554 
L 216.223173 7.903375 
L 215.989373 7.881663 
L 215.755572 7.860404 
L 215.521771 7.839596 
L 215.28797 7.819241 
L 215.05417 7.799338 
L 214.820369 7.779888 
L 214.586568 7.76089 
L 214.352768 7.742344 
z
" style="fill:#0000ff;fill-opacity:0.1;stroke:#0000ff;stroke-opacity:0.1;"/>
    <path clip-path="url(#p5d932a14aa)" d="M 218.561181 8.093356 
L 218.561181 157.506644 
L 218.794982 157.48086 
L 219.028782 157.454625 
L 219.262583 157.427937 
L 219.496384 157.400797 
L 219.730185 157.373205 
L 219.963985 157.34516 
L 220.197786 157.316663 
L 220.431587 157.287713 
L 220.665387 157.258311 
L 220.899188 157.228457 
L 221.132989 157.198151 
L 221.36679 157.167392 
L 221.60059 157.136181 
L 221.834391 157.104517 
L 222.068192 157.072401 
L 222.301993 157.039833 
L 222.535793 157.006813 
L 222.769594 156.97334 
L 223.003395 156.939415 
L 223.237196 156.905037 
L 223.470996 156.870207 
L 223.704797 156.834925 
L 223.938598 156.79919 
L 224.172399 156.763004 
L 224.406199 156.726364 
L 224.64 156.689273 
L 224.873801 156.651729 
L 225.107601 156.613733 
L 225.341402 156.575284 
L 225.575203 156.536383 
L 225.809004 156.49703 
L 226.042804 156.457225 
L 226.276605 156.416967 
L 226.510406 156.376256 
L 226.510406 9.223744 
L 226.510406 9.223744 
L 226.276605 9.183033 
L 226.042804 9.142775 
L 225.809004 9.10297 
L 225.575203 9.063617 
L 225.341402 9.024716 
L 225.107601 8.986267 
L 224.873801 8.948271 
L 224.64 8.910727 
L 224.406199 8.873636 
L 224.172399 8.836996 
L 223.938598 8.80081 
L 223.704797 8.765075 
L 223.470996 8.729793 
L 223.237196 8.694963 
L 223.003395 8.660585 
L 222.769594 8.62666 
L 222.535793 8.593187 
L 222.301993 8.560167 
L 222.068192 8.527599 
L 221.834391 8.495483 
L 221.60059 8.463819 
L 221.36679 8.432608 
L 221.132989 8.401849 
L 220.899188 8.371543 
L 220.665387 8.341689 
L 220.431587 8.312287 
L 220.197786 8.283337 
L 219.963985 8.25484 
L 219.730185 8.226795 
L 219.496384 8.199203 
L 219.262583 8.172063 
L 219.028782 8.145375 
L 218.794982 8.11914 
L 218.561181 8.093356 
z
" style="fill:#0000ff;fill-opacity:0.1;stroke:#0000ff;stroke-opacity:0.1;"/>
    <path clip-path="url(#p5d932a14aa)" d="M 273.738155 9.264906 
L 273.738155 156.335094 
L 273.971956 156.293479 
L 274.205756 156.251412 
L 274.439557 156.208892 
L 274.673358 156.16592 
L 274.907159 156.122496 
L 275.140959 156.07862 
L 275.37476 156.034291 
L 275.608561 155.989509 
L 275.842362 155.944276 
L 276.076162 155.89859 
L 276.309963 155.852452 
L 276.543764 155.805861 
L 276.777565 155.758818 
L 277.011365 155.711323 
L 277.245166 155.663375 
L 277.478967 155.614975 
L 277.712768 155.566123 
L 277.946568 155.516819 
L 278.180369 155.467062 
L 278.41417 155.416852 
L 278.64797 155.366191 
L 278.881771 155.315077 
L 279.115572 155.263511 
L 279.349373 155.211492 
L 279.583173 155.159021 
L 279.816974 155.106098 
L 280.050775 155.052722 
L 280.284576 154.998894 
L 280.518376 154.944614 
L 280.752177 154.889881 
L 280.985978 154.834696 
L 281.219779 154.779059 
L 281.453579 154.722969 
L 281.68738 154.666427 
L 281.921181 154.609433 
L 282.154982 154.551986 
L 282.388782 154.494087 
L 282.622583 154.435736 
L 282.622583 11.164264 
L 282.622583 11.164264 
L 282.388782 11.105913 
L 282.154982 11.048014 
L 281.921181 10.990567 
L 281.68738 10.933573 
L 281.453579 10.877031 
L 281.219779 10.820941 
L 280.985978 10.765304 
L 280.752177 10.710119 
L 280.518376 10.655386 
L 280.284576 10.601106 
L 280.050775 10.547278 
L 279.816974 10.493902 
L 279.583173 10.440979 
L 279.349373 10.388508 
L 279.115572 10.336489 
L 278.881771 10.284923 
L 278.64797 10.233809 
L 278.41417 10.183148 
L 278.180369 10.132938 
L 277.946568 10.083181 
L 277.712768 10.033877 
L 277.478967 9.985025 
L 277.245166 9.936625 
L 277.011365 9.888677 
L 276.777565 9.841182 
L 276.543764 9.794139 
L 276.309963 9.747548 
L 276.076162 9.70141 
L 275.842362 9.655724 
L 275.608561 9.610491 
L 275.37476 9.565709 
L 275.140959 9.52138 
L 274.907159 9.477504 
L 274.673358 9.43408 
L 274.439557 9.391108 
L 274.205756 9.348588 
L 273.971956 9.306521 
L 273.738155 9.264906 
z
" style="fill:#0000ff;fill-opacity:0.1;stroke:#0000ff;stroke-opacity:0.1;"/>
    <path clip-path="url(#p5d932a14aa)" d="M 283.090185 11.223068 
L 283.090185 154.376932 
L 283.323985 154.317676 
L 283.557786 154.257968 
L 283.791587 154.197807 
L 284.025387 154.137194 
L 284.259188 154.076129 
L 284.492989 154.014612 
L 284.72679 153.952642 
L 284.96059 153.890219 
L 285.194391 153.827345 
L 285.194391 11.772655 
L 285.194391 11.772655 
L 284.96059 11.709781 
L 284.72679 11.647358 
L 284.492989 11.585388 
L 284.259188 11.523871 
L 284.025387 11.462806 
L 283.791587 11.402193 
L 283.557786 11.342032 
L 283.323985 11.282324 
L 283.090185 11.223068 
z
" style="fill:#0000ff;fill-opacity:0.1;stroke:#0000ff;stroke-opacity:0.1;"/>
    <path clip-path="url(#p5d932a14aa)" d="M 285.661993 11.835983 
L 285.661993 153.764017 
L 285.895793 153.700238 
L 286.129594 153.636006 
L 286.363395 153.571322 
L 286.597196 153.506186 
L 286.830996 153.440597 
L 287.064797 153.374556 
L 287.298598 153.308063 
L 287.532399 153.241117 
L 287.766199 153.173719 
L 288 153.105869 
L 288.233801 153.037566 
L 288.467601 152.968811 
L 288.701402 152.899604 
L 288.935203 152.829944 
L 288.935203 12.770056 
L 288.935203 12.770056 
L 288.701402 12.700396 
L 288.467601 12.631189 
L 288.233801 12.562434 
L 288 12.494131 
L 287.766199 12.426281 
L 287.532399 12.358883 
L 287.298598 12.291937 
L 287.064797 12.225444 
L 286.830996 12.159403 
L 286.597196 12.093814 
L 286.363395 12.028678 
L 286.129594 11.963994 
L 285.895793 11.899762 
L 285.661993 11.835983 
z
" style="fill:#0000ff;fill-opacity:0.1;stroke:#0000ff;stroke-opacity:0.1;"/>
    <path clip-path="url(#p5d932a14aa)" d="M 289.402804 12.840168 
L 289.402804 152.759832 
L 289.636605 152.689268 
L 289.870406 152.618251 
L 290.104207 152.546782 
L 290.338007 152.474861 
L 290.571808 152.402487 
L 290.805609 152.329661 
L 291.03941 152.256382 
L 291.27321 152.182652 
L 291.507011 152.108469 
L 291.740812 152.033833 
L 291.974613 151.958745 
L 292.208413 151.883205 
L 292.442214 151.807213 
L 292.676015 151.730768 
L 292.909815 151.653871 
L 293.143616 151.576522 
L 293.377417 151.49872 
L 293.611218 151.420466 
L 293.845018 151.34176 
L 293.845018 14.25824 
L 293.845018 14.25824 
L 293.611218 14.179534 
L 293.377417 14.10128 
L 293.143616 14.023478 
L 292.909815 13.946129 
L 292.676015 13.869232 
L 292.442214 13.792787 
L 292.208413 13.716795 
L 291.974613 13.641255 
L 291.740812 13.566167 
L 291.507011 13.491531 
L 291.27321 13.417348 
L 291.03941 13.343618 
L 290.805609 13.270339 
L 290.571808 13.197513 
L 290.338007 13.125139 
L 290.104207 13.053218 
L 289.870406 12.981749 
L 289.636605 12.910732 
L 289.402804 12.840168 
z
" style="fill:#0000ff;fill-opacity:0.1;stroke:#0000ff;stroke-opacity:0.1;"/>
    <path clip-path="url(#p5d932a14aa)" d="M 294.31262 14.337399 
L 294.31262 151.262601 
L 294.546421 151.18299 
L 294.546421 14.41701 
L 294.546421 14.41701 
L 294.31262 14.337399 
z
" style="fill:#0000ff;fill-opacity:0.1;stroke:#0000ff;stroke-opacity:0.1;"/>
    <path clip-path="url(#p5d932a14aa)" d="M 295.014022 14.497074 
L 295.014022 151.102926 
L 295.014022 14.497074 
L 295.014022 14.497074 
z
" style="fill:#0000ff;fill-opacity:0.1;stroke:#0000ff;stroke-opacity:0.1;"/>
    <path clip-path="url(#p5d932a14aa)" d="M 295.715424 14.57759 
L 295.715424 151.02241 
L 295.949225 150.941442 
L 296.183026 150.860022 
L 296.416827 150.778149 
L 296.650627 150.695824 
L 296.884428 150.613047 
L 296.884428 14.986953 
L 296.884428 14.986953 
L 296.650627 14.904176 
L 296.416827 14.821851 
L 296.183026 14.739978 
L 295.949225 14.658558 
L 295.715424 14.57759 
z
" style="fill:#0000ff;fill-opacity:0.1;stroke:#0000ff;stroke-opacity:0.1;"/>
    <path clip-path="url(#p5d932a14aa)" d="M 301.092841 15.070183 
L 301.092841 150.529817 
L 301.326642 150.446135 
L 301.560443 150.362 
L 301.794244 150.277413 
L 302.028044 150.192374 
L 302.261845 150.106883 
L 302.495646 150.020939 
L 302.729446 149.934543 
L 302.963247 149.847695 
L 303.197048 149.760394 
L 303.430849 149.672641 
L 303.664649 149.584435 
L 303.89845 149.495777 
L 304.132251 149.406667 
L 304.366052 149.317105 
L 304.599852 149.22709 
L 304.833653 149.136623 
L 305.067454 149.045703 
L 305.301255 148.954331 
L 305.535055 148.862507 
L 305.768856 148.770231 
L 306.002657 148.677502 
L 306.236458 148.584321 
L 306.470258 148.490687 
L 306.704059 148.396601 
L 306.93786 148.302063 
L 307.171661 148.207073 
L 307.405461 148.11163 
L 307.639262 148.015735 
L 307.873063 147.919387 
L 308.106863 147.822587 
L 308.340664 147.725335 
L 308.574465 147.627631 
L 308.808266 147.529474 
L 309.042066 147.430865 
L 309.275867 147.331803 
L 309.509668 147.232289 
L 309.743469 147.132323 
L 309.977269 147.031904 
L 310.21107 146.931034 
L 310.444871 146.82971 
L 310.678672 146.727935 
L 310.912472 146.625707 
L 311.146273 146.523027 
L 311.380074 146.419894 
L 311.613875 146.316309 
L 311.847675 146.212272 
L 312.081476 146.107782 
L 312.315277 146.002841 
L 312.549077 145.897446 
L 312.782878 145.7916 
L 313.016679 145.685301 
L 313.25048 145.57855 
L 313.48428 145.471346 
L 313.718081 145.36369 
L 313.951882 145.255582 
L 314.185683 145.147021 
L 314.419483 145.038008 
L 314.653284 144.928543 
L 314.887085 144.818626 
L 315.120886 144.708256 
L 315.354686 144.597433 
L 315.588487 144.486159 
L 315.822288 144.374432 
L 316.056089 144.262253 
L 316.289889 144.149621 
L 316.52369 144.036537 
L 316.757491 143.923001 
L 316.991292 143.809012 
L 317.225092 143.694571 
L 317.458893 143.579678 
L 317.692694 143.464332 
L 317.926494 143.348534 
L 318.160295 143.232284 
L 318.394096 143.115581 
L 318.627897 142.998426 
L 318.861697 142.880819 
L 319.095498 142.76276 
L 319.329299 142.644248 
L 319.5631 142.525283 
L 319.7969 142.405867 
L 320.030701 142.285998 
L 320.264502 142.165676 
L 320.498303 142.044903 
L 320.732103 141.923677 
L 320.965904 141.801998 
L 321.199705 141.679868 
L 321.433506 141.557285 
L 321.667306 141.434249 
L 321.901107 141.310762 
L 322.134908 141.186822 
L 322.368708 141.062429 
L 322.602509 140.937585 
L 322.83631 140.812288 
L 323.070111 140.686538 
L 323.303911 140.560337 
L 323.537712 140.433683 
L 323.771513 140.306576 
L 324.005314 140.179018 
L 324.239114 140.051007 
L 324.472915 139.922543 
L 324.706716 139.793628 
L 324.940517 139.66426 
L 325.174317 139.534439 
L 325.408118 139.404167 
L 325.641919 139.273441 
L 325.87572 139.142264 
L 326.10952 139.010634 
L 326.343321 138.878552 
L 326.577122 138.746018 
L 326.810923 138.613031 
L 327.044723 138.479592 
L 327.278524 138.345701 
L 327.512325 138.211357 
L 327.746125 138.076561 
L 327.979926 137.941313 
L 328.213727 137.805612 
L 328.447528 137.669459 
L 328.681328 137.532853 
L 328.915129 137.395796 
L 329.14893 137.258286 
L 329.382731 137.120323 
L 329.616531 136.981909 
L 329.850332 136.843041 
L 330.084133 136.703722 
L 330.317934 136.56395 
L 330.551734 136.423726 
L 330.785535 136.28305 
L 331.019336 136.141921 
L 331.253137 136.00034 
L 331.486937 135.858307 
L 331.720738 135.715821 
L 331.954539 135.572883 
L 331.954539 30.027117 
L 331.954539 30.027117 
L 331.720738 29.884179 
L 331.486937 29.741693 
L 331.253137 29.59966 
L 331.019336 29.458079 
L 330.785535 29.31695 
L 330.551734 29.176274 
L 330.317934 29.03605 
L 330.084133 28.896278 
L 329.850332 28.756959 
L 329.616531 28.618091 
L 329.382731 28.479677 
L 329.14893 28.341714 
L 328.915129 28.204204 
L 328.681328 28.067147 
L 328.447528 27.930541 
L 328.213727 27.794388 
L 327.979926 27.658687 
L 327.746125 27.523439 
L 327.512325 27.388643 
L 327.278524 27.254299 
L 327.044723 27.120408 
L 326.810923 26.986969 
L 326.577122 26.853982 
L 326.343321 26.721448 
L 326.10952 26.589366 
L 325.87572 26.457736 
L 325.641919 26.326559 
L 325.408118 26.195833 
L 325.174317 26.065561 
L 324.940517 25.93574 
L 324.706716 25.806372 
L 324.472915 25.677457 
L 324.239114 25.548993 
L 324.005314 25.420982 
L 323.771513 25.293424 
L 323.537712 25.166317 
L 323.303911 25.039663 
L 323.070111 24.913462 
L 322.83631 24.787712 
L 322.602509 24.662415 
L 322.368708 24.537571 
L 322.134908 24.413178 
L 321.901107 24.289238 
L 321.667306 24.165751 
L 321.433506 24.042715 
L 321.199705 23.920132 
L 320.965904 23.798002 
L 320.732103 23.676323 
L 320.498303 23.555097 
L 320.264502 23.434324 
L 320.030701 23.314002 
L 319.7969 23.194133 
L 319.5631 23.074717 
L 319.329299 22.955752 
L 319.095498 22.83724 
L 318.861697 22.719181 
L 318.627897 22.601574 
L 318.394096 22.484419 
L 318.160295 22.367716 
L 317.926494 22.251466 
L 317.692694 22.135668 
L 317.458893 22.020322 
L 317.225092 21.905429 
L 316.991292 21.790988 
L 316.757491 21.676999 
L 316.52369 21.563463 
L 316.289889 21.450379 
L 316.056089 21.337747 
L 315.822288 21.225568 
L 315.588487 21.113841 
L 315.354686 21.002567 
L 315.120886 20.891744 
L 314.887085 20.781374 
L 314.653284 20.671457 
L 314.419483 20.561992 
L 314.185683 20.452979 
L 313.951882 20.344418 
L 313.718081 20.23631 
L 313.48428 20.128654 
L 313.25048 20.02145 
L 313.016679 19.914699 
L 312.782878 19.8084 
L 312.549077 19.702554 
L 312.315277 19.597159 
L 312.081476 19.492218 
L 311.847675 19.387728 
L 311.613875 19.283691 
L 311.380074 19.180106 
L 311.146273 19.076973 
L 310.912472 18.974293 
L 310.678672 18.872065 
L 310.444871 18.77029 
L 310.21107 18.668966 
L 309.977269 18.568096 
L 309.743469 18.467677 
L 309.509668 18.367711 
L 309.275867 18.268197 
L 309.042066 18.169135 
L 308.808266 18.070526 
L 308.574465 17.972369 
L 308.340664 17.874665 
L 308.106863 17.777413 
L 307.873063 17.680613 
L 307.639262 17.584265 
L 307.405461 17.48837 
L 307.171661 17.392927 
L 306.93786 17.297937 
L 306.704059 17.203399 
L 306.470258 17.109313 
L 306.236458 17.015679 
L 306.002657 16.922498 
L 305.768856 16.829769 
L 305.535055 16.737493 
L 305.301255 16.645669 
L 305.067454 16.554297 
L 304.833653 16.463377 
L 304.599852 16.37291 
L 304.366052 16.282895 
L 304.132251 16.193333 
L 303.89845 16.104223 
L 303.664649 16.015565 
L 303.430849 15.927359 
L 303.197048 15.839606 
L 302.963247 15.752305 
L 302.729446 15.665457 
L 302.495646 15.579061 
L 302.261845 15.493117 
L 302.028044 15.407626 
L 301.794244 15.322587 
L 301.560443 15.238 
L 301.326642 15.153865 
L 301.092841 15.070183 
z
" style="fill:#0000ff;fill-opacity:0.1;stroke:#0000ff;stroke-opacity:0.1;"/>
    <path clip-path="url(#p5d932a14aa)" d="M 332.42214 30.170508 
L 332.42214 135.429492 
L 332.655941 135.285649 
L 332.889742 135.141354 
L 333.123542 134.996607 
L 333.357343 134.851407 
L 333.591144 134.705755 
L 333.824945 134.559651 
L 334.058745 134.413094 
L 334.292546 134.266085 
L 334.526347 134.118623 
L 334.760148 133.970709 
L 334.993948 133.822343 
L 335.227749 133.673525 
L 335.46155 133.524254 
L 335.695351 133.374531 
L 335.929151 133.224355 
L 336.162952 133.073728 
L 336.396753 132.922647 
L 336.630554 132.771115 
L 336.864354 132.61913 
L 337.098155 132.466693 
L 337.331956 132.313804 
L 337.565756 132.160462 
L 337.799557 132.006668 
L 338.033358 131.852421 
L 338.267159 131.697722 
L 338.500959 131.542571 
L 338.73476 131.386968 
L 338.968561 131.230912 
L 339.202362 131.074404 
L 339.436162 130.917443 
L 339.669963 130.76003 
L 339.903764 130.602165 
L 340.137565 130.443847 
L 340.371365 130.285078 
L 340.605166 130.125855 
L 340.838967 129.966181 
L 341.072768 129.806054 
L 341.306568 129.645475 
L 341.540369 129.484443 
L 341.77417 129.322959 
L 342.00797 129.161023 
L 342.241771 128.998635 
L 342.475572 128.835794 
L 342.709373 128.672501 
L 342.943173 128.508755 
L 343.176974 128.344557 
L 343.410775 128.179907 
L 343.644576 128.014804 
L 343.878376 127.84925 
L 344.112177 127.683242 
L 344.345978 127.516783 
L 344.579779 127.349871 
L 344.813579 127.182507 
L 345.04738 127.01469 
L 345.281181 126.846421 
L 345.514982 126.6777 
L 345.748782 126.508526 
L 345.982583 126.3389 
L 346.216384 126.168822 
L 346.450185 125.998292 
L 346.683985 125.827309 
L 346.917786 125.655873 
L 347.151587 125.483986 
L 347.385387 125.311646 
L 347.619188 125.138854 
L 347.852989 124.965609 
L 348.08679 124.791912 
L 348.32059 124.617763 
L 348.554391 124.443161 
L 348.788192 124.268107 
L 349.021993 124.092601 
L 349.255793 123.916642 
L 349.489594 123.740232 
L 349.723395 123.563368 
L 349.957196 123.386053 
L 350.190996 123.208285 
L 350.424797 123.030064 
L 350.658598 122.851392 
L 350.892399 122.672267 
L 351.126199 122.49269 
L 351.36 122.31266 
L 351.593801 122.132178 
L 351.827601 121.951244 
L 352.061402 121.769857 
L 352.295203 121.588018 
L 352.529004 121.405727 
L 352.762804 121.222983 
L 352.996605 121.039787 
L 353.230406 120.856139 
L 353.464207 120.672038 
L 353.698007 120.487485 
L 353.931808 120.30248 
L 354.165609 120.117022 
L 354.39941 119.931112 
L 354.63321 119.74475 
L 354.867011 119.557935 
L 355.100812 119.370668 
L 355.334613 119.182949 
L 355.568413 118.994777 
L 355.802214 118.806153 
L 356.036015 118.617077 
L 356.269815 118.427548 
L 356.503616 118.237567 
L 356.737417 118.047134 
L 356.971218 117.856248 
L 357.205018 117.66491 
L 357.438819 117.47312 
L 357.67262 117.280877 
L 357.906421 117.088182 
L 358.140221 116.895035 
L 358.374022 116.701435 
L 358.607823 116.507383 
L 358.841624 116.312878 
L 359.075424 116.117922 
L 359.309225 115.922513 
L 359.543026 115.726651 
L 359.776827 115.530338 
L 360.010627 115.333571 
L 360.244428 115.136353 
L 360.478229 114.938682 
L 360.71203 114.740559 
L 360.94583 114.541984 
L 361.179631 114.342956 
L 361.413432 114.143476 
L 361.647232 113.943544 
L 361.881033 113.743159 
L 362.114834 113.542322 
L 362.348635 113.341032 
L 362.582435 113.139291 
L 362.816236 112.937097 
L 363.050037 112.73445 
L 363.283838 112.531351 
L 363.517638 112.3278 
L 363.751439 112.123797 
L 363.98524 111.919341 
L 364.219041 111.714433 
L 364.452841 111.509073 
L 364.686642 111.30326 
L 364.920443 111.096995 
L 365.154244 110.890277 
L 365.388044 110.683108 
L 365.621845 110.475485 
L 365.855646 110.267411 
L 366.089446 110.058884 
L 366.323247 109.849905 
L 366.557048 109.640474 
L 366.790849 109.43059 
L 367.024649 109.220254 
L 367.25845 109.009465 
L 367.492251 108.798224 
L 367.726052 108.586531 
L 367.959852 108.374386 
L 368.193653 108.161788 
L 368.427454 107.948738 
L 368.661255 107.735235 
L 368.895055 107.521281 
L 369.128856 107.306873 
L 369.362657 107.092014 
L 369.362657 58.507986 
L 369.362657 58.507986 
L 369.128856 58.293127 
L 368.895055 58.078719 
L 368.661255 57.864765 
L 368.427454 57.651262 
L 368.193653 57.438212 
L 367.959852 57.225614 
L 367.726052 57.013469 
L 367.492251 56.801776 
L 367.25845 56.590535 
L 367.024649 56.379746 
L 366.790849 56.16941 
L 366.557048 55.959526 
L 366.323247 55.750095 
L 366.089446 55.541116 
L 365.855646 55.332589 
L 365.621845 55.124515 
L 365.388044 54.916892 
L 365.154244 54.709723 
L 364.920443 54.503005 
L 364.686642 54.29674 
L 364.452841 54.090927 
L 364.219041 53.885567 
L 363.98524 53.680659 
L 363.751439 53.476203 
L 363.517638 53.2722 
L 363.283838 53.068649 
L 363.050037 52.86555 
L 362.816236 52.662903 
L 362.582435 52.460709 
L 362.348635 52.258968 
L 362.114834 52.057678 
L 361.881033 51.856841 
L 361.647232 51.656456 
L 361.413432 51.456524 
L 361.179631 51.257044 
L 360.94583 51.058016 
L 360.71203 50.859441 
L 360.478229 50.661318 
L 360.244428 50.463647 
L 360.010627 50.266429 
L 359.776827 50.069662 
L 359.543026 49.873349 
L 359.309225 49.677487 
L 359.075424 49.482078 
L 358.841624 49.287122 
L 358.607823 49.092617 
L 358.374022 48.898565 
L 358.140221 48.704965 
L 357.906421 48.511818 
L 357.67262 48.319123 
L 357.438819 48.12688 
L 357.205018 47.93509 
L 356.971218 47.743752 
L 356.737417 47.552866 
L 356.503616 47.362433 
L 356.269815 47.172452 
L 356.036015 46.982923 
L 355.802214 46.793847 
L 355.568413 46.605223 
L 355.334613 46.417051 
L 355.100812 46.229332 
L 354.867011 46.042065 
L 354.63321 45.85525 
L 354.39941 45.668888 
L 354.165609 45.482978 
L 353.931808 45.29752 
L 353.698007 45.112515 
L 353.464207 44.927962 
L 353.230406 44.743861 
L 352.996605 44.560213 
L 352.762804 44.377017 
L 352.529004 44.194273 
L 352.295203 44.011982 
L 352.061402 43.830143 
L 351.827601 43.648756 
L 351.593801 43.467822 
L 351.36 43.28734 
L 351.126199 43.10731 
L 350.892399 42.927733 
L 350.658598 42.748608 
L 350.424797 42.569936 
L 350.190996 42.391715 
L 349.957196 42.213947 
L 349.723395 42.036632 
L 349.489594 41.859768 
L 349.255793 41.683358 
L 349.021993 41.507399 
L 348.788192 41.331893 
L 348.554391 41.156839 
L 348.32059 40.982237 
L 348.08679 40.808088 
L 347.852989 40.634391 
L 347.619188 40.461146 
L 347.385387 40.288354 
L 347.151587 40.116014 
L 346.917786 39.944127 
L 346.683985 39.772691 
L 346.450185 39.601708 
L 346.216384 39.431178 
L 345.982583 39.2611 
L 345.748782 39.091474 
L 345.514982 38.9223 
L 345.281181 38.753579 
L 345.04738 38.58531 
L 344.813579 38.417493 
L 344.579779 38.250129 
L 344.345978 38.083217 
L 344.112177 37.916758 
L 343.878376 37.75075 
L 343.644576 37.585196 
L 343.410775 37.420093 
L 343.176974 37.255443 
L 342.943173 37.091245 
L 342.709373 36.927499 
L 342.475572 36.764206 
L 342.241771 36.601365 
L 342.00797 36.438977 
L 341.77417 36.277041 
L 341.540369 36.115557 
L 341.306568 35.954525 
L 341.072768 35.793946 
L 340.838967 35.633819 
L 340.605166 35.474145 
L 340.371365 35.314922 
L 340.137565 35.156153 
L 339.903764 34.997835 
L 339.669963 34.83997 
L 339.436162 34.682557 
L 339.202362 34.525596 
L 338.968561 34.369088 
L 338.73476 34.213032 
L 338.500959 34.057429 
L 338.267159 33.902278 
L 338.033358 33.747579 
L 337.799557 33.593332 
L 337.565756 33.439538 
L 337.331956 33.286196 
L 337.098155 33.133307 
L 336.864354 32.98087 
L 336.630554 32.828885 
L 336.396753 32.677353 
L 336.162952 32.526272 
L 335.929151 32.375645 
L 335.695351 32.225469 
L 335.46155 32.075746 
L 335.227749 31.926475 
L 334.993948 31.777657 
L 334.760148 31.629291 
L 334.526347 31.481377 
L 334.292546 31.333915 
L 334.058745 31.186906 
L 333.824945 31.040349 
L 333.591144 30.894245 
L 333.357343 30.748593 
L 333.123542 30.603393 
L 332.889742 30.458646 
L 332.655941 30.314351 
L 332.42214 30.170508 
z
" style="fill:#0000ff;fill-opacity:0.1;stroke:#0000ff;stroke-opacity:0.1;"/>
    <path clip-path="url(#p5d932a14aa)" d="M 369.830258 58.723298 
L 369.830258 106.876702 
L 370.064059 106.660938 
L 370.29786 106.444722 
L 370.531661 106.228053 
L 370.765461 106.010932 
L 370.999262 105.793358 
L 371.233063 105.575332 
L 371.466863 105.356854 
L 371.700664 105.137923 
L 371.934465 104.918541 
L 372.168266 104.698705 
L 372.402066 104.478418 
L 372.635867 104.257678 
L 372.869668 104.036486 
L 373.103469 103.814841 
L 373.337269 103.592745 
L 373.57107 103.370195 
L 373.804871 103.147194 
L 374.038672 102.92374 
L 374.272472 102.699834 
L 374.506273 102.475475 
L 374.740074 102.250664 
L 374.973875 102.025401 
L 375.207675 101.799686 
L 375.441476 101.573518 
L 375.675277 101.346898 
L 375.909077 101.119825 
L 376.142878 100.8923 
L 376.376679 100.664323 
L 376.61048 100.435893 
L 376.84428 100.207011 
L 377.078081 99.977677 
L 377.311882 99.747891 
L 377.545683 99.517652 
L 377.779483 99.28696 
L 378.013284 99.055817 
L 378.247085 98.824221 
L 378.480886 98.592173 
L 378.714686 98.359672 
L 378.948487 98.126719 
L 379.182288 97.893314 
L 379.416089 97.659456 
L 379.649889 97.425146 
L 379.88369 97.190384 
L 380.117491 96.95517 
L 380.351292 96.719503 
L 380.585092 96.483383 
L 380.818893 96.246812 
L 381.052694 96.009788 
L 381.286494 95.772312 
L 381.520295 95.534383 
L 381.754096 95.296002 
L 381.987897 95.057169 
L 382.221697 94.817883 
L 382.455498 94.578145 
L 382.689299 94.337955 
L 382.9231 94.097312 
L 383.1569 93.856217 
L 383.390701 93.61467 
L 383.624502 93.37267 
L 383.858303 93.130218 
L 384.092103 92.887314 
L 384.325904 92.643958 
L 384.559705 92.400149 
L 384.793506 92.155887 
L 385.027306 91.911174 
L 385.261107 91.666008 
L 385.494908 91.420389 
L 385.728708 91.174319 
L 385.962509 90.927796 
L 386.19631 90.68082 
L 386.430111 90.433393 
L 386.663911 90.185513 
L 386.897712 89.93718 
L 387.131513 89.688396 
L 387.365314 89.439159 
L 387.599114 89.189469 
L 387.832915 88.939328 
L 388.066716 88.688734 
L 388.300517 88.437687 
L 388.534317 88.186189 
L 388.768118 87.934238 
L 389.001919 87.681834 
L 389.23572 87.428979 
L 389.46952 87.175671 
L 389.703321 86.92191 
L 389.937122 86.667697 
L 390.170923 86.413032 
L 390.404723 86.157915 
L 390.638524 85.902345 
L 390.872325 85.646323 
L 391.106125 85.389849 
L 391.339926 85.132922 
L 391.573727 84.875543 
L 391.807528 84.617712 
L 391.807528 80.982288 
L 391.807528 80.982288 
L 391.573727 80.724457 
L 391.339926 80.467078 
L 391.106125 80.210151 
L 390.872325 79.953677 
L 390.638524 79.697655 
L 390.404723 79.442085 
L 390.170923 79.186968 
L 389.937122 78.932303 
L 389.703321 78.67809 
L 389.46952 78.424329 
L 389.23572 78.171021 
L 389.001919 77.918166 
L 388.768118 77.665762 
L 388.534317 77.413811 
L 388.300517 77.162313 
L 388.066716 76.911266 
L 387.832915 76.660672 
L 387.599114 76.410531 
L 387.365314 76.160841 
L 387.131513 75.911604 
L 386.897712 75.66282 
L 386.663911 75.414487 
L 386.430111 75.166607 
L 386.19631 74.91918 
L 385.962509 74.672204 
L 385.728708 74.425681 
L 385.494908 74.179611 
L 385.261107 73.933992 
L 385.027306 73.688826 
L 384.793506 73.444113 
L 384.559705 73.199851 
L 384.325904 72.956042 
L 384.092103 72.712686 
L 383.858303 72.469782 
L 383.624502 72.22733 
L 383.390701 71.98533 
L 383.1569 71.743783 
L 382.9231 71.502688 
L 382.689299 71.262045 
L 382.455498 71.021855 
L 382.221697 70.782117 
L 381.987897 70.542831 
L 381.754096 70.303998 
L 381.520295 70.065617 
L 381.286494 69.827688 
L 381.052694 69.590212 
L 380.818893 69.353188 
L 380.585092 69.116617 
L 380.351292 68.880497 
L 380.117491 68.64483 
L 379.88369 68.409616 
L 379.649889 68.174854 
L 379.416089 67.940544 
L 379.182288 67.706686 
L 378.948487 67.473281 
L 378.714686 67.240328 
L 378.480886 67.007827 
L 378.247085 66.775779 
L 378.013284 66.544183 
L 377.779483 66.31304 
L 377.545683 66.082348 
L 377.311882 65.852109 
L 377.078081 65.622323 
L 376.84428 65.392989 
L 376.61048 65.164107 
L 376.376679 64.935677 
L 376.142878 64.7077 
L 375.909077 64.480175 
L 375.675277 64.253102 
L 375.441476 64.026482 
L 375.207675 63.800314 
L 374.973875 63.574599 
L 374.740074 63.349336 
L 374.506273 63.124525 
L 374.272472 62.900166 
L 374.038672 62.67626 
L 373.804871 62.452806 
L 373.57107 62.229805 
L 373.337269 62.007255 
L 373.103469 61.785159 
L 372.869668 61.563514 
L 372.635867 61.342322 
L 372.402066 61.121582 
L 372.168266 60.901295 
L 371.934465 60.681459 
L 371.700664 60.462077 
L 371.466863 60.243146 
L 371.233063 60.024668 
L 370.999262 59.806642 
L 370.765461 59.589068 
L 370.531661 59.371947 
L 370.29786 59.155278 
L 370.064059 58.939062 
L 369.830258 58.723298 
z
" style="fill:#0000ff;fill-opacity:0.1;stroke:#0000ff;stroke-opacity:0.1;"/>
    <path clip-path="url(#p5d932a14aa)" d="M 392.275129 81.240572 
L 392.275129 84.359428 
L 392.50893 84.100692 
L 392.742731 83.841504 
L 392.976531 83.581863 
L 392.976531 82.018137 
L 392.976531 82.018137 
L 392.742731 81.758496 
L 392.50893 81.499308 
L 392.275129 81.240572 
z
" style="fill:#0000ff;fill-opacity:0.1;stroke:#0000ff;stroke-opacity:0.1;"/>
    <path clip-path="url(#p5d932a14aa)" d="M 393.444133 82.27823 
L 393.444133 83.32177 
L 393.677934 83.061224 
L 393.677934 82.538776 
L 393.677934 82.538776 
L 393.444133 82.27823 
z
" style="fill:#0000ff;fill-opacity:0.1;stroke:#0000ff;stroke-opacity:0.1;"/>
   </g>
   <g id="matplotlib.axis_1">
    <g id="xtick_1">
     <g id="line2d_1">
      <defs>
       <path d="M 0 0 
L 0 3.5 
" id="m8e9adb37ce" style="stroke:#000000;stroke-width:0.8;"/>
      </defs>
      <g>
       <use style="stroke:#000000;stroke-width:0.8;" x="55.485166" xlink:href="#m8e9adb37ce" y="162"/>
      </g>
     </g>
     <g id="text_1">
      <!-- 1900 -->
      <g transform="translate(42.760166 176.598438)scale(0.1 -0.1)">
       <defs>
        <path d="M 794 531 
L 1825 531 
L 1825 4091 
L 703 3866 
L 703 4441 
L 1819 4666 
L 2450 4666 
L 2450 531 
L 3481 531 
L 3481 0 
L 794 0 
L 794 531 
z
" id="DejaVuSans-31" transform="scale(0.015625)"/>
        <path d="M 703 97 
L 703 672 
Q 941 559 1184 500 
Q 1428 441 1663 441 
Q 2288 441 2617 861 
Q 2947 1281 2994 2138 
Q 2813 1869 2534 1725 
Q 2256 1581 1919 1581 
Q 1219 1581 811 2004 
Q 403 2428 403 3163 
Q 403 3881 828 4315 
Q 1253 4750 1959 4750 
Q 2769 4750 3195 4129 
Q 3622 3509 3622 2328 
Q 3622 1225 3098 567 
Q 2575 -91 1691 -91 
Q 1453 -91 1209 -44 
Q 966 3 703 97 
z
M 1959 2075 
Q 2384 2075 2632 2365 
Q 2881 2656 2881 3163 
Q 2881 3666 2632 3958 
Q 2384 4250 1959 4250 
Q 1534 4250 1286 3958 
Q 1038 3666 1038 3163 
Q 1038 2656 1286 2365 
Q 1534 2075 1959 2075 
z
" id="DejaVuSans-39" transform="scale(0.015625)"/>
        <path d="M 2034 4250 
Q 1547 4250 1301 3770 
Q 1056 3291 1056 2328 
Q 1056 1369 1301 889 
Q 1547 409 2034 409 
Q 2525 409 2770 889 
Q 3016 1369 3016 2328 
Q 3016 3291 2770 3770 
Q 2525 4250 2034 4250 
z
M 2034 4750 
Q 2819 4750 3233 4129 
Q 3647 3509 3647 2328 
Q 3647 1150 3233 529 
Q 2819 -91 2034 -91 
Q 1250 -91 836 529 
Q 422 1150 422 2328 
Q 422 3509 836 4129 
Q 1250 4750 2034 4750 
z
" id="DejaVuSans-30" transform="scale(0.015625)"/>
       </defs>
       <use xlink:href="#DejaVuSans-31"/>
       <use x="63.623047" xlink:href="#DejaVuSans-39"/>
       <use x="127.246094" xlink:href="#DejaVuSans-30"/>
       <use x="190.869141" xlink:href="#DejaVuSans-30"/>
      </g>
     </g>
    </g>
    <g id="xtick_2">
     <g id="line2d_2">
      <g>
       <use style="stroke:#000000;stroke-width:0.8;" x="111.597343" xlink:href="#m8e9adb37ce" y="162"/>
      </g>
     </g>
     <g id="text_2">
      <!-- 1920 -->
      <g transform="translate(98.872343 176.598438)scale(0.1 -0.1)">
       <defs>
        <path d="M 1228 531 
L 3431 531 
L 3431 0 
L 469 0 
L 469 531 
Q 828 903 1448 1529 
Q 2069 2156 2228 2338 
Q 2531 2678 2651 2914 
Q 2772 3150 2772 3378 
Q 2772 3750 2511 3984 
Q 2250 4219 1831 4219 
Q 1534 4219 1204 4116 
Q 875 4013 500 3803 
L 500 4441 
Q 881 4594 1212 4672 
Q 1544 4750 1819 4750 
Q 2544 4750 2975 4387 
Q 3406 4025 3406 3419 
Q 3406 3131 3298 2873 
Q 3191 2616 2906 2266 
Q 2828 2175 2409 1742 
Q 1991 1309 1228 531 
z
" id="DejaVuSans-32" transform="scale(0.015625)"/>
       </defs>
       <use xlink:href="#DejaVuSans-31"/>
       <use x="63.623047" xlink:href="#DejaVuSans-39"/>
       <use x="127.246094" xlink:href="#DejaVuSans-32"/>
       <use x="190.869141" xlink:href="#DejaVuSans-30"/>
      </g>
     </g>
    </g>
    <g id="xtick_3">
     <g id="line2d_3">
      <g>
       <use style="stroke:#000000;stroke-width:0.8;" x="167.70952" xlink:href="#m8e9adb37ce" y="162"/>
      </g>
     </g>
     <g id="text_3">
      <!-- 1940 -->
      <g transform="translate(154.98452 176.598438)scale(0.1 -0.1)">
       <defs>
        <path d="M 2419 4116 
L 825 1625 
L 2419 1625 
L 2419 4116 
z
M 2253 4666 
L 3047 4666 
L 3047 1625 
L 3713 1625 
L 3713 1100 
L 3047 1100 
L 3047 0 
L 2419 0 
L 2419 1100 
L 313 1100 
L 313 1709 
L 2253 4666 
z
" id="DejaVuSans-34" transform="scale(0.015625)"/>
       </defs>
       <use xlink:href="#DejaVuSans-31"/>
       <use x="63.623047" xlink:href="#DejaVuSans-39"/>
       <use x="127.246094" xlink:href="#DejaVuSans-34"/>
       <use x="190.869141" xlink:href="#DejaVuSans-30"/>
      </g>
     </g>
    </g>
    <g id="xtick_4">
     <g id="line2d_4">
      <g>
       <use style="stroke:#000000;stroke-width:0.8;" x="223.821697" xlink:href="#m8e9adb37ce" y="162"/>
      </g>
     </g>
     <g id="text_4">
      <!-- 1960 -->
      <g transform="translate(211.096697 176.598438)scale(0.1 -0.1)">
       <defs>
        <path d="M 2113 2584 
Q 1688 2584 1439 2293 
Q 1191 2003 1191 1497 
Q 1191 994 1439 701 
Q 1688 409 2113 409 
Q 2538 409 2786 701 
Q 3034 994 3034 1497 
Q 3034 2003 2786 2293 
Q 2538 2584 2113 2584 
z
M 3366 4563 
L 3366 3988 
Q 3128 4100 2886 4159 
Q 2644 4219 2406 4219 
Q 1781 4219 1451 3797 
Q 1122 3375 1075 2522 
Q 1259 2794 1537 2939 
Q 1816 3084 2150 3084 
Q 2853 3084 3261 2657 
Q 3669 2231 3669 1497 
Q 3669 778 3244 343 
Q 2819 -91 2113 -91 
Q 1303 -91 875 529 
Q 447 1150 447 2328 
Q 447 3434 972 4092 
Q 1497 4750 2381 4750 
Q 2619 4750 2861 4703 
Q 3103 4656 3366 4563 
z
" id="DejaVuSans-36" transform="scale(0.015625)"/>
       </defs>
       <use xlink:href="#DejaVuSans-31"/>
       <use x="63.623047" xlink:href="#DejaVuSans-39"/>
       <use x="127.246094" xlink:href="#DejaVuSans-36"/>
       <use x="190.869141" xlink:href="#DejaVuSans-30"/>
      </g>
     </g>
    </g>
    <g id="xtick_5">
     <g id="line2d_5">
      <g>
       <use style="stroke:#000000;stroke-width:0.8;" x="279.933875" xlink:href="#m8e9adb37ce" y="162"/>
      </g>
     </g>
     <g id="text_5">
      <!-- 1980 -->
      <g transform="translate(267.208875 176.598438)scale(0.1 -0.1)">
       <defs>
        <path d="M 2034 2216 
Q 1584 2216 1326 1975 
Q 1069 1734 1069 1313 
Q 1069 891 1326 650 
Q 1584 409 2034 409 
Q 2484 409 2743 651 
Q 3003 894 3003 1313 
Q 3003 1734 2745 1975 
Q 2488 2216 2034 2216 
z
M 1403 2484 
Q 997 2584 770 2862 
Q 544 3141 544 3541 
Q 544 4100 942 4425 
Q 1341 4750 2034 4750 
Q 2731 4750 3128 4425 
Q 3525 4100 3525 3541 
Q 3525 3141 3298 2862 
Q 3072 2584 2669 2484 
Q 3125 2378 3379 2068 
Q 3634 1759 3634 1313 
Q 3634 634 3220 271 
Q 2806 -91 2034 -91 
Q 1263 -91 848 271 
Q 434 634 434 1313 
Q 434 1759 690 2068 
Q 947 2378 1403 2484 
z
M 1172 3481 
Q 1172 3119 1398 2916 
Q 1625 2713 2034 2713 
Q 2441 2713 2670 2916 
Q 2900 3119 2900 3481 
Q 2900 3844 2670 4047 
Q 2441 4250 2034 4250 
Q 1625 4250 1398 4047 
Q 1172 3844 1172 3481 
z
" id="DejaVuSans-38" transform="scale(0.015625)"/>
       </defs>
       <use xlink:href="#DejaVuSans-31"/>
       <use x="63.623047" xlink:href="#DejaVuSans-39"/>
       <use x="127.246094" xlink:href="#DejaVuSans-38"/>
       <use x="190.869141" xlink:href="#DejaVuSans-30"/>
      </g>
     </g>
    </g>
    <g id="xtick_6">
     <g id="line2d_6">
      <g>
       <use style="stroke:#000000;stroke-width:0.8;" x="336.046052" xlink:href="#m8e9adb37ce" y="162"/>
      </g>
     </g>
     <g id="text_6">
      <!-- 2000 -->
      <g transform="translate(323.321052 176.598438)scale(0.1 -0.1)">
       <use xlink:href="#DejaVuSans-32"/>
       <use x="63.623047" xlink:href="#DejaVuSans-30"/>
       <use x="127.246094" xlink:href="#DejaVuSans-30"/>
       <use x="190.869141" xlink:href="#DejaVuSans-30"/>
      </g>
     </g>
    </g>
    <g id="xtick_7">
     <g id="line2d_7">
      <g>
       <use style="stroke:#000000;stroke-width:0.8;" x="392.158229" xlink:href="#m8e9adb37ce" y="162"/>
      </g>
     </g>
     <g id="text_7">
      <!-- 2020 -->
      <g transform="translate(379.433229 176.598438)scale(0.1 -0.1)">
       <use xlink:href="#DejaVuSans-32"/>
       <use x="63.623047" xlink:href="#DejaVuSans-30"/>
       <use x="127.246094" xlink:href="#DejaVuSans-32"/>
       <use x="190.869141" xlink:href="#DejaVuSans-30"/>
      </g>
     </g>
    </g>
   </g>
   <g id="matplotlib.axis_2">
    <g id="ytick_1">
     <g id="line2d_8">
      <defs>
       <path d="M 0 0 
L -3.5 0 
" id="m6ccdc27aba" style="stroke:#000000;stroke-width:0.8;"/>
      </defs>
      <g>
       <use style="stroke:#000000;stroke-width:0.8;" x="34.56" xlink:href="#m6ccdc27aba" y="143.716827"/>
      </g>
     </g>
     <g id="text_8">
      <!-- 100 -->
      <g transform="translate(0.092813 147.516046)scale(0.1 -0.1)">
       <defs>
        <path d="M 678 2272 
L 4684 2272 
L 4684 1741 
L 678 1741 
L 678 2272 
z
" id="DejaVuSans-2212" transform="scale(0.015625)"/>
       </defs>
       <use xlink:href="#DejaVuSans-2212"/>
       <use x="83.789062" xlink:href="#DejaVuSans-31"/>
       <use x="147.412109" xlink:href="#DejaVuSans-30"/>
       <use x="211.035156" xlink:href="#DejaVuSans-30"/>
      </g>
     </g>
    </g>
    <g id="ytick_2">
     <g id="line2d_9">
      <g>
       <use style="stroke:#000000;stroke-width:0.8;" x="34.56" xlink:href="#m6ccdc27aba" y="113.258414"/>
      </g>
     </g>
     <g id="text_9">
      <!-- 50 -->
      <g transform="translate(6.455313 117.057632)scale(0.1 -0.1)">
       <defs>
        <path d="M 691 4666 
L 3169 4666 
L 3169 4134 
L 1269 4134 
L 1269 2991 
Q 1406 3038 1543 3061 
Q 1681 3084 1819 3084 
Q 2600 3084 3056 2656 
Q 3513 2228 3513 1497 
Q 3513 744 3044 326 
Q 2575 -91 1722 -91 
Q 1428 -91 1123 -41 
Q 819 9 494 109 
L 494 744 
Q 775 591 1075 516 
Q 1375 441 1709 441 
Q 2250 441 2565 725 
Q 2881 1009 2881 1497 
Q 2881 1984 2565 2268 
Q 2250 2553 1709 2553 
Q 1456 2553 1204 2497 
Q 953 2441 691 2322 
L 691 4666 
z
" id="DejaVuSans-35" transform="scale(0.015625)"/>
       </defs>
       <use xlink:href="#DejaVuSans-2212"/>
       <use x="83.789062" xlink:href="#DejaVuSans-35"/>
       <use x="147.412109" xlink:href="#DejaVuSans-30"/>
      </g>
     </g>
    </g>
    <g id="ytick_3">
     <g id="line2d_10">
      <g>
       <use style="stroke:#000000;stroke-width:0.8;" x="34.56" xlink:href="#m6ccdc27aba" y="82.8"/>
      </g>
     </g>
     <g id="text_10">
      <!-- 0 -->
      <g transform="translate(21.1975 86.599219)scale(0.1 -0.1)">
       <use xlink:href="#DejaVuSans-30"/>
      </g>
     </g>
    </g>
    <g id="ytick_4">
     <g id="line2d_11">
      <g>
       <use style="stroke:#000000;stroke-width:0.8;" x="34.56" xlink:href="#m6ccdc27aba" y="52.341586"/>
      </g>
     </g>
     <g id="text_11">
      <!-- 50 -->
      <g transform="translate(14.835 56.140805)scale(0.1 -0.1)">
       <use xlink:href="#DejaVuSans-35"/>
       <use x="63.623047" xlink:href="#DejaVuSans-30"/>
      </g>
     </g>
    </g>
    <g id="ytick_5">
     <g id="line2d_12">
      <g>
       <use style="stroke:#000000;stroke-width:0.8;" x="34.56" xlink:href="#m6ccdc27aba" y="21.883173"/>
      </g>
     </g>
     <g id="text_12">
      <!-- 100 -->
      <g transform="translate(8.4725 25.682392)scale(0.1 -0.1)">
       <use xlink:href="#DejaVuSans-31"/>
       <use x="63.623047" xlink:href="#DejaVuSans-30"/>
       <use x="127.246094" xlink:href="#DejaVuSans-30"/>
      </g>
     </g>
    </g>
   </g>
   <g id="line2d_13">
    <path clip-path="url(#p5d932a14aa)" d="M 55.602066 83.053253 
L 55.835867 82.881531 
L 56.069668 83.131708 
L 56.537269 81.589918 
L 56.77107 81.61516 
L 57.004871 81.801088 
L 57.238672 81.811758 
L 57.472472 81.266828 
L 57.940074 83.314739 
L 58.173875 82.587315 
L 58.407675 84.671366 
L 58.641476 85.711394 
L 58.875277 85.910533 
L 59.576679 84.833575 
L 59.81048 84.378504 
L 60.511882 80.293645 
L 60.745683 80.214816 
L 60.979483 80.340777 
L 61.213284 81.232286 
L 61.447085 81.236728 
L 61.680886 80.348694 
L 61.914686 80.03754 
M 62.849889 80.638719 
L 63.08369 81.205658 
L 63.317491 80.264056 
L 63.551292 80.015099 
L 63.785092 78.906808 
L 64.018893 79.852647 
M 65.187897 81.073724 
L 65.421697 80.535236 
L 65.655498 81.822415 
L 65.889299 81.200653 
L 66.1231 82.221011 
L 66.3569 83.739191 
L 66.590701 83.961741 
L 66.824502 83.762782 
L 67.058303 84.578352 
L 67.292103 84.803284 
L 67.525904 85.313136 
L 67.759705 85.075829 
L 67.993506 85.527488 
L 68.227306 85.306206 
L 68.694908 85.724114 
L 68.928708 86.180305 
L 69.162509 87.150233 
L 69.39631 86.465067 
L 69.630111 87.032783 
L 69.863911 87.130522 
L 70.331513 85.993348 
L 70.565314 86.455211 
L 70.799114 88.365582 
L 71.032915 87.358967 
L 71.734317 88.303862 
L 71.968118 87.87929 
L 72.201919 88.556795 
L 72.43572 88.649798 
L 72.66952 88.574116 
L 72.903321 88.75734 
L 73.137122 88.273315 
L 73.604723 89.709844 
L 73.838524 89.786561 
L 74.306125 91.028767 
L 74.539926 90.628831 
L 74.773727 89.989128 
L 75.007528 90.733587 
L 75.241328 90.948424 
L 75.475129 91.501119 
L 75.70893 92.460346 
L 75.942731 92.861536 
L 76.176531 94.59936 
L 76.410332 94.188854 
L 76.877934 91.775907 
L 77.111734 91.702396 
L 77.579336 92.551728 
L 77.813137 92.129437 
L 78.046937 92.430985 
L 78.514539 94.200294 
L 78.748339 95.684815 
L 78.98214 94.979929 
L 79.215941 96.306925 
L 79.449742 96.541148 
L 79.683542 97.446911 
L 79.917343 97.443646 
L 80.151144 97.8713 
L 80.384945 99.027273 
L 80.618745 98.313569 
L 80.852546 98.538285 
L 81.320148 97.799578 
L 81.553948 97.716725 
L 81.787749 98.210968 
L 82.02155 98.188465 
L 82.255351 98.355185 
L 82.489151 99.677487 
L 82.956753 99.358252 
M 83.424354 99.926546 
L 83.891956 98.588331 
L 84.125756 98.306722 
L 84.593358 97.134274 
L 85.29476 98.463044 
L 85.996162 96.8439 
L 86.229963 95.395902 
L 86.463764 95.974023 
L 86.931365 95.812962 
L 87.398967 94.531342 
L 87.632768 94.464948 
L 87.866568 94.637208 
L 88.100369 95.897377 
L 88.33417 95.85899 
L 88.801771 94.53123 
L 89.269373 95.119537 
L 89.503173 96.291278 
L 89.736974 96.70884 
L 90.438376 104.580069 
L 90.905978 103.478754 
L 91.139779 103.737816 
L 91.373579 103.110676 
L 91.60738 103.862731 
L 92.074982 102.055525 
L 92.308782 102.457299 
L 92.542583 101.355233 
L 92.776384 101.702091 
L 93.243985 101.49661 
L 93.711587 102.221152 
L 93.945387 102.547716 
L 94.179188 101.92332 
L 94.412989 101.847784 
L 94.88059 101.987174 
L 95.114391 102.620542 
L 95.348192 102.579307 
L 95.581993 103.743328 
L 95.815793 104.006526 
L 96.049594 103.829809 
L 96.283395 102.874232 
L 96.750996 104.946774 
L 96.984797 103.797176 
L 97.218598 103.705177 
L 97.452399 104.480259 
L 97.686199 104.467343 
L 98.153801 102.215044 
L 98.387601 103.205645 
L 98.621402 103.157672 
L 98.855203 102.810827 
L 99.089004 103.855627 
L 99.322804 104.014472 
L 99.556605 105.476505 
L 100.258007 103.302781 
L 100.491808 102.937535 
L 100.725609 102.939234 
L 100.95941 103.080749 
L 101.19321 102.911187 
L 101.660812 103.266579 
L 101.894613 103.163839 
L 102.128413 102.930841 
L 102.362214 103.450035 
L 102.596015 103.457856 
L 103.297417 102.088243 
L 103.531218 100.217435 
L 103.765018 101.029035 
L 103.998819 100.903925 
L 104.23262 101.330116 
L 104.466421 103.91112 
L 104.700221 104.122293 
L 104.934022 104.668591 
L 105.401624 104.516193 
L 105.635424 104.921956 
M 106.103026 103.594664 
L 106.336827 103.25007 
L 106.570627 103.369084 
L 106.804428 102.22156 
L 107.038229 102.045169 
L 107.27203 101.563868 
L 107.50583 102.451711 
L 107.739631 100.160712 
L 107.973432 100.48124 
L 108.207232 101.059265 
L 108.441033 100.522189 
L 108.674834 100.773277 
L 109.142435 102.298153 
L 109.376236 102.03575 
L 109.610037 102.087354 
L 109.843838 100.37542 
L 110.077638 100.288706 
M 110.779041 100.43252 
L 111.246642 98.155885 
L 111.714244 98.827609 
L 111.948044 98.383133 
L 112.181845 97.171307 
L 112.415646 94.998074 
L 112.649446 95.110352 
L 112.883247 95.039004 
L 113.117048 94.634972 
L 113.350849 93.719267 
L 113.584649 94.196752 
L 114.052251 94.366669 
L 114.286052 94.691845 
L 114.519852 95.282061 
L 114.753653 95.488461 
L 115.221255 94.623494 
L 115.455055 92.610269 
L 115.688856 93.594265 
L 116.156458 94.284782 
L 116.85786 91.808961 
L 117.091661 92.309752 
L 117.325461 93.262177 
L 117.793063 93.379597 
L 118.026863 92.899413 
L 118.260664 92.139648 
L 118.494465 92.793265 
L 118.728266 91.757564 
L 118.962066 93.583116 
L 119.195867 93.175935 
L 119.429668 93.600297 
L 119.663469 94.945057 
L 119.897269 94.176473 
L 120.13107 94.51973 
L 120.598672 93.976395 
L 120.832472 94.133367 
L 121.533875 96.508229 
L 121.767675 96.352613 
L 122.001476 95.903722 
L 122.235277 95.770503 
L 122.469077 96.037967 
L 122.936679 94.545222 
L 123.17048 93.703415 
L 123.40428 94.598433 
L 123.638081 92.944365 
L 123.871882 93.745936 
L 124.339483 91.839833 
L 124.573284 91.985508 
L 124.807085 91.7737 
L 125.040886 91.935185 
L 125.274686 92.3629 
L 125.508487 94.713697 
L 125.742288 95.133785 
L 125.976089 94.548268 
L 126.209889 93.054358 
L 126.44369 92.573625 
L 126.677491 92.406564 
L 127.145092 93.915646 
L 127.378893 92.72115 
L 127.846494 91.602862 
L 128.314096 93.535123 
L 128.547897 93.96509 
L 128.781697 96.137294 
L 129.015498 95.900685 
L 129.249299 94.695537 
L 129.4831 94.586648 
L 129.7169 93.663014 
L 129.950701 93.5021 
L 130.184502 93.506733 
L 130.418303 93.035342 
L 130.652103 94.184119 
L 131.119705 94.276254 
L 131.353506 93.471969 
L 131.587306 93.380372 
L 131.821107 92.941805 
L 132.288708 92.797809 
L 132.522509 90.915421 
L 132.75631 90.883475 
L 132.990111 90.173021 
L 133.223911 88.355424 
L 133.457712 87.548826 
L 133.691513 86.107877 
L 134.159114 86.406966 
L 134.392915 85.933953 
L 134.626716 87.037515 
L 134.860517 86.483244 
L 135.094317 84.518312 
L 135.328118 85.473221 
L 135.561919 84.601062 
L 135.79572 84.650697 
L 136.02952 85.33947 
L 136.263321 85.12887 
L 136.497122 85.483044 
L 136.730923 86.247259 
L 136.964723 84.753681 
L 137.198524 85.181797 
L 137.432325 84.416145 
L 137.666125 85.272289 
L 137.899926 85.333529 
L 138.133727 84.938938 
L 138.367528 85.400364 
L 138.601328 85.218953 
L 138.835129 85.981814 
L 139.06893 86.011589 
L 139.302731 86.304847 
L 139.536531 87.030097 
L 139.770332 85.837261 
L 140.004133 85.255036 
L 140.471734 85.854815 
L 140.939336 83.170953 
L 141.173137 82.40142 
L 141.406937 82.049882 
L 141.640738 82.257905 
L 142.108339 84.357953 
L 142.34214 87.094008 
L 142.575941 85.805132 
L 143.043542 84.909468 
L 143.277343 85.524689 
L 143.511144 84.992676 
L 143.744945 83.173399 
L 143.978745 83.756659 
L 144.446347 84.039561 
L 144.680148 84.793751 
L 144.913948 83.72763 
L 145.147749 84.504468 
L 145.38155 84.424051 
L 145.615351 85.101872 
L 145.849151 85.307597 
L 146.082952 84.154035 
L 146.550554 85.298603 
L 146.784354 86.144737 
L 147.018155 85.556118 
L 147.251956 87.347979 
L 147.485756 87.413426 
L 147.953358 87.955027 
L 148.187159 87.403739 
L 148.420959 87.851064 
L 148.65476 88.669251 
L 148.888561 88.150101 
L 149.122362 88.730506 
L 149.356162 88.351281 
L 149.823764 90.148729 
L 150.291365 90.233412 
L 150.525166 89.654628 
L 150.758967 87.869666 
L 150.992768 86.946291 
L 151.226568 85.33781 
L 151.460369 85.354199 
L 151.69417 84.835049 
L 151.92797 84.995621 
L 152.161771 83.901859 
L 152.629373 84.954585 
L 152.863173 84.92882 
L 153.096974 86.035888 
L 153.330775 86.492689 
L 154.032177 83.333842 
L 154.265978 83.532981 
L 154.733579 84.610065 
L 154.96738 84.340052 
L 155.201181 84.890931 
L 155.434982 83.699179 
L 155.668782 84.060867 
L 155.902583 84.152106 
L 156.370185 82.670282 
L 156.837786 85.637404 
L 157.071587 85.615376 
L 157.305387 84.961771 
L 157.539188 85.718341 
L 157.772989 84.887454 
L 158.00679 84.496044 
L 158.24059 83.490336 
L 158.474391 81.771522 
L 158.708192 81.721171 
L 158.941993 81.793263 
L 159.175793 82.736936 
L 159.409594 82.490232 
L 159.643395 81.882214 
L 159.877196 82.789853 
L 160.110996 82.170822 
L 160.344797 81.946137 
L 160.578598 82.759456 
L 160.812399 82.979958 
L 161.28 81.426027 
L 161.747601 82.651286 
L 162.215203 80.497787 
L 162.449004 80.434727 
L 162.682804 81.429077 
L 162.916605 81.80118 
L 163.150406 81.220871 
L 163.618007 83.727124 
L 163.851808 81.759368 
L 164.085609 81.948185 
L 164.31941 82.327544 
L 164.55321 81.434296 
L 164.787011 80.982919 
L 165.020812 80.261503 
L 165.254613 81.208236 
L 165.488413 80.413498 
L 165.722214 80.897556 
L 165.956015 80.201451 
L 166.189815 78.466141 
L 166.423616 78.353521 
L 166.657417 78.877319 
L 166.891218 77.889507 
L 167.125018 77.653113 
L 167.358819 76.728035 
L 167.59262 76.376539 
L 167.826421 76.248376 
L 168.060221 76.828956 
L 168.294022 77.886968 
L 168.527823 77.842514 
L 168.761624 78.339501 
L 168.995424 78.152951 
L 169.229225 77.81171 
L 169.463026 76.867044 
L 169.696827 77.415194 
L 169.930627 76.205573 
L 170.164428 76.741641 
L 170.398229 77.723442 
L 170.63203 77.978399 
L 171.099631 77.704974 
L 171.333432 78.688842 
L 171.567232 78.801044 
L 171.801033 78.550581 
L 172.034834 78.128915 
L 172.268635 78.638743 
L 172.502435 78.497302 
L 172.736236 78.603588 
L 172.970037 78.904921 
L 173.437638 81.451719 
L 173.671439 81.452901 
L 173.90524 82.101153 
L 174.139041 81.506032 
L 174.372841 81.279773 
L 174.606642 81.677111 
L 174.840443 81.527576 
L 175.074244 82.509361 
L 175.308044 82.979113 
L 175.541845 82.435908 
L 176.009446 79.605182 
L 176.243247 79.36945 
L 176.477048 78.859058 
L 176.944649 78.856004 
L 177.17845 79.179304 
L 177.412251 78.940769 
L 177.646052 79.916967 
L 177.879852 80.084593 
L 178.113653 79.450287 
L 178.347454 79.461443 
L 178.581255 80.422667 
L 178.815055 78.778198 
M 184.660074 79.079345 
L 185.127675 81.4858 
L 185.361476 84.112873 
L 185.595277 84.741572 
L 185.829077 83.69337 
L 186.062878 83.674149 
L 186.296679 83.079629 
L 186.53048 84.753325 
M 186.998081 85.480707 
L 187.231882 85.281426 
L 187.465683 85.416194 
L 187.699483 86.092241 
L 187.933284 86.29193 
L 188.167085 87.215577 
L 188.400886 87.33736 
L 188.868487 88.452344 
L 189.102288 88.658919 
L 189.336089 87.859321 
L 189.80369 88.558303 
L 190.037491 88.321836 
L 190.271292 88.293384 
L 190.505092 87.449019 
L 190.738893 87.798506 
L 191.206494 87.458235 
L 191.440295 87.143742 
L 191.674096 87.672796 
L 191.907897 87.109735 
L 192.141697 86.916262 
L 192.375498 87.524566 
L 192.609299 87.445668 
L 192.8431 87.67762 
L 193.0769 88.205946 
L 193.310701 87.854957 
L 193.544502 87.124939 
L 193.778303 87.627941 
L 194.245904 86.300316 
L 194.479705 86.067534 
L 194.713506 86.300499 
L 194.947306 87.471118 
L 195.181107 87.422956 
L 195.414908 88.195468 
L 195.648708 88.348382 
L 195.882509 87.140222 
L 196.11631 87.374312 
L 196.350111 86.994375 
L 196.583911 87.852737 
L 197.051513 88.345083 
M 197.519114 88.817668 
L 197.752915 89.237927 
L 197.986716 88.829873 
L 198.220517 88.795415 
L 198.454317 88.890481 
L 198.688118 88.572325 
L 198.921919 87.985107 
L 199.15572 88.94534 
L 199.623321 89.519049 
L 199.857122 89.529192 
L 200.090923 89.108962 
L 200.324723 87.915428 
L 200.558524 87.698555 
L 201.026125 88.787897 
L 201.493727 89.224118 
M 201.961328 89.609171 
L 202.195129 89.313953 
L 202.662731 89.406471 
L 203.130332 91.699485 
L 203.364133 92.012878 
L 203.597934 91.702944 
L 203.831734 91.701497 
L 204.533137 93.656917 
L 204.766937 93.426302 
L 205.468339 94.51361 
L 205.70214 94.039984 
L 205.935941 95.055958 
L 206.169742 94.918927 
M 212.01476 95.328996 
L 212.482362 95.028823 
L 212.716162 93.919955 
L 213.885166 97.018794 
M 214.352768 97.843884 
L 214.586568 97.141448 
L 214.820369 97.367128 
L 215.05417 95.862559 
L 215.28797 95.112634 
L 215.521771 94.814343 
L 215.755572 95.950412 
L 215.989373 96.319678 
L 216.223173 96.997944 
L 216.456974 97.185354 
L 216.924576 98.034778 
L 217.158376 98.193074 
L 217.625978 100.127719 
L 217.859779 100.260728 
M 218.561181 101.194838 
L 218.794982 101.333061 
L 219.262583 103.827697 
L 219.963985 102.296119 
L 220.197786 102.225352 
L 220.431587 102.729838 
L 220.665387 103.799099 
L 220.899188 103.360893 
L 221.36679 103.245423 
L 221.60059 103.800525 
L 221.834391 104.661205 
L 222.068192 106.189176 
L 222.301993 105.03136 
L 222.535793 105.374863 
L 222.769594 104.981247 
L 223.003395 104.175125 
L 223.237196 104.929235 
L 223.470996 104.864675 
L 223.704797 104.683327 
L 223.938598 104.856681 
L 224.172399 104.622867 
L 224.406199 105.068041 
L 224.64 104.500772 
L 224.873801 104.315615 
L 225.107601 103.866316 
L 225.341402 102.778355 
L 225.809004 102.436629 
L 226.042804 102.396741 
L 226.276605 101.605344 
L 226.510406 102.155468 
M 273.738155 102.480086 
L 274.205756 102.013413 
L 274.439557 101.174412 
L 274.673358 101.156777 
L 274.907159 101.263688 
L 275.37476 100.65742 
L 275.608561 99.388988 
L 275.842362 98.911279 
L 276.076162 99.445978 
L 276.309963 99.490535 
L 276.543764 99.278328 
L 276.777565 98.371994 
L 277.011365 98.308347 
L 277.478967 97.823624 
L 277.946568 98.084546 
L 278.41417 98.287894 
L 278.64797 98.150634 
L 278.881771 98.225343 
L 279.115572 97.952895 
L 279.349373 98.218488 
L 279.583173 97.274093 
L 280.284576 96.188143 
L 280.518376 95.773413 
L 280.752177 95.659532 
L 281.219779 95.797714 
L 281.453579 95.006156 
L 281.921181 95.662236 
L 282.154982 95.070528 
L 282.388782 95.666578 
L 282.622583 95.871174 
M 283.090185 96.917713 
L 283.791587 95.873276 
L 284.025387 95.907791 
L 284.492989 96.789578 
L 284.72679 96.517826 
L 284.96059 95.882565 
L 285.194391 96.133664 
M 285.661993 96.222473 
L 286.129594 90.51909 
L 286.597196 88.388808 
L 287.298598 87.302816 
L 287.532399 86.3773 
L 287.766199 86.059676 
L 288 86.011011 
L 288.467601 86.553299 
L 288.701402 86.812214 
L 288.935203 86.690608 
M 289.402804 86.901816 
L 289.636605 86.574146 
L 289.870406 86.536006 
L 290.104207 86.276368 
L 290.571808 87.673251 
L 291.03941 88.440127 
L 291.507011 90.54313 
L 291.740812 90.197802 
L 291.974613 89.630576 
L 292.208413 89.846344 
L 292.442214 89.857437 
L 292.676015 89.740084 
L 292.909815 89.805264 
L 293.143616 90.001467 
L 293.377417 90.827875 
L 293.611218 90.19478 
L 293.845018 90.220288 
M 294.31262 90.52404 
L 294.546421 90.608709 
M 295.715424 90.618565 
L 295.949225 91.239173 
L 296.183026 91.373496 
L 296.416827 90.103009 
L 296.650627 89.968817 
L 296.884428 89.66464 
M 301.092841 89.69139 
L 301.326642 89.156683 
L 301.794244 89.963042 
L 302.028044 90.707408 
L 302.495646 92.735453 
L 302.729446 91.3106 
L 303.197048 90.806464 
L 303.430849 89.542518 
L 303.664649 89.752555 
L 304.132251 88.180344 
L 304.366052 87.874701 
L 304.599852 87.801137 
L 304.833653 87.096063 
L 305.067454 85.744878 
L 305.301255 86.102099 
L 306.002657 84.496414 
L 306.236458 84.558856 
L 306.470258 83.761359 
L 306.704059 83.849096 
L 306.93786 84.323605 
L 307.405461 83.65484 
L 307.639262 83.815319 
L 307.873063 84.822566 
L 308.106863 84.982375 
L 308.340664 83.698735 
L 308.574465 83.443224 
L 308.808266 84.184945 
L 309.042066 83.496098 
L 309.275867 83.558074 
L 309.743469 83.983368 
L 309.977269 82.730479 
L 310.21107 82.508109 
L 310.444871 82.8 
L 310.678672 81.532966 
L 310.912472 81.33266 
L 311.146273 81.703926 
L 311.613875 80.020488 
L 311.847675 79.786223 
L 312.081476 80.085667 
L 312.315277 80.626378 
L 312.549077 80.060814 
L 313.016679 80.583399 
L 313.25048 80.003024 
L 313.718081 78.349599 
L 313.951882 78.906281 
L 314.185683 78.672954 
L 314.419483 79.395652 
L 314.653284 79.419938 
L 314.887085 79.313567 
L 315.354686 79.5673 
L 315.588487 79.082241 
L 315.822288 78.899348 
L 316.056089 78.295161 
L 316.289889 79.392415 
L 316.52369 78.474644 
L 316.757491 78.098697 
L 316.991292 77.27235 
L 317.225092 77.524075 
L 317.458893 78.227423 
L 317.692694 78.151386 
L 317.926494 78.571682 
L 318.160295 78.314274 
L 318.394096 76.936617 
L 319.095498 75.809682 
L 319.329299 74.958856 
L 319.5631 73.447396 
L 319.7969 73.563193 
L 320.030701 73.472091 
L 320.264502 73.164724 
L 320.498303 73.644669 
L 320.965904 72.208965 
L 321.199705 72.445466 
L 321.433506 71.154837 
L 321.901107 70.44272 
L 322.134908 71.171741 
L 322.368708 70.906927 
L 322.602509 70.825691 
L 322.83631 70.450561 
L 323.070111 70.62475 
L 323.771513 70.241609 
L 324.005314 70.189892 
L 324.239114 70.961599 
L 324.472915 71.259947 
L 324.706716 71.338918 
L 324.940517 71.936594 
L 325.174317 72.000048 
L 325.408118 72.393961 
L 325.641919 72.137522 
L 325.87572 72.130489 
L 326.577122 73.084693 
L 326.810923 74.15578 
L 327.044723 74.627809 
L 327.278524 75.356587 
L 327.746125 76.045825 
L 327.979926 76.06442 
L 328.213727 76.458484 
L 328.681328 75.874965 
L 328.915129 76.31024 
L 329.14893 75.850001 
L 329.616531 73.304329 
L 329.850332 71.942279 
L 330.084133 71.570245 
L 330.551734 69.880124 
L 330.785535 70.004879 
L 331.019336 69.500033 
L 331.720738 65.885104 
L 331.954539 65.633068 
M 332.42214 65.613825 
L 332.655941 65.284337 
L 332.889742 65.241976 
L 333.591144 65.743317 
L 333.824945 65.616526 
L 334.058745 65.849923 
L 334.292546 66.701405 
L 334.526347 66.712266 
L 334.760148 67.570073 
L 334.993948 67.488573 
L 335.227749 68.234052 
L 335.46155 68.602184 
L 335.695351 69.257504 
L 335.929151 68.834909 
L 336.162952 68.912366 
L 336.630554 70.60334 
L 336.864354 70.45658 
L 337.331956 69.527 
L 337.799557 67.669831 
L 338.033358 67.831809 
L 338.267159 67.266408 
L 338.73476 67.109413 
L 339.202362 66.059507 
L 339.436162 65.847909 
L 339.903764 66.473995 
L 340.137565 66.539773 
L 340.605166 67.602581 
L 340.838967 68.619203 
L 341.306568 69.300747 
L 341.77417 70.099695 
L 342.475572 67.792388 
L 342.709373 67.699135 
L 343.176974 68.839686 
L 343.410775 69.228128 
L 343.644576 68.538158 
L 343.878376 69.49817 
L 344.112177 69.365042 
L 344.345978 69.473402 
L 345.281181 73.35104 
L 345.514982 73.550985 
L 345.748782 72.413848 
L 345.982583 72.413396 
L 346.216384 73.167478 
L 346.683985 75.067011 
L 346.917786 75.238329 
L 347.151587 76.518953 
L 347.852989 78.516577 
L 348.08679 78.585325 
L 348.32059 76.72293 
L 348.554391 77.046428 
L 348.788192 76.589588 
L 349.021993 77.373501 
L 349.489594 76.258139 
L 349.723395 76.687829 
L 349.957196 77.664288 
L 350.190996 77.844772 
L 350.424797 77.624422 
L 350.658598 77.727699 
L 350.892399 78.81649 
L 351.36 81.685579 
L 351.593801 80.984235 
L 351.827601 82.179581 
L 352.061402 82.12875 
L 352.295203 82.8 
L 352.529004 82.845393 
L 352.996605 79.773261 
L 353.464207 76.94389 
L 353.931808 75.884873 
L 354.165609 75.082154 
L 354.63321 76.305796 
L 354.867011 74.883719 
L 355.100812 75.276025 
L 355.334613 75.29089 
L 355.568413 76.484665 
L 355.802214 76.239546 
L 356.036015 78.117984 
L 356.269815 77.658251 
L 356.503616 78.385258 
L 356.737417 78.318494 
L 356.971218 79.191445 
L 357.205018 79.295096 
L 357.67262 81.896307 
L 357.906421 82.039818 
L 358.140221 82.460632 
L 358.374022 81.97337 
L 358.607823 80.882269 
L 358.841624 80.522188 
L 359.309225 78.254553 
L 359.543026 78.988005 
L 359.776827 78.749513 
L 360.010627 78.990122 
L 360.244428 78.421665 
L 360.71203 78.861508 
L 361.179631 77.743138 
L 361.413432 79.005395 
L 362.114834 75.348885 
L 362.348635 75.967889 
L 362.582435 76.171203 
L 363.050037 74.97246 
L 363.283838 75.027232 
L 363.517638 74.741479 
L 363.751439 74.203209 
L 363.98524 75.077382 
L 364.219041 74.82614 
L 364.452841 75.116579 
L 364.686642 75.09993 
L 364.920443 75.361993 
L 365.154244 76.15228 
L 365.621845 75.896169 
L 365.855646 75.077069 
L 366.323247 76.406834 
L 366.557048 77.264062 
L 366.790849 77.137094 
L 367.024649 76.332131 
L 367.25845 75.014603 
L 367.726052 73.986241 
L 368.193653 75.439579 
L 368.427454 74.666984 
L 368.895055 74.00085 
L 369.362657 74.468285 
M 369.830258 74.706403 
L 370.064059 74.977449 
L 370.29786 75.002278 
L 370.531661 74.869655 
L 370.765461 74.865631 
L 370.999262 74.711648 
L 371.233063 74.834974 
L 371.466863 76.572578 
L 371.934465 76.802973 
L 372.402066 75.154 
L 372.635867 75.307153 
L 372.869668 75.951984 
L 373.337269 76.306642 
L 373.57107 76.068526 
L 373.804871 76.283303 
L 374.506273 78.209301 
L 374.973875 77.826453 
L 375.207675 76.355622 
L 375.441476 77.026149 
L 375.675277 77.199612 
L 375.909077 78.431886 
L 376.142878 78.058923 
L 376.376679 78.033151 
L 376.84428 78.569844 
L 377.078081 79.04598 
L 377.311882 78.508535 
L 377.545683 78.426816 
L 377.779483 78.221491 
L 378.013284 79.527614 
L 378.247085 79.668324 
L 378.480886 81.231258 
L 378.714686 81.354999 
L 379.182288 81.166531 
L 379.416089 81.775792 
L 379.649889 82.772686 
L 379.88369 82.632203 
L 380.585092 82.681542 
L 380.818893 83.151618 
L 381.052694 82.2093 
L 381.754096 84.902575 
L 381.987897 83.838174 
L 382.221697 83.356163 
L 382.455498 83.24874 
L 382.689299 81.44605 
L 382.9231 81.986674 
L 383.390701 82.189848 
L 383.624502 82.539072 
L 384.092103 81.3422 
L 384.325904 80.344123 
L 384.559705 79.920531 
L 384.793506 78.903334 
L 385.027306 78.802501 
L 385.728708 77.979058 
L 385.962509 78.108446 
L 386.430111 77.847722 
L 386.897712 78.203984 
L 387.365314 80.725584 
L 387.599114 80.716348 
L 387.832915 80.515112 
L 388.066716 80.115595 
L 388.300517 80.391242 
L 388.534317 80.437378 
L 388.768118 78.942014 
L 389.001919 78.665012 
L 389.46952 81.422566 
L 389.703321 81.456931 
L 390.170923 84.735245 
L 390.404723 84.812926 
L 390.638524 85.010308 
L 390.872325 84.882413 
L 391.106125 84.562985 
L 391.339926 83.512618 
L 391.573727 83.479257 
L 391.807528 84.298758 
M 392.275129 85.448602 
L 392.50893 84.569215 
L 392.742731 84.269503 
L 392.976531 84.314351 
M 393.444133 83.476147 
L 393.677934 82.8 
L 393.677934 82.8 
" style="fill:none;stroke:#1f77b4;stroke-linecap:square;stroke-width:1.5;"/>
   </g>
   <g id="line2d_14">
    <path clip-path="url(#p5d932a14aa)" d="M 34.56 82.8 
L 414.72 82.8 
" style="fill:none;stroke:#000000;stroke-dasharray:1.5,2.475;stroke-dashoffset:0;stroke-width:1.5;"/>
   </g>
   <g id="patch_3">
    <path d="M 34.56 162 
L 34.56 3.6 
" style="fill:none;stroke:#000000;stroke-linecap:square;stroke-linejoin:miter;stroke-width:0.8;"/>
   </g>
   <g id="patch_4">
    <path d="M 414.72 162 
L 414.72 3.6 
" style="fill:none;stroke:#000000;stroke-linecap:square;stroke-linejoin:miter;stroke-width:0.8;"/>
   </g>
   <g id="patch_5">
    <path d="M 34.56 162 
L 414.72 162 
" style="fill:none;stroke:#000000;stroke-linecap:square;stroke-linejoin:miter;stroke-width:0.8;"/>
   </g>
   <g id="patch_6">
    <path d="M 34.56 3.6 
L 414.72 3.6 
" style="fill:none;stroke:#000000;stroke-linecap:square;stroke-linejoin:miter;stroke-width:0.8;"/>
   </g>
  </g>
 </g>
 <defs>
  <clipPath id="p5d932a14aa">
   <rect height="158.4" width="380.16" x="34.56" y="3.6"/>
  </clipPath>
 </defs>
</svg>
