<?xml version="1.0" encoding="utf-8" standalone="no"?>
<!DOCTYPE svg PUBLIC "-//W3C//DTD SVG 1.1//EN"
  "http://www.w3.org/Graphics/SVG/1.1/DTD/svg11.dtd">
<svg height="180pt" version="1.1" viewBox="0 0 432 180" width="432pt" xmlns="http://www.w3.org/2000/svg" xmlns:xlink="http://www.w3.org/1999/xlink">
 <metadata>
  <rdf:RDF xmlns:cc="http://creativecommons.org/ns#" xmlns:dc="http://purl.org/dc/elements/1.1/" xmlns:rdf="http://www.w3.org/1999/02/22-rdf-syntax-ns#">
   <cc:Work>
    <dc:type rdf:resource="http://purl.org/dc/dcmitype/StillImage"/>
    <dc:date>2021-08-10T10:27:39.602788</dc:date>
    <dc:format>image/svg+xml</dc:format>
    <dc:creator>
     <cc:Agent>
      <dc:title>Matplotlib v3.4.2, https://matplotlib.org/</dc:title>
     </cc:Agent>
    </dc:creator>
   </cc:Work>
  </rdf:RDF>
 </metadata>
 <defs>
  <style type="text/css">*{stroke-linecap:butt;stroke-linejoin:round;}</style>
 </defs>
 <g id="figure_1">
  <g id="patch_1">
   <path d="M 0 180 
L 432 180 
L 432 0 
L 0 0 
z
" style="fill:#ffffff;"/>
  </g>
  <g id="axes_1">
   <g id="patch_2">
    <path d="M 34.56 162 
L 414.72 162 
L 414.72 3.6 
L 34.56 3.6 
z
" style="fill:#ffffff;"/>
   </g>
   <g id="PolyCollection_1">
    <defs>
     <path d="M 88.954913 -97.86899 
L 88.954913 -96.53101 
L 89.5593 -95.866481 
L 90.163688 -95.204918 
L 90.768076 -94.546322 
L 91.372464 -93.890692 
L 91.976852 -93.238029 
L 92.58124 -92.588333 
L 93.185628 -91.941603 
L 93.790016 -91.29784 
L 94.394404 -90.657043 
L 94.998792 -90.019214 
L 95.60318 -89.38435 
L 96.207568 -88.752454 
L 96.811955 -88.123524 
L 97.416343 -87.497561 
L 98.020731 -86.874564 
L 98.625119 -86.254535 
L 99.229507 -85.637471 
L 99.833895 -85.023375 
L 100.438283 -84.412245 
L 101.042671 -83.804082 
L 101.647059 -83.198885 
L 102.251447 -82.596655 
L 102.855835 -81.997392 
L 103.460223 -81.401095 
L 104.06461 -80.807765 
L 104.668998 -80.217402 
L 105.273386 -79.630005 
L 105.877774 -79.045575 
L 106.482162 -78.464112 
L 107.08655 -77.885615 
L 107.690938 -77.310085 
L 108.295326 -76.737521 
L 108.899714 -76.167924 
L 109.504102 -75.601294 
L 110.10849 -75.037631 
L 110.712878 -74.476934 
L 111.317266 -73.919204 
L 111.921653 -73.36444 
L 112.526041 -72.812643 
L 113.130429 -72.263813 
L 113.734817 -71.717949 
L 114.339205 -71.175052 
L 114.943593 -70.635122 
L 115.547981 -70.098158 
L 116.152369 -69.564161 
L 116.756757 -69.033131 
L 117.361145 -68.505067 
L 117.965533 -67.97997 
L 118.569921 -67.45784 
L 119.174308 -66.938676 
L 119.778696 -66.422479 
L 120.383084 -65.909248 
L 120.987472 -65.398985 
L 121.59186 -64.891687 
L 122.196248 -64.387357 
L 122.800636 -63.885993 
L 123.405024 -63.387596 
L 124.009412 -62.892165 
L 124.6138 -62.399701 
L 125.218188 -61.910204 
L 125.822576 -61.423673 
L 126.426963 -60.94011 
L 127.031351 -60.459512 
L 127.635739 -59.981882 
L 128.240127 -59.507218 
L 128.844515 -59.03552 
L 129.448903 -58.566789 
L 130.053291 -58.101025 
L 130.657679 -57.638228 
L 131.262067 -57.178397 
L 131.866455 -56.721533 
L 132.470843 -56.267636 
L 133.075231 -55.816705 
L 133.679618 -55.368741 
L 134.284006 -54.923743 
L 134.888394 -54.481712 
L 135.492782 -54.042648 
L 136.09717 -53.606551 
L 136.701558 -53.17342 
L 137.305946 -52.743255 
L 137.910334 -52.316058 
L 138.514722 -51.891827 
L 139.11911 -51.470562 
L 139.723498 -51.052265 
L 140.327886 -50.636934 
L 140.932273 -50.224569 
L 141.536661 -49.815172 
L 142.141049 -49.408741 
L 142.745437 -49.005276 
L 143.349825 -48.604779 
L 143.954213 -48.207247 
L 144.558601 -47.812683 
L 145.162989 -47.421085 
L 145.767377 -47.032454 
L 146.371765 -46.646789 
L 146.976153 -46.264092 
L 147.580541 -45.88436 
L 148.184928 -45.507596 
L 148.789316 -45.133798 
L 149.393704 -44.762967 
L 149.998092 -44.395102 
L 150.60248 -44.030204 
L 151.206868 -43.668273 
L 151.811256 -43.309308 
L 152.415644 -42.95331 
L 153.020032 -42.600279 
L 153.62442 -42.250214 
L 154.228808 -41.903116 
L 154.833196 -41.558985 
L 155.437583 -41.21782 
L 156.041971 -40.879622 
L 156.646359 -40.54439 
L 157.250747 -40.212125 
L 157.855135 -39.882827 
L 158.459523 -39.556496 
L 159.063911 -39.233131 
L 159.668299 -38.912733 
L 160.272687 -38.595301 
L 160.877075 -38.280836 
L 161.481463 -37.969338 
L 162.085851 -37.660806 
L 162.690238 -37.355241 
L 163.294626 -37.052643 
L 163.899014 -36.753011 
L 164.503402 -36.456346 
L 165.10779 -36.162648 
L 165.712178 -35.871916 
L 166.316566 -35.584151 
L 166.920954 -35.299353 
L 167.525342 -35.017521 
L 168.12973 -34.738656 
L 168.734118 -34.462758 
L 169.338506 -34.189826 
L 169.942893 -33.919861 
L 170.547281 -33.652862 
L 171.151669 -33.38883 
L 171.756057 -33.127765 
L 172.360445 -32.869667 
L 172.964833 -32.614535 
L 173.569221 -32.362369 
L 174.173609 -32.113171 
L 174.777997 -31.866939 
L 175.382385 -31.623673 
L 175.986773 -31.383375 
L 176.591161 -31.146043 
L 177.195548 -30.911677 
L 177.799936 -30.680279 
L 178.404324 -30.451847 
L 179.008712 -30.226381 
L 179.6131 -30.003883 
L 180.217488 -29.78435 
L 180.821876 -29.567785 
L 181.426264 -29.354186 
L 182.030652 -29.143554 
L 182.63504 -28.935889 
L 183.239428 -28.73119 
L 183.843816 -28.529457 
L 184.448203 -28.330692 
L 185.052591 -28.134893 
L 185.656979 -27.942061 
L 186.261367 -27.752195 
L 186.865755 -27.565296 
L 187.470143 -27.381364 
L 188.074531 -27.200398 
L 188.678919 -27.022399 
L 189.283307 -26.847367 
L 189.887695 -26.675301 
L 190.492083 -26.506202 
L 191.096471 -26.34007 
L 191.700859 -26.176904 
L 192.305246 -26.016705 
L 192.909634 -25.859472 
L 193.514022 -25.705207 
L 194.11841 -25.553907 
L 194.722798 -25.405575 
L 195.327186 -25.260209 
L 195.931574 -25.11781 
L 196.535962 -24.978377 
L 197.14035 -24.841911 
L 197.744738 -24.708412 
L 198.349126 -24.57788 
L 198.953514 -24.450314 
L 199.557901 -24.325714 
L 200.162289 -24.204082 
L 200.766677 -24.085416 
L 201.371065 -23.969716 
L 201.975453 -23.856984 
L 202.579841 -23.747218 
L 203.184229 -23.640418 
L 203.788617 -23.536585 
L 204.393005 -23.435719 
L 204.997393 -23.33782 
L 205.601781 -23.242887 
L 206.206169 -23.150921 
L 206.810556 -23.061921 
L 207.414944 -22.975889 
L 208.019332 -22.892822 
L 208.62372 -22.812723 
L 209.228108 -22.73559 
L 209.832496 -22.661424 
L 210.436884 -22.590224 
L 211.041272 -22.521991 
L 211.64566 -22.456725 
L 212.250048 -22.394425 
L 212.854436 -22.335092 
L 213.458824 -22.278726 
L 214.063211 -22.225326 
L 214.667599 -22.174893 
L 215.271987 -22.127427 
L 215.876375 -22.082927 
L 216.480763 -22.041394 
L 217.085151 -22.002827 
L 217.689539 -21.967227 
L 218.293927 -21.934594 
L 218.898315 -21.904928 
L 219.502703 -21.878228 
L 220.107091 -21.854495 
L 220.711479 -21.833728 
L 221.315866 -21.815928 
L 221.920254 -21.801095 
L 222.524642 -21.789228 
L 223.12903 -21.780329 
L 223.733418 -21.774395 
L 224.337806 -21.771429 
L 224.942194 -21.771429 
L 225.546582 -21.774395 
L 226.15097 -21.780329 
L 226.755358 -21.789228 
L 227.359746 -21.801095 
L 227.964134 -21.815928 
L 228.568521 -21.833728 
L 229.172909 -21.854495 
L 229.777297 -21.878228 
L 230.381685 -21.904928 
L 230.986073 -21.934594 
L 231.590461 -21.967227 
L 232.194849 -22.002827 
L 232.799237 -22.041394 
L 233.403625 -22.082927 
L 234.008013 -22.127427 
L 234.612401 -22.174893 
L 235.216789 -22.225326 
L 235.821176 -22.278726 
L 236.425564 -22.335092 
L 237.029952 -22.394425 
L 237.63434 -22.456725 
L 238.238728 -22.521991 
L 238.843116 -22.590224 
L 239.447504 -22.661424 
L 240.051892 -22.73559 
L 240.65628 -22.812723 
L 241.260668 -22.892822 
L 241.865056 -22.975889 
L 242.469444 -23.061921 
L 243.073831 -23.150921 
L 243.678219 -23.242887 
L 244.282607 -23.33782 
L 244.886995 -23.435719 
L 245.491383 -23.536585 
L 246.095771 -23.640418 
L 246.700159 -23.747218 
L 247.304547 -23.856984 
L 247.908935 -23.969716 
L 248.513323 -24.085416 
L 249.117711 -24.204082 
L 249.722099 -24.325714 
L 250.326486 -24.450314 
L 250.930874 -24.57788 
L 251.535262 -24.708412 
L 252.13965 -24.841911 
L 252.744038 -24.978377 
L 253.348426 -25.11781 
L 253.952814 -25.260209 
L 254.557202 -25.405575 
L 255.16159 -25.553907 
L 255.765978 -25.705207 
L 256.370366 -25.859472 
L 256.974754 -26.016705 
L 257.579141 -26.176904 
L 258.183529 -26.34007 
L 258.787917 -26.506202 
L 259.392305 -26.675301 
L 259.996693 -26.847367 
L 260.601081 -27.022399 
L 261.205469 -27.200398 
L 261.809857 -27.381364 
L 262.414245 -27.565296 
L 263.018633 -27.752195 
L 263.623021 -27.942061 
L 264.227409 -28.134893 
L 264.831797 -28.330692 
L 265.436184 -28.529457 
L 266.040572 -28.73119 
L 266.64496 -28.935889 
L 267.249348 -29.143554 
L 267.853736 -29.354186 
L 268.458124 -29.567785 
L 269.062512 -29.78435 
L 269.6669 -30.003883 
L 270.271288 -30.226381 
L 270.875676 -30.451847 
L 271.480064 -30.680279 
L 272.084452 -30.911677 
L 272.688839 -31.146043 
L 273.293227 -31.383375 
L 273.897615 -31.623673 
L 274.502003 -31.866939 
L 275.106391 -32.113171 
L 275.710779 -32.362369 
L 276.315167 -32.614535 
L 276.919555 -32.869667 
L 277.523943 -33.127765 
L 278.128331 -33.38883 
L 278.732719 -33.652862 
L 279.337107 -33.919861 
L 279.941494 -34.189826 
L 280.545882 -34.462758 
L 281.15027 -34.738656 
L 281.754658 -35.017521 
L 282.359046 -35.299353 
L 282.963434 -35.584151 
L 283.567822 -35.871916 
L 284.17221 -36.162648 
L 284.776598 -36.456346 
L 285.380986 -36.753011 
L 285.985374 -37.052643 
L 286.589762 -37.355241 
L 287.194149 -37.660806 
L 287.798537 -37.969338 
L 288.402925 -38.280836 
L 289.007313 -38.595301 
L 289.611701 -38.912733 
L 290.216089 -39.233131 
L 290.820477 -39.556496 
L 291.424865 -39.882827 
L 292.029253 -40.212125 
L 292.633641 -40.54439 
L 293.238029 -40.879622 
L 293.842417 -41.21782 
L 294.446804 -41.558985 
L 295.051192 -41.903116 
L 295.65558 -42.250214 
L 296.259968 -42.600279 
L 296.864356 -42.95331 
L 297.468744 -43.309308 
L 298.073132 -43.668273 
L 298.67752 -44.030204 
L 299.281908 -44.395102 
L 299.886296 -44.762967 
L 300.490684 -45.133798 
L 301.095072 -45.507596 
L 301.699459 -45.88436 
L 302.303847 -46.264092 
L 302.908235 -46.646789 
L 303.512623 -47.032454 
L 304.117011 -47.421085 
L 304.721399 -47.812683 
L 305.325787 -48.207247 
L 305.930175 -48.604779 
L 306.534563 -49.005276 
L 307.138951 -49.408741 
L 307.743339 -49.815172 
L 308.347727 -50.224569 
L 308.952114 -50.636934 
L 309.556502 -51.052265 
L 310.16089 -51.470562 
L 310.765278 -51.891827 
L 311.369666 -52.316058 
L 311.974054 -52.743255 
L 312.578442 -53.17342 
L 313.18283 -53.606551 
L 313.787218 -54.042648 
L 314.391606 -54.481712 
L 314.995994 -54.923743 
L 315.600382 -55.368741 
L 316.204769 -55.816705 
L 316.809157 -56.267636 
L 317.413545 -56.721533 
L 318.017933 -57.178397 
L 318.622321 -57.638228 
L 319.226709 -58.101025 
L 319.831097 -58.566789 
L 320.435485 -59.03552 
L 321.039873 -59.507218 
L 321.644261 -59.981882 
L 322.248649 -60.459512 
L 322.853037 -60.94011 
L 323.457424 -61.423673 
L 324.061812 -61.910204 
L 324.6662 -62.399701 
L 325.270588 -62.892165 
L 325.874976 -63.387596 
L 326.479364 -63.885993 
L 327.083752 -64.387357 
L 327.68814 -64.891687 
L 328.292528 -65.398985 
L 328.896916 -65.909248 
L 329.501304 -66.422479 
L 330.105692 -66.938676 
L 330.710079 -67.45784 
L 331.314467 -67.97997 
L 331.918855 -68.505067 
L 332.523243 -69.033131 
L 333.127631 -69.564161 
L 333.732019 -70.098158 
L 334.336407 -70.635122 
L 334.940795 -71.175052 
L 335.545183 -71.717949 
L 336.149571 -72.263813 
L 336.753959 -72.812643 
L 337.358347 -73.36444 
L 337.962734 -73.919204 
L 338.567122 -74.476934 
L 339.17151 -75.037631 
L 339.775898 -75.601294 
L 340.380286 -76.167924 
L 340.984674 -76.737521 
L 341.589062 -77.310085 
L 342.19345 -77.885615 
L 342.797838 -78.464112 
L 343.402226 -79.045575 
L 344.006614 -79.630005 
L 344.611002 -80.217402 
L 345.21539 -80.807765 
L 345.819777 -81.401095 
L 346.424165 -81.997392 
L 347.028553 -82.596655 
L 347.632941 -83.198885 
L 348.237329 -83.804082 
L 348.841717 -84.412245 
L 349.446105 -85.023375 
L 350.050493 -85.637471 
L 350.654881 -86.254535 
L 351.259269 -86.874564 
L 351.863657 -87.497561 
L 352.468045 -88.123524 
L 353.072432 -88.752454 
L 353.67682 -89.38435 
L 354.281208 -90.019214 
L 354.885596 -90.657043 
L 355.489984 -91.29784 
L 356.094372 -91.941603 
L 356.69876 -92.588333 
L 357.303148 -93.238029 
L 357.907536 -93.890692 
L 358.511924 -94.546322 
L 359.116312 -95.204918 
L 359.7207 -95.866481 
L 360.325087 -96.53101 
L 360.325087 -97.86899 
L 360.325087 -97.86899 
L 359.7207 -98.533519 
L 359.116312 -99.195082 
L 358.511924 -99.853678 
L 357.907536 -100.509308 
L 357.303148 -101.161971 
L 356.69876 -101.811667 
L 356.094372 -102.458397 
L 355.489984 -103.10216 
L 354.885596 -103.742957 
L 354.281208 -104.380786 
L 353.67682 -105.01565 
L 353.072432 -105.647546 
L 352.468045 -106.276476 
L 351.863657 -106.902439 
L 351.259269 -107.525436 
L 350.654881 -108.145465 
L 350.050493 -108.762529 
L 349.446105 -109.376625 
L 348.841717 -109.987755 
L 348.237329 -110.595918 
L 347.632941 -111.201115 
L 347.028553 -111.803345 
L 346.424165 -112.402608 
L 345.819777 -112.998905 
L 345.21539 -113.592235 
L 344.611002 -114.182598 
L 344.006614 -114.769995 
L 343.402226 -115.354425 
L 342.797838 -115.935888 
L 342.19345 -116.514385 
L 341.589062 -117.089915 
L 340.984674 -117.662479 
L 340.380286 -118.232076 
L 339.775898 -118.798706 
L 339.17151 -119.362369 
L 338.567122 -119.923066 
L 337.962734 -120.480796 
L 337.358347 -121.03556 
L 336.753959 -121.587357 
L 336.149571 -122.136187 
L 335.545183 -122.682051 
L 334.940795 -123.224948 
L 334.336407 -123.764878 
L 333.732019 -124.301842 
L 333.127631 -124.835839 
L 332.523243 -125.366869 
L 331.918855 -125.894933 
L 331.314467 -126.42003 
L 330.710079 -126.94216 
L 330.105692 -127.461324 
L 329.501304 -127.977521 
L 328.896916 -128.490752 
L 328.292528 -129.001015 
L 327.68814 -129.508313 
L 327.083752 -130.012643 
L 326.479364 -130.514007 
L 325.874976 -131.012404 
L 325.270588 -131.507835 
L 324.6662 -132.000299 
L 324.061812 -132.489796 
L 323.457424 -132.976327 
L 322.853037 -133.45989 
L 322.248649 -133.940488 
L 321.644261 -134.418118 
L 321.039873 -134.892782 
L 320.435485 -135.36448 
L 319.831097 -135.833211 
L 319.226709 -136.298975 
L 318.622321 -136.761772 
L 318.017933 -137.221603 
L 317.413545 -137.678467 
L 316.809157 -138.132364 
L 316.204769 -138.583295 
L 315.600382 -139.031259 
L 314.995994 -139.476257 
L 314.391606 -139.918288 
L 313.787218 -140.357352 
L 313.18283 -140.793449 
L 312.578442 -141.22658 
L 311.974054 -141.656745 
L 311.369666 -142.083942 
L 310.765278 -142.508173 
L 310.16089 -142.929438 
L 309.556502 -143.347735 
L 308.952114 -143.763066 
L 308.347727 -144.175431 
L 307.743339 -144.584828 
L 307.138951 -144.991259 
L 306.534563 -145.394724 
L 305.930175 -145.795221 
L 305.325787 -146.192753 
L 304.721399 -146.587317 
L 304.117011 -146.978915 
L 303.512623 -147.367546 
L 302.908235 -147.753211 
L 302.303847 -148.135908 
L 301.699459 -148.51564 
L 301.095072 -148.892404 
L 300.490684 -149.266202 
L 299.886296 -149.637033 
L 299.281908 -150.004898 
L 298.67752 -150.369796 
L 298.073132 -150.731727 
L 297.468744 -151.090692 
L 296.864356 -151.44669 
L 296.259968 -151.799721 
L 295.65558 -152.149786 
L 295.051192 -152.496884 
L 294.446804 -152.841015 
L 293.842417 -153.18218 
L 293.238029 -153.520378 
L 292.633641 -153.85561 
L 292.029253 -154.187875 
L 291.424865 -154.517173 
L 290.820477 -154.843504 
L 290.216089 -155.166869 
L 289.611701 -155.487267 
L 289.007313 -155.804699 
L 288.402925 -156.119164 
L 287.798537 -156.430662 
L 287.194149 -156.739194 
L 286.589762 -157.044759 
L 285.985374 -157.347357 
L 285.380986 -157.646989 
L 284.776598 -157.943654 
L 284.17221 -158.237352 
L 283.567822 -158.528084 
L 282.963434 -158.815849 
L 282.359046 -159.100647 
L 281.754658 -159.382479 
L 281.15027 -159.661344 
L 280.545882 -159.937242 
L 279.941494 -160.210174 
L 279.337107 -160.480139 
L 278.732719 -160.747138 
L 278.128331 -161.01117 
L 277.523943 -161.272235 
L 276.919555 -161.530333 
L 276.315167 -161.785465 
L 275.710779 -162.037631 
L 275.106391 -162.286829 
L 274.502003 -162.533061 
L 273.897615 -162.776327 
L 273.293227 -163.016625 
L 272.688839 -163.253957 
L 272.084452 -163.488323 
L 271.480064 -163.719721 
L 270.875676 -163.948153 
L 270.271288 -164.173619 
L 269.6669 -164.396117 
L 269.062512 -164.61565 
L 268.458124 -164.832215 
L 267.853736 -165.045814 
L 267.249348 -165.256446 
L 266.64496 -165.464111 
L 266.040572 -165.66881 
L 265.436184 -165.870543 
L 264.831797 -166.069308 
L 264.227409 -166.265107 
L 263.623021 -166.457939 
L 263.018633 -166.647805 
L 262.414245 -166.834704 
L 261.809857 -167.018636 
L 261.205469 -167.199602 
L 260.601081 -167.377601 
L 259.996693 -167.552633 
L 259.392305 -167.724699 
L 258.787917 -167.893798 
L 258.183529 -168.05993 
L 257.579141 -168.223096 
L 256.974754 -168.383295 
L 256.370366 -168.540528 
L 255.765978 -168.694793 
L 255.16159 -168.846093 
L 254.557202 -168.994425 
L 253.952814 -169.139791 
L 253.348426 -169.28219 
L 252.744038 -169.421623 
L 252.13965 -169.558089 
L 251.535262 -169.691588 
L 250.930874 -169.82212 
L 250.326486 -169.949686 
L 249.722099 -170.074286 
L 249.117711 -170.195918 
L 248.513323 -170.314584 
L 247.908935 -170.430284 
L 247.304547 -170.543016 
L 246.700159 -170.652782 
L 246.095771 -170.759582 
L 245.491383 -170.863415 
L 244.886995 -170.964281 
L 244.282607 -171.06218 
L 243.678219 -171.157113 
L 243.073831 -171.249079 
L 242.469444 -171.338079 
L 241.865056 -171.424111 
L 241.260668 -171.507178 
L 240.65628 -171.587277 
L 240.051892 -171.66441 
L 239.447504 -171.738576 
L 238.843116 -171.809776 
L 238.238728 -171.878009 
L 237.63434 -171.943275 
L 237.029952 -172.005575 
L 236.425564 -172.064908 
L 235.821176 -172.121274 
L 235.216789 -172.174674 
L 234.612401 -172.225107 
L 234.008013 -172.272573 
L 233.403625 -172.317073 
L 232.799237 -172.358606 
L 232.194849 -172.397173 
L 231.590461 -172.432773 
L 230.986073 -172.465406 
L 230.381685 -172.495072 
L 229.777297 -172.521772 
L 229.172909 -172.545505 
L 228.568521 -172.566272 
L 227.964134 -172.584072 
L 227.359746 -172.598905 
L 226.755358 -172.610772 
L 226.15097 -172.619671 
L 225.546582 -172.625605 
L 224.942194 -172.628571 
L 224.337806 -172.628571 
L 223.733418 -172.625605 
L 223.12903 -172.619671 
L 222.524642 -172.610772 
L 221.920254 -172.598905 
L 221.315866 -172.584072 
L 220.711479 -172.566272 
L 220.107091 -172.545505 
L 219.502703 -172.521772 
L 218.898315 -172.495072 
L 218.293927 -172.465406 
L 217.689539 -172.432773 
L 217.085151 -172.397173 
L 216.480763 -172.358606 
L 215.876375 -172.317073 
L 215.271987 -172.272573 
L 214.667599 -172.225107 
L 214.063211 -172.174674 
L 213.458824 -172.121274 
L 212.854436 -172.064908 
L 212.250048 -172.005575 
L 211.64566 -171.943275 
L 211.041272 -171.878009 
L 210.436884 -171.809776 
L 209.832496 -171.738576 
L 209.228108 -171.66441 
L 208.62372 -171.587277 
L 208.019332 -171.507178 
L 207.414944 -171.424111 
L 206.810556 -171.338079 
L 206.206169 -171.249079 
L 205.601781 -171.157113 
L 204.997393 -171.06218 
L 204.393005 -170.964281 
L 203.788617 -170.863415 
L 203.184229 -170.759582 
L 202.579841 -170.652782 
L 201.975453 -170.543016 
L 201.371065 -170.430284 
L 200.766677 -170.314584 
L 200.162289 -170.195918 
L 199.557901 -170.074286 
L 198.953514 -169.949686 
L 198.349126 -169.82212 
L 197.744738 -169.691588 
L 197.14035 -169.558089 
L 196.535962 -169.421623 
L 195.931574 -169.28219 
L 195.327186 -169.139791 
L 194.722798 -168.994425 
L 194.11841 -168.846093 
L 193.514022 -168.694793 
L 192.909634 -168.540528 
L 192.305246 -168.383295 
L 191.700859 -168.223096 
L 191.096471 -168.05993 
L 190.492083 -167.893798 
L 189.887695 -167.724699 
L 189.283307 -167.552633 
L 188.678919 -167.377601 
L 188.074531 -167.199602 
L 187.470143 -167.018636 
L 186.865755 -166.834704 
L 186.261367 -166.647805 
L 185.656979 -166.457939 
L 185.052591 -166.265107 
L 184.448203 -166.069308 
L 183.843816 -165.870543 
L 183.239428 -165.66881 
L 182.63504 -165.464111 
L 182.030652 -165.256446 
L 181.426264 -165.045814 
L 180.821876 -164.832215 
L 180.217488 -164.61565 
L 179.6131 -164.396117 
L 179.008712 -164.173619 
L 178.404324 -163.948153 
L 177.799936 -163.719721 
L 177.195548 -163.488323 
L 176.591161 -163.253957 
L 175.986773 -163.016625 
L 175.382385 -162.776327 
L 174.777997 -162.533061 
L 174.173609 -162.286829 
L 173.569221 -162.037631 
L 172.964833 -161.785465 
L 172.360445 -161.530333 
L 171.756057 -161.272235 
L 171.151669 -161.01117 
L 170.547281 -160.747138 
L 169.942893 -160.480139 
L 169.338506 -160.210174 
L 168.734118 -159.937242 
L 168.12973 -159.661344 
L 167.525342 -159.382479 
L 166.920954 -159.100647 
L 166.316566 -158.815849 
L 165.712178 -158.528084 
L 165.10779 -158.237352 
L 164.503402 -157.943654 
L 163.899014 -157.646989 
L 163.294626 -157.347357 
L 162.690238 -157.044759 
L 162.085851 -156.739194 
L 161.481463 -156.430662 
L 160.877075 -156.119164 
L 160.272687 -155.804699 
L 159.668299 -155.487267 
L 159.063911 -155.166869 
L 158.459523 -154.843504 
L 157.855135 -154.517173 
L 157.250747 -154.187875 
L 156.646359 -153.85561 
L 156.041971 -153.520378 
L 155.437583 -153.18218 
L 154.833196 -152.841015 
L 154.228808 -152.496884 
L 153.62442 -152.149786 
L 153.020032 -151.799721 
L 152.415644 -151.44669 
L 151.811256 -151.090692 
L 151.206868 -150.731727 
L 150.60248 -150.369796 
L 149.998092 -150.004898 
L 149.393704 -149.637033 
L 148.789316 -149.266202 
L 148.184928 -148.892404 
L 147.580541 -148.51564 
L 146.976153 -148.135908 
L 146.371765 -147.753211 
L 145.767377 -147.367546 
L 145.162989 -146.978915 
L 144.558601 -146.587317 
L 143.954213 -146.192753 
L 143.349825 -145.795221 
L 142.745437 -145.394724 
L 142.141049 -144.991259 
L 141.536661 -144.584828 
L 140.932273 -144.175431 
L 140.327886 -143.763066 
L 139.723498 -143.347735 
L 139.11911 -142.929438 
L 138.514722 -142.508173 
L 137.910334 -142.083942 
L 137.305946 -141.656745 
L 136.701558 -141.22658 
L 136.09717 -140.793449 
L 135.492782 -140.357352 
L 134.888394 -139.918288 
L 134.284006 -139.476257 
L 133.679618 -139.031259 
L 133.075231 -138.583295 
L 132.470843 -138.132364 
L 131.866455 -137.678467 
L 131.262067 -137.221603 
L 130.657679 -136.761772 
L 130.053291 -136.298975 
L 129.448903 -135.833211 
L 128.844515 -135.36448 
L 128.240127 -134.892782 
L 127.635739 -134.418118 
L 127.031351 -133.940488 
L 126.426963 -133.45989 
L 125.822576 -132.976327 
L 125.218188 -132.489796 
L 124.6138 -132.000299 
L 124.009412 -131.507835 
L 123.405024 -131.012404 
L 122.800636 -130.514007 
L 122.196248 -130.012643 
L 121.59186 -129.508313 
L 120.987472 -129.001015 
L 120.383084 -128.490752 
L 119.778696 -127.977521 
L 119.174308 -127.461324 
L 118.569921 -126.94216 
L 117.965533 -126.42003 
L 117.361145 -125.894933 
L 116.756757 -125.366869 
L 116.152369 -124.835839 
L 115.547981 -124.301842 
L 114.943593 -123.764878 
L 114.339205 -123.224948 
L 113.734817 -122.682051 
L 113.130429 -122.136187 
L 112.526041 -121.587357 
L 111.921653 -121.03556 
L 111.317266 -120.480796 
L 110.712878 -119.923066 
L 110.10849 -119.362369 
L 109.504102 -118.798706 
L 108.899714 -118.232076 
L 108.295326 -117.662479 
L 107.690938 -117.089915 
L 107.08655 -116.514385 
L 106.482162 -115.935888 
L 105.877774 -115.354425 
L 105.273386 -114.769995 
L 104.668998 -114.182598 
L 104.06461 -113.592235 
L 103.460223 -112.998905 
L 102.855835 -112.402608 
L 102.251447 -111.803345 
L 101.647059 -111.201115 
L 101.042671 -110.595918 
L 100.438283 -109.987755 
L 99.833895 -109.376625 
L 99.229507 -108.762529 
L 98.625119 -108.145465 
L 98.020731 -107.525436 
L 97.416343 -106.902439 
L 96.811955 -106.276476 
L 96.207568 -105.647546 
L 95.60318 -105.01565 
L 94.998792 -104.380786 
L 94.394404 -103.742957 
L 93.790016 -103.10216 
L 93.185628 -102.458397 
L 92.58124 -101.811667 
L 91.976852 -101.161971 
L 91.372464 -100.509308 
L 90.768076 -99.853678 
L 90.163688 -99.195082 
L 89.5593 -98.533519 
L 88.954913 -97.86899 
z
" id="m3f56603bc8" style="stroke:#0000ff;stroke-opacity:0.1;"/>
    </defs>
    <g clip-path="url(#p5de850a99c)">
     <use style="fill:#0000ff;fill-opacity:0.1;stroke:#0000ff;stroke-opacity:0.1;" x="0" xlink:href="#m3f56603bc8" y="180"/>
    </g>
   </g>
   <g id="matplotlib.axis_1">
    <g id="xtick_1">
     <g id="line2d_1">
      <defs>
       <path d="M 0 0 
L 0 3.5 
" id="mabdc560925" style="stroke:#000000;stroke-width:0.8;"/>
      </defs>
      <g>
       <use style="stroke:#000000;stroke-width:0.8;" x="81.400064" xlink:href="#mabdc560925" y="162"/>
      </g>
     </g>
     <g id="text_1">
      <!-- 1960 -->
      <g transform="translate(68.675064 176.598438)scale(0.1 -0.1)">
       <defs>
        <path d="M 794 531 
L 1825 531 
L 1825 4091 
L 703 3866 
L 703 4441 
L 1819 4666 
L 2450 4666 
L 2450 531 
L 3481 531 
L 3481 0 
L 794 0 
L 794 531 
z
" id="DejaVuSans-31" transform="scale(0.015625)"/>
        <path d="M 703 97 
L 703 672 
Q 941 559 1184 500 
Q 1428 441 1663 441 
Q 2288 441 2617 861 
Q 2947 1281 2994 2138 
Q 2813 1869 2534 1725 
Q 2256 1581 1919 1581 
Q 1219 1581 811 2004 
Q 403 2428 403 3163 
Q 403 3881 828 4315 
Q 1253 4750 1959 4750 
Q 2769 4750 3195 4129 
Q 3622 3509 3622 2328 
Q 3622 1225 3098 567 
Q 2575 -91 1691 -91 
Q 1453 -91 1209 -44 
Q 966 3 703 97 
z
M 1959 2075 
Q 2384 2075 2632 2365 
Q 2881 2656 2881 3163 
Q 2881 3666 2632 3958 
Q 2384 4250 1959 4250 
Q 1534 4250 1286 3958 
Q 1038 3666 1038 3163 
Q 1038 2656 1286 2365 
Q 1534 2075 1959 2075 
z
" id="DejaVuSans-39" transform="scale(0.015625)"/>
        <path d="M 2113 2584 
Q 1688 2584 1439 2293 
Q 1191 2003 1191 1497 
Q 1191 994 1439 701 
Q 1688 409 2113 409 
Q 2538 409 2786 701 
Q 3034 994 3034 1497 
Q 3034 2003 2786 2293 
Q 2538 2584 2113 2584 
z
M 3366 4563 
L 3366 3988 
Q 3128 4100 2886 4159 
Q 2644 4219 2406 4219 
Q 1781 4219 1451 3797 
Q 1122 3375 1075 2522 
Q 1259 2794 1537 2939 
Q 1816 3084 2150 3084 
Q 2853 3084 3261 2657 
Q 3669 2231 3669 1497 
Q 3669 778 3244 343 
Q 2819 -91 2113 -91 
Q 1303 -91 875 529 
Q 447 1150 447 2328 
Q 447 3434 972 4092 
Q 1497 4750 2381 4750 
Q 2619 4750 2861 4703 
Q 3103 4656 3366 4563 
z
" id="DejaVuSans-36" transform="scale(0.015625)"/>
        <path d="M 2034 4250 
Q 1547 4250 1301 3770 
Q 1056 3291 1056 2328 
Q 1056 1369 1301 889 
Q 1547 409 2034 409 
Q 2525 409 2770 889 
Q 3016 1369 3016 2328 
Q 3016 3291 2770 3770 
Q 2525 4250 2034 4250 
z
M 2034 4750 
Q 2819 4750 3233 4129 
Q 3647 3509 3647 2328 
Q 3647 1150 3233 529 
Q 2819 -91 2034 -91 
Q 1250 -91 836 529 
Q 422 1150 422 2328 
Q 422 3509 836 4129 
Q 1250 4750 2034 4750 
z
" id="DejaVuSans-30" transform="scale(0.015625)"/>
       </defs>
       <use xlink:href="#DejaVuSans-31"/>
       <use x="63.623047" xlink:href="#DejaVuSans-39"/>
       <use x="127.246094" xlink:href="#DejaVuSans-36"/>
       <use x="190.869141" xlink:href="#DejaVuSans-30"/>
      </g>
     </g>
    </g>
    <g id="xtick_2">
     <g id="line2d_2">
      <g>
       <use style="stroke:#000000;stroke-width:0.8;" x="153.926614" xlink:href="#mabdc560925" y="162"/>
      </g>
     </g>
     <g id="text_2">
      <!-- 1970 -->
      <g transform="translate(141.201614 176.598438)scale(0.1 -0.1)">
       <defs>
        <path d="M 525 4666 
L 3525 4666 
L 3525 4397 
L 1831 0 
L 1172 0 
L 2766 4134 
L 525 4134 
L 525 4666 
z
" id="DejaVuSans-37" transform="scale(0.015625)"/>
       </defs>
       <use xlink:href="#DejaVuSans-31"/>
       <use x="63.623047" xlink:href="#DejaVuSans-39"/>
       <use x="127.246094" xlink:href="#DejaVuSans-37"/>
       <use x="190.869141" xlink:href="#DejaVuSans-30"/>
      </g>
     </g>
    </g>
    <g id="xtick_3">
     <g id="line2d_3">
      <g>
       <use style="stroke:#000000;stroke-width:0.8;" x="226.453164" xlink:href="#mabdc560925" y="162"/>
      </g>
     </g>
     <g id="text_3">
      <!-- 1980 -->
      <g transform="translate(213.728164 176.598438)scale(0.1 -0.1)">
       <defs>
        <path d="M 2034 2216 
Q 1584 2216 1326 1975 
Q 1069 1734 1069 1313 
Q 1069 891 1326 650 
Q 1584 409 2034 409 
Q 2484 409 2743 651 
Q 3003 894 3003 1313 
Q 3003 1734 2745 1975 
Q 2488 2216 2034 2216 
z
M 1403 2484 
Q 997 2584 770 2862 
Q 544 3141 544 3541 
Q 544 4100 942 4425 
Q 1341 4750 2034 4750 
Q 2731 4750 3128 4425 
Q 3525 4100 3525 3541 
Q 3525 3141 3298 2862 
Q 3072 2584 2669 2484 
Q 3125 2378 3379 2068 
Q 3634 1759 3634 1313 
Q 3634 634 3220 271 
Q 2806 -91 2034 -91 
Q 1263 -91 848 271 
Q 434 634 434 1313 
Q 434 1759 690 2068 
Q 947 2378 1403 2484 
z
M 1172 3481 
Q 1172 3119 1398 2916 
Q 1625 2713 2034 2713 
Q 2441 2713 2670 2916 
Q 2900 3119 2900 3481 
Q 2900 3844 2670 4047 
Q 2441 4250 2034 4250 
Q 1625 4250 1398 4047 
Q 1172 3844 1172 3481 
z
" id="DejaVuSans-38" transform="scale(0.015625)"/>
       </defs>
       <use xlink:href="#DejaVuSans-31"/>
       <use x="63.623047" xlink:href="#DejaVuSans-39"/>
       <use x="127.246094" xlink:href="#DejaVuSans-38"/>
       <use x="190.869141" xlink:href="#DejaVuSans-30"/>
      </g>
     </g>
    </g>
    <g id="xtick_4">
     <g id="line2d_4">
      <g>
       <use style="stroke:#000000;stroke-width:0.8;" x="298.979714" xlink:href="#mabdc560925" y="162"/>
      </g>
     </g>
     <g id="text_4">
      <!-- 1990 -->
      <g transform="translate(286.254714 176.598438)scale(0.1 -0.1)">
       <use xlink:href="#DejaVuSans-31"/>
       <use x="63.623047" xlink:href="#DejaVuSans-39"/>
       <use x="127.246094" xlink:href="#DejaVuSans-39"/>
       <use x="190.869141" xlink:href="#DejaVuSans-30"/>
      </g>
     </g>
    </g>
    <g id="xtick_5">
     <g id="line2d_5">
      <g>
       <use style="stroke:#000000;stroke-width:0.8;" x="371.506264" xlink:href="#mabdc560925" y="162"/>
      </g>
     </g>
     <g id="text_5">
      <!-- 2000 -->
      <g transform="translate(358.781264 176.598438)scale(0.1 -0.1)">
       <defs>
        <path d="M 1228 531 
L 3431 531 
L 3431 0 
L 469 0 
L 469 531 
Q 828 903 1448 1529 
Q 2069 2156 2228 2338 
Q 2531 2678 2651 2914 
Q 2772 3150 2772 3378 
Q 2772 3750 2511 3984 
Q 2250 4219 1831 4219 
Q 1534 4219 1204 4116 
Q 875 4013 500 3803 
L 500 4441 
Q 881 4594 1212 4672 
Q 1544 4750 1819 4750 
Q 2544 4750 2975 4387 
Q 3406 4025 3406 3419 
Q 3406 3131 3298 2873 
Q 3191 2616 2906 2266 
Q 2828 2175 2409 1742 
Q 1991 1309 1228 531 
z
" id="DejaVuSans-32" transform="scale(0.015625)"/>
       </defs>
       <use xlink:href="#DejaVuSans-32"/>
       <use x="63.623047" xlink:href="#DejaVuSans-30"/>
       <use x="127.246094" xlink:href="#DejaVuSans-30"/>
       <use x="190.869141" xlink:href="#DejaVuSans-30"/>
      </g>
     </g>
    </g>
   </g>
   <g id="matplotlib.axis_2">
    <g id="ytick_1">
     <g id="line2d_6">
      <defs>
       <path d="M 0 0 
L -3.5 0 
" id="m68ec36f600" style="stroke:#000000;stroke-width:0.8;"/>
      </defs>
      <g>
       <use style="stroke:#000000;stroke-width:0.8;" x="34.56" xlink:href="#m68ec36f600" y="155.943217"/>
      </g>
     </g>
     <g id="text_6">
      <!-- −60 -->
      <g transform="translate(6.455313 159.742435)scale(0.1 -0.1)">
       <defs>
        <path d="M 678 2272 
L 4684 2272 
L 4684 1741 
L 678 1741 
L 678 2272 
z
" id="DejaVuSans-2212" transform="scale(0.015625)"/>
       </defs>
       <use xlink:href="#DejaVuSans-2212"/>
       <use x="83.789062" xlink:href="#DejaVuSans-36"/>
       <use x="147.412109" xlink:href="#DejaVuSans-30"/>
      </g>
     </g>
    </g>
    <g id="ytick_2">
     <g id="line2d_7">
      <g>
       <use style="stroke:#000000;stroke-width:0.8;" x="34.56" xlink:href="#m68ec36f600" y="131.562144"/>
      </g>
     </g>
     <g id="text_7">
      <!-- −40 -->
      <g transform="translate(6.455313 135.361363)scale(0.1 -0.1)">
       <defs>
        <path d="M 2419 4116 
L 825 1625 
L 2419 1625 
L 2419 4116 
z
M 2253 4666 
L 3047 4666 
L 3047 1625 
L 3713 1625 
L 3713 1100 
L 3047 1100 
L 3047 0 
L 2419 0 
L 2419 1100 
L 313 1100 
L 313 1709 
L 2253 4666 
z
" id="DejaVuSans-34" transform="scale(0.015625)"/>
       </defs>
       <use xlink:href="#DejaVuSans-2212"/>
       <use x="83.789062" xlink:href="#DejaVuSans-34"/>
       <use x="147.412109" xlink:href="#DejaVuSans-30"/>
      </g>
     </g>
    </g>
    <g id="ytick_3">
     <g id="line2d_8">
      <g>
       <use style="stroke:#000000;stroke-width:0.8;" x="34.56" xlink:href="#m68ec36f600" y="107.181072"/>
      </g>
     </g>
     <g id="text_8">
      <!-- −20 -->
      <g transform="translate(6.455313 110.980291)scale(0.1 -0.1)">
       <use xlink:href="#DejaVuSans-2212"/>
       <use x="83.789062" xlink:href="#DejaVuSans-32"/>
       <use x="147.412109" xlink:href="#DejaVuSans-30"/>
      </g>
     </g>
    </g>
    <g id="ytick_4">
     <g id="line2d_9">
      <g>
       <use style="stroke:#000000;stroke-width:0.8;" x="34.56" xlink:href="#m68ec36f600" y="82.8"/>
      </g>
     </g>
     <g id="text_9">
      <!-- 0 -->
      <g transform="translate(21.1975 86.599219)scale(0.1 -0.1)">
       <use xlink:href="#DejaVuSans-30"/>
      </g>
     </g>
    </g>
    <g id="ytick_5">
     <g id="line2d_10">
      <g>
       <use style="stroke:#000000;stroke-width:0.8;" x="34.56" xlink:href="#m68ec36f600" y="58.418928"/>
      </g>
     </g>
     <g id="text_10">
      <!-- 20 -->
      <g transform="translate(14.835 62.218147)scale(0.1 -0.1)">
       <use xlink:href="#DejaVuSans-32"/>
       <use x="63.623047" xlink:href="#DejaVuSans-30"/>
      </g>
     </g>
    </g>
    <g id="ytick_6">
     <g id="line2d_11">
      <g>
       <use style="stroke:#000000;stroke-width:0.8;" x="34.56" xlink:href="#m68ec36f600" y="34.037856"/>
      </g>
     </g>
     <g id="text_11">
      <!-- 40 -->
      <g transform="translate(14.835 37.837074)scale(0.1 -0.1)">
       <use xlink:href="#DejaVuSans-34"/>
       <use x="63.623047" xlink:href="#DejaVuSans-30"/>
      </g>
     </g>
    </g>
    <g id="ytick_7">
     <g id="line2d_12">
      <g>
       <use style="stroke:#000000;stroke-width:0.8;" x="34.56" xlink:href="#m68ec36f600" y="9.656783"/>
      </g>
     </g>
     <g id="text_12">
      <!-- 60 -->
      <g transform="translate(14.835 13.456002)scale(0.1 -0.1)">
       <use xlink:href="#DejaVuSans-36"/>
       <use x="63.623047" xlink:href="#DejaVuSans-30"/>
      </g>
     </g>
    </g>
   </g>
   <g id="line2d_13">
    <path clip-path="url(#p5de850a99c)" d="M 88.954913 82.670436 
L 89.5593 82.78563 
L 90.163688 83.47072 
L 90.768076 83.560254 
L 91.372464 83.788778 
L 92.58124 84.462701 
L 93.185628 84.498407 
L 93.790016 84.37699 
L 94.394404 84.648487 
L 94.998792 84.56496 
L 95.60318 85.270121 
L 96.207568 85.6867 
L 96.811955 85.364738 
L 97.416343 86.062686 
L 98.020731 86.386897 
L 98.625119 86.569354 
L 99.229507 87.338766 
L 99.833895 87.607384 
L 100.438283 88.197962 
L 101.042671 88.36648 
L 101.647059 88.880397 
L 102.251447 88.633405 
L 104.06461 89.765963 
L 104.668998 89.138928 
L 105.273386 88.869909 
L 105.877774 88.961246 
L 106.482162 88.898426 
L 107.08655 89.345395 
L 107.690938 89.466691 
L 108.295326 89.387549 
L 108.899714 89.662448 
L 109.504102 89.566513 
L 110.10849 89.765203 
L 110.712878 89.531612 
L 111.317266 89.474662 
L 111.921653 88.997992 
L 113.130429 89.067584 
L 113.734817 88.839048 
L 114.339205 89.074874 
L 114.943593 89.436478 
L 115.547981 90.06773 
L 116.756757 91.044057 
L 117.361145 91.159441 
L 119.174308 90.77723 
L 119.778696 90.881895 
L 120.383084 91.111173 
L 120.987472 91.143827 
L 121.59186 90.816585 
L 122.800636 91.205925 
L 123.405024 91.701028 
L 124.009412 91.742853 
L 124.6138 91.421167 
L 125.218188 91.319601 
L 125.822576 90.807744 
L 126.426963 90.677969 
L 127.031351 90.276079 
L 127.635739 90.512903 
L 128.240127 90.516424 
L 128.844515 90.395729 
L 130.053291 90.784677 
L 130.657679 90.642683 
L 131.866455 89.397973 
L 136.09717 92.120602 
L 136.701558 91.974212 
L 137.910334 92.083761 
L 138.514722 92.279518 
L 139.11911 92.002874 
L 139.723498 92.111073 
L 140.327886 92.063719 
L 142.745437 93.162426 
L 143.349825 93.292112 
L 143.954213 92.984763 
L 145.162989 93.119379 
L 145.767377 93.182533 
L 146.371765 93.37827 
L 148.184928 93.108192 
L 149.393704 93.467132 
L 150.60248 94.431028 
L 151.206868 94.696924 
L 151.811256 94.704637 
L 152.415644 94.885777 
L 153.020032 94.649774 
L 153.62442 94.675548 
L 154.228808 94.406408 
L 154.833196 94.757194 
L 155.437583 94.567662 
L 156.041971 94.172281 
L 156.646359 94.031147 
L 157.250747 94.05123 
L 157.855135 93.600515 
L 159.668299 94.175283 
L 160.272687 94.514853 
L 160.877075 94.616589 
L 161.481463 94.846784 
L 162.085851 95.26831 
L 163.294626 95.134963 
L 163.899014 95.418435 
L 164.503402 95.29106 
L 165.10779 95.757512 
L 165.712178 95.681734 
L 166.316566 96.585264 
L 167.525342 97.39193 
L 168.12973 96.994802 
L 169.338506 97.187807 
L 169.942893 97.683799 
L 170.547281 97.369598 
L 172.360445 98.182944 
L 173.569221 98.310013 
L 174.173609 98.76785 
L 174.777997 98.411835 
L 175.382385 98.590147 
L 175.986773 98.603544 
L 176.591161 98.829328 
L 177.195548 99.402955 
L 178.404324 99.367935 
L 179.008712 99.730041 
L 179.6131 99.875536 
L 180.821876 99.619878 
L 181.426264 99.674762 
L 182.030652 100.007727 
L 182.63504 99.662068 
L 183.843816 99.367189 
L 184.448203 99.675976 
L 185.656979 100.714014 
L 186.261367 100.756453 
L 186.865755 101.076101 
L 187.470143 101.531503 
L 188.074531 101.37098 
L 188.678919 100.921724 
L 189.283307 100.688204 
L 189.887695 100.252776 
L 190.492083 100.065012 
L 191.096471 100.147657 
L 192.305246 99.927585 
L 192.909634 99.778935 
L 193.514022 100.149342 
L 194.11841 100.171609 
L 194.722798 100.481509 
L 195.327186 100.634024 
L 195.931574 100.671253 
L 196.535962 101.140316 
L 197.744738 101.10139 
L 198.349126 100.861827 
L 199.557901 101.142693 
L 200.766677 101.543241 
L 201.371065 101.782065 
L 201.975453 102.711605 
L 203.184229 102.27827 
L 203.788617 102.677411 
L 204.393005 102.941672 
L 204.997393 102.632681 
L 205.601781 102.737715 
L 206.206169 102.687382 
L 206.810556 103.023355 
L 208.019332 103.134668 
L 208.62372 103.178076 
L 210.436884 102.822462 
L 211.64566 102.261073 
L 212.250048 102.419357 
L 212.854436 102.206558 
L 214.063211 102.303444 
L 215.876375 101.900664 
L 216.480763 102.083079 
L 217.085151 102.047217 
L 218.293927 102.782523 
L 218.898315 102.924248 
L 219.502703 102.875266 
L 220.107091 102.522634 
L 220.711479 102.476607 
L 221.315866 102.264803 
L 221.920254 102.382056 
L 222.524642 102.166484 
L 223.12903 102.401818 
L 224.337806 103.809547 
L 224.942194 103.625746 
L 225.546582 103.632989 
L 226.15097 103.431502 
L 226.755358 103.669643 
L 227.359746 103.520078 
L 227.964134 102.957768 
L 228.568521 102.801801 
L 229.172909 103.446208 
L 229.777297 103.557378 
L 230.986073 103.31238 
L 231.590461 103.305964 
L 232.799237 102.865889 
L 234.008013 102.7349 
L 234.612401 103.060299 
L 235.216789 102.593816 
L 235.821176 102.535079 
L 236.425564 102.058507 
L 237.63434 101.907786 
L 238.238728 101.346378 
L 238.843116 102.015709 
L 239.447504 101.763717 
L 240.051892 101.773835 
L 242.469444 102.777448 
L 243.073831 102.840086 
L 243.678219 103.166454 
L 244.282607 103.287983 
L 244.886995 103.177572 
L 245.491383 103.206575 
L 246.700159 103.482767 
L 247.304547 103.243245 
L 247.908935 103.671401 
L 248.513323 103.948998 
L 249.117711 103.982448 
L 249.722099 104.13935 
L 250.326486 104.490224 
L 250.930874 104.455734 
L 251.535262 104.117301 
L 252.13965 104.061157 
L 252.744038 104.24525 
L 253.348426 104.066615 
L 253.952814 104.385912 
L 254.557202 104.5064 
L 255.16159 105.040208 
L 256.974754 105.078957 
L 257.579141 105.8771 
L 258.787917 105.276198 
L 259.392305 105.43832 
L 260.601081 104.843907 
L 261.809857 104.819986 
L 262.414245 105.211489 
L 263.018633 105.29393 
L 264.227409 106.123564 
L 265.436184 105.702812 
L 266.64496 105.412822 
L 268.458124 105.173206 
L 270.271288 105.605473 
L 271.480064 105.787506 
L 272.084452 105.63207 
L 272.688839 105.237389 
L 273.293227 105.11931 
L 274.502003 104.566489 
L 275.106391 104.622488 
L 275.710779 104.321798 
L 276.919555 104.688923 
L 277.523943 104.984183 
L 278.128331 105.092748 
L 279.337107 104.850129 
L 281.15027 104.141221 
L 281.754658 103.999857 
L 282.359046 103.684732 
L 284.17221 103.221294 
L 285.380986 103.626114 
L 285.985374 103.305469 
L 286.589762 103.383542 
L 289.007313 102.060727 
L 290.216089 101.290301 
L 290.820477 101.716278 
L 291.424865 101.655994 
L 292.029253 102.316478 
L 292.633641 102.615822 
L 293.238029 102.721026 
L 293.842417 102.705389 
L 294.446804 102.531133 
L 295.051192 102.678824 
L 295.65558 102.699146 
L 296.259968 102.329633 
L 296.864356 102.099909 
L 297.468744 102.055295 
L 298.073132 102.767764 
L 298.67752 102.896662 
L 299.281908 103.400713 
L 299.886296 103.259079 
L 300.490684 103.814787 
L 301.699459 104.408879 
L 302.303847 104.445812 
L 302.908235 104.671337 
L 303.512623 104.419979 
L 304.117011 104.527027 
L 305.325787 104.113239 
L 305.930175 104.177706 
L 307.138951 104.147927 
L 307.743339 103.659739 
L 309.556502 103.209616 
L 310.765278 102.650645 
L 311.369666 102.479758 
L 311.974054 102.508873 
L 312.578442 102.135109 
L 313.18283 102.893969 
L 315.600382 103.543433 
L 316.204769 103.441793 
L 316.809157 103.618003 
L 317.413545 103.502911 
L 319.226709 102.557178 
L 319.831097 101.906848 
L 320.435485 101.604633 
L 321.644261 100.339983 
L 322.248649 100.447797 
L 323.457424 99.177831 
L 324.6662 98.364579 
L 325.270588 98.368726 
L 325.874976 98.512487 
L 326.479364 97.859606 
L 327.083752 97.886359 
L 327.68814 97.425865 
L 332.523243 96.227302 
L 333.127631 95.743359 
L 333.732019 95.862957 
L 334.336407 95.534652 
L 334.940795 95.668298 
L 336.149571 94.782736 
L 336.753959 94.712353 
L 337.358347 94.256791 
L 337.962734 94.283564 
L 338.567122 93.696837 
L 339.17151 93.312217 
L 339.775898 93.087636 
L 340.984674 92.196072 
L 341.589062 92.113681 
L 342.19345 91.890294 
L 342.797838 91.193748 
L 344.006614 90.507428 
L 344.611002 90.570551 
L 345.21539 90.107472 
L 345.819777 89.954917 
L 346.424165 89.5304 
L 347.028553 89.452561 
L 347.632941 88.861944 
L 348.237329 88.617196 
L 348.841717 88.624587 
L 350.050493 87.630477 
L 350.654881 87.040116 
L 351.259269 86.661416 
L 352.468045 86.458564 
L 353.072432 86.002361 
L 353.67682 85.973384 
L 354.281208 85.430201 
L 354.885596 85.492176 
L 355.489984 85.268654 
L 356.094372 84.926313 
L 357.303148 83.893291 
L 357.907536 84.026387 
L 359.116312 83.31836 
L 359.7207 82.879541 
L 360.325087 82.8 
L 360.325087 82.8 
" style="fill:none;stroke:#1f77b4;stroke-linecap:square;stroke-width:1.5;"/>
   </g>
   <g id="line2d_14">
    <path clip-path="url(#p5de850a99c)" d="M 34.56 82.8 
L 414.72 82.8 
" style="fill:none;stroke:#000000;stroke-dasharray:1.5,2.475;stroke-dashoffset:0;stroke-width:1.5;"/>
   </g>
   <g id="patch_3">
    <path d="M 34.56 162 
L 34.56 3.6 
" style="fill:none;stroke:#000000;stroke-linecap:square;stroke-linejoin:miter;stroke-width:0.8;"/>
   </g>
   <g id="patch_4">
    <path d="M 414.72 162 
L 414.72 3.6 
" style="fill:none;stroke:#000000;stroke-linecap:square;stroke-linejoin:miter;stroke-width:0.8;"/>
   </g>
   <g id="patch_5">
    <path d="M 34.56 162 
L 414.72 162 
" style="fill:none;stroke:#000000;stroke-linecap:square;stroke-linejoin:miter;stroke-width:0.8;"/>
   </g>
   <g id="patch_6">
    <path d="M 34.56 3.6 
L 414.72 3.6 
" style="fill:none;stroke:#000000;stroke-linecap:square;stroke-linejoin:miter;stroke-width:0.8;"/>
   </g>
  </g>
 </g>
 <defs>
  <clipPath id="p5de850a99c">
   <rect height="158.4" width="380.16" x="34.56" y="3.6"/>
  </clipPath>
 </defs>
</svg>
