<?xml version="1.0" encoding="utf-8" standalone="no"?>
<!DOCTYPE svg PUBLIC "-//W3C//DTD SVG 1.1//EN"
  "http://www.w3.org/Graphics/SVG/1.1/DTD/svg11.dtd">
<svg height="180pt" version="1.1" viewBox="0 0 432 180" width="432pt" xmlns="http://www.w3.org/2000/svg" xmlns:xlink="http://www.w3.org/1999/xlink">
 <metadata>
  <rdf:RDF xmlns:cc="http://creativecommons.org/ns#" xmlns:dc="http://purl.org/dc/elements/1.1/" xmlns:rdf="http://www.w3.org/1999/02/22-rdf-syntax-ns#">
   <cc:Work>
    <dc:type rdf:resource="http://purl.org/dc/dcmitype/StillImage"/>
    <dc:date>2021-08-12T10:41:48.004705</dc:date>
    <dc:format>image/svg+xml</dc:format>
    <dc:creator>
     <cc:Agent>
      <dc:title>Matplotlib v3.4.2, https://matplotlib.org/</dc:title>
     </cc:Agent>
    </dc:creator>
   </cc:Work>
  </rdf:RDF>
 </metadata>
 <defs>
  <style type="text/css">*{stroke-linecap:butt;stroke-linejoin:round;}</style>
 </defs>
 <g id="figure_1">
  <g id="patch_1">
   <path d="M 0 180 
L 432 180 
L 432 0 
L 0 0 
z
" style="fill:#ffffff;"/>
  </g>
  <g id="axes_1">
   <g id="patch_2">
    <path d="M 34.56 162 
L 414.72 162 
L 414.72 3.6 
L 34.56 3.6 
z
" style="fill:#ffffff;"/>
   </g>
   <g id="PolyCollection_1">
    <path clip-path="url(#p81f3f63fba)" d="M 94.48014 81.937966 
L 94.48014 83.662034 
L 95.145919 84.516657 
L 95.811699 85.366355 
L 96.477478 86.211128 
L 97.143257 87.050974 
L 97.809037 87.885895 
L 98.474816 88.715889 
L 99.140595 89.540958 
L 99.806375 90.361102 
L 100.472154 91.176319 
L 101.137933 91.986611 
L 101.803713 92.791977 
L 102.469492 93.592417 
L 103.135271 94.387931 
L 103.801051 95.17852 
L 104.46683 95.964182 
L 105.132609 96.744919 
L 105.798389 97.520731 
L 106.464168 98.291616 
L 107.129947 99.057576 
L 107.795727 99.818609 
L 108.461506 100.574718 
L 109.127285 101.3259 
L 109.793065 102.072156 
L 110.458844 102.813487 
L 111.124623 103.549892 
L 111.790403 104.281371 
L 112.456182 105.007924 
L 113.121961 105.729552 
L 113.787741 106.446254 
L 114.45352 107.15803 
L 115.119299 107.86488 
L 115.785079 108.566804 
L 116.450858 109.263803 
L 117.116637 109.955876 
L 117.782417 110.643023 
L 118.448196 111.325244 
L 118.448196 54.274756 
L 118.448196 54.274756 
L 117.782417 54.956977 
L 117.116637 55.644124 
L 116.450858 56.336197 
L 115.785079 57.033196 
L 115.119299 57.73512 
L 114.45352 58.44197 
L 113.787741 59.153746 
L 113.121961 59.870448 
L 112.456182 60.592076 
L 111.790403 61.318629 
L 111.124623 62.050108 
L 110.458844 62.786513 
L 109.793065 63.527844 
L 109.127285 64.2741 
L 108.461506 65.025282 
L 107.795727 65.781391 
L 107.129947 66.542424 
L 106.464168 67.308384 
L 105.798389 68.079269 
L 105.132609 68.855081 
L 104.46683 69.635818 
L 103.801051 70.42148 
L 103.135271 71.212069 
L 102.469492 72.007583 
L 101.803713 72.808023 
L 101.137933 73.613389 
L 100.472154 74.423681 
L 99.806375 75.238898 
L 99.140595 76.059042 
L 98.474816 76.884111 
L 97.809037 77.714105 
L 97.143257 78.549026 
L 96.477478 79.388872 
L 95.811699 80.233645 
L 95.145919 81.083343 
L 94.48014 81.937966 
z
" style="fill:#0000ff;fill-opacity:0.1;stroke:#0000ff;stroke-opacity:0.1;"/>
    <path clip-path="url(#p81f3f63fba)" d="M 126.437548 53.597461 
L 126.437548 112.002539 
L 127.103327 112.674909 
L 127.769107 113.342353 
L 128.434886 114.004871 
L 129.100665 114.662463 
L 129.766445 115.31513 
L 129.766445 50.28487 
L 129.766445 50.28487 
L 129.100665 50.937537 
L 128.434886 51.595129 
L 127.769107 52.257647 
L 127.103327 52.925091 
L 126.437548 53.597461 
z
" style="fill:#0000ff;fill-opacity:0.1;stroke:#0000ff;stroke-opacity:0.1;"/>
    <path clip-path="url(#p81f3f63fba)" d="M 131.098004 49.637129 
L 131.098004 115.962871 
L 131.763783 116.605686 
L 132.429562 117.243575 
L 132.429562 48.356425 
L 132.429562 48.356425 
L 131.763783 48.994314 
L 131.098004 49.637129 
z
" style="fill:#0000ff;fill-opacity:0.1;stroke:#0000ff;stroke-opacity:0.1;"/>
    <path clip-path="url(#p81f3f63fba)" d="M 134.4269 47.723462 
L 134.4269 117.876538 
L 135.09268 118.504576 
L 135.758459 119.127688 
L 136.424238 119.745874 
L 137.090018 120.359134 
L 137.755797 120.967469 
L 138.421576 121.570877 
L 139.087356 122.16936 
L 139.753135 122.762917 
L 139.753135 42.837083 
L 139.753135 42.837083 
L 139.087356 43.43064 
L 138.421576 44.029123 
L 137.755797 44.632531 
L 137.090018 45.240866 
L 136.424238 45.854126 
L 135.758459 46.472312 
L 135.09268 47.095424 
L 134.4269 47.723462 
z
" style="fill:#0000ff;fill-opacity:0.1;stroke:#0000ff;stroke-opacity:0.1;"/>
    <path clip-path="url(#p81f3f63fba)" d="M 141.084694 42.248451 
L 141.084694 123.351549 
L 141.750473 123.935254 
L 141.750473 41.664746 
L 141.750473 41.664746 
L 141.084694 42.248451 
z
" style="fill:#0000ff;fill-opacity:0.1;stroke:#0000ff;stroke-opacity:0.1;"/>
    <path clip-path="url(#p81f3f63fba)" d="M 144.41359 41.085966 
L 144.41359 124.514034 
L 144.41359 41.085966 
L 144.41359 41.085966 
z
" style="fill:#0000ff;fill-opacity:0.1;stroke:#0000ff;stroke-opacity:0.1;"/>
    <path clip-path="url(#p81f3f63fba)" d="M 145.745149 40.512112 
L 145.745149 125.087888 
L 146.410928 125.656816 
L 147.076708 126.220819 
L 147.076708 39.379181 
L 147.076708 39.379181 
L 146.410928 39.943184 
L 145.745149 40.512112 
z
" style="fill:#0000ff;fill-opacity:0.1;stroke:#0000ff;stroke-opacity:0.1;"/>
    <path clip-path="url(#p81f3f63fba)" d="M 149.074046 38.820105 
L 149.074046 126.779895 
L 149.739825 127.334046 
L 150.405604 127.883271 
L 150.405604 37.716729 
L 150.405604 37.716729 
L 149.739825 38.265954 
L 149.074046 38.820105 
z
" style="fill:#0000ff;fill-opacity:0.1;stroke:#0000ff;stroke-opacity:0.1;"/>
    <path clip-path="url(#p81f3f63fba)" d="M 151.737163 37.17243 
L 151.737163 128.42757 
L 152.402942 128.966944 
L 153.068722 129.501392 
L 153.734501 130.030914 
L 154.40028 130.55551 
L 155.06606 131.07518 
L 155.731839 131.589925 
L 155.731839 34.010075 
L 155.731839 34.010075 
L 155.06606 34.52482 
L 154.40028 35.04449 
L 153.734501 35.569086 
L 153.068722 36.098608 
L 152.402942 36.633056 
L 151.737163 37.17243 
z
" style="fill:#0000ff;fill-opacity:0.1;stroke:#0000ff;stroke-opacity:0.1;"/>
    <path clip-path="url(#p81f3f63fba)" d="M 157.063398 33.500257 
L 157.063398 132.099743 
L 157.729177 132.604636 
L 158.394956 133.104604 
L 159.060736 133.599645 
L 159.726515 134.089761 
L 160.392294 134.57495 
L 161.058074 135.055215 
L 161.058074 30.544785 
L 161.058074 30.544785 
L 160.392294 31.02505 
L 159.726515 31.510239 
L 159.060736 32.000355 
L 158.394956 32.495396 
L 157.729177 32.995364 
L 157.063398 33.500257 
z
" style="fill:#0000ff;fill-opacity:0.1;stroke:#0000ff;stroke-opacity:0.1;"/>
    <path clip-path="url(#p81f3f63fba)" d="M 163.055412 30.069447 
L 163.055412 135.530553 
L 163.721191 136.000965 
L 164.38697 136.466452 
L 165.05275 136.927013 
L 165.718529 137.382648 
L 166.384308 137.833357 
L 167.050088 138.279141 
L 167.050088 27.320859 
L 167.050088 27.320859 
L 166.384308 27.766643 
L 165.718529 28.217352 
L 165.05275 28.672987 
L 164.38697 29.133548 
L 163.721191 29.599035 
L 163.055412 30.069447 
z
" style="fill:#0000ff;fill-opacity:0.1;stroke:#0000ff;stroke-opacity:0.1;"/>
    <path clip-path="url(#p81f3f63fba)" d="M 168.381646 26.880001 
L 168.381646 138.719999 
L 169.047426 139.155931 
L 169.047426 26.444069 
L 169.047426 26.444069 
L 168.381646 26.880001 
z
" style="fill:#0000ff;fill-opacity:0.1;stroke:#0000ff;stroke-opacity:0.1;"/>
    <path clip-path="url(#p81f3f63fba)" d="M 171.044764 26.013063 
L 171.044764 139.586937 
L 171.710543 140.013017 
L 172.376322 140.434172 
L 173.042102 140.850401 
L 173.042102 24.749599 
L 173.042102 24.749599 
L 172.376322 25.165828 
L 171.710543 25.586983 
L 171.044764 26.013063 
z
" style="fill:#0000ff;fill-opacity:0.1;stroke:#0000ff;stroke-opacity:0.1;"/>
    <path clip-path="url(#p81f3f63fba)" d="M 175.03944 24.338296 
L 175.03944 141.261704 
L 175.705219 141.668081 
L 176.370998 142.069533 
L 177.036778 142.466059 
L 177.702557 142.857658 
L 178.368336 143.244333 
L 179.034116 143.626081 
L 179.699895 144.002904 
L 180.365674 144.3748 
L 181.031454 144.741771 
L 181.031454 20.858229 
L 181.031454 20.858229 
L 180.365674 21.2252 
L 179.699895 21.597096 
L 179.034116 21.973919 
L 178.368336 22.355667 
L 177.702557 22.742342 
L 177.036778 23.133941 
L 176.370998 23.530467 
L 175.705219 23.931919 
L 175.03944 24.338296 
z
" style="fill:#0000ff;fill-opacity:0.1;stroke:#0000ff;stroke-opacity:0.1;"/>
    <path clip-path="url(#p81f3f63fba)" d="M 182.363012 20.496183 
L 182.363012 145.103817 
L 183.028792 145.460936 
L 183.694571 145.81313 
L 184.36035 146.160397 
L 185.02613 146.50274 
L 185.691909 146.840156 
L 186.357688 147.172646 
L 187.023468 147.500211 
L 187.689247 147.82285 
L 187.689247 17.77715 
L 187.689247 17.77715 
L 187.023468 18.099789 
L 186.357688 18.427354 
L 185.691909 18.759844 
L 185.02613 19.09726 
L 184.36035 19.439603 
L 183.694571 19.78687 
L 183.028792 20.139064 
L 182.363012 20.496183 
z
" style="fill:#0000ff;fill-opacity:0.1;stroke:#0000ff;stroke-opacity:0.1;"/>
    <path clip-path="url(#p81f3f63fba)" d="M 190.352364 17.459437 
L 190.352364 148.140563 
L 190.352364 17.459437 
L 190.352364 17.459437 
z
" style="fill:#0000ff;fill-opacity:0.1;stroke:#0000ff;stroke-opacity:0.1;"/>
    <path clip-path="url(#p81f3f63fba)" d="M 197.010158 17.146649 
L 197.010158 148.453351 
L 197.675937 148.761212 
L 198.341716 149.064148 
L 199.007496 149.362158 
L 199.673275 149.655242 
L 200.339054 149.943401 
L 201.004834 150.226633 
L 201.670613 150.50494 
L 202.336392 150.778321 
L 203.002172 151.046776 
L 203.667951 151.310306 
L 204.33373 151.56891 
L 204.99951 151.822588 
L 205.665289 152.07134 
L 206.331068 152.315166 
L 206.996848 152.554067 
L 207.662627 152.788042 
L 208.328406 153.017091 
L 208.994186 153.241214 
L 209.659965 153.460411 
L 210.325744 153.674683 
L 210.991524 153.884029 
L 211.657303 154.088449 
L 212.323082 154.287943 
L 212.988862 154.482512 
L 213.654641 154.672154 
L 214.32042 154.856871 
L 214.9862 155.036663 
L 215.651979 155.211528 
L 216.317758 155.381468 
L 216.983538 155.546481 
L 217.649317 155.706569 
L 218.315096 155.861732 
L 218.980876 156.011968 
L 219.646655 156.157279 
L 220.312434 156.297664 
L 220.978214 156.433123 
L 221.643993 156.563656 
L 222.309772 156.689264 
L 222.975552 156.809945 
L 223.641331 156.925701 
L 224.30711 157.036531 
L 224.97289 157.142436 
L 225.638669 157.243414 
L 226.304448 157.339467 
L 226.970228 157.430594 
L 227.636007 157.516795 
L 228.301786 157.598071 
L 228.967566 157.674421 
L 229.633345 157.745844 
L 230.299124 157.812343 
L 230.964904 157.873915 
L 231.630683 157.930561 
L 232.296462 157.982282 
L 232.962242 158.029077 
L 233.628021 158.070946 
L 234.2938 158.10789 
L 234.95958 158.139907 
L 235.625359 158.166999 
L 236.291138 158.189165 
L 236.956918 158.206405 
L 237.622697 158.21872 
L 238.288476 158.226109 
L 238.954256 158.228571 
L 239.620035 158.226109 
L 240.285814 158.21872 
L 240.951594 158.206405 
L 241.617373 158.189165 
L 242.283152 158.166999 
L 242.948932 158.139907 
L 243.614711 158.10789 
L 244.28049 158.070946 
L 244.94627 158.029077 
L 245.612049 157.982282 
L 246.277828 157.930561 
L 246.943608 157.873915 
L 247.609387 157.812343 
L 248.275166 157.745844 
L 248.940946 157.674421 
L 249.606725 157.598071 
L 250.272504 157.516795 
L 250.938284 157.430594 
L 251.604063 157.339467 
L 252.269842 157.243414 
L 252.935622 157.142436 
L 253.601401 157.036531 
L 254.26718 156.925701 
L 254.93296 156.809945 
L 255.598739 156.689264 
L 256.264518 156.563656 
L 256.930298 156.433123 
L 257.596077 156.297664 
L 258.261856 156.157279 
L 258.927636 156.011968 
L 259.593415 155.861732 
L 260.259194 155.706569 
L 260.924974 155.546481 
L 261.590753 155.381468 
L 262.256532 155.211528 
L 262.922312 155.036663 
L 263.588091 154.856871 
L 264.25387 154.672154 
L 264.91965 154.482512 
L 265.585429 154.287943 
L 266.251208 154.088449 
L 266.916988 153.884029 
L 267.582767 153.674683 
L 268.248546 153.460411 
L 268.914326 153.241214 
L 269.580105 153.017091 
L 270.245884 152.788042 
L 270.911664 152.554067 
L 271.577443 152.315166 
L 272.243222 152.07134 
L 272.909002 151.822588 
L 273.574781 151.56891 
L 274.24056 151.310306 
L 274.90634 151.046776 
L 275.572119 150.778321 
L 276.237898 150.50494 
L 276.903678 150.226633 
L 277.569457 149.943401 
L 278.235236 149.655242 
L 278.901016 149.362158 
L 279.566795 149.064148 
L 280.232574 148.761212 
L 280.898354 148.453351 
L 281.564133 148.140563 
L 282.229912 147.82285 
L 282.895692 147.500211 
L 283.561471 147.172646 
L 284.22725 146.840156 
L 284.89303 146.50274 
L 285.558809 146.160397 
L 286.224588 145.81313 
L 286.890368 145.460936 
L 287.556147 145.103817 
L 288.221926 144.741771 
L 288.887706 144.3748 
L 289.553485 144.002904 
L 290.219264 143.626081 
L 290.885044 143.244333 
L 291.550823 142.857658 
L 292.216602 142.466059 
L 292.882382 142.069533 
L 293.548161 141.668081 
L 294.21394 141.261704 
L 294.87972 140.850401 
L 295.545499 140.434172 
L 296.211278 140.013017 
L 296.877058 139.586937 
L 297.542837 139.155931 
L 298.208616 138.719999 
L 298.874396 138.279141 
L 299.540175 137.833357 
L 300.205954 137.382648 
L 300.871734 136.927013 
L 301.537513 136.466452 
L 302.203292 136.000965 
L 302.869072 135.530553 
L 303.534851 135.055215 
L 304.20063 134.57495 
L 304.86641 134.089761 
L 305.532189 133.599645 
L 306.197968 133.104604 
L 306.863748 132.604636 
L 307.529527 132.099743 
L 308.195306 131.589925 
L 308.861086 131.07518 
L 309.526865 130.55551 
L 310.192644 130.030914 
L 310.858424 129.501392 
L 311.524203 128.966944 
L 312.189982 128.42757 
L 312.855762 127.883271 
L 313.521541 127.334046 
L 314.18732 126.779895 
L 314.8531 126.220819 
L 315.518879 125.656816 
L 316.184658 125.087888 
L 316.850438 124.514034 
L 317.516217 123.935254 
L 318.181996 123.351549 
L 318.847776 122.762917 
L 319.513555 122.16936 
L 320.179335 121.570877 
L 320.845114 120.967469 
L 321.510893 120.359134 
L 322.176673 119.745874 
L 322.842452 119.127688 
L 323.508231 118.504576 
L 324.174011 117.876538 
L 324.83979 117.243575 
L 325.505569 116.605686 
L 326.171349 115.962871 
L 326.837128 115.31513 
L 327.502907 114.662463 
L 328.168687 114.004871 
L 328.834466 113.342353 
L 329.500245 112.674909 
L 330.166025 112.002539 
L 330.831804 111.325244 
L 331.497583 110.643023 
L 332.163363 109.955876 
L 332.829142 109.263803 
L 333.494921 108.566804 
L 334.160701 107.86488 
L 334.82648 107.15803 
L 335.492259 106.446254 
L 336.158039 105.729552 
L 336.823818 105.007924 
L 337.489597 104.281371 
L 338.155377 103.549892 
L 338.821156 102.813487 
L 339.486935 102.072156 
L 340.152715 101.3259 
L 340.818494 100.574718 
L 341.484273 99.818609 
L 342.150053 99.057576 
L 342.815832 98.291616 
L 343.481611 97.520731 
L 344.147391 96.744919 
L 344.81317 95.964182 
L 345.478949 95.17852 
L 346.144729 94.387931 
L 346.810508 93.592417 
L 347.476287 92.791977 
L 348.142067 91.986611 
L 348.807846 91.176319 
L 349.473625 90.361102 
L 350.139405 89.540958 
L 350.805184 88.715889 
L 351.470963 87.885895 
L 352.136743 87.050974 
L 352.802522 86.211128 
L 353.468301 85.366355 
L 354.134081 84.516657 
L 354.79986 83.662034 
L 354.79986 81.937966 
L 354.79986 81.937966 
L 354.134081 81.083343 
L 353.468301 80.233645 
L 352.802522 79.388872 
L 352.136743 78.549026 
L 351.470963 77.714105 
L 350.805184 76.884111 
L 350.139405 76.059042 
L 349.473625 75.238898 
L 348.807846 74.423681 
L 348.142067 73.613389 
L 347.476287 72.808023 
L 346.810508 72.007583 
L 346.144729 71.212069 
L 345.478949 70.42148 
L 344.81317 69.635818 
L 344.147391 68.855081 
L 343.481611 68.079269 
L 342.815832 67.308384 
L 342.150053 66.542424 
L 341.484273 65.781391 
L 340.818494 65.025282 
L 340.152715 64.2741 
L 339.486935 63.527844 
L 338.821156 62.786513 
L 338.155377 62.050108 
L 337.489597 61.318629 
L 336.823818 60.592076 
L 336.158039 59.870448 
L 335.492259 59.153746 
L 334.82648 58.44197 
L 334.160701 57.73512 
L 333.494921 57.033196 
L 332.829142 56.336197 
L 332.163363 55.644124 
L 331.497583 54.956977 
L 330.831804 54.274756 
L 330.166025 53.597461 
L 329.500245 52.925091 
L 328.834466 52.257647 
L 328.168687 51.595129 
L 327.502907 50.937537 
L 326.837128 50.28487 
L 326.171349 49.637129 
L 325.505569 48.994314 
L 324.83979 48.356425 
L 324.174011 47.723462 
L 323.508231 47.095424 
L 322.842452 46.472312 
L 322.176673 45.854126 
L 321.510893 45.240866 
L 320.845114 44.632531 
L 320.179335 44.029123 
L 319.513555 43.43064 
L 318.847776 42.837083 
L 318.181996 42.248451 
L 317.516217 41.664746 
L 316.850438 41.085966 
L 316.184658 40.512112 
L 315.518879 39.943184 
L 314.8531 39.379181 
L 314.18732 38.820105 
L 313.521541 38.265954 
L 312.855762 37.716729 
L 312.189982 37.17243 
L 311.524203 36.633056 
L 310.858424 36.098608 
L 310.192644 35.569086 
L 309.526865 35.04449 
L 308.861086 34.52482 
L 308.195306 34.010075 
L 307.529527 33.500257 
L 306.863748 32.995364 
L 306.197968 32.495396 
L 305.532189 32.000355 
L 304.86641 31.510239 
L 304.20063 31.02505 
L 303.534851 30.544785 
L 302.869072 30.069447 
L 302.203292 29.599035 
L 301.537513 29.133548 
L 300.871734 28.672987 
L 300.205954 28.217352 
L 299.540175 27.766643 
L 298.874396 27.320859 
L 298.208616 26.880001 
L 297.542837 26.444069 
L 296.877058 26.013063 
L 296.211278 25.586983 
L 295.545499 25.165828 
L 294.87972 24.749599 
L 294.21394 24.338296 
L 293.548161 23.931919 
L 292.882382 23.530467 
L 292.216602 23.133941 
L 291.550823 22.742342 
L 290.885044 22.355667 
L 290.219264 21.973919 
L 289.553485 21.597096 
L 288.887706 21.2252 
L 288.221926 20.858229 
L 287.556147 20.496183 
L 286.890368 20.139064 
L 286.224588 19.78687 
L 285.558809 19.439603 
L 284.89303 19.09726 
L 284.22725 18.759844 
L 283.561471 18.427354 
L 282.895692 18.099789 
L 282.229912 17.77715 
L 281.564133 17.459437 
L 280.898354 17.146649 
L 280.232574 16.838788 
L 279.566795 16.535852 
L 278.901016 16.237842 
L 278.235236 15.944758 
L 277.569457 15.656599 
L 276.903678 15.373367 
L 276.237898 15.09506 
L 275.572119 14.821679 
L 274.90634 14.553224 
L 274.24056 14.289694 
L 273.574781 14.03109 
L 272.909002 13.777412 
L 272.243222 13.52866 
L 271.577443 13.284834 
L 270.911664 13.045933 
L 270.245884 12.811958 
L 269.580105 12.582909 
L 268.914326 12.358786 
L 268.248546 12.139589 
L 267.582767 11.925317 
L 266.916988 11.715971 
L 266.251208 11.511551 
L 265.585429 11.312057 
L 264.91965 11.117488 
L 264.25387 10.927846 
L 263.588091 10.743129 
L 262.922312 10.563337 
L 262.256532 10.388472 
L 261.590753 10.218532 
L 260.924974 10.053519 
L 260.259194 9.893431 
L 259.593415 9.738268 
L 258.927636 9.588032 
L 258.261856 9.442721 
L 257.596077 9.302336 
L 256.930298 9.166877 
L 256.264518 9.036344 
L 255.598739 8.910736 
L 254.93296 8.790055 
L 254.26718 8.674299 
L 253.601401 8.563469 
L 252.935622 8.457564 
L 252.269842 8.356586 
L 251.604063 8.260533 
L 250.938284 8.169406 
L 250.272504 8.083205 
L 249.606725 8.001929 
L 248.940946 7.925579 
L 248.275166 7.854156 
L 247.609387 7.787657 
L 246.943608 7.726085 
L 246.277828 7.669439 
L 245.612049 7.617718 
L 244.94627 7.570923 
L 244.28049 7.529054 
L 243.614711 7.49211 
L 242.948932 7.460093 
L 242.283152 7.433001 
L 241.617373 7.410835 
L 240.951594 7.393595 
L 240.285814 7.38128 
L 239.620035 7.373891 
L 238.954256 7.371429 
L 238.288476 7.373891 
L 237.622697 7.38128 
L 236.956918 7.393595 
L 236.291138 7.410835 
L 235.625359 7.433001 
L 234.95958 7.460093 
L 234.2938 7.49211 
L 233.628021 7.529054 
L 232.962242 7.570923 
L 232.296462 7.617718 
L 231.630683 7.669439 
L 230.964904 7.726085 
L 230.299124 7.787657 
L 229.633345 7.854156 
L 228.967566 7.925579 
L 228.301786 8.001929 
L 227.636007 8.083205 
L 226.970228 8.169406 
L 226.304448 8.260533 
L 225.638669 8.356586 
L 224.97289 8.457564 
L 224.30711 8.563469 
L 223.641331 8.674299 
L 222.975552 8.790055 
L 222.309772 8.910736 
L 221.643993 9.036344 
L 220.978214 9.166877 
L 220.312434 9.302336 
L 219.646655 9.442721 
L 218.980876 9.588032 
L 218.315096 9.738268 
L 217.649317 9.893431 
L 216.983538 10.053519 
L 216.317758 10.218532 
L 215.651979 10.388472 
L 214.9862 10.563337 
L 214.32042 10.743129 
L 213.654641 10.927846 
L 212.988862 11.117488 
L 212.323082 11.312057 
L 211.657303 11.511551 
L 210.991524 11.715971 
L 210.325744 11.925317 
L 209.659965 12.139589 
L 208.994186 12.358786 
L 208.328406 12.582909 
L 207.662627 12.811958 
L 206.996848 13.045933 
L 206.331068 13.284834 
L 205.665289 13.52866 
L 204.99951 13.777412 
L 204.33373 14.03109 
L 203.667951 14.289694 
L 203.002172 14.553224 
L 202.336392 14.821679 
L 201.670613 15.09506 
L 201.004834 15.373367 
L 200.339054 15.656599 
L 199.673275 15.944758 
L 199.007496 16.237842 
L 198.341716 16.535852 
L 197.675937 16.838788 
L 197.010158 17.146649 
z
" style="fill:#0000ff;fill-opacity:0.1;stroke:#0000ff;stroke-opacity:0.1;"/>
   </g>
   <g id="matplotlib.axis_1">
    <g id="xtick_1">
     <g id="line2d_1">
      <defs>
       <path d="M 0 0 
L 0 3.5 
" id="m6b629a9699" style="stroke:#000000;stroke-width:0.8;"/>
      </defs>
      <g>
       <use style="stroke:#000000;stroke-width:0.8;" x="110.791734" xlink:href="#m6b629a9699" y="162"/>
      </g>
     </g>
     <g id="text_1">
      <!-- 1990 -->
      <g transform="translate(98.066734 176.598438)scale(0.1 -0.1)">
       <defs>
        <path d="M 794 531 
L 1825 531 
L 1825 4091 
L 703 3866 
L 703 4441 
L 1819 4666 
L 2450 4666 
L 2450 531 
L 3481 531 
L 3481 0 
L 794 0 
L 794 531 
z
" id="DejaVuSans-31" transform="scale(0.015625)"/>
        <path d="M 703 97 
L 703 672 
Q 941 559 1184 500 
Q 1428 441 1663 441 
Q 2288 441 2617 861 
Q 2947 1281 2994 2138 
Q 2813 1869 2534 1725 
Q 2256 1581 1919 1581 
Q 1219 1581 811 2004 
Q 403 2428 403 3163 
Q 403 3881 828 4315 
Q 1253 4750 1959 4750 
Q 2769 4750 3195 4129 
Q 3622 3509 3622 2328 
Q 3622 1225 3098 567 
Q 2575 -91 1691 -91 
Q 1453 -91 1209 -44 
Q 966 3 703 97 
z
M 1959 2075 
Q 2384 2075 2632 2365 
Q 2881 2656 2881 3163 
Q 2881 3666 2632 3958 
Q 2384 4250 1959 4250 
Q 1534 4250 1286 3958 
Q 1038 3666 1038 3163 
Q 1038 2656 1286 2365 
Q 1534 2075 1959 2075 
z
" id="DejaVuSans-39" transform="scale(0.015625)"/>
        <path d="M 2034 4250 
Q 1547 4250 1301 3770 
Q 1056 3291 1056 2328 
Q 1056 1369 1301 889 
Q 1547 409 2034 409 
Q 2525 409 2770 889 
Q 3016 1369 3016 2328 
Q 3016 3291 2770 3770 
Q 2525 4250 2034 4250 
z
M 2034 4750 
Q 2819 4750 3233 4129 
Q 3647 3509 3647 2328 
Q 3647 1150 3233 529 
Q 2819 -91 2034 -91 
Q 1250 -91 836 529 
Q 422 1150 422 2328 
Q 422 3509 836 4129 
Q 1250 4750 2034 4750 
z
" id="DejaVuSans-30" transform="scale(0.015625)"/>
       </defs>
       <use xlink:href="#DejaVuSans-31"/>
       <use x="63.623047" xlink:href="#DejaVuSans-39"/>
       <use x="127.246094" xlink:href="#DejaVuSans-39"/>
       <use x="190.869141" xlink:href="#DejaVuSans-30"/>
      </g>
     </g>
    </g>
    <g id="xtick_2">
     <g id="line2d_2">
      <g>
       <use style="stroke:#000000;stroke-width:0.8;" x="190.685254" xlink:href="#m6b629a9699" y="162"/>
      </g>
     </g>
     <g id="text_2">
      <!-- 2000 -->
      <g transform="translate(177.960254 176.598438)scale(0.1 -0.1)">
       <defs>
        <path d="M 1228 531 
L 3431 531 
L 3431 0 
L 469 0 
L 469 531 
Q 828 903 1448 1529 
Q 2069 2156 2228 2338 
Q 2531 2678 2651 2914 
Q 2772 3150 2772 3378 
Q 2772 3750 2511 3984 
Q 2250 4219 1831 4219 
Q 1534 4219 1204 4116 
Q 875 4013 500 3803 
L 500 4441 
Q 881 4594 1212 4672 
Q 1544 4750 1819 4750 
Q 2544 4750 2975 4387 
Q 3406 4025 3406 3419 
Q 3406 3131 3298 2873 
Q 3191 2616 2906 2266 
Q 2828 2175 2409 1742 
Q 1991 1309 1228 531 
z
" id="DejaVuSans-32" transform="scale(0.015625)"/>
       </defs>
       <use xlink:href="#DejaVuSans-32"/>
       <use x="63.623047" xlink:href="#DejaVuSans-30"/>
       <use x="127.246094" xlink:href="#DejaVuSans-30"/>
       <use x="190.869141" xlink:href="#DejaVuSans-30"/>
      </g>
     </g>
    </g>
    <g id="xtick_3">
     <g id="line2d_3">
      <g>
       <use style="stroke:#000000;stroke-width:0.8;" x="270.578774" xlink:href="#m6b629a9699" y="162"/>
      </g>
     </g>
     <g id="text_3">
      <!-- 2010 -->
      <g transform="translate(257.853774 176.598438)scale(0.1 -0.1)">
       <use xlink:href="#DejaVuSans-32"/>
       <use x="63.623047" xlink:href="#DejaVuSans-30"/>
       <use x="127.246094" xlink:href="#DejaVuSans-31"/>
       <use x="190.869141" xlink:href="#DejaVuSans-30"/>
      </g>
     </g>
    </g>
    <g id="xtick_4">
     <g id="line2d_4">
      <g>
       <use style="stroke:#000000;stroke-width:0.8;" x="350.472294" xlink:href="#m6b629a9699" y="162"/>
      </g>
     </g>
     <g id="text_4">
      <!-- 2020 -->
      <g transform="translate(337.747294 176.598438)scale(0.1 -0.1)">
       <use xlink:href="#DejaVuSans-32"/>
       <use x="63.623047" xlink:href="#DejaVuSans-30"/>
       <use x="127.246094" xlink:href="#DejaVuSans-32"/>
       <use x="190.869141" xlink:href="#DejaVuSans-30"/>
      </g>
     </g>
    </g>
   </g>
   <g id="matplotlib.axis_2">
    <g id="ytick_1">
     <g id="line2d_5">
      <defs>
       <path d="M 0 0 
L -3.5 0 
" id="m1bc4969bcb" style="stroke:#000000;stroke-width:0.8;"/>
      </defs>
      <g>
       <use style="stroke:#000000;stroke-width:0.8;" x="34.56" xlink:href="#m1bc4969bcb" y="141.815103"/>
      </g>
     </g>
     <g id="text_5">
      <!-- −40 -->
      <g transform="translate(6.455313 145.614321)scale(0.1 -0.1)">
       <defs>
        <path d="M 678 2272 
L 4684 2272 
L 4684 1741 
L 678 1741 
L 678 2272 
z
" id="DejaVuSans-2212" transform="scale(0.015625)"/>
        <path d="M 2419 4116 
L 825 1625 
L 2419 1625 
L 2419 4116 
z
M 2253 4666 
L 3047 4666 
L 3047 1625 
L 3713 1625 
L 3713 1100 
L 3047 1100 
L 3047 0 
L 2419 0 
L 2419 1100 
L 313 1100 
L 313 1709 
L 2253 4666 
z
" id="DejaVuSans-34" transform="scale(0.015625)"/>
       </defs>
       <use xlink:href="#DejaVuSans-2212"/>
       <use x="83.789062" xlink:href="#DejaVuSans-34"/>
       <use x="147.412109" xlink:href="#DejaVuSans-30"/>
      </g>
     </g>
    </g>
    <g id="ytick_2">
     <g id="line2d_6">
      <g>
       <use style="stroke:#000000;stroke-width:0.8;" x="34.56" xlink:href="#m1bc4969bcb" y="112.307551"/>
      </g>
     </g>
     <g id="text_6">
      <!-- −20 -->
      <g transform="translate(6.455313 116.10677)scale(0.1 -0.1)">
       <use xlink:href="#DejaVuSans-2212"/>
       <use x="83.789062" xlink:href="#DejaVuSans-32"/>
       <use x="147.412109" xlink:href="#DejaVuSans-30"/>
      </g>
     </g>
    </g>
    <g id="ytick_3">
     <g id="line2d_7">
      <g>
       <use style="stroke:#000000;stroke-width:0.8;" x="34.56" xlink:href="#m1bc4969bcb" y="82.8"/>
      </g>
     </g>
     <g id="text_7">
      <!-- 0 -->
      <g transform="translate(21.1975 86.599219)scale(0.1 -0.1)">
       <use xlink:href="#DejaVuSans-30"/>
      </g>
     </g>
    </g>
    <g id="ytick_4">
     <g id="line2d_8">
      <g>
       <use style="stroke:#000000;stroke-width:0.8;" x="34.56" xlink:href="#m1bc4969bcb" y="53.292449"/>
      </g>
     </g>
     <g id="text_8">
      <!-- 20 -->
      <g transform="translate(14.835 57.091667)scale(0.1 -0.1)">
       <use xlink:href="#DejaVuSans-32"/>
       <use x="63.623047" xlink:href="#DejaVuSans-30"/>
      </g>
     </g>
    </g>
    <g id="ytick_5">
     <g id="line2d_9">
      <g>
       <use style="stroke:#000000;stroke-width:0.8;" x="34.56" xlink:href="#m1bc4969bcb" y="23.784897"/>
      </g>
     </g>
     <g id="text_9">
      <!-- 40 -->
      <g transform="translate(14.835 27.584116)scale(0.1 -0.1)">
       <use xlink:href="#DejaVuSans-34"/>
       <use x="63.623047" xlink:href="#DejaVuSans-30"/>
      </g>
     </g>
    </g>
   </g>
   <g id="line2d_10">
    <path clip-path="url(#p81f3f63fba)" d="M 94.48014 82.811123 
L 95.145919 82.628233 
L 95.811699 82.775645 
L 96.477478 83.36239 
L 97.143257 83.638691 
L 97.809037 83.706625 
L 98.474816 83.600779 
L 99.140595 83.247494 
L 100.472154 83.145203 
L 101.137933 83.286079 
L 102.469492 83.056403 
L 103.135271 82.977748 
L 103.801051 82.724661 
L 104.46683 82.841909 
L 105.132609 83.076306 
L 105.798389 83.130612 
L 106.464168 83.548489 
L 107.795727 83.416169 
L 108.461506 83.542661 
L 109.127285 83.469825 
L 109.793065 82.967066 
L 110.458844 82.61851 
L 111.124623 82.783535 
L 111.790403 82.491727 
L 112.456182 82.455589 
L 115.119299 83.440399 
L 117.116637 83.566091 
L 118.448196 83.681549 
M 126.437548 83.356543 
L 127.103327 83.383482 
L 127.769107 82.637749 
L 128.434886 82.451167 
L 129.100665 81.965952 
L 129.766445 82.311233 
M 131.098004 81.600577 
L 131.763783 81.520097 
L 132.429562 81.778391 
M 134.4269 81.920426 
L 135.758459 80.958565 
L 137.755797 80.704194 
L 138.421576 80.236772 
L 139.087356 79.569744 
L 139.753135 79.870083 
M 141.084694 79.890426 
L 141.750473 79.865728 
M 145.745149 78.252216 
L 146.410928 77.977971 
L 147.076708 78.492257 
M 149.074046 78.130118 
L 149.739825 78.066331 
L 150.405604 77.584266 
M 151.737163 77.440306 
L 152.402942 76.862386 
L 153.734501 76.401937 
L 154.40028 76.437305 
L 155.06606 76.182041 
L 155.731839 75.639174 
M 157.063398 74.705637 
L 159.060736 73.745661 
L 160.392294 72.865083 
L 161.058074 71.995986 
M 163.055412 71.803577 
L 164.38697 71.787036 
L 165.05275 71.121943 
L 165.718529 71.715983 
L 166.384308 71.297777 
L 167.050088 69.185461 
M 168.381646 69.056376 
L 169.047426 68.994274 
M 171.044764 68.970881 
L 171.710543 68.956429 
L 173.042102 67.503873 
M 175.03944 66.963686 
L 175.705219 66.912221 
L 176.370998 65.970547 
L 177.036778 65.657364 
L 177.702557 65.525155 
L 178.368336 65.146628 
L 179.034116 65.114595 
L 179.699895 64.88904 
L 180.365674 64.495468 
L 181.031454 64.670916 
M 182.363012 64.697535 
L 183.028792 64.241844 
L 183.694571 63.982613 
L 185.02613 63.99585 
L 185.691909 64.00179 
L 186.357688 63.831354 
L 187.023468 63.841058 
L 187.689247 63.468628 
M 197.010158 63.249237 
L 197.675937 63.117074 
L 198.341716 62.586093 
L 199.007496 62.507463 
L 199.673275 62.081597 
L 200.339054 63.701332 
L 201.004834 63.662133 
L 201.670613 63.800076 
L 202.336392 63.756784 
L 203.002172 63.989673 
L 203.667951 63.827093 
L 204.33373 63.813376 
L 204.99951 63.962717 
L 205.665289 63.79329 
L 206.331068 63.127739 
L 206.996848 62.932772 
L 208.328406 63.175514 
L 208.994186 63.606449 
L 210.325744 64.77119 
L 211.657303 65.672667 
L 212.988862 65.591069 
L 213.654641 65.739992 
L 214.32042 66.452942 
L 214.9862 66.735017 
L 215.651979 66.891643 
L 216.317758 66.792469 
L 216.983538 67.015529 
L 217.649317 66.976513 
L 218.315096 67.145533 
L 219.646655 67.950903 
L 220.312434 67.60061 
L 220.978214 67.51418 
L 221.643993 67.662942 
L 222.309772 68.330267 
L 222.975552 68.195418 
L 225.638669 69.363926 
L 226.304448 69.870829 
L 226.970228 70.117946 
L 227.636007 70.628159 
L 228.301786 70.78606 
L 228.967566 71.192448 
L 229.633345 71.382175 
L 230.299124 71.422299 
L 231.630683 71.895124 
L 232.296462 72.289468 
L 232.962242 72.880763 
L 235.625359 74.550435 
L 236.956918 74.687716 
L 237.622697 73.973061 
L 238.954256 73.861112 
L 239.620035 74.256868 
L 240.951594 74.780165 
L 241.617373 75.103643 
L 242.283152 75.952832 
L 242.948932 77.186778 
L 244.94627 78.718299 
L 246.277828 78.659126 
L 248.275166 79.556619 
L 251.604063 79.074653 
L 252.269842 79.373966 
L 254.93296 79.982199 
L 255.598739 79.577441 
L 256.930298 80.182454 
L 257.596077 79.949331 
L 260.259194 80.417699 
L 260.924974 80.62686 
L 262.256532 81.377781 
L 262.922312 81.243068 
L 263.588091 81.481097 
L 264.25387 81.435319 
L 265.585429 81.71536 
L 266.251208 81.607366 
L 266.916988 81.7646 
L 268.248546 81.777869 
L 268.914326 82.136401 
L 270.245884 82.366427 
L 271.577443 83.500588 
L 273.574781 83.170916 
L 274.24056 82.868251 
L 275.572119 83.156313 
L 276.903678 83.690749 
L 277.569457 84.069743 
L 278.235236 84.193083 
L 279.566795 84.908888 
L 280.232574 84.261413 
L 280.898354 83.943595 
L 281.564133 83.791385 
L 282.895692 84.02772 
L 283.561471 84.129752 
L 284.89303 83.418211 
L 285.558809 83.255185 
L 286.890368 84.093663 
L 288.887706 83.600304 
L 289.553485 83.581765 
L 290.219264 83.330144 
L 291.550823 83.411494 
L 292.216602 83.541647 
L 293.548161 83.537053 
L 294.21394 83.664112 
L 295.545499 84.515297 
L 296.211278 85.006147 
L 296.877058 84.939067 
L 297.542837 84.612143 
L 298.208616 84.59224 
L 299.540175 83.838135 
L 300.871734 84.368615 
L 301.537513 84.447747 
L 302.203292 84.397984 
L 302.869072 84.70431 
L 304.20063 83.853833 
L 305.532189 83.799212 
L 306.197968 83.391988 
L 306.863748 83.230553 
L 307.529527 83.37939 
L 309.526865 83.347222 
L 310.858424 84.141512 
L 311.524203 84.444409 
L 312.189982 84.469038 
L 312.855762 84.333494 
L 314.18732 84.365302 
L 314.8531 84.210784 
L 315.518879 83.661931 
L 316.184658 83.593732 
L 317.516217 83.002015 
L 318.181996 83.096168 
L 318.847776 83.418345 
L 319.513555 83.56765 
L 320.845114 83.515161 
L 321.510893 83.471589 
L 322.176673 83.03255 
L 323.508231 82.683955 
L 324.174011 82.197316 
L 324.83979 82.635832 
L 325.505569 82.35784 
L 326.171349 81.772761 
L 327.502907 82.056738 
L 328.168687 81.778013 
L 328.834466 81.7864 
L 330.166025 81.523929 
L 330.831804 81.578841 
L 331.497583 81.449317 
L 332.163363 81.867738 
L 332.829142 82.151938 
L 333.494921 82.051231 
L 336.158039 83.256392 
L 336.823818 83.055343 
L 337.489597 82.68591 
L 338.155377 82.680626 
L 339.486935 81.533004 
L 340.152715 81.467919 
L 340.818494 81.121105 
L 341.484273 81.283469 
L 342.815832 82.096281 
L 343.481611 81.748707 
L 344.81317 82.06506 
L 346.144729 81.757342 
L 347.476287 81.85359 
L 348.142067 81.834105 
L 349.473625 82.66353 
L 350.805184 82.88146 
L 352.136743 83.557721 
L 352.802522 83.507594 
L 354.79986 82.8 
L 354.79986 82.8 
" style="fill:none;stroke:#1f77b4;stroke-linecap:square;stroke-width:1.5;"/>
   </g>
   <g id="line2d_11">
    <path clip-path="url(#p81f3f63fba)" d="M 34.56 82.8 
L 414.72 82.8 
" style="fill:none;stroke:#000000;stroke-dasharray:1.5,2.475;stroke-dashoffset:0;stroke-width:1.5;"/>
   </g>
   <g id="patch_3">
    <path d="M 34.56 162 
L 34.56 3.6 
" style="fill:none;stroke:#000000;stroke-linecap:square;stroke-linejoin:miter;stroke-width:0.8;"/>
   </g>
   <g id="patch_4">
    <path d="M 414.72 162 
L 414.72 3.6 
" style="fill:none;stroke:#000000;stroke-linecap:square;stroke-linejoin:miter;stroke-width:0.8;"/>
   </g>
   <g id="patch_5">
    <path d="M 34.56 162 
L 414.72 162 
" style="fill:none;stroke:#000000;stroke-linecap:square;stroke-linejoin:miter;stroke-width:0.8;"/>
   </g>
   <g id="patch_6">
    <path d="M 34.56 3.6 
L 414.72 3.6 
" style="fill:none;stroke:#000000;stroke-linecap:square;stroke-linejoin:miter;stroke-width:0.8;"/>
   </g>
  </g>
 </g>
 <defs>
  <clipPath id="p81f3f63fba">
   <rect height="158.4" width="380.16" x="34.56" y="3.6"/>
  </clipPath>
 </defs>
</svg>
