<?xml version="1.0" encoding="utf-8" standalone="no"?>
<!DOCTYPE svg PUBLIC "-//W3C//DTD SVG 1.1//EN"
  "http://www.w3.org/Graphics/SVG/1.1/DTD/svg11.dtd">
<svg height="180pt" version="1.1" viewBox="0 0 432 180" width="432pt" xmlns="http://www.w3.org/2000/svg" xmlns:xlink="http://www.w3.org/1999/xlink">
 <metadata>
  <rdf:RDF xmlns:cc="http://creativecommons.org/ns#" xmlns:dc="http://purl.org/dc/elements/1.1/" xmlns:rdf="http://www.w3.org/1999/02/22-rdf-syntax-ns#">
   <cc:Work>
    <dc:type rdf:resource="http://purl.org/dc/dcmitype/StillImage"/>
    <dc:date>2021-08-12T10:41:46.949362</dc:date>
    <dc:format>image/svg+xml</dc:format>
    <dc:creator>
     <cc:Agent>
      <dc:title>Matplotlib v3.4.2, https://matplotlib.org/</dc:title>
     </cc:Agent>
    </dc:creator>
   </cc:Work>
  </rdf:RDF>
 </metadata>
 <defs>
  <style type="text/css">*{stroke-linecap:butt;stroke-linejoin:round;}</style>
 </defs>
 <g id="figure_1">
  <g id="patch_1">
   <path d="M 0 180 
L 432 180 
L 432 0 
L 0 0 
z
" style="fill:#ffffff;"/>
  </g>
  <g id="axes_1">
   <g id="patch_2">
    <path d="M 34.56 162 
L 414.72 162 
L 414.72 3.6 
L 34.56 3.6 
z
" style="fill:#ffffff;"/>
   </g>
   <g id="PolyCollection_1">
    <path clip-path="url(#p7813b41ac2)" d="M 158.525217 79.689551 
L 158.525217 85.910449 
L 159.902609 88.923705 
L 161.28 91.872848 
L 162.657391 94.757879 
L 164.034783 97.578799 
L 165.412174 100.335607 
L 166.789565 103.028303 
L 168.166957 105.656887 
L 169.544348 108.221359 
L 170.921739 110.72172 
L 172.29913 113.157969 
L 173.676522 115.530106 
L 175.053913 117.838131 
L 176.431304 120.082044 
L 177.808696 122.261846 
L 179.186087 124.377536 
L 180.563478 126.429114 
L 181.94087 128.41658 
L 183.318261 130.339934 
L 184.695652 132.199176 
L 186.073043 133.994307 
L 187.450435 135.725326 
L 188.827826 137.392233 
L 190.205217 138.995028 
L 191.582609 140.533712 
L 192.96 142.008283 
L 194.337391 143.418743 
L 195.714783 144.765091 
L 197.092174 146.047327 
L 198.469565 147.265452 
L 199.846957 148.419464 
L 201.224348 149.509365 
L 202.601739 150.535154 
L 203.97913 151.496831 
L 205.356522 152.394397 
L 206.733913 153.22785 
L 208.111304 153.997192 
L 209.488696 154.702422 
L 210.866087 155.34354 
L 212.243478 155.920546 
L 213.62087 156.433441 
L 214.998261 156.882223 
L 216.375652 157.266894 
L 217.753043 157.587453 
L 219.130435 157.843901 
L 220.507826 158.036236 
L 221.885217 158.16446 
L 223.262609 158.228571 
L 224.64 158.228571 
L 226.017391 158.16446 
L 227.394783 158.036236 
L 228.772174 157.843901 
L 230.149565 157.587453 
L 231.526957 157.266894 
L 232.904348 156.882223 
L 234.281739 156.433441 
L 235.65913 155.920546 
L 237.036522 155.34354 
L 238.413913 154.702422 
L 239.791304 153.997192 
L 241.168696 153.22785 
L 242.546087 152.394397 
L 243.923478 151.496831 
L 245.30087 150.535154 
L 246.678261 149.509365 
L 248.055652 148.419464 
L 249.433043 147.265452 
L 250.810435 146.047327 
L 252.187826 144.765091 
L 253.565217 143.418743 
L 254.942609 142.008283 
L 256.32 140.533712 
L 257.697391 138.995028 
L 259.074783 137.392233 
L 260.452174 135.725326 
L 261.829565 133.994307 
L 263.206957 132.199176 
L 264.584348 130.339934 
L 265.961739 128.41658 
L 267.33913 126.429114 
L 268.716522 124.377536 
L 270.093913 122.261846 
L 271.471304 120.082044 
L 272.848696 117.838131 
L 274.226087 115.530106 
L 275.603478 113.157969 
L 275.603478 52.442031 
L 275.603478 52.442031 
L 274.226087 50.069894 
L 272.848696 47.761869 
L 271.471304 45.517956 
L 270.093913 43.338154 
L 268.716522 41.222464 
L 267.33913 39.170886 
L 265.961739 37.18342 
L 264.584348 35.260066 
L 263.206957 33.400824 
L 261.829565 31.605693 
L 260.452174 29.874674 
L 259.074783 28.207767 
L 257.697391 26.604972 
L 256.32 25.066288 
L 254.942609 23.591717 
L 253.565217 22.181257 
L 252.187826 20.834909 
L 250.810435 19.552673 
L 249.433043 18.334548 
L 248.055652 17.180536 
L 246.678261 16.090635 
L 245.30087 15.064846 
L 243.923478 14.103169 
L 242.546087 13.205603 
L 241.168696 12.37215 
L 239.791304 11.602808 
L 238.413913 10.897578 
L 237.036522 10.25646 
L 235.65913 9.679454 
L 234.281739 9.166559 
L 232.904348 8.717777 
L 231.526957 8.333106 
L 230.149565 8.012547 
L 228.772174 7.756099 
L 227.394783 7.563764 
L 226.017391 7.43554 
L 224.64 7.371429 
L 223.262609 7.371429 
L 221.885217 7.43554 
L 220.507826 7.563764 
L 219.130435 7.756099 
L 217.753043 8.012547 
L 216.375652 8.333106 
L 214.998261 8.717777 
L 213.62087 9.166559 
L 212.243478 9.679454 
L 210.866087 10.25646 
L 209.488696 10.897578 
L 208.111304 11.602808 
L 206.733913 12.37215 
L 205.356522 13.205603 
L 203.97913 14.103169 
L 202.601739 15.064846 
L 201.224348 16.090635 
L 199.846957 17.180536 
L 198.469565 18.334548 
L 197.092174 19.552673 
L 195.714783 20.834909 
L 194.337391 22.181257 
L 192.96 23.591717 
L 191.582609 25.066288 
L 190.205217 26.604972 
L 188.827826 28.207767 
L 187.450435 29.874674 
L 186.073043 31.605693 
L 184.695652 33.400824 
L 183.318261 35.260066 
L 181.94087 37.18342 
L 180.563478 39.170886 
L 179.186087 41.222464 
L 177.808696 43.338154 
L 176.431304 45.517956 
L 175.053913 47.761869 
L 173.676522 50.069894 
L 172.29913 52.442031 
L 170.921739 54.87828 
L 169.544348 57.378641 
L 168.166957 59.943113 
L 166.789565 62.571697 
L 165.412174 65.264393 
L 164.034783 68.021201 
L 162.657391 70.842121 
L 161.28 73.727152 
L 159.902609 76.676295 
L 158.525217 79.689551 
z
" style="fill:#0000ff;fill-opacity:0.1;stroke:#0000ff;stroke-opacity:0.1;"/>
    <path clip-path="url(#p7813b41ac2)" d="M 278.358261 54.87828 
L 278.358261 110.72172 
L 279.735652 108.221359 
L 281.113043 105.656887 
L 282.490435 103.028303 
L 283.867826 100.335607 
L 285.245217 97.578799 
L 286.622609 94.757879 
L 288 91.872848 
L 289.377391 88.923705 
L 290.754783 85.910449 
L 290.754783 79.689551 
L 290.754783 79.689551 
L 289.377391 76.676295 
L 288 73.727152 
L 286.622609 70.842121 
L 285.245217 68.021201 
L 283.867826 65.264393 
L 282.490435 62.571697 
L 281.113043 59.943113 
L 279.735652 57.378641 
L 278.358261 54.87828 
z
" style="fill:#0000ff;fill-opacity:0.1;stroke:#0000ff;stroke-opacity:0.1;"/>
   </g>
   <g id="matplotlib.axis_1">
    <g id="xtick_1">
     <g id="line2d_1">
      <defs>
       <path d="M 0 0 
L 0 3.5 
" id="me37b2ca376" style="stroke:#000000;stroke-width:0.8;"/>
      </defs>
      <g>
       <use style="stroke:#000000;stroke-width:0.8;" x="60.041739" xlink:href="#me37b2ca376" y="162"/>
      </g>
     </g>
     <g id="text_1">
      <!-- 2005 -->
      <g transform="translate(47.316739 176.598438)scale(0.1 -0.1)">
       <defs>
        <path d="M 1228 531 
L 3431 531 
L 3431 0 
L 469 0 
L 469 531 
Q 828 903 1448 1529 
Q 2069 2156 2228 2338 
Q 2531 2678 2651 2914 
Q 2772 3150 2772 3378 
Q 2772 3750 2511 3984 
Q 2250 4219 1831 4219 
Q 1534 4219 1204 4116 
Q 875 4013 500 3803 
L 500 4441 
Q 881 4594 1212 4672 
Q 1544 4750 1819 4750 
Q 2544 4750 2975 4387 
Q 3406 4025 3406 3419 
Q 3406 3131 3298 2873 
Q 3191 2616 2906 2266 
Q 2828 2175 2409 1742 
Q 1991 1309 1228 531 
z
" id="DejaVuSans-32" transform="scale(0.015625)"/>
        <path d="M 2034 4250 
Q 1547 4250 1301 3770 
Q 1056 3291 1056 2328 
Q 1056 1369 1301 889 
Q 1547 409 2034 409 
Q 2525 409 2770 889 
Q 3016 1369 3016 2328 
Q 3016 3291 2770 3770 
Q 2525 4250 2034 4250 
z
M 2034 4750 
Q 2819 4750 3233 4129 
Q 3647 3509 3647 2328 
Q 3647 1150 3233 529 
Q 2819 -91 2034 -91 
Q 1250 -91 836 529 
Q 422 1150 422 2328 
Q 422 3509 836 4129 
Q 1250 4750 2034 4750 
z
" id="DejaVuSans-30" transform="scale(0.015625)"/>
        <path d="M 691 4666 
L 3169 4666 
L 3169 4134 
L 1269 4134 
L 1269 2991 
Q 1406 3038 1543 3061 
Q 1681 3084 1819 3084 
Q 2600 3084 3056 2656 
Q 3513 2228 3513 1497 
Q 3513 744 3044 326 
Q 2575 -91 1722 -91 
Q 1428 -91 1123 -41 
Q 819 9 494 109 
L 494 744 
Q 775 591 1075 516 
Q 1375 441 1709 441 
Q 2250 441 2565 725 
Q 2881 1009 2881 1497 
Q 2881 1984 2565 2268 
Q 2250 2553 1709 2553 
Q 1456 2553 1204 2497 
Q 953 2441 691 2322 
L 691 4666 
z
" id="DejaVuSans-35" transform="scale(0.015625)"/>
       </defs>
       <use xlink:href="#DejaVuSans-32"/>
       <use x="63.623047" xlink:href="#DejaVuSans-30"/>
       <use x="127.246094" xlink:href="#DejaVuSans-30"/>
       <use x="190.869141" xlink:href="#DejaVuSans-35"/>
      </g>
     </g>
    </g>
    <g id="xtick_2">
     <g id="line2d_2">
      <g>
       <use style="stroke:#000000;stroke-width:0.8;" x="142.685217" xlink:href="#me37b2ca376" y="162"/>
      </g>
     </g>
     <g id="text_2">
      <!-- 2010 -->
      <g transform="translate(129.960217 176.598438)scale(0.1 -0.1)">
       <defs>
        <path d="M 794 531 
L 1825 531 
L 1825 4091 
L 703 3866 
L 703 4441 
L 1819 4666 
L 2450 4666 
L 2450 531 
L 3481 531 
L 3481 0 
L 794 0 
L 794 531 
z
" id="DejaVuSans-31" transform="scale(0.015625)"/>
       </defs>
       <use xlink:href="#DejaVuSans-32"/>
       <use x="63.623047" xlink:href="#DejaVuSans-30"/>
       <use x="127.246094" xlink:href="#DejaVuSans-31"/>
       <use x="190.869141" xlink:href="#DejaVuSans-30"/>
      </g>
     </g>
    </g>
    <g id="xtick_3">
     <g id="line2d_3">
      <g>
       <use style="stroke:#000000;stroke-width:0.8;" x="225.328696" xlink:href="#me37b2ca376" y="162"/>
      </g>
     </g>
     <g id="text_3">
      <!-- 2015 -->
      <g transform="translate(212.603696 176.598438)scale(0.1 -0.1)">
       <use xlink:href="#DejaVuSans-32"/>
       <use x="63.623047" xlink:href="#DejaVuSans-30"/>
       <use x="127.246094" xlink:href="#DejaVuSans-31"/>
       <use x="190.869141" xlink:href="#DejaVuSans-35"/>
      </g>
     </g>
    </g>
    <g id="xtick_4">
     <g id="line2d_4">
      <g>
       <use style="stroke:#000000;stroke-width:0.8;" x="307.972174" xlink:href="#me37b2ca376" y="162"/>
      </g>
     </g>
     <g id="text_4">
      <!-- 2020 -->
      <g transform="translate(295.247174 176.598438)scale(0.1 -0.1)">
       <use xlink:href="#DejaVuSans-32"/>
       <use x="63.623047" xlink:href="#DejaVuSans-30"/>
       <use x="127.246094" xlink:href="#DejaVuSans-32"/>
       <use x="190.869141" xlink:href="#DejaVuSans-30"/>
      </g>
     </g>
    </g>
    <g id="xtick_5">
     <g id="line2d_5">
      <g>
       <use style="stroke:#000000;stroke-width:0.8;" x="390.615652" xlink:href="#me37b2ca376" y="162"/>
      </g>
     </g>
     <g id="text_5">
      <!-- 2025 -->
      <g transform="translate(377.890652 176.598438)scale(0.1 -0.1)">
       <use xlink:href="#DejaVuSans-32"/>
       <use x="63.623047" xlink:href="#DejaVuSans-30"/>
       <use x="127.246094" xlink:href="#DejaVuSans-32"/>
       <use x="190.869141" xlink:href="#DejaVuSans-35"/>
      </g>
     </g>
    </g>
   </g>
   <g id="matplotlib.axis_2">
    <g id="ytick_1">
     <g id="line2d_6">
      <defs>
       <path d="M 0 0 
L -3.5 0 
" id="m16f322c00b" style="stroke:#000000;stroke-width:0.8;"/>
      </defs>
      <g>
       <use style="stroke:#000000;stroke-width:0.8;" x="34.56" xlink:href="#m16f322c00b" y="125.257047"/>
      </g>
     </g>
     <g id="text_6">
      <!-- −10 -->
      <g transform="translate(6.455313 129.056266)scale(0.1 -0.1)">
       <defs>
        <path d="M 678 2272 
L 4684 2272 
L 4684 1741 
L 678 1741 
L 678 2272 
z
" id="DejaVuSans-2212" transform="scale(0.015625)"/>
       </defs>
       <use xlink:href="#DejaVuSans-2212"/>
       <use x="83.789062" xlink:href="#DejaVuSans-31"/>
       <use x="147.412109" xlink:href="#DejaVuSans-30"/>
      </g>
     </g>
    </g>
    <g id="ytick_2">
     <g id="line2d_7">
      <g>
       <use style="stroke:#000000;stroke-width:0.8;" x="34.56" xlink:href="#m16f322c00b" y="82.8"/>
      </g>
     </g>
     <g id="text_7">
      <!-- 0 -->
      <g transform="translate(21.1975 86.599219)scale(0.1 -0.1)">
       <use xlink:href="#DejaVuSans-30"/>
      </g>
     </g>
    </g>
    <g id="ytick_3">
     <g id="line2d_8">
      <g>
       <use style="stroke:#000000;stroke-width:0.8;" x="34.56" xlink:href="#m16f322c00b" y="40.342953"/>
      </g>
     </g>
     <g id="text_8">
      <!-- 10 -->
      <g transform="translate(14.835 44.142172)scale(0.1 -0.1)">
       <use xlink:href="#DejaVuSans-31"/>
       <use x="63.623047" xlink:href="#DejaVuSans-30"/>
      </g>
     </g>
    </g>
   </g>
   <g id="line2d_9">
    <path clip-path="url(#p7813b41ac2)" d="M 158.525217 83.276939 
L 159.902609 83.263833 
L 161.28 83.040563 
L 162.657391 82.583144 
L 164.034783 81.880196 
L 165.412174 81.640426 
L 168.166957 82.576357 
L 169.544348 82.941492 
L 170.921739 82.70831 
L 172.29913 82.310184 
L 173.676522 82.417709 
L 175.053913 83.405163 
L 176.431304 84.112227 
L 177.808696 84.481674 
L 179.186087 84.133095 
L 180.563478 84.730998 
L 181.94087 85.159387 
L 187.450435 84.760735 
L 188.827826 84.966953 
L 190.205217 84.4229 
L 191.582609 84.579716 
L 192.96 85.222094 
L 194.337391 85.404584 
L 195.714783 86.638181 
L 197.092174 86.880357 
L 198.469565 87.449868 
L 199.846957 87.851525 
L 201.224348 88.477692 
L 202.601739 88.510463 
L 203.97913 89.288781 
L 205.356522 89.590404 
L 206.733913 91.02579 
L 208.111304 90.228305 
L 209.488696 89.953607 
L 210.866087 89.077319 
L 212.243478 88.828883 
L 213.62087 89.434378 
L 214.998261 89.110769 
L 216.375652 89.262742 
L 217.753043 89.292111 
L 219.130435 88.962682 
L 220.507826 89.154331 
L 221.885217 88.347835 
L 223.262609 87.873412 
L 224.64 88.275223 
L 227.394783 88.441043 
L 228.772174 88.138015 
L 232.904348 86.701391 
L 234.281739 86.711493 
L 235.65913 86.939824 
L 239.791304 88.142895 
L 242.546087 87.101897 
L 243.923478 87.268819 
L 245.30087 87.094682 
L 248.055652 86.242001 
L 250.810435 84.615817 
L 252.187826 84.337409 
L 253.565217 83.734463 
L 254.942609 84.572442 
L 256.32 83.498443 
L 257.697391 82.012003 
L 259.074783 81.286675 
L 260.452174 81.583081 
L 261.829565 81.506766 
L 263.206957 81.820724 
L 264.584348 81.420431 
L 265.961739 81.697008 
L 267.33913 81.663835 
L 268.716522 81.354165 
L 270.093913 81.542933 
L 271.471304 81.427065 
L 272.848696 81.863127 
L 274.226087 82.436285 
L 275.603478 82.527759 
M 278.358261 82.902077 
L 279.735652 82.755673 
L 281.113043 83.582922 
L 285.245217 83.887578 
L 288 82.716856 
L 289.377391 82.580567 
L 290.754783 82.8 
L 290.754783 82.8 
" style="fill:none;stroke:#1f77b4;stroke-linecap:square;stroke-width:1.5;"/>
   </g>
   <g id="line2d_10">
    <path clip-path="url(#p7813b41ac2)" d="M 34.56 82.8 
L 414.72 82.8 
" style="fill:none;stroke:#000000;stroke-dasharray:1.5,2.475;stroke-dashoffset:0;stroke-width:1.5;"/>
   </g>
   <g id="patch_3">
    <path d="M 34.56 162 
L 34.56 3.6 
" style="fill:none;stroke:#000000;stroke-linecap:square;stroke-linejoin:miter;stroke-width:0.8;"/>
   </g>
   <g id="patch_4">
    <path d="M 414.72 162 
L 414.72 3.6 
" style="fill:none;stroke:#000000;stroke-linecap:square;stroke-linejoin:miter;stroke-width:0.8;"/>
   </g>
   <g id="patch_5">
    <path d="M 34.56 162 
L 414.72 162 
" style="fill:none;stroke:#000000;stroke-linecap:square;stroke-linejoin:miter;stroke-width:0.8;"/>
   </g>
   <g id="patch_6">
    <path d="M 34.56 3.6 
L 414.72 3.6 
" style="fill:none;stroke:#000000;stroke-linecap:square;stroke-linejoin:miter;stroke-width:0.8;"/>
   </g>
  </g>
 </g>
 <defs>
  <clipPath id="p7813b41ac2">
   <rect height="158.4" width="380.16" x="34.56" y="3.6"/>
  </clipPath>
 </defs>
</svg>
