<?xml version="1.0" encoding="utf-8" standalone="no"?>
<!DOCTYPE svg PUBLIC "-//W3C//DTD SVG 1.1//EN"
  "http://www.w3.org/Graphics/SVG/1.1/DTD/svg11.dtd">
<svg height="180pt" version="1.1" viewBox="0 0 432 180" width="432pt" xmlns="http://www.w3.org/2000/svg" xmlns:xlink="http://www.w3.org/1999/xlink">
 <metadata>
  <rdf:RDF xmlns:cc="http://creativecommons.org/ns#" xmlns:dc="http://purl.org/dc/elements/1.1/" xmlns:rdf="http://www.w3.org/1999/02/22-rdf-syntax-ns#">
   <cc:Work>
    <dc:type rdf:resource="http://purl.org/dc/dcmitype/StillImage"/>
    <dc:date>2021-08-10T10:27:39.744661</dc:date>
    <dc:format>image/svg+xml</dc:format>
    <dc:creator>
     <cc:Agent>
      <dc:title>Matplotlib v3.4.2, https://matplotlib.org/</dc:title>
     </cc:Agent>
    </dc:creator>
   </cc:Work>
  </rdf:RDF>
 </metadata>
 <defs>
  <style type="text/css">*{stroke-linecap:butt;stroke-linejoin:round;}</style>
 </defs>
 <g id="figure_1">
  <g id="patch_1">
   <path d="M 0 180 
L 432 180 
L 432 0 
L 0 0 
z
" style="fill:#ffffff;"/>
  </g>
  <g id="axes_1">
   <g id="patch_2">
    <path d="M 34.56 162 
L 414.72 162 
L 414.72 3.6 
L 34.56 3.6 
z
" style="fill:#ffffff;"/>
   </g>
   <g id="PolyCollection_1">
    <defs>
     <path d="M 76.540859 -97.673649 
L 76.540859 -96.726351 
L 77.007313 -96.254937 
L 77.473767 -95.785009 
L 77.940221 -95.316569 
L 78.406675 -94.849615 
L 78.873129 -94.384149 
L 79.339583 -93.92017 
L 79.806037 -93.457678 
L 80.272491 -92.996673 
L 80.738945 -92.537156 
L 81.205399 -92.079125 
L 81.671853 -91.622582 
L 82.138307 -91.167525 
L 82.604761 -90.713956 
L 83.071215 -90.261874 
L 83.537669 -89.811279 
L 84.004123 -89.362171 
L 84.470577 -88.91455 
L 84.937031 -88.468416 
L 85.403485 -88.02377 
L 85.869939 -87.58061 
L 86.336393 -87.138938 
L 86.802847 -86.698753 
L 87.269301 -86.260055 
L 87.735755 -85.822844 
L 88.202209 -85.38712 
L 88.668663 -84.952883 
L 89.135117 -84.520133 
L 89.601571 -84.088871 
L 90.068025 -83.659095 
L 90.534479 -83.230807 
L 91.000933 -82.804006 
L 91.467387 -82.378691 
L 91.93384 -81.954864 
L 92.400294 -81.532525 
L 92.866748 -81.111672 
L 93.333202 -80.692306 
L 93.799656 -80.274428 
L 94.26611 -79.858036 
L 94.732564 -79.443132 
L 95.199018 -79.029715 
L 95.665472 -78.617784 
L 96.131926 -78.207341 
L 96.59838 -77.798386 
L 97.064834 -77.390917 
L 97.531288 -76.984935 
L 97.997742 -76.580441 
L 98.464196 -76.177433 
L 98.93065 -75.775913 
L 99.397104 -75.37588 
L 99.863558 -74.977333 
L 100.330012 -74.580274 
L 100.796466 -74.184703 
L 101.26292 -73.790618 
L 101.729374 -73.39802 
L 102.195828 -73.00691 
L 102.662282 -72.617286 
L 103.128736 -72.22915 
L 103.59519 -71.842501 
L 104.061644 -71.457339 
L 104.528098 -71.073664 
L 104.994552 -70.691476 
L 105.461006 -70.310775 
L 105.92746 -69.931561 
L 106.393914 -69.553835 
L 106.860368 -69.177595 
L 107.326822 -68.802843 
L 107.793276 -68.429578 
L 108.25973 -68.0578 
L 108.726184 -67.687509 
L 109.192638 -67.318705 
L 109.659092 -66.951388 
L 110.125546 -66.585559 
L 110.592 -66.221216 
L 111.058454 -65.858361 
L 111.524908 -65.496992 
L 111.991362 -65.137111 
L 112.457816 -64.778717 
L 112.92427 -64.42181 
L 113.390724 -64.06639 
L 113.857178 -63.712458 
L 114.323632 -63.360012 
L 114.790086 -63.009053 
L 115.25654 -62.659582 
L 115.722994 -62.311598 
L 116.189448 -61.965101 
L 116.655902 -61.62009 
L 117.122356 -61.276568 
L 117.58881 -60.934532 
L 118.055264 -60.593983 
L 118.521718 -60.254921 
L 118.988172 -59.917347 
L 119.454626 -59.581259 
L 119.92108 -59.246659 
L 120.387534 -58.913546 
L 120.853988 -58.58192 
L 121.320442 -58.251781 
L 121.786896 -57.923129 
L 122.25335 -57.595965 
L 122.719804 -57.270287 
L 123.186258 -56.946096 
L 123.652712 -56.623393 
L 124.119166 -56.302177 
L 124.58562 -55.982448 
L 125.052074 -55.664206 
L 125.518528 -55.347451 
L 125.984982 -55.032183 
L 126.451436 -54.718402 
L 126.91789 -54.406109 
L 127.384344 -54.095302 
L 127.850798 -53.785983 
L 128.317252 -53.478151 
L 128.783706 -53.171805 
L 129.25016 -52.866947 
L 129.716613 -52.563576 
L 130.183067 -52.261693 
L 130.649521 -51.961296 
L 131.115975 -51.662386 
L 131.582429 -51.364964 
L 132.048883 -51.069029 
L 132.515337 -50.77458 
L 132.981791 -50.481619 
L 133.448245 -50.190145 
L 133.914699 -49.900158 
L 134.381153 -49.611658 
L 134.847607 -49.324646 
L 135.314061 -49.03912 
L 135.780515 -48.755082 
L 136.246969 -48.47253 
L 136.713423 -48.191466 
L 137.179877 -47.911889 
L 137.646331 -47.633799 
L 138.112785 -47.357196 
L 138.579239 -47.08208 
L 139.045693 -46.808452 
L 139.512147 -46.53631 
L 139.978601 -46.265656 
L 140.445055 -45.996488 
L 140.911509 -45.728808 
L 141.377963 -45.462615 
L 141.844417 -45.197909 
L 142.310871 -44.93469 
L 142.777325 -44.672958 
L 143.243779 -44.412714 
L 143.710233 -44.153956 
L 144.176687 -43.896686 
L 144.643141 -43.640902 
L 145.109595 -43.386606 
L 145.576049 -43.133797 
L 146.042503 -42.882475 
L 146.508957 -42.63264 
L 146.975411 -42.384293 
L 147.441865 -42.137432 
L 147.908319 -41.892058 
L 148.374773 -41.648172 
L 148.841227 -41.405773 
L 149.307681 -41.16486 
L 149.774135 -40.925435 
L 150.240589 -40.687497 
L 150.707043 -40.451047 
L 151.173497 -40.216083 
L 151.639951 -39.982606 
L 152.106405 -39.750617 
L 152.572859 -39.520114 
L 153.039313 -39.291099 
L 153.505767 -39.063571 
L 153.972221 -38.83753 
L 154.438675 -38.612976 
L 154.905129 -38.389909 
L 155.371583 -38.168329 
L 155.838037 -37.948236 
L 156.304491 -37.729631 
L 156.770945 -37.512513 
L 157.237399 -37.296881 
L 157.703853 -37.082737 
L 158.170307 -36.87008 
L 158.636761 -36.65891 
L 159.103215 -36.449227 
L 159.569669 -36.241032 
L 160.036123 -36.034323 
L 160.502577 -35.829101 
L 160.969031 -35.625367 
L 161.435485 -35.42312 
L 161.901939 -35.22236 
L 162.368393 -35.023087 
L 162.834847 -34.825301 
L 163.301301 -34.629002 
L 163.767755 -34.43419 
L 164.234209 -34.240865 
L 164.700663 -34.049028 
L 165.167117 -33.858678 
L 165.633571 -33.669814 
L 166.100025 -33.482438 
L 166.566479 -33.296549 
L 167.032933 -33.112147 
L 167.499387 -32.929232 
L 167.96584 -32.747805 
L 168.432294 -32.567864 
L 168.898748 -32.389411 
L 169.365202 -32.212444 
L 169.831656 -32.036965 
L 170.29811 -31.862973 
L 170.764564 -31.690468 
L 171.231018 -31.51945 
L 171.697472 -31.349919 
L 172.163926 -31.181875 
L 172.63038 -31.015319 
L 173.096834 -30.850249 
L 173.563288 -30.686667 
L 174.029742 -30.524572 
L 174.496196 -30.363964 
L 174.96265 -30.204843 
L 175.429104 -30.047209 
L 175.895558 -29.891062 
L 176.362012 -29.736402 
L 176.828466 -29.58323 
L 177.29492 -29.431544 
L 177.761374 -29.281346 
L 178.227828 -29.132635 
L 178.694282 -28.98541 
L 179.160736 -28.839673 
L 179.62719 -28.695424 
L 180.093644 -28.552661 
L 180.560098 -28.411385 
L 181.026552 -28.271597 
L 181.493006 -28.133295 
L 181.95946 -27.996481 
L 182.425914 -27.861154 
L 182.892368 -27.727313 
L 183.358822 -27.59496 
L 183.825276 -27.464095 
L 184.29173 -27.334716 
L 184.758184 -27.206824 
L 185.224638 -27.08042 
L 185.691092 -26.955502 
L 186.157546 -26.832072 
L 186.624 -26.710129 
L 187.090454 -26.589673 
L 187.556908 -26.470704 
L 188.023362 -26.353222 
L 188.489816 -26.237227 
L 188.95627 -26.122719 
L 189.422724 -26.009699 
L 189.889178 -25.898165 
L 190.355632 -25.788119 
L 190.822086 -25.67956 
L 191.28854 -25.572488 
L 191.754994 -25.466903 
L 192.221448 -25.362805 
L 192.687902 -25.260194 
L 193.154356 -25.15907 
L 193.62081 -25.059434 
L 194.087264 -24.961285 
L 194.553718 -24.864622 
L 195.020172 -24.769447 
L 195.486626 -24.675759 
L 195.95308 -24.583558 
L 196.419534 -24.492844 
L 196.885988 -24.403617 
L 197.352442 -24.315878 
L 197.818896 -24.229625 
L 198.28535 -24.14486 
L 198.751804 -24.061582 
L 199.218258 -23.97979 
L 199.684712 -23.899486 
L 200.151166 -23.820669 
L 200.61762 -23.74334 
L 201.084074 -23.667497 
L 201.550528 -23.593141 
L 202.016982 -23.520273 
L 202.483436 -23.448891 
L 202.94989 -23.378997 
L 203.416344 -23.31059 
L 203.882798 -23.24367 
L 204.349252 -23.178237 
L 204.815706 -23.114291 
L 205.28216 -23.051832 
L 205.748613 -22.990861 
L 206.215067 -22.931376 
L 206.681521 -22.873379 
L 207.147975 -22.816869 
L 207.614429 -22.761845 
L 208.080883 -22.708309 
L 208.547337 -22.65626 
L 209.013791 -22.605699 
L 209.480245 -22.556624 
L 209.946699 -22.509036 
L 210.413153 -22.462936 
L 210.879607 -22.418322 
L 211.346061 -22.375196 
L 211.812515 -22.333557 
L 212.278969 -22.293405 
L 212.745423 -22.25474 
L 213.211877 -22.217562 
L 213.678331 -22.181872 
L 214.144785 -22.147668 
L 214.611239 -22.114952 
L 215.077693 -22.083722 
L 215.544147 -22.05398 
L 216.010601 -22.025725 
L 216.477055 -21.998957 
L 216.943509 -21.973676 
L 217.409963 -21.949882 
L 217.876417 -21.927575 
L 218.342871 -21.906756 
L 218.809325 -21.887423 
L 219.275779 -21.869578 
L 219.742233 -21.85322 
L 220.208687 -21.838349 
L 220.675141 -21.824965 
L 221.141595 -21.813068 
L 221.608049 -21.802658 
L 222.074503 -21.793735 
L 222.540957 -21.7863 
L 223.007411 -21.780351 
L 223.473865 -21.77589 
L 223.940319 -21.772916 
L 224.406773 -21.771429 
L 224.873227 -21.771429 
L 225.339681 -21.772916 
L 225.806135 -21.77589 
L 226.272589 -21.780351 
L 226.739043 -21.7863 
L 227.205497 -21.793735 
L 227.671951 -21.802658 
L 228.138405 -21.813068 
L 228.604859 -21.824965 
L 229.071313 -21.838349 
L 229.537767 -21.85322 
L 230.004221 -21.869578 
L 230.470675 -21.887423 
L 230.937129 -21.906756 
L 231.403583 -21.927575 
L 231.870037 -21.949882 
L 232.336491 -21.973676 
L 232.802945 -21.998957 
L 233.269399 -22.025725 
L 233.735853 -22.05398 
L 234.202307 -22.083722 
L 234.668761 -22.114952 
L 235.135215 -22.147668 
L 235.601669 -22.181872 
L 236.068123 -22.217562 
L 236.534577 -22.25474 
L 237.001031 -22.293405 
L 237.467485 -22.333557 
L 237.933939 -22.375196 
L 238.400393 -22.418322 
L 238.866847 -22.462936 
L 239.333301 -22.509036 
L 239.799755 -22.556624 
L 240.266209 -22.605699 
L 240.732663 -22.65626 
L 241.199117 -22.708309 
L 241.665571 -22.761845 
L 242.132025 -22.816869 
L 242.598479 -22.873379 
L 243.064933 -22.931376 
L 243.531387 -22.990861 
L 243.99784 -23.051832 
L 244.464294 -23.114291 
L 244.930748 -23.178237 
L 245.397202 -23.24367 
L 245.863656 -23.31059 
L 246.33011 -23.378997 
L 246.796564 -23.448891 
L 247.263018 -23.520273 
L 247.729472 -23.593141 
L 248.195926 -23.667497 
L 248.66238 -23.74334 
L 249.128834 -23.820669 
L 249.595288 -23.899486 
L 250.061742 -23.97979 
L 250.528196 -24.061582 
L 250.99465 -24.14486 
L 251.461104 -24.229625 
L 251.927558 -24.315878 
L 252.394012 -24.403617 
L 252.860466 -24.492844 
L 253.32692 -24.583558 
L 253.793374 -24.675759 
L 254.259828 -24.769447 
L 254.726282 -24.864622 
L 255.192736 -24.961285 
L 255.65919 -25.059434 
L 256.125644 -25.15907 
L 256.592098 -25.260194 
L 257.058552 -25.362805 
L 257.525006 -25.466903 
L 257.99146 -25.572488 
L 258.457914 -25.67956 
L 258.924368 -25.788119 
L 259.390822 -25.898165 
L 259.857276 -26.009699 
L 260.32373 -26.122719 
L 260.790184 -26.237227 
L 261.256638 -26.353222 
L 261.723092 -26.470704 
L 262.189546 -26.589673 
L 262.656 -26.710129 
L 263.122454 -26.832072 
L 263.588908 -26.955502 
L 264.055362 -27.08042 
L 264.521816 -27.206824 
L 264.98827 -27.334716 
L 265.454724 -27.464095 
L 265.921178 -27.59496 
L 266.387632 -27.727313 
L 266.854086 -27.861154 
L 267.32054 -27.996481 
L 267.786994 -28.133295 
L 268.253448 -28.271597 
L 268.719902 -28.411385 
L 269.186356 -28.552661 
L 269.65281 -28.695424 
L 270.119264 -28.839673 
L 270.585718 -28.98541 
L 271.052172 -29.132635 
L 271.518626 -29.281346 
L 271.98508 -29.431544 
L 272.451534 -29.58323 
L 272.917988 -29.736402 
L 273.384442 -29.891062 
L 273.850896 -30.047209 
L 274.31735 -30.204843 
L 274.783804 -30.363964 
L 275.250258 -30.524572 
L 275.716712 -30.686667 
L 276.183166 -30.850249 
L 276.64962 -31.015319 
L 277.116074 -31.181875 
L 277.582528 -31.349919 
L 278.048982 -31.51945 
L 278.515436 -31.690468 
L 278.98189 -31.862973 
L 279.448344 -32.036965 
L 279.914798 -32.212444 
L 280.381252 -32.389411 
L 280.847706 -32.567864 
L 281.31416 -32.747805 
L 281.780613 -32.929232 
L 282.247067 -33.112147 
L 282.713521 -33.296549 
L 283.179975 -33.482438 
L 283.646429 -33.669814 
L 284.112883 -33.858678 
L 284.579337 -34.049028 
L 285.045791 -34.240865 
L 285.512245 -34.43419 
L 285.978699 -34.629002 
L 286.445153 -34.825301 
L 286.911607 -35.023087 
L 287.378061 -35.22236 
L 287.844515 -35.42312 
L 288.310969 -35.625367 
L 288.777423 -35.829101 
L 289.243877 -36.034323 
L 289.710331 -36.241032 
L 290.176785 -36.449227 
L 290.643239 -36.65891 
L 291.109693 -36.87008 
L 291.576147 -37.082737 
L 292.042601 -37.296881 
L 292.509055 -37.512513 
L 292.975509 -37.729631 
L 293.441963 -37.948236 
L 293.908417 -38.168329 
L 294.374871 -38.389909 
L 294.841325 -38.612976 
L 295.307779 -38.83753 
L 295.774233 -39.063571 
L 296.240687 -39.291099 
L 296.707141 -39.520114 
L 297.173595 -39.750617 
L 297.640049 -39.982606 
L 298.106503 -40.216083 
L 298.572957 -40.451047 
L 299.039411 -40.687497 
L 299.505865 -40.925435 
L 299.972319 -41.16486 
L 300.438773 -41.405773 
L 300.905227 -41.648172 
L 301.371681 -41.892058 
L 301.838135 -42.137432 
L 302.304589 -42.384293 
L 302.771043 -42.63264 
L 303.237497 -42.882475 
L 303.703951 -43.133797 
L 304.170405 -43.386606 
L 304.636859 -43.640902 
L 305.103313 -43.896686 
L 305.569767 -44.153956 
L 306.036221 -44.412714 
L 306.502675 -44.672958 
L 306.969129 -44.93469 
L 307.435583 -45.197909 
L 307.902037 -45.462615 
L 308.368491 -45.728808 
L 308.834945 -45.996488 
L 309.301399 -46.265656 
L 309.767853 -46.53631 
L 310.234307 -46.808452 
L 310.700761 -47.08208 
L 311.167215 -47.357196 
L 311.633669 -47.633799 
L 312.100123 -47.911889 
L 312.566577 -48.191466 
L 313.033031 -48.47253 
L 313.499485 -48.755082 
L 313.965939 -49.03912 
L 314.432393 -49.324646 
L 314.898847 -49.611658 
L 315.365301 -49.900158 
L 315.831755 -50.190145 
L 316.298209 -50.481619 
L 316.764663 -50.77458 
L 317.231117 -51.069029 
L 317.697571 -51.364964 
L 318.164025 -51.662386 
L 318.630479 -51.961296 
L 319.096933 -52.261693 
L 319.563387 -52.563576 
L 320.02984 -52.866947 
L 320.496294 -53.171805 
L 320.962748 -53.478151 
L 321.429202 -53.785983 
L 321.895656 -54.095302 
L 322.36211 -54.406109 
L 322.828564 -54.718402 
L 323.295018 -55.032183 
L 323.761472 -55.347451 
L 324.227926 -55.664206 
L 324.69438 -55.982448 
L 325.160834 -56.302177 
L 325.627288 -56.623393 
L 326.093742 -56.946096 
L 326.560196 -57.270287 
L 327.02665 -57.595965 
L 327.493104 -57.923129 
L 327.959558 -58.251781 
L 328.426012 -58.58192 
L 328.892466 -58.913546 
L 329.35892 -59.246659 
L 329.825374 -59.581259 
L 330.291828 -59.917347 
L 330.758282 -60.254921 
L 331.224736 -60.593983 
L 331.69119 -60.934532 
L 332.157644 -61.276568 
L 332.624098 -61.62009 
L 333.090552 -61.965101 
L 333.557006 -62.311598 
L 334.02346 -62.659582 
L 334.489914 -63.009053 
L 334.956368 -63.360012 
L 335.422822 -63.712458 
L 335.889276 -64.06639 
L 336.35573 -64.42181 
L 336.822184 -64.778717 
L 337.288638 -65.137111 
L 337.755092 -65.496992 
L 338.221546 -65.858361 
L 338.688 -66.221216 
L 339.154454 -66.585559 
L 339.620908 -66.951388 
L 340.087362 -67.318705 
L 340.553816 -67.687509 
L 341.02027 -68.0578 
L 341.486724 -68.429578 
L 341.953178 -68.802843 
L 342.419632 -69.177595 
L 342.886086 -69.553835 
L 343.35254 -69.931561 
L 343.818994 -70.310775 
L 344.285448 -70.691476 
L 344.751902 -71.073664 
L 345.218356 -71.457339 
L 345.68481 -71.842501 
L 346.151264 -72.22915 
L 346.617718 -72.617286 
L 347.084172 -73.00691 
L 347.550626 -73.39802 
L 348.01708 -73.790618 
L 348.483534 -74.184703 
L 348.949988 -74.580274 
L 349.416442 -74.977333 
L 349.882896 -75.37588 
L 350.34935 -75.775913 
L 350.815804 -76.177433 
L 351.282258 -76.580441 
L 351.748712 -76.984935 
L 352.215166 -77.390917 
L 352.68162 -77.798386 
L 353.148074 -78.207341 
L 353.614528 -78.617784 
L 354.080982 -79.029715 
L 354.547436 -79.443132 
L 355.01389 -79.858036 
L 355.480344 -80.274428 
L 355.946798 -80.692306 
L 356.413252 -81.111672 
L 356.879706 -81.532525 
L 357.34616 -81.954864 
L 357.812613 -82.378691 
L 358.279067 -82.804006 
L 358.745521 -83.230807 
L 359.211975 -83.659095 
L 359.678429 -84.088871 
L 360.144883 -84.520133 
L 360.611337 -84.952883 
L 361.077791 -85.38712 
L 361.544245 -85.822844 
L 362.010699 -86.260055 
L 362.477153 -86.698753 
L 362.943607 -87.138938 
L 363.410061 -87.58061 
L 363.876515 -88.02377 
L 364.342969 -88.468416 
L 364.809423 -88.91455 
L 365.275877 -89.362171 
L 365.742331 -89.811279 
L 366.208785 -90.261874 
L 366.675239 -90.713956 
L 367.141693 -91.167525 
L 367.608147 -91.622582 
L 368.074601 -92.079125 
L 368.541055 -92.537156 
L 369.007509 -92.996673 
L 369.473963 -93.457678 
L 369.940417 -93.92017 
L 370.406871 -94.384149 
L 370.873325 -94.849615 
L 371.339779 -95.316569 
L 371.806233 -95.785009 
L 372.272687 -96.254937 
L 372.739141 -96.726351 
L 372.739141 -97.673649 
L 372.739141 -97.673649 
L 372.272687 -98.145063 
L 371.806233 -98.614991 
L 371.339779 -99.083431 
L 370.873325 -99.550385 
L 370.406871 -100.015851 
L 369.940417 -100.47983 
L 369.473963 -100.942322 
L 369.007509 -101.403327 
L 368.541055 -101.862844 
L 368.074601 -102.320875 
L 367.608147 -102.777418 
L 367.141693 -103.232475 
L 366.675239 -103.686044 
L 366.208785 -104.138126 
L 365.742331 -104.588721 
L 365.275877 -105.037829 
L 364.809423 -105.48545 
L 364.342969 -105.931584 
L 363.876515 -106.37623 
L 363.410061 -106.81939 
L 362.943607 -107.261062 
L 362.477153 -107.701247 
L 362.010699 -108.139945 
L 361.544245 -108.577156 
L 361.077791 -109.01288 
L 360.611337 -109.447117 
L 360.144883 -109.879867 
L 359.678429 -110.311129 
L 359.211975 -110.740905 
L 358.745521 -111.169193 
L 358.279067 -111.595994 
L 357.812613 -112.021309 
L 357.34616 -112.445136 
L 356.879706 -112.867475 
L 356.413252 -113.288328 
L 355.946798 -113.707694 
L 355.480344 -114.125572 
L 355.01389 -114.541964 
L 354.547436 -114.956868 
L 354.080982 -115.370285 
L 353.614528 -115.782216 
L 353.148074 -116.192659 
L 352.68162 -116.601614 
L 352.215166 -117.009083 
L 351.748712 -117.415065 
L 351.282258 -117.819559 
L 350.815804 -118.222567 
L 350.34935 -118.624087 
L 349.882896 -119.02412 
L 349.416442 -119.422667 
L 348.949988 -119.819726 
L 348.483534 -120.215297 
L 348.01708 -120.609382 
L 347.550626 -121.00198 
L 347.084172 -121.39309 
L 346.617718 -121.782714 
L 346.151264 -122.17085 
L 345.68481 -122.557499 
L 345.218356 -122.942661 
L 344.751902 -123.326336 
L 344.285448 -123.708524 
L 343.818994 -124.089225 
L 343.35254 -124.468439 
L 342.886086 -124.846165 
L 342.419632 -125.222405 
L 341.953178 -125.597157 
L 341.486724 -125.970422 
L 341.02027 -126.3422 
L 340.553816 -126.712491 
L 340.087362 -127.081295 
L 339.620908 -127.448612 
L 339.154454 -127.814441 
L 338.688 -128.178784 
L 338.221546 -128.541639 
L 337.755092 -128.903008 
L 337.288638 -129.262889 
L 336.822184 -129.621283 
L 336.35573 -129.97819 
L 335.889276 -130.33361 
L 335.422822 -130.687542 
L 334.956368 -131.039988 
L 334.489914 -131.390947 
L 334.02346 -131.740418 
L 333.557006 -132.088402 
L 333.090552 -132.434899 
L 332.624098 -132.77991 
L 332.157644 -133.123432 
L 331.69119 -133.465468 
L 331.224736 -133.806017 
L 330.758282 -134.145079 
L 330.291828 -134.482653 
L 329.825374 -134.818741 
L 329.35892 -135.153341 
L 328.892466 -135.486454 
L 328.426012 -135.81808 
L 327.959558 -136.148219 
L 327.493104 -136.476871 
L 327.02665 -136.804035 
L 326.560196 -137.129713 
L 326.093742 -137.453904 
L 325.627288 -137.776607 
L 325.160834 -138.097823 
L 324.69438 -138.417552 
L 324.227926 -138.735794 
L 323.761472 -139.052549 
L 323.295018 -139.367817 
L 322.828564 -139.681598 
L 322.36211 -139.993891 
L 321.895656 -140.304698 
L 321.429202 -140.614017 
L 320.962748 -140.921849 
L 320.496294 -141.228195 
L 320.02984 -141.533053 
L 319.563387 -141.836424 
L 319.096933 -142.138307 
L 318.630479 -142.438704 
L 318.164025 -142.737614 
L 317.697571 -143.035036 
L 317.231117 -143.330971 
L 316.764663 -143.62542 
L 316.298209 -143.918381 
L 315.831755 -144.209855 
L 315.365301 -144.499842 
L 314.898847 -144.788342 
L 314.432393 -145.075354 
L 313.965939 -145.36088 
L 313.499485 -145.644918 
L 313.033031 -145.92747 
L 312.566577 -146.208534 
L 312.100123 -146.488111 
L 311.633669 -146.766201 
L 311.167215 -147.042804 
L 310.700761 -147.31792 
L 310.234307 -147.591548 
L 309.767853 -147.86369 
L 309.301399 -148.134344 
L 308.834945 -148.403512 
L 308.368491 -148.671192 
L 307.902037 -148.937385 
L 307.435583 -149.202091 
L 306.969129 -149.46531 
L 306.502675 -149.727042 
L 306.036221 -149.987286 
L 305.569767 -150.246044 
L 305.103313 -150.503314 
L 304.636859 -150.759098 
L 304.170405 -151.013394 
L 303.703951 -151.266203 
L 303.237497 -151.517525 
L 302.771043 -151.76736 
L 302.304589 -152.015707 
L 301.838135 -152.262568 
L 301.371681 -152.507942 
L 300.905227 -152.751828 
L 300.438773 -152.994227 
L 299.972319 -153.23514 
L 299.505865 -153.474565 
L 299.039411 -153.712503 
L 298.572957 -153.948953 
L 298.106503 -154.183917 
L 297.640049 -154.417394 
L 297.173595 -154.649383 
L 296.707141 -154.879886 
L 296.240687 -155.108901 
L 295.774233 -155.336429 
L 295.307779 -155.56247 
L 294.841325 -155.787024 
L 294.374871 -156.010091 
L 293.908417 -156.231671 
L 293.441963 -156.451764 
L 292.975509 -156.670369 
L 292.509055 -156.887487 
L 292.042601 -157.103119 
L 291.576147 -157.317263 
L 291.109693 -157.52992 
L 290.643239 -157.74109 
L 290.176785 -157.950773 
L 289.710331 -158.158968 
L 289.243877 -158.365677 
L 288.777423 -158.570899 
L 288.310969 -158.774633 
L 287.844515 -158.97688 
L 287.378061 -159.17764 
L 286.911607 -159.376913 
L 286.445153 -159.574699 
L 285.978699 -159.770998 
L 285.512245 -159.96581 
L 285.045791 -160.159135 
L 284.579337 -160.350972 
L 284.112883 -160.541322 
L 283.646429 -160.730186 
L 283.179975 -160.917562 
L 282.713521 -161.103451 
L 282.247067 -161.287853 
L 281.780613 -161.470768 
L 281.31416 -161.652195 
L 280.847706 -161.832136 
L 280.381252 -162.010589 
L 279.914798 -162.187556 
L 279.448344 -162.363035 
L 278.98189 -162.537027 
L 278.515436 -162.709532 
L 278.048982 -162.88055 
L 277.582528 -163.050081 
L 277.116074 -163.218125 
L 276.64962 -163.384681 
L 276.183166 -163.549751 
L 275.716712 -163.713333 
L 275.250258 -163.875428 
L 274.783804 -164.036036 
L 274.31735 -164.195157 
L 273.850896 -164.352791 
L 273.384442 -164.508938 
L 272.917988 -164.663598 
L 272.451534 -164.81677 
L 271.98508 -164.968456 
L 271.518626 -165.118654 
L 271.052172 -165.267365 
L 270.585718 -165.41459 
L 270.119264 -165.560327 
L 269.65281 -165.704576 
L 269.186356 -165.847339 
L 268.719902 -165.988615 
L 268.253448 -166.128403 
L 267.786994 -166.266705 
L 267.32054 -166.403519 
L 266.854086 -166.538846 
L 266.387632 -166.672687 
L 265.921178 -166.80504 
L 265.454724 -166.935905 
L 264.98827 -167.065284 
L 264.521816 -167.193176 
L 264.055362 -167.31958 
L 263.588908 -167.444498 
L 263.122454 -167.567928 
L 262.656 -167.689871 
L 262.189546 -167.810327 
L 261.723092 -167.929296 
L 261.256638 -168.046778 
L 260.790184 -168.162773 
L 260.32373 -168.277281 
L 259.857276 -168.390301 
L 259.390822 -168.501835 
L 258.924368 -168.611881 
L 258.457914 -168.72044 
L 257.99146 -168.827512 
L 257.525006 -168.933097 
L 257.058552 -169.037195 
L 256.592098 -169.139806 
L 256.125644 -169.24093 
L 255.65919 -169.340566 
L 255.192736 -169.438715 
L 254.726282 -169.535378 
L 254.259828 -169.630553 
L 253.793374 -169.724241 
L 253.32692 -169.816442 
L 252.860466 -169.907156 
L 252.394012 -169.996383 
L 251.927558 -170.084122 
L 251.461104 -170.170375 
L 250.99465 -170.25514 
L 250.528196 -170.338418 
L 250.061742 -170.42021 
L 249.595288 -170.500514 
L 249.128834 -170.579331 
L 248.66238 -170.65666 
L 248.195926 -170.732503 
L 247.729472 -170.806859 
L 247.263018 -170.879727 
L 246.796564 -170.951109 
L 246.33011 -171.021003 
L 245.863656 -171.08941 
L 245.397202 -171.15633 
L 244.930748 -171.221763 
L 244.464294 -171.285709 
L 243.99784 -171.348168 
L 243.531387 -171.409139 
L 243.064933 -171.468624 
L 242.598479 -171.526621 
L 242.132025 -171.583131 
L 241.665571 -171.638155 
L 241.199117 -171.691691 
L 240.732663 -171.74374 
L 240.266209 -171.794301 
L 239.799755 -171.843376 
L 239.333301 -171.890964 
L 238.866847 -171.937064 
L 238.400393 -171.981678 
L 237.933939 -172.024804 
L 237.467485 -172.066443 
L 237.001031 -172.106595 
L 236.534577 -172.14526 
L 236.068123 -172.182438 
L 235.601669 -172.218128 
L 235.135215 -172.252332 
L 234.668761 -172.285048 
L 234.202307 -172.316278 
L 233.735853 -172.34602 
L 233.269399 -172.374275 
L 232.802945 -172.401043 
L 232.336491 -172.426324 
L 231.870037 -172.450118 
L 231.403583 -172.472425 
L 230.937129 -172.493244 
L 230.470675 -172.512577 
L 230.004221 -172.530422 
L 229.537767 -172.54678 
L 229.071313 -172.561651 
L 228.604859 -172.575035 
L 228.138405 -172.586932 
L 227.671951 -172.597342 
L 227.205497 -172.606265 
L 226.739043 -172.6137 
L 226.272589 -172.619649 
L 225.806135 -172.62411 
L 225.339681 -172.627084 
L 224.873227 -172.628571 
L 224.406773 -172.628571 
L 223.940319 -172.627084 
L 223.473865 -172.62411 
L 223.007411 -172.619649 
L 222.540957 -172.6137 
L 222.074503 -172.606265 
L 221.608049 -172.597342 
L 221.141595 -172.586932 
L 220.675141 -172.575035 
L 220.208687 -172.561651 
L 219.742233 -172.54678 
L 219.275779 -172.530422 
L 218.809325 -172.512577 
L 218.342871 -172.493244 
L 217.876417 -172.472425 
L 217.409963 -172.450118 
L 216.943509 -172.426324 
L 216.477055 -172.401043 
L 216.010601 -172.374275 
L 215.544147 -172.34602 
L 215.077693 -172.316278 
L 214.611239 -172.285048 
L 214.144785 -172.252332 
L 213.678331 -172.218128 
L 213.211877 -172.182438 
L 212.745423 -172.14526 
L 212.278969 -172.106595 
L 211.812515 -172.066443 
L 211.346061 -172.024804 
L 210.879607 -171.981678 
L 210.413153 -171.937064 
L 209.946699 -171.890964 
L 209.480245 -171.843376 
L 209.013791 -171.794301 
L 208.547337 -171.74374 
L 208.080883 -171.691691 
L 207.614429 -171.638155 
L 207.147975 -171.583131 
L 206.681521 -171.526621 
L 206.215067 -171.468624 
L 205.748613 -171.409139 
L 205.28216 -171.348168 
L 204.815706 -171.285709 
L 204.349252 -171.221763 
L 203.882798 -171.15633 
L 203.416344 -171.08941 
L 202.94989 -171.021003 
L 202.483436 -170.951109 
L 202.016982 -170.879727 
L 201.550528 -170.806859 
L 201.084074 -170.732503 
L 200.61762 -170.65666 
L 200.151166 -170.579331 
L 199.684712 -170.500514 
L 199.218258 -170.42021 
L 198.751804 -170.338418 
L 198.28535 -170.25514 
L 197.818896 -170.170375 
L 197.352442 -170.084122 
L 196.885988 -169.996383 
L 196.419534 -169.907156 
L 195.95308 -169.816442 
L 195.486626 -169.724241 
L 195.020172 -169.630553 
L 194.553718 -169.535378 
L 194.087264 -169.438715 
L 193.62081 -169.340566 
L 193.154356 -169.24093 
L 192.687902 -169.139806 
L 192.221448 -169.037195 
L 191.754994 -168.933097 
L 191.28854 -168.827512 
L 190.822086 -168.72044 
L 190.355632 -168.611881 
L 189.889178 -168.501835 
L 189.422724 -168.390301 
L 188.95627 -168.277281 
L 188.489816 -168.162773 
L 188.023362 -168.046778 
L 187.556908 -167.929296 
L 187.090454 -167.810327 
L 186.624 -167.689871 
L 186.157546 -167.567928 
L 185.691092 -167.444498 
L 185.224638 -167.31958 
L 184.758184 -167.193176 
L 184.29173 -167.065284 
L 183.825276 -166.935905 
L 183.358822 -166.80504 
L 182.892368 -166.672687 
L 182.425914 -166.538846 
L 181.95946 -166.403519 
L 181.493006 -166.266705 
L 181.026552 -166.128403 
L 180.560098 -165.988615 
L 180.093644 -165.847339 
L 179.62719 -165.704576 
L 179.160736 -165.560327 
L 178.694282 -165.41459 
L 178.227828 -165.267365 
L 177.761374 -165.118654 
L 177.29492 -164.968456 
L 176.828466 -164.81677 
L 176.362012 -164.663598 
L 175.895558 -164.508938 
L 175.429104 -164.352791 
L 174.96265 -164.195157 
L 174.496196 -164.036036 
L 174.029742 -163.875428 
L 173.563288 -163.713333 
L 173.096834 -163.549751 
L 172.63038 -163.384681 
L 172.163926 -163.218125 
L 171.697472 -163.050081 
L 171.231018 -162.88055 
L 170.764564 -162.709532 
L 170.29811 -162.537027 
L 169.831656 -162.363035 
L 169.365202 -162.187556 
L 168.898748 -162.010589 
L 168.432294 -161.832136 
L 167.96584 -161.652195 
L 167.499387 -161.470768 
L 167.032933 -161.287853 
L 166.566479 -161.103451 
L 166.100025 -160.917562 
L 165.633571 -160.730186 
L 165.167117 -160.541322 
L 164.700663 -160.350972 
L 164.234209 -160.159135 
L 163.767755 -159.96581 
L 163.301301 -159.770998 
L 162.834847 -159.574699 
L 162.368393 -159.376913 
L 161.901939 -159.17764 
L 161.435485 -158.97688 
L 160.969031 -158.774633 
L 160.502577 -158.570899 
L 160.036123 -158.365677 
L 159.569669 -158.158968 
L 159.103215 -157.950773 
L 158.636761 -157.74109 
L 158.170307 -157.52992 
L 157.703853 -157.317263 
L 157.237399 -157.103119 
L 156.770945 -156.887487 
L 156.304491 -156.670369 
L 155.838037 -156.451764 
L 155.371583 -156.231671 
L 154.905129 -156.010091 
L 154.438675 -155.787024 
L 153.972221 -155.56247 
L 153.505767 -155.336429 
L 153.039313 -155.108901 
L 152.572859 -154.879886 
L 152.106405 -154.649383 
L 151.639951 -154.417394 
L 151.173497 -154.183917 
L 150.707043 -153.948953 
L 150.240589 -153.712503 
L 149.774135 -153.474565 
L 149.307681 -153.23514 
L 148.841227 -152.994227 
L 148.374773 -152.751828 
L 147.908319 -152.507942 
L 147.441865 -152.262568 
L 146.975411 -152.015707 
L 146.508957 -151.76736 
L 146.042503 -151.517525 
L 145.576049 -151.266203 
L 145.109595 -151.013394 
L 144.643141 -150.759098 
L 144.176687 -150.503314 
L 143.710233 -150.246044 
L 143.243779 -149.987286 
L 142.777325 -149.727042 
L 142.310871 -149.46531 
L 141.844417 -149.202091 
L 141.377963 -148.937385 
L 140.911509 -148.671192 
L 140.445055 -148.403512 
L 139.978601 -148.134344 
L 139.512147 -147.86369 
L 139.045693 -147.591548 
L 138.579239 -147.31792 
L 138.112785 -147.042804 
L 137.646331 -146.766201 
L 137.179877 -146.488111 
L 136.713423 -146.208534 
L 136.246969 -145.92747 
L 135.780515 -145.644918 
L 135.314061 -145.36088 
L 134.847607 -145.075354 
L 134.381153 -144.788342 
L 133.914699 -144.499842 
L 133.448245 -144.209855 
L 132.981791 -143.918381 
L 132.515337 -143.62542 
L 132.048883 -143.330971 
L 131.582429 -143.035036 
L 131.115975 -142.737614 
L 130.649521 -142.438704 
L 130.183067 -142.138307 
L 129.716613 -141.836424 
L 129.25016 -141.533053 
L 128.783706 -141.228195 
L 128.317252 -140.921849 
L 127.850798 -140.614017 
L 127.384344 -140.304698 
L 126.91789 -139.993891 
L 126.451436 -139.681598 
L 125.984982 -139.367817 
L 125.518528 -139.052549 
L 125.052074 -138.735794 
L 124.58562 -138.417552 
L 124.119166 -138.097823 
L 123.652712 -137.776607 
L 123.186258 -137.453904 
L 122.719804 -137.129713 
L 122.25335 -136.804035 
L 121.786896 -136.476871 
L 121.320442 -136.148219 
L 120.853988 -135.81808 
L 120.387534 -135.486454 
L 119.92108 -135.153341 
L 119.454626 -134.818741 
L 118.988172 -134.482653 
L 118.521718 -134.145079 
L 118.055264 -133.806017 
L 117.58881 -133.465468 
L 117.122356 -133.123432 
L 116.655902 -132.77991 
L 116.189448 -132.434899 
L 115.722994 -132.088402 
L 115.25654 -131.740418 
L 114.790086 -131.390947 
L 114.323632 -131.039988 
L 113.857178 -130.687542 
L 113.390724 -130.33361 
L 112.92427 -129.97819 
L 112.457816 -129.621283 
L 111.991362 -129.262889 
L 111.524908 -128.903008 
L 111.058454 -128.541639 
L 110.592 -128.178784 
L 110.125546 -127.814441 
L 109.659092 -127.448612 
L 109.192638 -127.081295 
L 108.726184 -126.712491 
L 108.25973 -126.3422 
L 107.793276 -125.970422 
L 107.326822 -125.597157 
L 106.860368 -125.222405 
L 106.393914 -124.846165 
L 105.92746 -124.468439 
L 105.461006 -124.089225 
L 104.994552 -123.708524 
L 104.528098 -123.326336 
L 104.061644 -122.942661 
L 103.59519 -122.557499 
L 103.128736 -122.17085 
L 102.662282 -121.782714 
L 102.195828 -121.39309 
L 101.729374 -121.00198 
L 101.26292 -120.609382 
L 100.796466 -120.215297 
L 100.330012 -119.819726 
L 99.863558 -119.422667 
L 99.397104 -119.02412 
L 98.93065 -118.624087 
L 98.464196 -118.222567 
L 97.997742 -117.819559 
L 97.531288 -117.415065 
L 97.064834 -117.009083 
L 96.59838 -116.601614 
L 96.131926 -116.192659 
L 95.665472 -115.782216 
L 95.199018 -115.370285 
L 94.732564 -114.956868 
L 94.26611 -114.541964 
L 93.799656 -114.125572 
L 93.333202 -113.707694 
L 92.866748 -113.288328 
L 92.400294 -112.867475 
L 91.93384 -112.445136 
L 91.467387 -112.021309 
L 91.000933 -111.595994 
L 90.534479 -111.169193 
L 90.068025 -110.740905 
L 89.601571 -110.311129 
L 89.135117 -109.879867 
L 88.668663 -109.447117 
L 88.202209 -109.01288 
L 87.735755 -108.577156 
L 87.269301 -108.139945 
L 86.802847 -107.701247 
L 86.336393 -107.261062 
L 85.869939 -106.81939 
L 85.403485 -106.37623 
L 84.937031 -105.931584 
L 84.470577 -105.48545 
L 84.004123 -105.037829 
L 83.537669 -104.588721 
L 83.071215 -104.138126 
L 82.604761 -103.686044 
L 82.138307 -103.232475 
L 81.671853 -102.777418 
L 81.205399 -102.320875 
L 80.738945 -101.862844 
L 80.272491 -101.403327 
L 79.806037 -100.942322 
L 79.339583 -100.47983 
L 78.873129 -100.015851 
L 78.406675 -99.550385 
L 77.940221 -99.083431 
L 77.473767 -98.614991 
L 77.007313 -98.145063 
L 76.540859 -97.673649 
z
" id="m63100000ad" style="stroke:#0000ff;stroke-opacity:0.1;"/>
    </defs>
    <g clip-path="url(#p2d9ea6c70b)">
     <use style="fill:#0000ff;fill-opacity:0.1;stroke:#0000ff;stroke-opacity:0.1;" x="0" xlink:href="#m63100000ad" y="180"/>
    </g>
   </g>
   <g id="matplotlib.axis_1">
    <g id="xtick_1">
     <g id="line2d_1">
      <defs>
       <path d="M 0 0 
L 0 3.5 
" id="m6c1b546d14" style="stroke:#000000;stroke-width:0.8;"/>
      </defs>
      <g>
       <use style="stroke:#000000;stroke-width:0.8;" x="76.307632" xlink:href="#m6c1b546d14" y="162"/>
      </g>
     </g>
     <g id="text_1">
      <!-- 1960 -->
      <g transform="translate(63.582632 176.598438)scale(0.1 -0.1)">
       <defs>
        <path d="M 794 531 
L 1825 531 
L 1825 4091 
L 703 3866 
L 703 4441 
L 1819 4666 
L 2450 4666 
L 2450 531 
L 3481 531 
L 3481 0 
L 794 0 
L 794 531 
z
" id="DejaVuSans-31" transform="scale(0.015625)"/>
        <path d="M 703 97 
L 703 672 
Q 941 559 1184 500 
Q 1428 441 1663 441 
Q 2288 441 2617 861 
Q 2947 1281 2994 2138 
Q 2813 1869 2534 1725 
Q 2256 1581 1919 1581 
Q 1219 1581 811 2004 
Q 403 2428 403 3163 
Q 403 3881 828 4315 
Q 1253 4750 1959 4750 
Q 2769 4750 3195 4129 
Q 3622 3509 3622 2328 
Q 3622 1225 3098 567 
Q 2575 -91 1691 -91 
Q 1453 -91 1209 -44 
Q 966 3 703 97 
z
M 1959 2075 
Q 2384 2075 2632 2365 
Q 2881 2656 2881 3163 
Q 2881 3666 2632 3958 
Q 2384 4250 1959 4250 
Q 1534 4250 1286 3958 
Q 1038 3666 1038 3163 
Q 1038 2656 1286 2365 
Q 1534 2075 1959 2075 
z
" id="DejaVuSans-39" transform="scale(0.015625)"/>
        <path d="M 2113 2584 
Q 1688 2584 1439 2293 
Q 1191 2003 1191 1497 
Q 1191 994 1439 701 
Q 1688 409 2113 409 
Q 2538 409 2786 701 
Q 3034 994 3034 1497 
Q 3034 2003 2786 2293 
Q 2538 2584 2113 2584 
z
M 3366 4563 
L 3366 3988 
Q 3128 4100 2886 4159 
Q 2644 4219 2406 4219 
Q 1781 4219 1451 3797 
Q 1122 3375 1075 2522 
Q 1259 2794 1537 2939 
Q 1816 3084 2150 3084 
Q 2853 3084 3261 2657 
Q 3669 2231 3669 1497 
Q 3669 778 3244 343 
Q 2819 -91 2113 -91 
Q 1303 -91 875 529 
Q 447 1150 447 2328 
Q 447 3434 972 4092 
Q 1497 4750 2381 4750 
Q 2619 4750 2861 4703 
Q 3103 4656 3366 4563 
z
" id="DejaVuSans-36" transform="scale(0.015625)"/>
        <path d="M 2034 4250 
Q 1547 4250 1301 3770 
Q 1056 3291 1056 2328 
Q 1056 1369 1301 889 
Q 1547 409 2034 409 
Q 2525 409 2770 889 
Q 3016 1369 3016 2328 
Q 3016 3291 2770 3770 
Q 2525 4250 2034 4250 
z
M 2034 4750 
Q 2819 4750 3233 4129 
Q 3647 3509 3647 2328 
Q 3647 1150 3233 529 
Q 2819 -91 2034 -91 
Q 1250 -91 836 529 
Q 422 1150 422 2328 
Q 422 3509 836 4129 
Q 1250 4750 2034 4750 
z
" id="DejaVuSans-30" transform="scale(0.015625)"/>
       </defs>
       <use xlink:href="#DejaVuSans-31"/>
       <use x="63.623047" xlink:href="#DejaVuSans-39"/>
       <use x="127.246094" xlink:href="#DejaVuSans-36"/>
       <use x="190.869141" xlink:href="#DejaVuSans-30"/>
      </g>
     </g>
    </g>
    <g id="xtick_2">
     <g id="line2d_2">
      <g>
       <use style="stroke:#000000;stroke-width:0.8;" x="132.28211" xlink:href="#m6c1b546d14" y="162"/>
      </g>
     </g>
     <g id="text_2">
      <!-- 1970 -->
      <g transform="translate(119.55711 176.598438)scale(0.1 -0.1)">
       <defs>
        <path d="M 525 4666 
L 3525 4666 
L 3525 4397 
L 1831 0 
L 1172 0 
L 2766 4134 
L 525 4134 
L 525 4666 
z
" id="DejaVuSans-37" transform="scale(0.015625)"/>
       </defs>
       <use xlink:href="#DejaVuSans-31"/>
       <use x="63.623047" xlink:href="#DejaVuSans-39"/>
       <use x="127.246094" xlink:href="#DejaVuSans-37"/>
       <use x="190.869141" xlink:href="#DejaVuSans-30"/>
      </g>
     </g>
    </g>
    <g id="xtick_3">
     <g id="line2d_3">
      <g>
       <use style="stroke:#000000;stroke-width:0.8;" x="188.256589" xlink:href="#m6c1b546d14" y="162"/>
      </g>
     </g>
     <g id="text_3">
      <!-- 1980 -->
      <g transform="translate(175.531589 176.598438)scale(0.1 -0.1)">
       <defs>
        <path d="M 2034 2216 
Q 1584 2216 1326 1975 
Q 1069 1734 1069 1313 
Q 1069 891 1326 650 
Q 1584 409 2034 409 
Q 2484 409 2743 651 
Q 3003 894 3003 1313 
Q 3003 1734 2745 1975 
Q 2488 2216 2034 2216 
z
M 1403 2484 
Q 997 2584 770 2862 
Q 544 3141 544 3541 
Q 544 4100 942 4425 
Q 1341 4750 2034 4750 
Q 2731 4750 3128 4425 
Q 3525 4100 3525 3541 
Q 3525 3141 3298 2862 
Q 3072 2584 2669 2484 
Q 3125 2378 3379 2068 
Q 3634 1759 3634 1313 
Q 3634 634 3220 271 
Q 2806 -91 2034 -91 
Q 1263 -91 848 271 
Q 434 634 434 1313 
Q 434 1759 690 2068 
Q 947 2378 1403 2484 
z
M 1172 3481 
Q 1172 3119 1398 2916 
Q 1625 2713 2034 2713 
Q 2441 2713 2670 2916 
Q 2900 3119 2900 3481 
Q 2900 3844 2670 4047 
Q 2441 4250 2034 4250 
Q 1625 4250 1398 4047 
Q 1172 3844 1172 3481 
z
" id="DejaVuSans-38" transform="scale(0.015625)"/>
       </defs>
       <use xlink:href="#DejaVuSans-31"/>
       <use x="63.623047" xlink:href="#DejaVuSans-39"/>
       <use x="127.246094" xlink:href="#DejaVuSans-38"/>
       <use x="190.869141" xlink:href="#DejaVuSans-30"/>
      </g>
     </g>
    </g>
    <g id="xtick_4">
     <g id="line2d_4">
      <g>
       <use style="stroke:#000000;stroke-width:0.8;" x="244.231067" xlink:href="#m6c1b546d14" y="162"/>
      </g>
     </g>
     <g id="text_4">
      <!-- 1990 -->
      <g transform="translate(231.506067 176.598438)scale(0.1 -0.1)">
       <use xlink:href="#DejaVuSans-31"/>
       <use x="63.623047" xlink:href="#DejaVuSans-39"/>
       <use x="127.246094" xlink:href="#DejaVuSans-39"/>
       <use x="190.869141" xlink:href="#DejaVuSans-30"/>
      </g>
     </g>
    </g>
    <g id="xtick_5">
     <g id="line2d_5">
      <g>
       <use style="stroke:#000000;stroke-width:0.8;" x="300.205546" xlink:href="#m6c1b546d14" y="162"/>
      </g>
     </g>
     <g id="text_5">
      <!-- 2000 -->
      <g transform="translate(287.480546 176.598438)scale(0.1 -0.1)">
       <defs>
        <path d="M 1228 531 
L 3431 531 
L 3431 0 
L 469 0 
L 469 531 
Q 828 903 1448 1529 
Q 2069 2156 2228 2338 
Q 2531 2678 2651 2914 
Q 2772 3150 2772 3378 
Q 2772 3750 2511 3984 
Q 2250 4219 1831 4219 
Q 1534 4219 1204 4116 
Q 875 4013 500 3803 
L 500 4441 
Q 881 4594 1212 4672 
Q 1544 4750 1819 4750 
Q 2544 4750 2975 4387 
Q 3406 4025 3406 3419 
Q 3406 3131 3298 2873 
Q 3191 2616 2906 2266 
Q 2828 2175 2409 1742 
Q 1991 1309 1228 531 
z
" id="DejaVuSans-32" transform="scale(0.015625)"/>
       </defs>
       <use xlink:href="#DejaVuSans-32"/>
       <use x="63.623047" xlink:href="#DejaVuSans-30"/>
       <use x="127.246094" xlink:href="#DejaVuSans-30"/>
       <use x="190.869141" xlink:href="#DejaVuSans-30"/>
      </g>
     </g>
    </g>
    <g id="xtick_6">
     <g id="line2d_6">
      <g>
       <use style="stroke:#000000;stroke-width:0.8;" x="356.180025" xlink:href="#m6c1b546d14" y="162"/>
      </g>
     </g>
     <g id="text_6">
      <!-- 2010 -->
      <g transform="translate(343.455025 176.598438)scale(0.1 -0.1)">
       <use xlink:href="#DejaVuSans-32"/>
       <use x="63.623047" xlink:href="#DejaVuSans-30"/>
       <use x="127.246094" xlink:href="#DejaVuSans-31"/>
       <use x="190.869141" xlink:href="#DejaVuSans-30"/>
      </g>
     </g>
    </g>
    <g id="xtick_7">
     <g id="line2d_7">
      <g>
       <use style="stroke:#000000;stroke-width:0.8;" x="412.154503" xlink:href="#m6c1b546d14" y="162"/>
      </g>
     </g>
     <g id="text_7">
      <!-- 2020 -->
      <g transform="translate(399.429503 176.598438)scale(0.1 -0.1)">
       <use xlink:href="#DejaVuSans-32"/>
       <use x="63.623047" xlink:href="#DejaVuSans-30"/>
       <use x="127.246094" xlink:href="#DejaVuSans-32"/>
       <use x="190.869141" xlink:href="#DejaVuSans-30"/>
      </g>
     </g>
    </g>
   </g>
   <g id="matplotlib.axis_2">
    <g id="ytick_1">
     <g id="line2d_8">
      <defs>
       <path d="M 0 0 
L -3.5 0 
" id="m8fa4a64ab1" style="stroke:#000000;stroke-width:0.8;"/>
      </defs>
      <g>
       <use style="stroke:#000000;stroke-width:0.8;" x="34.56" xlink:href="#m8fa4a64ab1" y="153.658263"/>
      </g>
     </g>
     <g id="text_8">
      <!-- −75 -->
      <g transform="translate(6.455313 157.457481)scale(0.1 -0.1)">
       <defs>
        <path d="M 678 2272 
L 4684 2272 
L 4684 1741 
L 678 1741 
L 678 2272 
z
" id="DejaVuSans-2212" transform="scale(0.015625)"/>
        <path d="M 691 4666 
L 3169 4666 
L 3169 4134 
L 1269 4134 
L 1269 2991 
Q 1406 3038 1543 3061 
Q 1681 3084 1819 3084 
Q 2600 3084 3056 2656 
Q 3513 2228 3513 1497 
Q 3513 744 3044 326 
Q 2575 -91 1722 -91 
Q 1428 -91 1123 -41 
Q 819 9 494 109 
L 494 744 
Q 775 591 1075 516 
Q 1375 441 1709 441 
Q 2250 441 2565 725 
Q 2881 1009 2881 1497 
Q 2881 1984 2565 2268 
Q 2250 2553 1709 2553 
Q 1456 2553 1204 2497 
Q 953 2441 691 2322 
L 691 4666 
z
" id="DejaVuSans-35" transform="scale(0.015625)"/>
       </defs>
       <use xlink:href="#DejaVuSans-2212"/>
       <use x="83.789062" xlink:href="#DejaVuSans-37"/>
       <use x="147.412109" xlink:href="#DejaVuSans-35"/>
      </g>
     </g>
    </g>
    <g id="ytick_2">
     <g id="line2d_9">
      <g>
       <use style="stroke:#000000;stroke-width:0.8;" x="34.56" xlink:href="#m8fa4a64ab1" y="130.038842"/>
      </g>
     </g>
     <g id="text_9">
      <!-- −50 -->
      <g transform="translate(6.455313 133.83806)scale(0.1 -0.1)">
       <use xlink:href="#DejaVuSans-2212"/>
       <use x="83.789062" xlink:href="#DejaVuSans-35"/>
       <use x="147.412109" xlink:href="#DejaVuSans-30"/>
      </g>
     </g>
    </g>
    <g id="ytick_3">
     <g id="line2d_10">
      <g>
       <use style="stroke:#000000;stroke-width:0.8;" x="34.56" xlink:href="#m8fa4a64ab1" y="106.419421"/>
      </g>
     </g>
     <g id="text_10">
      <!-- −25 -->
      <g transform="translate(6.455313 110.21864)scale(0.1 -0.1)">
       <use xlink:href="#DejaVuSans-2212"/>
       <use x="83.789062" xlink:href="#DejaVuSans-32"/>
       <use x="147.412109" xlink:href="#DejaVuSans-35"/>
      </g>
     </g>
    </g>
    <g id="ytick_4">
     <g id="line2d_11">
      <g>
       <use style="stroke:#000000;stroke-width:0.8;" x="34.56" xlink:href="#m8fa4a64ab1" y="82.8"/>
      </g>
     </g>
     <g id="text_11">
      <!-- 0 -->
      <g transform="translate(21.1975 86.599219)scale(0.1 -0.1)">
       <use xlink:href="#DejaVuSans-30"/>
      </g>
     </g>
    </g>
    <g id="ytick_5">
     <g id="line2d_12">
      <g>
       <use style="stroke:#000000;stroke-width:0.8;" x="34.56" xlink:href="#m8fa4a64ab1" y="59.180579"/>
      </g>
     </g>
     <g id="text_12">
      <!-- 25 -->
      <g transform="translate(14.835 62.979798)scale(0.1 -0.1)">
       <use xlink:href="#DejaVuSans-32"/>
       <use x="63.623047" xlink:href="#DejaVuSans-35"/>
      </g>
     </g>
    </g>
    <g id="ytick_6">
     <g id="line2d_13">
      <g>
       <use style="stroke:#000000;stroke-width:0.8;" x="34.56" xlink:href="#m8fa4a64ab1" y="35.561158"/>
      </g>
     </g>
     <g id="text_13">
      <!-- 50 -->
      <g transform="translate(14.835 39.360377)scale(0.1 -0.1)">
       <use xlink:href="#DejaVuSans-35"/>
       <use x="63.623047" xlink:href="#DejaVuSans-30"/>
      </g>
     </g>
    </g>
    <g id="ytick_7">
     <g id="line2d_14">
      <g>
       <use style="stroke:#000000;stroke-width:0.8;" x="34.56" xlink:href="#m8fa4a64ab1" y="11.941737"/>
      </g>
     </g>
     <g id="text_14">
      <!-- 75 -->
      <g transform="translate(14.835 15.740956)scale(0.1 -0.1)">
       <use xlink:href="#DejaVuSans-37"/>
       <use x="63.623047" xlink:href="#DejaVuSans-35"/>
      </g>
     </g>
    </g>
   </g>
   <g id="line2d_15">
    <path clip-path="url(#p2d9ea6c70b)" d="M 76.540859 83.03513 
L 77.007313 83.080761 
L 77.473767 82.819855 
L 77.940221 83.24618 
L 78.406675 83.490957 
L 78.873129 84.171994 
L 79.339583 84.006154 
L 79.806037 83.578394 
L 80.272491 83.358393 
L 80.738945 83.441741 
L 82.138307 83.314072 
L 83.071215 83.639029 
L 83.537669 83.57507 
L 84.004123 83.372569 
L 84.470577 83.478645 
L 84.937031 83.113213 
L 85.869939 82.924255 
L 86.336393 82.382442 
L 86.802847 82.36367 
L 87.269301 81.821261 
L 87.735755 81.725986 
L 88.202209 82.039643 
L 88.668663 81.760042 
L 89.135117 81.91925 
L 89.601571 82.678436 
L 90.068025 82.862356 
L 91.467387 82.737102 
L 91.93384 82.438254 
L 92.400294 82.595767 
L 92.866748 82.047725 
L 93.333202 81.894463 
L 93.799656 81.593246 
L 94.26611 82.520806 
L 94.732564 83.090909 
L 95.665472 82.970368 
L 96.59838 82.095379 
L 97.064834 81.795314 
L 97.531288 81.661738 
L 97.997742 81.317339 
L 98.464196 81.37321 
L 98.93065 81.097773 
L 99.863558 81.270021 
L 100.796466 81.913585 
L 101.729374 81.923535 
L 102.195828 81.749373 
L 103.128736 80.908441 
L 103.59519 80.643996 
L 104.061644 80.535881 
L 106.860368 80.969172 
L 107.326822 80.894434 
L 108.25973 80.0893 
L 108.726184 79.637606 
L 109.192638 79.648379 
L 110.125546 79.238079 
L 110.592 79.618784 
L 111.524908 79.352884 
L 111.991362 79.022681 
L 112.457816 78.953218 
L 113.857178 77.804006 
L 114.323632 77.795935 
L 115.25654 78.507481 
L 115.722994 78.658497 
L 116.655902 78.718121 
L 117.122356 78.479185 
L 117.58881 78.44047 
L 118.521718 78.887728 
L 119.454626 79.214842 
L 120.387534 79.074043 
L 121.320442 79.860114 
L 121.786896 79.685874 
L 122.25335 79.919171 
L 123.186258 79.963279 
L 123.652712 80.104594 
L 124.119166 80.107699 
L 124.58562 79.981438 
L 126.451436 80.386525 
L 127.384344 80.449688 
L 128.317252 80.313578 
L 128.783706 80.44129 
L 129.25016 79.936474 
L 130.649521 79.502279 
L 132.048883 79.481506 
L 132.515337 79.542295 
L 132.981791 79.049564 
L 133.448245 78.870332 
L 133.914699 79.583113 
L 134.847607 80.094413 
L 135.314061 80.787374 
L 136.713423 80.80122 
L 137.179877 80.606796 
L 137.646331 80.747199 
L 138.112785 80.488832 
L 138.579239 80.033544 
L 139.045693 80.119208 
L 139.978601 79.674968 
L 140.911509 79.087001 
L 141.377963 79.005756 
L 141.844417 78.353097 
L 142.310871 77.921765 
L 142.777325 77.930993 
L 143.243779 78.524718 
L 143.710233 78.444608 
L 144.176687 78.064914 
L 144.643141 77.46783 
L 145.109595 77.57061 
L 146.508957 77.235131 
L 146.975411 77.194958 
L 147.441865 77.037121 
L 147.908319 77.027723 
L 148.374773 77.148826 
L 148.841227 76.514352 
L 149.774135 76.253843 
L 150.240589 75.742694 
L 151.173497 75.727951 
L 152.572859 74.84637 
L 153.039313 75.0316 
L 153.972221 74.494184 
L 154.438675 74.846312 
L 155.371583 74.740345 
L 156.304491 73.398666 
L 157.703853 72.568457 
L 158.170307 71.877864 
L 158.636761 71.714442 
L 160.502577 73.082783 
L 160.969031 72.763848 
L 161.435485 72.710579 
L 161.901939 73.097699 
L 162.368393 73.004585 
L 162.834847 72.181289 
L 163.301301 72.455141 
L 164.700663 72.331465 
L 165.167117 71.840179 
L 165.633571 71.977936 
L 166.566479 72.62576 
L 167.032933 72.520848 
L 167.499387 72.297732 
L 167.96584 72.441262 
L 168.432294 72.937903 
L 168.898748 72.661225 
L 169.365202 71.773846 
L 169.831656 71.774082 
L 170.764564 71.337827 
L 171.231018 70.796014 
L 172.163926 70.600868 
L 172.63038 70.673593 
L 173.096834 70.544485 
L 173.563288 70.103779 
L 174.029742 69.509884 
L 174.496196 69.14891 
L 174.96265 69.209274 
L 175.429104 69.499643 
L 175.895558 69.359102 
L 176.362012 69.830167 
L 176.828466 70.141328 
L 177.29492 69.801967 
L 178.227828 70.283802 
L 179.160736 69.544959 
L 180.093644 69.537084 
L 181.95946 69.419132 
L 182.425914 69.207186 
L 182.892368 68.862665 
L 183.825276 69.061881 
L 185.224638 69.449744 
L 185.691092 69.6662 
L 186.624 69.216167 
L 187.090454 69.492903 
L 187.556908 69.387457 
L 188.023362 69.638828 
L 188.489816 69.408302 
L 189.422724 69.676021 
L 189.889178 69.648048 
L 190.355632 69.053193 
L 190.822086 69.163968 
L 191.28854 69.097108 
L 192.221448 69.44358 
L 192.687902 69.336492 
L 193.154356 70.083133 
L 193.62081 70.366292 
L 194.087264 70.478462 
L 194.553718 70.192506 
L 195.020172 70.794084 
L 195.486626 70.407215 
L 195.95308 70.560038 
L 196.419534 70.839636 
L 196.885988 70.762289 
L 197.352442 71.09034 
L 197.818896 70.781793 
L 198.751804 71.270744 
L 199.218258 70.627644 
L 200.61762 69.782782 
L 202.016982 68.716714 
L 202.483436 68.011513 
L 202.94989 68.017845 
L 204.815706 67.202424 
L 206.215067 67.152178 
L 207.147975 66.6293 
L 207.614429 66.4529 
L 208.080883 66.669488 
L 208.547337 66.40582 
L 209.013791 66.400629 
L 209.480245 65.981474 
L 209.946699 66.061575 
L 210.413153 65.441786 
L 210.879607 65.150201 
L 211.346061 64.692947 
L 211.812515 64.536012 
L 212.278969 63.789587 
L 212.745423 63.608431 
L 213.678331 63.974636 
L 214.144785 64.475013 
L 214.611239 64.602026 
L 215.544147 64.244209 
L 216.010601 63.437872 
L 216.477055 63.556699 
L 216.943509 63.392575 
L 217.409963 63.08127 
L 217.876417 63.223765 
L 218.809325 62.159857 
L 219.275779 61.964216 
L 219.742233 61.581872 
L 220.675141 61.7815 
L 221.141595 61.579794 
L 221.608049 61.629939 
L 222.540957 61.293475 
L 223.007411 61.791121 
L 223.473865 61.683344 
L 223.940319 62.22212 
L 224.406773 61.829245 
L 224.873227 62.046843 
L 225.806135 61.633947 
L 226.272589 61.773349 
L 226.739043 61.334452 
L 227.205497 61.076575 
L 228.138405 61.258295 
L 228.604859 61.012514 
L 229.071313 61.04491 
L 229.537767 60.948659 
L 230.004221 60.641214 
L 230.937129 60.620293 
L 231.403583 60.799452 
L 231.870037 60.460582 
L 232.336491 60.602052 
L 232.802945 61.008348 
L 233.735853 60.238655 
L 234.668761 60.145995 
L 235.135215 59.846445 
L 237.467485 60.001786 
L 237.933939 59.363682 
L 238.400393 59.383291 
L 238.866847 58.471372 
L 239.333301 58.005655 
L 241.665571 57.638613 
L 242.132025 58.01579 
L 243.064933 58.19519 
L 243.531387 57.598794 
L 243.99784 57.662532 
L 244.464294 57.272494 
L 244.930748 57.333348 
L 246.33011 56.273574 
L 246.796564 56.431097 
L 247.263018 56.428238 
L 247.729472 56.826931 
L 248.195926 56.765151 
L 248.66238 56.917652 
L 249.128834 57.252218 
L 249.595288 57.165407 
L 250.061742 56.907742 
L 250.528196 57.056448 
L 250.99465 57.59593 
L 251.461104 57.550768 
L 252.860466 58.600964 
L 253.32692 59.152044 
L 253.793374 59.267427 
L 254.259828 59.055626 
L 254.726282 59.295719 
L 255.192736 58.54467 
L 255.65919 58.402206 
L 256.125644 58.121023 
L 256.592098 58.18217 
L 257.058552 57.971042 
L 257.525006 57.997821 
L 259.390822 58.592103 
L 259.857276 59.009508 
L 260.32373 59.591374 
L 260.790184 59.870425 
L 262.656 62.379642 
L 263.122454 62.65151 
L 263.588908 63.084776 
L 264.055362 63.833483 
L 264.521816 63.860197 
L 264.98827 63.679883 
L 265.454724 64.178387 
L 265.921178 64.265964 
L 266.387632 64.49319 
L 267.32054 64.242707 
L 268.253448 64.538511 
L 269.65281 65.811505 
L 270.119264 65.882274 
L 270.585718 65.802409 
L 271.052172 65.588958 
L 271.518626 65.705494 
L 271.98508 65.491321 
L 272.917988 65.844659 
L 273.384442 65.68261 
L 273.850896 65.921705 
L 274.31735 65.806702 
L 274.783804 65.92376 
L 275.250258 66.578393 
L 275.716712 66.773201 
L 276.183166 67.152407 
L 276.64962 67.332754 
L 277.116074 67.339029 
L 278.048982 68.120895 
L 278.515436 68.174261 
L 278.98189 67.983932 
L 279.914798 68.571508 
L 280.847706 69.93443 
L 281.31416 70.263555 
L 281.780613 70.849676 
L 282.247067 71.149503 
L 282.713521 71.230957 
L 283.179975 71.695129 
L 283.646429 72.443438 
L 284.112883 73.413003 
L 284.579337 73.882645 
L 286.445153 74.739721 
L 286.911607 75.504772 
L 287.844515 75.62583 
L 288.310969 75.310256 
L 289.710331 75.789023 
L 290.176785 75.79449 
L 290.643239 75.610538 
L 291.109693 75.21572 
L 292.042601 75.043076 
L 293.441963 75.756348 
L 293.908417 75.675921 
L 294.374871 76.170928 
L 296.240687 76.297822 
L 296.707141 76.227045 
L 297.640049 75.66666 
L 298.106503 75.552194 
L 299.039411 75.646892 
L 299.505865 76.442097 
L 300.438773 77.181165 
L 301.838135 77.182007 
L 302.304589 76.99207 
L 302.771043 77.088314 
L 303.237497 76.753183 
L 305.569767 76.761716 
L 306.036221 76.527333 
L 308.368491 76.208019 
L 308.834945 75.963804 
L 309.301399 76.256305 
L 309.767853 75.902608 
L 310.234307 75.910196 
L 311.167215 76.350504 
L 311.633669 76.401236 
L 312.100123 76.782319 
L 312.566577 76.536272 
L 313.033031 76.696364 
L 315.831755 76.35284 
L 316.298209 76.037856 
L 317.231117 76.543234 
L 317.697571 76.721415 
L 318.630479 76.056946 
L 319.096933 76.103721 
L 319.563387 76.599529 
L 320.02984 76.623843 
L 320.496294 76.889552 
L 321.895656 76.772073 
L 322.828564 76.365913 
L 323.761472 76.63953 
L 324.69438 76.63742 
L 326.093742 76.629157 
L 327.02665 76.524307 
L 327.493104 76.679135 
L 327.959558 76.405164 
L 328.892466 76.487536 
L 329.35892 77.057104 
L 330.758282 77.949419 
L 331.224736 77.852805 
L 331.69119 77.613071 
L 332.157644 77.983861 
L 332.624098 77.926739 
L 333.557006 77.448832 
L 334.489914 77.566816 
L 334.956368 77.958364 
L 335.422822 78.093658 
L 335.889276 78.489243 
L 336.35573 78.584316 
L 337.288638 78.040345 
L 337.755092 78.226109 
L 338.221546 78.15184 
L 338.688 77.478555 
L 339.154454 77.299478 
L 339.620908 77.456467 
L 340.553816 76.343686 
L 341.02027 75.766599 
L 341.486724 75.636202 
L 341.953178 75.209409 
L 342.419632 75.089554 
L 342.886086 74.835052 
L 343.35254 74.730989 
L 344.285448 74.996571 
L 345.218356 74.936852 
L 345.68481 74.330884 
L 346.617718 73.717358 
L 347.084172 72.537348 
L 347.550626 72.014302 
L 348.01708 71.746949 
L 349.416442 71.796902 
L 349.882896 72.078766 
L 350.815804 72.09851 
L 351.748712 72.050276 
L 352.215166 72.333152 
L 352.68162 72.469834 
L 353.148074 72.356246 
L 353.614528 72.493975 
L 354.080982 72.878221 
L 354.547436 73.072383 
L 355.946798 73.094303 
L 356.413252 73.422014 
L 356.879706 73.296055 
L 357.34616 74.177146 
L 357.812613 74.503261 
L 358.279067 75.021983 
L 358.745521 75.224912 
L 359.211975 76.506687 
L 360.144883 77.667811 
L 362.477153 81.322343 
L 363.410061 81.691988 
L 363.876515 82.750532 
L 364.342969 82.690655 
L 364.809423 82.444573 
L 365.275877 82.521741 
L 365.742331 82.825052 
L 366.208785 83.328542 
L 366.675239 82.80062 
L 367.141693 83.108892 
L 367.608147 82.925328 
L 368.074601 83.121914 
L 368.541055 82.577947 
L 369.007509 82.854417 
L 369.940417 82.825623 
L 370.406871 82.575663 
L 371.339779 83.140751 
L 372.272687 83.101644 
L 372.739141 82.8 
L 372.739141 82.8 
" style="fill:none;stroke:#1f77b4;stroke-linecap:square;stroke-width:1.5;"/>
   </g>
   <g id="line2d_16">
    <path clip-path="url(#p2d9ea6c70b)" d="M 34.56 82.8 
L 414.72 82.8 
" style="fill:none;stroke:#000000;stroke-dasharray:1.5,2.475;stroke-dashoffset:0;stroke-width:1.5;"/>
   </g>
   <g id="patch_3">
    <path d="M 34.56 162 
L 34.56 3.6 
" style="fill:none;stroke:#000000;stroke-linecap:square;stroke-linejoin:miter;stroke-width:0.8;"/>
   </g>
   <g id="patch_4">
    <path d="M 414.72 162 
L 414.72 3.6 
" style="fill:none;stroke:#000000;stroke-linecap:square;stroke-linejoin:miter;stroke-width:0.8;"/>
   </g>
   <g id="patch_5">
    <path d="M 34.56 162 
L 414.72 162 
" style="fill:none;stroke:#000000;stroke-linecap:square;stroke-linejoin:miter;stroke-width:0.8;"/>
   </g>
   <g id="patch_6">
    <path d="M 34.56 3.6 
L 414.72 3.6 
" style="fill:none;stroke:#000000;stroke-linecap:square;stroke-linejoin:miter;stroke-width:0.8;"/>
   </g>
  </g>
 </g>
 <defs>
  <clipPath id="p2d9ea6c70b">
   <rect height="158.4" width="380.16" x="34.56" y="3.6"/>
  </clipPath>
 </defs>
</svg>
