<?xml version="1.0" encoding="utf-8" standalone="no"?>
<!DOCTYPE svg PUBLIC "-//W3C//DTD SVG 1.1//EN"
  "http://www.w3.org/Graphics/SVG/1.1/DTD/svg11.dtd">
<svg height="180pt" version="1.1" viewBox="0 0 432 180" width="432pt" xmlns="http://www.w3.org/2000/svg" xmlns:xlink="http://www.w3.org/1999/xlink">
 <metadata>
  <rdf:RDF xmlns:cc="http://creativecommons.org/ns#" xmlns:dc="http://purl.org/dc/elements/1.1/" xmlns:rdf="http://www.w3.org/1999/02/22-rdf-syntax-ns#">
   <cc:Work>
    <dc:type rdf:resource="http://purl.org/dc/dcmitype/StillImage"/>
    <dc:date>2021-08-10T10:27:39.399321</dc:date>
    <dc:format>image/svg+xml</dc:format>
    <dc:creator>
     <cc:Agent>
      <dc:title>Matplotlib v3.4.2, https://matplotlib.org/</dc:title>
     </cc:Agent>
    </dc:creator>
   </cc:Work>
  </rdf:RDF>
 </metadata>
 <defs>
  <style type="text/css">*{stroke-linecap:butt;stroke-linejoin:round;}</style>
 </defs>
 <g id="figure_1">
  <g id="patch_1">
   <path d="M 0 180 
L 432 180 
L 432 0 
L 0 0 
z
" style="fill:#ffffff;"/>
  </g>
  <g id="axes_1">
   <g id="patch_2">
    <path d="M 34.56 162 
L 414.72 162 
L 414.72 3.6 
L 34.56 3.6 
z
" style="fill:#ffffff;"/>
   </g>
   <g id="PolyCollection_1">
    <defs>
     <path d="M 98.037551 -98.035774 
L 98.037551 -96.364226 
L 98.742857 -95.535418 
L 99.448163 -94.711239 
L 100.153469 -93.89169 
L 100.858776 -93.076772 
L 101.564082 -92.266484 
L 102.269388 -91.460826 
L 102.974694 -90.659799 
L 103.68 -89.863402 
L 104.385306 -89.071634 
L 105.090612 -88.284498 
L 105.795918 -87.501991 
L 106.501224 -86.724114 
L 107.206531 -85.950868 
L 107.911837 -85.182252 
L 108.617143 -84.418266 
L 109.322449 -83.658911 
L 110.027755 -82.904185 
L 110.733061 -82.15409 
L 111.438367 -81.408625 
L 112.143673 -80.66779 
L 112.84898 -79.931586 
L 113.554286 -79.200012 
L 114.259592 -78.473067 
L 114.964898 -77.750754 
L 115.670204 -77.03307 
L 116.37551 -76.320016 
L 117.080816 -75.611593 
L 117.786122 -74.9078 
L 118.491429 -74.208637 
L 119.196735 -73.514105 
L 119.902041 -72.824203 
L 120.607347 -72.13893 
L 121.312653 -71.458288 
L 122.017959 -70.782277 
L 122.723265 -70.110895 
L 123.428571 -69.444144 
L 124.133878 -68.782023 
L 124.839184 -68.124532 
L 125.54449 -67.471672 
L 126.249796 -66.823441 
L 126.955102 -66.179841 
L 127.660408 -65.540871 
L 128.365714 -64.906531 
L 129.07102 -64.276822 
L 129.776327 -63.651742 
L 130.481633 -63.031293 
L 131.186939 -62.415474 
L 131.892245 -61.804286 
L 132.597551 -61.197727 
L 133.302857 -60.595799 
L 134.008163 -59.998501 
L 134.713469 -59.405833 
L 135.418776 -58.817796 
L 136.124082 -58.234388 
L 136.829388 -57.655611 
L 137.534694 -57.081464 
L 138.24 -56.511948 
L 138.945306 -55.947061 
L 139.650612 -55.386805 
L 140.355918 -54.831179 
L 141.061224 -54.280183 
L 141.766531 -53.733817 
L 142.471837 -53.192082 
L 143.177143 -52.654977 
L 143.882449 -52.122502 
L 144.587755 -51.594657 
L 145.293061 -51.071443 
L 145.998367 -50.552858 
L 146.703673 -50.038904 
L 147.40898 -49.52958 
L 148.114286 -49.024887 
L 148.819592 -48.524823 
L 149.524898 -48.02939 
L 150.230204 -47.538587 
L 150.93551 -47.052414 
L 151.640816 -46.570871 
L 152.346122 -46.093959 
L 153.051429 -45.621677 
L 153.756735 -45.154025 
L 154.462041 -44.691003 
L 155.167347 -44.232612 
L 155.872653 -43.778851 
L 156.577959 -43.329719 
L 157.283265 -42.885219 
L 157.988571 -42.445348 
L 158.693878 -42.010108 
L 159.399184 -41.579497 
L 160.10449 -41.153517 
L 160.809796 -40.732168 
L 161.515102 -40.315448 
L 162.220408 -39.903359 
L 162.925714 -39.4959 
L 163.63102 -39.093071 
L 164.336327 -38.694872 
L 165.041633 -38.301304 
L 165.746939 -37.912365 
L 166.452245 -37.528057 
L 167.157551 -37.14838 
L 167.862857 -36.773332 
L 168.568163 -36.402915 
L 169.273469 -36.037128 
L 169.978776 -35.675971 
L 170.684082 -35.319444 
L 171.389388 -34.967547 
L 172.094694 -34.620281 
L 172.8 -34.277645 
L 173.505306 -33.939639 
L 174.210612 -33.606264 
L 174.915918 -33.277518 
L 175.621224 -32.953403 
L 176.326531 -32.633918 
L 177.031837 -32.319063 
L 177.737143 -32.008839 
L 178.442449 -31.703244 
L 179.147755 -31.40228 
L 179.853061 -31.105946 
L 180.558367 -30.814243 
L 181.263673 -30.527169 
L 181.96898 -30.244726 
L 182.674286 -29.966913 
L 183.379592 -29.69373 
L 184.084898 -29.425177 
L 184.790204 -29.161255 
L 185.49551 -28.901963 
L 186.200816 -28.647301 
L 186.906122 -28.397269 
L 187.611429 -28.151868 
L 188.316735 -27.911096 
L 189.022041 -27.674955 
L 189.727347 -27.443445 
L 190.432653 -27.216564 
L 191.137959 -26.994313 
L 191.843265 -26.776693 
L 192.548571 -26.563703 
L 193.253878 -26.355344 
L 193.959184 -26.151614 
L 194.66449 -25.952515 
L 195.369796 -25.758046 
L 196.075102 -25.568207 
L 196.780408 -25.382998 
L 197.485714 -25.202419 
L 198.19102 -25.026471 
L 198.896327 -24.855153 
L 199.601633 -24.688465 
L 200.306939 -24.526408 
L 201.012245 -24.36898 
L 201.717551 -24.216183 
L 202.422857 -24.068016 
L 203.128163 -23.92448 
L 203.833469 -23.785573 
L 204.538776 -23.651297 
L 205.244082 -23.521651 
L 205.949388 -23.396635 
L 206.654694 -23.276249 
L 207.36 -23.160494 
L 208.065306 -23.049368 
L 208.770612 -22.942874 
L 209.475918 -22.841009 
L 210.181224 -22.743774 
L 210.886531 -22.65117 
L 211.591837 -22.563196 
L 212.297143 -22.479852 
L 213.002449 -22.401138 
L 213.707755 -22.327055 
L 214.413061 -22.257601 
L 215.118367 -22.192778 
L 215.823673 -22.132586 
L 216.52898 -22.077023 
L 217.234286 -22.026091 
L 217.939592 -21.979788 
L 218.644898 -21.938116 
L 219.350204 -21.901075 
L 220.05551 -21.868663 
L 220.760816 -21.840882 
L 221.466122 -21.817731 
L 222.171429 -21.79921 
L 222.876735 -21.785319 
L 223.582041 -21.776059 
L 224.287347 -21.771429 
L 224.992653 -21.771429 
L 225.697959 -21.776059 
L 226.403265 -21.785319 
L 227.108571 -21.79921 
L 227.813878 -21.817731 
L 228.519184 -21.840882 
L 229.22449 -21.868663 
L 229.929796 -21.901075 
L 230.635102 -21.938116 
L 231.340408 -21.979788 
L 232.045714 -22.026091 
L 232.75102 -22.077023 
L 233.456327 -22.132586 
L 234.161633 -22.192778 
L 234.866939 -22.257601 
L 235.572245 -22.327055 
L 236.277551 -22.401138 
L 236.982857 -22.479852 
L 237.688163 -22.563196 
L 238.393469 -22.65117 
L 239.098776 -22.743774 
L 239.804082 -22.841009 
L 240.509388 -22.942874 
L 241.214694 -23.049368 
L 241.92 -23.160494 
L 242.625306 -23.276249 
L 243.330612 -23.396635 
L 244.035918 -23.521651 
L 244.741224 -23.651297 
L 245.446531 -23.785573 
L 246.151837 -23.92448 
L 246.857143 -24.068016 
L 247.562449 -24.216183 
L 248.267755 -24.36898 
L 248.973061 -24.526408 
L 249.678367 -24.688465 
L 250.383673 -24.855153 
L 251.08898 -25.026471 
L 251.794286 -25.202419 
L 252.499592 -25.382998 
L 253.204898 -25.568207 
L 253.910204 -25.758046 
L 254.61551 -25.952515 
L 255.320816 -26.151614 
L 256.026122 -26.355344 
L 256.731429 -26.563703 
L 257.436735 -26.776693 
L 258.142041 -26.994313 
L 258.847347 -27.216564 
L 259.552653 -27.443445 
L 260.257959 -27.674955 
L 260.963265 -27.911096 
L 261.668571 -28.151868 
L 262.373878 -28.397269 
L 263.079184 -28.647301 
L 263.78449 -28.901963 
L 264.489796 -29.161255 
L 265.195102 -29.425177 
L 265.900408 -29.69373 
L 266.605714 -29.966913 
L 267.31102 -30.244726 
L 268.016327 -30.527169 
L 268.721633 -30.814243 
L 269.426939 -31.105946 
L 270.132245 -31.40228 
L 270.837551 -31.703244 
L 271.542857 -32.008839 
L 272.248163 -32.319063 
L 272.953469 -32.633918 
L 273.658776 -32.953403 
L 274.364082 -33.277518 
L 275.069388 -33.606264 
L 275.774694 -33.939639 
L 276.48 -34.277645 
L 277.185306 -34.620281 
L 277.890612 -34.967547 
L 278.595918 -35.319444 
L 279.301224 -35.675971 
L 280.006531 -36.037128 
L 280.711837 -36.402915 
L 281.417143 -36.773332 
L 282.122449 -37.14838 
L 282.827755 -37.528057 
L 283.533061 -37.912365 
L 284.238367 -38.301304 
L 284.943673 -38.694872 
L 285.64898 -39.093071 
L 286.354286 -39.4959 
L 287.059592 -39.903359 
L 287.764898 -40.315448 
L 288.470204 -40.732168 
L 289.17551 -41.153517 
L 289.880816 -41.579497 
L 290.586122 -42.010108 
L 291.291429 -42.445348 
L 291.996735 -42.885219 
L 292.702041 -43.329719 
L 293.407347 -43.778851 
L 294.112653 -44.232612 
L 294.817959 -44.691003 
L 295.523265 -45.154025 
L 296.228571 -45.621677 
L 296.933878 -46.093959 
L 297.639184 -46.570871 
L 298.34449 -47.052414 
L 299.049796 -47.538587 
L 299.755102 -48.02939 
L 300.460408 -48.524823 
L 301.165714 -49.024887 
L 301.87102 -49.52958 
L 302.576327 -50.038904 
L 303.281633 -50.552858 
L 303.986939 -51.071443 
L 304.692245 -51.594657 
L 305.397551 -52.122502 
L 306.102857 -52.654977 
L 306.808163 -53.192082 
L 307.513469 -53.733817 
L 308.218776 -54.280183 
L 308.924082 -54.831179 
L 309.629388 -55.386805 
L 310.334694 -55.947061 
L 311.04 -56.511948 
L 311.745306 -57.081464 
L 312.450612 -57.655611 
L 313.155918 -58.234388 
L 313.861224 -58.817796 
L 314.566531 -59.405833 
L 315.271837 -59.998501 
L 315.977143 -60.595799 
L 316.682449 -61.197727 
L 317.387755 -61.804286 
L 318.093061 -62.415474 
L 318.798367 -63.031293 
L 319.503673 -63.651742 
L 320.20898 -64.276822 
L 320.914286 -64.906531 
L 321.619592 -65.540871 
L 322.324898 -66.179841 
L 323.030204 -66.823441 
L 323.73551 -67.471672 
L 324.440816 -68.124532 
L 325.146122 -68.782023 
L 325.851429 -69.444144 
L 326.556735 -70.110895 
L 327.262041 -70.782277 
L 327.967347 -71.458288 
L 328.672653 -72.13893 
L 329.377959 -72.824203 
L 330.083265 -73.514105 
L 330.788571 -74.208637 
L 331.493878 -74.9078 
L 332.199184 -75.611593 
L 332.90449 -76.320016 
L 333.609796 -77.03307 
L 334.315102 -77.750754 
L 335.020408 -78.473067 
L 335.725714 -79.200012 
L 336.43102 -79.931586 
L 337.136327 -80.66779 
L 337.841633 -81.408625 
L 338.546939 -82.15409 
L 339.252245 -82.904185 
L 339.957551 -83.658911 
L 340.662857 -84.418266 
L 341.368163 -85.182252 
L 342.073469 -85.950868 
L 342.778776 -86.724114 
L 343.484082 -87.501991 
L 344.189388 -88.284498 
L 344.894694 -89.071634 
L 345.6 -89.863402 
L 346.305306 -90.659799 
L 347.010612 -91.460826 
L 347.715918 -92.266484 
L 348.421224 -93.076772 
L 349.126531 -93.89169 
L 349.831837 -94.711239 
L 350.537143 -95.535418 
L 351.242449 -96.364226 
L 351.242449 -98.035774 
L 351.242449 -98.035774 
L 350.537143 -98.864582 
L 349.831837 -99.688761 
L 349.126531 -100.50831 
L 348.421224 -101.323228 
L 347.715918 -102.133516 
L 347.010612 -102.939174 
L 346.305306 -103.740201 
L 345.6 -104.536598 
L 344.894694 -105.328366 
L 344.189388 -106.115502 
L 343.484082 -106.898009 
L 342.778776 -107.675886 
L 342.073469 -108.449132 
L 341.368163 -109.217748 
L 340.662857 -109.981734 
L 339.957551 -110.741089 
L 339.252245 -111.495815 
L 338.546939 -112.24591 
L 337.841633 -112.991375 
L 337.136327 -113.73221 
L 336.43102 -114.468414 
L 335.725714 -115.199988 
L 335.020408 -115.926933 
L 334.315102 -116.649246 
L 333.609796 -117.36693 
L 332.90449 -118.079984 
L 332.199184 -118.788407 
L 331.493878 -119.4922 
L 330.788571 -120.191363 
L 330.083265 -120.885895 
L 329.377959 -121.575797 
L 328.672653 -122.26107 
L 327.967347 -122.941712 
L 327.262041 -123.617723 
L 326.556735 -124.289105 
L 325.851429 -124.955856 
L 325.146122 -125.617977 
L 324.440816 -126.275468 
L 323.73551 -126.928328 
L 323.030204 -127.576559 
L 322.324898 -128.220159 
L 321.619592 -128.859129 
L 320.914286 -129.493469 
L 320.20898 -130.123178 
L 319.503673 -130.748258 
L 318.798367 -131.368707 
L 318.093061 -131.984526 
L 317.387755 -132.595714 
L 316.682449 -133.202273 
L 315.977143 -133.804201 
L 315.271837 -134.401499 
L 314.566531 -134.994167 
L 313.861224 -135.582204 
L 313.155918 -136.165612 
L 312.450612 -136.744389 
L 311.745306 -137.318536 
L 311.04 -137.888052 
L 310.334694 -138.452939 
L 309.629388 -139.013195 
L 308.924082 -139.568821 
L 308.218776 -140.119817 
L 307.513469 -140.666183 
L 306.808163 -141.207918 
L 306.102857 -141.745023 
L 305.397551 -142.277498 
L 304.692245 -142.805343 
L 303.986939 -143.328557 
L 303.281633 -143.847142 
L 302.576327 -144.361096 
L 301.87102 -144.87042 
L 301.165714 -145.375113 
L 300.460408 -145.875177 
L 299.755102 -146.37061 
L 299.049796 -146.861413 
L 298.34449 -147.347586 
L 297.639184 -147.829129 
L 296.933878 -148.306041 
L 296.228571 -148.778323 
L 295.523265 -149.245975 
L 294.817959 -149.708997 
L 294.112653 -150.167388 
L 293.407347 -150.621149 
L 292.702041 -151.070281 
L 291.996735 -151.514781 
L 291.291429 -151.954652 
L 290.586122 -152.389892 
L 289.880816 -152.820503 
L 289.17551 -153.246483 
L 288.470204 -153.667832 
L 287.764898 -154.084552 
L 287.059592 -154.496641 
L 286.354286 -154.9041 
L 285.64898 -155.306929 
L 284.943673 -155.705128 
L 284.238367 -156.098696 
L 283.533061 -156.487635 
L 282.827755 -156.871943 
L 282.122449 -157.25162 
L 281.417143 -157.626668 
L 280.711837 -157.997085 
L 280.006531 -158.362872 
L 279.301224 -158.724029 
L 278.595918 -159.080556 
L 277.890612 -159.432453 
L 277.185306 -159.779719 
L 276.48 -160.122355 
L 275.774694 -160.460361 
L 275.069388 -160.793736 
L 274.364082 -161.122482 
L 273.658776 -161.446597 
L 272.953469 -161.766082 
L 272.248163 -162.080937 
L 271.542857 -162.391161 
L 270.837551 -162.696756 
L 270.132245 -162.99772 
L 269.426939 -163.294054 
L 268.721633 -163.585757 
L 268.016327 -163.872831 
L 267.31102 -164.155274 
L 266.605714 -164.433087 
L 265.900408 -164.70627 
L 265.195102 -164.974823 
L 264.489796 -165.238745 
L 263.78449 -165.498037 
L 263.079184 -165.752699 
L 262.373878 -166.002731 
L 261.668571 -166.248132 
L 260.963265 -166.488904 
L 260.257959 -166.725045 
L 259.552653 -166.956555 
L 258.847347 -167.183436 
L 258.142041 -167.405687 
L 257.436735 -167.623307 
L 256.731429 -167.836297 
L 256.026122 -168.044656 
L 255.320816 -168.248386 
L 254.61551 -168.447485 
L 253.910204 -168.641954 
L 253.204898 -168.831793 
L 252.499592 -169.017002 
L 251.794286 -169.197581 
L 251.08898 -169.373529 
L 250.383673 -169.544847 
L 249.678367 -169.711535 
L 248.973061 -169.873592 
L 248.267755 -170.03102 
L 247.562449 -170.183817 
L 246.857143 -170.331984 
L 246.151837 -170.47552 
L 245.446531 -170.614427 
L 244.741224 -170.748703 
L 244.035918 -170.878349 
L 243.330612 -171.003365 
L 242.625306 -171.123751 
L 241.92 -171.239506 
L 241.214694 -171.350632 
L 240.509388 -171.457126 
L 239.804082 -171.558991 
L 239.098776 -171.656226 
L 238.393469 -171.74883 
L 237.688163 -171.836804 
L 236.982857 -171.920148 
L 236.277551 -171.998862 
L 235.572245 -172.072945 
L 234.866939 -172.142399 
L 234.161633 -172.207222 
L 233.456327 -172.267414 
L 232.75102 -172.322977 
L 232.045714 -172.373909 
L 231.340408 -172.420212 
L 230.635102 -172.461884 
L 229.929796 -172.498925 
L 229.22449 -172.531337 
L 228.519184 -172.559118 
L 227.813878 -172.582269 
L 227.108571 -172.60079 
L 226.403265 -172.614681 
L 225.697959 -172.623941 
L 224.992653 -172.628571 
L 224.287347 -172.628571 
L 223.582041 -172.623941 
L 222.876735 -172.614681 
L 222.171429 -172.60079 
L 221.466122 -172.582269 
L 220.760816 -172.559118 
L 220.05551 -172.531337 
L 219.350204 -172.498925 
L 218.644898 -172.461884 
L 217.939592 -172.420212 
L 217.234286 -172.373909 
L 216.52898 -172.322977 
L 215.823673 -172.267414 
L 215.118367 -172.207222 
L 214.413061 -172.142399 
L 213.707755 -172.072945 
L 213.002449 -171.998862 
L 212.297143 -171.920148 
L 211.591837 -171.836804 
L 210.886531 -171.74883 
L 210.181224 -171.656226 
L 209.475918 -171.558991 
L 208.770612 -171.457126 
L 208.065306 -171.350632 
L 207.36 -171.239506 
L 206.654694 -171.123751 
L 205.949388 -171.003365 
L 205.244082 -170.878349 
L 204.538776 -170.748703 
L 203.833469 -170.614427 
L 203.128163 -170.47552 
L 202.422857 -170.331984 
L 201.717551 -170.183817 
L 201.012245 -170.03102 
L 200.306939 -169.873592 
L 199.601633 -169.711535 
L 198.896327 -169.544847 
L 198.19102 -169.373529 
L 197.485714 -169.197581 
L 196.780408 -169.017002 
L 196.075102 -168.831793 
L 195.369796 -168.641954 
L 194.66449 -168.447485 
L 193.959184 -168.248386 
L 193.253878 -168.044656 
L 192.548571 -167.836297 
L 191.843265 -167.623307 
L 191.137959 -167.405687 
L 190.432653 -167.183436 
L 189.727347 -166.956555 
L 189.022041 -166.725045 
L 188.316735 -166.488904 
L 187.611429 -166.248132 
L 186.906122 -166.002731 
L 186.200816 -165.752699 
L 185.49551 -165.498037 
L 184.790204 -165.238745 
L 184.084898 -164.974823 
L 183.379592 -164.70627 
L 182.674286 -164.433087 
L 181.96898 -164.155274 
L 181.263673 -163.872831 
L 180.558367 -163.585757 
L 179.853061 -163.294054 
L 179.147755 -162.99772 
L 178.442449 -162.696756 
L 177.737143 -162.391161 
L 177.031837 -162.080937 
L 176.326531 -161.766082 
L 175.621224 -161.446597 
L 174.915918 -161.122482 
L 174.210612 -160.793736 
L 173.505306 -160.460361 
L 172.8 -160.122355 
L 172.094694 -159.779719 
L 171.389388 -159.432453 
L 170.684082 -159.080556 
L 169.978776 -158.724029 
L 169.273469 -158.362872 
L 168.568163 -157.997085 
L 167.862857 -157.626668 
L 167.157551 -157.25162 
L 166.452245 -156.871943 
L 165.746939 -156.487635 
L 165.041633 -156.098696 
L 164.336327 -155.705128 
L 163.63102 -155.306929 
L 162.925714 -154.9041 
L 162.220408 -154.496641 
L 161.515102 -154.084552 
L 160.809796 -153.667832 
L 160.10449 -153.246483 
L 159.399184 -152.820503 
L 158.693878 -152.389892 
L 157.988571 -151.954652 
L 157.283265 -151.514781 
L 156.577959 -151.070281 
L 155.872653 -150.621149 
L 155.167347 -150.167388 
L 154.462041 -149.708997 
L 153.756735 -149.245975 
L 153.051429 -148.778323 
L 152.346122 -148.306041 
L 151.640816 -147.829129 
L 150.93551 -147.347586 
L 150.230204 -146.861413 
L 149.524898 -146.37061 
L 148.819592 -145.875177 
L 148.114286 -145.375113 
L 147.40898 -144.87042 
L 146.703673 -144.361096 
L 145.998367 -143.847142 
L 145.293061 -143.328557 
L 144.587755 -142.805343 
L 143.882449 -142.277498 
L 143.177143 -141.745023 
L 142.471837 -141.207918 
L 141.766531 -140.666183 
L 141.061224 -140.119817 
L 140.355918 -139.568821 
L 139.650612 -139.013195 
L 138.945306 -138.452939 
L 138.24 -137.888052 
L 137.534694 -137.318536 
L 136.829388 -136.744389 
L 136.124082 -136.165612 
L 135.418776 -135.582204 
L 134.713469 -134.994167 
L 134.008163 -134.401499 
L 133.302857 -133.804201 
L 132.597551 -133.202273 
L 131.892245 -132.595714 
L 131.186939 -131.984526 
L 130.481633 -131.368707 
L 129.776327 -130.748258 
L 129.07102 -130.123178 
L 128.365714 -129.493469 
L 127.660408 -128.859129 
L 126.955102 -128.220159 
L 126.249796 -127.576559 
L 125.54449 -126.928328 
L 124.839184 -126.275468 
L 124.133878 -125.617977 
L 123.428571 -124.955856 
L 122.723265 -124.289105 
L 122.017959 -123.617723 
L 121.312653 -122.941712 
L 120.607347 -122.26107 
L 119.902041 -121.575797 
L 119.196735 -120.885895 
L 118.491429 -120.191363 
L 117.786122 -119.4922 
L 117.080816 -118.788407 
L 116.37551 -118.079984 
L 115.670204 -117.36693 
L 114.964898 -116.649246 
L 114.259592 -115.926933 
L 113.554286 -115.199988 
L 112.84898 -114.468414 
L 112.143673 -113.73221 
L 111.438367 -112.991375 
L 110.733061 -112.24591 
L 110.027755 -111.495815 
L 109.322449 -110.741089 
L 108.617143 -109.981734 
L 107.911837 -109.217748 
L 107.206531 -108.449132 
L 106.501224 -107.675886 
L 105.795918 -106.898009 
L 105.090612 -106.115502 
L 104.385306 -105.328366 
L 103.68 -104.536598 
L 102.974694 -103.740201 
L 102.269388 -102.939174 
L 101.564082 -102.133516 
L 100.858776 -101.323228 
L 100.153469 -100.50831 
L 99.448163 -99.688761 
L 98.742857 -98.864582 
L 98.037551 -98.035774 
z
" id="m1ed318257f" style="stroke:#0000ff;stroke-opacity:0.1;"/>
    </defs>
    <g clip-path="url(#p04cfd05ec9)">
     <use style="fill:#0000ff;fill-opacity:0.1;stroke:#0000ff;stroke-opacity:0.1;" x="0" xlink:href="#m1ed318257f" y="180"/>
    </g>
   </g>
   <g id="matplotlib.axis_1">
    <g id="xtick_1">
     <g id="line2d_1">
      <defs>
       <path d="M 0 0 
L 0 3.5 
" id="m0ba61a5e25" style="stroke:#000000;stroke-width:0.8;"/>
      </defs>
      <g>
       <use style="stroke:#000000;stroke-width:0.8;" x="46.902857" xlink:href="#m0ba61a5e25" y="162"/>
      </g>
     </g>
     <g id="text_1">
      <!-- 1925 -->
      <g transform="translate(34.177857 176.598438)scale(0.1 -0.1)">
       <defs>
        <path d="M 794 531 
L 1825 531 
L 1825 4091 
L 703 3866 
L 703 4441 
L 1819 4666 
L 2450 4666 
L 2450 531 
L 3481 531 
L 3481 0 
L 794 0 
L 794 531 
z
" id="DejaVuSans-31" transform="scale(0.015625)"/>
        <path d="M 703 97 
L 703 672 
Q 941 559 1184 500 
Q 1428 441 1663 441 
Q 2288 441 2617 861 
Q 2947 1281 2994 2138 
Q 2813 1869 2534 1725 
Q 2256 1581 1919 1581 
Q 1219 1581 811 2004 
Q 403 2428 403 3163 
Q 403 3881 828 4315 
Q 1253 4750 1959 4750 
Q 2769 4750 3195 4129 
Q 3622 3509 3622 2328 
Q 3622 1225 3098 567 
Q 2575 -91 1691 -91 
Q 1453 -91 1209 -44 
Q 966 3 703 97 
z
M 1959 2075 
Q 2384 2075 2632 2365 
Q 2881 2656 2881 3163 
Q 2881 3666 2632 3958 
Q 2384 4250 1959 4250 
Q 1534 4250 1286 3958 
Q 1038 3666 1038 3163 
Q 1038 2656 1286 2365 
Q 1534 2075 1959 2075 
z
" id="DejaVuSans-39" transform="scale(0.015625)"/>
        <path d="M 1228 531 
L 3431 531 
L 3431 0 
L 469 0 
L 469 531 
Q 828 903 1448 1529 
Q 2069 2156 2228 2338 
Q 2531 2678 2651 2914 
Q 2772 3150 2772 3378 
Q 2772 3750 2511 3984 
Q 2250 4219 1831 4219 
Q 1534 4219 1204 4116 
Q 875 4013 500 3803 
L 500 4441 
Q 881 4594 1212 4672 
Q 1544 4750 1819 4750 
Q 2544 4750 2975 4387 
Q 3406 4025 3406 3419 
Q 3406 3131 3298 2873 
Q 3191 2616 2906 2266 
Q 2828 2175 2409 1742 
Q 1991 1309 1228 531 
z
" id="DejaVuSans-32" transform="scale(0.015625)"/>
        <path d="M 691 4666 
L 3169 4666 
L 3169 4134 
L 1269 4134 
L 1269 2991 
Q 1406 3038 1543 3061 
Q 1681 3084 1819 3084 
Q 2600 3084 3056 2656 
Q 3513 2228 3513 1497 
Q 3513 744 3044 326 
Q 2575 -91 1722 -91 
Q 1428 -91 1123 -41 
Q 819 9 494 109 
L 494 744 
Q 775 591 1075 516 
Q 1375 441 1709 441 
Q 2250 441 2565 725 
Q 2881 1009 2881 1497 
Q 2881 1984 2565 2268 
Q 2250 2553 1709 2553 
Q 1456 2553 1204 2497 
Q 953 2441 691 2322 
L 691 4666 
z
" id="DejaVuSans-35" transform="scale(0.015625)"/>
       </defs>
       <use xlink:href="#DejaVuSans-31"/>
       <use x="63.623047" xlink:href="#DejaVuSans-39"/>
       <use x="127.246094" xlink:href="#DejaVuSans-32"/>
       <use x="190.869141" xlink:href="#DejaVuSans-35"/>
      </g>
     </g>
    </g>
    <g id="xtick_2">
     <g id="line2d_2">
      <g>
       <use style="stroke:#000000;stroke-width:0.8;" x="89.221224" xlink:href="#m0ba61a5e25" y="162"/>
      </g>
     </g>
     <g id="text_2">
      <!-- 1930 -->
      <g transform="translate(76.496224 176.598438)scale(0.1 -0.1)">
       <defs>
        <path d="M 2597 2516 
Q 3050 2419 3304 2112 
Q 3559 1806 3559 1356 
Q 3559 666 3084 287 
Q 2609 -91 1734 -91 
Q 1441 -91 1130 -33 
Q 819 25 488 141 
L 488 750 
Q 750 597 1062 519 
Q 1375 441 1716 441 
Q 2309 441 2620 675 
Q 2931 909 2931 1356 
Q 2931 1769 2642 2001 
Q 2353 2234 1838 2234 
L 1294 2234 
L 1294 2753 
L 1863 2753 
Q 2328 2753 2575 2939 
Q 2822 3125 2822 3475 
Q 2822 3834 2567 4026 
Q 2313 4219 1838 4219 
Q 1578 4219 1281 4162 
Q 984 4106 628 3988 
L 628 4550 
Q 988 4650 1302 4700 
Q 1616 4750 1894 4750 
Q 2613 4750 3031 4423 
Q 3450 4097 3450 3541 
Q 3450 3153 3228 2886 
Q 3006 2619 2597 2516 
z
" id="DejaVuSans-33" transform="scale(0.015625)"/>
        <path d="M 2034 4250 
Q 1547 4250 1301 3770 
Q 1056 3291 1056 2328 
Q 1056 1369 1301 889 
Q 1547 409 2034 409 
Q 2525 409 2770 889 
Q 3016 1369 3016 2328 
Q 3016 3291 2770 3770 
Q 2525 4250 2034 4250 
z
M 2034 4750 
Q 2819 4750 3233 4129 
Q 3647 3509 3647 2328 
Q 3647 1150 3233 529 
Q 2819 -91 2034 -91 
Q 1250 -91 836 529 
Q 422 1150 422 2328 
Q 422 3509 836 4129 
Q 1250 4750 2034 4750 
z
" id="DejaVuSans-30" transform="scale(0.015625)"/>
       </defs>
       <use xlink:href="#DejaVuSans-31"/>
       <use x="63.623047" xlink:href="#DejaVuSans-39"/>
       <use x="127.246094" xlink:href="#DejaVuSans-33"/>
       <use x="190.869141" xlink:href="#DejaVuSans-30"/>
      </g>
     </g>
    </g>
    <g id="xtick_3">
     <g id="line2d_3">
      <g>
       <use style="stroke:#000000;stroke-width:0.8;" x="131.539592" xlink:href="#m0ba61a5e25" y="162"/>
      </g>
     </g>
     <g id="text_3">
      <!-- 1935 -->
      <g transform="translate(118.814592 176.598438)scale(0.1 -0.1)">
       <use xlink:href="#DejaVuSans-31"/>
       <use x="63.623047" xlink:href="#DejaVuSans-39"/>
       <use x="127.246094" xlink:href="#DejaVuSans-33"/>
       <use x="190.869141" xlink:href="#DejaVuSans-35"/>
      </g>
     </g>
    </g>
    <g id="xtick_4">
     <g id="line2d_4">
      <g>
       <use style="stroke:#000000;stroke-width:0.8;" x="173.857959" xlink:href="#m0ba61a5e25" y="162"/>
      </g>
     </g>
     <g id="text_4">
      <!-- 1940 -->
      <g transform="translate(161.132959 176.598438)scale(0.1 -0.1)">
       <defs>
        <path d="M 2419 4116 
L 825 1625 
L 2419 1625 
L 2419 4116 
z
M 2253 4666 
L 3047 4666 
L 3047 1625 
L 3713 1625 
L 3713 1100 
L 3047 1100 
L 3047 0 
L 2419 0 
L 2419 1100 
L 313 1100 
L 313 1709 
L 2253 4666 
z
" id="DejaVuSans-34" transform="scale(0.015625)"/>
       </defs>
       <use xlink:href="#DejaVuSans-31"/>
       <use x="63.623047" xlink:href="#DejaVuSans-39"/>
       <use x="127.246094" xlink:href="#DejaVuSans-34"/>
       <use x="190.869141" xlink:href="#DejaVuSans-30"/>
      </g>
     </g>
    </g>
    <g id="xtick_5">
     <g id="line2d_5">
      <g>
       <use style="stroke:#000000;stroke-width:0.8;" x="216.176327" xlink:href="#m0ba61a5e25" y="162"/>
      </g>
     </g>
     <g id="text_5">
      <!-- 1945 -->
      <g transform="translate(203.451327 176.598438)scale(0.1 -0.1)">
       <use xlink:href="#DejaVuSans-31"/>
       <use x="63.623047" xlink:href="#DejaVuSans-39"/>
       <use x="127.246094" xlink:href="#DejaVuSans-34"/>
       <use x="190.869141" xlink:href="#DejaVuSans-35"/>
      </g>
     </g>
    </g>
    <g id="xtick_6">
     <g id="line2d_6">
      <g>
       <use style="stroke:#000000;stroke-width:0.8;" x="258.494694" xlink:href="#m0ba61a5e25" y="162"/>
      </g>
     </g>
     <g id="text_6">
      <!-- 1950 -->
      <g transform="translate(245.769694 176.598438)scale(0.1 -0.1)">
       <use xlink:href="#DejaVuSans-31"/>
       <use x="63.623047" xlink:href="#DejaVuSans-39"/>
       <use x="127.246094" xlink:href="#DejaVuSans-35"/>
       <use x="190.869141" xlink:href="#DejaVuSans-30"/>
      </g>
     </g>
    </g>
    <g id="xtick_7">
     <g id="line2d_7">
      <g>
       <use style="stroke:#000000;stroke-width:0.8;" x="300.813061" xlink:href="#m0ba61a5e25" y="162"/>
      </g>
     </g>
     <g id="text_7">
      <!-- 1955 -->
      <g transform="translate(288.088061 176.598438)scale(0.1 -0.1)">
       <use xlink:href="#DejaVuSans-31"/>
       <use x="63.623047" xlink:href="#DejaVuSans-39"/>
       <use x="127.246094" xlink:href="#DejaVuSans-35"/>
       <use x="190.869141" xlink:href="#DejaVuSans-35"/>
      </g>
     </g>
    </g>
    <g id="xtick_8">
     <g id="line2d_8">
      <g>
       <use style="stroke:#000000;stroke-width:0.8;" x="343.131429" xlink:href="#m0ba61a5e25" y="162"/>
      </g>
     </g>
     <g id="text_8">
      <!-- 1960 -->
      <g transform="translate(330.406429 176.598438)scale(0.1 -0.1)">
       <defs>
        <path d="M 2113 2584 
Q 1688 2584 1439 2293 
Q 1191 2003 1191 1497 
Q 1191 994 1439 701 
Q 1688 409 2113 409 
Q 2538 409 2786 701 
Q 3034 994 3034 1497 
Q 3034 2003 2786 2293 
Q 2538 2584 2113 2584 
z
M 3366 4563 
L 3366 3988 
Q 3128 4100 2886 4159 
Q 2644 4219 2406 4219 
Q 1781 4219 1451 3797 
Q 1122 3375 1075 2522 
Q 1259 2794 1537 2939 
Q 1816 3084 2150 3084 
Q 2853 3084 3261 2657 
Q 3669 2231 3669 1497 
Q 3669 778 3244 343 
Q 2819 -91 2113 -91 
Q 1303 -91 875 529 
Q 447 1150 447 2328 
Q 447 3434 972 4092 
Q 1497 4750 2381 4750 
Q 2619 4750 2861 4703 
Q 3103 4656 3366 4563 
z
" id="DejaVuSans-36" transform="scale(0.015625)"/>
       </defs>
       <use xlink:href="#DejaVuSans-31"/>
       <use x="63.623047" xlink:href="#DejaVuSans-39"/>
       <use x="127.246094" xlink:href="#DejaVuSans-36"/>
       <use x="190.869141" xlink:href="#DejaVuSans-30"/>
      </g>
     </g>
    </g>
    <g id="xtick_9">
     <g id="line2d_9">
      <g>
       <use style="stroke:#000000;stroke-width:0.8;" x="385.449796" xlink:href="#m0ba61a5e25" y="162"/>
      </g>
     </g>
     <g id="text_9">
      <!-- 1965 -->
      <g transform="translate(372.724796 176.598438)scale(0.1 -0.1)">
       <use xlink:href="#DejaVuSans-31"/>
       <use x="63.623047" xlink:href="#DejaVuSans-39"/>
       <use x="127.246094" xlink:href="#DejaVuSans-36"/>
       <use x="190.869141" xlink:href="#DejaVuSans-35"/>
      </g>
     </g>
    </g>
   </g>
   <g id="matplotlib.axis_2">
    <g id="ytick_1">
     <g id="line2d_10">
      <defs>
       <path d="M 0 0 
L -3.5 0 
" id="m610b7c79f5" style="stroke:#000000;stroke-width:0.8;"/>
      </defs>
      <g>
       <use style="stroke:#000000;stroke-width:0.8;" x="34.56" xlink:href="#m610b7c79f5" y="140.443192"/>
      </g>
     </g>
     <g id="text_10">
      <!-- −40 -->
      <g transform="translate(6.455313 144.24241)scale(0.1 -0.1)">
       <defs>
        <path d="M 678 2272 
L 4684 2272 
L 4684 1741 
L 678 1741 
L 678 2272 
z
" id="DejaVuSans-2212" transform="scale(0.015625)"/>
       </defs>
       <use xlink:href="#DejaVuSans-2212"/>
       <use x="83.789062" xlink:href="#DejaVuSans-34"/>
       <use x="147.412109" xlink:href="#DejaVuSans-30"/>
      </g>
     </g>
    </g>
    <g id="ytick_2">
     <g id="line2d_11">
      <g>
       <use style="stroke:#000000;stroke-width:0.8;" x="34.56" xlink:href="#m610b7c79f5" y="111.621596"/>
      </g>
     </g>
     <g id="text_11">
      <!-- −20 -->
      <g transform="translate(6.455313 115.420815)scale(0.1 -0.1)">
       <use xlink:href="#DejaVuSans-2212"/>
       <use x="83.789062" xlink:href="#DejaVuSans-32"/>
       <use x="147.412109" xlink:href="#DejaVuSans-30"/>
      </g>
     </g>
    </g>
    <g id="ytick_3">
     <g id="line2d_12">
      <g>
       <use style="stroke:#000000;stroke-width:0.8;" x="34.56" xlink:href="#m610b7c79f5" y="82.8"/>
      </g>
     </g>
     <g id="text_12">
      <!-- 0 -->
      <g transform="translate(21.1975 86.599219)scale(0.1 -0.1)">
       <use xlink:href="#DejaVuSans-30"/>
      </g>
     </g>
    </g>
    <g id="ytick_4">
     <g id="line2d_13">
      <g>
       <use style="stroke:#000000;stroke-width:0.8;" x="34.56" xlink:href="#m610b7c79f5" y="53.978404"/>
      </g>
     </g>
     <g id="text_13">
      <!-- 20 -->
      <g transform="translate(14.835 57.777623)scale(0.1 -0.1)">
       <use xlink:href="#DejaVuSans-32"/>
       <use x="63.623047" xlink:href="#DejaVuSans-30"/>
      </g>
     </g>
    </g>
    <g id="ytick_5">
     <g id="line2d_14">
      <g>
       <use style="stroke:#000000;stroke-width:0.8;" x="34.56" xlink:href="#m610b7c79f5" y="25.156808"/>
      </g>
     </g>
     <g id="text_14">
      <!-- 40 -->
      <g transform="translate(14.835 28.956027)scale(0.1 -0.1)">
       <use xlink:href="#DejaVuSans-34"/>
       <use x="63.623047" xlink:href="#DejaVuSans-30"/>
      </g>
     </g>
    </g>
   </g>
   <g id="line2d_15">
    <path clip-path="url(#p04cfd05ec9)" d="M 98.037551 83.268277 
L 98.742857 83.228345 
L 99.448163 82.675184 
L 100.153469 82.462222 
L 101.564082 82.513184 
L 102.269388 82.625498 
L 102.974694 82.081724 
L 103.68 82.001839 
L 104.385306 81.637463 
L 105.090612 81.714908 
L 105.795918 81.505826 
L 107.206531 81.681784 
L 107.911837 81.175474 
L 108.617143 80.49113 
L 110.027755 79.716823 
L 110.733061 79.628136 
L 111.438367 78.943947 
L 112.143673 78.527833 
L 112.84898 78.369593 
L 113.554286 78.518055 
L 114.259592 78.872865 
L 115.670204 79.18047 
L 116.37551 78.777627 
L 117.786122 78.783663 
L 118.491429 78.283541 
L 119.196735 78.289661 
L 120.607347 79.059233 
L 122.017959 79.165757 
L 122.723265 79.453915 
L 124.133878 79.164809 
L 124.839184 79.295307 
L 125.54449 79.22265 
L 126.249796 79.350214 
L 126.955102 78.869851 
L 128.365714 79.042178 
L 129.07102 78.855604 
L 130.481633 79.201804 
L 131.186939 79.096007 
L 132.597551 79.98933 
L 134.008163 80.333585 
L 134.713469 80.224978 
L 136.829388 80.876763 
L 137.534694 80.684437 
L 138.945306 81.334812 
L 139.650612 81.407166 
L 141.061224 80.338451 
L 141.766531 80.151986 
L 142.471837 80.420798 
L 143.177143 80.465865 
L 145.293061 80.077157 
L 145.998367 80.161741 
L 147.40898 80.729217 
L 148.114286 81.179965 
L 148.819592 81.116469 
L 149.524898 80.712361 
L 150.230204 80.516679 
L 150.93551 79.95173 
L 151.640816 80.2034 
L 152.346122 80.215733 
L 153.051429 80.511226 
L 154.462041 79.30808 
L 155.167347 79.11054 
L 155.872653 78.769026 
L 156.577959 79.233632 
L 157.283265 79.290464 
L 158.693878 79.80764 
L 160.10449 79.651731 
L 160.809796 79.643473 
L 161.515102 79.74957 
L 162.220408 79.699554 
L 162.925714 79.421362 
L 163.63102 79.521835 
L 164.336327 79.416969 
L 165.041633 79.524744 
L 165.746939 79.326888 
L 166.452245 78.964112 
L 167.157551 78.864781 
L 167.862857 78.632932 
L 169.273469 77.94363 
L 170.684082 78.173856 
L 171.389388 78.290478 
L 172.094694 78.046287 
L 172.8 77.950563 
L 173.505306 78.169185 
L 174.915918 76.622319 
L 176.326531 76.714312 
L 177.031837 76.262763 
L 178.442449 75.855261 
L 179.853061 75.766394 
L 180.558367 76.073181 
L 181.263673 75.867476 
L 181.96898 76.10463 
L 182.674286 75.780394 
L 183.379592 75.866855 
L 184.084898 75.696597 
L 184.790204 76.128024 
L 185.49551 76.276358 
L 186.200816 76.538695 
L 186.906122 77.078757 
L 189.022041 76.792948 
L 189.727347 77.005079 
L 190.432653 76.673314 
L 191.137959 76.59288 
L 191.843265 77.049013 
L 192.548571 76.796185 
L 194.66449 77.555326 
L 195.369796 77.526234 
L 196.075102 78.03289 
L 196.780408 77.935467 
L 198.19102 78.231547 
L 199.601633 77.40598 
L 200.306939 77.396071 
L 201.012245 77.198882 
L 201.717551 77.125653 
L 202.422857 77.241366 
L 203.128163 77.194143 
L 203.833469 76.724017 
L 204.538776 76.701764 
L 205.949388 76.027947 
L 206.654694 76.514025 
L 207.36 76.167011 
L 208.065306 76.20622 
L 208.770612 76.58361 
L 209.475918 76.611573 
L 210.181224 76.308296 
L 211.591837 76.111254 
L 212.297143 76.124752 
L 213.707755 75.865959 
L 214.413061 76.158519 
L 215.118367 76.127087 
L 215.823673 75.907428 
L 216.52898 76.552576 
L 217.234286 76.944673 
L 217.939592 77.48663 
L 218.644898 77.786373 
L 219.350204 77.753796 
L 220.05551 78.399291 
L 220.760816 78.53218 
L 221.466122 78.046947 
L 222.171429 78.388723 
L 222.876735 78.247896 
L 223.582041 77.691054 
L 224.287347 77.360579 
L 225.697959 77.557853 
L 226.403265 77.363592 
L 227.108571 77.043754 
L 227.813878 76.918324 
L 228.519184 77.159964 
L 229.929796 77.355716 
L 231.340408 78.47328 
L 232.045714 78.811247 
L 233.456327 78.62231 
L 234.161633 77.958042 
L 234.866939 77.96292 
L 235.572245 78.194357 
L 236.277551 79.221612 
L 238.393469 79.316119 
L 239.098776 79.867633 
L 240.509388 79.678591 
L 241.214694 80.042635 
L 242.625306 80.348514 
L 243.330612 80.219878 
L 244.741224 79.358816 
L 245.446531 79.542788 
L 246.151837 79.461403 
L 246.857143 79.869783 
L 247.562449 79.990012 
L 248.973061 79.723634 
L 249.678367 79.943511 
L 250.383673 79.913179 
L 251.08898 79.542528 
L 251.794286 79.582249 
L 253.910204 80.491032 
L 254.61551 80.671544 
L 255.320816 80.981641 
L 256.026122 81.488555 
L 256.731429 81.69132 
L 257.436735 81.513123 
L 258.847347 82.001787 
L 259.552653 81.757327 
L 260.963265 82.442413 
L 261.668571 82.152344 
L 262.373878 82.503181 
L 263.079184 82.527718 
L 264.489796 83.179953 
L 265.195102 83.447327 
L 265.900408 83.266573 
L 266.605714 83.6191 
L 267.31102 83.722632 
L 268.016327 83.520673 
L 268.721633 83.589301 
L 269.426939 83.984366 
L 270.132245 84.200178 
L 270.837551 84.171166 
L 271.542857 83.957778 
L 272.953469 84.477724 
L 273.658776 84.214071 
L 274.364082 84.343016 
L 275.069388 83.765989 
L 275.774694 84.023114 
L 276.48 84.132003 
L 277.185306 84.539059 
L 277.890612 84.677933 
L 278.595918 85.013983 
L 279.301224 84.714333 
L 280.711837 84.928916 
L 281.417143 85.30277 
L 282.122449 85.030054 
L 282.827755 85.200471 
L 283.533061 84.817938 
L 284.238367 84.816748 
L 284.943673 85.166587 
L 285.64898 84.651487 
L 286.354286 84.449039 
L 287.059592 84.589125 
L 287.764898 84.575586 
L 288.470204 84.897272 
L 289.17551 84.710725 
L 289.880816 84.78758 
L 290.586122 84.592304 
L 291.291429 84.683829 
L 292.702041 85.336608 
L 293.407347 85.859828 
L 294.112653 85.955146 
L 294.817959 86.178377 
L 295.523265 86.268999 
L 296.228571 86.596087 
L 296.933878 86.581774 
L 298.34449 87.099793 
L 299.049796 87.411839 
L 299.755102 86.94999 
L 300.460408 87.243218 
L 301.165714 86.907789 
L 301.87102 86.949995 
L 303.281633 87.352248 
L 306.808163 85.472197 
L 307.513469 85.32724 
L 309.629388 84.525012 
L 310.334694 84.79385 
L 313.155918 83.842457 
L 313.861224 83.451374 
L 315.977143 83.036006 
L 316.682449 83.247149 
L 318.093061 84.015546 
L 318.798367 84.020498 
L 319.503673 84.618294 
L 320.20898 84.367763 
L 320.914286 84.276304 
L 321.619592 84.538449 
L 323.030204 84.38532 
L 323.73551 83.941536 
L 324.440816 83.639965 
L 325.146122 83.974615 
L 325.851429 83.359876 
L 327.262041 82.792326 
L 327.967347 82.82237 
L 328.672653 83.147852 
L 329.377959 83.338657 
L 332.199184 83.411751 
L 332.90449 83.793159 
L 335.725714 83.49146 
L 336.43102 83.874716 
L 337.136327 83.948253 
L 339.957551 83.869231 
L 340.662857 83.405914 
L 342.073469 82.261137 
L 342.778776 81.940872 
L 343.484082 82.03273 
L 344.894694 82.623205 
L 347.715918 82.239372 
L 348.421224 82.545813 
L 349.126531 82.575872 
L 349.831837 82.858626 
L 350.537143 82.907644 
L 351.242449 82.8 
L 351.242449 82.8 
" style="fill:none;stroke:#1f77b4;stroke-linecap:square;stroke-width:1.5;"/>
   </g>
   <g id="line2d_16">
    <path clip-path="url(#p04cfd05ec9)" d="M 34.56 82.8 
L 414.72 82.8 
" style="fill:none;stroke:#000000;stroke-dasharray:1.5,2.475;stroke-dashoffset:0;stroke-width:1.5;"/>
   </g>
   <g id="patch_3">
    <path d="M 34.56 162 
L 34.56 3.6 
" style="fill:none;stroke:#000000;stroke-linecap:square;stroke-linejoin:miter;stroke-width:0.8;"/>
   </g>
   <g id="patch_4">
    <path d="M 414.72 162 
L 414.72 3.6 
" style="fill:none;stroke:#000000;stroke-linecap:square;stroke-linejoin:miter;stroke-width:0.8;"/>
   </g>
   <g id="patch_5">
    <path d="M 34.56 162 
L 414.72 162 
" style="fill:none;stroke:#000000;stroke-linecap:square;stroke-linejoin:miter;stroke-width:0.8;"/>
   </g>
   <g id="patch_6">
    <path d="M 34.56 3.6 
L 414.72 3.6 
" style="fill:none;stroke:#000000;stroke-linecap:square;stroke-linejoin:miter;stroke-width:0.8;"/>
   </g>
  </g>
 </g>
 <defs>
  <clipPath id="p04cfd05ec9">
   <rect height="158.4" width="380.16" x="34.56" y="3.6"/>
  </clipPath>
 </defs>
</svg>
