<?xml version="1.0" encoding="utf-8" standalone="no"?>
<!DOCTYPE svg PUBLIC "-//W3C//DTD SVG 1.1//EN"
  "http://www.w3.org/Graphics/SVG/1.1/DTD/svg11.dtd">
<svg height="180pt" version="1.1" viewBox="0 0 432 180" width="432pt" xmlns="http://www.w3.org/2000/svg" xmlns:xlink="http://www.w3.org/1999/xlink">
 <metadata>
  <rdf:RDF xmlns:cc="http://creativecommons.org/ns#" xmlns:dc="http://purl.org/dc/elements/1.1/" xmlns:rdf="http://www.w3.org/1999/02/22-rdf-syntax-ns#">
   <cc:Work>
    <dc:type rdf:resource="http://purl.org/dc/dcmitype/StillImage"/>
    <dc:date>2021-08-12T10:43:36.805452</dc:date>
    <dc:format>image/svg+xml</dc:format>
    <dc:creator>
     <cc:Agent>
      <dc:title>Matplotlib v3.4.2, https://matplotlib.org/</dc:title>
     </cc:Agent>
    </dc:creator>
   </cc:Work>
  </rdf:RDF>
 </metadata>
 <defs>
  <style type="text/css">*{stroke-linecap:butt;stroke-linejoin:round;}</style>
 </defs>
 <g id="figure_1">
  <g id="patch_1">
   <path d="M 0 180 
L 432 180 
L 432 0 
L 0 0 
z
" style="fill:#ffffff;"/>
  </g>
  <g id="axes_1">
   <g id="patch_2">
    <path d="M 34.56 162 
L 414.72 162 
L 414.72 3.6 
L 34.56 3.6 
z
" style="fill:#ffffff;"/>
   </g>
   <g id="PolyCollection_1">
    <path clip-path="url(#pf7565cf526)" d="M 96.430524 81.961911 
L 96.430524 83.638089 
L 97.117975 84.469174 
L 97.805425 85.295603 
L 98.492875 86.117377 
L 99.180325 86.934494 
L 99.867776 87.746956 
L 100.555226 88.554761 
L 101.242676 89.357911 
L 101.930127 90.156404 
L 102.617577 90.950242 
L 103.305027 91.739424 
L 103.992477 92.52395 
L 104.679928 93.30382 
L 105.367378 94.079034 
L 106.054828 94.849592 
L 106.742278 95.615494 
L 107.429729 96.37674 
L 108.117179 97.13333 
L 108.804629 97.885264 
L 109.49208 98.632543 
L 110.17953 99.375165 
L 110.86698 100.113132 
L 111.55443 100.846442 
L 112.241881 101.575097 
L 112.929331 102.299095 
L 113.616781 103.018438 
L 114.304231 103.733125 
L 114.991682 104.443155 
L 115.679132 105.14853 
L 116.366582 105.849249 
L 117.054033 106.545312 
L 117.741483 107.236719 
L 118.428933 107.92347 
L 119.116383 108.605566 
L 119.803834 109.283005 
L 120.491284 109.955788 
L 121.178734 110.623916 
L 121.866184 111.287387 
L 122.553635 111.946202 
L 123.241085 112.600362 
L 123.928535 113.249866 
L 124.615986 113.894713 
L 125.303436 114.534905 
L 125.990886 115.170441 
L 126.678336 115.80132 
L 127.365787 116.427544 
L 128.053237 117.049112 
L 128.740687 117.666024 
L 129.428137 118.27828 
L 130.115588 118.885881 
L 130.803038 119.488825 
L 131.490488 120.087113 
L 132.177939 120.680745 
L 132.865389 121.269722 
L 133.552839 121.854042 
L 134.240289 122.433707 
L 134.92774 123.008715 
L 135.61519 123.579068 
L 136.30264 124.144765 
L 136.99009 124.705805 
L 137.677541 125.26219 
L 138.364991 125.813919 
L 139.052441 126.360992 
L 139.739892 126.903409 
L 140.427342 127.44117 
L 141.114792 127.974275 
L 141.802242 128.502724 
L 142.489693 129.026517 
L 143.177143 129.545655 
L 143.864593 130.060136 
L 144.552043 130.569961 
L 145.239494 131.075131 
L 145.926944 131.575644 
L 146.614394 132.071502 
L 147.301844 132.562704 
L 147.989295 133.049249 
L 148.676745 133.531139 
L 149.364195 134.008373 
L 150.051646 134.480951 
L 150.739096 134.948873 
L 151.426546 135.412139 
L 152.113996 135.870749 
L 152.801447 136.324703 
L 153.488897 136.774001 
L 154.176347 137.218643 
L 154.863797 137.65863 
L 155.551248 138.09396 
L 156.238698 138.524634 
L 156.926148 138.950653 
L 157.613599 139.372015 
L 158.301049 139.788722 
L 158.988499 140.200773 
L 159.675949 140.608167 
L 160.3634 141.010906 
L 161.05085 141.408989 
L 161.7383 141.802416 
L 162.42575 142.191187 
L 163.113201 142.575302 
L 163.800651 142.954761 
L 164.488101 143.329564 
L 165.175552 143.699711 
L 165.863002 144.065203 
L 166.550452 144.426038 
L 167.237902 144.782217 
L 167.925353 145.133741 
L 168.612803 145.480608 
L 169.300253 145.82282 
L 169.987703 146.160376 
L 170.675154 146.493275 
L 171.362604 146.821519 
L 172.050054 147.145107 
L 172.737505 147.464039 
L 173.424955 147.778315 
L 174.112405 148.087935 
L 174.799855 148.392899 
L 175.487306 148.693207 
L 176.174756 148.988859 
L 176.862206 149.279855 
L 177.549656 149.566196 
L 177.549656 16.033804 
L 177.549656 16.033804 
L 176.862206 16.320145 
L 176.174756 16.611141 
L 175.487306 16.906793 
L 174.799855 17.207101 
L 174.112405 17.512065 
L 173.424955 17.821685 
L 172.737505 18.135961 
L 172.050054 18.454893 
L 171.362604 18.778481 
L 170.675154 19.106725 
L 169.987703 19.439624 
L 169.300253 19.77718 
L 168.612803 20.119392 
L 167.925353 20.466259 
L 167.237902 20.817783 
L 166.550452 21.173962 
L 165.863002 21.534797 
L 165.175552 21.900289 
L 164.488101 22.270436 
L 163.800651 22.645239 
L 163.113201 23.024698 
L 162.42575 23.408813 
L 161.7383 23.797584 
L 161.05085 24.191011 
L 160.3634 24.589094 
L 159.675949 24.991833 
L 158.988499 25.399227 
L 158.301049 25.811278 
L 157.613599 26.227985 
L 156.926148 26.649347 
L 156.238698 27.075366 
L 155.551248 27.50604 
L 154.863797 27.94137 
L 154.176347 28.381357 
L 153.488897 28.825999 
L 152.801447 29.275297 
L 152.113996 29.729251 
L 151.426546 30.187861 
L 150.739096 30.651127 
L 150.051646 31.119049 
L 149.364195 31.591627 
L 148.676745 32.068861 
L 147.989295 32.550751 
L 147.301844 33.037296 
L 146.614394 33.528498 
L 145.926944 34.024356 
L 145.239494 34.524869 
L 144.552043 35.030039 
L 143.864593 35.539864 
L 143.177143 36.054345 
L 142.489693 36.573483 
L 141.802242 37.097276 
L 141.114792 37.625725 
L 140.427342 38.15883 
L 139.739892 38.696591 
L 139.052441 39.239008 
L 138.364991 39.786081 
L 137.677541 40.33781 
L 136.99009 40.894195 
L 136.30264 41.455235 
L 135.61519 42.020932 
L 134.92774 42.591285 
L 134.240289 43.166293 
L 133.552839 43.745958 
L 132.865389 44.330278 
L 132.177939 44.919255 
L 131.490488 45.512887 
L 130.803038 46.111175 
L 130.115588 46.714119 
L 129.428137 47.32172 
L 128.740687 47.933976 
L 128.053237 48.550888 
L 127.365787 49.172456 
L 126.678336 49.79868 
L 125.990886 50.429559 
L 125.303436 51.065095 
L 124.615986 51.705287 
L 123.928535 52.350134 
L 123.241085 52.999638 
L 122.553635 53.653798 
L 121.866184 54.312613 
L 121.178734 54.976084 
L 120.491284 55.644212 
L 119.803834 56.316995 
L 119.116383 56.994434 
L 118.428933 57.67653 
L 117.741483 58.363281 
L 117.054033 59.054688 
L 116.366582 59.750751 
L 115.679132 60.45147 
L 114.991682 61.156845 
L 114.304231 61.866875 
L 113.616781 62.581562 
L 112.929331 63.300905 
L 112.241881 64.024903 
L 111.55443 64.753558 
L 110.86698 65.486868 
L 110.17953 66.224835 
L 109.49208 66.967457 
L 108.804629 67.714736 
L 108.117179 68.46667 
L 107.429729 69.22326 
L 106.742278 69.984506 
L 106.054828 70.750408 
L 105.367378 71.520966 
L 104.679928 72.29618 
L 103.992477 73.07605 
L 103.305027 73.860576 
L 102.617577 74.649758 
L 101.930127 75.443596 
L 101.242676 76.242089 
L 100.555226 77.045239 
L 99.867776 77.853044 
L 99.180325 78.665506 
L 98.492875 79.482623 
L 97.805425 80.304397 
L 97.117975 81.130826 
L 96.430524 81.961911 
z
" style="fill:#0000ff;fill-opacity:0.1;stroke:#0000ff;stroke-opacity:0.1;"/>
    <path clip-path="url(#pf7565cf526)" d="M 178.924557 15.75212 
L 178.924557 149.84788 
L 179.612007 150.124908 
L 180.299458 150.397281 
L 180.986908 150.664997 
L 181.674358 150.928058 
L 182.361808 151.186463 
L 183.049259 151.440211 
L 183.736709 151.689304 
L 184.424159 151.933741 
L 185.111609 152.173522 
L 185.79906 152.408647 
L 186.48651 152.639116 
L 187.17396 152.864929 
L 187.86141 153.086086 
L 188.548861 153.302587 
L 189.236311 153.514432 
L 189.923761 153.721622 
L 190.611212 153.924155 
L 191.298662 154.122033 
L 191.986112 154.315254 
L 192.673562 154.50382 
L 192.673562 11.09618 
L 192.673562 11.09618 
L 191.986112 11.284746 
L 191.298662 11.477967 
L 190.611212 11.675845 
L 189.923761 11.878378 
L 189.236311 12.085568 
L 188.548861 12.297413 
L 187.86141 12.513914 
L 187.17396 12.735071 
L 186.48651 12.960884 
L 185.79906 13.191353 
L 185.111609 13.426478 
L 184.424159 13.666259 
L 183.736709 13.910696 
L 183.049259 14.159789 
L 182.361808 14.413537 
L 181.674358 14.671942 
L 180.986908 14.935003 
L 180.299458 15.202719 
L 179.612007 15.475092 
L 178.924557 15.75212 
z
" style="fill:#0000ff;fill-opacity:0.1;stroke:#0000ff;stroke-opacity:0.1;"/>
    <path clip-path="url(#pf7565cf526)" d="M 194.048463 10.912271 
L 194.048463 154.687729 
L 194.735913 154.866983 
L 195.423363 155.041581 
L 196.110814 155.211522 
L 196.798264 155.376808 
L 197.485714 155.537438 
L 198.173165 155.693412 
L 198.860615 155.84473 
L 199.548065 155.991392 
L 200.235515 156.133399 
L 200.922966 156.270749 
L 201.610416 156.403443 
L 202.297866 156.531481 
L 202.985316 156.654864 
L 203.672767 156.77359 
L 204.360217 156.887661 
L 205.047667 156.997075 
L 205.735118 157.101834 
L 206.422568 157.201937 
L 207.110018 157.297383 
L 207.797468 157.388174 
L 208.484919 157.474309 
L 209.172369 157.555788 
L 209.859819 157.632611 
L 210.547269 157.704778 
L 211.23472 157.772289 
L 211.92217 157.835145 
L 212.60962 157.893344 
L 213.297071 157.946887 
L 213.984521 157.995774 
L 214.671971 158.040006 
L 215.359421 158.079581 
L 216.046872 158.114501 
L 216.734322 158.144765 
L 217.421772 158.170372 
L 218.109222 158.191324 
L 218.796673 158.20762 
L 219.484123 158.21926 
L 220.171573 158.226243 
L 220.859024 158.228571 
L 220.859024 7.371429 
L 220.859024 7.371429 
L 220.171573 7.373757 
L 219.484123 7.38074 
L 218.796673 7.39238 
L 218.109222 7.408676 
L 217.421772 7.429628 
L 216.734322 7.455235 
L 216.046872 7.485499 
L 215.359421 7.520419 
L 214.671971 7.559994 
L 213.984521 7.604226 
L 213.297071 7.653113 
L 212.60962 7.706656 
L 211.92217 7.764855 
L 211.23472 7.827711 
L 210.547269 7.895222 
L 209.859819 7.967389 
L 209.172369 8.044212 
L 208.484919 8.125691 
L 207.797468 8.211826 
L 207.110018 8.302617 
L 206.422568 8.398063 
L 205.735118 8.498166 
L 205.047667 8.602925 
L 204.360217 8.712339 
L 203.672767 8.82641 
L 202.985316 8.945136 
L 202.297866 9.068519 
L 201.610416 9.196557 
L 200.922966 9.329251 
L 200.235515 9.466601 
L 199.548065 9.608608 
L 198.860615 9.75527 
L 198.173165 9.906588 
L 197.485714 10.062562 
L 196.798264 10.223192 
L 196.110814 10.388478 
L 195.423363 10.558419 
L 194.735913 10.733017 
L 194.048463 10.912271 
z
" style="fill:#0000ff;fill-opacity:0.1;stroke:#0000ff;stroke-opacity:0.1;"/>
    <path clip-path="url(#pf7565cf526)" d="M 222.233924 7.373757 
L 222.233924 158.226243 
L 222.921374 158.21926 
L 223.608825 158.20762 
L 224.296275 158.191324 
L 224.296275 7.408676 
L 224.296275 7.408676 
L 223.608825 7.39238 
L 222.921374 7.38074 
L 222.233924 7.373757 
z
" style="fill:#0000ff;fill-opacity:0.1;stroke:#0000ff;stroke-opacity:0.1;"/>
    <path clip-path="url(#pf7565cf526)" d="M 225.671175 7.429628 
L 225.671175 158.170372 
L 226.358626 158.144765 
L 227.046076 158.114501 
L 227.733526 158.079581 
L 228.420976 158.040006 
L 229.108427 157.995774 
L 229.795877 157.946887 
L 229.795877 7.653113 
L 229.795877 7.653113 
L 229.108427 7.604226 
L 228.420976 7.559994 
L 227.733526 7.520419 
L 227.046076 7.485499 
L 226.358626 7.455235 
L 225.671175 7.429628 
z
" style="fill:#0000ff;fill-opacity:0.1;stroke:#0000ff;stroke-opacity:0.1;"/>
    <path clip-path="url(#pf7565cf526)" d="M 231.170778 7.706656 
L 231.170778 157.893344 
L 231.858228 157.835145 
L 232.545678 157.772289 
L 233.233128 157.704778 
L 233.920579 157.632611 
L 234.608029 157.555788 
L 235.295479 157.474309 
L 235.982929 157.388174 
L 236.67038 157.297383 
L 237.35783 157.201937 
L 238.04528 157.101834 
L 238.04528 8.498166 
L 238.04528 8.498166 
L 237.35783 8.398063 
L 236.67038 8.302617 
L 235.982929 8.211826 
L 235.295479 8.125691 
L 234.608029 8.044212 
L 233.920579 7.967389 
L 233.233128 7.895222 
L 232.545678 7.827711 
L 231.858228 7.764855 
L 231.170778 7.706656 
z
" style="fill:#0000ff;fill-opacity:0.1;stroke:#0000ff;stroke-opacity:0.1;"/>
    <path clip-path="url(#pf7565cf526)" d="M 239.420181 8.602925 
L 239.420181 156.997075 
L 240.107631 156.887661 
L 240.795081 156.77359 
L 241.482532 156.654864 
L 242.169982 156.531481 
L 242.857432 156.403443 
L 243.544882 156.270749 
L 243.544882 9.329251 
L 243.544882 9.329251 
L 242.857432 9.196557 
L 242.169982 9.068519 
L 241.482532 8.945136 
L 240.795081 8.82641 
L 240.107631 8.712339 
L 239.420181 8.602925 
z
" style="fill:#0000ff;fill-opacity:0.1;stroke:#0000ff;stroke-opacity:0.1;"/>
    <path clip-path="url(#pf7565cf526)" d="M 244.919783 9.466601 
L 244.919783 156.133399 
L 245.607233 155.991392 
L 245.607233 9.608608 
L 245.607233 9.608608 
L 244.919783 9.466601 
z
" style="fill:#0000ff;fill-opacity:0.1;stroke:#0000ff;stroke-opacity:0.1;"/>
    <path clip-path="url(#pf7565cf526)" d="M 246.982134 9.75527 
L 246.982134 155.84473 
L 247.669584 155.693412 
L 248.357034 155.537438 
L 249.044485 155.376808 
L 249.731935 155.211522 
L 250.419385 155.041581 
L 251.106835 154.866983 
L 251.794286 154.687729 
L 252.481736 154.50382 
L 253.169186 154.315254 
L 253.856637 154.122033 
L 254.544087 153.924155 
L 254.544087 11.675845 
L 254.544087 11.675845 
L 253.856637 11.477967 
L 253.169186 11.284746 
L 252.481736 11.09618 
L 251.794286 10.912271 
L 251.106835 10.733017 
L 250.419385 10.558419 
L 249.731935 10.388478 
L 249.044485 10.223192 
L 248.357034 10.062562 
L 247.669584 9.906588 
L 246.982134 9.75527 
z
" style="fill:#0000ff;fill-opacity:0.1;stroke:#0000ff;stroke-opacity:0.1;"/>
    <path clip-path="url(#pf7565cf526)" d="M 255.918987 11.878378 
L 255.918987 153.721622 
L 256.606438 153.514432 
L 257.293888 153.302587 
L 257.981338 153.086086 
L 258.668788 152.864929 
L 259.356239 152.639116 
L 260.043689 152.408647 
L 260.731139 152.173522 
L 261.41859 151.933741 
L 262.10604 151.689304 
L 262.79349 151.440211 
L 263.48094 151.186463 
L 264.168391 150.928058 
L 264.168391 14.671942 
L 264.168391 14.671942 
L 263.48094 14.413537 
L 262.79349 14.159789 
L 262.10604 13.910696 
L 261.41859 13.666259 
L 260.731139 13.426478 
L 260.043689 13.191353 
L 259.356239 12.960884 
L 258.668788 12.735071 
L 257.981338 12.513914 
L 257.293888 12.297413 
L 256.606438 12.085568 
L 255.918987 11.878378 
z
" style="fill:#0000ff;fill-opacity:0.1;stroke:#0000ff;stroke-opacity:0.1;"/>
    <path clip-path="url(#pf7565cf526)" d="M 265.543291 14.935003 
L 265.543291 150.664997 
L 266.230741 150.397281 
L 266.918192 150.124908 
L 267.605642 149.84788 
L 268.293092 149.566196 
L 268.980542 149.279855 
L 269.667993 148.988859 
L 270.355443 148.693207 
L 271.042893 148.392899 
L 271.042893 17.207101 
L 271.042893 17.207101 
L 270.355443 16.906793 
L 269.667993 16.611141 
L 268.980542 16.320145 
L 268.293092 16.033804 
L 267.605642 15.75212 
L 266.918192 15.475092 
L 266.230741 15.202719 
L 265.543291 14.935003 
z
" style="fill:#0000ff;fill-opacity:0.1;stroke:#0000ff;stroke-opacity:0.1;"/>
    <path clip-path="url(#pf7565cf526)" d="M 272.417794 17.512065 
L 272.417794 148.087935 
L 273.105244 147.778315 
L 273.792694 147.464039 
L 274.480145 147.145107 
L 275.167595 146.821519 
L 275.855045 146.493275 
L 276.542495 146.160376 
L 277.229946 145.82282 
L 277.917396 145.480608 
L 278.604846 145.133741 
L 279.292297 144.782217 
L 279.979747 144.426038 
L 280.667197 144.065203 
L 281.354647 143.699711 
L 282.042098 143.329564 
L 282.729548 142.954761 
L 283.416998 142.575302 
L 284.104448 142.191187 
L 284.791899 141.802416 
L 285.479349 141.408989 
L 286.166799 141.010906 
L 286.85425 140.608167 
L 287.5417 140.200773 
L 288.22915 139.788722 
L 288.9166 139.372015 
L 289.604051 138.950653 
L 290.291501 138.524634 
L 290.978951 138.09396 
L 291.666401 137.65863 
L 292.353852 137.218643 
L 293.041302 136.774001 
L 293.728752 136.324703 
L 294.416203 135.870749 
L 295.103653 135.412139 
L 295.791103 134.948873 
L 296.478553 134.480951 
L 297.166004 134.008373 
L 297.853454 133.531139 
L 298.540904 133.049249 
L 299.228354 132.562704 
L 299.228354 33.037296 
L 299.228354 33.037296 
L 298.540904 32.550751 
L 297.853454 32.068861 
L 297.166004 31.591627 
L 296.478553 31.119049 
L 295.791103 30.651127 
L 295.103653 30.187861 
L 294.416203 29.729251 
L 293.728752 29.275297 
L 293.041302 28.825999 
L 292.353852 28.381357 
L 291.666401 27.94137 
L 290.978951 27.50604 
L 290.291501 27.075366 
L 289.604051 26.649347 
L 288.9166 26.227985 
L 288.22915 25.811278 
L 287.5417 25.399227 
L 286.85425 24.991833 
L 286.166799 24.589094 
L 285.479349 24.191011 
L 284.791899 23.797584 
L 284.104448 23.408813 
L 283.416998 23.024698 
L 282.729548 22.645239 
L 282.042098 22.270436 
L 281.354647 21.900289 
L 280.667197 21.534797 
L 279.979747 21.173962 
L 279.292297 20.817783 
L 278.604846 20.466259 
L 277.917396 20.119392 
L 277.229946 19.77718 
L 276.542495 19.439624 
L 275.855045 19.106725 
L 275.167595 18.778481 
L 274.480145 18.454893 
L 273.792694 18.135961 
L 273.105244 17.821685 
L 272.417794 17.512065 
z
" style="fill:#0000ff;fill-opacity:0.1;stroke:#0000ff;stroke-opacity:0.1;"/>
    <path clip-path="url(#pf7565cf526)" d="M 301.978156 33.528498 
L 301.978156 132.071502 
L 302.665606 131.575644 
L 303.353056 131.075131 
L 304.040506 130.569961 
L 304.727957 130.060136 
L 305.415407 129.545655 
L 306.102857 129.026517 
L 306.790307 128.502724 
L 307.477758 127.974275 
L 308.165208 127.44117 
L 308.852658 126.903409 
L 309.540108 126.360992 
L 310.227559 125.813919 
L 310.915009 125.26219 
L 311.602459 124.705805 
L 312.28991 124.144765 
L 312.97736 123.579068 
L 313.66481 123.008715 
L 314.35226 122.433707 
L 315.039711 121.854042 
L 315.727161 121.269722 
L 316.414611 120.680745 
L 317.102061 120.087113 
L 317.789512 119.488825 
L 318.476962 118.885881 
L 319.164412 118.27828 
L 319.851863 117.666024 
L 320.539313 117.049112 
L 321.226763 116.427544 
L 321.914213 115.80132 
L 322.601664 115.170441 
L 323.289114 114.534905 
L 323.976564 113.894713 
L 324.664014 113.249866 
L 325.351465 112.600362 
L 326.038915 111.946202 
L 326.726365 111.287387 
L 327.413816 110.623916 
L 328.101266 109.955788 
L 328.101266 55.644212 
L 328.101266 55.644212 
L 327.413816 54.976084 
L 326.726365 54.312613 
L 326.038915 53.653798 
L 325.351465 52.999638 
L 324.664014 52.350134 
L 323.976564 51.705287 
L 323.289114 51.065095 
L 322.601664 50.429559 
L 321.914213 49.79868 
L 321.226763 49.172456 
L 320.539313 48.550888 
L 319.851863 47.933976 
L 319.164412 47.32172 
L 318.476962 46.714119 
L 317.789512 46.111175 
L 317.102061 45.512887 
L 316.414611 44.919255 
L 315.727161 44.330278 
L 315.039711 43.745958 
L 314.35226 43.166293 
L 313.66481 42.591285 
L 312.97736 42.020932 
L 312.28991 41.455235 
L 311.602459 40.894195 
L 310.915009 40.33781 
L 310.227559 39.786081 
L 309.540108 39.239008 
L 308.852658 38.696591 
L 308.165208 38.15883 
L 307.477758 37.625725 
L 306.790307 37.097276 
L 306.102857 36.573483 
L 305.415407 36.054345 
L 304.727957 35.539864 
L 304.040506 35.030039 
L 303.353056 34.524869 
L 302.665606 34.024356 
L 301.978156 33.528498 
z
" style="fill:#0000ff;fill-opacity:0.1;stroke:#0000ff;stroke-opacity:0.1;"/>
    <path clip-path="url(#pf7565cf526)" d="M 329.476166 56.316995 
L 329.476166 109.283005 
L 330.163617 108.605566 
L 330.851067 107.92347 
L 331.538517 107.236719 
L 332.225967 106.545312 
L 332.913418 105.849249 
L 333.600868 105.14853 
L 334.288318 104.443155 
L 334.975769 103.733125 
L 335.663219 103.018438 
L 336.350669 102.299095 
L 337.038119 101.575097 
L 337.72557 100.846442 
L 338.41302 100.113132 
L 339.10047 99.375165 
L 339.78792 98.632543 
L 340.475371 97.885264 
L 341.162821 97.13333 
L 341.850271 96.37674 
L 342.537722 95.615494 
L 343.225172 94.849592 
L 343.912622 94.079034 
L 344.600072 93.30382 
L 345.287523 92.52395 
L 345.974973 91.739424 
L 346.662423 90.950242 
L 347.349873 90.156404 
L 348.037324 89.357911 
L 348.724774 88.554761 
L 349.412224 87.746956 
L 350.099675 86.934494 
L 350.787125 86.117377 
L 351.474575 85.295603 
L 352.162025 84.469174 
L 352.849476 83.638089 
L 352.849476 81.961911 
L 352.849476 81.961911 
L 352.162025 81.130826 
L 351.474575 80.304397 
L 350.787125 79.482623 
L 350.099675 78.665506 
L 349.412224 77.853044 
L 348.724774 77.045239 
L 348.037324 76.242089 
L 347.349873 75.443596 
L 346.662423 74.649758 
L 345.974973 73.860576 
L 345.287523 73.07605 
L 344.600072 72.29618 
L 343.912622 71.520966 
L 343.225172 70.750408 
L 342.537722 69.984506 
L 341.850271 69.22326 
L 341.162821 68.46667 
L 340.475371 67.714736 
L 339.78792 66.967457 
L 339.10047 66.224835 
L 338.41302 65.486868 
L 337.72557 64.753558 
L 337.038119 64.024903 
L 336.350669 63.300905 
L 335.663219 62.581562 
L 334.975769 61.866875 
L 334.288318 61.156845 
L 333.600868 60.45147 
L 332.913418 59.750751 
L 332.225967 59.054688 
L 331.538517 58.363281 
L 330.851067 57.67653 
L 330.163617 56.994434 
L 329.476166 56.316995 
z
" style="fill:#0000ff;fill-opacity:0.1;stroke:#0000ff;stroke-opacity:0.1;"/>
   </g>
   <g id="matplotlib.axis_1">
    <g id="xtick_1">
     <g id="line2d_1">
      <defs>
       <path d="M 0 0 
L 0 3.5 
" id="mea6340cd90" style="stroke:#000000;stroke-width:0.8;"/>
      </defs>
      <g>
       <use style="stroke:#000000;stroke-width:0.8;" x="96.086799" xlink:href="#mea6340cd90" y="162"/>
      </g>
     </g>
     <g id="text_1">
      <!-- 1960 -->
      <g transform="translate(83.361799 176.598438)scale(0.1 -0.1)">
       <defs>
        <path d="M 794 531 
L 1825 531 
L 1825 4091 
L 703 3866 
L 703 4441 
L 1819 4666 
L 2450 4666 
L 2450 531 
L 3481 531 
L 3481 0 
L 794 0 
L 794 531 
z
" id="DejaVuSans-31" transform="scale(0.015625)"/>
        <path d="M 703 97 
L 703 672 
Q 941 559 1184 500 
Q 1428 441 1663 441 
Q 2288 441 2617 861 
Q 2947 1281 2994 2138 
Q 2813 1869 2534 1725 
Q 2256 1581 1919 1581 
Q 1219 1581 811 2004 
Q 403 2428 403 3163 
Q 403 3881 828 4315 
Q 1253 4750 1959 4750 
Q 2769 4750 3195 4129 
Q 3622 3509 3622 2328 
Q 3622 1225 3098 567 
Q 2575 -91 1691 -91 
Q 1453 -91 1209 -44 
Q 966 3 703 97 
z
M 1959 2075 
Q 2384 2075 2632 2365 
Q 2881 2656 2881 3163 
Q 2881 3666 2632 3958 
Q 2384 4250 1959 4250 
Q 1534 4250 1286 3958 
Q 1038 3666 1038 3163 
Q 1038 2656 1286 2365 
Q 1534 2075 1959 2075 
z
" id="DejaVuSans-39" transform="scale(0.015625)"/>
        <path d="M 2113 2584 
Q 1688 2584 1439 2293 
Q 1191 2003 1191 1497 
Q 1191 994 1439 701 
Q 1688 409 2113 409 
Q 2538 409 2786 701 
Q 3034 994 3034 1497 
Q 3034 2003 2786 2293 
Q 2538 2584 2113 2584 
z
M 3366 4563 
L 3366 3988 
Q 3128 4100 2886 4159 
Q 2644 4219 2406 4219 
Q 1781 4219 1451 3797 
Q 1122 3375 1075 2522 
Q 1259 2794 1537 2939 
Q 1816 3084 2150 3084 
Q 2853 3084 3261 2657 
Q 3669 2231 3669 1497 
Q 3669 778 3244 343 
Q 2819 -91 2113 -91 
Q 1303 -91 875 529 
Q 447 1150 447 2328 
Q 447 3434 972 4092 
Q 1497 4750 2381 4750 
Q 2619 4750 2861 4703 
Q 3103 4656 3366 4563 
z
" id="DejaVuSans-36" transform="scale(0.015625)"/>
        <path d="M 2034 4250 
Q 1547 4250 1301 3770 
Q 1056 3291 1056 2328 
Q 1056 1369 1301 889 
Q 1547 409 2034 409 
Q 2525 409 2770 889 
Q 3016 1369 3016 2328 
Q 3016 3291 2770 3770 
Q 2525 4250 2034 4250 
z
M 2034 4750 
Q 2819 4750 3233 4129 
Q 3647 3509 3647 2328 
Q 3647 1150 3233 529 
Q 2819 -91 2034 -91 
Q 1250 -91 836 529 
Q 422 1150 422 2328 
Q 422 3509 836 4129 
Q 1250 4750 2034 4750 
z
" id="DejaVuSans-30" transform="scale(0.015625)"/>
       </defs>
       <use xlink:href="#DejaVuSans-31"/>
       <use x="63.623047" xlink:href="#DejaVuSans-39"/>
       <use x="127.246094" xlink:href="#DejaVuSans-36"/>
       <use x="190.869141" xlink:href="#DejaVuSans-30"/>
      </g>
     </g>
    </g>
    <g id="xtick_2">
     <g id="line2d_2">
      <g>
       <use style="stroke:#000000;stroke-width:0.8;" x="178.580832" xlink:href="#mea6340cd90" y="162"/>
      </g>
     </g>
     <g id="text_2">
      <!-- 1970 -->
      <g transform="translate(165.855832 176.598438)scale(0.1 -0.1)">
       <defs>
        <path d="M 525 4666 
L 3525 4666 
L 3525 4397 
L 1831 0 
L 1172 0 
L 2766 4134 
L 525 4134 
L 525 4666 
z
" id="DejaVuSans-37" transform="scale(0.015625)"/>
       </defs>
       <use xlink:href="#DejaVuSans-31"/>
       <use x="63.623047" xlink:href="#DejaVuSans-39"/>
       <use x="127.246094" xlink:href="#DejaVuSans-37"/>
       <use x="190.869141" xlink:href="#DejaVuSans-30"/>
      </g>
     </g>
    </g>
    <g id="xtick_3">
     <g id="line2d_3">
      <g>
       <use style="stroke:#000000;stroke-width:0.8;" x="261.074864" xlink:href="#mea6340cd90" y="162"/>
      </g>
     </g>
     <g id="text_3">
      <!-- 1980 -->
      <g transform="translate(248.349864 176.598438)scale(0.1 -0.1)">
       <defs>
        <path d="M 2034 2216 
Q 1584 2216 1326 1975 
Q 1069 1734 1069 1313 
Q 1069 891 1326 650 
Q 1584 409 2034 409 
Q 2484 409 2743 651 
Q 3003 894 3003 1313 
Q 3003 1734 2745 1975 
Q 2488 2216 2034 2216 
z
M 1403 2484 
Q 997 2584 770 2862 
Q 544 3141 544 3541 
Q 544 4100 942 4425 
Q 1341 4750 2034 4750 
Q 2731 4750 3128 4425 
Q 3525 4100 3525 3541 
Q 3525 3141 3298 2862 
Q 3072 2584 2669 2484 
Q 3125 2378 3379 2068 
Q 3634 1759 3634 1313 
Q 3634 634 3220 271 
Q 2806 -91 2034 -91 
Q 1263 -91 848 271 
Q 434 634 434 1313 
Q 434 1759 690 2068 
Q 947 2378 1403 2484 
z
M 1172 3481 
Q 1172 3119 1398 2916 
Q 1625 2713 2034 2713 
Q 2441 2713 2670 2916 
Q 2900 3119 2900 3481 
Q 2900 3844 2670 4047 
Q 2441 4250 2034 4250 
Q 1625 4250 1398 4047 
Q 1172 3844 1172 3481 
z
" id="DejaVuSans-38" transform="scale(0.015625)"/>
       </defs>
       <use xlink:href="#DejaVuSans-31"/>
       <use x="63.623047" xlink:href="#DejaVuSans-39"/>
       <use x="127.246094" xlink:href="#DejaVuSans-38"/>
       <use x="190.869141" xlink:href="#DejaVuSans-30"/>
      </g>
     </g>
    </g>
    <g id="xtick_4">
     <g id="line2d_4">
      <g>
       <use style="stroke:#000000;stroke-width:0.8;" x="343.568897" xlink:href="#mea6340cd90" y="162"/>
      </g>
     </g>
     <g id="text_4">
      <!-- 1990 -->
      <g transform="translate(330.843897 176.598438)scale(0.1 -0.1)">
       <use xlink:href="#DejaVuSans-31"/>
       <use x="63.623047" xlink:href="#DejaVuSans-39"/>
       <use x="127.246094" xlink:href="#DejaVuSans-39"/>
       <use x="190.869141" xlink:href="#DejaVuSans-30"/>
      </g>
     </g>
    </g>
   </g>
   <g id="matplotlib.axis_2">
    <g id="ytick_1">
     <g id="line2d_5">
      <defs>
       <path d="M 0 0 
L -3.5 0 
" id="m48f4609d66" style="stroke:#000000;stroke-width:0.8;"/>
      </defs>
      <g>
       <use style="stroke:#000000;stroke-width:0.8;" x="34.56" xlink:href="#m48f4609d66" y="140.564286"/>
      </g>
     </g>
     <g id="text_5">
      <!-- −40 -->
      <g transform="translate(6.455313 144.363504)scale(0.1 -0.1)">
       <defs>
        <path d="M 678 2272 
L 4684 2272 
L 4684 1741 
L 678 1741 
L 678 2272 
z
" id="DejaVuSans-2212" transform="scale(0.015625)"/>
        <path d="M 2419 4116 
L 825 1625 
L 2419 1625 
L 2419 4116 
z
M 2253 4666 
L 3047 4666 
L 3047 1625 
L 3713 1625 
L 3713 1100 
L 3047 1100 
L 3047 0 
L 2419 0 
L 2419 1100 
L 313 1100 
L 313 1709 
L 2253 4666 
z
" id="DejaVuSans-34" transform="scale(0.015625)"/>
       </defs>
       <use xlink:href="#DejaVuSans-2212"/>
       <use x="83.789062" xlink:href="#DejaVuSans-34"/>
       <use x="147.412109" xlink:href="#DejaVuSans-30"/>
      </g>
     </g>
    </g>
    <g id="ytick_2">
     <g id="line2d_6">
      <g>
       <use style="stroke:#000000;stroke-width:0.8;" x="34.56" xlink:href="#m48f4609d66" y="111.682143"/>
      </g>
     </g>
     <g id="text_6">
      <!-- −20 -->
      <g transform="translate(6.455313 115.481362)scale(0.1 -0.1)">
       <defs>
        <path d="M 1228 531 
L 3431 531 
L 3431 0 
L 469 0 
L 469 531 
Q 828 903 1448 1529 
Q 2069 2156 2228 2338 
Q 2531 2678 2651 2914 
Q 2772 3150 2772 3378 
Q 2772 3750 2511 3984 
Q 2250 4219 1831 4219 
Q 1534 4219 1204 4116 
Q 875 4013 500 3803 
L 500 4441 
Q 881 4594 1212 4672 
Q 1544 4750 1819 4750 
Q 2544 4750 2975 4387 
Q 3406 4025 3406 3419 
Q 3406 3131 3298 2873 
Q 3191 2616 2906 2266 
Q 2828 2175 2409 1742 
Q 1991 1309 1228 531 
z
" id="DejaVuSans-32" transform="scale(0.015625)"/>
       </defs>
       <use xlink:href="#DejaVuSans-2212"/>
       <use x="83.789062" xlink:href="#DejaVuSans-32"/>
       <use x="147.412109" xlink:href="#DejaVuSans-30"/>
      </g>
     </g>
    </g>
    <g id="ytick_3">
     <g id="line2d_7">
      <g>
       <use style="stroke:#000000;stroke-width:0.8;" x="34.56" xlink:href="#m48f4609d66" y="82.8"/>
      </g>
     </g>
     <g id="text_7">
      <!-- 0 -->
      <g transform="translate(21.1975 86.599219)scale(0.1 -0.1)">
       <use xlink:href="#DejaVuSans-30"/>
      </g>
     </g>
    </g>
    <g id="ytick_4">
     <g id="line2d_8">
      <g>
       <use style="stroke:#000000;stroke-width:0.8;" x="34.56" xlink:href="#m48f4609d66" y="53.917857"/>
      </g>
     </g>
     <g id="text_8">
      <!-- 20 -->
      <g transform="translate(14.835 57.717076)scale(0.1 -0.1)">
       <use xlink:href="#DejaVuSans-32"/>
       <use x="63.623047" xlink:href="#DejaVuSans-30"/>
      </g>
     </g>
    </g>
    <g id="ytick_5">
     <g id="line2d_9">
      <g>
       <use style="stroke:#000000;stroke-width:0.8;" x="34.56" xlink:href="#m48f4609d66" y="25.035714"/>
      </g>
     </g>
     <g id="text_9">
      <!-- 40 -->
      <g transform="translate(14.835 28.834933)scale(0.1 -0.1)">
       <use xlink:href="#DejaVuSans-34"/>
       <use x="63.623047" xlink:href="#DejaVuSans-30"/>
      </g>
     </g>
    </g>
   </g>
   <g id="line2d_10">
    <path clip-path="url(#pf7565cf526)" d="M 96.430524 82.400054 
L 97.117975 82.253341 
L 97.805425 82.415655 
L 99.180325 84.861676 
L 99.867776 84.546927 
L 100.555226 83.240594 
L 101.242676 83.84917 
L 102.617577 82.08929 
L 103.305027 81.771441 
L 103.992477 82.300845 
L 104.679928 81.771317 
L 106.742278 83.670814 
L 107.429729 84.508729 
L 108.117179 84.993666 
L 108.804629 86.477506 
L 109.49208 86.336202 
L 110.17953 85.47803 
L 110.86698 85.11976 
L 111.55443 85.154429 
L 112.241881 84.73568 
L 112.929331 85.112029 
L 113.616781 84.891865 
L 114.304231 84.388672 
L 114.991682 83.210274 
L 115.679132 83.133153 
L 116.366582 83.236381 
L 117.054033 82.813149 
L 117.741483 81.293778 
L 118.428933 81.377208 
L 119.116383 82.569342 
L 119.803834 82.512678 
L 120.491284 82.945232 
L 121.178734 82.725792 
L 121.866184 82.321872 
L 122.553635 83.115027 
L 123.241085 82.767604 
L 124.615986 82.645413 
L 125.303436 83.809086 
L 126.678336 80.152461 
L 127.365787 80.697604 
L 128.053237 80.936766 
L 128.740687 80.614955 
L 129.428137 81.138588 
L 130.115588 80.570449 
L 130.803038 81.30434 
L 131.490488 81.48793 
L 132.177939 80.588043 
L 132.865389 81.443666 
L 133.552839 81.577273 
L 134.240289 82.08557 
L 134.92774 81.777122 
L 135.61519 81.939486 
L 136.30264 81.862563 
L 136.99009 82.466222 
L 137.677541 82.814628 
L 138.364991 82.855328 
L 139.052441 82.130097 
L 139.739892 82.224719 
L 140.427342 81.591547 
L 141.114792 83.225419 
L 141.802242 83.687725 
L 142.489693 83.595287 
L 143.864593 84.466868 
L 145.239494 84.606578 
L 145.926944 85.222565 
L 146.614394 85.596557 
L 147.301844 83.881765 
L 147.989295 83.593433 
L 148.676745 83.435955 
L 149.364195 82.89823 
L 150.739096 83.110788 
L 151.426546 84.020286 
L 152.113996 83.973307 
L 152.801447 84.470794 
L 153.488897 83.972997 
L 154.863797 84.327755 
L 156.238698 84.441653 
L 157.613599 83.645878 
L 158.301049 83.539224 
L 158.988499 82.661533 
L 159.675949 82.979352 
L 161.7383 81.210223 
L 162.42575 81.398249 
L 163.113201 80.780667 
L 163.800651 80.983111 
L 164.488101 80.92655 
L 165.175552 80.318456 
L 165.863002 80.01581 
L 166.550452 79.443548 
L 167.925353 81.418189 
L 168.612803 80.797378 
L 169.300253 79.914012 
L 169.987703 78.807129 
L 170.675154 78.236835 
L 171.362604 78.359004 
L 172.050054 77.924556 
L 173.424955 77.496643 
L 174.112405 77.480207 
L 174.799855 77.930044 
L 175.487306 77.111362 
L 176.174756 78.246911 
L 177.549656 77.778193 
M 178.924557 77.000168 
L 180.299458 76.180981 
L 180.986908 75.972409 
L 181.674358 74.929242 
L 182.361808 74.121459 
L 183.049259 74.323724 
L 183.736709 74.680148 
L 184.424159 74.41753 
L 185.111609 74.029405 
L 185.79906 74.38813 
L 186.48651 73.906161 
L 187.17396 73.789716 
L 187.86141 73.530436 
L 188.548861 73.471317 
L 189.236311 73.809746 
L 189.923761 73.738902 
L 190.611212 73.113065 
L 191.298662 72.760618 
L 191.986112 73.677394 
L 192.673562 75.524861 
M 194.048463 75.845604 
L 194.735913 76.034935 
L 195.423363 74.754468 
L 196.110814 74.998831 
L 196.798264 74.745964 
L 197.485714 74.342378 
L 198.173165 75.460277 
L 198.860615 76.31667 
L 199.548065 75.527454 
L 200.235515 76.2733 
L 200.922966 74.199542 
L 201.610416 75.09199 
L 202.297866 75.065366 
L 203.672767 75.689146 
L 205.047667 76.735104 
L 205.735118 76.204488 
L 206.422568 76.618462 
L 207.110018 75.695549 
L 207.797468 75.187634 
L 208.484919 75.33305 
L 210.547269 74.959172 
L 211.92217 76.44076 
L 213.297071 78.15226 
L 213.984521 79.231209 
L 214.671971 79.703913 
L 215.359421 79.553781 
L 216.046872 79.593075 
L 216.734322 80.545503 
L 217.421772 81.055062 
L 218.109222 81.184648 
L 218.796673 81.999231 
L 220.171573 83.078638 
L 220.859024 82.772427 
M 222.233924 82.59994 
L 223.608825 82.8 
L 224.296275 82.041943 
M 225.671175 82.485755 
L 226.358626 82.277992 
L 227.046076 81.951499 
L 227.733526 81.893672 
L 229.108427 80.494553 
L 229.795877 80.358157 
M 231.170778 80.66074 
L 231.858228 81.408042 
L 232.545678 82.646864 
L 233.233128 83.47219 
L 233.920579 83.823958 
L 234.608029 84.424754 
L 235.295479 83.769592 
L 238.04528 83.552648 
M 239.420181 84.906825 
L 240.107631 84.492515 
L 240.795081 84.229925 
L 241.482532 84.267412 
L 242.857432 84.747182 
L 243.544882 85.536181 
M 244.919783 85.920917 
L 245.607233 86.176464 
M 246.982134 86.967115 
L 248.357034 89.380149 
L 249.044485 89.769475 
L 249.731935 91.232139 
L 250.419385 91.620925 
L 251.106835 92.257597 
L 252.481736 92.179695 
L 253.169186 91.9934 
L 253.856637 91.48847 
L 254.544087 92.028586 
M 255.918987 92.461011 
L 256.606438 92.698503 
L 257.981338 95.381151 
L 258.668788 94.822762 
L 259.356239 95.007265 
L 260.043689 95.570772 
L 260.731139 95.944435 
L 261.41859 96.172908 
L 262.10604 96.775783 
L 262.79349 96.978407 
L 263.48094 97.639249 
L 264.168391 97.609069 
M 265.543291 96.946399 
L 266.230741 96.574549 
L 266.918192 98.45051 
L 267.605642 98.645669 
L 268.293092 98.993367 
L 268.980542 99.175988 
L 271.042893 100.782511 
M 272.417794 101.690227 
L 273.105244 102.790257 
L 273.792694 103.313371 
L 275.167595 105.202394 
L 275.855045 105.363275 
L 277.229946 105.154273 
L 277.917396 106.182755 
L 278.604846 106.078496 
L 279.292297 106.716178 
L 279.979747 108.11766 
L 281.354647 106.311303 
L 282.042098 106.498433 
L 282.729548 106.20179 
L 283.416998 106.16348 
L 284.104448 105.05065 
L 284.791899 105.56585 
L 285.479349 105.127408 
L 286.166799 104.848745 
L 286.85425 104.916183 
L 287.5417 105.255912 
L 288.22915 104.890936 
L 288.9166 105.719294 
L 289.604051 105.424434 
L 290.291501 105.464708 
L 290.978951 105.849677 
L 291.666401 104.527025 
L 292.353852 104.336643 
L 293.041302 104.31911 
L 293.728752 103.948545 
L 295.103653 104.68195 
L 296.478553 103.182811 
L 297.166004 102.168464 
L 297.853454 101.603612 
L 299.228354 101.473194 
M 301.978156 101.427377 
L 303.353056 101.073018 
L 304.040506 99.469313 
L 304.727957 96.899498 
L 305.415407 96.640981 
L 306.102857 96.554268 
L 306.790307 96.617345 
L 307.477758 94.176531 
L 308.165208 93.308191 
L 309.540108 92.667252 
L 310.227559 92.388477 
L 310.915009 91.941984 
L 311.602459 92.307931 
L 312.97736 92.671873 
L 313.66481 91.917845 
L 314.35226 90.837509 
L 315.039711 90.227461 
L 315.727161 90.231872 
L 316.414611 89.448725 
L 317.102061 89.089197 
L 317.789512 89.047075 
L 318.476962 89.29117 
L 319.164412 89.913886 
L 319.851863 88.923818 
L 320.539313 88.524532 
L 321.226763 88.787028 
L 321.914213 87.039013 
L 322.601664 87.163352 
L 323.289114 87.016792 
L 323.976564 86.479723 
L 324.664014 87.347587 
L 325.351465 87.440443 
L 326.038915 87.059665 
L 326.726365 86.943509 
L 327.413816 86.294897 
L 328.101266 86.745769 
M 329.476166 87.134757 
L 330.163617 86.187338 
L 330.851067 86.527251 
L 331.538517 86.022254 
L 332.225967 85.768816 
L 332.913418 86.183402 
L 333.600868 85.452407 
L 334.288318 85.208768 
L 334.975769 85.765338 
L 335.663219 85.359005 
L 336.350669 85.556436 
L 337.038119 85.217055 
L 337.72557 85.252252 
L 338.41302 84.911286 
L 339.10047 85.469264 
L 339.78792 85.268489 
L 340.475371 84.262185 
L 341.162821 82.596109 
L 342.537722 82.215332 
L 343.225172 81.619162 
L 343.912622 81.73766 
L 344.600072 81.277871 
L 345.287523 81.872644 
L 345.974973 81.865598 
L 346.662423 82.708101 
L 347.349873 81.861149 
L 348.037324 81.275131 
L 349.412224 80.989308 
L 350.099675 81.994439 
L 350.787125 82.043787 
L 351.474575 82.827025 
L 352.162025 82.398543 
L 352.849476 82.8 
L 352.849476 82.8 
" style="fill:none;stroke:#1f77b4;stroke-linecap:square;stroke-width:1.5;"/>
   </g>
   <g id="line2d_11">
    <path clip-path="url(#pf7565cf526)" d="M 34.56 82.8 
L 414.72 82.8 
" style="fill:none;stroke:#000000;stroke-dasharray:1.5,2.475;stroke-dashoffset:0;stroke-width:1.5;"/>
   </g>
   <g id="patch_3">
    <path d="M 34.56 162 
L 34.56 3.6 
" style="fill:none;stroke:#000000;stroke-linecap:square;stroke-linejoin:miter;stroke-width:0.8;"/>
   </g>
   <g id="patch_4">
    <path d="M 414.72 162 
L 414.72 3.6 
" style="fill:none;stroke:#000000;stroke-linecap:square;stroke-linejoin:miter;stroke-width:0.8;"/>
   </g>
   <g id="patch_5">
    <path d="M 34.56 162 
L 414.72 162 
" style="fill:none;stroke:#000000;stroke-linecap:square;stroke-linejoin:miter;stroke-width:0.8;"/>
   </g>
   <g id="patch_6">
    <path d="M 34.56 3.6 
L 414.72 3.6 
" style="fill:none;stroke:#000000;stroke-linecap:square;stroke-linejoin:miter;stroke-width:0.8;"/>
   </g>
  </g>
 </g>
 <defs>
  <clipPath id="pf7565cf526">
   <rect height="158.4" width="380.16" x="34.56" y="3.6"/>
  </clipPath>
 </defs>
</svg>
