<?xml version="1.0" encoding="utf-8" standalone="no"?>
<!DOCTYPE svg PUBLIC "-//W3C//DTD SVG 1.1//EN"
  "http://www.w3.org/Graphics/SVG/1.1/DTD/svg11.dtd">
<svg height="180pt" version="1.1" viewBox="0 0 432 180" width="432pt" xmlns="http://www.w3.org/2000/svg" xmlns:xlink="http://www.w3.org/1999/xlink">
 <metadata>
  <rdf:RDF xmlns:cc="http://creativecommons.org/ns#" xmlns:dc="http://purl.org/dc/elements/1.1/" xmlns:rdf="http://www.w3.org/1999/02/22-rdf-syntax-ns#">
   <cc:Work>
    <dc:type rdf:resource="http://purl.org/dc/dcmitype/StillImage"/>
    <dc:date>2021-08-12T10:41:48.417098</dc:date>
    <dc:format>image/svg+xml</dc:format>
    <dc:creator>
     <cc:Agent>
      <dc:title>Matplotlib v3.4.2, https://matplotlib.org/</dc:title>
     </cc:Agent>
    </dc:creator>
   </cc:Work>
  </rdf:RDF>
 </metadata>
 <defs>
  <style type="text/css">*{stroke-linecap:butt;stroke-linejoin:round;}</style>
 </defs>
 <g id="figure_1">
  <g id="patch_1">
   <path d="M 0 180 
L 432 180 
L 432 0 
L 0 0 
z
" style="fill:#ffffff;"/>
  </g>
  <g id="axes_1">
   <g id="patch_2">
    <path d="M 34.56 162 
L 414.72 162 
L 414.72 3.6 
L 34.56 3.6 
z
" style="fill:#ffffff;"/>
   </g>
   <g id="PolyCollection_1">
    <path clip-path="url(#p4843b42181)" d="M 92.747755 82.0381 
L 92.747755 83.5619 
L 93.394286 84.318013 
L 94.040816 85.070279 
L 94.687347 85.818696 
L 95.333878 86.563266 
L 95.980408 87.303987 
L 96.626939 88.040861 
L 97.273469 88.773887 
L 97.92 89.503065 
L 98.566531 90.228395 
L 99.213061 90.949877 
L 99.859592 91.667512 
L 100.506122 92.381298 
L 101.152653 93.091236 
L 101.799184 93.797327 
L 102.445714 94.49957 
L 103.092245 95.197964 
L 103.738776 95.892511 
L 104.385306 96.58321 
L 105.031837 97.270061 
L 105.678367 97.953064 
L 106.324898 98.63222 
L 106.971429 99.307527 
L 107.617959 99.978986 
L 108.26449 100.646598 
L 108.91102 101.310361 
L 109.557551 101.970277 
L 110.204082 102.626345 
L 110.850612 103.278565 
L 111.497143 103.926937 
L 112.143673 104.571461 
L 112.790204 105.212137 
L 113.436735 105.848965 
L 114.083265 106.481946 
L 114.729796 107.111078 
L 115.376327 107.736363 
L 116.022857 108.357799 
L 116.669388 108.975388 
L 117.315918 109.589129 
L 117.962449 110.199022 
L 118.60898 110.805067 
L 119.25551 111.407264 
L 119.902041 112.005613 
L 120.548571 112.600115 
L 121.195102 113.190768 
L 121.841633 113.777573 
L 122.488163 114.360531 
L 123.134694 114.939641 
L 123.781224 115.514903 
L 124.427755 116.086316 
L 125.074286 116.653882 
L 125.720816 117.217601 
L 126.367347 117.777471 
L 127.013878 118.333493 
L 127.013878 47.266507 
L 127.013878 47.266507 
L 126.367347 47.822529 
L 125.720816 48.382399 
L 125.074286 48.946118 
L 124.427755 49.513684 
L 123.781224 50.085097 
L 123.134694 50.660359 
L 122.488163 51.239469 
L 121.841633 51.822427 
L 121.195102 52.409232 
L 120.548571 52.999885 
L 119.902041 53.594387 
L 119.25551 54.192736 
L 118.60898 54.794933 
L 117.962449 55.400978 
L 117.315918 56.010871 
L 116.669388 56.624612 
L 116.022857 57.242201 
L 115.376327 57.863637 
L 114.729796 58.488922 
L 114.083265 59.118054 
L 113.436735 59.751035 
L 112.790204 60.387863 
L 112.143673 61.028539 
L 111.497143 61.673063 
L 110.850612 62.321435 
L 110.204082 62.973655 
L 109.557551 63.629723 
L 108.91102 64.289639 
L 108.26449 64.953402 
L 107.617959 65.621014 
L 106.971429 66.292473 
L 106.324898 66.96778 
L 105.678367 67.646936 
L 105.031837 68.329939 
L 104.385306 69.01679 
L 103.738776 69.707489 
L 103.092245 70.402036 
L 102.445714 71.10043 
L 101.799184 71.802673 
L 101.152653 72.508764 
L 100.506122 73.218702 
L 99.859592 73.932488 
L 99.213061 74.650123 
L 98.566531 75.371605 
L 97.92 76.096935 
L 97.273469 76.826113 
L 96.626939 77.559139 
L 95.980408 78.296013 
L 95.333878 79.036734 
L 94.687347 79.781304 
L 94.040816 80.529721 
L 93.394286 81.281987 
L 92.747755 82.0381 
z
" style="fill:#0000ff;fill-opacity:0.1;stroke:#0000ff;stroke-opacity:0.1;"/>
    <path clip-path="url(#p4843b42181)" d="M 134.125714 46.714333 
L 134.125714 118.885667 
L 134.772245 119.433994 
L 135.418776 119.978472 
L 136.065306 120.519103 
L 136.711837 121.055886 
L 137.358367 121.588821 
L 138.004898 122.117907 
L 138.651429 122.643146 
L 139.297959 123.164538 
L 139.94449 123.682081 
L 140.59102 124.195776 
L 141.237551 124.705624 
L 141.884082 125.211623 
L 142.530612 125.713775 
L 143.177143 126.212078 
L 143.823673 126.706534 
L 144.470204 127.197142 
L 145.116735 127.683902 
L 145.763265 128.166814 
L 146.409796 128.645878 
L 147.056327 129.121094 
L 147.702857 129.592463 
L 148.349388 130.059983 
L 148.995918 130.523656 
L 149.642449 130.98348 
L 149.642449 34.61652 
L 149.642449 34.61652 
L 148.995918 35.076344 
L 148.349388 35.540017 
L 147.702857 36.007537 
L 147.056327 36.478906 
L 146.409796 36.954122 
L 145.763265 37.433186 
L 145.116735 37.916098 
L 144.470204 38.402858 
L 143.823673 38.893466 
L 143.177143 39.387922 
L 142.530612 39.886225 
L 141.884082 40.388377 
L 141.237551 40.894376 
L 140.59102 41.404224 
L 139.94449 41.917919 
L 139.297959 42.435462 
L 138.651429 42.956854 
L 138.004898 43.482093 
L 137.358367 44.011179 
L 136.711837 44.544114 
L 136.065306 45.080897 
L 135.418776 45.621528 
L 134.772245 46.166006 
L 134.125714 46.714333 
z
" style="fill:#0000ff;fill-opacity:0.1;stroke:#0000ff;stroke-opacity:0.1;"/>
    <path clip-path="url(#p4843b42181)" d="M 152.875102 34.160543 
L 152.875102 131.439457 
L 153.521633 131.891586 
L 154.168163 132.339867 
L 154.814694 132.7843 
L 155.461224 133.224885 
L 156.107755 133.661622 
L 156.754286 134.094512 
L 157.400816 134.523553 
L 158.047347 134.948746 
L 158.693878 135.370092 
L 159.340408 135.78759 
L 159.986939 136.20124 
L 160.633469 136.611041 
L 161.28 137.016995 
L 161.926531 137.419101 
L 162.573061 137.81736 
L 163.219592 138.21177 
L 163.866122 138.602332 
L 164.512653 138.989047 
L 165.159184 139.371913 
L 165.805714 139.750932 
L 166.452245 140.126103 
L 167.098776 140.497425 
L 167.745306 140.8649 
L 168.391837 141.228527 
L 169.038367 141.588306 
L 169.684898 141.944238 
L 170.331429 142.296321 
L 170.977959 142.644556 
L 171.62449 142.988944 
L 172.27102 143.329483 
L 172.917551 143.666175 
L 173.564082 143.999019 
L 174.210612 144.328015 
L 174.857143 144.653163 
L 175.503673 144.974463 
L 176.150204 145.291915 
L 176.796735 145.605519 
L 177.443265 145.915276 
L 178.089796 146.221184 
L 178.736327 146.523245 
L 179.382857 146.821457 
L 180.029388 147.115822 
L 180.675918 147.406339 
L 181.322449 147.693008 
L 181.96898 147.975829 
L 182.61551 148.254802 
L 183.262041 148.529927 
L 183.908571 148.801204 
L 184.555102 149.068634 
L 185.201633 149.332215 
L 185.848163 149.591949 
L 186.494694 149.847834 
L 187.141224 150.099872 
L 187.787755 150.348062 
L 188.434286 150.592404 
L 189.080816 150.832898 
L 189.727347 151.069544 
L 190.373878 151.302343 
L 191.020408 151.531293 
L 191.666939 151.756395 
L 192.313469 151.97765 
L 192.96 152.195056 
L 193.606531 152.408615 
L 194.253061 152.618326 
L 194.899592 152.824189 
L 195.546122 153.026204 
L 196.192653 153.224371 
L 196.839184 153.41869 
L 197.485714 153.609162 
L 198.132245 153.795785 
L 198.778776 153.97856 
L 199.425306 154.157488 
L 200.071837 154.332568 
L 200.718367 154.503799 
L 201.364898 154.671183 
L 202.011429 154.834719 
L 202.657959 154.994407 
L 203.30449 155.150247 
L 203.95102 155.30224 
L 204.597551 155.450384 
L 205.244082 155.59468 
L 205.890612 155.735129 
L 206.537143 155.87173 
L 207.183673 156.004482 
L 207.830204 156.133387 
L 208.476735 156.258444 
L 209.123265 156.379653 
L 209.769796 156.497014 
L 210.416327 156.610527 
L 211.062857 156.720193 
L 211.709388 156.82601 
L 212.355918 156.92798 
L 213.002449 157.026101 
L 213.64898 157.120375 
L 214.29551 157.210801 
L 214.942041 157.297378 
L 215.588571 157.380108 
L 216.235102 157.45899 
L 216.881633 157.534025 
L 217.528163 157.605211 
L 218.174694 157.672549 
L 218.821224 157.73604 
L 219.467755 157.795682 
L 220.114286 157.851477 
L 220.760816 157.903423 
L 221.407347 157.951522 
L 222.053878 157.995773 
L 222.700408 158.036176 
L 223.346939 158.072731 
L 223.993469 158.105438 
L 224.64 158.134298 
L 225.286531 158.159309 
L 225.933061 158.180473 
L 226.579592 158.197788 
L 227.226122 158.211256 
L 227.872653 158.220876 
L 228.519184 158.226647 
L 229.165714 158.228571 
L 229.812245 158.226647 
L 230.458776 158.220876 
L 231.105306 158.211256 
L 231.751837 158.197788 
L 232.398367 158.180473 
L 233.044898 158.159309 
L 233.691429 158.134298 
L 234.337959 158.105438 
L 234.98449 158.072731 
L 235.63102 158.036176 
L 236.277551 157.995773 
L 236.924082 157.951522 
L 237.570612 157.903423 
L 238.217143 157.851477 
L 238.863673 157.795682 
L 239.510204 157.73604 
L 240.156735 157.672549 
L 240.803265 157.605211 
L 241.449796 157.534025 
L 242.096327 157.45899 
L 242.742857 157.380108 
L 243.389388 157.297378 
L 244.035918 157.210801 
L 244.682449 157.120375 
L 245.32898 157.026101 
L 245.97551 156.92798 
L 246.622041 156.82601 
L 247.268571 156.720193 
L 247.915102 156.610527 
L 248.561633 156.497014 
L 249.208163 156.379653 
L 249.854694 156.258444 
L 250.501224 156.133387 
L 251.147755 156.004482 
L 251.794286 155.87173 
L 252.440816 155.735129 
L 253.087347 155.59468 
L 253.733878 155.450384 
L 254.380408 155.30224 
L 255.026939 155.150247 
L 255.673469 154.994407 
L 256.32 154.834719 
L 256.966531 154.671183 
L 257.613061 154.503799 
L 258.259592 154.332568 
L 258.906122 154.157488 
L 259.552653 153.97856 
L 260.199184 153.795785 
L 260.845714 153.609162 
L 261.492245 153.41869 
L 262.138776 153.224371 
L 262.785306 153.026204 
L 263.431837 152.824189 
L 264.078367 152.618326 
L 264.724898 152.408615 
L 265.371429 152.195056 
L 266.017959 151.97765 
L 266.66449 151.756395 
L 267.31102 151.531293 
L 267.957551 151.302343 
L 268.604082 151.069544 
L 269.250612 150.832898 
L 269.897143 150.592404 
L 270.543673 150.348062 
L 271.190204 150.099872 
L 271.836735 149.847834 
L 272.483265 149.591949 
L 273.129796 149.332215 
L 273.776327 149.068634 
L 274.422857 148.801204 
L 275.069388 148.529927 
L 275.715918 148.254802 
L 276.362449 147.975829 
L 277.00898 147.693008 
L 277.65551 147.406339 
L 278.302041 147.115822 
L 278.948571 146.821457 
L 279.595102 146.523245 
L 280.241633 146.221184 
L 280.888163 145.915276 
L 281.534694 145.605519 
L 282.181224 145.291915 
L 282.827755 144.974463 
L 283.474286 144.653163 
L 284.120816 144.328015 
L 284.767347 143.999019 
L 285.413878 143.666175 
L 286.060408 143.329483 
L 286.706939 142.988944 
L 287.353469 142.644556 
L 288 142.296321 
L 288.646531 141.944238 
L 289.293061 141.588306 
L 289.939592 141.228527 
L 290.586122 140.8649 
L 291.232653 140.497425 
L 291.879184 140.126103 
L 292.525714 139.750932 
L 293.172245 139.371913 
L 293.818776 138.989047 
L 294.465306 138.602332 
L 295.111837 138.21177 
L 295.758367 137.81736 
L 296.404898 137.419101 
L 297.051429 137.016995 
L 297.697959 136.611041 
L 298.34449 136.20124 
L 298.99102 135.78759 
L 299.637551 135.370092 
L 300.284082 134.948746 
L 300.930612 134.523553 
L 301.577143 134.094512 
L 302.223673 133.661622 
L 302.870204 133.224885 
L 303.516735 132.7843 
L 304.163265 132.339867 
L 304.809796 131.891586 
L 305.456327 131.439457 
L 306.102857 130.98348 
L 306.749388 130.523656 
L 307.395918 130.059983 
L 308.042449 129.592463 
L 308.68898 129.121094 
L 309.33551 128.645878 
L 309.982041 128.166814 
L 310.628571 127.683902 
L 311.275102 127.197142 
L 311.921633 126.706534 
L 312.568163 126.212078 
L 313.214694 125.713775 
L 313.861224 125.211623 
L 314.507755 124.705624 
L 315.154286 124.195776 
L 315.800816 123.682081 
L 316.447347 123.164538 
L 317.093878 122.643146 
L 317.740408 122.117907 
L 318.386939 121.588821 
L 319.033469 121.055886 
L 319.68 120.519103 
L 320.326531 119.978472 
L 320.973061 119.433994 
L 321.619592 118.885667 
L 322.266122 118.333493 
L 322.912653 117.777471 
L 323.559184 117.217601 
L 324.205714 116.653882 
L 324.852245 116.086316 
L 325.498776 115.514903 
L 326.145306 114.939641 
L 326.791837 114.360531 
L 327.438367 113.777573 
L 328.084898 113.190768 
L 328.731429 112.600115 
L 329.377959 112.005613 
L 330.02449 111.407264 
L 330.67102 110.805067 
L 331.317551 110.199022 
L 331.964082 109.589129 
L 332.610612 108.975388 
L 333.257143 108.357799 
L 333.903673 107.736363 
L 334.550204 107.111078 
L 335.196735 106.481946 
L 335.843265 105.848965 
L 336.489796 105.212137 
L 337.136327 104.571461 
L 337.782857 103.926937 
L 338.429388 103.278565 
L 339.075918 102.626345 
L 339.722449 101.970277 
L 340.36898 101.310361 
L 341.01551 100.646598 
L 341.662041 99.978986 
L 342.308571 99.307527 
L 342.955102 98.63222 
L 343.601633 97.953064 
L 344.248163 97.270061 
L 344.894694 96.58321 
L 345.541224 95.892511 
L 346.187755 95.197964 
L 346.834286 94.49957 
L 347.480816 93.797327 
L 348.127347 93.091236 
L 348.773878 92.381298 
L 349.420408 91.667512 
L 350.066939 90.949877 
L 350.713469 90.228395 
L 351.36 89.503065 
L 352.006531 88.773887 
L 352.653061 88.040861 
L 353.299592 87.303987 
L 353.946122 86.563266 
L 354.592653 85.818696 
L 355.239184 85.070279 
L 355.885714 84.318013 
L 356.532245 83.5619 
L 356.532245 82.0381 
L 356.532245 82.0381 
L 355.885714 81.281987 
L 355.239184 80.529721 
L 354.592653 79.781304 
L 353.946122 79.036734 
L 353.299592 78.296013 
L 352.653061 77.559139 
L 352.006531 76.826113 
L 351.36 76.096935 
L 350.713469 75.371605 
L 350.066939 74.650123 
L 349.420408 73.932488 
L 348.773878 73.218702 
L 348.127347 72.508764 
L 347.480816 71.802673 
L 346.834286 71.10043 
L 346.187755 70.402036 
L 345.541224 69.707489 
L 344.894694 69.01679 
L 344.248163 68.329939 
L 343.601633 67.646936 
L 342.955102 66.96778 
L 342.308571 66.292473 
L 341.662041 65.621014 
L 341.01551 64.953402 
L 340.36898 64.289639 
L 339.722449 63.629723 
L 339.075918 62.973655 
L 338.429388 62.321435 
L 337.782857 61.673063 
L 337.136327 61.028539 
L 336.489796 60.387863 
L 335.843265 59.751035 
L 335.196735 59.118054 
L 334.550204 58.488922 
L 333.903673 57.863637 
L 333.257143 57.242201 
L 332.610612 56.624612 
L 331.964082 56.010871 
L 331.317551 55.400978 
L 330.67102 54.794933 
L 330.02449 54.192736 
L 329.377959 53.594387 
L 328.731429 52.999885 
L 328.084898 52.409232 
L 327.438367 51.822427 
L 326.791837 51.239469 
L 326.145306 50.660359 
L 325.498776 50.085097 
L 324.852245 49.513684 
L 324.205714 48.946118 
L 323.559184 48.382399 
L 322.912653 47.822529 
L 322.266122 47.266507 
L 321.619592 46.714333 
L 320.973061 46.166006 
L 320.326531 45.621528 
L 319.68 45.080897 
L 319.033469 44.544114 
L 318.386939 44.011179 
L 317.740408 43.482093 
L 317.093878 42.956854 
L 316.447347 42.435462 
L 315.800816 41.917919 
L 315.154286 41.404224 
L 314.507755 40.894376 
L 313.861224 40.388377 
L 313.214694 39.886225 
L 312.568163 39.387922 
L 311.921633 38.893466 
L 311.275102 38.402858 
L 310.628571 37.916098 
L 309.982041 37.433186 
L 309.33551 36.954122 
L 308.68898 36.478906 
L 308.042449 36.007537 
L 307.395918 35.540017 
L 306.749388 35.076344 
L 306.102857 34.61652 
L 305.456327 34.160543 
L 304.809796 33.708414 
L 304.163265 33.260133 
L 303.516735 32.8157 
L 302.870204 32.375115 
L 302.223673 31.938378 
L 301.577143 31.505488 
L 300.930612 31.076447 
L 300.284082 30.651254 
L 299.637551 30.229908 
L 298.99102 29.81241 
L 298.34449 29.39876 
L 297.697959 28.988959 
L 297.051429 28.583005 
L 296.404898 28.180899 
L 295.758367 27.78264 
L 295.111837 27.38823 
L 294.465306 26.997668 
L 293.818776 26.610953 
L 293.172245 26.228087 
L 292.525714 25.849068 
L 291.879184 25.473897 
L 291.232653 25.102575 
L 290.586122 24.7351 
L 289.939592 24.371473 
L 289.293061 24.011694 
L 288.646531 23.655762 
L 288 23.303679 
L 287.353469 22.955444 
L 286.706939 22.611056 
L 286.060408 22.270517 
L 285.413878 21.933825 
L 284.767347 21.600981 
L 284.120816 21.271985 
L 283.474286 20.946837 
L 282.827755 20.625537 
L 282.181224 20.308085 
L 281.534694 19.994481 
L 280.888163 19.684724 
L 280.241633 19.378816 
L 279.595102 19.076755 
L 278.948571 18.778543 
L 278.302041 18.484178 
L 277.65551 18.193661 
L 277.00898 17.906992 
L 276.362449 17.624171 
L 275.715918 17.345198 
L 275.069388 17.070073 
L 274.422857 16.798796 
L 273.776327 16.531366 
L 273.129796 16.267785 
L 272.483265 16.008051 
L 271.836735 15.752166 
L 271.190204 15.500128 
L 270.543673 15.251938 
L 269.897143 15.007596 
L 269.250612 14.767102 
L 268.604082 14.530456 
L 267.957551 14.297657 
L 267.31102 14.068707 
L 266.66449 13.843605 
L 266.017959 13.62235 
L 265.371429 13.404944 
L 264.724898 13.191385 
L 264.078367 12.981674 
L 263.431837 12.775811 
L 262.785306 12.573796 
L 262.138776 12.375629 
L 261.492245 12.18131 
L 260.845714 11.990838 
L 260.199184 11.804215 
L 259.552653 11.62144 
L 258.906122 11.442512 
L 258.259592 11.267432 
L 257.613061 11.096201 
L 256.966531 10.928817 
L 256.32 10.765281 
L 255.673469 10.605593 
L 255.026939 10.449753 
L 254.380408 10.29776 
L 253.733878 10.149616 
L 253.087347 10.00532 
L 252.440816 9.864871 
L 251.794286 9.72827 
L 251.147755 9.595518 
L 250.501224 9.466613 
L 249.854694 9.341556 
L 249.208163 9.220347 
L 248.561633 9.102986 
L 247.915102 8.989473 
L 247.268571 8.879807 
L 246.622041 8.77399 
L 245.97551 8.67202 
L 245.32898 8.573899 
L 244.682449 8.479625 
L 244.035918 8.389199 
L 243.389388 8.302622 
L 242.742857 8.219892 
L 242.096327 8.14101 
L 241.449796 8.065975 
L 240.803265 7.994789 
L 240.156735 7.927451 
L 239.510204 7.86396 
L 238.863673 7.804318 
L 238.217143 7.748523 
L 237.570612 7.696577 
L 236.924082 7.648478 
L 236.277551 7.604227 
L 235.63102 7.563824 
L 234.98449 7.527269 
L 234.337959 7.494562 
L 233.691429 7.465702 
L 233.044898 7.440691 
L 232.398367 7.419527 
L 231.751837 7.402212 
L 231.105306 7.388744 
L 230.458776 7.379124 
L 229.812245 7.373353 
L 229.165714 7.371429 
L 228.519184 7.373353 
L 227.872653 7.379124 
L 227.226122 7.388744 
L 226.579592 7.402212 
L 225.933061 7.419527 
L 225.286531 7.440691 
L 224.64 7.465702 
L 223.993469 7.494562 
L 223.346939 7.527269 
L 222.700408 7.563824 
L 222.053878 7.604227 
L 221.407347 7.648478 
L 220.760816 7.696577 
L 220.114286 7.748523 
L 219.467755 7.804318 
L 218.821224 7.86396 
L 218.174694 7.927451 
L 217.528163 7.994789 
L 216.881633 8.065975 
L 216.235102 8.14101 
L 215.588571 8.219892 
L 214.942041 8.302622 
L 214.29551 8.389199 
L 213.64898 8.479625 
L 213.002449 8.573899 
L 212.355918 8.67202 
L 211.709388 8.77399 
L 211.062857 8.879807 
L 210.416327 8.989473 
L 209.769796 9.102986 
L 209.123265 9.220347 
L 208.476735 9.341556 
L 207.830204 9.466613 
L 207.183673 9.595518 
L 206.537143 9.72827 
L 205.890612 9.864871 
L 205.244082 10.00532 
L 204.597551 10.149616 
L 203.95102 10.29776 
L 203.30449 10.449753 
L 202.657959 10.605593 
L 202.011429 10.765281 
L 201.364898 10.928817 
L 200.718367 11.096201 
L 200.071837 11.267432 
L 199.425306 11.442512 
L 198.778776 11.62144 
L 198.132245 11.804215 
L 197.485714 11.990838 
L 196.839184 12.18131 
L 196.192653 12.375629 
L 195.546122 12.573796 
L 194.899592 12.775811 
L 194.253061 12.981674 
L 193.606531 13.191385 
L 192.96 13.404944 
L 192.313469 13.62235 
L 191.666939 13.843605 
L 191.020408 14.068707 
L 190.373878 14.297657 
L 189.727347 14.530456 
L 189.080816 14.767102 
L 188.434286 15.007596 
L 187.787755 15.251938 
L 187.141224 15.500128 
L 186.494694 15.752166 
L 185.848163 16.008051 
L 185.201633 16.267785 
L 184.555102 16.531366 
L 183.908571 16.798796 
L 183.262041 17.070073 
L 182.61551 17.345198 
L 181.96898 17.624171 
L 181.322449 17.906992 
L 180.675918 18.193661 
L 180.029388 18.484178 
L 179.382857 18.778543 
L 178.736327 19.076755 
L 178.089796 19.378816 
L 177.443265 19.684724 
L 176.796735 19.994481 
L 176.150204 20.308085 
L 175.503673 20.625537 
L 174.857143 20.946837 
L 174.210612 21.271985 
L 173.564082 21.600981 
L 172.917551 21.933825 
L 172.27102 22.270517 
L 171.62449 22.611056 
L 170.977959 22.955444 
L 170.331429 23.303679 
L 169.684898 23.655762 
L 169.038367 24.011694 
L 168.391837 24.371473 
L 167.745306 24.7351 
L 167.098776 25.102575 
L 166.452245 25.473897 
L 165.805714 25.849068 
L 165.159184 26.228087 
L 164.512653 26.610953 
L 163.866122 26.997668 
L 163.219592 27.38823 
L 162.573061 27.78264 
L 161.926531 28.180899 
L 161.28 28.583005 
L 160.633469 28.988959 
L 159.986939 29.39876 
L 159.340408 29.81241 
L 158.693878 30.229908 
L 158.047347 30.651254 
L 157.400816 31.076447 
L 156.754286 31.505488 
L 156.107755 31.938378 
L 155.461224 32.375115 
L 154.814694 32.8157 
L 154.168163 33.260133 
L 153.521633 33.708414 
L 152.875102 34.160543 
z
" style="fill:#0000ff;fill-opacity:0.1;stroke:#0000ff;stroke-opacity:0.1;"/>
   </g>
   <g id="matplotlib.axis_1">
    <g id="xtick_1">
     <g id="line2d_1">
      <defs>
       <path d="M 0 0 
L 0 3.5 
" id="m1cb55c97bf" style="stroke:#000000;stroke-width:0.8;"/>
      </defs>
      <g>
       <use style="stroke:#000000;stroke-width:0.8;" x="41.995102" xlink:href="#m1cb55c97bf" y="162"/>
      </g>
     </g>
     <g id="text_1">
      <!-- 1980 -->
      <g transform="translate(29.270102 176.598438)scale(0.1 -0.1)">
       <defs>
        <path d="M 794 531 
L 1825 531 
L 1825 4091 
L 703 3866 
L 703 4441 
L 1819 4666 
L 2450 4666 
L 2450 531 
L 3481 531 
L 3481 0 
L 794 0 
L 794 531 
z
" id="DejaVuSans-31" transform="scale(0.015625)"/>
        <path d="M 703 97 
L 703 672 
Q 941 559 1184 500 
Q 1428 441 1663 441 
Q 2288 441 2617 861 
Q 2947 1281 2994 2138 
Q 2813 1869 2534 1725 
Q 2256 1581 1919 1581 
Q 1219 1581 811 2004 
Q 403 2428 403 3163 
Q 403 3881 828 4315 
Q 1253 4750 1959 4750 
Q 2769 4750 3195 4129 
Q 3622 3509 3622 2328 
Q 3622 1225 3098 567 
Q 2575 -91 1691 -91 
Q 1453 -91 1209 -44 
Q 966 3 703 97 
z
M 1959 2075 
Q 2384 2075 2632 2365 
Q 2881 2656 2881 3163 
Q 2881 3666 2632 3958 
Q 2384 4250 1959 4250 
Q 1534 4250 1286 3958 
Q 1038 3666 1038 3163 
Q 1038 2656 1286 2365 
Q 1534 2075 1959 2075 
z
" id="DejaVuSans-39" transform="scale(0.015625)"/>
        <path d="M 2034 2216 
Q 1584 2216 1326 1975 
Q 1069 1734 1069 1313 
Q 1069 891 1326 650 
Q 1584 409 2034 409 
Q 2484 409 2743 651 
Q 3003 894 3003 1313 
Q 3003 1734 2745 1975 
Q 2488 2216 2034 2216 
z
M 1403 2484 
Q 997 2584 770 2862 
Q 544 3141 544 3541 
Q 544 4100 942 4425 
Q 1341 4750 2034 4750 
Q 2731 4750 3128 4425 
Q 3525 4100 3525 3541 
Q 3525 3141 3298 2862 
Q 3072 2584 2669 2484 
Q 3125 2378 3379 2068 
Q 3634 1759 3634 1313 
Q 3634 634 3220 271 
Q 2806 -91 2034 -91 
Q 1263 -91 848 271 
Q 434 634 434 1313 
Q 434 1759 690 2068 
Q 947 2378 1403 2484 
z
M 1172 3481 
Q 1172 3119 1398 2916 
Q 1625 2713 2034 2713 
Q 2441 2713 2670 2916 
Q 2900 3119 2900 3481 
Q 2900 3844 2670 4047 
Q 2441 4250 2034 4250 
Q 1625 4250 1398 4047 
Q 1172 3844 1172 3481 
z
" id="DejaVuSans-38" transform="scale(0.015625)"/>
        <path d="M 2034 4250 
Q 1547 4250 1301 3770 
Q 1056 3291 1056 2328 
Q 1056 1369 1301 889 
Q 1547 409 2034 409 
Q 2525 409 2770 889 
Q 3016 1369 3016 2328 
Q 3016 3291 2770 3770 
Q 2525 4250 2034 4250 
z
M 2034 4750 
Q 2819 4750 3233 4129 
Q 3647 3509 3647 2328 
Q 3647 1150 3233 529 
Q 2819 -91 2034 -91 
Q 1250 -91 836 529 
Q 422 1150 422 2328 
Q 422 3509 836 4129 
Q 1250 4750 2034 4750 
z
" id="DejaVuSans-30" transform="scale(0.015625)"/>
       </defs>
       <use xlink:href="#DejaVuSans-31"/>
       <use x="63.623047" xlink:href="#DejaVuSans-39"/>
       <use x="127.246094" xlink:href="#DejaVuSans-38"/>
       <use x="190.869141" xlink:href="#DejaVuSans-30"/>
      </g>
     </g>
    </g>
    <g id="xtick_2">
     <g id="line2d_2">
      <g>
       <use style="stroke:#000000;stroke-width:0.8;" x="119.578776" xlink:href="#m1cb55c97bf" y="162"/>
      </g>
     </g>
     <g id="text_2">
      <!-- 1990 -->
      <g transform="translate(106.853776 176.598438)scale(0.1 -0.1)">
       <use xlink:href="#DejaVuSans-31"/>
       <use x="63.623047" xlink:href="#DejaVuSans-39"/>
       <use x="127.246094" xlink:href="#DejaVuSans-39"/>
       <use x="190.869141" xlink:href="#DejaVuSans-30"/>
      </g>
     </g>
    </g>
    <g id="xtick_3">
     <g id="line2d_3">
      <g>
       <use style="stroke:#000000;stroke-width:0.8;" x="197.162449" xlink:href="#m1cb55c97bf" y="162"/>
      </g>
     </g>
     <g id="text_3">
      <!-- 2000 -->
      <g transform="translate(184.437449 176.598438)scale(0.1 -0.1)">
       <defs>
        <path d="M 1228 531 
L 3431 531 
L 3431 0 
L 469 0 
L 469 531 
Q 828 903 1448 1529 
Q 2069 2156 2228 2338 
Q 2531 2678 2651 2914 
Q 2772 3150 2772 3378 
Q 2772 3750 2511 3984 
Q 2250 4219 1831 4219 
Q 1534 4219 1204 4116 
Q 875 4013 500 3803 
L 500 4441 
Q 881 4594 1212 4672 
Q 1544 4750 1819 4750 
Q 2544 4750 2975 4387 
Q 3406 4025 3406 3419 
Q 3406 3131 3298 2873 
Q 3191 2616 2906 2266 
Q 2828 2175 2409 1742 
Q 1991 1309 1228 531 
z
" id="DejaVuSans-32" transform="scale(0.015625)"/>
       </defs>
       <use xlink:href="#DejaVuSans-32"/>
       <use x="63.623047" xlink:href="#DejaVuSans-30"/>
       <use x="127.246094" xlink:href="#DejaVuSans-30"/>
       <use x="190.869141" xlink:href="#DejaVuSans-30"/>
      </g>
     </g>
    </g>
    <g id="xtick_4">
     <g id="line2d_4">
      <g>
       <use style="stroke:#000000;stroke-width:0.8;" x="274.746122" xlink:href="#m1cb55c97bf" y="162"/>
      </g>
     </g>
     <g id="text_4">
      <!-- 2010 -->
      <g transform="translate(262.021122 176.598438)scale(0.1 -0.1)">
       <use xlink:href="#DejaVuSans-32"/>
       <use x="63.623047" xlink:href="#DejaVuSans-30"/>
       <use x="127.246094" xlink:href="#DejaVuSans-31"/>
       <use x="190.869141" xlink:href="#DejaVuSans-30"/>
      </g>
     </g>
    </g>
    <g id="xtick_5">
     <g id="line2d_5">
      <g>
       <use style="stroke:#000000;stroke-width:0.8;" x="352.329796" xlink:href="#m1cb55c97bf" y="162"/>
      </g>
     </g>
     <g id="text_5">
      <!-- 2020 -->
      <g transform="translate(339.604796 176.598438)scale(0.1 -0.1)">
       <use xlink:href="#DejaVuSans-32"/>
       <use x="63.623047" xlink:href="#DejaVuSans-30"/>
       <use x="127.246094" xlink:href="#DejaVuSans-32"/>
       <use x="190.869141" xlink:href="#DejaVuSans-30"/>
      </g>
     </g>
    </g>
   </g>
   <g id="matplotlib.axis_2">
    <g id="ytick_1">
     <g id="line2d_6">
      <defs>
       <path d="M 0 0 
L -3.5 0 
" id="ma0cfe6e05c" style="stroke:#000000;stroke-width:0.8;"/>
      </defs>
      <g>
       <use style="stroke:#000000;stroke-width:0.8;" x="34.56" xlink:href="#ma0cfe6e05c" y="136.548647"/>
      </g>
     </g>
     <g id="text_6">
      <!-- −40 -->
      <g transform="translate(6.455313 140.347866)scale(0.1 -0.1)">
       <defs>
        <path d="M 678 2272 
L 4684 2272 
L 4684 1741 
L 678 1741 
L 678 2272 
z
" id="DejaVuSans-2212" transform="scale(0.015625)"/>
        <path d="M 2419 4116 
L 825 1625 
L 2419 1625 
L 2419 4116 
z
M 2253 4666 
L 3047 4666 
L 3047 1625 
L 3713 1625 
L 3713 1100 
L 3047 1100 
L 3047 0 
L 2419 0 
L 2419 1100 
L 313 1100 
L 313 1709 
L 2253 4666 
z
" id="DejaVuSans-34" transform="scale(0.015625)"/>
       </defs>
       <use xlink:href="#DejaVuSans-2212"/>
       <use x="83.789062" xlink:href="#DejaVuSans-34"/>
       <use x="147.412109" xlink:href="#DejaVuSans-30"/>
      </g>
     </g>
    </g>
    <g id="ytick_2">
     <g id="line2d_7">
      <g>
       <use style="stroke:#000000;stroke-width:0.8;" x="34.56" xlink:href="#ma0cfe6e05c" y="109.674324"/>
      </g>
     </g>
     <g id="text_7">
      <!-- −20 -->
      <g transform="translate(6.455313 113.473542)scale(0.1 -0.1)">
       <use xlink:href="#DejaVuSans-2212"/>
       <use x="83.789062" xlink:href="#DejaVuSans-32"/>
       <use x="147.412109" xlink:href="#DejaVuSans-30"/>
      </g>
     </g>
    </g>
    <g id="ytick_3">
     <g id="line2d_8">
      <g>
       <use style="stroke:#000000;stroke-width:0.8;" x="34.56" xlink:href="#ma0cfe6e05c" y="82.8"/>
      </g>
     </g>
     <g id="text_8">
      <!-- 0 -->
      <g transform="translate(21.1975 86.599219)scale(0.1 -0.1)">
       <use xlink:href="#DejaVuSans-30"/>
      </g>
     </g>
    </g>
    <g id="ytick_4">
     <g id="line2d_9">
      <g>
       <use style="stroke:#000000;stroke-width:0.8;" x="34.56" xlink:href="#ma0cfe6e05c" y="55.925676"/>
      </g>
     </g>
     <g id="text_9">
      <!-- 20 -->
      <g transform="translate(14.835 59.724895)scale(0.1 -0.1)">
       <use xlink:href="#DejaVuSans-32"/>
       <use x="63.623047" xlink:href="#DejaVuSans-30"/>
      </g>
     </g>
    </g>
    <g id="ytick_5">
     <g id="line2d_10">
      <g>
       <use style="stroke:#000000;stroke-width:0.8;" x="34.56" xlink:href="#ma0cfe6e05c" y="29.051353"/>
      </g>
     </g>
     <g id="text_10">
      <!-- 40 -->
      <g transform="translate(14.835 32.850571)scale(0.1 -0.1)">
       <use xlink:href="#DejaVuSans-34"/>
       <use x="63.623047" xlink:href="#DejaVuSans-30"/>
      </g>
     </g>
    </g>
   </g>
   <g id="line2d_11">
    <path clip-path="url(#p4843b42181)" d="M 92.747755 82.256932 
L 93.394286 81.636709 
L 94.040816 81.26575 
L 94.687347 80.712728 
L 95.333878 80.323755 
L 96.626939 80.457945 
L 97.273469 79.778737 
L 97.92 80.102448 
L 98.566531 79.939896 
L 99.859592 79.960076 
L 100.506122 79.920765 
L 101.152653 79.761762 
L 101.799184 79.114065 
L 103.092245 79.478127 
L 103.738776 79.451661 
L 104.385306 79.218934 
L 105.031837 79.198854 
L 105.678367 79.523973 
L 106.324898 79.581349 
L 108.26449 80.417371 
L 108.91102 80.276157 
L 109.557551 80.408489 
L 110.204082 80.722868 
L 110.850612 80.654771 
L 111.497143 80.976026 
L 112.790204 80.516154 
L 113.436735 80.417162 
L 114.083265 80.90926 
L 114.729796 80.840532 
L 115.376327 81.05068 
L 116.022857 81.38664 
L 118.60898 80.103755 
L 119.25551 79.360757 
L 119.902041 79.457477 
L 120.548571 79.071302 
L 121.195102 78.843901 
L 122.488163 78.023291 
L 123.781224 78.059117 
L 124.427755 77.757596 
L 125.074286 77.936241 
L 126.367347 77.538284 
L 127.013878 77.723552 
M 134.125714 77.911653 
L 134.772245 77.805654 
L 135.418776 77.952536 
L 136.711837 77.766382 
L 137.358367 77.355666 
L 138.004898 77.378735 
L 138.651429 77.174729 
L 139.297959 76.805093 
L 139.94449 76.773508 
L 141.237551 76.315009 
L 143.177143 75.939138 
L 143.823673 76.066162 
L 144.470204 75.593468 
L 145.116735 75.92512 
L 145.763265 75.520942 
L 146.409796 75.332763 
L 147.056327 75.66742 
L 147.702857 75.3846 
L 148.349388 75.45113 
L 149.642449 75.101267 
M 152.875102 75.764548 
L 153.521633 76.362546 
L 154.168163 76.428171 
L 154.814694 75.821781 
L 155.461224 75.966442 
L 156.107755 76.558996 
L 156.754286 76.850875 
L 157.400816 77.380622 
L 158.047347 77.61998 
L 158.693878 78.299349 
L 159.340408 78.525349 
L 159.986939 78.914587 
L 160.633469 79.745687 
L 161.28 79.7746 
L 161.926531 80.250236 
L 162.573061 79.949694 
L 163.219592 79.307581 
L 163.866122 79.720014 
L 165.159184 79.770045 
L 165.805714 80.181689 
L 167.745306 82.373239 
L 168.391837 82.160837 
L 169.038367 82.831155 
L 169.684898 82.847625 
L 170.331429 83.013078 
L 170.977959 83.488905 
L 171.62449 84.225435 
L 172.27102 84.148342 
L 172.917551 84.440772 
L 174.210612 83.539247 
L 174.857143 83.617457 
L 175.503673 83.348906 
L 176.150204 83.782506 
L 178.736327 84.742547 
L 180.029388 84.91068 
L 181.322449 85.979886 
L 181.96898 85.589672 
L 182.61551 86.260698 
L 183.262041 86.531126 
L 183.908571 86.961678 
L 184.555102 87.57235 
L 185.201633 88.476702 
L 185.848163 88.674089 
L 187.787755 90.563613 
L 189.080816 91.021171 
L 189.727347 91.132456 
L 190.373878 91.751363 
L 192.313469 92.408822 
L 192.96 92.870449 
L 193.606531 93.013095 
L 194.899592 92.530817 
L 195.546122 93.052938 
L 196.192653 93.263272 
L 196.839184 93.689456 
L 197.485714 93.892283 
L 199.425306 95.19377 
L 200.718367 95.349697 
L 201.364898 96.027522 
L 202.011429 95.975171 
L 202.657959 96.565109 
L 203.30449 96.904025 
L 204.597551 96.846566 
L 205.890612 96.607742 
L 206.537143 97.162834 
L 207.183673 97.950459 
L 207.830204 98.311574 
L 208.476735 98.964885 
L 209.123265 99.197111 
L 209.769796 99.679855 
L 210.416327 100.497535 
L 211.062857 100.693065 
L 212.355918 102.049564 
L 213.002449 102.515629 
L 213.64898 102.709632 
L 214.942041 103.681652 
L 216.235102 105.123973 
L 216.881633 105.598934 
L 217.528163 105.779134 
L 218.174694 105.680306 
L 218.821224 106.362538 
L 219.467755 106.625065 
L 220.114286 107.201801 
L 220.760816 107.421969 
L 221.407347 107.9108 
L 222.053878 107.836037 
L 223.346939 109.144763 
L 223.993469 108.997263 
L 224.64 109.212592 
L 225.933061 108.677202 
L 227.872653 109.154586 
L 228.519184 109.575192 
L 229.165714 110.221264 
L 230.458776 110.957702 
L 231.105306 111.589117 
L 231.751837 112.038276 
L 233.044898 112.548959 
L 233.691429 112.575635 
L 234.337959 112.753863 
L 234.98449 113.407728 
L 237.570612 115.303394 
L 238.217143 115.297563 
L 238.863673 115.477483 
L 239.510204 115.44085 
L 240.803265 116.024311 
L 241.449796 115.692094 
L 242.742857 114.245865 
L 243.389388 113.71059 
L 244.035918 112.773094 
L 245.97551 112.390889 
L 246.622041 111.998902 
L 247.268571 111.237221 
L 247.915102 110.65865 
L 248.561633 110.993034 
L 249.208163 110.91117 
L 251.147755 110.333762 
L 251.794286 110.560048 
L 252.440816 110.462574 
L 253.087347 110.099808 
L 253.733878 109.258807 
L 254.380408 108.827292 
L 255.026939 108.692133 
L 256.32 108.807835 
L 256.966531 109.11823 
L 257.613061 108.994934 
L 258.906122 109.183395 
L 259.552653 109.074602 
L 260.199184 108.564748 
L 260.845714 108.820509 
L 261.492245 108.798822 
L 262.138776 108.135051 
L 262.785306 107.651764 
L 263.431837 107.403787 
L 264.078367 107.64803 
L 266.017959 107.697499 
L 266.66449 107.470171 
L 267.31102 106.607505 
L 267.957551 106.686031 
L 268.604082 106.637638 
L 269.250612 105.945702 
L 269.897143 105.745792 
L 270.543673 105.990072 
L 271.190204 105.947096 
L 271.836735 105.728591 
L 272.483265 105.11748 
L 273.129796 105.419122 
L 273.776327 105.368901 
L 275.069388 104.972183 
L 277.00898 104.474288 
L 277.65551 104.746546 
L 278.948571 103.569847 
L 281.534694 103.762351 
L 282.181224 103.357961 
L 282.827755 103.195663 
L 283.474286 103.21297 
L 284.120816 102.149938 
L 286.060408 100.474152 
L 286.706939 100.545255 
L 287.353469 100.790313 
L 288.646531 99.760212 
L 289.293061 98.992201 
L 290.586122 99.387392 
L 291.232653 99.082117 
L 291.879184 98.64114 
L 292.525714 98.718229 
L 293.818776 98.739946 
L 294.465306 98.777463 
L 295.111837 98.492688 
L 296.404898 98.136291 
L 297.697959 97.683751 
L 298.34449 97.799046 
L 298.99102 98.130722 
L 299.637551 98.316437 
L 300.284082 98.622808 
L 301.577143 98.526288 
L 302.223673 98.049195 
L 302.870204 98.081766 
L 303.516735 98.411404 
L 304.809796 98.645586 
L 305.456327 98.228004 
L 306.102857 98.200653 
L 306.749388 97.365858 
L 307.395918 96.293855 
L 308.042449 95.863377 
L 308.68898 95.974908 
L 309.33551 95.676845 
L 309.982041 95.619734 
L 310.628571 95.704548 
L 311.275102 95.906167 
L 311.921633 95.696045 
L 312.568163 95.708561 
L 313.214694 95.883159 
L 315.154286 95.667645 
L 315.800816 95.324768 
L 316.447347 94.82445 
L 317.093878 94.646728 
L 318.386939 94.738831 
L 319.033469 94.606422 
L 319.68 94.359752 
L 320.973061 93.720086 
L 321.619592 93.43614 
L 322.266122 93.444595 
L 322.912653 93.283311 
L 324.205714 92.32844 
L 324.852245 92.171558 
L 325.498776 92.497211 
L 326.145306 92.661178 
L 326.791837 92.064884 
L 327.438367 92.242985 
L 328.084898 91.867237 
L 328.731429 91.208999 
L 329.377959 91.234729 
L 330.67102 90.305616 
L 331.317551 90.453302 
L 331.964082 89.897768 
L 332.610612 89.603911 
L 334.550204 89.930856 
L 335.196735 89.984376 
L 337.136327 89.66169 
L 337.782857 89.166103 
L 338.429388 89.399326 
L 339.722449 87.905261 
L 340.36898 87.850638 
L 341.01551 87.01244 
L 341.662041 86.385168 
L 342.308571 86.147991 
L 342.955102 85.528771 
L 343.601633 85.288007 
L 344.894694 85.774058 
L 345.541224 84.770866 
L 346.187755 84.918588 
L 346.834286 84.706102 
L 347.480816 84.767199 
L 348.127347 84.262722 
L 351.36 84.37899 
L 352.006531 83.995254 
L 352.653061 83.899347 
L 353.299592 84.163326 
L 353.946122 83.947028 
L 354.592653 83.174267 
L 355.885714 82.715491 
L 356.532245 82.8 
L 356.532245 82.8 
" style="fill:none;stroke:#1f77b4;stroke-linecap:square;stroke-width:1.5;"/>
   </g>
   <g id="line2d_12">
    <path clip-path="url(#p4843b42181)" d="M 34.56 82.8 
L 414.72 82.8 
" style="fill:none;stroke:#000000;stroke-dasharray:1.5,2.475;stroke-dashoffset:0;stroke-width:1.5;"/>
   </g>
   <g id="patch_3">
    <path d="M 34.56 162 
L 34.56 3.6 
" style="fill:none;stroke:#000000;stroke-linecap:square;stroke-linejoin:miter;stroke-width:0.8;"/>
   </g>
   <g id="patch_4">
    <path d="M 414.72 162 
L 414.72 3.6 
" style="fill:none;stroke:#000000;stroke-linecap:square;stroke-linejoin:miter;stroke-width:0.8;"/>
   </g>
   <g id="patch_5">
    <path d="M 34.56 162 
L 414.72 162 
" style="fill:none;stroke:#000000;stroke-linecap:square;stroke-linejoin:miter;stroke-width:0.8;"/>
   </g>
   <g id="patch_6">
    <path d="M 34.56 3.6 
L 414.72 3.6 
" style="fill:none;stroke:#000000;stroke-linecap:square;stroke-linejoin:miter;stroke-width:0.8;"/>
   </g>
  </g>
 </g>
 <defs>
  <clipPath id="p4843b42181">
   <rect height="158.4" width="380.16" x="34.56" y="3.6"/>
  </clipPath>
 </defs>
</svg>
