<?xml version="1.0" encoding="utf-8" standalone="no"?>
<!DOCTYPE svg PUBLIC "-//W3C//DTD SVG 1.1//EN"
  "http://www.w3.org/Graphics/SVG/1.1/DTD/svg11.dtd">
<svg height="180pt" version="1.1" viewBox="0 0 432 180" width="432pt" xmlns="http://www.w3.org/2000/svg" xmlns:xlink="http://www.w3.org/1999/xlink">
 <metadata>
  <rdf:RDF xmlns:cc="http://creativecommons.org/ns#" xmlns:dc="http://purl.org/dc/elements/1.1/" xmlns:rdf="http://www.w3.org/1999/02/22-rdf-syntax-ns#">
   <cc:Work>
    <dc:type rdf:resource="http://purl.org/dc/dcmitype/StillImage"/>
    <dc:date>2021-08-12T10:41:47.196790</dc:date>
    <dc:format>image/svg+xml</dc:format>
    <dc:creator>
     <cc:Agent>
      <dc:title>Matplotlib v3.4.2, https://matplotlib.org/</dc:title>
     </cc:Agent>
    </dc:creator>
   </cc:Work>
  </rdf:RDF>
 </metadata>
 <defs>
  <style type="text/css">*{stroke-linecap:butt;stroke-linejoin:round;}</style>
 </defs>
 <g id="figure_1">
  <g id="patch_1">
   <path d="M 0 180 
L 432 180 
L 432 0 
L 0 0 
z
" style="fill:#ffffff;"/>
  </g>
  <g id="axes_1">
   <g id="patch_2">
    <path d="M 34.56 162 
L 414.72 162 
L 414.72 3.6 
L 34.56 3.6 
z
" style="fill:#ffffff;"/>
   </g>
   <g id="PolyCollection_1">
    <defs>
     <path d="M 73.220339 -97.626753 
L 73.220339 -96.773247 
L 73.649898 -96.348308 
L 74.079458 -95.924575 
L 74.509017 -95.50205 
L 74.938576 -95.080732 
L 75.368136 -94.660622 
L 75.797695 -94.241718 
L 76.227254 -93.824022 
L 76.656814 -93.407533 
L 77.086373 -92.992252 
L 77.515932 -92.578177 
L 77.945492 -92.16531 
L 78.375051 -91.753649 
L 78.80461 -91.343197 
L 79.234169 -90.933951 
L 79.663729 -90.525912 
L 80.093288 -90.119081 
L 80.522847 -89.713457 
L 80.952407 -89.30904 
L 81.381966 -88.905831 
L 81.811525 -88.503828 
L 82.241085 -88.103033 
L 82.670644 -87.703445 
L 83.100203 -87.305064 
L 83.529763 -86.907891 
L 83.959322 -86.511924 
L 84.388881 -86.117165 
L 84.818441 -85.723613 
L 85.248 -85.331269 
L 85.677559 -84.940131 
L 86.107119 -84.550201 
L 86.536678 -84.161478 
L 86.966237 -83.773962 
L 87.395797 -83.387653 
L 87.825356 -83.002552 
L 88.254915 -82.618658 
L 88.684475 -82.235971 
L 89.114034 -81.854491 
L 89.543593 -81.474219 
L 89.973153 -81.095153 
L 90.402712 -80.717295 
L 90.832271 -80.340644 
L 91.261831 -79.965201 
L 91.69139 -79.590964 
L 92.120949 -79.217935 
L 92.550508 -78.846113 
L 92.980068 -78.475498 
L 93.409627 -78.10609 
L 93.839186 -77.73789 
L 94.268746 -77.370897 
L 94.698305 -77.005111 
L 95.127864 -76.640532 
L 95.557424 -76.27716 
L 95.986983 -75.914996 
L 96.416542 -75.554039 
L 96.846102 -75.194289 
L 97.275661 -74.835746 
L 97.70522 -74.478411 
L 98.13478 -74.122283 
L 98.564339 -73.767362 
L 98.993898 -73.413648 
L 99.423458 -73.061141 
L 99.853017 -72.709842 
L 100.282576 -72.35975 
L 100.712136 -72.010865 
L 101.141695 -71.663187 
L 101.571254 -71.316716 
L 102.000814 -70.971453 
L 102.430373 -70.627397 
L 102.859932 -70.284548 
L 103.289492 -69.942906 
L 103.719051 -69.602472 
L 104.14861 -69.263245 
L 104.578169 -68.925224 
L 105.007729 -68.588412 
L 105.437288 -68.252806 
L 105.866847 -67.918408 
L 106.296407 -67.585216 
L 106.725966 -67.253232 
L 107.155525 -66.922456 
L 107.585085 -66.592886 
L 108.014644 -66.264524 
L 108.444203 -65.937369 
L 108.873763 -65.611421 
L 109.303322 -65.28668 
L 109.732881 -64.963147 
L 110.162441 -64.64082 
L 110.592 -64.319701 
L 111.021559 -63.99979 
L 111.451119 -63.681085 
L 111.880678 -63.363588 
L 112.310237 -63.047297 
L 112.739797 -62.732214 
L 113.169356 -62.418339 
L 113.598915 -62.10567 
L 114.028475 -61.794209 
L 114.458034 -61.483955 
L 114.887593 -61.174908 
L 115.317153 -60.867068 
L 115.746712 -60.560436 
L 116.176271 -60.25501 
L 116.605831 -59.950792 
L 117.03539 -59.647782 
L 117.464949 -59.345978 
L 117.894508 -59.045382 
L 118.324068 -58.745992 
L 118.753627 -58.44781 
L 119.183186 -58.150836 
L 119.612746 -57.855068 
L 120.042305 -57.560508 
L 120.471864 -57.267155 
L 120.901424 -56.975009 
L 121.330983 -56.68407 
L 121.760542 -56.394339 
L 122.190102 -56.105814 
L 122.619661 -55.818497 
L 123.04922 -55.532388 
L 123.47878 -55.247485 
L 123.908339 -54.96379 
L 124.337898 -54.681301 
L 124.767458 -54.40002 
L 125.197017 -54.119947 
L 125.626576 -53.84108 
L 126.056136 -53.563421 
L 126.485695 -53.286969 
L 126.915254 -53.011724 
L 127.344814 -52.737686 
L 127.774373 -52.464856 
L 128.203932 -52.193232 
L 128.633492 -51.922816 
L 129.063051 -51.653608 
L 129.49261 -51.385606 
L 129.922169 -51.118812 
L 130.351729 -50.853224 
L 130.781288 -50.588844 
L 131.210847 -50.325672 
L 131.640407 -50.063706 
L 132.069966 -49.802948 
L 132.499525 -49.543397 
L 132.929085 -49.285053 
L 133.358644 -49.027916 
L 133.788203 -48.771987 
L 134.217763 -48.517264 
L 134.647322 -48.263749 
L 135.076881 -48.011442 
L 135.506441 -47.760341 
L 135.936 -47.510448 
L 136.365559 -47.261761 
L 136.795119 -47.014282 
L 137.224678 -46.768011 
L 137.654237 -46.522946 
L 138.083797 -46.279089 
L 138.513356 -46.036439 
L 138.942915 -45.794996 
L 139.372475 -45.55476 
L 139.802034 -45.315732 
L 140.231593 -45.07791 
L 140.661153 -44.841296 
L 141.090712 -44.60589 
L 141.520271 -44.37169 
L 141.949831 -44.138698 
L 142.37939 -43.906912 
L 142.808949 -43.676335 
L 143.238508 -43.446964 
L 143.668068 -43.2188 
L 144.097627 -42.991844 
L 144.527186 -42.766095 
L 144.956746 -42.541553 
L 145.386305 -42.318218 
L 145.815864 -42.096091 
L 146.245424 -41.875171 
L 146.674983 -41.655458 
L 147.104542 -41.436952 
L 147.534102 -41.219653 
L 147.963661 -41.003562 
L 148.39322 -40.788678 
L 148.82278 -40.575001 
L 149.252339 -40.362531 
L 149.681898 -40.151268 
L 150.111458 -39.941213 
L 150.541017 -39.732365 
L 150.970576 -39.524724 
L 151.400136 -39.31829 
L 151.829695 -39.113064 
L 152.259254 -38.909045 
L 152.688814 -38.706233 
L 153.118373 -38.504628 
L 153.547932 -38.30423 
L 153.977492 -38.10504 
L 154.407051 -37.907057 
L 154.83661 -37.710281 
L 155.266169 -37.514712 
L 155.695729 -37.320351 
L 156.125288 -37.127196 
L 156.554847 -36.935249 
L 156.984407 -36.744509 
L 157.413966 -36.554977 
L 157.843525 -36.366651 
L 158.273085 -36.179533 
L 158.702644 -35.993622 
L 159.132203 -35.808918 
L 159.561763 -35.625421 
L 159.991322 -35.443132 
L 160.420881 -35.26205 
L 160.850441 -35.082175 
L 161.28 -34.903507 
L 161.709559 -34.726047 
L 162.139119 -34.549793 
L 162.568678 -34.374747 
L 162.998237 -34.200908 
L 163.427797 -34.028277 
L 163.857356 -33.856852 
L 164.286915 -33.686635 
L 164.716475 -33.517625 
L 165.146034 -33.349822 
L 165.575593 -33.183227 
L 166.005153 -33.017838 
L 166.434712 -32.853657 
L 166.864271 -32.690683 
L 167.293831 -32.528916 
L 167.72339 -32.368357 
L 168.152949 -32.209005 
L 168.582508 -32.05086 
L 169.012068 -31.893922 
L 169.441627 -31.738191 
L 169.871186 -31.583668 
L 170.300746 -31.430351 
L 170.730305 -31.278242 
L 171.159864 -31.12734 
L 171.589424 -30.977646 
L 172.018983 -30.829158 
L 172.448542 -30.681878 
L 172.878102 -30.535805 
L 173.307661 -30.39094 
L 173.73722 -30.247281 
L 174.16678 -30.10483 
L 174.596339 -29.963586 
L 175.025898 -29.823549 
L 175.455458 -29.684719 
L 175.885017 -29.547097 
L 176.314576 -29.410682 
L 176.744136 -29.275474 
L 177.173695 -29.141473 
L 177.603254 -29.008679 
L 178.032814 -28.877093 
L 178.462373 -28.746714 
L 178.891932 -28.617542 
L 179.321492 -28.489577 
L 179.751051 -28.362819 
L 180.18061 -28.237269 
L 180.610169 -28.112926 
L 181.039729 -27.98979 
L 181.469288 -27.867861 
L 181.898847 -27.74714 
L 182.328407 -27.627626 
L 182.757966 -27.509319 
L 183.187525 -27.392219 
L 183.617085 -27.276326 
L 184.046644 -27.161641 
L 184.476203 -27.048163 
L 184.905763 -26.935892 
L 185.335322 -26.824828 
L 185.764881 -26.714972 
L 186.194441 -26.606322 
L 186.624 -26.49888 
L 187.053559 -26.392645 
L 187.483119 -26.287618 
L 187.912678 -26.183797 
L 188.342237 -26.081184 
L 188.771797 -25.979778 
L 189.201356 -25.879579 
L 189.630915 -25.780588 
L 190.060475 -25.682803 
L 190.490034 -25.586226 
L 190.919593 -25.490856 
L 191.349153 -25.396694 
L 191.778712 -25.303738 
L 192.208271 -25.21199 
L 192.637831 -25.121449 
L 193.06739 -25.032115 
L 193.496949 -24.943988 
L 193.926508 -24.857069 
L 194.356068 -24.771356 
L 194.785627 -24.686851 
L 195.215186 -24.603554 
L 195.644746 -24.521463 
L 196.074305 -24.44058 
L 196.503864 -24.360904 
L 196.933424 -24.282435 
L 197.362983 -24.205173 
L 197.792542 -24.129118 
L 198.222102 -24.054271 
L 198.651661 -23.980631 
L 199.08122 -23.908198 
L 199.51078 -23.836972 
L 199.940339 -23.766954 
L 200.369898 -23.698143 
L 200.799458 -23.630539 
L 201.229017 -23.564142 
L 201.658576 -23.498952 
L 202.088136 -23.43497 
L 202.517695 -23.372195 
L 202.947254 -23.310627 
L 203.376814 -23.250266 
L 203.806373 -23.191113 
L 204.235932 -23.133166 
L 204.665492 -23.076427 
L 205.095051 -23.020896 
L 205.52461 -22.966571 
L 205.954169 -22.913453 
L 206.383729 -22.861543 
L 206.813288 -22.81084 
L 207.242847 -22.761344 
L 207.672407 -22.713056 
L 208.101966 -22.665974 
L 208.531525 -22.6201 
L 208.961085 -22.575433 
L 209.390644 -22.531974 
L 209.820203 -22.489721 
L 210.249763 -22.448676 
L 210.679322 -22.408838 
L 211.108881 -22.370207 
L 211.538441 -22.332783 
L 211.968 -22.296567 
L 212.397559 -22.261558 
L 212.827119 -22.227756 
L 213.256678 -22.195161 
L 213.686237 -22.163773 
L 214.115797 -22.133593 
L 214.545356 -22.10462 
L 214.974915 -22.076854 
L 215.404475 -22.050295 
L 215.834034 -22.024944 
L 216.263593 -22.000799 
L 216.693153 -21.977862 
L 217.122712 -21.956132 
L 217.552271 -21.93561 
L 217.981831 -21.916294 
L 218.41139 -21.898186 
L 218.840949 -21.881285 
L 219.270508 -21.865591 
L 219.700068 -21.851105 
L 220.129627 -21.837825 
L 220.559186 -21.825753 
L 220.988746 -21.814888 
L 221.418305 -21.805231 
L 221.847864 -21.79678 
L 222.277424 -21.789537 
L 222.706983 -21.783501 
L 223.136542 -21.778672 
L 223.566102 -21.77505 
L 223.995661 -21.772636 
L 224.42522 -21.771429 
L 224.85478 -21.771429 
L 225.284339 -21.772636 
L 225.713898 -21.77505 
L 226.143458 -21.778672 
L 226.573017 -21.783501 
L 227.002576 -21.789537 
L 227.432136 -21.79678 
L 227.861695 -21.805231 
L 228.291254 -21.814888 
L 228.720814 -21.825753 
L 229.150373 -21.837825 
L 229.579932 -21.851105 
L 230.009492 -21.865591 
L 230.439051 -21.881285 
L 230.86861 -21.898186 
L 231.298169 -21.916294 
L 231.727729 -21.93561 
L 232.157288 -21.956132 
L 232.586847 -21.977862 
L 233.016407 -22.000799 
L 233.445966 -22.024944 
L 233.875525 -22.050295 
L 234.305085 -22.076854 
L 234.734644 -22.10462 
L 235.164203 -22.133593 
L 235.593763 -22.163773 
L 236.023322 -22.195161 
L 236.452881 -22.227756 
L 236.882441 -22.261558 
L 237.312 -22.296567 
L 237.741559 -22.332783 
L 238.171119 -22.370207 
L 238.600678 -22.408838 
L 239.030237 -22.448676 
L 239.459797 -22.489721 
L 239.889356 -22.531974 
L 240.318915 -22.575433 
L 240.748475 -22.6201 
L 241.178034 -22.665974 
L 241.607593 -22.713056 
L 242.037153 -22.761344 
L 242.466712 -22.81084 
L 242.896271 -22.861543 
L 243.325831 -22.913453 
L 243.75539 -22.966571 
L 244.184949 -23.020896 
L 244.614508 -23.076427 
L 245.044068 -23.133166 
L 245.473627 -23.191113 
L 245.903186 -23.250266 
L 246.332746 -23.310627 
L 246.762305 -23.372195 
L 247.191864 -23.43497 
L 247.621424 -23.498952 
L 248.050983 -23.564142 
L 248.480542 -23.630539 
L 248.910102 -23.698143 
L 249.339661 -23.766954 
L 249.76922 -23.836972 
L 250.19878 -23.908198 
L 250.628339 -23.980631 
L 251.057898 -24.054271 
L 251.487458 -24.129118 
L 251.917017 -24.205173 
L 252.346576 -24.282435 
L 252.776136 -24.360904 
L 253.205695 -24.44058 
L 253.635254 -24.521463 
L 254.064814 -24.603554 
L 254.494373 -24.686851 
L 254.923932 -24.771356 
L 255.353492 -24.857069 
L 255.783051 -24.943988 
L 256.21261 -25.032115 
L 256.642169 -25.121449 
L 257.071729 -25.21199 
L 257.501288 -25.303738 
L 257.930847 -25.396694 
L 258.360407 -25.490856 
L 258.789966 -25.586226 
L 259.219525 -25.682803 
L 259.649085 -25.780588 
L 260.078644 -25.879579 
L 260.508203 -25.979778 
L 260.937763 -26.081184 
L 261.367322 -26.183797 
L 261.796881 -26.287618 
L 262.226441 -26.392645 
L 262.656 -26.49888 
L 263.085559 -26.606322 
L 263.515119 -26.714972 
L 263.944678 -26.824828 
L 264.374237 -26.935892 
L 264.803797 -27.048163 
L 265.233356 -27.161641 
L 265.662915 -27.276326 
L 266.092475 -27.392219 
L 266.522034 -27.509319 
L 266.951593 -27.627626 
L 267.381153 -27.74714 
L 267.810712 -27.867861 
L 268.240271 -27.98979 
L 268.669831 -28.112926 
L 269.09939 -28.237269 
L 269.528949 -28.362819 
L 269.958508 -28.489577 
L 270.388068 -28.617542 
L 270.817627 -28.746714 
L 271.247186 -28.877093 
L 271.676746 -29.008679 
L 272.106305 -29.141473 
L 272.535864 -29.275474 
L 272.965424 -29.410682 
L 273.394983 -29.547097 
L 273.824542 -29.684719 
L 274.254102 -29.823549 
L 274.683661 -29.963586 
L 275.11322 -30.10483 
L 275.54278 -30.247281 
L 275.972339 -30.39094 
L 276.401898 -30.535805 
L 276.831458 -30.681878 
L 277.261017 -30.829158 
L 277.690576 -30.977646 
L 278.120136 -31.12734 
L 278.549695 -31.278242 
L 278.979254 -31.430351 
L 279.408814 -31.583668 
L 279.838373 -31.738191 
L 280.267932 -31.893922 
L 280.697492 -32.05086 
L 281.127051 -32.209005 
L 281.55661 -32.368357 
L 281.986169 -32.528916 
L 282.415729 -32.690683 
L 282.845288 -32.853657 
L 283.274847 -33.017838 
L 283.704407 -33.183227 
L 284.133966 -33.349822 
L 284.563525 -33.517625 
L 284.993085 -33.686635 
L 285.422644 -33.856852 
L 285.852203 -34.028277 
L 286.281763 -34.200908 
L 286.711322 -34.374747 
L 287.140881 -34.549793 
L 287.570441 -34.726047 
L 288 -34.903507 
L 288.429559 -35.082175 
L 288.859119 -35.26205 
L 289.288678 -35.443132 
L 289.718237 -35.625421 
L 290.147797 -35.808918 
L 290.577356 -35.993622 
L 291.006915 -36.179533 
L 291.436475 -36.366651 
L 291.866034 -36.554977 
L 292.295593 -36.744509 
L 292.725153 -36.935249 
L 293.154712 -37.127196 
L 293.584271 -37.320351 
L 294.013831 -37.514712 
L 294.44339 -37.710281 
L 294.872949 -37.907057 
L 295.302508 -38.10504 
L 295.732068 -38.30423 
L 296.161627 -38.504628 
L 296.591186 -38.706233 
L 297.020746 -38.909045 
L 297.450305 -39.113064 
L 297.879864 -39.31829 
L 298.309424 -39.524724 
L 298.738983 -39.732365 
L 299.168542 -39.941213 
L 299.598102 -40.151268 
L 300.027661 -40.362531 
L 300.45722 -40.575001 
L 300.88678 -40.788678 
L 301.316339 -41.003562 
L 301.745898 -41.219653 
L 302.175458 -41.436952 
L 302.605017 -41.655458 
L 303.034576 -41.875171 
L 303.464136 -42.096091 
L 303.893695 -42.318218 
L 304.323254 -42.541553 
L 304.752814 -42.766095 
L 305.182373 -42.991844 
L 305.611932 -43.2188 
L 306.041492 -43.446964 
L 306.471051 -43.676335 
L 306.90061 -43.906912 
L 307.330169 -44.138698 
L 307.759729 -44.37169 
L 308.189288 -44.60589 
L 308.618847 -44.841296 
L 309.048407 -45.07791 
L 309.477966 -45.315732 
L 309.907525 -45.55476 
L 310.337085 -45.794996 
L 310.766644 -46.036439 
L 311.196203 -46.279089 
L 311.625763 -46.522946 
L 312.055322 -46.768011 
L 312.484881 -47.014282 
L 312.914441 -47.261761 
L 313.344 -47.510448 
L 313.773559 -47.760341 
L 314.203119 -48.011442 
L 314.632678 -48.263749 
L 315.062237 -48.517264 
L 315.491797 -48.771987 
L 315.921356 -49.027916 
L 316.350915 -49.285053 
L 316.780475 -49.543397 
L 317.210034 -49.802948 
L 317.639593 -50.063706 
L 318.069153 -50.325672 
L 318.498712 -50.588844 
L 318.928271 -50.853224 
L 319.357831 -51.118812 
L 319.78739 -51.385606 
L 320.216949 -51.653608 
L 320.646508 -51.922816 
L 321.076068 -52.193232 
L 321.505627 -52.464856 
L 321.935186 -52.737686 
L 322.364746 -53.011724 
L 322.794305 -53.286969 
L 323.223864 -53.563421 
L 323.653424 -53.84108 
L 324.082983 -54.119947 
L 324.512542 -54.40002 
L 324.942102 -54.681301 
L 325.371661 -54.96379 
L 325.80122 -55.247485 
L 326.23078 -55.532388 
L 326.660339 -55.818497 
L 327.089898 -56.105814 
L 327.519458 -56.394339 
L 327.949017 -56.68407 
L 328.378576 -56.975009 
L 328.808136 -57.267155 
L 329.237695 -57.560508 
L 329.667254 -57.855068 
L 330.096814 -58.150836 
L 330.526373 -58.44781 
L 330.955932 -58.745992 
L 331.385492 -59.045382 
L 331.815051 -59.345978 
L 332.24461 -59.647782 
L 332.674169 -59.950792 
L 333.103729 -60.25501 
L 333.533288 -60.560436 
L 333.962847 -60.867068 
L 334.392407 -61.174908 
L 334.821966 -61.483955 
L 335.251525 -61.794209 
L 335.681085 -62.10567 
L 336.110644 -62.418339 
L 336.540203 -62.732214 
L 336.969763 -63.047297 
L 337.399322 -63.363588 
L 337.828881 -63.681085 
L 338.258441 -63.99979 
L 338.688 -64.319701 
L 339.117559 -64.64082 
L 339.547119 -64.963147 
L 339.976678 -65.28668 
L 340.406237 -65.611421 
L 340.835797 -65.937369 
L 341.265356 -66.264524 
L 341.694915 -66.592886 
L 342.124475 -66.922456 
L 342.554034 -67.253232 
L 342.983593 -67.585216 
L 343.413153 -67.918408 
L 343.842712 -68.252806 
L 344.272271 -68.588412 
L 344.701831 -68.925224 
L 345.13139 -69.263245 
L 345.560949 -69.602472 
L 345.990508 -69.942906 
L 346.420068 -70.284548 
L 346.849627 -70.627397 
L 347.279186 -70.971453 
L 347.708746 -71.316716 
L 348.138305 -71.663187 
L 348.567864 -72.010865 
L 348.997424 -72.35975 
L 349.426983 -72.709842 
L 349.856542 -73.061141 
L 350.286102 -73.413648 
L 350.715661 -73.767362 
L 351.14522 -74.122283 
L 351.57478 -74.478411 
L 352.004339 -74.835746 
L 352.433898 -75.194289 
L 352.863458 -75.554039 
L 353.293017 -75.914996 
L 353.722576 -76.27716 
L 354.152136 -76.640532 
L 354.581695 -77.005111 
L 355.011254 -77.370897 
L 355.440814 -77.73789 
L 355.870373 -78.10609 
L 356.299932 -78.475498 
L 356.729492 -78.846113 
L 357.159051 -79.217935 
L 357.58861 -79.590964 
L 358.018169 -79.965201 
L 358.447729 -80.340644 
L 358.877288 -80.717295 
L 359.306847 -81.095153 
L 359.736407 -81.474219 
L 360.165966 -81.854491 
L 360.595525 -82.235971 
L 361.025085 -82.618658 
L 361.454644 -83.002552 
L 361.884203 -83.387653 
L 362.313763 -83.773962 
L 362.743322 -84.161478 
L 363.172881 -84.550201 
L 363.602441 -84.940131 
L 364.032 -85.331269 
L 364.461559 -85.723613 
L 364.891119 -86.117165 
L 365.320678 -86.511924 
L 365.750237 -86.907891 
L 366.179797 -87.305064 
L 366.609356 -87.703445 
L 367.038915 -88.103033 
L 367.468475 -88.503828 
L 367.898034 -88.905831 
L 368.327593 -89.30904 
L 368.757153 -89.713457 
L 369.186712 -90.119081 
L 369.616271 -90.525912 
L 370.045831 -90.933951 
L 370.47539 -91.343197 
L 370.904949 -91.753649 
L 371.334508 -92.16531 
L 371.764068 -92.578177 
L 372.193627 -92.992252 
L 372.623186 -93.407533 
L 373.052746 -93.824022 
L 373.482305 -94.241718 
L 373.911864 -94.660622 
L 374.341424 -95.080732 
L 374.770983 -95.50205 
L 375.200542 -95.924575 
L 375.630102 -96.348308 
L 376.059661 -96.773247 
L 376.059661 -97.626753 
L 376.059661 -97.626753 
L 375.630102 -98.051692 
L 375.200542 -98.475425 
L 374.770983 -98.89795 
L 374.341424 -99.319268 
L 373.911864 -99.739378 
L 373.482305 -100.158282 
L 373.052746 -100.575978 
L 372.623186 -100.992467 
L 372.193627 -101.407748 
L 371.764068 -101.821823 
L 371.334508 -102.23469 
L 370.904949 -102.646351 
L 370.47539 -103.056803 
L 370.045831 -103.466049 
L 369.616271 -103.874088 
L 369.186712 -104.280919 
L 368.757153 -104.686543 
L 368.327593 -105.09096 
L 367.898034 -105.494169 
L 367.468475 -105.896172 
L 367.038915 -106.296967 
L 366.609356 -106.696555 
L 366.179797 -107.094936 
L 365.750237 -107.492109 
L 365.320678 -107.888076 
L 364.891119 -108.282835 
L 364.461559 -108.676387 
L 364.032 -109.068731 
L 363.602441 -109.459869 
L 363.172881 -109.849799 
L 362.743322 -110.238522 
L 362.313763 -110.626038 
L 361.884203 -111.012347 
L 361.454644 -111.397448 
L 361.025085 -111.781342 
L 360.595525 -112.164029 
L 360.165966 -112.545509 
L 359.736407 -112.925781 
L 359.306847 -113.304847 
L 358.877288 -113.682705 
L 358.447729 -114.059356 
L 358.018169 -114.434799 
L 357.58861 -114.809036 
L 357.159051 -115.182065 
L 356.729492 -115.553887 
L 356.299932 -115.924502 
L 355.870373 -116.29391 
L 355.440814 -116.66211 
L 355.011254 -117.029103 
L 354.581695 -117.394889 
L 354.152136 -117.759468 
L 353.722576 -118.12284 
L 353.293017 -118.485004 
L 352.863458 -118.845961 
L 352.433898 -119.205711 
L 352.004339 -119.564254 
L 351.57478 -119.921589 
L 351.14522 -120.277717 
L 350.715661 -120.632638 
L 350.286102 -120.986352 
L 349.856542 -121.338859 
L 349.426983 -121.690158 
L 348.997424 -122.04025 
L 348.567864 -122.389135 
L 348.138305 -122.736813 
L 347.708746 -123.083284 
L 347.279186 -123.428547 
L 346.849627 -123.772603 
L 346.420068 -124.115452 
L 345.990508 -124.457094 
L 345.560949 -124.797528 
L 345.13139 -125.136755 
L 344.701831 -125.474776 
L 344.272271 -125.811588 
L 343.842712 -126.147194 
L 343.413153 -126.481592 
L 342.983593 -126.814784 
L 342.554034 -127.146768 
L 342.124475 -127.477544 
L 341.694915 -127.807114 
L 341.265356 -128.135476 
L 340.835797 -128.462631 
L 340.406237 -128.788579 
L 339.976678 -129.11332 
L 339.547119 -129.436853 
L 339.117559 -129.75918 
L 338.688 -130.080299 
L 338.258441 -130.40021 
L 337.828881 -130.718915 
L 337.399322 -131.036412 
L 336.969763 -131.352703 
L 336.540203 -131.667786 
L 336.110644 -131.981661 
L 335.681085 -132.29433 
L 335.251525 -132.605791 
L 334.821966 -132.916045 
L 334.392407 -133.225092 
L 333.962847 -133.532932 
L 333.533288 -133.839564 
L 333.103729 -134.14499 
L 332.674169 -134.449208 
L 332.24461 -134.752218 
L 331.815051 -135.054022 
L 331.385492 -135.354618 
L 330.955932 -135.654008 
L 330.526373 -135.95219 
L 330.096814 -136.249164 
L 329.667254 -136.544932 
L 329.237695 -136.839492 
L 328.808136 -137.132845 
L 328.378576 -137.424991 
L 327.949017 -137.71593 
L 327.519458 -138.005661 
L 327.089898 -138.294186 
L 326.660339 -138.581503 
L 326.23078 -138.867612 
L 325.80122 -139.152515 
L 325.371661 -139.43621 
L 324.942102 -139.718699 
L 324.512542 -139.99998 
L 324.082983 -140.280053 
L 323.653424 -140.55892 
L 323.223864 -140.836579 
L 322.794305 -141.113031 
L 322.364746 -141.388276 
L 321.935186 -141.662314 
L 321.505627 -141.935144 
L 321.076068 -142.206768 
L 320.646508 -142.477184 
L 320.216949 -142.746392 
L 319.78739 -143.014394 
L 319.357831 -143.281188 
L 318.928271 -143.546776 
L 318.498712 -143.811156 
L 318.069153 -144.074328 
L 317.639593 -144.336294 
L 317.210034 -144.597052 
L 316.780475 -144.856603 
L 316.350915 -145.114947 
L 315.921356 -145.372084 
L 315.491797 -145.628013 
L 315.062237 -145.882736 
L 314.632678 -146.136251 
L 314.203119 -146.388558 
L 313.773559 -146.639659 
L 313.344 -146.889552 
L 312.914441 -147.138239 
L 312.484881 -147.385718 
L 312.055322 -147.631989 
L 311.625763 -147.877054 
L 311.196203 -148.120911 
L 310.766644 -148.363561 
L 310.337085 -148.605004 
L 309.907525 -148.84524 
L 309.477966 -149.084268 
L 309.048407 -149.32209 
L 308.618847 -149.558704 
L 308.189288 -149.79411 
L 307.759729 -150.02831 
L 307.330169 -150.261302 
L 306.90061 -150.493088 
L 306.471051 -150.723665 
L 306.041492 -150.953036 
L 305.611932 -151.1812 
L 305.182373 -151.408156 
L 304.752814 -151.633905 
L 304.323254 -151.858447 
L 303.893695 -152.081782 
L 303.464136 -152.303909 
L 303.034576 -152.524829 
L 302.605017 -152.744542 
L 302.175458 -152.963048 
L 301.745898 -153.180347 
L 301.316339 -153.396438 
L 300.88678 -153.611322 
L 300.45722 -153.824999 
L 300.027661 -154.037469 
L 299.598102 -154.248732 
L 299.168542 -154.458787 
L 298.738983 -154.667635 
L 298.309424 -154.875276 
L 297.879864 -155.08171 
L 297.450305 -155.286936 
L 297.020746 -155.490955 
L 296.591186 -155.693767 
L 296.161627 -155.895372 
L 295.732068 -156.09577 
L 295.302508 -156.29496 
L 294.872949 -156.492943 
L 294.44339 -156.689719 
L 294.013831 -156.885288 
L 293.584271 -157.079649 
L 293.154712 -157.272804 
L 292.725153 -157.464751 
L 292.295593 -157.655491 
L 291.866034 -157.845023 
L 291.436475 -158.033349 
L 291.006915 -158.220467 
L 290.577356 -158.406378 
L 290.147797 -158.591082 
L 289.718237 -158.774579 
L 289.288678 -158.956868 
L 288.859119 -159.13795 
L 288.429559 -159.317825 
L 288 -159.496493 
L 287.570441 -159.673953 
L 287.140881 -159.850207 
L 286.711322 -160.025253 
L 286.281763 -160.199092 
L 285.852203 -160.371723 
L 285.422644 -160.543148 
L 284.993085 -160.713365 
L 284.563525 -160.882375 
L 284.133966 -161.050178 
L 283.704407 -161.216773 
L 283.274847 -161.382162 
L 282.845288 -161.546343 
L 282.415729 -161.709317 
L 281.986169 -161.871084 
L 281.55661 -162.031643 
L 281.127051 -162.190995 
L 280.697492 -162.34914 
L 280.267932 -162.506078 
L 279.838373 -162.661809 
L 279.408814 -162.816332 
L 278.979254 -162.969649 
L 278.549695 -163.121758 
L 278.120136 -163.27266 
L 277.690576 -163.422354 
L 277.261017 -163.570842 
L 276.831458 -163.718122 
L 276.401898 -163.864195 
L 275.972339 -164.00906 
L 275.54278 -164.152719 
L 275.11322 -164.29517 
L 274.683661 -164.436414 
L 274.254102 -164.576451 
L 273.824542 -164.715281 
L 273.394983 -164.852903 
L 272.965424 -164.989318 
L 272.535864 -165.124526 
L 272.106305 -165.258527 
L 271.676746 -165.391321 
L 271.247186 -165.522907 
L 270.817627 -165.653286 
L 270.388068 -165.782458 
L 269.958508 -165.910423 
L 269.528949 -166.037181 
L 269.09939 -166.162731 
L 268.669831 -166.287074 
L 268.240271 -166.41021 
L 267.810712 -166.532139 
L 267.381153 -166.65286 
L 266.951593 -166.772374 
L 266.522034 -166.890681 
L 266.092475 -167.007781 
L 265.662915 -167.123674 
L 265.233356 -167.238359 
L 264.803797 -167.351837 
L 264.374237 -167.464108 
L 263.944678 -167.575172 
L 263.515119 -167.685028 
L 263.085559 -167.793678 
L 262.656 -167.90112 
L 262.226441 -168.007355 
L 261.796881 -168.112382 
L 261.367322 -168.216203 
L 260.937763 -168.318816 
L 260.508203 -168.420222 
L 260.078644 -168.520421 
L 259.649085 -168.619412 
L 259.219525 -168.717197 
L 258.789966 -168.813774 
L 258.360407 -168.909144 
L 257.930847 -169.003306 
L 257.501288 -169.096262 
L 257.071729 -169.18801 
L 256.642169 -169.278551 
L 256.21261 -169.367885 
L 255.783051 -169.456012 
L 255.353492 -169.542931 
L 254.923932 -169.628644 
L 254.494373 -169.713149 
L 254.064814 -169.796446 
L 253.635254 -169.878537 
L 253.205695 -169.95942 
L 252.776136 -170.039096 
L 252.346576 -170.117565 
L 251.917017 -170.194827 
L 251.487458 -170.270882 
L 251.057898 -170.345729 
L 250.628339 -170.419369 
L 250.19878 -170.491802 
L 249.76922 -170.563028 
L 249.339661 -170.633046 
L 248.910102 -170.701857 
L 248.480542 -170.769461 
L 248.050983 -170.835858 
L 247.621424 -170.901048 
L 247.191864 -170.96503 
L 246.762305 -171.027805 
L 246.332746 -171.089373 
L 245.903186 -171.149734 
L 245.473627 -171.208887 
L 245.044068 -171.266834 
L 244.614508 -171.323573 
L 244.184949 -171.379104 
L 243.75539 -171.433429 
L 243.325831 -171.486547 
L 242.896271 -171.538457 
L 242.466712 -171.58916 
L 242.037153 -171.638656 
L 241.607593 -171.686944 
L 241.178034 -171.734026 
L 240.748475 -171.7799 
L 240.318915 -171.824567 
L 239.889356 -171.868026 
L 239.459797 -171.910279 
L 239.030237 -171.951324 
L 238.600678 -171.991162 
L 238.171119 -172.029793 
L 237.741559 -172.067217 
L 237.312 -172.103433 
L 236.882441 -172.138442 
L 236.452881 -172.172244 
L 236.023322 -172.204839 
L 235.593763 -172.236227 
L 235.164203 -172.266407 
L 234.734644 -172.29538 
L 234.305085 -172.323146 
L 233.875525 -172.349705 
L 233.445966 -172.375056 
L 233.016407 -172.399201 
L 232.586847 -172.422138 
L 232.157288 -172.443868 
L 231.727729 -172.46439 
L 231.298169 -172.483706 
L 230.86861 -172.501814 
L 230.439051 -172.518715 
L 230.009492 -172.534409 
L 229.579932 -172.548895 
L 229.150373 -172.562175 
L 228.720814 -172.574247 
L 228.291254 -172.585112 
L 227.861695 -172.594769 
L 227.432136 -172.60322 
L 227.002576 -172.610463 
L 226.573017 -172.616499 
L 226.143458 -172.621328 
L 225.713898 -172.62495 
L 225.284339 -172.627364 
L 224.85478 -172.628571 
L 224.42522 -172.628571 
L 223.995661 -172.627364 
L 223.566102 -172.62495 
L 223.136542 -172.621328 
L 222.706983 -172.616499 
L 222.277424 -172.610463 
L 221.847864 -172.60322 
L 221.418305 -172.594769 
L 220.988746 -172.585112 
L 220.559186 -172.574247 
L 220.129627 -172.562175 
L 219.700068 -172.548895 
L 219.270508 -172.534409 
L 218.840949 -172.518715 
L 218.41139 -172.501814 
L 217.981831 -172.483706 
L 217.552271 -172.46439 
L 217.122712 -172.443868 
L 216.693153 -172.422138 
L 216.263593 -172.399201 
L 215.834034 -172.375056 
L 215.404475 -172.349705 
L 214.974915 -172.323146 
L 214.545356 -172.29538 
L 214.115797 -172.266407 
L 213.686237 -172.236227 
L 213.256678 -172.204839 
L 212.827119 -172.172244 
L 212.397559 -172.138442 
L 211.968 -172.103433 
L 211.538441 -172.067217 
L 211.108881 -172.029793 
L 210.679322 -171.991162 
L 210.249763 -171.951324 
L 209.820203 -171.910279 
L 209.390644 -171.868026 
L 208.961085 -171.824567 
L 208.531525 -171.7799 
L 208.101966 -171.734026 
L 207.672407 -171.686944 
L 207.242847 -171.638656 
L 206.813288 -171.58916 
L 206.383729 -171.538457 
L 205.954169 -171.486547 
L 205.52461 -171.433429 
L 205.095051 -171.379104 
L 204.665492 -171.323573 
L 204.235932 -171.266834 
L 203.806373 -171.208887 
L 203.376814 -171.149734 
L 202.947254 -171.089373 
L 202.517695 -171.027805 
L 202.088136 -170.96503 
L 201.658576 -170.901048 
L 201.229017 -170.835858 
L 200.799458 -170.769461 
L 200.369898 -170.701857 
L 199.940339 -170.633046 
L 199.51078 -170.563028 
L 199.08122 -170.491802 
L 198.651661 -170.419369 
L 198.222102 -170.345729 
L 197.792542 -170.270882 
L 197.362983 -170.194827 
L 196.933424 -170.117565 
L 196.503864 -170.039096 
L 196.074305 -169.95942 
L 195.644746 -169.878537 
L 195.215186 -169.796446 
L 194.785627 -169.713149 
L 194.356068 -169.628644 
L 193.926508 -169.542931 
L 193.496949 -169.456012 
L 193.06739 -169.367885 
L 192.637831 -169.278551 
L 192.208271 -169.18801 
L 191.778712 -169.096262 
L 191.349153 -169.003306 
L 190.919593 -168.909144 
L 190.490034 -168.813774 
L 190.060475 -168.717197 
L 189.630915 -168.619412 
L 189.201356 -168.520421 
L 188.771797 -168.420222 
L 188.342237 -168.318816 
L 187.912678 -168.216203 
L 187.483119 -168.112382 
L 187.053559 -168.007355 
L 186.624 -167.90112 
L 186.194441 -167.793678 
L 185.764881 -167.685028 
L 185.335322 -167.575172 
L 184.905763 -167.464108 
L 184.476203 -167.351837 
L 184.046644 -167.238359 
L 183.617085 -167.123674 
L 183.187525 -167.007781 
L 182.757966 -166.890681 
L 182.328407 -166.772374 
L 181.898847 -166.65286 
L 181.469288 -166.532139 
L 181.039729 -166.41021 
L 180.610169 -166.287074 
L 180.18061 -166.162731 
L 179.751051 -166.037181 
L 179.321492 -165.910423 
L 178.891932 -165.782458 
L 178.462373 -165.653286 
L 178.032814 -165.522907 
L 177.603254 -165.391321 
L 177.173695 -165.258527 
L 176.744136 -165.124526 
L 176.314576 -164.989318 
L 175.885017 -164.852903 
L 175.455458 -164.715281 
L 175.025898 -164.576451 
L 174.596339 -164.436414 
L 174.16678 -164.29517 
L 173.73722 -164.152719 
L 173.307661 -164.00906 
L 172.878102 -163.864195 
L 172.448542 -163.718122 
L 172.018983 -163.570842 
L 171.589424 -163.422354 
L 171.159864 -163.27266 
L 170.730305 -163.121758 
L 170.300746 -162.969649 
L 169.871186 -162.816332 
L 169.441627 -162.661809 
L 169.012068 -162.506078 
L 168.582508 -162.34914 
L 168.152949 -162.190995 
L 167.72339 -162.031643 
L 167.293831 -161.871084 
L 166.864271 -161.709317 
L 166.434712 -161.546343 
L 166.005153 -161.382162 
L 165.575593 -161.216773 
L 165.146034 -161.050178 
L 164.716475 -160.882375 
L 164.286915 -160.713365 
L 163.857356 -160.543148 
L 163.427797 -160.371723 
L 162.998237 -160.199092 
L 162.568678 -160.025253 
L 162.139119 -159.850207 
L 161.709559 -159.673953 
L 161.28 -159.496493 
L 160.850441 -159.317825 
L 160.420881 -159.13795 
L 159.991322 -158.956868 
L 159.561763 -158.774579 
L 159.132203 -158.591082 
L 158.702644 -158.406378 
L 158.273085 -158.220467 
L 157.843525 -158.033349 
L 157.413966 -157.845023 
L 156.984407 -157.655491 
L 156.554847 -157.464751 
L 156.125288 -157.272804 
L 155.695729 -157.079649 
L 155.266169 -156.885288 
L 154.83661 -156.689719 
L 154.407051 -156.492943 
L 153.977492 -156.29496 
L 153.547932 -156.09577 
L 153.118373 -155.895372 
L 152.688814 -155.693767 
L 152.259254 -155.490955 
L 151.829695 -155.286936 
L 151.400136 -155.08171 
L 150.970576 -154.875276 
L 150.541017 -154.667635 
L 150.111458 -154.458787 
L 149.681898 -154.248732 
L 149.252339 -154.037469 
L 148.82278 -153.824999 
L 148.39322 -153.611322 
L 147.963661 -153.396438 
L 147.534102 -153.180347 
L 147.104542 -152.963048 
L 146.674983 -152.744542 
L 146.245424 -152.524829 
L 145.815864 -152.303909 
L 145.386305 -152.081782 
L 144.956746 -151.858447 
L 144.527186 -151.633905 
L 144.097627 -151.408156 
L 143.668068 -151.1812 
L 143.238508 -150.953036 
L 142.808949 -150.723665 
L 142.37939 -150.493088 
L 141.949831 -150.261302 
L 141.520271 -150.02831 
L 141.090712 -149.79411 
L 140.661153 -149.558704 
L 140.231593 -149.32209 
L 139.802034 -149.084268 
L 139.372475 -148.84524 
L 138.942915 -148.605004 
L 138.513356 -148.363561 
L 138.083797 -148.120911 
L 137.654237 -147.877054 
L 137.224678 -147.631989 
L 136.795119 -147.385718 
L 136.365559 -147.138239 
L 135.936 -146.889552 
L 135.506441 -146.639659 
L 135.076881 -146.388558 
L 134.647322 -146.136251 
L 134.217763 -145.882736 
L 133.788203 -145.628013 
L 133.358644 -145.372084 
L 132.929085 -145.114947 
L 132.499525 -144.856603 
L 132.069966 -144.597052 
L 131.640407 -144.336294 
L 131.210847 -144.074328 
L 130.781288 -143.811156 
L 130.351729 -143.546776 
L 129.922169 -143.281188 
L 129.49261 -143.014394 
L 129.063051 -142.746392 
L 128.633492 -142.477184 
L 128.203932 -142.206768 
L 127.774373 -141.935144 
L 127.344814 -141.662314 
L 126.915254 -141.388276 
L 126.485695 -141.113031 
L 126.056136 -140.836579 
L 125.626576 -140.55892 
L 125.197017 -140.280053 
L 124.767458 -139.99998 
L 124.337898 -139.718699 
L 123.908339 -139.43621 
L 123.47878 -139.152515 
L 123.04922 -138.867612 
L 122.619661 -138.581503 
L 122.190102 -138.294186 
L 121.760542 -138.005661 
L 121.330983 -137.71593 
L 120.901424 -137.424991 
L 120.471864 -137.132845 
L 120.042305 -136.839492 
L 119.612746 -136.544932 
L 119.183186 -136.249164 
L 118.753627 -135.95219 
L 118.324068 -135.654008 
L 117.894508 -135.354618 
L 117.464949 -135.054022 
L 117.03539 -134.752218 
L 116.605831 -134.449208 
L 116.176271 -134.14499 
L 115.746712 -133.839564 
L 115.317153 -133.532932 
L 114.887593 -133.225092 
L 114.458034 -132.916045 
L 114.028475 -132.605791 
L 113.598915 -132.29433 
L 113.169356 -131.981661 
L 112.739797 -131.667786 
L 112.310237 -131.352703 
L 111.880678 -131.036412 
L 111.451119 -130.718915 
L 111.021559 -130.40021 
L 110.592 -130.080299 
L 110.162441 -129.75918 
L 109.732881 -129.436853 
L 109.303322 -129.11332 
L 108.873763 -128.788579 
L 108.444203 -128.462631 
L 108.014644 -128.135476 
L 107.585085 -127.807114 
L 107.155525 -127.477544 
L 106.725966 -127.146768 
L 106.296407 -126.814784 
L 105.866847 -126.481592 
L 105.437288 -126.147194 
L 105.007729 -125.811588 
L 104.578169 -125.474776 
L 104.14861 -125.136755 
L 103.719051 -124.797528 
L 103.289492 -124.457094 
L 102.859932 -124.115452 
L 102.430373 -123.772603 
L 102.000814 -123.428547 
L 101.571254 -123.083284 
L 101.141695 -122.736813 
L 100.712136 -122.389135 
L 100.282576 -122.04025 
L 99.853017 -121.690158 
L 99.423458 -121.338859 
L 98.993898 -120.986352 
L 98.564339 -120.632638 
L 98.13478 -120.277717 
L 97.70522 -119.921589 
L 97.275661 -119.564254 
L 96.846102 -119.205711 
L 96.416542 -118.845961 
L 95.986983 -118.485004 
L 95.557424 -118.12284 
L 95.127864 -117.759468 
L 94.698305 -117.394889 
L 94.268746 -117.029103 
L 93.839186 -116.66211 
L 93.409627 -116.29391 
L 92.980068 -115.924502 
L 92.550508 -115.553887 
L 92.120949 -115.182065 
L 91.69139 -114.809036 
L 91.261831 -114.434799 
L 90.832271 -114.059356 
L 90.402712 -113.682705 
L 89.973153 -113.304847 
L 89.543593 -112.925781 
L 89.114034 -112.545509 
L 88.684475 -112.164029 
L 88.254915 -111.781342 
L 87.825356 -111.397448 
L 87.395797 -111.012347 
L 86.966237 -110.626038 
L 86.536678 -110.238522 
L 86.107119 -109.849799 
L 85.677559 -109.459869 
L 85.248 -109.068731 
L 84.818441 -108.676387 
L 84.388881 -108.282835 
L 83.959322 -107.888076 
L 83.529763 -107.492109 
L 83.100203 -107.094936 
L 82.670644 -106.696555 
L 82.241085 -106.296967 
L 81.811525 -105.896172 
L 81.381966 -105.494169 
L 80.952407 -105.09096 
L 80.522847 -104.686543 
L 80.093288 -104.280919 
L 79.663729 -103.874088 
L 79.234169 -103.466049 
L 78.80461 -103.056803 
L 78.375051 -102.646351 
L 77.945492 -102.23469 
L 77.515932 -101.821823 
L 77.086373 -101.407748 
L 76.656814 -100.992467 
L 76.227254 -100.575978 
L 75.797695 -100.158282 
L 75.368136 -99.739378 
L 74.938576 -99.319268 
L 74.509017 -98.89795 
L 74.079458 -98.475425 
L 73.649898 -98.051692 
L 73.220339 -97.626753 
z
" id="m1f24195b05" style="stroke:#0000ff;stroke-opacity:0.1;"/>
    </defs>
    <g clip-path="url(#p269633a47b)">
     <use style="fill:#0000ff;fill-opacity:0.1;stroke:#0000ff;stroke-opacity:0.1;" x="0" xlink:href="#m1f24195b05" y="180"/>
    </g>
   </g>
   <g id="matplotlib.axis_1">
    <g id="xtick_1">
     <g id="line2d_1">
      <defs>
       <path d="M 0 0 
L 0 3.5 
" id="m5a0d8d2d9c" style="stroke:#000000;stroke-width:0.8;"/>
      </defs>
      <g>
       <use style="stroke:#000000;stroke-width:0.8;" x="62.266576" xlink:href="#m5a0d8d2d9c" y="162"/>
      </g>
     </g>
     <g id="text_1">
      <!-- 1950 -->
      <g transform="translate(49.541576 176.598438)scale(0.1 -0.1)">
       <defs>
        <path d="M 794 531 
L 1825 531 
L 1825 4091 
L 703 3866 
L 703 4441 
L 1819 4666 
L 2450 4666 
L 2450 531 
L 3481 531 
L 3481 0 
L 794 0 
L 794 531 
z
" id="DejaVuSans-31" transform="scale(0.015625)"/>
        <path d="M 703 97 
L 703 672 
Q 941 559 1184 500 
Q 1428 441 1663 441 
Q 2288 441 2617 861 
Q 2947 1281 2994 2138 
Q 2813 1869 2534 1725 
Q 2256 1581 1919 1581 
Q 1219 1581 811 2004 
Q 403 2428 403 3163 
Q 403 3881 828 4315 
Q 1253 4750 1959 4750 
Q 2769 4750 3195 4129 
Q 3622 3509 3622 2328 
Q 3622 1225 3098 567 
Q 2575 -91 1691 -91 
Q 1453 -91 1209 -44 
Q 966 3 703 97 
z
M 1959 2075 
Q 2384 2075 2632 2365 
Q 2881 2656 2881 3163 
Q 2881 3666 2632 3958 
Q 2384 4250 1959 4250 
Q 1534 4250 1286 3958 
Q 1038 3666 1038 3163 
Q 1038 2656 1286 2365 
Q 1534 2075 1959 2075 
z
" id="DejaVuSans-39" transform="scale(0.015625)"/>
        <path d="M 691 4666 
L 3169 4666 
L 3169 4134 
L 1269 4134 
L 1269 2991 
Q 1406 3038 1543 3061 
Q 1681 3084 1819 3084 
Q 2600 3084 3056 2656 
Q 3513 2228 3513 1497 
Q 3513 744 3044 326 
Q 2575 -91 1722 -91 
Q 1428 -91 1123 -41 
Q 819 9 494 109 
L 494 744 
Q 775 591 1075 516 
Q 1375 441 1709 441 
Q 2250 441 2565 725 
Q 2881 1009 2881 1497 
Q 2881 1984 2565 2268 
Q 2250 2553 1709 2553 
Q 1456 2553 1204 2497 
Q 953 2441 691 2322 
L 691 4666 
z
" id="DejaVuSans-35" transform="scale(0.015625)"/>
        <path d="M 2034 4250 
Q 1547 4250 1301 3770 
Q 1056 3291 1056 2328 
Q 1056 1369 1301 889 
Q 1547 409 2034 409 
Q 2525 409 2770 889 
Q 3016 1369 3016 2328 
Q 3016 3291 2770 3770 
Q 2525 4250 2034 4250 
z
M 2034 4750 
Q 2819 4750 3233 4129 
Q 3647 3509 3647 2328 
Q 3647 1150 3233 529 
Q 2819 -91 2034 -91 
Q 1250 -91 836 529 
Q 422 1150 422 2328 
Q 422 3509 836 4129 
Q 1250 4750 2034 4750 
z
" id="DejaVuSans-30" transform="scale(0.015625)"/>
       </defs>
       <use xlink:href="#DejaVuSans-31"/>
       <use x="63.623047" xlink:href="#DejaVuSans-39"/>
       <use x="127.246094" xlink:href="#DejaVuSans-35"/>
       <use x="190.869141" xlink:href="#DejaVuSans-30"/>
      </g>
     </g>
    </g>
    <g id="xtick_2">
     <g id="line2d_2">
      <g>
       <use style="stroke:#000000;stroke-width:0.8;" x="113.813695" xlink:href="#m5a0d8d2d9c" y="162"/>
      </g>
     </g>
     <g id="text_2">
      <!-- 1960 -->
      <g transform="translate(101.088695 176.598438)scale(0.1 -0.1)">
       <defs>
        <path d="M 2113 2584 
Q 1688 2584 1439 2293 
Q 1191 2003 1191 1497 
Q 1191 994 1439 701 
Q 1688 409 2113 409 
Q 2538 409 2786 701 
Q 3034 994 3034 1497 
Q 3034 2003 2786 2293 
Q 2538 2584 2113 2584 
z
M 3366 4563 
L 3366 3988 
Q 3128 4100 2886 4159 
Q 2644 4219 2406 4219 
Q 1781 4219 1451 3797 
Q 1122 3375 1075 2522 
Q 1259 2794 1537 2939 
Q 1816 3084 2150 3084 
Q 2853 3084 3261 2657 
Q 3669 2231 3669 1497 
Q 3669 778 3244 343 
Q 2819 -91 2113 -91 
Q 1303 -91 875 529 
Q 447 1150 447 2328 
Q 447 3434 972 4092 
Q 1497 4750 2381 4750 
Q 2619 4750 2861 4703 
Q 3103 4656 3366 4563 
z
" id="DejaVuSans-36" transform="scale(0.015625)"/>
       </defs>
       <use xlink:href="#DejaVuSans-31"/>
       <use x="63.623047" xlink:href="#DejaVuSans-39"/>
       <use x="127.246094" xlink:href="#DejaVuSans-36"/>
       <use x="190.869141" xlink:href="#DejaVuSans-30"/>
      </g>
     </g>
    </g>
    <g id="xtick_3">
     <g id="line2d_3">
      <g>
       <use style="stroke:#000000;stroke-width:0.8;" x="165.360814" xlink:href="#m5a0d8d2d9c" y="162"/>
      </g>
     </g>
     <g id="text_3">
      <!-- 1970 -->
      <g transform="translate(152.635814 176.598438)scale(0.1 -0.1)">
       <defs>
        <path d="M 525 4666 
L 3525 4666 
L 3525 4397 
L 1831 0 
L 1172 0 
L 2766 4134 
L 525 4134 
L 525 4666 
z
" id="DejaVuSans-37" transform="scale(0.015625)"/>
       </defs>
       <use xlink:href="#DejaVuSans-31"/>
       <use x="63.623047" xlink:href="#DejaVuSans-39"/>
       <use x="127.246094" xlink:href="#DejaVuSans-37"/>
       <use x="190.869141" xlink:href="#DejaVuSans-30"/>
      </g>
     </g>
    </g>
    <g id="xtick_4">
     <g id="line2d_4">
      <g>
       <use style="stroke:#000000;stroke-width:0.8;" x="216.907932" xlink:href="#m5a0d8d2d9c" y="162"/>
      </g>
     </g>
     <g id="text_4">
      <!-- 1980 -->
      <g transform="translate(204.182932 176.598438)scale(0.1 -0.1)">
       <defs>
        <path d="M 2034 2216 
Q 1584 2216 1326 1975 
Q 1069 1734 1069 1313 
Q 1069 891 1326 650 
Q 1584 409 2034 409 
Q 2484 409 2743 651 
Q 3003 894 3003 1313 
Q 3003 1734 2745 1975 
Q 2488 2216 2034 2216 
z
M 1403 2484 
Q 997 2584 770 2862 
Q 544 3141 544 3541 
Q 544 4100 942 4425 
Q 1341 4750 2034 4750 
Q 2731 4750 3128 4425 
Q 3525 4100 3525 3541 
Q 3525 3141 3298 2862 
Q 3072 2584 2669 2484 
Q 3125 2378 3379 2068 
Q 3634 1759 3634 1313 
Q 3634 634 3220 271 
Q 2806 -91 2034 -91 
Q 1263 -91 848 271 
Q 434 634 434 1313 
Q 434 1759 690 2068 
Q 947 2378 1403 2484 
z
M 1172 3481 
Q 1172 3119 1398 2916 
Q 1625 2713 2034 2713 
Q 2441 2713 2670 2916 
Q 2900 3119 2900 3481 
Q 2900 3844 2670 4047 
Q 2441 4250 2034 4250 
Q 1625 4250 1398 4047 
Q 1172 3844 1172 3481 
z
" id="DejaVuSans-38" transform="scale(0.015625)"/>
       </defs>
       <use xlink:href="#DejaVuSans-31"/>
       <use x="63.623047" xlink:href="#DejaVuSans-39"/>
       <use x="127.246094" xlink:href="#DejaVuSans-38"/>
       <use x="190.869141" xlink:href="#DejaVuSans-30"/>
      </g>
     </g>
    </g>
    <g id="xtick_5">
     <g id="line2d_5">
      <g>
       <use style="stroke:#000000;stroke-width:0.8;" x="268.455051" xlink:href="#m5a0d8d2d9c" y="162"/>
      </g>
     </g>
     <g id="text_5">
      <!-- 1990 -->
      <g transform="translate(255.730051 176.598438)scale(0.1 -0.1)">
       <use xlink:href="#DejaVuSans-31"/>
       <use x="63.623047" xlink:href="#DejaVuSans-39"/>
       <use x="127.246094" xlink:href="#DejaVuSans-39"/>
       <use x="190.869141" xlink:href="#DejaVuSans-30"/>
      </g>
     </g>
    </g>
    <g id="xtick_6">
     <g id="line2d_6">
      <g>
       <use style="stroke:#000000;stroke-width:0.8;" x="320.002169" xlink:href="#m5a0d8d2d9c" y="162"/>
      </g>
     </g>
     <g id="text_6">
      <!-- 2000 -->
      <g transform="translate(307.277169 176.598438)scale(0.1 -0.1)">
       <defs>
        <path d="M 1228 531 
L 3431 531 
L 3431 0 
L 469 0 
L 469 531 
Q 828 903 1448 1529 
Q 2069 2156 2228 2338 
Q 2531 2678 2651 2914 
Q 2772 3150 2772 3378 
Q 2772 3750 2511 3984 
Q 2250 4219 1831 4219 
Q 1534 4219 1204 4116 
Q 875 4013 500 3803 
L 500 4441 
Q 881 4594 1212 4672 
Q 1544 4750 1819 4750 
Q 2544 4750 2975 4387 
Q 3406 4025 3406 3419 
Q 3406 3131 3298 2873 
Q 3191 2616 2906 2266 
Q 2828 2175 2409 1742 
Q 1991 1309 1228 531 
z
" id="DejaVuSans-32" transform="scale(0.015625)"/>
       </defs>
       <use xlink:href="#DejaVuSans-32"/>
       <use x="63.623047" xlink:href="#DejaVuSans-30"/>
       <use x="127.246094" xlink:href="#DejaVuSans-30"/>
       <use x="190.869141" xlink:href="#DejaVuSans-30"/>
      </g>
     </g>
    </g>
    <g id="xtick_7">
     <g id="line2d_7">
      <g>
       <use style="stroke:#000000;stroke-width:0.8;" x="371.549288" xlink:href="#m5a0d8d2d9c" y="162"/>
      </g>
     </g>
     <g id="text_7">
      <!-- 2010 -->
      <g transform="translate(358.824288 176.598438)scale(0.1 -0.1)">
       <use xlink:href="#DejaVuSans-32"/>
       <use x="63.623047" xlink:href="#DejaVuSans-30"/>
       <use x="127.246094" xlink:href="#DejaVuSans-31"/>
       <use x="190.869141" xlink:href="#DejaVuSans-30"/>
      </g>
     </g>
    </g>
   </g>
   <g id="matplotlib.axis_2">
    <g id="ytick_1">
     <g id="line2d_8">
      <defs>
       <path d="M 0 0 
L -3.5 0 
" id="m8f1f431c60" style="stroke:#000000;stroke-width:0.8;"/>
      </defs>
      <g>
       <use style="stroke:#000000;stroke-width:0.8;" x="34.56" xlink:href="#m8f1f431c60" y="126.561944"/>
      </g>
     </g>
     <g id="text_8">
      <!-- −50 -->
      <g transform="translate(6.455313 130.361163)scale(0.1 -0.1)">
       <defs>
        <path d="M 678 2272 
L 4684 2272 
L 4684 1741 
L 678 1741 
L 678 2272 
z
" id="DejaVuSans-2212" transform="scale(0.015625)"/>
       </defs>
       <use xlink:href="#DejaVuSans-2212"/>
       <use x="83.789062" xlink:href="#DejaVuSans-35"/>
       <use x="147.412109" xlink:href="#DejaVuSans-30"/>
      </g>
     </g>
    </g>
    <g id="ytick_2">
     <g id="line2d_9">
      <g>
       <use style="stroke:#000000;stroke-width:0.8;" x="34.56" xlink:href="#m8f1f431c60" y="82.8"/>
      </g>
     </g>
     <g id="text_9">
      <!-- 0 -->
      <g transform="translate(21.1975 86.599219)scale(0.1 -0.1)">
       <use xlink:href="#DejaVuSans-30"/>
      </g>
     </g>
    </g>
    <g id="ytick_3">
     <g id="line2d_10">
      <g>
       <use style="stroke:#000000;stroke-width:0.8;" x="34.56" xlink:href="#m8f1f431c60" y="39.038056"/>
      </g>
     </g>
     <g id="text_10">
      <!-- 50 -->
      <g transform="translate(14.835 42.837275)scale(0.1 -0.1)">
       <use xlink:href="#DejaVuSans-35"/>
       <use x="63.623047" xlink:href="#DejaVuSans-30"/>
      </g>
     </g>
    </g>
   </g>
   <g id="line2d_11">
    <path clip-path="url(#p269633a47b)" d="M 73.220339 82.875159 
L 73.649898 82.960644 
L 74.079458 82.589737 
L 74.509017 82.622786 
L 74.938576 82.535627 
L 75.368136 82.67024 
L 75.797695 82.557794 
L 76.656814 82.800941 
L 77.086373 82.953508 
L 77.515932 82.937355 
L 77.945492 83.249829 
L 78.375051 83.229816 
L 78.80461 83.018785 
L 79.234169 83.045712 
L 79.663729 82.869252 
L 80.522847 83.14272 
L 82.670644 82.59616 
L 83.529763 82.899155 
L 83.959322 82.979943 
L 84.818441 82.893749 
L 85.248 82.834228 
L 86.966237 83.395464 
L 87.395797 83.257007 
L 88.254915 83.297879 
L 89.114034 83.690862 
L 89.543593 83.473463 
L 91.261831 83.271486 
L 92.120949 83.597371 
L 92.980068 83.439845 
L 93.409627 83.416209 
L 93.839186 83.21912 
L 94.698305 83.498915 
L 95.127864 83.284759 
L 95.557424 83.42555 
L 96.846102 84.42137 
L 97.70522 84.62329 
L 98.993898 84.568846 
L 100.282576 84.552141 
L 100.712136 84.345657 
L 101.141695 84.284035 
L 102.000814 84.541879 
L 103.289492 84.652751 
L 104.14861 84.450539 
L 105.007729 84.938268 
L 105.437288 84.867701 
L 106.725966 85.080041 
L 107.585085 85.419816 
L 108.014644 85.662555 
L 109.732881 85.52716 
L 111.880678 84.794718 
L 112.310237 84.088618 
L 113.169356 83.610343 
L 114.028475 83.807105 
L 114.458034 83.703602 
L 114.887593 84.032005 
L 115.317153 84.02664 
L 116.176271 83.67768 
L 116.605831 83.708361 
L 117.464949 83.576645 
L 119.183186 83.93466 
L 119.612746 83.947468 
L 120.042305 83.700207 
L 120.901424 83.885906 
L 121.330983 83.80449 
L 121.760542 84.012823 
L 122.619661 83.947423 
L 123.04922 83.762817 
L 123.47878 83.811277 
L 124.767458 84.352443 
L 125.626576 84.317619 
L 126.056136 84.509289 
L 126.485695 84.211809 
L 127.344814 84.430996 
L 129.49261 84.504493 
L 130.351729 83.722939 
L 131.210847 83.434035 
L 132.069966 83.062926 
L 133.788203 83.242776 
L 134.217763 83.240601 
L 135.506441 83.663866 
L 135.936 83.5475 
L 138.083797 82.165853 
L 138.513356 82.187108 
L 138.942915 82.335444 
L 139.802034 82.417512 
L 140.231593 82.514139 
L 140.661153 82.260174 
L 141.949831 82.201076 
L 142.37939 82.484846 
L 143.668068 81.941043 
L 144.527186 82.437542 
L 144.956746 82.484152 
L 145.386305 82.718684 
L 146.245424 82.76582 
L 146.674983 82.533482 
L 148.39322 82.872046 
L 148.82278 83.025359 
L 149.681898 82.977645 
L 150.541017 83.157556 
L 151.829695 83.06582 
L 152.688814 82.434341 
L 155.695729 83.004872 
L 156.125288 82.966252 
L 156.554847 82.72869 
L 156.984407 82.662639 
L 157.843525 82.212411 
L 158.273085 82.322542 
L 158.702644 82.560457 
L 160.420881 82.704092 
L 160.850441 82.686569 
L 161.28 83.008075 
L 162.139119 83.0433 
L 163.857356 82.389954 
L 164.286915 82.146036 
L 164.716475 82.197141 
L 165.146034 82.388538 
L 166.005153 82.287457 
L 166.434712 82.414196 
L 166.864271 82.669688 
L 167.293831 82.606652 
L 167.72339 82.240739 
L 168.152949 82.185822 
L 168.582508 81.858957 
L 169.012068 81.727982 
L 169.441627 81.900812 
L 169.871186 81.64221 
L 170.300746 81.602606 
L 170.730305 81.376205 
L 171.159864 81.488264 
L 172.018983 81.195505 
L 172.448542 80.933229 
L 172.878102 80.889694 
L 173.307661 80.253895 
L 173.73722 80.098941 
L 174.596339 79.425745 
L 176.314576 79.376652 
L 176.744136 78.861404 
L 177.173695 78.741167 
L 177.603254 78.751898 
L 178.462373 78.424063 
L 179.321492 78.333211 
L 179.751051 77.899408 
L 180.18061 77.958476 
L 181.039729 77.666926 
L 181.469288 77.770916 
L 181.898847 77.385952 
L 182.757966 77.42168 
L 183.187525 77.091331 
L 183.617085 76.91513 
L 184.046644 76.330889 
L 184.476203 76.055706 
L 185.335322 76.038305 
L 186.194441 75.603449 
L 186.624 75.545082 
L 187.053559 75.731653 
L 187.483119 75.518349 
L 187.912678 75.499788 
L 189.630915 75.072589 
L 190.060475 75.21484 
L 191.778712 75.143316 
L 192.208271 75.047894 
L 193.06739 75.207622 
L 193.496949 74.929857 
L 193.926508 74.893143 
L 194.356068 74.376376 
L 194.785627 74.231514 
L 196.074305 74.171578 
L 196.503864 74.304447 
L 197.792542 74.258796 
L 199.940339 73.046478 
L 202.947254 72.749642 
L 203.806373 72.611071 
L 205.095051 72.706323 
L 205.52461 72.485391 
L 205.954169 72.614262 
L 209.390644 72.57559 
L 210.249763 72.889173 
L 211.968 72.587815 
L 212.827119 72.987284 
L 215.834034 73.461886 
L 217.552271 73.447779 
L 217.981831 73.649501 
L 218.840949 73.568908 
L 219.270508 73.70791 
L 220.129627 74.193338 
L 220.988746 74.134419 
L 221.418305 74.435205 
L 222.277424 74.501486 
L 223.136542 74.81289 
L 223.995661 74.900567 
L 224.42522 75.116633 
L 227.432136 75.12926 
L 228.291254 74.718676 
L 229.579932 75.098228 
L 230.009492 74.877341 
L 230.439051 74.795456 
L 230.86861 74.452617 
L 231.727729 74.365975 
L 232.157288 74.447826 
L 232.586847 74.415471 
L 233.016407 74.672187 
L 235.164203 74.587126 
L 235.593763 74.404339 
L 236.882441 74.533748 
L 237.312 74.335905 
L 238.600678 74.557574 
L 239.030237 74.311847 
L 240.318915 74.801224 
L 240.748475 74.597528 
L 241.607593 74.960504 
L 242.466712 74.756283 
L 242.896271 74.867086 
L 243.75539 74.792281 
L 245.044068 74.960845 
L 245.473627 74.873141 
L 246.332746 75.229357 
L 248.050983 75.381274 
L 248.910102 75.955772 
L 249.339661 76.062226 
L 249.76922 75.934382 
L 251.917017 76.078634 
L 252.776136 75.888646 
L 253.205695 76.01396 
L 253.635254 75.861091 
L 254.064814 76.087004 
L 254.923932 76.214114 
L 256.642169 77.002569 
L 257.071729 76.96557 
L 257.930847 77.225433 
L 258.360407 77.17311 
L 259.219525 77.406992 
L 259.649085 77.280882 
L 260.078644 77.281997 
L 262.226441 78.195196 
L 262.656 78.157396 
L 263.085559 78.280401 
L 264.374237 77.660215 
L 264.803797 77.78803 
L 266.092475 76.814586 
L 266.951593 76.819227 
L 268.240271 76.031116 
L 268.669831 76.029723 
L 269.528949 75.590225 
L 269.958508 75.551322 
L 270.388068 75.37682 
L 270.817627 75.505436 
L 271.247186 75.459855 
L 271.676746 75.234415 
L 272.106305 75.206693 
L 272.535864 75.04254 
L 273.394983 75.127759 
L 274.254102 75.041835 
L 275.11322 74.621866 
L 275.54278 74.717369 
L 275.972339 75.0786 
L 276.401898 75.281033 
L 276.831458 75.233322 
L 277.261017 74.97416 
L 277.690576 74.957913 
L 278.120136 75.068973 
L 278.549695 74.860509 
L 278.979254 74.918541 
L 279.838373 74.618826 
L 280.697492 74.651643 
L 282.415729 75.061784 
L 283.274847 75.081861 
L 284.993085 74.998484 
L 286.711322 75.896397 
L 289.288678 76.793852 
L 290.147797 76.641547 
L 291.436475 76.907952 
L 292.295593 76.912706 
L 292.725153 76.970736 
L 293.584271 76.759612 
L 295.302508 77.066972 
L 295.732068 77.330654 
L 296.161627 77.331103 
L 296.591186 77.54083 
L 297.020746 77.547525 
L 297.450305 77.216748 
L 297.879864 77.229491 
L 298.309424 76.742812 
L 299.168542 76.86351 
L 300.027661 76.966565 
L 300.45722 77.383631 
L 300.88678 77.112786 
L 301.745898 77.425176 
L 303.893695 77.677793 
L 304.323254 77.847511 
L 305.182373 77.695665 
L 306.041492 77.657884 
L 306.90061 78.07276 
L 307.759729 78.606562 
L 308.189288 78.496112 
L 309.477966 78.556174 
L 310.337085 78.112342 
L 311.625763 78.727228 
L 312.055322 79.076205 
L 313.344 79.585155 
L 313.773559 79.928749 
L 314.203119 80.071491 
L 315.062237 80.088021 
L 316.350915 81.031958 
L 317.639593 81.826371 
L 318.069153 81.892805 
L 318.498712 81.826178 
L 318.928271 82.056409 
L 321.935186 81.644838 
L 323.653424 81.850973 
L 324.512542 81.481883 
L 325.371661 81.228238 
L 325.80122 81.192015 
L 326.23078 81.270238 
L 326.660339 81.728868 
L 327.949017 82.481279 
L 328.378576 82.527514 
L 328.808136 82.711821 
L 329.237695 82.641656 
L 329.667254 82.692476 
L 330.096814 82.857409 
L 331.385492 82.827953 
L 332.24461 83.137898 
L 332.674169 83.500357 
L 333.962847 84.170264 
L 334.392407 84.452024 
L 334.821966 84.454804 
L 335.251525 84.590639 
L 335.681085 84.851519 
L 336.110644 85.262475 
L 336.540203 85.223505 
L 337.828881 86.005028 
L 338.258441 86.164137 
L 339.117559 86.206289 
L 339.547119 86.570548 
L 340.406237 86.68133 
L 341.265356 87.18375 
L 344.272271 89.190544 
L 344.701831 89.323408 
L 346.849627 89.285072 
L 347.708746 89.189758 
L 349.856542 89.243092 
L 350.286102 89.001056 
L 353.293017 88.817661 
L 353.722576 88.6456 
L 354.152136 88.868133 
L 355.011254 88.980367 
L 355.440814 88.760299 
L 355.870373 88.71278 
L 356.299932 88.821013 
L 357.159051 88.519961 
L 358.447729 88.435975 
L 360.595525 88.457936 
L 361.025085 88.371946 
L 362.743322 87.56348 
L 363.172881 87.619005 
L 363.602441 87.333717 
L 364.461559 87.544195 
L 364.891119 87.601923 
L 366.179797 87.141058 
L 366.609356 86.738477 
L 367.898034 86.220083 
L 369.616271 85.292796 
L 370.904949 84.989872 
L 373.052746 83.618615 
L 373.482305 83.491654 
L 374.341424 82.763258 
L 374.770983 82.851521 
L 375.630102 82.817022 
L 376.059661 82.8 
L 376.059661 82.8 
" style="fill:none;stroke:#1f77b4;stroke-linecap:square;stroke-width:1.5;"/>
   </g>
   <g id="line2d_12">
    <path clip-path="url(#p269633a47b)" d="M 34.56 82.8 
L 414.72 82.8 
" style="fill:none;stroke:#000000;stroke-dasharray:1.5,2.475;stroke-dashoffset:0;stroke-width:1.5;"/>
   </g>
   <g id="patch_3">
    <path d="M 34.56 162 
L 34.56 3.6 
" style="fill:none;stroke:#000000;stroke-linecap:square;stroke-linejoin:miter;stroke-width:0.8;"/>
   </g>
   <g id="patch_4">
    <path d="M 414.72 162 
L 414.72 3.6 
" style="fill:none;stroke:#000000;stroke-linecap:square;stroke-linejoin:miter;stroke-width:0.8;"/>
   </g>
   <g id="patch_5">
    <path d="M 34.56 162 
L 414.72 162 
" style="fill:none;stroke:#000000;stroke-linecap:square;stroke-linejoin:miter;stroke-width:0.8;"/>
   </g>
   <g id="patch_6">
    <path d="M 34.56 3.6 
L 414.72 3.6 
" style="fill:none;stroke:#000000;stroke-linecap:square;stroke-linejoin:miter;stroke-width:0.8;"/>
   </g>
  </g>
 </g>
 <defs>
  <clipPath id="p269633a47b">
   <rect height="158.4" width="380.16" x="34.56" y="3.6"/>
  </clipPath>
 </defs>
</svg>
