<?xml version="1.0" encoding="utf-8" standalone="no"?>
<!DOCTYPE svg PUBLIC "-//W3C//DTD SVG 1.1//EN"
  "http://www.w3.org/Graphics/SVG/1.1/DTD/svg11.dtd">
<svg height="180pt" version="1.1" viewBox="0 0 432 180" width="432pt" xmlns="http://www.w3.org/2000/svg" xmlns:xlink="http://www.w3.org/1999/xlink">
 <metadata>
  <rdf:RDF xmlns:cc="http://creativecommons.org/ns#" xmlns:dc="http://purl.org/dc/elements/1.1/" xmlns:rdf="http://www.w3.org/1999/02/22-rdf-syntax-ns#">
   <cc:Work>
    <dc:type rdf:resource="http://purl.org/dc/dcmitype/StillImage"/>
    <dc:date>2021-08-12T10:43:36.609203</dc:date>
    <dc:format>image/svg+xml</dc:format>
    <dc:creator>
     <cc:Agent>
      <dc:title>Matplotlib v3.4.2, https://matplotlib.org/</dc:title>
     </cc:Agent>
    </dc:creator>
   </cc:Work>
  </rdf:RDF>
 </metadata>
 <defs>
  <style type="text/css">*{stroke-linecap:butt;stroke-linejoin:round;}</style>
 </defs>
 <g id="figure_1">
  <g id="patch_1">
   <path d="M 0 180 
L 432 180 
L 432 0 
L 0 0 
z
" style="fill:#ffffff;"/>
  </g>
  <g id="axes_1">
   <g id="patch_2">
    <path d="M 34.56 162 
L 414.72 162 
L 414.72 3.6 
L 34.56 3.6 
z
" style="fill:#ffffff;"/>
   </g>
   <g id="PolyCollection_1">
    <path clip-path="url(#pccfda52be7)" d="M 96.542609 81.930506 
L 96.542609 83.669494 
L 97.231304 84.531448 
L 97.92 85.388392 
L 98.608696 86.240323 
L 99.297391 87.087244 
L 99.986087 87.929153 
L 100.674783 88.766051 
L 101.363478 89.597938 
L 102.052174 90.424813 
L 102.74087 91.246676 
L 103.429565 92.063529 
L 104.118261 92.87537 
L 104.806957 93.682199 
L 105.495652 94.484018 
L 106.184348 95.280825 
L 106.873043 96.07262 
L 107.561739 96.859404 
L 108.250435 97.641177 
L 108.93913 98.417939 
L 109.627826 99.189689 
L 110.316522 99.956428 
L 111.005217 100.718155 
L 111.693913 101.474871 
L 112.382609 102.226576 
L 113.071304 102.973269 
L 113.76 103.714951 
L 114.448696 104.451621 
L 115.137391 105.18328 
L 115.826087 105.909928 
L 116.514783 106.631565 
L 117.203478 107.34819 
L 117.892174 108.059804 
L 118.58087 108.766406 
L 119.269565 109.467997 
L 119.958261 110.164577 
L 120.646957 110.856145 
L 121.335652 111.542702 
L 122.024348 112.224247 
L 122.713043 112.900781 
L 123.401739 113.572304 
L 124.090435 114.238816 
L 124.77913 114.900316 
L 125.467826 115.556805 
L 126.156522 116.208282 
L 126.845217 116.854748 
L 127.533913 117.496203 
L 128.222609 118.132646 
L 128.911304 118.764078 
L 129.6 119.390498 
L 130.288696 120.011907 
L 130.977391 120.628305 
L 131.666087 121.239692 
L 132.354783 121.846067 
L 133.043478 122.44743 
L 133.732174 123.043783 
L 134.42087 123.635124 
L 135.109565 124.221453 
L 135.798261 124.802772 
L 136.486957 125.379079 
L 137.175652 125.950374 
L 137.864348 126.516658 
L 138.553043 127.077931 
L 139.241739 127.634192 
L 139.930435 128.185443 
L 140.61913 128.731681 
L 141.307826 129.272909 
L 141.996522 129.809125 
L 142.685217 130.340329 
L 143.373913 130.866522 
L 144.062609 131.387704 
L 144.751304 131.903875 
L 145.44 132.415034 
L 146.128696 132.921182 
L 146.817391 133.422318 
L 147.506087 133.918443 
L 148.194783 134.409557 
L 148.883478 134.895659 
L 149.572174 135.37675 
L 150.26087 135.85283 
L 150.949565 136.323898 
L 151.638261 136.789955 
L 152.326957 137.251001 
L 153.015652 137.707035 
L 153.704348 138.158057 
L 154.393043 138.604069 
L 155.081739 139.045069 
L 155.770435 139.481058 
L 156.45913 139.912035 
L 157.147826 140.338001 
L 157.836522 140.758956 
L 158.525217 141.174899 
L 159.213913 141.585831 
L 159.902609 141.991751 
L 160.591304 142.39266 
L 161.28 142.788558 
L 161.968696 143.179444 
L 162.657391 143.56532 
L 163.346087 143.946183 
L 164.034783 144.322036 
L 164.723478 144.692876 
L 165.412174 145.058706 
L 166.10087 145.419524 
L 166.789565 145.775331 
L 167.478261 146.126127 
L 168.166957 146.471911 
L 168.855652 146.812684 
L 169.544348 147.148445 
L 170.233043 147.479195 
L 170.921739 147.804934 
L 171.610435 148.125661 
L 172.29913 148.441377 
L 172.987826 148.752082 
L 173.676522 149.057775 
L 174.365217 149.358457 
L 175.053913 149.654127 
L 175.742609 149.944786 
L 176.431304 150.230434 
L 177.12 150.51107 
L 177.808696 150.786695 
L 178.497391 151.057309 
L 179.186087 151.322911 
L 179.874783 151.583502 
L 180.563478 151.839082 
L 181.252174 152.08965 
L 181.94087 152.335207 
L 182.629565 152.575753 
L 183.318261 152.811287 
L 184.006957 153.041809 
L 184.695652 153.267321 
L 185.384348 153.487821 
L 186.073043 153.703309 
L 186.761739 153.913787 
L 187.450435 154.119253 
L 188.13913 154.319707 
L 188.827826 154.51515 
L 189.516522 154.705582 
L 190.205217 154.891003 
L 190.893913 155.071412 
L 191.582609 155.24681 
L 192.271304 155.417196 
L 192.96 155.582571 
L 193.648696 155.742935 
L 194.337391 155.898287 
L 195.026087 156.048628 
L 195.714783 156.193958 
L 196.403478 156.334276 
L 197.092174 156.469583 
L 197.78087 156.599878 
L 198.469565 156.725162 
L 199.158261 156.845435 
L 199.846957 156.960696 
L 200.535652 157.070946 
L 201.224348 157.176185 
L 201.913043 157.276412 
L 202.601739 157.371628 
L 203.290435 157.461833 
L 203.97913 157.547026 
L 204.667826 157.627208 
L 205.356522 157.702378 
L 206.045217 157.772537 
L 206.733913 157.837685 
L 207.422609 157.897821 
L 208.111304 157.952946 
L 208.8 158.00306 
L 209.488696 158.048162 
L 210.177391 158.088253 
L 210.866087 158.123333 
L 211.554783 158.153401 
L 212.243478 158.178458 
L 212.932174 158.198503 
L 213.62087 158.213537 
L 214.309565 158.22356 
L 214.998261 158.228571 
L 215.686957 158.228571 
L 216.375652 158.22356 
L 217.064348 158.213537 
L 217.753043 158.198503 
L 218.441739 158.178458 
L 219.130435 158.153401 
L 219.81913 158.123333 
L 220.507826 158.088253 
L 221.196522 158.048162 
L 221.885217 158.00306 
L 222.573913 157.952946 
L 223.262609 157.897821 
L 223.951304 157.837685 
L 224.64 157.772537 
L 225.328696 157.702378 
L 226.017391 157.627208 
L 226.706087 157.547026 
L 227.394783 157.461833 
L 228.083478 157.371628 
L 228.772174 157.276412 
L 229.46087 157.176185 
L 230.149565 157.070946 
L 230.838261 156.960696 
L 231.526957 156.845435 
L 232.215652 156.725162 
L 232.904348 156.599878 
L 233.593043 156.469583 
L 234.281739 156.334276 
L 234.970435 156.193958 
L 235.65913 156.048628 
L 236.347826 155.898287 
L 237.036522 155.742935 
L 237.725217 155.582571 
L 238.413913 155.417196 
L 239.102609 155.24681 
L 239.791304 155.071412 
L 240.48 154.891003 
L 241.168696 154.705582 
L 241.857391 154.51515 
L 242.546087 154.319707 
L 243.234783 154.119253 
L 243.923478 153.913787 
L 243.923478 11.686213 
L 243.923478 11.686213 
L 243.234783 11.480747 
L 242.546087 11.280293 
L 241.857391 11.08485 
L 241.168696 10.894418 
L 240.48 10.708997 
L 239.791304 10.528588 
L 239.102609 10.35319 
L 238.413913 10.182804 
L 237.725217 10.017429 
L 237.036522 9.857065 
L 236.347826 9.701713 
L 235.65913 9.551372 
L 234.970435 9.406042 
L 234.281739 9.265724 
L 233.593043 9.130417 
L 232.904348 9.000122 
L 232.215652 8.874838 
L 231.526957 8.754565 
L 230.838261 8.639304 
L 230.149565 8.529054 
L 229.46087 8.423815 
L 228.772174 8.323588 
L 228.083478 8.228372 
L 227.394783 8.138167 
L 226.706087 8.052974 
L 226.017391 7.972792 
L 225.328696 7.897622 
L 224.64 7.827463 
L 223.951304 7.762315 
L 223.262609 7.702179 
L 222.573913 7.647054 
L 221.885217 7.59694 
L 221.196522 7.551838 
L 220.507826 7.511747 
L 219.81913 7.476667 
L 219.130435 7.446599 
L 218.441739 7.421542 
L 217.753043 7.401497 
L 217.064348 7.386463 
L 216.375652 7.37644 
L 215.686957 7.371429 
L 214.998261 7.371429 
L 214.309565 7.37644 
L 213.62087 7.386463 
L 212.932174 7.401497 
L 212.243478 7.421542 
L 211.554783 7.446599 
L 210.866087 7.476667 
L 210.177391 7.511747 
L 209.488696 7.551838 
L 208.8 7.59694 
L 208.111304 7.647054 
L 207.422609 7.702179 
L 206.733913 7.762315 
L 206.045217 7.827463 
L 205.356522 7.897622 
L 204.667826 7.972792 
L 203.97913 8.052974 
L 203.290435 8.138167 
L 202.601739 8.228372 
L 201.913043 8.323588 
L 201.224348 8.423815 
L 200.535652 8.529054 
L 199.846957 8.639304 
L 199.158261 8.754565 
L 198.469565 8.874838 
L 197.78087 9.000122 
L 197.092174 9.130417 
L 196.403478 9.265724 
L 195.714783 9.406042 
L 195.026087 9.551372 
L 194.337391 9.701713 
L 193.648696 9.857065 
L 192.96 10.017429 
L 192.271304 10.182804 
L 191.582609 10.35319 
L 190.893913 10.528588 
L 190.205217 10.708997 
L 189.516522 10.894418 
L 188.827826 11.08485 
L 188.13913 11.280293 
L 187.450435 11.480747 
L 186.761739 11.686213 
L 186.073043 11.896691 
L 185.384348 12.112179 
L 184.695652 12.332679 
L 184.006957 12.558191 
L 183.318261 12.788713 
L 182.629565 13.024247 
L 181.94087 13.264793 
L 181.252174 13.51035 
L 180.563478 13.760918 
L 179.874783 14.016498 
L 179.186087 14.277089 
L 178.497391 14.542691 
L 177.808696 14.813305 
L 177.12 15.08893 
L 176.431304 15.369566 
L 175.742609 15.655214 
L 175.053913 15.945873 
L 174.365217 16.241543 
L 173.676522 16.542225 
L 172.987826 16.847918 
L 172.29913 17.158623 
L 171.610435 17.474339 
L 170.921739 17.795066 
L 170.233043 18.120805 
L 169.544348 18.451555 
L 168.855652 18.787316 
L 168.166957 19.128089 
L 167.478261 19.473873 
L 166.789565 19.824669 
L 166.10087 20.180476 
L 165.412174 20.541294 
L 164.723478 20.907124 
L 164.034783 21.277964 
L 163.346087 21.653817 
L 162.657391 22.03468 
L 161.968696 22.420556 
L 161.28 22.811442 
L 160.591304 23.20734 
L 159.902609 23.608249 
L 159.213913 24.014169 
L 158.525217 24.425101 
L 157.836522 24.841044 
L 157.147826 25.261999 
L 156.45913 25.687965 
L 155.770435 26.118942 
L 155.081739 26.554931 
L 154.393043 26.995931 
L 153.704348 27.441943 
L 153.015652 27.892965 
L 152.326957 28.348999 
L 151.638261 28.810045 
L 150.949565 29.276102 
L 150.26087 29.74717 
L 149.572174 30.22325 
L 148.883478 30.704341 
L 148.194783 31.190443 
L 147.506087 31.681557 
L 146.817391 32.177682 
L 146.128696 32.678818 
L 145.44 33.184966 
L 144.751304 33.696125 
L 144.062609 34.212296 
L 143.373913 34.733478 
L 142.685217 35.259671 
L 141.996522 35.790875 
L 141.307826 36.327091 
L 140.61913 36.868319 
L 139.930435 37.414557 
L 139.241739 37.965808 
L 138.553043 38.522069 
L 137.864348 39.083342 
L 137.175652 39.649626 
L 136.486957 40.220921 
L 135.798261 40.797228 
L 135.109565 41.378547 
L 134.42087 41.964876 
L 133.732174 42.556217 
L 133.043478 43.15257 
L 132.354783 43.753933 
L 131.666087 44.360308 
L 130.977391 44.971695 
L 130.288696 45.588093 
L 129.6 46.209502 
L 128.911304 46.835922 
L 128.222609 47.467354 
L 127.533913 48.103797 
L 126.845217 48.745252 
L 126.156522 49.391718 
L 125.467826 50.043195 
L 124.77913 50.699684 
L 124.090435 51.361184 
L 123.401739 52.027696 
L 122.713043 52.699219 
L 122.024348 53.375753 
L 121.335652 54.057298 
L 120.646957 54.743855 
L 119.958261 55.435423 
L 119.269565 56.132003 
L 118.58087 56.833594 
L 117.892174 57.540196 
L 117.203478 58.25181 
L 116.514783 58.968435 
L 115.826087 59.690072 
L 115.137391 60.41672 
L 114.448696 61.148379 
L 113.76 61.885049 
L 113.071304 62.626731 
L 112.382609 63.373424 
L 111.693913 64.125129 
L 111.005217 64.881845 
L 110.316522 65.643572 
L 109.627826 66.410311 
L 108.93913 67.182061 
L 108.250435 67.958823 
L 107.561739 68.740596 
L 106.873043 69.52738 
L 106.184348 70.319175 
L 105.495652 71.115982 
L 104.806957 71.917801 
L 104.118261 72.72463 
L 103.429565 73.536471 
L 102.74087 74.353324 
L 102.052174 75.175187 
L 101.363478 76.002062 
L 100.674783 76.833949 
L 99.986087 77.670847 
L 99.297391 78.512756 
L 98.608696 79.359677 
L 97.92 80.211608 
L 97.231304 81.068552 
L 96.542609 81.930506 
z
" style="fill:#0000ff;fill-opacity:0.1;stroke:#0000ff;stroke-opacity:0.1;"/>
    <path clip-path="url(#pccfda52be7)" d="M 245.30087 11.896691 
L 245.30087 153.703309 
L 245.989565 153.487821 
L 246.678261 153.267321 
L 247.366957 153.041809 
L 248.055652 152.811287 
L 248.744348 152.575753 
L 248.744348 13.024247 
L 248.744348 13.024247 
L 248.055652 12.788713 
L 247.366957 12.558191 
L 246.678261 12.332679 
L 245.989565 12.112179 
L 245.30087 11.896691 
z
" style="fill:#0000ff;fill-opacity:0.1;stroke:#0000ff;stroke-opacity:0.1;"/>
    <path clip-path="url(#pccfda52be7)" d="M 250.121739 13.264793 
L 250.121739 152.335207 
L 250.810435 152.08965 
L 251.49913 151.839082 
L 252.187826 151.583502 
L 252.187826 14.016498 
L 252.187826 14.016498 
L 251.49913 13.760918 
L 250.810435 13.51035 
L 250.121739 13.264793 
z
" style="fill:#0000ff;fill-opacity:0.1;stroke:#0000ff;stroke-opacity:0.1;"/>
    <path clip-path="url(#pccfda52be7)" d="M 254.253913 14.277089 
L 254.253913 151.322911 
L 254.942609 151.057309 
L 255.631304 150.786695 
L 256.32 150.51107 
L 257.008696 150.230434 
L 257.697391 149.944786 
L 258.386087 149.654127 
L 259.074783 149.358457 
L 259.763478 149.057775 
L 260.452174 148.752082 
L 260.452174 16.847918 
L 260.452174 16.847918 
L 259.763478 16.542225 
L 259.074783 16.241543 
L 258.386087 15.945873 
L 257.697391 15.655214 
L 257.008696 15.369566 
L 256.32 15.08893 
L 255.631304 14.813305 
L 254.942609 14.542691 
L 254.253913 14.277089 
z
" style="fill:#0000ff;fill-opacity:0.1;stroke:#0000ff;stroke-opacity:0.1;"/>
    <path clip-path="url(#pccfda52be7)" d="M 262.518261 17.158623 
L 262.518261 148.441377 
L 263.206957 148.125661 
L 263.895652 147.804934 
L 264.584348 147.479195 
L 265.273043 147.148445 
L 265.961739 146.812684 
L 266.650435 146.471911 
L 267.33913 146.126127 
L 268.027826 145.775331 
L 268.716522 145.419524 
L 268.716522 20.180476 
L 268.716522 20.180476 
L 268.027826 19.824669 
L 267.33913 19.473873 
L 266.650435 19.128089 
L 265.961739 18.787316 
L 265.273043 18.451555 
L 264.584348 18.120805 
L 263.895652 17.795066 
L 263.206957 17.474339 
L 262.518261 17.158623 
z
" style="fill:#0000ff;fill-opacity:0.1;stroke:#0000ff;stroke-opacity:0.1;"/>
    <path clip-path="url(#pccfda52be7)" d="M 270.782609 20.541294 
L 270.782609 145.058706 
L 271.471304 144.692876 
L 272.16 144.322036 
L 272.848696 143.946183 
L 273.537391 143.56532 
L 274.226087 143.179444 
L 274.914783 142.788558 
L 275.603478 142.39266 
L 276.292174 141.991751 
L 276.98087 141.585831 
L 276.98087 24.014169 
L 276.98087 24.014169 
L 276.292174 23.608249 
L 275.603478 23.20734 
L 274.914783 22.811442 
L 274.226087 22.420556 
L 273.537391 22.03468 
L 272.848696 21.653817 
L 272.16 21.277964 
L 271.471304 20.907124 
L 270.782609 20.541294 
z
" style="fill:#0000ff;fill-opacity:0.1;stroke:#0000ff;stroke-opacity:0.1;"/>
    <path clip-path="url(#pccfda52be7)" d="M 278.358261 24.425101 
L 278.358261 141.174899 
L 279.046957 140.758956 
L 279.735652 140.338001 
L 280.424348 139.912035 
L 281.113043 139.481058 
L 281.801739 139.045069 
L 282.490435 138.604069 
L 283.17913 138.158057 
L 283.867826 137.707035 
L 284.556522 137.251001 
L 285.245217 136.789955 
L 285.245217 28.810045 
L 285.245217 28.810045 
L 284.556522 28.348999 
L 283.867826 27.892965 
L 283.17913 27.441943 
L 282.490435 26.995931 
L 281.801739 26.554931 
L 281.113043 26.118942 
L 280.424348 25.687965 
L 279.735652 25.261999 
L 279.046957 24.841044 
L 278.358261 24.425101 
z
" style="fill:#0000ff;fill-opacity:0.1;stroke:#0000ff;stroke-opacity:0.1;"/>
    <path clip-path="url(#pccfda52be7)" d="M 286.622609 29.276102 
L 286.622609 136.323898 
L 287.311304 135.85283 
L 288 135.37675 
L 288.688696 134.895659 
L 289.377391 134.409557 
L 290.066087 133.918443 
L 290.754783 133.422318 
L 291.443478 132.921182 
L 292.132174 132.415034 
L 292.82087 131.903875 
L 293.509565 131.387704 
L 294.198261 130.866522 
L 294.886957 130.340329 
L 295.575652 129.809125 
L 296.264348 129.272909 
L 296.953043 128.731681 
L 297.641739 128.185443 
L 298.330435 127.634192 
L 299.01913 127.077931 
L 299.707826 126.516658 
L 300.396522 125.950374 
L 301.085217 125.379079 
L 301.773913 124.802772 
L 301.773913 40.797228 
L 301.773913 40.797228 
L 301.085217 40.220921 
L 300.396522 39.649626 
L 299.707826 39.083342 
L 299.01913 38.522069 
L 298.330435 37.965808 
L 297.641739 37.414557 
L 296.953043 36.868319 
L 296.264348 36.327091 
L 295.575652 35.790875 
L 294.886957 35.259671 
L 294.198261 34.733478 
L 293.509565 34.212296 
L 292.82087 33.696125 
L 292.132174 33.184966 
L 291.443478 32.678818 
L 290.754783 32.177682 
L 290.066087 31.681557 
L 289.377391 31.190443 
L 288.688696 30.704341 
L 288 30.22325 
L 287.311304 29.74717 
L 286.622609 29.276102 
z
" style="fill:#0000ff;fill-opacity:0.1;stroke:#0000ff;stroke-opacity:0.1;"/>
    <path clip-path="url(#pccfda52be7)" d="M 304.528696 41.378547 
L 304.528696 124.221453 
L 305.217391 123.635124 
L 305.217391 41.964876 
L 305.217391 41.964876 
L 304.528696 41.378547 
z
" style="fill:#0000ff;fill-opacity:0.1;stroke:#0000ff;stroke-opacity:0.1;"/>
    <path clip-path="url(#pccfda52be7)" d="M 306.594783 42.556217 
L 306.594783 123.043783 
L 307.283478 122.44743 
L 307.972174 121.846067 
L 308.66087 121.239692 
L 309.349565 120.628305 
L 310.038261 120.011907 
L 310.038261 45.588093 
L 310.038261 45.588093 
L 309.349565 44.971695 
L 308.66087 44.360308 
L 307.972174 43.753933 
L 307.283478 43.15257 
L 306.594783 42.556217 
z
" style="fill:#0000ff;fill-opacity:0.1;stroke:#0000ff;stroke-opacity:0.1;"/>
    <path clip-path="url(#pccfda52be7)" d="M 312.104348 46.209502 
L 312.104348 119.390498 
L 312.793043 118.764078 
L 313.481739 118.132646 
L 314.170435 117.496203 
L 314.85913 116.854748 
L 315.547826 116.208282 
L 316.236522 115.556805 
L 316.925217 114.900316 
L 317.613913 114.238816 
L 318.302609 113.572304 
L 318.302609 52.027696 
L 318.302609 52.027696 
L 317.613913 51.361184 
L 316.925217 50.699684 
L 316.236522 50.043195 
L 315.547826 49.391718 
L 314.85913 48.745252 
L 314.170435 48.103797 
L 313.481739 47.467354 
L 312.793043 46.835922 
L 312.104348 46.209502 
z
" style="fill:#0000ff;fill-opacity:0.1;stroke:#0000ff;stroke-opacity:0.1;"/>
    <path clip-path="url(#pccfda52be7)" d="M 320.368696 52.699219 
L 320.368696 112.900781 
L 321.057391 112.224247 
L 321.746087 111.542702 
L 322.434783 110.856145 
L 323.123478 110.164577 
L 323.812174 109.467997 
L 324.50087 108.766406 
L 325.189565 108.059804 
L 325.878261 107.34819 
L 326.566957 106.631565 
L 326.566957 58.968435 
L 326.566957 58.968435 
L 325.878261 58.25181 
L 325.189565 57.540196 
L 324.50087 56.833594 
L 323.812174 56.132003 
L 323.123478 55.435423 
L 322.434783 54.743855 
L 321.746087 54.057298 
L 321.057391 53.375753 
L 320.368696 52.699219 
z
" style="fill:#0000ff;fill-opacity:0.1;stroke:#0000ff;stroke-opacity:0.1;"/>
    <path clip-path="url(#pccfda52be7)" d="M 328.633043 59.690072 
L 328.633043 105.909928 
L 329.321739 105.18328 
L 330.010435 104.451621 
L 330.69913 103.714951 
L 331.387826 102.973269 
L 331.387826 62.626731 
L 331.387826 62.626731 
L 330.69913 61.885049 
L 330.010435 61.148379 
L 329.321739 60.41672 
L 328.633043 59.690072 
z
" style="fill:#0000ff;fill-opacity:0.1;stroke:#0000ff;stroke-opacity:0.1;"/>
    <path clip-path="url(#pccfda52be7)" d="M 332.765217 63.373424 
L 332.765217 102.226576 
L 333.453913 101.474871 
L 334.142609 100.718155 
L 334.831304 99.956428 
L 334.831304 65.643572 
L 334.831304 65.643572 
L 334.142609 64.881845 
L 333.453913 64.125129 
L 332.765217 63.373424 
z
" style="fill:#0000ff;fill-opacity:0.1;stroke:#0000ff;stroke-opacity:0.1;"/>
    <path clip-path="url(#pccfda52be7)" d="M 337.586087 66.410311 
L 337.586087 99.189689 
L 338.274783 98.417939 
L 338.963478 97.641177 
L 339.652174 96.859404 
L 340.34087 96.07262 
L 341.029565 95.280825 
L 341.718261 94.484018 
L 342.406957 93.682199 
L 343.095652 92.87537 
L 343.784348 92.063529 
L 344.473043 91.246676 
L 344.473043 74.353324 
L 344.473043 74.353324 
L 343.784348 73.536471 
L 343.095652 72.72463 
L 342.406957 71.917801 
L 341.718261 71.115982 
L 341.029565 70.319175 
L 340.34087 69.52738 
L 339.652174 68.740596 
L 338.963478 67.958823 
L 338.274783 67.182061 
L 337.586087 66.410311 
z
" style="fill:#0000ff;fill-opacity:0.1;stroke:#0000ff;stroke-opacity:0.1;"/>
    <path clip-path="url(#pccfda52be7)" d="M 347.227826 75.175187 
L 347.227826 90.424813 
L 347.916522 89.597938 
L 348.605217 88.766051 
L 349.293913 87.929153 
L 349.982609 87.087244 
L 350.671304 86.240323 
L 351.36 85.388392 
L 352.048696 84.531448 
L 352.737391 83.669494 
L 352.737391 81.930506 
L 352.737391 81.930506 
L 352.048696 81.068552 
L 351.36 80.211608 
L 350.671304 79.359677 
L 349.982609 78.512756 
L 349.293913 77.670847 
L 348.605217 76.833949 
L 347.916522 76.002062 
L 347.227826 75.175187 
z
" style="fill:#0000ff;fill-opacity:0.1;stroke:#0000ff;stroke-opacity:0.1;"/>
   </g>
   <g id="matplotlib.axis_1">
    <g id="xtick_1">
     <g id="line2d_1">
      <defs>
       <path d="M 0 0 
L 0 3.5 
" id="mff83ffc403" style="stroke:#000000;stroke-width:0.8;"/>
      </defs>
      <g>
       <use style="stroke:#000000;stroke-width:0.8;" x="96.198261" xlink:href="#mff83ffc403" y="162"/>
      </g>
     </g>
     <g id="text_1">
      <!-- 1960 -->
      <g transform="translate(83.473261 176.598438)scale(0.1 -0.1)">
       <defs>
        <path d="M 794 531 
L 1825 531 
L 1825 4091 
L 703 3866 
L 703 4441 
L 1819 4666 
L 2450 4666 
L 2450 531 
L 3481 531 
L 3481 0 
L 794 0 
L 794 531 
z
" id="DejaVuSans-31" transform="scale(0.015625)"/>
        <path d="M 703 97 
L 703 672 
Q 941 559 1184 500 
Q 1428 441 1663 441 
Q 2288 441 2617 861 
Q 2947 1281 2994 2138 
Q 2813 1869 2534 1725 
Q 2256 1581 1919 1581 
Q 1219 1581 811 2004 
Q 403 2428 403 3163 
Q 403 3881 828 4315 
Q 1253 4750 1959 4750 
Q 2769 4750 3195 4129 
Q 3622 3509 3622 2328 
Q 3622 1225 3098 567 
Q 2575 -91 1691 -91 
Q 1453 -91 1209 -44 
Q 966 3 703 97 
z
M 1959 2075 
Q 2384 2075 2632 2365 
Q 2881 2656 2881 3163 
Q 2881 3666 2632 3958 
Q 2384 4250 1959 4250 
Q 1534 4250 1286 3958 
Q 1038 3666 1038 3163 
Q 1038 2656 1286 2365 
Q 1534 2075 1959 2075 
z
" id="DejaVuSans-39" transform="scale(0.015625)"/>
        <path d="M 2113 2584 
Q 1688 2584 1439 2293 
Q 1191 2003 1191 1497 
Q 1191 994 1439 701 
Q 1688 409 2113 409 
Q 2538 409 2786 701 
Q 3034 994 3034 1497 
Q 3034 2003 2786 2293 
Q 2538 2584 2113 2584 
z
M 3366 4563 
L 3366 3988 
Q 3128 4100 2886 4159 
Q 2644 4219 2406 4219 
Q 1781 4219 1451 3797 
Q 1122 3375 1075 2522 
Q 1259 2794 1537 2939 
Q 1816 3084 2150 3084 
Q 2853 3084 3261 2657 
Q 3669 2231 3669 1497 
Q 3669 778 3244 343 
Q 2819 -91 2113 -91 
Q 1303 -91 875 529 
Q 447 1150 447 2328 
Q 447 3434 972 4092 
Q 1497 4750 2381 4750 
Q 2619 4750 2861 4703 
Q 3103 4656 3366 4563 
z
" id="DejaVuSans-36" transform="scale(0.015625)"/>
        <path d="M 2034 4250 
Q 1547 4250 1301 3770 
Q 1056 3291 1056 2328 
Q 1056 1369 1301 889 
Q 1547 409 2034 409 
Q 2525 409 2770 889 
Q 3016 1369 3016 2328 
Q 3016 3291 2770 3770 
Q 2525 4250 2034 4250 
z
M 2034 4750 
Q 2819 4750 3233 4129 
Q 3647 3509 3647 2328 
Q 3647 1150 3233 529 
Q 2819 -91 2034 -91 
Q 1250 -91 836 529 
Q 422 1150 422 2328 
Q 422 3509 836 4129 
Q 1250 4750 2034 4750 
z
" id="DejaVuSans-30" transform="scale(0.015625)"/>
       </defs>
       <use xlink:href="#DejaVuSans-31"/>
       <use x="63.623047" xlink:href="#DejaVuSans-39"/>
       <use x="127.246094" xlink:href="#DejaVuSans-36"/>
       <use x="190.869141" xlink:href="#DejaVuSans-30"/>
      </g>
     </g>
    </g>
    <g id="xtick_2">
     <g id="line2d_2">
      <g>
       <use style="stroke:#000000;stroke-width:0.8;" x="178.841739" xlink:href="#mff83ffc403" y="162"/>
      </g>
     </g>
     <g id="text_2">
      <!-- 1970 -->
      <g transform="translate(166.116739 176.598438)scale(0.1 -0.1)">
       <defs>
        <path d="M 525 4666 
L 3525 4666 
L 3525 4397 
L 1831 0 
L 1172 0 
L 2766 4134 
L 525 4134 
L 525 4666 
z
" id="DejaVuSans-37" transform="scale(0.015625)"/>
       </defs>
       <use xlink:href="#DejaVuSans-31"/>
       <use x="63.623047" xlink:href="#DejaVuSans-39"/>
       <use x="127.246094" xlink:href="#DejaVuSans-37"/>
       <use x="190.869141" xlink:href="#DejaVuSans-30"/>
      </g>
     </g>
    </g>
    <g id="xtick_3">
     <g id="line2d_3">
      <g>
       <use style="stroke:#000000;stroke-width:0.8;" x="261.485217" xlink:href="#mff83ffc403" y="162"/>
      </g>
     </g>
     <g id="text_3">
      <!-- 1980 -->
      <g transform="translate(248.760217 176.598438)scale(0.1 -0.1)">
       <defs>
        <path d="M 2034 2216 
Q 1584 2216 1326 1975 
Q 1069 1734 1069 1313 
Q 1069 891 1326 650 
Q 1584 409 2034 409 
Q 2484 409 2743 651 
Q 3003 894 3003 1313 
Q 3003 1734 2745 1975 
Q 2488 2216 2034 2216 
z
M 1403 2484 
Q 997 2584 770 2862 
Q 544 3141 544 3541 
Q 544 4100 942 4425 
Q 1341 4750 2034 4750 
Q 2731 4750 3128 4425 
Q 3525 4100 3525 3541 
Q 3525 3141 3298 2862 
Q 3072 2584 2669 2484 
Q 3125 2378 3379 2068 
Q 3634 1759 3634 1313 
Q 3634 634 3220 271 
Q 2806 -91 2034 -91 
Q 1263 -91 848 271 
Q 434 634 434 1313 
Q 434 1759 690 2068 
Q 947 2378 1403 2484 
z
M 1172 3481 
Q 1172 3119 1398 2916 
Q 1625 2713 2034 2713 
Q 2441 2713 2670 2916 
Q 2900 3119 2900 3481 
Q 2900 3844 2670 4047 
Q 2441 4250 2034 4250 
Q 1625 4250 1398 4047 
Q 1172 3844 1172 3481 
z
" id="DejaVuSans-38" transform="scale(0.015625)"/>
       </defs>
       <use xlink:href="#DejaVuSans-31"/>
       <use x="63.623047" xlink:href="#DejaVuSans-39"/>
       <use x="127.246094" xlink:href="#DejaVuSans-38"/>
       <use x="190.869141" xlink:href="#DejaVuSans-30"/>
      </g>
     </g>
    </g>
    <g id="xtick_4">
     <g id="line2d_4">
      <g>
       <use style="stroke:#000000;stroke-width:0.8;" x="344.128696" xlink:href="#mff83ffc403" y="162"/>
      </g>
     </g>
     <g id="text_4">
      <!-- 1990 -->
      <g transform="translate(331.403696 176.598438)scale(0.1 -0.1)">
       <use xlink:href="#DejaVuSans-31"/>
       <use x="63.623047" xlink:href="#DejaVuSans-39"/>
       <use x="127.246094" xlink:href="#DejaVuSans-39"/>
       <use x="190.869141" xlink:href="#DejaVuSans-30"/>
      </g>
     </g>
    </g>
   </g>
   <g id="matplotlib.axis_2">
    <g id="ytick_1">
     <g id="line2d_5">
      <defs>
       <path d="M 0 0 
L -3.5 0 
" id="m47cea0fc23" style="stroke:#000000;stroke-width:0.8;"/>
      </defs>
      <g>
       <use style="stroke:#000000;stroke-width:0.8;" x="34.56" xlink:href="#m47cea0fc23" y="142.203911"/>
      </g>
     </g>
     <g id="text_5">
      <!-- −40 -->
      <g transform="translate(6.455313 146.00313)scale(0.1 -0.1)">
       <defs>
        <path d="M 678 2272 
L 4684 2272 
L 4684 1741 
L 678 1741 
L 678 2272 
z
" id="DejaVuSans-2212" transform="scale(0.015625)"/>
        <path d="M 2419 4116 
L 825 1625 
L 2419 1625 
L 2419 4116 
z
M 2253 4666 
L 3047 4666 
L 3047 1625 
L 3713 1625 
L 3713 1100 
L 3047 1100 
L 3047 0 
L 2419 0 
L 2419 1100 
L 313 1100 
L 313 1709 
L 2253 4666 
z
" id="DejaVuSans-34" transform="scale(0.015625)"/>
       </defs>
       <use xlink:href="#DejaVuSans-2212"/>
       <use x="83.789062" xlink:href="#DejaVuSans-34"/>
       <use x="147.412109" xlink:href="#DejaVuSans-30"/>
      </g>
     </g>
    </g>
    <g id="ytick_2">
     <g id="line2d_6">
      <g>
       <use style="stroke:#000000;stroke-width:0.8;" x="34.56" xlink:href="#m47cea0fc23" y="112.501956"/>
      </g>
     </g>
     <g id="text_6">
      <!-- −20 -->
      <g transform="translate(6.455313 116.301174)scale(0.1 -0.1)">
       <defs>
        <path d="M 1228 531 
L 3431 531 
L 3431 0 
L 469 0 
L 469 531 
Q 828 903 1448 1529 
Q 2069 2156 2228 2338 
Q 2531 2678 2651 2914 
Q 2772 3150 2772 3378 
Q 2772 3750 2511 3984 
Q 2250 4219 1831 4219 
Q 1534 4219 1204 4116 
Q 875 4013 500 3803 
L 500 4441 
Q 881 4594 1212 4672 
Q 1544 4750 1819 4750 
Q 2544 4750 2975 4387 
Q 3406 4025 3406 3419 
Q 3406 3131 3298 2873 
Q 3191 2616 2906 2266 
Q 2828 2175 2409 1742 
Q 1991 1309 1228 531 
z
" id="DejaVuSans-32" transform="scale(0.015625)"/>
       </defs>
       <use xlink:href="#DejaVuSans-2212"/>
       <use x="83.789062" xlink:href="#DejaVuSans-32"/>
       <use x="147.412109" xlink:href="#DejaVuSans-30"/>
      </g>
     </g>
    </g>
    <g id="ytick_3">
     <g id="line2d_7">
      <g>
       <use style="stroke:#000000;stroke-width:0.8;" x="34.56" xlink:href="#m47cea0fc23" y="82.8"/>
      </g>
     </g>
     <g id="text_7">
      <!-- 0 -->
      <g transform="translate(21.1975 86.599219)scale(0.1 -0.1)">
       <use xlink:href="#DejaVuSans-30"/>
      </g>
     </g>
    </g>
    <g id="ytick_4">
     <g id="line2d_8">
      <g>
       <use style="stroke:#000000;stroke-width:0.8;" x="34.56" xlink:href="#m47cea0fc23" y="53.098044"/>
      </g>
     </g>
     <g id="text_8">
      <!-- 20 -->
      <g transform="translate(14.835 56.897263)scale(0.1 -0.1)">
       <use xlink:href="#DejaVuSans-32"/>
       <use x="63.623047" xlink:href="#DejaVuSans-30"/>
      </g>
     </g>
    </g>
    <g id="ytick_5">
     <g id="line2d_9">
      <g>
       <use style="stroke:#000000;stroke-width:0.8;" x="34.56" xlink:href="#m47cea0fc23" y="23.396089"/>
      </g>
     </g>
     <g id="text_9">
      <!-- 40 -->
      <g transform="translate(14.835 27.195308)scale(0.1 -0.1)">
       <use xlink:href="#DejaVuSans-34"/>
       <use x="63.623047" xlink:href="#DejaVuSans-30"/>
      </g>
     </g>
    </g>
   </g>
   <g id="line2d_10">
    <path clip-path="url(#pccfda52be7)" d="M 96.542609 82.939744 
L 97.231304 82.961217 
L 97.92 82.725537 
L 98.608696 82.776609 
L 99.297391 82.477125 
L 100.674783 82.767995 
L 101.363478 82.700146 
L 102.052174 83.038648 
L 102.74087 83.057481 
L 103.429565 84.02913 
L 104.118261 84.356258 
L 104.806957 84.272098 
L 105.495652 83.441981 
L 106.184348 83.211083 
L 106.873043 83.182698 
L 107.561739 83.319602 
L 108.250435 83.028609 
L 109.627826 82.063432 
L 110.316522 81.905974 
L 111.005217 81.564377 
L 111.693913 81.685185 
L 112.382609 81.566714 
L 113.071304 82.061653 
L 113.76 82.949493 
L 114.448696 83.571274 
L 115.137391 83.259884 
L 115.826087 83.423008 
L 117.203478 84.524534 
L 117.892174 85.164702 
L 119.269565 85.656197 
L 119.958261 85.360981 
L 120.646957 86.202392 
L 121.335652 85.974803 
L 122.713043 86.78685 
L 123.401739 86.899392 
L 124.77913 86.296626 
L 125.467826 85.988108 
L 127.533913 86.731885 
L 128.222609 86.786348 
L 128.911304 86.100649 
L 129.6 85.777716 
L 130.977391 84.73127 
L 131.666087 84.907431 
L 132.354783 85.253155 
L 133.043478 85.124117 
L 133.732174 85.157608 
L 134.42087 84.850507 
L 135.109565 84.297026 
L 135.798261 84.016074 
L 136.486957 83.164369 
L 137.175652 82.8 
L 137.864348 82.885256 
L 138.553043 82.056187 
L 139.241739 82.159957 
L 140.61913 84.086706 
L 141.307826 85.307175 
L 142.685217 88.752638 
L 143.373913 90.191681 
L 144.751304 90.493623 
L 145.44 89.505012 
L 146.128696 88.930593 
L 146.817391 90.065035 
L 147.506087 90.448576 
L 148.883478 91.713556 
L 149.572174 92.988485 
L 150.26087 94.696916 
L 150.949565 95.947744 
L 151.638261 96.896144 
L 152.326957 96.870679 
L 153.015652 96.162298 
L 153.704348 96.309055 
L 154.393043 95.959302 
L 155.081739 96.113359 
L 155.770435 96.435298 
L 156.45913 97.528032 
L 159.902609 103.991364 
L 160.591304 104.671333 
L 161.28 105.643787 
L 161.968696 106.053887 
L 163.346087 105.50406 
L 165.412174 107.381468 
L 166.10087 108.466317 
L 166.789565 110.148586 
L 167.478261 110.318931 
L 169.544348 111.658082 
L 170.233043 111.651496 
L 170.921739 111.145213 
L 171.610435 111.191426 
L 172.987826 111.66815 
L 173.676522 112.613663 
L 174.365217 114.357489 
L 176.431304 114.90739 
L 177.12 115.8341 
L 177.808696 116.168765 
L 178.497391 116.883856 
L 179.186087 116.8844 
L 180.563478 116.199246 
L 181.252174 115.484171 
L 182.629565 115.819214 
L 183.318261 115.872848 
L 184.006957 115.735481 
L 184.695652 115.83855 
L 185.384348 115.558923 
L 186.073043 114.197828 
L 186.761739 114.255644 
L 188.13913 116.747311 
L 189.516522 117.651434 
L 190.205217 117.86785 
L 190.893913 118.996342 
L 191.582609 118.323048 
L 192.271304 118.18955 
L 192.96 117.885077 
L 193.648696 118.062598 
L 194.337391 117.761475 
L 195.026087 117.086141 
L 195.714783 117.564475 
L 196.403478 117.54105 
L 197.092174 118.584371 
L 197.78087 118.618891 
L 198.469565 118.772498 
L 199.158261 118.250514 
L 199.846957 118.350606 
L 200.535652 117.749549 
L 202.601739 117.860503 
L 203.290435 116.89197 
L 203.97913 116.121862 
L 204.667826 116.242353 
L 205.356522 115.190504 
L 206.045217 114.718891 
L 206.733913 113.649888 
L 207.422609 111.889857 
L 208.111304 110.758724 
L 208.8 110.280947 
L 209.488696 108.936997 
L 210.177391 107.315391 
L 210.866087 107.020281 
L 211.554783 107.524283 
L 212.243478 109.029458 
L 213.62087 110.951231 
L 214.309565 110.991852 
L 215.686957 109.661477 
L 216.375652 108.968392 
L 217.064348 109.752625 
L 217.753043 109.11733 
L 218.441739 109.443942 
L 219.130435 110.013545 
L 219.81913 110.944947 
L 221.196522 109.810412 
L 221.885217 109.779025 
L 222.573913 109.329608 
L 223.262609 109.25992 
L 223.951304 108.60993 
L 224.64 108.576893 
L 225.328696 108.763332 
L 226.017391 108.783559 
L 226.706087 108.235134 
L 227.394783 108.588922 
L 228.083478 109.404598 
L 228.772174 111.273688 
L 229.46087 111.471516 
L 230.149565 112.347821 
L 230.838261 112.076457 
L 231.526957 111.972113 
L 232.904348 112.469629 
L 233.593043 112.342137 
L 234.281739 112.768005 
L 234.970435 112.855981 
L 235.65913 112.147671 
L 236.347826 112.230173 
L 237.036522 111.118829 
L 237.725217 111.341487 
L 238.413913 111.325062 
L 239.791304 111.617585 
L 241.168696 112.093543 
L 241.857391 112.026778 
L 242.546087 112.239179 
L 243.234783 113.424649 
L 243.923478 114.367009 
M 245.30087 113.827669 
L 245.989565 113.737412 
L 246.678261 113.347259 
L 247.366957 114.067769 
L 248.055652 114.269151 
L 248.744348 113.722462 
M 250.121739 113.592817 
L 250.810435 113.499216 
L 251.49913 113.579987 
L 252.187826 113.295514 
M 254.253913 114.117079 
L 256.32 115.689976 
L 257.008696 115.091394 
L 257.697391 115.572868 
L 258.386087 115.905667 
L 259.074783 115.778048 
L 259.763478 116.271158 
L 260.452174 116.31247 
M 262.518261 116.497332 
L 263.206957 115.873051 
L 263.895652 116.256929 
L 264.584348 115.487139 
L 265.273043 115.243269 
L 265.961739 114.127682 
L 266.650435 114.559218 
L 267.33913 114.72855 
L 268.027826 113.127859 
L 268.716522 113.53002 
M 270.782609 114.184298 
L 271.471304 114.837768 
L 272.16 116.399816 
L 272.848696 115.853883 
L 273.537391 116.283984 
L 274.226087 115.921765 
L 274.914783 116.147563 
L 275.603478 116.715136 
L 276.292174 116.992383 
L 276.98087 117.942871 
M 278.358261 118.196657 
L 279.046957 116.972388 
L 279.735652 116.853964 
L 280.424348 116.932348 
L 281.113043 116.331139 
L 281.801739 116.490377 
L 282.490435 116.853357 
L 283.17913 116.159519 
L 283.867826 115.948008 
L 285.245217 117.295024 
M 286.622609 116.77386 
L 288 116.725664 
L 288.688696 115.681909 
L 289.377391 115.411399 
L 290.066087 115.307164 
L 290.754783 115.062333 
L 291.443478 113.642676 
L 292.82087 113.476713 
L 293.509565 113.101609 
L 294.198261 113.381919 
L 295.575652 111.447294 
L 296.264348 110.872894 
L 296.953043 110.612984 
L 297.641739 111.008806 
L 298.330435 110.428373 
L 299.707826 108.699163 
L 300.396522 108.671516 
L 301.085217 109.204082 
L 301.773913 108.829675 
M 304.528696 108.152196 
L 305.217391 107.862066 
M 306.594783 106.55374 
L 307.283478 105.60602 
L 307.972174 105.253154 
L 308.66087 105.15442 
L 309.349565 104.760455 
L 310.038261 104.177634 
M 312.104348 102.982402 
L 312.793043 101.543474 
L 313.481739 100.555529 
L 314.170435 99.791255 
L 314.85913 100.622066 
L 316.236522 99.389808 
L 316.925217 99.117597 
L 317.613913 98.64708 
L 318.302609 98.508541 
M 320.368696 98.010799 
L 321.057391 97.811021 
L 323.812174 93.448087 
L 324.50087 92.353234 
L 325.189565 92.527585 
L 325.878261 92.04511 
L 326.566957 92.244949 
M 328.633043 92.464757 
L 329.321739 92.501527 
L 330.010435 91.270961 
L 331.387826 90.45559 
M 332.765217 89.546219 
L 333.453913 87.955927 
L 334.142609 88.078123 
L 334.831304 87.786243 
M 337.586087 87.145306 
L 338.274783 86.315494 
L 338.963478 86.414617 
L 339.652174 84.775051 
L 340.34087 84.460612 
L 341.029565 84.626198 
L 341.718261 84.375507 
L 344.473043 82.21141 
M 347.227826 82.16014 
L 347.916522 82.295407 
L 348.605217 82.093505 
L 349.293913 83.077259 
L 349.982609 82.564851 
L 350.671304 82.374975 
L 351.36 82.355712 
L 352.048696 81.67905 
L 352.737391 82.8 
L 352.737391 82.8 
" style="fill:none;stroke:#1f77b4;stroke-linecap:square;stroke-width:1.5;"/>
   </g>
   <g id="line2d_11">
    <path clip-path="url(#pccfda52be7)" d="M 34.56 82.8 
L 414.72 82.8 
" style="fill:none;stroke:#000000;stroke-dasharray:1.5,2.475;stroke-dashoffset:0;stroke-width:1.5;"/>
   </g>
   <g id="patch_3">
    <path d="M 34.56 162 
L 34.56 3.6 
" style="fill:none;stroke:#000000;stroke-linecap:square;stroke-linejoin:miter;stroke-width:0.8;"/>
   </g>
   <g id="patch_4">
    <path d="M 414.72 162 
L 414.72 3.6 
" style="fill:none;stroke:#000000;stroke-linecap:square;stroke-linejoin:miter;stroke-width:0.8;"/>
   </g>
   <g id="patch_5">
    <path d="M 34.56 162 
L 414.72 162 
" style="fill:none;stroke:#000000;stroke-linecap:square;stroke-linejoin:miter;stroke-width:0.8;"/>
   </g>
   <g id="patch_6">
    <path d="M 34.56 3.6 
L 414.72 3.6 
" style="fill:none;stroke:#000000;stroke-linecap:square;stroke-linejoin:miter;stroke-width:0.8;"/>
   </g>
  </g>
 </g>
 <defs>
  <clipPath id="pccfda52be7">
   <rect height="158.4" width="380.16" x="34.56" y="3.6"/>
  </clipPath>
 </defs>
</svg>
