<?xml version="1.0" encoding="utf-8" standalone="no"?>
<!DOCTYPE svg PUBLIC "-//W3C//DTD SVG 1.1//EN"
  "http://www.w3.org/Graphics/SVG/1.1/DTD/svg11.dtd">
<svg height="180pt" version="1.1" viewBox="0 0 432 180" width="432pt" xmlns="http://www.w3.org/2000/svg" xmlns:xlink="http://www.w3.org/1999/xlink">
 <metadata>
  <rdf:RDF xmlns:cc="http://creativecommons.org/ns#" xmlns:dc="http://purl.org/dc/elements/1.1/" xmlns:rdf="http://www.w3.org/1999/02/22-rdf-syntax-ns#">
   <cc:Work>
    <dc:type rdf:resource="http://purl.org/dc/dcmitype/StillImage"/>
    <dc:date>2021-08-12T10:41:47.941923</dc:date>
    <dc:format>image/svg+xml</dc:format>
    <dc:creator>
     <cc:Agent>
      <dc:title>Matplotlib v3.4.2, https://matplotlib.org/</dc:title>
     </cc:Agent>
    </dc:creator>
   </cc:Work>
  </rdf:RDF>
 </metadata>
 <defs>
  <style type="text/css">*{stroke-linecap:butt;stroke-linejoin:round;}</style>
 </defs>
 <g id="figure_1">
  <g id="patch_1">
   <path d="M 0 180 
L 432 180 
L 432 0 
L 0 0 
z
" style="fill:#ffffff;"/>
  </g>
  <g id="axes_1">
   <g id="patch_2">
    <path d="M 34.56 162 
L 414.72 162 
L 414.72 3.6 
L 34.56 3.6 
z
" style="fill:#ffffff;"/>
   </g>
   <g id="PolyCollection_1">
    <defs>
     <path d="M 115.636777 -98.436513 
L 115.636777 -95.963487 
L 116.53763 -94.742239 
L 117.438483 -93.531127 
L 118.339336 -92.330149 
L 119.24019 -91.139306 
L 120.141043 -89.958597 
L 121.041896 -88.788024 
L 121.942749 -87.627585 
L 122.843602 -86.477282 
L 123.744455 -85.337113 
L 124.645308 -84.207079 
L 125.546161 -83.087179 
L 126.447014 -81.977415 
L 127.347867 -80.877785 
L 128.24872 -79.788291 
L 129.149573 -78.708931 
L 130.050427 -77.639706 
L 130.95128 -76.580615 
L 131.852133 -75.53166 
L 132.752986 -74.492839 
L 133.653839 -73.464154 
L 134.554692 -72.445603 
L 135.455545 -71.437187 
L 136.356398 -70.438905 
L 137.257251 -69.450759 
L 138.158104 -68.472747 
L 139.058957 -67.504871 
L 139.95981 -66.547129 
L 140.860664 -65.599522 
L 141.761517 -64.66205 
L 142.66237 -63.734712 
L 143.563223 -62.81751 
L 144.464076 -61.910442 
L 145.364929 -61.013509 
L 146.265782 -60.126711 
L 147.166635 -59.250048 
L 148.067488 -58.383519 
L 148.968341 -57.527126 
L 149.869194 -56.680867 
L 150.770047 -55.844743 
L 151.6709 -55.018754 
L 152.571754 -54.2029 
L 153.472607 -53.397181 
L 154.37346 -52.601596 
L 155.274313 -51.816146 
L 156.175166 -51.040832 
L 157.076019 -50.275652 
L 157.976872 -49.520606 
L 158.877725 -48.775696 
L 159.778578 -48.04092 
L 160.679431 -47.31628 
L 161.580284 -46.601774 
L 162.481137 -45.897403 
L 163.381991 -45.203167 
L 164.282844 -44.519065 
L 165.183697 -43.845099 
L 166.08455 -43.181267 
L 166.985403 -42.52757 
L 167.886256 -41.884008 
L 168.787109 -41.250581 
L 169.687962 -40.627289 
L 170.588815 -40.014131 
L 171.489668 -39.411109 
L 172.390521 -38.818221 
L 173.291374 -38.235468 
L 174.192227 -37.66285 
L 175.093081 -37.100366 
L 175.993934 -36.548018 
L 176.894787 -36.005804 
L 177.79564 -35.473725 
L 178.696493 -34.951781 
L 179.597346 -34.439972 
L 180.498199 -33.938298 
L 181.399052 -33.446758 
L 182.299905 -32.965354 
L 183.200758 -32.494084 
L 184.101611 -32.032949 
L 185.002464 -31.581949 
L 185.903318 -31.141083 
L 186.804171 -30.710353 
L 187.705024 -30.289757 
L 188.605877 -29.879296 
L 189.50673 -29.47897 
L 190.407583 -29.088779 
L 191.308436 -28.708723 
L 192.209289 -28.338802 
L 193.110142 -27.979015 
L 194.010995 -27.629363 
L 194.911848 -27.289846 
L 195.812701 -26.960464 
L 196.713555 -26.641217 
L 197.614408 -26.332104 
L 198.515261 -26.033127 
L 199.416114 -25.744284 
L 200.316967 -25.465576 
L 201.21782 -25.197003 
L 202.118673 -24.938564 
L 203.019526 -24.690261 
L 203.920379 -24.452092 
L 204.821232 -24.224059 
L 205.722085 -24.00616 
L 206.622938 -23.798396 
L 207.523791 -23.600766 
L 208.424645 -23.413272 
L 209.325498 -23.235912 
L 210.226351 -23.068687 
L 211.127204 -22.911597 
L 212.028057 -22.764642 
L 212.92891 -22.627822 
L 213.829763 -22.501137 
L 214.730616 -22.384586 
L 215.631469 -22.27817 
L 216.532322 -22.181889 
L 217.433175 -22.095743 
L 218.334028 -22.019732 
L 219.234882 -21.953856 
L 220.135735 -21.898114 
L 221.036588 -21.852507 
L 221.937441 -21.817035 
L 222.838294 -21.791698 
L 223.739147 -21.776496 
L 224.64 -21.771429 
L 225.540853 -21.776496 
L 226.441706 -21.791698 
L 227.342559 -21.817035 
L 228.243412 -21.852507 
L 229.144265 -21.898114 
L 230.045118 -21.953856 
L 230.945972 -22.019732 
L 231.846825 -22.095743 
L 232.747678 -22.181889 
L 233.648531 -22.27817 
L 234.549384 -22.384586 
L 235.450237 -22.501137 
L 236.35109 -22.627822 
L 237.251943 -22.764642 
L 238.152796 -22.911597 
L 239.053649 -23.068687 
L 239.954502 -23.235912 
L 240.855355 -23.413272 
L 241.756209 -23.600766 
L 242.657062 -23.798396 
L 243.557915 -24.00616 
L 244.458768 -24.224059 
L 245.359621 -24.452092 
L 246.260474 -24.690261 
L 247.161327 -24.938564 
L 248.06218 -25.197003 
L 248.963033 -25.465576 
L 249.863886 -25.744284 
L 250.764739 -26.033127 
L 251.665592 -26.332104 
L 252.566445 -26.641217 
L 253.467299 -26.960464 
L 254.368152 -27.289846 
L 255.269005 -27.629363 
L 256.169858 -27.979015 
L 257.070711 -28.338802 
L 257.971564 -28.708723 
L 258.872417 -29.088779 
L 259.77327 -29.47897 
L 260.674123 -29.879296 
L 261.574976 -30.289757 
L 262.475829 -30.710353 
L 263.376682 -31.141083 
L 264.277536 -31.581949 
L 265.178389 -32.032949 
L 266.079242 -32.494084 
L 266.980095 -32.965354 
L 267.880948 -33.446758 
L 268.781801 -33.938298 
L 269.682654 -34.439972 
L 270.583507 -34.951781 
L 271.48436 -35.473725 
L 272.385213 -36.005804 
L 273.286066 -36.548018 
L 274.186919 -37.100366 
L 275.087773 -37.66285 
L 275.988626 -38.235468 
L 276.889479 -38.818221 
L 277.790332 -39.411109 
L 278.691185 -40.014131 
L 279.592038 -40.627289 
L 280.492891 -41.250581 
L 281.393744 -41.884008 
L 282.294597 -42.52757 
L 283.19545 -43.181267 
L 284.096303 -43.845099 
L 284.997156 -44.519065 
L 285.898009 -45.203167 
L 286.798863 -45.897403 
L 287.699716 -46.601774 
L 288.600569 -47.31628 
L 289.501422 -48.04092 
L 290.402275 -48.775696 
L 291.303128 -49.520606 
L 292.203981 -50.275652 
L 293.104834 -51.040832 
L 294.005687 -51.816146 
L 294.90654 -52.601596 
L 295.807393 -53.397181 
L 296.708246 -54.2029 
L 297.6091 -55.018754 
L 298.509953 -55.844743 
L 299.410806 -56.680867 
L 300.311659 -57.527126 
L 301.212512 -58.383519 
L 302.113365 -59.250048 
L 303.014218 -60.126711 
L 303.915071 -61.013509 
L 304.815924 -61.910442 
L 305.716777 -62.81751 
L 306.61763 -63.734712 
L 307.518483 -64.66205 
L 308.419336 -65.599522 
L 309.32019 -66.547129 
L 310.221043 -67.504871 
L 311.121896 -68.472747 
L 312.022749 -69.450759 
L 312.923602 -70.438905 
L 313.824455 -71.437187 
L 314.725308 -72.445603 
L 315.626161 -73.464154 
L 316.527014 -74.492839 
L 317.427867 -75.53166 
L 318.32872 -76.580615 
L 319.229573 -77.639706 
L 320.130427 -78.708931 
L 321.03128 -79.788291 
L 321.932133 -80.877785 
L 322.832986 -81.977415 
L 323.733839 -83.087179 
L 324.634692 -84.207079 
L 325.535545 -85.337113 
L 326.436398 -86.477282 
L 327.337251 -87.627585 
L 328.238104 -88.788024 
L 329.138957 -89.958597 
L 330.03981 -91.139306 
L 330.940664 -92.330149 
L 331.841517 -93.531127 
L 332.74237 -94.742239 
L 333.643223 -95.963487 
L 333.643223 -98.436513 
L 333.643223 -98.436513 
L 332.74237 -99.657761 
L 331.841517 -100.868873 
L 330.940664 -102.069851 
L 330.03981 -103.260694 
L 329.138957 -104.441403 
L 328.238104 -105.611976 
L 327.337251 -106.772415 
L 326.436398 -107.922718 
L 325.535545 -109.062887 
L 324.634692 -110.192921 
L 323.733839 -111.312821 
L 322.832986 -112.422585 
L 321.932133 -113.522215 
L 321.03128 -114.611709 
L 320.130427 -115.691069 
L 319.229573 -116.760294 
L 318.32872 -117.819385 
L 317.427867 -118.86834 
L 316.527014 -119.907161 
L 315.626161 -120.935846 
L 314.725308 -121.954397 
L 313.824455 -122.962813 
L 312.923602 -123.961095 
L 312.022749 -124.949241 
L 311.121896 -125.927253 
L 310.221043 -126.895129 
L 309.32019 -127.852871 
L 308.419336 -128.800478 
L 307.518483 -129.73795 
L 306.61763 -130.665288 
L 305.716777 -131.58249 
L 304.815924 -132.489558 
L 303.915071 -133.386491 
L 303.014218 -134.273289 
L 302.113365 -135.149952 
L 301.212512 -136.016481 
L 300.311659 -136.872874 
L 299.410806 -137.719133 
L 298.509953 -138.555257 
L 297.6091 -139.381246 
L 296.708246 -140.1971 
L 295.807393 -141.002819 
L 294.90654 -141.798404 
L 294.005687 -142.583854 
L 293.104834 -143.359168 
L 292.203981 -144.124348 
L 291.303128 -144.879394 
L 290.402275 -145.624304 
L 289.501422 -146.35908 
L 288.600569 -147.08372 
L 287.699716 -147.798226 
L 286.798863 -148.502597 
L 285.898009 -149.196833 
L 284.997156 -149.880935 
L 284.096303 -150.554901 
L 283.19545 -151.218733 
L 282.294597 -151.87243 
L 281.393744 -152.515992 
L 280.492891 -153.149419 
L 279.592038 -153.772711 
L 278.691185 -154.385869 
L 277.790332 -154.988891 
L 276.889479 -155.581779 
L 275.988626 -156.164532 
L 275.087773 -156.73715 
L 274.186919 -157.299634 
L 273.286066 -157.851982 
L 272.385213 -158.394196 
L 271.48436 -158.926275 
L 270.583507 -159.448219 
L 269.682654 -159.960028 
L 268.781801 -160.461702 
L 267.880948 -160.953242 
L 266.980095 -161.434646 
L 266.079242 -161.905916 
L 265.178389 -162.367051 
L 264.277536 -162.818051 
L 263.376682 -163.258917 
L 262.475829 -163.689647 
L 261.574976 -164.110243 
L 260.674123 -164.520704 
L 259.77327 -164.92103 
L 258.872417 -165.311221 
L 257.971564 -165.691277 
L 257.070711 -166.061198 
L 256.169858 -166.420985 
L 255.269005 -166.770637 
L 254.368152 -167.110154 
L 253.467299 -167.439536 
L 252.566445 -167.758783 
L 251.665592 -168.067896 
L 250.764739 -168.366873 
L 249.863886 -168.655716 
L 248.963033 -168.934424 
L 248.06218 -169.202997 
L 247.161327 -169.461436 
L 246.260474 -169.709739 
L 245.359621 -169.947908 
L 244.458768 -170.175941 
L 243.557915 -170.39384 
L 242.657062 -170.601604 
L 241.756209 -170.799234 
L 240.855355 -170.986728 
L 239.954502 -171.164088 
L 239.053649 -171.331313 
L 238.152796 -171.488403 
L 237.251943 -171.635358 
L 236.35109 -171.772178 
L 235.450237 -171.898863 
L 234.549384 -172.015414 
L 233.648531 -172.12183 
L 232.747678 -172.218111 
L 231.846825 -172.304257 
L 230.945972 -172.380268 
L 230.045118 -172.446144 
L 229.144265 -172.501886 
L 228.243412 -172.547493 
L 227.342559 -172.582965 
L 226.441706 -172.608302 
L 225.540853 -172.623504 
L 224.64 -172.628571 
L 223.739147 -172.623504 
L 222.838294 -172.608302 
L 221.937441 -172.582965 
L 221.036588 -172.547493 
L 220.135735 -172.501886 
L 219.234882 -172.446144 
L 218.334028 -172.380268 
L 217.433175 -172.304257 
L 216.532322 -172.218111 
L 215.631469 -172.12183 
L 214.730616 -172.015414 
L 213.829763 -171.898863 
L 212.92891 -171.772178 
L 212.028057 -171.635358 
L 211.127204 -171.488403 
L 210.226351 -171.331313 
L 209.325498 -171.164088 
L 208.424645 -170.986728 
L 207.523791 -170.799234 
L 206.622938 -170.601604 
L 205.722085 -170.39384 
L 204.821232 -170.175941 
L 203.920379 -169.947908 
L 203.019526 -169.709739 
L 202.118673 -169.461436 
L 201.21782 -169.202997 
L 200.316967 -168.934424 
L 199.416114 -168.655716 
L 198.515261 -168.366873 
L 197.614408 -168.067896 
L 196.713555 -167.758783 
L 195.812701 -167.439536 
L 194.911848 -167.110154 
L 194.010995 -166.770637 
L 193.110142 -166.420985 
L 192.209289 -166.061198 
L 191.308436 -165.691277 
L 190.407583 -165.311221 
L 189.50673 -164.92103 
L 188.605877 -164.520704 
L 187.705024 -164.110243 
L 186.804171 -163.689647 
L 185.903318 -163.258917 
L 185.002464 -162.818051 
L 184.101611 -162.367051 
L 183.200758 -161.905916 
L 182.299905 -161.434646 
L 181.399052 -160.953242 
L 180.498199 -160.461702 
L 179.597346 -159.960028 
L 178.696493 -159.448219 
L 177.79564 -158.926275 
L 176.894787 -158.394196 
L 175.993934 -157.851982 
L 175.093081 -157.299634 
L 174.192227 -156.73715 
L 173.291374 -156.164532 
L 172.390521 -155.581779 
L 171.489668 -154.988891 
L 170.588815 -154.385869 
L 169.687962 -153.772711 
L 168.787109 -153.149419 
L 167.886256 -152.515992 
L 166.985403 -151.87243 
L 166.08455 -151.218733 
L 165.183697 -150.554901 
L 164.282844 -149.880935 
L 163.381991 -149.196833 
L 162.481137 -148.502597 
L 161.580284 -147.798226 
L 160.679431 -147.08372 
L 159.778578 -146.35908 
L 158.877725 -145.624304 
L 157.976872 -144.879394 
L 157.076019 -144.124348 
L 156.175166 -143.359168 
L 155.274313 -142.583854 
L 154.37346 -141.798404 
L 153.472607 -141.002819 
L 152.571754 -140.1971 
L 151.6709 -139.381246 
L 150.770047 -138.555257 
L 149.869194 -137.719133 
L 148.968341 -136.872874 
L 148.067488 -136.016481 
L 147.166635 -135.149952 
L 146.265782 -134.273289 
L 145.364929 -133.386491 
L 144.464076 -132.489558 
L 143.563223 -131.58249 
L 142.66237 -130.665288 
L 141.761517 -129.73795 
L 140.860664 -128.800478 
L 139.95981 -127.852871 
L 139.058957 -126.895129 
L 138.158104 -125.927253 
L 137.257251 -124.949241 
L 136.356398 -123.961095 
L 135.455545 -122.962813 
L 134.554692 -121.954397 
L 133.653839 -120.935846 
L 132.752986 -119.907161 
L 131.852133 -118.86834 
L 130.95128 -117.819385 
L 130.050427 -116.760294 
L 129.149573 -115.691069 
L 128.24872 -114.611709 
L 127.347867 -113.522215 
L 126.447014 -112.422585 
L 125.546161 -111.312821 
L 124.645308 -110.192921 
L 123.744455 -109.062887 
L 122.843602 -107.922718 
L 121.942749 -106.772415 
L 121.041896 -105.611976 
L 120.141043 -104.441403 
L 119.24019 -103.260694 
L 118.339336 -102.069851 
L 117.438483 -100.868873 
L 116.53763 -99.657761 
L 115.636777 -98.436513 
z
" id="m8b68bff80f" style="stroke:#0000ff;stroke-opacity:0.1;"/>
    </defs>
    <g clip-path="url(#pd6ee6faeb8)">
     <use style="fill:#0000ff;fill-opacity:0.1;stroke:#0000ff;stroke-opacity:0.1;" x="0" xlink:href="#m8b68bff80f" y="180"/>
    </g>
   </g>
   <g id="matplotlib.axis_1">
    <g id="xtick_1">
     <g id="line2d_1">
      <defs>
       <path d="M 0 0 
L 0 3.5 
" id="m74cddcc22d" style="stroke:#000000;stroke-width:0.8;"/>
      </defs>
      <g>
       <use style="stroke:#000000;stroke-width:0.8;" x="50.324929" xlink:href="#m74cddcc22d" y="162"/>
      </g>
     </g>
     <g id="text_1">
      <!-- 1955 -->
      <g transform="translate(37.599929 176.598438)scale(0.1 -0.1)">
       <defs>
        <path d="M 794 531 
L 1825 531 
L 1825 4091 
L 703 3866 
L 703 4441 
L 1819 4666 
L 2450 4666 
L 2450 531 
L 3481 531 
L 3481 0 
L 794 0 
L 794 531 
z
" id="DejaVuSans-31" transform="scale(0.015625)"/>
        <path d="M 703 97 
L 703 672 
Q 941 559 1184 500 
Q 1428 441 1663 441 
Q 2288 441 2617 861 
Q 2947 1281 2994 2138 
Q 2813 1869 2534 1725 
Q 2256 1581 1919 1581 
Q 1219 1581 811 2004 
Q 403 2428 403 3163 
Q 403 3881 828 4315 
Q 1253 4750 1959 4750 
Q 2769 4750 3195 4129 
Q 3622 3509 3622 2328 
Q 3622 1225 3098 567 
Q 2575 -91 1691 -91 
Q 1453 -91 1209 -44 
Q 966 3 703 97 
z
M 1959 2075 
Q 2384 2075 2632 2365 
Q 2881 2656 2881 3163 
Q 2881 3666 2632 3958 
Q 2384 4250 1959 4250 
Q 1534 4250 1286 3958 
Q 1038 3666 1038 3163 
Q 1038 2656 1286 2365 
Q 1534 2075 1959 2075 
z
" id="DejaVuSans-39" transform="scale(0.015625)"/>
        <path d="M 691 4666 
L 3169 4666 
L 3169 4134 
L 1269 4134 
L 1269 2991 
Q 1406 3038 1543 3061 
Q 1681 3084 1819 3084 
Q 2600 3084 3056 2656 
Q 3513 2228 3513 1497 
Q 3513 744 3044 326 
Q 2575 -91 1722 -91 
Q 1428 -91 1123 -41 
Q 819 9 494 109 
L 494 744 
Q 775 591 1075 516 
Q 1375 441 1709 441 
Q 2250 441 2565 725 
Q 2881 1009 2881 1497 
Q 2881 1984 2565 2268 
Q 2250 2553 1709 2553 
Q 1456 2553 1204 2497 
Q 953 2441 691 2322 
L 691 4666 
z
" id="DejaVuSans-35" transform="scale(0.015625)"/>
       </defs>
       <use xlink:href="#DejaVuSans-31"/>
       <use x="63.623047" xlink:href="#DejaVuSans-39"/>
       <use x="127.246094" xlink:href="#DejaVuSans-35"/>
       <use x="190.869141" xlink:href="#DejaVuSans-35"/>
      </g>
     </g>
    </g>
    <g id="xtick_2">
     <g id="line2d_2">
      <g>
       <use style="stroke:#000000;stroke-width:0.8;" x="104.376114" xlink:href="#m74cddcc22d" y="162"/>
      </g>
     </g>
     <g id="text_2">
      <!-- 1960 -->
      <g transform="translate(91.651114 176.598438)scale(0.1 -0.1)">
       <defs>
        <path d="M 2113 2584 
Q 1688 2584 1439 2293 
Q 1191 2003 1191 1497 
Q 1191 994 1439 701 
Q 1688 409 2113 409 
Q 2538 409 2786 701 
Q 3034 994 3034 1497 
Q 3034 2003 2786 2293 
Q 2538 2584 2113 2584 
z
M 3366 4563 
L 3366 3988 
Q 3128 4100 2886 4159 
Q 2644 4219 2406 4219 
Q 1781 4219 1451 3797 
Q 1122 3375 1075 2522 
Q 1259 2794 1537 2939 
Q 1816 3084 2150 3084 
Q 2853 3084 3261 2657 
Q 3669 2231 3669 1497 
Q 3669 778 3244 343 
Q 2819 -91 2113 -91 
Q 1303 -91 875 529 
Q 447 1150 447 2328 
Q 447 3434 972 4092 
Q 1497 4750 2381 4750 
Q 2619 4750 2861 4703 
Q 3103 4656 3366 4563 
z
" id="DejaVuSans-36" transform="scale(0.015625)"/>
        <path d="M 2034 4250 
Q 1547 4250 1301 3770 
Q 1056 3291 1056 2328 
Q 1056 1369 1301 889 
Q 1547 409 2034 409 
Q 2525 409 2770 889 
Q 3016 1369 3016 2328 
Q 3016 3291 2770 3770 
Q 2525 4250 2034 4250 
z
M 2034 4750 
Q 2819 4750 3233 4129 
Q 3647 3509 3647 2328 
Q 3647 1150 3233 529 
Q 2819 -91 2034 -91 
Q 1250 -91 836 529 
Q 422 1150 422 2328 
Q 422 3509 836 4129 
Q 1250 4750 2034 4750 
z
" id="DejaVuSans-30" transform="scale(0.015625)"/>
       </defs>
       <use xlink:href="#DejaVuSans-31"/>
       <use x="63.623047" xlink:href="#DejaVuSans-39"/>
       <use x="127.246094" xlink:href="#DejaVuSans-36"/>
       <use x="190.869141" xlink:href="#DejaVuSans-30"/>
      </g>
     </g>
    </g>
    <g id="xtick_3">
     <g id="line2d_3">
      <g>
       <use style="stroke:#000000;stroke-width:0.8;" x="158.427299" xlink:href="#m74cddcc22d" y="162"/>
      </g>
     </g>
     <g id="text_3">
      <!-- 1965 -->
      <g transform="translate(145.702299 176.598438)scale(0.1 -0.1)">
       <use xlink:href="#DejaVuSans-31"/>
       <use x="63.623047" xlink:href="#DejaVuSans-39"/>
       <use x="127.246094" xlink:href="#DejaVuSans-36"/>
       <use x="190.869141" xlink:href="#DejaVuSans-35"/>
      </g>
     </g>
    </g>
    <g id="xtick_4">
     <g id="line2d_4">
      <g>
       <use style="stroke:#000000;stroke-width:0.8;" x="212.478483" xlink:href="#m74cddcc22d" y="162"/>
      </g>
     </g>
     <g id="text_4">
      <!-- 1970 -->
      <g transform="translate(199.753483 176.598438)scale(0.1 -0.1)">
       <defs>
        <path d="M 525 4666 
L 3525 4666 
L 3525 4397 
L 1831 0 
L 1172 0 
L 2766 4134 
L 525 4134 
L 525 4666 
z
" id="DejaVuSans-37" transform="scale(0.015625)"/>
       </defs>
       <use xlink:href="#DejaVuSans-31"/>
       <use x="63.623047" xlink:href="#DejaVuSans-39"/>
       <use x="127.246094" xlink:href="#DejaVuSans-37"/>
       <use x="190.869141" xlink:href="#DejaVuSans-30"/>
      </g>
     </g>
    </g>
    <g id="xtick_5">
     <g id="line2d_5">
      <g>
       <use style="stroke:#000000;stroke-width:0.8;" x="266.529668" xlink:href="#m74cddcc22d" y="162"/>
      </g>
     </g>
     <g id="text_5">
      <!-- 1975 -->
      <g transform="translate(253.804668 176.598438)scale(0.1 -0.1)">
       <use xlink:href="#DejaVuSans-31"/>
       <use x="63.623047" xlink:href="#DejaVuSans-39"/>
       <use x="127.246094" xlink:href="#DejaVuSans-37"/>
       <use x="190.869141" xlink:href="#DejaVuSans-35"/>
      </g>
     </g>
    </g>
    <g id="xtick_6">
     <g id="line2d_6">
      <g>
       <use style="stroke:#000000;stroke-width:0.8;" x="320.580853" xlink:href="#m74cddcc22d" y="162"/>
      </g>
     </g>
     <g id="text_6">
      <!-- 1980 -->
      <g transform="translate(307.855853 176.598438)scale(0.1 -0.1)">
       <defs>
        <path d="M 2034 2216 
Q 1584 2216 1326 1975 
Q 1069 1734 1069 1313 
Q 1069 891 1326 650 
Q 1584 409 2034 409 
Q 2484 409 2743 651 
Q 3003 894 3003 1313 
Q 3003 1734 2745 1975 
Q 2488 2216 2034 2216 
z
M 1403 2484 
Q 997 2584 770 2862 
Q 544 3141 544 3541 
Q 544 4100 942 4425 
Q 1341 4750 2034 4750 
Q 2731 4750 3128 4425 
Q 3525 4100 3525 3541 
Q 3525 3141 3298 2862 
Q 3072 2584 2669 2484 
Q 3125 2378 3379 2068 
Q 3634 1759 3634 1313 
Q 3634 634 3220 271 
Q 2806 -91 2034 -91 
Q 1263 -91 848 271 
Q 434 634 434 1313 
Q 434 1759 690 2068 
Q 947 2378 1403 2484 
z
M 1172 3481 
Q 1172 3119 1398 2916 
Q 1625 2713 2034 2713 
Q 2441 2713 2670 2916 
Q 2900 3119 2900 3481 
Q 2900 3844 2670 4047 
Q 2441 4250 2034 4250 
Q 1625 4250 1398 4047 
Q 1172 3844 1172 3481 
z
" id="DejaVuSans-38" transform="scale(0.015625)"/>
       </defs>
       <use xlink:href="#DejaVuSans-31"/>
       <use x="63.623047" xlink:href="#DejaVuSans-39"/>
       <use x="127.246094" xlink:href="#DejaVuSans-38"/>
       <use x="190.869141" xlink:href="#DejaVuSans-30"/>
      </g>
     </g>
    </g>
    <g id="xtick_7">
     <g id="line2d_7">
      <g>
       <use style="stroke:#000000;stroke-width:0.8;" x="374.632038" xlink:href="#m74cddcc22d" y="162"/>
      </g>
     </g>
     <g id="text_7">
      <!-- 1985 -->
      <g transform="translate(361.907038 176.598438)scale(0.1 -0.1)">
       <use xlink:href="#DejaVuSans-31"/>
       <use x="63.623047" xlink:href="#DejaVuSans-39"/>
       <use x="127.246094" xlink:href="#DejaVuSans-38"/>
       <use x="190.869141" xlink:href="#DejaVuSans-35"/>
      </g>
     </g>
    </g>
   </g>
   <g id="matplotlib.axis_2">
    <g id="ytick_1">
     <g id="line2d_8">
      <defs>
       <path d="M 0 0 
L -3.5 0 
" id="m57583eab0c" style="stroke:#000000;stroke-width:0.8;"/>
      </defs>
      <g>
       <use style="stroke:#000000;stroke-width:0.8;" x="34.56" xlink:href="#m57583eab0c" y="160.908188"/>
      </g>
     </g>
     <g id="text_8">
      <!-- −40 -->
      <g transform="translate(6.455313 164.707407)scale(0.1 -0.1)">
       <defs>
        <path d="M 678 2272 
L 4684 2272 
L 4684 1741 
L 678 1741 
L 678 2272 
z
" id="DejaVuSans-2212" transform="scale(0.015625)"/>
        <path d="M 2419 4116 
L 825 1625 
L 2419 1625 
L 2419 4116 
z
M 2253 4666 
L 3047 4666 
L 3047 1625 
L 3713 1625 
L 3713 1100 
L 3047 1100 
L 3047 0 
L 2419 0 
L 2419 1100 
L 313 1100 
L 313 1709 
L 2253 4666 
z
" id="DejaVuSans-34" transform="scale(0.015625)"/>
       </defs>
       <use xlink:href="#DejaVuSans-2212"/>
       <use x="83.789062" xlink:href="#DejaVuSans-34"/>
       <use x="147.412109" xlink:href="#DejaVuSans-30"/>
      </g>
     </g>
    </g>
    <g id="ytick_2">
     <g id="line2d_9">
      <g>
       <use style="stroke:#000000;stroke-width:0.8;" x="34.56" xlink:href="#m57583eab0c" y="121.854094"/>
      </g>
     </g>
     <g id="text_9">
      <!-- −20 -->
      <g transform="translate(6.455313 125.653313)scale(0.1 -0.1)">
       <defs>
        <path d="M 1228 531 
L 3431 531 
L 3431 0 
L 469 0 
L 469 531 
Q 828 903 1448 1529 
Q 2069 2156 2228 2338 
Q 2531 2678 2651 2914 
Q 2772 3150 2772 3378 
Q 2772 3750 2511 3984 
Q 2250 4219 1831 4219 
Q 1534 4219 1204 4116 
Q 875 4013 500 3803 
L 500 4441 
Q 881 4594 1212 4672 
Q 1544 4750 1819 4750 
Q 2544 4750 2975 4387 
Q 3406 4025 3406 3419 
Q 3406 3131 3298 2873 
Q 3191 2616 2906 2266 
Q 2828 2175 2409 1742 
Q 1991 1309 1228 531 
z
" id="DejaVuSans-32" transform="scale(0.015625)"/>
       </defs>
       <use xlink:href="#DejaVuSans-2212"/>
       <use x="83.789062" xlink:href="#DejaVuSans-32"/>
       <use x="147.412109" xlink:href="#DejaVuSans-30"/>
      </g>
     </g>
    </g>
    <g id="ytick_3">
     <g id="line2d_10">
      <g>
       <use style="stroke:#000000;stroke-width:0.8;" x="34.56" xlink:href="#m57583eab0c" y="82.8"/>
      </g>
     </g>
     <g id="text_10">
      <!-- 0 -->
      <g transform="translate(21.1975 86.599219)scale(0.1 -0.1)">
       <use xlink:href="#DejaVuSans-30"/>
      </g>
     </g>
    </g>
    <g id="ytick_4">
     <g id="line2d_11">
      <g>
       <use style="stroke:#000000;stroke-width:0.8;" x="34.56" xlink:href="#m57583eab0c" y="43.745906"/>
      </g>
     </g>
     <g id="text_11">
      <!-- 20 -->
      <g transform="translate(14.835 47.545125)scale(0.1 -0.1)">
       <use xlink:href="#DejaVuSans-32"/>
       <use x="63.623047" xlink:href="#DejaVuSans-30"/>
      </g>
     </g>
    </g>
    <g id="ytick_5">
     <g id="line2d_12">
      <g>
       <use style="stroke:#000000;stroke-width:0.8;" x="34.56" xlink:href="#m57583eab0c" y="4.691812"/>
      </g>
     </g>
     <g id="text_12">
      <!-- 40 -->
      <g transform="translate(14.835 8.491031)scale(0.1 -0.1)">
       <use xlink:href="#DejaVuSans-34"/>
       <use x="63.623047" xlink:href="#DejaVuSans-30"/>
      </g>
     </g>
    </g>
   </g>
   <g id="line2d_13">
    <path clip-path="url(#pd6ee6faeb8)" d="M 115.636777 82.673797 
L 116.53763 82.919259 
L 118.339336 83.04908 
L 119.24019 83.398443 
L 120.141043 83.9163 
L 121.041896 84.854524 
L 121.942749 85.441442 
L 122.843602 85.725552 
L 123.744455 85.68838 
L 124.645308 86.192879 
L 125.546161 85.846469 
L 128.24872 85.915536 
L 130.050427 86.338321 
L 130.95128 86.863202 
L 131.852133 87.060505 
L 132.752986 86.840993 
L 133.653839 86.876165 
L 136.356398 87.48747 
L 137.257251 87.949307 
L 138.158104 88.725632 
L 139.058957 89.282001 
L 140.860664 89.772446 
L 141.761517 90.31075 
L 142.66237 90.502186 
L 143.563223 90.865576 
L 144.464076 91.36656 
L 146.265782 91.548415 
L 147.166635 91.94218 
L 148.067488 92.652753 
L 148.968341 92.856837 
L 149.869194 93.228535 
L 150.770047 93.133066 
L 151.6709 93.529258 
L 152.571754 93.634532 
L 154.37346 94.830177 
L 155.274313 95.147157 
L 156.175166 95.305376 
L 157.076019 95.677123 
L 159.778578 96.046282 
L 160.679431 95.786122 
L 162.481137 96.271707 
L 163.381991 96.132736 
L 164.282844 96.53342 
L 166.08455 96.391244 
L 166.985403 96.824642 
L 167.886256 96.983249 
L 168.787109 96.942503 
L 169.687962 97.042256 
L 170.588815 97.003247 
L 171.489668 96.765001 
L 172.390521 97.25655 
L 173.291374 97.16738 
L 175.993934 97.333507 
L 176.894787 97.700029 
L 177.79564 97.603787 
L 178.696493 97.684536 
L 179.597346 97.586558 
L 181.399052 97.722732 
L 182.299905 97.94914 
L 183.200758 98.313468 
L 184.101611 98.067452 
L 185.002464 98.134008 
L 185.903318 98.024944 
L 186.804171 98.287632 
L 187.705024 98.400539 
L 188.605877 98.109564 
L 189.50673 98.114351 
L 191.308436 97.826255 
L 192.209289 97.578791 
L 193.110142 97.877892 
L 194.010995 98.45666 
L 194.911848 98.727406 
L 200.316967 98.30619 
L 201.21782 98.415621 
L 202.118673 98.211451 
L 203.920379 98.059072 
L 204.821232 97.886821 
L 205.722085 98.344673 
L 207.523791 98.105823 
L 208.424645 98.380806 
L 209.325498 98.413352 
L 210.226351 98.215894 
L 211.127204 98.178661 
L 212.028057 98.26191 
L 212.92891 98.660948 
L 213.829763 98.605814 
L 214.730616 98.274171 
L 216.532322 98.036032 
L 217.433175 98.159476 
L 221.937441 97.879274 
L 222.838294 97.67432 
L 223.739147 97.888481 
L 225.540853 97.301331 
L 226.441706 97.309153 
L 227.342559 97.175392 
L 228.243412 97.421472 
L 229.144265 97.195087 
L 231.846825 97.605666 
L 232.747678 97.367655 
L 233.648531 97.577815 
L 235.450237 97.436449 
L 236.35109 97.553012 
L 237.251943 97.360725 
L 238.152796 97.320352 
L 239.053649 97.055745 
L 239.954502 97.013709 
L 241.756209 97.790727 
L 242.657062 98.047308 
L 243.557915 98.157702 
L 244.458768 97.945415 
L 248.06218 98.69902 
L 250.764739 97.884254 
L 251.665592 97.305026 
L 253.467299 97.382999 
L 254.368152 97.344678 
L 255.269005 97.694164 
L 257.070711 96.452412 
L 257.971564 96.093303 
L 258.872417 95.472125 
L 259.77327 95.365624 
L 260.674123 95.071364 
L 261.574976 95.101908 
L 263.376682 94.217053 
L 266.079242 92.97734 
L 266.980095 92.210644 
L 267.880948 91.980077 
L 270.583507 91.636294 
L 271.48436 90.911776 
L 272.385213 90.383715 
L 273.286066 90.056247 
L 274.186919 89.410011 
L 275.988626 89.124113 
L 276.889479 89.051213 
L 278.691185 88.667115 
L 279.592038 88.669323 
L 282.294597 87.961864 
L 283.19545 87.850043 
L 285.898009 87.088274 
L 286.798863 86.531438 
L 287.699716 85.804363 
L 288.600569 85.538712 
L 289.501422 84.793285 
L 290.402275 84.217422 
L 291.303128 83.787338 
L 292.203981 83.717257 
L 293.104834 84.023094 
L 297.6091 82.649471 
L 299.410806 82.287994 
L 300.311659 82.052166 
L 301.212512 81.971783 
L 302.113365 81.383455 
L 304.815924 79.018599 
L 307.518483 78.72153 
L 308.419336 78.695461 
L 310.221043 79.100337 
L 311.121896 79.041299 
L 312.022749 78.586682 
L 312.923602 78.628835 
L 313.824455 78.34118 
L 314.725308 78.673018 
L 315.626161 78.867931 
L 317.427867 78.553771 
L 318.32872 78.775402 
L 319.229573 78.663349 
L 320.130427 78.855644 
L 321.03128 78.821608 
L 321.932133 79.344331 
L 323.733839 79.707432 
L 324.634692 80.068139 
L 327.337251 79.890613 
L 328.238104 79.672569 
L 330.940664 81.242576 
L 331.841517 81.55136 
L 332.74237 82.021905 
L 333.643223 82.8 
L 333.643223 82.8 
" style="fill:none;stroke:#1f77b4;stroke-linecap:square;stroke-width:1.5;"/>
   </g>
   <g id="line2d_14">
    <path clip-path="url(#pd6ee6faeb8)" d="M 34.56 82.8 
L 414.72 82.8 
" style="fill:none;stroke:#000000;stroke-dasharray:1.5,2.475;stroke-dashoffset:0;stroke-width:1.5;"/>
   </g>
   <g id="patch_3">
    <path d="M 34.56 162 
L 34.56 3.6 
" style="fill:none;stroke:#000000;stroke-linecap:square;stroke-linejoin:miter;stroke-width:0.8;"/>
   </g>
   <g id="patch_4">
    <path d="M 414.72 162 
L 414.72 3.6 
" style="fill:none;stroke:#000000;stroke-linecap:square;stroke-linejoin:miter;stroke-width:0.8;"/>
   </g>
   <g id="patch_5">
    <path d="M 34.56 162 
L 414.72 162 
" style="fill:none;stroke:#000000;stroke-linecap:square;stroke-linejoin:miter;stroke-width:0.8;"/>
   </g>
   <g id="patch_6">
    <path d="M 34.56 3.6 
L 414.72 3.6 
" style="fill:none;stroke:#000000;stroke-linecap:square;stroke-linejoin:miter;stroke-width:0.8;"/>
   </g>
  </g>
 </g>
 <defs>
  <clipPath id="pd6ee6faeb8">
   <rect height="158.4" width="380.16" x="34.56" y="3.6"/>
  </clipPath>
 </defs>
</svg>
