<?xml version="1.0" encoding="utf-8" standalone="no"?>
<!DOCTYPE svg PUBLIC "-//W3C//DTD SVG 1.1//EN"
  "http://www.w3.org/Graphics/SVG/1.1/DTD/svg11.dtd">
<svg height="180pt" version="1.1" viewBox="0 0 432 180" width="432pt" xmlns="http://www.w3.org/2000/svg" xmlns:xlink="http://www.w3.org/1999/xlink">
 <metadata>
  <rdf:RDF xmlns:cc="http://creativecommons.org/ns#" xmlns:dc="http://purl.org/dc/elements/1.1/" xmlns:rdf="http://www.w3.org/1999/02/22-rdf-syntax-ns#">
   <cc:Work>
    <dc:type rdf:resource="http://purl.org/dc/dcmitype/StillImage"/>
    <dc:date>2021-08-12T10:43:36.478340</dc:date>
    <dc:format>image/svg+xml</dc:format>
    <dc:creator>
     <cc:Agent>
      <dc:title>Matplotlib v3.4.2, https://matplotlib.org/</dc:title>
     </cc:Agent>
    </dc:creator>
   </cc:Work>
  </rdf:RDF>
 </metadata>
 <defs>
  <style type="text/css">*{stroke-linecap:butt;stroke-linejoin:round;}</style>
 </defs>
 <g id="figure_1">
  <g id="patch_1">
   <path d="M 0 180 
L 432 180 
L 432 0 
L 0 0 
z
" style="fill:#ffffff;"/>
  </g>
  <g id="axes_1">
   <g id="patch_2">
    <path d="M 34.56 162 
L 414.72 162 
L 414.72 3.6 
L 34.56 3.6 
z
" style="fill:#ffffff;"/>
   </g>
   <g id="PolyCollection_1">
    <path clip-path="url(#pfd49f5c66e)" d="M 71.628689 82.24538 
L 71.628689 83.35462 
L 71.628689 82.24538 
L 71.628689 82.24538 
z
" style="fill:#0000ff;fill-opacity:0.1;stroke:#0000ff;stroke-opacity:0.1;"/>
    <path clip-path="url(#pfd49f5c66e)" d="M 72.452438 81.693824 
L 72.452438 83.906176 
L 72.452438 81.693824 
L 72.452438 81.693824 
z
" style="fill:#0000ff;fill-opacity:0.1;stroke:#0000ff;stroke-opacity:0.1;"/>
    <path clip-path="url(#pfd49f5c66e)" d="M 73.276186 81.144308 
L 73.276186 84.455692 
L 73.688061 85.00317 
L 74.099935 85.548609 
L 74.511809 86.092009 
L 74.923684 86.633369 
L 75.335558 87.172691 
L 75.747432 87.709974 
L 76.159307 88.245217 
L 76.571181 88.778422 
L 76.983055 89.309587 
L 77.39493 89.838714 
L 77.806804 90.365801 
L 78.218678 90.89085 
L 78.630553 91.413859 
L 79.042427 91.93483 
L 79.454301 92.453761 
L 79.866176 92.970653 
L 80.27805 93.485507 
L 80.689924 93.998321 
L 81.101798 94.509096 
L 81.513673 95.017833 
L 81.925547 95.52453 
L 82.337421 96.029188 
L 82.749296 96.531807 
L 83.16117 97.032388 
L 83.573044 97.530929 
L 83.984919 98.027431 
L 84.396793 98.521894 
L 84.808667 99.014318 
L 85.220542 99.504703 
L 85.632416 99.993049 
L 86.04429 100.479356 
L 86.456165 100.963624 
L 86.868039 101.445853 
L 87.279913 101.926043 
L 87.691788 102.404194 
L 88.103662 102.880306 
L 88.103662 62.719694 
L 88.103662 62.719694 
L 87.691788 63.195806 
L 87.279913 63.673957 
L 86.868039 64.154147 
L 86.456165 64.636376 
L 86.04429 65.120644 
L 85.632416 65.606951 
L 85.220542 66.095297 
L 84.808667 66.585682 
L 84.396793 67.078106 
L 83.984919 67.572569 
L 83.573044 68.069071 
L 83.16117 68.567612 
L 82.749296 69.068193 
L 82.337421 69.570812 
L 81.925547 70.07547 
L 81.513673 70.582167 
L 81.101798 71.090904 
L 80.689924 71.601679 
L 80.27805 72.114493 
L 79.866176 72.629347 
L 79.454301 73.146239 
L 79.042427 73.66517 
L 78.630553 74.186141 
L 78.218678 74.70915 
L 77.806804 75.234199 
L 77.39493 75.761286 
L 76.983055 76.290413 
L 76.571181 76.821578 
L 76.159307 77.354783 
L 75.747432 77.890026 
L 75.335558 78.427309 
L 74.923684 78.966631 
L 74.511809 79.507991 
L 74.099935 80.051391 
L 73.688061 80.59683 
L 73.276186 81.144308 
z
" style="fill:#0000ff;fill-opacity:0.1;stroke:#0000ff;stroke-opacity:0.1;"/>
    <path clip-path="url(#pfd49f5c66e)" d="M 89.339285 62.245621 
L 89.339285 103.354379 
L 89.751159 103.826413 
L 90.163034 104.296408 
L 90.163034 61.303592 
L 90.163034 61.303592 
L 89.751159 61.773587 
L 89.339285 62.245621 
z
" style="fill:#0000ff;fill-opacity:0.1;stroke:#0000ff;stroke-opacity:0.1;"/>
    <path clip-path="url(#pfd49f5c66e)" d="M 90.986782 60.835636 
L 90.986782 104.764364 
L 91.398657 105.23028 
L 91.810531 105.694158 
L 92.222405 106.155997 
L 92.63428 106.615797 
L 93.046154 107.073557 
L 93.458028 107.529279 
L 93.869902 107.982962 
L 94.281777 108.434605 
L 94.693651 108.88421 
L 95.105525 109.331776 
L 95.5174 109.777302 
L 95.5174 55.822698 
L 95.5174 55.822698 
L 95.105525 56.268224 
L 94.693651 56.71579 
L 94.281777 57.165395 
L 93.869902 57.617038 
L 93.458028 58.070721 
L 93.046154 58.526443 
L 92.63428 58.984203 
L 92.222405 59.444003 
L 91.810531 59.905842 
L 91.398657 60.36972 
L 90.986782 60.835636 
z
" style="fill:#0000ff;fill-opacity:0.1;stroke:#0000ff;stroke-opacity:0.1;"/>
    <path clip-path="url(#pfd49f5c66e)" d="M 96.341148 55.37921 
L 96.341148 110.22079 
L 96.753023 110.662238 
L 97.164897 111.101648 
L 97.576771 111.539018 
L 97.576771 54.060982 
L 97.576771 54.060982 
L 97.164897 54.498352 
L 96.753023 54.937762 
L 96.341148 55.37921 
z
" style="fill:#0000ff;fill-opacity:0.1;stroke:#0000ff;stroke-opacity:0.1;"/>
    <path clip-path="url(#pfd49f5c66e)" d="M 98.40052 53.62565 
L 98.40052 111.97435 
L 98.812394 112.407642 
L 98.812394 53.192358 
L 98.812394 53.192358 
L 98.40052 53.62565 
z
" style="fill:#0000ff;fill-opacity:0.1;stroke:#0000ff;stroke-opacity:0.1;"/>
    <path clip-path="url(#pfd49f5c66e)" d="M 99.636143 52.761105 
L 99.636143 112.838895 
L 100.048017 113.26811 
L 100.459892 113.695285 
L 100.871766 114.120422 
L 101.28364 114.543519 
L 101.695515 114.964577 
L 102.107389 115.383596 
L 102.107389 50.216404 
L 102.107389 50.216404 
L 101.695515 50.635423 
L 101.28364 51.056481 
L 100.871766 51.479578 
L 100.459892 51.904715 
L 100.048017 52.33189 
L 99.636143 52.761105 
z
" style="fill:#0000ff;fill-opacity:0.1;stroke:#0000ff;stroke-opacity:0.1;"/>
    <path clip-path="url(#pfd49f5c66e)" d="M 102.931138 49.799423 
L 102.931138 115.800577 
L 103.343012 116.215518 
L 103.754886 116.62842 
L 104.166761 117.039283 
L 104.578635 117.448107 
L 104.990509 117.854893 
L 105.402384 118.259639 
L 105.814258 118.662346 
L 106.226132 119.063014 
L 106.226132 46.536986 
L 106.226132 46.536986 
L 105.814258 46.937654 
L 105.402384 47.340361 
L 104.990509 47.745107 
L 104.578635 48.151893 
L 104.166761 48.560717 
L 103.754886 48.97158 
L 103.343012 49.384482 
L 102.931138 49.799423 
z
" style="fill:#0000ff;fill-opacity:0.1;stroke:#0000ff;stroke-opacity:0.1;"/>
    <path clip-path="url(#pfd49f5c66e)" d="M 107.461755 46.138357 
L 107.461755 119.461643 
L 107.873629 119.858233 
L 108.285504 120.252784 
L 108.697378 120.645296 
L 109.109252 121.035769 
L 109.521127 121.424203 
L 109.521127 44.175797 
L 109.521127 44.175797 
L 109.109252 44.564231 
L 108.697378 44.954704 
L 108.285504 45.347216 
L 107.873629 45.741767 
L 107.461755 46.138357 
z
" style="fill:#0000ff;fill-opacity:0.1;stroke:#0000ff;stroke-opacity:0.1;"/>
    <path clip-path="url(#pfd49f5c66e)" d="M 110.344875 43.789402 
L 110.344875 121.810598 
L 110.75675 122.194953 
L 111.168624 122.57727 
L 111.580498 122.957548 
L 111.992373 123.335787 
L 112.404247 123.711987 
L 112.816121 124.086147 
L 113.227996 124.458269 
L 113.63987 124.828352 
L 114.051744 125.196396 
L 114.463619 125.5624 
L 114.875493 125.926366 
L 115.287367 126.288292 
L 115.699242 126.64818 
L 116.111116 127.006029 
L 116.52299 127.361838 
L 116.934865 127.715609 
L 117.346739 128.06734 
L 117.758613 128.417033 
L 118.170488 128.764686 
L 118.582362 129.110301 
L 118.582362 36.489699 
L 118.582362 36.489699 
L 118.170488 36.835314 
L 117.758613 37.182967 
L 117.346739 37.53266 
L 116.934865 37.884391 
L 116.52299 38.238162 
L 116.111116 38.593971 
L 115.699242 38.95182 
L 115.287367 39.311708 
L 114.875493 39.673634 
L 114.463619 40.0376 
L 114.051744 40.403604 
L 113.63987 40.771648 
L 113.227996 41.141731 
L 112.816121 41.513853 
L 112.404247 41.888013 
L 111.992373 42.264213 
L 111.580498 42.642452 
L 111.168624 43.02273 
L 110.75675 43.405047 
L 110.344875 43.789402 
z
" style="fill:#0000ff;fill-opacity:0.1;stroke:#0000ff;stroke-opacity:0.1;"/>
    <path clip-path="url(#pfd49f5c66e)" d="M 119.406111 36.146124 
L 119.406111 129.453876 
L 119.817985 129.795412 
L 120.229859 130.13491 
L 120.641733 130.472368 
L 121.053608 130.807787 
L 121.053608 34.792213 
L 121.053608 34.792213 
L 120.641733 35.127632 
L 120.229859 35.46509 
L 119.817985 35.804588 
L 119.406111 36.146124 
z
" style="fill:#0000ff;fill-opacity:0.1;stroke:#0000ff;stroke-opacity:0.1;"/>
    <path clip-path="url(#pfd49f5c66e)" d="M 121.877356 34.458832 
L 121.877356 131.141168 
L 122.289231 131.472509 
L 122.701105 131.801811 
L 123.112979 132.129074 
L 123.524854 132.454299 
L 123.936728 132.777484 
L 124.348602 133.09863 
L 124.760477 133.417737 
L 125.172351 133.734805 
L 125.172351 31.865195 
L 125.172351 31.865195 
L 124.760477 32.182263 
L 124.348602 32.50137 
L 123.936728 32.822516 
L 123.524854 33.145701 
L 123.112979 33.470926 
L 122.701105 33.798189 
L 122.289231 34.127491 
L 121.877356 34.458832 
z
" style="fill:#0000ff;fill-opacity:0.1;stroke:#0000ff;stroke-opacity:0.1;"/>
    <path clip-path="url(#pfd49f5c66e)" d="M 125.9961 31.550166 
L 125.9961 134.049834 
L 125.9961 31.550166 
L 125.9961 31.550166 
z
" style="fill:#0000ff;fill-opacity:0.1;stroke:#0000ff;stroke-opacity:0.1;"/>
    <path clip-path="url(#pfd49f5c66e)" d="M 127.231723 31.237176 
L 127.231723 134.362824 
L 127.231723 31.237176 
L 127.231723 31.237176 
z
" style="fill:#0000ff;fill-opacity:0.1;stroke:#0000ff;stroke-opacity:0.1;"/>
    <path clip-path="url(#pfd49f5c66e)" d="M 128.055471 30.926225 
L 128.055471 134.673775 
L 128.055471 30.926225 
L 128.055471 30.926225 
z
" style="fill:#0000ff;fill-opacity:0.1;stroke:#0000ff;stroke-opacity:0.1;"/>
    <path clip-path="url(#pfd49f5c66e)" d="M 128.87922 30.617313 
L 128.87922 134.982687 
L 128.87922 30.617313 
L 128.87922 30.617313 
z
" style="fill:#0000ff;fill-opacity:0.1;stroke:#0000ff;stroke-opacity:0.1;"/>
    <path clip-path="url(#pfd49f5c66e)" d="M 129.702969 30.31044 
L 129.702969 135.28956 
L 130.114843 135.594394 
L 130.114843 30.005606 
L 130.114843 30.005606 
L 129.702969 30.31044 
z
" style="fill:#0000ff;fill-opacity:0.1;stroke:#0000ff;stroke-opacity:0.1;"/>
    <path clip-path="url(#pfd49f5c66e)" d="M 130.938592 29.702811 
L 130.938592 135.897189 
L 131.350466 136.197945 
L 131.350466 29.402055 
L 131.350466 29.402055 
L 130.938592 29.702811 
z
" style="fill:#0000ff;fill-opacity:0.1;stroke:#0000ff;stroke-opacity:0.1;"/>
    <path clip-path="url(#pfd49f5c66e)" d="M 136.292958 29.103338 
L 136.292958 136.496662 
L 136.704832 136.79334 
L 137.116706 137.087979 
L 137.528581 137.380579 
L 137.940455 137.67114 
L 138.352329 137.959661 
L 138.764204 138.246144 
L 139.176078 138.530588 
L 139.587952 138.812993 
L 139.999827 139.093358 
L 140.411701 139.371685 
L 140.823575 139.647973 
L 141.23545 139.922221 
L 141.647324 140.194431 
L 142.059198 140.464601 
L 142.471073 140.732733 
L 142.882947 140.998825 
L 143.294821 141.262879 
L 143.294821 24.337121 
L 143.294821 24.337121 
L 142.882947 24.601175 
L 142.471073 24.867267 
L 142.059198 25.135399 
L 141.647324 25.405569 
L 141.23545 25.677779 
L 140.823575 25.952027 
L 140.411701 26.228315 
L 139.999827 26.506642 
L 139.587952 26.787007 
L 139.176078 27.069412 
L 138.764204 27.353856 
L 138.352329 27.640339 
L 137.940455 27.92886 
L 137.528581 28.219421 
L 137.116706 28.512021 
L 136.704832 28.80666 
L 136.292958 29.103338 
z
" style="fill:#0000ff;fill-opacity:0.1;stroke:#0000ff;stroke-opacity:0.1;"/>
    <path clip-path="url(#pfd49f5c66e)" d="M 145.354193 24.075107 
L 145.354193 141.524893 
L 145.766067 141.784869 
L 146.177941 142.042805 
L 146.589816 142.298703 
L 146.589816 23.301297 
L 146.589816 23.301297 
L 146.177941 23.557195 
L 145.766067 23.815131 
L 145.354193 24.075107 
z
" style="fill:#0000ff;fill-opacity:0.1;stroke:#0000ff;stroke-opacity:0.1;"/>
    <path clip-path="url(#pfd49f5c66e)" d="M 147.413564 23.047439 
L 147.413564 142.552561 
L 147.825439 142.80438 
L 148.237313 143.054161 
L 148.649187 143.301902 
L 148.649187 22.298098 
L 148.649187 22.298098 
L 148.237313 22.545839 
L 147.825439 22.79562 
L 147.413564 23.047439 
z
" style="fill:#0000ff;fill-opacity:0.1;stroke:#0000ff;stroke-opacity:0.1;"/>
    <path clip-path="url(#pfd49f5c66e)" d="M 149.88481 22.052396 
L 149.88481 143.547604 
L 149.88481 22.052396 
L 149.88481 22.052396 
z
" style="fill:#0000ff;fill-opacity:0.1;stroke:#0000ff;stroke-opacity:0.1;"/>
    <path clip-path="url(#pfd49f5c66e)" d="M 154.003554 21.808732 
L 154.003554 143.791268 
L 154.415428 144.032892 
L 154.415428 21.567108 
L 154.415428 21.567108 
L 154.003554 21.808732 
z
" style="fill:#0000ff;fill-opacity:0.1;stroke:#0000ff;stroke-opacity:0.1;"/>
    <path clip-path="url(#pfd49f5c66e)" d="M 156.4748 21.327523 
L 156.4748 144.272477 
L 156.886674 144.510023 
L 156.886674 21.089977 
L 156.886674 21.089977 
L 156.4748 21.327523 
z
" style="fill:#0000ff;fill-opacity:0.1;stroke:#0000ff;stroke-opacity:0.1;"/>
    <path clip-path="url(#pfd49f5c66e)" d="M 158.946046 20.854469 
L 158.946046 144.745531 
L 158.946046 20.854469 
L 158.946046 20.854469 
z
" style="fill:#0000ff;fill-opacity:0.1;stroke:#0000ff;stroke-opacity:0.1;"/>
    <path clip-path="url(#pfd49f5c66e)" d="M 165.12416 20.621001 
L 165.12416 144.978999 
L 165.536035 145.210428 
L 165.947909 145.439818 
L 166.359783 145.667169 
L 166.771658 145.892481 
L 167.183532 146.115754 
L 167.595406 146.336988 
L 168.007281 146.556183 
L 168.419155 146.773339 
L 168.831029 146.988456 
L 169.242904 147.201534 
L 169.654778 147.412573 
L 170.066652 147.621573 
L 170.478527 147.828534 
L 170.890401 148.033455 
L 171.302275 148.236338 
L 171.71415 148.437182 
L 172.126024 148.635987 
L 172.537898 148.832753 
L 172.949772 149.027479 
L 173.361647 149.220167 
L 173.773521 149.410816 
L 174.185395 149.599425 
L 174.59727 149.785996 
L 175.009144 149.970527 
L 175.421018 150.15302 
L 175.832893 150.333474 
L 176.244767 150.511888 
L 176.656641 150.688264 
L 177.068516 150.8626 
L 177.48039 151.034898 
L 177.892264 151.205156 
L 178.304139 151.373375 
L 178.716013 151.539556 
L 179.127887 151.703697 
L 179.539762 151.8658 
L 179.951636 152.025863 
L 180.36351 152.183887 
L 180.775385 152.339872 
L 181.187259 152.493819 
L 181.599133 152.645726 
L 182.011008 152.795594 
L 182.422882 152.943423 
L 182.834756 153.089213 
L 183.246631 153.232965 
L 183.658505 153.374677 
L 184.070379 153.51435 
L 184.482254 153.651984 
L 184.894128 153.787579 
L 185.306002 153.921135 
L 185.717876 154.052652 
L 186.129751 154.18213 
L 186.541625 154.309569 
L 186.953499 154.434969 
L 187.365374 154.55833 
L 187.777248 154.679652 
L 188.189122 154.798934 
L 188.600997 154.916178 
L 189.012871 155.031383 
L 189.424745 155.144549 
L 189.83662 155.255676 
L 190.248494 155.364763 
L 190.660368 155.471812 
L 191.072243 155.576822 
L 191.484117 155.679792 
L 191.895991 155.780724 
L 192.307866 155.879617 
L 192.71974 155.97647 
L 193.131614 156.071285 
L 193.543489 156.16406 
L 193.955363 156.254797 
L 194.367237 156.343494 
L 194.779112 156.430153 
L 195.190986 156.514772 
L 195.60286 156.597353 
L 196.014735 156.677894 
L 196.426609 156.756397 
L 196.838483 156.83286 
L 197.250358 156.907284 
L 197.662232 156.97967 
L 198.074106 157.050016 
L 198.48598 157.118323 
L 198.897855 157.184592 
L 199.309729 157.248821 
L 199.721603 157.311011 
L 200.133478 157.371162 
L 200.545352 157.429274 
L 200.957226 157.485347 
L 201.369101 157.539382 
L 201.780975 157.591377 
L 202.192849 157.641333 
L 202.604724 157.68925 
L 203.016598 157.735128 
L 203.428472 157.778967 
L 203.840347 157.820767 
L 204.252221 157.860528 
L 204.664095 157.89825 
L 205.07597 157.933933 
L 205.487844 157.967576 
L 205.899718 157.999181 
L 206.311593 158.028747 
L 206.723467 158.056274 
L 207.135341 158.081762 
L 207.547216 158.105211 
L 207.95909 158.12662 
L 208.370964 158.145991 
L 208.782839 158.163323 
L 209.194713 158.178615 
L 209.606587 158.191869 
L 210.018462 158.203084 
L 210.430336 158.212259 
L 210.84221 158.219396 
L 211.254085 158.224493 
L 211.665959 158.227552 
L 212.077833 158.228571 
L 212.489707 158.227552 
L 212.901582 158.224493 
L 213.313456 158.219396 
L 213.72533 158.212259 
L 214.137205 158.203084 
L 214.549079 158.191869 
L 214.960953 158.178615 
L 215.372828 158.163323 
L 215.784702 158.145991 
L 216.196576 158.12662 
L 216.608451 158.105211 
L 217.020325 158.081762 
L 217.432199 158.056274 
L 217.844074 158.028747 
L 218.255948 157.999181 
L 218.667822 157.967576 
L 219.079697 157.933933 
L 219.491571 157.89825 
L 219.903445 157.860528 
L 220.31532 157.820767 
L 220.727194 157.778967 
L 221.139068 157.735128 
L 221.550943 157.68925 
L 221.962817 157.641333 
L 222.374691 157.591377 
L 222.786566 157.539382 
L 223.19844 157.485347 
L 223.610314 157.429274 
L 224.022189 157.371162 
L 224.434063 157.311011 
L 224.845937 157.248821 
L 225.257811 157.184592 
L 225.669686 157.118323 
L 226.08156 157.050016 
L 226.493434 156.97967 
L 226.493434 8.62033 
L 226.493434 8.62033 
L 226.08156 8.549984 
L 225.669686 8.481677 
L 225.257811 8.415408 
L 224.845937 8.351179 
L 224.434063 8.288989 
L 224.022189 8.228838 
L 223.610314 8.170726 
L 223.19844 8.114653 
L 222.786566 8.060618 
L 222.374691 8.008623 
L 221.962817 7.958667 
L 221.550943 7.91075 
L 221.139068 7.864872 
L 220.727194 7.821033 
L 220.31532 7.779233 
L 219.903445 7.739472 
L 219.491571 7.70175 
L 219.079697 7.666067 
L 218.667822 7.632424 
L 218.255948 7.600819 
L 217.844074 7.571253 
L 217.432199 7.543726 
L 217.020325 7.518238 
L 216.608451 7.494789 
L 216.196576 7.47338 
L 215.784702 7.454009 
L 215.372828 7.436677 
L 214.960953 7.421385 
L 214.549079 7.408131 
L 214.137205 7.396916 
L 213.72533 7.387741 
L 213.313456 7.380604 
L 212.901582 7.375507 
L 212.489707 7.372448 
L 212.077833 7.371429 
L 211.665959 7.372448 
L 211.254085 7.375507 
L 210.84221 7.380604 
L 210.430336 7.387741 
L 210.018462 7.396916 
L 209.606587 7.408131 
L 209.194713 7.421385 
L 208.782839 7.436677 
L 208.370964 7.454009 
L 207.95909 7.47338 
L 207.547216 7.494789 
L 207.135341 7.518238 
L 206.723467 7.543726 
L 206.311593 7.571253 
L 205.899718 7.600819 
L 205.487844 7.632424 
L 205.07597 7.666067 
L 204.664095 7.70175 
L 204.252221 7.739472 
L 203.840347 7.779233 
L 203.428472 7.821033 
L 203.016598 7.864872 
L 202.604724 7.91075 
L 202.192849 7.958667 
L 201.780975 8.008623 
L 201.369101 8.060618 
L 200.957226 8.114653 
L 200.545352 8.170726 
L 200.133478 8.228838 
L 199.721603 8.288989 
L 199.309729 8.351179 
L 198.897855 8.415408 
L 198.48598 8.481677 
L 198.074106 8.549984 
L 197.662232 8.62033 
L 197.250358 8.692716 
L 196.838483 8.76714 
L 196.426609 8.843603 
L 196.014735 8.922106 
L 195.60286 9.002647 
L 195.190986 9.085228 
L 194.779112 9.169847 
L 194.367237 9.256506 
L 193.955363 9.345203 
L 193.543489 9.43594 
L 193.131614 9.528715 
L 192.71974 9.62353 
L 192.307866 9.720383 
L 191.895991 9.819276 
L 191.484117 9.920208 
L 191.072243 10.023178 
L 190.660368 10.128188 
L 190.248494 10.235237 
L 189.83662 10.344324 
L 189.424745 10.455451 
L 189.012871 10.568617 
L 188.600997 10.683822 
L 188.189122 10.801066 
L 187.777248 10.920348 
L 187.365374 11.04167 
L 186.953499 11.165031 
L 186.541625 11.290431 
L 186.129751 11.41787 
L 185.717876 11.547348 
L 185.306002 11.678865 
L 184.894128 11.812421 
L 184.482254 11.948016 
L 184.070379 12.08565 
L 183.658505 12.225323 
L 183.246631 12.367035 
L 182.834756 12.510787 
L 182.422882 12.656577 
L 182.011008 12.804406 
L 181.599133 12.954274 
L 181.187259 13.106181 
L 180.775385 13.260128 
L 180.36351 13.416113 
L 179.951636 13.574137 
L 179.539762 13.7342 
L 179.127887 13.896303 
L 178.716013 14.060444 
L 178.304139 14.226625 
L 177.892264 14.394844 
L 177.48039 14.565102 
L 177.068516 14.7374 
L 176.656641 14.911736 
L 176.244767 15.088112 
L 175.832893 15.266526 
L 175.421018 15.44698 
L 175.009144 15.629473 
L 174.59727 15.814004 
L 174.185395 16.000575 
L 173.773521 16.189184 
L 173.361647 16.379833 
L 172.949772 16.572521 
L 172.537898 16.767247 
L 172.126024 16.964013 
L 171.71415 17.162818 
L 171.302275 17.363662 
L 170.890401 17.566545 
L 170.478527 17.771466 
L 170.066652 17.978427 
L 169.654778 18.187427 
L 169.242904 18.398466 
L 168.831029 18.611544 
L 168.419155 18.826661 
L 168.007281 19.043817 
L 167.595406 19.263012 
L 167.183532 19.484246 
L 166.771658 19.707519 
L 166.359783 19.932831 
L 165.947909 20.160182 
L 165.536035 20.389572 
L 165.12416 20.621001 
z
" style="fill:#0000ff;fill-opacity:0.1;stroke:#0000ff;stroke-opacity:0.1;"/>
    <path clip-path="url(#pfd49f5c66e)" d="M 227.729057 8.692716 
L 227.729057 156.907284 
L 228.140932 156.83286 
L 228.552806 156.756397 
L 228.96468 156.677894 
L 229.376555 156.597353 
L 229.788429 156.514772 
L 230.200303 156.430153 
L 230.612178 156.343494 
L 231.024052 156.254797 
L 231.435926 156.16406 
L 231.847801 156.071285 
L 232.259675 155.97647 
L 232.671549 155.879617 
L 233.083424 155.780724 
L 233.495298 155.679792 
L 233.907172 155.576822 
L 234.319047 155.471812 
L 234.730921 155.364763 
L 235.142795 155.255676 
L 235.55467 155.144549 
L 235.966544 155.031383 
L 236.378418 154.916178 
L 236.790293 154.798934 
L 237.202167 154.679652 
L 237.614041 154.55833 
L 238.025915 154.434969 
L 238.43779 154.309569 
L 238.43779 11.290431 
L 238.43779 11.290431 
L 238.025915 11.165031 
L 237.614041 11.04167 
L 237.202167 10.920348 
L 236.790293 10.801066 
L 236.378418 10.683822 
L 235.966544 10.568617 
L 235.55467 10.455451 
L 235.142795 10.344324 
L 234.730921 10.235237 
L 234.319047 10.128188 
L 233.907172 10.023178 
L 233.495298 9.920208 
L 233.083424 9.819276 
L 232.671549 9.720383 
L 232.259675 9.62353 
L 231.847801 9.528715 
L 231.435926 9.43594 
L 231.024052 9.345203 
L 230.612178 9.256506 
L 230.200303 9.169847 
L 229.788429 9.085228 
L 229.376555 9.002647 
L 228.96468 8.922106 
L 228.552806 8.843603 
L 228.140932 8.76714 
L 227.729057 8.692716 
z
" style="fill:#0000ff;fill-opacity:0.1;stroke:#0000ff;stroke-opacity:0.1;"/>
    <path clip-path="url(#pfd49f5c66e)" d="M 242.144659 11.41787 
L 242.144659 154.18213 
L 242.144659 11.41787 
L 242.144659 11.41787 
z
" style="fill:#0000ff;fill-opacity:0.1;stroke:#0000ff;stroke-opacity:0.1;"/>
    <path clip-path="url(#pfd49f5c66e)" d="M 242.968407 11.547348 
L 242.968407 154.052652 
L 243.380282 153.921135 
L 243.792156 153.787579 
L 244.20403 153.651984 
L 244.615905 153.51435 
L 245.027779 153.374677 
L 245.439653 153.232965 
L 245.851528 153.089213 
L 246.263402 152.943423 
L 246.675276 152.795594 
L 247.087151 152.645726 
L 247.499025 152.493819 
L 247.910899 152.339872 
L 248.322774 152.183887 
L 248.734648 152.025863 
L 249.146522 151.8658 
L 249.558397 151.703697 
L 249.970271 151.539556 
L 250.382145 151.373375 
L 250.79402 151.205156 
L 251.205894 151.034898 
L 251.617768 150.8626 
L 252.029642 150.688264 
L 252.441517 150.511888 
L 252.853391 150.333474 
L 253.265265 150.15302 
L 253.67714 149.970527 
L 254.089014 149.785996 
L 254.500888 149.599425 
L 254.912763 149.410816 
L 255.324637 149.220167 
L 255.736511 149.027479 
L 256.148386 148.832753 
L 256.56026 148.635987 
L 256.972134 148.437182 
L 257.384009 148.236338 
L 257.795883 148.033455 
L 258.207757 147.828534 
L 258.619632 147.621573 
L 259.031506 147.412573 
L 259.44338 147.201534 
L 259.855255 146.988456 
L 260.267129 146.773339 
L 260.679003 146.556183 
L 261.090878 146.336988 
L 261.502752 146.115754 
L 261.914626 145.892481 
L 262.326501 145.667169 
L 262.738375 145.439818 
L 263.150249 145.210428 
L 263.562124 144.978999 
L 263.973998 144.745531 
L 264.385872 144.510023 
L 264.797746 144.272477 
L 265.209621 144.032892 
L 265.621495 143.791268 
L 266.033369 143.547604 
L 266.445244 143.301902 
L 266.857118 143.054161 
L 267.268992 142.80438 
L 267.680867 142.552561 
L 268.092741 142.298703 
L 268.504615 142.042805 
L 268.91649 141.784869 
L 269.328364 141.524893 
L 269.740238 141.262879 
L 270.152113 140.998825 
L 270.563987 140.732733 
L 270.975861 140.464601 
L 271.387736 140.194431 
L 271.79961 139.922221 
L 272.211484 139.647973 
L 272.623359 139.371685 
L 273.035233 139.093358 
L 273.447107 138.812993 
L 273.858982 138.530588 
L 274.270856 138.246144 
L 274.68273 137.959661 
L 275.094605 137.67114 
L 275.506479 137.380579 
L 275.918353 137.087979 
L 276.330228 136.79334 
L 276.742102 136.496662 
L 277.153976 136.197945 
L 277.56585 135.897189 
L 277.977725 135.594394 
L 278.389599 135.28956 
L 278.801473 134.982687 
L 279.213348 134.673775 
L 279.625222 134.362824 
L 280.037096 134.049834 
L 280.448971 133.734805 
L 280.860845 133.417737 
L 281.272719 133.09863 
L 281.684594 132.777484 
L 282.096468 132.454299 
L 282.508342 132.129074 
L 282.920217 131.801811 
L 283.332091 131.472509 
L 283.743965 131.141168 
L 284.15584 130.807787 
L 284.567714 130.472368 
L 284.979588 130.13491 
L 285.391463 129.795412 
L 285.803337 129.453876 
L 286.215211 129.110301 
L 286.627086 128.764686 
L 287.03896 128.417033 
L 287.450834 128.06734 
L 287.862709 127.715609 
L 288.274583 127.361838 
L 288.686457 127.006029 
L 289.098332 126.64818 
L 289.510206 126.288292 
L 289.92208 125.926366 
L 290.333954 125.5624 
L 290.745829 125.196396 
L 291.157703 124.828352 
L 291.569577 124.458269 
L 291.981452 124.086147 
L 292.393326 123.711987 
L 292.8052 123.335787 
L 293.217075 122.957548 
L 293.628949 122.57727 
L 294.040823 122.194953 
L 294.452698 121.810598 
L 294.864572 121.424203 
L 295.276446 121.035769 
L 295.688321 120.645296 
L 296.100195 120.252784 
L 296.512069 119.858233 
L 296.923944 119.461643 
L 297.335818 119.063014 
L 297.747692 118.662346 
L 298.159567 118.259639 
L 298.571441 117.854893 
L 298.983315 117.448107 
L 299.39519 117.039283 
L 299.807064 116.62842 
L 300.218938 116.215518 
L 300.630813 115.800577 
L 301.042687 115.383596 
L 301.454561 114.964577 
L 301.866436 114.543519 
L 302.27831 114.120422 
L 302.690184 113.695285 
L 303.102059 113.26811 
L 303.513933 112.838895 
L 303.925807 112.407642 
L 304.337681 111.97435 
L 304.749556 111.539018 
L 305.16143 111.101648 
L 305.573304 110.662238 
L 305.985179 110.22079 
L 306.397053 109.777302 
L 306.808927 109.331776 
L 307.220802 108.88421 
L 307.632676 108.434605 
L 308.04455 107.982962 
L 308.456425 107.529279 
L 308.868299 107.073557 
L 309.280173 106.615797 
L 309.692048 106.155997 
L 310.103922 105.694158 
L 310.515796 105.23028 
L 310.927671 104.764364 
L 311.339545 104.296408 
L 311.751419 103.826413 
L 312.163294 103.354379 
L 312.575168 102.880306 
L 312.987042 102.404194 
L 313.398917 101.926043 
L 313.810791 101.445853 
L 314.222665 100.963624 
L 314.63454 100.479356 
L 315.046414 99.993049 
L 315.458288 99.504703 
L 315.870163 99.014318 
L 316.282037 98.521894 
L 316.693911 98.027431 
L 317.105785 97.530929 
L 317.51766 97.032388 
L 317.929534 96.531807 
L 318.341408 96.029188 
L 318.753283 95.52453 
L 319.165157 95.017833 
L 319.577031 94.509096 
L 319.988906 93.998321 
L 320.40078 93.485507 
L 320.812654 92.970653 
L 321.224529 92.453761 
L 321.636403 91.93483 
L 322.048277 91.413859 
L 322.460152 90.89085 
L 322.872026 90.365801 
L 323.2839 89.838714 
L 323.695775 89.309587 
L 324.107649 88.778422 
L 324.519523 88.245217 
L 324.931398 87.709974 
L 325.343272 87.172691 
L 325.755146 86.633369 
L 326.167021 86.092009 
L 326.578895 85.548609 
L 326.990769 85.00317 
L 327.402644 84.455692 
L 327.814518 83.906176 
L 327.814518 81.693824 
L 327.814518 81.693824 
L 327.402644 81.144308 
L 326.990769 80.59683 
L 326.578895 80.051391 
L 326.167021 79.507991 
L 325.755146 78.966631 
L 325.343272 78.427309 
L 324.931398 77.890026 
L 324.519523 77.354783 
L 324.107649 76.821578 
L 323.695775 76.290413 
L 323.2839 75.761286 
L 322.872026 75.234199 
L 322.460152 74.70915 
L 322.048277 74.186141 
L 321.636403 73.66517 
L 321.224529 73.146239 
L 320.812654 72.629347 
L 320.40078 72.114493 
L 319.988906 71.601679 
L 319.577031 71.090904 
L 319.165157 70.582167 
L 318.753283 70.07547 
L 318.341408 69.570812 
L 317.929534 69.068193 
L 317.51766 68.567612 
L 317.105785 68.069071 
L 316.693911 67.572569 
L 316.282037 67.078106 
L 315.870163 66.585682 
L 315.458288 66.095297 
L 315.046414 65.606951 
L 314.63454 65.120644 
L 314.222665 64.636376 
L 313.810791 64.154147 
L 313.398917 63.673957 
L 312.987042 63.195806 
L 312.575168 62.719694 
L 312.163294 62.245621 
L 311.751419 61.773587 
L 311.339545 61.303592 
L 310.927671 60.835636 
L 310.515796 60.36972 
L 310.103922 59.905842 
L 309.692048 59.444003 
L 309.280173 58.984203 
L 308.868299 58.526443 
L 308.456425 58.070721 
L 308.04455 57.617038 
L 307.632676 57.165395 
L 307.220802 56.71579 
L 306.808927 56.268224 
L 306.397053 55.822698 
L 305.985179 55.37921 
L 305.573304 54.937762 
L 305.16143 54.498352 
L 304.749556 54.060982 
L 304.337681 53.62565 
L 303.925807 53.192358 
L 303.513933 52.761105 
L 303.102059 52.33189 
L 302.690184 51.904715 
L 302.27831 51.479578 
L 301.866436 51.056481 
L 301.454561 50.635423 
L 301.042687 50.216404 
L 300.630813 49.799423 
L 300.218938 49.384482 
L 299.807064 48.97158 
L 299.39519 48.560717 
L 298.983315 48.151893 
L 298.571441 47.745107 
L 298.159567 47.340361 
L 297.747692 46.937654 
L 297.335818 46.536986 
L 296.923944 46.138357 
L 296.512069 45.741767 
L 296.100195 45.347216 
L 295.688321 44.954704 
L 295.276446 44.564231 
L 294.864572 44.175797 
L 294.452698 43.789402 
L 294.040823 43.405047 
L 293.628949 43.02273 
L 293.217075 42.642452 
L 292.8052 42.264213 
L 292.393326 41.888013 
L 291.981452 41.513853 
L 291.569577 41.141731 
L 291.157703 40.771648 
L 290.745829 40.403604 
L 290.333954 40.0376 
L 289.92208 39.673634 
L 289.510206 39.311708 
L 289.098332 38.95182 
L 288.686457 38.593971 
L 288.274583 38.238162 
L 287.862709 37.884391 
L 287.450834 37.53266 
L 287.03896 37.182967 
L 286.627086 36.835314 
L 286.215211 36.489699 
L 285.803337 36.146124 
L 285.391463 35.804588 
L 284.979588 35.46509 
L 284.567714 35.127632 
L 284.15584 34.792213 
L 283.743965 34.458832 
L 283.332091 34.127491 
L 282.920217 33.798189 
L 282.508342 33.470926 
L 282.096468 33.145701 
L 281.684594 32.822516 
L 281.272719 32.50137 
L 280.860845 32.182263 
L 280.448971 31.865195 
L 280.037096 31.550166 
L 279.625222 31.237176 
L 279.213348 30.926225 
L 278.801473 30.617313 
L 278.389599 30.31044 
L 277.977725 30.005606 
L 277.56585 29.702811 
L 277.153976 29.402055 
L 276.742102 29.103338 
L 276.330228 28.80666 
L 275.918353 28.512021 
L 275.506479 28.219421 
L 275.094605 27.92886 
L 274.68273 27.640339 
L 274.270856 27.353856 
L 273.858982 27.069412 
L 273.447107 26.787007 
L 273.035233 26.506642 
L 272.623359 26.228315 
L 272.211484 25.952027 
L 271.79961 25.677779 
L 271.387736 25.405569 
L 270.975861 25.135399 
L 270.563987 24.867267 
L 270.152113 24.601175 
L 269.740238 24.337121 
L 269.328364 24.075107 
L 268.91649 23.815131 
L 268.504615 23.557195 
L 268.092741 23.301297 
L 267.680867 23.047439 
L 267.268992 22.79562 
L 266.857118 22.545839 
L 266.445244 22.298098 
L 266.033369 22.052396 
L 265.621495 21.808732 
L 265.209621 21.567108 
L 264.797746 21.327523 
L 264.385872 21.089977 
L 263.973998 20.854469 
L 263.562124 20.621001 
L 263.150249 20.389572 
L 262.738375 20.160182 
L 262.326501 19.932831 
L 261.914626 19.707519 
L 261.502752 19.484246 
L 261.090878 19.263012 
L 260.679003 19.043817 
L 260.267129 18.826661 
L 259.855255 18.611544 
L 259.44338 18.398466 
L 259.031506 18.187427 
L 258.619632 17.978427 
L 258.207757 17.771466 
L 257.795883 17.566545 
L 257.384009 17.363662 
L 256.972134 17.162818 
L 256.56026 16.964013 
L 256.148386 16.767247 
L 255.736511 16.572521 
L 255.324637 16.379833 
L 254.912763 16.189184 
L 254.500888 16.000575 
L 254.089014 15.814004 
L 253.67714 15.629473 
L 253.265265 15.44698 
L 252.853391 15.266526 
L 252.441517 15.088112 
L 252.029642 14.911736 
L 251.617768 14.7374 
L 251.205894 14.565102 
L 250.79402 14.394844 
L 250.382145 14.226625 
L 249.970271 14.060444 
L 249.558397 13.896303 
L 249.146522 13.7342 
L 248.734648 13.574137 
L 248.322774 13.416113 
L 247.910899 13.260128 
L 247.499025 13.106181 
L 247.087151 12.954274 
L 246.675276 12.804406 
L 246.263402 12.656577 
L 245.851528 12.510787 
L 245.439653 12.367035 
L 245.027779 12.225323 
L 244.615905 12.08565 
L 244.20403 11.948016 
L 243.792156 11.812421 
L 243.380282 11.678865 
L 242.968407 11.547348 
z
" style="fill:#0000ff;fill-opacity:0.1;stroke:#0000ff;stroke-opacity:0.1;"/>
    <path clip-path="url(#pfd49f5c66e)" d="M 377.651311 82.24538 
L 377.651311 83.35462 
L 377.651311 82.24538 
L 377.651311 82.24538 
z
" style="fill:#0000ff;fill-opacity:0.1;stroke:#0000ff;stroke-opacity:0.1;"/>
   </g>
   <g id="matplotlib.axis_1">
    <g id="xtick_1">
     <g id="line2d_1">
      <defs>
       <path d="M 0 0 
L 0 3.5 
" id="m9c100ca759" style="stroke:#000000;stroke-width:0.8;"/>
      </defs>
      <g>
       <use style="stroke:#000000;stroke-width:0.8;" x="71.010878" xlink:href="#m9c100ca759" y="162"/>
      </g>
     </g>
     <g id="text_1">
      <!-- 1940 -->
      <g transform="translate(58.285878 176.598438)scale(0.1 -0.1)">
       <defs>
        <path d="M 794 531 
L 1825 531 
L 1825 4091 
L 703 3866 
L 703 4441 
L 1819 4666 
L 2450 4666 
L 2450 531 
L 3481 531 
L 3481 0 
L 794 0 
L 794 531 
z
" id="DejaVuSans-31" transform="scale(0.015625)"/>
        <path d="M 703 97 
L 703 672 
Q 941 559 1184 500 
Q 1428 441 1663 441 
Q 2288 441 2617 861 
Q 2947 1281 2994 2138 
Q 2813 1869 2534 1725 
Q 2256 1581 1919 1581 
Q 1219 1581 811 2004 
Q 403 2428 403 3163 
Q 403 3881 828 4315 
Q 1253 4750 1959 4750 
Q 2769 4750 3195 4129 
Q 3622 3509 3622 2328 
Q 3622 1225 3098 567 
Q 2575 -91 1691 -91 
Q 1453 -91 1209 -44 
Q 966 3 703 97 
z
M 1959 2075 
Q 2384 2075 2632 2365 
Q 2881 2656 2881 3163 
Q 2881 3666 2632 3958 
Q 2384 4250 1959 4250 
Q 1534 4250 1286 3958 
Q 1038 3666 1038 3163 
Q 1038 2656 1286 2365 
Q 1534 2075 1959 2075 
z
" id="DejaVuSans-39" transform="scale(0.015625)"/>
        <path d="M 2419 4116 
L 825 1625 
L 2419 1625 
L 2419 4116 
z
M 2253 4666 
L 3047 4666 
L 3047 1625 
L 3713 1625 
L 3713 1100 
L 3047 1100 
L 3047 0 
L 2419 0 
L 2419 1100 
L 313 1100 
L 313 1709 
L 2253 4666 
z
" id="DejaVuSans-34" transform="scale(0.015625)"/>
        <path d="M 2034 4250 
Q 1547 4250 1301 3770 
Q 1056 3291 1056 2328 
Q 1056 1369 1301 889 
Q 1547 409 2034 409 
Q 2525 409 2770 889 
Q 3016 1369 3016 2328 
Q 3016 3291 2770 3770 
Q 2525 4250 2034 4250 
z
M 2034 4750 
Q 2819 4750 3233 4129 
Q 3647 3509 3647 2328 
Q 3647 1150 3233 529 
Q 2819 -91 2034 -91 
Q 1250 -91 836 529 
Q 422 1150 422 2328 
Q 422 3509 836 4129 
Q 1250 4750 2034 4750 
z
" id="DejaVuSans-30" transform="scale(0.015625)"/>
       </defs>
       <use xlink:href="#DejaVuSans-31"/>
       <use x="63.623047" xlink:href="#DejaVuSans-39"/>
       <use x="127.246094" xlink:href="#DejaVuSans-34"/>
       <use x="190.869141" xlink:href="#DejaVuSans-30"/>
      </g>
     </g>
    </g>
    <g id="xtick_2">
     <g id="line2d_2">
      <g>
       <use style="stroke:#000000;stroke-width:0.8;" x="120.435796" xlink:href="#m9c100ca759" y="162"/>
      </g>
     </g>
     <g id="text_2">
      <!-- 1950 -->
      <g transform="translate(107.710796 176.598438)scale(0.1 -0.1)">
       <defs>
        <path d="M 691 4666 
L 3169 4666 
L 3169 4134 
L 1269 4134 
L 1269 2991 
Q 1406 3038 1543 3061 
Q 1681 3084 1819 3084 
Q 2600 3084 3056 2656 
Q 3513 2228 3513 1497 
Q 3513 744 3044 326 
Q 2575 -91 1722 -91 
Q 1428 -91 1123 -41 
Q 819 9 494 109 
L 494 744 
Q 775 591 1075 516 
Q 1375 441 1709 441 
Q 2250 441 2565 725 
Q 2881 1009 2881 1497 
Q 2881 1984 2565 2268 
Q 2250 2553 1709 2553 
Q 1456 2553 1204 2497 
Q 953 2441 691 2322 
L 691 4666 
z
" id="DejaVuSans-35" transform="scale(0.015625)"/>
       </defs>
       <use xlink:href="#DejaVuSans-31"/>
       <use x="63.623047" xlink:href="#DejaVuSans-39"/>
       <use x="127.246094" xlink:href="#DejaVuSans-35"/>
       <use x="190.869141" xlink:href="#DejaVuSans-30"/>
      </g>
     </g>
    </g>
    <g id="xtick_3">
     <g id="line2d_3">
      <g>
       <use style="stroke:#000000;stroke-width:0.8;" x="169.860715" xlink:href="#m9c100ca759" y="162"/>
      </g>
     </g>
     <g id="text_3">
      <!-- 1960 -->
      <g transform="translate(157.135715 176.598438)scale(0.1 -0.1)">
       <defs>
        <path d="M 2113 2584 
Q 1688 2584 1439 2293 
Q 1191 2003 1191 1497 
Q 1191 994 1439 701 
Q 1688 409 2113 409 
Q 2538 409 2786 701 
Q 3034 994 3034 1497 
Q 3034 2003 2786 2293 
Q 2538 2584 2113 2584 
z
M 3366 4563 
L 3366 3988 
Q 3128 4100 2886 4159 
Q 2644 4219 2406 4219 
Q 1781 4219 1451 3797 
Q 1122 3375 1075 2522 
Q 1259 2794 1537 2939 
Q 1816 3084 2150 3084 
Q 2853 3084 3261 2657 
Q 3669 2231 3669 1497 
Q 3669 778 3244 343 
Q 2819 -91 2113 -91 
Q 1303 -91 875 529 
Q 447 1150 447 2328 
Q 447 3434 972 4092 
Q 1497 4750 2381 4750 
Q 2619 4750 2861 4703 
Q 3103 4656 3366 4563 
z
" id="DejaVuSans-36" transform="scale(0.015625)"/>
       </defs>
       <use xlink:href="#DejaVuSans-31"/>
       <use x="63.623047" xlink:href="#DejaVuSans-39"/>
       <use x="127.246094" xlink:href="#DejaVuSans-36"/>
       <use x="190.869141" xlink:href="#DejaVuSans-30"/>
      </g>
     </g>
    </g>
    <g id="xtick_4">
     <g id="line2d_4">
      <g>
       <use style="stroke:#000000;stroke-width:0.8;" x="219.285634" xlink:href="#m9c100ca759" y="162"/>
      </g>
     </g>
     <g id="text_4">
      <!-- 1970 -->
      <g transform="translate(206.560634 176.598438)scale(0.1 -0.1)">
       <defs>
        <path d="M 525 4666 
L 3525 4666 
L 3525 4397 
L 1831 0 
L 1172 0 
L 2766 4134 
L 525 4134 
L 525 4666 
z
" id="DejaVuSans-37" transform="scale(0.015625)"/>
       </defs>
       <use xlink:href="#DejaVuSans-31"/>
       <use x="63.623047" xlink:href="#DejaVuSans-39"/>
       <use x="127.246094" xlink:href="#DejaVuSans-37"/>
       <use x="190.869141" xlink:href="#DejaVuSans-30"/>
      </g>
     </g>
    </g>
    <g id="xtick_5">
     <g id="line2d_5">
      <g>
       <use style="stroke:#000000;stroke-width:0.8;" x="268.710553" xlink:href="#m9c100ca759" y="162"/>
      </g>
     </g>
     <g id="text_5">
      <!-- 1980 -->
      <g transform="translate(255.985553 176.598438)scale(0.1 -0.1)">
       <defs>
        <path d="M 2034 2216 
Q 1584 2216 1326 1975 
Q 1069 1734 1069 1313 
Q 1069 891 1326 650 
Q 1584 409 2034 409 
Q 2484 409 2743 651 
Q 3003 894 3003 1313 
Q 3003 1734 2745 1975 
Q 2488 2216 2034 2216 
z
M 1403 2484 
Q 997 2584 770 2862 
Q 544 3141 544 3541 
Q 544 4100 942 4425 
Q 1341 4750 2034 4750 
Q 2731 4750 3128 4425 
Q 3525 4100 3525 3541 
Q 3525 3141 3298 2862 
Q 3072 2584 2669 2484 
Q 3125 2378 3379 2068 
Q 3634 1759 3634 1313 
Q 3634 634 3220 271 
Q 2806 -91 2034 -91 
Q 1263 -91 848 271 
Q 434 634 434 1313 
Q 434 1759 690 2068 
Q 947 2378 1403 2484 
z
M 1172 3481 
Q 1172 3119 1398 2916 
Q 1625 2713 2034 2713 
Q 2441 2713 2670 2916 
Q 2900 3119 2900 3481 
Q 2900 3844 2670 4047 
Q 2441 4250 2034 4250 
Q 1625 4250 1398 4047 
Q 1172 3844 1172 3481 
z
" id="DejaVuSans-38" transform="scale(0.015625)"/>
       </defs>
       <use xlink:href="#DejaVuSans-31"/>
       <use x="63.623047" xlink:href="#DejaVuSans-39"/>
       <use x="127.246094" xlink:href="#DejaVuSans-38"/>
       <use x="190.869141" xlink:href="#DejaVuSans-30"/>
      </g>
     </g>
    </g>
    <g id="xtick_6">
     <g id="line2d_6">
      <g>
       <use style="stroke:#000000;stroke-width:0.8;" x="318.135471" xlink:href="#m9c100ca759" y="162"/>
      </g>
     </g>
     <g id="text_6">
      <!-- 1990 -->
      <g transform="translate(305.410471 176.598438)scale(0.1 -0.1)">
       <use xlink:href="#DejaVuSans-31"/>
       <use x="63.623047" xlink:href="#DejaVuSans-39"/>
       <use x="127.246094" xlink:href="#DejaVuSans-39"/>
       <use x="190.869141" xlink:href="#DejaVuSans-30"/>
      </g>
     </g>
    </g>
    <g id="xtick_7">
     <g id="line2d_7">
      <g>
       <use style="stroke:#000000;stroke-width:0.8;" x="367.56039" xlink:href="#m9c100ca759" y="162"/>
      </g>
     </g>
     <g id="text_7">
      <!-- 2000 -->
      <g transform="translate(354.83539 176.598438)scale(0.1 -0.1)">
       <defs>
        <path d="M 1228 531 
L 3431 531 
L 3431 0 
L 469 0 
L 469 531 
Q 828 903 1448 1529 
Q 2069 2156 2228 2338 
Q 2531 2678 2651 2914 
Q 2772 3150 2772 3378 
Q 2772 3750 2511 3984 
Q 2250 4219 1831 4219 
Q 1534 4219 1204 4116 
Q 875 4013 500 3803 
L 500 4441 
Q 881 4594 1212 4672 
Q 1544 4750 1819 4750 
Q 2544 4750 2975 4387 
Q 3406 4025 3406 3419 
Q 3406 3131 3298 2873 
Q 3191 2616 2906 2266 
Q 2828 2175 2409 1742 
Q 1991 1309 1228 531 
z
" id="DejaVuSans-32" transform="scale(0.015625)"/>
       </defs>
       <use xlink:href="#DejaVuSans-32"/>
       <use x="63.623047" xlink:href="#DejaVuSans-30"/>
       <use x="127.246094" xlink:href="#DejaVuSans-30"/>
       <use x="190.869141" xlink:href="#DejaVuSans-30"/>
      </g>
     </g>
    </g>
   </g>
   <g id="matplotlib.axis_2">
    <g id="ytick_1">
     <g id="line2d_8">
      <defs>
       <path d="M 0 0 
L -3.5 0 
" id="m4132c20c7a" style="stroke:#000000;stroke-width:0.8;"/>
      </defs>
      <g>
       <use style="stroke:#000000;stroke-width:0.8;" x="34.56" xlink:href="#m4132c20c7a" y="135.84967"/>
      </g>
     </g>
     <g id="text_8">
      <!-- −50 -->
      <g transform="translate(6.455313 139.648888)scale(0.1 -0.1)">
       <defs>
        <path d="M 678 2272 
L 4684 2272 
L 4684 1741 
L 678 1741 
L 678 2272 
z
" id="DejaVuSans-2212" transform="scale(0.015625)"/>
       </defs>
       <use xlink:href="#DejaVuSans-2212"/>
       <use x="83.789062" xlink:href="#DejaVuSans-35"/>
       <use x="147.412109" xlink:href="#DejaVuSans-30"/>
      </g>
     </g>
    </g>
    <g id="ytick_2">
     <g id="line2d_9">
      <g>
       <use style="stroke:#000000;stroke-width:0.8;" x="34.56" xlink:href="#m4132c20c7a" y="109.324835"/>
      </g>
     </g>
     <g id="text_9">
      <!-- −25 -->
      <g transform="translate(6.455313 113.124054)scale(0.1 -0.1)">
       <use xlink:href="#DejaVuSans-2212"/>
       <use x="83.789062" xlink:href="#DejaVuSans-32"/>
       <use x="147.412109" xlink:href="#DejaVuSans-35"/>
      </g>
     </g>
    </g>
    <g id="ytick_3">
     <g id="line2d_10">
      <g>
       <use style="stroke:#000000;stroke-width:0.8;" x="34.56" xlink:href="#m4132c20c7a" y="82.8"/>
      </g>
     </g>
     <g id="text_10">
      <!-- 0 -->
      <g transform="translate(21.1975 86.599219)scale(0.1 -0.1)">
       <use xlink:href="#DejaVuSans-30"/>
      </g>
     </g>
    </g>
    <g id="ytick_4">
     <g id="line2d_11">
      <g>
       <use style="stroke:#000000;stroke-width:0.8;" x="34.56" xlink:href="#m4132c20c7a" y="56.275165"/>
      </g>
     </g>
     <g id="text_11">
      <!-- 25 -->
      <g transform="translate(14.835 60.074384)scale(0.1 -0.1)">
       <use xlink:href="#DejaVuSans-32"/>
       <use x="63.623047" xlink:href="#DejaVuSans-35"/>
      </g>
     </g>
    </g>
    <g id="ytick_5">
     <g id="line2d_12">
      <g>
       <use style="stroke:#000000;stroke-width:0.8;" x="34.56" xlink:href="#m4132c20c7a" y="29.75033"/>
      </g>
     </g>
     <g id="text_12">
      <!-- 50 -->
      <g transform="translate(14.835 33.549549)scale(0.1 -0.1)">
       <use xlink:href="#DejaVuSans-35"/>
       <use x="63.623047" xlink:href="#DejaVuSans-30"/>
      </g>
     </g>
    </g>
   </g>
   <g id="line2d_13">
    <path clip-path="url(#pfd49f5c66e)" d="M 73.276186 82.789696 
L 73.688061 82.859744 
L 74.099935 82.816409 
L 76.983055 81.565749 
L 78.630553 81.771924 
L 79.454301 81.551116 
L 81.101798 80.752378 
L 81.925547 80.487382 
L 83.984919 80.599551 
L 86.456165 79.544667 
L 86.868039 79.400588 
L 88.103662 79.527142 
M 89.339285 79.360473 
L 90.163034 78.909179 
M 90.986782 78.712023 
L 91.810531 78.444715 
L 93.869902 78.653573 
L 95.5174 77.872961 
M 96.341148 77.743008 
L 96.753023 77.619543 
L 97.576771 77.656075 
M 98.40052 77.74182 
L 98.812394 77.702293 
M 99.636143 77.489648 
L 101.28364 76.72774 
L 101.695515 76.568947 
L 102.107389 70.50969 
M 102.931138 70.566023 
L 103.343012 70.656677 
L 103.754886 70.628604 
L 105.814258 69.538426 
L 106.226132 69.381404 
M 107.461755 69.362718 
L 108.697378 69.447578 
L 109.109252 69.302829 
L 109.521127 69.030884 
M 110.344875 68.838443 
L 111.168624 68.50574 
L 111.580498 68.383528 
L 113.63987 68.5588 
L 114.463619 68.186363 
L 115.699242 67.555058 
L 116.52299 67.307715 
L 118.582362 67.452608 
M 119.406111 67.241986 
L 120.641733 66.630422 
L 121.053608 66.486043 
M 121.877356 66.536395 
L 122.701105 66.566075 
L 123.112979 66.648865 
L 123.524854 66.589886 
L 125.172351 65.771315 
M 129.702969 65.287655 
L 130.114843 65.073973 
M 130.938592 64.943125 
L 131.350466 64.797478 
M 136.292958 64.640561 
L 137.940455 64.76184 
L 138.352329 64.723267 
L 140.823575 63.441797 
L 141.23545 63.288399 
L 143.294821 63.374135 
M 145.354193 63.158548 
L 146.177941 62.850798 
L 146.589816 62.888447 
M 147.413564 62.925596 
L 148.237313 62.940117 
L 148.649187 62.750638 
M 154.003554 62.329451 
L 154.415428 62.107455 
M 156.4748 62.137706 
L 156.886674 62.117787 
M 165.12416 61.693633 
L 165.947909 61.417444 
L 168.007281 61.564022 
L 169.654778 60.69233 
L 170.478527 60.31771 
L 170.890401 60.151098 
L 172.537898 60.220938 
L 172.949772 60.133075 
L 175.832893 58.641074 
L 177.892264 58.653038 
L 178.716013 58.217093 
L 179.951636 57.544335 
L 181.187259 57.176267 
L 182.011008 57.136629 
L 182.422882 57.16713 
L 182.834756 57.074998 
L 185.717876 55.659844 
L 187.777248 55.6758 
L 190.248494 54.453011 
L 190.660368 54.271571 
L 192.71974 54.252985 
L 195.60286 52.896608 
L 197.250358 53.027133 
L 197.662232 52.952404 
L 200.133478 51.78639 
L 200.545352 51.638331 
L 202.604724 51.642019 
L 205.487844 50.340812 
L 207.135341 50.451026 
L 207.547216 50.389184 
L 210.430336 49.029652 
L 212.077833 49.173529 
L 212.489707 49.134423 
L 215.372828 47.724649 
L 217.020325 47.820519 
L 217.432199 47.758116 
L 219.079697 46.844093 
L 219.903445 46.501859 
L 220.31532 46.352979 
L 222.374691 46.431557 
L 224.022189 45.550784 
L 225.669686 46.25796 
L 226.493434 46.150864 
M 227.729057 46.361038 
L 229.376555 47.44246 
L 231.024052 48.054153 
L 231.847801 47.980293 
L 232.259675 48.05257 
L 235.55467 50.043395 
L 237.202167 50.113775 
L 238.43779 51.054533 
M 242.968407 51.411678 
L 244.20403 52.124735 
L 245.439653 52.766501 
L 247.087151 52.706974 
L 247.910899 53.198497 
L 249.146522 53.923892 
L 250.382145 54.538677 
L 252.029642 54.505859 
L 252.853391 54.975198 
L 253.67714 55.459793 
L 255.324637 56.29467 
L 256.972134 56.240118 
L 257.795883 56.716385 
L 259.031506 57.480743 
L 260.267129 57.992777 
L 261.090878 57.873298 
L 261.502752 56.437901 
L 261.914626 56.497305 
L 265.209621 58.204664 
L 266.033369 58.163195 
L 266.857118 58.18689 
L 270.152113 59.971029 
L 270.975861 59.92602 
L 271.79961 59.918878 
L 275.094605 61.79962 
L 276.742102 61.845967 
L 280.448971 63.922025 
L 281.272719 63.85453 
L 281.684594 63.926725 
L 282.920217 64.715032 
L 284.979588 65.815307 
L 285.803337 65.822403 
L 286.627086 65.888696 
L 289.92208 67.790597 
L 291.569577 67.818464 
L 294.864572 69.758877 
L 296.512069 69.857279 
L 299.807064 71.880991 
L 301.454561 71.960912 
L 302.27831 72.454789 
L 303.513933 73.246324 
L 304.337681 73.611775 
L 304.749556 73.948033 
L 306.397053 74.008106 
L 310.103922 76.018259 
L 311.339545 76.030268 
L 311.751419 76.29436 
L 312.163294 76.765607 
L 312.575168 76.520753 
L 312.987042 77.007133 
L 315.046414 77.827359 
L 316.282037 77.830497 
L 317.105785 78.336299 
L 317.929534 78.870833 
L 319.577031 79.696996 
L 321.224529 79.683169 
L 322.048277 80.197284 
L 322.872026 80.770465 
L 324.107649 81.360682 
L 324.519523 81.579247 
L 326.167021 81.583386 
L 327.814518 82.599796 
M 377.651311 82.8 
" style="fill:none;stroke:#1f77b4;stroke-linecap:square;stroke-width:1.5;"/>
   </g>
   <g id="line2d_14">
    <path clip-path="url(#pfd49f5c66e)" d="M 34.56 82.8 
L 414.72 82.8 
" style="fill:none;stroke:#000000;stroke-dasharray:1.5,2.475;stroke-dashoffset:0;stroke-width:1.5;"/>
   </g>
   <g id="patch_3">
    <path d="M 34.56 162 
L 34.56 3.6 
" style="fill:none;stroke:#000000;stroke-linecap:square;stroke-linejoin:miter;stroke-width:0.8;"/>
   </g>
   <g id="patch_4">
    <path d="M 414.72 162 
L 414.72 3.6 
" style="fill:none;stroke:#000000;stroke-linecap:square;stroke-linejoin:miter;stroke-width:0.8;"/>
   </g>
   <g id="patch_5">
    <path d="M 34.56 162 
L 414.72 162 
" style="fill:none;stroke:#000000;stroke-linecap:square;stroke-linejoin:miter;stroke-width:0.8;"/>
   </g>
   <g id="patch_6">
    <path d="M 34.56 3.6 
L 414.72 3.6 
" style="fill:none;stroke:#000000;stroke-linecap:square;stroke-linejoin:miter;stroke-width:0.8;"/>
   </g>
  </g>
 </g>
 <defs>
  <clipPath id="pfd49f5c66e">
   <rect height="158.4" width="380.16" x="34.56" y="3.6"/>
  </clipPath>
 </defs>
</svg>
