<?xml version="1.0" encoding="utf-8" standalone="no"?>
<!DOCTYPE svg PUBLIC "-//W3C//DTD SVG 1.1//EN"
  "http://www.w3.org/Graphics/SVG/1.1/DTD/svg11.dtd">
<svg height="180pt" version="1.1" viewBox="0 0 432 180" width="432pt" xmlns="http://www.w3.org/2000/svg" xmlns:xlink="http://www.w3.org/1999/xlink">
 <metadata>
  <rdf:RDF xmlns:cc="http://creativecommons.org/ns#" xmlns:dc="http://purl.org/dc/elements/1.1/" xmlns:rdf="http://www.w3.org/1999/02/22-rdf-syntax-ns#">
   <cc:Work>
    <dc:type rdf:resource="http://purl.org/dc/dcmitype/StillImage"/>
    <dc:date>2021-08-12T10:41:49.152885</dc:date>
    <dc:format>image/svg+xml</dc:format>
    <dc:creator>
     <cc:Agent>
      <dc:title>Matplotlib v3.4.2, https://matplotlib.org/</dc:title>
     </cc:Agent>
    </dc:creator>
   </cc:Work>
  </rdf:RDF>
 </metadata>
 <defs>
  <style type="text/css">*{stroke-linecap:butt;stroke-linejoin:round;}</style>
 </defs>
 <g id="figure_1">
  <g id="patch_1">
   <path d="M 0 180 
L 432 180 
L 432 0 
L 0 0 
z
" style="fill:#ffffff;"/>
  </g>
  <g id="axes_1">
   <g id="patch_2">
    <path d="M 34.56 162 
L 414.72 162 
L 414.72 3.6 
L 34.56 3.6 
z
" style="fill:#ffffff;"/>
   </g>
   <g id="PolyCollection_1">
    <path clip-path="url(#pf82f110758)" d="M 91.019406 82.071226 
L 91.019406 83.528774 
L 91.646733 84.252255 
L 92.274059 84.972215 
L 92.901386 85.688654 
L 93.528713 86.401573 
L 94.15604 87.110971 
L 94.783366 87.816848 
L 95.410693 88.519205 
L 96.03802 89.218041 
L 96.665347 89.913357 
L 97.292673 90.605152 
L 97.92 91.293427 
L 98.547327 91.978181 
L 99.174653 92.659414 
L 99.80198 93.337127 
L 100.429307 94.011319 
L 101.056634 94.681991 
L 101.68396 95.349142 
L 102.311287 96.012773 
L 102.938614 96.672883 
L 103.565941 97.329472 
L 104.193267 97.982541 
L 104.820594 98.632089 
L 105.447921 99.278116 
L 106.075248 99.920623 
L 106.702574 100.55961 
L 107.329901 101.195076 
L 107.957228 101.827021 
L 108.584554 102.455445 
L 109.211881 103.080349 
L 109.839208 103.701733 
L 110.466535 104.319596 
L 111.093861 104.933938 
L 111.721188 105.54476 
L 112.348515 106.152061 
L 112.975842 106.755841 
L 113.603168 107.356101 
L 114.230495 107.952841 
L 114.857822 108.546059 
L 115.485149 109.135758 
L 116.112475 109.721935 
L 116.739802 110.304592 
L 117.367129 110.883729 
L 117.994455 111.459345 
L 118.621782 112.03144 
L 119.249109 112.600014 
L 119.876436 113.165069 
L 120.503762 113.726602 
L 121.131089 114.284615 
L 121.758416 114.839107 
L 122.385743 115.390079 
L 123.013069 115.93753 
L 123.640396 116.481461 
L 124.267723 117.021871 
L 124.89505 117.55876 
L 125.522376 118.092129 
L 126.149703 118.621977 
L 126.77703 119.148305 
L 127.404356 119.671112 
L 128.031683 120.190398 
L 128.65901 120.706164 
L 129.286337 121.218409 
L 129.913663 121.727134 
L 130.54099 122.232338 
L 131.168317 122.734022 
L 131.795644 123.232185 
L 132.42297 123.726827 
L 133.050297 124.217949 
L 133.677624 124.70555 
L 134.30495 125.189631 
L 134.932277 125.670191 
L 135.559604 126.14723 
L 135.559604 39.45277 
L 135.559604 39.45277 
L 134.932277 39.929809 
L 134.30495 40.410369 
L 133.677624 40.89445 
L 133.050297 41.382051 
L 132.42297 41.873173 
L 131.795644 42.367815 
L 131.168317 42.865978 
L 130.54099 43.367662 
L 129.913663 43.872866 
L 129.286337 44.381591 
L 128.65901 44.893836 
L 128.031683 45.409602 
L 127.404356 45.928888 
L 126.77703 46.451695 
L 126.149703 46.978023 
L 125.522376 47.507871 
L 124.89505 48.04124 
L 124.267723 48.578129 
L 123.640396 49.118539 
L 123.013069 49.66247 
L 122.385743 50.209921 
L 121.758416 50.760893 
L 121.131089 51.315385 
L 120.503762 51.873398 
L 119.876436 52.434931 
L 119.249109 52.999986 
L 118.621782 53.56856 
L 117.994455 54.140655 
L 117.367129 54.716271 
L 116.739802 55.295408 
L 116.112475 55.878065 
L 115.485149 56.464242 
L 114.857822 57.053941 
L 114.230495 57.647159 
L 113.603168 58.243899 
L 112.975842 58.844159 
L 112.348515 59.447939 
L 111.721188 60.05524 
L 111.093861 60.666062 
L 110.466535 61.280404 
L 109.839208 61.898267 
L 109.211881 62.519651 
L 108.584554 63.144555 
L 107.957228 63.772979 
L 107.329901 64.404924 
L 106.702574 65.04039 
L 106.075248 65.679377 
L 105.447921 66.321884 
L 104.820594 66.967911 
L 104.193267 67.617459 
L 103.565941 68.270528 
L 102.938614 68.927117 
L 102.311287 69.587227 
L 101.68396 70.250858 
L 101.056634 70.918009 
L 100.429307 71.588681 
L 99.80198 72.262873 
L 99.174653 72.940586 
L 98.547327 73.621819 
L 97.92 74.306573 
L 97.292673 74.994848 
L 96.665347 75.686643 
L 96.03802 76.381959 
L 95.410693 77.080795 
L 94.783366 77.783152 
L 94.15604 78.489029 
L 93.528713 79.198427 
L 92.901386 79.911346 
L 92.274059 80.627785 
L 91.646733 81.347745 
L 91.019406 82.071226 
z
" style="fill:#0000ff;fill-opacity:0.1;stroke:#0000ff;stroke-opacity:0.1;"/>
    <path clip-path="url(#pf82f110758)" d="M 142.460198 38.979251 
L 142.460198 126.620749 
L 143.087525 127.090747 
L 143.714851 127.557225 
L 144.342178 128.020182 
L 144.969505 128.479618 
L 145.596832 128.935534 
L 146.224158 129.38793 
L 146.851485 129.836804 
L 146.851485 35.763196 
L 146.851485 35.763196 
L 146.224158 36.21207 
L 145.596832 36.664466 
L 144.969505 37.120382 
L 144.342178 37.579818 
L 143.714851 38.042775 
L 143.087525 38.509253 
L 142.460198 38.979251 
z
" style="fill:#0000ff;fill-opacity:0.1;stroke:#0000ff;stroke-opacity:0.1;"/>
    <path clip-path="url(#pf82f110758)" d="M 148.106139 35.317842 
L 148.106139 130.282158 
L 148.733465 130.723992 
L 149.360792 131.162305 
L 149.988119 131.597097 
L 150.615446 132.028369 
L 151.242772 132.45612 
L 151.870099 132.880351 
L 152.497426 133.301061 
L 153.124752 133.718251 
L 153.752079 134.131919 
L 154.379406 134.542068 
L 155.006733 134.948695 
L 155.634059 135.351803 
L 156.261386 135.751389 
L 156.888713 136.147455 
L 157.51604 136.54 
L 158.143366 136.929025 
L 158.770693 137.314529 
L 159.39802 137.696513 
L 160.025347 138.074976 
L 160.652673 138.449918 
L 161.28 138.82134 
L 161.907327 139.189241 
L 162.534653 139.553622 
L 163.16198 139.914482 
L 163.789307 140.271822 
L 164.416634 140.625641 
L 165.04396 140.975939 
L 165.671287 141.322717 
L 166.298614 141.665974 
L 166.925941 142.00571 
L 167.553267 142.341926 
L 168.180594 142.674622 
L 168.807921 143.003797 
L 169.435248 143.329451 
L 170.062574 143.651584 
L 170.689901 143.970197 
L 171.317228 144.28529 
L 171.944554 144.596862 
L 172.571881 144.904913 
L 173.199208 145.209444 
L 173.826535 145.510454 
L 174.453861 145.807943 
L 175.081188 146.101912 
L 175.708515 146.392361 
L 176.335842 146.679289 
L 176.963168 146.962696 
L 177.590495 147.242582 
L 178.217822 147.518948 
L 178.845149 147.791794 
L 179.472475 148.061119 
L 180.099802 148.326923 
L 180.727129 148.589207 
L 181.354455 148.84797 
L 181.981782 149.103212 
L 182.609109 149.354934 
L 183.236436 149.603135 
L 183.863762 149.847816 
L 184.491089 150.088976 
L 185.118416 150.326616 
L 185.745743 150.560735 
L 186.373069 150.791333 
L 187.000396 151.018411 
L 187.627723 151.241968 
L 188.25505 151.462005 
L 188.882376 151.678521 
L 189.509703 151.891516 
L 190.13703 152.100991 
L 190.764356 152.306946 
L 191.391683 152.509379 
L 192.01901 152.708292 
L 192.646337 152.903685 
L 193.273663 153.095557 
L 193.90099 153.283908 
L 194.528317 153.468739 
L 195.155644 153.650049 
L 195.78297 153.827839 
L 196.410297 154.002108 
L 197.037624 154.172856 
L 197.66495 154.340084 
L 198.292277 154.503791 
L 198.919604 154.663978 
L 199.546931 154.820644 
L 200.174257 154.97379 
L 200.801584 155.123414 
L 201.428911 155.269519 
L 202.056238 155.412102 
L 202.683564 155.551166 
L 203.310891 155.686708 
L 203.938218 155.81873 
L 204.565545 155.947232 
L 205.192871 156.072212 
L 205.820198 156.193673 
L 206.447525 156.311612 
L 207.074851 156.426031 
L 207.702178 156.53693 
L 208.329505 156.644308 
L 208.956832 156.748165 
L 209.584158 156.848502 
L 210.211485 156.945318 
L 210.838812 157.038613 
L 211.466139 157.128388 
L 212.093465 157.214643 
L 212.720792 157.297376 
L 213.348119 157.37659 
L 213.975446 157.452282 
L 214.602772 157.524454 
L 215.230099 157.593106 
L 215.857426 157.658236 
L 216.484752 157.719847 
L 217.112079 157.777936 
L 217.739406 157.832505 
L 218.366733 157.883554 
L 218.994059 157.931082 
L 219.621386 157.975089 
L 220.248713 158.015576 
L 220.87604 158.052542 
L 221.503366 158.085988 
L 222.130693 158.115913 
L 222.75802 158.142317 
L 223.385347 158.165201 
L 224.012673 158.184564 
L 224.64 158.200407 
L 225.267327 158.212729 
L 225.894653 158.22153 
L 226.52198 158.226811 
L 227.149307 158.228571 
L 227.776634 158.226811 
L 228.40396 158.22153 
L 229.031287 158.212729 
L 229.658614 158.200407 
L 230.285941 158.184564 
L 230.913267 158.165201 
L 231.540594 158.142317 
L 232.167921 158.115913 
L 232.795248 158.085988 
L 233.422574 158.052542 
L 234.049901 158.015576 
L 234.677228 157.975089 
L 235.304554 157.931082 
L 235.931881 157.883554 
L 236.559208 157.832505 
L 237.186535 157.777936 
L 237.813861 157.719847 
L 238.441188 157.658236 
L 239.068515 157.593106 
L 239.695842 157.524454 
L 240.323168 157.452282 
L 240.950495 157.37659 
L 241.577822 157.297376 
L 242.205149 157.214643 
L 242.832475 157.128388 
L 243.459802 157.038613 
L 244.087129 156.945318 
L 244.714455 156.848502 
L 245.341782 156.748165 
L 245.969109 156.644308 
L 246.596436 156.53693 
L 247.223762 156.426031 
L 247.851089 156.311612 
L 248.478416 156.193673 
L 249.105743 156.072212 
L 249.733069 155.947232 
L 250.360396 155.81873 
L 250.987723 155.686708 
L 251.61505 155.551166 
L 252.242376 155.412102 
L 252.869703 155.269519 
L 253.49703 155.123414 
L 254.124356 154.97379 
L 254.751683 154.820644 
L 255.37901 154.663978 
L 256.006337 154.503791 
L 256.633663 154.340084 
L 257.26099 154.172856 
L 257.888317 154.002108 
L 258.515644 153.827839 
L 259.14297 153.650049 
L 259.770297 153.468739 
L 260.397624 153.283908 
L 261.02495 153.095557 
L 261.652277 152.903685 
L 262.279604 152.708292 
L 262.906931 152.509379 
L 263.534257 152.306946 
L 264.161584 152.100991 
L 264.788911 151.891516 
L 265.416238 151.678521 
L 266.043564 151.462005 
L 266.670891 151.241968 
L 267.298218 151.018411 
L 267.925545 150.791333 
L 268.552871 150.560735 
L 269.180198 150.326616 
L 269.807525 150.088976 
L 270.434851 149.847816 
L 271.062178 149.603135 
L 271.689505 149.354934 
L 272.316832 149.103212 
L 272.944158 148.84797 
L 273.571485 148.589207 
L 274.198812 148.326923 
L 274.826139 148.061119 
L 275.453465 147.791794 
L 276.080792 147.518948 
L 276.708119 147.242582 
L 277.335446 146.962696 
L 277.962772 146.679289 
L 278.590099 146.392361 
L 279.217426 146.101912 
L 279.844752 145.807943 
L 280.472079 145.510454 
L 281.099406 145.209444 
L 281.726733 144.904913 
L 282.354059 144.596862 
L 282.981386 144.28529 
L 283.608713 143.970197 
L 284.23604 143.651584 
L 284.863366 143.329451 
L 285.490693 143.003797 
L 286.11802 142.674622 
L 286.745347 142.341926 
L 286.745347 23.258074 
L 286.745347 23.258074 
L 286.11802 22.925378 
L 285.490693 22.596203 
L 284.863366 22.270549 
L 284.23604 21.948416 
L 283.608713 21.629803 
L 282.981386 21.31471 
L 282.354059 21.003138 
L 281.726733 20.695087 
L 281.099406 20.390556 
L 280.472079 20.089546 
L 279.844752 19.792057 
L 279.217426 19.498088 
L 278.590099 19.207639 
L 277.962772 18.920711 
L 277.335446 18.637304 
L 276.708119 18.357418 
L 276.080792 18.081052 
L 275.453465 17.808206 
L 274.826139 17.538881 
L 274.198812 17.273077 
L 273.571485 17.010793 
L 272.944158 16.75203 
L 272.316832 16.496788 
L 271.689505 16.245066 
L 271.062178 15.996865 
L 270.434851 15.752184 
L 269.807525 15.511024 
L 269.180198 15.273384 
L 268.552871 15.039265 
L 267.925545 14.808667 
L 267.298218 14.581589 
L 266.670891 14.358032 
L 266.043564 14.137995 
L 265.416238 13.921479 
L 264.788911 13.708484 
L 264.161584 13.499009 
L 263.534257 13.293054 
L 262.906931 13.090621 
L 262.279604 12.891708 
L 261.652277 12.696315 
L 261.02495 12.504443 
L 260.397624 12.316092 
L 259.770297 12.131261 
L 259.14297 11.949951 
L 258.515644 11.772161 
L 257.888317 11.597892 
L 257.26099 11.427144 
L 256.633663 11.259916 
L 256.006337 11.096209 
L 255.37901 10.936022 
L 254.751683 10.779356 
L 254.124356 10.62621 
L 253.49703 10.476586 
L 252.869703 10.330481 
L 252.242376 10.187898 
L 251.61505 10.048834 
L 250.987723 9.913292 
L 250.360396 9.78127 
L 249.733069 9.652768 
L 249.105743 9.527788 
L 248.478416 9.406327 
L 247.851089 9.288388 
L 247.223762 9.173969 
L 246.596436 9.06307 
L 245.969109 8.955692 
L 245.341782 8.851835 
L 244.714455 8.751498 
L 244.087129 8.654682 
L 243.459802 8.561387 
L 242.832475 8.471612 
L 242.205149 8.385357 
L 241.577822 8.302624 
L 240.950495 8.22341 
L 240.323168 8.147718 
L 239.695842 8.075546 
L 239.068515 8.006894 
L 238.441188 7.941764 
L 237.813861 7.880153 
L 237.186535 7.822064 
L 236.559208 7.767495 
L 235.931881 7.716446 
L 235.304554 7.668918 
L 234.677228 7.624911 
L 234.049901 7.584424 
L 233.422574 7.547458 
L 232.795248 7.514012 
L 232.167921 7.484087 
L 231.540594 7.457683 
L 230.913267 7.434799 
L 230.285941 7.415436 
L 229.658614 7.399593 
L 229.031287 7.387271 
L 228.40396 7.37847 
L 227.776634 7.373189 
L 227.149307 7.371429 
L 226.52198 7.373189 
L 225.894653 7.37847 
L 225.267327 7.387271 
L 224.64 7.399593 
L 224.012673 7.415436 
L 223.385347 7.434799 
L 222.75802 7.457683 
L 222.130693 7.484087 
L 221.503366 7.514012 
L 220.87604 7.547458 
L 220.248713 7.584424 
L 219.621386 7.624911 
L 218.994059 7.668918 
L 218.366733 7.716446 
L 217.739406 7.767495 
L 217.112079 7.822064 
L 216.484752 7.880153 
L 215.857426 7.941764 
L 215.230099 8.006894 
L 214.602772 8.075546 
L 213.975446 8.147718 
L 213.348119 8.22341 
L 212.720792 8.302624 
L 212.093465 8.385357 
L 211.466139 8.471612 
L 210.838812 8.561387 
L 210.211485 8.654682 
L 209.584158 8.751498 
L 208.956832 8.851835 
L 208.329505 8.955692 
L 207.702178 9.06307 
L 207.074851 9.173969 
L 206.447525 9.288388 
L 205.820198 9.406327 
L 205.192871 9.527788 
L 204.565545 9.652768 
L 203.938218 9.78127 
L 203.310891 9.913292 
L 202.683564 10.048834 
L 202.056238 10.187898 
L 201.428911 10.330481 
L 200.801584 10.476586 
L 200.174257 10.62621 
L 199.546931 10.779356 
L 198.919604 10.936022 
L 198.292277 11.096209 
L 197.66495 11.259916 
L 197.037624 11.427144 
L 196.410297 11.597892 
L 195.78297 11.772161 
L 195.155644 11.949951 
L 194.528317 12.131261 
L 193.90099 12.316092 
L 193.273663 12.504443 
L 192.646337 12.696315 
L 192.01901 12.891708 
L 191.391683 13.090621 
L 190.764356 13.293054 
L 190.13703 13.499009 
L 189.509703 13.708484 
L 188.882376 13.921479 
L 188.25505 14.137995 
L 187.627723 14.358032 
L 187.000396 14.581589 
L 186.373069 14.808667 
L 185.745743 15.039265 
L 185.118416 15.273384 
L 184.491089 15.511024 
L 183.863762 15.752184 
L 183.236436 15.996865 
L 182.609109 16.245066 
L 181.981782 16.496788 
L 181.354455 16.75203 
L 180.727129 17.010793 
L 180.099802 17.273077 
L 179.472475 17.538881 
L 178.845149 17.808206 
L 178.217822 18.081052 
L 177.590495 18.357418 
L 176.963168 18.637304 
L 176.335842 18.920711 
L 175.708515 19.207639 
L 175.081188 19.498088 
L 174.453861 19.792057 
L 173.826535 20.089546 
L 173.199208 20.390556 
L 172.571881 20.695087 
L 171.944554 21.003138 
L 171.317228 21.31471 
L 170.689901 21.629803 
L 170.062574 21.948416 
L 169.435248 22.270549 
L 168.807921 22.596203 
L 168.180594 22.925378 
L 167.553267 23.258074 
L 166.925941 23.59429 
L 166.298614 23.934026 
L 165.671287 24.277283 
L 165.04396 24.624061 
L 164.416634 24.974359 
L 163.789307 25.328178 
L 163.16198 25.685518 
L 162.534653 26.046378 
L 161.907327 26.410759 
L 161.28 26.77866 
L 160.652673 27.150082 
L 160.025347 27.525024 
L 159.39802 27.903487 
L 158.770693 28.285471 
L 158.143366 28.670975 
L 157.51604 29.06 
L 156.888713 29.452545 
L 156.261386 29.848611 
L 155.634059 30.248197 
L 155.006733 30.651305 
L 154.379406 31.057932 
L 153.752079 31.468081 
L 153.124752 31.881749 
L 152.497426 32.298939 
L 151.870099 32.719649 
L 151.242772 33.14388 
L 150.615446 33.571631 
L 149.988119 34.002903 
L 149.360792 34.437695 
L 148.733465 34.876008 
L 148.106139 35.317842 
z
" style="fill:#0000ff;fill-opacity:0.1;stroke:#0000ff;stroke-opacity:0.1;"/>
    <path clip-path="url(#pf82f110758)" d="M 289.254653 23.59429 
L 289.254653 142.00571 
L 289.88198 141.665974 
L 290.509307 141.322717 
L 291.136634 140.975939 
L 291.76396 140.625641 
L 292.391287 140.271822 
L 293.018614 139.914482 
L 293.645941 139.553622 
L 294.273267 139.189241 
L 294.900594 138.82134 
L 295.527921 138.449918 
L 296.155248 138.074976 
L 296.782574 137.696513 
L 297.409901 137.314529 
L 298.037228 136.929025 
L 298.664554 136.54 
L 299.291881 136.147455 
L 299.919208 135.751389 
L 300.546535 135.351803 
L 301.173861 134.948695 
L 301.801188 134.542068 
L 302.428515 134.131919 
L 303.055842 133.718251 
L 303.683168 133.301061 
L 304.310495 132.880351 
L 304.937822 132.45612 
L 305.565149 132.028369 
L 306.192475 131.597097 
L 306.819802 131.162305 
L 307.447129 130.723992 
L 308.074455 130.282158 
L 308.701782 129.836804 
L 309.329109 129.38793 
L 309.956436 128.935534 
L 310.583762 128.479618 
L 311.211089 128.020182 
L 311.838416 127.557225 
L 312.465743 127.090747 
L 313.093069 126.620749 
L 313.720396 126.14723 
L 314.347723 125.670191 
L 314.97505 125.189631 
L 315.602376 124.70555 
L 316.229703 124.217949 
L 316.85703 123.726827 
L 317.484356 123.232185 
L 318.111683 122.734022 
L 318.73901 122.232338 
L 319.366337 121.727134 
L 319.993663 121.218409 
L 320.62099 120.706164 
L 321.248317 120.190398 
L 321.875644 119.671112 
L 322.50297 119.148305 
L 323.130297 118.621977 
L 323.757624 118.092129 
L 324.38495 117.55876 
L 325.012277 117.021871 
L 325.639604 116.481461 
L 326.266931 115.93753 
L 326.894257 115.390079 
L 327.521584 114.839107 
L 328.148911 114.284615 
L 328.776238 113.726602 
L 329.403564 113.165069 
L 330.030891 112.600014 
L 330.658218 112.03144 
L 331.285545 111.459345 
L 331.912871 110.883729 
L 332.540198 110.304592 
L 333.167525 109.721935 
L 333.794851 109.135758 
L 334.422178 108.546059 
L 335.049505 107.952841 
L 335.676832 107.356101 
L 336.304158 106.755841 
L 336.931485 106.152061 
L 337.558812 105.54476 
L 338.186139 104.933938 
L 338.813465 104.319596 
L 339.440792 103.701733 
L 340.068119 103.080349 
L 340.695446 102.455445 
L 341.322772 101.827021 
L 341.950099 101.195076 
L 342.577426 100.55961 
L 343.204752 99.920623 
L 343.832079 99.278116 
L 344.459406 98.632089 
L 345.086733 97.982541 
L 345.714059 97.329472 
L 346.341386 96.672883 
L 346.968713 96.012773 
L 347.59604 95.349142 
L 348.223366 94.681991 
L 348.850693 94.011319 
L 349.47802 93.337127 
L 350.105347 92.659414 
L 350.732673 91.978181 
L 351.36 91.293427 
L 351.987327 90.605152 
L 352.614653 89.913357 
L 353.24198 89.218041 
L 353.869307 88.519205 
L 354.496634 87.816848 
L 355.12396 87.110971 
L 355.751287 86.401573 
L 356.378614 85.688654 
L 357.005941 84.972215 
L 357.633267 84.252255 
L 358.260594 83.528774 
L 358.260594 82.071226 
L 358.260594 82.071226 
L 357.633267 81.347745 
L 357.005941 80.627785 
L 356.378614 79.911346 
L 355.751287 79.198427 
L 355.12396 78.489029 
L 354.496634 77.783152 
L 353.869307 77.080795 
L 353.24198 76.381959 
L 352.614653 75.686643 
L 351.987327 74.994848 
L 351.36 74.306573 
L 350.732673 73.621819 
L 350.105347 72.940586 
L 349.47802 72.262873 
L 348.850693 71.588681 
L 348.223366 70.918009 
L 347.59604 70.250858 
L 346.968713 69.587227 
L 346.341386 68.927117 
L 345.714059 68.270528 
L 345.086733 67.617459 
L 344.459406 66.967911 
L 343.832079 66.321884 
L 343.204752 65.679377 
L 342.577426 65.04039 
L 341.950099 64.404924 
L 341.322772 63.772979 
L 340.695446 63.144555 
L 340.068119 62.519651 
L 339.440792 61.898267 
L 338.813465 61.280404 
L 338.186139 60.666062 
L 337.558812 60.05524 
L 336.931485 59.447939 
L 336.304158 58.844159 
L 335.676832 58.243899 
L 335.049505 57.647159 
L 334.422178 57.053941 
L 333.794851 56.464242 
L 333.167525 55.878065 
L 332.540198 55.295408 
L 331.912871 54.716271 
L 331.285545 54.140655 
L 330.658218 53.56856 
L 330.030891 52.999986 
L 329.403564 52.434931 
L 328.776238 51.873398 
L 328.148911 51.315385 
L 327.521584 50.760893 
L 326.894257 50.209921 
L 326.266931 49.66247 
L 325.639604 49.118539 
L 325.012277 48.578129 
L 324.38495 48.04124 
L 323.757624 47.507871 
L 323.130297 46.978023 
L 322.50297 46.451695 
L 321.875644 45.928888 
L 321.248317 45.409602 
L 320.62099 44.893836 
L 319.993663 44.381591 
L 319.366337 43.872866 
L 318.73901 43.367662 
L 318.111683 42.865978 
L 317.484356 42.367815 
L 316.85703 41.873173 
L 316.229703 41.382051 
L 315.602376 40.89445 
L 314.97505 40.410369 
L 314.347723 39.929809 
L 313.720396 39.45277 
L 313.093069 38.979251 
L 312.465743 38.509253 
L 311.838416 38.042775 
L 311.211089 37.579818 
L 310.583762 37.120382 
L 309.956436 36.664466 
L 309.329109 36.21207 
L 308.701782 35.763196 
L 308.074455 35.317842 
L 307.447129 34.876008 
L 306.819802 34.437695 
L 306.192475 34.002903 
L 305.565149 33.571631 
L 304.937822 33.14388 
L 304.310495 32.719649 
L 303.683168 32.298939 
L 303.055842 31.881749 
L 302.428515 31.468081 
L 301.801188 31.057932 
L 301.173861 30.651305 
L 300.546535 30.248197 
L 299.919208 29.848611 
L 299.291881 29.452545 
L 298.664554 29.06 
L 298.037228 28.670975 
L 297.409901 28.285471 
L 296.782574 27.903487 
L 296.155248 27.525024 
L 295.527921 27.150082 
L 294.900594 26.77866 
L 294.273267 26.410759 
L 293.645941 26.046378 
L 293.018614 25.685518 
L 292.391287 25.328178 
L 291.76396 24.974359 
L 291.136634 24.624061 
L 290.509307 24.277283 
L 289.88198 23.934026 
L 289.254653 23.59429 
z
" style="fill:#0000ff;fill-opacity:0.1;stroke:#0000ff;stroke-opacity:0.1;"/>
   </g>
   <g id="matplotlib.axis_1">
    <g id="xtick_1">
     <g id="line2d_1">
      <defs>
       <path d="M 0 0 
L 0 3.5 
" id="mee41c323c5" style="stroke:#000000;stroke-width:0.8;"/>
      </defs>
      <g>
       <use style="stroke:#000000;stroke-width:0.8;" x="53.066139" xlink:href="#mee41c323c5" y="162"/>
      </g>
     </g>
     <g id="text_1">
      <!-- 1980 -->
      <g transform="translate(40.341139 176.598438)scale(0.1 -0.1)">
       <defs>
        <path d="M 794 531 
L 1825 531 
L 1825 4091 
L 703 3866 
L 703 4441 
L 1819 4666 
L 2450 4666 
L 2450 531 
L 3481 531 
L 3481 0 
L 794 0 
L 794 531 
z
" id="DejaVuSans-31" transform="scale(0.015625)"/>
        <path d="M 703 97 
L 703 672 
Q 941 559 1184 500 
Q 1428 441 1663 441 
Q 2288 441 2617 861 
Q 2947 1281 2994 2138 
Q 2813 1869 2534 1725 
Q 2256 1581 1919 1581 
Q 1219 1581 811 2004 
Q 403 2428 403 3163 
Q 403 3881 828 4315 
Q 1253 4750 1959 4750 
Q 2769 4750 3195 4129 
Q 3622 3509 3622 2328 
Q 3622 1225 3098 567 
Q 2575 -91 1691 -91 
Q 1453 -91 1209 -44 
Q 966 3 703 97 
z
M 1959 2075 
Q 2384 2075 2632 2365 
Q 2881 2656 2881 3163 
Q 2881 3666 2632 3958 
Q 2384 4250 1959 4250 
Q 1534 4250 1286 3958 
Q 1038 3666 1038 3163 
Q 1038 2656 1286 2365 
Q 1534 2075 1959 2075 
z
" id="DejaVuSans-39" transform="scale(0.015625)"/>
        <path d="M 2034 2216 
Q 1584 2216 1326 1975 
Q 1069 1734 1069 1313 
Q 1069 891 1326 650 
Q 1584 409 2034 409 
Q 2484 409 2743 651 
Q 3003 894 3003 1313 
Q 3003 1734 2745 1975 
Q 2488 2216 2034 2216 
z
M 1403 2484 
Q 997 2584 770 2862 
Q 544 3141 544 3541 
Q 544 4100 942 4425 
Q 1341 4750 2034 4750 
Q 2731 4750 3128 4425 
Q 3525 4100 3525 3541 
Q 3525 3141 3298 2862 
Q 3072 2584 2669 2484 
Q 3125 2378 3379 2068 
Q 3634 1759 3634 1313 
Q 3634 634 3220 271 
Q 2806 -91 2034 -91 
Q 1263 -91 848 271 
Q 434 634 434 1313 
Q 434 1759 690 2068 
Q 947 2378 1403 2484 
z
M 1172 3481 
Q 1172 3119 1398 2916 
Q 1625 2713 2034 2713 
Q 2441 2713 2670 2916 
Q 2900 3119 2900 3481 
Q 2900 3844 2670 4047 
Q 2441 4250 2034 4250 
Q 1625 4250 1398 4047 
Q 1172 3844 1172 3481 
z
" id="DejaVuSans-38" transform="scale(0.015625)"/>
        <path d="M 2034 4250 
Q 1547 4250 1301 3770 
Q 1056 3291 1056 2328 
Q 1056 1369 1301 889 
Q 1547 409 2034 409 
Q 2525 409 2770 889 
Q 3016 1369 3016 2328 
Q 3016 3291 2770 3770 
Q 2525 4250 2034 4250 
z
M 2034 4750 
Q 2819 4750 3233 4129 
Q 3647 3509 3647 2328 
Q 3647 1150 3233 529 
Q 2819 -91 2034 -91 
Q 1250 -91 836 529 
Q 422 1150 422 2328 
Q 422 3509 836 4129 
Q 1250 4750 2034 4750 
z
" id="DejaVuSans-30" transform="scale(0.015625)"/>
       </defs>
       <use xlink:href="#DejaVuSans-31"/>
       <use x="63.623047" xlink:href="#DejaVuSans-39"/>
       <use x="127.246094" xlink:href="#DejaVuSans-38"/>
       <use x="190.869141" xlink:href="#DejaVuSans-30"/>
      </g>
     </g>
    </g>
    <g id="xtick_2">
     <g id="line2d_2">
      <g>
       <use style="stroke:#000000;stroke-width:0.8;" x="128.345347" xlink:href="#mee41c323c5" y="162"/>
      </g>
     </g>
     <g id="text_2">
      <!-- 1990 -->
      <g transform="translate(115.620347 176.598438)scale(0.1 -0.1)">
       <use xlink:href="#DejaVuSans-31"/>
       <use x="63.623047" xlink:href="#DejaVuSans-39"/>
       <use x="127.246094" xlink:href="#DejaVuSans-39"/>
       <use x="190.869141" xlink:href="#DejaVuSans-30"/>
      </g>
     </g>
    </g>
    <g id="xtick_3">
     <g id="line2d_3">
      <g>
       <use style="stroke:#000000;stroke-width:0.8;" x="203.624554" xlink:href="#mee41c323c5" y="162"/>
      </g>
     </g>
     <g id="text_3">
      <!-- 2000 -->
      <g transform="translate(190.899554 176.598438)scale(0.1 -0.1)">
       <defs>
        <path d="M 1228 531 
L 3431 531 
L 3431 0 
L 469 0 
L 469 531 
Q 828 903 1448 1529 
Q 2069 2156 2228 2338 
Q 2531 2678 2651 2914 
Q 2772 3150 2772 3378 
Q 2772 3750 2511 3984 
Q 2250 4219 1831 4219 
Q 1534 4219 1204 4116 
Q 875 4013 500 3803 
L 500 4441 
Q 881 4594 1212 4672 
Q 1544 4750 1819 4750 
Q 2544 4750 2975 4387 
Q 3406 4025 3406 3419 
Q 3406 3131 3298 2873 
Q 3191 2616 2906 2266 
Q 2828 2175 2409 1742 
Q 1991 1309 1228 531 
z
" id="DejaVuSans-32" transform="scale(0.015625)"/>
       </defs>
       <use xlink:href="#DejaVuSans-32"/>
       <use x="63.623047" xlink:href="#DejaVuSans-30"/>
       <use x="127.246094" xlink:href="#DejaVuSans-30"/>
       <use x="190.869141" xlink:href="#DejaVuSans-30"/>
      </g>
     </g>
    </g>
    <g id="xtick_4">
     <g id="line2d_4">
      <g>
       <use style="stroke:#000000;stroke-width:0.8;" x="278.903762" xlink:href="#mee41c323c5" y="162"/>
      </g>
     </g>
     <g id="text_4">
      <!-- 2010 -->
      <g transform="translate(266.178762 176.598438)scale(0.1 -0.1)">
       <use xlink:href="#DejaVuSans-32"/>
       <use x="63.623047" xlink:href="#DejaVuSans-30"/>
       <use x="127.246094" xlink:href="#DejaVuSans-31"/>
       <use x="190.869141" xlink:href="#DejaVuSans-30"/>
      </g>
     </g>
    </g>
    <g id="xtick_5">
     <g id="line2d_5">
      <g>
       <use style="stroke:#000000;stroke-width:0.8;" x="354.18297" xlink:href="#mee41c323c5" y="162"/>
      </g>
     </g>
     <g id="text_5">
      <!-- 2020 -->
      <g transform="translate(341.45797 176.598438)scale(0.1 -0.1)">
       <use xlink:href="#DejaVuSans-32"/>
       <use x="63.623047" xlink:href="#DejaVuSans-30"/>
       <use x="127.246094" xlink:href="#DejaVuSans-32"/>
       <use x="190.869141" xlink:href="#DejaVuSans-30"/>
      </g>
     </g>
    </g>
   </g>
   <g id="matplotlib.axis_2">
    <g id="ytick_1">
     <g id="line2d_6">
      <defs>
       <path d="M 0 0 
L -3.5 0 
" id="m179c4751c6" style="stroke:#000000;stroke-width:0.8;"/>
      </defs>
      <g>
       <use style="stroke:#000000;stroke-width:0.8;" x="34.56" xlink:href="#m179c4751c6" y="160.775035"/>
      </g>
     </g>
     <g id="text_6">
      <!-- −60 -->
      <g transform="translate(6.455313 164.574254)scale(0.1 -0.1)">
       <defs>
        <path d="M 678 2272 
L 4684 2272 
L 4684 1741 
L 678 1741 
L 678 2272 
z
" id="DejaVuSans-2212" transform="scale(0.015625)"/>
        <path d="M 2113 2584 
Q 1688 2584 1439 2293 
Q 1191 2003 1191 1497 
Q 1191 994 1439 701 
Q 1688 409 2113 409 
Q 2538 409 2786 701 
Q 3034 994 3034 1497 
Q 3034 2003 2786 2293 
Q 2538 2584 2113 2584 
z
M 3366 4563 
L 3366 3988 
Q 3128 4100 2886 4159 
Q 2644 4219 2406 4219 
Q 1781 4219 1451 3797 
Q 1122 3375 1075 2522 
Q 1259 2794 1537 2939 
Q 1816 3084 2150 3084 
Q 2853 3084 3261 2657 
Q 3669 2231 3669 1497 
Q 3669 778 3244 343 
Q 2819 -91 2113 -91 
Q 1303 -91 875 529 
Q 447 1150 447 2328 
Q 447 3434 972 4092 
Q 1497 4750 2381 4750 
Q 2619 4750 2861 4703 
Q 3103 4656 3366 4563 
z
" id="DejaVuSans-36" transform="scale(0.015625)"/>
       </defs>
       <use xlink:href="#DejaVuSans-2212"/>
       <use x="83.789062" xlink:href="#DejaVuSans-36"/>
       <use x="147.412109" xlink:href="#DejaVuSans-30"/>
      </g>
     </g>
    </g>
    <g id="ytick_2">
     <g id="line2d_7">
      <g>
       <use style="stroke:#000000;stroke-width:0.8;" x="34.56" xlink:href="#m179c4751c6" y="134.783357"/>
      </g>
     </g>
     <g id="text_7">
      <!-- −40 -->
      <g transform="translate(6.455313 138.582576)scale(0.1 -0.1)">
       <defs>
        <path d="M 2419 4116 
L 825 1625 
L 2419 1625 
L 2419 4116 
z
M 2253 4666 
L 3047 4666 
L 3047 1625 
L 3713 1625 
L 3713 1100 
L 3047 1100 
L 3047 0 
L 2419 0 
L 2419 1100 
L 313 1100 
L 313 1709 
L 2253 4666 
z
" id="DejaVuSans-34" transform="scale(0.015625)"/>
       </defs>
       <use xlink:href="#DejaVuSans-2212"/>
       <use x="83.789062" xlink:href="#DejaVuSans-34"/>
       <use x="147.412109" xlink:href="#DejaVuSans-30"/>
      </g>
     </g>
    </g>
    <g id="ytick_3">
     <g id="line2d_8">
      <g>
       <use style="stroke:#000000;stroke-width:0.8;" x="34.56" xlink:href="#m179c4751c6" y="108.791678"/>
      </g>
     </g>
     <g id="text_8">
      <!-- −20 -->
      <g transform="translate(6.455313 112.590897)scale(0.1 -0.1)">
       <use xlink:href="#DejaVuSans-2212"/>
       <use x="83.789062" xlink:href="#DejaVuSans-32"/>
       <use x="147.412109" xlink:href="#DejaVuSans-30"/>
      </g>
     </g>
    </g>
    <g id="ytick_4">
     <g id="line2d_9">
      <g>
       <use style="stroke:#000000;stroke-width:0.8;" x="34.56" xlink:href="#m179c4751c6" y="82.8"/>
      </g>
     </g>
     <g id="text_9">
      <!-- 0 -->
      <g transform="translate(21.1975 86.599219)scale(0.1 -0.1)">
       <use xlink:href="#DejaVuSans-30"/>
      </g>
     </g>
    </g>
    <g id="ytick_5">
     <g id="line2d_10">
      <g>
       <use style="stroke:#000000;stroke-width:0.8;" x="34.56" xlink:href="#m179c4751c6" y="56.808322"/>
      </g>
     </g>
     <g id="text_10">
      <!-- 20 -->
      <g transform="translate(14.835 60.60754)scale(0.1 -0.1)">
       <use xlink:href="#DejaVuSans-32"/>
       <use x="63.623047" xlink:href="#DejaVuSans-30"/>
      </g>
     </g>
    </g>
    <g id="ytick_6">
     <g id="line2d_11">
      <g>
       <use style="stroke:#000000;stroke-width:0.8;" x="34.56" xlink:href="#m179c4751c6" y="30.816643"/>
      </g>
     </g>
     <g id="text_11">
      <!-- 40 -->
      <g transform="translate(14.835 34.615862)scale(0.1 -0.1)">
       <use xlink:href="#DejaVuSans-34"/>
       <use x="63.623047" xlink:href="#DejaVuSans-30"/>
      </g>
     </g>
    </g>
    <g id="ytick_7">
     <g id="line2d_12">
      <g>
       <use style="stroke:#000000;stroke-width:0.8;" x="34.56" xlink:href="#m179c4751c6" y="4.824965"/>
      </g>
     </g>
     <g id="text_12">
      <!-- 60 -->
      <g transform="translate(14.835 8.624183)scale(0.1 -0.1)">
       <use xlink:href="#DejaVuSans-36"/>
       <use x="63.623047" xlink:href="#DejaVuSans-30"/>
      </g>
     </g>
    </g>
   </g>
   <g id="line2d_13">
    <path clip-path="url(#pf82f110758)" d="M 91.019406 83.30725 
L 91.646733 83.641976 
L 94.15604 84.249785 
L 96.03802 83.809676 
L 97.292673 83.803143 
L 97.92 84.306829 
L 98.547327 84.559707 
L 99.174653 85.884158 
L 99.80198 86.443383 
L 100.429307 86.279054 
L 101.056634 86.290282 
L 104.193267 88.499452 
L 105.447921 89.142134 
L 106.075248 89.113659 
L 106.702574 89.447615 
L 107.957228 89.073092 
L 108.584554 88.928533 
L 109.211881 89.05235 
L 110.466535 90.438881 
L 111.721188 90.57022 
L 113.603168 89.574868 
L 114.857822 88.467534 
L 115.485149 88.469735 
L 116.112475 88.62113 
L 116.739802 88.272066 
L 117.994455 88.452608 
L 119.249109 87.745795 
L 119.876436 87.737611 
L 120.503762 87.420413 
L 121.758416 86.506828 
L 122.385743 86.694272 
L 123.013069 86.305253 
L 124.267723 86.875318 
L 124.89505 86.902469 
L 125.522376 86.511442 
L 126.77703 86.363542 
L 127.404356 86.41538 
L 129.286337 86.290343 
L 129.913663 86.317438 
L 130.54099 86.230993 
L 131.168317 86.470955 
L 132.42297 86.378839 
L 133.050297 86.578053 
L 133.677624 86.475978 
L 134.30495 86.680081 
L 135.559604 86.163574 
M 142.460198 86.571009 
L 143.087525 86.76995 
L 143.714851 86.074969 
L 144.342178 85.992083 
L 144.969505 85.329832 
L 145.596832 85.114543 
L 146.224158 85.415733 
L 146.851485 85.418426 
M 148.106139 85.652901 
L 148.733465 85.760643 
L 149.988119 85.270327 
L 151.242772 85.51674 
L 151.870099 85.210889 
L 152.497426 85.159687 
L 153.124752 85.448802 
L 155.006733 85.698995 
L 155.634059 85.396629 
L 156.888713 85.742416 
L 157.51604 85.622241 
L 159.39802 85.773421 
L 160.025347 85.67226 
L 160.652673 85.423463 
L 161.907327 85.287229 
L 162.534653 85.536267 
L 163.16198 85.486303 
L 163.789307 85.224241 
L 164.416634 85.27484 
L 165.04396 85.653132 
L 165.671287 85.690251 
L 168.180594 85.254159 
L 168.807921 85.54929 
L 169.435248 85.573438 
L 170.062574 85.846997 
L 170.689901 85.995581 
L 171.317228 86.360557 
L 173.199208 86.070309 
L 173.826535 85.918478 
L 174.453861 86.16771 
L 175.708515 85.970581 
L 176.335842 85.590698 
L 176.963168 85.424348 
L 177.590495 85.552968 
L 178.217822 85.835862 
L 178.845149 85.904821 
L 180.727129 85.601353 
L 181.354455 85.945284 
L 181.981782 86.127048 
L 183.236436 86.118306 
L 183.863762 86.324446 
L 186.373069 87.658373 
L 187.000396 87.516916 
L 187.627723 87.638622 
L 188.882376 87.493825 
L 190.13703 87.798768 
L 192.01901 87.581314 
L 192.646337 87.241669 
L 193.90099 87.160983 
L 194.528317 87.020374 
L 195.78297 87.201535 
L 196.410297 87.6138 
L 197.66495 87.57609 
L 198.919604 88.116715 
L 200.174257 88.445765 
L 200.801584 88.73478 
L 201.428911 89.30999 
L 205.820198 90.862724 
L 206.447525 91.20181 
L 207.074851 91.775694 
L 208.329505 92.653343 
L 208.956832 93.149268 
L 209.584158 93.249998 
L 210.211485 93.631008 
L 210.838812 93.864983 
L 212.720792 93.986526 
L 213.348119 94.265984 
L 213.975446 94.803753 
L 214.602772 95.132225 
L 215.230099 95.234061 
L 215.857426 95.623952 
L 216.484752 95.715098 
L 217.739406 96.143311 
L 218.366733 96.054767 
L 220.248713 96.448673 
L 220.87604 96.326648 
L 222.130693 96.76491 
L 222.75802 96.649903 
L 223.385347 97.049955 
L 225.894653 97.362742 
L 226.52198 97.624462 
L 227.149307 97.465363 
L 230.913267 100.240861 
L 231.540594 100.361249 
L 232.167921 100.366315 
L 232.795248 100.748922 
L 233.422574 100.883885 
L 234.049901 101.668583 
L 234.677228 101.805045 
L 236.559208 103.129719 
L 238.441188 103.306502 
L 240.323168 103.889293 
L 240.950495 103.878945 
L 242.205149 104.330977 
L 242.832475 104.863038 
L 244.714455 105.281978 
L 245.341782 105.193354 
L 246.596436 105.620503 
L 247.223762 106.108406 
L 248.478416 106.655706 
L 249.105743 107.183711 
L 250.360396 107.301329 
L 250.987723 107.092283 
L 252.242376 107.037649 
L 252.869703 107.183343 
L 253.49703 106.986221 
L 254.124356 107.818307 
L 254.751683 107.882962 
L 256.006337 107.561474 
L 256.633663 107.188362 
L 257.26099 107.406206 
L 257.888317 107.193929 
L 258.515644 107.387128 
L 259.770297 106.822896 
L 261.02495 105.770302 
L 262.279604 105.221254 
L 262.906931 104.868856 
L 263.534257 104.654707 
L 264.161584 104.59969 
L 266.043564 103.960673 
L 267.298218 104.124466 
L 267.925545 103.974692 
L 268.552871 103.709493 
L 269.180198 103.596875 
L 269.807525 103.835044 
L 271.062178 103.918506 
L 271.689505 104.209301 
L 274.826139 104.959055 
L 276.080792 104.692951 
L 277.335446 104.544133 
L 277.962772 104.632242 
L 278.590099 104.51465 
L 279.844752 104.598644 
L 280.472079 105.39511 
L 281.099406 105.424373 
L 281.726733 104.85048 
L 282.981386 104.944905 
L 283.608713 104.563386 
L 284.23604 104.394436 
L 284.863366 104.431247 
L 285.490693 104.247895 
L 286.11802 104.318721 
L 286.745347 104.687482 
M 289.254653 104.076438 
L 289.88198 103.646522 
L 291.136634 102.486551 
L 291.76396 102.229382 
L 292.391287 102.184314 
L 293.018614 102.414272 
L 294.273267 102.02148 
L 294.900594 101.892902 
L 295.527921 101.925723 
L 298.037228 100.415542 
L 298.664554 100.587427 
L 299.919208 100.418398 
L 300.546535 100.225726 
L 301.173861 100.503199 
L 301.801188 100.442797 
L 303.055842 99.091583 
L 303.683168 98.662126 
L 304.937822 97.419118 
L 305.565149 97.327323 
L 306.819802 96.73002 
L 307.447129 96.684973 
L 308.074455 96.319612 
L 311.211089 97.110335 
L 312.465743 96.790295 
L 313.720396 95.432285 
L 314.347723 95.133665 
L 314.97505 95.078029 
L 316.229703 94.540421 
L 316.85703 94.107385 
L 318.111683 94.057283 
L 319.366337 94.282151 
L 321.248317 94.101828 
L 322.50297 93.594587 
L 323.130297 93.701498 
L 323.757624 93.643781 
L 324.38495 93.720718 
L 325.012277 93.273492 
L 325.639604 93.028574 
L 326.266931 92.958917 
L 326.894257 92.576147 
L 328.776238 91.911926 
L 330.658218 91.521553 
L 331.285545 91.374855 
L 331.912871 90.78405 
L 333.167525 90.231901 
L 333.794851 89.701892 
L 335.049505 90.080206 
L 335.676832 89.89414 
L 336.931485 89.063363 
L 338.813465 87.336329 
L 339.440792 87.096891 
L 340.068119 86.978033 
L 341.950099 87.168819 
L 342.577426 86.917858 
L 343.204752 87.40643 
L 343.832079 87.706877 
L 344.459406 87.455562 
L 345.086733 87.783249 
L 345.714059 88.377023 
L 346.341386 88.306585 
L 346.968713 87.988974 
L 347.59604 88.036811 
L 348.223366 87.626227 
L 348.850693 87.772732 
L 350.732673 87.081898 
L 351.987327 86.274527 
L 352.614653 86.066801 
L 353.24198 85.562552 
L 353.869307 85.508558 
L 354.496634 85.048754 
L 355.12396 84.385361 
L 355.751287 84.086044 
L 356.378614 84.422837 
L 357.005941 83.872761 
L 357.633267 83.159024 
L 358.260594 82.8 
L 358.260594 82.8 
" style="fill:none;stroke:#1f77b4;stroke-linecap:square;stroke-width:1.5;"/>
   </g>
   <g id="line2d_14">
    <path clip-path="url(#pf82f110758)" d="M 34.56 82.8 
L 414.72 82.8 
" style="fill:none;stroke:#000000;stroke-dasharray:1.5,2.475;stroke-dashoffset:0;stroke-width:1.5;"/>
   </g>
   <g id="patch_3">
    <path d="M 34.56 162 
L 34.56 3.6 
" style="fill:none;stroke:#000000;stroke-linecap:square;stroke-linejoin:miter;stroke-width:0.8;"/>
   </g>
   <g id="patch_4">
    <path d="M 414.72 162 
L 414.72 3.6 
" style="fill:none;stroke:#000000;stroke-linecap:square;stroke-linejoin:miter;stroke-width:0.8;"/>
   </g>
   <g id="patch_5">
    <path d="M 34.56 162 
L 414.72 162 
" style="fill:none;stroke:#000000;stroke-linecap:square;stroke-linejoin:miter;stroke-width:0.8;"/>
   </g>
   <g id="patch_6">
    <path d="M 34.56 3.6 
L 414.72 3.6 
" style="fill:none;stroke:#000000;stroke-linecap:square;stroke-linejoin:miter;stroke-width:0.8;"/>
   </g>
  </g>
 </g>
 <defs>
  <clipPath id="pf82f110758">
   <rect height="158.4" width="380.16" x="34.56" y="3.6"/>
  </clipPath>
 </defs>
</svg>
