<?xml version="1.0" encoding="utf-8" standalone="no"?>
<!DOCTYPE svg PUBLIC "-//W3C//DTD SVG 1.1//EN"
  "http://www.w3.org/Graphics/SVG/1.1/DTD/svg11.dtd">
<svg height="180pt" version="1.1" viewBox="0 0 432 180" width="432pt" xmlns="http://www.w3.org/2000/svg" xmlns:xlink="http://www.w3.org/1999/xlink">
 <metadata>
  <rdf:RDF xmlns:cc="http://creativecommons.org/ns#" xmlns:dc="http://purl.org/dc/elements/1.1/" xmlns:rdf="http://www.w3.org/1999/02/22-rdf-syntax-ns#">
   <cc:Work>
    <dc:type rdf:resource="http://purl.org/dc/dcmitype/StillImage"/>
    <dc:date>2021-08-12T10:41:46.717272</dc:date>
    <dc:format>image/svg+xml</dc:format>
    <dc:creator>
     <cc:Agent>
      <dc:title>Matplotlib v3.4.2, https://matplotlib.org/</dc:title>
     </cc:Agent>
    </dc:creator>
   </cc:Work>
  </rdf:RDF>
 </metadata>
 <defs>
  <style type="text/css">*{stroke-linecap:butt;stroke-linejoin:round;}</style>
 </defs>
 <g id="figure_1">
  <g id="patch_1">
   <path d="M 0 180 
L 432 180 
L 432 0 
L 0 0 
z
" style="fill:#ffffff;"/>
  </g>
  <g id="axes_1">
   <g id="patch_2">
    <path d="M 34.56 162 
L 414.72 162 
L 414.72 3.6 
L 34.56 3.6 
z
" style="fill:#ffffff;"/>
   </g>
   <g id="PolyCollection_1">
    <defs>
     <path d="M 68.368696 -97.561767 
L 68.368696 -96.838233 
L 68.744348 -96.477768 
L 69.12 -96.118172 
L 69.495652 -95.759442 
L 69.871304 -95.401581 
L 70.246957 -95.044587 
L 70.622609 -94.68846 
L 70.998261 -94.333201 
L 71.373913 -93.978809 
L 71.749565 -93.625285 
L 72.125217 -93.272629 
L 72.50087 -92.92084 
L 72.876522 -92.569919 
L 73.252174 -92.219865 
L 73.627826 -91.870679 
L 74.003478 -91.52236 
L 74.37913 -91.174909 
L 74.754783 -90.828325 
L 75.130435 -90.482609 
L 75.506087 -90.137761 
L 75.881739 -89.79378 
L 76.257391 -89.450666 
L 76.633043 -89.10842 
L 77.008696 -88.767042 
L 77.384348 -88.426531 
L 77.76 -88.086888 
L 78.135652 -87.748112 
L 78.511304 -87.410204 
L 78.886957 -87.073163 
L 79.262609 -86.73699 
L 79.638261 -86.401684 
L 80.013913 -86.067246 
L 80.389565 -85.733676 
L 80.765217 -85.400973 
L 81.14087 -85.069138 
L 81.516522 -84.73817 
L 81.892174 -84.408069 
L 82.267826 -84.078837 
L 82.643478 -83.750472 
L 83.01913 -83.422974 
L 83.394783 -83.096344 
L 83.770435 -82.770581 
L 84.146087 -82.445686 
L 84.521739 -82.121659 
L 84.897391 -81.798499 
L 85.273043 -81.476206 
L 85.648696 -81.154781 
L 86.024348 -80.834224 
L 86.4 -80.514534 
L 86.775652 -80.195712 
L 87.151304 -79.877757 
L 87.526957 -79.56067 
L 87.902609 -79.244451 
L 88.278261 -78.929098 
L 88.653913 -78.614614 
L 89.029565 -78.300997 
L 89.405217 -77.988248 
L 89.78087 -77.676366 
L 90.156522 -77.365351 
L 90.532174 -77.055205 
L 90.907826 -76.745925 
L 91.283478 -76.437514 
L 91.65913 -76.129969 
L 92.034783 -75.823293 
L 92.410435 -75.517484 
L 92.786087 -75.212542 
L 93.161739 -74.908468 
L 93.537391 -74.605262 
L 93.913043 -74.302923 
L 94.288696 -74.001451 
L 94.664348 -73.700848 
L 95.04 -73.401111 
L 95.415652 -73.102243 
L 95.791304 -72.804241 
L 96.166957 -72.507108 
L 96.542609 -72.210842 
L 96.918261 -71.915443 
L 97.293913 -71.620912 
L 97.669565 -71.327249 
L 98.045217 -71.034453 
L 98.42087 -70.742524 
L 98.796522 -70.451463 
L 99.172174 -70.16127 
L 99.547826 -69.871944 
L 99.923478 -69.583486 
L 100.29913 -69.295895 
L 100.674783 -69.009172 
L 101.050435 -68.723317 
L 101.426087 -68.438329 
L 101.801739 -68.154208 
L 102.177391 -67.870955 
L 102.553043 -67.58857 
L 102.928696 -67.307052 
L 103.304348 -67.026402 
L 103.68 -66.746619 
L 104.055652 -66.467704 
L 104.431304 -66.189656 
L 104.806957 -65.912476 
L 105.182609 -65.636163 
L 105.558261 -65.360718 
L 105.933913 -65.086141 
L 106.309565 -64.812431 
L 106.685217 -64.539588 
L 107.06087 -64.267613 
L 107.436522 -63.996506 
L 107.812174 -63.726266 
L 108.187826 -63.456894 
L 108.563478 -63.188389 
L 108.93913 -62.920752 
L 109.314783 -62.653982 
L 109.690435 -62.38808 
L 110.066087 -62.123046 
L 110.441739 -61.858879 
L 110.817391 -61.595579 
L 111.193043 -61.333147 
L 111.568696 -61.071583 
L 111.944348 -60.810886 
L 112.32 -60.551057 
L 112.695652 -60.292095 
L 113.071304 -60.034001 
L 113.446957 -59.776774 
L 113.822609 -59.520415 
L 114.198261 -59.264924 
L 114.573913 -59.0103 
L 114.949565 -58.756543 
L 115.325217 -58.503654 
L 115.70087 -58.251633 
L 116.076522 -58.000479 
L 116.452174 -57.750193 
L 116.827826 -57.500774 
L 117.203478 -57.252223 
L 117.57913 -57.004539 
L 117.954783 -56.757723 
L 118.330435 -56.511774 
L 118.706087 -56.266693 
L 119.081739 -56.02248 
L 119.457391 -55.779134 
L 119.833043 -55.536655 
L 120.208696 -55.295045 
L 120.584348 -55.054301 
L 120.96 -54.814426 
L 121.335652 -54.575417 
L 121.711304 -54.337277 
L 122.086957 -54.100003 
L 122.462609 -53.863598 
L 122.838261 -53.62806 
L 123.213913 -53.393389 
L 123.589565 -53.159586 
L 123.965217 -52.926651 
L 124.34087 -52.694583 
L 124.716522 -52.463383 
L 125.092174 -52.23305 
L 125.467826 -52.003585 
L 125.843478 -51.774987 
L 126.21913 -51.547257 
L 126.594783 -51.320394 
L 126.970435 -51.094399 
L 127.346087 -50.869271 
L 127.721739 -50.645011 
L 128.097391 -50.421619 
L 128.473043 -50.199094 
L 128.848696 -49.977437 
L 129.224348 -49.756647 
L 129.6 -49.536725 
L 129.975652 -49.31767 
L 130.351304 -49.099483 
L 130.726957 -48.882163 
L 131.102609 -48.665711 
L 131.478261 -48.450126 
L 131.853913 -48.235409 
L 132.229565 -48.02156 
L 132.605217 -47.808578 
L 132.98087 -47.596464 
L 133.356522 -47.385217 
L 133.732174 -47.174837 
L 134.107826 -46.965326 
L 134.483478 -46.756681 
L 134.85913 -46.548905 
L 135.234783 -46.341996 
L 135.610435 -46.135954 
L 135.986087 -45.93078 
L 136.361739 -45.726474 
L 136.737391 -45.523035 
L 137.113043 -45.320463 
L 137.488696 -45.118759 
L 137.864348 -44.917923 
L 138.24 -44.717954 
L 138.615652 -44.518853 
L 138.991304 -44.320619 
L 139.366957 -44.123253 
L 139.742609 -43.926755 
L 140.118261 -43.731123 
L 140.493913 -43.53636 
L 140.869565 -43.342464 
L 141.245217 -43.149436 
L 141.62087 -42.957275 
L 141.996522 -42.765981 
L 142.372174 -42.575556 
L 142.747826 -42.385997 
L 143.123478 -42.197307 
L 143.49913 -42.009483 
L 143.874783 -41.822528 
L 144.250435 -41.63644 
L 144.626087 -41.451219 
L 145.001739 -41.266866 
L 145.377391 -41.083381 
L 145.753043 -40.900763 
L 146.128696 -40.719012 
L 146.504348 -40.53813 
L 146.88 -40.358114 
L 147.255652 -40.178967 
L 147.631304 -40.000686 
L 148.006957 -39.823274 
L 148.382609 -39.646729 
L 148.758261 -39.471051 
L 149.133913 -39.296241 
L 149.509565 -39.122299 
L 149.885217 -38.949224 
L 150.26087 -38.777016 
L 150.636522 -38.605676 
L 151.012174 -38.435204 
L 151.387826 -38.265599 
L 151.763478 -38.096862 
L 152.13913 -37.928993 
L 152.514783 -37.76199 
L 152.890435 -37.595856 
L 153.266087 -37.430589 
L 153.641739 -37.266189 
L 154.017391 -37.102657 
L 154.393043 -36.939993 
L 154.768696 -36.778196 
L 155.144348 -36.617267 
L 155.52 -36.457205 
L 155.895652 -36.298011 
L 156.271304 -36.139684 
L 156.646957 -35.982225 
L 157.022609 -35.825633 
L 157.398261 -35.669909 
L 157.773913 -35.515053 
L 158.149565 -35.361064 
L 158.525217 -35.207942 
L 158.90087 -35.055688 
L 159.276522 -34.904302 
L 159.652174 -34.753783 
L 160.027826 -34.604132 
L 160.403478 -34.455348 
L 160.77913 -34.307432 
L 161.154783 -34.160384 
L 161.530435 -34.014202 
L 161.906087 -33.868889 
L 162.281739 -33.724443 
L 162.657391 -33.580865 
L 163.033043 -33.438154 
L 163.408696 -33.29631 
L 163.784348 -33.155334 
L 164.16 -33.015226 
L 164.535652 -32.875985 
L 164.911304 -32.737612 
L 165.286957 -32.600107 
L 165.662609 -32.463468 
L 166.038261 -32.327698 
L 166.413913 -32.192795 
L 166.789565 -32.058759 
L 167.165217 -31.925592 
L 167.54087 -31.793291 
L 167.916522 -31.661858 
L 168.292174 -31.531293 
L 168.667826 -31.401595 
L 169.043478 -31.272765 
L 169.41913 -31.144802 
L 169.794783 -31.017707 
L 170.170435 -30.89148 
L 170.546087 -30.76612 
L 170.921739 -30.641627 
L 171.297391 -30.518002 
L 171.673043 -30.395245 
L 172.048696 -30.273355 
L 172.424348 -30.152333 
L 172.8 -30.032178 
L 173.175652 -29.912891 
L 173.551304 -29.794471 
L 173.926957 -29.676919 
L 174.302609 -29.560234 
L 174.678261 -29.444417 
L 175.053913 -29.329468 
L 175.429565 -29.215386 
L 175.805217 -29.102171 
L 176.18087 -28.989824 
L 176.556522 -28.878345 
L 176.932174 -28.767733 
L 177.307826 -28.657989 
L 177.683478 -28.549112 
L 178.05913 -28.441103 
L 178.434783 -28.333961 
L 178.810435 -28.227687 
L 179.186087 -28.122281 
L 179.561739 -28.017742 
L 179.937391 -27.91407 
L 180.313043 -27.811266 
L 180.688696 -27.70933 
L 181.064348 -27.608261 
L 181.44 -27.50806 
L 181.815652 -27.408726 
L 182.191304 -27.31026 
L 182.566957 -27.212661 
L 182.942609 -27.11593 
L 183.318261 -27.020067 
L 183.693913 -26.925071 
L 184.069565 -26.830942 
L 184.445217 -26.737681 
L 184.82087 -26.645288 
L 185.196522 -26.553762 
L 185.572174 -26.463104 
L 185.947826 -26.373313 
L 186.323478 -26.28439 
L 186.69913 -26.196334 
L 187.074783 -26.109146 
L 187.450435 -26.022826 
L 187.826087 -25.937372 
L 188.201739 -25.852787 
L 188.577391 -25.769069 
L 188.953043 -25.686219 
L 189.328696 -25.604236 
L 189.704348 -25.52312 
L 190.08 -25.442873 
L 190.455652 -25.363492 
L 190.831304 -25.28498 
L 191.206957 -25.207335 
L 191.582609 -25.130557 
L 191.958261 -25.054647 
L 192.333913 -24.979604 
L 192.709565 -24.905429 
L 193.085217 -24.832122 
L 193.46087 -24.759682 
L 193.836522 -24.68811 
L 194.212174 -24.617405 
L 194.587826 -24.547568 
L 194.963478 -24.478598 
L 195.33913 -24.410496 
L 195.714783 -24.343261 
L 196.090435 -24.276894 
L 196.466087 -24.211395 
L 196.841739 -24.146763 
L 197.217391 -24.082998 
L 197.593043 -24.020101 
L 197.968696 -23.958072 
L 198.344348 -23.89691 
L 198.72 -23.836616 
L 199.095652 -23.777189 
L 199.471304 -23.71863 
L 199.846957 -23.660938 
L 200.222609 -23.604114 
L 200.598261 -23.548158 
L 200.973913 -23.493069 
L 201.349565 -23.438847 
L 201.725217 -23.385493 
L 202.10087 -23.333007 
L 202.476522 -23.281388 
L 202.852174 -23.230637 
L 203.227826 -23.180753 
L 203.603478 -23.131737 
L 203.97913 -23.083588 
L 204.354783 -23.036307 
L 204.730435 -22.989893 
L 205.106087 -22.944347 
L 205.481739 -22.899669 
L 205.857391 -22.855858 
L 206.233043 -22.812915 
L 206.608696 -22.770839 
L 206.984348 -22.72963 
L 207.36 -22.68929 
L 207.735652 -22.649816 
L 208.111304 -22.611211 
L 208.486957 -22.573473 
L 208.862609 -22.536602 
L 209.238261 -22.500599 
L 209.613913 -22.465463 
L 209.989565 -22.431195 
L 210.365217 -22.397795 
L 210.74087 -22.365262 
L 211.116522 -22.333597 
L 211.492174 -22.302799 
L 211.867826 -22.272869 
L 212.243478 -22.243806 
L 212.61913 -22.215611 
L 212.994783 -22.188283 
L 213.370435 -22.161823 
L 213.746087 -22.136231 
L 214.121739 -22.111506 
L 214.497391 -22.087648 
L 214.873043 -22.064658 
L 215.248696 -22.042536 
L 215.624348 -22.021281 
L 216 -22.000894 
L 216.375652 -21.981374 
L 216.751304 -21.962722 
L 217.126957 -21.944937 
L 217.502609 -21.92802 
L 217.878261 -21.911971 
L 218.253913 -21.896789 
L 218.629565 -21.882474 
L 219.005217 -21.869027 
L 219.38087 -21.856448 
L 219.756522 -21.844736 
L 220.132174 -21.833892 
L 220.507826 -21.823915 
L 220.883478 -21.814806 
L 221.25913 -21.806564 
L 221.634783 -21.79919 
L 222.010435 -21.792683 
L 222.386087 -21.787044 
L 222.761739 -21.782273 
L 223.137391 -21.778369 
L 223.513043 -21.775333 
L 223.888696 -21.773164 
L 224.264348 -21.771862 
L 224.64 -21.771429 
L 225.015652 -21.771862 
L 225.391304 -21.773164 
L 225.766957 -21.775333 
L 226.142609 -21.778369 
L 226.518261 -21.782273 
L 226.893913 -21.787044 
L 227.269565 -21.792683 
L 227.645217 -21.79919 
L 228.02087 -21.806564 
L 228.396522 -21.814806 
L 228.772174 -21.823915 
L 229.147826 -21.833892 
L 229.523478 -21.844736 
L 229.89913 -21.856448 
L 230.274783 -21.869027 
L 230.650435 -21.882474 
L 231.026087 -21.896789 
L 231.401739 -21.911971 
L 231.777391 -21.92802 
L 232.153043 -21.944937 
L 232.528696 -21.962722 
L 232.904348 -21.981374 
L 233.28 -22.000894 
L 233.655652 -22.021281 
L 234.031304 -22.042536 
L 234.406957 -22.064658 
L 234.782609 -22.087648 
L 235.158261 -22.111506 
L 235.533913 -22.136231 
L 235.909565 -22.161823 
L 236.285217 -22.188283 
L 236.66087 -22.215611 
L 237.036522 -22.243806 
L 237.412174 -22.272869 
L 237.787826 -22.302799 
L 238.163478 -22.333597 
L 238.53913 -22.365262 
L 238.914783 -22.397795 
L 239.290435 -22.431195 
L 239.666087 -22.465463 
L 240.041739 -22.500599 
L 240.417391 -22.536602 
L 240.793043 -22.573473 
L 241.168696 -22.611211 
L 241.544348 -22.649816 
L 241.92 -22.68929 
L 242.295652 -22.72963 
L 242.671304 -22.770839 
L 243.046957 -22.812915 
L 243.422609 -22.855858 
L 243.798261 -22.899669 
L 244.173913 -22.944347 
L 244.549565 -22.989893 
L 244.925217 -23.036307 
L 245.30087 -23.083588 
L 245.676522 -23.131737 
L 246.052174 -23.180753 
L 246.427826 -23.230637 
L 246.803478 -23.281388 
L 247.17913 -23.333007 
L 247.554783 -23.385493 
L 247.930435 -23.438847 
L 248.306087 -23.493069 
L 248.681739 -23.548158 
L 249.057391 -23.604114 
L 249.433043 -23.660938 
L 249.808696 -23.71863 
L 250.184348 -23.777189 
L 250.56 -23.836616 
L 250.935652 -23.89691 
L 251.311304 -23.958072 
L 251.686957 -24.020101 
L 252.062609 -24.082998 
L 252.438261 -24.146763 
L 252.813913 -24.211395 
L 253.189565 -24.276894 
L 253.565217 -24.343261 
L 253.94087 -24.410496 
L 254.316522 -24.478598 
L 254.692174 -24.547568 
L 255.067826 -24.617405 
L 255.443478 -24.68811 
L 255.81913 -24.759682 
L 256.194783 -24.832122 
L 256.570435 -24.905429 
L 256.946087 -24.979604 
L 257.321739 -25.054647 
L 257.697391 -25.130557 
L 258.073043 -25.207335 
L 258.448696 -25.28498 
L 258.824348 -25.363492 
L 259.2 -25.442873 
L 259.575652 -25.52312 
L 259.951304 -25.604236 
L 260.326957 -25.686219 
L 260.702609 -25.769069 
L 261.078261 -25.852787 
L 261.453913 -25.937372 
L 261.829565 -26.022826 
L 262.205217 -26.109146 
L 262.58087 -26.196334 
L 262.956522 -26.28439 
L 263.332174 -26.373313 
L 263.707826 -26.463104 
L 264.083478 -26.553762 
L 264.45913 -26.645288 
L 264.834783 -26.737681 
L 265.210435 -26.830942 
L 265.586087 -26.925071 
L 265.961739 -27.020067 
L 266.337391 -27.11593 
L 266.713043 -27.212661 
L 267.088696 -27.31026 
L 267.464348 -27.408726 
L 267.84 -27.50806 
L 268.215652 -27.608261 
L 268.591304 -27.70933 
L 268.966957 -27.811266 
L 269.342609 -27.91407 
L 269.718261 -28.017742 
L 270.093913 -28.122281 
L 270.469565 -28.227687 
L 270.845217 -28.333961 
L 271.22087 -28.441103 
L 271.596522 -28.549112 
L 271.972174 -28.657989 
L 272.347826 -28.767733 
L 272.723478 -28.878345 
L 273.09913 -28.989824 
L 273.474783 -29.102171 
L 273.850435 -29.215386 
L 274.226087 -29.329468 
L 274.601739 -29.444417 
L 274.977391 -29.560234 
L 275.353043 -29.676919 
L 275.728696 -29.794471 
L 276.104348 -29.912891 
L 276.48 -30.032178 
L 276.855652 -30.152333 
L 277.231304 -30.273355 
L 277.606957 -30.395245 
L 277.982609 -30.518002 
L 278.358261 -30.641627 
L 278.733913 -30.76612 
L 279.109565 -30.89148 
L 279.485217 -31.017707 
L 279.86087 -31.144802 
L 280.236522 -31.272765 
L 280.612174 -31.401595 
L 280.987826 -31.531293 
L 281.363478 -31.661858 
L 281.73913 -31.793291 
L 282.114783 -31.925592 
L 282.490435 -32.058759 
L 282.866087 -32.192795 
L 283.241739 -32.327698 
L 283.617391 -32.463468 
L 283.993043 -32.600107 
L 284.368696 -32.737612 
L 284.744348 -32.875985 
L 285.12 -33.015226 
L 285.495652 -33.155334 
L 285.871304 -33.29631 
L 286.246957 -33.438154 
L 286.622609 -33.580865 
L 286.998261 -33.724443 
L 287.373913 -33.868889 
L 287.749565 -34.014202 
L 288.125217 -34.160384 
L 288.50087 -34.307432 
L 288.876522 -34.455348 
L 289.252174 -34.604132 
L 289.627826 -34.753783 
L 290.003478 -34.904302 
L 290.37913 -35.055688 
L 290.754783 -35.207942 
L 291.130435 -35.361064 
L 291.506087 -35.515053 
L 291.881739 -35.669909 
L 292.257391 -35.825633 
L 292.633043 -35.982225 
L 293.008696 -36.139684 
L 293.384348 -36.298011 
L 293.76 -36.457205 
L 294.135652 -36.617267 
L 294.511304 -36.778196 
L 294.886957 -36.939993 
L 295.262609 -37.102657 
L 295.638261 -37.266189 
L 296.013913 -37.430589 
L 296.389565 -37.595856 
L 296.765217 -37.76199 
L 297.14087 -37.928993 
L 297.516522 -38.096862 
L 297.892174 -38.265599 
L 298.267826 -38.435204 
L 298.643478 -38.605676 
L 299.01913 -38.777016 
L 299.394783 -38.949224 
L 299.770435 -39.122299 
L 300.146087 -39.296241 
L 300.521739 -39.471051 
L 300.897391 -39.646729 
L 301.273043 -39.823274 
L 301.648696 -40.000686 
L 302.024348 -40.178967 
L 302.4 -40.358114 
L 302.775652 -40.53813 
L 303.151304 -40.719012 
L 303.526957 -40.900763 
L 303.902609 -41.083381 
L 304.278261 -41.266866 
L 304.653913 -41.451219 
L 305.029565 -41.63644 
L 305.405217 -41.822528 
L 305.78087 -42.009483 
L 306.156522 -42.197307 
L 306.532174 -42.385997 
L 306.907826 -42.575556 
L 307.283478 -42.765981 
L 307.65913 -42.957275 
L 308.034783 -43.149436 
L 308.410435 -43.342464 
L 308.786087 -43.53636 
L 309.161739 -43.731123 
L 309.537391 -43.926755 
L 309.913043 -44.123253 
L 310.288696 -44.320619 
L 310.664348 -44.518853 
L 311.04 -44.717954 
L 311.415652 -44.917923 
L 311.791304 -45.118759 
L 312.166957 -45.320463 
L 312.542609 -45.523035 
L 312.918261 -45.726474 
L 313.293913 -45.93078 
L 313.669565 -46.135954 
L 314.045217 -46.341996 
L 314.42087 -46.548905 
L 314.796522 -46.756681 
L 315.172174 -46.965326 
L 315.547826 -47.174837 
L 315.923478 -47.385217 
L 316.29913 -47.596464 
L 316.674783 -47.808578 
L 317.050435 -48.02156 
L 317.426087 -48.235409 
L 317.801739 -48.450126 
L 318.177391 -48.665711 
L 318.553043 -48.882163 
L 318.928696 -49.099483 
L 319.304348 -49.31767 
L 319.68 -49.536725 
L 320.055652 -49.756647 
L 320.431304 -49.977437 
L 320.806957 -50.199094 
L 321.182609 -50.421619 
L 321.558261 -50.645011 
L 321.933913 -50.869271 
L 322.309565 -51.094399 
L 322.685217 -51.320394 
L 323.06087 -51.547257 
L 323.436522 -51.774987 
L 323.812174 -52.003585 
L 324.187826 -52.23305 
L 324.563478 -52.463383 
L 324.93913 -52.694583 
L 325.314783 -52.926651 
L 325.690435 -53.159586 
L 326.066087 -53.393389 
L 326.441739 -53.62806 
L 326.817391 -53.863598 
L 327.193043 -54.100003 
L 327.568696 -54.337277 
L 327.944348 -54.575417 
L 328.32 -54.814426 
L 328.695652 -55.054301 
L 329.071304 -55.295045 
L 329.446957 -55.536655 
L 329.822609 -55.779134 
L 330.198261 -56.02248 
L 330.573913 -56.266693 
L 330.949565 -56.511774 
L 331.325217 -56.757723 
L 331.70087 -57.004539 
L 332.076522 -57.252223 
L 332.452174 -57.500774 
L 332.827826 -57.750193 
L 333.203478 -58.000479 
L 333.57913 -58.251633 
L 333.954783 -58.503654 
L 334.330435 -58.756543 
L 334.706087 -59.0103 
L 335.081739 -59.264924 
L 335.457391 -59.520415 
L 335.833043 -59.776774 
L 336.208696 -60.034001 
L 336.584348 -60.292095 
L 336.96 -60.551057 
L 337.335652 -60.810886 
L 337.711304 -61.071583 
L 338.086957 -61.333147 
L 338.462609 -61.595579 
L 338.838261 -61.858879 
L 339.213913 -62.123046 
L 339.589565 -62.38808 
L 339.965217 -62.653982 
L 340.34087 -62.920752 
L 340.716522 -63.188389 
L 341.092174 -63.456894 
L 341.467826 -63.726266 
L 341.843478 -63.996506 
L 342.21913 -64.267613 
L 342.594783 -64.539588 
L 342.970435 -64.812431 
L 343.346087 -65.086141 
L 343.721739 -65.360718 
L 344.097391 -65.636163 
L 344.473043 -65.912476 
L 344.848696 -66.189656 
L 345.224348 -66.467704 
L 345.6 -66.746619 
L 345.975652 -67.026402 
L 346.351304 -67.307052 
L 346.726957 -67.58857 
L 347.102609 -67.870955 
L 347.478261 -68.154208 
L 347.853913 -68.438329 
L 348.229565 -68.723317 
L 348.605217 -69.009172 
L 348.98087 -69.295895 
L 349.356522 -69.583486 
L 349.732174 -69.871944 
L 350.107826 -70.16127 
L 350.483478 -70.451463 
L 350.85913 -70.742524 
L 351.234783 -71.034453 
L 351.610435 -71.327249 
L 351.986087 -71.620912 
L 352.361739 -71.915443 
L 352.737391 -72.210842 
L 353.113043 -72.507108 
L 353.488696 -72.804241 
L 353.864348 -73.102243 
L 354.24 -73.401111 
L 354.615652 -73.700848 
L 354.991304 -74.001451 
L 355.366957 -74.302923 
L 355.742609 -74.605262 
L 356.118261 -74.908468 
L 356.493913 -75.212542 
L 356.869565 -75.517484 
L 357.245217 -75.823293 
L 357.62087 -76.129969 
L 357.996522 -76.437514 
L 358.372174 -76.745925 
L 358.747826 -77.055205 
L 359.123478 -77.365351 
L 359.49913 -77.676366 
L 359.874783 -77.988248 
L 360.250435 -78.300997 
L 360.626087 -78.614614 
L 361.001739 -78.929098 
L 361.377391 -79.244451 
L 361.753043 -79.56067 
L 362.128696 -79.877757 
L 362.504348 -80.195712 
L 362.88 -80.514534 
L 363.255652 -80.834224 
L 363.631304 -81.154781 
L 364.006957 -81.476206 
L 364.382609 -81.798499 
L 364.758261 -82.121659 
L 365.133913 -82.445686 
L 365.509565 -82.770581 
L 365.885217 -83.096344 
L 366.26087 -83.422974 
L 366.636522 -83.750472 
L 367.012174 -84.078837 
L 367.387826 -84.408069 
L 367.763478 -84.73817 
L 368.13913 -85.069138 
L 368.514783 -85.400973 
L 368.890435 -85.733676 
L 369.266087 -86.067246 
L 369.641739 -86.401684 
L 370.017391 -86.73699 
L 370.393043 -87.073163 
L 370.768696 -87.410204 
L 371.144348 -87.748112 
L 371.52 -88.086888 
L 371.895652 -88.426531 
L 372.271304 -88.767042 
L 372.646957 -89.10842 
L 373.022609 -89.450666 
L 373.398261 -89.79378 
L 373.773913 -90.137761 
L 374.149565 -90.482609 
L 374.525217 -90.828325 
L 374.90087 -91.174909 
L 375.276522 -91.52236 
L 375.652174 -91.870679 
L 376.027826 -92.219865 
L 376.403478 -92.569919 
L 376.77913 -92.92084 
L 377.154783 -93.272629 
L 377.530435 -93.625285 
L 377.906087 -93.978809 
L 378.281739 -94.333201 
L 378.657391 -94.68846 
L 379.033043 -95.044587 
L 379.408696 -95.401581 
L 379.784348 -95.759442 
L 380.16 -96.118172 
L 380.535652 -96.477768 
L 380.911304 -96.838233 
L 380.911304 -97.561767 
L 380.911304 -97.561767 
L 380.535652 -97.922232 
L 380.16 -98.281828 
L 379.784348 -98.640558 
L 379.408696 -98.998419 
L 379.033043 -99.355413 
L 378.657391 -99.71154 
L 378.281739 -100.066799 
L 377.906087 -100.421191 
L 377.530435 -100.774715 
L 377.154783 -101.127371 
L 376.77913 -101.47916 
L 376.403478 -101.830081 
L 376.027826 -102.180135 
L 375.652174 -102.529321 
L 375.276522 -102.87764 
L 374.90087 -103.225091 
L 374.525217 -103.571675 
L 374.149565 -103.917391 
L 373.773913 -104.262239 
L 373.398261 -104.60622 
L 373.022609 -104.949334 
L 372.646957 -105.29158 
L 372.271304 -105.632958 
L 371.895652 -105.973469 
L 371.52 -106.313112 
L 371.144348 -106.651888 
L 370.768696 -106.989796 
L 370.393043 -107.326837 
L 370.017391 -107.66301 
L 369.641739 -107.998316 
L 369.266087 -108.332754 
L 368.890435 -108.666324 
L 368.514783 -108.999027 
L 368.13913 -109.330862 
L 367.763478 -109.66183 
L 367.387826 -109.991931 
L 367.012174 -110.321163 
L 366.636522 -110.649528 
L 366.26087 -110.977026 
L 365.885217 -111.303656 
L 365.509565 -111.629419 
L 365.133913 -111.954314 
L 364.758261 -112.278341 
L 364.382609 -112.601501 
L 364.006957 -112.923794 
L 363.631304 -113.245219 
L 363.255652 -113.565776 
L 362.88 -113.885466 
L 362.504348 -114.204288 
L 362.128696 -114.522243 
L 361.753043 -114.83933 
L 361.377391 -115.155549 
L 361.001739 -115.470902 
L 360.626087 -115.785386 
L 360.250435 -116.099003 
L 359.874783 -116.411752 
L 359.49913 -116.723634 
L 359.123478 -117.034649 
L 358.747826 -117.344795 
L 358.372174 -117.654075 
L 357.996522 -117.962486 
L 357.62087 -118.270031 
L 357.245217 -118.576707 
L 356.869565 -118.882516 
L 356.493913 -119.187458 
L 356.118261 -119.491532 
L 355.742609 -119.794738 
L 355.366957 -120.097077 
L 354.991304 -120.398549 
L 354.615652 -120.699152 
L 354.24 -120.998889 
L 353.864348 -121.297757 
L 353.488696 -121.595759 
L 353.113043 -121.892892 
L 352.737391 -122.189158 
L 352.361739 -122.484557 
L 351.986087 -122.779088 
L 351.610435 -123.072751 
L 351.234783 -123.365547 
L 350.85913 -123.657476 
L 350.483478 -123.948537 
L 350.107826 -124.23873 
L 349.732174 -124.528056 
L 349.356522 -124.816514 
L 348.98087 -125.104105 
L 348.605217 -125.390828 
L 348.229565 -125.676683 
L 347.853913 -125.961671 
L 347.478261 -126.245792 
L 347.102609 -126.529045 
L 346.726957 -126.81143 
L 346.351304 -127.092948 
L 345.975652 -127.373598 
L 345.6 -127.653381 
L 345.224348 -127.932296 
L 344.848696 -128.210344 
L 344.473043 -128.487524 
L 344.097391 -128.763837 
L 343.721739 -129.039282 
L 343.346087 -129.313859 
L 342.970435 -129.587569 
L 342.594783 -129.860412 
L 342.21913 -130.132387 
L 341.843478 -130.403494 
L 341.467826 -130.673734 
L 341.092174 -130.943106 
L 340.716522 -131.211611 
L 340.34087 -131.479248 
L 339.965217 -131.746018 
L 339.589565 -132.01192 
L 339.213913 -132.276954 
L 338.838261 -132.541121 
L 338.462609 -132.804421 
L 338.086957 -133.066853 
L 337.711304 -133.328417 
L 337.335652 -133.589114 
L 336.96 -133.848943 
L 336.584348 -134.107905 
L 336.208696 -134.365999 
L 335.833043 -134.623226 
L 335.457391 -134.879585 
L 335.081739 -135.135076 
L 334.706087 -135.3897 
L 334.330435 -135.643457 
L 333.954783 -135.896346 
L 333.57913 -136.148367 
L 333.203478 -136.399521 
L 332.827826 -136.649807 
L 332.452174 -136.899226 
L 332.076522 -137.147777 
L 331.70087 -137.395461 
L 331.325217 -137.642277 
L 330.949565 -137.888226 
L 330.573913 -138.133307 
L 330.198261 -138.37752 
L 329.822609 -138.620866 
L 329.446957 -138.863345 
L 329.071304 -139.104955 
L 328.695652 -139.345699 
L 328.32 -139.585574 
L 327.944348 -139.824583 
L 327.568696 -140.062723 
L 327.193043 -140.299997 
L 326.817391 -140.536402 
L 326.441739 -140.77194 
L 326.066087 -141.006611 
L 325.690435 -141.240414 
L 325.314783 -141.473349 
L 324.93913 -141.705417 
L 324.563478 -141.936617 
L 324.187826 -142.16695 
L 323.812174 -142.396415 
L 323.436522 -142.625013 
L 323.06087 -142.852743 
L 322.685217 -143.079606 
L 322.309565 -143.305601 
L 321.933913 -143.530729 
L 321.558261 -143.754989 
L 321.182609 -143.978381 
L 320.806957 -144.200906 
L 320.431304 -144.422563 
L 320.055652 -144.643353 
L 319.68 -144.863275 
L 319.304348 -145.08233 
L 318.928696 -145.300517 
L 318.553043 -145.517837 
L 318.177391 -145.734289 
L 317.801739 -145.949874 
L 317.426087 -146.164591 
L 317.050435 -146.37844 
L 316.674783 -146.591422 
L 316.29913 -146.803536 
L 315.923478 -147.014783 
L 315.547826 -147.225163 
L 315.172174 -147.434674 
L 314.796522 -147.643319 
L 314.42087 -147.851095 
L 314.045217 -148.058004 
L 313.669565 -148.264046 
L 313.293913 -148.46922 
L 312.918261 -148.673526 
L 312.542609 -148.876965 
L 312.166957 -149.079537 
L 311.791304 -149.281241 
L 311.415652 -149.482077 
L 311.04 -149.682046 
L 310.664348 -149.881147 
L 310.288696 -150.079381 
L 309.913043 -150.276747 
L 309.537391 -150.473245 
L 309.161739 -150.668877 
L 308.786087 -150.86364 
L 308.410435 -151.057536 
L 308.034783 -151.250564 
L 307.65913 -151.442725 
L 307.283478 -151.634019 
L 306.907826 -151.824444 
L 306.532174 -152.014003 
L 306.156522 -152.202693 
L 305.78087 -152.390517 
L 305.405217 -152.577472 
L 305.029565 -152.76356 
L 304.653913 -152.948781 
L 304.278261 -153.133134 
L 303.902609 -153.316619 
L 303.526957 -153.499237 
L 303.151304 -153.680988 
L 302.775652 -153.86187 
L 302.4 -154.041886 
L 302.024348 -154.221033 
L 301.648696 -154.399314 
L 301.273043 -154.576726 
L 300.897391 -154.753271 
L 300.521739 -154.928949 
L 300.146087 -155.103759 
L 299.770435 -155.277701 
L 299.394783 -155.450776 
L 299.01913 -155.622984 
L 298.643478 -155.794324 
L 298.267826 -155.964796 
L 297.892174 -156.134401 
L 297.516522 -156.303138 
L 297.14087 -156.471007 
L 296.765217 -156.63801 
L 296.389565 -156.804144 
L 296.013913 -156.969411 
L 295.638261 -157.133811 
L 295.262609 -157.297343 
L 294.886957 -157.460007 
L 294.511304 -157.621804 
L 294.135652 -157.782733 
L 293.76 -157.942795 
L 293.384348 -158.101989 
L 293.008696 -158.260316 
L 292.633043 -158.417775 
L 292.257391 -158.574367 
L 291.881739 -158.730091 
L 291.506087 -158.884947 
L 291.130435 -159.038936 
L 290.754783 -159.192058 
L 290.37913 -159.344312 
L 290.003478 -159.495698 
L 289.627826 -159.646217 
L 289.252174 -159.795868 
L 288.876522 -159.944652 
L 288.50087 -160.092568 
L 288.125217 -160.239616 
L 287.749565 -160.385798 
L 287.373913 -160.531111 
L 286.998261 -160.675557 
L 286.622609 -160.819135 
L 286.246957 -160.961846 
L 285.871304 -161.10369 
L 285.495652 -161.244666 
L 285.12 -161.384774 
L 284.744348 -161.524015 
L 284.368696 -161.662388 
L 283.993043 -161.799893 
L 283.617391 -161.936532 
L 283.241739 -162.072302 
L 282.866087 -162.207205 
L 282.490435 -162.341241 
L 282.114783 -162.474408 
L 281.73913 -162.606709 
L 281.363478 -162.738142 
L 280.987826 -162.868707 
L 280.612174 -162.998405 
L 280.236522 -163.127235 
L 279.86087 -163.255198 
L 279.485217 -163.382293 
L 279.109565 -163.50852 
L 278.733913 -163.63388 
L 278.358261 -163.758373 
L 277.982609 -163.881998 
L 277.606957 -164.004755 
L 277.231304 -164.126645 
L 276.855652 -164.247667 
L 276.48 -164.367822 
L 276.104348 -164.487109 
L 275.728696 -164.605529 
L 275.353043 -164.723081 
L 274.977391 -164.839766 
L 274.601739 -164.955583 
L 274.226087 -165.070532 
L 273.850435 -165.184614 
L 273.474783 -165.297829 
L 273.09913 -165.410176 
L 272.723478 -165.521655 
L 272.347826 -165.632267 
L 271.972174 -165.742011 
L 271.596522 -165.850888 
L 271.22087 -165.958897 
L 270.845217 -166.066039 
L 270.469565 -166.172313 
L 270.093913 -166.277719 
L 269.718261 -166.382258 
L 269.342609 -166.48593 
L 268.966957 -166.588734 
L 268.591304 -166.69067 
L 268.215652 -166.791739 
L 267.84 -166.89194 
L 267.464348 -166.991274 
L 267.088696 -167.08974 
L 266.713043 -167.187339 
L 266.337391 -167.28407 
L 265.961739 -167.379933 
L 265.586087 -167.474929 
L 265.210435 -167.569058 
L 264.834783 -167.662319 
L 264.45913 -167.754712 
L 264.083478 -167.846238 
L 263.707826 -167.936896 
L 263.332174 -168.026687 
L 262.956522 -168.11561 
L 262.58087 -168.203666 
L 262.205217 -168.290854 
L 261.829565 -168.377174 
L 261.453913 -168.462628 
L 261.078261 -168.547213 
L 260.702609 -168.630931 
L 260.326957 -168.713781 
L 259.951304 -168.795764 
L 259.575652 -168.87688 
L 259.2 -168.957127 
L 258.824348 -169.036508 
L 258.448696 -169.11502 
L 258.073043 -169.192665 
L 257.697391 -169.269443 
L 257.321739 -169.345353 
L 256.946087 -169.420396 
L 256.570435 -169.494571 
L 256.194783 -169.567878 
L 255.81913 -169.640318 
L 255.443478 -169.71189 
L 255.067826 -169.782595 
L 254.692174 -169.852432 
L 254.316522 -169.921402 
L 253.94087 -169.989504 
L 253.565217 -170.056739 
L 253.189565 -170.123106 
L 252.813913 -170.188605 
L 252.438261 -170.253237 
L 252.062609 -170.317002 
L 251.686957 -170.379899 
L 251.311304 -170.441928 
L 250.935652 -170.50309 
L 250.56 -170.563384 
L 250.184348 -170.622811 
L 249.808696 -170.68137 
L 249.433043 -170.739062 
L 249.057391 -170.795886 
L 248.681739 -170.851842 
L 248.306087 -170.906931 
L 247.930435 -170.961153 
L 247.554783 -171.014507 
L 247.17913 -171.066993 
L 246.803478 -171.118612 
L 246.427826 -171.169363 
L 246.052174 -171.219247 
L 245.676522 -171.268263 
L 245.30087 -171.316412 
L 244.925217 -171.363693 
L 244.549565 -171.410107 
L 244.173913 -171.455653 
L 243.798261 -171.500331 
L 243.422609 -171.544142 
L 243.046957 -171.587085 
L 242.671304 -171.629161 
L 242.295652 -171.67037 
L 241.92 -171.71071 
L 241.544348 -171.750184 
L 241.168696 -171.788789 
L 240.793043 -171.826527 
L 240.417391 -171.863398 
L 240.041739 -171.899401 
L 239.666087 -171.934537 
L 239.290435 -171.968805 
L 238.914783 -172.002205 
L 238.53913 -172.034738 
L 238.163478 -172.066403 
L 237.787826 -172.097201 
L 237.412174 -172.127131 
L 237.036522 -172.156194 
L 236.66087 -172.184389 
L 236.285217 -172.211717 
L 235.909565 -172.238177 
L 235.533913 -172.263769 
L 235.158261 -172.288494 
L 234.782609 -172.312352 
L 234.406957 -172.335342 
L 234.031304 -172.357464 
L 233.655652 -172.378719 
L 233.28 -172.399106 
L 232.904348 -172.418626 
L 232.528696 -172.437278 
L 232.153043 -172.455063 
L 231.777391 -172.47198 
L 231.401739 -172.488029 
L 231.026087 -172.503211 
L 230.650435 -172.517526 
L 230.274783 -172.530973 
L 229.89913 -172.543552 
L 229.523478 -172.555264 
L 229.147826 -172.566108 
L 228.772174 -172.576085 
L 228.396522 -172.585194 
L 228.02087 -172.593436 
L 227.645217 -172.60081 
L 227.269565 -172.607317 
L 226.893913 -172.612956 
L 226.518261 -172.617727 
L 226.142609 -172.621631 
L 225.766957 -172.624667 
L 225.391304 -172.626836 
L 225.015652 -172.628138 
L 224.64 -172.628571 
L 224.264348 -172.628138 
L 223.888696 -172.626836 
L 223.513043 -172.624667 
L 223.137391 -172.621631 
L 222.761739 -172.617727 
L 222.386087 -172.612956 
L 222.010435 -172.607317 
L 221.634783 -172.60081 
L 221.25913 -172.593436 
L 220.883478 -172.585194 
L 220.507826 -172.576085 
L 220.132174 -172.566108 
L 219.756522 -172.555264 
L 219.38087 -172.543552 
L 219.005217 -172.530973 
L 218.629565 -172.517526 
L 218.253913 -172.503211 
L 217.878261 -172.488029 
L 217.502609 -172.47198 
L 217.126957 -172.455063 
L 216.751304 -172.437278 
L 216.375652 -172.418626 
L 216 -172.399106 
L 215.624348 -172.378719 
L 215.248696 -172.357464 
L 214.873043 -172.335342 
L 214.497391 -172.312352 
L 214.121739 -172.288494 
L 213.746087 -172.263769 
L 213.370435 -172.238177 
L 212.994783 -172.211717 
L 212.61913 -172.184389 
L 212.243478 -172.156194 
L 211.867826 -172.127131 
L 211.492174 -172.097201 
L 211.116522 -172.066403 
L 210.74087 -172.034738 
L 210.365217 -172.002205 
L 209.989565 -171.968805 
L 209.613913 -171.934537 
L 209.238261 -171.899401 
L 208.862609 -171.863398 
L 208.486957 -171.826527 
L 208.111304 -171.788789 
L 207.735652 -171.750184 
L 207.36 -171.71071 
L 206.984348 -171.67037 
L 206.608696 -171.629161 
L 206.233043 -171.587085 
L 205.857391 -171.544142 
L 205.481739 -171.500331 
L 205.106087 -171.455653 
L 204.730435 -171.410107 
L 204.354783 -171.363693 
L 203.97913 -171.316412 
L 203.603478 -171.268263 
L 203.227826 -171.219247 
L 202.852174 -171.169363 
L 202.476522 -171.118612 
L 202.10087 -171.066993 
L 201.725217 -171.014507 
L 201.349565 -170.961153 
L 200.973913 -170.906931 
L 200.598261 -170.851842 
L 200.222609 -170.795886 
L 199.846957 -170.739062 
L 199.471304 -170.68137 
L 199.095652 -170.622811 
L 198.72 -170.563384 
L 198.344348 -170.50309 
L 197.968696 -170.441928 
L 197.593043 -170.379899 
L 197.217391 -170.317002 
L 196.841739 -170.253237 
L 196.466087 -170.188605 
L 196.090435 -170.123106 
L 195.714783 -170.056739 
L 195.33913 -169.989504 
L 194.963478 -169.921402 
L 194.587826 -169.852432 
L 194.212174 -169.782595 
L 193.836522 -169.71189 
L 193.46087 -169.640318 
L 193.085217 -169.567878 
L 192.709565 -169.494571 
L 192.333913 -169.420396 
L 191.958261 -169.345353 
L 191.582609 -169.269443 
L 191.206957 -169.192665 
L 190.831304 -169.11502 
L 190.455652 -169.036508 
L 190.08 -168.957127 
L 189.704348 -168.87688 
L 189.328696 -168.795764 
L 188.953043 -168.713781 
L 188.577391 -168.630931 
L 188.201739 -168.547213 
L 187.826087 -168.462628 
L 187.450435 -168.377174 
L 187.074783 -168.290854 
L 186.69913 -168.203666 
L 186.323478 -168.11561 
L 185.947826 -168.026687 
L 185.572174 -167.936896 
L 185.196522 -167.846238 
L 184.82087 -167.754712 
L 184.445217 -167.662319 
L 184.069565 -167.569058 
L 183.693913 -167.474929 
L 183.318261 -167.379933 
L 182.942609 -167.28407 
L 182.566957 -167.187339 
L 182.191304 -167.08974 
L 181.815652 -166.991274 
L 181.44 -166.89194 
L 181.064348 -166.791739 
L 180.688696 -166.69067 
L 180.313043 -166.588734 
L 179.937391 -166.48593 
L 179.561739 -166.382258 
L 179.186087 -166.277719 
L 178.810435 -166.172313 
L 178.434783 -166.066039 
L 178.05913 -165.958897 
L 177.683478 -165.850888 
L 177.307826 -165.742011 
L 176.932174 -165.632267 
L 176.556522 -165.521655 
L 176.18087 -165.410176 
L 175.805217 -165.297829 
L 175.429565 -165.184614 
L 175.053913 -165.070532 
L 174.678261 -164.955583 
L 174.302609 -164.839766 
L 173.926957 -164.723081 
L 173.551304 -164.605529 
L 173.175652 -164.487109 
L 172.8 -164.367822 
L 172.424348 -164.247667 
L 172.048696 -164.126645 
L 171.673043 -164.004755 
L 171.297391 -163.881998 
L 170.921739 -163.758373 
L 170.546087 -163.63388 
L 170.170435 -163.50852 
L 169.794783 -163.382293 
L 169.41913 -163.255198 
L 169.043478 -163.127235 
L 168.667826 -162.998405 
L 168.292174 -162.868707 
L 167.916522 -162.738142 
L 167.54087 -162.606709 
L 167.165217 -162.474408 
L 166.789565 -162.341241 
L 166.413913 -162.207205 
L 166.038261 -162.072302 
L 165.662609 -161.936532 
L 165.286957 -161.799893 
L 164.911304 -161.662388 
L 164.535652 -161.524015 
L 164.16 -161.384774 
L 163.784348 -161.244666 
L 163.408696 -161.10369 
L 163.033043 -160.961846 
L 162.657391 -160.819135 
L 162.281739 -160.675557 
L 161.906087 -160.531111 
L 161.530435 -160.385798 
L 161.154783 -160.239616 
L 160.77913 -160.092568 
L 160.403478 -159.944652 
L 160.027826 -159.795868 
L 159.652174 -159.646217 
L 159.276522 -159.495698 
L 158.90087 -159.344312 
L 158.525217 -159.192058 
L 158.149565 -159.038936 
L 157.773913 -158.884947 
L 157.398261 -158.730091 
L 157.022609 -158.574367 
L 156.646957 -158.417775 
L 156.271304 -158.260316 
L 155.895652 -158.101989 
L 155.52 -157.942795 
L 155.144348 -157.782733 
L 154.768696 -157.621804 
L 154.393043 -157.460007 
L 154.017391 -157.297343 
L 153.641739 -157.133811 
L 153.266087 -156.969411 
L 152.890435 -156.804144 
L 152.514783 -156.63801 
L 152.13913 -156.471007 
L 151.763478 -156.303138 
L 151.387826 -156.134401 
L 151.012174 -155.964796 
L 150.636522 -155.794324 
L 150.26087 -155.622984 
L 149.885217 -155.450776 
L 149.509565 -155.277701 
L 149.133913 -155.103759 
L 148.758261 -154.928949 
L 148.382609 -154.753271 
L 148.006957 -154.576726 
L 147.631304 -154.399314 
L 147.255652 -154.221033 
L 146.88 -154.041886 
L 146.504348 -153.86187 
L 146.128696 -153.680988 
L 145.753043 -153.499237 
L 145.377391 -153.316619 
L 145.001739 -153.133134 
L 144.626087 -152.948781 
L 144.250435 -152.76356 
L 143.874783 -152.577472 
L 143.49913 -152.390517 
L 143.123478 -152.202693 
L 142.747826 -152.014003 
L 142.372174 -151.824444 
L 141.996522 -151.634019 
L 141.62087 -151.442725 
L 141.245217 -151.250564 
L 140.869565 -151.057536 
L 140.493913 -150.86364 
L 140.118261 -150.668877 
L 139.742609 -150.473245 
L 139.366957 -150.276747 
L 138.991304 -150.079381 
L 138.615652 -149.881147 
L 138.24 -149.682046 
L 137.864348 -149.482077 
L 137.488696 -149.281241 
L 137.113043 -149.079537 
L 136.737391 -148.876965 
L 136.361739 -148.673526 
L 135.986087 -148.46922 
L 135.610435 -148.264046 
L 135.234783 -148.058004 
L 134.85913 -147.851095 
L 134.483478 -147.643319 
L 134.107826 -147.434674 
L 133.732174 -147.225163 
L 133.356522 -147.014783 
L 132.98087 -146.803536 
L 132.605217 -146.591422 
L 132.229565 -146.37844 
L 131.853913 -146.164591 
L 131.478261 -145.949874 
L 131.102609 -145.734289 
L 130.726957 -145.517837 
L 130.351304 -145.300517 
L 129.975652 -145.08233 
L 129.6 -144.863275 
L 129.224348 -144.643353 
L 128.848696 -144.422563 
L 128.473043 -144.200906 
L 128.097391 -143.978381 
L 127.721739 -143.754989 
L 127.346087 -143.530729 
L 126.970435 -143.305601 
L 126.594783 -143.079606 
L 126.21913 -142.852743 
L 125.843478 -142.625013 
L 125.467826 -142.396415 
L 125.092174 -142.16695 
L 124.716522 -141.936617 
L 124.34087 -141.705417 
L 123.965217 -141.473349 
L 123.589565 -141.240414 
L 123.213913 -141.006611 
L 122.838261 -140.77194 
L 122.462609 -140.536402 
L 122.086957 -140.299997 
L 121.711304 -140.062723 
L 121.335652 -139.824583 
L 120.96 -139.585574 
L 120.584348 -139.345699 
L 120.208696 -139.104955 
L 119.833043 -138.863345 
L 119.457391 -138.620866 
L 119.081739 -138.37752 
L 118.706087 -138.133307 
L 118.330435 -137.888226 
L 117.954783 -137.642277 
L 117.57913 -137.395461 
L 117.203478 -137.147777 
L 116.827826 -136.899226 
L 116.452174 -136.649807 
L 116.076522 -136.399521 
L 115.70087 -136.148367 
L 115.325217 -135.896346 
L 114.949565 -135.643457 
L 114.573913 -135.3897 
L 114.198261 -135.135076 
L 113.822609 -134.879585 
L 113.446957 -134.623226 
L 113.071304 -134.365999 
L 112.695652 -134.107905 
L 112.32 -133.848943 
L 111.944348 -133.589114 
L 111.568696 -133.328417 
L 111.193043 -133.066853 
L 110.817391 -132.804421 
L 110.441739 -132.541121 
L 110.066087 -132.276954 
L 109.690435 -132.01192 
L 109.314783 -131.746018 
L 108.93913 -131.479248 
L 108.563478 -131.211611 
L 108.187826 -130.943106 
L 107.812174 -130.673734 
L 107.436522 -130.403494 
L 107.06087 -130.132387 
L 106.685217 -129.860412 
L 106.309565 -129.587569 
L 105.933913 -129.313859 
L 105.558261 -129.039282 
L 105.182609 -128.763837 
L 104.806957 -128.487524 
L 104.431304 -128.210344 
L 104.055652 -127.932296 
L 103.68 -127.653381 
L 103.304348 -127.373598 
L 102.928696 -127.092948 
L 102.553043 -126.81143 
L 102.177391 -126.529045 
L 101.801739 -126.245792 
L 101.426087 -125.961671 
L 101.050435 -125.676683 
L 100.674783 -125.390828 
L 100.29913 -125.104105 
L 99.923478 -124.816514 
L 99.547826 -124.528056 
L 99.172174 -124.23873 
L 98.796522 -123.948537 
L 98.42087 -123.657476 
L 98.045217 -123.365547 
L 97.669565 -123.072751 
L 97.293913 -122.779088 
L 96.918261 -122.484557 
L 96.542609 -122.189158 
L 96.166957 -121.892892 
L 95.791304 -121.595759 
L 95.415652 -121.297757 
L 95.04 -120.998889 
L 94.664348 -120.699152 
L 94.288696 -120.398549 
L 93.913043 -120.097077 
L 93.537391 -119.794738 
L 93.161739 -119.491532 
L 92.786087 -119.187458 
L 92.410435 -118.882516 
L 92.034783 -118.576707 
L 91.65913 -118.270031 
L 91.283478 -117.962486 
L 90.907826 -117.654075 
L 90.532174 -117.344795 
L 90.156522 -117.034649 
L 89.78087 -116.723634 
L 89.405217 -116.411752 
L 89.029565 -116.099003 
L 88.653913 -115.785386 
L 88.278261 -115.470902 
L 87.902609 -115.155549 
L 87.526957 -114.83933 
L 87.151304 -114.522243 
L 86.775652 -114.204288 
L 86.4 -113.885466 
L 86.024348 -113.565776 
L 85.648696 -113.245219 
L 85.273043 -112.923794 
L 84.897391 -112.601501 
L 84.521739 -112.278341 
L 84.146087 -111.954314 
L 83.770435 -111.629419 
L 83.394783 -111.303656 
L 83.01913 -110.977026 
L 82.643478 -110.649528 
L 82.267826 -110.321163 
L 81.892174 -109.991931 
L 81.516522 -109.66183 
L 81.14087 -109.330862 
L 80.765217 -108.999027 
L 80.389565 -108.666324 
L 80.013913 -108.332754 
L 79.638261 -107.998316 
L 79.262609 -107.66301 
L 78.886957 -107.326837 
L 78.511304 -106.989796 
L 78.135652 -106.651888 
L 77.76 -106.313112 
L 77.384348 -105.973469 
L 77.008696 -105.632958 
L 76.633043 -105.29158 
L 76.257391 -104.949334 
L 75.881739 -104.60622 
L 75.506087 -104.262239 
L 75.130435 -103.917391 
L 74.754783 -103.571675 
L 74.37913 -103.225091 
L 74.003478 -102.87764 
L 73.627826 -102.529321 
L 73.252174 -102.180135 
L 72.876522 -101.830081 
L 72.50087 -101.47916 
L 72.125217 -101.127371 
L 71.749565 -100.774715 
L 71.373913 -100.421191 
L 70.998261 -100.066799 
L 70.622609 -99.71154 
L 70.246957 -99.355413 
L 69.871304 -98.998419 
L 69.495652 -98.640558 
L 69.12 -98.281828 
L 68.744348 -97.922232 
L 68.368696 -97.561767 
z
" id="m0b5bfa191c" style="stroke:#0000ff;stroke-opacity:0.1;"/>
    </defs>
    <g clip-path="url(#pd492734f10)">
     <use style="fill:#0000ff;fill-opacity:0.1;stroke:#0000ff;stroke-opacity:0.1;" x="0" xlink:href="#m0b5bfa191c" y="180"/>
    </g>
   </g>
   <g id="matplotlib.axis_1">
    <g id="xtick_1">
     <g id="line2d_1">
      <defs>
       <path d="M 0 0 
L 0 3.5 
" id="m25cb1e26c6" style="stroke:#000000;stroke-width:0.8;"/>
      </defs>
      <g>
       <use style="stroke:#000000;stroke-width:0.8;" x="63.673043" xlink:href="#m25cb1e26c6" y="162"/>
      </g>
     </g>
     <g id="text_1">
      <!-- 1950 -->
      <g transform="translate(50.948043 176.598438)scale(0.1 -0.1)">
       <defs>
        <path d="M 794 531 
L 1825 531 
L 1825 4091 
L 703 3866 
L 703 4441 
L 1819 4666 
L 2450 4666 
L 2450 531 
L 3481 531 
L 3481 0 
L 794 0 
L 794 531 
z
" id="DejaVuSans-31" transform="scale(0.015625)"/>
        <path d="M 703 97 
L 703 672 
Q 941 559 1184 500 
Q 1428 441 1663 441 
Q 2288 441 2617 861 
Q 2947 1281 2994 2138 
Q 2813 1869 2534 1725 
Q 2256 1581 1919 1581 
Q 1219 1581 811 2004 
Q 403 2428 403 3163 
Q 403 3881 828 4315 
Q 1253 4750 1959 4750 
Q 2769 4750 3195 4129 
Q 3622 3509 3622 2328 
Q 3622 1225 3098 567 
Q 2575 -91 1691 -91 
Q 1453 -91 1209 -44 
Q 966 3 703 97 
z
M 1959 2075 
Q 2384 2075 2632 2365 
Q 2881 2656 2881 3163 
Q 2881 3666 2632 3958 
Q 2384 4250 1959 4250 
Q 1534 4250 1286 3958 
Q 1038 3666 1038 3163 
Q 1038 2656 1286 2365 
Q 1534 2075 1959 2075 
z
" id="DejaVuSans-39" transform="scale(0.015625)"/>
        <path d="M 691 4666 
L 3169 4666 
L 3169 4134 
L 1269 4134 
L 1269 2991 
Q 1406 3038 1543 3061 
Q 1681 3084 1819 3084 
Q 2600 3084 3056 2656 
Q 3513 2228 3513 1497 
Q 3513 744 3044 326 
Q 2575 -91 1722 -91 
Q 1428 -91 1123 -41 
Q 819 9 494 109 
L 494 744 
Q 775 591 1075 516 
Q 1375 441 1709 441 
Q 2250 441 2565 725 
Q 2881 1009 2881 1497 
Q 2881 1984 2565 2268 
Q 2250 2553 1709 2553 
Q 1456 2553 1204 2497 
Q 953 2441 691 2322 
L 691 4666 
z
" id="DejaVuSans-35" transform="scale(0.015625)"/>
        <path d="M 2034 4250 
Q 1547 4250 1301 3770 
Q 1056 3291 1056 2328 
Q 1056 1369 1301 889 
Q 1547 409 2034 409 
Q 2525 409 2770 889 
Q 3016 1369 3016 2328 
Q 3016 3291 2770 3770 
Q 2525 4250 2034 4250 
z
M 2034 4750 
Q 2819 4750 3233 4129 
Q 3647 3509 3647 2328 
Q 3647 1150 3233 529 
Q 2819 -91 2034 -91 
Q 1250 -91 836 529 
Q 422 1150 422 2328 
Q 422 3509 836 4129 
Q 1250 4750 2034 4750 
z
" id="DejaVuSans-30" transform="scale(0.015625)"/>
       </defs>
       <use xlink:href="#DejaVuSans-31"/>
       <use x="63.623047" xlink:href="#DejaVuSans-39"/>
       <use x="127.246094" xlink:href="#DejaVuSans-35"/>
       <use x="190.869141" xlink:href="#DejaVuSans-30"/>
      </g>
     </g>
    </g>
    <g id="xtick_2">
     <g id="line2d_2">
      <g>
       <use style="stroke:#000000;stroke-width:0.8;" x="108.751304" xlink:href="#m25cb1e26c6" y="162"/>
      </g>
     </g>
     <g id="text_2">
      <!-- 1960 -->
      <g transform="translate(96.026304 176.598438)scale(0.1 -0.1)">
       <defs>
        <path d="M 2113 2584 
Q 1688 2584 1439 2293 
Q 1191 2003 1191 1497 
Q 1191 994 1439 701 
Q 1688 409 2113 409 
Q 2538 409 2786 701 
Q 3034 994 3034 1497 
Q 3034 2003 2786 2293 
Q 2538 2584 2113 2584 
z
M 3366 4563 
L 3366 3988 
Q 3128 4100 2886 4159 
Q 2644 4219 2406 4219 
Q 1781 4219 1451 3797 
Q 1122 3375 1075 2522 
Q 1259 2794 1537 2939 
Q 1816 3084 2150 3084 
Q 2853 3084 3261 2657 
Q 3669 2231 3669 1497 
Q 3669 778 3244 343 
Q 2819 -91 2113 -91 
Q 1303 -91 875 529 
Q 447 1150 447 2328 
Q 447 3434 972 4092 
Q 1497 4750 2381 4750 
Q 2619 4750 2861 4703 
Q 3103 4656 3366 4563 
z
" id="DejaVuSans-36" transform="scale(0.015625)"/>
       </defs>
       <use xlink:href="#DejaVuSans-31"/>
       <use x="63.623047" xlink:href="#DejaVuSans-39"/>
       <use x="127.246094" xlink:href="#DejaVuSans-36"/>
       <use x="190.869141" xlink:href="#DejaVuSans-30"/>
      </g>
     </g>
    </g>
    <g id="xtick_3">
     <g id="line2d_3">
      <g>
       <use style="stroke:#000000;stroke-width:0.8;" x="153.829565" xlink:href="#m25cb1e26c6" y="162"/>
      </g>
     </g>
     <g id="text_3">
      <!-- 1970 -->
      <g transform="translate(141.104565 176.598438)scale(0.1 -0.1)">
       <defs>
        <path d="M 525 4666 
L 3525 4666 
L 3525 4397 
L 1831 0 
L 1172 0 
L 2766 4134 
L 525 4134 
L 525 4666 
z
" id="DejaVuSans-37" transform="scale(0.015625)"/>
       </defs>
       <use xlink:href="#DejaVuSans-31"/>
       <use x="63.623047" xlink:href="#DejaVuSans-39"/>
       <use x="127.246094" xlink:href="#DejaVuSans-37"/>
       <use x="190.869141" xlink:href="#DejaVuSans-30"/>
      </g>
     </g>
    </g>
    <g id="xtick_4">
     <g id="line2d_4">
      <g>
       <use style="stroke:#000000;stroke-width:0.8;" x="198.907826" xlink:href="#m25cb1e26c6" y="162"/>
      </g>
     </g>
     <g id="text_4">
      <!-- 1980 -->
      <g transform="translate(186.182826 176.598438)scale(0.1 -0.1)">
       <defs>
        <path d="M 2034 2216 
Q 1584 2216 1326 1975 
Q 1069 1734 1069 1313 
Q 1069 891 1326 650 
Q 1584 409 2034 409 
Q 2484 409 2743 651 
Q 3003 894 3003 1313 
Q 3003 1734 2745 1975 
Q 2488 2216 2034 2216 
z
M 1403 2484 
Q 997 2584 770 2862 
Q 544 3141 544 3541 
Q 544 4100 942 4425 
Q 1341 4750 2034 4750 
Q 2731 4750 3128 4425 
Q 3525 4100 3525 3541 
Q 3525 3141 3298 2862 
Q 3072 2584 2669 2484 
Q 3125 2378 3379 2068 
Q 3634 1759 3634 1313 
Q 3634 634 3220 271 
Q 2806 -91 2034 -91 
Q 1263 -91 848 271 
Q 434 634 434 1313 
Q 434 1759 690 2068 
Q 947 2378 1403 2484 
z
M 1172 3481 
Q 1172 3119 1398 2916 
Q 1625 2713 2034 2713 
Q 2441 2713 2670 2916 
Q 2900 3119 2900 3481 
Q 2900 3844 2670 4047 
Q 2441 4250 2034 4250 
Q 1625 4250 1398 4047 
Q 1172 3844 1172 3481 
z
" id="DejaVuSans-38" transform="scale(0.015625)"/>
       </defs>
       <use xlink:href="#DejaVuSans-31"/>
       <use x="63.623047" xlink:href="#DejaVuSans-39"/>
       <use x="127.246094" xlink:href="#DejaVuSans-38"/>
       <use x="190.869141" xlink:href="#DejaVuSans-30"/>
      </g>
     </g>
    </g>
    <g id="xtick_5">
     <g id="line2d_5">
      <g>
       <use style="stroke:#000000;stroke-width:0.8;" x="243.986087" xlink:href="#m25cb1e26c6" y="162"/>
      </g>
     </g>
     <g id="text_5">
      <!-- 1990 -->
      <g transform="translate(231.261087 176.598438)scale(0.1 -0.1)">
       <use xlink:href="#DejaVuSans-31"/>
       <use x="63.623047" xlink:href="#DejaVuSans-39"/>
       <use x="127.246094" xlink:href="#DejaVuSans-39"/>
       <use x="190.869141" xlink:href="#DejaVuSans-30"/>
      </g>
     </g>
    </g>
    <g id="xtick_6">
     <g id="line2d_6">
      <g>
       <use style="stroke:#000000;stroke-width:0.8;" x="289.064348" xlink:href="#m25cb1e26c6" y="162"/>
      </g>
     </g>
     <g id="text_6">
      <!-- 2000 -->
      <g transform="translate(276.339348 176.598438)scale(0.1 -0.1)">
       <defs>
        <path d="M 1228 531 
L 3431 531 
L 3431 0 
L 469 0 
L 469 531 
Q 828 903 1448 1529 
Q 2069 2156 2228 2338 
Q 2531 2678 2651 2914 
Q 2772 3150 2772 3378 
Q 2772 3750 2511 3984 
Q 2250 4219 1831 4219 
Q 1534 4219 1204 4116 
Q 875 4013 500 3803 
L 500 4441 
Q 881 4594 1212 4672 
Q 1544 4750 1819 4750 
Q 2544 4750 2975 4387 
Q 3406 4025 3406 3419 
Q 3406 3131 3298 2873 
Q 3191 2616 2906 2266 
Q 2828 2175 2409 1742 
Q 1991 1309 1228 531 
z
" id="DejaVuSans-32" transform="scale(0.015625)"/>
       </defs>
       <use xlink:href="#DejaVuSans-32"/>
       <use x="63.623047" xlink:href="#DejaVuSans-30"/>
       <use x="127.246094" xlink:href="#DejaVuSans-30"/>
       <use x="190.869141" xlink:href="#DejaVuSans-30"/>
      </g>
     </g>
    </g>
    <g id="xtick_7">
     <g id="line2d_7">
      <g>
       <use style="stroke:#000000;stroke-width:0.8;" x="334.142609" xlink:href="#m25cb1e26c6" y="162"/>
      </g>
     </g>
     <g id="text_7">
      <!-- 2010 -->
      <g transform="translate(321.417609 176.598438)scale(0.1 -0.1)">
       <use xlink:href="#DejaVuSans-32"/>
       <use x="63.623047" xlink:href="#DejaVuSans-30"/>
       <use x="127.246094" xlink:href="#DejaVuSans-31"/>
       <use x="190.869141" xlink:href="#DejaVuSans-30"/>
      </g>
     </g>
    </g>
    <g id="xtick_8">
     <g id="line2d_8">
      <g>
       <use style="stroke:#000000;stroke-width:0.8;" x="379.22087" xlink:href="#m25cb1e26c6" y="162"/>
      </g>
     </g>
     <g id="text_8">
      <!-- 2020 -->
      <g transform="translate(366.49587 176.598438)scale(0.1 -0.1)">
       <use xlink:href="#DejaVuSans-32"/>
       <use x="63.623047" xlink:href="#DejaVuSans-30"/>
       <use x="127.246094" xlink:href="#DejaVuSans-32"/>
       <use x="190.869141" xlink:href="#DejaVuSans-30"/>
      </g>
     </g>
    </g>
   </g>
   <g id="matplotlib.axis_2">
    <g id="ytick_1">
     <g id="line2d_9">
      <defs>
       <path d="M 0 0 
L -3.5 0 
" id="mce2ada6d46" style="stroke:#000000;stroke-width:0.8;"/>
      </defs>
      <g>
       <use style="stroke:#000000;stroke-width:0.8;" x="34.56" xlink:href="#mce2ada6d46" y="160.331627"/>
      </g>
     </g>
     <g id="text_9">
      <!-- 100 -->
      <g transform="translate(0.092813 164.130846)scale(0.1 -0.1)">
       <defs>
        <path d="M 678 2272 
L 4684 2272 
L 4684 1741 
L 678 1741 
L 678 2272 
z
" id="DejaVuSans-2212" transform="scale(0.015625)"/>
       </defs>
       <use xlink:href="#DejaVuSans-2212"/>
       <use x="83.789062" xlink:href="#DejaVuSans-31"/>
       <use x="147.412109" xlink:href="#DejaVuSans-30"/>
       <use x="211.035156" xlink:href="#DejaVuSans-30"/>
      </g>
     </g>
    </g>
    <g id="ytick_2">
     <g id="line2d_10">
      <g>
       <use style="stroke:#000000;stroke-width:0.8;" x="34.56" xlink:href="#mce2ada6d46" y="121.565814"/>
      </g>
     </g>
     <g id="text_10">
      <!-- 50 -->
      <g transform="translate(6.455313 125.365032)scale(0.1 -0.1)">
       <use xlink:href="#DejaVuSans-2212"/>
       <use x="83.789062" xlink:href="#DejaVuSans-35"/>
       <use x="147.412109" xlink:href="#DejaVuSans-30"/>
      </g>
     </g>
    </g>
    <g id="ytick_3">
     <g id="line2d_11">
      <g>
       <use style="stroke:#000000;stroke-width:0.8;" x="34.56" xlink:href="#mce2ada6d46" y="82.8"/>
      </g>
     </g>
     <g id="text_11">
      <!-- 0 -->
      <g transform="translate(21.1975 86.599219)scale(0.1 -0.1)">
       <use xlink:href="#DejaVuSans-30"/>
      </g>
     </g>
    </g>
    <g id="ytick_4">
     <g id="line2d_12">
      <g>
       <use style="stroke:#000000;stroke-width:0.8;" x="34.56" xlink:href="#mce2ada6d46" y="44.034186"/>
      </g>
     </g>
     <g id="text_12">
      <!-- 50 -->
      <g transform="translate(14.835 47.833405)scale(0.1 -0.1)">
       <use xlink:href="#DejaVuSans-35"/>
       <use x="63.623047" xlink:href="#DejaVuSans-30"/>
      </g>
     </g>
    </g>
    <g id="ytick_5">
     <g id="line2d_13">
      <g>
       <use style="stroke:#000000;stroke-width:0.8;" x="34.56" xlink:href="#mce2ada6d46" y="5.268373"/>
      </g>
     </g>
     <g id="text_13">
      <!-- 100 -->
      <g transform="translate(8.4725 9.067591)scale(0.1 -0.1)">
       <use xlink:href="#DejaVuSans-31"/>
       <use x="63.623047" xlink:href="#DejaVuSans-30"/>
       <use x="127.246094" xlink:href="#DejaVuSans-30"/>
      </g>
     </g>
    </g>
   </g>
   <g id="line2d_14">
    <path clip-path="url(#pd492734f10)" d="M 68.368696 82.936091 
L 69.495652 83.234475 
L 69.871304 83.55693 
L 70.622609 83.871997 
L 71.373913 84.340727 
L 72.50087 84.337925 
L 73.252174 84.516035 
L 73.627826 84.623016 
L 74.37913 85.001082 
L 74.754783 85.124176 
L 76.257391 86.000197 
L 77.008696 86.125992 
L 77.76 86.244791 
L 79.262609 87.08921 
L 79.638261 87.246386 
L 80.013913 87.624572 
L 80.765217 87.913971 
L 81.892174 87.890665 
L 83.394783 88.339183 
L 85.273043 89.466895 
L 86.4 89.580154 
L 86.775652 89.513261 
L 88.653913 89.73062 
L 89.78087 90.306531 
L 90.532174 90.305762 
L 91.65913 90.605147 
L 92.786087 91.343577 
L 93.913043 91.753651 
L 94.664348 92.134756 
L 98.796522 93.217945 
L 103.68 93.72466 
L 107.06087 93.116246 
L 107.812174 93.263926 
L 108.563478 93.100772 
L 110.066087 93.151642 
L 111.193043 93.229326 
L 111.944348 93.331652 
L 112.695652 93.395568 
L 113.446957 93.411454 
L 114.949565 93.701751 
L 115.325217 93.614025 
L 118.330435 94.149457 
L 118.706087 94.14901 
L 120.584348 94.663737 
L 121.335652 94.682432 
L 122.086957 94.351591 
L 122.462609 94.131374 
L 123.213913 93.070732 
L 123.589565 92.592352 
L 123.965217 92.340857 
L 124.716522 91.664938 
L 125.467826 91.128486 
L 125.843478 91.114999 
L 126.21913 90.962528 
L 127.346087 89.974943 
L 128.473043 89.211792 
L 129.6 88.103818 
L 129.975652 87.752429 
L 131.102609 87.48423 
L 131.853913 87.600106 
L 132.229565 87.433039 
L 132.605217 87.42611 
L 133.356522 87.088423 
L 134.107826 87.343469 
L 134.85913 87.064457 
L 135.234783 87.065713 
L 135.610435 87.213105 
L 137.113043 86.939359 
L 137.864348 87.267127 
L 138.24 87.177703 
L 138.991304 87.315143 
L 139.742609 86.922317 
L 140.118261 86.948809 
L 140.869565 86.798032 
L 141.245217 86.86128 
L 141.996522 86.515794 
L 143.123478 85.766555 
L 143.49913 85.770862 
L 143.874783 85.926502 
L 144.250435 85.652803 
L 145.753043 85.34551 
L 146.128696 85.013571 
L 146.504348 85.040599 
L 146.88 84.692088 
L 147.631304 84.495436 
L 148.382609 84.61594 
L 151.387826 83.686952 
L 152.514783 83.973892 
L 152.890435 83.93659 
L 153.266087 84.060859 
L 154.393043 83.534505 
L 154.768696 83.436575 
L 155.144348 83.599873 
L 155.52 83.583404 
L 156.271304 83.251986 
L 157.398261 83.01571 
L 157.773913 83.050825 
L 158.525217 82.848118 
L 159.276522 82.932811 
L 159.652174 82.975349 
L 161.154783 83.534443 
L 161.530435 83.354339 
L 161.906087 82.875224 
L 162.281739 83.021302 
L 163.033043 82.697789 
L 164.16 81.932991 
L 164.911304 81.758909 
L 165.286957 81.567601 
L 165.662609 81.559856 
L 166.038261 81.765372 
L 166.413913 81.606222 
L 166.789565 81.710373 
L 167.165217 81.38139 
L 167.54087 81.33619 
L 167.916522 81.52652 
L 168.292174 81.411805 
L 168.667826 81.631337 
L 169.41913 81.696474 
L 170.546087 81.37901 
L 170.921739 81.469065 
L 171.673043 81.458899 
L 172.048696 81.619112 
L 172.8 81.574208 
L 173.175652 81.44305 
L 173.551304 81.476574 
L 173.926957 81.326335 
L 174.302609 81.338807 
L 174.678261 81.21957 
L 175.805217 81.307442 
L 176.18087 81.149592 
L 176.556522 81.220662 
L 176.932174 81.168416 
L 178.05913 81.407718 
L 178.434783 81.346337 
L 178.810435 81.080467 
L 179.561739 80.934186 
L 179.937391 80.658282 
L 181.064348 80.734698 
L 181.44 80.476971 
L 182.191304 80.201565 
L 184.069565 79.269315 
L 184.82087 79.026829 
L 187.074783 78.968223 
L 187.450435 79.155678 
L 187.826087 79.188838 
L 188.201739 79.348999 
L 188.577391 79.32046 
L 188.953043 79.158276 
L 189.328696 79.250239 
L 189.704348 79.157733 
L 190.455652 78.729038 
L 191.582609 78.626833 
L 191.958261 78.842024 
L 192.333913 78.801137 
L 192.709565 78.873008 
L 193.085217 79.058601 
L 194.963478 78.80409 
L 196.090435 78.666773 
L 196.466087 78.403935 
L 197.968696 78.44059 
L 199.095652 78.201558 
L 199.471304 78.385086 
L 199.846957 78.27079 
L 200.973913 77.441592 
L 202.10087 77.130272 
L 202.476522 77.170597 
L 203.227826 77.594762 
L 203.603478 77.780003 
L 204.730435 77.732599 
L 206.233043 77.536828 
L 206.608696 77.369208 
L 207.36 77.825863 
L 207.735652 77.736964 
L 209.613913 78.456243 
L 209.989565 78.259999 
L 210.365217 78.277206 
L 210.74087 78.425112 
L 211.492174 78.34803 
L 211.867826 78.422983 
L 212.243478 78.816359 
L 212.61913 79.009984 
L 213.746087 79.135446 
L 214.121739 78.920781 
L 214.873043 78.021417 
L 215.248696 77.854213 
L 216.375652 77.981608 
L 216.751304 77.929018 
L 217.126957 78.158727 
L 218.629565 77.973389 
L 220.132174 77.104966 
L 220.507826 77.108967 
L 221.25913 76.732269 
L 222.761739 76.017258 
L 223.888696 74.640297 
L 224.64 74.481056 
L 225.015652 74.446307 
L 226.893913 74.795315 
L 227.269565 74.834647 
L 228.02087 74.045955 
L 228.772174 73.548855 
L 229.523478 73.277258 
L 230.274783 73.458182 
L 231.026087 72.963324 
L 232.153043 72.001593 
L 233.28 71.698329 
L 233.655652 71.850437 
L 234.031304 71.613746 
L 234.782609 71.40742 
L 235.158261 71.209594 
L 235.909565 71.485993 
L 236.66087 70.825321 
L 237.036522 70.700468 
L 237.412174 70.743117 
L 237.787826 70.563443 
L 238.163478 70.532613 
L 238.914783 70.318132 
L 239.666087 70.265877 
L 240.793043 70.122374 
L 241.92 69.09781 
L 242.295652 68.564558 
L 243.046957 68.397004 
L 243.422609 68.181618 
L 243.798261 68.135772 
L 244.173913 68.392404 
L 244.549565 68.362898 
L 244.925217 67.991655 
L 245.30087 68.172325 
L 247.17913 67.584514 
L 247.554783 67.592909 
L 248.306087 67.743901 
L 250.935652 67.863511 
L 251.311304 67.649198 
L 252.438261 67.824532 
L 253.565217 67.84264 
L 253.94087 68.038028 
L 256.570435 68.118213 
L 257.321739 68.148093 
L 258.073043 68.189206 
L 260.702609 68.939923 
L 261.078261 69.184973 
L 264.083478 69.698201 
L 264.45913 69.95276 
L 265.961739 71.524639 
L 266.337391 71.761895 
L 266.713043 71.861334 
L 267.464348 72.40518 
L 269.342609 72.874701 
L 269.718261 73.014242 
L 271.22087 72.482755 
L 271.972174 72.702132 
L 272.347826 72.707393 
L 272.723478 72.989039 
L 274.601739 73.430457 
L 275.353043 73.331189 
L 275.728696 73.139063 
L 276.104348 73.077695 
L 277.606957 73.401741 
L 278.358261 73.571007 
L 278.733913 73.546459 
L 279.109565 73.685401 
L 280.236522 73.609953 
L 281.73913 74.025198 
L 282.490435 74.336141 
L 283.241739 74.82042 
L 283.993043 75.230568 
L 286.246957 76.03032 
L 286.998261 76.123928 
L 287.749565 76.214169 
L 288.125217 76.497853 
L 290.754783 76.773486 
L 291.881739 77.154372 
L 292.633043 77.195858 
L 293.384348 77.115678 
L 294.135652 77.240549 
L 296.765217 78.17897 
L 297.14087 78.136467 
L 298.267826 78.495415 
L 299.01913 78.36492 
L 299.394783 78.353719 
L 299.770435 78.575069 
L 300.521739 79.368355 
L 302.4 79.845519 
L 303.151304 80.227495 
L 303.902609 80.54002 
L 305.405217 81.769912 
L 305.78087 81.806452 
L 306.907826 82.277181 
L 307.65913 82.892237 
L 308.410435 83.626374 
L 309.161739 84.403549 
L 309.913043 85.01497 
L 312.542609 85.810322 
L 314.42087 86.115813 
L 315.172174 85.635002 
L 315.547826 85.613039 
L 317.050435 85.970265 
L 317.801739 85.996967 
L 318.177391 86.212246 
L 318.928696 86.263246 
L 319.304348 85.995454 
L 320.431304 86.16002 
L 321.558261 86.274713 
L 321.933913 86.233931 
L 323.06087 86.628487 
L 323.436522 86.545989 
L 324.187826 86.613082 
L 324.563478 86.577152 
L 325.314783 86.771673 
L 325.690435 86.795002 
L 326.066087 86.982507 
L 327.944348 87.192978 
L 328.695652 86.886369 
L 329.071304 86.734433 
L 329.446957 86.767367 
L 329.822609 86.59101 
L 330.573913 86.600451 
L 330.949565 86.433753 
L 331.70087 86.401929 
L 332.076522 86.56019 
L 332.827826 86.061295 
L 336.208696 85.660484 
L 336.584348 85.315414 
L 339.213913 84.852431 
L 340.34087 84.359477 
L 341.467826 84.425718 
L 342.594783 83.794131 
L 343.346087 83.74888 
L 344.848696 83.324605 
L 345.6 83.440777 
L 346.351304 82.905593 
L 347.478261 82.81305 
L 348.229565 82.713657 
L 348.98087 82.778659 
L 349.732174 83.043809 
L 351.234783 82.83779 
L 352.737391 83.025046 
L 353.488696 82.950809 
L 353.864348 83.182647 
L 354.991304 83.38032 
L 357.62087 83.250142 
L 360.626087 83.778753 
L 362.128696 84.124494 
L 362.88 84.130511 
L 363.255652 84.369056 
L 363.631304 84.468054 
L 364.382609 84.075138 
L 365.133913 84.177365 
L 365.885217 83.881978 
L 366.26087 83.969598 
L 367.387826 83.882512 
L 368.514783 84.153687 
L 369.266087 84.012466 
L 369.641739 84.061793 
L 370.768696 84.868333 
L 372.271304 85.242413 
L 373.398261 85.172944 
L 374.149565 84.668828 
L 374.90087 84.437842 
L 375.276522 84.14926 
L 376.027826 84.069794 
L 376.403478 83.866938 
L 377.154783 83.844313 
L 377.906087 83.579449 
L 378.281739 83.616661 
L 379.408696 83.245989 
L 379.784348 83.347041 
L 380.16 83.297922 
L 380.911304 82.8 
L 380.911304 82.8 
" style="fill:none;stroke:#1f77b4;stroke-linecap:square;stroke-width:1.5;"/>
   </g>
   <g id="line2d_15">
    <path clip-path="url(#pd492734f10)" d="M 34.56 82.8 
L 414.72 82.8 
" style="fill:none;stroke:#000000;stroke-dasharray:1.5,2.475;stroke-dashoffset:0;stroke-width:1.5;"/>
   </g>
   <g id="patch_3">
    <path d="M 34.56 162 
L 34.56 3.6 
" style="fill:none;stroke:#000000;stroke-linecap:square;stroke-linejoin:miter;stroke-width:0.8;"/>
   </g>
   <g id="patch_4">
    <path d="M 414.72 162 
L 414.72 3.6 
" style="fill:none;stroke:#000000;stroke-linecap:square;stroke-linejoin:miter;stroke-width:0.8;"/>
   </g>
   <g id="patch_5">
    <path d="M 34.56 162 
L 414.72 162 
" style="fill:none;stroke:#000000;stroke-linecap:square;stroke-linejoin:miter;stroke-width:0.8;"/>
   </g>
   <g id="patch_6">
    <path d="M 34.56 3.6 
L 414.72 3.6 
" style="fill:none;stroke:#000000;stroke-linecap:square;stroke-linejoin:miter;stroke-width:0.8;"/>
   </g>
  </g>
 </g>
 <defs>
  <clipPath id="pd492734f10">
   <rect height="158.4" width="380.16" x="34.56" y="3.6"/>
  </clipPath>
 </defs>
</svg>
