<?xml version="1.0" encoding="utf-8" standalone="no"?>
<!DOCTYPE svg PUBLIC "-//W3C//DTD SVG 1.1//EN"
  "http://www.w3.org/Graphics/SVG/1.1/DTD/svg11.dtd">
<svg height="180pt" version="1.1" viewBox="0 0 432 180" width="432pt" xmlns="http://www.w3.org/2000/svg" xmlns:xlink="http://www.w3.org/1999/xlink">
 <metadata>
  <rdf:RDF xmlns:cc="http://creativecommons.org/ns#" xmlns:dc="http://purl.org/dc/elements/1.1/" xmlns:rdf="http://www.w3.org/1999/02/22-rdf-syntax-ns#">
   <cc:Work>
    <dc:type rdf:resource="http://purl.org/dc/dcmitype/StillImage"/>
    <dc:date>2021-08-12T10:41:48.124409</dc:date>
    <dc:format>image/svg+xml</dc:format>
    <dc:creator>
     <cc:Agent>
      <dc:title>Matplotlib v3.4.2, https://matplotlib.org/</dc:title>
     </cc:Agent>
    </dc:creator>
   </cc:Work>
  </rdf:RDF>
 </metadata>
 <defs>
  <style type="text/css">*{stroke-linecap:butt;stroke-linejoin:round;}</style>
 </defs>
 <g id="figure_1">
  <g id="patch_1">
   <path d="M 0 180 
L 432 180 
L 432 0 
L 0 0 
z
" style="fill:#ffffff;"/>
  </g>
  <g id="axes_1">
   <g id="patch_2">
    <path d="M 34.56 162 
L 414.72 162 
L 414.72 3.6 
L 34.56 3.6 
z
" style="fill:#ffffff;"/>
   </g>
   <g id="PolyCollection_1">
    <path clip-path="url(#p467db7d76b)" d="M 66.776949 82.4536 
L 66.776949 83.1464 
L 67.134915 83.491605 
L 67.492881 83.836015 
L 67.850847 84.17963 
L 68.208814 84.522449 
L 68.56678 84.864473 
L 68.924746 85.205701 
L 69.282712 85.546134 
L 69.640678 85.885772 
L 69.998644 86.224614 
L 70.35661 86.562661 
L 70.714576 86.899912 
L 71.072542 87.236368 
L 71.430508 87.572028 
L 71.788475 87.906894 
L 72.146441 88.240963 
L 72.504407 88.574238 
L 72.862373 88.906716 
L 73.220339 89.2384 
L 73.578305 89.569288 
L 73.936271 89.899381 
L 74.294237 90.228678 
L 74.652203 90.55718 
L 75.010169 90.884887 
L 75.368136 91.211798 
L 75.726102 91.537913 
L 76.084068 91.863234 
L 76.442034 92.187758 
L 76.8 92.511488 
L 77.157966 92.834422 
L 77.515932 93.156561 
L 77.873898 93.477904 
L 78.231864 93.798452 
L 78.589831 94.118204 
L 78.947797 94.437161 
L 79.305763 94.755323 
L 79.663729 95.072689 
L 80.021695 95.38926 
L 80.379661 95.705035 
L 80.737627 96.020015 
L 81.095593 96.3342 
L 81.453559 96.647589 
L 81.811525 96.960183 
L 82.169492 97.271982 
L 82.527458 97.582985 
L 82.885424 97.893192 
L 83.24339 98.202604 
L 83.601356 98.511221 
L 83.959322 98.819043 
L 84.317288 99.126069 
L 84.675254 99.432299 
L 85.03322 99.737734 
L 85.391186 100.042374 
L 85.749153 100.346218 
L 86.107119 100.649267 
L 86.465085 100.951521 
L 86.823051 101.252979 
L 87.181017 101.553642 
L 87.538983 101.853509 
L 87.896949 102.152581 
L 88.254915 102.450858 
L 88.612881 102.748339 
L 88.970847 103.045025 
L 89.328814 103.340915 
L 89.68678 103.63601 
L 90.044746 103.930309 
L 90.402712 104.223814 
L 90.760678 104.516522 
L 91.118644 104.808436 
L 91.47661 105.099553 
L 91.834576 105.389876 
L 92.192542 105.679403 
L 92.550508 105.968135 
L 92.908475 106.256071 
L 93.266441 106.543212 
L 93.624407 106.829557 
L 93.982373 107.115108 
L 94.340339 107.399862 
L 94.698305 107.683821 
L 95.056271 107.966985 
L 95.414237 108.249354 
L 95.772203 108.530927 
L 96.130169 108.811704 
L 96.488136 109.091687 
L 96.846102 109.370874 
L 97.204068 109.649265 
L 97.562034 109.926861 
L 97.92 110.203662 
L 98.277966 110.479667 
L 98.635932 110.754877 
L 98.993898 111.029291 
L 99.351864 111.30291 
L 99.709831 111.575734 
L 100.067797 111.847762 
L 100.425763 112.118995 
L 100.783729 112.389432 
L 101.141695 112.659074 
L 101.499661 112.927921 
L 101.857627 113.195972 
L 102.215593 113.463228 
L 102.573559 113.729688 
L 102.931525 113.995353 
L 103.289492 114.260223 
L 103.647458 114.524297 
L 104.005424 114.787576 
L 104.36339 115.050059 
L 104.721356 115.311747 
L 105.079322 115.572639 
L 105.437288 115.832737 
L 105.795254 116.092038 
L 106.15322 116.350545 
L 106.511186 116.608256 
L 106.869153 116.865171 
L 107.227119 117.121291 
L 107.585085 117.376616 
L 107.943051 117.631145 
L 108.301017 117.884879 
L 108.658983 118.137818 
L 109.016949 118.389961 
L 109.374915 118.641309 
L 109.732881 118.891861 
L 110.090847 119.141618 
L 110.448814 119.390579 
L 110.80678 119.638745 
L 111.164746 119.886116 
L 111.522712 120.132691 
L 111.880678 120.378471 
L 112.238644 120.623456 
L 112.59661 120.867645 
L 112.954576 121.111038 
L 113.312542 121.353637 
L 113.670508 121.595439 
L 114.028475 121.836447 
L 114.386441 122.076659 
L 114.744407 122.316076 
L 115.102373 122.554697 
L 115.460339 122.792523 
L 115.818305 123.029553 
L 116.176271 123.265788 
L 116.534237 123.501228 
L 116.892203 123.735872 
L 117.250169 123.969721 
L 117.608136 124.202774 
L 117.966102 124.435032 
L 118.324068 124.666495 
L 118.682034 124.897162 
L 119.04 125.127034 
L 119.397966 125.35611 
L 119.755932 125.584391 
L 120.113898 125.811877 
L 120.471864 126.038567 
L 120.829831 126.264462 
L 121.187797 126.489561 
L 121.545763 126.713865 
L 121.903729 126.937373 
L 122.261695 127.160087 
L 122.619661 127.382004 
L 122.977627 127.603127 
L 123.335593 127.823454 
L 123.693559 128.042985 
L 124.051525 128.261721 
L 124.409492 128.479662 
L 124.767458 128.696807 
L 125.125424 128.913157 
L 125.48339 129.128712 
L 125.841356 129.343471 
L 126.199322 129.557435 
L 126.557288 129.770603 
L 126.915254 129.982976 
L 127.27322 130.194553 
L 127.631186 130.405335 
L 127.989153 130.615322 
L 128.347119 130.824513 
L 128.705085 131.032909 
L 129.063051 131.24051 
L 129.421017 131.447315 
L 129.778983 131.653324 
L 130.136949 131.858539 
L 130.494915 132.062958 
L 130.852881 132.266581 
L 131.210847 132.469409 
L 131.568814 132.671442 
L 131.92678 132.872679 
L 132.284746 133.073121 
L 132.642712 133.272767 
L 133.000678 133.471618 
L 133.358644 133.669674 
L 133.71661 133.866934 
L 134.074576 134.063399 
L 134.432542 134.259068 
L 134.790508 134.453942 
L 135.148475 134.648021 
L 135.506441 134.841304 
L 135.864407 135.033792 
L 136.222373 135.225484 
L 136.580339 135.416381 
L 136.938305 135.606483 
L 137.296271 135.795789 
L 137.654237 135.9843 
L 138.012203 136.172015 
L 138.370169 136.358935 
L 138.728136 136.54506 
L 139.086102 136.730389 
L 139.444068 136.914923 
L 139.802034 137.098661 
L 140.16 137.281604 
L 140.517966 137.463752 
L 140.875932 137.645104 
L 141.233898 137.82566 
L 141.591864 138.005422 
L 141.949831 138.184388 
L 142.307797 138.362558 
L 142.665763 138.539933 
L 143.023729 138.716513 
L 143.381695 138.892297 
L 143.739661 139.067286 
L 144.097627 139.24148 
L 144.455593 139.414878 
L 144.813559 139.587481 
L 145.171525 139.759288 
L 145.529492 139.9303 
L 145.887458 140.100516 
L 146.245424 140.269937 
L 146.60339 140.438563 
L 146.961356 140.606393 
L 147.319322 140.773428 
L 147.677288 140.939668 
L 148.035254 141.105112 
L 148.39322 141.26976 
L 148.751186 141.433614 
L 149.109153 141.596671 
L 149.467119 141.758934 
L 149.825085 141.920401 
L 150.183051 142.081072 
L 150.541017 142.240949 
L 150.898983 142.40003 
L 151.256949 142.558315 
L 151.614915 142.715805 
L 151.972881 142.8725 
L 152.330847 143.028399 
L 152.688814 143.183503 
L 153.04678 143.337811 
L 153.404746 143.491324 
L 153.762712 143.644042 
L 154.120678 143.795964 
L 154.478644 143.947091 
L 154.83661 144.097422 
L 155.194576 144.246958 
L 155.552542 144.395698 
L 155.910508 144.543644 
L 156.268475 144.690793 
L 156.626441 144.837148 
L 156.984407 144.982707 
L 157.342373 145.12747 
L 157.700339 145.271438 
L 158.058305 145.414611 
L 158.416271 145.556988 
L 158.774237 145.69857 
L 159.132203 145.839357 
L 159.490169 145.979348 
L 159.848136 146.118544 
L 160.206102 146.256944 
L 160.564068 146.394549 
L 160.922034 146.531358 
L 161.28 146.667373 
L 161.637966 146.802591 
L 161.995932 146.937015 
L 162.353898 147.070642 
L 162.711864 147.203475 
L 163.069831 147.335512 
L 163.427797 147.466754 
L 163.785763 147.5972 
L 164.143729 147.726851 
L 164.501695 147.855706 
L 164.859661 147.983766 
L 165.217627 148.111031 
L 165.575593 148.2375 
L 165.933559 148.363174 
L 166.291525 148.488053 
L 166.649492 148.612136 
L 167.007458 148.735423 
L 167.365424 148.857916 
L 167.72339 148.979612 
L 168.081356 149.100514 
L 168.439322 149.22062 
L 168.797288 149.33993 
L 169.155254 149.458446 
L 169.51322 149.576165 
L 169.871186 149.69309 
L 170.229153 149.809219 
L 170.587119 149.924552 
L 170.945085 150.039091 
L 171.303051 150.152833 
L 171.661017 150.265781 
L 172.018983 150.377933 
L 172.376949 150.489289 
L 172.734915 150.599851 
L 173.092881 150.709616 
L 173.450847 150.818587 
L 173.808814 150.926762 
L 174.16678 151.034141 
L 174.524746 151.140725 
L 174.882712 151.246514 
L 175.240678 151.351507 
L 175.598644 151.455705 
L 175.95661 151.559108 
L 176.314576 151.661715 
L 176.672542 151.763527 
L 177.030508 151.864543 
L 177.388475 151.964764 
L 177.746441 152.06419 
L 178.104407 152.16282 
L 178.462373 152.260654 
L 178.820339 152.357694 
L 179.178305 152.453938 
L 179.536271 152.549386 
L 179.894237 152.644039 
L 180.252203 152.737897 
L 180.610169 152.830959 
L 180.968136 152.923226 
L 181.326102 153.014697 
L 181.684068 153.105374 
L 182.042034 153.195254 
L 182.4 153.284339 
L 182.757966 153.372629 
L 183.115932 153.460124 
L 183.473898 153.546823 
L 183.831864 153.632726 
L 184.189831 153.717835 
L 184.547797 153.802148 
L 184.905763 153.885665 
L 185.263729 153.968387 
L 185.621695 154.050314 
L 185.979661 154.131445 
L 186.337627 154.211781 
L 186.695593 154.291321 
L 187.053559 154.370066 
L 187.411525 154.448016 
L 187.769492 154.52517 
L 188.127458 154.601529 
L 188.485424 154.677092 
L 188.84339 154.75186 
L 189.201356 154.825833 
L 189.559322 154.89901 
L 189.917288 154.971392 
L 190.275254 155.042978 
L 190.63322 155.113769 
L 190.991186 155.183764 
L 191.349153 155.252965 
L 191.707119 155.321369 
L 192.065085 155.388979 
L 192.423051 155.455793 
L 192.781017 155.521811 
L 193.138983 155.587034 
L 193.496949 155.651462 
L 193.854915 155.715094 
L 194.212881 155.777931 
L 194.570847 155.839973 
L 194.928814 155.901219 
L 195.28678 155.96167 
L 195.644746 156.021325 
L 196.002712 156.080185 
L 196.360678 156.138249 
L 196.718644 156.195519 
L 197.07661 156.251992 
L 197.434576 156.30767 
L 197.792542 156.362553 
L 198.150508 156.416641 
L 198.508475 156.469933 
L 198.866441 156.52243 
L 199.224407 156.574131 
L 199.582373 156.625037 
L 199.940339 156.675147 
L 200.298305 156.724462 
L 200.656271 156.772982 
L 201.014237 156.820706 
L 201.372203 156.867635 
L 201.730169 156.913768 
L 202.088136 156.959106 
L 202.446102 157.003649 
L 202.804068 157.047396 
L 203.162034 157.090348 
L 203.52 157.132505 
L 203.877966 157.173866 
L 204.235932 157.214431 
L 204.593898 157.254201 
L 204.951864 157.293176 
L 205.309831 157.331356 
L 205.667797 157.36874 
L 206.025763 157.405328 
L 206.383729 157.441121 
L 206.741695 157.476119 
L 207.099661 157.510322 
L 207.457627 157.543728 
L 207.815593 157.57634 
L 208.173559 157.608156 
L 208.531525 157.639177 
L 208.889492 157.669402 
L 209.247458 157.698832 
L 209.605424 157.727467 
L 209.96339 157.755306 
L 210.321356 157.78235 
L 210.679322 157.808598 
L 211.037288 157.834051 
L 211.395254 157.858709 
L 211.75322 157.882571 
L 212.111186 157.905637 
L 212.469153 157.927909 
L 212.827119 157.949385 
L 213.185085 157.970065 
L 213.543051 157.98995 
L 213.901017 158.00904 
L 214.258983 158.027334 
L 214.616949 158.044833 
L 214.974915 158.061537 
L 215.332881 158.077445 
L 215.690847 158.092557 
L 216.048814 158.106875 
L 216.40678 158.120396 
L 216.764746 158.133123 
L 217.122712 158.145054 
L 217.480678 158.15619 
L 217.838644 158.16653 
L 218.19661 158.176075 
L 218.554576 158.184824 
L 218.912542 158.192778 
L 219.270508 158.199937 
L 219.628475 158.2063 
L 219.986441 158.211868 
L 220.344407 158.21664 
L 220.702373 158.220617 
L 221.060339 158.223799 
L 221.418305 158.226185 
L 221.776271 158.227776 
L 222.134237 158.228571 
L 222.492203 158.228571 
L 222.850169 158.227776 
L 223.208136 158.226185 
L 223.566102 158.223799 
L 223.924068 158.220617 
L 224.282034 158.21664 
L 224.64 158.211868 
L 224.997966 158.2063 
L 225.355932 158.199937 
L 225.713898 158.192778 
L 226.071864 158.184824 
L 226.429831 158.176075 
L 226.787797 158.16653 
L 227.145763 158.15619 
L 227.503729 158.145054 
L 227.861695 158.133123 
L 228.219661 158.120396 
L 228.577627 158.106875 
L 228.935593 158.092557 
L 229.293559 158.077445 
L 229.651525 158.061537 
L 230.009492 158.044833 
L 230.367458 158.027334 
L 230.725424 158.00904 
L 231.08339 157.98995 
L 231.441356 157.970065 
L 231.799322 157.949385 
L 232.157288 157.927909 
L 232.515254 157.905637 
L 232.87322 157.882571 
L 233.231186 157.858709 
L 233.589153 157.834051 
L 233.947119 157.808598 
L 234.305085 157.78235 
L 234.663051 157.755306 
L 235.021017 157.727467 
L 235.378983 157.698832 
L 235.736949 157.669402 
L 236.094915 157.639177 
L 236.452881 157.608156 
L 236.810847 157.57634 
L 237.168814 157.543728 
L 237.52678 157.510322 
L 237.884746 157.476119 
L 238.242712 157.441121 
L 238.600678 157.405328 
L 238.958644 157.36874 
L 239.31661 157.331356 
L 239.674576 157.293176 
L 240.032542 157.254201 
L 240.390508 157.214431 
L 240.748475 157.173866 
L 241.106441 157.132505 
L 241.464407 157.090348 
L 241.822373 157.047396 
L 242.180339 157.003649 
L 242.538305 156.959106 
L 242.896271 156.913768 
L 243.254237 156.867635 
L 243.612203 156.820706 
L 243.970169 156.772982 
L 244.328136 156.724462 
L 244.686102 156.675147 
L 245.044068 156.625037 
L 245.402034 156.574131 
L 245.76 156.52243 
L 246.117966 156.469933 
L 246.475932 156.416641 
L 246.833898 156.362553 
L 247.191864 156.30767 
L 247.549831 156.251992 
L 247.907797 156.195519 
L 248.265763 156.138249 
L 248.623729 156.080185 
L 248.981695 156.021325 
L 249.339661 155.96167 
L 249.697627 155.901219 
L 250.055593 155.839973 
L 250.413559 155.777931 
L 250.771525 155.715094 
L 251.129492 155.651462 
L 251.487458 155.587034 
L 251.845424 155.521811 
L 252.20339 155.455793 
L 252.561356 155.388979 
L 252.919322 155.321369 
L 253.277288 155.252965 
L 253.635254 155.183764 
L 253.99322 155.113769 
L 254.351186 155.042978 
L 254.709153 154.971392 
L 255.067119 154.89901 
L 255.425085 154.825833 
L 255.425085 10.774167 
L 255.425085 10.774167 
L 255.067119 10.70099 
L 254.709153 10.628608 
L 254.351186 10.557022 
L 253.99322 10.486231 
L 253.635254 10.416236 
L 253.277288 10.347035 
L 252.919322 10.278631 
L 252.561356 10.211021 
L 252.20339 10.144207 
L 251.845424 10.078189 
L 251.487458 10.012966 
L 251.129492 9.948538 
L 250.771525 9.884906 
L 250.413559 9.822069 
L 250.055593 9.760027 
L 249.697627 9.698781 
L 249.339661 9.63833 
L 248.981695 9.578675 
L 248.623729 9.519815 
L 248.265763 9.461751 
L 247.907797 9.404481 
L 247.549831 9.348008 
L 247.191864 9.29233 
L 246.833898 9.237447 
L 246.475932 9.183359 
L 246.117966 9.130067 
L 245.76 9.07757 
L 245.402034 9.025869 
L 245.044068 8.974963 
L 244.686102 8.924853 
L 244.328136 8.875538 
L 243.970169 8.827018 
L 243.612203 8.779294 
L 243.254237 8.732365 
L 242.896271 8.686232 
L 242.538305 8.640894 
L 242.180339 8.596351 
L 241.822373 8.552604 
L 241.464407 8.509652 
L 241.106441 8.467495 
L 240.748475 8.426134 
L 240.390508 8.385569 
L 240.032542 8.345799 
L 239.674576 8.306824 
L 239.31661 8.268644 
L 238.958644 8.23126 
L 238.600678 8.194672 
L 238.242712 8.158879 
L 237.884746 8.123881 
L 237.52678 8.089678 
L 237.168814 8.056272 
L 236.810847 8.02366 
L 236.452881 7.991844 
L 236.094915 7.960823 
L 235.736949 7.930598 
L 235.378983 7.901168 
L 235.021017 7.872533 
L 234.663051 7.844694 
L 234.305085 7.81765 
L 233.947119 7.791402 
L 233.589153 7.765949 
L 233.231186 7.741291 
L 232.87322 7.717429 
L 232.515254 7.694363 
L 232.157288 7.672091 
L 231.799322 7.650615 
L 231.441356 7.629935 
L 231.08339 7.61005 
L 230.725424 7.59096 
L 230.367458 7.572666 
L 230.009492 7.555167 
L 229.651525 7.538463 
L 229.293559 7.522555 
L 228.935593 7.507443 
L 228.577627 7.493125 
L 228.219661 7.479604 
L 227.861695 7.466877 
L 227.503729 7.454946 
L 227.145763 7.44381 
L 226.787797 7.43347 
L 226.429831 7.423925 
L 226.071864 7.415176 
L 225.713898 7.407222 
L 225.355932 7.400063 
L 224.997966 7.3937 
L 224.64 7.388132 
L 224.282034 7.38336 
L 223.924068 7.379383 
L 223.566102 7.376201 
L 223.208136 7.373815 
L 222.850169 7.372224 
L 222.492203 7.371429 
L 222.134237 7.371429 
L 221.776271 7.372224 
L 221.418305 7.373815 
L 221.060339 7.376201 
L 220.702373 7.379383 
L 220.344407 7.38336 
L 219.986441 7.388132 
L 219.628475 7.3937 
L 219.270508 7.400063 
L 218.912542 7.407222 
L 218.554576 7.415176 
L 218.19661 7.423925 
L 217.838644 7.43347 
L 217.480678 7.44381 
L 217.122712 7.454946 
L 216.764746 7.466877 
L 216.40678 7.479604 
L 216.048814 7.493125 
L 215.690847 7.507443 
L 215.332881 7.522555 
L 214.974915 7.538463 
L 214.616949 7.555167 
L 214.258983 7.572666 
L 213.901017 7.59096 
L 213.543051 7.61005 
L 213.185085 7.629935 
L 212.827119 7.650615 
L 212.469153 7.672091 
L 212.111186 7.694363 
L 211.75322 7.717429 
L 211.395254 7.741291 
L 211.037288 7.765949 
L 210.679322 7.791402 
L 210.321356 7.81765 
L 209.96339 7.844694 
L 209.605424 7.872533 
L 209.247458 7.901168 
L 208.889492 7.930598 
L 208.531525 7.960823 
L 208.173559 7.991844 
L 207.815593 8.02366 
L 207.457627 8.056272 
L 207.099661 8.089678 
L 206.741695 8.123881 
L 206.383729 8.158879 
L 206.025763 8.194672 
L 205.667797 8.23126 
L 205.309831 8.268644 
L 204.951864 8.306824 
L 204.593898 8.345799 
L 204.235932 8.385569 
L 203.877966 8.426134 
L 203.52 8.467495 
L 203.162034 8.509652 
L 202.804068 8.552604 
L 202.446102 8.596351 
L 202.088136 8.640894 
L 201.730169 8.686232 
L 201.372203 8.732365 
L 201.014237 8.779294 
L 200.656271 8.827018 
L 200.298305 8.875538 
L 199.940339 8.924853 
L 199.582373 8.974963 
L 199.224407 9.025869 
L 198.866441 9.07757 
L 198.508475 9.130067 
L 198.150508 9.183359 
L 197.792542 9.237447 
L 197.434576 9.29233 
L 197.07661 9.348008 
L 196.718644 9.404481 
L 196.360678 9.461751 
L 196.002712 9.519815 
L 195.644746 9.578675 
L 195.28678 9.63833 
L 194.928814 9.698781 
L 194.570847 9.760027 
L 194.212881 9.822069 
L 193.854915 9.884906 
L 193.496949 9.948538 
L 193.138983 10.012966 
L 192.781017 10.078189 
L 192.423051 10.144207 
L 192.065085 10.211021 
L 191.707119 10.278631 
L 191.349153 10.347035 
L 190.991186 10.416236 
L 190.63322 10.486231 
L 190.275254 10.557022 
L 189.917288 10.628608 
L 189.559322 10.70099 
L 189.201356 10.774167 
L 188.84339 10.84814 
L 188.485424 10.922908 
L 188.127458 10.998471 
L 187.769492 11.07483 
L 187.411525 11.151984 
L 187.053559 11.229934 
L 186.695593 11.308679 
L 186.337627 11.388219 
L 185.979661 11.468555 
L 185.621695 11.549686 
L 185.263729 11.631613 
L 184.905763 11.714335 
L 184.547797 11.797852 
L 184.189831 11.882165 
L 183.831864 11.967274 
L 183.473898 12.053177 
L 183.115932 12.139876 
L 182.757966 12.227371 
L 182.4 12.315661 
L 182.042034 12.404746 
L 181.684068 12.494626 
L 181.326102 12.585303 
L 180.968136 12.676774 
L 180.610169 12.769041 
L 180.252203 12.862103 
L 179.894237 12.955961 
L 179.536271 13.050614 
L 179.178305 13.146062 
L 178.820339 13.242306 
L 178.462373 13.339346 
L 178.104407 13.43718 
L 177.746441 13.53581 
L 177.388475 13.635236 
L 177.030508 13.735457 
L 176.672542 13.836473 
L 176.314576 13.938285 
L 175.95661 14.040892 
L 175.598644 14.144295 
L 175.240678 14.248493 
L 174.882712 14.353486 
L 174.524746 14.459275 
L 174.16678 14.565859 
L 173.808814 14.673238 
L 173.450847 14.781413 
L 173.092881 14.890384 
L 172.734915 15.000149 
L 172.376949 15.110711 
L 172.018983 15.222067 
L 171.661017 15.334219 
L 171.303051 15.447167 
L 170.945085 15.560909 
L 170.587119 15.675448 
L 170.229153 15.790781 
L 169.871186 15.90691 
L 169.51322 16.023835 
L 169.155254 16.141554 
L 168.797288 16.26007 
L 168.439322 16.37938 
L 168.081356 16.499486 
L 167.72339 16.620388 
L 167.365424 16.742084 
L 167.007458 16.864577 
L 166.649492 16.987864 
L 166.291525 17.111947 
L 165.933559 17.236826 
L 165.575593 17.3625 
L 165.217627 17.488969 
L 164.859661 17.616234 
L 164.501695 17.744294 
L 164.143729 17.873149 
L 163.785763 18.0028 
L 163.427797 18.133246 
L 163.069831 18.264488 
L 162.711864 18.396525 
L 162.353898 18.529358 
L 161.995932 18.662985 
L 161.637966 18.797409 
L 161.28 18.932627 
L 160.922034 19.068642 
L 160.564068 19.205451 
L 160.206102 19.343056 
L 159.848136 19.481456 
L 159.490169 19.620652 
L 159.132203 19.760643 
L 158.774237 19.90143 
L 158.416271 20.043012 
L 158.058305 20.185389 
L 157.700339 20.328562 
L 157.342373 20.47253 
L 156.984407 20.617293 
L 156.626441 20.762852 
L 156.268475 20.909207 
L 155.910508 21.056356 
L 155.552542 21.204302 
L 155.194576 21.353042 
L 154.83661 21.502578 
L 154.478644 21.652909 
L 154.120678 21.804036 
L 153.762712 21.955958 
L 153.404746 22.108676 
L 153.04678 22.262189 
L 152.688814 22.416497 
L 152.330847 22.571601 
L 151.972881 22.7275 
L 151.614915 22.884195 
L 151.256949 23.041685 
L 150.898983 23.19997 
L 150.541017 23.359051 
L 150.183051 23.518928 
L 149.825085 23.679599 
L 149.467119 23.841066 
L 149.109153 24.003329 
L 148.751186 24.166386 
L 148.39322 24.33024 
L 148.035254 24.494888 
L 147.677288 24.660332 
L 147.319322 24.826572 
L 146.961356 24.993607 
L 146.60339 25.161437 
L 146.245424 25.330063 
L 145.887458 25.499484 
L 145.529492 25.6697 
L 145.171525 25.840712 
L 144.813559 26.012519 
L 144.455593 26.185122 
L 144.097627 26.35852 
L 143.739661 26.532714 
L 143.381695 26.707703 
L 143.023729 26.883487 
L 142.665763 27.060067 
L 142.307797 27.237442 
L 141.949831 27.415612 
L 141.591864 27.594578 
L 141.233898 27.77434 
L 140.875932 27.954896 
L 140.517966 28.136248 
L 140.16 28.318396 
L 139.802034 28.501339 
L 139.444068 28.685077 
L 139.086102 28.869611 
L 138.728136 29.05494 
L 138.370169 29.241065 
L 138.012203 29.427985 
L 137.654237 29.6157 
L 137.296271 29.804211 
L 136.938305 29.993517 
L 136.580339 30.183619 
L 136.222373 30.374516 
L 135.864407 30.566208 
L 135.506441 30.758696 
L 135.148475 30.951979 
L 134.790508 31.146058 
L 134.432542 31.340932 
L 134.074576 31.536601 
L 133.71661 31.733066 
L 133.358644 31.930326 
L 133.000678 32.128382 
L 132.642712 32.327233 
L 132.284746 32.526879 
L 131.92678 32.727321 
L 131.568814 32.928558 
L 131.210847 33.130591 
L 130.852881 33.333419 
L 130.494915 33.537042 
L 130.136949 33.741461 
L 129.778983 33.946676 
L 129.421017 34.152685 
L 129.063051 34.35949 
L 128.705085 34.567091 
L 128.347119 34.775487 
L 127.989153 34.984678 
L 127.631186 35.194665 
L 127.27322 35.405447 
L 126.915254 35.617024 
L 126.557288 35.829397 
L 126.199322 36.042565 
L 125.841356 36.256529 
L 125.48339 36.471288 
L 125.125424 36.686843 
L 124.767458 36.903193 
L 124.409492 37.120338 
L 124.051525 37.338279 
L 123.693559 37.557015 
L 123.335593 37.776546 
L 122.977627 37.996873 
L 122.619661 38.217996 
L 122.261695 38.439913 
L 121.903729 38.662627 
L 121.545763 38.886135 
L 121.187797 39.110439 
L 120.829831 39.335538 
L 120.471864 39.561433 
L 120.113898 39.788123 
L 119.755932 40.015609 
L 119.397966 40.24389 
L 119.04 40.472966 
L 118.682034 40.702838 
L 118.324068 40.933505 
L 117.966102 41.164968 
L 117.608136 41.397226 
L 117.250169 41.630279 
L 116.892203 41.864128 
L 116.534237 42.098772 
L 116.176271 42.334212 
L 115.818305 42.570447 
L 115.460339 42.807477 
L 115.102373 43.045303 
L 114.744407 43.283924 
L 114.386441 43.523341 
L 114.028475 43.763553 
L 113.670508 44.004561 
L 113.312542 44.246363 
L 112.954576 44.488962 
L 112.59661 44.732355 
L 112.238644 44.976544 
L 111.880678 45.221529 
L 111.522712 45.467309 
L 111.164746 45.713884 
L 110.80678 45.961255 
L 110.448814 46.209421 
L 110.090847 46.458382 
L 109.732881 46.708139 
L 109.374915 46.958691 
L 109.016949 47.210039 
L 108.658983 47.462182 
L 108.301017 47.715121 
L 107.943051 47.968855 
L 107.585085 48.223384 
L 107.227119 48.478709 
L 106.869153 48.734829 
L 106.511186 48.991744 
L 106.15322 49.249455 
L 105.795254 49.507962 
L 105.437288 49.767263 
L 105.079322 50.027361 
L 104.721356 50.288253 
L 104.36339 50.549941 
L 104.005424 50.812424 
L 103.647458 51.075703 
L 103.289492 51.339777 
L 102.931525 51.604647 
L 102.573559 51.870312 
L 102.215593 52.136772 
L 101.857627 52.404028 
L 101.499661 52.672079 
L 101.141695 52.940926 
L 100.783729 53.210568 
L 100.425763 53.481005 
L 100.067797 53.752238 
L 99.709831 54.024266 
L 99.351864 54.29709 
L 98.993898 54.570709 
L 98.635932 54.845123 
L 98.277966 55.120333 
L 97.92 55.396338 
L 97.562034 55.673139 
L 97.204068 55.950735 
L 96.846102 56.229126 
L 96.488136 56.508313 
L 96.130169 56.788296 
L 95.772203 57.069073 
L 95.414237 57.350646 
L 95.056271 57.633015 
L 94.698305 57.916179 
L 94.340339 58.200138 
L 93.982373 58.484892 
L 93.624407 58.770443 
L 93.266441 59.056788 
L 92.908475 59.343929 
L 92.550508 59.631865 
L 92.192542 59.920597 
L 91.834576 60.210124 
L 91.47661 60.500447 
L 91.118644 60.791564 
L 90.760678 61.083478 
L 90.402712 61.376186 
L 90.044746 61.669691 
L 89.68678 61.96399 
L 89.328814 62.259085 
L 88.970847 62.554975 
L 88.612881 62.851661 
L 88.254915 63.149142 
L 87.896949 63.447419 
L 87.538983 63.746491 
L 87.181017 64.046358 
L 86.823051 64.347021 
L 86.465085 64.648479 
L 86.107119 64.950733 
L 85.749153 65.253782 
L 85.391186 65.557626 
L 85.03322 65.862266 
L 84.675254 66.167701 
L 84.317288 66.473931 
L 83.959322 66.780957 
L 83.601356 67.088779 
L 83.24339 67.397396 
L 82.885424 67.706808 
L 82.527458 68.017015 
L 82.169492 68.328018 
L 81.811525 68.639817 
L 81.453559 68.952411 
L 81.095593 69.2658 
L 80.737627 69.579985 
L 80.379661 69.894965 
L 80.021695 70.21074 
L 79.663729 70.527311 
L 79.305763 70.844677 
L 78.947797 71.162839 
L 78.589831 71.481796 
L 78.231864 71.801548 
L 77.873898 72.122096 
L 77.515932 72.443439 
L 77.157966 72.765578 
L 76.8 73.088512 
L 76.442034 73.412242 
L 76.084068 73.736766 
L 75.726102 74.062087 
L 75.368136 74.388202 
L 75.010169 74.715113 
L 74.652203 75.04282 
L 74.294237 75.371322 
L 73.936271 75.700619 
L 73.578305 76.030712 
L 73.220339 76.3616 
L 72.862373 76.693284 
L 72.504407 77.025762 
L 72.146441 77.359037 
L 71.788475 77.693106 
L 71.430508 78.027972 
L 71.072542 78.363632 
L 70.714576 78.700088 
L 70.35661 79.037339 
L 69.998644 79.375386 
L 69.640678 79.714228 
L 69.282712 80.053866 
L 68.924746 80.394299 
L 68.56678 80.735527 
L 68.208814 81.077551 
L 67.850847 81.42037 
L 67.492881 81.763985 
L 67.134915 82.108395 
L 66.776949 82.4536 
z
" style="fill:#0000ff;fill-opacity:0.1;stroke:#0000ff;stroke-opacity:0.1;"/>
    <path clip-path="url(#p467db7d76b)" d="M 259.362712 10.84814 
L 259.362712 154.75186 
L 259.720678 154.677092 
L 260.078644 154.601529 
L 260.43661 154.52517 
L 260.794576 154.448016 
L 261.152542 154.370066 
L 261.510508 154.291321 
L 261.868475 154.211781 
L 262.226441 154.131445 
L 262.584407 154.050314 
L 262.584407 11.549686 
L 262.584407 11.549686 
L 262.226441 11.468555 
L 261.868475 11.388219 
L 261.510508 11.308679 
L 261.152542 11.229934 
L 260.794576 11.151984 
L 260.43661 11.07483 
L 260.078644 10.998471 
L 259.720678 10.922908 
L 259.362712 10.84814 
z
" style="fill:#0000ff;fill-opacity:0.1;stroke:#0000ff;stroke-opacity:0.1;"/>
    <path clip-path="url(#p467db7d76b)" d="M 263.300339 11.631613 
L 263.300339 153.968387 
L 263.300339 11.631613 
L 263.300339 11.631613 
z
" style="fill:#0000ff;fill-opacity:0.1;stroke:#0000ff;stroke-opacity:0.1;"/>
    <path clip-path="url(#p467db7d76b)" d="M 264.016271 11.714335 
L 264.016271 153.885665 
L 264.016271 11.714335 
L 264.016271 11.714335 
z
" style="fill:#0000ff;fill-opacity:0.1;stroke:#0000ff;stroke-opacity:0.1;"/>
    <path clip-path="url(#p467db7d76b)" d="M 264.732203 11.797852 
L 264.732203 153.802148 
L 265.090169 153.717835 
L 265.448136 153.632726 
L 265.806102 153.546823 
L 266.164068 153.460124 
L 266.522034 153.372629 
L 266.88 153.284339 
L 267.237966 153.195254 
L 267.595932 153.105374 
L 267.953898 153.014697 
L 268.311864 152.923226 
L 268.669831 152.830959 
L 269.027797 152.737897 
L 269.385763 152.644039 
L 269.743729 152.549386 
L 270.101695 152.453938 
L 270.459661 152.357694 
L 270.817627 152.260654 
L 271.175593 152.16282 
L 271.533559 152.06419 
L 271.891525 151.964764 
L 272.249492 151.864543 
L 272.607458 151.763527 
L 272.965424 151.661715 
L 273.32339 151.559108 
L 273.681356 151.455705 
L 274.039322 151.351507 
L 274.397288 151.246514 
L 274.755254 151.140725 
L 275.11322 151.034141 
L 275.471186 150.926762 
L 275.829153 150.818587 
L 276.187119 150.709616 
L 276.545085 150.599851 
L 276.903051 150.489289 
L 277.261017 150.377933 
L 277.618983 150.265781 
L 277.976949 150.152833 
L 278.334915 150.039091 
L 278.692881 149.924552 
L 279.050847 149.809219 
L 279.408814 149.69309 
L 279.76678 149.576165 
L 280.124746 149.458446 
L 280.482712 149.33993 
L 280.840678 149.22062 
L 281.198644 149.100514 
L 281.55661 148.979612 
L 281.914576 148.857916 
L 282.272542 148.735423 
L 282.630508 148.612136 
L 282.988475 148.488053 
L 283.346441 148.363174 
L 283.704407 148.2375 
L 284.062373 148.111031 
L 284.420339 147.983766 
L 284.778305 147.855706 
L 285.136271 147.726851 
L 285.494237 147.5972 
L 285.852203 147.466754 
L 286.210169 147.335512 
L 286.568136 147.203475 
L 286.926102 147.070642 
L 287.284068 146.937015 
L 287.642034 146.802591 
L 288 146.667373 
L 288.357966 146.531358 
L 288.715932 146.394549 
L 289.073898 146.256944 
L 289.431864 146.118544 
L 289.789831 145.979348 
L 290.147797 145.839357 
L 290.505763 145.69857 
L 290.863729 145.556988 
L 291.221695 145.414611 
L 291.579661 145.271438 
L 291.937627 145.12747 
L 292.295593 144.982707 
L 292.653559 144.837148 
L 293.011525 144.690793 
L 293.369492 144.543644 
L 293.727458 144.395698 
L 294.085424 144.246958 
L 294.44339 144.097422 
L 294.801356 143.947091 
L 295.159322 143.795964 
L 295.517288 143.644042 
L 295.875254 143.491324 
L 296.23322 143.337811 
L 296.591186 143.183503 
L 296.949153 143.028399 
L 297.307119 142.8725 
L 297.665085 142.715805 
L 298.023051 142.558315 
L 298.381017 142.40003 
L 298.738983 142.240949 
L 299.096949 142.081072 
L 299.454915 141.920401 
L 299.812881 141.758934 
L 300.170847 141.596671 
L 300.528814 141.433614 
L 300.88678 141.26976 
L 301.244746 141.105112 
L 301.602712 140.939668 
L 301.960678 140.773428 
L 302.318644 140.606393 
L 302.67661 140.438563 
L 303.034576 140.269937 
L 303.392542 140.100516 
L 303.750508 139.9303 
L 304.108475 139.759288 
L 304.466441 139.587481 
L 304.824407 139.414878 
L 305.182373 139.24148 
L 305.540339 139.067286 
L 305.898305 138.892297 
L 306.256271 138.716513 
L 306.614237 138.539933 
L 306.972203 138.362558 
L 307.330169 138.184388 
L 307.688136 138.005422 
L 308.046102 137.82566 
L 308.404068 137.645104 
L 308.762034 137.463752 
L 309.12 137.281604 
L 309.477966 137.098661 
L 309.835932 136.914923 
L 310.193898 136.730389 
L 310.551864 136.54506 
L 310.909831 136.358935 
L 311.267797 136.172015 
L 311.625763 135.9843 
L 311.983729 135.795789 
L 312.341695 135.606483 
L 312.699661 135.416381 
L 313.057627 135.225484 
L 313.415593 135.033792 
L 313.773559 134.841304 
L 314.131525 134.648021 
L 314.489492 134.453942 
L 314.847458 134.259068 
L 315.205424 134.063399 
L 315.56339 133.866934 
L 315.921356 133.669674 
L 316.279322 133.471618 
L 316.637288 133.272767 
L 316.995254 133.073121 
L 317.35322 132.872679 
L 317.711186 132.671442 
L 318.069153 132.469409 
L 318.427119 132.266581 
L 318.785085 132.062958 
L 319.143051 131.858539 
L 319.501017 131.653324 
L 319.858983 131.447315 
L 320.216949 131.24051 
L 320.574915 131.032909 
L 320.932881 130.824513 
L 321.290847 130.615322 
L 321.648814 130.405335 
L 322.00678 130.194553 
L 322.364746 129.982976 
L 322.722712 129.770603 
L 323.080678 129.557435 
L 323.438644 129.343471 
L 323.79661 129.128712 
L 324.154576 128.913157 
L 324.512542 128.696807 
L 324.870508 128.479662 
L 325.228475 128.261721 
L 325.586441 128.042985 
L 325.944407 127.823454 
L 326.302373 127.603127 
L 326.660339 127.382004 
L 327.018305 127.160087 
L 327.376271 126.937373 
L 327.734237 126.713865 
L 328.092203 126.489561 
L 328.450169 126.264462 
L 328.808136 126.038567 
L 329.166102 125.811877 
L 329.524068 125.584391 
L 329.882034 125.35611 
L 330.24 125.127034 
L 330.597966 124.897162 
L 330.955932 124.666495 
L 331.313898 124.435032 
L 331.671864 124.202774 
L 332.029831 123.969721 
L 332.387797 123.735872 
L 332.745763 123.501228 
L 333.103729 123.265788 
L 333.461695 123.029553 
L 333.819661 122.792523 
L 334.177627 122.554697 
L 334.535593 122.316076 
L 334.893559 122.076659 
L 335.251525 121.836447 
L 335.609492 121.595439 
L 335.967458 121.353637 
L 336.325424 121.111038 
L 336.68339 120.867645 
L 337.041356 120.623456 
L 337.399322 120.378471 
L 337.757288 120.132691 
L 338.115254 119.886116 
L 338.47322 119.638745 
L 338.831186 119.390579 
L 339.189153 119.141618 
L 339.547119 118.891861 
L 339.905085 118.641309 
L 340.263051 118.389961 
L 340.621017 118.137818 
L 340.978983 117.884879 
L 341.336949 117.631145 
L 341.694915 117.376616 
L 342.052881 117.121291 
L 342.410847 116.865171 
L 342.768814 116.608256 
L 343.12678 116.350545 
L 343.484746 116.092038 
L 343.842712 115.832737 
L 344.200678 115.572639 
L 344.558644 115.311747 
L 344.91661 115.050059 
L 345.274576 114.787576 
L 345.632542 114.524297 
L 345.990508 114.260223 
L 346.348475 113.995353 
L 346.706441 113.729688 
L 347.064407 113.463228 
L 347.422373 113.195972 
L 347.780339 112.927921 
L 348.138305 112.659074 
L 348.496271 112.389432 
L 348.854237 112.118995 
L 349.212203 111.847762 
L 349.570169 111.575734 
L 349.928136 111.30291 
L 350.286102 111.029291 
L 350.644068 110.754877 
L 351.002034 110.479667 
L 351.36 110.203662 
L 351.717966 109.926861 
L 352.075932 109.649265 
L 352.433898 109.370874 
L 352.791864 109.091687 
L 353.149831 108.811704 
L 353.507797 108.530927 
L 353.865763 108.249354 
L 354.223729 107.966985 
L 354.581695 107.683821 
L 354.939661 107.399862 
L 355.297627 107.115108 
L 355.655593 106.829557 
L 356.013559 106.543212 
L 356.371525 106.256071 
L 356.729492 105.968135 
L 357.087458 105.679403 
L 357.445424 105.389876 
L 357.80339 105.099553 
L 358.161356 104.808436 
L 358.519322 104.516522 
L 358.877288 104.223814 
L 359.235254 103.930309 
L 359.59322 103.63601 
L 359.951186 103.340915 
L 360.309153 103.045025 
L 360.667119 102.748339 
L 361.025085 102.450858 
L 361.383051 102.152581 
L 361.741017 101.853509 
L 362.098983 101.553642 
L 362.456949 101.252979 
L 362.814915 100.951521 
L 363.172881 100.649267 
L 363.530847 100.346218 
L 363.888814 100.042374 
L 364.24678 99.737734 
L 364.604746 99.432299 
L 364.962712 99.126069 
L 365.320678 98.819043 
L 365.678644 98.511221 
L 366.03661 98.202604 
L 366.394576 97.893192 
L 366.752542 97.582985 
L 367.110508 97.271982 
L 367.468475 96.960183 
L 367.826441 96.647589 
L 368.184407 96.3342 
L 368.542373 96.020015 
L 368.900339 95.705035 
L 369.258305 95.38926 
L 369.616271 95.072689 
L 369.974237 94.755323 
L 370.332203 94.437161 
L 370.690169 94.118204 
L 371.048136 93.798452 
L 371.406102 93.477904 
L 371.764068 93.156561 
L 372.122034 92.834422 
L 372.48 92.511488 
L 372.837966 92.187758 
L 373.195932 91.863234 
L 373.553898 91.537913 
L 373.911864 91.211798 
L 374.269831 90.884887 
L 374.627797 90.55718 
L 374.985763 90.228678 
L 375.343729 89.899381 
L 375.701695 89.569288 
L 376.059661 89.2384 
L 376.417627 88.906716 
L 376.775593 88.574238 
L 377.133559 88.240963 
L 377.491525 87.906894 
L 377.849492 87.572028 
L 378.207458 87.236368 
L 378.565424 86.899912 
L 378.92339 86.562661 
L 379.281356 86.224614 
L 379.639322 85.885772 
L 379.997288 85.546134 
L 380.355254 85.205701 
L 380.71322 84.864473 
L 381.071186 84.522449 
L 381.429153 84.17963 
L 381.787119 83.836015 
L 382.145085 83.491605 
L 382.503051 83.1464 
L 382.503051 82.4536 
L 382.503051 82.4536 
L 382.145085 82.108395 
L 381.787119 81.763985 
L 381.429153 81.42037 
L 381.071186 81.077551 
L 380.71322 80.735527 
L 380.355254 80.394299 
L 379.997288 80.053866 
L 379.639322 79.714228 
L 379.281356 79.375386 
L 378.92339 79.037339 
L 378.565424 78.700088 
L 378.207458 78.363632 
L 377.849492 78.027972 
L 377.491525 77.693106 
L 377.133559 77.359037 
L 376.775593 77.025762 
L 376.417627 76.693284 
L 376.059661 76.3616 
L 375.701695 76.030712 
L 375.343729 75.700619 
L 374.985763 75.371322 
L 374.627797 75.04282 
L 374.269831 74.715113 
L 373.911864 74.388202 
L 373.553898 74.062087 
L 373.195932 73.736766 
L 372.837966 73.412242 
L 372.48 73.088512 
L 372.122034 72.765578 
L 371.764068 72.443439 
L 371.406102 72.122096 
L 371.048136 71.801548 
L 370.690169 71.481796 
L 370.332203 71.162839 
L 369.974237 70.844677 
L 369.616271 70.527311 
L 369.258305 70.21074 
L 368.900339 69.894965 
L 368.542373 69.579985 
L 368.184407 69.2658 
L 367.826441 68.952411 
L 367.468475 68.639817 
L 367.110508 68.328018 
L 366.752542 68.017015 
L 366.394576 67.706808 
L 366.03661 67.397396 
L 365.678644 67.088779 
L 365.320678 66.780957 
L 364.962712 66.473931 
L 364.604746 66.167701 
L 364.24678 65.862266 
L 363.888814 65.557626 
L 363.530847 65.253782 
L 363.172881 64.950733 
L 362.814915 64.648479 
L 362.456949 64.347021 
L 362.098983 64.046358 
L 361.741017 63.746491 
L 361.383051 63.447419 
L 361.025085 63.149142 
L 360.667119 62.851661 
L 360.309153 62.554975 
L 359.951186 62.259085 
L 359.59322 61.96399 
L 359.235254 61.669691 
L 358.877288 61.376186 
L 358.519322 61.083478 
L 358.161356 60.791564 
L 357.80339 60.500447 
L 357.445424 60.210124 
L 357.087458 59.920597 
L 356.729492 59.631865 
L 356.371525 59.343929 
L 356.013559 59.056788 
L 355.655593 58.770443 
L 355.297627 58.484892 
L 354.939661 58.200138 
L 354.581695 57.916179 
L 354.223729 57.633015 
L 353.865763 57.350646 
L 353.507797 57.069073 
L 353.149831 56.788296 
L 352.791864 56.508313 
L 352.433898 56.229126 
L 352.075932 55.950735 
L 351.717966 55.673139 
L 351.36 55.396338 
L 351.002034 55.120333 
L 350.644068 54.845123 
L 350.286102 54.570709 
L 349.928136 54.29709 
L 349.570169 54.024266 
L 349.212203 53.752238 
L 348.854237 53.481005 
L 348.496271 53.210568 
L 348.138305 52.940926 
L 347.780339 52.672079 
L 347.422373 52.404028 
L 347.064407 52.136772 
L 346.706441 51.870312 
L 346.348475 51.604647 
L 345.990508 51.339777 
L 345.632542 51.075703 
L 345.274576 50.812424 
L 344.91661 50.549941 
L 344.558644 50.288253 
L 344.200678 50.027361 
L 343.842712 49.767263 
L 343.484746 49.507962 
L 343.12678 49.249455 
L 342.768814 48.991744 
L 342.410847 48.734829 
L 342.052881 48.478709 
L 341.694915 48.223384 
L 341.336949 47.968855 
L 340.978983 47.715121 
L 340.621017 47.462182 
L 340.263051 47.210039 
L 339.905085 46.958691 
L 339.547119 46.708139 
L 339.189153 46.458382 
L 338.831186 46.209421 
L 338.47322 45.961255 
L 338.115254 45.713884 
L 337.757288 45.467309 
L 337.399322 45.221529 
L 337.041356 44.976544 
L 336.68339 44.732355 
L 336.325424 44.488962 
L 335.967458 44.246363 
L 335.609492 44.004561 
L 335.251525 43.763553 
L 334.893559 43.523341 
L 334.535593 43.283924 
L 334.177627 43.045303 
L 333.819661 42.807477 
L 333.461695 42.570447 
L 333.103729 42.334212 
L 332.745763 42.098772 
L 332.387797 41.864128 
L 332.029831 41.630279 
L 331.671864 41.397226 
L 331.313898 41.164968 
L 330.955932 40.933505 
L 330.597966 40.702838 
L 330.24 40.472966 
L 329.882034 40.24389 
L 329.524068 40.015609 
L 329.166102 39.788123 
L 328.808136 39.561433 
L 328.450169 39.335538 
L 328.092203 39.110439 
L 327.734237 38.886135 
L 327.376271 38.662627 
L 327.018305 38.439913 
L 326.660339 38.217996 
L 326.302373 37.996873 
L 325.944407 37.776546 
L 325.586441 37.557015 
L 325.228475 37.338279 
L 324.870508 37.120338 
L 324.512542 36.903193 
L 324.154576 36.686843 
L 323.79661 36.471288 
L 323.438644 36.256529 
L 323.080678 36.042565 
L 322.722712 35.829397 
L 322.364746 35.617024 
L 322.00678 35.405447 
L 321.648814 35.194665 
L 321.290847 34.984678 
L 320.932881 34.775487 
L 320.574915 34.567091 
L 320.216949 34.35949 
L 319.858983 34.152685 
L 319.501017 33.946676 
L 319.143051 33.741461 
L 318.785085 33.537042 
L 318.427119 33.333419 
L 318.069153 33.130591 
L 317.711186 32.928558 
L 317.35322 32.727321 
L 316.995254 32.526879 
L 316.637288 32.327233 
L 316.279322 32.128382 
L 315.921356 31.930326 
L 315.56339 31.733066 
L 315.205424 31.536601 
L 314.847458 31.340932 
L 314.489492 31.146058 
L 314.131525 30.951979 
L 313.773559 30.758696 
L 313.415593 30.566208 
L 313.057627 30.374516 
L 312.699661 30.183619 
L 312.341695 29.993517 
L 311.983729 29.804211 
L 311.625763 29.6157 
L 311.267797 29.427985 
L 310.909831 29.241065 
L 310.551864 29.05494 
L 310.193898 28.869611 
L 309.835932 28.685077 
L 309.477966 28.501339 
L 309.12 28.318396 
L 308.762034 28.136248 
L 308.404068 27.954896 
L 308.046102 27.77434 
L 307.688136 27.594578 
L 307.330169 27.415612 
L 306.972203 27.237442 
L 306.614237 27.060067 
L 306.256271 26.883487 
L 305.898305 26.707703 
L 305.540339 26.532714 
L 305.182373 26.35852 
L 304.824407 26.185122 
L 304.466441 26.012519 
L 304.108475 25.840712 
L 303.750508 25.6697 
L 303.392542 25.499484 
L 303.034576 25.330063 
L 302.67661 25.161437 
L 302.318644 24.993607 
L 301.960678 24.826572 
L 301.602712 24.660332 
L 301.244746 24.494888 
L 300.88678 24.33024 
L 300.528814 24.166386 
L 300.170847 24.003329 
L 299.812881 23.841066 
L 299.454915 23.679599 
L 299.096949 23.518928 
L 298.738983 23.359051 
L 298.381017 23.19997 
L 298.023051 23.041685 
L 297.665085 22.884195 
L 297.307119 22.7275 
L 296.949153 22.571601 
L 296.591186 22.416497 
L 296.23322 22.262189 
L 295.875254 22.108676 
L 295.517288 21.955958 
L 295.159322 21.804036 
L 294.801356 21.652909 
L 294.44339 21.502578 
L 294.085424 21.353042 
L 293.727458 21.204302 
L 293.369492 21.056356 
L 293.011525 20.909207 
L 292.653559 20.762852 
L 292.295593 20.617293 
L 291.937627 20.47253 
L 291.579661 20.328562 
L 291.221695 20.185389 
L 290.863729 20.043012 
L 290.505763 19.90143 
L 290.147797 19.760643 
L 289.789831 19.620652 
L 289.431864 19.481456 
L 289.073898 19.343056 
L 288.715932 19.205451 
L 288.357966 19.068642 
L 288 18.932627 
L 287.642034 18.797409 
L 287.284068 18.662985 
L 286.926102 18.529358 
L 286.568136 18.396525 
L 286.210169 18.264488 
L 285.852203 18.133246 
L 285.494237 18.0028 
L 285.136271 17.873149 
L 284.778305 17.744294 
L 284.420339 17.616234 
L 284.062373 17.488969 
L 283.704407 17.3625 
L 283.346441 17.236826 
L 282.988475 17.111947 
L 282.630508 16.987864 
L 282.272542 16.864577 
L 281.914576 16.742084 
L 281.55661 16.620388 
L 281.198644 16.499486 
L 280.840678 16.37938 
L 280.482712 16.26007 
L 280.124746 16.141554 
L 279.76678 16.023835 
L 279.408814 15.90691 
L 279.050847 15.790781 
L 278.692881 15.675448 
L 278.334915 15.560909 
L 277.976949 15.447167 
L 277.618983 15.334219 
L 277.261017 15.222067 
L 276.903051 15.110711 
L 276.545085 15.000149 
L 276.187119 14.890384 
L 275.829153 14.781413 
L 275.471186 14.673238 
L 275.11322 14.565859 
L 274.755254 14.459275 
L 274.397288 14.353486 
L 274.039322 14.248493 
L 273.681356 14.144295 
L 273.32339 14.040892 
L 272.965424 13.938285 
L 272.607458 13.836473 
L 272.249492 13.735457 
L 271.891525 13.635236 
L 271.533559 13.53581 
L 271.175593 13.43718 
L 270.817627 13.339346 
L 270.459661 13.242306 
L 270.101695 13.146062 
L 269.743729 13.050614 
L 269.385763 12.955961 
L 269.027797 12.862103 
L 268.669831 12.769041 
L 268.311864 12.676774 
L 267.953898 12.585303 
L 267.595932 12.494626 
L 267.237966 12.404746 
L 266.88 12.315661 
L 266.522034 12.227371 
L 266.164068 12.139876 
L 265.806102 12.053177 
L 265.448136 11.967274 
L 265.090169 11.882165 
L 264.732203 11.797852 
z
" style="fill:#0000ff;fill-opacity:0.1;stroke:#0000ff;stroke-opacity:0.1;"/>
   </g>
   <g id="matplotlib.axis_1">
    <g id="xtick_1">
     <g id="line2d_1">
      <defs>
       <path d="M 0 0 
L 0 3.5 
" id="m51c0c48fa0" style="stroke:#000000;stroke-width:0.8;"/>
      </defs>
      <g>
       <use style="stroke:#000000;stroke-width:0.8;" x="36.528814" xlink:href="#m51c0c48fa0" y="162"/>
      </g>
     </g>
     <g id="text_1">
      <!-- 1940 -->
      <g transform="translate(23.803814 176.598438)scale(0.1 -0.1)">
       <defs>
        <path d="M 794 531 
L 1825 531 
L 1825 4091 
L 703 3866 
L 703 4441 
L 1819 4666 
L 2450 4666 
L 2450 531 
L 3481 531 
L 3481 0 
L 794 0 
L 794 531 
z
" id="DejaVuSans-31" transform="scale(0.015625)"/>
        <path d="M 703 97 
L 703 672 
Q 941 559 1184 500 
Q 1428 441 1663 441 
Q 2288 441 2617 861 
Q 2947 1281 2994 2138 
Q 2813 1869 2534 1725 
Q 2256 1581 1919 1581 
Q 1219 1581 811 2004 
Q 403 2428 403 3163 
Q 403 3881 828 4315 
Q 1253 4750 1959 4750 
Q 2769 4750 3195 4129 
Q 3622 3509 3622 2328 
Q 3622 1225 3098 567 
Q 2575 -91 1691 -91 
Q 1453 -91 1209 -44 
Q 966 3 703 97 
z
M 1959 2075 
Q 2384 2075 2632 2365 
Q 2881 2656 2881 3163 
Q 2881 3666 2632 3958 
Q 2384 4250 1959 4250 
Q 1534 4250 1286 3958 
Q 1038 3666 1038 3163 
Q 1038 2656 1286 2365 
Q 1534 2075 1959 2075 
z
" id="DejaVuSans-39" transform="scale(0.015625)"/>
        <path d="M 2419 4116 
L 825 1625 
L 2419 1625 
L 2419 4116 
z
M 2253 4666 
L 3047 4666 
L 3047 1625 
L 3713 1625 
L 3713 1100 
L 3047 1100 
L 3047 0 
L 2419 0 
L 2419 1100 
L 313 1100 
L 313 1709 
L 2253 4666 
z
" id="DejaVuSans-34" transform="scale(0.015625)"/>
        <path d="M 2034 4250 
Q 1547 4250 1301 3770 
Q 1056 3291 1056 2328 
Q 1056 1369 1301 889 
Q 1547 409 2034 409 
Q 2525 409 2770 889 
Q 3016 1369 3016 2328 
Q 3016 3291 2770 3770 
Q 2525 4250 2034 4250 
z
M 2034 4750 
Q 2819 4750 3233 4129 
Q 3647 3509 3647 2328 
Q 3647 1150 3233 529 
Q 2819 -91 2034 -91 
Q 1250 -91 836 529 
Q 422 1150 422 2328 
Q 422 3509 836 4129 
Q 1250 4750 2034 4750 
z
" id="DejaVuSans-30" transform="scale(0.015625)"/>
       </defs>
       <use xlink:href="#DejaVuSans-31"/>
       <use x="63.623047" xlink:href="#DejaVuSans-39"/>
       <use x="127.246094" xlink:href="#DejaVuSans-34"/>
       <use x="190.869141" xlink:href="#DejaVuSans-30"/>
      </g>
     </g>
    </g>
    <g id="xtick_2">
     <g id="line2d_2">
      <g>
       <use style="stroke:#000000;stroke-width:0.8;" x="79.484746" xlink:href="#m51c0c48fa0" y="162"/>
      </g>
     </g>
     <g id="text_2">
      <!-- 1950 -->
      <g transform="translate(66.759746 176.598438)scale(0.1 -0.1)">
       <defs>
        <path d="M 691 4666 
L 3169 4666 
L 3169 4134 
L 1269 4134 
L 1269 2991 
Q 1406 3038 1543 3061 
Q 1681 3084 1819 3084 
Q 2600 3084 3056 2656 
Q 3513 2228 3513 1497 
Q 3513 744 3044 326 
Q 2575 -91 1722 -91 
Q 1428 -91 1123 -41 
Q 819 9 494 109 
L 494 744 
Q 775 591 1075 516 
Q 1375 441 1709 441 
Q 2250 441 2565 725 
Q 2881 1009 2881 1497 
Q 2881 1984 2565 2268 
Q 2250 2553 1709 2553 
Q 1456 2553 1204 2497 
Q 953 2441 691 2322 
L 691 4666 
z
" id="DejaVuSans-35" transform="scale(0.015625)"/>
       </defs>
       <use xlink:href="#DejaVuSans-31"/>
       <use x="63.623047" xlink:href="#DejaVuSans-39"/>
       <use x="127.246094" xlink:href="#DejaVuSans-35"/>
       <use x="190.869141" xlink:href="#DejaVuSans-30"/>
      </g>
     </g>
    </g>
    <g id="xtick_3">
     <g id="line2d_3">
      <g>
       <use style="stroke:#000000;stroke-width:0.8;" x="122.440678" xlink:href="#m51c0c48fa0" y="162"/>
      </g>
     </g>
     <g id="text_3">
      <!-- 1960 -->
      <g transform="translate(109.715678 176.598438)scale(0.1 -0.1)">
       <defs>
        <path d="M 2113 2584 
Q 1688 2584 1439 2293 
Q 1191 2003 1191 1497 
Q 1191 994 1439 701 
Q 1688 409 2113 409 
Q 2538 409 2786 701 
Q 3034 994 3034 1497 
Q 3034 2003 2786 2293 
Q 2538 2584 2113 2584 
z
M 3366 4563 
L 3366 3988 
Q 3128 4100 2886 4159 
Q 2644 4219 2406 4219 
Q 1781 4219 1451 3797 
Q 1122 3375 1075 2522 
Q 1259 2794 1537 2939 
Q 1816 3084 2150 3084 
Q 2853 3084 3261 2657 
Q 3669 2231 3669 1497 
Q 3669 778 3244 343 
Q 2819 -91 2113 -91 
Q 1303 -91 875 529 
Q 447 1150 447 2328 
Q 447 3434 972 4092 
Q 1497 4750 2381 4750 
Q 2619 4750 2861 4703 
Q 3103 4656 3366 4563 
z
" id="DejaVuSans-36" transform="scale(0.015625)"/>
       </defs>
       <use xlink:href="#DejaVuSans-31"/>
       <use x="63.623047" xlink:href="#DejaVuSans-39"/>
       <use x="127.246094" xlink:href="#DejaVuSans-36"/>
       <use x="190.869141" xlink:href="#DejaVuSans-30"/>
      </g>
     </g>
    </g>
    <g id="xtick_4">
     <g id="line2d_4">
      <g>
       <use style="stroke:#000000;stroke-width:0.8;" x="165.39661" xlink:href="#m51c0c48fa0" y="162"/>
      </g>
     </g>
     <g id="text_4">
      <!-- 1970 -->
      <g transform="translate(152.67161 176.598438)scale(0.1 -0.1)">
       <defs>
        <path d="M 525 4666 
L 3525 4666 
L 3525 4397 
L 1831 0 
L 1172 0 
L 2766 4134 
L 525 4134 
L 525 4666 
z
" id="DejaVuSans-37" transform="scale(0.015625)"/>
       </defs>
       <use xlink:href="#DejaVuSans-31"/>
       <use x="63.623047" xlink:href="#DejaVuSans-39"/>
       <use x="127.246094" xlink:href="#DejaVuSans-37"/>
       <use x="190.869141" xlink:href="#DejaVuSans-30"/>
      </g>
     </g>
    </g>
    <g id="xtick_5">
     <g id="line2d_5">
      <g>
       <use style="stroke:#000000;stroke-width:0.8;" x="208.352542" xlink:href="#m51c0c48fa0" y="162"/>
      </g>
     </g>
     <g id="text_5">
      <!-- 1980 -->
      <g transform="translate(195.627542 176.598438)scale(0.1 -0.1)">
       <defs>
        <path d="M 2034 2216 
Q 1584 2216 1326 1975 
Q 1069 1734 1069 1313 
Q 1069 891 1326 650 
Q 1584 409 2034 409 
Q 2484 409 2743 651 
Q 3003 894 3003 1313 
Q 3003 1734 2745 1975 
Q 2488 2216 2034 2216 
z
M 1403 2484 
Q 997 2584 770 2862 
Q 544 3141 544 3541 
Q 544 4100 942 4425 
Q 1341 4750 2034 4750 
Q 2731 4750 3128 4425 
Q 3525 4100 3525 3541 
Q 3525 3141 3298 2862 
Q 3072 2584 2669 2484 
Q 3125 2378 3379 2068 
Q 3634 1759 3634 1313 
Q 3634 634 3220 271 
Q 2806 -91 2034 -91 
Q 1263 -91 848 271 
Q 434 634 434 1313 
Q 434 1759 690 2068 
Q 947 2378 1403 2484 
z
M 1172 3481 
Q 1172 3119 1398 2916 
Q 1625 2713 2034 2713 
Q 2441 2713 2670 2916 
Q 2900 3119 2900 3481 
Q 2900 3844 2670 4047 
Q 2441 4250 2034 4250 
Q 1625 4250 1398 4047 
Q 1172 3844 1172 3481 
z
" id="DejaVuSans-38" transform="scale(0.015625)"/>
       </defs>
       <use xlink:href="#DejaVuSans-31"/>
       <use x="63.623047" xlink:href="#DejaVuSans-39"/>
       <use x="127.246094" xlink:href="#DejaVuSans-38"/>
       <use x="190.869141" xlink:href="#DejaVuSans-30"/>
      </g>
     </g>
    </g>
    <g id="xtick_6">
     <g id="line2d_6">
      <g>
       <use style="stroke:#000000;stroke-width:0.8;" x="251.308475" xlink:href="#m51c0c48fa0" y="162"/>
      </g>
     </g>
     <g id="text_6">
      <!-- 1990 -->
      <g transform="translate(238.583475 176.598438)scale(0.1 -0.1)">
       <use xlink:href="#DejaVuSans-31"/>
       <use x="63.623047" xlink:href="#DejaVuSans-39"/>
       <use x="127.246094" xlink:href="#DejaVuSans-39"/>
       <use x="190.869141" xlink:href="#DejaVuSans-30"/>
      </g>
     </g>
    </g>
    <g id="xtick_7">
     <g id="line2d_7">
      <g>
       <use style="stroke:#000000;stroke-width:0.8;" x="294.264407" xlink:href="#m51c0c48fa0" y="162"/>
      </g>
     </g>
     <g id="text_7">
      <!-- 2000 -->
      <g transform="translate(281.539407 176.598438)scale(0.1 -0.1)">
       <defs>
        <path d="M 1228 531 
L 3431 531 
L 3431 0 
L 469 0 
L 469 531 
Q 828 903 1448 1529 
Q 2069 2156 2228 2338 
Q 2531 2678 2651 2914 
Q 2772 3150 2772 3378 
Q 2772 3750 2511 3984 
Q 2250 4219 1831 4219 
Q 1534 4219 1204 4116 
Q 875 4013 500 3803 
L 500 4441 
Q 881 4594 1212 4672 
Q 1544 4750 1819 4750 
Q 2544 4750 2975 4387 
Q 3406 4025 3406 3419 
Q 3406 3131 3298 2873 
Q 3191 2616 2906 2266 
Q 2828 2175 2409 1742 
Q 1991 1309 1228 531 
z
" id="DejaVuSans-32" transform="scale(0.015625)"/>
       </defs>
       <use xlink:href="#DejaVuSans-32"/>
       <use x="63.623047" xlink:href="#DejaVuSans-30"/>
       <use x="127.246094" xlink:href="#DejaVuSans-30"/>
       <use x="190.869141" xlink:href="#DejaVuSans-30"/>
      </g>
     </g>
    </g>
    <g id="xtick_8">
     <g id="line2d_8">
      <g>
       <use style="stroke:#000000;stroke-width:0.8;" x="337.220339" xlink:href="#m51c0c48fa0" y="162"/>
      </g>
     </g>
     <g id="text_8">
      <!-- 2010 -->
      <g transform="translate(324.495339 176.598438)scale(0.1 -0.1)">
       <use xlink:href="#DejaVuSans-32"/>
       <use x="63.623047" xlink:href="#DejaVuSans-30"/>
       <use x="127.246094" xlink:href="#DejaVuSans-31"/>
       <use x="190.869141" xlink:href="#DejaVuSans-30"/>
      </g>
     </g>
    </g>
    <g id="xtick_9">
     <g id="line2d_9">
      <g>
       <use style="stroke:#000000;stroke-width:0.8;" x="380.176271" xlink:href="#m51c0c48fa0" y="162"/>
      </g>
     </g>
     <g id="text_9">
      <!-- 2020 -->
      <g transform="translate(367.451271 176.598438)scale(0.1 -0.1)">
       <use xlink:href="#DejaVuSans-32"/>
       <use x="63.623047" xlink:href="#DejaVuSans-30"/>
       <use x="127.246094" xlink:href="#DejaVuSans-32"/>
       <use x="190.869141" xlink:href="#DejaVuSans-30"/>
      </g>
     </g>
    </g>
   </g>
   <g id="matplotlib.axis_2">
    <g id="ytick_1">
     <g id="line2d_10">
      <defs>
       <path d="M 0 0 
L -3.5 0 
" id="mb654b96435" style="stroke:#000000;stroke-width:0.8;"/>
      </defs>
      <g>
       <use style="stroke:#000000;stroke-width:0.8;" x="34.56" xlink:href="#mb654b96435" y="157.895324"/>
      </g>
     </g>
     <g id="text_10">
      <!-- 100 -->
      <g transform="translate(0.092813 161.694543)scale(0.1 -0.1)">
       <defs>
        <path d="M 678 2272 
L 4684 2272 
L 4684 1741 
L 678 1741 
L 678 2272 
z
" id="DejaVuSans-2212" transform="scale(0.015625)"/>
       </defs>
       <use xlink:href="#DejaVuSans-2212"/>
       <use x="83.789062" xlink:href="#DejaVuSans-31"/>
       <use x="147.412109" xlink:href="#DejaVuSans-30"/>
       <use x="211.035156" xlink:href="#DejaVuSans-30"/>
      </g>
     </g>
    </g>
    <g id="ytick_2">
     <g id="line2d_11">
      <g>
       <use style="stroke:#000000;stroke-width:0.8;" x="34.56" xlink:href="#mb654b96435" y="120.347662"/>
      </g>
     </g>
     <g id="text_11">
      <!-- 50 -->
      <g transform="translate(6.455313 124.146881)scale(0.1 -0.1)">
       <use xlink:href="#DejaVuSans-2212"/>
       <use x="83.789062" xlink:href="#DejaVuSans-35"/>
       <use x="147.412109" xlink:href="#DejaVuSans-30"/>
      </g>
     </g>
    </g>
    <g id="ytick_3">
     <g id="line2d_12">
      <g>
       <use style="stroke:#000000;stroke-width:0.8;" x="34.56" xlink:href="#mb654b96435" y="82.8"/>
      </g>
     </g>
     <g id="text_12">
      <!-- 0 -->
      <g transform="translate(21.1975 86.599219)scale(0.1 -0.1)">
       <use xlink:href="#DejaVuSans-30"/>
      </g>
     </g>
    </g>
    <g id="ytick_4">
     <g id="line2d_13">
      <g>
       <use style="stroke:#000000;stroke-width:0.8;" x="34.56" xlink:href="#mb654b96435" y="45.252338"/>
      </g>
     </g>
     <g id="text_13">
      <!-- 50 -->
      <g transform="translate(14.835 49.051557)scale(0.1 -0.1)">
       <use xlink:href="#DejaVuSans-35"/>
       <use x="63.623047" xlink:href="#DejaVuSans-30"/>
      </g>
     </g>
    </g>
    <g id="ytick_5">
     <g id="line2d_14">
      <g>
       <use style="stroke:#000000;stroke-width:0.8;" x="34.56" xlink:href="#mb654b96435" y="7.704676"/>
      </g>
     </g>
     <g id="text_14">
      <!-- 100 -->
      <g transform="translate(8.4725 11.503894)scale(0.1 -0.1)">
       <use xlink:href="#DejaVuSans-31"/>
       <use x="63.623047" xlink:href="#DejaVuSans-30"/>
       <use x="127.246094" xlink:href="#DejaVuSans-30"/>
      </g>
     </g>
    </g>
   </g>
   <g id="line2d_15">
    <path clip-path="url(#p467db7d76b)" d="M 66.776949 82.513947 
L 67.134915 82.200005 
L 67.850847 82.359567 
L 68.208814 82.595629 
L 68.56678 82.614386 
L 69.282712 82.963305 
L 69.640678 83.055281 
L 69.998644 83.364414 
L 70.35661 83.421596 
L 70.714576 83.134959 
L 71.072542 83.101036 
L 71.430508 82.949555 
L 72.504407 82.955743 
L 72.862373 83.197121 
L 73.220339 83.202643 
L 74.294237 82.800263 
L 74.652203 82.880429 
L 75.010169 83.091801 
L 75.368136 83.069419 
L 75.726102 82.924322 
L 76.8 83.001279 
L 77.157966 83.107522 
L 77.873898 83.594205 
L 78.231864 83.605241 
L 78.589831 83.955904 
L 78.947797 84.10799 
L 79.305763 84.03201 
L 80.021695 84.277822 
L 81.095593 84.0552 
L 83.601356 83.724452 
L 84.317288 83.807298 
L 84.675254 83.675247 
L 85.03322 83.809105 
L 85.391186 83.628498 
L 86.107119 83.524211 
L 86.823051 83.334775 
L 87.181017 83.829311 
L 87.538983 83.720062 
L 87.896949 83.740185 
L 88.612881 83.341036 
L 88.970847 83.338499 
L 89.328814 83.573097 
L 89.68678 83.33646 
L 90.044746 83.48968 
L 90.760678 83.394879 
L 91.47661 82.99874 
L 92.192542 83.035158 
L 92.550508 82.777516 
L 92.908475 82.773872 
L 93.266441 83.008339 
L 93.624407 82.863604 
L 94.340339 82.324254 
L 95.056271 81.966524 
L 95.414237 81.978231 
L 95.772203 82.108649 
L 96.130169 82.029649 
L 96.488136 82.082002 
L 96.846102 81.973188 
L 97.562034 81.214146 
L 99.351864 79.98479 
L 100.425763 79.131889 
L 101.141695 78.889329 
L 101.499661 79.165517 
L 101.857627 79.582713 
L 102.215593 79.135015 
L 104.005424 78.431278 
L 104.36339 78.020676 
L 105.079322 77.836217 
L 105.437288 77.572929 
L 105.795254 78.117321 
L 106.869153 77.289392 
L 107.227119 77.138665 
L 107.585085 76.763018 
L 110.448814 75.3249 
L 111.164746 75.16817 
L 111.880678 74.958629 
L 112.59661 74.398631 
L 113.312542 73.760282 
L 113.670508 73.796165 
L 114.386441 73.43846 
L 115.460339 72.33567 
L 116.534237 71.60138 
L 116.892203 71.622958 
L 117.250169 71.430538 
L 117.608136 71.444241 
L 118.682034 71.188072 
L 119.04 71.200455 
L 120.829831 70.685957 
L 121.187797 71.781477 
L 121.545763 72.322701 
L 123.335593 71.986107 
L 124.051525 71.841494 
L 125.841356 71.734795 
L 127.27322 71.391498 
L 127.631186 71.562418 
L 128.347119 71.180477 
L 128.705085 71.001944 
L 129.063051 70.663258 
L 130.852881 70.883127 
L 132.284746 70.218968 
L 133.000678 70.306247 
L 133.71661 70.350443 
L 134.432542 70.276679 
L 134.790508 70.284367 
L 135.148475 70.406354 
L 135.506441 71.070316 
L 135.864407 71.494424 
L 136.222373 71.552557 
L 138.012203 71.110877 
L 138.728136 71.255223 
L 139.086102 71.239306 
L 139.444068 71.365421 
L 139.802034 71.685661 
L 140.16 71.639102 
L 140.875932 71.214536 
L 144.097627 70.87937 
L 144.455593 70.648397 
L 144.813559 70.737502 
L 146.245424 70.421331 
L 146.60339 70.795193 
L 146.961356 70.786339 
L 147.319322 70.994318 
L 147.677288 70.905132 
L 148.035254 70.664558 
L 148.39322 70.569407 
L 148.751186 70.73208 
L 149.109153 70.641652 
L 149.467119 70.409376 
L 149.825085 70.490008 
L 150.541017 70.315478 
L 151.614915 70.293161 
L 152.688814 70.04877 
L 153.762712 69.919446 
L 154.83661 70.591027 
L 155.552542 70.422016 
L 155.910508 70.261019 
L 156.984407 70.524912 
L 157.700339 70.478157 
L 159.490169 70.745049 
L 160.564068 70.690491 
L 161.995932 70.798015 
L 162.711864 70.557125 
L 163.069831 70.746253 
L 163.785763 70.729792 
L 164.143729 70.620015 
L 164.501695 70.740678 
L 164.859661 70.668395 
L 165.575593 70.764685 
L 165.933559 70.944984 
L 166.291525 70.956326 
L 166.649492 70.803859 
L 167.365424 70.8397 
L 168.081356 70.734256 
L 168.439322 70.334076 
L 169.51322 69.79465 
L 169.871186 70.466654 
L 170.229153 70.41776 
L 170.587119 70.244907 
L 170.945085 70.213772 
L 172.376949 70.473839 
L 173.092881 70.325238 
L 174.16678 70.048838 
L 175.598644 69.611138 
L 176.314576 69.791488 
L 177.030508 69.507422 
L 177.388475 69.558095 
L 177.746441 69.430577 
L 178.104407 69.582473 
L 178.462373 69.588028 
L 178.820339 69.445163 
L 179.178305 69.54771 
L 179.536271 69.416435 
L 179.894237 69.55566 
L 180.610169 69.372503 
L 180.968136 69.50243 
L 181.684068 69.232291 
L 182.757966 69.137435 
L 183.473898 68.987247 
L 183.831864 69.337562 
L 184.547797 69.47282 
L 184.905763 69.459047 
L 187.053559 68.616561 
L 187.411525 68.58964 
L 188.127458 68.333671 
L 189.559322 68.645869 
L 189.917288 68.599062 
L 190.63322 68.272361 
L 192.423051 67.724937 
L 192.781017 67.700488 
L 193.138983 67.962772 
L 193.854915 68.053554 
L 194.570847 67.450672 
L 196.002712 67.548598 
L 196.360678 67.638972 
L 196.718644 67.529742 
L 197.07661 67.562651 
L 199.224407 67.1588 
L 199.582373 67.200144 
L 199.940339 66.996068 
L 200.298305 67.250805 
L 201.372203 67.248071 
L 202.446102 67.436984 
L 202.804068 67.321949 
L 203.52 67.41381 
L 203.877966 67.167056 
L 204.235932 67.237664 
L 204.593898 67.185493 
L 206.025763 66.225386 
L 206.741695 65.590783 
L 207.099661 65.609413 
L 208.173559 65.035646 
L 208.889492 65.390767 
L 209.247458 65.4756 
L 209.605424 65.788316 
L 209.96339 65.871521 
L 211.037288 65.593994 
L 211.75322 65.912887 
L 212.827119 64.987491 
L 213.185085 64.814242 
L 214.616949 63.657325 
L 215.332881 62.97277 
L 215.690847 62.655453 
L 216.048814 62.488879 
L 216.764746 61.858838 
L 217.838644 61.292059 
L 218.19661 61.328255 
L 218.554576 61.202871 
L 219.270508 60.773783 
L 219.628475 60.174173 
L 219.986441 59.955998 
L 220.344407 59.603652 
L 221.418305 59.182208 
L 221.776271 59.194109 
L 222.134237 58.948602 
L 222.850169 58.766703 
L 223.208136 58.915475 
L 223.566102 58.885475 
L 223.924068 58.5328 
L 224.282034 58.007125 
L 224.64 57.991094 
L 225.355932 59.098502 
L 226.071864 59.51822 
L 226.429831 59.846041 
L 226.787797 60.562955 
L 227.503729 61.134743 
L 228.577627 62.990537 
L 228.935593 62.945541 
L 229.293559 63.194275 
L 229.651525 63.279066 
L 230.367458 63.967019 
L 231.08339 64.134092 
L 231.441356 64.456462 
L 232.157288 64.73428 
L 232.87322 64.949143 
L 233.231186 65.101186 
L 233.589153 65.122588 
L 234.305085 65.419208 
L 234.663051 65.842259 
L 236.452881 66.765901 
L 236.810847 66.61592 
L 237.52678 66.689369 
L 238.242712 66.834394 
L 238.958644 67.138871 
L 239.31661 67.127014 
L 240.748475 68.352128 
L 241.464407 68.346381 
L 241.822373 68.0653 
L 242.538305 68.243221 
L 242.896271 68.384808 
L 243.612203 68.427225 
L 245.76 69.674441 
L 246.833898 69.959916 
L 247.191864 70.119437 
L 247.907797 70.005258 
L 248.265763 69.644691 
L 250.055593 70.153199 
L 250.413559 69.985371 
L 251.129492 70.216146 
L 251.487458 70.139573 
L 252.20339 70.163686 
L 252.561356 70.050809 
L 252.919322 70.418852 
L 254.351186 69.99574 
L 254.709153 69.739713 
L 255.425085 69.565162 
M 259.362712 69.79058 
L 260.43661 70.280653 
L 260.794576 70.238469 
L 261.152542 70.564668 
L 261.510508 70.344679 
L 261.868475 69.956251 
L 262.584407 70.268954 
M 264.732203 70.748747 
L 265.448136 71.463715 
L 265.806102 71.198938 
L 266.164068 71.173025 
L 266.88 71.433442 
L 267.237966 71.337007 
L 269.027797 71.497466 
L 269.743729 71.970496 
L 270.459661 71.852576 
L 270.817627 71.295159 
L 271.533559 71.195767 
L 271.891525 71.338699 
L 272.249492 71.282265 
L 272.607458 71.475233 
L 272.965424 71.357375 
L 273.32339 71.454908 
L 273.681356 71.732893 
L 275.11322 72.130894 
L 275.471186 72.284087 
L 275.829153 72.255792 
L 276.187119 72.43056 
L 276.545085 72.424052 
L 276.903051 72.6023 
L 277.261017 72.535239 
L 277.618983 72.583817 
L 277.976949 72.51502 
L 278.334915 73.018709 
L 279.050847 72.510705 
L 280.124746 72.313821 
L 280.482712 72.708172 
L 280.840678 72.397779 
L 281.198644 72.602342 
L 281.55661 73.13466 
L 281.914576 73.023418 
L 282.988475 73.166249 
L 283.346441 72.951398 
L 283.704407 72.938588 
L 284.062373 73.070682 
L 284.778305 73.595911 
L 286.210169 73.589025 
L 286.926102 73.738386 
L 287.642034 74.061369 
L 288.715932 74.13581 
L 289.431864 73.921059 
L 290.505763 74.138744 
L 292.653559 73.729366 
L 293.011525 73.925262 
L 294.44339 73.913362 
L 295.517288 73.658671 
L 295.875254 73.687858 
L 296.591186 73.157367 
L 297.665085 73.268448 
L 298.023051 73.444654 
L 299.096949 73.614674 
L 299.454915 73.227026 
L 300.170847 73.495947 
L 301.244746 73.698415 
L 301.602712 73.47559 
L 303.392542 73.415026 
L 304.108475 73.276684 
L 305.540339 72.400097 
L 305.898305 72.439909 
L 306.256271 72.337367 
L 306.614237 72.401409 
L 306.972203 72.299999 
L 307.688136 72.50902 
L 308.046102 72.662673 
L 309.477966 72.591151 
L 310.193898 72.790391 
L 310.909831 72.885906 
L 311.267797 72.840965 
L 311.625763 72.967754 
L 312.341695 72.910172 
L 312.699661 72.897413 
L 313.415593 72.584183 
L 313.773559 72.627326 
L 314.489492 73.026061 
L 315.56339 72.944269 
L 315.921356 72.764546 
L 316.637288 72.69338 
L 318.069153 72.903085 
L 318.427119 72.810828 
L 319.143051 72.985688 
L 319.501017 73.13316 
L 319.858983 73.111633 
L 320.216949 73.406185 
L 320.574915 73.231427 
L 322.00678 74.022778 
L 322.364746 74.509356 
L 323.438644 74.966049 
L 323.79661 75.343977 
L 324.512542 75.358392 
L 324.870508 75.233098 
L 325.228475 75.259958 
L 325.586441 75.66742 
L 326.660339 76.162972 
L 327.018305 76.311279 
L 327.734237 76.347734 
L 328.450169 76.555671 
L 328.808136 76.588845 
L 329.166102 76.741683 
L 329.882034 76.561084 
L 330.24 76.900301 
L 331.671864 76.9119 
L 332.745763 76.698523 
L 333.461695 76.69008 
L 333.819661 76.697734 
L 334.177627 76.838165 
L 335.251525 76.952669 
L 335.967458 77.287854 
L 336.325424 77.170277 
L 337.041356 77.390654 
L 337.757288 77.284593 
L 338.115254 77.484672 
L 338.831186 77.59555 
L 339.189153 77.855496 
L 339.547119 77.961106 
L 340.978983 77.81847 
L 341.336949 78.000837 
L 342.052881 77.890879 
L 342.410847 78.368022 
L 343.12678 78.658893 
L 344.200678 78.55792 
L 344.558644 78.867449 
L 345.274576 79.173034 
L 345.990508 78.873615 
L 346.348475 78.787414 
L 347.064407 78.865198 
L 347.422373 78.697784 
L 349.928136 79.508947 
L 351.002034 79.029492 
L 352.433898 78.909526 
L 352.791864 79.066858 
L 353.507797 78.722821 
L 354.939661 78.974111 
L 355.297627 79.20089 
L 356.013559 79.088889 
L 356.371525 79.203956 
L 358.519322 79.070834 
L 359.235254 78.852143 
L 359.59322 78.758648 
L 361.025085 78.961049 
L 361.741017 79.521626 
L 363.530847 79.688469 
L 364.24678 79.619014 
L 364.604746 79.400798 
L 365.678644 79.69633 
L 366.03661 79.907948 
L 366.394576 79.754948 
L 367.110508 80.026643 
L 367.826441 79.966765 
L 368.184407 80.32265 
L 368.900339 80.457322 
L 369.258305 80.648002 
L 370.332203 80.749621 
L 370.690169 80.94613 
L 373.911864 80.740075 
L 374.627797 81.241862 
L 374.985763 81.60009 
L 375.343729 81.700031 
L 376.059661 81.509855 
L 376.417627 81.857711 
L 376.775593 81.841779 
L 377.133559 81.525893 
L 377.849492 81.361216 
L 378.207458 81.497735 
L 378.92339 82.099893 
L 379.639322 82.223929 
L 380.71322 82.153415 
L 381.071186 82.134168 
L 381.429153 82.403577 
L 382.503051 82.8 
L 382.503051 82.8 
" style="fill:none;stroke:#1f77b4;stroke-linecap:square;stroke-width:1.5;"/>
   </g>
   <g id="line2d_16">
    <path clip-path="url(#p467db7d76b)" d="M 34.56 82.8 
L 414.72 82.8 
" style="fill:none;stroke:#000000;stroke-dasharray:1.5,2.475;stroke-dashoffset:0;stroke-width:1.5;"/>
   </g>
   <g id="patch_3">
    <path d="M 34.56 162 
L 34.56 3.6 
" style="fill:none;stroke:#000000;stroke-linecap:square;stroke-linejoin:miter;stroke-width:0.8;"/>
   </g>
   <g id="patch_4">
    <path d="M 414.72 162 
L 414.72 3.6 
" style="fill:none;stroke:#000000;stroke-linecap:square;stroke-linejoin:miter;stroke-width:0.8;"/>
   </g>
   <g id="patch_5">
    <path d="M 34.56 162 
L 414.72 162 
" style="fill:none;stroke:#000000;stroke-linecap:square;stroke-linejoin:miter;stroke-width:0.8;"/>
   </g>
   <g id="patch_6">
    <path d="M 34.56 3.6 
L 414.72 3.6 
" style="fill:none;stroke:#000000;stroke-linecap:square;stroke-linejoin:miter;stroke-width:0.8;"/>
   </g>
  </g>
 </g>
 <defs>
  <clipPath id="p467db7d76b">
   <rect height="158.4" width="380.16" x="34.56" y="3.6"/>
  </clipPath>
 </defs>
</svg>
