<?xml version="1.0" encoding="utf-8" standalone="no"?>
<!DOCTYPE svg PUBLIC "-//W3C//DTD SVG 1.1//EN"
  "http://www.w3.org/Graphics/SVG/1.1/DTD/svg11.dtd">
<svg height="180pt" version="1.1" viewBox="0 0 432 180" width="432pt" xmlns="http://www.w3.org/2000/svg" xmlns:xlink="http://www.w3.org/1999/xlink">
 <metadata>
  <rdf:RDF xmlns:cc="http://creativecommons.org/ns#" xmlns:dc="http://purl.org/dc/elements/1.1/" xmlns:rdf="http://www.w3.org/1999/02/22-rdf-syntax-ns#">
   <cc:Work>
    <dc:type rdf:resource="http://purl.org/dc/dcmitype/StillImage"/>
    <dc:date>2021-08-12T10:41:48.062004</dc:date>
    <dc:format>image/svg+xml</dc:format>
    <dc:creator>
     <cc:Agent>
      <dc:title>Matplotlib v3.4.2, https://matplotlib.org/</dc:title>
     </cc:Agent>
    </dc:creator>
   </cc:Work>
  </rdf:RDF>
 </metadata>
 <defs>
  <style type="text/css">*{stroke-linecap:butt;stroke-linejoin:round;}</style>
 </defs>
 <g id="figure_1">
  <g id="patch_1">
   <path d="M 0 180 
L 432 180 
L 432 0 
L 0 0 
z
" style="fill:#ffffff;"/>
  </g>
  <g id="axes_1">
   <g id="patch_2">
    <path d="M 34.56 162 
L 414.72 162 
L 414.72 3.6 
L 34.56 3.6 
z
" style="fill:#ffffff;"/>
   </g>
   <g id="PolyCollection_1">
    <defs>
     <path d="M 72.78838 -97.620801 
L 72.78838 -96.779199 
L 73.21314 -96.360161 
L 73.637899 -95.942297 
L 74.062659 -95.525607 
L 74.487419 -95.11009 
L 74.912179 -94.695748 
L 75.336939 -94.282579 
L 75.761698 -93.870584 
L 76.186458 -93.459762 
L 76.611218 -93.050115 
L 77.035978 -92.641641 
L 77.460737 -92.234341 
L 77.885497 -91.828214 
L 78.310257 -91.423262 
L 78.735017 -91.019483 
L 79.159777 -90.616878 
L 79.584536 -90.215447 
L 80.009296 -89.815189 
L 80.434056 -89.416106 
L 80.858816 -89.018196 
L 81.283575 -88.62146 
L 81.708335 -88.225898 
L 82.133095 -87.831509 
L 82.557855 -87.438294 
L 82.982615 -87.046253 
L 83.407374 -86.655386 
L 83.832134 -86.265693 
L 84.256894 -85.877173 
L 84.681654 -85.489827 
L 85.106413 -85.103655 
L 85.531173 -84.718657 
L 85.955933 -84.334832 
L 86.380693 -83.952181 
L 86.805453 -83.570704 
L 87.230212 -83.190401 
L 87.654972 -82.811272 
L 88.079732 -82.433316 
L 88.504492 -82.056534 
L 88.929251 -81.680926 
L 89.354011 -81.306491 
L 89.778771 -80.933231 
L 90.203531 -80.561144 
L 90.628291 -80.190231 
L 91.05305 -79.820492 
L 91.47781 -79.451926 
L 91.90257 -79.084535 
L 92.32733 -78.718317 
L 92.752089 -78.353273 
L 93.176849 -77.989402 
L 93.601609 -77.626706 
L 94.026369 -77.265183 
L 94.451128 -76.904834 
L 94.875888 -76.545658 
L 95.300648 -76.187657 
L 95.725408 -75.830829 
L 96.150168 -75.475175 
L 96.574927 -75.120695 
L 96.999687 -74.767389 
L 97.424447 -74.415256 
L 97.849207 -74.064297 
L 98.273966 -73.714512 
L 98.698726 -73.365901 
L 99.123486 -73.018463 
L 99.548246 -72.6722 
L 99.973006 -72.32711 
L 100.397765 -71.983193 
L 100.822525 -71.640451 
L 101.247285 -71.298882 
L 101.672045 -70.958487 
L 102.096804 -70.619266 
L 102.521564 -70.281219 
L 102.946324 -69.944345 
L 103.371084 -69.608646 
L 103.795844 -69.27412 
L 104.220603 -68.940767 
L 104.645363 -68.608589 
L 105.070123 -68.277584 
L 105.494883 -67.947753 
L 105.919642 -67.619096 
L 106.344402 -67.291613 
L 106.769162 -66.965303 
L 107.193922 -66.640168 
L 107.618682 -66.316206 
L 108.043441 -65.993417 
L 108.468201 -65.671803 
L 108.892961 -65.351362 
L 109.317721 -65.032095 
L 109.74248 -64.714002 
L 110.16724 -64.397083 
L 110.592 -64.081337 
L 111.01676 -63.766765 
L 111.44152 -63.453367 
L 111.866279 -63.141143 
L 112.291039 -62.830093 
L 112.715799 -62.520216 
L 113.140559 -62.211513 
L 113.565318 -61.903984 
L 113.990078 -61.597628 
L 114.414838 -61.292447 
L 114.839598 -60.988439 
L 115.264358 -60.685605 
L 115.689117 -60.383945 
L 116.113877 -60.083458 
L 116.538637 -59.784145 
L 116.963397 -59.486006 
L 117.388156 -59.189041 
L 117.812916 -58.89325 
L 118.237676 -58.598632 
L 118.662436 -58.305188 
L 119.087196 -58.012918 
L 119.511955 -57.721822 
L 119.936715 -57.4319 
L 120.361475 -57.143151 
L 120.786235 -56.855576 
L 121.210994 -56.569175 
L 121.635754 -56.283947 
L 122.060514 -55.999894 
L 122.485274 -55.717014 
L 122.910034 -55.435308 
L 123.334793 -55.154775 
L 123.759553 -54.875417 
L 124.184313 -54.597232 
L 124.609073 -54.320221 
L 125.033832 -54.044384 
L 125.458592 -53.76972 
L 125.883352 -53.496231 
L 126.308112 -53.223915 
L 126.732872 -52.952773 
L 127.157631 -52.682804 
L 127.582391 -52.41401 
L 128.007151 -52.146389 
L 128.431911 -51.879942 
L 128.85667 -51.614669 
L 129.28143 -51.350569 
L 129.70619 -51.087643 
L 130.13095 -50.825891 
L 130.555709 -50.565313 
L 130.980469 -50.305909 
L 131.405229 -50.047678 
L 131.829989 -49.790622 
L 132.254749 -49.534739 
L 132.679508 -49.280029 
L 133.104268 -49.026494 
L 133.529028 -48.774132 
L 133.953788 -48.522944 
L 134.378547 -48.27293 
L 134.803307 -48.02409 
L 135.228067 -47.776423 
L 135.652827 -47.52993 
L 136.077587 -47.284611 
L 136.502346 -47.040466 
L 136.927106 -46.797494 
L 137.351866 -46.555697 
L 137.776626 -46.315073 
L 138.201385 -46.075622 
L 138.626145 -45.837346 
L 139.050905 -45.600243 
L 139.475665 -45.364314 
L 139.900425 -45.129559 
L 140.325184 -44.895978 
L 140.749944 -44.663571 
L 141.174704 -44.432337 
L 141.599464 -44.202277 
L 142.024223 -43.973391 
L 142.448983 -43.745678 
L 142.873743 -43.519139 
L 143.298503 -43.293775 
L 143.723263 -43.069584 
L 144.148022 -42.846566 
L 144.572782 -42.624723 
L 144.997542 -42.404053 
L 145.422302 -42.184557 
L 145.847061 -41.966235 
L 146.271821 -41.749086 
L 146.696581 -41.533111 
L 147.121341 -41.318311 
L 147.546101 -41.104683 
L 147.97086 -40.89223 
L 148.39562 -40.680951 
L 148.82038 -40.470845 
L 149.24514 -40.261913 
L 149.669899 -40.054154 
L 150.094659 -39.84757 
L 150.519419 -39.642159 
L 150.944179 -39.437922 
L 151.368939 -39.234859 
L 151.793698 -39.03297 
L 152.218458 -38.832254 
L 152.643218 -38.632712 
L 153.067978 -38.434344 
L 153.492737 -38.23715 
L 153.917497 -38.04113 
L 154.342257 -37.846283 
L 154.767017 -37.65261 
L 155.191777 -37.460111 
L 155.616536 -37.268785 
L 156.041296 -37.078634 
L 156.466056 -36.889656 
L 156.890816 -36.701852 
L 157.315575 -36.515222 
L 157.740335 -36.329765 
L 158.165095 -36.145482 
L 158.589855 -35.962373 
L 159.014615 -35.780438 
L 159.439374 -35.599677 
L 159.864134 -35.420089 
L 160.288894 -35.241675 
L 160.713654 -35.064435 
L 161.138413 -34.888369 
L 161.563173 -34.713476 
L 161.987933 -34.539758 
L 162.412693 -34.367213 
L 162.837453 -34.195841 
L 163.262212 -34.025644 
L 163.686972 -33.85662 
L 164.111732 -33.68877 
L 164.536492 -33.522094 
L 164.961251 -33.356592 
L 165.386011 -33.192263 
L 165.810771 -33.029109 
L 166.235531 -32.867128 
L 166.660291 -32.70632 
L 167.08505 -32.546687 
L 167.50981 -32.388227 
L 167.93457 -32.230941 
L 168.35933 -32.074829 
L 168.784089 -31.919891 
L 169.208849 -31.766126 
L 169.633609 -31.613535 
L 170.058369 -31.462118 
L 170.483128 -31.311875 
L 170.907888 -31.162806 
L 171.332648 -31.01491 
L 171.757408 -30.868188 
L 172.182168 -30.72264 
L 172.606927 -30.578266 
L 173.031687 -30.435065 
L 173.456447 -30.293038 
L 173.881207 -30.152185 
L 174.305966 -30.012506 
L 174.730726 -29.874 
L 175.155486 -29.736669 
L 175.580246 -29.600511 
L 176.005006 -29.465526 
L 176.429765 -29.331716 
L 176.854525 -29.199079 
L 177.279285 -29.067617 
L 177.704045 -28.937327 
L 178.128804 -28.808212 
L 178.553564 -28.680271 
L 178.978324 -28.553503 
L 179.403084 -28.427909 
L 179.827844 -28.303489 
L 180.252603 -28.180242 
L 180.677363 -28.05817 
L 181.102123 -27.937271 
L 181.526883 -27.817546 
L 181.951642 -27.698994 
L 182.376402 -27.581617 
L 182.801162 -27.465413 
L 183.225922 -27.350383 
L 183.650682 -27.236527 
L 184.075441 -27.123844 
L 184.500201 -27.012336 
L 184.924961 -26.902001 
L 185.349721 -26.79284 
L 185.77448 -26.684852 
L 186.19924 -26.578039 
L 186.624 -26.472399 
L 187.04876 -26.367933 
L 187.47352 -26.264641 
L 187.898279 -26.162522 
L 188.323039 -26.061578 
L 188.747799 -25.961807 
L 189.172559 -25.86321 
L 189.597318 -25.765786 
L 190.022078 -25.669537 
L 190.446838 -25.574461 
L 190.871598 -25.480559 
L 191.296358 -25.387831 
L 191.721117 -25.296276 
L 192.145877 -25.205895 
L 192.570637 -25.116689 
L 192.995397 -25.028655 
L 193.420156 -24.941796 
L 193.844916 -24.85611 
L 194.269676 -24.771599 
L 194.694436 -24.68826 
L 195.119196 -24.606096 
L 195.543955 -24.525106 
L 195.968715 -24.445289 
L 196.393475 -24.366646 
L 196.818235 -24.289177 
L 197.242994 -24.212881 
L 197.667754 -24.13776 
L 198.092514 -24.063812 
L 198.517274 -23.991038 
L 198.942034 -23.919438 
L 199.366793 -23.849011 
L 199.791553 -23.779758 
L 200.216313 -23.711679 
L 200.641073 -23.644774 
L 201.065832 -23.579043 
L 201.490592 -23.514485 
L 201.915352 -23.451101 
L 202.340112 -23.388891 
L 202.764872 -23.327855 
L 203.189631 -23.267992 
L 203.614391 -23.209303 
L 204.039151 -23.151788 
L 204.463911 -23.095447 
L 204.88867 -23.04028 
L 205.31343 -22.986286 
L 205.73819 -22.933466 
L 206.16295 -22.88182 
L 206.587709 -22.831348 
L 207.012469 -22.782049 
L 207.437229 -22.733924 
L 207.861989 -22.686973 
L 208.286749 -22.641196 
L 208.711508 -22.596593 
L 209.136268 -22.553163 
L 209.561028 -22.510907 
L 209.985788 -22.469825 
L 210.410547 -22.429917 
L 210.835307 -22.391182 
L 211.260067 -22.353621 
L 211.684827 -22.317234 
L 212.109587 -22.282021 
L 212.534346 -22.247981 
L 212.959106 -22.215116 
L 213.383866 -22.183424 
L 213.808626 -22.152906 
L 214.233385 -22.123561 
L 214.658145 -22.095391 
L 215.082905 -22.068394 
L 215.507665 -22.042571 
L 215.932425 -22.017921 
L 216.357184 -21.994446 
L 216.781944 -21.972144 
L 217.206704 -21.951016 
L 217.631464 -21.931062 
L 218.056223 -21.912282 
L 218.480983 -21.894675 
L 218.905743 -21.878242 
L 219.330503 -21.862983 
L 219.755263 -21.848898 
L 220.180022 -21.835986 
L 220.604782 -21.824248 
L 221.029542 -21.813684 
L 221.454302 -21.804294 
L 221.879061 -21.796078 
L 222.303821 -21.789035 
L 222.728581 -21.783166 
L 223.153341 -21.778471 
L 223.578101 -21.77495 
L 224.00286 -21.772602 
L 224.42762 -21.771429 
L 224.85238 -21.771429 
L 225.27714 -21.772602 
L 225.701899 -21.77495 
L 226.126659 -21.778471 
L 226.551419 -21.783166 
L 226.976179 -21.789035 
L 227.400939 -21.796078 
L 227.825698 -21.804294 
L 228.250458 -21.813684 
L 228.675218 -21.824248 
L 229.099978 -21.835986 
L 229.524737 -21.848898 
L 229.949497 -21.862983 
L 230.374257 -21.878242 
L 230.799017 -21.894675 
L 231.223777 -21.912282 
L 231.648536 -21.931062 
L 232.073296 -21.951016 
L 232.498056 -21.972144 
L 232.922816 -21.994446 
L 233.347575 -22.017921 
L 233.772335 -22.042571 
L 234.197095 -22.068394 
L 234.621855 -22.095391 
L 235.046615 -22.123561 
L 235.471374 -22.152906 
L 235.896134 -22.183424 
L 236.320894 -22.215116 
L 236.745654 -22.247981 
L 237.170413 -22.282021 
L 237.595173 -22.317234 
L 238.019933 -22.353621 
L 238.444693 -22.391182 
L 238.869453 -22.429917 
L 239.294212 -22.469825 
L 239.718972 -22.510907 
L 240.143732 -22.553163 
L 240.568492 -22.596593 
L 240.993251 -22.641196 
L 241.418011 -22.686973 
L 241.842771 -22.733924 
L 242.267531 -22.782049 
L 242.692291 -22.831348 
L 243.11705 -22.88182 
L 243.54181 -22.933466 
L 243.96657 -22.986286 
L 244.39133 -23.04028 
L 244.816089 -23.095447 
L 245.240849 -23.151788 
L 245.665609 -23.209303 
L 246.090369 -23.267992 
L 246.515128 -23.327855 
L 246.939888 -23.388891 
L 247.364648 -23.451101 
L 247.789408 -23.514485 
L 248.214168 -23.579043 
L 248.638927 -23.644774 
L 249.063687 -23.711679 
L 249.488447 -23.779758 
L 249.913207 -23.849011 
L 250.337966 -23.919438 
L 250.762726 -23.991038 
L 251.187486 -24.063812 
L 251.612246 -24.13776 
L 252.037006 -24.212881 
L 252.461765 -24.289177 
L 252.886525 -24.366646 
L 253.311285 -24.445289 
L 253.736045 -24.525106 
L 254.160804 -24.606096 
L 254.585564 -24.68826 
L 255.010324 -24.771599 
L 255.435084 -24.85611 
L 255.859844 -24.941796 
L 256.284603 -25.028655 
L 256.709363 -25.116689 
L 257.134123 -25.205895 
L 257.558883 -25.296276 
L 257.983642 -25.387831 
L 258.408402 -25.480559 
L 258.833162 -25.574461 
L 259.257922 -25.669537 
L 259.682682 -25.765786 
L 260.107441 -25.86321 
L 260.532201 -25.961807 
L 260.956961 -26.061578 
L 261.381721 -26.162522 
L 261.80648 -26.264641 
L 262.23124 -26.367933 
L 262.656 -26.472399 
L 263.08076 -26.578039 
L 263.50552 -26.684852 
L 263.930279 -26.79284 
L 264.355039 -26.902001 
L 264.779799 -27.012336 
L 265.204559 -27.123844 
L 265.629318 -27.236527 
L 266.054078 -27.350383 
L 266.478838 -27.465413 
L 266.903598 -27.581617 
L 267.328358 -27.698994 
L 267.753117 -27.817546 
L 268.177877 -27.937271 
L 268.602637 -28.05817 
L 269.027397 -28.180242 
L 269.452156 -28.303489 
L 269.876916 -28.427909 
L 270.301676 -28.553503 
L 270.726436 -28.680271 
L 271.151196 -28.808212 
L 271.575955 -28.937327 
L 272.000715 -29.067617 
L 272.425475 -29.199079 
L 272.850235 -29.331716 
L 273.274994 -29.465526 
L 273.699754 -29.600511 
L 274.124514 -29.736669 
L 274.549274 -29.874 
L 274.974034 -30.012506 
L 275.398793 -30.152185 
L 275.823553 -30.293038 
L 276.248313 -30.435065 
L 276.673073 -30.578266 
L 277.097832 -30.72264 
L 277.522592 -30.868188 
L 277.947352 -31.01491 
L 278.372112 -31.162806 
L 278.796872 -31.311875 
L 279.221631 -31.462118 
L 279.646391 -31.613535 
L 280.071151 -31.766126 
L 280.495911 -31.919891 
L 280.92067 -32.074829 
L 281.34543 -32.230941 
L 281.77019 -32.388227 
L 282.19495 -32.546687 
L 282.619709 -32.70632 
L 283.044469 -32.867128 
L 283.469229 -33.029109 
L 283.893989 -33.192263 
L 284.318749 -33.356592 
L 284.743508 -33.522094 
L 285.168268 -33.68877 
L 285.593028 -33.85662 
L 286.017788 -34.025644 
L 286.442547 -34.195841 
L 286.867307 -34.367213 
L 287.292067 -34.539758 
L 287.716827 -34.713476 
L 288.141587 -34.888369 
L 288.566346 -35.064435 
L 288.991106 -35.241675 
L 289.415866 -35.420089 
L 289.840626 -35.599677 
L 290.265385 -35.780438 
L 290.690145 -35.962373 
L 291.114905 -36.145482 
L 291.539665 -36.329765 
L 291.964425 -36.515222 
L 292.389184 -36.701852 
L 292.813944 -36.889656 
L 293.238704 -37.078634 
L 293.663464 -37.268785 
L 294.088223 -37.460111 
L 294.512983 -37.65261 
L 294.937743 -37.846283 
L 295.362503 -38.04113 
L 295.787263 -38.23715 
L 296.212022 -38.434344 
L 296.636782 -38.632712 
L 297.061542 -38.832254 
L 297.486302 -39.03297 
L 297.911061 -39.234859 
L 298.335821 -39.437922 
L 298.760581 -39.642159 
L 299.185341 -39.84757 
L 299.610101 -40.054154 
L 300.03486 -40.261913 
L 300.45962 -40.470845 
L 300.88438 -40.680951 
L 301.30914 -40.89223 
L 301.733899 -41.104683 
L 302.158659 -41.318311 
L 302.583419 -41.533111 
L 303.008179 -41.749086 
L 303.432939 -41.966235 
L 303.857698 -42.184557 
L 304.282458 -42.404053 
L 304.707218 -42.624723 
L 305.131978 -42.846566 
L 305.556737 -43.069584 
L 305.981497 -43.293775 
L 306.406257 -43.519139 
L 306.831017 -43.745678 
L 307.255777 -43.973391 
L 307.680536 -44.202277 
L 308.105296 -44.432337 
L 308.530056 -44.663571 
L 308.954816 -44.895978 
L 309.379575 -45.129559 
L 309.804335 -45.364314 
L 310.229095 -45.600243 
L 310.653855 -45.837346 
L 311.078615 -46.075622 
L 311.503374 -46.315073 
L 311.928134 -46.555697 
L 312.352894 -46.797494 
L 312.777654 -47.040466 
L 313.202413 -47.284611 
L 313.627173 -47.52993 
L 314.051933 -47.776423 
L 314.476693 -48.02409 
L 314.901453 -48.27293 
L 315.326212 -48.522944 
L 315.750972 -48.774132 
L 316.175732 -49.026494 
L 316.600492 -49.280029 
L 317.025251 -49.534739 
L 317.450011 -49.790622 
L 317.874771 -50.047678 
L 318.299531 -50.305909 
L 318.724291 -50.565313 
L 319.14905 -50.825891 
L 319.57381 -51.087643 
L 319.99857 -51.350569 
L 320.42333 -51.614669 
L 320.848089 -51.879942 
L 321.272849 -52.146389 
L 321.697609 -52.41401 
L 322.122369 -52.682804 
L 322.547128 -52.952773 
L 322.971888 -53.223915 
L 323.396648 -53.496231 
L 323.821408 -53.76972 
L 324.246168 -54.044384 
L 324.670927 -54.320221 
L 325.095687 -54.597232 
L 325.520447 -54.875417 
L 325.945207 -55.154775 
L 326.369966 -55.435308 
L 326.794726 -55.717014 
L 327.219486 -55.999894 
L 327.644246 -56.283947 
L 328.069006 -56.569175 
L 328.493765 -56.855576 
L 328.918525 -57.143151 
L 329.343285 -57.4319 
L 329.768045 -57.721822 
L 330.192804 -58.012918 
L 330.617564 -58.305188 
L 331.042324 -58.598632 
L 331.467084 -58.89325 
L 331.891844 -59.189041 
L 332.316603 -59.486006 
L 332.741363 -59.784145 
L 333.166123 -60.083458 
L 333.590883 -60.383945 
L 334.015642 -60.685605 
L 334.440402 -60.988439 
L 334.865162 -61.292447 
L 335.289922 -61.597628 
L 335.714682 -61.903984 
L 336.139441 -62.211513 
L 336.564201 -62.520216 
L 336.988961 -62.830093 
L 337.413721 -63.141143 
L 337.83848 -63.453367 
L 338.26324 -63.766765 
L 338.688 -64.081337 
L 339.11276 -64.397083 
L 339.53752 -64.714002 
L 339.962279 -65.032095 
L 340.387039 -65.351362 
L 340.811799 -65.671803 
L 341.236559 -65.993417 
L 341.661318 -66.316206 
L 342.086078 -66.640168 
L 342.510838 -66.965303 
L 342.935598 -67.291613 
L 343.360358 -67.619096 
L 343.785117 -67.947753 
L 344.209877 -68.277584 
L 344.634637 -68.608589 
L 345.059397 -68.940767 
L 345.484156 -69.27412 
L 345.908916 -69.608646 
L 346.333676 -69.944345 
L 346.758436 -70.281219 
L 347.183196 -70.619266 
L 347.607955 -70.958487 
L 348.032715 -71.298882 
L 348.457475 -71.640451 
L 348.882235 -71.983193 
L 349.306994 -72.32711 
L 349.731754 -72.6722 
L 350.156514 -73.018463 
L 350.581274 -73.365901 
L 351.006034 -73.714512 
L 351.430793 -74.064297 
L 351.855553 -74.415256 
L 352.280313 -74.767389 
L 352.705073 -75.120695 
L 353.129832 -75.475175 
L 353.554592 -75.830829 
L 353.979352 -76.187657 
L 354.404112 -76.545658 
L 354.828872 -76.904834 
L 355.253631 -77.265183 
L 355.678391 -77.626706 
L 356.103151 -77.989402 
L 356.527911 -78.353273 
L 356.95267 -78.718317 
L 357.37743 -79.084535 
L 357.80219 -79.451926 
L 358.22695 -79.820492 
L 358.651709 -80.190231 
L 359.076469 -80.561144 
L 359.501229 -80.933231 
L 359.925989 -81.306491 
L 360.350749 -81.680926 
L 360.775508 -82.056534 
L 361.200268 -82.433316 
L 361.625028 -82.811272 
L 362.049788 -83.190401 
L 362.474547 -83.570704 
L 362.899307 -83.952181 
L 363.324067 -84.334832 
L 363.748827 -84.718657 
L 364.173587 -85.103655 
L 364.598346 -85.489827 
L 365.023106 -85.877173 
L 365.447866 -86.265693 
L 365.872626 -86.655386 
L 366.297385 -87.046253 
L 366.722145 -87.438294 
L 367.146905 -87.831509 
L 367.571665 -88.225898 
L 367.996425 -88.62146 
L 368.421184 -89.018196 
L 368.845944 -89.416106 
L 369.270704 -89.815189 
L 369.695464 -90.215447 
L 370.120223 -90.616878 
L 370.544983 -91.019483 
L 370.969743 -91.423262 
L 371.394503 -91.828214 
L 371.819263 -92.234341 
L 372.244022 -92.641641 
L 372.668782 -93.050115 
L 373.093542 -93.459762 
L 373.518302 -93.870584 
L 373.943061 -94.282579 
L 374.367821 -94.695748 
L 374.792581 -95.11009 
L 375.217341 -95.525607 
L 375.642101 -95.942297 
L 376.06686 -96.360161 
L 376.49162 -96.779199 
L 376.49162 -97.620801 
L 376.49162 -97.620801 
L 376.06686 -98.039839 
L 375.642101 -98.457703 
L 375.217341 -98.874393 
L 374.792581 -99.28991 
L 374.367821 -99.704252 
L 373.943061 -100.117421 
L 373.518302 -100.529416 
L 373.093542 -100.940238 
L 372.668782 -101.349885 
L 372.244022 -101.758359 
L 371.819263 -102.165659 
L 371.394503 -102.571786 
L 370.969743 -102.976738 
L 370.544983 -103.380517 
L 370.120223 -103.783122 
L 369.695464 -104.184553 
L 369.270704 -104.584811 
L 368.845944 -104.983894 
L 368.421184 -105.381804 
L 367.996425 -105.77854 
L 367.571665 -106.174102 
L 367.146905 -106.568491 
L 366.722145 -106.961706 
L 366.297385 -107.353747 
L 365.872626 -107.744614 
L 365.447866 -108.134307 
L 365.023106 -108.522827 
L 364.598346 -108.910173 
L 364.173587 -109.296345 
L 363.748827 -109.681343 
L 363.324067 -110.065168 
L 362.899307 -110.447819 
L 362.474547 -110.829296 
L 362.049788 -111.209599 
L 361.625028 -111.588728 
L 361.200268 -111.966684 
L 360.775508 -112.343466 
L 360.350749 -112.719074 
L 359.925989 -113.093509 
L 359.501229 -113.466769 
L 359.076469 -113.838856 
L 358.651709 -114.209769 
L 358.22695 -114.579508 
L 357.80219 -114.948074 
L 357.37743 -115.315465 
L 356.95267 -115.681683 
L 356.527911 -116.046727 
L 356.103151 -116.410598 
L 355.678391 -116.773294 
L 355.253631 -117.134817 
L 354.828872 -117.495166 
L 354.404112 -117.854342 
L 353.979352 -118.212343 
L 353.554592 -118.569171 
L 353.129832 -118.924825 
L 352.705073 -119.279305 
L 352.280313 -119.632611 
L 351.855553 -119.984744 
L 351.430793 -120.335703 
L 351.006034 -120.685488 
L 350.581274 -121.034099 
L 350.156514 -121.381537 
L 349.731754 -121.7278 
L 349.306994 -122.07289 
L 348.882235 -122.416807 
L 348.457475 -122.759549 
L 348.032715 -123.101118 
L 347.607955 -123.441513 
L 347.183196 -123.780734 
L 346.758436 -124.118781 
L 346.333676 -124.455655 
L 345.908916 -124.791354 
L 345.484156 -125.12588 
L 345.059397 -125.459233 
L 344.634637 -125.791411 
L 344.209877 -126.122416 
L 343.785117 -126.452247 
L 343.360358 -126.780904 
L 342.935598 -127.108387 
L 342.510838 -127.434697 
L 342.086078 -127.759832 
L 341.661318 -128.083794 
L 341.236559 -128.406583 
L 340.811799 -128.728197 
L 340.387039 -129.048638 
L 339.962279 -129.367905 
L 339.53752 -129.685998 
L 339.11276 -130.002917 
L 338.688 -130.318663 
L 338.26324 -130.633235 
L 337.83848 -130.946633 
L 337.413721 -131.258857 
L 336.988961 -131.569907 
L 336.564201 -131.879784 
L 336.139441 -132.188487 
L 335.714682 -132.496016 
L 335.289922 -132.802372 
L 334.865162 -133.107553 
L 334.440402 -133.411561 
L 334.015642 -133.714395 
L 333.590883 -134.016055 
L 333.166123 -134.316542 
L 332.741363 -134.615855 
L 332.316603 -134.913994 
L 331.891844 -135.210959 
L 331.467084 -135.50675 
L 331.042324 -135.801368 
L 330.617564 -136.094812 
L 330.192804 -136.387082 
L 329.768045 -136.678178 
L 329.343285 -136.9681 
L 328.918525 -137.256849 
L 328.493765 -137.544424 
L 328.069006 -137.830825 
L 327.644246 -138.116053 
L 327.219486 -138.400106 
L 326.794726 -138.682986 
L 326.369966 -138.964692 
L 325.945207 -139.245225 
L 325.520447 -139.524583 
L 325.095687 -139.802768 
L 324.670927 -140.079779 
L 324.246168 -140.355616 
L 323.821408 -140.63028 
L 323.396648 -140.903769 
L 322.971888 -141.176085 
L 322.547128 -141.447227 
L 322.122369 -141.717196 
L 321.697609 -141.98599 
L 321.272849 -142.253611 
L 320.848089 -142.520058 
L 320.42333 -142.785331 
L 319.99857 -143.049431 
L 319.57381 -143.312357 
L 319.14905 -143.574109 
L 318.724291 -143.834687 
L 318.299531 -144.094091 
L 317.874771 -144.352322 
L 317.450011 -144.609378 
L 317.025251 -144.865261 
L 316.600492 -145.119971 
L 316.175732 -145.373506 
L 315.750972 -145.625868 
L 315.326212 -145.877056 
L 314.901453 -146.12707 
L 314.476693 -146.37591 
L 314.051933 -146.623577 
L 313.627173 -146.87007 
L 313.202413 -147.115389 
L 312.777654 -147.359534 
L 312.352894 -147.602506 
L 311.928134 -147.844303 
L 311.503374 -148.084927 
L 311.078615 -148.324378 
L 310.653855 -148.562654 
L 310.229095 -148.799757 
L 309.804335 -149.035686 
L 309.379575 -149.270441 
L 308.954816 -149.504022 
L 308.530056 -149.736429 
L 308.105296 -149.967663 
L 307.680536 -150.197723 
L 307.255777 -150.426609 
L 306.831017 -150.654322 
L 306.406257 -150.880861 
L 305.981497 -151.106225 
L 305.556737 -151.330416 
L 305.131978 -151.553434 
L 304.707218 -151.775277 
L 304.282458 -151.995947 
L 303.857698 -152.215443 
L 303.432939 -152.433765 
L 303.008179 -152.650914 
L 302.583419 -152.866889 
L 302.158659 -153.081689 
L 301.733899 -153.295317 
L 301.30914 -153.50777 
L 300.88438 -153.719049 
L 300.45962 -153.929155 
L 300.03486 -154.138087 
L 299.610101 -154.345846 
L 299.185341 -154.55243 
L 298.760581 -154.757841 
L 298.335821 -154.962078 
L 297.911061 -155.165141 
L 297.486302 -155.36703 
L 297.061542 -155.567746 
L 296.636782 -155.767288 
L 296.212022 -155.965656 
L 295.787263 -156.16285 
L 295.362503 -156.35887 
L 294.937743 -156.553717 
L 294.512983 -156.74739 
L 294.088223 -156.939889 
L 293.663464 -157.131215 
L 293.238704 -157.321366 
L 292.813944 -157.510344 
L 292.389184 -157.698148 
L 291.964425 -157.884778 
L 291.539665 -158.070235 
L 291.114905 -158.254518 
L 290.690145 -158.437627 
L 290.265385 -158.619562 
L 289.840626 -158.800323 
L 289.415866 -158.979911 
L 288.991106 -159.158325 
L 288.566346 -159.335565 
L 288.141587 -159.511631 
L 287.716827 -159.686524 
L 287.292067 -159.860242 
L 286.867307 -160.032787 
L 286.442547 -160.204159 
L 286.017788 -160.374356 
L 285.593028 -160.54338 
L 285.168268 -160.71123 
L 284.743508 -160.877906 
L 284.318749 -161.043408 
L 283.893989 -161.207737 
L 283.469229 -161.370891 
L 283.044469 -161.532872 
L 282.619709 -161.69368 
L 282.19495 -161.853313 
L 281.77019 -162.011773 
L 281.34543 -162.169059 
L 280.92067 -162.325171 
L 280.495911 -162.480109 
L 280.071151 -162.633874 
L 279.646391 -162.786465 
L 279.221631 -162.937882 
L 278.796872 -163.088125 
L 278.372112 -163.237194 
L 277.947352 -163.38509 
L 277.522592 -163.531812 
L 277.097832 -163.67736 
L 276.673073 -163.821734 
L 276.248313 -163.964935 
L 275.823553 -164.106962 
L 275.398793 -164.247815 
L 274.974034 -164.387494 
L 274.549274 -164.526 
L 274.124514 -164.663331 
L 273.699754 -164.799489 
L 273.274994 -164.934474 
L 272.850235 -165.068284 
L 272.425475 -165.200921 
L 272.000715 -165.332383 
L 271.575955 -165.462673 
L 271.151196 -165.591788 
L 270.726436 -165.719729 
L 270.301676 -165.846497 
L 269.876916 -165.972091 
L 269.452156 -166.096511 
L 269.027397 -166.219758 
L 268.602637 -166.34183 
L 268.177877 -166.462729 
L 267.753117 -166.582454 
L 267.328358 -166.701006 
L 266.903598 -166.818383 
L 266.478838 -166.934587 
L 266.054078 -167.049617 
L 265.629318 -167.163473 
L 265.204559 -167.276156 
L 264.779799 -167.387664 
L 264.355039 -167.497999 
L 263.930279 -167.60716 
L 263.50552 -167.715148 
L 263.08076 -167.821961 
L 262.656 -167.927601 
L 262.23124 -168.032067 
L 261.80648 -168.135359 
L 261.381721 -168.237478 
L 260.956961 -168.338422 
L 260.532201 -168.438193 
L 260.107441 -168.53679 
L 259.682682 -168.634214 
L 259.257922 -168.730463 
L 258.833162 -168.825539 
L 258.408402 -168.919441 
L 257.983642 -169.012169 
L 257.558883 -169.103724 
L 257.134123 -169.194105 
L 256.709363 -169.283311 
L 256.284603 -169.371345 
L 255.859844 -169.458204 
L 255.435084 -169.54389 
L 255.010324 -169.628401 
L 254.585564 -169.71174 
L 254.160804 -169.793904 
L 253.736045 -169.874894 
L 253.311285 -169.954711 
L 252.886525 -170.033354 
L 252.461765 -170.110823 
L 252.037006 -170.187119 
L 251.612246 -170.26224 
L 251.187486 -170.336188 
L 250.762726 -170.408962 
L 250.337966 -170.480562 
L 249.913207 -170.550989 
L 249.488447 -170.620242 
L 249.063687 -170.688321 
L 248.638927 -170.755226 
L 248.214168 -170.820957 
L 247.789408 -170.885515 
L 247.364648 -170.948899 
L 246.939888 -171.011109 
L 246.515128 -171.072145 
L 246.090369 -171.132008 
L 245.665609 -171.190697 
L 245.240849 -171.248212 
L 244.816089 -171.304553 
L 244.39133 -171.35972 
L 243.96657 -171.413714 
L 243.54181 -171.466534 
L 243.11705 -171.51818 
L 242.692291 -171.568652 
L 242.267531 -171.617951 
L 241.842771 -171.666076 
L 241.418011 -171.713027 
L 240.993251 -171.758804 
L 240.568492 -171.803407 
L 240.143732 -171.846837 
L 239.718972 -171.889093 
L 239.294212 -171.930175 
L 238.869453 -171.970083 
L 238.444693 -172.008818 
L 238.019933 -172.046379 
L 237.595173 -172.082766 
L 237.170413 -172.117979 
L 236.745654 -172.152019 
L 236.320894 -172.184884 
L 235.896134 -172.216576 
L 235.471374 -172.247094 
L 235.046615 -172.276439 
L 234.621855 -172.304609 
L 234.197095 -172.331606 
L 233.772335 -172.357429 
L 233.347575 -172.382079 
L 232.922816 -172.405554 
L 232.498056 -172.427856 
L 232.073296 -172.448984 
L 231.648536 -172.468938 
L 231.223777 -172.487718 
L 230.799017 -172.505325 
L 230.374257 -172.521758 
L 229.949497 -172.537017 
L 229.524737 -172.551102 
L 229.099978 -172.564014 
L 228.675218 -172.575752 
L 228.250458 -172.586316 
L 227.825698 -172.595706 
L 227.400939 -172.603922 
L 226.976179 -172.610965 
L 226.551419 -172.616834 
L 226.126659 -172.621529 
L 225.701899 -172.62505 
L 225.27714 -172.627398 
L 224.85238 -172.628571 
L 224.42762 -172.628571 
L 224.00286 -172.627398 
L 223.578101 -172.62505 
L 223.153341 -172.621529 
L 222.728581 -172.616834 
L 222.303821 -172.610965 
L 221.879061 -172.603922 
L 221.454302 -172.595706 
L 221.029542 -172.586316 
L 220.604782 -172.575752 
L 220.180022 -172.564014 
L 219.755263 -172.551102 
L 219.330503 -172.537017 
L 218.905743 -172.521758 
L 218.480983 -172.505325 
L 218.056223 -172.487718 
L 217.631464 -172.468938 
L 217.206704 -172.448984 
L 216.781944 -172.427856 
L 216.357184 -172.405554 
L 215.932425 -172.382079 
L 215.507665 -172.357429 
L 215.082905 -172.331606 
L 214.658145 -172.304609 
L 214.233385 -172.276439 
L 213.808626 -172.247094 
L 213.383866 -172.216576 
L 212.959106 -172.184884 
L 212.534346 -172.152019 
L 212.109587 -172.117979 
L 211.684827 -172.082766 
L 211.260067 -172.046379 
L 210.835307 -172.008818 
L 210.410547 -171.970083 
L 209.985788 -171.930175 
L 209.561028 -171.889093 
L 209.136268 -171.846837 
L 208.711508 -171.803407 
L 208.286749 -171.758804 
L 207.861989 -171.713027 
L 207.437229 -171.666076 
L 207.012469 -171.617951 
L 206.587709 -171.568652 
L 206.16295 -171.51818 
L 205.73819 -171.466534 
L 205.31343 -171.413714 
L 204.88867 -171.35972 
L 204.463911 -171.304553 
L 204.039151 -171.248212 
L 203.614391 -171.190697 
L 203.189631 -171.132008 
L 202.764872 -171.072145 
L 202.340112 -171.011109 
L 201.915352 -170.948899 
L 201.490592 -170.885515 
L 201.065832 -170.820957 
L 200.641073 -170.755226 
L 200.216313 -170.688321 
L 199.791553 -170.620242 
L 199.366793 -170.550989 
L 198.942034 -170.480562 
L 198.517274 -170.408962 
L 198.092514 -170.336188 
L 197.667754 -170.26224 
L 197.242994 -170.187119 
L 196.818235 -170.110823 
L 196.393475 -170.033354 
L 195.968715 -169.954711 
L 195.543955 -169.874894 
L 195.119196 -169.793904 
L 194.694436 -169.71174 
L 194.269676 -169.628401 
L 193.844916 -169.54389 
L 193.420156 -169.458204 
L 192.995397 -169.371345 
L 192.570637 -169.283311 
L 192.145877 -169.194105 
L 191.721117 -169.103724 
L 191.296358 -169.012169 
L 190.871598 -168.919441 
L 190.446838 -168.825539 
L 190.022078 -168.730463 
L 189.597318 -168.634214 
L 189.172559 -168.53679 
L 188.747799 -168.438193 
L 188.323039 -168.338422 
L 187.898279 -168.237478 
L 187.47352 -168.135359 
L 187.04876 -168.032067 
L 186.624 -167.927601 
L 186.19924 -167.821961 
L 185.77448 -167.715148 
L 185.349721 -167.60716 
L 184.924961 -167.497999 
L 184.500201 -167.387664 
L 184.075441 -167.276156 
L 183.650682 -167.163473 
L 183.225922 -167.049617 
L 182.801162 -166.934587 
L 182.376402 -166.818383 
L 181.951642 -166.701006 
L 181.526883 -166.582454 
L 181.102123 -166.462729 
L 180.677363 -166.34183 
L 180.252603 -166.219758 
L 179.827844 -166.096511 
L 179.403084 -165.972091 
L 178.978324 -165.846497 
L 178.553564 -165.719729 
L 178.128804 -165.591788 
L 177.704045 -165.462673 
L 177.279285 -165.332383 
L 176.854525 -165.200921 
L 176.429765 -165.068284 
L 176.005006 -164.934474 
L 175.580246 -164.799489 
L 175.155486 -164.663331 
L 174.730726 -164.526 
L 174.305966 -164.387494 
L 173.881207 -164.247815 
L 173.456447 -164.106962 
L 173.031687 -163.964935 
L 172.606927 -163.821734 
L 172.182168 -163.67736 
L 171.757408 -163.531812 
L 171.332648 -163.38509 
L 170.907888 -163.237194 
L 170.483128 -163.088125 
L 170.058369 -162.937882 
L 169.633609 -162.786465 
L 169.208849 -162.633874 
L 168.784089 -162.480109 
L 168.35933 -162.325171 
L 167.93457 -162.169059 
L 167.50981 -162.011773 
L 167.08505 -161.853313 
L 166.660291 -161.69368 
L 166.235531 -161.532872 
L 165.810771 -161.370891 
L 165.386011 -161.207737 
L 164.961251 -161.043408 
L 164.536492 -160.877906 
L 164.111732 -160.71123 
L 163.686972 -160.54338 
L 163.262212 -160.374356 
L 162.837453 -160.204159 
L 162.412693 -160.032787 
L 161.987933 -159.860242 
L 161.563173 -159.686524 
L 161.138413 -159.511631 
L 160.713654 -159.335565 
L 160.288894 -159.158325 
L 159.864134 -158.979911 
L 159.439374 -158.800323 
L 159.014615 -158.619562 
L 158.589855 -158.437627 
L 158.165095 -158.254518 
L 157.740335 -158.070235 
L 157.315575 -157.884778 
L 156.890816 -157.698148 
L 156.466056 -157.510344 
L 156.041296 -157.321366 
L 155.616536 -157.131215 
L 155.191777 -156.939889 
L 154.767017 -156.74739 
L 154.342257 -156.553717 
L 153.917497 -156.35887 
L 153.492737 -156.16285 
L 153.067978 -155.965656 
L 152.643218 -155.767288 
L 152.218458 -155.567746 
L 151.793698 -155.36703 
L 151.368939 -155.165141 
L 150.944179 -154.962078 
L 150.519419 -154.757841 
L 150.094659 -154.55243 
L 149.669899 -154.345846 
L 149.24514 -154.138087 
L 148.82038 -153.929155 
L 148.39562 -153.719049 
L 147.97086 -153.50777 
L 147.546101 -153.295317 
L 147.121341 -153.081689 
L 146.696581 -152.866889 
L 146.271821 -152.650914 
L 145.847061 -152.433765 
L 145.422302 -152.215443 
L 144.997542 -151.995947 
L 144.572782 -151.775277 
L 144.148022 -151.553434 
L 143.723263 -151.330416 
L 143.298503 -151.106225 
L 142.873743 -150.880861 
L 142.448983 -150.654322 
L 142.024223 -150.426609 
L 141.599464 -150.197723 
L 141.174704 -149.967663 
L 140.749944 -149.736429 
L 140.325184 -149.504022 
L 139.900425 -149.270441 
L 139.475665 -149.035686 
L 139.050905 -148.799757 
L 138.626145 -148.562654 
L 138.201385 -148.324378 
L 137.776626 -148.084927 
L 137.351866 -147.844303 
L 136.927106 -147.602506 
L 136.502346 -147.359534 
L 136.077587 -147.115389 
L 135.652827 -146.87007 
L 135.228067 -146.623577 
L 134.803307 -146.37591 
L 134.378547 -146.12707 
L 133.953788 -145.877056 
L 133.529028 -145.625868 
L 133.104268 -145.373506 
L 132.679508 -145.119971 
L 132.254749 -144.865261 
L 131.829989 -144.609378 
L 131.405229 -144.352322 
L 130.980469 -144.094091 
L 130.555709 -143.834687 
L 130.13095 -143.574109 
L 129.70619 -143.312357 
L 129.28143 -143.049431 
L 128.85667 -142.785331 
L 128.431911 -142.520058 
L 128.007151 -142.253611 
L 127.582391 -141.98599 
L 127.157631 -141.717196 
L 126.732872 -141.447227 
L 126.308112 -141.176085 
L 125.883352 -140.903769 
L 125.458592 -140.63028 
L 125.033832 -140.355616 
L 124.609073 -140.079779 
L 124.184313 -139.802768 
L 123.759553 -139.524583 
L 123.334793 -139.245225 
L 122.910034 -138.964692 
L 122.485274 -138.682986 
L 122.060514 -138.400106 
L 121.635754 -138.116053 
L 121.210994 -137.830825 
L 120.786235 -137.544424 
L 120.361475 -137.256849 
L 119.936715 -136.9681 
L 119.511955 -136.678178 
L 119.087196 -136.387082 
L 118.662436 -136.094812 
L 118.237676 -135.801368 
L 117.812916 -135.50675 
L 117.388156 -135.210959 
L 116.963397 -134.913994 
L 116.538637 -134.615855 
L 116.113877 -134.316542 
L 115.689117 -134.016055 
L 115.264358 -133.714395 
L 114.839598 -133.411561 
L 114.414838 -133.107553 
L 113.990078 -132.802372 
L 113.565318 -132.496016 
L 113.140559 -132.188487 
L 112.715799 -131.879784 
L 112.291039 -131.569907 
L 111.866279 -131.258857 
L 111.44152 -130.946633 
L 111.01676 -130.633235 
L 110.592 -130.318663 
L 110.16724 -130.002917 
L 109.74248 -129.685998 
L 109.317721 -129.367905 
L 108.892961 -129.048638 
L 108.468201 -128.728197 
L 108.043441 -128.406583 
L 107.618682 -128.083794 
L 107.193922 -127.759832 
L 106.769162 -127.434697 
L 106.344402 -127.108387 
L 105.919642 -126.780904 
L 105.494883 -126.452247 
L 105.070123 -126.122416 
L 104.645363 -125.791411 
L 104.220603 -125.459233 
L 103.795844 -125.12588 
L 103.371084 -124.791354 
L 102.946324 -124.455655 
L 102.521564 -124.118781 
L 102.096804 -123.780734 
L 101.672045 -123.441513 
L 101.247285 -123.101118 
L 100.822525 -122.759549 
L 100.397765 -122.416807 
L 99.973006 -122.07289 
L 99.548246 -121.7278 
L 99.123486 -121.381537 
L 98.698726 -121.034099 
L 98.273966 -120.685488 
L 97.849207 -120.335703 
L 97.424447 -119.984744 
L 96.999687 -119.632611 
L 96.574927 -119.279305 
L 96.150168 -118.924825 
L 95.725408 -118.569171 
L 95.300648 -118.212343 
L 94.875888 -117.854342 
L 94.451128 -117.495166 
L 94.026369 -117.134817 
L 93.601609 -116.773294 
L 93.176849 -116.410598 
L 92.752089 -116.046727 
L 92.32733 -115.681683 
L 91.90257 -115.315465 
L 91.47781 -114.948074 
L 91.05305 -114.579508 
L 90.628291 -114.209769 
L 90.203531 -113.838856 
L 89.778771 -113.466769 
L 89.354011 -113.093509 
L 88.929251 -112.719074 
L 88.504492 -112.343466 
L 88.079732 -111.966684 
L 87.654972 -111.588728 
L 87.230212 -111.209599 
L 86.805453 -110.829296 
L 86.380693 -110.447819 
L 85.955933 -110.065168 
L 85.531173 -109.681343 
L 85.106413 -109.296345 
L 84.681654 -108.910173 
L 84.256894 -108.522827 
L 83.832134 -108.134307 
L 83.407374 -107.744614 
L 82.982615 -107.353747 
L 82.557855 -106.961706 
L 82.133095 -106.568491 
L 81.708335 -106.174102 
L 81.283575 -105.77854 
L 80.858816 -105.381804 
L 80.434056 -104.983894 
L 80.009296 -104.584811 
L 79.584536 -104.184553 
L 79.159777 -103.783122 
L 78.735017 -103.380517 
L 78.310257 -102.976738 
L 77.885497 -102.571786 
L 77.460737 -102.165659 
L 77.035978 -101.758359 
L 76.611218 -101.349885 
L 76.186458 -100.940238 
L 75.761698 -100.529416 
L 75.336939 -100.117421 
L 74.912179 -99.704252 
L 74.487419 -99.28991 
L 74.062659 -98.874393 
L 73.637899 -98.457703 
L 73.21314 -98.039839 
L 72.78838 -97.620801 
z
" id="m895d994c46" style="stroke:#0000ff;stroke-opacity:0.1;"/>
    </defs>
    <g clip-path="url(#p14073a3184)">
     <use style="fill:#0000ff;fill-opacity:0.1;stroke:#0000ff;stroke-opacity:0.1;" x="0" xlink:href="#m895d994c46" y="180"/>
    </g>
   </g>
   <g id="matplotlib.axis_1">
    <g id="xtick_1">
     <g id="line2d_1">
      <defs>
       <path d="M 0 0 
L 0 3.5 
" id="m38283b8375" style="stroke:#000000;stroke-width:0.8;"/>
      </defs>
      <g>
       <use style="stroke:#000000;stroke-width:0.8;" x="35.621899" xlink:href="#m38283b8375" y="162"/>
      </g>
     </g>
     <g id="text_1">
      <!-- 1940 -->
      <g transform="translate(22.896899 176.598438)scale(0.1 -0.1)">
       <defs>
        <path d="M 794 531 
L 1825 531 
L 1825 4091 
L 703 3866 
L 703 4441 
L 1819 4666 
L 2450 4666 
L 2450 531 
L 3481 531 
L 3481 0 
L 794 0 
L 794 531 
z
" id="DejaVuSans-31" transform="scale(0.015625)"/>
        <path d="M 703 97 
L 703 672 
Q 941 559 1184 500 
Q 1428 441 1663 441 
Q 2288 441 2617 861 
Q 2947 1281 2994 2138 
Q 2813 1869 2534 1725 
Q 2256 1581 1919 1581 
Q 1219 1581 811 2004 
Q 403 2428 403 3163 
Q 403 3881 828 4315 
Q 1253 4750 1959 4750 
Q 2769 4750 3195 4129 
Q 3622 3509 3622 2328 
Q 3622 1225 3098 567 
Q 2575 -91 1691 -91 
Q 1453 -91 1209 -44 
Q 966 3 703 97 
z
M 1959 2075 
Q 2384 2075 2632 2365 
Q 2881 2656 2881 3163 
Q 2881 3666 2632 3958 
Q 2384 4250 1959 4250 
Q 1534 4250 1286 3958 
Q 1038 3666 1038 3163 
Q 1038 2656 1286 2365 
Q 1534 2075 1959 2075 
z
" id="DejaVuSans-39" transform="scale(0.015625)"/>
        <path d="M 2419 4116 
L 825 1625 
L 2419 1625 
L 2419 4116 
z
M 2253 4666 
L 3047 4666 
L 3047 1625 
L 3713 1625 
L 3713 1100 
L 3047 1100 
L 3047 0 
L 2419 0 
L 2419 1100 
L 313 1100 
L 313 1709 
L 2253 4666 
z
" id="DejaVuSans-34" transform="scale(0.015625)"/>
        <path d="M 2034 4250 
Q 1547 4250 1301 3770 
Q 1056 3291 1056 2328 
Q 1056 1369 1301 889 
Q 1547 409 2034 409 
Q 2525 409 2770 889 
Q 3016 1369 3016 2328 
Q 3016 3291 2770 3770 
Q 2525 4250 2034 4250 
z
M 2034 4750 
Q 2819 4750 3233 4129 
Q 3647 3509 3647 2328 
Q 3647 1150 3233 529 
Q 2819 -91 2034 -91 
Q 1250 -91 836 529 
Q 422 1150 422 2328 
Q 422 3509 836 4129 
Q 1250 4750 2034 4750 
z
" id="DejaVuSans-30" transform="scale(0.015625)"/>
       </defs>
       <use xlink:href="#DejaVuSans-31"/>
       <use x="63.623047" xlink:href="#DejaVuSans-39"/>
       <use x="127.246094" xlink:href="#DejaVuSans-34"/>
       <use x="190.869141" xlink:href="#DejaVuSans-30"/>
      </g>
     </g>
    </g>
    <g id="xtick_2">
     <g id="line2d_2">
      <g>
       <use style="stroke:#000000;stroke-width:0.8;" x="86.593073" xlink:href="#m38283b8375" y="162"/>
      </g>
     </g>
     <g id="text_2">
      <!-- 1950 -->
      <g transform="translate(73.868073 176.598438)scale(0.1 -0.1)">
       <defs>
        <path d="M 691 4666 
L 3169 4666 
L 3169 4134 
L 1269 4134 
L 1269 2991 
Q 1406 3038 1543 3061 
Q 1681 3084 1819 3084 
Q 2600 3084 3056 2656 
Q 3513 2228 3513 1497 
Q 3513 744 3044 326 
Q 2575 -91 1722 -91 
Q 1428 -91 1123 -41 
Q 819 9 494 109 
L 494 744 
Q 775 591 1075 516 
Q 1375 441 1709 441 
Q 2250 441 2565 725 
Q 2881 1009 2881 1497 
Q 2881 1984 2565 2268 
Q 2250 2553 1709 2553 
Q 1456 2553 1204 2497 
Q 953 2441 691 2322 
L 691 4666 
z
" id="DejaVuSans-35" transform="scale(0.015625)"/>
       </defs>
       <use xlink:href="#DejaVuSans-31"/>
       <use x="63.623047" xlink:href="#DejaVuSans-39"/>
       <use x="127.246094" xlink:href="#DejaVuSans-35"/>
       <use x="190.869141" xlink:href="#DejaVuSans-30"/>
      </g>
     </g>
    </g>
    <g id="xtick_3">
     <g id="line2d_3">
      <g>
       <use style="stroke:#000000;stroke-width:0.8;" x="137.564246" xlink:href="#m38283b8375" y="162"/>
      </g>
     </g>
     <g id="text_3">
      <!-- 1960 -->
      <g transform="translate(124.839246 176.598438)scale(0.1 -0.1)">
       <defs>
        <path d="M 2113 2584 
Q 1688 2584 1439 2293 
Q 1191 2003 1191 1497 
Q 1191 994 1439 701 
Q 1688 409 2113 409 
Q 2538 409 2786 701 
Q 3034 994 3034 1497 
Q 3034 2003 2786 2293 
Q 2538 2584 2113 2584 
z
M 3366 4563 
L 3366 3988 
Q 3128 4100 2886 4159 
Q 2644 4219 2406 4219 
Q 1781 4219 1451 3797 
Q 1122 3375 1075 2522 
Q 1259 2794 1537 2939 
Q 1816 3084 2150 3084 
Q 2853 3084 3261 2657 
Q 3669 2231 3669 1497 
Q 3669 778 3244 343 
Q 2819 -91 2113 -91 
Q 1303 -91 875 529 
Q 447 1150 447 2328 
Q 447 3434 972 4092 
Q 1497 4750 2381 4750 
Q 2619 4750 2861 4703 
Q 3103 4656 3366 4563 
z
" id="DejaVuSans-36" transform="scale(0.015625)"/>
       </defs>
       <use xlink:href="#DejaVuSans-31"/>
       <use x="63.623047" xlink:href="#DejaVuSans-39"/>
       <use x="127.246094" xlink:href="#DejaVuSans-36"/>
       <use x="190.869141" xlink:href="#DejaVuSans-30"/>
      </g>
     </g>
    </g>
    <g id="xtick_4">
     <g id="line2d_4">
      <g>
       <use style="stroke:#000000;stroke-width:0.8;" x="188.535419" xlink:href="#m38283b8375" y="162"/>
      </g>
     </g>
     <g id="text_4">
      <!-- 1970 -->
      <g transform="translate(175.810419 176.598438)scale(0.1 -0.1)">
       <defs>
        <path d="M 525 4666 
L 3525 4666 
L 3525 4397 
L 1831 0 
L 1172 0 
L 2766 4134 
L 525 4134 
L 525 4666 
z
" id="DejaVuSans-37" transform="scale(0.015625)"/>
       </defs>
       <use xlink:href="#DejaVuSans-31"/>
       <use x="63.623047" xlink:href="#DejaVuSans-39"/>
       <use x="127.246094" xlink:href="#DejaVuSans-37"/>
       <use x="190.869141" xlink:href="#DejaVuSans-30"/>
      </g>
     </g>
    </g>
    <g id="xtick_5">
     <g id="line2d_5">
      <g>
       <use style="stroke:#000000;stroke-width:0.8;" x="239.506592" xlink:href="#m38283b8375" y="162"/>
      </g>
     </g>
     <g id="text_5">
      <!-- 1980 -->
      <g transform="translate(226.781592 176.598438)scale(0.1 -0.1)">
       <defs>
        <path d="M 2034 2216 
Q 1584 2216 1326 1975 
Q 1069 1734 1069 1313 
Q 1069 891 1326 650 
Q 1584 409 2034 409 
Q 2484 409 2743 651 
Q 3003 894 3003 1313 
Q 3003 1734 2745 1975 
Q 2488 2216 2034 2216 
z
M 1403 2484 
Q 997 2584 770 2862 
Q 544 3141 544 3541 
Q 544 4100 942 4425 
Q 1341 4750 2034 4750 
Q 2731 4750 3128 4425 
Q 3525 4100 3525 3541 
Q 3525 3141 3298 2862 
Q 3072 2584 2669 2484 
Q 3125 2378 3379 2068 
Q 3634 1759 3634 1313 
Q 3634 634 3220 271 
Q 2806 -91 2034 -91 
Q 1263 -91 848 271 
Q 434 634 434 1313 
Q 434 1759 690 2068 
Q 947 2378 1403 2484 
z
M 1172 3481 
Q 1172 3119 1398 2916 
Q 1625 2713 2034 2713 
Q 2441 2713 2670 2916 
Q 2900 3119 2900 3481 
Q 2900 3844 2670 4047 
Q 2441 4250 2034 4250 
Q 1625 4250 1398 4047 
Q 1172 3844 1172 3481 
z
" id="DejaVuSans-38" transform="scale(0.015625)"/>
       </defs>
       <use xlink:href="#DejaVuSans-31"/>
       <use x="63.623047" xlink:href="#DejaVuSans-39"/>
       <use x="127.246094" xlink:href="#DejaVuSans-38"/>
       <use x="190.869141" xlink:href="#DejaVuSans-30"/>
      </g>
     </g>
    </g>
    <g id="xtick_6">
     <g id="line2d_6">
      <g>
       <use style="stroke:#000000;stroke-width:0.8;" x="290.477765" xlink:href="#m38283b8375" y="162"/>
      </g>
     </g>
     <g id="text_6">
      <!-- 1990 -->
      <g transform="translate(277.752765 176.598438)scale(0.1 -0.1)">
       <use xlink:href="#DejaVuSans-31"/>
       <use x="63.623047" xlink:href="#DejaVuSans-39"/>
       <use x="127.246094" xlink:href="#DejaVuSans-39"/>
       <use x="190.869141" xlink:href="#DejaVuSans-30"/>
      </g>
     </g>
    </g>
    <g id="xtick_7">
     <g id="line2d_7">
      <g>
       <use style="stroke:#000000;stroke-width:0.8;" x="341.448939" xlink:href="#m38283b8375" y="162"/>
      </g>
     </g>
     <g id="text_7">
      <!-- 2000 -->
      <g transform="translate(328.723939 176.598438)scale(0.1 -0.1)">
       <defs>
        <path d="M 1228 531 
L 3431 531 
L 3431 0 
L 469 0 
L 469 531 
Q 828 903 1448 1529 
Q 2069 2156 2228 2338 
Q 2531 2678 2651 2914 
Q 2772 3150 2772 3378 
Q 2772 3750 2511 3984 
Q 2250 4219 1831 4219 
Q 1534 4219 1204 4116 
Q 875 4013 500 3803 
L 500 4441 
Q 881 4594 1212 4672 
Q 1544 4750 1819 4750 
Q 2544 4750 2975 4387 
Q 3406 4025 3406 3419 
Q 3406 3131 3298 2873 
Q 3191 2616 2906 2266 
Q 2828 2175 2409 1742 
Q 1991 1309 1228 531 
z
" id="DejaVuSans-32" transform="scale(0.015625)"/>
       </defs>
       <use xlink:href="#DejaVuSans-32"/>
       <use x="63.623047" xlink:href="#DejaVuSans-30"/>
       <use x="127.246094" xlink:href="#DejaVuSans-30"/>
       <use x="190.869141" xlink:href="#DejaVuSans-30"/>
      </g>
     </g>
    </g>
    <g id="xtick_8">
     <g id="line2d_8">
      <g>
       <use style="stroke:#000000;stroke-width:0.8;" x="392.420112" xlink:href="#m38283b8375" y="162"/>
      </g>
     </g>
     <g id="text_8">
      <!-- 2010 -->
      <g transform="translate(379.695112 176.598438)scale(0.1 -0.1)">
       <use xlink:href="#DejaVuSans-32"/>
       <use x="63.623047" xlink:href="#DejaVuSans-30"/>
       <use x="127.246094" xlink:href="#DejaVuSans-31"/>
       <use x="190.869141" xlink:href="#DejaVuSans-30"/>
      </g>
     </g>
    </g>
   </g>
   <g id="matplotlib.axis_2">
    <g id="ytick_1">
     <g id="line2d_9">
      <defs>
       <path d="M 0 0 
L -3.5 0 
" id="m7effa9be0e" style="stroke:#000000;stroke-width:0.8;"/>
      </defs>
      <g>
       <use style="stroke:#000000;stroke-width:0.8;" x="34.56" xlink:href="#m7effa9be0e" y="126.113644"/>
      </g>
     </g>
     <g id="text_9">
      <!-- −50 -->
      <g transform="translate(6.455313 129.912862)scale(0.1 -0.1)">
       <defs>
        <path d="M 678 2272 
L 4684 2272 
L 4684 1741 
L 678 1741 
L 678 2272 
z
" id="DejaVuSans-2212" transform="scale(0.015625)"/>
       </defs>
       <use xlink:href="#DejaVuSans-2212"/>
       <use x="83.789062" xlink:href="#DejaVuSans-35"/>
       <use x="147.412109" xlink:href="#DejaVuSans-30"/>
      </g>
     </g>
    </g>
    <g id="ytick_2">
     <g id="line2d_10">
      <g>
       <use style="stroke:#000000;stroke-width:0.8;" x="34.56" xlink:href="#m7effa9be0e" y="82.8"/>
      </g>
     </g>
     <g id="text_10">
      <!-- 0 -->
      <g transform="translate(21.1975 86.599219)scale(0.1 -0.1)">
       <use xlink:href="#DejaVuSans-30"/>
      </g>
     </g>
    </g>
    <g id="ytick_3">
     <g id="line2d_11">
      <g>
       <use style="stroke:#000000;stroke-width:0.8;" x="34.56" xlink:href="#m7effa9be0e" y="39.486356"/>
      </g>
     </g>
     <g id="text_11">
      <!-- 50 -->
      <g transform="translate(14.835 43.285575)scale(0.1 -0.1)">
       <use xlink:href="#DejaVuSans-35"/>
       <use x="63.623047" xlink:href="#DejaVuSans-30"/>
      </g>
     </g>
    </g>
   </g>
   <g id="line2d_12">
    <path clip-path="url(#p14073a3184)" d="M 72.78838 82.780589 
L 73.21314 83.033341 
L 73.637899 83.567543 
L 74.487419 84.00528 
L 74.912179 83.973374 
L 75.761698 83.603409 
L 76.186458 83.773433 
L 77.460737 83.398909 
L 78.310257 83.653274 
L 78.735017 83.513349 
L 80.434056 83.940259 
L 80.858816 83.728454 
L 81.283575 83.251972 
L 82.133095 82.864875 
L 82.982615 82.92252 
L 83.832134 83.008598 
L 85.106413 82.932988 
L 85.531173 82.57189 
L 86.380693 82.256909 
L 86.805453 82.179211 
L 87.654972 81.819407 
L 88.079732 81.876382 
L 88.504492 81.730372 
L 89.354011 81.876921 
L 89.778771 82.069844 
L 90.628291 82.09355 
L 91.05305 81.936293 
L 91.47781 81.958034 
L 92.32733 81.594346 
L 92.752089 81.633679 
L 93.176849 81.507033 
L 93.601609 81.555465 
L 94.451128 81.944403 
L 95.300648 81.771422 
L 95.725408 81.377254 
L 96.150168 81.400694 
L 96.574927 81.05722 
L 98.273966 80.840008 
L 99.973006 81.335637 
L 100.397765 81.570113 
L 100.822525 81.676417 
L 102.096804 81.582338 
L 102.521564 81.56427 
L 102.946324 81.304128 
L 103.371084 81.231905 
L 104.645363 82.446972 
L 105.070123 82.753951 
L 105.919642 82.923152 
L 107.193922 83.28463 
L 107.618682 83.492193 
L 108.043441 83.447038 
L 109.317721 84.449744 
L 110.16724 85.361418 
L 111.01676 86.021149 
L 111.44152 85.891553 
L 111.866279 86.025564 
L 112.291039 85.991031 
L 113.140559 85.752267 
L 114.414838 86.715052 
L 115.264358 87.120159 
L 115.689117 87.232531 
L 116.113877 87.468915 
L 116.963397 87.402099 
L 117.388156 87.63959 
L 117.812916 87.339092 
L 118.237676 87.635085 
L 119.087196 88.476487 
L 119.936715 89.265153 
L 120.361475 89.713249 
L 120.786235 89.800196 
L 122.910034 91.32811 
L 123.334793 91.380595 
L 123.759553 91.60547 
L 124.184313 91.96704 
L 124.609073 92.058908 
L 125.033832 92.396498 
L 125.458592 92.89933 
L 125.883352 93.224899 
L 126.308112 93.243598 
L 126.732872 93.56071 
L 127.157631 93.516902 
L 127.582391 93.590681 
L 130.555709 95.876066 
L 130.980469 95.671257 
L 131.405229 95.964192 
L 131.829989 96.098795 
L 132.679508 96.135613 
L 133.104268 96.131995 
L 133.529028 95.910655 
L 133.953788 96.098664 
L 134.803307 96.649804 
L 135.228067 96.476118 
L 135.652827 96.526432 
L 136.502346 94.187469 
L 136.927106 94.058775 
L 137.776626 94.082341 
L 138.201385 94.020804 
L 138.626145 94.155048 
L 139.900425 94.128837 
L 140.325184 93.966464 
L 140.749944 94.134281 
L 141.174704 93.939675 
L 141.599464 93.971826 
L 142.873743 93.558972 
L 144.148022 93.562513 
L 144.572782 93.793818 
L 145.422302 93.778412 
L 145.847061 93.551094 
L 146.696581 92.852535 
L 147.121341 92.546939 
L 148.82038 92.568538 
L 149.669899 92.473216 
L 150.094659 92.214359 
L 150.944179 92.232457 
L 152.643218 91.241475 
L 153.067978 90.749383 
L 153.492737 90.045269 
L 153.917497 89.56639 
L 154.767017 89.242683 
L 155.616536 88.697124 
L 156.890816 87.58652 
L 157.315575 87.377669 
L 158.165095 86.566635 
L 158.589855 86.392158 
L 159.439374 86.262361 
L 159.864134 85.93075 
L 161.138413 85.742849 
L 161.563173 85.302206 
L 161.987933 85.101814 
L 162.412693 85.107117 
L 163.262212 84.765108 
L 163.686972 84.883914 
L 164.536492 84.73658 
L 165.810771 84.689093 
L 166.660291 84.172732 
L 167.08505 83.584658 
L 168.35933 83.452849 
L 168.784089 83.368909 
L 169.208849 83.454575 
L 170.058369 83.188352 
L 171.332648 83.479446 
L 173.456447 83.246334 
L 174.305966 83.052447 
L 175.580246 82.647196 
L 176.854525 82.766422 
L 177.279285 83.033471 
L 177.704045 82.852973 
L 178.128804 82.869349 
L 178.978324 82.667282 
L 179.403084 82.726467 
L 179.827844 82.293582 
L 180.252603 82.261431 
L 181.102123 81.839608 
L 182.376402 81.937753 
L 184.075441 81.750455 
L 184.924961 82.116502 
L 185.349721 82.068335 
L 186.19924 81.675317 
L 186.624 81.54803 
L 187.47352 81.748602 
L 188.323039 81.618273 
L 189.172559 81.284483 
L 190.022078 81.405831 
L 190.446838 81.502331 
L 191.296358 81.451969 
L 192.570637 82.0883 
L 193.420156 82.107312 
L 193.844916 81.32482 
L 194.269676 81.404179 
L 194.694436 81.70684 
L 195.119196 81.833254 
L 196.818235 81.403818 
L 198.092514 81.888521 
L 198.517274 81.98731 
L 198.942034 82.27859 
L 199.366793 82.231933 
L 201.065832 82.706373 
L 202.340112 82.791986 
L 202.764872 82.602255 
L 203.189631 82.612826 
L 203.614391 82.24571 
L 204.039151 82.073064 
L 205.31343 81.956818 
L 205.73819 82.155836 
L 206.16295 82.174117 
L 206.587709 82.461532 
L 207.012469 82.379539 
L 207.437229 82.581888 
L 207.861989 82.558784 
L 208.286749 82.680867 
L 208.711508 82.61753 
L 209.561028 83.118326 
L 210.835307 83.290456 
L 212.109587 84.380979 
L 213.383866 85.842442 
L 215.082905 87.12495 
L 215.507665 87.172431 
L 215.932425 87.407298 
L 216.781944 88.28572 
L 217.206704 88.524941 
L 218.056223 89.701081 
L 218.905743 90.328861 
L 219.755263 91.238452 
L 220.604782 92.070798 
L 222.303821 93.678465 
L 222.728581 94.317168 
L 223.578101 95.074715 
L 224.00286 95.845286 
L 224.42762 96.048568 
L 226.126659 97.330333 
L 226.551419 97.543635 
L 227.825698 98.66933 
L 228.675218 98.808581 
L 229.524737 99.014524 
L 229.949497 99.020815 
L 230.374257 98.647899 
L 230.799017 99.200294 
L 231.223777 100.274613 
L 232.498056 100.915767 
L 232.922816 101.054415 
L 233.347575 101.027697 
L 233.772335 100.563074 
L 234.197095 101.046788 
L 234.621855 100.831955 
L 235.046615 100.805113 
L 236.745654 101.182906 
L 237.170413 101.684204 
L 237.595173 101.982342 
L 238.444693 102.844391 
L 238.869453 103.051927 
L 240.568492 103.252216 
L 240.993251 103.118084 
L 241.418011 103.228602 
L 241.842771 103.720889 
L 242.692291 104.320126 
L 243.11705 104.473463 
L 243.54181 104.38359 
L 244.39133 104.671714 
L 245.240849 105.68284 
L 246.090369 106.947873 
L 246.515128 107.573514 
L 247.364648 109.310193 
L 248.214168 111.783568 
L 249.063687 113.203369 
L 250.337966 115.836151 
L 250.762726 116.227905 
L 251.612246 116.518357 
L 252.037006 116.690103 
L 252.461765 117.12962 
L 252.886525 118.360505 
L 253.311285 119.202318 
L 253.736045 119.666892 
L 254.585564 120.009923 
L 255.010324 120.170726 
L 255.435084 120.020663 
L 255.859844 120.488781 
L 256.284603 120.776221 
L 256.709363 120.89436 
L 257.134123 121.250821 
L 258.408402 121.953069 
L 258.833162 121.401245 
L 259.257922 120.491046 
L 259.682682 119.215807 
L 260.532201 117.708697 
L 261.80648 114.983511 
L 262.23124 114.238089 
L 263.08076 109.380032 
L 263.50552 107.597833 
L 263.930279 107.812987 
L 264.355039 107.716112 
L 264.779799 107.819381 
L 265.204559 107.537189 
L 265.629318 107.455635 
L 266.478838 107.025117 
L 266.903598 106.506758 
L 267.328358 106.286667 
L 267.753117 106.314858 
L 269.027397 105.939239 
L 269.452156 105.835232 
L 269.876916 105.463281 
L 270.726436 105.064871 
L 271.575955 104.643408 
L 273.274994 103.818918 
L 273.699754 103.861728 
L 274.549274 103.608272 
L 274.974034 103.339375 
L 275.398793 103.430073 
L 275.823553 103.066375 
L 276.248313 103.009891 
L 276.673073 102.786225 
L 277.097832 102.303192 
L 277.947352 102.113663 
L 278.372112 102.212177 
L 278.796872 102.153027 
L 279.221631 102.309893 
L 280.92067 102.106021 
L 281.77019 101.719659 
L 282.619709 101.743738 
L 283.044469 102.099958 
L 283.469229 101.93406 
L 286.867307 102.227889 
L 287.292067 102.023009 
L 287.716827 101.667692 
L 288.566346 101.832053 
L 288.991106 101.744194 
L 289.840626 102.088432 
L 290.265385 102.134846 
L 290.690145 102.033816 
L 291.114905 102.292367 
L 291.539665 102.27286 
L 291.964425 102.064407 
L 292.389184 101.506338 
L 293.663464 101.542409 
L 294.088223 102.077216 
L 295.362503 102.300063 
L 296.636782 102.08297 
L 297.486302 101.640671 
L 297.911061 101.633275 
L 299.185341 100.809445 
L 299.610101 100.714215 
L 300.88438 100.925024 
L 301.733899 101.517148 
L 302.158659 101.705519 
L 302.583419 101.611428 
L 303.008179 101.386458 
L 303.432939 101.5837 
L 303.857698 101.609943 
L 304.707218 101.412378 
L 306.831017 101.92368 
L 307.680536 101.805916 
L 308.105296 101.901111 
L 308.530056 102.214169 
L 308.954816 102.051235 
L 309.804335 102.082264 
L 310.653855 102.400633 
L 311.503374 102.332169 
L 311.928134 102.826732 
L 312.352894 102.670048 
L 312.777654 102.853567 
L 313.202413 102.875955 
L 313.627173 102.46541 
L 314.051933 102.210374 
L 314.476693 102.165142 
L 314.901453 102.346841 
L 315.326212 102.323459 
L 315.750972 102.546064 
L 316.600492 102.615196 
L 317.025251 102.806822 
L 317.874771 102.847544 
L 319.14905 102.367692 
L 319.57381 102.37515 
L 320.42333 102.729668 
L 320.848089 102.923326 
L 322.122369 103.969457 
L 322.971888 104.15957 
L 323.396648 103.847155 
L 325.945207 104.127728 
L 326.369966 104.672062 
L 326.794726 104.502883 
L 328.493765 104.441655 
L 328.918525 104.222698 
L 329.343285 103.844238 
L 331.042324 104.329443 
L 331.467084 104.662278 
L 331.891844 104.564582 
L 332.316603 104.900294 
L 332.741363 104.987316 
L 333.166123 104.768372 
L 333.590883 104.946267 
L 334.440402 104.630948 
L 335.714682 104.790867 
L 336.139441 104.794729 
L 336.988961 104.997515 
L 338.688 104.721246 
L 339.11276 104.474386 
L 339.53752 104.509423 
L 339.962279 103.892029 
L 340.811799 103.530397 
L 341.661318 103.540605 
L 342.510838 103.295551 
L 342.935598 103.186008 
L 343.360358 102.888247 
L 343.785117 102.744975 
L 344.209877 102.747989 
L 345.059397 102.118512 
L 345.484156 102.03108 
L 345.908916 102.126312 
L 346.333676 102.350222 
L 347.183196 102.49766 
L 347.607955 101.935527 
L 348.032715 101.840106 
L 348.457475 101.430228 
L 348.882235 101.195024 
L 349.306994 100.752138 
L 349.731754 100.529499 
L 350.156514 100.538586 
L 350.581274 100.219599 
L 351.006034 100.174369 
L 351.430793 100.326666 
L 352.280313 100.221181 
L 352.705073 100.053439 
L 353.979352 99.055286 
L 354.828872 98.406016 
L 355.253631 98.286207 
L 355.678391 98.343838 
L 356.103151 98.277426 
L 358.651709 96.738407 
L 359.925989 95.296685 
L 360.350749 95.302622 
L 361.200268 95.075942 
L 361.625028 94.58269 
L 362.474547 94.26521 
L 364.598346 92.799266 
L 365.023106 92.123254 
L 365.872626 91.348887 
L 366.297385 91.279054 
L 366.722145 91.034201 
L 367.571665 90.869106 
L 367.996425 90.587599 
L 370.969743 87.362176 
L 371.819263 87.351146 
L 373.093542 86.814436 
L 373.943061 86.169814 
L 374.367821 85.359681 
L 374.792581 84.076719 
L 376.06686 82.918146 
L 376.49162 82.8 
L 376.49162 82.8 
" style="fill:none;stroke:#1f77b4;stroke-linecap:square;stroke-width:1.5;"/>
   </g>
   <g id="line2d_13">
    <path clip-path="url(#p14073a3184)" d="M 34.56 82.8 
L 414.72 82.8 
" style="fill:none;stroke:#000000;stroke-dasharray:1.5,2.475;stroke-dashoffset:0;stroke-width:1.5;"/>
   </g>
   <g id="patch_3">
    <path d="M 34.56 162 
L 34.56 3.6 
" style="fill:none;stroke:#000000;stroke-linecap:square;stroke-linejoin:miter;stroke-width:0.8;"/>
   </g>
   <g id="patch_4">
    <path d="M 414.72 162 
L 414.72 3.6 
" style="fill:none;stroke:#000000;stroke-linecap:square;stroke-linejoin:miter;stroke-width:0.8;"/>
   </g>
   <g id="patch_5">
    <path d="M 34.56 162 
L 414.72 162 
" style="fill:none;stroke:#000000;stroke-linecap:square;stroke-linejoin:miter;stroke-width:0.8;"/>
   </g>
   <g id="patch_6">
    <path d="M 34.56 3.6 
L 414.72 3.6 
" style="fill:none;stroke:#000000;stroke-linecap:square;stroke-linejoin:miter;stroke-width:0.8;"/>
   </g>
  </g>
 </g>
 <defs>
  <clipPath id="p14073a3184">
   <rect height="158.4" width="380.16" x="34.56" y="3.6"/>
  </clipPath>
 </defs>
</svg>
