<?xml version="1.0" encoding="utf-8" standalone="no"?>
<!DOCTYPE svg PUBLIC "-//W3C//DTD SVG 1.1//EN"
  "http://www.w3.org/Graphics/SVG/1.1/DTD/svg11.dtd">
<svg height="180pt" version="1.1" viewBox="0 0 432 180" width="432pt" xmlns="http://www.w3.org/2000/svg" xmlns:xlink="http://www.w3.org/1999/xlink">
 <metadata>
  <rdf:RDF xmlns:cc="http://creativecommons.org/ns#" xmlns:dc="http://purl.org/dc/elements/1.1/" xmlns:rdf="http://www.w3.org/1999/02/22-rdf-syntax-ns#">
   <cc:Work>
    <dc:type rdf:resource="http://purl.org/dc/dcmitype/StillImage"/>
    <dc:date>2021-08-12T10:41:46.806003</dc:date>
    <dc:format>image/svg+xml</dc:format>
    <dc:creator>
     <cc:Agent>
      <dc:title>Matplotlib v3.4.2, https://matplotlib.org/</dc:title>
     </cc:Agent>
    </dc:creator>
   </cc:Work>
  </rdf:RDF>
 </metadata>
 <defs>
  <style type="text/css">*{stroke-linecap:butt;stroke-linejoin:round;}</style>
 </defs>
 <g id="figure_1">
  <g id="patch_1">
   <path d="M 0 180 
L 432 180 
L 432 0 
L 0 0 
z
" style="fill:#ffffff;"/>
  </g>
  <g id="axes_1">
   <g id="patch_2">
    <path d="M 34.56 162 
L 414.72 162 
L 414.72 3.6 
L 34.56 3.6 
z
" style="fill:#ffffff;"/>
   </g>
   <g id="PolyCollection_1">
    <path clip-path="url(#p3a0d8f6a72)" d="M 67.745645 82.428888 
L 67.745645 83.171112 
L 68.114374 83.540853 
L 68.483104 83.909682 
L 68.851833 84.277597 
L 69.220563 84.644599 
L 69.589292 85.010689 
L 69.958021 85.375865 
L 70.326751 85.740129 
L 70.69548 86.103479 
L 71.06421 86.465917 
L 71.432939 86.827442 
L 71.801668 87.188053 
L 72.170398 87.547752 
L 72.539127 87.906538 
L 72.907856 88.264411 
L 73.276586 88.621371 
L 73.645315 88.977418 
L 74.014045 89.332552 
L 74.382774 89.686773 
L 74.751503 90.040082 
L 75.120233 90.392477 
L 75.488962 90.743959 
L 75.857692 91.094529 
L 76.226421 91.444185 
L 76.59515 91.792929 
L 76.96388 92.140759 
L 77.332609 92.487677 
L 77.701339 92.833682 
L 78.070068 93.178774 
L 78.438797 93.522952 
L 78.807527 93.866218 
L 79.176256 94.208571 
L 79.544985 94.550011 
L 79.913715 94.890538 
L 80.282444 95.230152 
L 80.651174 95.568854 
L 81.019903 95.906642 
L 81.388632 96.243517 
L 81.757362 96.579479 
L 82.126091 96.914529 
L 82.494821 97.248665 
L 82.86355 97.581889 
L 83.232279 97.914199 
L 83.601009 98.245597 
L 83.969738 98.576082 
L 84.338468 98.905654 
L 84.707197 99.234312 
L 85.075926 99.562058 
L 85.444656 99.888891 
L 85.813385 100.214811 
L 86.182114 100.539818 
L 86.550844 100.863912 
L 86.919573 101.187094 
L 87.288303 101.509362 
L 87.657032 101.830717 
L 88.025761 102.151159 
L 88.394491 102.470689 
L 88.76322 102.789305 
L 89.13195 103.107009 
L 89.500679 103.423799 
L 89.869408 103.739677 
L 90.238138 104.054642 
L 90.606867 104.368694 
L 90.975597 104.681832 
L 91.344326 104.994058 
L 91.713055 105.305371 
L 92.081785 105.615771 
L 92.450514 105.925258 
L 92.819243 106.233832 
L 93.187973 106.541494 
L 93.556702 106.848242 
L 93.925432 107.154077 
L 94.294161 107.458999 
L 94.66289 107.763009 
L 95.03162 108.066105 
L 95.400349 108.368289 
L 95.769079 108.669559 
L 96.137808 108.969917 
L 96.506537 109.269362 
L 96.875267 109.567894 
L 97.243996 109.865512 
L 97.612726 110.162218 
L 97.981455 110.458011 
L 98.350184 110.752891 
L 98.718914 111.046858 
L 99.087643 111.339912 
L 99.456372 111.632054 
L 99.825102 111.923282 
L 100.193831 112.213597 
L 100.562561 112.502999 
L 100.93129 112.791489 
L 101.300019 113.079065 
L 101.668749 113.365729 
L 102.037478 113.651479 
L 102.406208 113.936317 
L 102.774937 114.220242 
L 103.143666 114.503254 
L 103.512396 114.785352 
L 103.881125 115.066538 
L 104.249855 115.346811 
L 104.618584 115.626171 
L 104.987313 115.904618 
L 105.356043 116.182152 
L 105.724772 116.458774 
L 106.093501 116.734482 
L 106.462231 117.009277 
L 106.83096 117.283159 
L 107.19969 117.556129 
L 107.19969 48.043871 
L 107.19969 48.043871 
L 106.83096 48.316841 
L 106.462231 48.590723 
L 106.093501 48.865518 
L 105.724772 49.141226 
L 105.356043 49.417848 
L 104.987313 49.695382 
L 104.618584 49.973829 
L 104.249855 50.253189 
L 103.881125 50.533462 
L 103.512396 50.814648 
L 103.143666 51.096746 
L 102.774937 51.379758 
L 102.406208 51.663683 
L 102.037478 51.948521 
L 101.668749 52.234271 
L 101.300019 52.520935 
L 100.93129 52.808511 
L 100.562561 53.097001 
L 100.193831 53.386403 
L 99.825102 53.676718 
L 99.456372 53.967946 
L 99.087643 54.260088 
L 98.718914 54.553142 
L 98.350184 54.847109 
L 97.981455 55.141989 
L 97.612726 55.437782 
L 97.243996 55.734488 
L 96.875267 56.032106 
L 96.506537 56.330638 
L 96.137808 56.630083 
L 95.769079 56.930441 
L 95.400349 57.231711 
L 95.03162 57.533895 
L 94.66289 57.836991 
L 94.294161 58.141001 
L 93.925432 58.445923 
L 93.556702 58.751758 
L 93.187973 59.058506 
L 92.819243 59.366168 
L 92.450514 59.674742 
L 92.081785 59.984229 
L 91.713055 60.294629 
L 91.344326 60.605942 
L 90.975597 60.918168 
L 90.606867 61.231306 
L 90.238138 61.545358 
L 89.869408 61.860323 
L 89.500679 62.176201 
L 89.13195 62.492991 
L 88.76322 62.810695 
L 88.394491 63.129311 
L 88.025761 63.448841 
L 87.657032 63.769283 
L 87.288303 64.090638 
L 86.919573 64.412906 
L 86.550844 64.736088 
L 86.182114 65.060182 
L 85.813385 65.385189 
L 85.444656 65.711109 
L 85.075926 66.037942 
L 84.707197 66.365688 
L 84.338468 66.694346 
L 83.969738 67.023918 
L 83.601009 67.354403 
L 83.232279 67.685801 
L 82.86355 68.018111 
L 82.494821 68.351335 
L 82.126091 68.685471 
L 81.757362 69.020521 
L 81.388632 69.356483 
L 81.019903 69.693358 
L 80.651174 70.031146 
L 80.282444 70.369848 
L 79.913715 70.709462 
L 79.544985 71.049989 
L 79.176256 71.391429 
L 78.807527 71.733782 
L 78.438797 72.077048 
L 78.070068 72.421226 
L 77.701339 72.766318 
L 77.332609 73.112323 
L 76.96388 73.459241 
L 76.59515 73.807071 
L 76.226421 74.155815 
L 75.857692 74.505471 
L 75.488962 74.856041 
L 75.120233 75.207523 
L 74.751503 75.559918 
L 74.382774 75.913227 
L 74.014045 76.267448 
L 73.645315 76.622582 
L 73.276586 76.978629 
L 72.907856 77.335589 
L 72.539127 77.693462 
L 72.170398 78.052248 
L 71.801668 78.411947 
L 71.432939 78.772558 
L 71.06421 79.134083 
L 70.69548 79.496521 
L 70.326751 79.859871 
L 69.958021 80.224135 
L 69.589292 80.589311 
L 69.220563 80.955401 
L 68.851833 81.322403 
L 68.483104 81.690318 
L 68.114374 82.059147 
L 67.745645 82.428888 
z
" style="fill:#0000ff;fill-opacity:0.1;stroke:#0000ff;stroke-opacity:0.1;"/>
    <path clip-path="url(#p3a0d8f6a72)" d="M 122.317595 47.771815 
L 122.317595 117.828185 
L 122.686324 118.099329 
L 123.055053 118.369559 
L 123.423783 118.638877 
L 123.792512 118.907282 
L 124.161242 119.174774 
L 124.529971 119.441352 
L 124.8987 119.707018 
L 125.26743 119.971771 
L 125.636159 120.235611 
L 126.004888 120.498538 
L 126.373618 120.760552 
L 126.742347 121.021654 
L 127.111077 121.281842 
L 127.479806 121.541117 
L 127.848535 121.79948 
L 128.217265 122.056929 
L 128.585994 122.313465 
L 128.954724 122.569089 
L 129.323453 122.8238 
L 129.692182 123.077597 
L 130.060912 123.330482 
L 130.429641 123.582454 
L 130.798371 123.833512 
L 131.1671 124.083658 
L 131.535829 124.332891 
L 131.904559 124.581211 
L 132.273288 124.828618 
L 132.642017 125.075112 
L 133.010747 125.320694 
L 133.379476 125.565362 
L 133.748206 125.809117 
L 134.116935 126.05196 
L 134.485664 126.293889 
L 134.854394 126.534905 
L 135.223123 126.775009 
L 135.591853 127.0142 
L 135.960582 127.252477 
L 136.329311 127.489842 
L 136.698041 127.726294 
L 137.06677 127.961832 
L 137.4355 128.196458 
L 137.804229 128.430171 
L 138.172958 128.662971 
L 138.541688 128.894858 
L 138.910417 129.125832 
L 139.279146 129.355894 
L 139.647876 129.585042 
L 140.016605 129.813277 
L 140.385335 130.0406 
L 140.754064 130.267009 
L 141.122793 130.492505 
L 141.491523 130.717089 
L 141.860252 130.94076 
L 142.228982 131.163517 
L 142.597711 131.385362 
L 142.96644 131.606294 
L 143.33517 131.826312 
L 143.703899 132.045418 
L 144.072629 132.263611 
L 144.441358 132.480891 
L 144.810087 132.697258 
L 145.178817 132.912712 
L 145.547546 133.127254 
L 145.916275 133.340882 
L 146.285005 133.553597 
L 146.653734 133.7654 
L 147.022464 133.976289 
L 147.391193 134.186265 
L 147.759922 134.395329 
L 148.128652 134.60348 
L 148.497381 134.810717 
L 148.866111 135.017042 
L 149.23484 135.222454 
L 149.603569 135.426953 
L 149.972299 135.630538 
L 150.341028 135.833211 
L 150.709758 136.034971 
L 151.078487 136.235818 
L 151.447216 136.435753 
L 151.815946 136.634774 
L 152.184675 136.832882 
L 152.553404 137.030077 
L 152.922134 137.22636 
L 153.290863 137.421729 
L 153.659593 137.616185 
L 154.028322 137.809729 
L 154.397051 138.00236 
L 154.765781 138.194077 
L 155.13451 138.384882 
L 155.50324 138.574774 
L 155.871969 138.763753 
L 156.240698 138.951818 
L 156.609428 139.138971 
L 156.978157 139.325211 
L 157.346887 139.510538 
L 157.715616 139.694953 
L 158.084345 139.878454 
L 158.453075 140.061042 
L 158.821804 140.242717 
L 159.190533 140.42348 
L 159.559263 140.603329 
L 159.927992 140.782265 
L 160.296722 140.960289 
L 160.665451 141.1374 
L 161.03418 141.313597 
L 161.40291 141.488882 
L 161.771639 141.663254 
L 162.140369 141.836713 
L 162.509098 142.009258 
L 162.877827 142.180891 
L 163.246557 142.351611 
L 163.615286 142.521418 
L 163.984016 142.690313 
L 164.352745 142.858294 
L 164.721474 143.025362 
L 165.090204 143.191517 
L 165.458933 143.35676 
L 165.827662 143.521089 
L 166.196392 143.684505 
L 166.565121 143.847009 
L 166.933851 144.0086 
L 167.30258 144.169277 
L 167.671309 144.329042 
L 168.040039 144.487894 
L 168.408768 144.645833 
L 168.777498 144.802858 
L 169.146227 144.958971 
L 169.514956 145.114171 
L 169.883686 145.268458 
L 170.252415 145.421833 
L 170.621145 145.574294 
L 170.989874 145.725842 
L 171.358603 145.876477 
L 171.727333 146.0262 
L 172.096062 146.175009 
L 172.464791 146.322905 
L 172.833521 146.469889 
L 173.20225 146.61596 
L 173.57098 146.761117 
L 173.939709 146.905362 
L 174.308438 147.048694 
L 174.677168 147.191113 
L 175.045897 147.332618 
L 175.414627 147.473211 
L 175.783356 147.612891 
L 176.152085 147.751658 
L 176.520815 147.889513 
L 176.889544 148.026454 
L 177.258274 148.162482 
L 177.627003 148.297597 
L 177.995732 148.4318 
L 178.364462 148.565089 
L 178.733191 148.697466 
L 179.10192 148.828929 
L 179.47065 148.95948 
L 179.839379 149.089117 
L 180.208109 149.217842 
L 180.576838 149.345654 
L 180.945567 149.472553 
L 181.314297 149.598538 
L 181.683026 149.723611 
L 182.051756 149.847771 
L 182.420485 149.971018 
L 182.789214 150.093353 
L 183.157944 150.214774 
L 183.526673 150.335282 
L 183.895403 150.454877 
L 184.264132 150.57356 
L 184.632861 150.691329 
L 185.001591 150.808186 
L 185.37032 150.924129 
L 185.739049 151.03916 
L 186.107779 151.153277 
L 186.476508 151.266482 
L 186.845238 151.378774 
L 187.213967 151.490153 
L 187.582696 151.600618 
L 187.951426 151.710171 
L 188.320155 151.818811 
L 188.688885 151.926538 
L 189.057614 152.033353 
L 189.426343 152.139254 
L 189.795073 152.244242 
L 190.163802 152.348317 
L 190.532532 152.45148 
L 190.901261 152.553729 
L 191.26999 152.655066 
L 191.63872 152.755489 
L 192.007449 152.855 
L 192.376178 152.953597 
L 192.744908 153.051282 
L 193.113637 153.148054 
L 193.482367 153.243913 
L 193.851096 153.338858 
L 194.219825 153.432891 
L 194.588555 153.526011 
L 194.957284 153.618218 
L 195.326014 153.709513 
L 195.694743 153.799894 
L 196.063472 153.889362 
L 196.432202 153.977917 
L 196.800931 154.06556 
L 197.169661 154.152289 
L 197.53839 154.238106 
L 197.907119 154.323009 
L 198.275849 154.407 
L 198.644578 154.490077 
L 199.013307 154.572242 
L 199.382037 154.653494 
L 199.750766 154.733833 
L 200.119496 154.813258 
L 200.488225 154.891771 
L 200.856954 154.969371 
L 201.225684 155.046058 
L 201.594413 155.121833 
L 201.963143 155.196694 
L 202.331872 155.270642 
L 202.700601 155.343677 
L 203.069331 155.4158 
L 203.43806 155.487009 
L 203.80679 155.557306 
L 204.175519 155.626689 
L 204.544248 155.69516 
L 204.912978 155.762717 
L 205.281707 155.829362 
L 205.650436 155.895094 
L 206.019166 155.959913 
L 206.387895 156.023818 
L 206.756625 156.086811 
L 207.125354 156.148891 
L 207.494083 156.210058 
L 207.862813 156.270313 
L 208.231542 156.329654 
L 208.600272 156.388082 
L 208.969001 156.445597 
L 209.33773 156.5022 
L 209.70646 156.557889 
L 210.075189 156.612666 
L 210.443919 156.666529 
L 210.812648 156.71948 
L 211.181377 156.771517 
L 211.550107 156.822642 
L 211.918836 156.872854 
L 212.287565 156.922153 
L 212.656295 156.970538 
L 213.025024 157.018011 
L 213.393754 157.064571 
L 213.762483 157.110218 
L 214.131212 157.154953 
L 214.499942 157.198774 
L 214.868671 157.241682 
L 215.237401 157.283677 
L 215.60613 157.32476 
L 215.974859 157.364929 
L 216.343589 157.404186 
L 216.712318 157.442529 
L 217.081048 157.47996 
L 217.449777 157.516477 
L 217.818506 157.552082 
L 218.187236 157.586774 
L 218.555965 157.620553 
L 218.924694 157.653418 
L 219.293424 157.685371 
L 219.662153 157.716411 
L 220.030883 157.746538 
L 220.399612 157.775753 
L 220.768341 157.804054 
L 221.137071 157.831442 
L 221.5058 157.857917 
L 221.87453 157.88348 
L 222.243259 157.908129 
L 222.611988 157.931866 
L 222.980718 157.954689 
L 223.349447 157.9766 
L 223.718177 157.997597 
L 224.086906 158.017682 
L 224.455635 158.036854 
L 224.824365 158.055113 
L 225.193094 158.072458 
L 225.561823 158.088891 
L 225.930553 158.104411 
L 226.299282 158.119018 
L 226.668012 158.132713 
L 227.036741 158.145494 
L 227.40547 158.157362 
L 227.7742 158.168317 
L 228.142929 158.17836 
L 228.511659 158.187489 
L 228.880388 158.195706 
L 229.249117 158.203009 
L 229.617847 158.2094 
L 229.986576 158.214877 
L 230.355306 158.219442 
L 230.724035 158.223094 
L 231.092764 158.225833 
L 231.461494 158.227658 
L 231.830223 158.228571 
L 232.198952 158.228571 
L 232.567682 158.227658 
L 232.936411 158.225833 
L 233.305141 158.223094 
L 233.67387 158.219442 
L 234.042599 158.214877 
L 234.411329 158.2094 
L 234.780058 158.203009 
L 235.148788 158.195706 
L 235.517517 158.187489 
L 235.886246 158.17836 
L 236.254976 158.168317 
L 236.623705 158.157362 
L 236.992435 158.145494 
L 237.361164 158.132713 
L 237.729893 158.119018 
L 238.098623 158.104411 
L 238.467352 158.088891 
L 238.836081 158.072458 
L 239.204811 158.055113 
L 239.57354 158.036854 
L 239.94227 158.017682 
L 240.310999 157.997597 
L 240.679728 157.9766 
L 241.048458 157.954689 
L 241.417187 157.931866 
L 241.785917 157.908129 
L 242.154646 157.88348 
L 242.523375 157.857917 
L 242.892105 157.831442 
L 243.260834 157.804054 
L 243.629564 157.775753 
L 243.998293 157.746538 
L 244.367022 157.716411 
L 244.735752 157.685371 
L 245.104481 157.653418 
L 245.47321 157.620553 
L 245.84194 157.586774 
L 246.210669 157.552082 
L 246.579399 157.516477 
L 246.948128 157.47996 
L 247.316857 157.442529 
L 247.685587 157.404186 
L 248.054316 157.364929 
L 248.423046 157.32476 
L 248.791775 157.283677 
L 249.160504 157.241682 
L 249.529234 157.198774 
L 249.897963 157.154953 
L 250.266693 157.110218 
L 250.635422 157.064571 
L 251.004151 157.018011 
L 251.372881 156.970538 
L 251.74161 156.922153 
L 252.110339 156.872854 
L 252.479069 156.822642 
L 252.847798 156.771517 
L 253.216528 156.71948 
L 253.585257 156.666529 
L 253.953986 156.612666 
L 254.322716 156.557889 
L 254.691445 156.5022 
L 255.060175 156.445597 
L 255.428904 156.388082 
L 255.797633 156.329654 
L 256.166363 156.270313 
L 256.535092 156.210058 
L 256.903822 156.148891 
L 257.272551 156.086811 
L 257.64128 156.023818 
L 258.01001 155.959913 
L 258.378739 155.895094 
L 258.747468 155.829362 
L 259.116198 155.762717 
L 259.484927 155.69516 
L 259.853657 155.626689 
L 260.222386 155.557306 
L 260.591115 155.487009 
L 260.959845 155.4158 
L 261.328574 155.343677 
L 261.697304 155.270642 
L 262.066033 155.196694 
L 262.434762 155.121833 
L 262.803492 155.046058 
L 263.172221 154.969371 
L 263.540951 154.891771 
L 263.90968 154.813258 
L 264.278409 154.733833 
L 264.647139 154.653494 
L 265.015868 154.572242 
L 265.384597 154.490077 
L 265.753327 154.407 
L 266.122056 154.323009 
L 266.490786 154.238106 
L 266.859515 154.152289 
L 267.228244 154.06556 
L 267.596974 153.977917 
L 267.965703 153.889362 
L 268.334433 153.799894 
L 268.703162 153.709513 
L 269.071891 153.618218 
L 269.440621 153.526011 
L 269.80935 153.432891 
L 270.17808 153.338858 
L 270.546809 153.243913 
L 270.915538 153.148054 
L 271.284268 153.051282 
L 271.652997 152.953597 
L 272.021726 152.855 
L 272.390456 152.755489 
L 272.759185 152.655066 
L 273.127915 152.553729 
L 273.496644 152.45148 
L 273.865373 152.348317 
L 274.234103 152.244242 
L 274.602832 152.139254 
L 274.971562 152.033353 
L 275.340291 151.926538 
L 275.70902 151.818811 
L 276.07775 151.710171 
L 276.446479 151.600618 
L 276.815209 151.490153 
L 277.183938 151.378774 
L 277.552667 151.266482 
L 277.921397 151.153277 
L 278.290126 151.03916 
L 278.658855 150.924129 
L 279.027585 150.808186 
L 279.396314 150.691329 
L 279.765044 150.57356 
L 280.133773 150.454877 
L 280.502502 150.335282 
L 280.871232 150.214774 
L 281.239961 150.093353 
L 281.608691 149.971018 
L 281.97742 149.847771 
L 282.346149 149.723611 
L 282.714879 149.598538 
L 283.083608 149.472553 
L 283.452338 149.345654 
L 283.821067 149.217842 
L 284.189796 149.089117 
L 284.558526 148.95948 
L 284.927255 148.828929 
L 285.295984 148.697466 
L 285.664714 148.565089 
L 286.033443 148.4318 
L 286.402173 148.297597 
L 286.770902 148.162482 
L 287.139631 148.026454 
L 287.508361 147.889513 
L 287.87709 147.751658 
L 288.24582 147.612891 
L 288.614549 147.473211 
L 288.983278 147.332618 
L 289.352008 147.191113 
L 289.720737 147.048694 
L 290.089467 146.905362 
L 290.458196 146.761117 
L 290.826925 146.61596 
L 291.195655 146.469889 
L 291.564384 146.322905 
L 291.933113 146.175009 
L 292.301843 146.0262 
L 292.670572 145.876477 
L 293.039302 145.725842 
L 293.408031 145.574294 
L 293.77676 145.421833 
L 294.14549 145.268458 
L 294.514219 145.114171 
L 294.882949 144.958971 
L 295.251678 144.802858 
L 295.620407 144.645833 
L 295.989137 144.487894 
L 296.357866 144.329042 
L 296.726596 144.169277 
L 297.095325 144.0086 
L 297.464054 143.847009 
L 297.832784 143.684505 
L 298.201513 143.521089 
L 298.570242 143.35676 
L 298.938972 143.191517 
L 299.307701 143.025362 
L 299.676431 142.858294 
L 300.04516 142.690313 
L 300.413889 142.521418 
L 300.782619 142.351611 
L 301.151348 142.180891 
L 301.520078 142.009258 
L 301.888807 141.836713 
L 302.257536 141.663254 
L 302.626266 141.488882 
L 302.994995 141.313597 
L 303.363725 141.1374 
L 303.732454 140.960289 
L 304.101183 140.782265 
L 304.469913 140.603329 
L 304.838642 140.42348 
L 305.207371 140.242717 
L 305.576101 140.061042 
L 305.94483 139.878454 
L 306.31356 139.694953 
L 306.682289 139.510538 
L 307.051018 139.325211 
L 307.419748 139.138971 
L 307.788477 138.951818 
L 308.157207 138.763753 
L 308.525936 138.574774 
L 308.894665 138.384882 
L 309.263395 138.194077 
L 309.632124 138.00236 
L 310.000854 137.809729 
L 310.369583 137.616185 
L 310.738312 137.421729 
L 311.107042 137.22636 
L 311.475771 137.030077 
L 311.8445 136.832882 
L 312.21323 136.634774 
L 312.581959 136.435753 
L 312.950689 136.235818 
L 313.319418 136.034971 
L 313.688147 135.833211 
L 314.056877 135.630538 
L 314.425606 135.426953 
L 314.794336 135.222454 
L 315.163065 135.017042 
L 315.531794 134.810717 
L 315.900524 134.60348 
L 316.269253 134.395329 
L 316.637983 134.186265 
L 317.006712 133.976289 
L 317.375441 133.7654 
L 317.744171 133.553597 
L 318.1129 133.340882 
L 318.481629 133.127254 
L 318.850359 132.912712 
L 319.219088 132.697258 
L 319.587818 132.480891 
L 319.956547 132.263611 
L 320.325276 132.045418 
L 320.694006 131.826312 
L 321.062735 131.606294 
L 321.431465 131.385362 
L 321.800194 131.163517 
L 322.168923 130.94076 
L 322.537653 130.717089 
L 322.906382 130.492505 
L 323.275112 130.267009 
L 323.643841 130.0406 
L 324.01257 129.813277 
L 324.3813 129.585042 
L 324.750029 129.355894 
L 325.118758 129.125832 
L 325.487488 128.894858 
L 325.856217 128.662971 
L 326.224947 128.430171 
L 326.593676 128.196458 
L 326.962405 127.961832 
L 327.331135 127.726294 
L 327.699864 127.489842 
L 328.068594 127.252477 
L 328.437323 127.0142 
L 328.806052 126.775009 
L 329.174782 126.534905 
L 329.543511 126.293889 
L 329.912241 126.05196 
L 330.28097 125.809117 
L 330.649699 125.565362 
L 331.018429 125.320694 
L 331.387158 125.075112 
L 331.755887 124.828618 
L 332.124617 124.581211 
L 332.493346 124.332891 
L 332.862076 124.083658 
L 333.230805 123.833512 
L 333.599534 123.582454 
L 333.968264 123.330482 
L 334.336993 123.077597 
L 334.705723 122.8238 
L 335.074452 122.569089 
L 335.443181 122.313465 
L 335.811911 122.056929 
L 336.18064 121.79948 
L 336.54937 121.541117 
L 336.918099 121.281842 
L 337.286828 121.021654 
L 337.655558 120.760552 
L 338.024287 120.498538 
L 338.393016 120.235611 
L 338.761746 119.971771 
L 339.130475 119.707018 
L 339.499205 119.441352 
L 339.867934 119.174774 
L 340.236663 118.907282 
L 340.605393 118.638877 
L 340.974122 118.369559 
L 341.342852 118.099329 
L 341.711581 117.828185 
L 342.08031 117.556129 
L 342.44904 117.283159 
L 342.817769 117.009277 
L 343.186499 116.734482 
L 343.555228 116.458774 
L 343.923957 116.182152 
L 344.292687 115.904618 
L 344.661416 115.626171 
L 345.030145 115.346811 
L 345.398875 115.066538 
L 345.767604 114.785352 
L 346.136334 114.503254 
L 346.505063 114.220242 
L 346.873792 113.936317 
L 347.242522 113.651479 
L 347.611251 113.365729 
L 347.979981 113.079065 
L 348.34871 112.791489 
L 348.717439 112.502999 
L 349.086169 112.213597 
L 349.454898 111.923282 
L 349.823628 111.632054 
L 350.192357 111.339912 
L 350.561086 111.046858 
L 350.929816 110.752891 
L 351.298545 110.458011 
L 351.667274 110.162218 
L 352.036004 109.865512 
L 352.404733 109.567894 
L 352.773463 109.269362 
L 353.142192 108.969917 
L 353.510921 108.669559 
L 353.879651 108.368289 
L 354.24838 108.066105 
L 354.61711 107.763009 
L 354.985839 107.458999 
L 355.354568 107.154077 
L 355.723298 106.848242 
L 356.092027 106.541494 
L 356.460757 106.233832 
L 356.829486 105.925258 
L 357.198215 105.615771 
L 357.566945 105.305371 
L 357.935674 104.994058 
L 358.304403 104.681832 
L 358.673133 104.368694 
L 359.041862 104.054642 
L 359.410592 103.739677 
L 359.779321 103.423799 
L 360.14805 103.107009 
L 360.51678 102.789305 
L 360.885509 102.470689 
L 361.254239 102.151159 
L 361.622968 101.830717 
L 361.991697 101.509362 
L 362.360427 101.187094 
L 362.729156 100.863912 
L 363.097886 100.539818 
L 363.466615 100.214811 
L 363.835344 99.888891 
L 364.204074 99.562058 
L 364.572803 99.234312 
L 364.941532 98.905654 
L 365.310262 98.576082 
L 365.678991 98.245597 
L 366.047721 97.914199 
L 366.41645 97.581889 
L 366.785179 97.248665 
L 367.153909 96.914529 
L 367.522638 96.579479 
L 367.891368 96.243517 
L 368.260097 95.906642 
L 368.628826 95.568854 
L 368.997556 95.230152 
L 369.366285 94.890538 
L 369.735015 94.550011 
L 370.103744 94.208571 
L 370.472473 93.866218 
L 370.841203 93.522952 
L 371.209932 93.178774 
L 371.578661 92.833682 
L 371.947391 92.487677 
L 372.31612 92.140759 
L 372.68485 91.792929 
L 373.053579 91.444185 
L 373.422308 91.094529 
L 373.791038 90.743959 
L 374.159767 90.392477 
L 374.528497 90.040082 
L 374.897226 89.686773 
L 375.265955 89.332552 
L 375.634685 88.977418 
L 376.003414 88.621371 
L 376.372144 88.264411 
L 376.740873 87.906538 
L 377.109602 87.547752 
L 377.478332 87.188053 
L 377.847061 86.827442 
L 378.21579 86.465917 
L 378.58452 86.103479 
L 378.953249 85.740129 
L 379.321979 85.375865 
L 379.690708 85.010689 
L 380.059437 84.644599 
L 380.428167 84.277597 
L 380.796896 83.909682 
L 381.165626 83.540853 
L 381.534355 83.171112 
L 381.534355 82.428888 
L 381.534355 82.428888 
L 381.165626 82.059147 
L 380.796896 81.690318 
L 380.428167 81.322403 
L 380.059437 80.955401 
L 379.690708 80.589311 
L 379.321979 80.224135 
L 378.953249 79.859871 
L 378.58452 79.496521 
L 378.21579 79.134083 
L 377.847061 78.772558 
L 377.478332 78.411947 
L 377.109602 78.052248 
L 376.740873 77.693462 
L 376.372144 77.335589 
L 376.003414 76.978629 
L 375.634685 76.622582 
L 375.265955 76.267448 
L 374.897226 75.913227 
L 374.528497 75.559918 
L 374.159767 75.207523 
L 373.791038 74.856041 
L 373.422308 74.505471 
L 373.053579 74.155815 
L 372.68485 73.807071 
L 372.31612 73.459241 
L 371.947391 73.112323 
L 371.578661 72.766318 
L 371.209932 72.421226 
L 370.841203 72.077048 
L 370.472473 71.733782 
L 370.103744 71.391429 
L 369.735015 71.049989 
L 369.366285 70.709462 
L 368.997556 70.369848 
L 368.628826 70.031146 
L 368.260097 69.693358 
L 367.891368 69.356483 
L 367.522638 69.020521 
L 367.153909 68.685471 
L 366.785179 68.351335 
L 366.41645 68.018111 
L 366.047721 67.685801 
L 365.678991 67.354403 
L 365.310262 67.023918 
L 364.941532 66.694346 
L 364.572803 66.365688 
L 364.204074 66.037942 
L 363.835344 65.711109 
L 363.466615 65.385189 
L 363.097886 65.060182 
L 362.729156 64.736088 
L 362.360427 64.412906 
L 361.991697 64.090638 
L 361.622968 63.769283 
L 361.254239 63.448841 
L 360.885509 63.129311 
L 360.51678 62.810695 
L 360.14805 62.492991 
L 359.779321 62.176201 
L 359.410592 61.860323 
L 359.041862 61.545358 
L 358.673133 61.231306 
L 358.304403 60.918168 
L 357.935674 60.605942 
L 357.566945 60.294629 
L 357.198215 59.984229 
L 356.829486 59.674742 
L 356.460757 59.366168 
L 356.092027 59.058506 
L 355.723298 58.751758 
L 355.354568 58.445923 
L 354.985839 58.141001 
L 354.61711 57.836991 
L 354.24838 57.533895 
L 353.879651 57.231711 
L 353.510921 56.930441 
L 353.142192 56.630083 
L 352.773463 56.330638 
L 352.404733 56.032106 
L 352.036004 55.734488 
L 351.667274 55.437782 
L 351.298545 55.141989 
L 350.929816 54.847109 
L 350.561086 54.553142 
L 350.192357 54.260088 
L 349.823628 53.967946 
L 349.454898 53.676718 
L 349.086169 53.386403 
L 348.717439 53.097001 
L 348.34871 52.808511 
L 347.979981 52.520935 
L 347.611251 52.234271 
L 347.242522 51.948521 
L 346.873792 51.663683 
L 346.505063 51.379758 
L 346.136334 51.096746 
L 345.767604 50.814648 
L 345.398875 50.533462 
L 345.030145 50.253189 
L 344.661416 49.973829 
L 344.292687 49.695382 
L 343.923957 49.417848 
L 343.555228 49.141226 
L 343.186499 48.865518 
L 342.817769 48.590723 
L 342.44904 48.316841 
L 342.08031 48.043871 
L 341.711581 47.771815 
L 341.342852 47.500671 
L 340.974122 47.230441 
L 340.605393 46.961123 
L 340.236663 46.692718 
L 339.867934 46.425226 
L 339.499205 46.158648 
L 339.130475 45.892982 
L 338.761746 45.628229 
L 338.393016 45.364389 
L 338.024287 45.101462 
L 337.655558 44.839448 
L 337.286828 44.578346 
L 336.918099 44.318158 
L 336.54937 44.058883 
L 336.18064 43.80052 
L 335.811911 43.543071 
L 335.443181 43.286535 
L 335.074452 43.030911 
L 334.705723 42.7762 
L 334.336993 42.522403 
L 333.968264 42.269518 
L 333.599534 42.017546 
L 333.230805 41.766488 
L 332.862076 41.516342 
L 332.493346 41.267109 
L 332.124617 41.018789 
L 331.755887 40.771382 
L 331.387158 40.524888 
L 331.018429 40.279306 
L 330.649699 40.034638 
L 330.28097 39.790883 
L 329.912241 39.54804 
L 329.543511 39.306111 
L 329.174782 39.065095 
L 328.806052 38.824991 
L 328.437323 38.5858 
L 328.068594 38.347523 
L 327.699864 38.110158 
L 327.331135 37.873706 
L 326.962405 37.638168 
L 326.593676 37.403542 
L 326.224947 37.169829 
L 325.856217 36.937029 
L 325.487488 36.705142 
L 325.118758 36.474168 
L 324.750029 36.244106 
L 324.3813 36.014958 
L 324.01257 35.786723 
L 323.643841 35.5594 
L 323.275112 35.332991 
L 322.906382 35.107495 
L 322.537653 34.882911 
L 322.168923 34.65924 
L 321.800194 34.436483 
L 321.431465 34.214638 
L 321.062735 33.993706 
L 320.694006 33.773688 
L 320.325276 33.554582 
L 319.956547 33.336389 
L 319.587818 33.119109 
L 319.219088 32.902742 
L 318.850359 32.687288 
L 318.481629 32.472746 
L 318.1129 32.259118 
L 317.744171 32.046403 
L 317.375441 31.8346 
L 317.006712 31.623711 
L 316.637983 31.413735 
L 316.269253 31.204671 
L 315.900524 30.99652 
L 315.531794 30.789283 
L 315.163065 30.582958 
L 314.794336 30.377546 
L 314.425606 30.173047 
L 314.056877 29.969462 
L 313.688147 29.766789 
L 313.319418 29.565029 
L 312.950689 29.364182 
L 312.581959 29.164247 
L 312.21323 28.965226 
L 311.8445 28.767118 
L 311.475771 28.569923 
L 311.107042 28.37364 
L 310.738312 28.178271 
L 310.369583 27.983815 
L 310.000854 27.790271 
L 309.632124 27.59764 
L 309.263395 27.405923 
L 308.894665 27.215118 
L 308.525936 27.025226 
L 308.157207 26.836247 
L 307.788477 26.648182 
L 307.419748 26.461029 
L 307.051018 26.274789 
L 306.682289 26.089462 
L 306.31356 25.905047 
L 305.94483 25.721546 
L 305.576101 25.538958 
L 305.207371 25.357283 
L 304.838642 25.17652 
L 304.469913 24.996671 
L 304.101183 24.817735 
L 303.732454 24.639711 
L 303.363725 24.4626 
L 302.994995 24.286403 
L 302.626266 24.111118 
L 302.257536 23.936746 
L 301.888807 23.763287 
L 301.520078 23.590742 
L 301.151348 23.419109 
L 300.782619 23.248389 
L 300.413889 23.078582 
L 300.04516 22.909687 
L 299.676431 22.741706 
L 299.307701 22.574638 
L 298.938972 22.408483 
L 298.570242 22.24324 
L 298.201513 22.078911 
L 297.832784 21.915495 
L 297.464054 21.752991 
L 297.095325 21.5914 
L 296.726596 21.430723 
L 296.357866 21.270958 
L 295.989137 21.112106 
L 295.620407 20.954167 
L 295.251678 20.797142 
L 294.882949 20.641029 
L 294.514219 20.485829 
L 294.14549 20.331542 
L 293.77676 20.178167 
L 293.408031 20.025706 
L 293.039302 19.874158 
L 292.670572 19.723523 
L 292.301843 19.5738 
L 291.933113 19.424991 
L 291.564384 19.277095 
L 291.195655 19.130111 
L 290.826925 18.98404 
L 290.458196 18.838883 
L 290.089467 18.694638 
L 289.720737 18.551306 
L 289.352008 18.408887 
L 288.983278 18.267382 
L 288.614549 18.126789 
L 288.24582 17.987109 
L 287.87709 17.848342 
L 287.508361 17.710487 
L 287.139631 17.573546 
L 286.770902 17.437518 
L 286.402173 17.302403 
L 286.033443 17.1682 
L 285.664714 17.034911 
L 285.295984 16.902534 
L 284.927255 16.771071 
L 284.558526 16.64052 
L 284.189796 16.510883 
L 283.821067 16.382158 
L 283.452338 16.254346 
L 283.083608 16.127447 
L 282.714879 16.001462 
L 282.346149 15.876389 
L 281.97742 15.752229 
L 281.608691 15.628982 
L 281.239961 15.506647 
L 280.871232 15.385226 
L 280.502502 15.264718 
L 280.133773 15.145123 
L 279.765044 15.02644 
L 279.396314 14.908671 
L 279.027585 14.791814 
L 278.658855 14.675871 
L 278.290126 14.56084 
L 277.921397 14.446723 
L 277.552667 14.333518 
L 277.183938 14.221226 
L 276.815209 14.109847 
L 276.446479 13.999382 
L 276.07775 13.889829 
L 275.70902 13.781189 
L 275.340291 13.673462 
L 274.971562 13.566647 
L 274.602832 13.460746 
L 274.234103 13.355758 
L 273.865373 13.251683 
L 273.496644 13.14852 
L 273.127915 13.046271 
L 272.759185 12.944934 
L 272.390456 12.844511 
L 272.021726 12.745 
L 271.652997 12.646403 
L 271.284268 12.548718 
L 270.915538 12.451946 
L 270.546809 12.356087 
L 270.17808 12.261142 
L 269.80935 12.167109 
L 269.440621 12.073989 
L 269.071891 11.981782 
L 268.703162 11.890487 
L 268.334433 11.800106 
L 267.965703 11.710638 
L 267.596974 11.622083 
L 267.228244 11.53444 
L 266.859515 11.447711 
L 266.490786 11.361894 
L 266.122056 11.276991 
L 265.753327 11.193 
L 265.384597 11.109923 
L 265.015868 11.027758 
L 264.647139 10.946506 
L 264.278409 10.866167 
L 263.90968 10.786742 
L 263.540951 10.708229 
L 263.172221 10.630629 
L 262.803492 10.553942 
L 262.434762 10.478167 
L 262.066033 10.403306 
L 261.697304 10.329358 
L 261.328574 10.256323 
L 260.959845 10.1842 
L 260.591115 10.112991 
L 260.222386 10.042694 
L 259.853657 9.973311 
L 259.484927 9.90484 
L 259.116198 9.837283 
L 258.747468 9.770638 
L 258.378739 9.704906 
L 258.01001 9.640087 
L 257.64128 9.576182 
L 257.272551 9.513189 
L 256.903822 9.451109 
L 256.535092 9.389942 
L 256.166363 9.329687 
L 255.797633 9.270346 
L 255.428904 9.211918 
L 255.060175 9.154403 
L 254.691445 9.0978 
L 254.322716 9.042111 
L 253.953986 8.987334 
L 253.585257 8.933471 
L 253.216528 8.88052 
L 252.847798 8.828483 
L 252.479069 8.777358 
L 252.110339 8.727146 
L 251.74161 8.677847 
L 251.372881 8.629462 
L 251.004151 8.581989 
L 250.635422 8.535429 
L 250.266693 8.489782 
L 249.897963 8.445047 
L 249.529234 8.401226 
L 249.160504 8.358318 
L 248.791775 8.316323 
L 248.423046 8.27524 
L 248.054316 8.235071 
L 247.685587 8.195814 
L 247.316857 8.157471 
L 246.948128 8.12004 
L 246.579399 8.083523 
L 246.210669 8.047918 
L 245.84194 8.013226 
L 245.47321 7.979447 
L 245.104481 7.946582 
L 244.735752 7.914629 
L 244.367022 7.883589 
L 243.998293 7.853462 
L 243.629564 7.824247 
L 243.260834 7.795946 
L 242.892105 7.768558 
L 242.523375 7.742083 
L 242.154646 7.71652 
L 241.785917 7.691871 
L 241.417187 7.668134 
L 241.048458 7.645311 
L 240.679728 7.6234 
L 240.310999 7.602403 
L 239.94227 7.582318 
L 239.57354 7.563146 
L 239.204811 7.544887 
L 238.836081 7.527542 
L 238.467352 7.511109 
L 238.098623 7.495589 
L 237.729893 7.480982 
L 237.361164 7.467287 
L 236.992435 7.454506 
L 236.623705 7.442638 
L 236.254976 7.431683 
L 235.886246 7.42164 
L 235.517517 7.412511 
L 235.148788 7.404294 
L 234.780058 7.396991 
L 234.411329 7.3906 
L 234.042599 7.385123 
L 233.67387 7.380558 
L 233.305141 7.376906 
L 232.936411 7.374167 
L 232.567682 7.372342 
L 232.198952 7.371429 
L 231.830223 7.371429 
L 231.461494 7.372342 
L 231.092764 7.374167 
L 230.724035 7.376906 
L 230.355306 7.380558 
L 229.986576 7.385123 
L 229.617847 7.3906 
L 229.249117 7.396991 
L 228.880388 7.404294 
L 228.511659 7.412511 
L 228.142929 7.42164 
L 227.7742 7.431683 
L 227.40547 7.442638 
L 227.036741 7.454506 
L 226.668012 7.467287 
L 226.299282 7.480982 
L 225.930553 7.495589 
L 225.561823 7.511109 
L 225.193094 7.527542 
L 224.824365 7.544887 
L 224.455635 7.563146 
L 224.086906 7.582318 
L 223.718177 7.602403 
L 223.349447 7.6234 
L 222.980718 7.645311 
L 222.611988 7.668134 
L 222.243259 7.691871 
L 221.87453 7.71652 
L 221.5058 7.742083 
L 221.137071 7.768558 
L 220.768341 7.795946 
L 220.399612 7.824247 
L 220.030883 7.853462 
L 219.662153 7.883589 
L 219.293424 7.914629 
L 218.924694 7.946582 
L 218.555965 7.979447 
L 218.187236 8.013226 
L 217.818506 8.047918 
L 217.449777 8.083523 
L 217.081048 8.12004 
L 216.712318 8.157471 
L 216.343589 8.195814 
L 215.974859 8.235071 
L 215.60613 8.27524 
L 215.237401 8.316323 
L 214.868671 8.358318 
L 214.499942 8.401226 
L 214.131212 8.445047 
L 213.762483 8.489782 
L 213.393754 8.535429 
L 213.025024 8.581989 
L 212.656295 8.629462 
L 212.287565 8.677847 
L 211.918836 8.727146 
L 211.550107 8.777358 
L 211.181377 8.828483 
L 210.812648 8.88052 
L 210.443919 8.933471 
L 210.075189 8.987334 
L 209.70646 9.042111 
L 209.33773 9.0978 
L 208.969001 9.154403 
L 208.600272 9.211918 
L 208.231542 9.270346 
L 207.862813 9.329687 
L 207.494083 9.389942 
L 207.125354 9.451109 
L 206.756625 9.513189 
L 206.387895 9.576182 
L 206.019166 9.640087 
L 205.650436 9.704906 
L 205.281707 9.770638 
L 204.912978 9.837283 
L 204.544248 9.90484 
L 204.175519 9.973311 
L 203.80679 10.042694 
L 203.43806 10.112991 
L 203.069331 10.1842 
L 202.700601 10.256323 
L 202.331872 10.329358 
L 201.963143 10.403306 
L 201.594413 10.478167 
L 201.225684 10.553942 
L 200.856954 10.630629 
L 200.488225 10.708229 
L 200.119496 10.786742 
L 199.750766 10.866167 
L 199.382037 10.946506 
L 199.013307 11.027758 
L 198.644578 11.109923 
L 198.275849 11.193 
L 197.907119 11.276991 
L 197.53839 11.361894 
L 197.169661 11.447711 
L 196.800931 11.53444 
L 196.432202 11.622083 
L 196.063472 11.710638 
L 195.694743 11.800106 
L 195.326014 11.890487 
L 194.957284 11.981782 
L 194.588555 12.073989 
L 194.219825 12.167109 
L 193.851096 12.261142 
L 193.482367 12.356087 
L 193.113637 12.451946 
L 192.744908 12.548718 
L 192.376178 12.646403 
L 192.007449 12.745 
L 191.63872 12.844511 
L 191.26999 12.944934 
L 190.901261 13.046271 
L 190.532532 13.14852 
L 190.163802 13.251683 
L 189.795073 13.355758 
L 189.426343 13.460746 
L 189.057614 13.566647 
L 188.688885 13.673462 
L 188.320155 13.781189 
L 187.951426 13.889829 
L 187.582696 13.999382 
L 187.213967 14.109847 
L 186.845238 14.221226 
L 186.476508 14.333518 
L 186.107779 14.446723 
L 185.739049 14.56084 
L 185.37032 14.675871 
L 185.001591 14.791814 
L 184.632861 14.908671 
L 184.264132 15.02644 
L 183.895403 15.145123 
L 183.526673 15.264718 
L 183.157944 15.385226 
L 182.789214 15.506647 
L 182.420485 15.628982 
L 182.051756 15.752229 
L 181.683026 15.876389 
L 181.314297 16.001462 
L 180.945567 16.127447 
L 180.576838 16.254346 
L 180.208109 16.382158 
L 179.839379 16.510883 
L 179.47065 16.64052 
L 179.10192 16.771071 
L 178.733191 16.902534 
L 178.364462 17.034911 
L 177.995732 17.1682 
L 177.627003 17.302403 
L 177.258274 17.437518 
L 176.889544 17.573546 
L 176.520815 17.710487 
L 176.152085 17.848342 
L 175.783356 17.987109 
L 175.414627 18.126789 
L 175.045897 18.267382 
L 174.677168 18.408887 
L 174.308438 18.551306 
L 173.939709 18.694638 
L 173.57098 18.838883 
L 173.20225 18.98404 
L 172.833521 19.130111 
L 172.464791 19.277095 
L 172.096062 19.424991 
L 171.727333 19.5738 
L 171.358603 19.723523 
L 170.989874 19.874158 
L 170.621145 20.025706 
L 170.252415 20.178167 
L 169.883686 20.331542 
L 169.514956 20.485829 
L 169.146227 20.641029 
L 168.777498 20.797142 
L 168.408768 20.954167 
L 168.040039 21.112106 
L 167.671309 21.270958 
L 167.30258 21.430723 
L 166.933851 21.5914 
L 166.565121 21.752991 
L 166.196392 21.915495 
L 165.827662 22.078911 
L 165.458933 22.24324 
L 165.090204 22.408483 
L 164.721474 22.574638 
L 164.352745 22.741706 
L 163.984016 22.909687 
L 163.615286 23.078582 
L 163.246557 23.248389 
L 162.877827 23.419109 
L 162.509098 23.590742 
L 162.140369 23.763287 
L 161.771639 23.936746 
L 161.40291 24.111118 
L 161.03418 24.286403 
L 160.665451 24.4626 
L 160.296722 24.639711 
L 159.927992 24.817735 
L 159.559263 24.996671 
L 159.190533 25.17652 
L 158.821804 25.357283 
L 158.453075 25.538958 
L 158.084345 25.721546 
L 157.715616 25.905047 
L 157.346887 26.089462 
L 156.978157 26.274789 
L 156.609428 26.461029 
L 156.240698 26.648182 
L 155.871969 26.836247 
L 155.50324 27.025226 
L 155.13451 27.215118 
L 154.765781 27.405923 
L 154.397051 27.59764 
L 154.028322 27.790271 
L 153.659593 27.983815 
L 153.290863 28.178271 
L 152.922134 28.37364 
L 152.553404 28.569923 
L 152.184675 28.767118 
L 151.815946 28.965226 
L 151.447216 29.164247 
L 151.078487 29.364182 
L 150.709758 29.565029 
L 150.341028 29.766789 
L 149.972299 29.969462 
L 149.603569 30.173047 
L 149.23484 30.377546 
L 148.866111 30.582958 
L 148.497381 30.789283 
L 148.128652 30.99652 
L 147.759922 31.204671 
L 147.391193 31.413735 
L 147.022464 31.623711 
L 146.653734 31.8346 
L 146.285005 32.046403 
L 145.916275 32.259118 
L 145.547546 32.472746 
L 145.178817 32.687288 
L 144.810087 32.902742 
L 144.441358 33.119109 
L 144.072629 33.336389 
L 143.703899 33.554582 
L 143.33517 33.773688 
L 142.96644 33.993706 
L 142.597711 34.214638 
L 142.228982 34.436483 
L 141.860252 34.65924 
L 141.491523 34.882911 
L 141.122793 35.107495 
L 140.754064 35.332991 
L 140.385335 35.5594 
L 140.016605 35.786723 
L 139.647876 36.014958 
L 139.279146 36.244106 
L 138.910417 36.474168 
L 138.541688 36.705142 
L 138.172958 36.937029 
L 137.804229 37.169829 
L 137.4355 37.403542 
L 137.06677 37.638168 
L 136.698041 37.873706 
L 136.329311 38.110158 
L 135.960582 38.347523 
L 135.591853 38.5858 
L 135.223123 38.824991 
L 134.854394 39.065095 
L 134.485664 39.306111 
L 134.116935 39.54804 
L 133.748206 39.790883 
L 133.379476 40.034638 
L 133.010747 40.279306 
L 132.642017 40.524888 
L 132.273288 40.771382 
L 131.904559 41.018789 
L 131.535829 41.267109 
L 131.1671 41.516342 
L 130.798371 41.766488 
L 130.429641 42.017546 
L 130.060912 42.269518 
L 129.692182 42.522403 
L 129.323453 42.7762 
L 128.954724 43.030911 
L 128.585994 43.286535 
L 128.217265 43.543071 
L 127.848535 43.80052 
L 127.479806 44.058883 
L 127.111077 44.318158 
L 126.742347 44.578346 
L 126.373618 44.839448 
L 126.004888 45.101462 
L 125.636159 45.364389 
L 125.26743 45.628229 
L 124.8987 45.892982 
L 124.529971 46.158648 
L 124.161242 46.425226 
L 123.792512 46.692718 
L 123.423783 46.961123 
L 123.055053 47.230441 
L 122.686324 47.500671 
L 122.317595 47.771815 
z
" style="fill:#0000ff;fill-opacity:0.1;stroke:#0000ff;stroke-opacity:0.1;"/>
   </g>
   <g id="matplotlib.axis_1">
    <g id="xtick_1">
     <g id="line2d_1">
      <defs>
       <path d="M 0 0 
L 0 3.5 
" id="m57f069320e" style="stroke:#000000;stroke-width:0.8;"/>
      </defs>
      <g>
       <use style="stroke:#000000;stroke-width:0.8;" x="41.012764" xlink:href="#m57f069320e" y="162"/>
      </g>
     </g>
     <g id="text_1">
      <!-- 1930 -->
      <g transform="translate(28.287764 176.598438)scale(0.1 -0.1)">
       <defs>
        <path d="M 794 531 
L 1825 531 
L 1825 4091 
L 703 3866 
L 703 4441 
L 1819 4666 
L 2450 4666 
L 2450 531 
L 3481 531 
L 3481 0 
L 794 0 
L 794 531 
z
" id="DejaVuSans-31" transform="scale(0.015625)"/>
        <path d="M 703 97 
L 703 672 
Q 941 559 1184 500 
Q 1428 441 1663 441 
Q 2288 441 2617 861 
Q 2947 1281 2994 2138 
Q 2813 1869 2534 1725 
Q 2256 1581 1919 1581 
Q 1219 1581 811 2004 
Q 403 2428 403 3163 
Q 403 3881 828 4315 
Q 1253 4750 1959 4750 
Q 2769 4750 3195 4129 
Q 3622 3509 3622 2328 
Q 3622 1225 3098 567 
Q 2575 -91 1691 -91 
Q 1453 -91 1209 -44 
Q 966 3 703 97 
z
M 1959 2075 
Q 2384 2075 2632 2365 
Q 2881 2656 2881 3163 
Q 2881 3666 2632 3958 
Q 2384 4250 1959 4250 
Q 1534 4250 1286 3958 
Q 1038 3666 1038 3163 
Q 1038 2656 1286 2365 
Q 1534 2075 1959 2075 
z
" id="DejaVuSans-39" transform="scale(0.015625)"/>
        <path d="M 2597 2516 
Q 3050 2419 3304 2112 
Q 3559 1806 3559 1356 
Q 3559 666 3084 287 
Q 2609 -91 1734 -91 
Q 1441 -91 1130 -33 
Q 819 25 488 141 
L 488 750 
Q 750 597 1062 519 
Q 1375 441 1716 441 
Q 2309 441 2620 675 
Q 2931 909 2931 1356 
Q 2931 1769 2642 2001 
Q 2353 2234 1838 2234 
L 1294 2234 
L 1294 2753 
L 1863 2753 
Q 2328 2753 2575 2939 
Q 2822 3125 2822 3475 
Q 2822 3834 2567 4026 
Q 2313 4219 1838 4219 
Q 1578 4219 1281 4162 
Q 984 4106 628 3988 
L 628 4550 
Q 988 4650 1302 4700 
Q 1616 4750 1894 4750 
Q 2613 4750 3031 4423 
Q 3450 4097 3450 3541 
Q 3450 3153 3228 2886 
Q 3006 2619 2597 2516 
z
" id="DejaVuSans-33" transform="scale(0.015625)"/>
        <path d="M 2034 4250 
Q 1547 4250 1301 3770 
Q 1056 3291 1056 2328 
Q 1056 1369 1301 889 
Q 1547 409 2034 409 
Q 2525 409 2770 889 
Q 3016 1369 3016 2328 
Q 3016 3291 2770 3770 
Q 2525 4250 2034 4250 
z
M 2034 4750 
Q 2819 4750 3233 4129 
Q 3647 3509 3647 2328 
Q 3647 1150 3233 529 
Q 2819 -91 2034 -91 
Q 1250 -91 836 529 
Q 422 1150 422 2328 
Q 422 3509 836 4129 
Q 1250 4750 2034 4750 
z
" id="DejaVuSans-30" transform="scale(0.015625)"/>
       </defs>
       <use xlink:href="#DejaVuSans-31"/>
       <use x="63.623047" xlink:href="#DejaVuSans-39"/>
       <use x="127.246094" xlink:href="#DejaVuSans-33"/>
       <use x="190.869141" xlink:href="#DejaVuSans-30"/>
      </g>
     </g>
    </g>
    <g id="xtick_2">
     <g id="line2d_2">
      <g>
       <use style="stroke:#000000;stroke-width:0.8;" x="85.260291" xlink:href="#m57f069320e" y="162"/>
      </g>
     </g>
     <g id="text_2">
      <!-- 1940 -->
      <g transform="translate(72.535291 176.598438)scale(0.1 -0.1)">
       <defs>
        <path d="M 2419 4116 
L 825 1625 
L 2419 1625 
L 2419 4116 
z
M 2253 4666 
L 3047 4666 
L 3047 1625 
L 3713 1625 
L 3713 1100 
L 3047 1100 
L 3047 0 
L 2419 0 
L 2419 1100 
L 313 1100 
L 313 1709 
L 2253 4666 
z
" id="DejaVuSans-34" transform="scale(0.015625)"/>
       </defs>
       <use xlink:href="#DejaVuSans-31"/>
       <use x="63.623047" xlink:href="#DejaVuSans-39"/>
       <use x="127.246094" xlink:href="#DejaVuSans-34"/>
       <use x="190.869141" xlink:href="#DejaVuSans-30"/>
      </g>
     </g>
    </g>
    <g id="xtick_3">
     <g id="line2d_3">
      <g>
       <use style="stroke:#000000;stroke-width:0.8;" x="129.507818" xlink:href="#m57f069320e" y="162"/>
      </g>
     </g>
     <g id="text_3">
      <!-- 1950 -->
      <g transform="translate(116.782818 176.598438)scale(0.1 -0.1)">
       <defs>
        <path d="M 691 4666 
L 3169 4666 
L 3169 4134 
L 1269 4134 
L 1269 2991 
Q 1406 3038 1543 3061 
Q 1681 3084 1819 3084 
Q 2600 3084 3056 2656 
Q 3513 2228 3513 1497 
Q 3513 744 3044 326 
Q 2575 -91 1722 -91 
Q 1428 -91 1123 -41 
Q 819 9 494 109 
L 494 744 
Q 775 591 1075 516 
Q 1375 441 1709 441 
Q 2250 441 2565 725 
Q 2881 1009 2881 1497 
Q 2881 1984 2565 2268 
Q 2250 2553 1709 2553 
Q 1456 2553 1204 2497 
Q 953 2441 691 2322 
L 691 4666 
z
" id="DejaVuSans-35" transform="scale(0.015625)"/>
       </defs>
       <use xlink:href="#DejaVuSans-31"/>
       <use x="63.623047" xlink:href="#DejaVuSans-39"/>
       <use x="127.246094" xlink:href="#DejaVuSans-35"/>
       <use x="190.869141" xlink:href="#DejaVuSans-30"/>
      </g>
     </g>
    </g>
    <g id="xtick_4">
     <g id="line2d_4">
      <g>
       <use style="stroke:#000000;stroke-width:0.8;" x="173.755344" xlink:href="#m57f069320e" y="162"/>
      </g>
     </g>
     <g id="text_4">
      <!-- 1960 -->
      <g transform="translate(161.030344 176.598438)scale(0.1 -0.1)">
       <defs>
        <path d="M 2113 2584 
Q 1688 2584 1439 2293 
Q 1191 2003 1191 1497 
Q 1191 994 1439 701 
Q 1688 409 2113 409 
Q 2538 409 2786 701 
Q 3034 994 3034 1497 
Q 3034 2003 2786 2293 
Q 2538 2584 2113 2584 
z
M 3366 4563 
L 3366 3988 
Q 3128 4100 2886 4159 
Q 2644 4219 2406 4219 
Q 1781 4219 1451 3797 
Q 1122 3375 1075 2522 
Q 1259 2794 1537 2939 
Q 1816 3084 2150 3084 
Q 2853 3084 3261 2657 
Q 3669 2231 3669 1497 
Q 3669 778 3244 343 
Q 2819 -91 2113 -91 
Q 1303 -91 875 529 
Q 447 1150 447 2328 
Q 447 3434 972 4092 
Q 1497 4750 2381 4750 
Q 2619 4750 2861 4703 
Q 3103 4656 3366 4563 
z
" id="DejaVuSans-36" transform="scale(0.015625)"/>
       </defs>
       <use xlink:href="#DejaVuSans-31"/>
       <use x="63.623047" xlink:href="#DejaVuSans-39"/>
       <use x="127.246094" xlink:href="#DejaVuSans-36"/>
       <use x="190.869141" xlink:href="#DejaVuSans-30"/>
      </g>
     </g>
    </g>
    <g id="xtick_5">
     <g id="line2d_5">
      <g>
       <use style="stroke:#000000;stroke-width:0.8;" x="218.002871" xlink:href="#m57f069320e" y="162"/>
      </g>
     </g>
     <g id="text_5">
      <!-- 1970 -->
      <g transform="translate(205.277871 176.598438)scale(0.1 -0.1)">
       <defs>
        <path d="M 525 4666 
L 3525 4666 
L 3525 4397 
L 1831 0 
L 1172 0 
L 2766 4134 
L 525 4134 
L 525 4666 
z
" id="DejaVuSans-37" transform="scale(0.015625)"/>
       </defs>
       <use xlink:href="#DejaVuSans-31"/>
       <use x="63.623047" xlink:href="#DejaVuSans-39"/>
       <use x="127.246094" xlink:href="#DejaVuSans-37"/>
       <use x="190.869141" xlink:href="#DejaVuSans-30"/>
      </g>
     </g>
    </g>
    <g id="xtick_6">
     <g id="line2d_6">
      <g>
       <use style="stroke:#000000;stroke-width:0.8;" x="262.250398" xlink:href="#m57f069320e" y="162"/>
      </g>
     </g>
     <g id="text_6">
      <!-- 1980 -->
      <g transform="translate(249.525398 176.598438)scale(0.1 -0.1)">
       <defs>
        <path d="M 2034 2216 
Q 1584 2216 1326 1975 
Q 1069 1734 1069 1313 
Q 1069 891 1326 650 
Q 1584 409 2034 409 
Q 2484 409 2743 651 
Q 3003 894 3003 1313 
Q 3003 1734 2745 1975 
Q 2488 2216 2034 2216 
z
M 1403 2484 
Q 997 2584 770 2862 
Q 544 3141 544 3541 
Q 544 4100 942 4425 
Q 1341 4750 2034 4750 
Q 2731 4750 3128 4425 
Q 3525 4100 3525 3541 
Q 3525 3141 3298 2862 
Q 3072 2584 2669 2484 
Q 3125 2378 3379 2068 
Q 3634 1759 3634 1313 
Q 3634 634 3220 271 
Q 2806 -91 2034 -91 
Q 1263 -91 848 271 
Q 434 634 434 1313 
Q 434 1759 690 2068 
Q 947 2378 1403 2484 
z
M 1172 3481 
Q 1172 3119 1398 2916 
Q 1625 2713 2034 2713 
Q 2441 2713 2670 2916 
Q 2900 3119 2900 3481 
Q 2900 3844 2670 4047 
Q 2441 4250 2034 4250 
Q 1625 4250 1398 4047 
Q 1172 3844 1172 3481 
z
" id="DejaVuSans-38" transform="scale(0.015625)"/>
       </defs>
       <use xlink:href="#DejaVuSans-31"/>
       <use x="63.623047" xlink:href="#DejaVuSans-39"/>
       <use x="127.246094" xlink:href="#DejaVuSans-38"/>
       <use x="190.869141" xlink:href="#DejaVuSans-30"/>
      </g>
     </g>
    </g>
    <g id="xtick_7">
     <g id="line2d_7">
      <g>
       <use style="stroke:#000000;stroke-width:0.8;" x="306.497924" xlink:href="#m57f069320e" y="162"/>
      </g>
     </g>
     <g id="text_7">
      <!-- 1990 -->
      <g transform="translate(293.772924 176.598438)scale(0.1 -0.1)">
       <use xlink:href="#DejaVuSans-31"/>
       <use x="63.623047" xlink:href="#DejaVuSans-39"/>
       <use x="127.246094" xlink:href="#DejaVuSans-39"/>
       <use x="190.869141" xlink:href="#DejaVuSans-30"/>
      </g>
     </g>
    </g>
    <g id="xtick_8">
     <g id="line2d_8">
      <g>
       <use style="stroke:#000000;stroke-width:0.8;" x="350.745451" xlink:href="#m57f069320e" y="162"/>
      </g>
     </g>
     <g id="text_8">
      <!-- 2000 -->
      <g transform="translate(338.020451 176.598438)scale(0.1 -0.1)">
       <defs>
        <path d="M 1228 531 
L 3431 531 
L 3431 0 
L 469 0 
L 469 531 
Q 828 903 1448 1529 
Q 2069 2156 2228 2338 
Q 2531 2678 2651 2914 
Q 2772 3150 2772 3378 
Q 2772 3750 2511 3984 
Q 2250 4219 1831 4219 
Q 1534 4219 1204 4116 
Q 875 4013 500 3803 
L 500 4441 
Q 881 4594 1212 4672 
Q 1544 4750 1819 4750 
Q 2544 4750 2975 4387 
Q 3406 4025 3406 3419 
Q 3406 3131 3298 2873 
Q 3191 2616 2906 2266 
Q 2828 2175 2409 1742 
Q 1991 1309 1228 531 
z
" id="DejaVuSans-32" transform="scale(0.015625)"/>
       </defs>
       <use xlink:href="#DejaVuSans-32"/>
       <use x="63.623047" xlink:href="#DejaVuSans-30"/>
       <use x="127.246094" xlink:href="#DejaVuSans-30"/>
       <use x="190.869141" xlink:href="#DejaVuSans-30"/>
      </g>
     </g>
    </g>
    <g id="xtick_9">
     <g id="line2d_9">
      <g>
       <use style="stroke:#000000;stroke-width:0.8;" x="394.992978" xlink:href="#m57f069320e" y="162"/>
      </g>
     </g>
     <g id="text_9">
      <!-- 2010 -->
      <g transform="translate(382.267978 176.598438)scale(0.1 -0.1)">
       <use xlink:href="#DejaVuSans-32"/>
       <use x="63.623047" xlink:href="#DejaVuSans-30"/>
       <use x="127.246094" xlink:href="#DejaVuSans-31"/>
       <use x="190.869141" xlink:href="#DejaVuSans-30"/>
      </g>
     </g>
    </g>
   </g>
   <g id="matplotlib.axis_2">
    <g id="ytick_1">
     <g id="line2d_10">
      <defs>
       <path d="M 0 0 
L -3.5 0 
" id="m51ec122c96" style="stroke:#000000;stroke-width:0.8;"/>
      </defs>
      <g>
       <use style="stroke:#000000;stroke-width:0.8;" x="34.56" xlink:href="#m51ec122c96" y="161.798251"/>
      </g>
     </g>
     <g id="text_10">
      <!-- 100 -->
      <g transform="translate(0.092813 165.597469)scale(0.1 -0.1)">
       <defs>
        <path d="M 678 2272 
L 4684 2272 
L 4684 1741 
L 678 1741 
L 678 2272 
z
" id="DejaVuSans-2212" transform="scale(0.015625)"/>
       </defs>
       <use xlink:href="#DejaVuSans-2212"/>
       <use x="83.789062" xlink:href="#DejaVuSans-31"/>
       <use x="147.412109" xlink:href="#DejaVuSans-30"/>
       <use x="211.035156" xlink:href="#DejaVuSans-30"/>
      </g>
     </g>
    </g>
    <g id="ytick_2">
     <g id="line2d_11">
      <g>
       <use style="stroke:#000000;stroke-width:0.8;" x="34.56" xlink:href="#m51ec122c96" y="122.299125"/>
      </g>
     </g>
     <g id="text_11">
      <!-- 50 -->
      <g transform="translate(6.455313 126.098344)scale(0.1 -0.1)">
       <use xlink:href="#DejaVuSans-2212"/>
       <use x="83.789062" xlink:href="#DejaVuSans-35"/>
       <use x="147.412109" xlink:href="#DejaVuSans-30"/>
      </g>
     </g>
    </g>
    <g id="ytick_3">
     <g id="line2d_12">
      <g>
       <use style="stroke:#000000;stroke-width:0.8;" x="34.56" xlink:href="#m51ec122c96" y="82.8"/>
      </g>
     </g>
     <g id="text_12">
      <!-- 0 -->
      <g transform="translate(21.1975 86.599219)scale(0.1 -0.1)">
       <use xlink:href="#DejaVuSans-30"/>
      </g>
     </g>
    </g>
    <g id="ytick_4">
     <g id="line2d_13">
      <g>
       <use style="stroke:#000000;stroke-width:0.8;" x="34.56" xlink:href="#m51ec122c96" y="43.300875"/>
      </g>
     </g>
     <g id="text_13">
      <!-- 50 -->
      <g transform="translate(14.835 47.100093)scale(0.1 -0.1)">
       <use xlink:href="#DejaVuSans-35"/>
       <use x="63.623047" xlink:href="#DejaVuSans-30"/>
      </g>
     </g>
    </g>
    <g id="ytick_5">
     <g id="line2d_14">
      <g>
       <use style="stroke:#000000;stroke-width:0.8;" x="34.56" xlink:href="#m51ec122c96" y="3.801749"/>
      </g>
     </g>
     <g id="text_14">
      <!-- 100 -->
      <g transform="translate(8.4725 7.600968)scale(0.1 -0.1)">
       <use xlink:href="#DejaVuSans-31"/>
       <use x="63.623047" xlink:href="#DejaVuSans-30"/>
       <use x="127.246094" xlink:href="#DejaVuSans-30"/>
      </g>
     </g>
    </g>
   </g>
   <g id="line2d_15">
    <path clip-path="url(#p3a0d8f6a72)" d="M 67.745645 83.110486 
L 68.114374 83.161267 
L 68.483104 83.027483 
L 68.851833 83.174768 
L 69.589292 83.633663 
L 69.958021 83.649651 
L 70.69548 83.300977 
L 71.06421 83.250087 
L 71.801668 82.896321 
L 72.539127 83.078697 
L 73.276586 82.979967 
L 73.645315 83.145657 
L 74.014045 83.660907 
L 74.751503 83.918607 
L 75.120233 84.02338 
L 76.226421 83.901903 
L 76.59515 83.975158 
L 76.96388 83.72014 
L 77.332609 83.866275 
L 77.701339 83.80699 
L 78.070068 84.020792 
L 78.807527 85.198062 
L 79.176256 85.544588 
L 79.913715 85.476355 
L 80.651174 85.480503 
L 81.019903 85.897746 
L 81.388632 85.960466 
L 81.757362 85.788861 
L 82.494821 86.149934 
L 82.86355 86.73485 
L 83.232279 86.585094 
L 83.601009 86.772443 
L 84.338468 86.799199 
L 85.075926 87.069113 
L 85.444656 86.737393 
L 85.813385 86.964578 
L 86.182114 86.815401 
L 86.550844 86.916548 
L 87.657032 87.732956 
L 88.025761 87.732079 
L 88.394491 87.870875 
L 89.13195 87.807352 
L 89.500679 87.381655 
L 90.238138 87.392475 
L 91.344326 87.786182 
L 91.713055 88.143449 
L 92.081785 88.340185 
L 92.450514 88.347887 
L 92.819243 87.965463 
L 93.556702 87.812898 
L 95.03162 87.068934 
L 95.400349 87.023863 
L 95.769079 87.272886 
L 96.137808 87.331974 
L 96.506537 87.199949 
L 96.875267 86.918628 
L 97.243996 86.889802 
L 97.612726 86.679479 
L 97.981455 86.607338 
L 99.087643 85.922211 
L 99.456372 85.744783 
L 99.825102 85.419222 
L 100.93129 85.664429 
L 101.300019 85.952767 
L 102.406208 85.790545 
L 103.143666 85.984871 
L 103.881125 85.202219 
L 104.249855 85.203114 
L 104.618584 85.413015 
L 105.356043 85.458234 
L 105.724772 85.484863 
L 107.19969 85.18774 
M 122.317595 85.436781 
L 123.055053 85.82803 
L 124.8987 86.358758 
L 125.636159 86.544975 
L 126.004888 86.470644 
L 126.373618 86.703217 
L 126.742347 87.231376 
L 128.585994 87.430429 
L 128.954724 87.152013 
L 129.323453 87.126273 
L 130.060912 86.773251 
L 130.429641 86.812739 
L 130.798371 86.668414 
L 131.1671 86.830661 
L 131.535829 86.550727 
L 131.904559 86.55519 
L 132.273288 86.341336 
L 132.642017 86.441863 
L 133.379476 86.218947 
L 133.748206 86.429686 
L 134.485664 86.231921 
L 134.854394 86.233601 
L 135.223123 86.081327 
L 135.591853 85.716305 
L 136.698041 85.258401 
L 137.06677 85.091996 
L 138.172958 85.037478 
L 139.279146 84.705514 
L 140.385335 83.871882 
L 141.860252 83.059163 
L 142.597711 82.860831 
L 143.33517 82.58853 
L 144.072629 82.540043 
L 144.810087 81.959744 
L 145.178817 81.933709 
L 145.547546 81.489022 
L 146.285005 81.236128 
L 147.022464 81.326226 
L 148.497381 80.987302 
L 148.866111 80.681708 
L 151.447216 79.765222 
L 152.553404 79.768696 
L 152.922134 79.566265 
L 153.659593 79.360852 
L 154.028322 79.214988 
L 154.397051 78.796191 
L 155.13451 78.494303 
L 156.240698 78.089198 
L 156.609428 77.707255 
L 157.346887 77.316837 
L 158.084345 76.671454 
L 158.453075 76.648932 
L 160.296722 75.724365 
L 160.665451 75.574423 
L 161.40291 75.438379 
L 161.771639 75.309217 
L 162.140369 75.047822 
L 162.509098 74.581128 
L 163.615286 74.208746 
L 164.352745 74.155619 
L 164.721474 74.021228 
L 165.827662 73.935488 
L 166.565121 73.769631 
L 166.933851 73.447197 
L 168.777498 72.915514 
L 169.514956 73.017337 
L 170.252415 73.267819 
L 172.096062 73.117306 
L 172.464791 72.767201 
L 172.833521 72.573585 
L 173.57098 72.69927 
L 173.939709 72.684585 
L 174.308438 72.55553 
L 174.677168 72.604267 
L 175.414627 72.259558 
L 175.783356 71.951229 
L 177.258274 71.914853 
L 177.995732 71.707758 
L 179.47065 71.535132 
L 179.839379 71.375961 
L 180.576838 71.321456 
L 182.051756 71.048236 
L 184.264132 70.667191 
L 185.001591 70.161503 
L 185.739049 69.886403 
L 186.107779 69.929067 
L 187.213967 70.34964 
L 189.426343 72.890766 
L 190.163802 73.591929 
L 190.532532 73.594268 
L 190.901261 73.782473 
L 192.007449 74.753043 
L 193.482367 76.018431 
L 193.851096 76.475305 
L 194.219825 76.679228 
L 194.588555 77.020082 
L 194.957284 77.161459 
L 196.063472 77.087599 
L 196.432202 76.904993 
L 196.800931 77.121209 
L 197.169661 77.014387 
L 197.53839 77.281604 
L 197.907119 77.348763 
L 198.275849 77.260233 
L 198.644578 76.953487 
L 199.013307 77.235006 
L 199.382037 77.336153 
L 199.750766 77.229203 
L 200.119496 76.960005 
L 200.488225 76.97029 
L 200.856954 77.378177 
L 201.594413 77.356125 
L 202.331872 76.686929 
L 202.700601 76.812475 
L 203.43806 76.558637 
L 203.80679 76.955284 
L 204.175519 76.976624 
L 204.544248 76.832956 
L 206.756625 77.398362 
L 207.494083 78.017768 
L 207.862813 78.083744 
L 208.231542 77.947772 
L 208.600272 78.336045 
L 209.33773 78.322629 
L 209.70646 78.441484 
L 210.075189 78.373671 
L 210.443919 78.575036 
L 210.812648 78.545902 
L 211.181377 78.834679 
L 212.287565 79.097903 
L 212.656295 79.066428 
L 213.393754 79.432527 
L 214.131212 79.424493 
L 214.868671 79.703667 
L 215.237401 79.807718 
L 215.60613 79.711398 
L 216.343589 79.308008 
L 217.449777 79.32862 
L 218.187236 79.907881 
L 218.555965 79.808464 
L 218.924694 80.004546 
L 220.030883 79.901152 
L 220.399612 80.280535 
L 223.349447 80.835928 
L 223.718177 80.728978 
L 224.824365 79.628118 
L 225.193094 79.540515 
L 225.561823 79.889209 
L 225.930553 80.647175 
L 226.299282 80.402616 
L 226.668012 80.654628 
L 228.142929 82.125459 
L 229.249117 82.68765 
L 229.617847 82.679195 
L 229.986576 82.545149 
L 230.355306 82.714257 
L 230.724035 82.654086 
L 231.092764 83.139178 
L 231.461494 83.249349 
L 231.830223 83.11271 
L 232.198952 83.101671 
L 232.936411 82.656087 
L 233.305141 82.491905 
L 233.67387 82.554012 
L 234.042599 82.891219 
L 234.411329 82.993432 
L 236.254976 82.861377 
L 236.992435 83.109595 
L 237.361164 83.117666 
L 239.57354 84.20915 
L 239.94227 84.571556 
L 240.310999 84.529472 
L 240.679728 84.659542 
L 241.417187 84.665591 
L 241.785917 84.760782 
L 242.154646 84.709647 
L 242.523375 85.079735 
L 242.892105 85.080654 
L 243.998293 85.734688 
L 244.367022 85.70529 
L 244.735752 85.805513 
L 245.104481 86.239404 
L 246.210669 86.895154 
L 246.948128 86.923209 
L 248.054316 87.853701 
L 248.791775 88.007366 
L 249.529234 88.043939 
L 249.897963 88.313744 
L 250.635422 88.121156 
L 251.004151 87.747429 
L 252.110339 87.530183 
L 252.479069 87.777579 
L 252.847798 87.787288 
L 253.216528 88.039173 
L 253.953986 88.802475 
L 254.322716 88.780748 
L 254.691445 88.905629 
L 255.428904 88.101328 
L 255.797633 87.9903 
L 256.166363 88.066065 
L 256.535092 87.878496 
L 257.272551 87.904679 
L 257.64128 88.138621 
L 258.01001 88.053462 
L 258.747468 88.163993 
L 259.116198 88.057351 
L 259.484927 88.211695 
L 259.853657 88.584026 
L 261.328574 88.424676 
L 262.066033 88.799219 
L 262.434762 88.861248 
L 262.803492 88.42484 
L 263.172221 88.569168 
L 263.540951 88.910812 
L 264.278409 89.253449 
L 264.647139 89.533678 
L 265.015868 89.639502 
L 265.384597 89.954398 
L 265.753327 90.027849 
L 266.859515 89.146362 
L 268.334433 89.756258 
L 269.440621 90.036941 
L 269.80935 90.183361 
L 270.17808 90.112201 
L 270.546809 89.880734 
L 270.915538 90.051783 
L 271.652997 89.776873 
L 272.390456 89.015822 
L 272.759185 88.79606 
L 273.127915 88.83457 
L 273.496644 88.452697 
L 273.865373 88.292511 
L 274.971562 88.357432 
L 275.70902 87.86134 
L 276.07775 87.830166 
L 276.446479 87.652463 
L 276.815209 87.640881 
L 277.183938 87.903716 
L 277.552667 87.941659 
L 277.921397 88.318006 
L 278.658855 88.510073 
L 279.027585 88.443479 
L 279.765044 88.764695 
L 280.133773 88.661 
L 280.871232 88.98006 
L 281.239961 88.923601 
L 282.346149 89.312965 
L 283.083608 89.808035 
L 283.452338 89.840825 
L 283.821067 90.240496 
L 285.664714 91.029049 
L 286.770902 92.890117 
L 287.87709 93.629697 
L 288.614549 93.590254 
L 288.983278 93.426888 
L 289.352008 93.536165 
L 289.720737 93.326257 
L 290.089467 93.409621 
L 290.826925 94.143989 
L 292.301843 95.163147 
L 293.039302 95.044613 
L 293.77676 95.652793 
L 294.514219 96.413433 
L 294.882949 96.656949 
L 295.620407 96.74198 
L 296.357866 96.348952 
L 296.726596 96.587662 
L 297.464054 96.740273 
L 297.832784 97.101304 
L 298.201513 96.832611 
L 298.570242 96.768225 
L 299.676431 97.569653 
L 300.04516 97.59998 
L 301.520078 98.551082 
L 301.888807 98.567484 
L 303.732454 99.225303 
L 304.469913 99.342074 
L 304.838642 100.192747 
L 305.576101 100.538284 
L 305.94483 100.869158 
L 306.31356 100.827163 
L 306.682289 100.4727 
L 307.051018 100.490018 
L 307.419748 100.909265 
L 307.788477 100.546256 
L 308.157207 100.344489 
L 308.894665 100.728299 
L 309.263395 100.719709 
L 310.738312 100.280796 
L 311.475771 100.322312 
L 312.21323 100.052142 
L 313.319418 99.655689 
L 313.688147 99.722231 
L 315.163065 99.433705 
L 315.531794 99.504196 
L 317.006712 99.012499 
L 317.375441 99.09249 
L 317.744171 98.86636 
L 318.481629 98.837549 
L 318.850359 98.604693 
L 319.219088 98.529735 
L 319.587818 98.640328 
L 321.062735 98.392601 
L 321.800194 98.140115 
L 322.168923 97.80855 
L 322.906382 97.774651 
L 323.275112 97.417593 
L 324.3813 97.47001 
L 325.118758 97.473646 
L 325.487488 97.749688 
L 326.224947 97.615287 
L 326.962405 96.92427 
L 327.331135 96.475988 
L 327.699864 95.764556 
L 328.437323 95.261774 
L 328.806052 95.139508 
L 329.543511 94.343616 
L 329.912241 94.324105 
L 330.28097 94.047529 
L 330.649699 94.008983 
L 331.755887 93.569547 
L 333.230805 94.261311 
L 333.599534 93.910492 
L 334.336993 93.867313 
L 335.074452 93.328285 
L 335.443181 93.12573 
L 335.811911 93.103328 
L 336.18064 92.879171 
L 336.918099 92.890678 
L 337.286828 92.971713 
L 337.655558 93.218532 
L 338.024287 93.247866 
L 338.393016 93.079198 
L 341.711581 92.922157 
L 342.08031 93.04205 
L 342.817769 92.86376 
L 343.186499 92.929899 
L 343.555228 92.815959 
L 343.923957 92.853976 
L 344.292687 92.757329 
L 344.661416 92.44706 
L 346.873792 91.888669 
L 349.823628 92.177385 
L 351.667274 92.099309 
L 352.404733 92.208876 
L 353.879651 91.705056 
L 354.985839 92.011362 
L 356.092027 92.025247 
L 356.460757 91.968779 
L 357.198215 91.398651 
L 358.304403 91.196746 
L 358.673133 91.223263 
L 359.779321 90.663911 
L 360.14805 90.848187 
L 360.885509 90.872466 
L 361.254239 90.709064 
L 361.991697 89.959817 
L 362.360427 89.926548 
L 363.097886 89.687308 
L 365.310262 89.569786 
L 366.41645 88.840293 
L 366.785179 88.660024 
L 367.153909 88.820155 
L 368.260097 88.67741 
L 368.628826 88.358958 
L 369.366285 88.09717 
L 370.841203 86.691284 
L 371.578661 86.613243 
L 371.947391 86.575405 
L 373.053579 85.989186 
L 374.528497 85.500658 
L 374.897226 85.133876 
L 376.003414 84.854778 
L 376.740873 84.702608 
L 378.953249 83.959258 
L 379.690708 83.252993 
L 380.428167 83.200821 
L 380.796896 82.993697 
L 381.534355 82.8 
L 381.534355 82.8 
" style="fill:none;stroke:#1f77b4;stroke-linecap:square;stroke-width:1.5;"/>
   </g>
   <g id="line2d_16">
    <path clip-path="url(#p3a0d8f6a72)" d="M 34.56 82.8 
L 414.72 82.8 
" style="fill:none;stroke:#000000;stroke-dasharray:1.5,2.475;stroke-dashoffset:0;stroke-width:1.5;"/>
   </g>
   <g id="patch_3">
    <path d="M 34.56 162 
L 34.56 3.6 
" style="fill:none;stroke:#000000;stroke-linecap:square;stroke-linejoin:miter;stroke-width:0.8;"/>
   </g>
   <g id="patch_4">
    <path d="M 414.72 162 
L 414.72 3.6 
" style="fill:none;stroke:#000000;stroke-linecap:square;stroke-linejoin:miter;stroke-width:0.8;"/>
   </g>
   <g id="patch_5">
    <path d="M 34.56 162 
L 414.72 162 
" style="fill:none;stroke:#000000;stroke-linecap:square;stroke-linejoin:miter;stroke-width:0.8;"/>
   </g>
   <g id="patch_6">
    <path d="M 34.56 3.6 
L 414.72 3.6 
" style="fill:none;stroke:#000000;stroke-linecap:square;stroke-linejoin:miter;stroke-width:0.8;"/>
   </g>
  </g>
 </g>
 <defs>
  <clipPath id="p3a0d8f6a72">
   <rect height="158.4" width="380.16" x="34.56" y="3.6"/>
  </clipPath>
 </defs>
</svg>
