<?xml version="1.0" encoding="utf-8" standalone="no"?>
<!DOCTYPE svg PUBLIC "-//W3C//DTD SVG 1.1//EN"
  "http://www.w3.org/Graphics/SVG/1.1/DTD/svg11.dtd">
<svg height="180pt" version="1.1" viewBox="0 0 432 180" width="432pt" xmlns="http://www.w3.org/2000/svg" xmlns:xlink="http://www.w3.org/1999/xlink">
 <metadata>
  <rdf:RDF xmlns:cc="http://creativecommons.org/ns#" xmlns:dc="http://purl.org/dc/elements/1.1/" xmlns:rdf="http://www.w3.org/1999/02/22-rdf-syntax-ns#">
   <cc:Work>
    <dc:type rdf:resource="http://purl.org/dc/dcmitype/StillImage"/>
    <dc:date>2021-08-12T10:41:47.749050</dc:date>
    <dc:format>image/svg+xml</dc:format>
    <dc:creator>
     <cc:Agent>
      <dc:title>Matplotlib v3.4.2, https://matplotlib.org/</dc:title>
     </cc:Agent>
    </dc:creator>
   </cc:Work>
  </rdf:RDF>
 </metadata>
 <defs>
  <style type="text/css">*{stroke-linecap:butt;stroke-linejoin:round;}</style>
 </defs>
 <g id="figure_1">
  <g id="patch_1">
   <path d="M 0 180 
L 432 180 
L 432 0 
L 0 0 
z
" style="fill:#ffffff;"/>
  </g>
  <g id="axes_1">
   <g id="patch_2">
    <path d="M 34.56 162 
L 414.72 162 
L 414.72 3.6 
L 34.56 3.6 
z
" style="fill:#ffffff;"/>
   </g>
   <g id="PolyCollection_1">
    <path clip-path="url(#p9b8dcb0e83)" d="M 66.387349 82.440388 
L 66.387349 83.159612 
L 66.740986 83.517936 
L 67.094623 83.875403 
L 67.44826 84.232013 
L 67.801898 84.587766 
L 68.155535 84.942661 
L 68.509172 85.2967 
L 68.862809 85.649881 
L 69.216447 86.002204 
L 69.570084 86.353671 
L 69.923721 86.70428 
L 70.277358 87.054032 
L 70.630995 87.402927 
L 70.984633 87.750964 
L 71.33827 88.098145 
L 71.691907 88.444468 
L 72.045544 88.789934 
L 72.399181 89.134542 
L 72.752819 89.478294 
L 73.106456 89.821188 
L 73.460093 90.163225 
L 73.81373 90.504405 
L 74.167367 90.844727 
L 74.521005 91.184192 
L 74.874642 91.5228 
L 75.228279 91.860551 
L 75.581916 92.197444 
L 75.935553 92.533481 
L 76.289191 92.86866 
L 76.642828 93.202982 
L 76.996465 93.536446 
L 77.350102 93.869053 
L 77.70374 94.200804 
L 78.057377 94.531696 
L 78.411014 94.861732 
L 78.764651 95.19091 
L 79.118288 95.519232 
L 79.471926 95.846695 
L 79.825563 96.173302 
L 80.1792 96.499052 
L 80.532837 96.823944 
L 80.886474 97.147979 
L 81.240112 97.471156 
L 81.593749 97.793477 
L 81.947386 98.11494 
L 82.301023 98.435546 
L 82.65466 98.755295 
L 83.008298 99.074187 
L 83.361935 99.392221 
L 83.715572 99.709398 
L 84.069209 100.025718 
L 84.422847 100.341181 
L 84.776484 100.655786 
L 85.130121 100.969534 
L 85.483758 101.282425 
L 85.837395 101.594459 
L 86.191033 101.905635 
L 86.54467 102.215954 
L 86.898307 102.525416 
L 87.251944 102.834021 
L 87.251944 62.765979 
L 87.251944 62.765979 
L 86.898307 63.074584 
L 86.54467 63.384046 
L 86.191033 63.694365 
L 85.837395 64.005541 
L 85.483758 64.317575 
L 85.130121 64.630466 
L 84.776484 64.944214 
L 84.422847 65.258819 
L 84.069209 65.574282 
L 83.715572 65.890602 
L 83.361935 66.207779 
L 83.008298 66.525813 
L 82.65466 66.844705 
L 82.301023 67.164454 
L 81.947386 67.48506 
L 81.593749 67.806523 
L 81.240112 68.128844 
L 80.886474 68.452021 
L 80.532837 68.776056 
L 80.1792 69.100948 
L 79.825563 69.426698 
L 79.471926 69.753305 
L 79.118288 70.080768 
L 78.764651 70.40909 
L 78.411014 70.738268 
L 78.057377 71.068304 
L 77.70374 71.399196 
L 77.350102 71.730947 
L 76.996465 72.063554 
L 76.642828 72.397018 
L 76.289191 72.73134 
L 75.935553 73.066519 
L 75.581916 73.402556 
L 75.228279 73.739449 
L 74.874642 74.0772 
L 74.521005 74.415808 
L 74.167367 74.755273 
L 73.81373 75.095595 
L 73.460093 75.436775 
L 73.106456 75.778812 
L 72.752819 76.121706 
L 72.399181 76.465458 
L 72.045544 76.810066 
L 71.691907 77.155532 
L 71.33827 77.501855 
L 70.984633 77.849036 
L 70.630995 78.197073 
L 70.277358 78.545968 
L 69.923721 78.89572 
L 69.570084 79.246329 
L 69.216447 79.597796 
L 68.862809 79.950119 
L 68.509172 80.3033 
L 68.155535 80.657339 
L 67.801898 81.012234 
L 67.44826 81.367987 
L 67.094623 81.724597 
L 66.740986 82.082064 
L 66.387349 82.440388 
z
" style="fill:#0000ff;fill-opacity:0.1;stroke:#0000ff;stroke-opacity:0.1;"/>
    <path clip-path="url(#p9b8dcb0e83)" d="M 100.336521 62.458231 
L 100.336521 103.141769 
L 100.690158 103.448659 
L 101.043795 103.754692 
L 101.397433 104.059868 
L 101.75107 104.364186 
L 102.104707 104.667648 
L 102.458344 104.970252 
L 102.811981 105.271998 
L 103.165619 105.572888 
L 103.519256 105.87292 
L 103.872893 106.172096 
L 104.22653 106.470414 
L 104.580167 106.767874 
L 104.933805 107.064478 
L 105.287442 107.360224 
L 105.641079 107.655113 
L 105.994716 107.949145 
L 106.348353 108.242319 
L 106.701991 108.534636 
L 107.055628 108.826096 
L 107.409265 109.116699 
L 107.762902 109.406445 
L 108.11654 109.695333 
L 108.470177 109.983364 
L 108.823814 110.270538 
L 109.177451 110.556855 
L 109.531088 110.842314 
L 109.884726 111.126916 
L 110.238363 111.410661 
L 110.592 111.693549 
L 110.945637 111.975579 
L 111.299274 112.256752 
L 111.652912 112.537068 
L 112.006549 112.816527 
L 112.360186 113.095129 
L 112.713823 113.372873 
L 113.06746 113.64976 
L 113.421098 113.92579 
L 113.774735 114.200962 
L 114.128372 114.475278 
L 114.482009 114.748736 
L 114.835647 115.021336 
L 115.189284 115.29308 
L 115.542921 115.563966 
L 115.896558 115.833996 
L 116.250195 116.103168 
L 116.603833 116.371482 
L 116.95747 116.63894 
L 117.311107 116.90554 
L 117.664744 117.171283 
L 118.018381 117.436169 
L 118.372019 117.700197 
L 118.725656 117.963368 
L 119.079293 118.225682 
L 119.43293 118.487139 
L 119.786567 118.747739 
L 120.140205 119.007481 
L 120.493842 119.266366 
L 120.847479 119.524394 
L 121.201116 119.781565 
L 121.554753 120.037878 
L 121.908391 120.293334 
L 122.262028 120.547933 
L 122.615665 120.801675 
L 122.969302 121.054559 
L 123.32294 121.306586 
L 123.676577 121.557756 
L 124.030214 121.808069 
L 124.383851 122.057524 
L 124.737488 122.306123 
L 125.091126 122.553864 
L 125.444763 122.800748 
L 125.444763 42.799252 
L 125.444763 42.799252 
L 125.091126 43.046136 
L 124.737488 43.293877 
L 124.383851 43.542476 
L 124.030214 43.791931 
L 123.676577 44.042244 
L 123.32294 44.293414 
L 122.969302 44.545441 
L 122.615665 44.798325 
L 122.262028 45.052067 
L 121.908391 45.306666 
L 121.554753 45.562122 
L 121.201116 45.818435 
L 120.847479 46.075606 
L 120.493842 46.333634 
L 120.140205 46.592519 
L 119.786567 46.852261 
L 119.43293 47.112861 
L 119.079293 47.374318 
L 118.725656 47.636632 
L 118.372019 47.899803 
L 118.018381 48.163831 
L 117.664744 48.428717 
L 117.311107 48.69446 
L 116.95747 48.96106 
L 116.603833 49.228518 
L 116.250195 49.496832 
L 115.896558 49.766004 
L 115.542921 50.036034 
L 115.189284 50.30692 
L 114.835647 50.578664 
L 114.482009 50.851264 
L 114.128372 51.124722 
L 113.774735 51.399038 
L 113.421098 51.67421 
L 113.06746 51.95024 
L 112.713823 52.227127 
L 112.360186 52.504871 
L 112.006549 52.783473 
L 111.652912 53.062932 
L 111.299274 53.343248 
L 110.945637 53.624421 
L 110.592 53.906451 
L 110.238363 54.189339 
L 109.884726 54.473084 
L 109.531088 54.757686 
L 109.177451 55.043145 
L 108.823814 55.329462 
L 108.470177 55.616636 
L 108.11654 55.904667 
L 107.762902 56.193555 
L 107.409265 56.483301 
L 107.055628 56.773904 
L 106.701991 57.065364 
L 106.348353 57.357681 
L 105.994716 57.650855 
L 105.641079 57.944887 
L 105.287442 58.239776 
L 104.933805 58.535522 
L 104.580167 58.832126 
L 104.22653 59.129586 
L 103.872893 59.427904 
L 103.519256 59.72708 
L 103.165619 60.027112 
L 102.811981 60.328002 
L 102.458344 60.629748 
L 102.104707 60.932352 
L 101.75107 61.235814 
L 101.397433 61.540132 
L 101.043795 61.845308 
L 100.690158 62.151341 
L 100.336521 62.458231 
z
" style="fill:#0000ff;fill-opacity:0.1;stroke:#0000ff;stroke-opacity:0.1;"/>
    <path clip-path="url(#p9b8dcb0e83)" d="M 130.042047 42.553226 
L 130.042047 123.046774 
L 130.395684 123.291943 
L 130.749321 123.536256 
L 131.102958 123.77971 
L 131.456595 124.022308 
L 131.810233 124.264048 
L 132.16387 124.504931 
L 132.517507 124.744957 
L 132.871144 124.984126 
L 133.224781 125.222438 
L 133.578419 125.459892 
L 133.932056 125.696489 
L 134.285693 125.932228 
L 134.63933 126.167111 
L 134.992967 126.401136 
L 135.346605 126.634304 
L 135.700242 126.866615 
L 136.053879 127.098069 
L 136.407516 127.328665 
L 136.761153 127.558404 
L 137.114791 127.787286 
L 137.468428 128.01531 
L 137.822065 128.242478 
L 138.175702 128.468788 
L 138.52934 128.694241 
L 138.882977 128.918836 
L 139.236614 129.142575 
L 139.590251 129.365456 
L 139.943888 129.58748 
L 140.297526 129.808647 
L 140.651163 130.028956 
L 141.0048 130.248409 
L 141.358437 130.467004 
L 141.712074 130.684741 
L 142.065712 130.901622 
L 142.419349 131.117645 
L 142.772986 131.332811 
L 143.126623 131.54712 
L 143.48026 131.760572 
L 143.833898 131.973166 
L 144.187535 132.184903 
L 144.541172 132.395783 
L 144.894809 132.605806 
L 145.248447 132.814971 
L 145.602084 133.023279 
L 145.955721 133.23073 
L 146.309358 133.437324 
L 146.662995 133.643061 
L 147.016633 133.84794 
L 147.37027 134.051962 
L 147.723907 134.255127 
L 148.077544 134.457434 
L 148.431181 134.658885 
L 148.784819 134.859478 
L 149.138456 135.059214 
L 149.492093 135.258092 
L 149.84573 135.456114 
L 150.199367 135.653278 
L 150.553005 135.849585 
L 150.906642 136.045034 
L 151.260279 136.239627 
L 151.613916 136.433362 
L 151.967553 136.62624 
L 152.321191 136.818261 
L 152.674828 137.009424 
L 153.028465 137.19973 
L 153.382102 137.389179 
L 153.73574 137.577771 
L 154.089377 137.765506 
L 154.443014 137.952383 
L 154.796651 138.138403 
L 155.150288 138.323566 
L 155.503926 138.507871 
L 155.857563 138.69132 
L 156.2112 138.873911 
L 156.564837 139.055645 
L 156.918474 139.236522 
L 157.272112 139.416541 
L 157.625749 139.595703 
L 157.979386 139.774008 
L 158.333023 139.951456 
L 158.68666 140.128046 
L 159.040298 140.30378 
L 159.393935 140.478656 
L 159.747572 140.652674 
L 160.101209 140.825836 
L 160.454847 140.99814 
L 160.808484 141.169587 
L 161.162121 141.340177 
L 161.515758 141.50991 
L 161.869395 141.678785 
L 162.223033 141.846803 
L 162.57667 142.013964 
L 162.930307 142.180268 
L 163.283944 142.345714 
L 163.637581 142.510303 
L 163.991219 142.674035 
L 164.344856 142.83691 
L 164.698493 142.998928 
L 165.05213 143.160088 
L 165.405767 143.320391 
L 165.759405 143.479837 
L 166.113042 143.638425 
L 166.466679 143.796157 
L 166.820316 143.953031 
L 167.173953 144.109047 
L 167.527591 144.264207 
L 167.881228 144.418509 
L 168.234865 144.571955 
L 168.588502 144.724542 
L 168.94214 144.876273 
L 169.295777 145.027147 
L 169.649414 145.177163 
L 170.003051 145.326322 
L 170.356688 145.474623 
L 170.710326 145.622068 
L 171.063963 145.768655 
L 171.4176 145.914385 
L 171.771237 146.059258 
L 172.124874 146.203273 
L 172.478512 146.346432 
L 172.832149 146.488733 
L 173.185786 146.630177 
L 173.539423 146.770763 
L 173.89306 146.910493 
L 174.246698 147.049365 
L 174.600335 147.18738 
L 174.953972 147.324537 
L 175.307609 147.460838 
L 175.661247 147.596281 
L 176.014884 147.730867 
L 176.368521 147.864596 
L 176.722158 147.997467 
L 177.075795 148.129481 
L 177.429433 148.260638 
L 177.78307 148.390938 
L 178.136707 148.520381 
L 178.490344 148.648966 
L 178.843981 148.776694 
L 179.197619 148.903565 
L 179.551256 149.029579 
L 179.904893 149.154735 
L 180.25853 149.279034 
L 180.612167 149.402476 
L 180.965805 149.525061 
L 181.319442 149.646788 
L 181.673079 149.767658 
L 182.026716 149.887671 
L 182.380353 150.006827 
L 182.733991 150.125125 
L 183.087628 150.242567 
L 183.441265 150.359151 
L 183.794902 150.474877 
L 184.14854 150.589747 
L 184.502177 150.703759 
L 184.855814 150.816914 
L 185.209451 150.929212 
L 185.563088 151.040653 
L 185.916726 151.151236 
L 186.270363 151.260962 
L 186.624 151.369831 
L 186.977637 151.477843 
L 187.331274 151.584997 
L 187.684912 151.691294 
L 188.038549 151.796734 
L 188.392186 151.901317 
L 188.745823 152.005043 
L 189.09946 152.107911 
L 189.453098 152.209922 
L 189.806735 152.311076 
L 190.160372 152.411372 
L 190.514009 152.510811 
L 190.867647 152.609393 
L 191.221284 152.707118 
L 191.574921 152.803986 
L 191.928558 152.899996 
L 192.282195 152.995149 
L 192.635833 153.089445 
L 192.98947 153.182884 
L 193.343107 153.275465 
L 193.696744 153.36719 
L 194.050381 153.458057 
L 194.404019 153.548066 
L 194.757656 153.637219 
L 195.111293 153.725514 
L 195.46493 153.812952 
L 195.818567 153.899533 
L 196.172205 153.985256 
L 196.525842 154.070123 
L 196.879479 154.154132 
L 197.233116 154.237283 
L 197.586753 154.319578 
L 197.940391 154.401015 
L 198.294028 154.481596 
L 198.647665 154.561318 
L 199.001302 154.640184 
L 199.35494 154.718193 
L 199.708577 154.795344 
L 200.062214 154.871638 
L 200.415851 154.947074 
L 200.769488 155.021654 
L 201.123126 155.095376 
L 201.476763 155.168241 
L 201.8304 155.240249 
L 202.184037 155.311399 
L 202.537674 155.381693 
L 202.891312 155.451129 
L 203.244949 155.519708 
L 203.598586 155.587429 
L 203.952223 155.654294 
L 204.30586 155.720301 
L 204.659498 155.785451 
L 205.013135 155.849743 
L 205.366772 155.913179 
L 205.720409 155.975757 
L 206.074047 156.037478 
L 206.427684 156.098342 
L 206.781321 156.158348 
L 207.134958 156.217497 
L 207.488595 156.275789 
L 207.842233 156.333224 
L 208.19587 156.389802 
L 208.549507 156.445522 
L 208.903144 156.500385 
L 209.256781 156.554391 
L 209.610419 156.607539 
L 209.964056 156.659831 
L 210.317693 156.711265 
L 210.67133 156.761842 
L 211.024967 156.811561 
L 211.378605 156.860424 
L 211.732242 156.908429 
L 212.085879 156.955577 
L 212.439516 157.001868 
L 212.793153 157.047301 
L 213.146791 157.091877 
L 213.500428 157.135596 
L 213.854065 157.178458 
L 214.207702 157.220463 
L 214.56134 157.26161 
L 214.914977 157.3019 
L 215.268614 157.341333 
L 215.622251 157.379908 
L 215.975888 157.417627 
L 216.329526 157.454488 
L 216.683163 157.490492 
L 217.0368 157.525638 
L 217.390437 157.559928 
L 217.744074 157.59336 
L 218.097712 157.625935 
L 218.451349 157.657653 
L 218.804986 157.688513 
L 219.158623 157.718516 
L 219.51226 157.747662 
L 219.865898 157.775951 
L 220.219535 157.803383 
L 220.573172 157.829957 
L 220.926809 157.855674 
L 221.280447 157.880534 
L 221.634084 157.904536 
L 221.987721 157.927682 
L 222.341358 157.94997 
L 222.694995 157.971401 
L 223.048633 157.991974 
L 223.40227 158.011691 
L 223.755907 158.03055 
L 224.109544 158.048552 
L 224.463181 158.065697 
L 224.816819 158.081984 
L 225.170456 158.097414 
L 225.524093 158.111987 
L 225.87773 158.125703 
L 226.231367 158.138562 
L 226.585005 158.150563 
L 226.938642 158.161707 
L 227.292279 158.171994 
L 227.645916 158.181423 
L 227.999553 158.189996 
L 228.353191 158.197711 
L 228.706828 158.204569 
L 229.060465 158.210569 
L 229.414102 158.215713 
L 229.76774 158.219999 
L 230.121377 158.223428 
L 230.475014 158.226 
L 230.828651 158.227714 
L 231.182288 158.228571 
L 231.535926 158.228571 
L 231.889563 158.227714 
L 232.2432 158.226 
L 232.596837 158.223428 
L 232.950474 158.219999 
L 233.304112 158.215713 
L 233.657749 158.210569 
L 234.011386 158.204569 
L 234.365023 158.197711 
L 234.71866 158.189996 
L 235.072298 158.181423 
L 235.425935 158.171994 
L 235.779572 158.161707 
L 236.133209 158.150563 
L 236.486847 158.138562 
L 236.840484 158.125703 
L 237.194121 158.111987 
L 237.547758 158.097414 
L 237.901395 158.081984 
L 238.255033 158.065697 
L 238.60867 158.048552 
L 238.962307 158.03055 
L 239.315944 158.011691 
L 239.669581 157.991974 
L 240.023219 157.971401 
L 240.376856 157.94997 
L 240.730493 157.927682 
L 241.08413 157.904536 
L 241.437767 157.880534 
L 241.791405 157.855674 
L 242.145042 157.829957 
L 242.498679 157.803383 
L 242.852316 157.775951 
L 243.205953 157.747662 
L 243.559591 157.718516 
L 243.913228 157.688513 
L 244.266865 157.657653 
L 244.620502 157.625935 
L 244.97414 157.59336 
L 245.327777 157.559928 
L 245.681414 157.525638 
L 246.035051 157.490492 
L 246.388688 157.454488 
L 246.742326 157.417627 
L 247.095963 157.379908 
L 247.4496 157.341333 
L 247.803237 157.3019 
L 248.156874 157.26161 
L 248.510512 157.220463 
L 248.864149 157.178458 
L 249.217786 157.135596 
L 249.571423 157.091877 
L 249.92506 157.047301 
L 250.278698 157.001868 
L 250.632335 156.955577 
L 250.985972 156.908429 
L 251.339609 156.860424 
L 251.693247 156.811561 
L 252.046884 156.761842 
L 252.400521 156.711265 
L 252.754158 156.659831 
L 253.107795 156.607539 
L 253.461433 156.554391 
L 253.81507 156.500385 
L 254.168707 156.445522 
L 254.522344 156.389802 
L 254.875981 156.333224 
L 255.229619 156.275789 
L 255.583256 156.217497 
L 255.936893 156.158348 
L 256.29053 156.098342 
L 256.644167 156.037478 
L 256.997805 155.975757 
L 257.351442 155.913179 
L 257.705079 155.849743 
L 258.058716 155.785451 
L 258.412353 155.720301 
L 258.765991 155.654294 
L 259.119628 155.587429 
L 259.473265 155.519708 
L 259.826902 155.451129 
L 260.18054 155.381693 
L 260.534177 155.311399 
L 260.887814 155.240249 
L 261.241451 155.168241 
L 261.595088 155.095376 
L 261.948726 155.021654 
L 262.302363 154.947074 
L 262.656 154.871638 
L 263.009637 154.795344 
L 263.363274 154.718193 
L 263.716912 154.640184 
L 264.070549 154.561318 
L 264.424186 154.481596 
L 264.777823 154.401015 
L 265.13146 154.319578 
L 265.485098 154.237283 
L 265.838735 154.154132 
L 266.192372 154.070123 
L 266.546009 153.985256 
L 266.899647 153.899533 
L 267.253284 153.812952 
L 267.606921 153.725514 
L 267.960558 153.637219 
L 268.314195 153.548066 
L 268.667833 153.458057 
L 269.02147 153.36719 
L 269.375107 153.275465 
L 269.728744 153.182884 
L 270.082381 153.089445 
L 270.436019 152.995149 
L 270.789656 152.899996 
L 271.143293 152.803986 
L 271.49693 152.707118 
L 271.850567 152.609393 
L 272.204205 152.510811 
L 272.557842 152.411372 
L 272.911479 152.311076 
L 273.265116 152.209922 
L 273.618753 152.107911 
L 273.972391 152.005043 
L 274.326028 151.901317 
L 274.679665 151.796734 
L 275.033302 151.691294 
L 275.38694 151.584997 
L 275.740577 151.477843 
L 276.094214 151.369831 
L 276.447851 151.260962 
L 276.801488 151.151236 
L 277.155126 151.040653 
L 277.508763 150.929212 
L 277.8624 150.816914 
L 278.216037 150.703759 
L 278.569674 150.589747 
L 278.923312 150.474877 
L 279.276949 150.359151 
L 279.630586 150.242567 
L 279.984223 150.125125 
L 280.33786 150.006827 
L 280.691498 149.887671 
L 281.045135 149.767658 
L 281.398772 149.646788 
L 281.752409 149.525061 
L 282.106047 149.402476 
L 282.459684 149.279034 
L 282.813321 149.154735 
L 283.166958 149.029579 
L 283.520595 148.903565 
L 283.874233 148.776694 
L 284.22787 148.648966 
L 284.581507 148.520381 
L 284.935144 148.390938 
L 285.288781 148.260638 
L 285.642419 148.129481 
L 285.996056 147.997467 
L 286.349693 147.864596 
L 286.70333 147.730867 
L 287.056967 147.596281 
L 287.410605 147.460838 
L 287.764242 147.324537 
L 288.117879 147.18738 
L 288.471516 147.049365 
L 288.825153 146.910493 
L 289.178791 146.770763 
L 289.532428 146.630177 
L 289.886065 146.488733 
L 290.239702 146.346432 
L 290.59334 146.203273 
L 290.946977 146.059258 
L 291.300614 145.914385 
L 291.654251 145.768655 
L 292.007888 145.622068 
L 292.361526 145.474623 
L 292.715163 145.326322 
L 293.0688 145.177163 
L 293.422437 145.027147 
L 293.776074 144.876273 
L 294.129712 144.724542 
L 294.483349 144.571955 
L 294.836986 144.418509 
L 295.190623 144.264207 
L 295.54426 144.109047 
L 295.897898 143.953031 
L 296.251535 143.796157 
L 296.605172 143.638425 
L 296.958809 143.479837 
L 297.312447 143.320391 
L 297.666084 143.160088 
L 298.019721 142.998928 
L 298.373358 142.83691 
L 298.726995 142.674035 
L 299.080633 142.510303 
L 299.43427 142.345714 
L 299.787907 142.180268 
L 300.141544 142.013964 
L 300.495181 141.846803 
L 300.848819 141.678785 
L 301.202456 141.50991 
L 301.556093 141.340177 
L 301.90973 141.169587 
L 302.263367 140.99814 
L 302.617005 140.825836 
L 302.970642 140.652674 
L 303.324279 140.478656 
L 303.677916 140.30378 
L 304.031553 140.128046 
L 304.385191 139.951456 
L 304.738828 139.774008 
L 305.092465 139.595703 
L 305.446102 139.416541 
L 305.79974 139.236522 
L 306.153377 139.055645 
L 306.507014 138.873911 
L 306.860651 138.69132 
L 307.214288 138.507871 
L 307.567926 138.323566 
L 307.921563 138.138403 
L 308.2752 137.952383 
L 308.628837 137.765506 
L 308.982474 137.577771 
L 309.336112 137.389179 
L 309.689749 137.19973 
L 310.043386 137.009424 
L 310.397023 136.818261 
L 310.75066 136.62624 
L 311.104298 136.433362 
L 311.457935 136.239627 
L 311.811572 136.045034 
L 312.165209 135.849585 
L 312.518847 135.653278 
L 312.872484 135.456114 
L 313.226121 135.258092 
L 313.579758 135.059214 
L 313.933395 134.859478 
L 314.287033 134.658885 
L 314.64067 134.457434 
L 314.994307 134.255127 
L 315.347944 134.051962 
L 315.701581 133.84794 
L 316.055219 133.643061 
L 316.408856 133.437324 
L 316.762493 133.23073 
L 317.11613 133.023279 
L 317.469767 132.814971 
L 317.823405 132.605806 
L 318.177042 132.395783 
L 318.530679 132.184903 
L 318.884316 131.973166 
L 319.237953 131.760572 
L 319.591591 131.54712 
L 319.945228 131.332811 
L 320.298865 131.117645 
L 320.652502 130.901622 
L 321.00614 130.684741 
L 321.359777 130.467004 
L 321.713414 130.248409 
L 322.067051 130.028956 
L 322.420688 129.808647 
L 322.774326 129.58748 
L 323.127963 129.365456 
L 323.4816 129.142575 
L 323.835237 128.918836 
L 324.188874 128.694241 
L 324.542512 128.468788 
L 324.896149 128.242478 
L 325.249786 128.01531 
L 325.603423 127.787286 
L 325.95706 127.558404 
L 326.310698 127.328665 
L 326.664335 127.098069 
L 327.017972 126.866615 
L 327.371609 126.634304 
L 327.725247 126.401136 
L 328.078884 126.167111 
L 328.432521 125.932228 
L 328.786158 125.696489 
L 329.139795 125.459892 
L 329.493433 125.222438 
L 329.84707 124.984126 
L 330.200707 124.744957 
L 330.554344 124.504931 
L 330.907981 124.264048 
L 331.261619 124.022308 
L 331.615256 123.77971 
L 331.968893 123.536256 
L 332.32253 123.291943 
L 332.676167 123.046774 
L 333.029805 122.800748 
L 333.383442 122.553864 
L 333.737079 122.306123 
L 334.090716 122.057524 
L 334.444353 121.808069 
L 334.797991 121.557756 
L 335.151628 121.306586 
L 335.505265 121.054559 
L 335.858902 120.801675 
L 336.21254 120.547933 
L 336.566177 120.293334 
L 336.919814 120.037878 
L 337.273451 119.781565 
L 337.627088 119.524394 
L 337.980726 119.266366 
L 338.334363 119.007481 
L 338.688 118.747739 
L 339.041637 118.487139 
L 339.395274 118.225682 
L 339.748912 117.963368 
L 340.102549 117.700197 
L 340.456186 117.436169 
L 340.809823 117.171283 
L 341.16346 116.90554 
L 341.517098 116.63894 
L 341.870735 116.371482 
L 342.224372 116.103168 
L 342.578009 115.833996 
L 342.931647 115.563966 
L 343.285284 115.29308 
L 343.638921 115.021336 
L 343.992558 114.748736 
L 344.346195 114.475278 
L 344.699833 114.200962 
L 345.05347 113.92579 
L 345.407107 113.64976 
L 345.760744 113.372873 
L 346.114381 113.095129 
L 346.468019 112.816527 
L 346.821656 112.537068 
L 347.175293 112.256752 
L 347.52893 111.975579 
L 347.882567 111.693549 
L 348.236205 111.410661 
L 348.589842 111.126916 
L 348.943479 110.842314 
L 349.297116 110.556855 
L 349.650753 110.270538 
L 350.004391 109.983364 
L 350.358028 109.695333 
L 350.711665 109.406445 
L 351.065302 109.116699 
L 351.41894 108.826096 
L 351.772577 108.534636 
L 352.126214 108.242319 
L 352.479851 107.949145 
L 352.833488 107.655113 
L 353.187126 107.360224 
L 353.540763 107.064478 
L 353.8944 106.767874 
L 354.248037 106.470414 
L 354.248037 59.129586 
L 354.248037 59.129586 
L 353.8944 58.832126 
L 353.540763 58.535522 
L 353.187126 58.239776 
L 352.833488 57.944887 
L 352.479851 57.650855 
L 352.126214 57.357681 
L 351.772577 57.065364 
L 351.41894 56.773904 
L 351.065302 56.483301 
L 350.711665 56.193555 
L 350.358028 55.904667 
L 350.004391 55.616636 
L 349.650753 55.329462 
L 349.297116 55.043145 
L 348.943479 54.757686 
L 348.589842 54.473084 
L 348.236205 54.189339 
L 347.882567 53.906451 
L 347.52893 53.624421 
L 347.175293 53.343248 
L 346.821656 53.062932 
L 346.468019 52.783473 
L 346.114381 52.504871 
L 345.760744 52.227127 
L 345.407107 51.95024 
L 345.05347 51.67421 
L 344.699833 51.399038 
L 344.346195 51.124722 
L 343.992558 50.851264 
L 343.638921 50.578664 
L 343.285284 50.30692 
L 342.931647 50.036034 
L 342.578009 49.766004 
L 342.224372 49.496832 
L 341.870735 49.228518 
L 341.517098 48.96106 
L 341.16346 48.69446 
L 340.809823 48.428717 
L 340.456186 48.163831 
L 340.102549 47.899803 
L 339.748912 47.636632 
L 339.395274 47.374318 
L 339.041637 47.112861 
L 338.688 46.852261 
L 338.334363 46.592519 
L 337.980726 46.333634 
L 337.627088 46.075606 
L 337.273451 45.818435 
L 336.919814 45.562122 
L 336.566177 45.306666 
L 336.21254 45.052067 
L 335.858902 44.798325 
L 335.505265 44.545441 
L 335.151628 44.293414 
L 334.797991 44.042244 
L 334.444353 43.791931 
L 334.090716 43.542476 
L 333.737079 43.293877 
L 333.383442 43.046136 
L 333.029805 42.799252 
L 332.676167 42.553226 
L 332.32253 42.308057 
L 331.968893 42.063744 
L 331.615256 41.82029 
L 331.261619 41.577692 
L 330.907981 41.335952 
L 330.554344 41.095069 
L 330.200707 40.855043 
L 329.84707 40.615874 
L 329.493433 40.377562 
L 329.139795 40.140108 
L 328.786158 39.903511 
L 328.432521 39.667772 
L 328.078884 39.432889 
L 327.725247 39.198864 
L 327.371609 38.965696 
L 327.017972 38.733385 
L 326.664335 38.501931 
L 326.310698 38.271335 
L 325.95706 38.041596 
L 325.603423 37.812714 
L 325.249786 37.58469 
L 324.896149 37.357522 
L 324.542512 37.131212 
L 324.188874 36.905759 
L 323.835237 36.681164 
L 323.4816 36.457425 
L 323.127963 36.234544 
L 322.774326 36.01252 
L 322.420688 35.791353 
L 322.067051 35.571044 
L 321.713414 35.351591 
L 321.359777 35.132996 
L 321.00614 34.915259 
L 320.652502 34.698378 
L 320.298865 34.482355 
L 319.945228 34.267189 
L 319.591591 34.05288 
L 319.237953 33.839428 
L 318.884316 33.626834 
L 318.530679 33.415097 
L 318.177042 33.204217 
L 317.823405 32.994194 
L 317.469767 32.785029 
L 317.11613 32.576721 
L 316.762493 32.36927 
L 316.408856 32.162676 
L 316.055219 31.956939 
L 315.701581 31.75206 
L 315.347944 31.548038 
L 314.994307 31.344873 
L 314.64067 31.142566 
L 314.287033 30.941115 
L 313.933395 30.740522 
L 313.579758 30.540786 
L 313.226121 30.341908 
L 312.872484 30.143886 
L 312.518847 29.946722 
L 312.165209 29.750415 
L 311.811572 29.554966 
L 311.457935 29.360373 
L 311.104298 29.166638 
L 310.75066 28.97376 
L 310.397023 28.781739 
L 310.043386 28.590576 
L 309.689749 28.40027 
L 309.336112 28.210821 
L 308.982474 28.022229 
L 308.628837 27.834494 
L 308.2752 27.647617 
L 307.921563 27.461597 
L 307.567926 27.276434 
L 307.214288 27.092129 
L 306.860651 26.90868 
L 306.507014 26.726089 
L 306.153377 26.544355 
L 305.79974 26.363478 
L 305.446102 26.183459 
L 305.092465 26.004297 
L 304.738828 25.825992 
L 304.385191 25.648544 
L 304.031553 25.471954 
L 303.677916 25.29622 
L 303.324279 25.121344 
L 302.970642 24.947326 
L 302.617005 24.774164 
L 302.263367 24.60186 
L 301.90973 24.430413 
L 301.556093 24.259823 
L 301.202456 24.09009 
L 300.848819 23.921215 
L 300.495181 23.753197 
L 300.141544 23.586036 
L 299.787907 23.419732 
L 299.43427 23.254286 
L 299.080633 23.089697 
L 298.726995 22.925965 
L 298.373358 22.76309 
L 298.019721 22.601072 
L 297.666084 22.439912 
L 297.312447 22.279609 
L 296.958809 22.120163 
L 296.605172 21.961575 
L 296.251535 21.803843 
L 295.897898 21.646969 
L 295.54426 21.490953 
L 295.190623 21.335793 
L 294.836986 21.181491 
L 294.483349 21.028045 
L 294.129712 20.875458 
L 293.776074 20.723727 
L 293.422437 20.572853 
L 293.0688 20.422837 
L 292.715163 20.273678 
L 292.361526 20.125377 
L 292.007888 19.977932 
L 291.654251 19.831345 
L 291.300614 19.685615 
L 290.946977 19.540742 
L 290.59334 19.396727 
L 290.239702 19.253568 
L 289.886065 19.111267 
L 289.532428 18.969823 
L 289.178791 18.829237 
L 288.825153 18.689507 
L 288.471516 18.550635 
L 288.117879 18.41262 
L 287.764242 18.275463 
L 287.410605 18.139162 
L 287.056967 18.003719 
L 286.70333 17.869133 
L 286.349693 17.735404 
L 285.996056 17.602533 
L 285.642419 17.470519 
L 285.288781 17.339362 
L 284.935144 17.209062 
L 284.581507 17.079619 
L 284.22787 16.951034 
L 283.874233 16.823306 
L 283.520595 16.696435 
L 283.166958 16.570421 
L 282.813321 16.445265 
L 282.459684 16.320966 
L 282.106047 16.197524 
L 281.752409 16.074939 
L 281.398772 15.953212 
L 281.045135 15.832342 
L 280.691498 15.712329 
L 280.33786 15.593173 
L 279.984223 15.474875 
L 279.630586 15.357433 
L 279.276949 15.240849 
L 278.923312 15.125123 
L 278.569674 15.010253 
L 278.216037 14.896241 
L 277.8624 14.783086 
L 277.508763 14.670788 
L 277.155126 14.559347 
L 276.801488 14.448764 
L 276.447851 14.339038 
L 276.094214 14.230169 
L 275.740577 14.122157 
L 275.38694 14.015003 
L 275.033302 13.908706 
L 274.679665 13.803266 
L 274.326028 13.698683 
L 273.972391 13.594957 
L 273.618753 13.492089 
L 273.265116 13.390078 
L 272.911479 13.288924 
L 272.557842 13.188628 
L 272.204205 13.089189 
L 271.850567 12.990607 
L 271.49693 12.892882 
L 271.143293 12.796014 
L 270.789656 12.700004 
L 270.436019 12.604851 
L 270.082381 12.510555 
L 269.728744 12.417116 
L 269.375107 12.324535 
L 269.02147 12.23281 
L 268.667833 12.141943 
L 268.314195 12.051934 
L 267.960558 11.962781 
L 267.606921 11.874486 
L 267.253284 11.787048 
L 266.899647 11.700467 
L 266.546009 11.614744 
L 266.192372 11.529877 
L 265.838735 11.445868 
L 265.485098 11.362717 
L 265.13146 11.280422 
L 264.777823 11.198985 
L 264.424186 11.118404 
L 264.070549 11.038682 
L 263.716912 10.959816 
L 263.363274 10.881807 
L 263.009637 10.804656 
L 262.656 10.728362 
L 262.302363 10.652926 
L 261.948726 10.578346 
L 261.595088 10.504624 
L 261.241451 10.431759 
L 260.887814 10.359751 
L 260.534177 10.288601 
L 260.18054 10.218307 
L 259.826902 10.148871 
L 259.473265 10.080292 
L 259.119628 10.012571 
L 258.765991 9.945706 
L 258.412353 9.879699 
L 258.058716 9.814549 
L 257.705079 9.750257 
L 257.351442 9.686821 
L 256.997805 9.624243 
L 256.644167 9.562522 
L 256.29053 9.501658 
L 255.936893 9.441652 
L 255.583256 9.382503 
L 255.229619 9.324211 
L 254.875981 9.266776 
L 254.522344 9.210198 
L 254.168707 9.154478 
L 253.81507 9.099615 
L 253.461433 9.045609 
L 253.107795 8.992461 
L 252.754158 8.940169 
L 252.400521 8.888735 
L 252.046884 8.838158 
L 251.693247 8.788439 
L 251.339609 8.739576 
L 250.985972 8.691571 
L 250.632335 8.644423 
L 250.278698 8.598132 
L 249.92506 8.552699 
L 249.571423 8.508123 
L 249.217786 8.464404 
L 248.864149 8.421542 
L 248.510512 8.379537 
L 248.156874 8.33839 
L 247.803237 8.2981 
L 247.4496 8.258667 
L 247.095963 8.220092 
L 246.742326 8.182373 
L 246.388688 8.145512 
L 246.035051 8.109508 
L 245.681414 8.074362 
L 245.327777 8.040072 
L 244.97414 8.00664 
L 244.620502 7.974065 
L 244.266865 7.942347 
L 243.913228 7.911487 
L 243.559591 7.881484 
L 243.205953 7.852338 
L 242.852316 7.824049 
L 242.498679 7.796617 
L 242.145042 7.770043 
L 241.791405 7.744326 
L 241.437767 7.719466 
L 241.08413 7.695464 
L 240.730493 7.672318 
L 240.376856 7.65003 
L 240.023219 7.628599 
L 239.669581 7.608026 
L 239.315944 7.588309 
L 238.962307 7.56945 
L 238.60867 7.551448 
L 238.255033 7.534303 
L 237.901395 7.518016 
L 237.547758 7.502586 
L 237.194121 7.488013 
L 236.840484 7.474297 
L 236.486847 7.461438 
L 236.133209 7.449437 
L 235.779572 7.438293 
L 235.425935 7.428006 
L 235.072298 7.418577 
L 234.71866 7.410004 
L 234.365023 7.402289 
L 234.011386 7.395431 
L 233.657749 7.389431 
L 233.304112 7.384287 
L 232.950474 7.380001 
L 232.596837 7.376572 
L 232.2432 7.374 
L 231.889563 7.372286 
L 231.535926 7.371429 
L 231.182288 7.371429 
L 230.828651 7.372286 
L 230.475014 7.374 
L 230.121377 7.376572 
L 229.76774 7.380001 
L 229.414102 7.384287 
L 229.060465 7.389431 
L 228.706828 7.395431 
L 228.353191 7.402289 
L 227.999553 7.410004 
L 227.645916 7.418577 
L 227.292279 7.428006 
L 226.938642 7.438293 
L 226.585005 7.449437 
L 226.231367 7.461438 
L 225.87773 7.474297 
L 225.524093 7.488013 
L 225.170456 7.502586 
L 224.816819 7.518016 
L 224.463181 7.534303 
L 224.109544 7.551448 
L 223.755907 7.56945 
L 223.40227 7.588309 
L 223.048633 7.608026 
L 222.694995 7.628599 
L 222.341358 7.65003 
L 221.987721 7.672318 
L 221.634084 7.695464 
L 221.280447 7.719466 
L 220.926809 7.744326 
L 220.573172 7.770043 
L 220.219535 7.796617 
L 219.865898 7.824049 
L 219.51226 7.852338 
L 219.158623 7.881484 
L 218.804986 7.911487 
L 218.451349 7.942347 
L 218.097712 7.974065 
L 217.744074 8.00664 
L 217.390437 8.040072 
L 217.0368 8.074362 
L 216.683163 8.109508 
L 216.329526 8.145512 
L 215.975888 8.182373 
L 215.622251 8.220092 
L 215.268614 8.258667 
L 214.914977 8.2981 
L 214.56134 8.33839 
L 214.207702 8.379537 
L 213.854065 8.421542 
L 213.500428 8.464404 
L 213.146791 8.508123 
L 212.793153 8.552699 
L 212.439516 8.598132 
L 212.085879 8.644423 
L 211.732242 8.691571 
L 211.378605 8.739576 
L 211.024967 8.788439 
L 210.67133 8.838158 
L 210.317693 8.888735 
L 209.964056 8.940169 
L 209.610419 8.992461 
L 209.256781 9.045609 
L 208.903144 9.099615 
L 208.549507 9.154478 
L 208.19587 9.210198 
L 207.842233 9.266776 
L 207.488595 9.324211 
L 207.134958 9.382503 
L 206.781321 9.441652 
L 206.427684 9.501658 
L 206.074047 9.562522 
L 205.720409 9.624243 
L 205.366772 9.686821 
L 205.013135 9.750257 
L 204.659498 9.814549 
L 204.30586 9.879699 
L 203.952223 9.945706 
L 203.598586 10.012571 
L 203.244949 10.080292 
L 202.891312 10.148871 
L 202.537674 10.218307 
L 202.184037 10.288601 
L 201.8304 10.359751 
L 201.476763 10.431759 
L 201.123126 10.504624 
L 200.769488 10.578346 
L 200.415851 10.652926 
L 200.062214 10.728362 
L 199.708577 10.804656 
L 199.35494 10.881807 
L 199.001302 10.959816 
L 198.647665 11.038682 
L 198.294028 11.118404 
L 197.940391 11.198985 
L 197.586753 11.280422 
L 197.233116 11.362717 
L 196.879479 11.445868 
L 196.525842 11.529877 
L 196.172205 11.614744 
L 195.818567 11.700467 
L 195.46493 11.787048 
L 195.111293 11.874486 
L 194.757656 11.962781 
L 194.404019 12.051934 
L 194.050381 12.141943 
L 193.696744 12.23281 
L 193.343107 12.324535 
L 192.98947 12.417116 
L 192.635833 12.510555 
L 192.282195 12.604851 
L 191.928558 12.700004 
L 191.574921 12.796014 
L 191.221284 12.892882 
L 190.867647 12.990607 
L 190.514009 13.089189 
L 190.160372 13.188628 
L 189.806735 13.288924 
L 189.453098 13.390078 
L 189.09946 13.492089 
L 188.745823 13.594957 
L 188.392186 13.698683 
L 188.038549 13.803266 
L 187.684912 13.908706 
L 187.331274 14.015003 
L 186.977637 14.122157 
L 186.624 14.230169 
L 186.270363 14.339038 
L 185.916726 14.448764 
L 185.563088 14.559347 
L 185.209451 14.670788 
L 184.855814 14.783086 
L 184.502177 14.896241 
L 184.14854 15.010253 
L 183.794902 15.125123 
L 183.441265 15.240849 
L 183.087628 15.357433 
L 182.733991 15.474875 
L 182.380353 15.593173 
L 182.026716 15.712329 
L 181.673079 15.832342 
L 181.319442 15.953212 
L 180.965805 16.074939 
L 180.612167 16.197524 
L 180.25853 16.320966 
L 179.904893 16.445265 
L 179.551256 16.570421 
L 179.197619 16.696435 
L 178.843981 16.823306 
L 178.490344 16.951034 
L 178.136707 17.079619 
L 177.78307 17.209062 
L 177.429433 17.339362 
L 177.075795 17.470519 
L 176.722158 17.602533 
L 176.368521 17.735404 
L 176.014884 17.869133 
L 175.661247 18.003719 
L 175.307609 18.139162 
L 174.953972 18.275463 
L 174.600335 18.41262 
L 174.246698 18.550635 
L 173.89306 18.689507 
L 173.539423 18.829237 
L 173.185786 18.969823 
L 172.832149 19.111267 
L 172.478512 19.253568 
L 172.124874 19.396727 
L 171.771237 19.540742 
L 171.4176 19.685615 
L 171.063963 19.831345 
L 170.710326 19.977932 
L 170.356688 20.125377 
L 170.003051 20.273678 
L 169.649414 20.422837 
L 169.295777 20.572853 
L 168.94214 20.723727 
L 168.588502 20.875458 
L 168.234865 21.028045 
L 167.881228 21.181491 
L 167.527591 21.335793 
L 167.173953 21.490953 
L 166.820316 21.646969 
L 166.466679 21.803843 
L 166.113042 21.961575 
L 165.759405 22.120163 
L 165.405767 22.279609 
L 165.05213 22.439912 
L 164.698493 22.601072 
L 164.344856 22.76309 
L 163.991219 22.925965 
L 163.637581 23.089697 
L 163.283944 23.254286 
L 162.930307 23.419732 
L 162.57667 23.586036 
L 162.223033 23.753197 
L 161.869395 23.921215 
L 161.515758 24.09009 
L 161.162121 24.259823 
L 160.808484 24.430413 
L 160.454847 24.60186 
L 160.101209 24.774164 
L 159.747572 24.947326 
L 159.393935 25.121344 
L 159.040298 25.29622 
L 158.68666 25.471954 
L 158.333023 25.648544 
L 157.979386 25.825992 
L 157.625749 26.004297 
L 157.272112 26.183459 
L 156.918474 26.363478 
L 156.564837 26.544355 
L 156.2112 26.726089 
L 155.857563 26.90868 
L 155.503926 27.092129 
L 155.150288 27.276434 
L 154.796651 27.461597 
L 154.443014 27.647617 
L 154.089377 27.834494 
L 153.73574 28.022229 
L 153.382102 28.210821 
L 153.028465 28.40027 
L 152.674828 28.590576 
L 152.321191 28.781739 
L 151.967553 28.97376 
L 151.613916 29.166638 
L 151.260279 29.360373 
L 150.906642 29.554966 
L 150.553005 29.750415 
L 150.199367 29.946722 
L 149.84573 30.143886 
L 149.492093 30.341908 
L 149.138456 30.540786 
L 148.784819 30.740522 
L 148.431181 30.941115 
L 148.077544 31.142566 
L 147.723907 31.344873 
L 147.37027 31.548038 
L 147.016633 31.75206 
L 146.662995 31.956939 
L 146.309358 32.162676 
L 145.955721 32.36927 
L 145.602084 32.576721 
L 145.248447 32.785029 
L 144.894809 32.994194 
L 144.541172 33.204217 
L 144.187535 33.415097 
L 143.833898 33.626834 
L 143.48026 33.839428 
L 143.126623 34.05288 
L 142.772986 34.267189 
L 142.419349 34.482355 
L 142.065712 34.698378 
L 141.712074 34.915259 
L 141.358437 35.132996 
L 141.0048 35.351591 
L 140.651163 35.571044 
L 140.297526 35.791353 
L 139.943888 36.01252 
L 139.590251 36.234544 
L 139.236614 36.457425 
L 138.882977 36.681164 
L 138.52934 36.905759 
L 138.175702 37.131212 
L 137.822065 37.357522 
L 137.468428 37.58469 
L 137.114791 37.812714 
L 136.761153 38.041596 
L 136.407516 38.271335 
L 136.053879 38.501931 
L 135.700242 38.733385 
L 135.346605 38.965696 
L 134.992967 39.198864 
L 134.63933 39.432889 
L 134.285693 39.667772 
L 133.932056 39.903511 
L 133.578419 40.140108 
L 133.224781 40.377562 
L 132.871144 40.615874 
L 132.517507 40.855043 
L 132.16387 41.095069 
L 131.810233 41.335952 
L 131.456595 41.577692 
L 131.102958 41.82029 
L 130.749321 42.063744 
L 130.395684 42.308057 
L 130.042047 42.553226 
z
" style="fill:#0000ff;fill-opacity:0.1;stroke:#0000ff;stroke-opacity:0.1;"/>
    <path clip-path="url(#p9b8dcb0e83)" d="M 354.955312 59.427904 
L 354.955312 106.172096 
L 355.308949 105.87292 
L 355.662586 105.572888 
L 356.016223 105.271998 
L 356.36986 104.970252 
L 356.723498 104.667648 
L 357.077135 104.364186 
L 357.430772 104.059868 
L 357.784409 103.754692 
L 358.138047 103.448659 
L 358.491684 103.141769 
L 358.491684 62.458231 
L 358.491684 62.458231 
L 358.138047 62.151341 
L 357.784409 61.845308 
L 357.430772 61.540132 
L 357.077135 61.235814 
L 356.723498 60.932352 
L 356.36986 60.629748 
L 356.016223 60.328002 
L 355.662586 60.027112 
L 355.308949 59.72708 
L 354.955312 59.427904 
z
" style="fill:#0000ff;fill-opacity:0.1;stroke:#0000ff;stroke-opacity:0.1;"/>
    <path clip-path="url(#p9b8dcb0e83)" d="M 359.198958 62.765979 
L 359.198958 102.834021 
L 359.552595 102.525416 
L 359.906233 102.215954 
L 360.25987 101.905635 
L 360.613507 101.594459 
L 360.967144 101.282425 
L 361.320781 100.969534 
L 361.674419 100.655786 
L 362.028056 100.341181 
L 362.381693 100.025718 
L 362.73533 99.709398 
L 362.73533 65.890602 
L 362.73533 65.890602 
L 362.381693 65.574282 
L 362.028056 65.258819 
L 361.674419 64.944214 
L 361.320781 64.630466 
L 360.967144 64.317575 
L 360.613507 64.005541 
L 360.25987 63.694365 
L 359.906233 63.384046 
L 359.552595 63.074584 
L 359.198958 62.765979 
z
" style="fill:#0000ff;fill-opacity:0.1;stroke:#0000ff;stroke-opacity:0.1;"/>
    <path clip-path="url(#p9b8dcb0e83)" d="M 363.442605 66.207779 
L 363.442605 99.392221 
L 363.796242 99.074187 
L 364.149879 98.755295 
L 364.503516 98.435546 
L 364.857153 98.11494 
L 365.210791 97.793477 
L 365.564428 97.471156 
L 365.918065 97.147979 
L 366.271702 96.823944 
L 366.62534 96.499052 
L 366.978977 96.173302 
L 366.978977 69.426698 
L 366.978977 69.426698 
L 366.62534 69.100948 
L 366.271702 68.776056 
L 365.918065 68.452021 
L 365.564428 68.128844 
L 365.210791 67.806523 
L 364.857153 67.48506 
L 364.503516 67.164454 
L 364.149879 66.844705 
L 363.796242 66.525813 
L 363.442605 66.207779 
z
" style="fill:#0000ff;fill-opacity:0.1;stroke:#0000ff;stroke-opacity:0.1;"/>
    <path clip-path="url(#p9b8dcb0e83)" d="M 367.686251 69.753305 
L 367.686251 95.846695 
L 368.039888 95.519232 
L 368.393526 95.19091 
L 368.747163 94.861732 
L 369.1008 94.531696 
L 369.454437 94.200804 
L 369.808074 93.869053 
L 370.161712 93.536446 
L 370.515349 93.202982 
L 370.868986 92.86866 
L 371.222623 92.533481 
L 371.222623 73.066519 
L 371.222623 73.066519 
L 370.868986 72.73134 
L 370.515349 72.397018 
L 370.161712 72.063554 
L 369.808074 71.730947 
L 369.454437 71.399196 
L 369.1008 71.068304 
L 368.747163 70.738268 
L 368.393526 70.40909 
L 368.039888 70.080768 
L 367.686251 69.753305 
z
" style="fill:#0000ff;fill-opacity:0.1;stroke:#0000ff;stroke-opacity:0.1;"/>
    <path clip-path="url(#p9b8dcb0e83)" d="M 371.929898 73.402556 
L 371.929898 92.197444 
L 372.283535 91.860551 
L 372.637172 91.5228 
L 372.637172 74.0772 
L 372.637172 74.0772 
L 372.283535 73.739449 
L 371.929898 73.402556 
z
" style="fill:#0000ff;fill-opacity:0.1;stroke:#0000ff;stroke-opacity:0.1;"/>
    <path clip-path="url(#p9b8dcb0e83)" d="M 373.344447 74.415808 
L 373.344447 91.184192 
L 373.698084 90.844727 
L 374.051721 90.504405 
L 374.405358 90.163225 
L 374.758995 89.821188 
L 375.112633 89.478294 
L 375.112633 76.121706 
L 375.112633 76.121706 
L 374.758995 75.778812 
L 374.405358 75.436775 
L 374.051721 75.095595 
L 373.698084 74.755273 
L 373.344447 74.415808 
z
" style="fill:#0000ff;fill-opacity:0.1;stroke:#0000ff;stroke-opacity:0.1;"/>
    <path clip-path="url(#p9b8dcb0e83)" d="M 376.173544 76.465458 
L 376.173544 89.134542 
L 376.527181 88.789934 
L 376.880819 88.444468 
L 377.234456 88.098145 
L 377.234456 77.501855 
L 377.234456 77.501855 
L 376.880819 77.155532 
L 376.527181 76.810066 
L 376.173544 76.465458 
z
" style="fill:#0000ff;fill-opacity:0.1;stroke:#0000ff;stroke-opacity:0.1;"/>
    <path clip-path="url(#p9b8dcb0e83)" d="M 377.94173 77.849036 
L 377.94173 87.750964 
L 378.295367 87.402927 
L 378.649005 87.054032 
L 379.002642 86.70428 
L 379.356279 86.353671 
L 379.709916 86.002204 
L 380.063553 85.649881 
L 380.417191 85.2967 
L 380.417191 80.3033 
L 380.417191 80.3033 
L 380.063553 79.950119 
L 379.709916 79.597796 
L 379.356279 79.246329 
L 379.002642 78.89572 
L 378.649005 78.545968 
L 378.295367 78.197073 
L 377.94173 77.849036 
z
" style="fill:#0000ff;fill-opacity:0.1;stroke:#0000ff;stroke-opacity:0.1;"/>
    <path clip-path="url(#p9b8dcb0e83)" d="M 381.124465 80.657339 
L 381.124465 84.942661 
L 381.478102 84.587766 
L 381.83174 84.232013 
L 382.185377 83.875403 
L 382.539014 83.517936 
L 382.892651 83.159612 
L 382.892651 82.440388 
L 382.892651 82.440388 
L 382.539014 82.082064 
L 382.185377 81.724597 
L 381.83174 81.367987 
L 381.478102 81.012234 
L 381.124465 80.657339 
z
" style="fill:#0000ff;fill-opacity:0.1;stroke:#0000ff;stroke-opacity:0.1;"/>
   </g>
   <g id="matplotlib.axis_1">
    <g id="xtick_1">
     <g id="line2d_1">
      <defs>
       <path d="M 0 0 
L 0 3.5 
" id="m2a034c444b" style="stroke:#000000;stroke-width:0.8;"/>
      </defs>
      <g>
       <use style="stroke:#000000;stroke-width:0.8;" x="66.21053" xlink:href="#m2a034c444b" y="162"/>
      </g>
     </g>
     <g id="text_1">
      <!-- 1940 -->
      <g transform="translate(53.48553 176.598438)scale(0.1 -0.1)">
       <defs>
        <path d="M 794 531 
L 1825 531 
L 1825 4091 
L 703 3866 
L 703 4441 
L 1819 4666 
L 2450 4666 
L 2450 531 
L 3481 531 
L 3481 0 
L 794 0 
L 794 531 
z
" id="DejaVuSans-31" transform="scale(0.015625)"/>
        <path d="M 703 97 
L 703 672 
Q 941 559 1184 500 
Q 1428 441 1663 441 
Q 2288 441 2617 861 
Q 2947 1281 2994 2138 
Q 2813 1869 2534 1725 
Q 2256 1581 1919 1581 
Q 1219 1581 811 2004 
Q 403 2428 403 3163 
Q 403 3881 828 4315 
Q 1253 4750 1959 4750 
Q 2769 4750 3195 4129 
Q 3622 3509 3622 2328 
Q 3622 1225 3098 567 
Q 2575 -91 1691 -91 
Q 1453 -91 1209 -44 
Q 966 3 703 97 
z
M 1959 2075 
Q 2384 2075 2632 2365 
Q 2881 2656 2881 3163 
Q 2881 3666 2632 3958 
Q 2384 4250 1959 4250 
Q 1534 4250 1286 3958 
Q 1038 3666 1038 3163 
Q 1038 2656 1286 2365 
Q 1534 2075 1959 2075 
z
" id="DejaVuSans-39" transform="scale(0.015625)"/>
        <path d="M 2419 4116 
L 825 1625 
L 2419 1625 
L 2419 4116 
z
M 2253 4666 
L 3047 4666 
L 3047 1625 
L 3713 1625 
L 3713 1100 
L 3047 1100 
L 3047 0 
L 2419 0 
L 2419 1100 
L 313 1100 
L 313 1709 
L 2253 4666 
z
" id="DejaVuSans-34" transform="scale(0.015625)"/>
        <path d="M 2034 4250 
Q 1547 4250 1301 3770 
Q 1056 3291 1056 2328 
Q 1056 1369 1301 889 
Q 1547 409 2034 409 
Q 2525 409 2770 889 
Q 3016 1369 3016 2328 
Q 3016 3291 2770 3770 
Q 2525 4250 2034 4250 
z
M 2034 4750 
Q 2819 4750 3233 4129 
Q 3647 3509 3647 2328 
Q 3647 1150 3233 529 
Q 2819 -91 2034 -91 
Q 1250 -91 836 529 
Q 422 1150 422 2328 
Q 422 3509 836 4129 
Q 1250 4750 2034 4750 
z
" id="DejaVuSans-30" transform="scale(0.015625)"/>
       </defs>
       <use xlink:href="#DejaVuSans-31"/>
       <use x="63.623047" xlink:href="#DejaVuSans-39"/>
       <use x="127.246094" xlink:href="#DejaVuSans-34"/>
       <use x="190.869141" xlink:href="#DejaVuSans-30"/>
      </g>
     </g>
    </g>
    <g id="xtick_2">
     <g id="line2d_2">
      <g>
       <use style="stroke:#000000;stroke-width:0.8;" x="108.646995" xlink:href="#m2a034c444b" y="162"/>
      </g>
     </g>
     <g id="text_2">
      <!-- 1950 -->
      <g transform="translate(95.921995 176.598438)scale(0.1 -0.1)">
       <defs>
        <path d="M 691 4666 
L 3169 4666 
L 3169 4134 
L 1269 4134 
L 1269 2991 
Q 1406 3038 1543 3061 
Q 1681 3084 1819 3084 
Q 2600 3084 3056 2656 
Q 3513 2228 3513 1497 
Q 3513 744 3044 326 
Q 2575 -91 1722 -91 
Q 1428 -91 1123 -41 
Q 819 9 494 109 
L 494 744 
Q 775 591 1075 516 
Q 1375 441 1709 441 
Q 2250 441 2565 725 
Q 2881 1009 2881 1497 
Q 2881 1984 2565 2268 
Q 2250 2553 1709 2553 
Q 1456 2553 1204 2497 
Q 953 2441 691 2322 
L 691 4666 
z
" id="DejaVuSans-35" transform="scale(0.015625)"/>
       </defs>
       <use xlink:href="#DejaVuSans-31"/>
       <use x="63.623047" xlink:href="#DejaVuSans-39"/>
       <use x="127.246094" xlink:href="#DejaVuSans-35"/>
       <use x="190.869141" xlink:href="#DejaVuSans-30"/>
      </g>
     </g>
    </g>
    <g id="xtick_3">
     <g id="line2d_3">
      <g>
       <use style="stroke:#000000;stroke-width:0.8;" x="151.08346" xlink:href="#m2a034c444b" y="162"/>
      </g>
     </g>
     <g id="text_3">
      <!-- 1960 -->
      <g transform="translate(138.35846 176.598438)scale(0.1 -0.1)">
       <defs>
        <path d="M 2113 2584 
Q 1688 2584 1439 2293 
Q 1191 2003 1191 1497 
Q 1191 994 1439 701 
Q 1688 409 2113 409 
Q 2538 409 2786 701 
Q 3034 994 3034 1497 
Q 3034 2003 2786 2293 
Q 2538 2584 2113 2584 
z
M 3366 4563 
L 3366 3988 
Q 3128 4100 2886 4159 
Q 2644 4219 2406 4219 
Q 1781 4219 1451 3797 
Q 1122 3375 1075 2522 
Q 1259 2794 1537 2939 
Q 1816 3084 2150 3084 
Q 2853 3084 3261 2657 
Q 3669 2231 3669 1497 
Q 3669 778 3244 343 
Q 2819 -91 2113 -91 
Q 1303 -91 875 529 
Q 447 1150 447 2328 
Q 447 3434 972 4092 
Q 1497 4750 2381 4750 
Q 2619 4750 2861 4703 
Q 3103 4656 3366 4563 
z
" id="DejaVuSans-36" transform="scale(0.015625)"/>
       </defs>
       <use xlink:href="#DejaVuSans-31"/>
       <use x="63.623047" xlink:href="#DejaVuSans-39"/>
       <use x="127.246094" xlink:href="#DejaVuSans-36"/>
       <use x="190.869141" xlink:href="#DejaVuSans-30"/>
      </g>
     </g>
    </g>
    <g id="xtick_4">
     <g id="line2d_4">
      <g>
       <use style="stroke:#000000;stroke-width:0.8;" x="193.519926" xlink:href="#m2a034c444b" y="162"/>
      </g>
     </g>
     <g id="text_4">
      <!-- 1970 -->
      <g transform="translate(180.794926 176.598438)scale(0.1 -0.1)">
       <defs>
        <path d="M 525 4666 
L 3525 4666 
L 3525 4397 
L 1831 0 
L 1172 0 
L 2766 4134 
L 525 4134 
L 525 4666 
z
" id="DejaVuSans-37" transform="scale(0.015625)"/>
       </defs>
       <use xlink:href="#DejaVuSans-31"/>
       <use x="63.623047" xlink:href="#DejaVuSans-39"/>
       <use x="127.246094" xlink:href="#DejaVuSans-37"/>
       <use x="190.869141" xlink:href="#DejaVuSans-30"/>
      </g>
     </g>
    </g>
    <g id="xtick_5">
     <g id="line2d_5">
      <g>
       <use style="stroke:#000000;stroke-width:0.8;" x="235.956391" xlink:href="#m2a034c444b" y="162"/>
      </g>
     </g>
     <g id="text_5">
      <!-- 1980 -->
      <g transform="translate(223.231391 176.598438)scale(0.1 -0.1)">
       <defs>
        <path d="M 2034 2216 
Q 1584 2216 1326 1975 
Q 1069 1734 1069 1313 
Q 1069 891 1326 650 
Q 1584 409 2034 409 
Q 2484 409 2743 651 
Q 3003 894 3003 1313 
Q 3003 1734 2745 1975 
Q 2488 2216 2034 2216 
z
M 1403 2484 
Q 997 2584 770 2862 
Q 544 3141 544 3541 
Q 544 4100 942 4425 
Q 1341 4750 2034 4750 
Q 2731 4750 3128 4425 
Q 3525 4100 3525 3541 
Q 3525 3141 3298 2862 
Q 3072 2584 2669 2484 
Q 3125 2378 3379 2068 
Q 3634 1759 3634 1313 
Q 3634 634 3220 271 
Q 2806 -91 2034 -91 
Q 1263 -91 848 271 
Q 434 634 434 1313 
Q 434 1759 690 2068 
Q 947 2378 1403 2484 
z
M 1172 3481 
Q 1172 3119 1398 2916 
Q 1625 2713 2034 2713 
Q 2441 2713 2670 2916 
Q 2900 3119 2900 3481 
Q 2900 3844 2670 4047 
Q 2441 4250 2034 4250 
Q 1625 4250 1398 4047 
Q 1172 3844 1172 3481 
z
" id="DejaVuSans-38" transform="scale(0.015625)"/>
       </defs>
       <use xlink:href="#DejaVuSans-31"/>
       <use x="63.623047" xlink:href="#DejaVuSans-39"/>
       <use x="127.246094" xlink:href="#DejaVuSans-38"/>
       <use x="190.869141" xlink:href="#DejaVuSans-30"/>
      </g>
     </g>
    </g>
    <g id="xtick_6">
     <g id="line2d_6">
      <g>
       <use style="stroke:#000000;stroke-width:0.8;" x="278.392856" xlink:href="#m2a034c444b" y="162"/>
      </g>
     </g>
     <g id="text_6">
      <!-- 1990 -->
      <g transform="translate(265.667856 176.598438)scale(0.1 -0.1)">
       <use xlink:href="#DejaVuSans-31"/>
       <use x="63.623047" xlink:href="#DejaVuSans-39"/>
       <use x="127.246094" xlink:href="#DejaVuSans-39"/>
       <use x="190.869141" xlink:href="#DejaVuSans-30"/>
      </g>
     </g>
    </g>
    <g id="xtick_7">
     <g id="line2d_7">
      <g>
       <use style="stroke:#000000;stroke-width:0.8;" x="320.829321" xlink:href="#m2a034c444b" y="162"/>
      </g>
     </g>
     <g id="text_7">
      <!-- 2000 -->
      <g transform="translate(308.104321 176.598438)scale(0.1 -0.1)">
       <defs>
        <path d="M 1228 531 
L 3431 531 
L 3431 0 
L 469 0 
L 469 531 
Q 828 903 1448 1529 
Q 2069 2156 2228 2338 
Q 2531 2678 2651 2914 
Q 2772 3150 2772 3378 
Q 2772 3750 2511 3984 
Q 2250 4219 1831 4219 
Q 1534 4219 1204 4116 
Q 875 4013 500 3803 
L 500 4441 
Q 881 4594 1212 4672 
Q 1544 4750 1819 4750 
Q 2544 4750 2975 4387 
Q 3406 4025 3406 3419 
Q 3406 3131 3298 2873 
Q 3191 2616 2906 2266 
Q 2828 2175 2409 1742 
Q 1991 1309 1228 531 
z
" id="DejaVuSans-32" transform="scale(0.015625)"/>
       </defs>
       <use xlink:href="#DejaVuSans-32"/>
       <use x="63.623047" xlink:href="#DejaVuSans-30"/>
       <use x="127.246094" xlink:href="#DejaVuSans-30"/>
       <use x="190.869141" xlink:href="#DejaVuSans-30"/>
      </g>
     </g>
    </g>
    <g id="xtick_8">
     <g id="line2d_8">
      <g>
       <use style="stroke:#000000;stroke-width:0.8;" x="363.265786" xlink:href="#m2a034c444b" y="162"/>
      </g>
     </g>
     <g id="text_8">
      <!-- 2010 -->
      <g transform="translate(350.540786 176.598438)scale(0.1 -0.1)">
       <use xlink:href="#DejaVuSans-32"/>
       <use x="63.623047" xlink:href="#DejaVuSans-30"/>
       <use x="127.246094" xlink:href="#DejaVuSans-31"/>
       <use x="190.869141" xlink:href="#DejaVuSans-30"/>
      </g>
     </g>
    </g>
    <g id="xtick_9">
     <g id="line2d_9">
      <g>
       <use style="stroke:#000000;stroke-width:0.8;" x="405.702251" xlink:href="#m2a034c444b" y="162"/>
      </g>
     </g>
     <g id="text_9">
      <!-- 2020 -->
      <g transform="translate(392.977251 176.598438)scale(0.1 -0.1)">
       <use xlink:href="#DejaVuSans-32"/>
       <use x="63.623047" xlink:href="#DejaVuSans-30"/>
       <use x="127.246094" xlink:href="#DejaVuSans-32"/>
       <use x="190.869141" xlink:href="#DejaVuSans-30"/>
      </g>
     </g>
    </g>
   </g>
   <g id="matplotlib.axis_2">
    <g id="ytick_1">
     <g id="line2d_10">
      <defs>
       <path d="M 0 0 
L -3.5 0 
" id="mdff18dd96a" style="stroke:#000000;stroke-width:0.8;"/>
      </defs>
      <g>
       <use style="stroke:#000000;stroke-width:0.8;" x="34.56" xlink:href="#mdff18dd96a" y="159.991817"/>
      </g>
     </g>
     <g id="text_10">
      <!-- 100 -->
      <g transform="translate(0.092813 163.791036)scale(0.1 -0.1)">
       <defs>
        <path d="M 678 2272 
L 4684 2272 
L 4684 1741 
L 678 1741 
L 678 2272 
z
" id="DejaVuSans-2212" transform="scale(0.015625)"/>
       </defs>
       <use xlink:href="#DejaVuSans-2212"/>
       <use x="83.789062" xlink:href="#DejaVuSans-31"/>
       <use x="147.412109" xlink:href="#DejaVuSans-30"/>
       <use x="211.035156" xlink:href="#DejaVuSans-30"/>
      </g>
     </g>
    </g>
    <g id="ytick_2">
     <g id="line2d_11">
      <g>
       <use style="stroke:#000000;stroke-width:0.8;" x="34.56" xlink:href="#mdff18dd96a" y="121.395909"/>
      </g>
     </g>
     <g id="text_11">
      <!-- 50 -->
      <g transform="translate(6.455313 125.195127)scale(0.1 -0.1)">
       <use xlink:href="#DejaVuSans-2212"/>
       <use x="83.789062" xlink:href="#DejaVuSans-35"/>
       <use x="147.412109" xlink:href="#DejaVuSans-30"/>
      </g>
     </g>
    </g>
    <g id="ytick_3">
     <g id="line2d_12">
      <g>
       <use style="stroke:#000000;stroke-width:0.8;" x="34.56" xlink:href="#mdff18dd96a" y="82.8"/>
      </g>
     </g>
     <g id="text_12">
      <!-- 0 -->
      <g transform="translate(21.1975 86.599219)scale(0.1 -0.1)">
       <use xlink:href="#DejaVuSans-30"/>
      </g>
     </g>
    </g>
    <g id="ytick_4">
     <g id="line2d_13">
      <g>
       <use style="stroke:#000000;stroke-width:0.8;" x="34.56" xlink:href="#mdff18dd96a" y="44.204091"/>
      </g>
     </g>
     <g id="text_13">
      <!-- 50 -->
      <g transform="translate(14.835 48.00331)scale(0.1 -0.1)">
       <use xlink:href="#DejaVuSans-35"/>
       <use x="63.623047" xlink:href="#DejaVuSans-30"/>
      </g>
     </g>
    </g>
    <g id="ytick_5">
     <g id="line2d_14">
      <g>
       <use style="stroke:#000000;stroke-width:0.8;" x="34.56" xlink:href="#mdff18dd96a" y="5.608183"/>
      </g>
     </g>
     <g id="text_14">
      <!-- 100 -->
      <g transform="translate(8.4725 9.407401)scale(0.1 -0.1)">
       <use xlink:href="#DejaVuSans-31"/>
       <use x="63.623047" xlink:href="#DejaVuSans-30"/>
       <use x="127.246094" xlink:href="#DejaVuSans-30"/>
      </g>
     </g>
    </g>
   </g>
   <g id="line2d_15">
    <path clip-path="url(#p9b8dcb0e83)" d="M 66.387349 82.86496 
L 66.740986 83.45921 
L 67.094623 83.744019 
L 67.44826 84.174264 
L 67.801898 84.370564 
L 69.216447 85.758873 
L 69.570084 85.793741 
L 69.923721 86.073772 
L 70.630995 86.38108 
L 70.984633 86.801799 
L 71.691907 87.170932 
L 72.045544 87.467648 
L 72.752819 87.663079 
L 73.106456 88.053021 
L 74.167367 88.018717 
L 74.874642 87.96812 
L 75.228279 87.879924 
L 75.581916 87.079252 
L 80.886474 90.600219 
L 81.240112 91.13603 
L 81.947386 91.685179 
L 82.65466 91.662027 
L 83.008298 91.728433 
L 83.715572 91.541538 
L 84.069209 91.608489 
L 85.130121 92.377435 
L 85.837395 92.976696 
L 87.251944 93.606634 
M 100.336521 93.68385 
L 100.690158 93.816332 
L 102.104707 94.788678 
L 102.458344 94.843406 
L 102.811981 95.224774 
L 103.519256 95.448957 
L 103.872893 95.630107 
L 104.22653 95.952471 
L 105.994716 95.895127 
L 106.348353 95.906263 
L 107.055628 95.786518 
L 107.762902 95.760383 
L 108.11654 96.062534 
L 109.177451 96.445269 
L 110.238363 97.681433 
L 111.652912 99.35813 
L 112.006549 99.471229 
L 112.360186 99.72049 
L 112.713823 99.832085 
L 113.774735 100.656378 
L 114.835647 101.811132 
L 115.542921 102.953599 
L 115.896558 103.100381 
L 116.250195 102.880414 
L 116.603833 103.507323 
L 117.311107 103.625077 
L 117.664744 103.841582 
L 118.725656 105.096328 
L 119.43293 105.994261 
L 120.493842 106.871542 
L 120.847479 106.932372 
L 121.201116 107.160817 
L 121.554753 107.155784 
L 122.615665 108.111906 
L 122.969302 108.656888 
L 123.676577 109.339498 
L 124.030214 109.788228 
L 124.737488 110.085519 
L 125.444763 110.521878 
M 130.042047 110.397965 
L 130.749321 109.57981 
L 131.810233 110.084977 
L 132.16387 109.966184 
L 132.871144 109.54331 
L 133.224781 109.596582 
L 133.578419 109.377714 
L 134.285693 109.372148 
L 134.63933 108.684232 
L 134.992967 108.291895 
L 135.346605 108.235846 
L 136.053879 108.414657 
L 136.407516 108.202153 
L 136.761153 108.355279 
L 138.52934 107.759836 
L 138.882977 107.814599 
L 139.236614 108.037953 
L 139.590251 107.820035 
L 140.297526 107.938769 
L 141.0048 108.203809 
L 141.712074 108.296574 
L 142.065712 107.947353 
L 142.419349 107.918985 
L 143.126623 108.355244 
L 143.833898 108.145706 
L 144.187535 108.274278 
L 144.541172 108.151257 
L 145.248447 108.268127 
L 146.309358 107.792261 
L 146.662995 107.90193 
L 147.37027 107.151633 
L 149.492093 105.922668 
L 149.84573 105.269799 
L 150.199367 105.17583 
L 150.906642 105.306785 
L 151.613916 105.215717 
L 152.674828 104.932283 
L 153.73574 105.311486 
L 154.089377 105.125263 
L 154.443014 105.105187 
L 154.796651 105.288603 
L 155.857563 105.155514 
L 156.2112 105.203972 
L 156.918474 105.006983 
L 157.272112 104.86288 
L 157.979386 105.022363 
L 158.68666 104.767913 
L 159.040298 104.460492 
L 159.393935 104.464858 
L 160.808484 103.76848 
L 161.515758 103.529331 
L 163.991219 102.308508 
L 164.344856 101.749769 
L 165.05213 101.494454 
L 165.405767 101.35171 
L 166.820316 100.215156 
L 167.173953 100.087122 
L 168.588502 99.107867 
L 169.649414 98.583175 
L 170.003051 98.667833 
L 171.771237 97.717038 
L 172.124874 97.383065 
L 173.185786 96.870556 
L 174.246698 96.29156 
L 174.953972 96.292136 
L 176.368521 95.574387 
L 177.429433 95.294239 
L 178.843981 94.507863 
L 179.904893 93.994453 
L 180.25853 93.663022 
L 181.673079 93.034041 
L 182.026716 92.946723 
L 182.733991 93.078847 
L 183.441265 93.124237 
L 183.794902 93.229932 
L 184.14854 93.476212 
L 184.502177 93.487715 
L 185.563088 93.260668 
L 186.270363 93.329073 
L 186.624 93.574958 
L 186.977637 93.627352 
L 187.331274 93.809914 
L 187.684912 93.618817 
L 188.745823 93.858562 
L 189.09946 93.746698 
L 189.453098 93.86548 
L 191.221284 93.814536 
L 191.574921 94.084052 
L 191.928558 94.07251 
L 192.635833 94.414596 
L 192.98947 94.448618 
L 194.050381 94.857116 
L 194.404019 94.737285 
L 195.111293 94.934405 
L 195.46493 94.767447 
L 195.818567 95.018374 
L 196.172205 94.922856 
L 196.525842 95.071959 
L 196.879479 95.023798 
L 197.233116 95.214286 
L 197.586753 95.021688 
L 197.940391 95.171884 
L 199.001302 95.311035 
L 200.769488 96.135208 
L 201.8304 95.938417 
L 202.891312 96.202401 
L 203.952223 96.594418 
L 204.30586 96.667969 
L 204.659498 96.590942 
L 205.013135 96.651711 
L 205.720409 96.518891 
L 207.488595 96.499333 
L 208.549507 96.869273 
L 208.903144 96.727432 
L 210.317693 96.874943 
L 211.024967 97.26181 
L 211.732242 97.320399 
L 212.793153 98.543585 
L 213.146791 98.514914 
L 213.854065 98.81445 
L 214.207702 99.170596 
L 214.914977 99.393255 
L 217.0368 100.36697 
L 217.390437 100.299708 
L 217.744074 100.585262 
L 218.097712 100.661098 
L 218.451349 100.899697 
L 219.158623 100.921677 
L 219.865898 101.099192 
L 220.219535 101.058829 
L 220.573172 101.33851 
L 220.926809 101.467799 
L 221.987721 101.451612 
L 223.755907 102.302413 
L 224.109544 102.599823 
L 225.87773 103.079659 
L 226.231367 103.137119 
L 226.585005 103.42556 
L 227.292279 103.347177 
L 227.645916 103.435709 
L 228.353191 103.948932 
L 229.060465 103.836052 
L 229.414102 104.162316 
L 230.475014 104.720579 
L 231.535926 104.673615 
L 232.2432 104.764618 
L 232.596837 105.020249 
L 232.950474 105.11061 
L 233.657749 105.681673 
L 234.71866 106.293818 
L 235.779572 106.203475 
L 236.133209 106.294071 
L 236.486847 106.201038 
L 236.840484 106.251101 
L 239.315944 105.744707 
L 239.669581 105.483853 
L 240.023219 105.361129 
L 240.376856 105.391741 
L 240.730493 105.225122 
L 241.08413 105.208439 
L 241.437767 104.987681 
L 242.145042 105.063221 
L 243.559591 105.187992 
L 244.266865 105.024485 
L 244.97414 105.317545 
L 246.035051 105.740549 
L 246.388688 105.736689 
L 246.742326 105.466961 
L 247.095963 105.487666 
L 247.4496 105.360587 
L 247.803237 105.388381 
L 249.217786 104.917213 
L 249.92506 105.011251 
L 250.632335 104.961527 
L 251.339609 104.53838 
L 252.046884 104.449879 
L 252.400521 104.3244 
L 252.754158 104.462289 
L 253.81507 104.362845 
L 254.168707 104.507015 
L 254.522344 104.506793 
L 254.875981 104.759254 
L 255.229619 104.865193 
L 256.29053 104.6926 
L 257.351442 104.681006 
L 258.058716 104.630859 
L 258.412353 104.689473 
L 258.765991 104.502656 
L 260.18054 104.615493 
L 260.887814 104.211708 
L 261.595088 104.25457 
L 262.302363 103.946609 
L 263.009637 103.924375 
L 263.716912 103.534847 
L 264.070549 103.324909 
L 265.485098 103.442663 
L 265.838735 103.121642 
L 266.546009 102.933906 
L 267.253284 103.458942 
L 268.314195 103.971447 
L 268.667833 104.147652 
L 269.728744 103.937758 
L 270.436019 104.099428 
L 271.49693 104.292385 
L 272.911479 104.991051 
L 273.972391 104.82713 
L 274.326028 105.131873 
L 274.679665 105.216767 
L 275.033302 105.474061 
L 275.38694 105.486008 
L 276.447851 104.959797 
L 276.801488 105.056992 
L 277.155126 104.930558 
L 277.508763 105.089366 
L 277.8624 104.878055 
L 278.569674 104.973231 
L 278.923312 105.133441 
L 279.630586 105.143603 
L 279.984223 104.790776 
L 280.691498 104.881986 
L 281.045135 104.683154 
L 283.520595 104.567242 
L 284.22787 104.822034 
L 284.581507 104.90088 
L 285.996056 104.360385 
L 287.056967 103.996028 
L 288.117879 104.148283 
L 288.825153 103.226399 
L 290.239702 102.557986 
L 290.946977 102.506193 
L 292.007888 102.291713 
L 293.0688 101.404864 
L 293.776074 101.234559 
L 294.483349 101.112859 
L 294.836986 100.950696 
L 295.190623 100.964217 
L 295.54426 100.791835 
L 296.251535 100.834347 
L 297.312447 100.004761 
L 297.666084 99.395387 
L 298.373358 98.867665 
L 298.726995 98.864314 
L 299.080633 98.633278 
L 300.848819 98.417729 
L 301.202456 98.363607 
L 301.556093 98.193604 
L 301.90973 97.875781 
L 302.263367 97.327435 
L 302.617005 97.222562 
L 303.324279 97.390487 
L 306.153377 96.431626 
L 306.860651 96.009413 
L 307.214288 96.054951 
L 307.567926 95.98734 
L 307.921563 95.622395 
L 308.982474 95.805485 
L 309.689749 95.654325 
L 311.104298 94.716186 
L 312.165209 94.840674 
L 313.579758 94.890847 
L 313.933395 94.779015 
L 314.64067 94.712266 
L 315.347944 94.535547 
L 315.701581 94.480525 
L 316.762493 94.889131 
L 317.11613 94.733035 
L 317.469767 94.753891 
L 319.591591 93.508562 
L 319.945228 93.34384 
L 320.298865 93.389384 
L 321.00614 93.10545 
L 321.713414 93.024804 
L 323.835237 92.436053 
L 324.188874 92.499121 
L 324.542512 92.808146 
L 324.896149 92.935257 
L 325.95706 92.945203 
L 326.310698 92.94241 
L 326.664335 92.376925 
L 327.017972 92.296326 
L 327.371609 91.753645 
L 328.078884 91.589077 
L 328.786158 91.485345 
L 329.139795 91.351969 
L 329.493433 91.340886 
L 329.84707 91.218208 
L 330.200707 91.238165 
L 332.32253 90.156041 
L 332.676167 90.27852 
L 333.737079 89.96372 
L 334.090716 89.729875 
L 334.444353 89.71465 
L 336.21254 87.728282 
L 336.566177 87.872879 
L 337.273451 87.609036 
L 337.627088 87.618752 
L 339.395274 86.599224 
L 339.748912 86.529118 
L 340.809823 85.937498 
L 341.16346 86.101837 
L 342.931647 85.612422 
L 344.699833 84.511692 
L 345.05347 84.496902 
L 345.407107 84.609019 
L 345.760744 84.868434 
L 346.821656 84.650315 
L 347.52893 84.669567 
L 348.236205 84.032898 
L 348.589842 83.418481 
L 349.297116 83.410874 
L 350.004391 83.625136 
L 351.41894 83.470685 
L 351.772577 82.79974 
L 352.479851 82.490361 
L 352.833488 82.717652 
L 353.187126 82.629583 
L 353.8944 82.591036 
L 354.248037 82.587343 
M 354.955312 82.28469 
L 355.308949 82.432718 
L 357.077135 81.200647 
L 357.430772 81.233954 
L 357.784409 81.109154 
L 358.138047 81.32249 
L 358.491684 81.391859 
M 359.198958 81.321727 
L 360.25987 81.398033 
L 360.967144 81.27181 
L 361.674419 81.241758 
L 362.381693 81.143986 
L 362.73533 81.283299 
M 363.442605 81.374829 
L 364.149879 81.585464 
L 364.503516 81.295493 
L 364.857153 81.26362 
L 365.564428 80.883143 
L 366.271702 80.90647 
L 366.978977 80.867497 
M 367.686251 80.864232 
L 368.039888 81.059301 
L 368.393526 81.079663 
L 368.747163 81.420988 
L 369.808074 81.41385 
L 371.222623 82.006705 
M 371.929898 82.00001 
L 372.283535 82.137857 
L 372.637172 82.098032 
M 373.344447 81.957834 
L 373.698084 81.985457 
L 374.051721 81.894253 
L 375.112633 82.432737 
M 376.173544 82.741177 
L 376.880819 82.681151 
L 377.234456 82.696975 
M 377.94173 82.541106 
L 378.295367 82.184345 
L 378.649005 82.185886 
L 379.002642 82.391026 
L 380.063553 82.443371 
L 380.417191 82.811221 
M 381.124465 82.939918 
L 381.83174 82.594962 
L 382.185377 82.722615 
L 382.539014 82.616817 
L 382.892651 82.8 
L 382.892651 82.8 
" style="fill:none;stroke:#1f77b4;stroke-linecap:square;stroke-width:1.5;"/>
   </g>
   <g id="line2d_16">
    <path clip-path="url(#p9b8dcb0e83)" d="M 34.56 82.8 
L 414.72 82.8 
" style="fill:none;stroke:#000000;stroke-dasharray:1.5,2.475;stroke-dashoffset:0;stroke-width:1.5;"/>
   </g>
   <g id="patch_3">
    <path d="M 34.56 162 
L 34.56 3.6 
" style="fill:none;stroke:#000000;stroke-linecap:square;stroke-linejoin:miter;stroke-width:0.8;"/>
   </g>
   <g id="patch_4">
    <path d="M 414.72 162 
L 414.72 3.6 
" style="fill:none;stroke:#000000;stroke-linecap:square;stroke-linejoin:miter;stroke-width:0.8;"/>
   </g>
   <g id="patch_5">
    <path d="M 34.56 162 
L 414.72 162 
" style="fill:none;stroke:#000000;stroke-linecap:square;stroke-linejoin:miter;stroke-width:0.8;"/>
   </g>
   <g id="patch_6">
    <path d="M 34.56 3.6 
L 414.72 3.6 
" style="fill:none;stroke:#000000;stroke-linecap:square;stroke-linejoin:miter;stroke-width:0.8;"/>
   </g>
  </g>
 </g>
 <defs>
  <clipPath id="p9b8dcb0e83">
   <rect height="158.4" width="380.16" x="34.56" y="3.6"/>
  </clipPath>
 </defs>
</svg>
