<?xml version="1.0" encoding="utf-8" standalone="no"?>
<!DOCTYPE svg PUBLIC "-//W3C//DTD SVG 1.1//EN"
  "http://www.w3.org/Graphics/SVG/1.1/DTD/svg11.dtd">
<svg height="180pt" version="1.1" viewBox="0 0 432 180" width="432pt" xmlns="http://www.w3.org/2000/svg" xmlns:xlink="http://www.w3.org/1999/xlink">
 <metadata>
  <rdf:RDF xmlns:cc="http://creativecommons.org/ns#" xmlns:dc="http://purl.org/dc/elements/1.1/" xmlns:rdf="http://www.w3.org/1999/02/22-rdf-syntax-ns#">
   <cc:Work>
    <dc:type rdf:resource="http://purl.org/dc/dcmitype/StillImage"/>
    <dc:date>2021-08-12T10:41:46.579461</dc:date>
    <dc:format>image/svg+xml</dc:format>
    <dc:creator>
     <cc:Agent>
      <dc:title>Matplotlib v3.4.2, https://matplotlib.org/</dc:title>
     </cc:Agent>
    </dc:creator>
   </cc:Work>
  </rdf:RDF>
 </metadata>
 <defs>
  <style type="text/css">*{stroke-linecap:butt;stroke-linejoin:round;}</style>
 </defs>
 <g id="figure_1">
  <g id="patch_1">
   <path d="M 0 180 
L 432 180 
L 432 0 
L 0 0 
z
" style="fill:#ffffff;"/>
  </g>
  <g id="axes_1">
   <g id="patch_2">
    <path d="M 34.56 162 
L 414.72 162 
L 414.72 3.6 
L 34.56 3.6 
z
" style="fill:#ffffff;"/>
   </g>
   <g id="PolyCollection_1">
    <path clip-path="url(#p71112ff471)" d="M 67.681394 82.359541 
L 67.681394 83.240459 
L 68.049409 83.678986 
L 68.417425 84.116227 
L 68.78544 84.552182 
L 69.153456 84.986851 
L 69.521471 85.420234 
L 69.889487 85.852331 
L 70.257502 86.283142 
L 70.625518 86.712667 
L 70.993533 87.140905 
L 71.361549 87.567858 
L 71.729564 87.993525 
L 72.09758 88.417906 
L 72.465595 88.841001 
L 72.833611 89.26281 
L 73.201626 89.683333 
L 73.569642 90.10257 
L 73.937657 90.520521 
L 74.305673 90.937186 
L 74.673688 91.352565 
L 75.041704 91.766658 
L 75.409719 92.179465 
L 75.777735 92.590986 
L 76.14575 93.00122 
L 76.513766 93.410169 
L 76.881781 93.817832 
L 77.249797 94.224209 
L 77.617812 94.6293 
L 77.985828 95.033105 
L 78.353843 95.435624 
L 78.721859 95.836857 
L 79.089874 96.236804 
L 79.45789 96.635465 
L 79.825905 97.032839 
L 80.193921 97.428928 
L 80.561936 97.823731 
L 80.929952 98.217248 
L 81.297967 98.609479 
L 81.665983 99.000424 
L 82.033998 99.390083 
L 82.402014 99.778456 
L 82.770029 100.165542 
L 83.138045 100.551343 
L 83.50606 100.935858 
L 83.874076 101.319087 
L 84.242091 101.70103 
L 84.610106 102.081687 
L 84.978122 102.461058 
L 85.346137 102.839142 
L 85.714153 103.215941 
L 86.082168 103.591454 
L 86.450184 103.965681 
L 86.818199 104.338622 
L 87.186215 104.710277 
L 87.55423 105.080645 
L 87.922246 105.449728 
L 88.290261 105.817525 
L 88.658277 106.184036 
L 89.026292 106.549261 
L 89.394308 106.913199 
L 89.762323 107.275852 
L 90.130339 107.637219 
L 90.498354 107.9973 
L 90.86637 108.356095 
L 91.234385 108.713603 
L 91.602401 109.069826 
L 91.970416 109.424763 
L 92.338432 109.778414 
L 92.706447 110.130779 
L 93.074463 110.481857 
L 93.442478 110.83165 
L 93.810494 111.180157 
L 94.178509 111.527378 
L 94.546525 111.873312 
L 94.91454 112.217961 
L 95.282556 112.561324 
L 95.650571 112.903401 
L 96.018587 113.244191 
L 96.386602 113.583696 
L 96.754618 113.921915 
L 97.122633 114.258848 
L 97.490649 114.594494 
L 97.858664 114.928855 
L 98.22668 115.26193 
L 98.594695 115.593719 
L 98.962711 115.924221 
L 99.330726 116.253438 
L 99.698742 116.581369 
L 100.066757 116.908014 
L 100.434773 117.233372 
L 100.802788 117.557445 
L 101.170803 117.880232 
L 101.538819 118.201732 
L 101.906834 118.521947 
L 102.27485 118.840876 
L 102.642865 119.158519 
L 103.010881 119.474875 
L 103.378896 119.789946 
L 103.746912 120.103731 
L 104.114927 120.416229 
L 104.482943 120.727442 
L 104.850958 121.037369 
L 105.218974 121.346009 
L 105.586989 121.653364 
L 105.955005 121.959433 
L 106.32302 122.264216 
L 106.691036 122.567712 
L 107.059051 122.869923 
L 107.427067 123.170848 
L 107.795082 123.470486 
L 108.163098 123.768839 
L 108.531113 124.065906 
L 108.899129 124.361686 
L 109.267144 124.656181 
L 109.63516 124.949389 
L 110.003175 125.241312 
L 110.371191 125.531949 
L 110.739206 125.821299 
L 111.107222 126.109364 
L 111.475237 126.396143 
L 111.843253 126.681635 
L 112.211268 126.965842 
L 112.579284 127.248763 
L 112.947299 127.530397 
L 113.315315 127.810746 
L 113.68333 128.089808 
L 114.051346 128.367585 
L 114.419361 128.644076 
L 114.787377 128.91928 
L 115.155392 129.193199 
L 115.523408 129.465832 
L 115.891423 129.737178 
L 116.259439 130.007239 
L 116.627454 130.276013 
L 116.99547 130.543502 
L 117.363485 130.809705 
L 117.7315 131.074621 
L 118.099516 131.338252 
L 118.467531 131.600596 
L 118.835547 131.861655 
L 119.203562 132.121427 
L 119.571578 132.379914 
L 119.939593 132.637115 
L 120.307609 132.893029 
L 120.675624 133.147658 
L 121.04364 133.401 
L 121.411655 133.653057 
L 121.779671 133.903827 
L 122.147686 134.153312 
L 122.515702 134.40151 
L 122.883717 134.648423 
L 123.251733 134.89405 
L 123.619748 135.13839 
L 123.987764 135.381445 
L 124.355779 135.623213 
L 124.723795 135.863696 
L 125.09181 136.102892 
L 125.459826 136.340803 
L 125.827841 136.577427 
L 126.195857 136.812766 
L 126.563872 137.046818 
L 126.931888 137.279585 
L 127.299903 137.511065 
L 127.667919 137.74126 
L 128.035934 137.970168 
L 128.40395 138.197791 
L 128.771965 138.424127 
L 129.139981 138.649178 
L 129.507996 138.872942 
L 129.876012 139.095421 
L 130.244027 139.316613 
L 130.612043 139.53652 
L 130.980058 139.75514 
L 131.348074 139.972475 
L 131.716089 140.188523 
L 132.084105 140.403286 
L 132.45212 140.616762 
L 132.820136 140.828953 
L 133.188151 141.039857 
L 133.556167 141.249476 
L 133.924182 141.457808 
L 134.292197 141.664855 
L 134.660213 141.870615 
L 135.028228 142.07509 
L 135.396244 142.278278 
L 135.764259 142.48018 
L 136.132275 142.680797 
L 136.50029 142.880127 
L 136.868306 143.078172 
L 137.236321 143.27493 
L 137.604337 143.470403 
L 137.972352 143.664589 
L 138.340368 143.857489 
L 138.708383 144.049104 
L 139.076399 144.239432 
L 139.444414 144.428475 
L 139.81243 144.616231 
L 140.180445 144.802702 
L 140.548461 144.987886 
L 140.916476 145.171784 
L 141.284492 145.354397 
L 141.652507 145.535723 
L 142.020523 145.715764 
L 142.388538 145.894518 
L 142.756554 146.071986 
L 143.124569 146.248169 
L 143.492585 146.423065 
L 143.8606 146.596676 
L 144.228616 146.769 
L 144.596631 146.940038 
L 144.964647 147.109791 
L 145.332662 147.278257 
L 145.700678 147.445437 
L 146.068693 147.611332 
L 146.436709 147.77594 
L 146.804724 147.939263 
L 147.17274 148.101299 
L 147.540755 148.262049 
L 147.908771 148.421514 
L 148.276786 148.579692 
L 148.644802 148.736584 
L 149.012817 148.892191 
L 149.380833 149.046511 
L 149.748848 149.199545 
L 150.116864 149.351294 
L 150.484879 149.501756 
L 150.852894 149.650932 
L 151.22091 149.798823 
L 151.588925 149.945427 
L 151.956941 150.090745 
L 152.324956 150.234778 
L 152.692972 150.377524 
L 153.060987 150.518984 
L 153.429003 150.659159 
L 153.797018 150.798047 
L 154.165034 150.935649 
L 154.533049 151.071966 
L 154.901065 151.206996 
L 155.26908 151.34074 
L 155.637096 151.473198 
L 156.005111 151.604371 
L 156.373127 151.734257 
L 156.741142 151.862857 
L 157.109158 151.990172 
L 157.477173 152.1162 
L 157.845189 152.240942 
L 158.213204 152.364398 
L 158.58122 152.486569 
L 158.949235 152.607453 
L 159.317251 152.727051 
L 159.685266 152.845363 
L 160.053282 152.96239 
L 160.421297 153.07813 
L 160.789313 153.192584 
L 161.157328 153.305752 
L 161.525344 153.417635 
L 161.893359 153.528231 
L 162.261375 153.637541 
L 162.62939 153.745565 
L 162.997406 153.852304 
L 163.365421 153.957756 
L 163.733437 154.061922 
L 164.101452 154.164802 
L 164.469468 154.266397 
L 164.837483 154.366705 
L 165.205499 154.465727 
L 165.573514 154.563463 
L 165.94153 154.659913 
L 166.309545 154.755078 
L 166.677561 154.848956 
L 167.045576 154.941548 
L 167.413591 155.032854 
L 167.781607 155.122875 
L 168.149622 155.211609 
L 168.517638 155.299057 
L 168.885653 155.385219 
L 169.253669 155.470095 
L 169.621684 155.553685 
L 169.9897 155.63599 
L 170.357715 155.717008 
L 170.725731 155.79674 
L 171.093746 155.875186 
L 171.461762 155.952346 
L 171.829777 156.028221 
L 172.197793 156.102809 
L 172.565808 156.176111 
L 172.933824 156.248127 
L 173.301839 156.318857 
L 173.669855 156.388301 
L 174.03787 156.456459 
L 174.405886 156.523332 
L 174.773901 156.588918 
L 175.141917 156.653218 
L 175.509932 156.716232 
L 175.877948 156.77796 
L 176.245963 156.838402 
L 176.613979 156.897558 
L 176.981994 156.955429 
L 177.35001 157.012013 
L 177.718025 157.067311 
L 178.086041 157.121323 
L 178.454056 157.174049 
L 178.822072 157.225489 
L 179.190087 157.275643 
L 179.558103 157.324511 
L 179.926118 157.372094 
L 180.294134 157.41839 
L 180.662149 157.4634 
L 181.030165 157.507124 
L 181.39818 157.549562 
L 181.766196 157.590714 
L 182.134211 157.63058 
L 182.502227 157.66916 
L 182.870242 157.706454 
L 183.238258 157.742462 
L 183.606273 157.777184 
L 183.974288 157.81062 
L 184.342304 157.842771 
L 184.710319 157.873635 
L 185.078335 157.903213 
L 185.44635 157.931505 
L 185.814366 157.958511 
L 186.182381 157.984231 
L 186.550397 158.008665 
L 186.918412 158.031813 
L 187.286428 158.053675 
L 187.654443 158.074251 
L 188.022459 158.093541 
L 188.390474 158.111545 
L 188.75849 158.128263 
L 189.126505 158.143695 
L 189.494521 158.157841 
L 189.862536 158.170701 
L 190.230552 158.182275 
L 190.598567 158.192563 
L 190.966583 158.201565 
L 191.334598 158.209281 
L 191.702614 158.215711 
L 192.070629 158.220855 
L 192.438645 158.224713 
L 192.80666 158.227285 
L 193.174676 158.228571 
L 193.542691 158.228571 
L 193.910707 158.227285 
L 194.278722 158.224713 
L 194.646738 158.220855 
L 195.014753 158.215711 
L 195.382769 158.209281 
L 195.750784 158.201565 
L 196.1188 158.192563 
L 196.486815 158.182275 
L 196.854831 158.170701 
L 197.222846 158.157841 
L 197.590862 158.143695 
L 197.958877 158.128263 
L 198.326893 158.111545 
L 198.694908 158.093541 
L 199.062924 158.074251 
L 199.430939 158.053675 
L 199.798955 158.031813 
L 200.16697 158.008665 
L 200.534985 157.984231 
L 200.903001 157.958511 
L 201.271016 157.931505 
L 201.639032 157.903213 
L 202.007047 157.873635 
L 202.375063 157.842771 
L 202.743078 157.81062 
L 203.111094 157.777184 
L 203.479109 157.742462 
L 203.847125 157.706454 
L 204.21514 157.66916 
L 204.583156 157.63058 
L 204.951171 157.590714 
L 205.319187 157.549562 
L 205.687202 157.507124 
L 206.055218 157.4634 
L 206.423233 157.41839 
L 206.791249 157.372094 
L 207.159264 157.324511 
L 207.52728 157.275643 
L 207.895295 157.225489 
L 208.263311 157.174049 
L 208.631326 157.121323 
L 208.999342 157.067311 
L 209.367357 157.012013 
L 209.735373 156.955429 
L 210.103388 156.897558 
L 210.471404 156.838402 
L 210.839419 156.77796 
L 211.207435 156.716232 
L 211.57545 156.653218 
L 211.943466 156.588918 
L 212.311481 156.523332 
L 212.679497 156.456459 
L 213.047512 156.388301 
L 213.415528 156.318857 
L 213.783543 156.248127 
L 214.151559 156.176111 
L 214.519574 156.102809 
L 214.88759 156.028221 
L 215.255605 155.952346 
L 215.623621 155.875186 
L 215.991636 155.79674 
L 216.359652 155.717008 
L 216.727667 155.63599 
L 217.095682 155.553685 
L 217.463698 155.470095 
L 217.831713 155.385219 
L 218.199729 155.299057 
L 218.567744 155.211609 
L 218.93576 155.122875 
L 219.303775 155.032854 
L 219.671791 154.941548 
L 220.039806 154.848956 
L 220.407822 154.755078 
L 220.775837 154.659913 
L 221.143853 154.563463 
L 221.511868 154.465727 
L 221.879884 154.366705 
L 222.247899 154.266397 
L 222.615915 154.164802 
L 222.98393 154.061922 
L 223.351946 153.957756 
L 223.719961 153.852304 
L 224.087977 153.745565 
L 224.455992 153.637541 
L 224.824008 153.528231 
L 225.192023 153.417635 
L 225.560039 153.305752 
L 225.928054 153.192584 
L 226.29607 153.07813 
L 226.664085 152.96239 
L 227.032101 152.845363 
L 227.400116 152.727051 
L 227.768132 152.607453 
L 228.136147 152.486569 
L 228.504163 152.364398 
L 228.872178 152.240942 
L 229.240194 152.1162 
L 229.608209 151.990172 
L 229.976225 151.862857 
L 230.34424 151.734257 
L 230.712256 151.604371 
L 231.080271 151.473198 
L 231.448287 151.34074 
L 231.816302 151.206996 
L 232.184318 151.071966 
L 232.552333 150.935649 
L 232.920348 150.798047 
L 233.288364 150.659159 
L 233.656379 150.518984 
L 234.024395 150.377524 
L 234.39241 150.234778 
L 234.760426 150.090745 
L 235.128441 149.945427 
L 235.496457 149.798823 
L 235.864472 149.650932 
L 236.232488 149.501756 
L 236.600503 149.351294 
L 236.968519 149.199545 
L 237.336534 149.046511 
L 237.70455 148.892191 
L 238.072565 148.736584 
L 238.440581 148.579692 
L 238.808596 148.421514 
L 239.176612 148.262049 
L 239.544627 148.101299 
L 239.912643 147.939263 
L 240.280658 147.77594 
L 240.648674 147.611332 
L 241.016689 147.445437 
L 241.384705 147.278257 
L 241.75272 147.109791 
L 242.120736 146.940038 
L 242.488751 146.769 
L 242.856767 146.596676 
L 243.224782 146.423065 
L 243.592798 146.248169 
L 243.960813 146.071986 
L 244.328829 145.894518 
L 244.696844 145.715764 
L 245.06486 145.535723 
L 245.432875 145.354397 
L 245.800891 145.171784 
L 246.168906 144.987886 
L 246.536922 144.802702 
L 246.904937 144.616231 
L 247.272953 144.428475 
L 247.640968 144.239432 
L 248.008984 144.049104 
L 248.376999 143.857489 
L 248.745015 143.664589 
L 249.11303 143.470403 
L 249.481045 143.27493 
L 249.849061 143.078172 
L 250.217076 142.880127 
L 250.585092 142.680797 
L 250.953107 142.48018 
L 251.321123 142.278278 
L 251.689138 142.07509 
L 252.057154 141.870615 
L 252.425169 141.664855 
L 252.793185 141.457808 
L 253.1612 141.249476 
L 253.529216 141.039857 
L 253.897231 140.828953 
L 254.265247 140.616762 
L 254.633262 140.403286 
L 255.001278 140.188523 
L 255.369293 139.972475 
L 255.737309 139.75514 
L 256.105324 139.53652 
L 256.47334 139.316613 
L 256.841355 139.095421 
L 257.209371 138.872942 
L 257.577386 138.649178 
L 257.945402 138.424127 
L 258.313417 138.197791 
L 258.681433 137.970168 
L 259.049448 137.74126 
L 259.417464 137.511065 
L 259.785479 137.279585 
L 260.153495 137.046818 
L 260.52151 136.812766 
L 260.889526 136.577427 
L 261.257541 136.340803 
L 261.625557 136.102892 
L 261.993572 135.863696 
L 262.361588 135.623213 
L 262.729603 135.381445 
L 263.097619 135.13839 
L 263.465634 134.89405 
L 263.83365 134.648423 
L 264.201665 134.40151 
L 264.569681 134.153312 
L 264.937696 133.903827 
L 265.305712 133.653057 
L 265.673727 133.401 
L 266.041742 133.147658 
L 266.409758 132.893029 
L 266.777773 132.637115 
L 267.145789 132.379914 
L 267.513804 132.121427 
L 267.88182 131.861655 
L 268.249835 131.600596 
L 268.617851 131.338252 
L 268.985866 131.074621 
L 269.353882 130.809705 
L 269.721897 130.543502 
L 270.089913 130.276013 
L 270.457928 130.007239 
L 270.825944 129.737178 
L 271.193959 129.465832 
L 271.561975 129.193199 
L 271.92999 128.91928 
L 272.298006 128.644076 
L 272.666021 128.367585 
L 273.034037 128.089808 
L 273.402052 127.810746 
L 273.770068 127.530397 
L 274.138083 127.248763 
L 274.506099 126.965842 
L 274.874114 126.681635 
L 275.24213 126.396143 
L 275.610145 126.109364 
L 275.978161 125.821299 
L 276.346176 125.531949 
L 276.346176 40.068051 
L 276.346176 40.068051 
L 275.978161 39.778701 
L 275.610145 39.490636 
L 275.24213 39.203857 
L 274.874114 38.918365 
L 274.506099 38.634158 
L 274.138083 38.351237 
L 273.770068 38.069603 
L 273.402052 37.789254 
L 273.034037 37.510192 
L 272.666021 37.232415 
L 272.298006 36.955924 
L 271.92999 36.68072 
L 271.561975 36.406801 
L 271.193959 36.134168 
L 270.825944 35.862822 
L 270.457928 35.592761 
L 270.089913 35.323987 
L 269.721897 35.056498 
L 269.353882 34.790295 
L 268.985866 34.525379 
L 268.617851 34.261748 
L 268.249835 33.999404 
L 267.88182 33.738345 
L 267.513804 33.478573 
L 267.145789 33.220086 
L 266.777773 32.962885 
L 266.409758 32.706971 
L 266.041742 32.452342 
L 265.673727 32.199 
L 265.305712 31.946943 
L 264.937696 31.696173 
L 264.569681 31.446688 
L 264.201665 31.19849 
L 263.83365 30.951577 
L 263.465634 30.70595 
L 263.097619 30.46161 
L 262.729603 30.218555 
L 262.361588 29.976787 
L 261.993572 29.736304 
L 261.625557 29.497108 
L 261.257541 29.259197 
L 260.889526 29.022573 
L 260.52151 28.787234 
L 260.153495 28.553182 
L 259.785479 28.320415 
L 259.417464 28.088935 
L 259.049448 27.85874 
L 258.681433 27.629832 
L 258.313417 27.402209 
L 257.945402 27.175873 
L 257.577386 26.950822 
L 257.209371 26.727058 
L 256.841355 26.504579 
L 256.47334 26.283387 
L 256.105324 26.06348 
L 255.737309 25.84486 
L 255.369293 25.627525 
L 255.001278 25.411477 
L 254.633262 25.196714 
L 254.265247 24.983238 
L 253.897231 24.771047 
L 253.529216 24.560143 
L 253.1612 24.350524 
L 252.793185 24.142192 
L 252.425169 23.935145 
L 252.057154 23.729385 
L 251.689138 23.52491 
L 251.321123 23.321722 
L 250.953107 23.11982 
L 250.585092 22.919203 
L 250.217076 22.719873 
L 249.849061 22.521828 
L 249.481045 22.32507 
L 249.11303 22.129597 
L 248.745015 21.935411 
L 248.376999 21.742511 
L 248.008984 21.550896 
L 247.640968 21.360568 
L 247.272953 21.171525 
L 246.904937 20.983769 
L 246.536922 20.797298 
L 246.168906 20.612114 
L 245.800891 20.428216 
L 245.432875 20.245603 
L 245.06486 20.064277 
L 244.696844 19.884236 
L 244.328829 19.705482 
L 243.960813 19.528014 
L 243.592798 19.351831 
L 243.224782 19.176935 
L 242.856767 19.003324 
L 242.488751 18.831 
L 242.120736 18.659962 
L 241.75272 18.490209 
L 241.384705 18.321743 
L 241.016689 18.154563 
L 240.648674 17.988668 
L 240.280658 17.82406 
L 239.912643 17.660737 
L 239.544627 17.498701 
L 239.176612 17.337951 
L 238.808596 17.178486 
L 238.440581 17.020308 
L 238.072565 16.863416 
L 237.70455 16.707809 
L 237.336534 16.553489 
L 236.968519 16.400455 
L 236.600503 16.248706 
L 236.232488 16.098244 
L 235.864472 15.949068 
L 235.496457 15.801177 
L 235.128441 15.654573 
L 234.760426 15.509255 
L 234.39241 15.365222 
L 234.024395 15.222476 
L 233.656379 15.081016 
L 233.288364 14.940841 
L 232.920348 14.801953 
L 232.552333 14.664351 
L 232.184318 14.528034 
L 231.816302 14.393004 
L 231.448287 14.25926 
L 231.080271 14.126802 
L 230.712256 13.995629 
L 230.34424 13.865743 
L 229.976225 13.737143 
L 229.608209 13.609828 
L 229.240194 13.4838 
L 228.872178 13.359058 
L 228.504163 13.235602 
L 228.136147 13.113431 
L 227.768132 12.992547 
L 227.400116 12.872949 
L 227.032101 12.754637 
L 226.664085 12.63761 
L 226.29607 12.52187 
L 225.928054 12.407416 
L 225.560039 12.294248 
L 225.192023 12.182365 
L 224.824008 12.071769 
L 224.455992 11.962459 
L 224.087977 11.854435 
L 223.719961 11.747696 
L 223.351946 11.642244 
L 222.98393 11.538078 
L 222.615915 11.435198 
L 222.247899 11.333603 
L 221.879884 11.233295 
L 221.511868 11.134273 
L 221.143853 11.036537 
L 220.775837 10.940087 
L 220.407822 10.844922 
L 220.039806 10.751044 
L 219.671791 10.658452 
L 219.303775 10.567146 
L 218.93576 10.477125 
L 218.567744 10.388391 
L 218.199729 10.300943 
L 217.831713 10.214781 
L 217.463698 10.129905 
L 217.095682 10.046315 
L 216.727667 9.96401 
L 216.359652 9.882992 
L 215.991636 9.80326 
L 215.623621 9.724814 
L 215.255605 9.647654 
L 214.88759 9.571779 
L 214.519574 9.497191 
L 214.151559 9.423889 
L 213.783543 9.351873 
L 213.415528 9.281143 
L 213.047512 9.211699 
L 212.679497 9.143541 
L 212.311481 9.076668 
L 211.943466 9.011082 
L 211.57545 8.946782 
L 211.207435 8.883768 
L 210.839419 8.82204 
L 210.471404 8.761598 
L 210.103388 8.702442 
L 209.735373 8.644571 
L 209.367357 8.587987 
L 208.999342 8.532689 
L 208.631326 8.478677 
L 208.263311 8.425951 
L 207.895295 8.374511 
L 207.52728 8.324357 
L 207.159264 8.275489 
L 206.791249 8.227906 
L 206.423233 8.18161 
L 206.055218 8.1366 
L 205.687202 8.092876 
L 205.319187 8.050438 
L 204.951171 8.009286 
L 204.583156 7.96942 
L 204.21514 7.93084 
L 203.847125 7.893546 
L 203.479109 7.857538 
L 203.111094 7.822816 
L 202.743078 7.78938 
L 202.375063 7.757229 
L 202.007047 7.726365 
L 201.639032 7.696787 
L 201.271016 7.668495 
L 200.903001 7.641489 
L 200.534985 7.615769 
L 200.16697 7.591335 
L 199.798955 7.568187 
L 199.430939 7.546325 
L 199.062924 7.525749 
L 198.694908 7.506459 
L 198.326893 7.488455 
L 197.958877 7.471737 
L 197.590862 7.456305 
L 197.222846 7.442159 
L 196.854831 7.429299 
L 196.486815 7.417725 
L 196.1188 7.407437 
L 195.750784 7.398435 
L 195.382769 7.390719 
L 195.014753 7.384289 
L 194.646738 7.379145 
L 194.278722 7.375287 
L 193.910707 7.372715 
L 193.542691 7.371429 
L 193.174676 7.371429 
L 192.80666 7.372715 
L 192.438645 7.375287 
L 192.070629 7.379145 
L 191.702614 7.384289 
L 191.334598 7.390719 
L 190.966583 7.398435 
L 190.598567 7.407437 
L 190.230552 7.417725 
L 189.862536 7.429299 
L 189.494521 7.442159 
L 189.126505 7.456305 
L 188.75849 7.471737 
L 188.390474 7.488455 
L 188.022459 7.506459 
L 187.654443 7.525749 
L 187.286428 7.546325 
L 186.918412 7.568187 
L 186.550397 7.591335 
L 186.182381 7.615769 
L 185.814366 7.641489 
L 185.44635 7.668495 
L 185.078335 7.696787 
L 184.710319 7.726365 
L 184.342304 7.757229 
L 183.974288 7.78938 
L 183.606273 7.822816 
L 183.238258 7.857538 
L 182.870242 7.893546 
L 182.502227 7.93084 
L 182.134211 7.96942 
L 181.766196 8.009286 
L 181.39818 8.050438 
L 181.030165 8.092876 
L 180.662149 8.1366 
L 180.294134 8.18161 
L 179.926118 8.227906 
L 179.558103 8.275489 
L 179.190087 8.324357 
L 178.822072 8.374511 
L 178.454056 8.425951 
L 178.086041 8.478677 
L 177.718025 8.532689 
L 177.35001 8.587987 
L 176.981994 8.644571 
L 176.613979 8.702442 
L 176.245963 8.761598 
L 175.877948 8.82204 
L 175.509932 8.883768 
L 175.141917 8.946782 
L 174.773901 9.011082 
L 174.405886 9.076668 
L 174.03787 9.143541 
L 173.669855 9.211699 
L 173.301839 9.281143 
L 172.933824 9.351873 
L 172.565808 9.423889 
L 172.197793 9.497191 
L 171.829777 9.571779 
L 171.461762 9.647654 
L 171.093746 9.724814 
L 170.725731 9.80326 
L 170.357715 9.882992 
L 169.9897 9.96401 
L 169.621684 10.046315 
L 169.253669 10.129905 
L 168.885653 10.214781 
L 168.517638 10.300943 
L 168.149622 10.388391 
L 167.781607 10.477125 
L 167.413591 10.567146 
L 167.045576 10.658452 
L 166.677561 10.751044 
L 166.309545 10.844922 
L 165.94153 10.940087 
L 165.573514 11.036537 
L 165.205499 11.134273 
L 164.837483 11.233295 
L 164.469468 11.333603 
L 164.101452 11.435198 
L 163.733437 11.538078 
L 163.365421 11.642244 
L 162.997406 11.747696 
L 162.62939 11.854435 
L 162.261375 11.962459 
L 161.893359 12.071769 
L 161.525344 12.182365 
L 161.157328 12.294248 
L 160.789313 12.407416 
L 160.421297 12.52187 
L 160.053282 12.63761 
L 159.685266 12.754637 
L 159.317251 12.872949 
L 158.949235 12.992547 
L 158.58122 13.113431 
L 158.213204 13.235602 
L 157.845189 13.359058 
L 157.477173 13.4838 
L 157.109158 13.609828 
L 156.741142 13.737143 
L 156.373127 13.865743 
L 156.005111 13.995629 
L 155.637096 14.126802 
L 155.26908 14.25926 
L 154.901065 14.393004 
L 154.533049 14.528034 
L 154.165034 14.664351 
L 153.797018 14.801953 
L 153.429003 14.940841 
L 153.060987 15.081016 
L 152.692972 15.222476 
L 152.324956 15.365222 
L 151.956941 15.509255 
L 151.588925 15.654573 
L 151.22091 15.801177 
L 150.852894 15.949068 
L 150.484879 16.098244 
L 150.116864 16.248706 
L 149.748848 16.400455 
L 149.380833 16.553489 
L 149.012817 16.707809 
L 148.644802 16.863416 
L 148.276786 17.020308 
L 147.908771 17.178486 
L 147.540755 17.337951 
L 147.17274 17.498701 
L 146.804724 17.660737 
L 146.436709 17.82406 
L 146.068693 17.988668 
L 145.700678 18.154563 
L 145.332662 18.321743 
L 144.964647 18.490209 
L 144.596631 18.659962 
L 144.228616 18.831 
L 143.8606 19.003324 
L 143.492585 19.176935 
L 143.124569 19.351831 
L 142.756554 19.528014 
L 142.388538 19.705482 
L 142.020523 19.884236 
L 141.652507 20.064277 
L 141.284492 20.245603 
L 140.916476 20.428216 
L 140.548461 20.612114 
L 140.180445 20.797298 
L 139.81243 20.983769 
L 139.444414 21.171525 
L 139.076399 21.360568 
L 138.708383 21.550896 
L 138.340368 21.742511 
L 137.972352 21.935411 
L 137.604337 22.129597 
L 137.236321 22.32507 
L 136.868306 22.521828 
L 136.50029 22.719873 
L 136.132275 22.919203 
L 135.764259 23.11982 
L 135.396244 23.321722 
L 135.028228 23.52491 
L 134.660213 23.729385 
L 134.292197 23.935145 
L 133.924182 24.142192 
L 133.556167 24.350524 
L 133.188151 24.560143 
L 132.820136 24.771047 
L 132.45212 24.983238 
L 132.084105 25.196714 
L 131.716089 25.411477 
L 131.348074 25.627525 
L 130.980058 25.84486 
L 130.612043 26.06348 
L 130.244027 26.283387 
L 129.876012 26.504579 
L 129.507996 26.727058 
L 129.139981 26.950822 
L 128.771965 27.175873 
L 128.40395 27.402209 
L 128.035934 27.629832 
L 127.667919 27.85874 
L 127.299903 28.088935 
L 126.931888 28.320415 
L 126.563872 28.553182 
L 126.195857 28.787234 
L 125.827841 29.022573 
L 125.459826 29.259197 
L 125.09181 29.497108 
L 124.723795 29.736304 
L 124.355779 29.976787 
L 123.987764 30.218555 
L 123.619748 30.46161 
L 123.251733 30.70595 
L 122.883717 30.951577 
L 122.515702 31.19849 
L 122.147686 31.446688 
L 121.779671 31.696173 
L 121.411655 31.946943 
L 121.04364 32.199 
L 120.675624 32.452342 
L 120.307609 32.706971 
L 119.939593 32.962885 
L 119.571578 33.220086 
L 119.203562 33.478573 
L 118.835547 33.738345 
L 118.467531 33.999404 
L 118.099516 34.261748 
L 117.7315 34.525379 
L 117.363485 34.790295 
L 116.99547 35.056498 
L 116.627454 35.323987 
L 116.259439 35.592761 
L 115.891423 35.862822 
L 115.523408 36.134168 
L 115.155392 36.406801 
L 114.787377 36.68072 
L 114.419361 36.955924 
L 114.051346 37.232415 
L 113.68333 37.510192 
L 113.315315 37.789254 
L 112.947299 38.069603 
L 112.579284 38.351237 
L 112.211268 38.634158 
L 111.843253 38.918365 
L 111.475237 39.203857 
L 111.107222 39.490636 
L 110.739206 39.778701 
L 110.371191 40.068051 
L 110.003175 40.358688 
L 109.63516 40.650611 
L 109.267144 40.943819 
L 108.899129 41.238314 
L 108.531113 41.534094 
L 108.163098 41.831161 
L 107.795082 42.129514 
L 107.427067 42.429152 
L 107.059051 42.730077 
L 106.691036 43.032288 
L 106.32302 43.335784 
L 105.955005 43.640567 
L 105.586989 43.946636 
L 105.218974 44.253991 
L 104.850958 44.562631 
L 104.482943 44.872558 
L 104.114927 45.183771 
L 103.746912 45.496269 
L 103.378896 45.810054 
L 103.010881 46.125125 
L 102.642865 46.441481 
L 102.27485 46.759124 
L 101.906834 47.078053 
L 101.538819 47.398268 
L 101.170803 47.719768 
L 100.802788 48.042555 
L 100.434773 48.366628 
L 100.066757 48.691986 
L 99.698742 49.018631 
L 99.330726 49.346562 
L 98.962711 49.675779 
L 98.594695 50.006281 
L 98.22668 50.33807 
L 97.858664 50.671145 
L 97.490649 51.005506 
L 97.122633 51.341152 
L 96.754618 51.678085 
L 96.386602 52.016304 
L 96.018587 52.355809 
L 95.650571 52.696599 
L 95.282556 53.038676 
L 94.91454 53.382039 
L 94.546525 53.726688 
L 94.178509 54.072622 
L 93.810494 54.419843 
L 93.442478 54.76835 
L 93.074463 55.118143 
L 92.706447 55.469221 
L 92.338432 55.821586 
L 91.970416 56.175237 
L 91.602401 56.530174 
L 91.234385 56.886397 
L 90.86637 57.243905 
L 90.498354 57.6027 
L 90.130339 57.962781 
L 89.762323 58.324148 
L 89.394308 58.686801 
L 89.026292 59.050739 
L 88.658277 59.415964 
L 88.290261 59.782475 
L 87.922246 60.150272 
L 87.55423 60.519355 
L 87.186215 60.889723 
L 86.818199 61.261378 
L 86.450184 61.634319 
L 86.082168 62.008546 
L 85.714153 62.384059 
L 85.346137 62.760858 
L 84.978122 63.138942 
L 84.610106 63.518313 
L 84.242091 63.89897 
L 83.874076 64.280913 
L 83.50606 64.664142 
L 83.138045 65.048657 
L 82.770029 65.434458 
L 82.402014 65.821544 
L 82.033998 66.209917 
L 81.665983 66.599576 
L 81.297967 66.990521 
L 80.929952 67.382752 
L 80.561936 67.776269 
L 80.193921 68.171072 
L 79.825905 68.567161 
L 79.45789 68.964535 
L 79.089874 69.363196 
L 78.721859 69.763143 
L 78.353843 70.164376 
L 77.985828 70.566895 
L 77.617812 70.9707 
L 77.249797 71.375791 
L 76.881781 71.782168 
L 76.513766 72.189831 
L 76.14575 72.59878 
L 75.777735 73.009014 
L 75.409719 73.420535 
L 75.041704 73.833342 
L 74.673688 74.247435 
L 74.305673 74.662814 
L 73.937657 75.079479 
L 73.569642 75.49743 
L 73.201626 75.916667 
L 72.833611 76.33719 
L 72.465595 76.758999 
L 72.09758 77.182094 
L 71.729564 77.606475 
L 71.361549 78.032142 
L 70.993533 78.459095 
L 70.625518 78.887333 
L 70.257502 79.316858 
L 69.889487 79.747669 
L 69.521471 80.179766 
L 69.153456 80.613149 
L 68.78544 81.047818 
L 68.417425 81.483773 
L 68.049409 81.921014 
L 67.681394 82.359541 
z
" style="fill:#0000ff;fill-opacity:0.1;stroke:#0000ff;stroke-opacity:0.1;"/>
    <path clip-path="url(#p71112ff471)" d="M 339.276825 40.358688 
L 339.276825 125.241312 
L 339.64484 124.949389 
L 340.012856 124.656181 
L 340.380871 124.361686 
L 340.748887 124.065906 
L 341.116902 123.768839 
L 341.484918 123.470486 
L 341.852933 123.170848 
L 342.220949 122.869923 
L 342.588964 122.567712 
L 342.95698 122.264216 
L 343.324995 121.959433 
L 343.693011 121.653364 
L 344.061026 121.346009 
L 344.429042 121.037369 
L 344.797057 120.727442 
L 345.165073 120.416229 
L 345.533088 120.103731 
L 345.901104 119.789946 
L 346.269119 119.474875 
L 346.637135 119.158519 
L 347.00515 118.840876 
L 347.373166 118.521947 
L 347.741181 118.201732 
L 348.109197 117.880232 
L 348.477212 117.557445 
L 348.845227 117.233372 
L 349.213243 116.908014 
L 349.581258 116.581369 
L 349.949274 116.253438 
L 350.317289 115.924221 
L 350.685305 115.593719 
L 351.05332 115.26193 
L 351.421336 114.928855 
L 351.789351 114.594494 
L 352.157367 114.258848 
L 352.525382 113.921915 
L 352.893398 113.583696 
L 353.261413 113.244191 
L 353.629429 112.903401 
L 353.997444 112.561324 
L 354.36546 112.217961 
L 354.733475 111.873312 
L 355.101491 111.527378 
L 355.469506 111.180157 
L 355.837522 110.83165 
L 356.205537 110.481857 
L 356.573553 110.130779 
L 356.941568 109.778414 
L 357.309584 109.424763 
L 357.677599 109.069826 
L 358.045615 108.713603 
L 358.41363 108.356095 
L 358.781646 107.9973 
L 359.149661 107.637219 
L 359.517677 107.275852 
L 359.885692 106.913199 
L 360.253708 106.549261 
L 360.621723 106.184036 
L 360.989739 105.817525 
L 361.357754 105.449728 
L 361.72577 105.080645 
L 362.093785 104.710277 
L 362.461801 104.338622 
L 362.829816 103.965681 
L 363.197832 103.591454 
L 363.565847 103.215941 
L 363.933863 102.839142 
L 364.301878 102.461058 
L 364.669894 102.081687 
L 365.037909 101.70103 
L 365.405924 101.319087 
L 365.77394 100.935858 
L 366.141955 100.551343 
L 366.509971 100.165542 
L 366.877986 99.778456 
L 367.246002 99.390083 
L 367.614017 99.000424 
L 367.982033 98.609479 
L 368.350048 98.217248 
L 368.718064 97.823731 
L 369.086079 97.428928 
L 369.454095 97.032839 
L 369.82211 96.635465 
L 370.190126 96.236804 
L 370.558141 95.836857 
L 370.926157 95.435624 
L 371.294172 95.033105 
L 371.662188 94.6293 
L 372.030203 94.224209 
L 372.398219 93.817832 
L 372.766234 93.410169 
L 373.13425 93.00122 
L 373.502265 92.590986 
L 373.870281 92.179465 
L 374.238296 91.766658 
L 374.606312 91.352565 
L 374.974327 90.937186 
L 375.342343 90.520521 
L 375.710358 90.10257 
L 376.078374 89.683333 
L 376.446389 89.26281 
L 376.814405 88.841001 
L 377.18242 88.417906 
L 377.550436 87.993525 
L 377.918451 87.567858 
L 378.286467 87.140905 
L 378.654482 86.712667 
L 379.022498 86.283142 
L 379.390513 85.852331 
L 379.758529 85.420234 
L 380.126544 84.986851 
L 380.49456 84.552182 
L 380.862575 84.116227 
L 381.230591 83.678986 
L 381.598606 83.240459 
L 381.598606 82.359541 
L 381.598606 82.359541 
L 381.230591 81.921014 
L 380.862575 81.483773 
L 380.49456 81.047818 
L 380.126544 80.613149 
L 379.758529 80.179766 
L 379.390513 79.747669 
L 379.022498 79.316858 
L 378.654482 78.887333 
L 378.286467 78.459095 
L 377.918451 78.032142 
L 377.550436 77.606475 
L 377.18242 77.182094 
L 376.814405 76.758999 
L 376.446389 76.33719 
L 376.078374 75.916667 
L 375.710358 75.49743 
L 375.342343 75.079479 
L 374.974327 74.662814 
L 374.606312 74.247435 
L 374.238296 73.833342 
L 373.870281 73.420535 
L 373.502265 73.009014 
L 373.13425 72.59878 
L 372.766234 72.189831 
L 372.398219 71.782168 
L 372.030203 71.375791 
L 371.662188 70.9707 
L 371.294172 70.566895 
L 370.926157 70.164376 
L 370.558141 69.763143 
L 370.190126 69.363196 
L 369.82211 68.964535 
L 369.454095 68.567161 
L 369.086079 68.171072 
L 368.718064 67.776269 
L 368.350048 67.382752 
L 367.982033 66.990521 
L 367.614017 66.599576 
L 367.246002 66.209917 
L 366.877986 65.821544 
L 366.509971 65.434458 
L 366.141955 65.048657 
L 365.77394 64.664142 
L 365.405924 64.280913 
L 365.037909 63.89897 
L 364.669894 63.518313 
L 364.301878 63.138942 
L 363.933863 62.760858 
L 363.565847 62.384059 
L 363.197832 62.008546 
L 362.829816 61.634319 
L 362.461801 61.261378 
L 362.093785 60.889723 
L 361.72577 60.519355 
L 361.357754 60.150272 
L 360.989739 59.782475 
L 360.621723 59.415964 
L 360.253708 59.050739 
L 359.885692 58.686801 
L 359.517677 58.324148 
L 359.149661 57.962781 
L 358.781646 57.6027 
L 358.41363 57.243905 
L 358.045615 56.886397 
L 357.677599 56.530174 
L 357.309584 56.175237 
L 356.941568 55.821586 
L 356.573553 55.469221 
L 356.205537 55.118143 
L 355.837522 54.76835 
L 355.469506 54.419843 
L 355.101491 54.072622 
L 354.733475 53.726688 
L 354.36546 53.382039 
L 353.997444 53.038676 
L 353.629429 52.696599 
L 353.261413 52.355809 
L 352.893398 52.016304 
L 352.525382 51.678085 
L 352.157367 51.341152 
L 351.789351 51.005506 
L 351.421336 50.671145 
L 351.05332 50.33807 
L 350.685305 50.006281 
L 350.317289 49.675779 
L 349.949274 49.346562 
L 349.581258 49.018631 
L 349.213243 48.691986 
L 348.845227 48.366628 
L 348.477212 48.042555 
L 348.109197 47.719768 
L 347.741181 47.398268 
L 347.373166 47.078053 
L 347.00515 46.759124 
L 346.637135 46.441481 
L 346.269119 46.125125 
L 345.901104 45.810054 
L 345.533088 45.496269 
L 345.165073 45.183771 
L 344.797057 44.872558 
L 344.429042 44.562631 
L 344.061026 44.253991 
L 343.693011 43.946636 
L 343.324995 43.640567 
L 342.95698 43.335784 
L 342.588964 43.032288 
L 342.220949 42.730077 
L 341.852933 42.429152 
L 341.484918 42.129514 
L 341.116902 41.831161 
L 340.748887 41.534094 
L 340.380871 41.238314 
L 340.012856 40.943819 
L 339.64484 40.650611 
L 339.276825 40.358688 
z
" style="fill:#0000ff;fill-opacity:0.1;stroke:#0000ff;stroke-opacity:0.1;"/>
   </g>
   <g id="matplotlib.axis_1">
    <g id="xtick_1">
     <g id="line2d_1">
      <defs>
       <path d="M 0 0 
L 0 3.5 
" id="md483005792" style="stroke:#000000;stroke-width:0.8;"/>
      </defs>
      <g>
       <use style="stroke:#000000;stroke-width:0.8;" x="41.000271" xlink:href="#md483005792" y="162"/>
      </g>
     </g>
     <g id="text_1">
      <!-- 1940 -->
      <g transform="translate(28.275271 176.598438)scale(0.1 -0.1)">
       <defs>
        <path d="M 794 531 
L 1825 531 
L 1825 4091 
L 703 3866 
L 703 4441 
L 1819 4666 
L 2450 4666 
L 2450 531 
L 3481 531 
L 3481 0 
L 794 0 
L 794 531 
z
" id="DejaVuSans-31" transform="scale(0.015625)"/>
        <path d="M 703 97 
L 703 672 
Q 941 559 1184 500 
Q 1428 441 1663 441 
Q 2288 441 2617 861 
Q 2947 1281 2994 2138 
Q 2813 1869 2534 1725 
Q 2256 1581 1919 1581 
Q 1219 1581 811 2004 
Q 403 2428 403 3163 
Q 403 3881 828 4315 
Q 1253 4750 1959 4750 
Q 2769 4750 3195 4129 
Q 3622 3509 3622 2328 
Q 3622 1225 3098 567 
Q 2575 -91 1691 -91 
Q 1453 -91 1209 -44 
Q 966 3 703 97 
z
M 1959 2075 
Q 2384 2075 2632 2365 
Q 2881 2656 2881 3163 
Q 2881 3666 2632 3958 
Q 2384 4250 1959 4250 
Q 1534 4250 1286 3958 
Q 1038 3666 1038 3163 
Q 1038 2656 1286 2365 
Q 1534 2075 1959 2075 
z
" id="DejaVuSans-39" transform="scale(0.015625)"/>
        <path d="M 2419 4116 
L 825 1625 
L 2419 1625 
L 2419 4116 
z
M 2253 4666 
L 3047 4666 
L 3047 1625 
L 3713 1625 
L 3713 1100 
L 3047 1100 
L 3047 0 
L 2419 0 
L 2419 1100 
L 313 1100 
L 313 1709 
L 2253 4666 
z
" id="DejaVuSans-34" transform="scale(0.015625)"/>
        <path d="M 2034 4250 
Q 1547 4250 1301 3770 
Q 1056 3291 1056 2328 
Q 1056 1369 1301 889 
Q 1547 409 2034 409 
Q 2525 409 2770 889 
Q 3016 1369 3016 2328 
Q 3016 3291 2770 3770 
Q 2525 4250 2034 4250 
z
M 2034 4750 
Q 2819 4750 3233 4129 
Q 3647 3509 3647 2328 
Q 3647 1150 3233 529 
Q 2819 -91 2034 -91 
Q 1250 -91 836 529 
Q 422 1150 422 2328 
Q 422 3509 836 4129 
Q 1250 4750 2034 4750 
z
" id="DejaVuSans-30" transform="scale(0.015625)"/>
       </defs>
       <use xlink:href="#DejaVuSans-31"/>
       <use x="63.623047" xlink:href="#DejaVuSans-39"/>
       <use x="127.246094" xlink:href="#DejaVuSans-34"/>
       <use x="190.869141" xlink:href="#DejaVuSans-30"/>
      </g>
     </g>
    </g>
    <g id="xtick_2">
     <g id="line2d_2">
      <g>
       <use style="stroke:#000000;stroke-width:0.8;" x="85.16213" xlink:href="#md483005792" y="162"/>
      </g>
     </g>
     <g id="text_2">
      <!-- 1950 -->
      <g transform="translate(72.43713 176.598438)scale(0.1 -0.1)">
       <defs>
        <path d="M 691 4666 
L 3169 4666 
L 3169 4134 
L 1269 4134 
L 1269 2991 
Q 1406 3038 1543 3061 
Q 1681 3084 1819 3084 
Q 2600 3084 3056 2656 
Q 3513 2228 3513 1497 
Q 3513 744 3044 326 
Q 2575 -91 1722 -91 
Q 1428 -91 1123 -41 
Q 819 9 494 109 
L 494 744 
Q 775 591 1075 516 
Q 1375 441 1709 441 
Q 2250 441 2565 725 
Q 2881 1009 2881 1497 
Q 2881 1984 2565 2268 
Q 2250 2553 1709 2553 
Q 1456 2553 1204 2497 
Q 953 2441 691 2322 
L 691 4666 
z
" id="DejaVuSans-35" transform="scale(0.015625)"/>
       </defs>
       <use xlink:href="#DejaVuSans-31"/>
       <use x="63.623047" xlink:href="#DejaVuSans-39"/>
       <use x="127.246094" xlink:href="#DejaVuSans-35"/>
       <use x="190.869141" xlink:href="#DejaVuSans-30"/>
      </g>
     </g>
    </g>
    <g id="xtick_3">
     <g id="line2d_3">
      <g>
       <use style="stroke:#000000;stroke-width:0.8;" x="129.323988" xlink:href="#md483005792" y="162"/>
      </g>
     </g>
     <g id="text_3">
      <!-- 1960 -->
      <g transform="translate(116.598988 176.598438)scale(0.1 -0.1)">
       <defs>
        <path d="M 2113 2584 
Q 1688 2584 1439 2293 
Q 1191 2003 1191 1497 
Q 1191 994 1439 701 
Q 1688 409 2113 409 
Q 2538 409 2786 701 
Q 3034 994 3034 1497 
Q 3034 2003 2786 2293 
Q 2538 2584 2113 2584 
z
M 3366 4563 
L 3366 3988 
Q 3128 4100 2886 4159 
Q 2644 4219 2406 4219 
Q 1781 4219 1451 3797 
Q 1122 3375 1075 2522 
Q 1259 2794 1537 2939 
Q 1816 3084 2150 3084 
Q 2853 3084 3261 2657 
Q 3669 2231 3669 1497 
Q 3669 778 3244 343 
Q 2819 -91 2113 -91 
Q 1303 -91 875 529 
Q 447 1150 447 2328 
Q 447 3434 972 4092 
Q 1497 4750 2381 4750 
Q 2619 4750 2861 4703 
Q 3103 4656 3366 4563 
z
" id="DejaVuSans-36" transform="scale(0.015625)"/>
       </defs>
       <use xlink:href="#DejaVuSans-31"/>
       <use x="63.623047" xlink:href="#DejaVuSans-39"/>
       <use x="127.246094" xlink:href="#DejaVuSans-36"/>
       <use x="190.869141" xlink:href="#DejaVuSans-30"/>
      </g>
     </g>
    </g>
    <g id="xtick_4">
     <g id="line2d_4">
      <g>
       <use style="stroke:#000000;stroke-width:0.8;" x="173.485847" xlink:href="#md483005792" y="162"/>
      </g>
     </g>
     <g id="text_4">
      <!-- 1970 -->
      <g transform="translate(160.760847 176.598438)scale(0.1 -0.1)">
       <defs>
        <path d="M 525 4666 
L 3525 4666 
L 3525 4397 
L 1831 0 
L 1172 0 
L 2766 4134 
L 525 4134 
L 525 4666 
z
" id="DejaVuSans-37" transform="scale(0.015625)"/>
       </defs>
       <use xlink:href="#DejaVuSans-31"/>
       <use x="63.623047" xlink:href="#DejaVuSans-39"/>
       <use x="127.246094" xlink:href="#DejaVuSans-37"/>
       <use x="190.869141" xlink:href="#DejaVuSans-30"/>
      </g>
     </g>
    </g>
    <g id="xtick_5">
     <g id="line2d_5">
      <g>
       <use style="stroke:#000000;stroke-width:0.8;" x="217.647706" xlink:href="#md483005792" y="162"/>
      </g>
     </g>
     <g id="text_5">
      <!-- 1980 -->
      <g transform="translate(204.922706 176.598438)scale(0.1 -0.1)">
       <defs>
        <path d="M 2034 2216 
Q 1584 2216 1326 1975 
Q 1069 1734 1069 1313 
Q 1069 891 1326 650 
Q 1584 409 2034 409 
Q 2484 409 2743 651 
Q 3003 894 3003 1313 
Q 3003 1734 2745 1975 
Q 2488 2216 2034 2216 
z
M 1403 2484 
Q 997 2584 770 2862 
Q 544 3141 544 3541 
Q 544 4100 942 4425 
Q 1341 4750 2034 4750 
Q 2731 4750 3128 4425 
Q 3525 4100 3525 3541 
Q 3525 3141 3298 2862 
Q 3072 2584 2669 2484 
Q 3125 2378 3379 2068 
Q 3634 1759 3634 1313 
Q 3634 634 3220 271 
Q 2806 -91 2034 -91 
Q 1263 -91 848 271 
Q 434 634 434 1313 
Q 434 1759 690 2068 
Q 947 2378 1403 2484 
z
M 1172 3481 
Q 1172 3119 1398 2916 
Q 1625 2713 2034 2713 
Q 2441 2713 2670 2916 
Q 2900 3119 2900 3481 
Q 2900 3844 2670 4047 
Q 2441 4250 2034 4250 
Q 1625 4250 1398 4047 
Q 1172 3844 1172 3481 
z
" id="DejaVuSans-38" transform="scale(0.015625)"/>
       </defs>
       <use xlink:href="#DejaVuSans-31"/>
       <use x="63.623047" xlink:href="#DejaVuSans-39"/>
       <use x="127.246094" xlink:href="#DejaVuSans-38"/>
       <use x="190.869141" xlink:href="#DejaVuSans-30"/>
      </g>
     </g>
    </g>
    <g id="xtick_6">
     <g id="line2d_6">
      <g>
       <use style="stroke:#000000;stroke-width:0.8;" x="261.809564" xlink:href="#md483005792" y="162"/>
      </g>
     </g>
     <g id="text_6">
      <!-- 1990 -->
      <g transform="translate(249.084564 176.598438)scale(0.1 -0.1)">
       <use xlink:href="#DejaVuSans-31"/>
       <use x="63.623047" xlink:href="#DejaVuSans-39"/>
       <use x="127.246094" xlink:href="#DejaVuSans-39"/>
       <use x="190.869141" xlink:href="#DejaVuSans-30"/>
      </g>
     </g>
    </g>
    <g id="xtick_7">
     <g id="line2d_7">
      <g>
       <use style="stroke:#000000;stroke-width:0.8;" x="305.971423" xlink:href="#md483005792" y="162"/>
      </g>
     </g>
     <g id="text_7">
      <!-- 2000 -->
      <g transform="translate(293.246423 176.598438)scale(0.1 -0.1)">
       <defs>
        <path d="M 1228 531 
L 3431 531 
L 3431 0 
L 469 0 
L 469 531 
Q 828 903 1448 1529 
Q 2069 2156 2228 2338 
Q 2531 2678 2651 2914 
Q 2772 3150 2772 3378 
Q 2772 3750 2511 3984 
Q 2250 4219 1831 4219 
Q 1534 4219 1204 4116 
Q 875 4013 500 3803 
L 500 4441 
Q 881 4594 1212 4672 
Q 1544 4750 1819 4750 
Q 2544 4750 2975 4387 
Q 3406 4025 3406 3419 
Q 3406 3131 3298 2873 
Q 3191 2616 2906 2266 
Q 2828 2175 2409 1742 
Q 1991 1309 1228 531 
z
" id="DejaVuSans-32" transform="scale(0.015625)"/>
       </defs>
       <use xlink:href="#DejaVuSans-32"/>
       <use x="63.623047" xlink:href="#DejaVuSans-30"/>
       <use x="127.246094" xlink:href="#DejaVuSans-30"/>
       <use x="190.869141" xlink:href="#DejaVuSans-30"/>
      </g>
     </g>
    </g>
    <g id="xtick_8">
     <g id="line2d_8">
      <g>
       <use style="stroke:#000000;stroke-width:0.8;" x="350.133282" xlink:href="#md483005792" y="162"/>
      </g>
     </g>
     <g id="text_8">
      <!-- 2010 -->
      <g transform="translate(337.408282 176.598438)scale(0.1 -0.1)">
       <use xlink:href="#DejaVuSans-32"/>
       <use x="63.623047" xlink:href="#DejaVuSans-30"/>
       <use x="127.246094" xlink:href="#DejaVuSans-31"/>
       <use x="190.869141" xlink:href="#DejaVuSans-30"/>
      </g>
     </g>
    </g>
    <g id="xtick_9">
     <g id="line2d_9">
      <g>
       <use style="stroke:#000000;stroke-width:0.8;" x="394.29514" xlink:href="#md483005792" y="162"/>
      </g>
     </g>
     <g id="text_9">
      <!-- 2020 -->
      <g transform="translate(381.57014 176.598438)scale(0.1 -0.1)">
       <use xlink:href="#DejaVuSans-32"/>
       <use x="63.623047" xlink:href="#DejaVuSans-30"/>
       <use x="127.246094" xlink:href="#DejaVuSans-32"/>
       <use x="190.869141" xlink:href="#DejaVuSans-30"/>
      </g>
     </g>
    </g>
   </g>
   <g id="matplotlib.axis_2">
    <g id="ytick_1">
     <g id="line2d_10">
      <defs>
       <path d="M 0 0 
L -3.5 0 
" id="m1db1280759" style="stroke:#000000;stroke-width:0.8;"/>
      </defs>
      <g>
       <use style="stroke:#000000;stroke-width:0.8;" x="34.56" xlink:href="#m1db1280759" y="127.587974"/>
      </g>
     </g>
     <g id="text_10">
      <!-- −50 -->
      <g transform="translate(6.455313 131.387192)scale(0.1 -0.1)">
       <defs>
        <path d="M 678 2272 
L 4684 2272 
L 4684 1741 
L 678 1741 
L 678 2272 
z
" id="DejaVuSans-2212" transform="scale(0.015625)"/>
       </defs>
       <use xlink:href="#DejaVuSans-2212"/>
       <use x="83.789062" xlink:href="#DejaVuSans-35"/>
       <use x="147.412109" xlink:href="#DejaVuSans-30"/>
      </g>
     </g>
    </g>
    <g id="ytick_2">
     <g id="line2d_11">
      <g>
       <use style="stroke:#000000;stroke-width:0.8;" x="34.56" xlink:href="#m1db1280759" y="82.8"/>
      </g>
     </g>
     <g id="text_11">
      <!-- 0 -->
      <g transform="translate(21.1975 86.599219)scale(0.1 -0.1)">
       <use xlink:href="#DejaVuSans-30"/>
      </g>
     </g>
    </g>
    <g id="ytick_3">
     <g id="line2d_12">
      <g>
       <use style="stroke:#000000;stroke-width:0.8;" x="34.56" xlink:href="#m1db1280759" y="38.012026"/>
      </g>
     </g>
     <g id="text_12">
      <!-- 50 -->
      <g transform="translate(14.835 41.811245)scale(0.1 -0.1)">
       <use xlink:href="#DejaVuSans-35"/>
       <use x="63.623047" xlink:href="#DejaVuSans-30"/>
      </g>
     </g>
    </g>
   </g>
   <g id="line2d_13">
    <path clip-path="url(#p71112ff471)" d="M 67.681394 82.233752 
L 68.049409 81.906725 
L 68.78544 81.016238 
L 69.153456 81.333642 
L 69.521471 80.776058 
L 69.889487 80.586692 
L 70.257502 80.150594 
L 70.625518 80.138763 
L 71.729564 79.169679 
L 72.09758 79.313674 
L 72.465595 79.130429 
L 73.201626 78.027468 
L 73.569642 77.423966 
L 74.305673 76.809366 
L 75.777735 77.076108 
L 76.14575 76.993469 
L 76.513766 77.209627 
L 76.881781 77.071407 
L 77.617812 77.166498 
L 78.353843 76.659616 
L 78.721859 76.026404 
L 79.825905 75.169692 
L 81.297967 74.193206 
L 82.033998 74.140303 
L 82.770029 73.338717 
L 83.138045 73.178063 
L 83.50606 72.82725 
L 84.242091 72.707411 
L 84.610106 72.896509 
L 84.978122 72.745581 
L 85.346137 72.732552 
L 85.714153 72.859834 
L 86.082168 72.674151 
L 87.55423 72.860818 
L 87.922246 73.254311 
L 88.290261 73.47904 
L 88.658277 73.458172 
L 89.026292 73.655537 
L 89.394308 73.43759 
L 90.130339 73.515808 
L 92.338432 73.09041 
L 92.706447 72.974777 
L 93.442478 73.272218 
L 94.178509 73.091515 
L 94.91454 72.949358 
L 95.650571 73.168159 
L 97.122633 73.376793 
L 97.490649 73.339496 
L 97.858664 73.447662 
L 98.594695 73.204607 
L 98.962711 73.251779 
L 100.434773 72.801063 
L 100.802788 72.614543 
L 101.170803 72.62987 
L 101.538819 72.522373 
L 102.27485 72.59651 
L 103.010881 72.351591 
L 104.482943 72.023875 
L 105.218974 71.535632 
L 105.955005 71.392358 
L 106.32302 71.372351 
L 106.691036 71.509071 
L 107.059051 71.413785 
L 107.795082 71.462075 
L 108.163098 71.399163 
L 108.531113 71.616706 
L 109.267144 71.736674 
L 110.003175 71.991576 
L 110.371191 72.101077 
L 111.843253 72.991635 
L 112.211268 72.990112 
L 112.579284 73.152988 
L 114.051346 73.28038 
L 115.155392 73.707133 
L 116.259439 73.474396 
L 116.627454 73.548013 
L 116.99547 73.920501 
L 117.7315 73.99797 
L 118.467531 74.5173 
L 119.571578 74.663568 
L 120.675624 74.917613 
L 122.147686 75.511521 
L 122.515702 75.965027 
L 123.251733 76.46399 
L 123.619748 76.92025 
L 123.987764 76.9694 
L 124.355779 76.90403 
L 125.459826 77.211206 
L 126.195857 77.849669 
L 126.563872 77.862057 
L 128.40395 79.3349 
L 128.771965 79.560865 
L 130.612043 79.948188 
L 131.716089 80.566815 
L 132.45212 81.176578 
L 133.188151 81.406015 
L 133.924182 81.646573 
L 135.028228 82.045785 
L 135.764259 82.146661 
L 137.236321 82.683893 
L 138.340368 82.834558 
L 140.180445 83.155961 
L 140.916476 83.525529 
L 141.652507 83.751674 
L 142.388538 84.000582 
L 142.756554 84.208694 
L 143.124569 84.267814 
L 143.492585 84.584918 
L 143.8606 84.614761 
L 144.228616 84.811168 
L 144.596631 84.71738 
L 144.964647 84.828035 
L 145.332662 85.138747 
L 146.804724 85.527984 
L 147.908771 85.790654 
L 148.644802 85.773304 
L 149.380833 86.319645 
L 150.852894 86.785413 
L 151.22091 86.968451 
L 153.429003 87.405555 
L 154.533049 87.769925 
L 156.005111 87.848766 
L 156.741142 88.126335 
L 157.477173 88.203957 
L 158.213204 88.162307 
L 161.525344 88.917261 
L 161.893359 89.095296 
L 163.365421 89.084752 
L 165.573514 89.798449 
L 166.309545 89.806866 
L 167.045576 89.877681 
L 167.413591 89.760492 
L 168.149622 89.853338 
L 168.517638 89.957018 
L 168.885653 89.938053 
L 169.9897 90.341072 
L 170.357715 90.326793 
L 170.725731 90.523586 
L 171.093746 90.546488 
L 171.829777 90.413936 
L 172.565808 90.609663 
L 173.301839 90.639393 
L 174.03787 90.995392 
L 174.773901 91.12042 
L 175.509932 90.909531 
L 176.613979 90.917623 
L 177.718025 91.052784 
L 179.190087 90.80952 
L 179.558103 90.573519 
L 180.294134 90.387327 
L 181.030165 89.842817 
L 181.39818 89.91466 
L 181.766196 89.849128 
L 182.134211 90.008104 
L 182.870242 90.020962 
L 183.238258 89.73009 
L 183.606273 89.800806 
L 184.342304 89.444439 
L 184.710319 89.2042 
L 185.44635 89.241858 
L 185.814366 88.953317 
L 187.654443 88.748701 
L 189.126505 88.168542 
L 190.230552 88.013346 
L 191.702614 88.266497 
L 193.174676 87.989974 
L 193.542691 87.975805 
L 194.278722 87.485294 
L 195.014753 87.335999 
L 195.382769 87.419645 
L 195.750784 87.38828 
L 196.854831 86.844991 
L 197.958877 86.466048 
L 198.694908 85.789319 
L 199.062924 85.842412 
L 199.798955 85.640829 
L 200.534985 85.541319 
L 201.271016 85.315135 
L 202.007047 84.957245 
L 204.583156 84.424474 
L 205.319187 84.494759 
L 206.791249 83.886042 
L 207.895295 83.321408 
L 208.263311 83.308847 
L 209.367357 82.818443 
L 210.839419 81.849539 
L 214.151559 81.10598 
L 214.519574 80.944667 
L 214.88759 81.017841 
L 215.623621 80.751566 
L 217.095682 80.538564 
L 217.463698 80.597209 
L 218.567744 80.289759 
L 219.671791 79.837915 
L 220.407822 79.57807 
L 221.143853 79.199325 
L 222.247899 79.179902 
L 222.615915 78.83345 
L 223.351946 78.783994 
L 223.719961 78.473244 
L 226.29607 77.481062 
L 226.664085 77.089374 
L 227.768132 76.853183 
L 230.34424 77.153919 
L 231.448287 77.08557 
L 231.816302 77.139707 
L 232.184318 77.081493 
L 232.552333 77.185754 
L 232.920348 77.522332 
L 234.024395 77.894958 
L 234.39241 77.752009 
L 234.760426 77.489281 
L 235.128441 77.514552 
L 235.864472 77.38067 
L 236.232488 77.379013 
L 236.968519 77.630637 
L 237.336534 77.913062 
L 238.808596 77.785152 
L 240.280658 77.734856 
L 241.75272 77.751703 
L 242.488751 77.488866 
L 242.856767 77.455257 
L 243.960813 76.959261 
L 244.696844 76.863232 
L 245.432875 76.868828 
L 246.536922 77.330411 
L 247.272953 77.168531 
L 248.008984 76.766644 
L 249.11303 76.427913 
L 249.849061 76.447159 
L 250.585092 76.721038 
L 250.953107 76.952701 
L 253.897231 77.089509 
L 255.001278 77.744238 
L 256.105324 77.699867 
L 256.47334 77.540163 
L 257.209371 77.50794 
L 257.577386 77.309859 
L 258.313417 77.293254 
L 259.785479 77.700459 
L 260.52151 78.102968 
L 260.889526 78.153219 
L 261.257541 78.029974 
L 262.361588 78.269813 
L 263.465634 78.920649 
L 264.937696 79.959408 
L 265.673727 80.087551 
L 266.041742 80.279097 
L 267.513804 80.327353 
L 268.249835 80.785092 
L 268.617851 80.874412 
L 268.985866 81.170973 
L 269.721897 81.127045 
L 270.457928 81.409849 
L 271.193959 81.711928 
L 271.561975 81.765986 
L 273.770068 83.078369 
L 274.874114 83.002542 
L 275.24213 83.11464 
L 275.610145 83.055608 
L 276.346176 83.186246 
M 339.276825 83.266365 
L 339.64484 83.31815 
L 341.116902 84.41017 
L 341.484918 84.535161 
L 342.220949 84.919923 
L 342.588964 85.097553 
L 342.95698 84.974453 
L 343.324995 85.069972 
L 344.429042 85.743503 
L 346.269119 85.540793 
L 346.637135 85.60588 
L 347.373166 85.502757 
L 347.741181 85.593094 
L 348.477212 85.484331 
L 349.213243 85.789639 
L 350.317289 86.065043 
L 351.421336 86.302065 
L 351.789351 86.261042 
L 352.157367 86.3403 
L 352.893398 86.771822 
L 353.261413 86.839833 
L 353.997444 86.65618 
L 355.469506 87.30066 
L 356.573553 87.803964 
L 357.309584 87.80006 
L 358.045615 87.771767 
L 358.781646 88.009461 
L 359.885692 88.259801 
L 360.621723 88.355906 
L 361.72577 87.904864 
L 362.093785 87.972895 
L 363.197832 87.638171 
L 365.77394 87.34561 
L 366.509971 87.116496 
L 367.246002 86.996777 
L 368.718064 87.044034 
L 369.086079 86.914042 
L 369.454095 86.634129 
L 369.82211 86.503198 
L 370.926157 85.816898 
L 372.398219 85.35964 
L 373.13425 85.327091 
L 374.606312 84.952043 
L 374.974327 84.653961 
L 376.078374 84.264011 
L 377.918451 84.048965 
L 378.286467 84.115003 
L 379.390513 83.60908 
L 379.758529 83.194397 
L 380.126544 83.12937 
L 380.862575 82.720336 
L 381.598606 82.8 
L 381.598606 82.8 
" style="fill:none;stroke:#1f77b4;stroke-linecap:square;stroke-width:1.5;"/>
   </g>
   <g id="line2d_14">
    <path clip-path="url(#p71112ff471)" d="M 34.56 82.8 
L 414.72 82.8 
" style="fill:none;stroke:#000000;stroke-dasharray:1.5,2.475;stroke-dashoffset:0;stroke-width:1.5;"/>
   </g>
   <g id="patch_3">
    <path d="M 34.56 162 
L 34.56 3.6 
" style="fill:none;stroke:#000000;stroke-linecap:square;stroke-linejoin:miter;stroke-width:0.8;"/>
   </g>
   <g id="patch_4">
    <path d="M 414.72 162 
L 414.72 3.6 
" style="fill:none;stroke:#000000;stroke-linecap:square;stroke-linejoin:miter;stroke-width:0.8;"/>
   </g>
   <g id="patch_5">
    <path d="M 34.56 162 
L 414.72 162 
" style="fill:none;stroke:#000000;stroke-linecap:square;stroke-linejoin:miter;stroke-width:0.8;"/>
   </g>
   <g id="patch_6">
    <path d="M 34.56 3.6 
L 414.72 3.6 
" style="fill:none;stroke:#000000;stroke-linecap:square;stroke-linejoin:miter;stroke-width:0.8;"/>
   </g>
  </g>
 </g>
 <defs>
  <clipPath id="p71112ff471">
   <rect height="158.4" width="380.16" x="34.56" y="3.6"/>
  </clipPath>
 </defs>
</svg>
