<?xml version="1.0" encoding="utf-8" standalone="no"?>
<!DOCTYPE svg PUBLIC "-//W3C//DTD SVG 1.1//EN"
  "http://www.w3.org/Graphics/SVG/1.1/DTD/svg11.dtd">
<svg height="180pt" version="1.1" viewBox="0 0 432 180" width="432pt" xmlns="http://www.w3.org/2000/svg" xmlns:xlink="http://www.w3.org/1999/xlink">
 <metadata>
  <rdf:RDF xmlns:cc="http://creativecommons.org/ns#" xmlns:dc="http://purl.org/dc/elements/1.1/" xmlns:rdf="http://www.w3.org/1999/02/22-rdf-syntax-ns#">
   <cc:Work>
    <dc:type rdf:resource="http://purl.org/dc/dcmitype/StillImage"/>
    <dc:date>2021-08-12T10:43:36.862395</dc:date>
    <dc:format>image/svg+xml</dc:format>
    <dc:creator>
     <cc:Agent>
      <dc:title>Matplotlib v3.4.2, https://matplotlib.org/</dc:title>
     </cc:Agent>
    </dc:creator>
   </cc:Work>
  </rdf:RDF>
 </metadata>
 <defs>
  <style type="text/css">*{stroke-linecap:butt;stroke-linejoin:round;}</style>
 </defs>
 <g id="figure_1">
  <g id="patch_1">
   <path d="M 0 180 
L 432 180 
L 432 0 
L 0 0 
z
" style="fill:#ffffff;"/>
  </g>
  <g id="axes_1">
   <g id="patch_2">
    <path d="M 34.56 162 
L 414.72 162 
L 414.72 3.6 
L 34.56 3.6 
z
" style="fill:#ffffff;"/>
   </g>
   <g id="PolyCollection_1">
    <defs>
     <path d="M 90.557381 -97.8968 
L 90.557381 -96.5032 
L 91.179574 -95.811239 
L 91.801768 -95.122497 
L 92.423961 -94.436973 
L 93.046154 -93.754667 
L 93.668347 -93.07558 
L 94.29054 -92.399712 
L 94.912733 -91.727061 
L 95.534926 -91.057629 
L 96.157119 -90.391416 
L 96.779313 -89.728421 
L 97.401506 -89.068644 
L 98.023699 -88.412086 
L 98.645892 -87.758746 
L 99.268085 -87.108625 
L 99.890278 -86.461722 
L 100.512471 -85.818037 
L 101.134664 -85.177571 
L 101.756858 -84.540324 
L 102.379051 -83.906294 
L 103.001244 -83.275484 
L 103.623437 -82.647891 
L 104.24563 -82.023517 
L 104.867823 -81.402362 
L 105.490016 -80.784425 
L 106.112209 -80.169706 
L 106.734403 -79.558206 
L 107.356596 -78.949924 
L 107.978789 -78.34486 
L 108.600982 -77.743015 
L 109.223175 -77.144389 
L 109.845368 -76.54898 
L 110.467561 -75.956791 
L 111.089755 -75.367819 
L 111.711948 -74.782066 
L 112.334141 -74.199532 
L 112.956334 -73.620216 
L 113.578527 -73.044118 
L 114.20072 -72.471239 
L 114.822913 -71.901578 
L 115.445106 -71.335136 
L 116.0673 -70.771912 
L 116.689493 -70.211906 
L 117.311686 -69.655119 
L 117.933879 -69.101551 
L 118.556072 -68.5512 
L 119.178265 -68.004069 
L 119.800458 -67.460155 
L 120.422651 -66.91946 
L 121.044845 -66.381984 
L 121.667038 -65.847725 
L 122.289231 -65.316686 
L 122.911424 -64.788864 
L 123.533617 -64.264262 
L 124.15581 -63.742877 
L 124.778003 -63.224711 
L 125.400196 -62.709763 
L 126.02239 -62.198034 
L 126.644583 -61.689524 
L 127.266776 -61.184231 
L 127.888969 -60.682157 
L 128.511162 -60.183302 
L 129.133355 -59.687665 
L 129.755548 -59.195246 
L 130.377741 -58.706046 
L 130.999935 -58.220064 
L 131.622128 -57.737301 
L 132.244321 -57.257756 
L 132.866514 -56.781429 
L 133.488707 -56.308321 
L 134.1109 -55.838431 
L 134.733093 -55.37176 
L 135.355286 -54.908307 
L 135.97748 -54.448073 
L 136.599673 -53.991057 
L 137.221866 -53.537259 
L 137.844059 -53.08668 
L 138.466252 -52.639319 
L 139.088445 -52.195177 
L 139.710638 -51.754253 
L 140.332831 -51.316548 
L 140.955025 -50.882061 
L 141.577218 -50.450792 
L 142.199411 -50.022742 
L 142.821604 -49.59791 
L 143.443797 -49.176297 
L 144.06599 -48.757902 
L 144.688183 -48.342725 
L 145.310376 -47.930767 
L 145.93257 -47.522027 
L 146.554763 -47.116506 
L 147.176956 -46.714203 
L 147.799149 -46.315119 
L 148.421342 -45.919253 
L 149.043535 -45.526605 
L 149.665728 -45.137176 
L 150.287921 -44.750966 
L 150.910115 -44.367973 
L 151.532308 -43.988199 
L 152.154501 -43.611644 
L 152.776694 -43.238307 
L 153.398887 -42.868188 
L 154.02108 -42.501288 
L 154.643273 -42.137606 
L 155.265466 -41.777143 
L 155.88766 -41.419898 
L 156.509853 -41.065872 
L 157.132046 -40.715064 
L 157.754239 -40.367474 
L 158.376432 -40.023103 
L 158.998625 -39.68195 
L 159.620818 -39.344016 
L 160.243011 -39.0093 
L 160.865205 -38.677802 
L 161.487398 -38.349523 
L 162.109591 -38.024462 
L 162.731784 -37.70262 
L 163.353977 -37.383996 
L 163.97617 -37.068591 
L 164.598363 -36.756404 
L 165.220556 -36.447435 
L 165.84275 -36.141685 
L 166.464943 -35.839154 
L 167.087136 -35.53984 
L 167.709329 -35.243745 
L 168.331522 -34.950869 
L 168.953715 -34.661211 
L 169.575908 -34.374771 
L 170.198101 -34.09155 
L 170.820295 -33.811547 
L 171.442488 -33.534763 
L 172.064681 -33.261197 
L 172.686874 -32.99085 
L 173.309067 -32.723721 
L 173.93126 -32.45981 
L 174.553453 -32.199118 
L 175.175646 -31.941644 
L 175.79784 -31.687388 
L 176.420033 -31.436352 
L 177.042226 -31.188533 
L 177.664419 -30.943933 
L 178.286612 -30.702551 
L 178.908805 -30.464388 
L 179.530998 -30.229443 
L 180.153191 -29.997717 
L 180.775385 -29.769209 
L 181.397578 -29.543919 
L 182.019771 -29.321848 
L 182.641964 -29.102995 
L 183.264157 -28.887361 
L 183.88635 -28.674945 
L 184.508543 -28.465747 
L 185.130736 -28.259768 
L 185.75293 -28.057008 
L 186.375123 -27.857466 
L 186.997316 -27.661142 
L 187.619509 -27.468036 
L 188.241702 -27.27815 
L 188.863895 -27.091481 
L 189.486088 -26.908031 
L 190.108282 -26.727799 
L 190.730475 -26.550786 
L 191.352668 -26.376991 
L 191.974861 -26.206415 
L 192.597054 -26.039057 
L 193.219247 -25.874917 
L 193.84144 -25.713996 
L 194.463633 -25.556293 
L 195.085827 -25.401809 
L 195.70802 -25.250543 
L 196.330213 -25.102496 
L 196.952406 -24.957667 
L 197.574599 -24.816056 
L 198.196792 -24.677664 
L 198.818985 -24.54249 
L 199.441178 -24.410535 
L 200.063372 -24.281798 
L 200.685565 -24.15628 
L 201.307758 -24.03398 
L 201.929951 -23.914898 
L 202.552144 -23.799035 
L 203.174337 -23.68639 
L 203.79653 -23.576964 
L 204.418723 -23.470756 
L 205.040917 -23.367766 
L 205.66311 -23.267995 
L 206.285303 -23.171442 
L 206.907496 -23.078108 
L 207.529689 -22.987992 
L 208.151882 -22.901095 
L 208.774075 -22.817416 
L 209.396268 -22.736955 
L 210.018462 -22.659713 
L 210.640655 -22.585689 
L 211.262848 -22.514884 
L 211.885041 -22.447297 
L 212.507234 -22.382929 
L 213.129427 -22.321779 
L 213.75162 -22.263847 
L 214.373813 -22.209134 
L 214.996007 -22.157639 
L 215.6182 -22.109363 
L 216.240393 -22.064305 
L 216.862586 -22.022466 
L 217.484779 -21.983844 
L 218.106972 -21.948442 
L 218.729165 -21.916258 
L 219.351358 -21.887292 
L 219.973552 -21.861544 
L 220.595745 -21.839015 
L 221.217938 -21.819705 
L 221.840131 -21.803613 
L 222.462324 -21.790739 
L 223.084517 -21.781084 
L 223.70671 -21.774647 
L 224.328903 -21.771429 
L 224.951097 -21.771429 
L 225.57329 -21.774647 
L 226.195483 -21.781084 
L 226.817676 -21.790739 
L 227.439869 -21.803613 
L 228.062062 -21.819705 
L 228.684255 -21.839015 
L 229.306448 -21.861544 
L 229.928642 -21.887292 
L 230.550835 -21.916258 
L 231.173028 -21.948442 
L 231.795221 -21.983844 
L 232.417414 -22.022466 
L 233.039607 -22.064305 
L 233.6618 -22.109363 
L 234.283993 -22.157639 
L 234.906187 -22.209134 
L 235.52838 -22.263847 
L 236.150573 -22.321779 
L 236.772766 -22.382929 
L 237.394959 -22.447297 
L 238.017152 -22.514884 
L 238.639345 -22.585689 
L 239.261538 -22.659713 
L 239.883732 -22.736955 
L 240.505925 -22.817416 
L 241.128118 -22.901095 
L 241.750311 -22.987992 
L 242.372504 -23.078108 
L 242.994697 -23.171442 
L 243.61689 -23.267995 
L 244.239083 -23.367766 
L 244.861277 -23.470756 
L 245.48347 -23.576964 
L 246.105663 -23.68639 
L 246.727856 -23.799035 
L 247.350049 -23.914898 
L 247.972242 -24.03398 
L 248.594435 -24.15628 
L 249.216628 -24.281798 
L 249.838822 -24.410535 
L 250.461015 -24.54249 
L 251.083208 -24.677664 
L 251.705401 -24.816056 
L 252.327594 -24.957667 
L 252.949787 -25.102496 
L 253.57198 -25.250543 
L 254.194173 -25.401809 
L 254.816367 -25.556293 
L 255.43856 -25.713996 
L 256.060753 -25.874917 
L 256.682946 -26.039057 
L 257.305139 -26.206415 
L 257.927332 -26.376991 
L 258.549525 -26.550786 
L 259.171718 -26.727799 
L 259.793912 -26.908031 
L 260.416105 -27.091481 
L 261.038298 -27.27815 
L 261.660491 -27.468036 
L 262.282684 -27.661142 
L 262.904877 -27.857466 
L 263.52707 -28.057008 
L 264.149264 -28.259768 
L 264.771457 -28.465747 
L 265.39365 -28.674945 
L 266.015843 -28.887361 
L 266.638036 -29.102995 
L 267.260229 -29.321848 
L 267.882422 -29.543919 
L 268.504615 -29.769209 
L 269.126809 -29.997717 
L 269.749002 -30.229443 
L 270.371195 -30.464388 
L 270.993388 -30.702551 
L 271.615581 -30.943933 
L 272.237774 -31.188533 
L 272.859967 -31.436352 
L 273.48216 -31.687388 
L 274.104354 -31.941644 
L 274.726547 -32.199118 
L 275.34874 -32.45981 
L 275.970933 -32.723721 
L 276.593126 -32.99085 
L 277.215319 -33.261197 
L 277.837512 -33.534763 
L 278.459705 -33.811547 
L 279.081899 -34.09155 
L 279.704092 -34.374771 
L 280.326285 -34.661211 
L 280.948478 -34.950869 
L 281.570671 -35.243745 
L 282.192864 -35.53984 
L 282.815057 -35.839154 
L 283.43725 -36.141685 
L 284.059444 -36.447435 
L 284.681637 -36.756404 
L 285.30383 -37.068591 
L 285.926023 -37.383996 
L 286.548216 -37.70262 
L 287.170409 -38.024462 
L 287.792602 -38.349523 
L 288.414795 -38.677802 
L 289.036989 -39.0093 
L 289.659182 -39.344016 
L 290.281375 -39.68195 
L 290.903568 -40.023103 
L 291.525761 -40.367474 
L 292.147954 -40.715064 
L 292.770147 -41.065872 
L 293.39234 -41.419898 
L 294.014534 -41.777143 
L 294.636727 -42.137606 
L 295.25892 -42.501288 
L 295.881113 -42.868188 
L 296.503306 -43.238307 
L 297.125499 -43.611644 
L 297.747692 -43.988199 
L 298.369885 -44.367973 
L 298.992079 -44.750966 
L 299.614272 -45.137176 
L 300.236465 -45.526605 
L 300.858658 -45.919253 
L 301.480851 -46.315119 
L 302.103044 -46.714203 
L 302.725237 -47.116506 
L 303.34743 -47.522027 
L 303.969624 -47.930767 
L 304.591817 -48.342725 
L 305.21401 -48.757902 
L 305.836203 -49.176297 
L 306.458396 -49.59791 
L 307.080589 -50.022742 
L 307.702782 -50.450792 
L 308.324975 -50.882061 
L 308.947169 -51.316548 
L 309.569362 -51.754253 
L 310.191555 -52.195177 
L 310.813748 -52.639319 
L 311.435941 -53.08668 
L 312.058134 -53.537259 
L 312.680327 -53.991057 
L 313.30252 -54.448073 
L 313.924714 -54.908307 
L 314.546907 -55.37176 
L 315.1691 -55.838431 
L 315.791293 -56.308321 
L 316.413486 -56.781429 
L 317.035679 -57.257756 
L 317.657872 -57.737301 
L 318.280065 -58.220064 
L 318.902259 -58.706046 
L 319.524452 -59.195246 
L 320.146645 -59.687665 
L 320.768838 -60.183302 
L 321.391031 -60.682157 
L 322.013224 -61.184231 
L 322.635417 -61.689524 
L 323.25761 -62.198034 
L 323.879804 -62.709763 
L 324.501997 -63.224711 
L 325.12419 -63.742877 
L 325.746383 -64.264262 
L 326.368576 -64.788864 
L 326.990769 -65.316686 
L 327.612962 -65.847725 
L 328.235155 -66.381984 
L 328.857349 -66.91946 
L 329.479542 -67.460155 
L 330.101735 -68.004069 
L 330.723928 -68.5512 
L 331.346121 -69.101551 
L 331.968314 -69.655119 
L 332.590507 -70.211906 
L 333.2127 -70.771912 
L 333.834894 -71.335136 
L 334.457087 -71.901578 
L 335.07928 -72.471239 
L 335.701473 -73.044118 
L 336.323666 -73.620216 
L 336.945859 -74.199532 
L 337.568052 -74.782066 
L 338.190245 -75.367819 
L 338.812439 -75.956791 
L 339.434632 -76.54898 
L 340.056825 -77.144389 
L 340.679018 -77.743015 
L 341.301211 -78.34486 
L 341.923404 -78.949924 
L 342.545597 -79.558206 
L 343.167791 -80.169706 
L 343.789984 -80.784425 
L 344.412177 -81.402362 
L 345.03437 -82.023517 
L 345.656563 -82.647891 
L 346.278756 -83.275484 
L 346.900949 -83.906294 
L 347.523142 -84.540324 
L 348.145336 -85.177571 
L 348.767529 -85.818037 
L 349.389722 -86.461722 
L 350.011915 -87.108625 
L 350.634108 -87.758746 
L 351.256301 -88.412086 
L 351.878494 -89.068644 
L 352.500687 -89.728421 
L 353.122881 -90.391416 
L 353.745074 -91.057629 
L 354.367267 -91.727061 
L 354.98946 -92.399712 
L 355.611653 -93.07558 
L 356.233846 -93.754667 
L 356.856039 -94.436973 
L 357.478232 -95.122497 
L 358.100426 -95.811239 
L 358.722619 -96.5032 
L 358.722619 -97.8968 
L 358.722619 -97.8968 
L 358.100426 -98.588761 
L 357.478232 -99.277503 
L 356.856039 -99.963027 
L 356.233846 -100.645333 
L 355.611653 -101.32442 
L 354.98946 -102.000288 
L 354.367267 -102.672939 
L 353.745074 -103.342371 
L 353.122881 -104.008584 
L 352.500687 -104.671579 
L 351.878494 -105.331356 
L 351.256301 -105.987914 
L 350.634108 -106.641254 
L 350.011915 -107.291375 
L 349.389722 -107.938278 
L 348.767529 -108.581963 
L 348.145336 -109.222429 
L 347.523142 -109.859676 
L 346.900949 -110.493706 
L 346.278756 -111.124516 
L 345.656563 -111.752109 
L 345.03437 -112.376483 
L 344.412177 -112.997638 
L 343.789984 -113.615575 
L 343.167791 -114.230294 
L 342.545597 -114.841794 
L 341.923404 -115.450076 
L 341.301211 -116.05514 
L 340.679018 -116.656985 
L 340.056825 -117.255611 
L 339.434632 -117.85102 
L 338.812439 -118.443209 
L 338.190245 -119.032181 
L 337.568052 -119.617934 
L 336.945859 -120.200468 
L 336.323666 -120.779784 
L 335.701473 -121.355882 
L 335.07928 -121.928761 
L 334.457087 -122.498422 
L 333.834894 -123.064864 
L 333.2127 -123.628088 
L 332.590507 -124.188094 
L 331.968314 -124.744881 
L 331.346121 -125.298449 
L 330.723928 -125.8488 
L 330.101735 -126.395931 
L 329.479542 -126.939845 
L 328.857349 -127.48054 
L 328.235155 -128.018016 
L 327.612962 -128.552275 
L 326.990769 -129.083314 
L 326.368576 -129.611136 
L 325.746383 -130.135738 
L 325.12419 -130.657123 
L 324.501997 -131.175289 
L 323.879804 -131.690237 
L 323.25761 -132.201966 
L 322.635417 -132.710476 
L 322.013224 -133.215769 
L 321.391031 -133.717843 
L 320.768838 -134.216698 
L 320.146645 -134.712335 
L 319.524452 -135.204754 
L 318.902259 -135.693954 
L 318.280065 -136.179936 
L 317.657872 -136.662699 
L 317.035679 -137.142244 
L 316.413486 -137.618571 
L 315.791293 -138.091679 
L 315.1691 -138.561569 
L 314.546907 -139.02824 
L 313.924714 -139.491693 
L 313.30252 -139.951927 
L 312.680327 -140.408943 
L 312.058134 -140.862741 
L 311.435941 -141.31332 
L 310.813748 -141.760681 
L 310.191555 -142.204823 
L 309.569362 -142.645747 
L 308.947169 -143.083452 
L 308.324975 -143.517939 
L 307.702782 -143.949208 
L 307.080589 -144.377258 
L 306.458396 -144.80209 
L 305.836203 -145.223703 
L 305.21401 -145.642098 
L 304.591817 -146.057275 
L 303.969624 -146.469233 
L 303.34743 -146.877973 
L 302.725237 -147.283494 
L 302.103044 -147.685797 
L 301.480851 -148.084881 
L 300.858658 -148.480747 
L 300.236465 -148.873395 
L 299.614272 -149.262824 
L 298.992079 -149.649034 
L 298.369885 -150.032027 
L 297.747692 -150.411801 
L 297.125499 -150.788356 
L 296.503306 -151.161693 
L 295.881113 -151.531812 
L 295.25892 -151.898712 
L 294.636727 -152.262394 
L 294.014534 -152.622857 
L 293.39234 -152.980102 
L 292.770147 -153.334128 
L 292.147954 -153.684936 
L 291.525761 -154.032526 
L 290.903568 -154.376897 
L 290.281375 -154.71805 
L 289.659182 -155.055984 
L 289.036989 -155.3907 
L 288.414795 -155.722198 
L 287.792602 -156.050477 
L 287.170409 -156.375538 
L 286.548216 -156.69738 
L 285.926023 -157.016004 
L 285.30383 -157.331409 
L 284.681637 -157.643596 
L 284.059444 -157.952565 
L 283.43725 -158.258315 
L 282.815057 -158.560846 
L 282.192864 -158.86016 
L 281.570671 -159.156255 
L 280.948478 -159.449131 
L 280.326285 -159.738789 
L 279.704092 -160.025229 
L 279.081899 -160.30845 
L 278.459705 -160.588453 
L 277.837512 -160.865237 
L 277.215319 -161.138803 
L 276.593126 -161.40915 
L 275.970933 -161.676279 
L 275.34874 -161.94019 
L 274.726547 -162.200882 
L 274.104354 -162.458356 
L 273.48216 -162.712612 
L 272.859967 -162.963648 
L 272.237774 -163.211467 
L 271.615581 -163.456067 
L 270.993388 -163.697449 
L 270.371195 -163.935612 
L 269.749002 -164.170557 
L 269.126809 -164.402283 
L 268.504615 -164.630791 
L 267.882422 -164.856081 
L 267.260229 -165.078152 
L 266.638036 -165.297005 
L 266.015843 -165.512639 
L 265.39365 -165.725055 
L 264.771457 -165.934253 
L 264.149264 -166.140232 
L 263.52707 -166.342992 
L 262.904877 -166.542534 
L 262.282684 -166.738858 
L 261.660491 -166.931964 
L 261.038298 -167.12185 
L 260.416105 -167.308519 
L 259.793912 -167.491969 
L 259.171718 -167.672201 
L 258.549525 -167.849214 
L 257.927332 -168.023009 
L 257.305139 -168.193585 
L 256.682946 -168.360943 
L 256.060753 -168.525083 
L 255.43856 -168.686004 
L 254.816367 -168.843707 
L 254.194173 -168.998191 
L 253.57198 -169.149457 
L 252.949787 -169.297504 
L 252.327594 -169.442333 
L 251.705401 -169.583944 
L 251.083208 -169.722336 
L 250.461015 -169.85751 
L 249.838822 -169.989465 
L 249.216628 -170.118202 
L 248.594435 -170.24372 
L 247.972242 -170.36602 
L 247.350049 -170.485102 
L 246.727856 -170.600965 
L 246.105663 -170.71361 
L 245.48347 -170.823036 
L 244.861277 -170.929244 
L 244.239083 -171.032234 
L 243.61689 -171.132005 
L 242.994697 -171.228558 
L 242.372504 -171.321892 
L 241.750311 -171.412008 
L 241.128118 -171.498905 
L 240.505925 -171.582584 
L 239.883732 -171.663045 
L 239.261538 -171.740287 
L 238.639345 -171.814311 
L 238.017152 -171.885116 
L 237.394959 -171.952703 
L 236.772766 -172.017071 
L 236.150573 -172.078221 
L 235.52838 -172.136153 
L 234.906187 -172.190866 
L 234.283993 -172.242361 
L 233.6618 -172.290637 
L 233.039607 -172.335695 
L 232.417414 -172.377534 
L 231.795221 -172.416156 
L 231.173028 -172.451558 
L 230.550835 -172.483742 
L 229.928642 -172.512708 
L 229.306448 -172.538456 
L 228.684255 -172.560985 
L 228.062062 -172.580295 
L 227.439869 -172.596387 
L 226.817676 -172.609261 
L 226.195483 -172.618916 
L 225.57329 -172.625353 
L 224.951097 -172.628571 
L 224.328903 -172.628571 
L 223.70671 -172.625353 
L 223.084517 -172.618916 
L 222.462324 -172.609261 
L 221.840131 -172.596387 
L 221.217938 -172.580295 
L 220.595745 -172.560985 
L 219.973552 -172.538456 
L 219.351358 -172.512708 
L 218.729165 -172.483742 
L 218.106972 -172.451558 
L 217.484779 -172.416156 
L 216.862586 -172.377534 
L 216.240393 -172.335695 
L 215.6182 -172.290637 
L 214.996007 -172.242361 
L 214.373813 -172.190866 
L 213.75162 -172.136153 
L 213.129427 -172.078221 
L 212.507234 -172.017071 
L 211.885041 -171.952703 
L 211.262848 -171.885116 
L 210.640655 -171.814311 
L 210.018462 -171.740287 
L 209.396268 -171.663045 
L 208.774075 -171.582584 
L 208.151882 -171.498905 
L 207.529689 -171.412008 
L 206.907496 -171.321892 
L 206.285303 -171.228558 
L 205.66311 -171.132005 
L 205.040917 -171.032234 
L 204.418723 -170.929244 
L 203.79653 -170.823036 
L 203.174337 -170.71361 
L 202.552144 -170.600965 
L 201.929951 -170.485102 
L 201.307758 -170.36602 
L 200.685565 -170.24372 
L 200.063372 -170.118202 
L 199.441178 -169.989465 
L 198.818985 -169.85751 
L 198.196792 -169.722336 
L 197.574599 -169.583944 
L 196.952406 -169.442333 
L 196.330213 -169.297504 
L 195.70802 -169.149457 
L 195.085827 -168.998191 
L 194.463633 -168.843707 
L 193.84144 -168.686004 
L 193.219247 -168.525083 
L 192.597054 -168.360943 
L 191.974861 -168.193585 
L 191.352668 -168.023009 
L 190.730475 -167.849214 
L 190.108282 -167.672201 
L 189.486088 -167.491969 
L 188.863895 -167.308519 
L 188.241702 -167.12185 
L 187.619509 -166.931964 
L 186.997316 -166.738858 
L 186.375123 -166.542534 
L 185.75293 -166.342992 
L 185.130736 -166.140232 
L 184.508543 -165.934253 
L 183.88635 -165.725055 
L 183.264157 -165.512639 
L 182.641964 -165.297005 
L 182.019771 -165.078152 
L 181.397578 -164.856081 
L 180.775385 -164.630791 
L 180.153191 -164.402283 
L 179.530998 -164.170557 
L 178.908805 -163.935612 
L 178.286612 -163.697449 
L 177.664419 -163.456067 
L 177.042226 -163.211467 
L 176.420033 -162.963648 
L 175.79784 -162.712612 
L 175.175646 -162.458356 
L 174.553453 -162.200882 
L 173.93126 -161.94019 
L 173.309067 -161.676279 
L 172.686874 -161.40915 
L 172.064681 -161.138803 
L 171.442488 -160.865237 
L 170.820295 -160.588453 
L 170.198101 -160.30845 
L 169.575908 -160.025229 
L 168.953715 -159.738789 
L 168.331522 -159.449131 
L 167.709329 -159.156255 
L 167.087136 -158.86016 
L 166.464943 -158.560846 
L 165.84275 -158.258315 
L 165.220556 -157.952565 
L 164.598363 -157.643596 
L 163.97617 -157.331409 
L 163.353977 -157.016004 
L 162.731784 -156.69738 
L 162.109591 -156.375538 
L 161.487398 -156.050477 
L 160.865205 -155.722198 
L 160.243011 -155.3907 
L 159.620818 -155.055984 
L 158.998625 -154.71805 
L 158.376432 -154.376897 
L 157.754239 -154.032526 
L 157.132046 -153.684936 
L 156.509853 -153.334128 
L 155.88766 -152.980102 
L 155.265466 -152.622857 
L 154.643273 -152.262394 
L 154.02108 -151.898712 
L 153.398887 -151.531812 
L 152.776694 -151.161693 
L 152.154501 -150.788356 
L 151.532308 -150.411801 
L 150.910115 -150.032027 
L 150.287921 -149.649034 
L 149.665728 -149.262824 
L 149.043535 -148.873395 
L 148.421342 -148.480747 
L 147.799149 -148.084881 
L 147.176956 -147.685797 
L 146.554763 -147.283494 
L 145.93257 -146.877973 
L 145.310376 -146.469233 
L 144.688183 -146.057275 
L 144.06599 -145.642098 
L 143.443797 -145.223703 
L 142.821604 -144.80209 
L 142.199411 -144.377258 
L 141.577218 -143.949208 
L 140.955025 -143.517939 
L 140.332831 -143.083452 
L 139.710638 -142.645747 
L 139.088445 -142.204823 
L 138.466252 -141.760681 
L 137.844059 -141.31332 
L 137.221866 -140.862741 
L 136.599673 -140.408943 
L 135.97748 -139.951927 
L 135.355286 -139.491693 
L 134.733093 -139.02824 
L 134.1109 -138.561569 
L 133.488707 -138.091679 
L 132.866514 -137.618571 
L 132.244321 -137.142244 
L 131.622128 -136.662699 
L 130.999935 -136.179936 
L 130.377741 -135.693954 
L 129.755548 -135.204754 
L 129.133355 -134.712335 
L 128.511162 -134.216698 
L 127.888969 -133.717843 
L 127.266776 -133.215769 
L 126.644583 -132.710476 
L 126.02239 -132.201966 
L 125.400196 -131.690237 
L 124.778003 -131.175289 
L 124.15581 -130.657123 
L 123.533617 -130.135738 
L 122.911424 -129.611136 
L 122.289231 -129.083314 
L 121.667038 -128.552275 
L 121.044845 -128.018016 
L 120.422651 -127.48054 
L 119.800458 -126.939845 
L 119.178265 -126.395931 
L 118.556072 -125.8488 
L 117.933879 -125.298449 
L 117.311686 -124.744881 
L 116.689493 -124.188094 
L 116.0673 -123.628088 
L 115.445106 -123.064864 
L 114.822913 -122.498422 
L 114.20072 -121.928761 
L 113.578527 -121.355882 
L 112.956334 -120.779784 
L 112.334141 -120.200468 
L 111.711948 -119.617934 
L 111.089755 -119.032181 
L 110.467561 -118.443209 
L 109.845368 -117.85102 
L 109.223175 -117.255611 
L 108.600982 -116.656985 
L 107.978789 -116.05514 
L 107.356596 -115.450076 
L 106.734403 -114.841794 
L 106.112209 -114.230294 
L 105.490016 -113.615575 
L 104.867823 -112.997638 
L 104.24563 -112.376483 
L 103.623437 -111.752109 
L 103.001244 -111.124516 
L 102.379051 -110.493706 
L 101.756858 -109.859676 
L 101.134664 -109.222429 
L 100.512471 -108.581963 
L 99.890278 -107.938278 
L 99.268085 -107.291375 
L 98.645892 -106.641254 
L 98.023699 -105.987914 
L 97.401506 -105.331356 
L 96.779313 -104.671579 
L 96.157119 -104.008584 
L 95.534926 -103.342371 
L 94.912733 -102.672939 
L 94.29054 -102.000288 
L 93.668347 -101.32442 
L 93.046154 -100.645333 
L 92.423961 -99.963027 
L 91.801768 -99.277503 
L 91.179574 -98.588761 
L 90.557381 -97.8968 
z
" id="meaac41f952" style="stroke:#0000ff;stroke-opacity:0.1;"/>
    </defs>
    <g clip-path="url(#p58026ebe10)">
     <use style="fill:#0000ff;fill-opacity:0.1;stroke:#0000ff;stroke-opacity:0.1;" x="0" xlink:href="#meaac41f952" y="180"/>
    </g>
   </g>
   <g id="matplotlib.axis_1">
    <g id="xtick_1">
     <g id="line2d_1">
      <defs>
       <path d="M 0 0 
L 0 3.5 
" id="mfecd895b34" style="stroke:#000000;stroke-width:0.8;"/>
      </defs>
      <g>
       <use style="stroke:#000000;stroke-width:0.8;" x="90.246285" xlink:href="#mfecd895b34" y="162"/>
      </g>
     </g>
     <g id="text_1">
      <!-- 1960 -->
      <g transform="translate(77.521285 176.598438)scale(0.1 -0.1)">
       <defs>
        <path d="M 794 531 
L 1825 531 
L 1825 4091 
L 703 3866 
L 703 4441 
L 1819 4666 
L 2450 4666 
L 2450 531 
L 3481 531 
L 3481 0 
L 794 0 
L 794 531 
z
" id="DejaVuSans-31" transform="scale(0.015625)"/>
        <path d="M 703 97 
L 703 672 
Q 941 559 1184 500 
Q 1428 441 1663 441 
Q 2288 441 2617 861 
Q 2947 1281 2994 2138 
Q 2813 1869 2534 1725 
Q 2256 1581 1919 1581 
Q 1219 1581 811 2004 
Q 403 2428 403 3163 
Q 403 3881 828 4315 
Q 1253 4750 1959 4750 
Q 2769 4750 3195 4129 
Q 3622 3509 3622 2328 
Q 3622 1225 3098 567 
Q 2575 -91 1691 -91 
Q 1453 -91 1209 -44 
Q 966 3 703 97 
z
M 1959 2075 
Q 2384 2075 2632 2365 
Q 2881 2656 2881 3163 
Q 2881 3666 2632 3958 
Q 2384 4250 1959 4250 
Q 1534 4250 1286 3958 
Q 1038 3666 1038 3163 
Q 1038 2656 1286 2365 
Q 1534 2075 1959 2075 
z
" id="DejaVuSans-39" transform="scale(0.015625)"/>
        <path d="M 2113 2584 
Q 1688 2584 1439 2293 
Q 1191 2003 1191 1497 
Q 1191 994 1439 701 
Q 1688 409 2113 409 
Q 2538 409 2786 701 
Q 3034 994 3034 1497 
Q 3034 2003 2786 2293 
Q 2538 2584 2113 2584 
z
M 3366 4563 
L 3366 3988 
Q 3128 4100 2886 4159 
Q 2644 4219 2406 4219 
Q 1781 4219 1451 3797 
Q 1122 3375 1075 2522 
Q 1259 2794 1537 2939 
Q 1816 3084 2150 3084 
Q 2853 3084 3261 2657 
Q 3669 2231 3669 1497 
Q 3669 778 3244 343 
Q 2819 -91 2113 -91 
Q 1303 -91 875 529 
Q 447 1150 447 2328 
Q 447 3434 972 4092 
Q 1497 4750 2381 4750 
Q 2619 4750 2861 4703 
Q 3103 4656 3366 4563 
z
" id="DejaVuSans-36" transform="scale(0.015625)"/>
        <path d="M 2034 4250 
Q 1547 4250 1301 3770 
Q 1056 3291 1056 2328 
Q 1056 1369 1301 889 
Q 1547 409 2034 409 
Q 2525 409 2770 889 
Q 3016 1369 3016 2328 
Q 3016 3291 2770 3770 
Q 2525 4250 2034 4250 
z
M 2034 4750 
Q 2819 4750 3233 4129 
Q 3647 3509 3647 2328 
Q 3647 1150 3233 529 
Q 2819 -91 2034 -91 
Q 1250 -91 836 529 
Q 422 1150 422 2328 
Q 422 3509 836 4129 
Q 1250 4750 2034 4750 
z
" id="DejaVuSans-30" transform="scale(0.015625)"/>
       </defs>
       <use xlink:href="#DejaVuSans-31"/>
       <use x="63.623047" xlink:href="#DejaVuSans-39"/>
       <use x="127.246094" xlink:href="#DejaVuSans-36"/>
       <use x="190.869141" xlink:href="#DejaVuSans-30"/>
      </g>
     </g>
    </g>
    <g id="xtick_2">
     <g id="line2d_2">
      <g>
       <use style="stroke:#000000;stroke-width:0.8;" x="164.90946" xlink:href="#mfecd895b34" y="162"/>
      </g>
     </g>
     <g id="text_2">
      <!-- 1970 -->
      <g transform="translate(152.18446 176.598438)scale(0.1 -0.1)">
       <defs>
        <path d="M 525 4666 
L 3525 4666 
L 3525 4397 
L 1831 0 
L 1172 0 
L 2766 4134 
L 525 4134 
L 525 4666 
z
" id="DejaVuSans-37" transform="scale(0.015625)"/>
       </defs>
       <use xlink:href="#DejaVuSans-31"/>
       <use x="63.623047" xlink:href="#DejaVuSans-39"/>
       <use x="127.246094" xlink:href="#DejaVuSans-37"/>
       <use x="190.869141" xlink:href="#DejaVuSans-30"/>
      </g>
     </g>
    </g>
    <g id="xtick_3">
     <g id="line2d_3">
      <g>
       <use style="stroke:#000000;stroke-width:0.8;" x="239.572635" xlink:href="#mfecd895b34" y="162"/>
      </g>
     </g>
     <g id="text_3">
      <!-- 1980 -->
      <g transform="translate(226.847635 176.598438)scale(0.1 -0.1)">
       <defs>
        <path d="M 2034 2216 
Q 1584 2216 1326 1975 
Q 1069 1734 1069 1313 
Q 1069 891 1326 650 
Q 1584 409 2034 409 
Q 2484 409 2743 651 
Q 3003 894 3003 1313 
Q 3003 1734 2745 1975 
Q 2488 2216 2034 2216 
z
M 1403 2484 
Q 997 2584 770 2862 
Q 544 3141 544 3541 
Q 544 4100 942 4425 
Q 1341 4750 2034 4750 
Q 2731 4750 3128 4425 
Q 3525 4100 3525 3541 
Q 3525 3141 3298 2862 
Q 3072 2584 2669 2484 
Q 3125 2378 3379 2068 
Q 3634 1759 3634 1313 
Q 3634 634 3220 271 
Q 2806 -91 2034 -91 
Q 1263 -91 848 271 
Q 434 634 434 1313 
Q 434 1759 690 2068 
Q 947 2378 1403 2484 
z
M 1172 3481 
Q 1172 3119 1398 2916 
Q 1625 2713 2034 2713 
Q 2441 2713 2670 2916 
Q 2900 3119 2900 3481 
Q 2900 3844 2670 4047 
Q 2441 4250 2034 4250 
Q 1625 4250 1398 4047 
Q 1172 3844 1172 3481 
z
" id="DejaVuSans-38" transform="scale(0.015625)"/>
       </defs>
       <use xlink:href="#DejaVuSans-31"/>
       <use x="63.623047" xlink:href="#DejaVuSans-39"/>
       <use x="127.246094" xlink:href="#DejaVuSans-38"/>
       <use x="190.869141" xlink:href="#DejaVuSans-30"/>
      </g>
     </g>
    </g>
    <g id="xtick_4">
     <g id="line2d_4">
      <g>
       <use style="stroke:#000000;stroke-width:0.8;" x="314.23581" xlink:href="#mfecd895b34" y="162"/>
      </g>
     </g>
     <g id="text_4">
      <!-- 1990 -->
      <g transform="translate(301.51081 176.598438)scale(0.1 -0.1)">
       <use xlink:href="#DejaVuSans-31"/>
       <use x="63.623047" xlink:href="#DejaVuSans-39"/>
       <use x="127.246094" xlink:href="#DejaVuSans-39"/>
       <use x="190.869141" xlink:href="#DejaVuSans-30"/>
      </g>
     </g>
    </g>
    <g id="xtick_5">
     <g id="line2d_5">
      <g>
       <use style="stroke:#000000;stroke-width:0.8;" x="388.898985" xlink:href="#mfecd895b34" y="162"/>
      </g>
     </g>
     <g id="text_5">
      <!-- 2000 -->
      <g transform="translate(376.173985 176.598438)scale(0.1 -0.1)">
       <defs>
        <path d="M 1228 531 
L 3431 531 
L 3431 0 
L 469 0 
L 469 531 
Q 828 903 1448 1529 
Q 2069 2156 2228 2338 
Q 2531 2678 2651 2914 
Q 2772 3150 2772 3378 
Q 2772 3750 2511 3984 
Q 2250 4219 1831 4219 
Q 1534 4219 1204 4116 
Q 875 4013 500 3803 
L 500 4441 
Q 881 4594 1212 4672 
Q 1544 4750 1819 4750 
Q 2544 4750 2975 4387 
Q 3406 4025 3406 3419 
Q 3406 3131 3298 2873 
Q 3191 2616 2906 2266 
Q 2828 2175 2409 1742 
Q 1991 1309 1228 531 
z
" id="DejaVuSans-32" transform="scale(0.015625)"/>
       </defs>
       <use xlink:href="#DejaVuSans-32"/>
       <use x="63.623047" xlink:href="#DejaVuSans-30"/>
       <use x="127.246094" xlink:href="#DejaVuSans-30"/>
       <use x="190.869141" xlink:href="#DejaVuSans-30"/>
      </g>
     </g>
    </g>
   </g>
   <g id="matplotlib.axis_2">
    <g id="ytick_1">
     <g id="line2d_6">
      <defs>
       <path d="M 0 0 
L -3.5 0 
" id="ma3f16176ff" style="stroke:#000000;stroke-width:0.8;"/>
      </defs>
      <g>
       <use style="stroke:#000000;stroke-width:0.8;" x="34.56" xlink:href="#ma3f16176ff" y="158.199974"/>
      </g>
     </g>
     <g id="text_6">
      <!-- −60 -->
      <g transform="translate(6.455313 161.999192)scale(0.1 -0.1)">
       <defs>
        <path d="M 678 2272 
L 4684 2272 
L 4684 1741 
L 678 1741 
L 678 2272 
z
" id="DejaVuSans-2212" transform="scale(0.015625)"/>
       </defs>
       <use xlink:href="#DejaVuSans-2212"/>
       <use x="83.789062" xlink:href="#DejaVuSans-36"/>
       <use x="147.412109" xlink:href="#DejaVuSans-30"/>
      </g>
     </g>
    </g>
    <g id="ytick_2">
     <g id="line2d_7">
      <g>
       <use style="stroke:#000000;stroke-width:0.8;" x="34.56" xlink:href="#ma3f16176ff" y="133.066649"/>
      </g>
     </g>
     <g id="text_7">
      <!-- −40 -->
      <g transform="translate(6.455313 136.865868)scale(0.1 -0.1)">
       <defs>
        <path d="M 2419 4116 
L 825 1625 
L 2419 1625 
L 2419 4116 
z
M 2253 4666 
L 3047 4666 
L 3047 1625 
L 3713 1625 
L 3713 1100 
L 3047 1100 
L 3047 0 
L 2419 0 
L 2419 1100 
L 313 1100 
L 313 1709 
L 2253 4666 
z
" id="DejaVuSans-34" transform="scale(0.015625)"/>
       </defs>
       <use xlink:href="#DejaVuSans-2212"/>
       <use x="83.789062" xlink:href="#DejaVuSans-34"/>
       <use x="147.412109" xlink:href="#DejaVuSans-30"/>
      </g>
     </g>
    </g>
    <g id="ytick_3">
     <g id="line2d_8">
      <g>
       <use style="stroke:#000000;stroke-width:0.8;" x="34.56" xlink:href="#ma3f16176ff" y="107.933325"/>
      </g>
     </g>
     <g id="text_8">
      <!-- −20 -->
      <g transform="translate(6.455313 111.732543)scale(0.1 -0.1)">
       <use xlink:href="#DejaVuSans-2212"/>
       <use x="83.789062" xlink:href="#DejaVuSans-32"/>
       <use x="147.412109" xlink:href="#DejaVuSans-30"/>
      </g>
     </g>
    </g>
    <g id="ytick_4">
     <g id="line2d_9">
      <g>
       <use style="stroke:#000000;stroke-width:0.8;" x="34.56" xlink:href="#ma3f16176ff" y="82.8"/>
      </g>
     </g>
     <g id="text_9">
      <!-- 0 -->
      <g transform="translate(21.1975 86.599219)scale(0.1 -0.1)">
       <use xlink:href="#DejaVuSans-30"/>
      </g>
     </g>
    </g>
    <g id="ytick_5">
     <g id="line2d_10">
      <g>
       <use style="stroke:#000000;stroke-width:0.8;" x="34.56" xlink:href="#ma3f16176ff" y="57.666675"/>
      </g>
     </g>
     <g id="text_10">
      <!-- 20 -->
      <g transform="translate(14.835 61.465894)scale(0.1 -0.1)">
       <use xlink:href="#DejaVuSans-32"/>
       <use x="63.623047" xlink:href="#DejaVuSans-30"/>
      </g>
     </g>
    </g>
    <g id="ytick_6">
     <g id="line2d_11">
      <g>
       <use style="stroke:#000000;stroke-width:0.8;" x="34.56" xlink:href="#ma3f16176ff" y="32.533351"/>
      </g>
     </g>
     <g id="text_11">
      <!-- 40 -->
      <g transform="translate(14.835 36.33257)scale(0.1 -0.1)">
       <use xlink:href="#DejaVuSans-34"/>
       <use x="63.623047" xlink:href="#DejaVuSans-30"/>
      </g>
     </g>
    </g>
    <g id="ytick_7">
     <g id="line2d_12">
      <g>
       <use style="stroke:#000000;stroke-width:0.8;" x="34.56" xlink:href="#ma3f16176ff" y="7.400026"/>
      </g>
     </g>
     <g id="text_12">
      <!-- 60 -->
      <g transform="translate(14.835 11.199245)scale(0.1 -0.1)">
       <use xlink:href="#DejaVuSans-36"/>
       <use x="63.623047" xlink:href="#DejaVuSans-30"/>
      </g>
     </g>
    </g>
   </g>
   <g id="line2d_13">
    <path clip-path="url(#p58026ebe10)" d="M 90.557381 82.685728 
L 91.179574 83.503998 
L 91.801768 83.533777 
L 92.423961 83.849311 
L 93.046154 84.596296 
L 93.668347 84.561541 
L 94.29054 84.716396 
L 94.912733 83.693343 
L 95.534926 83.765044 
L 96.157119 82.614705 
L 96.779313 82.560727 
L 97.401506 83.608635 
L 98.023699 84.170924 
L 99.890278 84.994971 
L 101.134664 86.029732 
L 101.756858 86.390933 
L 102.379051 87.326536 
L 103.001244 86.619727 
L 104.24563 86.367296 
L 104.867823 86.726245 
L 105.490016 87.57464 
L 106.112209 87.750563 
L 106.734403 88.298015 
L 107.978789 90.443457 
L 108.600982 89.827973 
L 109.223175 89.045583 
L 109.845368 88.070679 
L 110.467561 86.484694 
L 111.089755 86.073168 
L 111.711948 86.111856 
L 112.956334 87.483253 
L 113.578527 87.825031 
L 114.20072 89.210066 
L 114.822913 89.834046 
L 116.0673 90.108664 
L 116.689493 89.789176 
L 117.311686 89.240927 
L 117.933879 87.970228 
L 118.556072 87.512377 
L 119.178265 87.308765 
L 119.800458 85.530066 
L 120.422651 85.978707 
L 121.667038 86.345901 
L 122.289231 86.975675 
L 122.911424 86.819033 
L 123.533617 86.410108 
L 124.15581 85.853156 
L 124.778003 85.660532 
L 125.400196 84.959299 
L 126.02239 85.436535 
L 126.644583 85.388061 
L 127.266776 86.528221 
L 127.888969 86.779633 
L 128.511162 86.439325 
L 129.133355 86.22971 
L 129.755548 85.899326 
L 130.377741 84.968594 
L 130.999935 85.307551 
L 132.244321 83.497798 
L 132.866514 82.957567 
L 133.488707 82.767236 
L 134.1109 83.001549 
L 135.355286 82.095991 
L 135.97748 82.552357 
L 136.599673 81.991354 
L 137.221866 82.905451 
L 137.844059 82.878142 
L 138.466252 82.616749 
L 139.710638 80.92782 
L 140.332831 80.483374 
L 140.955025 80.240002 
L 142.821604 80.977651 
L 143.443797 81.891707 
L 144.06599 82.504039 
L 144.688183 82.94324 
L 145.310376 83.613695 
L 145.93257 83.532856 
L 146.554763 83.904008 
L 147.799149 82.97179 
L 148.421342 83.424638 
L 149.043535 83.627493 
L 149.665728 84.035958 
L 150.287921 83.913097 
L 151.532308 85.768345 
L 152.154501 87.002809 
L 152.776694 87.790734 
L 153.398887 87.857321 
L 154.02108 86.864047 
L 154.643273 86.09255 
L 155.265466 86.256886 
L 155.88766 85.408597 
L 156.509853 85.277421 
L 157.132046 85.011711 
L 157.754239 84.363371 
L 158.376432 84.098993 
L 159.620818 85.538031 
L 160.243011 85.781172 
L 160.865205 85.655734 
L 161.487398 85.183894 
L 162.109591 84.391183 
L 162.731784 84.134594 
L 163.353977 83.404019 
L 163.97617 83.403579 
L 164.598363 83.830589 
L 166.464943 86.22937 
L 167.087136 86.163205 
L 167.709329 84.885655 
L 168.331522 84.082652 
L 168.953715 83.565038 
L 169.575908 82.790122 
L 170.198101 81.312775 
L 170.820295 82.02573 
L 171.442488 81.974823 
L 172.064681 81.364699 
L 172.686874 81.667112 
L 173.309067 82.53879 
L 173.93126 82.431698 
L 174.553453 82.482482 
L 175.175646 82.919322 
L 175.79784 82.532836 
L 177.042226 82.489926 
L 177.664419 82.627268 
L 178.286612 82.503364 
L 178.908805 82.53416 
L 180.775385 83.878656 
L 181.397578 84.147911 
L 182.019771 84.159008 
L 182.641964 84.686303 
L 183.264157 85.971514 
L 183.88635 85.659763 
L 184.508543 85.712446 
L 185.130736 84.963511 
L 185.75293 83.890212 
L 186.375123 84.58143 
L 186.997316 83.869512 
L 187.619509 83.428989 
L 188.241702 83.43032 
L 188.863895 82.402622 
L 189.486088 82.582951 
L 190.108282 81.851406 
L 190.730475 81.834652 
L 191.974861 81.10687 
L 192.597054 81.136939 
L 193.219247 80.806569 
L 193.84144 80.852964 
L 194.463633 80.512962 
L 195.085827 79.771366 
L 195.70802 79.566453 
L 196.330213 78.46999 
L 197.574599 77.592616 
L 198.196792 76.278874 
L 198.818985 75.497952 
L 199.441178 75.971483 
L 200.063372 75.596295 
L 200.685565 74.155147 
L 201.307758 73.442569 
L 201.929951 73.666715 
L 202.552144 73.221496 
L 203.174337 73.206749 
L 204.418723 72.42337 
L 205.66311 70.097874 
L 206.285303 69.427374 
L 206.907496 68.510915 
L 207.529689 68.455646 
L 208.151882 68.107943 
L 209.396268 66.862956 
L 210.018462 66.550422 
L 210.640655 65.597031 
L 211.262848 64.330972 
L 211.885041 63.85061 
L 212.507234 63.201439 
L 214.373813 62.19023 
L 214.996007 60.926208 
L 215.6182 60.616262 
L 217.484779 57.922578 
L 218.106972 57.19877 
L 218.729165 56.995368 
L 219.351358 56.216919 
L 219.973552 56.606697 
L 220.595745 56.386136 
L 221.217938 55.832973 
L 221.840131 56.135201 
L 222.462324 55.573691 
L 223.084517 54.427425 
L 223.70671 54.110084 
L 224.328903 53.666701 
L 224.951097 53.446564 
L 225.57329 52.382482 
L 226.195483 52.055252 
L 226.817676 51.595 
L 227.439869 50.912997 
L 228.062062 51.500047 
L 228.684255 51.723234 
L 229.306448 50.546209 
L 229.928642 50.745977 
L 230.550835 50.712656 
L 231.173028 50.964218 
L 231.795221 51.09501 
L 232.417414 50.910836 
L 233.039607 50.168626 
L 233.6618 49.751231 
L 234.283993 49.486343 
L 235.52838 49.366659 
L 236.150573 50.033719 
L 236.772766 49.834916 
L 237.394959 50.64553 
L 238.017152 50.181381 
L 238.639345 50.793535 
L 239.261538 50.620079 
L 239.883732 51.501289 
L 240.505925 51.323268 
L 242.372504 49.944661 
L 242.994697 49.930273 
L 243.61689 49.363168 
L 244.239083 49.239797 
L 244.861277 49.988549 
L 246.105663 49.009163 
L 247.350049 47.355865 
L 247.972242 47.951044 
L 248.594435 47.600396 
L 249.216628 47.118246 
L 249.838822 47.406156 
L 251.083208 48.740325 
L 251.705401 49.223451 
L 252.327594 50.64956 
L 252.949787 51.445902 
L 253.57198 50.668354 
L 254.816367 50.840651 
L 255.43856 50.162887 
L 257.305139 51.172255 
L 257.927332 51.029514 
L 258.549525 51.883694 
L 259.171718 51.985553 
L 259.793912 52.989032 
L 261.038298 52.412715 
L 261.660491 51.162545 
L 262.282684 51.027891 
L 263.52707 49.059248 
L 264.771457 48.0725 
L 265.39365 47.581561 
L 266.015843 47.841618 
L 266.638036 49.236238 
L 267.260229 49.083751 
L 267.882422 50.321347 
L 268.504615 50.971792 
L 269.749002 52.007908 
L 270.371195 52.572668 
L 271.615581 52.754284 
L 272.237774 53.250437 
L 274.726547 56.455383 
L 275.34874 56.380372 
L 275.970933 57.421187 
L 276.593126 57.632195 
L 277.215319 57.202332 
L 278.459705 57.753713 
L 279.081899 57.645 
L 279.704092 58.316606 
L 280.326285 58.493184 
L 280.948478 59.41557 
L 281.570671 59.404903 
L 282.192864 59.975818 
L 282.815057 60.169207 
L 284.681637 61.981932 
L 285.30383 62.38451 
L 286.548216 61.832607 
L 287.170409 60.82484 
L 287.792602 61.229964 
L 288.414795 61.248877 
L 289.036989 61.978525 
L 289.659182 62.514895 
L 290.903568 63.268629 
L 291.525761 64.108449 
L 292.147954 64.689589 
L 292.770147 64.030223 
L 293.39234 64.292078 
L 294.014534 63.269946 
L 294.636727 63.051156 
L 295.25892 63.307667 
L 296.503306 64.880746 
L 297.747692 67.521616 
L 298.369885 67.567344 
L 298.992079 66.70761 
L 299.614272 66.566477 
L 300.858658 65.743288 
L 301.480851 65.658849 
L 302.725237 66.561301 
L 303.34743 67.341892 
L 303.969624 68.411729 
L 304.591817 68.486382 
L 305.21401 69.053877 
L 305.836203 69.080063 
L 306.458396 69.65288 
L 308.324975 70.200027 
L 308.947169 70.572268 
L 309.569362 70.730739 
L 310.813748 72.062835 
L 311.435941 71.997602 
L 312.680327 74.012515 
L 314.546907 76.513764 
L 315.1691 77.10142 
L 315.791293 77.451959 
L 316.413486 77.341853 
L 317.035679 77.722962 
L 317.657872 77.862063 
L 318.280065 78.18705 
L 318.902259 79.8661 
L 320.146645 82.66086 
L 320.768838 82.014078 
L 321.391031 82.658541 
L 322.013224 82.290447 
L 322.635417 82.088794 
L 323.879804 82.845887 
L 324.501997 83.024372 
L 325.12419 83.677503 
L 325.746383 83.890935 
L 326.368576 83.858682 
L 327.612962 85.022423 
L 328.235155 85.954963 
L 329.479542 86.356545 
L 330.101735 86.401134 
L 330.723928 86.619892 
L 331.346121 86.318435 
L 331.968314 86.293828 
L 332.590507 84.300985 
L 333.2127 83.864174 
L 333.834894 84.60831 
L 334.457087 84.560527 
L 335.701473 83.816346 
L 336.323666 83.253857 
L 337.568052 82.551828 
L 338.190245 82.772952 
L 338.812439 82.128432 
L 339.434632 82.185337 
L 340.056825 82.796278 
L 340.679018 83.009646 
L 341.301211 83.79189 
L 341.923404 83.98659 
L 342.545597 84.503979 
L 343.789984 84.400158 
L 344.412177 83.783621 
L 345.03437 84.166767 
L 345.656563 84.400765 
L 346.278756 84.295808 
L 346.900949 83.836079 
L 347.523142 84.29259 
L 348.145336 85.431927 
L 348.767529 86.127123 
L 349.389722 85.473623 
L 350.011915 86.738452 
L 350.634108 85.961231 
L 351.256301 85.507095 
L 351.878494 84.881551 
L 352.500687 83.253554 
L 353.122881 82.804517 
L 353.745074 82.662055 
L 354.98946 82.990556 
L 355.611653 83.364692 
L 356.233846 82.729748 
L 356.856039 82.984875 
L 357.478232 82.562804 
L 358.100426 82.318911 
L 358.722619 82.8 
L 358.722619 82.8 
" style="fill:none;stroke:#1f77b4;stroke-linecap:square;stroke-width:1.5;"/>
   </g>
   <g id="line2d_14">
    <path clip-path="url(#p58026ebe10)" d="M 34.56 82.8 
L 414.72 82.8 
" style="fill:none;stroke:#000000;stroke-dasharray:1.5,2.475;stroke-dashoffset:0;stroke-width:1.5;"/>
   </g>
   <g id="patch_3">
    <path d="M 34.56 162 
L 34.56 3.6 
" style="fill:none;stroke:#000000;stroke-linecap:square;stroke-linejoin:miter;stroke-width:0.8;"/>
   </g>
   <g id="patch_4">
    <path d="M 414.72 162 
L 414.72 3.6 
" style="fill:none;stroke:#000000;stroke-linecap:square;stroke-linejoin:miter;stroke-width:0.8;"/>
   </g>
   <g id="patch_5">
    <path d="M 34.56 162 
L 414.72 162 
" style="fill:none;stroke:#000000;stroke-linecap:square;stroke-linejoin:miter;stroke-width:0.8;"/>
   </g>
   <g id="patch_6">
    <path d="M 34.56 3.6 
L 414.72 3.6 
" style="fill:none;stroke:#000000;stroke-linecap:square;stroke-linejoin:miter;stroke-width:0.8;"/>
   </g>
  </g>
 </g>
 <defs>
  <clipPath id="p58026ebe10">
   <rect height="158.4" width="380.16" x="34.56" y="3.6"/>
  </clipPath>
 </defs>
</svg>
