<?xml version="1.0" encoding="utf-8" standalone="no"?>
<!DOCTYPE svg PUBLIC "-//W3C//DTD SVG 1.1//EN"
  "http://www.w3.org/Graphics/SVG/1.1/DTD/svg11.dtd">
<svg height="180pt" version="1.1" viewBox="0 0 432 180" width="432pt" xmlns="http://www.w3.org/2000/svg" xmlns:xlink="http://www.w3.org/1999/xlink">
 <metadata>
  <rdf:RDF xmlns:cc="http://creativecommons.org/ns#" xmlns:dc="http://purl.org/dc/elements/1.1/" xmlns:rdf="http://www.w3.org/1999/02/22-rdf-syntax-ns#">
   <cc:Work>
    <dc:type rdf:resource="http://purl.org/dc/dcmitype/StillImage"/>
    <dc:date>2021-08-12T10:43:36.348142</dc:date>
    <dc:format>image/svg+xml</dc:format>
    <dc:creator>
     <cc:Agent>
      <dc:title>Matplotlib v3.4.2, https://matplotlib.org/</dc:title>
     </cc:Agent>
    </dc:creator>
   </cc:Work>
  </rdf:RDF>
 </metadata>
 <defs>
  <style type="text/css">*{stroke-linecap:butt;stroke-linejoin:round;}</style>
 </defs>
 <g id="figure_1">
  <g id="patch_1">
   <path d="M 0 180 
L 432 180 
L 432 0 
L 0 0 
z
" style="fill:#ffffff;"/>
  </g>
  <g id="axes_1">
   <g id="patch_2">
    <path d="M 34.56 162 
L 414.72 162 
L 414.72 3.6 
L 34.56 3.6 
z
" style="fill:#ffffff;"/>
   </g>
   <g id="PolyCollection_1">
    <path clip-path="url(#paebae42d10)" d="M 132.59553 80.815125 
L 132.59553 84.784875 
L 133.684814 86.730317 
L 134.774097 88.649646 
L 135.863381 90.542861 
L 136.952665 92.409963 
L 138.041948 94.250952 
L 139.131232 96.065827 
L 140.220516 97.854589 
L 141.309799 99.617238 
L 142.399083 101.353773 
L 143.488367 103.064195 
L 144.57765 104.748504 
L 145.666934 106.406699 
L 146.756218 108.038782 
L 147.845501 109.64475 
L 148.934785 111.224606 
L 150.024069 112.778348 
L 151.113352 114.305977 
L 152.202636 115.807493 
L 153.29192 117.282895 
L 154.381203 118.732184 
L 155.470487 120.155359 
L 156.559771 121.552422 
L 157.649054 122.923371 
L 158.738338 124.268206 
L 159.827622 125.586929 
L 159.827622 40.013071 
L 159.827622 40.013071 
L 158.738338 41.331794 
L 157.649054 42.676629 
L 156.559771 44.047578 
L 155.470487 45.444641 
L 154.381203 46.867816 
L 153.29192 48.317105 
L 152.202636 49.792507 
L 151.113352 51.294023 
L 150.024069 52.821652 
L 148.934785 54.375394 
L 147.845501 55.95525 
L 146.756218 57.561218 
L 145.666934 59.193301 
L 144.57765 60.851496 
L 143.488367 62.535805 
L 142.399083 64.246227 
L 141.309799 65.982762 
L 140.220516 67.745411 
L 139.131232 69.534173 
L 138.041948 71.349048 
L 136.952665 73.190037 
L 135.863381 75.057139 
L 134.774097 76.950354 
L 133.684814 78.869683 
L 132.59553 80.815125 
z
" style="fill:#0000ff;fill-opacity:0.1;stroke:#0000ff;stroke-opacity:0.1;"/>
    <path clip-path="url(#paebae42d10)" d="M 162.006189 38.720462 
L 162.006189 126.879538 
L 163.095473 128.146034 
L 164.184756 129.386416 
L 164.184756 36.213584 
L 164.184756 36.213584 
L 163.095473 37.453966 
L 162.006189 38.720462 
z
" style="fill:#0000ff;fill-opacity:0.1;stroke:#0000ff;stroke-opacity:0.1;"/>
    <path clip-path="url(#paebae42d10)" d="M 166.363324 34.999315 
L 166.363324 130.600685 
L 167.452607 131.788841 
L 168.541891 132.950883 
L 169.631175 134.086812 
L 170.720458 135.196628 
L 171.809742 136.280331 
L 172.899026 137.33792 
L 173.988309 138.369396 
L 173.988309 27.230604 
L 173.988309 27.230604 
L 172.899026 28.26208 
L 171.809742 29.319669 
L 170.720458 30.403372 
L 169.631175 31.513188 
L 168.541891 32.649117 
L 167.452607 33.811159 
L 166.363324 34.999315 
z
" style="fill:#0000ff;fill-opacity:0.1;stroke:#0000ff;stroke-opacity:0.1;"/>
    <path clip-path="url(#paebae42d10)" d="M 176.166877 26.225241 
L 176.166877 139.374759 
L 177.25616 140.354008 
L 178.345444 141.307144 
L 179.434728 142.234167 
L 180.524011 143.135076 
L 181.613295 144.009872 
L 182.702579 144.858555 
L 183.791862 145.681124 
L 184.881146 146.47758 
L 185.97043 147.247923 
L 187.059713 147.992152 
L 188.148997 148.710268 
L 189.238281 149.402271 
L 190.327564 150.068161 
L 191.416848 150.707937 
L 192.506132 151.3216 
L 193.595415 151.909149 
L 193.595415 13.690851 
L 193.595415 13.690851 
L 192.506132 14.2784 
L 191.416848 14.892063 
L 190.327564 15.531839 
L 189.238281 16.197729 
L 188.148997 16.889732 
L 187.059713 17.607848 
L 185.97043 18.352077 
L 184.881146 19.12242 
L 183.791862 19.918876 
L 182.702579 20.741445 
L 181.613295 21.590128 
L 180.524011 22.464924 
L 179.434728 23.365833 
L 178.345444 24.292856 
L 177.25616 25.245992 
L 176.166877 26.225241 
z
" style="fill:#0000ff;fill-opacity:0.1;stroke:#0000ff;stroke-opacity:0.1;"/>
    <path clip-path="url(#paebae42d10)" d="M 195.773983 13.129414 
L 195.773983 152.470586 
L 196.863266 153.005909 
L 197.95255 153.515118 
L 199.041834 153.998215 
L 199.041834 11.601785 
L 199.041834 11.601785 
L 197.95255 12.084882 
L 196.863266 12.594091 
L 195.773983 13.129414 
z
" style="fill:#0000ff;fill-opacity:0.1;stroke:#0000ff;stroke-opacity:0.1;"/>
    <path clip-path="url(#paebae42d10)" d="M 201.220401 11.144802 
L 201.220401 154.455198 
L 202.309685 154.886067 
L 203.398968 155.290824 
L 203.398968 10.309176 
L 203.398968 10.309176 
L 202.309685 10.713933 
L 201.220401 11.144802 
z
" style="fill:#0000ff;fill-opacity:0.1;stroke:#0000ff;stroke-opacity:0.1;"/>
    <path clip-path="url(#paebae42d10)" d="M 205.577536 9.930533 
L 205.577536 155.669467 
L 206.666819 156.021996 
L 207.756103 156.348413 
L 208.845387 156.648716 
L 209.93467 156.922906 
L 211.023954 157.170982 
L 212.113238 157.392945 
L 213.202521 157.588795 
L 214.291805 157.758532 
L 215.381089 157.902155 
L 215.381089 7.697845 
L 215.381089 7.697845 
L 214.291805 7.841468 
L 213.202521 8.011205 
L 212.113238 8.207055 
L 211.023954 8.429018 
L 209.93467 8.677094 
L 208.845387 8.951284 
L 207.756103 9.251587 
L 206.666819 9.578004 
L 205.577536 9.930533 
z
" style="fill:#0000ff;fill-opacity:0.1;stroke:#0000ff;stroke-opacity:0.1;"/>
    <path clip-path="url(#paebae42d10)" d="M 220.827507 7.580335 
L 220.827507 158.019665 
L 221.916791 158.111062 
L 223.006074 158.176345 
L 224.095358 158.215515 
L 225.184642 158.228571 
L 226.273926 158.215515 
L 226.273926 7.384485 
L 226.273926 7.384485 
L 225.184642 7.371429 
L 224.095358 7.384485 
L 223.006074 7.423655 
L 221.916791 7.488938 
L 220.827507 7.580335 
z
" style="fill:#0000ff;fill-opacity:0.1;stroke:#0000ff;stroke-opacity:0.1;"/>
    <path clip-path="url(#paebae42d10)" d="M 228.452493 7.423655 
L 228.452493 158.176345 
L 229.541777 158.111062 
L 229.541777 7.488938 
L 229.541777 7.488938 
L 228.452493 7.423655 
z
" style="fill:#0000ff;fill-opacity:0.1;stroke:#0000ff;stroke-opacity:0.1;"/>
    <path clip-path="url(#paebae42d10)" d="M 231.720344 7.580335 
L 231.720344 158.019665 
L 232.809628 157.902155 
L 233.898911 157.758532 
L 234.988195 157.588795 
L 236.077479 157.392945 
L 237.166762 157.170982 
L 238.256046 156.922906 
L 239.34533 156.648716 
L 239.34533 8.951284 
L 239.34533 8.951284 
L 238.256046 8.677094 
L 237.166762 8.429018 
L 236.077479 8.207055 
L 234.988195 8.011205 
L 233.898911 7.841468 
L 232.809628 7.697845 
L 231.720344 7.580335 
z
" style="fill:#0000ff;fill-opacity:0.1;stroke:#0000ff;stroke-opacity:0.1;"/>
    <path clip-path="url(#paebae42d10)" d="M 241.523897 9.251587 
L 241.523897 156.348413 
L 241.523897 9.251587 
L 241.523897 9.251587 
z
" style="fill:#0000ff;fill-opacity:0.1;stroke:#0000ff;stroke-opacity:0.1;"/>
    <path clip-path="url(#paebae42d10)" d="M 245.881032 9.578004 
L 245.881032 156.021996 
L 246.970315 155.669467 
L 248.059599 155.290824 
L 249.148883 154.886067 
L 250.238166 154.455198 
L 251.32745 153.998215 
L 252.416734 153.515118 
L 253.506017 153.005909 
L 254.595301 152.470586 
L 255.684585 151.909149 
L 256.773868 151.3216 
L 257.863152 150.707937 
L 258.952436 150.068161 
L 260.041719 149.402271 
L 260.041719 16.197729 
L 260.041719 16.197729 
L 258.952436 15.531839 
L 257.863152 14.892063 
L 256.773868 14.2784 
L 255.684585 13.690851 
L 254.595301 13.129414 
L 253.506017 12.594091 
L 252.416734 12.084882 
L 251.32745 11.601785 
L 250.238166 11.144802 
L 249.148883 10.713933 
L 248.059599 10.309176 
L 246.970315 9.930533 
L 245.881032 9.578004 
z
" style="fill:#0000ff;fill-opacity:0.1;stroke:#0000ff;stroke-opacity:0.1;"/>
    <path clip-path="url(#paebae42d10)" d="M 262.220287 16.889732 
L 262.220287 148.710268 
L 263.30957 147.992152 
L 264.398854 147.247923 
L 265.488138 146.47758 
L 266.577421 145.681124 
L 267.666705 144.858555 
L 268.755989 144.009872 
L 269.845272 143.135076 
L 270.934556 142.234167 
L 272.02384 141.307144 
L 273.113123 140.354008 
L 274.202407 139.374759 
L 275.291691 138.369396 
L 276.380974 137.33792 
L 277.470258 136.280331 
L 278.559542 135.196628 
L 279.648825 134.086812 
L 280.738109 132.950883 
L 281.827393 131.788841 
L 282.916676 130.600685 
L 284.00596 129.386416 
L 285.095244 128.146034 
L 286.184527 126.879538 
L 287.273811 125.586929 
L 288.363095 124.268206 
L 289.452378 122.923371 
L 290.541662 121.552422 
L 291.630946 120.155359 
L 291.630946 45.444641 
L 291.630946 45.444641 
L 290.541662 44.047578 
L 289.452378 42.676629 
L 288.363095 41.331794 
L 287.273811 40.013071 
L 286.184527 38.720462 
L 285.095244 37.453966 
L 284.00596 36.213584 
L 282.916676 34.999315 
L 281.827393 33.811159 
L 280.738109 32.649117 
L 279.648825 31.513188 
L 278.559542 30.403372 
L 277.470258 29.319669 
L 276.380974 28.26208 
L 275.291691 27.230604 
L 274.202407 26.225241 
L 273.113123 25.245992 
L 272.02384 24.292856 
L 270.934556 23.365833 
L 269.845272 22.464924 
L 268.755989 21.590128 
L 267.666705 20.741445 
L 266.577421 19.918876 
L 265.488138 19.12242 
L 264.398854 18.352077 
L 263.30957 17.607848 
L 262.220287 16.889732 
z
" style="fill:#0000ff;fill-opacity:0.1;stroke:#0000ff;stroke-opacity:0.1;"/>
    <path clip-path="url(#paebae42d10)" d="M 293.809513 46.867816 
L 293.809513 118.732184 
L 294.898797 117.282895 
L 295.98808 115.807493 
L 297.077364 114.305977 
L 298.166648 112.778348 
L 299.255931 111.224606 
L 300.345215 109.64475 
L 301.434499 108.038782 
L 302.523782 106.406699 
L 303.613066 104.748504 
L 303.613066 60.851496 
L 303.613066 60.851496 
L 302.523782 59.193301 
L 301.434499 57.561218 
L 300.345215 55.95525 
L 299.255931 54.375394 
L 298.166648 52.821652 
L 297.077364 51.294023 
L 295.98808 49.792507 
L 294.898797 48.317105 
L 293.809513 46.867816 
z
" style="fill:#0000ff;fill-opacity:0.1;stroke:#0000ff;stroke-opacity:0.1;"/>
    <path clip-path="url(#paebae42d10)" d="M 305.791633 62.535805 
L 305.791633 103.064195 
L 306.880917 101.353773 
L 307.970201 99.617238 
L 309.059484 97.854589 
L 310.148768 96.065827 
L 311.238052 94.250952 
L 312.327335 92.409963 
L 313.416619 90.542861 
L 314.505903 88.649646 
L 315.595186 86.730317 
L 316.68447 84.784875 
L 316.68447 80.815125 
L 316.68447 80.815125 
L 315.595186 78.869683 
L 314.505903 76.950354 
L 313.416619 75.057139 
L 312.327335 73.190037 
L 311.238052 71.349048 
L 310.148768 69.534173 
L 309.059484 67.745411 
L 307.970201 65.982762 
L 306.880917 64.246227 
L 305.791633 62.535805 
z
" style="fill:#0000ff;fill-opacity:0.1;stroke:#0000ff;stroke-opacity:0.1;"/>
   </g>
   <g id="matplotlib.axis_1">
    <g id="xtick_1">
     <g id="line2d_1">
      <defs>
       <path d="M 0 0 
L 0 3.5 
" id="md29cfbbc6a" style="stroke:#000000;stroke-width:0.8;"/>
      </defs>
      <g>
       <use style="stroke:#000000;stroke-width:0.8;" x="96.104527" xlink:href="#md29cfbbc6a" y="162"/>
      </g>
     </g>
     <g id="text_1">
      <!-- 1975 -->
      <g transform="translate(83.379527 176.598438)scale(0.1 -0.1)">
       <defs>
        <path d="M 794 531 
L 1825 531 
L 1825 4091 
L 703 3866 
L 703 4441 
L 1819 4666 
L 2450 4666 
L 2450 531 
L 3481 531 
L 3481 0 
L 794 0 
L 794 531 
z
" id="DejaVuSans-31" transform="scale(0.015625)"/>
        <path d="M 703 97 
L 703 672 
Q 941 559 1184 500 
Q 1428 441 1663 441 
Q 2288 441 2617 861 
Q 2947 1281 2994 2138 
Q 2813 1869 2534 1725 
Q 2256 1581 1919 1581 
Q 1219 1581 811 2004 
Q 403 2428 403 3163 
Q 403 3881 828 4315 
Q 1253 4750 1959 4750 
Q 2769 4750 3195 4129 
Q 3622 3509 3622 2328 
Q 3622 1225 3098 567 
Q 2575 -91 1691 -91 
Q 1453 -91 1209 -44 
Q 966 3 703 97 
z
M 1959 2075 
Q 2384 2075 2632 2365 
Q 2881 2656 2881 3163 
Q 2881 3666 2632 3958 
Q 2384 4250 1959 4250 
Q 1534 4250 1286 3958 
Q 1038 3666 1038 3163 
Q 1038 2656 1286 2365 
Q 1534 2075 1959 2075 
z
" id="DejaVuSans-39" transform="scale(0.015625)"/>
        <path d="M 525 4666 
L 3525 4666 
L 3525 4397 
L 1831 0 
L 1172 0 
L 2766 4134 
L 525 4134 
L 525 4666 
z
" id="DejaVuSans-37" transform="scale(0.015625)"/>
        <path d="M 691 4666 
L 3169 4666 
L 3169 4134 
L 1269 4134 
L 1269 2991 
Q 1406 3038 1543 3061 
Q 1681 3084 1819 3084 
Q 2600 3084 3056 2656 
Q 3513 2228 3513 1497 
Q 3513 744 3044 326 
Q 2575 -91 1722 -91 
Q 1428 -91 1123 -41 
Q 819 9 494 109 
L 494 744 
Q 775 591 1075 516 
Q 1375 441 1709 441 
Q 2250 441 2565 725 
Q 2881 1009 2881 1497 
Q 2881 1984 2565 2268 
Q 2250 2553 1709 2553 
Q 1456 2553 1204 2497 
Q 953 2441 691 2322 
L 691 4666 
z
" id="DejaVuSans-35" transform="scale(0.015625)"/>
       </defs>
       <use xlink:href="#DejaVuSans-31"/>
       <use x="63.623047" xlink:href="#DejaVuSans-39"/>
       <use x="127.246094" xlink:href="#DejaVuSans-37"/>
       <use x="190.869141" xlink:href="#DejaVuSans-35"/>
      </g>
     </g>
    </g>
    <g id="xtick_2">
     <g id="line2d_2">
      <g>
       <use style="stroke:#000000;stroke-width:0.8;" x="161.461547" xlink:href="#md29cfbbc6a" y="162"/>
      </g>
     </g>
     <g id="text_2">
      <!-- 1980 -->
      <g transform="translate(148.736547 176.598438)scale(0.1 -0.1)">
       <defs>
        <path d="M 2034 2216 
Q 1584 2216 1326 1975 
Q 1069 1734 1069 1313 
Q 1069 891 1326 650 
Q 1584 409 2034 409 
Q 2484 409 2743 651 
Q 3003 894 3003 1313 
Q 3003 1734 2745 1975 
Q 2488 2216 2034 2216 
z
M 1403 2484 
Q 997 2584 770 2862 
Q 544 3141 544 3541 
Q 544 4100 942 4425 
Q 1341 4750 2034 4750 
Q 2731 4750 3128 4425 
Q 3525 4100 3525 3541 
Q 3525 3141 3298 2862 
Q 3072 2584 2669 2484 
Q 3125 2378 3379 2068 
Q 3634 1759 3634 1313 
Q 3634 634 3220 271 
Q 2806 -91 2034 -91 
Q 1263 -91 848 271 
Q 434 634 434 1313 
Q 434 1759 690 2068 
Q 947 2378 1403 2484 
z
M 1172 3481 
Q 1172 3119 1398 2916 
Q 1625 2713 2034 2713 
Q 2441 2713 2670 2916 
Q 2900 3119 2900 3481 
Q 2900 3844 2670 4047 
Q 2441 4250 2034 4250 
Q 1625 4250 1398 4047 
Q 1172 3844 1172 3481 
z
" id="DejaVuSans-38" transform="scale(0.015625)"/>
        <path d="M 2034 4250 
Q 1547 4250 1301 3770 
Q 1056 3291 1056 2328 
Q 1056 1369 1301 889 
Q 1547 409 2034 409 
Q 2525 409 2770 889 
Q 3016 1369 3016 2328 
Q 3016 3291 2770 3770 
Q 2525 4250 2034 4250 
z
M 2034 4750 
Q 2819 4750 3233 4129 
Q 3647 3509 3647 2328 
Q 3647 1150 3233 529 
Q 2819 -91 2034 -91 
Q 1250 -91 836 529 
Q 422 1150 422 2328 
Q 422 3509 836 4129 
Q 1250 4750 2034 4750 
z
" id="DejaVuSans-30" transform="scale(0.015625)"/>
       </defs>
       <use xlink:href="#DejaVuSans-31"/>
       <use x="63.623047" xlink:href="#DejaVuSans-39"/>
       <use x="127.246094" xlink:href="#DejaVuSans-38"/>
       <use x="190.869141" xlink:href="#DejaVuSans-30"/>
      </g>
     </g>
    </g>
    <g id="xtick_3">
     <g id="line2d_3">
      <g>
       <use style="stroke:#000000;stroke-width:0.8;" x="226.818567" xlink:href="#md29cfbbc6a" y="162"/>
      </g>
     </g>
     <g id="text_3">
      <!-- 1985 -->
      <g transform="translate(214.093567 176.598438)scale(0.1 -0.1)">
       <use xlink:href="#DejaVuSans-31"/>
       <use x="63.623047" xlink:href="#DejaVuSans-39"/>
       <use x="127.246094" xlink:href="#DejaVuSans-38"/>
       <use x="190.869141" xlink:href="#DejaVuSans-35"/>
      </g>
     </g>
    </g>
    <g id="xtick_4">
     <g id="line2d_4">
      <g>
       <use style="stroke:#000000;stroke-width:0.8;" x="292.175587" xlink:href="#md29cfbbc6a" y="162"/>
      </g>
     </g>
     <g id="text_4">
      <!-- 1990 -->
      <g transform="translate(279.450587 176.598438)scale(0.1 -0.1)">
       <use xlink:href="#DejaVuSans-31"/>
       <use x="63.623047" xlink:href="#DejaVuSans-39"/>
       <use x="127.246094" xlink:href="#DejaVuSans-39"/>
       <use x="190.869141" xlink:href="#DejaVuSans-30"/>
      </g>
     </g>
    </g>
    <g id="xtick_5">
     <g id="line2d_5">
      <g>
       <use style="stroke:#000000;stroke-width:0.8;" x="357.532607" xlink:href="#md29cfbbc6a" y="162"/>
      </g>
     </g>
     <g id="text_5">
      <!-- 1995 -->
      <g transform="translate(344.807607 176.598438)scale(0.1 -0.1)">
       <use xlink:href="#DejaVuSans-31"/>
       <use x="63.623047" xlink:href="#DejaVuSans-39"/>
       <use x="127.246094" xlink:href="#DejaVuSans-39"/>
       <use x="190.869141" xlink:href="#DejaVuSans-35"/>
      </g>
     </g>
    </g>
   </g>
   <g id="matplotlib.axis_2">
    <g id="ytick_1">
     <g id="line2d_6">
      <defs>
       <path d="M 0 0 
L -3.5 0 
" id="m4ed6f1f5f5" style="stroke:#000000;stroke-width:0.8;"/>
      </defs>
      <g>
       <use style="stroke:#000000;stroke-width:0.8;" x="34.56" xlink:href="#m4ed6f1f5f5" y="140.323791"/>
      </g>
     </g>
     <g id="text_6">
      <!-- −20 -->
      <g transform="translate(6.455313 144.12301)scale(0.1 -0.1)">
       <defs>
        <path d="M 678 2272 
L 4684 2272 
L 4684 1741 
L 678 1741 
L 678 2272 
z
" id="DejaVuSans-2212" transform="scale(0.015625)"/>
        <path d="M 1228 531 
L 3431 531 
L 3431 0 
L 469 0 
L 469 531 
Q 828 903 1448 1529 
Q 2069 2156 2228 2338 
Q 2531 2678 2651 2914 
Q 2772 3150 2772 3378 
Q 2772 3750 2511 3984 
Q 2250 4219 1831 4219 
Q 1534 4219 1204 4116 
Q 875 4013 500 3803 
L 500 4441 
Q 881 4594 1212 4672 
Q 1544 4750 1819 4750 
Q 2544 4750 2975 4387 
Q 3406 4025 3406 3419 
Q 3406 3131 3298 2873 
Q 3191 2616 2906 2266 
Q 2828 2175 2409 1742 
Q 1991 1309 1228 531 
z
" id="DejaVuSans-32" transform="scale(0.015625)"/>
       </defs>
       <use xlink:href="#DejaVuSans-2212"/>
       <use x="83.789062" xlink:href="#DejaVuSans-32"/>
       <use x="147.412109" xlink:href="#DejaVuSans-30"/>
      </g>
     </g>
    </g>
    <g id="ytick_2">
     <g id="line2d_7">
      <g>
       <use style="stroke:#000000;stroke-width:0.8;" x="34.56" xlink:href="#m4ed6f1f5f5" y="111.561896"/>
      </g>
     </g>
     <g id="text_7">
      <!-- −10 -->
      <g transform="translate(6.455313 115.361114)scale(0.1 -0.1)">
       <use xlink:href="#DejaVuSans-2212"/>
       <use x="83.789062" xlink:href="#DejaVuSans-31"/>
       <use x="147.412109" xlink:href="#DejaVuSans-30"/>
      </g>
     </g>
    </g>
    <g id="ytick_3">
     <g id="line2d_8">
      <g>
       <use style="stroke:#000000;stroke-width:0.8;" x="34.56" xlink:href="#m4ed6f1f5f5" y="82.8"/>
      </g>
     </g>
     <g id="text_8">
      <!-- 0 -->
      <g transform="translate(21.1975 86.599219)scale(0.1 -0.1)">
       <use xlink:href="#DejaVuSans-30"/>
      </g>
     </g>
    </g>
    <g id="ytick_4">
     <g id="line2d_9">
      <g>
       <use style="stroke:#000000;stroke-width:0.8;" x="34.56" xlink:href="#m4ed6f1f5f5" y="54.038104"/>
      </g>
     </g>
     <g id="text_9">
      <!-- 10 -->
      <g transform="translate(14.835 57.837323)scale(0.1 -0.1)">
       <use xlink:href="#DejaVuSans-31"/>
       <use x="63.623047" xlink:href="#DejaVuSans-30"/>
      </g>
     </g>
    </g>
    <g id="ytick_5">
     <g id="line2d_10">
      <g>
       <use style="stroke:#000000;stroke-width:0.8;" x="34.56" xlink:href="#m4ed6f1f5f5" y="25.276209"/>
      </g>
     </g>
     <g id="text_10">
      <!-- 20 -->
      <g transform="translate(14.835 29.075428)scale(0.1 -0.1)">
       <use xlink:href="#DejaVuSans-32"/>
       <use x="63.623047" xlink:href="#DejaVuSans-30"/>
      </g>
     </g>
    </g>
   </g>
   <g id="line2d_11">
    <path clip-path="url(#paebae42d10)" d="M 132.59553 81.962356 
L 133.684814 82.022592 
L 134.774097 81.591761 
L 135.863381 84.369008 
L 136.952665 85.474649 
L 138.041948 85.523491 
L 139.131232 86.237503 
L 140.220516 86.544422 
L 141.309799 87.401985 
L 142.399083 89.933427 
L 143.488367 91.352981 
L 144.57765 92.228023 
L 145.666934 92.388205 
L 146.756218 93.469937 
L 147.845501 95.518927 
L 148.934785 96.048126 
L 150.024069 96.846514 
L 151.113352 95.553157 
L 152.202636 94.934867 
L 153.29192 96.287079 
L 156.559771 99.845315 
L 157.649054 103.002565 
L 158.738338 103.89418 
L 159.827622 104.5581 
M 162.006189 105.647809 
L 164.184756 105.900505 
M 166.363324 106.143556 
L 167.452607 108.348947 
L 168.541891 108.385099 
L 169.631175 110.574386 
L 170.720458 111.032845 
L 171.809742 112.772188 
L 172.899026 112.540997 
L 173.988309 113.416759 
M 176.166877 112.757487 
L 177.25616 111.325918 
L 178.345444 111.030276 
L 179.434728 112.063841 
L 180.524011 111.365094 
L 181.613295 111.764352 
L 182.702579 111.598636 
L 183.791862 111.907881 
L 184.881146 113.439623 
L 185.97043 113.810235 
L 187.059713 113.540309 
L 188.148997 113.429954 
L 189.238281 118.288987 
L 190.327564 128.460039 
L 191.416848 131.809913 
L 192.506132 132.513373 
L 193.595415 131.696109 
M 195.773983 132.656464 
L 196.863266 132.867481 
L 197.95255 134.177328 
L 199.041834 135.216676 
M 201.220401 136.087611 
L 202.309685 135.625228 
L 203.398968 135.752894 
M 205.577536 137.664602 
L 206.666819 138.425964 
L 208.845387 138.644913 
L 209.93467 139.342845 
L 211.023954 141.020588 
L 212.113238 141.966413 
L 214.291805 146.908715 
L 215.381089 147.673512 
M 220.827507 147.217133 
L 221.916791 145.719986 
L 223.006074 141.757531 
L 224.095358 141.737754 
L 225.184642 144.176409 
L 226.273926 147.194731 
M 228.452493 146.678483 
L 229.541777 145.028537 
M 231.720344 143.816525 
L 232.809628 142.909155 
L 233.898911 142.897884 
L 236.077479 140.367137 
L 237.166762 138.250506 
L 238.256046 138.591914 
L 239.34533 137.371403 
M 245.881032 136.18702 
L 246.970315 133.829495 
L 248.059599 132.222286 
L 249.148883 132.708276 
L 250.238166 131.402227 
L 251.32745 131.167314 
L 252.416734 128.125636 
L 253.506017 125.589561 
L 255.684585 118.405066 
L 257.863152 114.133766 
L 258.952436 113.281433 
L 260.041719 111.182169 
M 262.220287 110.038204 
L 263.30957 108.523665 
L 264.398854 106.673318 
L 265.488138 103.168815 
L 266.577421 100.740952 
L 267.666705 101.724321 
L 268.755989 102.388709 
L 269.845272 100.61922 
L 270.934556 99.830051 
L 272.02384 99.329269 
L 273.113123 98.3933 
L 274.202407 97.781809 
L 275.291691 97.446519 
L 277.470258 94.951095 
L 278.559542 94.603077 
L 279.648825 93.161252 
L 280.738109 93.212308 
L 281.827393 93.644497 
L 282.916676 94.700626 
L 284.00596 94.578776 
L 285.095244 94.310474 
L 286.184527 95.616007 
L 287.273811 95.388808 
L 288.363095 94.759606 
L 290.541662 91.603292 
L 291.630946 92.031357 
M 293.809513 91.079968 
L 294.898797 88.620766 
L 297.077364 87.529907 
L 299.255931 86.076895 
L 300.345215 85.87316 
L 301.434499 85.451584 
L 302.523782 84.569006 
L 303.613066 82.845257 
M 305.791633 81.596313 
L 306.880917 81.026056 
L 307.970201 79.731962 
L 309.059484 80.027095 
L 311.238052 78.374798 
L 312.327335 79.421133 
L 313.416619 79.123944 
L 314.505903 80.683053 
L 315.595186 82.999174 
L 316.68447 82.8 
L 316.68447 82.8 
" style="fill:none;stroke:#1f77b4;stroke-linecap:square;stroke-width:1.5;"/>
   </g>
   <g id="line2d_12">
    <path clip-path="url(#paebae42d10)" d="M 34.56 82.8 
L 414.72 82.8 
" style="fill:none;stroke:#000000;stroke-dasharray:1.5,2.475;stroke-dashoffset:0;stroke-width:1.5;"/>
   </g>
   <g id="patch_3">
    <path d="M 34.56 162 
L 34.56 3.6 
" style="fill:none;stroke:#000000;stroke-linecap:square;stroke-linejoin:miter;stroke-width:0.8;"/>
   </g>
   <g id="patch_4">
    <path d="M 414.72 162 
L 414.72 3.6 
" style="fill:none;stroke:#000000;stroke-linecap:square;stroke-linejoin:miter;stroke-width:0.8;"/>
   </g>
   <g id="patch_5">
    <path d="M 34.56 162 
L 414.72 162 
" style="fill:none;stroke:#000000;stroke-linecap:square;stroke-linejoin:miter;stroke-width:0.8;"/>
   </g>
   <g id="patch_6">
    <path d="M 34.56 3.6 
L 414.72 3.6 
" style="fill:none;stroke:#000000;stroke-linecap:square;stroke-linejoin:miter;stroke-width:0.8;"/>
   </g>
  </g>
 </g>
 <defs>
  <clipPath id="paebae42d10">
   <rect height="158.4" width="380.16" x="34.56" y="3.6"/>
  </clipPath>
 </defs>
</svg>
