<?xml version="1.0" encoding="utf-8" standalone="no"?>
<!DOCTYPE svg PUBLIC "-//W3C//DTD SVG 1.1//EN"
  "http://www.w3.org/Graphics/SVG/1.1/DTD/svg11.dtd">
<svg height="180pt" version="1.1" viewBox="0 0 432 180" width="432pt" xmlns="http://www.w3.org/2000/svg" xmlns:xlink="http://www.w3.org/1999/xlink">
 <metadata>
  <rdf:RDF xmlns:cc="http://creativecommons.org/ns#" xmlns:dc="http://purl.org/dc/elements/1.1/" xmlns:rdf="http://www.w3.org/1999/02/22-rdf-syntax-ns#">
   <cc:Work>
    <dc:type rdf:resource="http://purl.org/dc/dcmitype/StillImage"/>
    <dc:date>2021-08-10T10:27:40.069632</dc:date>
    <dc:format>image/svg+xml</dc:format>
    <dc:creator>
     <cc:Agent>
      <dc:title>Matplotlib v3.4.2, https://matplotlib.org/</dc:title>
     </cc:Agent>
    </dc:creator>
   </cc:Work>
  </rdf:RDF>
 </metadata>
 <defs>
  <style type="text/css">*{stroke-linecap:butt;stroke-linejoin:round;}</style>
 </defs>
 <g id="figure_1">
  <g id="patch_1">
   <path d="M 0 180 
L 432 180 
L 432 0 
L 0 0 
z
" style="fill:#ffffff;"/>
  </g>
  <g id="axes_1">
   <g id="patch_2">
    <path d="M 34.56 162 
L 414.72 162 
L 414.72 3.6 
L 34.56 3.6 
z
" style="fill:#ffffff;"/>
   </g>
   <g id="PolyCollection_1">
    <path clip-path="url(#p25b6526b6e)" d="M 76.592432 82.299645 
L 76.592432 83.300355 
L 77.059459 83.798217 
L 77.526486 84.29442 
L 77.993514 84.788962 
L 78.460541 85.281846 
L 78.927568 85.773069 
L 79.394595 86.262634 
L 79.861622 86.750538 
L 80.328649 87.236783 
L 80.795676 87.721369 
L 81.262703 88.204295 
L 81.72973 88.685562 
L 82.196757 89.165169 
L 82.663784 89.643116 
L 83.130811 90.119404 
L 83.597838 90.594032 
L 84.064865 91.067001 
L 84.531892 91.53831 
L 84.998919 92.00796 
L 85.465946 92.47595 
L 85.932973 92.942281 
L 86.4 93.406952 
L 86.867027 93.869964 
L 87.334054 94.331316 
L 87.801081 94.791008 
L 88.268108 95.249041 
L 88.735135 95.705414 
L 89.202162 96.160128 
L 89.669189 96.613183 
L 90.136216 97.064577 
L 90.603243 97.514313 
L 91.07027 97.962388 
L 91.537297 98.408805 
L 92.004324 98.853561 
L 92.471351 99.296658 
L 92.938378 99.738096 
L 93.405405 100.177874 
L 93.872432 100.615992 
L 94.339459 101.052451 
L 94.806486 101.487251 
L 95.273514 101.92039 
L 95.740541 102.351871 
L 96.207568 102.781692 
L 96.674595 103.209853 
L 97.141622 103.636354 
L 97.608649 104.061197 
L 98.075676 104.484379 
L 98.542703 104.905902 
L 99.00973 105.325766 
L 99.476757 105.74397 
L 99.943784 106.160514 
L 100.410811 106.575399 
L 100.877838 106.988625 
L 101.344865 107.40019 
L 101.811892 107.810097 
L 102.278919 108.218343 
L 102.745946 108.624931 
L 103.212973 109.029858 
L 103.68 109.433127 
L 104.147027 109.834735 
L 104.614054 110.234684 
L 105.081081 110.632974 
L 105.548108 111.029604 
L 106.015135 111.424574 
L 106.482162 111.817885 
L 106.949189 112.209536 
L 107.416216 112.599528 
L 107.883243 112.987861 
L 108.35027 113.374533 
L 108.817297 113.759546 
L 109.284324 114.1429 
L 109.751351 114.524594 
L 110.218378 114.904629 
L 110.685405 115.283004 
L 111.152432 115.659719 
L 111.619459 116.034775 
L 112.086486 116.408172 
L 112.553514 116.779909 
L 113.020541 117.149986 
L 113.487568 117.518404 
L 113.954595 117.885162 
L 114.421622 118.250261 
L 114.888649 118.6137 
L 115.355676 118.97548 
L 115.822703 119.3356 
L 116.28973 119.69406 
L 116.756757 120.050861 
L 117.223784 120.406003 
L 117.690811 120.759485 
L 118.157838 121.111307 
L 118.624865 121.46147 
L 119.091892 121.809973 
L 119.558919 122.156817 
L 120.025946 122.502001 
L 120.492973 122.845526 
L 120.96 123.187391 
L 120.96 42.412609 
L 120.96 42.412609 
L 120.492973 42.754474 
L 120.025946 43.097999 
L 119.558919 43.443183 
L 119.091892 43.790027 
L 118.624865 44.13853 
L 118.157838 44.488693 
L 117.690811 44.840515 
L 117.223784 45.193997 
L 116.756757 45.549139 
L 116.28973 45.90594 
L 115.822703 46.2644 
L 115.355676 46.62452 
L 114.888649 46.9863 
L 114.421622 47.349739 
L 113.954595 47.714838 
L 113.487568 48.081596 
L 113.020541 48.450014 
L 112.553514 48.820091 
L 112.086486 49.191828 
L 111.619459 49.565225 
L 111.152432 49.940281 
L 110.685405 50.316996 
L 110.218378 50.695371 
L 109.751351 51.075406 
L 109.284324 51.4571 
L 108.817297 51.840454 
L 108.35027 52.225467 
L 107.883243 52.612139 
L 107.416216 53.000472 
L 106.949189 53.390464 
L 106.482162 53.782115 
L 106.015135 54.175426 
L 105.548108 54.570396 
L 105.081081 54.967026 
L 104.614054 55.365316 
L 104.147027 55.765265 
L 103.68 56.166873 
L 103.212973 56.570142 
L 102.745946 56.975069 
L 102.278919 57.381657 
L 101.811892 57.789903 
L 101.344865 58.19981 
L 100.877838 58.611375 
L 100.410811 59.024601 
L 99.943784 59.439486 
L 99.476757 59.85603 
L 99.00973 60.274234 
L 98.542703 60.694098 
L 98.075676 61.115621 
L 97.608649 61.538803 
L 97.141622 61.963646 
L 96.674595 62.390147 
L 96.207568 62.818308 
L 95.740541 63.248129 
L 95.273514 63.67961 
L 94.806486 64.112749 
L 94.339459 64.547549 
L 93.872432 64.984008 
L 93.405405 65.422126 
L 92.938378 65.861904 
L 92.471351 66.303342 
L 92.004324 66.746439 
L 91.537297 67.191195 
L 91.07027 67.637612 
L 90.603243 68.085687 
L 90.136216 68.535423 
L 89.669189 68.986817 
L 89.202162 69.439872 
L 88.735135 69.894586 
L 88.268108 70.350959 
L 87.801081 70.808992 
L 87.334054 71.268684 
L 86.867027 71.730036 
L 86.4 72.193048 
L 85.932973 72.657719 
L 85.465946 73.12405 
L 84.998919 73.59204 
L 84.531892 74.06169 
L 84.064865 74.532999 
L 83.597838 75.005968 
L 83.130811 75.480596 
L 82.663784 75.956884 
L 82.196757 76.434831 
L 81.72973 76.914438 
L 81.262703 77.395705 
L 80.795676 77.878631 
L 80.328649 78.363217 
L 79.861622 78.849462 
L 79.394595 79.337366 
L 78.927568 79.826931 
L 78.460541 80.318154 
L 77.993514 80.811038 
L 77.526486 81.30558 
L 77.059459 81.801783 
L 76.592432 82.299645 
z
" style="fill:#0000ff;fill-opacity:0.1;stroke:#0000ff;stroke-opacity:0.1;"/>
    <path clip-path="url(#p25b6526b6e)" d="M 122.361081 42.072403 
L 122.361081 123.527597 
L 122.361081 42.072403 
L 122.361081 42.072403 
z
" style="fill:#0000ff;fill-opacity:0.1;stroke:#0000ff;stroke-opacity:0.1;"/>
    <path clip-path="url(#p25b6526b6e)" d="M 123.295135 41.733857 
L 123.295135 123.866143 
L 123.762162 124.20303 
L 124.229189 124.538257 
L 124.696216 124.871824 
L 125.163243 125.203732 
L 125.63027 125.53398 
L 126.097297 125.862569 
L 126.564324 126.189499 
L 127.031351 126.514768 
L 127.498378 126.838379 
L 127.965405 127.160329 
L 128.432432 127.48062 
L 128.899459 127.799252 
L 129.366486 128.116224 
L 129.833514 128.431537 
L 130.300541 128.74519 
L 130.767568 129.057183 
L 131.234595 129.367517 
L 131.701622 129.676191 
L 132.168649 129.983206 
L 132.635676 130.288562 
L 133.102703 130.592257 
L 133.56973 130.894294 
L 134.036757 131.19467 
L 134.503784 131.493387 
L 134.970811 131.790445 
L 135.437838 132.085843 
L 135.904865 132.379582 
L 136.371892 132.671661 
L 136.838919 132.96208 
L 137.305946 133.25084 
L 137.772973 133.53794 
L 138.24 133.823381 
L 138.707027 134.107162 
L 139.174054 134.389284 
L 139.641081 134.669746 
L 140.108108 134.948549 
L 140.575135 135.225692 
L 141.042162 135.501176 
L 141.509189 135.775 
L 141.976216 136.047164 
L 142.443243 136.317669 
L 142.91027 136.586515 
L 143.377297 136.8537 
L 143.844324 137.119227 
L 144.311351 137.383094 
L 144.778378 137.645301 
L 145.245405 137.905849 
L 145.712432 138.164737 
L 146.179459 138.421965 
L 146.646486 138.677535 
L 147.113514 138.931444 
L 147.580541 139.183694 
L 148.047568 139.434285 
L 148.514595 139.683216 
L 148.981622 139.930487 
L 149.448649 140.176099 
L 149.915676 140.420051 
L 150.382703 140.662344 
L 150.84973 140.902977 
L 151.316757 141.141951 
L 151.783784 141.379265 
L 152.250811 141.61492 
L 152.717838 141.848915 
L 153.184865 142.08125 
L 153.651892 142.311926 
L 154.118919 142.540943 
L 154.585946 142.7683 
L 155.052973 142.993997 
L 155.52 143.218035 
L 155.987027 143.440413 
L 156.454054 143.661132 
L 156.921081 143.880191 
L 157.388108 144.097591 
L 157.855135 144.313331 
L 158.322162 144.527412 
L 158.322162 21.072588 
L 158.322162 21.072588 
L 157.855135 21.286669 
L 157.388108 21.502409 
L 156.921081 21.719809 
L 156.454054 21.938868 
L 155.987027 22.159587 
L 155.52 22.381965 
L 155.052973 22.606003 
L 154.585946 22.8317 
L 154.118919 23.059057 
L 153.651892 23.288074 
L 153.184865 23.51875 
L 152.717838 23.751085 
L 152.250811 23.98508 
L 151.783784 24.220735 
L 151.316757 24.458049 
L 150.84973 24.697023 
L 150.382703 24.937656 
L 149.915676 25.179949 
L 149.448649 25.423901 
L 148.981622 25.669513 
L 148.514595 25.916784 
L 148.047568 26.165715 
L 147.580541 26.416306 
L 147.113514 26.668556 
L 146.646486 26.922465 
L 146.179459 27.178035 
L 145.712432 27.435263 
L 145.245405 27.694151 
L 144.778378 27.954699 
L 144.311351 28.216906 
L 143.844324 28.480773 
L 143.377297 28.7463 
L 142.91027 29.013485 
L 142.443243 29.282331 
L 141.976216 29.552836 
L 141.509189 29.825 
L 141.042162 30.098824 
L 140.575135 30.374308 
L 140.108108 30.651451 
L 139.641081 30.930254 
L 139.174054 31.210716 
L 138.707027 31.492838 
L 138.24 31.776619 
L 137.772973 32.06206 
L 137.305946 32.34916 
L 136.838919 32.63792 
L 136.371892 32.928339 
L 135.904865 33.220418 
L 135.437838 33.514157 
L 134.970811 33.809555 
L 134.503784 34.106613 
L 134.036757 34.40533 
L 133.56973 34.705706 
L 133.102703 35.007743 
L 132.635676 35.311438 
L 132.168649 35.616794 
L 131.701622 35.923809 
L 131.234595 36.232483 
L 130.767568 36.542817 
L 130.300541 36.85481 
L 129.833514 37.168463 
L 129.366486 37.483776 
L 128.899459 37.800748 
L 128.432432 38.11938 
L 127.965405 38.439671 
L 127.498378 38.761621 
L 127.031351 39.085232 
L 126.564324 39.410501 
L 126.097297 39.737431 
L 125.63027 40.06602 
L 125.163243 40.396268 
L 124.696216 40.728176 
L 124.229189 41.061743 
L 123.762162 41.39697 
L 123.295135 41.733857 
z
" style="fill:#0000ff;fill-opacity:0.1;stroke:#0000ff;stroke-opacity:0.1;"/>
    <path clip-path="url(#p25b6526b6e)" d="M 159.256216 20.860167 
L 159.256216 144.739833 
L 159.256216 20.860167 
L 159.256216 20.860167 
z
" style="fill:#0000ff;fill-opacity:0.1;stroke:#0000ff;stroke-opacity:0.1;"/>
    <path clip-path="url(#p25b6526b6e)" d="M 160.19027 20.649405 
L 160.19027 144.950595 
L 160.657297 145.159697 
L 161.124324 145.367139 
L 161.591351 145.572922 
L 162.058378 145.777045 
L 162.525405 145.979509 
L 162.992432 146.180313 
L 163.459459 146.379458 
L 163.926486 146.576943 
L 164.393514 146.772769 
L 164.860541 146.966935 
L 165.327568 147.159442 
L 165.794595 147.350289 
L 166.261622 147.539476 
L 166.728649 147.727004 
L 167.195676 147.912873 
L 167.662703 148.097082 
L 168.12973 148.279631 
L 168.596757 148.460521 
L 169.063784 148.639751 
L 169.530811 148.817322 
L 169.997838 148.993233 
L 170.464865 149.167485 
L 170.931892 149.340077 
L 171.398919 149.51101 
L 171.865946 149.680283 
L 172.332973 149.847896 
L 172.8 150.01385 
L 173.267027 150.178144 
L 173.734054 150.340779 
L 174.201081 150.501755 
L 174.668108 150.661071 
L 175.135135 150.818727 
L 175.602162 150.974724 
L 176.069189 151.129061 
L 176.536216 151.281738 
L 177.003243 151.432756 
L 177.47027 151.582115 
L 177.937297 151.729814 
L 177.937297 13.870186 
L 177.937297 13.870186 
L 177.47027 14.017885 
L 177.003243 14.167244 
L 176.536216 14.318262 
L 176.069189 14.470939 
L 175.602162 14.625276 
L 175.135135 14.781273 
L 174.668108 14.938929 
L 174.201081 15.098245 
L 173.734054 15.259221 
L 173.267027 15.421856 
L 172.8 15.58615 
L 172.332973 15.752104 
L 171.865946 15.919717 
L 171.398919 16.08899 
L 170.931892 16.259923 
L 170.464865 16.432515 
L 169.997838 16.606767 
L 169.530811 16.782678 
L 169.063784 16.960249 
L 168.596757 17.139479 
L 168.12973 17.320369 
L 167.662703 17.502918 
L 167.195676 17.687127 
L 166.728649 17.872996 
L 166.261622 18.060524 
L 165.794595 18.249711 
L 165.327568 18.440558 
L 164.860541 18.633065 
L 164.393514 18.827231 
L 163.926486 19.023057 
L 163.459459 19.220542 
L 162.992432 19.419687 
L 162.525405 19.620491 
L 162.058378 19.822955 
L 161.591351 20.027078 
L 161.124324 20.232861 
L 160.657297 20.440303 
L 160.19027 20.649405 
z
" style="fill:#0000ff;fill-opacity:0.1;stroke:#0000ff;stroke-opacity:0.1;"/>
    <path clip-path="url(#p25b6526b6e)" d="M 178.871351 13.724146 
L 178.871351 151.875854 
L 178.871351 13.724146 
L 178.871351 13.724146 
z
" style="fill:#0000ff;fill-opacity:0.1;stroke:#0000ff;stroke-opacity:0.1;"/>
    <path clip-path="url(#p25b6526b6e)" d="M 179.805405 13.579766 
L 179.805405 152.020234 
L 179.805405 13.579766 
L 179.805405 13.579766 
z
" style="fill:#0000ff;fill-opacity:0.1;stroke:#0000ff;stroke-opacity:0.1;"/>
    <path clip-path="url(#p25b6526b6e)" d="M 180.739459 13.437046 
L 180.739459 152.162954 
L 181.206486 152.304015 
L 181.673514 152.443416 
L 181.673514 13.156584 
L 181.673514 13.156584 
L 181.206486 13.295985 
L 180.739459 13.437046 
z
" style="fill:#0000ff;fill-opacity:0.1;stroke:#0000ff;stroke-opacity:0.1;"/>
    <path clip-path="url(#p25b6526b6e)" d="M 182.607568 13.018842 
L 182.607568 152.581158 
L 183.074595 152.71724 
L 183.541622 152.851663 
L 184.008649 152.984426 
L 184.475676 153.11553 
L 184.942703 153.244974 
L 185.40973 153.372758 
L 185.40973 12.227242 
L 185.40973 12.227242 
L 184.942703 12.355026 
L 184.475676 12.48447 
L 184.008649 12.615574 
L 183.541622 12.748337 
L 183.074595 12.88276 
L 182.607568 13.018842 
z
" style="fill:#0000ff;fill-opacity:0.1;stroke:#0000ff;stroke-opacity:0.1;"/>
    <path clip-path="url(#p25b6526b6e)" d="M 186.810811 12.101117 
L 186.810811 153.498883 
L 187.277838 153.623349 
L 187.744865 153.746155 
L 188.211892 153.867301 
L 188.678919 153.986788 
L 189.145946 154.104615 
L 189.612973 154.220783 
L 189.612973 11.379217 
L 189.612973 11.379217 
L 189.145946 11.495385 
L 188.678919 11.613212 
L 188.211892 11.732699 
L 187.744865 11.853845 
L 187.277838 11.976651 
L 186.810811 12.101117 
z
" style="fill:#0000ff;fill-opacity:0.1;stroke:#0000ff;stroke-opacity:0.1;"/>
    <path clip-path="url(#p25b6526b6e)" d="M 191.014054 11.264709 
L 191.014054 154.335291 
L 191.481081 154.44814 
L 191.948108 154.559329 
L 192.415135 154.668859 
L 192.882162 154.776729 
L 193.349189 154.882939 
L 193.816216 154.98749 
L 194.283243 155.090382 
L 194.75027 155.191614 
L 195.217297 155.291186 
L 195.217297 10.308814 
L 195.217297 10.308814 
L 194.75027 10.408386 
L 194.283243 10.509618 
L 193.816216 10.61251 
L 193.349189 10.717061 
L 192.882162 10.823271 
L 192.415135 10.931141 
L 191.948108 11.040671 
L 191.481081 11.15186 
L 191.014054 11.264709 
z
" style="fill:#0000ff;fill-opacity:0.1;stroke:#0000ff;stroke-opacity:0.1;"/>
    <path clip-path="url(#p25b6526b6e)" d="M 196.618378 10.210901 
L 196.618378 155.389099 
L 197.085405 155.485352 
L 197.552432 155.579946 
L 198.019459 155.67288 
L 198.486486 155.764155 
L 198.953514 155.85377 
L 199.420541 155.941726 
L 199.887568 156.028022 
L 200.354595 156.112658 
L 200.821622 156.195635 
L 201.288649 156.276953 
L 201.755676 156.356611 
L 202.222703 156.434609 
L 202.68973 156.510948 
L 203.156757 156.585627 
L 203.623784 156.658647 
L 204.090811 156.730007 
L 204.557838 156.799708 
L 205.024865 156.867749 
L 205.491892 156.93413 
L 205.958919 156.998853 
L 206.425946 157.061915 
L 206.425946 8.538085 
L 206.425946 8.538085 
L 205.958919 8.601147 
L 205.491892 8.66587 
L 205.024865 8.732251 
L 204.557838 8.800292 
L 204.090811 8.869993 
L 203.623784 8.941353 
L 203.156757 9.014373 
L 202.68973 9.089052 
L 202.222703 9.165391 
L 201.755676 9.243389 
L 201.288649 9.323047 
L 200.821622 9.404365 
L 200.354595 9.487342 
L 199.887568 9.571978 
L 199.420541 9.658274 
L 198.953514 9.74623 
L 198.486486 9.835845 
L 198.019459 9.92712 
L 197.552432 10.020054 
L 197.085405 10.114648 
L 196.618378 10.210901 
z
" style="fill:#0000ff;fill-opacity:0.1;stroke:#0000ff;stroke-opacity:0.1;"/>
    <path clip-path="url(#p25b6526b6e)" d="M 207.36 8.476682 
L 207.36 157.123318 
L 207.827027 157.183061 
L 208.294054 157.241145 
L 208.761081 157.29757 
L 209.228108 157.352334 
L 209.695135 157.40544 
L 210.162162 157.456885 
L 210.629189 157.506672 
L 211.096216 157.554798 
L 211.563243 157.601265 
L 212.03027 157.646073 
L 212.497297 157.689221 
L 212.964324 157.73071 
L 213.431351 157.770538 
L 213.898378 157.808708 
L 214.365405 157.845218 
L 214.365405 7.754782 
L 214.365405 7.754782 
L 213.898378 7.791292 
L 213.431351 7.829462 
L 212.964324 7.86929 
L 212.497297 7.910779 
L 212.03027 7.953927 
L 211.563243 7.998735 
L 211.096216 8.045202 
L 210.629189 8.093328 
L 210.162162 8.143115 
L 209.695135 8.19456 
L 209.228108 8.247666 
L 208.761081 8.30243 
L 208.294054 8.358855 
L 207.827027 8.416939 
L 207.36 8.476682 
z
" style="fill:#0000ff;fill-opacity:0.1;stroke:#0000ff;stroke-opacity:0.1;"/>
    <path clip-path="url(#p25b6526b6e)" d="M 215.299459 7.719932 
L 215.299459 157.880068 
L 215.766486 157.913259 
L 216.233514 157.94479 
L 216.700541 157.974662 
L 217.167568 158.002874 
L 217.634595 158.029427 
L 218.101622 158.05432 
L 218.568649 158.077553 
L 219.035676 158.099127 
L 219.502703 158.119042 
L 219.96973 158.137297 
L 220.436757 158.153892 
L 220.903784 158.168828 
L 221.370811 158.182104 
L 221.837838 158.193721 
L 222.304865 158.203678 
L 222.771892 158.211976 
L 223.238919 158.218614 
L 223.705946 158.223593 
L 224.172973 158.226912 
L 224.64 158.228571 
L 225.107027 158.228571 
L 225.574054 158.226912 
L 226.041081 158.223593 
L 226.508108 158.218614 
L 226.975135 158.211976 
L 227.442162 158.203678 
L 227.909189 158.193721 
L 228.376216 158.182104 
L 228.843243 158.168828 
L 229.31027 158.153892 
L 229.777297 158.137297 
L 230.244324 158.119042 
L 230.711351 158.099127 
L 231.178378 158.077553 
L 231.645405 158.05432 
L 232.112432 158.029427 
L 232.579459 158.002874 
L 233.046486 157.974662 
L 233.513514 157.94479 
L 233.980541 157.913259 
L 234.447568 157.880068 
L 234.914595 157.845218 
L 235.381622 157.808708 
L 235.848649 157.770538 
L 236.315676 157.73071 
L 236.782703 157.689221 
L 237.24973 157.646073 
L 237.716757 157.601265 
L 238.183784 157.554798 
L 238.650811 157.506672 
L 239.117838 157.456885 
L 239.584865 157.40544 
L 240.051892 157.352334 
L 240.518919 157.29757 
L 240.985946 157.241145 
L 241.452973 157.183061 
L 241.92 157.123318 
L 242.387027 157.061915 
L 242.854054 156.998853 
L 243.321081 156.93413 
L 243.788108 156.867749 
L 244.255135 156.799708 
L 244.722162 156.730007 
L 245.189189 156.658647 
L 245.656216 156.585627 
L 246.123243 156.510948 
L 246.59027 156.434609 
L 247.057297 156.356611 
L 247.524324 156.276953 
L 247.991351 156.195635 
L 248.458378 156.112658 
L 248.925405 156.028022 
L 249.392432 155.941726 
L 249.392432 9.658274 
L 249.392432 9.658274 
L 248.925405 9.571978 
L 248.458378 9.487342 
L 247.991351 9.404365 
L 247.524324 9.323047 
L 247.057297 9.243389 
L 246.59027 9.165391 
L 246.123243 9.089052 
L 245.656216 9.014373 
L 245.189189 8.941353 
L 244.722162 8.869993 
L 244.255135 8.800292 
L 243.788108 8.732251 
L 243.321081 8.66587 
L 242.854054 8.601147 
L 242.387027 8.538085 
L 241.92 8.476682 
L 241.452973 8.416939 
L 240.985946 8.358855 
L 240.518919 8.30243 
L 240.051892 8.247666 
L 239.584865 8.19456 
L 239.117838 8.143115 
L 238.650811 8.093328 
L 238.183784 8.045202 
L 237.716757 7.998735 
L 237.24973 7.953927 
L 236.782703 7.910779 
L 236.315676 7.86929 
L 235.848649 7.829462 
L 235.381622 7.791292 
L 234.914595 7.754782 
L 234.447568 7.719932 
L 233.980541 7.686741 
L 233.513514 7.65521 
L 233.046486 7.625338 
L 232.579459 7.597126 
L 232.112432 7.570573 
L 231.645405 7.54568 
L 231.178378 7.522447 
L 230.711351 7.500873 
L 230.244324 7.480958 
L 229.777297 7.462703 
L 229.31027 7.446108 
L 228.843243 7.431172 
L 228.376216 7.417896 
L 227.909189 7.406279 
L 227.442162 7.396322 
L 226.975135 7.388024 
L 226.508108 7.381386 
L 226.041081 7.376407 
L 225.574054 7.373088 
L 225.107027 7.371429 
L 224.64 7.371429 
L 224.172973 7.373088 
L 223.705946 7.376407 
L 223.238919 7.381386 
L 222.771892 7.388024 
L 222.304865 7.396322 
L 221.837838 7.406279 
L 221.370811 7.417896 
L 220.903784 7.431172 
L 220.436757 7.446108 
L 219.96973 7.462703 
L 219.502703 7.480958 
L 219.035676 7.500873 
L 218.568649 7.522447 
L 218.101622 7.54568 
L 217.634595 7.570573 
L 217.167568 7.597126 
L 216.700541 7.625338 
L 216.233514 7.65521 
L 215.766486 7.686741 
L 215.299459 7.719932 
z
" style="fill:#0000ff;fill-opacity:0.1;stroke:#0000ff;stroke-opacity:0.1;"/>
    <path clip-path="url(#p25b6526b6e)" d="M 250.793514 9.74623 
L 250.793514 155.85377 
L 251.260541 155.764155 
L 251.727568 155.67288 
L 252.194595 155.579946 
L 252.661622 155.485352 
L 253.128649 155.389099 
L 253.595676 155.291186 
L 254.062703 155.191614 
L 254.52973 155.090382 
L 254.52973 10.509618 
L 254.52973 10.509618 
L 254.062703 10.408386 
L 253.595676 10.308814 
L 253.128649 10.210901 
L 252.661622 10.114648 
L 252.194595 10.020054 
L 251.727568 9.92712 
L 251.260541 9.835845 
L 250.793514 9.74623 
z
" style="fill:#0000ff;fill-opacity:0.1;stroke:#0000ff;stroke-opacity:0.1;"/>
    <path clip-path="url(#p25b6526b6e)" d="M 255.463784 10.61251 
L 255.463784 154.98749 
L 255.930811 154.882939 
L 255.930811 10.717061 
L 255.930811 10.717061 
L 255.463784 10.61251 
z
" style="fill:#0000ff;fill-opacity:0.1;stroke:#0000ff;stroke-opacity:0.1;"/>
    <path clip-path="url(#p25b6526b6e)" d="M 257.331892 10.823271 
L 257.331892 154.776729 
L 257.798919 154.668859 
L 258.265946 154.559329 
L 258.732973 154.44814 
L 259.2 154.335291 
L 259.667027 154.220783 
L 260.134054 154.104615 
L 260.601081 153.986788 
L 261.068108 153.867301 
L 261.535135 153.746155 
L 262.002162 153.623349 
L 262.469189 153.498883 
L 262.936216 153.372758 
L 263.403243 153.244974 
L 263.87027 153.11553 
L 264.337297 152.984426 
L 264.804324 152.851663 
L 265.271351 152.71724 
L 265.271351 12.88276 
L 265.271351 12.88276 
L 264.804324 12.748337 
L 264.337297 12.615574 
L 263.87027 12.48447 
L 263.403243 12.355026 
L 262.936216 12.227242 
L 262.469189 12.101117 
L 262.002162 11.976651 
L 261.535135 11.853845 
L 261.068108 11.732699 
L 260.601081 11.613212 
L 260.134054 11.495385 
L 259.667027 11.379217 
L 259.2 11.264709 
L 258.732973 11.15186 
L 258.265946 11.040671 
L 257.798919 10.931141 
L 257.331892 10.823271 
z
" style="fill:#0000ff;fill-opacity:0.1;stroke:#0000ff;stroke-opacity:0.1;"/>
    <path clip-path="url(#p25b6526b6e)" d="M 266.205405 13.018842 
L 266.205405 152.581158 
L 266.672432 152.443416 
L 267.139459 152.304015 
L 267.606486 152.162954 
L 268.073514 152.020234 
L 268.540541 151.875854 
L 268.540541 13.724146 
L 268.540541 13.724146 
L 268.073514 13.579766 
L 267.606486 13.437046 
L 267.139459 13.295985 
L 266.672432 13.156584 
L 266.205405 13.018842 
z
" style="fill:#0000ff;fill-opacity:0.1;stroke:#0000ff;stroke-opacity:0.1;"/>
    <path clip-path="url(#p25b6526b6e)" d="M 269.474595 13.870186 
L 269.474595 151.729814 
L 269.941622 151.582115 
L 270.408649 151.432756 
L 270.875676 151.281738 
L 271.342703 151.129061 
L 271.80973 150.974724 
L 272.276757 150.818727 
L 272.743784 150.661071 
L 273.210811 150.501755 
L 273.677838 150.340779 
L 274.144865 150.178144 
L 274.611892 150.01385 
L 275.078919 149.847896 
L 275.545946 149.680283 
L 276.012973 149.51101 
L 276.48 149.340077 
L 276.947027 149.167485 
L 277.414054 148.993233 
L 277.881081 148.817322 
L 278.348108 148.639751 
L 278.815135 148.460521 
L 279.282162 148.279631 
L 279.749189 148.097082 
L 280.216216 147.912873 
L 280.683243 147.727004 
L 281.15027 147.539476 
L 281.617297 147.350289 
L 282.084324 147.159442 
L 282.551351 146.966935 
L 283.018378 146.772769 
L 283.485405 146.576943 
L 283.952432 146.379458 
L 284.419459 146.180313 
L 284.886486 145.979509 
L 285.353514 145.777045 
L 285.820541 145.572922 
L 286.287568 145.367139 
L 286.754595 145.159697 
L 287.221622 144.950595 
L 287.688649 144.739833 
L 288.155676 144.527412 
L 288.622703 144.313331 
L 288.622703 21.286669 
L 288.622703 21.286669 
L 288.155676 21.072588 
L 287.688649 20.860167 
L 287.221622 20.649405 
L 286.754595 20.440303 
L 286.287568 20.232861 
L 285.820541 20.027078 
L 285.353514 19.822955 
L 284.886486 19.620491 
L 284.419459 19.419687 
L 283.952432 19.220542 
L 283.485405 19.023057 
L 283.018378 18.827231 
L 282.551351 18.633065 
L 282.084324 18.440558 
L 281.617297 18.249711 
L 281.15027 18.060524 
L 280.683243 17.872996 
L 280.216216 17.687127 
L 279.749189 17.502918 
L 279.282162 17.320369 
L 278.815135 17.139479 
L 278.348108 16.960249 
L 277.881081 16.782678 
L 277.414054 16.606767 
L 276.947027 16.432515 
L 276.48 16.259923 
L 276.012973 16.08899 
L 275.545946 15.919717 
L 275.078919 15.752104 
L 274.611892 15.58615 
L 274.144865 15.421856 
L 273.677838 15.259221 
L 273.210811 15.098245 
L 272.743784 14.938929 
L 272.276757 14.781273 
L 271.80973 14.625276 
L 271.342703 14.470939 
L 270.875676 14.318262 
L 270.408649 14.167244 
L 269.941622 14.017885 
L 269.474595 13.870186 
z
" style="fill:#0000ff;fill-opacity:0.1;stroke:#0000ff;stroke-opacity:0.1;"/>
    <path clip-path="url(#p25b6526b6e)" d="M 289.556757 21.502409 
L 289.556757 144.097591 
L 290.023784 143.880191 
L 290.490811 143.661132 
L 290.957838 143.440413 
L 291.424865 143.218035 
L 291.891892 142.993997 
L 292.358919 142.7683 
L 292.825946 142.540943 
L 293.292973 142.311926 
L 293.76 142.08125 
L 294.227027 141.848915 
L 294.694054 141.61492 
L 295.161081 141.379265 
L 295.161081 24.220735 
L 295.161081 24.220735 
L 294.694054 23.98508 
L 294.227027 23.751085 
L 293.76 23.51875 
L 293.292973 23.288074 
L 292.825946 23.059057 
L 292.358919 22.8317 
L 291.891892 22.606003 
L 291.424865 22.381965 
L 290.957838 22.159587 
L 290.490811 21.938868 
L 290.023784 21.719809 
L 289.556757 21.502409 
z
" style="fill:#0000ff;fill-opacity:0.1;stroke:#0000ff;stroke-opacity:0.1;"/>
    <path clip-path="url(#p25b6526b6e)" d="M 297.029189 24.458049 
L 297.029189 141.141951 
L 297.496216 140.902977 
L 297.963243 140.662344 
L 298.43027 140.420051 
L 298.897297 140.176099 
L 299.364324 139.930487 
L 299.831351 139.683216 
L 300.298378 139.434285 
L 300.765405 139.183694 
L 301.232432 138.931444 
L 301.699459 138.677535 
L 302.166486 138.421965 
L 302.633514 138.164737 
L 303.100541 137.905849 
L 303.567568 137.645301 
L 304.034595 137.383094 
L 304.501622 137.119227 
L 304.968649 136.8537 
L 305.435676 136.586515 
L 305.902703 136.317669 
L 306.36973 136.047164 
L 306.836757 135.775 
L 307.303784 135.501176 
L 307.770811 135.225692 
L 308.237838 134.948549 
L 308.704865 134.669746 
L 309.171892 134.389284 
L 309.638919 134.107162 
L 310.105946 133.823381 
L 310.572973 133.53794 
L 311.04 133.25084 
L 311.507027 132.96208 
L 311.974054 132.671661 
L 312.441081 132.379582 
L 312.908108 132.085843 
L 313.375135 131.790445 
L 313.842162 131.493387 
L 314.309189 131.19467 
L 314.776216 130.894294 
L 315.243243 130.592257 
L 315.71027 130.288562 
L 316.177297 129.983206 
L 316.644324 129.676191 
L 317.111351 129.367517 
L 317.578378 129.057183 
L 318.045405 128.74519 
L 318.512432 128.431537 
L 318.512432 37.168463 
L 318.512432 37.168463 
L 318.045405 36.85481 
L 317.578378 36.542817 
L 317.111351 36.232483 
L 316.644324 35.923809 
L 316.177297 35.616794 
L 315.71027 35.311438 
L 315.243243 35.007743 
L 314.776216 34.705706 
L 314.309189 34.40533 
L 313.842162 34.106613 
L 313.375135 33.809555 
L 312.908108 33.514157 
L 312.441081 33.220418 
L 311.974054 32.928339 
L 311.507027 32.63792 
L 311.04 32.34916 
L 310.572973 32.06206 
L 310.105946 31.776619 
L 309.638919 31.492838 
L 309.171892 31.210716 
L 308.704865 30.930254 
L 308.237838 30.651451 
L 307.770811 30.374308 
L 307.303784 30.098824 
L 306.836757 29.825 
L 306.36973 29.552836 
L 305.902703 29.282331 
L 305.435676 29.013485 
L 304.968649 28.7463 
L 304.501622 28.480773 
L 304.034595 28.216906 
L 303.567568 27.954699 
L 303.100541 27.694151 
L 302.633514 27.435263 
L 302.166486 27.178035 
L 301.699459 26.922465 
L 301.232432 26.668556 
L 300.765405 26.416306 
L 300.298378 26.165715 
L 299.831351 25.916784 
L 299.364324 25.669513 
L 298.897297 25.423901 
L 298.43027 25.179949 
L 297.963243 24.937656 
L 297.496216 24.697023 
L 297.029189 24.458049 
z
" style="fill:#0000ff;fill-opacity:0.1;stroke:#0000ff;stroke-opacity:0.1;"/>
    <path clip-path="url(#p25b6526b6e)" d="M 319.446486 37.483776 
L 319.446486 128.116224 
L 319.913514 127.799252 
L 320.380541 127.48062 
L 320.847568 127.160329 
L 320.847568 38.439671 
L 320.847568 38.439671 
L 320.380541 38.11938 
L 319.913514 37.800748 
L 319.446486 37.483776 
z
" style="fill:#0000ff;fill-opacity:0.1;stroke:#0000ff;stroke-opacity:0.1;"/>
    <path clip-path="url(#p25b6526b6e)" d="M 321.781622 38.761621 
L 321.781622 126.838379 
L 322.248649 126.514768 
L 322.715676 126.189499 
L 323.182703 125.862569 
L 323.64973 125.53398 
L 323.64973 40.06602 
L 323.64973 40.06602 
L 323.182703 39.737431 
L 322.715676 39.410501 
L 322.248649 39.085232 
L 321.781622 38.761621 
z
" style="fill:#0000ff;fill-opacity:0.1;stroke:#0000ff;stroke-opacity:0.1;"/>
    <path clip-path="url(#p25b6526b6e)" d="M 324.583784 40.396268 
L 324.583784 125.203732 
L 325.050811 124.871824 
L 325.517838 124.538257 
L 325.984865 124.20303 
L 326.451892 123.866143 
L 326.918919 123.527597 
L 327.385946 123.187391 
L 327.852973 122.845526 
L 327.852973 42.754474 
L 327.852973 42.754474 
L 327.385946 42.412609 
L 326.918919 42.072403 
L 326.451892 41.733857 
L 325.984865 41.39697 
L 325.517838 41.061743 
L 325.050811 40.728176 
L 324.583784 40.396268 
z
" style="fill:#0000ff;fill-opacity:0.1;stroke:#0000ff;stroke-opacity:0.1;"/>
    <path clip-path="url(#p25b6526b6e)" d="M 328.787027 43.097999 
L 328.787027 122.502001 
L 329.254054 122.156817 
L 329.721081 121.809973 
L 330.188108 121.46147 
L 330.655135 121.111307 
L 331.122162 120.759485 
L 331.589189 120.406003 
L 332.056216 120.050861 
L 332.523243 119.69406 
L 332.99027 119.3356 
L 333.457297 118.97548 
L 333.924324 118.6137 
L 334.391351 118.250261 
L 334.858378 117.885162 
L 335.325405 117.518404 
L 335.792432 117.149986 
L 336.259459 116.779909 
L 336.726486 116.408172 
L 337.193514 116.034775 
L 337.660541 115.659719 
L 338.127568 115.283004 
L 338.594595 114.904629 
L 339.061622 114.524594 
L 339.528649 114.1429 
L 339.995676 113.759546 
L 340.462703 113.374533 
L 340.92973 112.987861 
L 341.396757 112.599528 
L 341.863784 112.209536 
L 342.330811 111.817885 
L 342.797838 111.424574 
L 343.264865 111.029604 
L 343.731892 110.632974 
L 344.198919 110.234684 
L 344.665946 109.834735 
L 345.132973 109.433127 
L 345.6 109.029858 
L 346.067027 108.624931 
L 346.534054 108.218343 
L 347.001081 107.810097 
L 347.468108 107.40019 
L 347.935135 106.988625 
L 348.402162 106.575399 
L 348.869189 106.160514 
L 349.336216 105.74397 
L 349.803243 105.325766 
L 350.27027 104.905902 
L 350.737297 104.484379 
L 351.204324 104.061197 
L 351.671351 103.636354 
L 352.138378 103.209853 
L 352.605405 102.781692 
L 353.072432 102.351871 
L 353.539459 101.92039 
L 354.006486 101.487251 
L 354.473514 101.052451 
L 354.940541 100.615992 
L 355.407568 100.177874 
L 355.874595 99.738096 
L 356.341622 99.296658 
L 356.808649 98.853561 
L 357.275676 98.408805 
L 357.742703 97.962388 
L 358.20973 97.514313 
L 358.676757 97.064577 
L 359.143784 96.613183 
L 359.610811 96.160128 
L 360.077838 95.705414 
L 360.544865 95.249041 
L 361.011892 94.791008 
L 361.478919 94.331316 
L 361.945946 93.869964 
L 361.945946 71.730036 
L 361.945946 71.730036 
L 361.478919 71.268684 
L 361.011892 70.808992 
L 360.544865 70.350959 
L 360.077838 69.894586 
L 359.610811 69.439872 
L 359.143784 68.986817 
L 358.676757 68.535423 
L 358.20973 68.085687 
L 357.742703 67.637612 
L 357.275676 67.191195 
L 356.808649 66.746439 
L 356.341622 66.303342 
L 355.874595 65.861904 
L 355.407568 65.422126 
L 354.940541 64.984008 
L 354.473514 64.547549 
L 354.006486 64.112749 
L 353.539459 63.67961 
L 353.072432 63.248129 
L 352.605405 62.818308 
L 352.138378 62.390147 
L 351.671351 61.963646 
L 351.204324 61.538803 
L 350.737297 61.115621 
L 350.27027 60.694098 
L 349.803243 60.274234 
L 349.336216 59.85603 
L 348.869189 59.439486 
L 348.402162 59.024601 
L 347.935135 58.611375 
L 347.468108 58.19981 
L 347.001081 57.789903 
L 346.534054 57.381657 
L 346.067027 56.975069 
L 345.6 56.570142 
L 345.132973 56.166873 
L 344.665946 55.765265 
L 344.198919 55.365316 
L 343.731892 54.967026 
L 343.264865 54.570396 
L 342.797838 54.175426 
L 342.330811 53.782115 
L 341.863784 53.390464 
L 341.396757 53.000472 
L 340.92973 52.612139 
L 340.462703 52.225467 
L 339.995676 51.840454 
L 339.528649 51.4571 
L 339.061622 51.075406 
L 338.594595 50.695371 
L 338.127568 50.316996 
L 337.660541 49.940281 
L 337.193514 49.565225 
L 336.726486 49.191828 
L 336.259459 48.820091 
L 335.792432 48.450014 
L 335.325405 48.081596 
L 334.858378 47.714838 
L 334.391351 47.349739 
L 333.924324 46.9863 
L 333.457297 46.62452 
L 332.99027 46.2644 
L 332.523243 45.90594 
L 332.056216 45.549139 
L 331.589189 45.193997 
L 331.122162 44.840515 
L 330.655135 44.488693 
L 330.188108 44.13853 
L 329.721081 43.790027 
L 329.254054 43.443183 
L 328.787027 43.097999 
z
" style="fill:#0000ff;fill-opacity:0.1;stroke:#0000ff;stroke-opacity:0.1;"/>
    <path clip-path="url(#p25b6526b6e)" d="M 362.88 72.193048 
L 362.88 93.406952 
L 363.347027 92.942281 
L 363.814054 92.47595 
L 364.281081 92.00796 
L 364.748108 91.53831 
L 365.215135 91.067001 
L 365.682162 90.594032 
L 366.149189 90.119404 
L 366.616216 89.643116 
L 367.083243 89.165169 
L 367.55027 88.685562 
L 368.017297 88.204295 
L 368.484324 87.721369 
L 368.951351 87.236783 
L 369.418378 86.750538 
L 369.885405 86.262634 
L 370.352432 85.773069 
L 370.819459 85.281846 
L 371.286486 84.788962 
L 371.753514 84.29442 
L 372.220541 83.798217 
L 372.687568 83.300355 
L 372.687568 82.299645 
L 372.687568 82.299645 
L 372.220541 81.801783 
L 371.753514 81.30558 
L 371.286486 80.811038 
L 370.819459 80.318154 
L 370.352432 79.826931 
L 369.885405 79.337366 
L 369.418378 78.849462 
L 368.951351 78.363217 
L 368.484324 77.878631 
L 368.017297 77.395705 
L 367.55027 76.914438 
L 367.083243 76.434831 
L 366.616216 75.956884 
L 366.149189 75.480596 
L 365.682162 75.005968 
L 365.215135 74.532999 
L 364.748108 74.06169 
L 364.281081 73.59204 
L 363.814054 73.12405 
L 363.347027 72.657719 
L 362.88 72.193048 
z
" style="fill:#0000ff;fill-opacity:0.1;stroke:#0000ff;stroke-opacity:0.1;"/>
   </g>
   <g id="matplotlib.axis_1">
    <g id="xtick_1">
     <g id="line2d_1">
      <defs>
       <path d="M 0 0 
L 0 3.5 
" id="m15874aa5ee" style="stroke:#000000;stroke-width:0.8;"/>
      </defs>
      <g>
       <use style="stroke:#000000;stroke-width:0.8;" x="76.358919" xlink:href="#m15874aa5ee" y="162"/>
      </g>
     </g>
     <g id="text_1">
      <!-- 1960 -->
      <g transform="translate(63.633919 176.598438)scale(0.1 -0.1)">
       <defs>
        <path d="M 794 531 
L 1825 531 
L 1825 4091 
L 703 3866 
L 703 4441 
L 1819 4666 
L 2450 4666 
L 2450 531 
L 3481 531 
L 3481 0 
L 794 0 
L 794 531 
z
" id="DejaVuSans-31" transform="scale(0.015625)"/>
        <path d="M 703 97 
L 703 672 
Q 941 559 1184 500 
Q 1428 441 1663 441 
Q 2288 441 2617 861 
Q 2947 1281 2994 2138 
Q 2813 1869 2534 1725 
Q 2256 1581 1919 1581 
Q 1219 1581 811 2004 
Q 403 2428 403 3163 
Q 403 3881 828 4315 
Q 1253 4750 1959 4750 
Q 2769 4750 3195 4129 
Q 3622 3509 3622 2328 
Q 3622 1225 3098 567 
Q 2575 -91 1691 -91 
Q 1453 -91 1209 -44 
Q 966 3 703 97 
z
M 1959 2075 
Q 2384 2075 2632 2365 
Q 2881 2656 2881 3163 
Q 2881 3666 2632 3958 
Q 2384 4250 1959 4250 
Q 1534 4250 1286 3958 
Q 1038 3666 1038 3163 
Q 1038 2656 1286 2365 
Q 1534 2075 1959 2075 
z
" id="DejaVuSans-39" transform="scale(0.015625)"/>
        <path d="M 2113 2584 
Q 1688 2584 1439 2293 
Q 1191 2003 1191 1497 
Q 1191 994 1439 701 
Q 1688 409 2113 409 
Q 2538 409 2786 701 
Q 3034 994 3034 1497 
Q 3034 2003 2786 2293 
Q 2538 2584 2113 2584 
z
M 3366 4563 
L 3366 3988 
Q 3128 4100 2886 4159 
Q 2644 4219 2406 4219 
Q 1781 4219 1451 3797 
Q 1122 3375 1075 2522 
Q 1259 2794 1537 2939 
Q 1816 3084 2150 3084 
Q 2853 3084 3261 2657 
Q 3669 2231 3669 1497 
Q 3669 778 3244 343 
Q 2819 -91 2113 -91 
Q 1303 -91 875 529 
Q 447 1150 447 2328 
Q 447 3434 972 4092 
Q 1497 4750 2381 4750 
Q 2619 4750 2861 4703 
Q 3103 4656 3366 4563 
z
" id="DejaVuSans-36" transform="scale(0.015625)"/>
        <path d="M 2034 4250 
Q 1547 4250 1301 3770 
Q 1056 3291 1056 2328 
Q 1056 1369 1301 889 
Q 1547 409 2034 409 
Q 2525 409 2770 889 
Q 3016 1369 3016 2328 
Q 3016 3291 2770 3770 
Q 2525 4250 2034 4250 
z
M 2034 4750 
Q 2819 4750 3233 4129 
Q 3647 3509 3647 2328 
Q 3647 1150 3233 529 
Q 2819 -91 2034 -91 
Q 1250 -91 836 529 
Q 422 1150 422 2328 
Q 422 3509 836 4129 
Q 1250 4750 2034 4750 
z
" id="DejaVuSans-30" transform="scale(0.015625)"/>
       </defs>
       <use xlink:href="#DejaVuSans-31"/>
       <use x="63.623047" xlink:href="#DejaVuSans-39"/>
       <use x="127.246094" xlink:href="#DejaVuSans-36"/>
       <use x="190.869141" xlink:href="#DejaVuSans-30"/>
      </g>
     </g>
    </g>
    <g id="xtick_2">
     <g id="line2d_2">
      <g>
       <use style="stroke:#000000;stroke-width:0.8;" x="132.402162" xlink:href="#m15874aa5ee" y="162"/>
      </g>
     </g>
     <g id="text_2">
      <!-- 1970 -->
      <g transform="translate(119.677162 176.598438)scale(0.1 -0.1)">
       <defs>
        <path d="M 525 4666 
L 3525 4666 
L 3525 4397 
L 1831 0 
L 1172 0 
L 2766 4134 
L 525 4134 
L 525 4666 
z
" id="DejaVuSans-37" transform="scale(0.015625)"/>
       </defs>
       <use xlink:href="#DejaVuSans-31"/>
       <use x="63.623047" xlink:href="#DejaVuSans-39"/>
       <use x="127.246094" xlink:href="#DejaVuSans-37"/>
       <use x="190.869141" xlink:href="#DejaVuSans-30"/>
      </g>
     </g>
    </g>
    <g id="xtick_3">
     <g id="line2d_3">
      <g>
       <use style="stroke:#000000;stroke-width:0.8;" x="188.445405" xlink:href="#m15874aa5ee" y="162"/>
      </g>
     </g>
     <g id="text_3">
      <!-- 1980 -->
      <g transform="translate(175.720405 176.598438)scale(0.1 -0.1)">
       <defs>
        <path d="M 2034 2216 
Q 1584 2216 1326 1975 
Q 1069 1734 1069 1313 
Q 1069 891 1326 650 
Q 1584 409 2034 409 
Q 2484 409 2743 651 
Q 3003 894 3003 1313 
Q 3003 1734 2745 1975 
Q 2488 2216 2034 2216 
z
M 1403 2484 
Q 997 2584 770 2862 
Q 544 3141 544 3541 
Q 544 4100 942 4425 
Q 1341 4750 2034 4750 
Q 2731 4750 3128 4425 
Q 3525 4100 3525 3541 
Q 3525 3141 3298 2862 
Q 3072 2584 2669 2484 
Q 3125 2378 3379 2068 
Q 3634 1759 3634 1313 
Q 3634 634 3220 271 
Q 2806 -91 2034 -91 
Q 1263 -91 848 271 
Q 434 634 434 1313 
Q 434 1759 690 2068 
Q 947 2378 1403 2484 
z
M 1172 3481 
Q 1172 3119 1398 2916 
Q 1625 2713 2034 2713 
Q 2441 2713 2670 2916 
Q 2900 3119 2900 3481 
Q 2900 3844 2670 4047 
Q 2441 4250 2034 4250 
Q 1625 4250 1398 4047 
Q 1172 3844 1172 3481 
z
" id="DejaVuSans-38" transform="scale(0.015625)"/>
       </defs>
       <use xlink:href="#DejaVuSans-31"/>
       <use x="63.623047" xlink:href="#DejaVuSans-39"/>
       <use x="127.246094" xlink:href="#DejaVuSans-38"/>
       <use x="190.869141" xlink:href="#DejaVuSans-30"/>
      </g>
     </g>
    </g>
    <g id="xtick_4">
     <g id="line2d_4">
      <g>
       <use style="stroke:#000000;stroke-width:0.8;" x="244.488649" xlink:href="#m15874aa5ee" y="162"/>
      </g>
     </g>
     <g id="text_4">
      <!-- 1990 -->
      <g transform="translate(231.763649 176.598438)scale(0.1 -0.1)">
       <use xlink:href="#DejaVuSans-31"/>
       <use x="63.623047" xlink:href="#DejaVuSans-39"/>
       <use x="127.246094" xlink:href="#DejaVuSans-39"/>
       <use x="190.869141" xlink:href="#DejaVuSans-30"/>
      </g>
     </g>
    </g>
    <g id="xtick_5">
     <g id="line2d_5">
      <g>
       <use style="stroke:#000000;stroke-width:0.8;" x="300.531892" xlink:href="#m15874aa5ee" y="162"/>
      </g>
     </g>
     <g id="text_5">
      <!-- 2000 -->
      <g transform="translate(287.806892 176.598438)scale(0.1 -0.1)">
       <defs>
        <path d="M 1228 531 
L 3431 531 
L 3431 0 
L 469 0 
L 469 531 
Q 828 903 1448 1529 
Q 2069 2156 2228 2338 
Q 2531 2678 2651 2914 
Q 2772 3150 2772 3378 
Q 2772 3750 2511 3984 
Q 2250 4219 1831 4219 
Q 1534 4219 1204 4116 
Q 875 4013 500 3803 
L 500 4441 
Q 881 4594 1212 4672 
Q 1544 4750 1819 4750 
Q 2544 4750 2975 4387 
Q 3406 4025 3406 3419 
Q 3406 3131 3298 2873 
Q 3191 2616 2906 2266 
Q 2828 2175 2409 1742 
Q 1991 1309 1228 531 
z
" id="DejaVuSans-32" transform="scale(0.015625)"/>
       </defs>
       <use xlink:href="#DejaVuSans-32"/>
       <use x="63.623047" xlink:href="#DejaVuSans-30"/>
       <use x="127.246094" xlink:href="#DejaVuSans-30"/>
       <use x="190.869141" xlink:href="#DejaVuSans-30"/>
      </g>
     </g>
    </g>
    <g id="xtick_6">
     <g id="line2d_6">
      <g>
       <use style="stroke:#000000;stroke-width:0.8;" x="356.575135" xlink:href="#m15874aa5ee" y="162"/>
      </g>
     </g>
     <g id="text_6">
      <!-- 2010 -->
      <g transform="translate(343.850135 176.598438)scale(0.1 -0.1)">
       <use xlink:href="#DejaVuSans-32"/>
       <use x="63.623047" xlink:href="#DejaVuSans-30"/>
       <use x="127.246094" xlink:href="#DejaVuSans-31"/>
       <use x="190.869141" xlink:href="#DejaVuSans-30"/>
      </g>
     </g>
    </g>
    <g id="xtick_7">
     <g id="line2d_7">
      <g>
       <use style="stroke:#000000;stroke-width:0.8;" x="412.618378" xlink:href="#m15874aa5ee" y="162"/>
      </g>
     </g>
     <g id="text_7">
      <!-- 2020 -->
      <g transform="translate(399.893378 176.598438)scale(0.1 -0.1)">
       <use xlink:href="#DejaVuSans-32"/>
       <use x="63.623047" xlink:href="#DejaVuSans-30"/>
       <use x="127.246094" xlink:href="#DejaVuSans-32"/>
       <use x="190.869141" xlink:href="#DejaVuSans-30"/>
      </g>
     </g>
    </g>
   </g>
   <g id="matplotlib.axis_2">
    <g id="ytick_1">
     <g id="line2d_8">
      <defs>
       <path d="M 0 0 
L -3.5 0 
" id="m959fd9f949" style="stroke:#000000;stroke-width:0.8;"/>
      </defs>
      <g>
       <use style="stroke:#000000;stroke-width:0.8;" x="34.56" xlink:href="#m959fd9f949" y="156.569545"/>
      </g>
     </g>
     <g id="text_8">
      <!-- −75 -->
      <g transform="translate(6.455313 160.368764)scale(0.1 -0.1)">
       <defs>
        <path d="M 678 2272 
L 4684 2272 
L 4684 1741 
L 678 1741 
L 678 2272 
z
" id="DejaVuSans-2212" transform="scale(0.015625)"/>
        <path d="M 691 4666 
L 3169 4666 
L 3169 4134 
L 1269 4134 
L 1269 2991 
Q 1406 3038 1543 3061 
Q 1681 3084 1819 3084 
Q 2600 3084 3056 2656 
Q 3513 2228 3513 1497 
Q 3513 744 3044 326 
Q 2575 -91 1722 -91 
Q 1428 -91 1123 -41 
Q 819 9 494 109 
L 494 744 
Q 775 591 1075 516 
Q 1375 441 1709 441 
Q 2250 441 2565 725 
Q 2881 1009 2881 1497 
Q 2881 1984 2565 2268 
Q 2250 2553 1709 2553 
Q 1456 2553 1204 2497 
Q 953 2441 691 2322 
L 691 4666 
z
" id="DejaVuSans-35" transform="scale(0.015625)"/>
       </defs>
       <use xlink:href="#DejaVuSans-2212"/>
       <use x="83.789062" xlink:href="#DejaVuSans-37"/>
       <use x="147.412109" xlink:href="#DejaVuSans-35"/>
      </g>
     </g>
    </g>
    <g id="ytick_2">
     <g id="line2d_9">
      <g>
       <use style="stroke:#000000;stroke-width:0.8;" x="34.56" xlink:href="#m959fd9f949" y="131.979697"/>
      </g>
     </g>
     <g id="text_9">
      <!-- −50 -->
      <g transform="translate(6.455313 135.778915)scale(0.1 -0.1)">
       <use xlink:href="#DejaVuSans-2212"/>
       <use x="83.789062" xlink:href="#DejaVuSans-35"/>
       <use x="147.412109" xlink:href="#DejaVuSans-30"/>
      </g>
     </g>
    </g>
    <g id="ytick_3">
     <g id="line2d_10">
      <g>
       <use style="stroke:#000000;stroke-width:0.8;" x="34.56" xlink:href="#m959fd9f949" y="107.389848"/>
      </g>
     </g>
     <g id="text_10">
      <!-- −25 -->
      <g transform="translate(6.455313 111.189067)scale(0.1 -0.1)">
       <use xlink:href="#DejaVuSans-2212"/>
       <use x="83.789062" xlink:href="#DejaVuSans-32"/>
       <use x="147.412109" xlink:href="#DejaVuSans-35"/>
      </g>
     </g>
    </g>
    <g id="ytick_4">
     <g id="line2d_11">
      <g>
       <use style="stroke:#000000;stroke-width:0.8;" x="34.56" xlink:href="#m959fd9f949" y="82.8"/>
      </g>
     </g>
     <g id="text_11">
      <!-- 0 -->
      <g transform="translate(21.1975 86.599219)scale(0.1 -0.1)">
       <use xlink:href="#DejaVuSans-30"/>
      </g>
     </g>
    </g>
    <g id="ytick_5">
     <g id="line2d_12">
      <g>
       <use style="stroke:#000000;stroke-width:0.8;" x="34.56" xlink:href="#m959fd9f949" y="58.210152"/>
      </g>
     </g>
     <g id="text_12">
      <!-- 25 -->
      <g transform="translate(14.835 62.00937)scale(0.1 -0.1)">
       <use xlink:href="#DejaVuSans-32"/>
       <use x="63.623047" xlink:href="#DejaVuSans-35"/>
      </g>
     </g>
    </g>
    <g id="ytick_6">
     <g id="line2d_13">
      <g>
       <use style="stroke:#000000;stroke-width:0.8;" x="34.56" xlink:href="#m959fd9f949" y="33.620303"/>
      </g>
     </g>
     <g id="text_13">
      <!-- 50 -->
      <g transform="translate(14.835 37.419522)scale(0.1 -0.1)">
       <use xlink:href="#DejaVuSans-35"/>
       <use x="63.623047" xlink:href="#DejaVuSans-30"/>
      </g>
     </g>
    </g>
    <g id="ytick_7">
     <g id="line2d_14">
      <g>
       <use style="stroke:#000000;stroke-width:0.8;" x="34.56" xlink:href="#m959fd9f949" y="9.030455"/>
      </g>
     </g>
     <g id="text_14">
      <!-- 75 -->
      <g transform="translate(14.835 12.829674)scale(0.1 -0.1)">
       <use xlink:href="#DejaVuSans-37"/>
       <use x="63.623047" xlink:href="#DejaVuSans-35"/>
      </g>
     </g>
    </g>
   </g>
   <g id="line2d_15">
    <path clip-path="url(#p25b6526b6e)" d="M 76.592432 83.135451 
L 77.526486 83.600862 
L 77.993514 83.668389 
L 78.460541 83.991338 
L 79.394595 84.234517 
L 79.861622 84.973309 
L 80.328649 85.214075 
L 80.795676 85.169758 
L 81.72973 84.849451 
L 82.663784 84.816625 
L 83.130811 85.243928 
L 83.597838 85.103833 
L 84.064865 85.140412 
L 84.531892 85.045409 
L 85.465946 85.050049 
L 86.4 84.963817 
L 87.801081 85.673866 
L 88.268108 85.748985 
L 88.735135 86.19095 
L 89.202162 85.762279 
L 89.669189 85.73604 
L 90.136216 86.259932 
L 90.603243 86.476473 
L 91.07027 86.541027 
L 92.004324 87.085358 
L 92.471351 87.079598 
L 92.938378 87.376115 
L 93.405405 87.082441 
L 93.872432 87.489583 
L 94.339459 87.558304 
L 94.806486 87.341555 
L 95.273514 86.796529 
L 95.740541 85.846382 
L 96.207568 85.955263 
L 96.674595 85.874151 
L 97.141622 85.319487 
L 97.608649 85.01242 
L 98.075676 84.912865 
L 98.542703 84.591027 
L 99.00973 85.060384 
L 99.476757 84.815301 
L 99.943784 84.823242 
L 100.877838 84.039219 
L 102.278919 83.500392 
L 102.745946 83.913187 
L 103.212973 83.895447 
L 103.68 83.428448 
L 104.147027 83.273435 
L 105.081081 82.399502 
L 106.482162 81.653568 
L 106.949189 81.171186 
L 107.883243 80.585401 
L 108.35027 80.030007 
L 109.284324 80.021563 
L 109.751351 80.172098 
L 110.218378 79.941571 
L 110.685405 79.900617 
L 112.086486 79.21482 
L 112.553514 78.666083 
L 113.487568 78.32298 
L 113.954595 78.307337 
L 114.888649 77.326822 
L 115.355676 77.182886 
L 116.28973 77.634292 
L 117.690811 77.710436 
L 118.157838 78.242465 
L 118.624865 78.574219 
L 119.091892 78.768121 
L 119.558919 78.76352 
L 120.025946 78.554791 
L 120.492973 78.603512 
L 120.96 78.516199 
M 123.295135 78.943532 
L 124.229189 79.017862 
L 124.696216 78.471628 
L 125.63027 78.452092 
L 126.097297 78.008071 
L 127.031351 77.755401 
L 127.498378 78.350317 
L 127.965405 78.473457 
L 128.432432 78.409476 
L 128.899459 77.906469 
L 129.366486 78.213853 
L 129.833514 78.338088 
L 130.300541 78.697608 
L 131.234595 78.748666 
L 131.701622 78.907829 
L 132.168649 78.544874 
L 132.635676 78.833411 
L 133.56973 79.014534 
L 134.503784 78.542911 
L 134.970811 78.637305 
L 135.904865 78.265325 
L 136.371892 77.963575 
L 137.772973 77.599071 
L 138.707027 77.500021 
L 139.641081 76.805454 
L 140.108108 76.586138 
L 140.575135 76.170624 
L 141.042162 76.396567 
L 141.509189 75.88784 
L 141.976216 75.927906 
L 142.443243 76.405375 
L 143.377297 76.747382 
L 144.311351 77.475939 
L 144.778378 77.736482 
L 145.245405 77.580933 
L 145.712432 77.212728 
L 146.179459 77.013398 
L 146.646486 76.647611 
L 147.113514 76.606092 
L 147.580541 76.769252 
L 148.047568 77.231312 
L 148.514595 76.941435 
L 148.981622 77.055997 
L 150.382703 76.648803 
L 151.783784 77.131379 
L 152.717838 77.112738 
L 153.184865 76.962658 
L 153.651892 77.14418 
L 154.118919 77.580996 
L 155.052973 77.36803 
L 155.987027 76.500728 
L 156.454054 76.590809 
L 156.921081 76.952115 
L 157.855135 76.146663 
L 158.322162 75.997416 
M 160.19027 75.551215 
L 160.657297 75.352108 
L 161.124324 75.892529 
L 161.591351 76.019833 
L 162.058378 75.714498 
L 162.525405 75.238733 
L 162.992432 75.199337 
L 163.459459 74.96832 
L 163.926486 75.044054 
L 165.327568 74.790075 
L 165.794595 75.120281 
L 166.728649 75.005701 
L 167.195676 75.070819 
L 167.662703 74.420653 
L 168.12973 74.646444 
L 169.530811 75.881462 
L 170.464865 75.752888 
L 171.398919 75.964321 
L 173.267027 76.102731 
L 174.201081 75.548403 
L 174.668108 74.563883 
L 175.135135 74.274496 
L 175.602162 73.849638 
L 176.069189 74.139269 
L 177.003243 73.534539 
L 177.47027 73.82947 
L 177.937297 73.908782 
M 180.739459 74.267199 
L 181.673514 74.602625 
M 182.607568 74.709487 
L 183.541622 75.042641 
L 184.008649 74.585418 
L 184.475676 74.37987 
L 185.40973 73.268526 
M 186.810811 73.080917 
L 187.277838 73.138664 
L 187.744865 73.715147 
L 188.211892 73.656451 
L 189.145946 73.294127 
L 189.612973 73.38177 
M 191.014054 72.585196 
L 191.948108 72.381892 
L 192.415135 72.196054 
L 192.882162 72.201937 
L 193.349189 71.67346 
L 193.816216 71.432096 
L 194.283243 71.363222 
L 194.75027 71.158269 
L 195.217297 70.814642 
M 196.618378 70.502172 
L 197.552432 70.95124 
L 198.486486 70.388238 
L 198.953514 70.351564 
L 199.887568 71.488089 
L 200.354595 71.626633 
L 200.821622 71.560218 
L 202.222703 71.809574 
L 202.68973 71.143652 
L 203.156757 70.723752 
L 203.623784 70.727447 
L 205.491892 68.951718 
L 206.425946 68.355328 
M 207.36 68.150547 
L 207.827027 67.49577 
L 209.695135 66.327221 
L 210.629189 66.221712 
L 211.096216 66.222133 
L 212.03027 66.081248 
L 212.497297 66.555025 
L 212.964324 66.392665 
L 213.431351 66.730569 
L 213.898378 67.460494 
L 214.365405 67.336522 
M 215.299459 66.844704 
L 215.766486 66.479012 
L 216.700541 66.396604 
L 217.167568 66.459759 
L 219.035676 65.181597 
L 219.502703 65.053396 
L 219.96973 64.579531 
L 221.370811 64.744324 
L 223.705946 63.105131 
L 224.172973 62.38456 
L 225.107027 62.084908 
L 225.574054 61.733168 
L 226.041081 62.222263 
L 226.508108 62.116047 
L 226.975135 61.792455 
L 227.442162 61.899499 
L 228.376216 61.569805 
L 228.843243 61.431765 
L 229.777297 61.463235 
L 230.244324 60.936979 
L 230.711351 61.272662 
L 232.579459 61.697723 
L 233.046486 61.423937 
L 233.980541 61.493577 
L 234.447568 61.181483 
L 234.914595 61.200545 
L 235.381622 60.6954 
L 235.848649 60.537731 
L 236.315676 60.210098 
L 237.716757 60.20415 
L 238.650811 61.30432 
L 239.117838 61.412931 
L 239.584865 61.297934 
L 240.518919 61.47212 
L 240.985946 61.695706 
L 241.92 62.492071 
L 242.387027 62.452062 
L 242.854054 62.282558 
L 243.321081 62.456886 
L 244.255135 62.993577 
L 244.722162 62.795326 
L 245.189189 62.382951 
L 245.656216 62.315145 
L 246.123243 62.4692 
L 246.59027 63.248763 
L 247.057297 63.449046 
L 247.991351 64.23256 
L 248.458378 64.490341 
L 248.925405 63.89714 
L 249.392432 63.816453 
M 250.793514 64.077149 
L 251.260541 63.99138 
L 251.727568 64.027036 
L 252.194595 64.202251 
L 253.128649 63.776777 
L 253.595676 63.330216 
L 254.062703 63.74488 
L 254.52973 63.54239 
M 255.463784 63.938659 
L 255.930811 63.898429 
M 257.331892 63.832776 
L 257.798919 64.310295 
L 258.265946 65.096616 
L 258.732973 65.26252 
L 259.2 64.704291 
L 261.068108 64.606304 
L 261.535135 64.403698 
L 262.002162 63.933033 
L 262.469189 64.392076 
L 263.403243 62.791187 
L 263.87027 62.558415 
L 264.337297 62.137432 
L 264.804324 61.952648 
L 265.271351 61.501266 
M 266.205405 60.92383 
L 266.672432 60.775073 
L 267.139459 60.781056 
L 267.606486 61.325162 
L 268.073514 61.200337 
L 268.540541 60.712035 
M 269.474595 60.891122 
L 270.408649 60.474329 
L 270.875676 59.906091 
L 271.342703 59.805686 
L 271.80973 59.862368 
L 273.210811 59.221746 
L 274.144865 58.463883 
L 274.611892 58.811401 
L 275.078919 58.324251 
L 275.545946 57.624511 
L 276.48 57.218065 
L 276.947027 57.247956 
L 277.881081 57.80537 
L 278.815135 57.960575 
L 279.282162 57.890339 
L 279.749189 58.220919 
L 280.216216 58.690948 
L 281.617297 58.962886 
L 282.084324 58.732136 
L 282.551351 58.793351 
L 284.419459 58.271462 
L 284.886486 58.589896 
L 285.353514 59.950314 
L 285.820541 60.521888 
L 286.287568 60.443724 
L 286.754595 60.146359 
L 287.221622 60.22158 
L 287.688649 60.429774 
L 288.622703 60.02898 
M 289.556757 59.816258 
L 290.490811 59.530161 
L 290.957838 59.316864 
L 291.424865 59.515095 
L 291.891892 59.148114 
L 292.358919 58.985644 
L 292.825946 59.349971 
L 293.292973 59.468466 
L 293.76 59.26793 
L 294.227027 59.593057 
L 294.694054 59.413053 
L 295.161081 58.981819 
M 297.029189 59.107114 
L 297.496216 59.663129 
L 297.963243 59.850878 
L 298.43027 60.46389 
L 298.897297 60.690875 
L 300.765405 61.11799 
L 301.232432 61.421089 
L 301.699459 61.53691 
L 302.166486 61.490678 
L 302.633514 61.064904 
L 303.100541 61.051032 
L 304.034595 61.438071 
L 304.501622 61.268089 
L 305.435676 61.158238 
L 305.902703 61.063065 
L 306.36973 61.2046 
L 307.303784 60.895342 
L 308.237838 60.955216 
L 308.704865 61.625333 
L 309.171892 61.930982 
L 309.638919 62.458023 
L 310.105946 62.304467 
L 310.572973 61.810091 
L 311.04 62.127719 
L 311.974054 63.172718 
L 312.441081 63.112591 
L 312.908108 63.485482 
L 313.375135 64.083891 
L 314.776216 64.205784 
L 315.243243 64.056004 
L 316.177297 65.039608 
L 316.644324 65.014788 
L 317.111351 64.728184 
L 318.512432 65.32545 
M 319.446486 65.509006 
L 319.913514 65.858338 
L 320.847568 66.278363 
M 321.781622 66.760621 
L 322.715676 67.801561 
L 323.182703 67.854148 
L 323.64973 67.602281 
M 324.583784 68.214148 
L 325.050811 68.8483 
L 325.517838 69.040894 
L 325.984865 69.466174 
L 326.451892 69.183782 
L 327.385946 69.400198 
L 327.852973 69.638305 
M 328.787027 69.563136 
L 329.254054 69.706765 
L 329.721081 69.669971 
L 330.655135 70.143733 
L 331.122162 71.039344 
L 331.589189 70.915575 
L 332.523243 72.156958 
L 332.99027 71.987081 
L 333.924324 72.186 
L 334.391351 71.989006 
L 334.858378 71.551429 
L 335.792432 71.742102 
L 336.259459 71.636348 
L 336.726486 72.429173 
L 338.127568 73.080108 
L 338.594595 72.834118 
L 339.061622 73.057642 
L 339.528649 73.110776 
L 339.995676 72.871138 
L 340.462703 73.210133 
L 340.92973 73.218395 
L 341.396757 73.392531 
L 342.330811 72.334387 
L 342.797838 72.223667 
L 343.264865 72.456137 
L 343.731892 72.39549 
L 344.198919 73.206574 
L 344.665946 73.712201 
L 345.132973 73.637314 
L 345.6 73.220546 
L 346.067027 73.745651 
L 346.534054 73.575568 
L 347.935135 73.871169 
L 348.402162 74.023008 
L 348.869189 73.746738 
L 349.336216 73.834357 
L 349.803243 74.331375 
L 350.27027 74.024886 
L 350.737297 73.960979 
L 351.204324 74.011308 
L 351.671351 73.782454 
L 352.138378 74.146963 
L 352.605405 74.14023 
L 353.072432 74.373065 
L 353.539459 74.882786 
L 354.473514 75.188767 
L 354.940541 75.066047 
L 355.407568 75.402036 
L 356.341622 75.218262 
L 356.808649 75.280915 
L 357.275676 74.897881 
L 357.742703 74.821575 
L 359.143784 75.340173 
L 359.610811 75.272038 
L 360.077838 75.070127 
L 361.011892 75.226245 
L 361.945946 75.967676 
M 362.88 75.698758 
L 363.814054 76.156452 
L 364.281081 76.479342 
L 364.748108 76.187182 
L 365.215135 76.53418 
L 367.083243 76.262601 
L 367.55027 75.744419 
L 368.017297 76.55286 
L 368.484324 77.108885 
L 369.885405 79.742352 
L 370.352432 80.349091 
L 371.286486 81.921437 
L 371.753514 82.740466 
L 372.687568 82.8 
L 372.687568 82.8 
" style="fill:none;stroke:#1f77b4;stroke-linecap:square;stroke-width:1.5;"/>
   </g>
   <g id="line2d_16">
    <path clip-path="url(#p25b6526b6e)" d="M 34.56 82.8 
L 414.72 82.8 
" style="fill:none;stroke:#000000;stroke-dasharray:1.5,2.475;stroke-dashoffset:0;stroke-width:1.5;"/>
   </g>
   <g id="patch_3">
    <path d="M 34.56 162 
L 34.56 3.6 
" style="fill:none;stroke:#000000;stroke-linecap:square;stroke-linejoin:miter;stroke-width:0.8;"/>
   </g>
   <g id="patch_4">
    <path d="M 414.72 162 
L 414.72 3.6 
" style="fill:none;stroke:#000000;stroke-linecap:square;stroke-linejoin:miter;stroke-width:0.8;"/>
   </g>
   <g id="patch_5">
    <path d="M 34.56 162 
L 414.72 162 
" style="fill:none;stroke:#000000;stroke-linecap:square;stroke-linejoin:miter;stroke-width:0.8;"/>
   </g>
   <g id="patch_6">
    <path d="M 34.56 3.6 
L 414.72 3.6 
" style="fill:none;stroke:#000000;stroke-linecap:square;stroke-linejoin:miter;stroke-width:0.8;"/>
   </g>
  </g>
 </g>
 <defs>
  <clipPath id="p25b6526b6e">
   <rect height="158.4" width="380.16" x="34.56" y="3.6"/>
  </clipPath>
 </defs>
</svg>
