<?xml version="1.0" encoding="utf-8" standalone="no"?>
<!DOCTYPE svg PUBLIC "-//W3C//DTD SVG 1.1//EN"
  "http://www.w3.org/Graphics/SVG/1.1/DTD/svg11.dtd">
<svg height="180pt" version="1.1" viewBox="0 0 432 180" width="432pt" xmlns="http://www.w3.org/2000/svg" xmlns:xlink="http://www.w3.org/1999/xlink">
 <metadata>
  <rdf:RDF xmlns:cc="http://creativecommons.org/ns#" xmlns:dc="http://purl.org/dc/elements/1.1/" xmlns:rdf="http://www.w3.org/1999/02/22-rdf-syntax-ns#">
   <cc:Work>
    <dc:type rdf:resource="http://purl.org/dc/dcmitype/StillImage"/>
    <dc:date>2021-08-12T10:43:37.086144</dc:date>
    <dc:format>image/svg+xml</dc:format>
    <dc:creator>
     <cc:Agent>
      <dc:title>Matplotlib v3.4.2, https://matplotlib.org/</dc:title>
     </cc:Agent>
    </dc:creator>
   </cc:Work>
  </rdf:RDF>
 </metadata>
 <defs>
  <style type="text/css">*{stroke-linecap:butt;stroke-linejoin:round;}</style>
 </defs>
 <g id="figure_1">
  <g id="patch_1">
   <path d="M 0 180 
L 432 180 
L 432 0 
L 0 0 
z
" style="fill:#ffffff;"/>
  </g>
  <g id="axes_1">
   <g id="patch_2">
    <path d="M 34.56 162 
L 414.72 162 
L 414.72 3.6 
L 34.56 3.6 
z
" style="fill:#ffffff;"/>
   </g>
   <g id="PolyCollection_1">
    <defs>
     <path d="M 157.192258 -100.187264 
L 157.192258 -94.212736 
L 158.554839 -91.315084 
L 159.917419 -88.476567 
L 161.28 -85.697186 
L 162.642581 -82.976941 
L 164.005161 -80.315832 
L 165.367742 -77.713859 
L 166.730323 -75.171021 
L 168.092903 -72.687319 
L 169.455484 -70.262753 
L 170.818065 -67.897322 
L 172.180645 -65.591028 
L 173.543226 -63.343869 
L 174.905806 -61.155845 
L 176.268387 -59.026958 
L 177.630968 -56.957206 
L 178.993548 -54.946591 
L 180.356129 -52.99511 
L 181.71871 -51.102766 
L 183.08129 -49.269557 
L 184.443871 -47.495485 
L 185.806452 -45.780548 
L 187.169032 -44.124746 
L 188.531613 -42.528081 
L 189.894194 -40.990551 
L 191.256774 -39.512157 
L 192.619355 -38.092899 
L 193.981935 -36.732776 
L 195.344516 -35.431789 
L 196.707097 -34.189938 
L 198.069677 -33.007223 
L 199.432258 -31.883644 
L 200.794839 -30.8192 
L 202.157419 -29.813892 
L 203.52 -28.86772 
L 204.882581 -27.980683 
L 206.245161 -27.152783 
L 207.607742 -26.384018 
L 208.970323 -25.674389 
L 210.332903 -25.023895 
L 211.695484 -24.432538 
L 213.058065 -23.900316 
L 214.420645 -23.42723 
L 215.783226 -23.01328 
L 217.145806 -22.658465 
L 218.508387 -22.362786 
L 219.870968 -22.126243 
L 221.233548 -21.948836 
L 222.596129 -21.830564 
L 223.95871 -21.771429 
L 225.32129 -21.771429 
L 226.683871 -21.830564 
L 228.046452 -21.948836 
L 229.409032 -22.126243 
L 230.771613 -22.362786 
L 232.134194 -22.658465 
L 233.496774 -23.01328 
L 234.859355 -23.42723 
L 236.221935 -23.900316 
L 237.584516 -24.432538 
L 238.947097 -25.023895 
L 240.309677 -25.674389 
L 241.672258 -26.384018 
L 243.034839 -27.152783 
L 244.397419 -27.980683 
L 245.76 -28.86772 
L 247.122581 -29.813892 
L 248.485161 -30.8192 
L 249.847742 -31.883644 
L 251.210323 -33.007223 
L 252.572903 -34.189938 
L 253.935484 -35.431789 
L 255.298065 -36.732776 
L 256.660645 -38.092899 
L 258.023226 -39.512157 
L 259.385806 -40.990551 
L 260.748387 -42.528081 
L 262.110968 -44.124746 
L 263.473548 -45.780548 
L 264.836129 -47.495485 
L 266.19871 -49.269557 
L 267.56129 -51.102766 
L 268.923871 -52.99511 
L 270.286452 -54.946591 
L 271.649032 -56.957206 
L 273.011613 -59.026958 
L 274.374194 -61.155845 
L 275.736774 -63.343869 
L 277.099355 -65.591028 
L 278.461935 -67.897322 
L 279.824516 -70.262753 
L 281.187097 -72.687319 
L 282.549677 -75.171021 
L 283.912258 -77.713859 
L 285.274839 -80.315832 
L 286.637419 -82.976941 
L 288 -85.697186 
L 289.362581 -88.476567 
L 290.725161 -91.315084 
L 292.087742 -94.212736 
L 292.087742 -100.187264 
L 292.087742 -100.187264 
L 290.725161 -103.084916 
L 289.362581 -105.923433 
L 288 -108.702814 
L 286.637419 -111.423059 
L 285.274839 -114.084168 
L 283.912258 -116.686141 
L 282.549677 -119.228979 
L 281.187097 -121.712681 
L 279.824516 -124.137247 
L 278.461935 -126.502678 
L 277.099355 -128.808972 
L 275.736774 -131.056131 
L 274.374194 -133.244155 
L 273.011613 -135.373042 
L 271.649032 -137.442794 
L 270.286452 -139.453409 
L 268.923871 -141.40489 
L 267.56129 -143.297234 
L 266.19871 -145.130443 
L 264.836129 -146.904515 
L 263.473548 -148.619452 
L 262.110968 -150.275254 
L 260.748387 -151.871919 
L 259.385806 -153.409449 
L 258.023226 -154.887843 
L 256.660645 -156.307101 
L 255.298065 -157.667224 
L 253.935484 -158.968211 
L 252.572903 -160.210062 
L 251.210323 -161.392777 
L 249.847742 -162.516356 
L 248.485161 -163.5808 
L 247.122581 -164.586108 
L 245.76 -165.53228 
L 244.397419 -166.419317 
L 243.034839 -167.247217 
L 241.672258 -168.015982 
L 240.309677 -168.725611 
L 238.947097 -169.376105 
L 237.584516 -169.967462 
L 236.221935 -170.499684 
L 234.859355 -170.97277 
L 233.496774 -171.38672 
L 232.134194 -171.741535 
L 230.771613 -172.037214 
L 229.409032 -172.273757 
L 228.046452 -172.451164 
L 226.683871 -172.569436 
L 225.32129 -172.628571 
L 223.95871 -172.628571 
L 222.596129 -172.569436 
L 221.233548 -172.451164 
L 219.870968 -172.273757 
L 218.508387 -172.037214 
L 217.145806 -171.741535 
L 215.783226 -171.38672 
L 214.420645 -170.97277 
L 213.058065 -170.499684 
L 211.695484 -169.967462 
L 210.332903 -169.376105 
L 208.970323 -168.725611 
L 207.607742 -168.015982 
L 206.245161 -167.247217 
L 204.882581 -166.419317 
L 203.52 -165.53228 
L 202.157419 -164.586108 
L 200.794839 -163.5808 
L 199.432258 -162.516356 
L 198.069677 -161.392777 
L 196.707097 -160.210062 
L 195.344516 -158.968211 
L 193.981935 -157.667224 
L 192.619355 -156.307101 
L 191.256774 -154.887843 
L 189.894194 -153.409449 
L 188.531613 -151.871919 
L 187.169032 -150.275254 
L 185.806452 -148.619452 
L 184.443871 -146.904515 
L 183.08129 -145.130443 
L 181.71871 -143.297234 
L 180.356129 -141.40489 
L 178.993548 -139.453409 
L 177.630968 -137.442794 
L 176.268387 -135.373042 
L 174.905806 -133.244155 
L 173.543226 -131.056131 
L 172.180645 -128.808972 
L 170.818065 -126.502678 
L 169.455484 -124.137247 
L 168.092903 -121.712681 
L 166.730323 -119.228979 
L 165.367742 -116.686141 
L 164.005161 -114.084168 
L 162.642581 -111.423059 
L 161.28 -108.702814 
L 159.917419 -105.923433 
L 158.554839 -103.084916 
L 157.192258 -100.187264 
z
" id="m29d2549ee0" style="stroke:#0000ff;stroke-opacity:0.1;"/>
    </defs>
    <g clip-path="url(#p727b9bdada)">
     <use style="fill:#0000ff;fill-opacity:0.1;stroke:#0000ff;stroke-opacity:0.1;" x="0" xlink:href="#m29d2549ee0" y="180"/>
    </g>
   </g>
   <g id="matplotlib.axis_1">
    <g id="xtick_1">
     <g id="line2d_1">
      <defs>
       <path d="M 0 0 
L 0 3.5 
" id="me874838b6a" style="stroke:#000000;stroke-width:0.8;"/>
      </defs>
      <g>
       <use style="stroke:#000000;stroke-width:0.8;" x="69.305806" xlink:href="#me874838b6a" y="162"/>
      </g>
     </g>
     <g id="text_1">
      <!-- 2005 -->
      <g transform="translate(56.580806 176.598438)scale(0.1 -0.1)">
       <defs>
        <path d="M 1228 531 
L 3431 531 
L 3431 0 
L 469 0 
L 469 531 
Q 828 903 1448 1529 
Q 2069 2156 2228 2338 
Q 2531 2678 2651 2914 
Q 2772 3150 2772 3378 
Q 2772 3750 2511 3984 
Q 2250 4219 1831 4219 
Q 1534 4219 1204 4116 
Q 875 4013 500 3803 
L 500 4441 
Q 881 4594 1212 4672 
Q 1544 4750 1819 4750 
Q 2544 4750 2975 4387 
Q 3406 4025 3406 3419 
Q 3406 3131 3298 2873 
Q 3191 2616 2906 2266 
Q 2828 2175 2409 1742 
Q 1991 1309 1228 531 
z
" id="DejaVuSans-32" transform="scale(0.015625)"/>
        <path d="M 2034 4250 
Q 1547 4250 1301 3770 
Q 1056 3291 1056 2328 
Q 1056 1369 1301 889 
Q 1547 409 2034 409 
Q 2525 409 2770 889 
Q 3016 1369 3016 2328 
Q 3016 3291 2770 3770 
Q 2525 4250 2034 4250 
z
M 2034 4750 
Q 2819 4750 3233 4129 
Q 3647 3509 3647 2328 
Q 3647 1150 3233 529 
Q 2819 -91 2034 -91 
Q 1250 -91 836 529 
Q 422 1150 422 2328 
Q 422 3509 836 4129 
Q 1250 4750 2034 4750 
z
" id="DejaVuSans-30" transform="scale(0.015625)"/>
        <path d="M 691 4666 
L 3169 4666 
L 3169 4134 
L 1269 4134 
L 1269 2991 
Q 1406 3038 1543 3061 
Q 1681 3084 1819 3084 
Q 2600 3084 3056 2656 
Q 3513 2228 3513 1497 
Q 3513 744 3044 326 
Q 2575 -91 1722 -91 
Q 1428 -91 1123 -41 
Q 819 9 494 109 
L 494 744 
Q 775 591 1075 516 
Q 1375 441 1709 441 
Q 2250 441 2565 725 
Q 2881 1009 2881 1497 
Q 2881 1984 2565 2268 
Q 2250 2553 1709 2553 
Q 1456 2553 1204 2497 
Q 953 2441 691 2322 
L 691 4666 
z
" id="DejaVuSans-35" transform="scale(0.015625)"/>
       </defs>
       <use xlink:href="#DejaVuSans-32"/>
       <use x="63.623047" xlink:href="#DejaVuSans-30"/>
       <use x="127.246094" xlink:href="#DejaVuSans-30"/>
       <use x="190.869141" xlink:href="#DejaVuSans-35"/>
      </g>
     </g>
    </g>
    <g id="xtick_2">
     <g id="line2d_2">
      <g>
       <use style="stroke:#000000;stroke-width:0.8;" x="151.060645" xlink:href="#me874838b6a" y="162"/>
      </g>
     </g>
     <g id="text_2">
      <!-- 2010 -->
      <g transform="translate(138.335645 176.598438)scale(0.1 -0.1)">
       <defs>
        <path d="M 794 531 
L 1825 531 
L 1825 4091 
L 703 3866 
L 703 4441 
L 1819 4666 
L 2450 4666 
L 2450 531 
L 3481 531 
L 3481 0 
L 794 0 
L 794 531 
z
" id="DejaVuSans-31" transform="scale(0.015625)"/>
       </defs>
       <use xlink:href="#DejaVuSans-32"/>
       <use x="63.623047" xlink:href="#DejaVuSans-30"/>
       <use x="127.246094" xlink:href="#DejaVuSans-31"/>
       <use x="190.869141" xlink:href="#DejaVuSans-30"/>
      </g>
     </g>
    </g>
    <g id="xtick_3">
     <g id="line2d_3">
      <g>
       <use style="stroke:#000000;stroke-width:0.8;" x="232.815484" xlink:href="#me874838b6a" y="162"/>
      </g>
     </g>
     <g id="text_3">
      <!-- 2015 -->
      <g transform="translate(220.090484 176.598438)scale(0.1 -0.1)">
       <use xlink:href="#DejaVuSans-32"/>
       <use x="63.623047" xlink:href="#DejaVuSans-30"/>
       <use x="127.246094" xlink:href="#DejaVuSans-31"/>
       <use x="190.869141" xlink:href="#DejaVuSans-35"/>
      </g>
     </g>
    </g>
    <g id="xtick_4">
     <g id="line2d_4">
      <g>
       <use style="stroke:#000000;stroke-width:0.8;" x="314.570323" xlink:href="#me874838b6a" y="162"/>
      </g>
     </g>
     <g id="text_4">
      <!-- 2020 -->
      <g transform="translate(301.845323 176.598438)scale(0.1 -0.1)">
       <use xlink:href="#DejaVuSans-32"/>
       <use x="63.623047" xlink:href="#DejaVuSans-30"/>
       <use x="127.246094" xlink:href="#DejaVuSans-32"/>
       <use x="190.869141" xlink:href="#DejaVuSans-30"/>
      </g>
     </g>
    </g>
    <g id="xtick_5">
     <g id="line2d_5">
      <g>
       <use style="stroke:#000000;stroke-width:0.8;" x="396.325161" xlink:href="#me874838b6a" y="162"/>
      </g>
     </g>
     <g id="text_5">
      <!-- 2025 -->
      <g transform="translate(383.600161 176.598438)scale(0.1 -0.1)">
       <use xlink:href="#DejaVuSans-32"/>
       <use x="63.623047" xlink:href="#DejaVuSans-30"/>
       <use x="127.246094" xlink:href="#DejaVuSans-32"/>
       <use x="190.869141" xlink:href="#DejaVuSans-35"/>
      </g>
     </g>
    </g>
   </g>
   <g id="matplotlib.axis_2">
    <g id="ytick_1">
     <g id="line2d_6">
      <defs>
       <path d="M 0 0 
L -3.5 0 
" id="m52c0a195ec" style="stroke:#000000;stroke-width:0.8;"/>
      </defs>
      <g>
       <use style="stroke:#000000;stroke-width:0.8;" x="34.56" xlink:href="#m52c0a195ec" y="123.760704"/>
      </g>
     </g>
     <g id="text_6">
      <!-- −10 -->
      <g transform="translate(6.455313 127.559923)scale(0.1 -0.1)">
       <defs>
        <path d="M 678 2272 
L 4684 2272 
L 4684 1741 
L 678 1741 
L 678 2272 
z
" id="DejaVuSans-2212" transform="scale(0.015625)"/>
       </defs>
       <use xlink:href="#DejaVuSans-2212"/>
       <use x="83.789062" xlink:href="#DejaVuSans-31"/>
       <use x="147.412109" xlink:href="#DejaVuSans-30"/>
      </g>
     </g>
    </g>
    <g id="ytick_2">
     <g id="line2d_7">
      <g>
       <use style="stroke:#000000;stroke-width:0.8;" x="34.56" xlink:href="#m52c0a195ec" y="82.8"/>
      </g>
     </g>
     <g id="text_7">
      <!-- 0 -->
      <g transform="translate(21.1975 86.599219)scale(0.1 -0.1)">
       <use xlink:href="#DejaVuSans-30"/>
      </g>
     </g>
    </g>
    <g id="ytick_3">
     <g id="line2d_8">
      <g>
       <use style="stroke:#000000;stroke-width:0.8;" x="34.56" xlink:href="#m52c0a195ec" y="41.839296"/>
      </g>
     </g>
     <g id="text_8">
      <!-- 10 -->
      <g transform="translate(14.835 45.638515)scale(0.1 -0.1)">
       <use xlink:href="#DejaVuSans-31"/>
       <use x="63.623047" xlink:href="#DejaVuSans-30"/>
      </g>
     </g>
    </g>
   </g>
   <g id="line2d_9">
    <path clip-path="url(#p727b9bdada)" d="M 157.192258 81.053616 
L 158.554839 81.006384 
L 159.917419 83.680902 
L 161.28 89.011619 
L 162.642581 90.408951 
L 164.005161 88.068197 
L 165.367742 83.358999 
L 166.730323 82.626072 
L 168.092903 78.045537 
L 169.455484 77.237511 
L 170.818065 73.824541 
L 172.180645 76.660842 
L 173.543226 69.044185 
L 174.905806 67.205245 
L 176.268387 65.608875 
L 177.630968 67.184963 
L 178.993548 64.518646 
L 180.356129 66.040852 
L 181.71871 68.279497 
L 183.08129 66.92878 
L 184.443871 69.531634 
L 185.806452 69.266575 
L 187.169032 72.209449 
L 189.894194 81.961931 
L 191.256774 83.721548 
L 192.619355 87.380945 
L 193.981935 85.771739 
L 195.344516 88.023903 
L 196.707097 84.480403 
L 198.069677 89.203393 
L 199.432258 82.951044 
L 200.794839 80.003524 
L 202.157419 81.232695 
L 203.52 88.837599 
L 204.882581 87.8734 
L 206.245161 89.586674 
L 207.607742 96.053955 
L 208.970323 96.426205 
L 210.332903 89.463289 
L 211.695484 79.370974 
L 213.058065 78.150386 
L 214.420645 75.70197 
L 215.783226 75.449509 
L 218.508387 75.835688 
L 219.870968 68.362235 
L 222.596129 66.569754 
L 223.95871 59.727047 
L 225.32129 59.981865 
L 226.683871 54.944443 
L 228.046452 53.54879 
L 229.409032 55.332879 
L 230.771613 48.198992 
L 232.134194 43.877161 
L 233.496774 43.223286 
L 234.859355 41.0719 
L 236.221935 40.128388 
L 237.584516 32.606575 
L 238.947097 30.981962 
L 240.309677 27.807188 
L 241.672258 25.903122 
L 243.034839 29.265939 
L 244.397419 33.356444 
L 245.76 39.279477 
L 247.122581 40.078587 
L 248.485161 46.596808 
L 249.847742 49.628501 
L 251.210323 52.086615 
L 252.572903 50.203135 
L 253.935484 49.206147 
L 255.298065 51.866854 
L 256.660645 55.945592 
L 258.023226 56.012573 
L 259.385806 61.397035 
L 260.748387 60.173445 
L 262.110968 60.907461 
L 263.473548 65.454883 
L 264.836129 70.668761 
L 266.19871 70.024789 
L 267.56129 68.044313 
L 268.923871 70.50059 
L 270.286452 73.796396 
L 271.649032 76.170738 
L 273.011613 77.120335 
L 274.374194 74.127749 
L 275.736774 73.319548 
L 277.099355 80.957423 
L 278.461935 78.098921 
L 279.824516 80.082254 
L 281.187097 81.260441 
L 282.549677 84.27348 
L 283.912258 85.583279 
L 285.274839 86.292639 
L 286.637419 85.780654 
L 288 85.922861 
L 289.362581 84.571282 
L 290.725161 84.03634 
L 292.087742 82.8 
L 292.087742 82.8 
" style="fill:none;stroke:#1f77b4;stroke-linecap:square;stroke-width:1.5;"/>
   </g>
   <g id="line2d_10">
    <path clip-path="url(#p727b9bdada)" d="M 34.56 82.8 
L 414.72 82.8 
" style="fill:none;stroke:#000000;stroke-dasharray:1.5,2.475;stroke-dashoffset:0;stroke-width:1.5;"/>
   </g>
   <g id="patch_3">
    <path d="M 34.56 162 
L 34.56 3.6 
" style="fill:none;stroke:#000000;stroke-linecap:square;stroke-linejoin:miter;stroke-width:0.8;"/>
   </g>
   <g id="patch_4">
    <path d="M 414.72 162 
L 414.72 3.6 
" style="fill:none;stroke:#000000;stroke-linecap:square;stroke-linejoin:miter;stroke-width:0.8;"/>
   </g>
   <g id="patch_5">
    <path d="M 34.56 162 
L 414.72 162 
" style="fill:none;stroke:#000000;stroke-linecap:square;stroke-linejoin:miter;stroke-width:0.8;"/>
   </g>
   <g id="patch_6">
    <path d="M 34.56 3.6 
L 414.72 3.6 
" style="fill:none;stroke:#000000;stroke-linecap:square;stroke-linejoin:miter;stroke-width:0.8;"/>
   </g>
  </g>
 </g>
 <defs>
  <clipPath id="p727b9bdada">
   <rect height="158.4" width="380.16" x="34.56" y="3.6"/>
  </clipPath>
 </defs>
</svg>
