<?xml version="1.0" encoding="utf-8" standalone="no"?>
<!DOCTYPE svg PUBLIC "-//W3C//DTD SVG 1.1//EN"
  "http://www.w3.org/Graphics/SVG/1.1/DTD/svg11.dtd">
<svg height="180pt" version="1.1" viewBox="0 0 432 180" width="432pt" xmlns="http://www.w3.org/2000/svg" xmlns:xlink="http://www.w3.org/1999/xlink">
 <metadata>
  <rdf:RDF xmlns:cc="http://creativecommons.org/ns#" xmlns:dc="http://purl.org/dc/elements/1.1/" xmlns:rdf="http://www.w3.org/1999/02/22-rdf-syntax-ns#">
   <cc:Work>
    <dc:type rdf:resource="http://purl.org/dc/dcmitype/StillImage"/>
    <dc:date>2021-08-12T10:41:48.357842</dc:date>
    <dc:format>image/svg+xml</dc:format>
    <dc:creator>
     <cc:Agent>
      <dc:title>Matplotlib v3.4.2, https://matplotlib.org/</dc:title>
     </cc:Agent>
    </dc:creator>
   </cc:Work>
  </rdf:RDF>
 </metadata>
 <defs>
  <style type="text/css">*{stroke-linecap:butt;stroke-linejoin:round;}</style>
 </defs>
 <g id="figure_1">
  <g id="patch_1">
   <path d="M 0 180 
L 432 180 
L 432 0 
L 0 0 
z
" style="fill:#ffffff;"/>
  </g>
  <g id="axes_1">
   <g id="patch_2">
    <path d="M 34.56 162 
L 414.72 162 
L 414.72 3.6 
L 34.56 3.6 
z
" style="fill:#ffffff;"/>
   </g>
   <g id="PolyCollection_1">
    <path clip-path="url(#p11975b34cf)" d="M 86.875596 82.022391 
L 86.875596 83.577609 
L 87.456881 84.34919 
L 88.038165 85.116763 
L 88.61945 85.880327 
L 89.200734 86.639884 
L 89.782018 87.395432 
L 90.363303 88.146972 
L 90.944587 88.894503 
L 91.525872 89.638027 
L 92.107156 90.377542 
L 92.68844 91.113049 
L 93.269725 91.844548 
L 93.851009 92.572039 
L 94.432294 93.295521 
L 95.013578 94.014996 
L 95.594862 94.730462 
L 96.176147 95.441919 
L 96.757431 96.149369 
L 97.338716 96.85281 
L 97.92 97.552243 
L 98.501284 98.247668 
L 99.082569 98.939085 
L 99.663853 99.626494 
L 100.245138 100.309894 
L 100.826422 100.989286 
L 101.407706 101.66467 
L 101.988991 102.336046 
L 102.570275 103.003413 
L 103.15156 103.666772 
L 103.732844 104.326123 
L 104.314128 104.981466 
L 104.895413 105.632801 
L 105.476697 106.280127 
L 106.057982 106.923445 
L 106.639266 107.562755 
L 107.22055 108.198057 
L 107.801835 108.829351 
L 108.383119 109.456636 
L 108.964404 110.079913 
L 109.545688 110.699182 
L 110.126972 111.314443 
L 110.708257 111.925695 
L 111.289541 112.532939 
L 111.870826 113.136176 
L 112.45211 113.735403 
L 113.033394 114.330623 
L 113.614679 114.921834 
L 114.195963 115.509038 
L 114.777248 116.092233 
L 115.358532 116.671419 
L 115.939817 117.246598 
L 116.521101 117.817768 
L 117.102385 118.38493 
L 117.68367 118.948084 
L 118.264954 119.50723 
L 118.846239 120.062368 
L 119.427523 120.613497 
L 120.008807 121.160618 
L 120.590092 121.703731 
L 121.171376 122.242835 
L 121.752661 122.777932 
L 122.333945 123.30902 
L 122.915229 123.8361 
L 123.496514 124.359172 
L 124.077798 124.878235 
L 124.659083 125.393291 
L 125.240367 125.904338 
L 125.821651 126.411377 
L 126.402936 126.914408 
L 126.98422 127.41343 
L 127.565505 127.908444 
L 128.146789 128.39945 
L 128.728073 128.886448 
L 129.309358 129.369438 
L 129.890642 129.848419 
L 130.471927 130.323393 
L 131.053211 130.794358 
L 131.634495 131.261315 
L 132.21578 131.724263 
L 132.797064 132.183204 
L 133.378349 132.638136 
L 133.959633 133.08906 
L 134.540917 133.535975 
L 135.122202 133.978883 
L 135.703486 134.417782 
L 136.284771 134.852673 
L 136.866055 135.283556 
L 137.447339 135.710431 
L 138.028624 136.133297 
L 138.609908 136.552156 
L 139.191193 136.967006 
L 139.772477 137.377848 
L 140.353761 137.784681 
L 140.935046 138.187507 
L 141.51633 138.586324 
L 142.097615 138.981133 
L 142.678899 139.371934 
L 143.260183 139.758726 
L 143.841468 140.14151 
L 144.422752 140.520287 
L 145.004037 140.895054 
L 145.585321 141.265814 
L 146.166606 141.632566 
L 146.74789 141.995309 
L 147.329174 142.354044 
L 147.910459 142.708771 
L 148.491743 143.059489 
L 149.073028 143.4062 
L 149.654312 143.748902 
L 150.235596 144.087596 
L 150.816881 144.422282 
L 151.398165 144.752959 
L 151.97945 145.079629 
L 152.560734 145.40229 
L 153.142018 145.720943 
L 153.723303 146.035588 
L 154.304587 146.346224 
L 154.885872 146.652852 
L 155.467156 146.955472 
L 156.04844 147.254084 
L 156.04844 18.345916 
L 156.04844 18.345916 
L 155.467156 18.644528 
L 154.885872 18.947148 
L 154.304587 19.253776 
L 153.723303 19.564412 
L 153.142018 19.879057 
L 152.560734 20.19771 
L 151.97945 20.520371 
L 151.398165 20.847041 
L 150.816881 21.177718 
L 150.235596 21.512404 
L 149.654312 21.851098 
L 149.073028 22.1938 
L 148.491743 22.540511 
L 147.910459 22.891229 
L 147.329174 23.245956 
L 146.74789 23.604691 
L 146.166606 23.967434 
L 145.585321 24.334186 
L 145.004037 24.704946 
L 144.422752 25.079713 
L 143.841468 25.45849 
L 143.260183 25.841274 
L 142.678899 26.228066 
L 142.097615 26.618867 
L 141.51633 27.013676 
L 140.935046 27.412493 
L 140.353761 27.815319 
L 139.772477 28.222152 
L 139.191193 28.632994 
L 138.609908 29.047844 
L 138.028624 29.466703 
L 137.447339 29.889569 
L 136.866055 30.316444 
L 136.284771 30.747327 
L 135.703486 31.182218 
L 135.122202 31.621117 
L 134.540917 32.064025 
L 133.959633 32.51094 
L 133.378349 32.961864 
L 132.797064 33.416796 
L 132.21578 33.875737 
L 131.634495 34.338685 
L 131.053211 34.805642 
L 130.471927 35.276607 
L 129.890642 35.751581 
L 129.309358 36.230562 
L 128.728073 36.713552 
L 128.146789 37.20055 
L 127.565505 37.691556 
L 126.98422 38.18657 
L 126.402936 38.685592 
L 125.821651 39.188623 
L 125.240367 39.695662 
L 124.659083 40.206709 
L 124.077798 40.721765 
L 123.496514 41.240828 
L 122.915229 41.7639 
L 122.333945 42.29098 
L 121.752661 42.822068 
L 121.171376 43.357165 
L 120.590092 43.896269 
L 120.008807 44.439382 
L 119.427523 44.986503 
L 118.846239 45.537632 
L 118.264954 46.09277 
L 117.68367 46.651916 
L 117.102385 47.21507 
L 116.521101 47.782232 
L 115.939817 48.353402 
L 115.358532 48.928581 
L 114.777248 49.507767 
L 114.195963 50.090962 
L 113.614679 50.678166 
L 113.033394 51.269377 
L 112.45211 51.864597 
L 111.870826 52.463824 
L 111.289541 53.067061 
L 110.708257 53.674305 
L 110.126972 54.285557 
L 109.545688 54.900818 
L 108.964404 55.520087 
L 108.383119 56.143364 
L 107.801835 56.770649 
L 107.22055 57.401943 
L 106.639266 58.037245 
L 106.057982 58.676555 
L 105.476697 59.319873 
L 104.895413 59.967199 
L 104.314128 60.618534 
L 103.732844 61.273877 
L 103.15156 61.933228 
L 102.570275 62.596587 
L 101.988991 63.263954 
L 101.407706 63.93533 
L 100.826422 64.610714 
L 100.245138 65.290106 
L 99.663853 65.973506 
L 99.082569 66.660915 
L 98.501284 67.352332 
L 97.92 68.047757 
L 97.338716 68.74719 
L 96.757431 69.450631 
L 96.176147 70.158081 
L 95.594862 70.869538 
L 95.013578 71.585004 
L 94.432294 72.304479 
L 93.851009 73.027961 
L 93.269725 73.755452 
L 92.68844 74.486951 
L 92.107156 75.222458 
L 91.525872 75.961973 
L 90.944587 76.705497 
L 90.363303 77.453028 
L 89.782018 78.204568 
L 89.200734 78.960116 
L 88.61945 79.719673 
L 88.038165 80.483237 
L 87.456881 81.25081 
L 86.875596 82.022391 
z
" style="fill:#0000ff;fill-opacity:0.1;stroke:#0000ff;stroke-opacity:0.1;"/>
    <path clip-path="url(#p11975b34cf)" d="M 205.457615 18.051312 
L 205.457615 147.548688 
L 206.038899 147.839283 
L 206.620183 148.125871 
L 207.201468 148.40845 
L 207.782752 148.68702 
L 208.364037 148.961583 
L 208.945321 149.232137 
L 209.526606 149.498684 
L 209.526606 16.101316 
L 209.526606 16.101316 
L 208.945321 16.367863 
L 208.364037 16.638417 
L 207.782752 16.91298 
L 207.201468 17.19155 
L 206.620183 17.474129 
L 206.038899 17.760717 
L 205.457615 18.051312 
z
" style="fill:#0000ff;fill-opacity:0.1;stroke:#0000ff;stroke-opacity:0.1;"/>
    <path clip-path="url(#p11975b34cf)" d="M 210.689174 15.838778 
L 210.689174 149.761222 
L 211.270459 150.019751 
L 211.851743 150.274273 
L 212.433028 150.524786 
L 213.014312 150.771291 
L 213.595596 151.013788 
L 214.176881 151.252277 
L 214.758165 151.486757 
L 215.33945 151.717229 
L 215.920734 151.943693 
L 216.502018 152.166149 
L 216.502018 13.433851 
L 216.502018 13.433851 
L 215.920734 13.656307 
L 215.33945 13.882771 
L 214.758165 14.113243 
L 214.176881 14.347723 
L 213.595596 14.586212 
L 213.014312 14.828709 
L 212.433028 15.075214 
L 211.851743 15.325727 
L 211.270459 15.580249 
L 210.689174 15.838778 
z
" style="fill:#0000ff;fill-opacity:0.1;stroke:#0000ff;stroke-opacity:0.1;"/>
    <path clip-path="url(#p11975b34cf)" d="M 217.664587 13.215403 
L 217.664587 152.384597 
L 218.245872 152.599036 
L 218.827156 152.809467 
L 219.40844 153.01589 
L 219.989725 153.218305 
L 220.571009 153.416712 
L 221.152294 153.61111 
L 221.733578 153.8015 
L 222.314862 153.987882 
L 222.896147 154.170256 
L 223.477431 154.348621 
L 223.477431 11.251379 
L 223.477431 11.251379 
L 222.896147 11.429744 
L 222.314862 11.612118 
L 221.733578 11.7985 
L 221.152294 11.98889 
L 220.571009 12.183288 
L 219.989725 12.381695 
L 219.40844 12.58411 
L 218.827156 12.790533 
L 218.245872 13.000964 
L 217.664587 13.215403 
z
" style="fill:#0000ff;fill-opacity:0.1;stroke:#0000ff;stroke-opacity:0.1;"/>
    <path clip-path="url(#p11975b34cf)" d="M 225.221284 11.077021 
L 225.221284 154.522979 
L 225.802569 154.693328 
L 226.383853 154.859668 
L 226.965138 155.022001 
L 227.546422 155.180325 
L 228.127706 155.334642 
L 228.708991 155.48495 
L 229.290275 155.631249 
L 229.87156 155.773541 
L 230.452844 155.911824 
L 231.034128 156.046099 
L 231.615413 156.176366 
L 232.196697 156.302625 
L 232.777982 156.424876 
L 233.359266 156.543118 
L 233.94055 156.657352 
L 234.521835 156.767578 
L 235.103119 156.873795 
L 235.684404 156.976005 
L 236.265688 157.074206 
L 236.846972 157.168399 
L 237.428257 157.258584 
L 238.009541 157.34476 
L 238.590826 157.426929 
L 239.17211 157.505089 
L 239.753394 157.579241 
L 240.334679 157.649385 
L 240.915963 157.71552 
L 241.497248 157.777647 
L 242.078532 157.835767 
L 242.659817 157.889877 
L 243.241101 157.93998 
L 243.822385 157.986075 
L 244.40367 158.028161 
L 244.984954 158.066239 
L 245.566239 158.100309 
L 246.147523 158.13037 
L 246.728807 158.156424 
L 247.310092 158.178469 
L 247.891376 158.196506 
L 248.472661 158.210534 
L 249.053945 158.220555 
L 249.635229 158.226567 
L 250.216514 158.228571 
L 250.797798 158.226567 
L 251.379083 158.220555 
L 251.960367 158.210534 
L 252.541651 158.196506 
L 253.122936 158.178469 
L 253.70422 158.156424 
L 254.285505 158.13037 
L 254.866789 158.100309 
L 255.448073 158.066239 
L 256.029358 158.028161 
L 256.610642 157.986075 
L 257.191927 157.93998 
L 257.773211 157.889877 
L 258.354495 157.835767 
L 258.93578 157.777647 
L 259.517064 157.71552 
L 260.098349 157.649385 
L 260.679633 157.579241 
L 261.260917 157.505089 
L 261.842202 157.426929 
L 262.423486 157.34476 
L 263.004771 157.258584 
L 263.586055 157.168399 
L 264.167339 157.074206 
L 264.748624 156.976005 
L 265.329908 156.873795 
L 265.911193 156.767578 
L 266.492477 156.657352 
L 267.073761 156.543118 
L 267.655046 156.424876 
L 268.23633 156.302625 
L 268.817615 156.176366 
L 269.398899 156.046099 
L 269.980183 155.911824 
L 270.561468 155.773541 
L 271.142752 155.631249 
L 271.724037 155.48495 
L 272.305321 155.334642 
L 272.886606 155.180325 
L 273.46789 155.022001 
L 274.049174 154.859668 
L 274.630459 154.693328 
L 275.211743 154.522979 
L 275.793028 154.348621 
L 276.374312 154.170256 
L 276.955596 153.987882 
L 277.536881 153.8015 
L 278.118165 153.61111 
L 278.69945 153.416712 
L 279.280734 153.218305 
L 279.862018 153.01589 
L 280.443303 152.809467 
L 281.024587 152.599036 
L 281.605872 152.384597 
L 282.187156 152.166149 
L 282.76844 151.943693 
L 283.349725 151.717229 
L 283.931009 151.486757 
L 284.512294 151.252277 
L 285.093578 151.013788 
L 285.674862 150.771291 
L 286.256147 150.524786 
L 286.837431 150.274273 
L 287.418716 150.019751 
L 288 149.761222 
L 288.581284 149.498684 
L 289.162569 149.232137 
L 289.743853 148.961583 
L 290.325138 148.68702 
L 290.906422 148.40845 
L 291.487706 148.125871 
L 292.068991 147.839283 
L 292.650275 147.548688 
L 293.23156 147.254084 
L 293.812844 146.955472 
L 294.394128 146.652852 
L 294.975413 146.346224 
L 295.556697 146.035588 
L 296.137982 145.720943 
L 296.719266 145.40229 
L 297.30055 145.079629 
L 297.881835 144.752959 
L 298.463119 144.422282 
L 299.044404 144.087596 
L 299.625688 143.748902 
L 300.206972 143.4062 
L 300.788257 143.059489 
L 301.369541 142.708771 
L 301.950826 142.354044 
L 302.53211 141.995309 
L 303.113394 141.632566 
L 303.694679 141.265814 
L 304.275963 140.895054 
L 304.857248 140.520287 
L 305.438532 140.14151 
L 306.019817 139.758726 
L 306.601101 139.371934 
L 307.182385 138.981133 
L 307.76367 138.586324 
L 308.344954 138.187507 
L 308.926239 137.784681 
L 309.507523 137.377848 
L 310.088807 136.967006 
L 310.670092 136.552156 
L 311.251376 136.133297 
L 311.832661 135.710431 
L 312.413945 135.283556 
L 312.995229 134.852673 
L 313.576514 134.417782 
L 314.157798 133.978883 
L 314.739083 133.535975 
L 315.320367 133.08906 
L 315.901651 132.638136 
L 316.482936 132.183204 
L 317.06422 131.724263 
L 317.645505 131.261315 
L 318.226789 130.794358 
L 318.808073 130.323393 
L 319.389358 129.848419 
L 319.970642 129.369438 
L 320.551927 128.886448 
L 321.133211 128.39945 
L 321.714495 127.908444 
L 322.29578 127.41343 
L 322.877064 126.914408 
L 323.458349 126.411377 
L 324.039633 125.904338 
L 324.620917 125.393291 
L 325.202202 124.878235 
L 325.783486 124.359172 
L 326.364771 123.8361 
L 326.946055 123.30902 
L 327.527339 122.777932 
L 328.108624 122.242835 
L 328.689908 121.703731 
L 329.271193 121.160618 
L 329.852477 120.613497 
L 330.433761 120.062368 
L 331.015046 119.50723 
L 331.59633 118.948084 
L 332.177615 118.38493 
L 332.758899 117.817768 
L 333.340183 117.246598 
L 333.921468 116.671419 
L 334.502752 116.092233 
L 335.084037 115.509038 
L 335.665321 114.921834 
L 336.246606 114.330623 
L 336.82789 113.735403 
L 337.409174 113.136176 
L 337.990459 112.532939 
L 338.571743 111.925695 
L 339.153028 111.314443 
L 339.734312 110.699182 
L 340.315596 110.079913 
L 340.896881 109.456636 
L 341.478165 108.829351 
L 342.05945 108.198057 
L 342.640734 107.562755 
L 343.222018 106.923445 
L 343.803303 106.280127 
L 344.384587 105.632801 
L 344.965872 104.981466 
L 345.547156 104.326123 
L 346.12844 103.666772 
L 346.709725 103.003413 
L 347.291009 102.336046 
L 347.872294 101.66467 
L 348.453578 100.989286 
L 349.034862 100.309894 
L 349.616147 99.626494 
L 350.197431 98.939085 
L 350.778716 98.247668 
L 351.36 97.552243 
L 351.941284 96.85281 
L 352.522569 96.149369 
L 353.103853 95.441919 
L 353.685138 94.730462 
L 354.266422 94.014996 
L 354.847706 93.295521 
L 355.428991 92.572039 
L 356.010275 91.844548 
L 356.59156 91.113049 
L 357.172844 90.377542 
L 357.754128 89.638027 
L 358.335413 88.894503 
L 358.916697 88.146972 
L 359.497982 87.395432 
L 360.079266 86.639884 
L 360.66055 85.880327 
L 361.241835 85.116763 
L 361.823119 84.34919 
L 362.404404 83.577609 
L 362.404404 82.022391 
L 362.404404 82.022391 
L 361.823119 81.25081 
L 361.241835 80.483237 
L 360.66055 79.719673 
L 360.079266 78.960116 
L 359.497982 78.204568 
L 358.916697 77.453028 
L 358.335413 76.705497 
L 357.754128 75.961973 
L 357.172844 75.222458 
L 356.59156 74.486951 
L 356.010275 73.755452 
L 355.428991 73.027961 
L 354.847706 72.304479 
L 354.266422 71.585004 
L 353.685138 70.869538 
L 353.103853 70.158081 
L 352.522569 69.450631 
L 351.941284 68.74719 
L 351.36 68.047757 
L 350.778716 67.352332 
L 350.197431 66.660915 
L 349.616147 65.973506 
L 349.034862 65.290106 
L 348.453578 64.610714 
L 347.872294 63.93533 
L 347.291009 63.263954 
L 346.709725 62.596587 
L 346.12844 61.933228 
L 345.547156 61.273877 
L 344.965872 60.618534 
L 344.384587 59.967199 
L 343.803303 59.319873 
L 343.222018 58.676555 
L 342.640734 58.037245 
L 342.05945 57.401943 
L 341.478165 56.770649 
L 340.896881 56.143364 
L 340.315596 55.520087 
L 339.734312 54.900818 
L 339.153028 54.285557 
L 338.571743 53.674305 
L 337.990459 53.067061 
L 337.409174 52.463824 
L 336.82789 51.864597 
L 336.246606 51.269377 
L 335.665321 50.678166 
L 335.084037 50.090962 
L 334.502752 49.507767 
L 333.921468 48.928581 
L 333.340183 48.353402 
L 332.758899 47.782232 
L 332.177615 47.21507 
L 331.59633 46.651916 
L 331.015046 46.09277 
L 330.433761 45.537632 
L 329.852477 44.986503 
L 329.271193 44.439382 
L 328.689908 43.896269 
L 328.108624 43.357165 
L 327.527339 42.822068 
L 326.946055 42.29098 
L 326.364771 41.7639 
L 325.783486 41.240828 
L 325.202202 40.721765 
L 324.620917 40.206709 
L 324.039633 39.695662 
L 323.458349 39.188623 
L 322.877064 38.685592 
L 322.29578 38.18657 
L 321.714495 37.691556 
L 321.133211 37.20055 
L 320.551927 36.713552 
L 319.970642 36.230562 
L 319.389358 35.751581 
L 318.808073 35.276607 
L 318.226789 34.805642 
L 317.645505 34.338685 
L 317.06422 33.875737 
L 316.482936 33.416796 
L 315.901651 32.961864 
L 315.320367 32.51094 
L 314.739083 32.064025 
L 314.157798 31.621117 
L 313.576514 31.182218 
L 312.995229 30.747327 
L 312.413945 30.316444 
L 311.832661 29.889569 
L 311.251376 29.466703 
L 310.670092 29.047844 
L 310.088807 28.632994 
L 309.507523 28.222152 
L 308.926239 27.815319 
L 308.344954 27.412493 
L 307.76367 27.013676 
L 307.182385 26.618867 
L 306.601101 26.228066 
L 306.019817 25.841274 
L 305.438532 25.45849 
L 304.857248 25.079713 
L 304.275963 24.704946 
L 303.694679 24.334186 
L 303.113394 23.967434 
L 302.53211 23.604691 
L 301.950826 23.245956 
L 301.369541 22.891229 
L 300.788257 22.540511 
L 300.206972 22.1938 
L 299.625688 21.851098 
L 299.044404 21.512404 
L 298.463119 21.177718 
L 297.881835 20.847041 
L 297.30055 20.520371 
L 296.719266 20.19771 
L 296.137982 19.879057 
L 295.556697 19.564412 
L 294.975413 19.253776 
L 294.394128 18.947148 
L 293.812844 18.644528 
L 293.23156 18.345916 
L 292.650275 18.051312 
L 292.068991 17.760717 
L 291.487706 17.474129 
L 290.906422 17.19155 
L 290.325138 16.91298 
L 289.743853 16.638417 
L 289.162569 16.367863 
L 288.581284 16.101316 
L 288 15.838778 
L 287.418716 15.580249 
L 286.837431 15.325727 
L 286.256147 15.075214 
L 285.674862 14.828709 
L 285.093578 14.586212 
L 284.512294 14.347723 
L 283.931009 14.113243 
L 283.349725 13.882771 
L 282.76844 13.656307 
L 282.187156 13.433851 
L 281.605872 13.215403 
L 281.024587 13.000964 
L 280.443303 12.790533 
L 279.862018 12.58411 
L 279.280734 12.381695 
L 278.69945 12.183288 
L 278.118165 11.98889 
L 277.536881 11.7985 
L 276.955596 11.612118 
L 276.374312 11.429744 
L 275.793028 11.251379 
L 275.211743 11.077021 
L 274.630459 10.906672 
L 274.049174 10.740332 
L 273.46789 10.577999 
L 272.886606 10.419675 
L 272.305321 10.265358 
L 271.724037 10.11505 
L 271.142752 9.968751 
L 270.561468 9.826459 
L 269.980183 9.688176 
L 269.398899 9.553901 
L 268.817615 9.423634 
L 268.23633 9.297375 
L 267.655046 9.175124 
L 267.073761 9.056882 
L 266.492477 8.942648 
L 265.911193 8.832422 
L 265.329908 8.726205 
L 264.748624 8.623995 
L 264.167339 8.525794 
L 263.586055 8.431601 
L 263.004771 8.341416 
L 262.423486 8.25524 
L 261.842202 8.173071 
L 261.260917 8.094911 
L 260.679633 8.020759 
L 260.098349 7.950615 
L 259.517064 7.88448 
L 258.93578 7.822353 
L 258.354495 7.764233 
L 257.773211 7.710123 
L 257.191927 7.66002 
L 256.610642 7.613925 
L 256.029358 7.571839 
L 255.448073 7.533761 
L 254.866789 7.499691 
L 254.285505 7.46963 
L 253.70422 7.443576 
L 253.122936 7.421531 
L 252.541651 7.403494 
L 251.960367 7.389466 
L 251.379083 7.379445 
L 250.797798 7.373433 
L 250.216514 7.371429 
L 249.635229 7.373433 
L 249.053945 7.379445 
L 248.472661 7.389466 
L 247.891376 7.403494 
L 247.310092 7.421531 
L 246.728807 7.443576 
L 246.147523 7.46963 
L 245.566239 7.499691 
L 244.984954 7.533761 
L 244.40367 7.571839 
L 243.822385 7.613925 
L 243.241101 7.66002 
L 242.659817 7.710123 
L 242.078532 7.764233 
L 241.497248 7.822353 
L 240.915963 7.88448 
L 240.334679 7.950615 
L 239.753394 8.020759 
L 239.17211 8.094911 
L 238.590826 8.173071 
L 238.009541 8.25524 
L 237.428257 8.341416 
L 236.846972 8.431601 
L 236.265688 8.525794 
L 235.684404 8.623995 
L 235.103119 8.726205 
L 234.521835 8.832422 
L 233.94055 8.942648 
L 233.359266 9.056882 
L 232.777982 9.175124 
L 232.196697 9.297375 
L 231.615413 9.423634 
L 231.034128 9.553901 
L 230.452844 9.688176 
L 229.87156 9.826459 
L 229.290275 9.968751 
L 228.708991 10.11505 
L 228.127706 10.265358 
L 227.546422 10.419675 
L 226.965138 10.577999 
L 226.383853 10.740332 
L 225.802569 10.906672 
L 225.221284 11.077021 
z
" style="fill:#0000ff;fill-opacity:0.1;stroke:#0000ff;stroke-opacity:0.1;"/>
   </g>
   <g id="matplotlib.axis_1">
    <g id="xtick_1">
     <g id="line2d_1">
      <defs>
       <path d="M 0 0 
L 0 3.5 
" id="medd5b1dd88" style="stroke:#000000;stroke-width:0.8;"/>
      </defs>
      <g>
       <use style="stroke:#000000;stroke-width:0.8;" x="79.609541" xlink:href="#medd5b1dd88" y="162"/>
      </g>
     </g>
     <g id="text_1">
      <!-- 1980 -->
      <g transform="translate(66.884541 176.598438)scale(0.1 -0.1)">
       <defs>
        <path d="M 794 531 
L 1825 531 
L 1825 4091 
L 703 3866 
L 703 4441 
L 1819 4666 
L 2450 4666 
L 2450 531 
L 3481 531 
L 3481 0 
L 794 0 
L 794 531 
z
" id="DejaVuSans-31" transform="scale(0.015625)"/>
        <path d="M 703 97 
L 703 672 
Q 941 559 1184 500 
Q 1428 441 1663 441 
Q 2288 441 2617 861 
Q 2947 1281 2994 2138 
Q 2813 1869 2534 1725 
Q 2256 1581 1919 1581 
Q 1219 1581 811 2004 
Q 403 2428 403 3163 
Q 403 3881 828 4315 
Q 1253 4750 1959 4750 
Q 2769 4750 3195 4129 
Q 3622 3509 3622 2328 
Q 3622 1225 3098 567 
Q 2575 -91 1691 -91 
Q 1453 -91 1209 -44 
Q 966 3 703 97 
z
M 1959 2075 
Q 2384 2075 2632 2365 
Q 2881 2656 2881 3163 
Q 2881 3666 2632 3958 
Q 2384 4250 1959 4250 
Q 1534 4250 1286 3958 
Q 1038 3666 1038 3163 
Q 1038 2656 1286 2365 
Q 1534 2075 1959 2075 
z
" id="DejaVuSans-39" transform="scale(0.015625)"/>
        <path d="M 2034 2216 
Q 1584 2216 1326 1975 
Q 1069 1734 1069 1313 
Q 1069 891 1326 650 
Q 1584 409 2034 409 
Q 2484 409 2743 651 
Q 3003 894 3003 1313 
Q 3003 1734 2745 1975 
Q 2488 2216 2034 2216 
z
M 1403 2484 
Q 997 2584 770 2862 
Q 544 3141 544 3541 
Q 544 4100 942 4425 
Q 1341 4750 2034 4750 
Q 2731 4750 3128 4425 
Q 3525 4100 3525 3541 
Q 3525 3141 3298 2862 
Q 3072 2584 2669 2484 
Q 3125 2378 3379 2068 
Q 3634 1759 3634 1313 
Q 3634 634 3220 271 
Q 2806 -91 2034 -91 
Q 1263 -91 848 271 
Q 434 634 434 1313 
Q 434 1759 690 2068 
Q 947 2378 1403 2484 
z
M 1172 3481 
Q 1172 3119 1398 2916 
Q 1625 2713 2034 2713 
Q 2441 2713 2670 2916 
Q 2900 3119 2900 3481 
Q 2900 3844 2670 4047 
Q 2441 4250 2034 4250 
Q 1625 4250 1398 4047 
Q 1172 3844 1172 3481 
z
" id="DejaVuSans-38" transform="scale(0.015625)"/>
        <path d="M 2034 4250 
Q 1547 4250 1301 3770 
Q 1056 3291 1056 2328 
Q 1056 1369 1301 889 
Q 1547 409 2034 409 
Q 2525 409 2770 889 
Q 3016 1369 3016 2328 
Q 3016 3291 2770 3770 
Q 2525 4250 2034 4250 
z
M 2034 4750 
Q 2819 4750 3233 4129 
Q 3647 3509 3647 2328 
Q 3647 1150 3233 529 
Q 2819 -91 2034 -91 
Q 1250 -91 836 529 
Q 422 1150 422 2328 
Q 422 3509 836 4129 
Q 1250 4750 2034 4750 
z
" id="DejaVuSans-30" transform="scale(0.015625)"/>
       </defs>
       <use xlink:href="#DejaVuSans-31"/>
       <use x="63.623047" xlink:href="#DejaVuSans-39"/>
       <use x="127.246094" xlink:href="#DejaVuSans-38"/>
       <use x="190.869141" xlink:href="#DejaVuSans-30"/>
      </g>
     </g>
    </g>
    <g id="xtick_2">
     <g id="line2d_2">
      <g>
       <use style="stroke:#000000;stroke-width:0.8;" x="149.36367" xlink:href="#medd5b1dd88" y="162"/>
      </g>
     </g>
     <g id="text_2">
      <!-- 1990 -->
      <g transform="translate(136.63867 176.598438)scale(0.1 -0.1)">
       <use xlink:href="#DejaVuSans-31"/>
       <use x="63.623047" xlink:href="#DejaVuSans-39"/>
       <use x="127.246094" xlink:href="#DejaVuSans-39"/>
       <use x="190.869141" xlink:href="#DejaVuSans-30"/>
      </g>
     </g>
    </g>
    <g id="xtick_3">
     <g id="line2d_3">
      <g>
       <use style="stroke:#000000;stroke-width:0.8;" x="219.117798" xlink:href="#medd5b1dd88" y="162"/>
      </g>
     </g>
     <g id="text_3">
      <!-- 2000 -->
      <g transform="translate(206.392798 176.598438)scale(0.1 -0.1)">
       <defs>
        <path d="M 1228 531 
L 3431 531 
L 3431 0 
L 469 0 
L 469 531 
Q 828 903 1448 1529 
Q 2069 2156 2228 2338 
Q 2531 2678 2651 2914 
Q 2772 3150 2772 3378 
Q 2772 3750 2511 3984 
Q 2250 4219 1831 4219 
Q 1534 4219 1204 4116 
Q 875 4013 500 3803 
L 500 4441 
Q 881 4594 1212 4672 
Q 1544 4750 1819 4750 
Q 2544 4750 2975 4387 
Q 3406 4025 3406 3419 
Q 3406 3131 3298 2873 
Q 3191 2616 2906 2266 
Q 2828 2175 2409 1742 
Q 1991 1309 1228 531 
z
" id="DejaVuSans-32" transform="scale(0.015625)"/>
       </defs>
       <use xlink:href="#DejaVuSans-32"/>
       <use x="63.623047" xlink:href="#DejaVuSans-30"/>
       <use x="127.246094" xlink:href="#DejaVuSans-30"/>
       <use x="190.869141" xlink:href="#DejaVuSans-30"/>
      </g>
     </g>
    </g>
    <g id="xtick_4">
     <g id="line2d_4">
      <g>
       <use style="stroke:#000000;stroke-width:0.8;" x="288.871927" xlink:href="#medd5b1dd88" y="162"/>
      </g>
     </g>
     <g id="text_4">
      <!-- 2010 -->
      <g transform="translate(276.146927 176.598438)scale(0.1 -0.1)">
       <use xlink:href="#DejaVuSans-32"/>
       <use x="63.623047" xlink:href="#DejaVuSans-30"/>
       <use x="127.246094" xlink:href="#DejaVuSans-31"/>
       <use x="190.869141" xlink:href="#DejaVuSans-30"/>
      </g>
     </g>
    </g>
    <g id="xtick_5">
     <g id="line2d_5">
      <g>
       <use style="stroke:#000000;stroke-width:0.8;" x="358.626055" xlink:href="#medd5b1dd88" y="162"/>
      </g>
     </g>
     <g id="text_5">
      <!-- 2020 -->
      <g transform="translate(345.901055 176.598438)scale(0.1 -0.1)">
       <use xlink:href="#DejaVuSans-32"/>
       <use x="63.623047" xlink:href="#DejaVuSans-30"/>
       <use x="127.246094" xlink:href="#DejaVuSans-32"/>
       <use x="190.869141" xlink:href="#DejaVuSans-30"/>
      </g>
     </g>
    </g>
   </g>
   <g id="matplotlib.axis_2">
    <g id="ytick_1">
     <g id="line2d_6">
      <defs>
       <path d="M 0 0 
L -3.5 0 
" id="m3c0e45e156" style="stroke:#000000;stroke-width:0.8;"/>
      </defs>
      <g>
       <use style="stroke:#000000;stroke-width:0.8;" x="34.56" xlink:href="#m3c0e45e156" y="137.381446"/>
      </g>
     </g>
     <g id="text_6">
      <!-- −40 -->
      <g transform="translate(6.455313 141.180664)scale(0.1 -0.1)">
       <defs>
        <path d="M 678 2272 
L 4684 2272 
L 4684 1741 
L 678 1741 
L 678 2272 
z
" id="DejaVuSans-2212" transform="scale(0.015625)"/>
        <path d="M 2419 4116 
L 825 1625 
L 2419 1625 
L 2419 4116 
z
M 2253 4666 
L 3047 4666 
L 3047 1625 
L 3713 1625 
L 3713 1100 
L 3047 1100 
L 3047 0 
L 2419 0 
L 2419 1100 
L 313 1100 
L 313 1709 
L 2253 4666 
z
" id="DejaVuSans-34" transform="scale(0.015625)"/>
       </defs>
       <use xlink:href="#DejaVuSans-2212"/>
       <use x="83.789062" xlink:href="#DejaVuSans-34"/>
       <use x="147.412109" xlink:href="#DejaVuSans-30"/>
      </g>
     </g>
    </g>
    <g id="ytick_2">
     <g id="line2d_7">
      <g>
       <use style="stroke:#000000;stroke-width:0.8;" x="34.56" xlink:href="#m3c0e45e156" y="110.090723"/>
      </g>
     </g>
     <g id="text_7">
      <!-- −20 -->
      <g transform="translate(6.455313 113.889942)scale(0.1 -0.1)">
       <use xlink:href="#DejaVuSans-2212"/>
       <use x="83.789062" xlink:href="#DejaVuSans-32"/>
       <use x="147.412109" xlink:href="#DejaVuSans-30"/>
      </g>
     </g>
    </g>
    <g id="ytick_3">
     <g id="line2d_8">
      <g>
       <use style="stroke:#000000;stroke-width:0.8;" x="34.56" xlink:href="#m3c0e45e156" y="82.8"/>
      </g>
     </g>
     <g id="text_8">
      <!-- 0 -->
      <g transform="translate(21.1975 86.599219)scale(0.1 -0.1)">
       <use xlink:href="#DejaVuSans-30"/>
      </g>
     </g>
    </g>
    <g id="ytick_4">
     <g id="line2d_9">
      <g>
       <use style="stroke:#000000;stroke-width:0.8;" x="34.56" xlink:href="#m3c0e45e156" y="55.509277"/>
      </g>
     </g>
     <g id="text_9">
      <!-- 20 -->
      <g transform="translate(14.835 59.308496)scale(0.1 -0.1)">
       <use xlink:href="#DejaVuSans-32"/>
       <use x="63.623047" xlink:href="#DejaVuSans-30"/>
      </g>
     </g>
    </g>
    <g id="ytick_5">
     <g id="line2d_10">
      <g>
       <use style="stroke:#000000;stroke-width:0.8;" x="34.56" xlink:href="#m3c0e45e156" y="28.218554"/>
      </g>
     </g>
     <g id="text_10">
      <!-- 40 -->
      <g transform="translate(14.835 32.017773)scale(0.1 -0.1)">
       <use xlink:href="#DejaVuSans-34"/>
       <use x="63.623047" xlink:href="#DejaVuSans-30"/>
      </g>
     </g>
    </g>
   </g>
   <g id="line2d_11">
    <path clip-path="url(#p11975b34cf)" d="M 86.875596 82.813863 
L 87.456881 82.470143 
L 88.038165 82.469943 
L 88.61945 82.798544 
L 89.200734 83.267047 
L 90.944587 83.866395 
L 91.525872 84.40522 
L 92.107156 84.749088 
L 92.68844 84.531188 
L 93.269725 84.679152 
L 93.851009 85.631562 
L 94.432294 86.047813 
L 95.594862 86.43406 
L 97.338716 86.988391 
L 98.501284 87.548282 
L 99.663853 87.431061 
L 101.407706 87.730788 
L 101.988991 87.655496 
L 102.570275 87.391378 
L 103.15156 87.366038 
L 104.314128 87.618796 
L 104.895413 88.009756 
L 105.476697 88.002336 
L 106.057982 87.555917 
L 107.22055 87.641463 
L 107.801835 87.364373 
L 109.545688 87.03892 
L 110.126972 86.844482 
L 111.870826 85.699627 
L 113.033394 84.671916 
L 114.777248 83.762931 
L 115.358532 83.179466 
L 115.939817 82.935392 
L 116.521101 82.358393 
L 117.102385 82.404653 
L 117.68367 82.211038 
L 118.264954 82.285478 
L 118.846239 82.082623 
L 119.427523 81.585596 
L 120.008807 81.288002 
L 120.590092 80.690368 
L 121.171376 80.315414 
L 121.752661 79.804847 
L 122.333945 79.797289 
L 122.915229 79.183345 
L 123.496514 78.240207 
L 124.077798 77.897612 
L 124.659083 77.888777 
L 125.240367 78.041734 
L 125.821651 77.945857 
L 126.402936 77.736938 
L 126.98422 77.914389 
L 127.565505 77.827123 
L 128.146789 77.479526 
L 128.728073 77.335103 
L 129.309358 77.872711 
L 129.890642 77.288099 
L 131.634495 76.439893 
L 132.21578 76.440725 
L 132.797064 76.157663 
L 133.378349 76.104437 
L 133.959633 75.797428 
L 134.540917 75.247762 
L 135.122202 75.153702 
L 135.703486 74.857712 
L 137.447339 73.18979 
L 138.609908 72.649888 
L 139.191193 72.246257 
L 140.353761 70.97993 
L 142.678899 68.935348 
L 143.841468 68.449161 
L 144.422752 67.917304 
L 145.004037 67.949753 
L 145.585321 67.629051 
L 146.166606 67.175022 
L 146.74789 66.999923 
L 147.910459 67.538498 
L 148.491743 67.688897 
L 149.073028 68.134214 
L 149.654312 68.128214 
L 150.816881 68.540732 
L 151.398165 69.397331 
L 151.97945 69.303384 
L 153.142018 69.638654 
L 154.304587 69.283761 
L 155.467156 69.930141 
L 156.04844 69.929575 
M 205.457615 69.811605 
L 206.038899 68.851886 
L 206.620183 68.998543 
L 207.201468 68.987694 
L 207.782752 68.727491 
L 209.526606 68.689596 
M 210.689174 68.479941 
L 212.433028 68.143064 
L 213.014312 67.831713 
L 214.758165 68.601815 
L 215.920734 68.349325 
L 216.502018 68.361447 
M 217.664587 67.712875 
L 219.40844 67.590708 
L 219.989725 67.66848 
L 220.571009 67.54822 
L 221.152294 67.276577 
L 221.733578 66.876344 
L 222.314862 66.205141 
L 222.896147 66.189092 
L 223.477431 66.34077 
M 225.221284 66.415266 
L 226.383853 66.463569 
L 226.965138 66.361117 
L 227.546422 66.481366 
L 228.127706 65.326804 
L 229.290275 64.708426 
L 230.452844 64.699904 
L 231.615413 63.89897 
L 233.359266 63.297991 
L 233.94055 63.444735 
L 235.103119 63.246408 
L 235.684404 63.374112 
L 236.265688 63.301569 
L 238.009541 63.971762 
L 238.590826 63.692534 
L 239.17211 63.892676 
L 240.334679 63.536264 
L 241.497248 63.972366 
L 242.659817 63.759494 
L 243.241101 63.866867 
L 243.822385 63.799522 
L 244.40367 63.852158 
L 245.566239 64.198422 
L 247.310092 64.280349 
L 247.891376 63.969578 
L 248.472661 63.867668 
L 249.053945 64.008632 
L 249.635229 63.684168 
L 251.379083 63.566406 
L 252.541651 63.692959 
L 253.70422 63.231246 
L 254.866789 62.823713 
L 255.448073 62.577515 
L 256.029358 63.022414 
L 256.610642 62.870808 
L 257.191927 62.891464 
L 258.354495 62.770157 
L 259.517064 63.777879 
L 260.679633 64.446917 
L 261.260917 65.141281 
L 261.842202 65.25686 
L 262.423486 65.140871 
L 263.004771 65.291319 
L 263.586055 65.785805 
L 264.167339 66.840951 
L 264.748624 67.229439 
L 265.329908 66.795258 
L 265.911193 66.539654 
L 267.073761 66.716004 
L 267.655046 66.646435 
L 268.23633 66.44309 
L 268.817615 66.41683 
L 269.980183 67.27907 
L 271.142752 67.481684 
L 272.305321 67.150143 
L 272.886606 66.79394 
L 273.46789 66.944037 
L 274.630459 66.810279 
L 275.211743 66.807362 
L 275.793028 67.162824 
L 276.374312 66.98318 
L 276.955596 67.072863 
L 277.536881 67.618459 
L 278.118165 67.86989 
L 279.862018 67.53907 
L 281.024587 67.568332 
L 281.605872 67.8877 
L 282.187156 68.535677 
L 283.349725 68.308129 
L 283.931009 68.997743 
L 284.512294 69.079504 
L 285.674862 68.582544 
L 286.256147 68.612657 
L 286.837431 68.889619 
L 288 68.477816 
L 289.162569 68.968038 
L 289.743853 68.697695 
L 290.325138 68.300333 
L 290.906422 68.620299 
L 291.487706 68.346005 
L 292.068991 68.907779 
L 292.650275 69.149122 
L 293.23156 69.091394 
L 294.394128 68.740338 
L 294.975413 68.596454 
L 295.556697 68.844151 
L 296.137982 68.587018 
L 296.719266 68.632958 
L 297.30055 69.177865 
L 299.044404 70.167516 
L 299.625688 70.102563 
L 300.206972 69.884095 
L 300.788257 70.137081 
L 301.950826 71.390964 
L 302.53211 71.282237 
L 303.113394 71.386668 
L 303.694679 71.873255 
L 304.275963 72.071405 
L 305.438532 71.933312 
L 306.601101 71.724888 
L 307.182385 72.008472 
L 307.76367 71.924025 
L 308.926239 72.005618 
L 310.088807 71.920738 
L 312.413945 72.96648 
L 312.995229 72.982835 
L 313.576514 73.262899 
L 315.901651 72.97777 
L 317.645505 73.617775 
L 318.226789 74.53548 
L 318.808073 74.927027 
L 319.389358 74.722411 
L 319.970642 74.854952 
L 321.133211 75.300357 
L 321.714495 75.31082 
L 322.877064 75.977419 
L 324.620917 76.422519 
L 325.202202 76.64377 
L 325.783486 76.745961 
L 326.364771 77.154081 
L 326.946055 77.137553 
L 327.527339 77.345138 
L 328.108624 77.877313 
L 328.689908 77.894517 
L 329.852477 78.842736 
L 330.433761 79.079364 
L 331.015046 79.483165 
L 331.59633 79.52268 
L 332.758899 80.122787 
L 333.340183 80.573792 
L 333.921468 80.825352 
L 335.084037 80.762128 
L 335.665321 81.330033 
L 336.246606 81.371652 
L 337.409174 82.426992 
L 337.990459 82.417677 
L 339.153028 82.763949 
L 340.315596 82.255661 
L 340.896881 82.326844 
L 342.05945 83.146864 
L 342.640734 83.339724 
L 344.965872 82.958427 
L 345.547156 83.403274 
L 346.12844 83.285547 
L 347.291009 83.533306 
L 347.872294 83.25009 
L 348.453578 83.153841 
L 349.616147 83.801662 
L 350.778716 84.829742 
L 351.941284 84.467666 
L 352.522569 85.020396 
L 356.59156 83.34224 
L 357.754128 83.194449 
L 358.335413 83.359839 
L 358.916697 83.316831 
L 359.497982 82.791592 
L 360.079266 82.802393 
L 360.66055 83.031849 
L 361.241835 82.782145 
L 361.823119 82.93616 
L 362.404404 82.8 
L 362.404404 82.8 
" style="fill:none;stroke:#1f77b4;stroke-linecap:square;stroke-width:1.5;"/>
   </g>
   <g id="line2d_12">
    <path clip-path="url(#p11975b34cf)" d="M 34.56 82.8 
L 414.72 82.8 
" style="fill:none;stroke:#000000;stroke-dasharray:1.5,2.475;stroke-dashoffset:0;stroke-width:1.5;"/>
   </g>
   <g id="patch_3">
    <path d="M 34.56 162 
L 34.56 3.6 
" style="fill:none;stroke:#000000;stroke-linecap:square;stroke-linejoin:miter;stroke-width:0.8;"/>
   </g>
   <g id="patch_4">
    <path d="M 414.72 162 
L 414.72 3.6 
" style="fill:none;stroke:#000000;stroke-linecap:square;stroke-linejoin:miter;stroke-width:0.8;"/>
   </g>
   <g id="patch_5">
    <path d="M 34.56 162 
L 414.72 162 
" style="fill:none;stroke:#000000;stroke-linecap:square;stroke-linejoin:miter;stroke-width:0.8;"/>
   </g>
   <g id="patch_6">
    <path d="M 34.56 3.6 
L 414.72 3.6 
" style="fill:none;stroke:#000000;stroke-linecap:square;stroke-linejoin:miter;stroke-width:0.8;"/>
   </g>
  </g>
 </g>
 <defs>
  <clipPath id="p11975b34cf">
   <rect height="158.4" width="380.16" x="34.56" y="3.6"/>
  </clipPath>
 </defs>
</svg>
