<?xml version="1.0" encoding="utf-8" standalone="no"?>
<!DOCTYPE svg PUBLIC "-//W3C//DTD SVG 1.1//EN"
  "http://www.w3.org/Graphics/SVG/1.1/DTD/svg11.dtd">
<svg height="180pt" version="1.1" viewBox="0 0 432 180" width="432pt" xmlns="http://www.w3.org/2000/svg" xmlns:xlink="http://www.w3.org/1999/xlink">
 <metadata>
  <rdf:RDF xmlns:cc="http://creativecommons.org/ns#" xmlns:dc="http://purl.org/dc/elements/1.1/" xmlns:rdf="http://www.w3.org/1999/02/22-rdf-syntax-ns#">
   <cc:Work>
    <dc:type rdf:resource="http://purl.org/dc/dcmitype/StillImage"/>
    <dc:date>2021-08-10T10:27:39.936478</dc:date>
    <dc:format>image/svg+xml</dc:format>
    <dc:creator>
     <cc:Agent>
      <dc:title>Matplotlib v3.4.2, https://matplotlib.org/</dc:title>
     </cc:Agent>
    </dc:creator>
   </cc:Work>
  </rdf:RDF>
 </metadata>
 <defs>
  <style type="text/css">*{stroke-linecap:butt;stroke-linejoin:round;}</style>
 </defs>
 <g id="figure_1">
  <g id="patch_1">
   <path d="M 0 180 
L 432 180 
L 432 0 
L 0 0 
z
" style="fill:#ffffff;"/>
  </g>
  <g id="axes_1">
   <g id="patch_2">
    <path d="M 34.56 162 
L 414.72 162 
L 414.72 3.6 
L 34.56 3.6 
z
" style="fill:#ffffff;"/>
   </g>
   <g id="PolyCollection_1">
    <path clip-path="url(#p9449690e46)" d="M 76.540859 82.320327 
L 76.540859 83.279673 
L 77.007313 83.757054 
L 77.473767 84.232911 
L 77.940221 84.707242 
L 78.406675 85.180048 
L 78.873129 85.651329 
L 79.339583 86.121084 
L 79.806037 86.589315 
L 80.272491 87.05602 
L 80.738945 87.5212 
L 81.205399 87.984855 
L 81.671853 88.446985 
L 82.138307 88.907589 
L 82.604761 89.366669 
L 83.071215 89.824223 
L 83.537669 90.280252 
L 84.004123 90.734756 
L 84.470577 91.187734 
L 84.937031 91.639188 
L 85.403485 92.089116 
L 85.869939 92.537519 
L 86.336393 92.984397 
L 86.802847 93.42975 
L 87.269301 93.873577 
L 87.735755 94.31588 
L 88.202209 94.756657 
L 88.668663 95.195909 
L 89.135117 95.633636 
L 89.601571 96.069837 
L 90.068025 96.504514 
L 90.534479 96.937665 
L 91.000933 97.369291 
L 91.467387 97.799392 
L 91.93384 98.227968 
L 92.400294 98.655018 
L 92.866748 99.080544 
L 93.333202 99.504544 
L 93.799656 99.927019 
L 94.26611 100.347969 
L 94.732564 100.767393 
L 95.199018 101.185293 
L 95.665472 101.601667 
L 96.131926 102.016516 
L 96.59838 102.42984 
L 97.064834 102.841639 
L 97.531288 103.251913 
L 97.997742 103.660661 
L 98.464196 104.067884 
L 98.93065 104.473582 
L 99.397104 104.877755 
L 99.863558 105.280403 
L 100.330012 105.681525 
L 100.796466 106.081122 
L 101.26292 106.479195 
L 101.729374 106.875742 
L 102.195828 107.270763 
L 102.662282 107.66426 
L 103.128736 108.056231 
L 103.59519 108.446678 
L 104.061644 108.835599 
L 104.528098 109.222994 
L 104.994552 109.608865 
L 105.461006 109.993211 
L 105.92746 110.376031 
L 106.393914 110.757326 
L 106.860368 111.137096 
L 107.326822 111.515341 
L 107.793276 111.89206 
L 108.25973 112.267255 
L 108.726184 112.640924 
L 109.192638 113.013068 
L 109.659092 113.383687 
L 110.125546 113.752781 
L 110.592 114.120349 
L 111.058454 114.486393 
L 111.524908 114.850911 
L 111.991362 115.213904 
L 112.457816 115.575372 
L 112.92427 115.935314 
L 113.390724 116.293732 
L 113.857178 116.650624 
L 114.323632 117.005991 
L 114.790086 117.359833 
L 115.25654 117.71215 
L 115.722994 118.062941 
L 116.189448 118.412207 
L 116.655902 118.759949 
L 117.122356 119.106165 
L 117.58881 119.450855 
L 118.055264 119.794021 
L 118.521718 120.135661 
L 118.988172 120.475777 
L 119.454626 120.814367 
L 119.92108 121.151432 
L 120.387534 121.486971 
L 120.853988 121.820986 
L 121.320442 122.153475 
L 121.786896 122.48444 
L 122.25335 122.813879 
L 122.719804 123.141792 
L 123.186258 123.468181 
L 123.652712 123.793044 
L 124.119166 124.116383 
L 124.58562 124.438196 
L 125.052074 124.758484 
L 125.518528 125.077247 
L 125.984982 125.394484 
L 126.451436 125.710196 
L 126.91789 126.024384 
L 126.91789 39.575616 
L 126.91789 39.575616 
L 126.451436 39.889804 
L 125.984982 40.205516 
L 125.518528 40.522753 
L 125.052074 40.841516 
L 124.58562 41.161804 
L 124.119166 41.483617 
L 123.652712 41.806956 
L 123.186258 42.131819 
L 122.719804 42.458208 
L 122.25335 42.786121 
L 121.786896 43.11556 
L 121.320442 43.446525 
L 120.853988 43.779014 
L 120.387534 44.113029 
L 119.92108 44.448568 
L 119.454626 44.785633 
L 118.988172 45.124223 
L 118.521718 45.464339 
L 118.055264 45.805979 
L 117.58881 46.149145 
L 117.122356 46.493835 
L 116.655902 46.840051 
L 116.189448 47.187793 
L 115.722994 47.537059 
L 115.25654 47.88785 
L 114.790086 48.240167 
L 114.323632 48.594009 
L 113.857178 48.949376 
L 113.390724 49.306268 
L 112.92427 49.664686 
L 112.457816 50.024628 
L 111.991362 50.386096 
L 111.524908 50.749089 
L 111.058454 51.113607 
L 110.592 51.479651 
L 110.125546 51.847219 
L 109.659092 52.216313 
L 109.192638 52.586932 
L 108.726184 52.959076 
L 108.25973 53.332745 
L 107.793276 53.70794 
L 107.326822 54.084659 
L 106.860368 54.462904 
L 106.393914 54.842674 
L 105.92746 55.223969 
L 105.461006 55.606789 
L 104.994552 55.991135 
L 104.528098 56.377006 
L 104.061644 56.764401 
L 103.59519 57.153322 
L 103.128736 57.543769 
L 102.662282 57.93574 
L 102.195828 58.329237 
L 101.729374 58.724258 
L 101.26292 59.120805 
L 100.796466 59.518878 
L 100.330012 59.918475 
L 99.863558 60.319597 
L 99.397104 60.722245 
L 98.93065 61.126418 
L 98.464196 61.532116 
L 97.997742 61.939339 
L 97.531288 62.348087 
L 97.064834 62.758361 
L 96.59838 63.17016 
L 96.131926 63.583484 
L 95.665472 63.998333 
L 95.199018 64.414707 
L 94.732564 64.832607 
L 94.26611 65.252031 
L 93.799656 65.672981 
L 93.333202 66.095456 
L 92.866748 66.519456 
L 92.400294 66.944982 
L 91.93384 67.372032 
L 91.467387 67.800608 
L 91.000933 68.230709 
L 90.534479 68.662335 
L 90.068025 69.095486 
L 89.601571 69.530163 
L 89.135117 69.966364 
L 88.668663 70.404091 
L 88.202209 70.843343 
L 87.735755 71.28412 
L 87.269301 71.726423 
L 86.802847 72.17025 
L 86.336393 72.615603 
L 85.869939 73.062481 
L 85.403485 73.510884 
L 84.937031 73.960812 
L 84.470577 74.412266 
L 84.004123 74.865244 
L 83.537669 75.319748 
L 83.071215 75.775777 
L 82.604761 76.233331 
L 82.138307 76.692411 
L 81.671853 77.153015 
L 81.205399 77.615145 
L 80.738945 78.0788 
L 80.272491 78.54398 
L 79.806037 79.010685 
L 79.339583 79.478916 
L 78.873129 79.948671 
L 78.406675 80.419952 
L 77.940221 80.892758 
L 77.473767 81.367089 
L 77.007313 81.842946 
L 76.540859 82.320327 
z
" style="fill:#0000ff;fill-opacity:0.1;stroke:#0000ff;stroke-opacity:0.1;"/>
    <path clip-path="url(#p9449690e46)" d="M 127.850798 39.262954 
L 127.850798 126.337046 
L 128.317252 126.648183 
L 128.783706 126.957794 
L 129.25016 127.265881 
L 129.716613 127.572442 
L 130.183067 127.877478 
L 130.649521 128.180989 
L 131.115975 128.482975 
L 131.582429 128.783435 
L 132.048883 129.082371 
L 132.515337 129.379781 
L 132.981791 129.675666 
L 133.448245 129.970026 
L 133.914699 130.26286 
L 134.381153 130.55417 
L 134.847607 130.843954 
L 135.314061 131.132213 
L 135.780515 131.418947 
L 136.246969 131.704156 
L 136.713423 131.98784 
L 137.179877 132.269998 
L 137.646331 132.550631 
L 138.112785 132.829739 
L 138.579239 133.107322 
L 139.045693 133.38338 
L 139.512147 133.657912 
L 139.978601 133.93092 
L 140.445055 134.202402 
L 140.911509 134.472359 
L 141.377963 134.740791 
L 141.844417 135.007697 
L 142.310871 135.273079 
L 142.777325 135.536935 
L 143.243779 135.799266 
L 143.710233 136.060072 
L 144.176687 136.319353 
L 144.643141 136.577108 
L 145.109595 136.833338 
L 145.576049 137.088044 
L 146.042503 137.341223 
L 146.508957 137.592878 
L 146.975411 137.843008 
L 147.441865 138.091612 
L 147.908319 138.338692 
L 148.374773 138.584246 
L 148.841227 138.828275 
L 149.307681 139.070778 
L 149.774135 139.311757 
L 150.240589 139.55121 
L 150.707043 139.789138 
L 151.173497 140.025541 
L 151.639951 140.260419 
L 152.106405 140.493772 
L 152.572859 140.725599 
L 153.039313 140.955901 
L 153.505767 141.184679 
L 153.972221 141.41193 
L 154.438675 141.637657 
L 154.905129 141.861859 
L 155.371583 142.084535 
L 155.838037 142.305686 
L 156.304491 142.525312 
L 156.770945 142.743413 
L 157.237399 142.959989 
L 157.703853 143.175039 
L 158.170307 143.388564 
L 158.636761 143.600565 
L 159.103215 143.811039 
L 159.569669 144.019989 
L 160.036123 144.227414 
L 160.502577 144.433313 
L 160.969031 144.637687 
L 161.435485 144.840536 
L 161.901939 145.04186 
L 162.368393 145.241659 
L 162.834847 145.439932 
L 163.301301 145.636681 
L 163.767755 145.831904 
L 164.234209 146.025602 
L 164.700663 146.217774 
L 165.167117 146.408422 
L 165.633571 146.597544 
L 166.100025 146.785142 
L 166.566479 146.971214 
L 167.032933 147.15576 
L 167.499387 147.338782 
L 167.96584 147.520279 
L 168.432294 147.70025 
L 168.898748 147.878696 
L 169.365202 148.055617 
L 169.831656 148.231013 
L 170.29811 148.404883 
L 170.764564 148.577229 
L 171.231018 148.748049 
L 171.697472 148.917344 
L 172.163926 149.085114 
L 172.63038 149.251359 
L 173.096834 149.416078 
L 173.563288 149.579272 
L 174.029742 149.740942 
L 174.496196 149.901086 
L 174.96265 150.059704 
L 175.429104 150.216798 
L 175.895558 150.372366 
L 176.362012 150.52641 
L 176.828466 150.678928 
L 177.29492 150.82992 
L 177.761374 150.979388 
L 178.227828 151.127331 
L 178.694282 151.273748 
L 179.160736 151.41864 
L 179.62719 151.562007 
L 180.093644 151.703849 
L 180.560098 151.844166 
L 181.026552 151.982957 
L 181.493006 152.120223 
L 181.95946 152.255964 
L 182.425914 152.39018 
L 182.892368 152.522871 
L 183.358822 152.654036 
L 183.825276 152.783677 
L 184.29173 152.911792 
L 184.758184 153.038382 
L 185.224638 153.163447 
L 185.691092 153.286986 
L 186.157546 153.409001 
L 186.624 153.52949 
L 187.090454 153.648454 
L 187.556908 153.765893 
L 188.023362 153.881807 
L 188.489816 153.996195 
L 188.95627 154.109059 
L 189.422724 154.220397 
L 189.889178 154.33021 
L 190.355632 154.438498 
L 190.822086 154.54526 
L 191.28854 154.650498 
L 191.754994 154.75421 
L 192.221448 154.856397 
L 192.687902 154.957059 
L 193.154356 155.056196 
L 193.62081 155.153807 
L 194.087264 155.249894 
L 194.553718 155.344455 
L 195.020172 155.437491 
L 195.486626 155.529002 
L 195.95308 155.618987 
L 196.419534 155.707448 
L 196.885988 155.794383 
L 197.352442 155.879793 
L 197.818896 155.963678 
L 198.28535 156.046038 
L 198.751804 156.126873 
L 199.218258 156.206182 
L 199.684712 156.283966 
L 200.151166 156.360225 
L 200.61762 156.434959 
L 201.084074 156.508168 
L 201.550528 156.579851 
L 202.016982 156.65001 
L 202.483436 156.718643 
L 202.94989 156.785751 
L 203.416344 156.851333 
L 203.882798 156.915391 
L 204.349252 156.977923 
L 204.815706 157.038931 
L 205.28216 157.098413 
L 205.748613 157.156369 
L 206.215067 157.212801 
L 206.681521 157.267708 
L 207.147975 157.321089 
L 207.614429 157.372945 
L 208.080883 157.423276 
L 208.547337 157.472082 
L 209.013791 157.519362 
L 209.480245 157.565118 
L 209.946699 157.609348 
L 210.413153 157.652053 
L 210.879607 157.693233 
L 211.346061 157.732888 
L 211.812515 157.771017 
L 212.278969 157.807622 
L 212.745423 157.842701 
L 213.211877 157.876255 
L 213.678331 157.908284 
L 214.144785 157.938787 
L 214.611239 157.967766 
L 215.077693 157.995219 
L 215.544147 158.021147 
L 216.010601 158.04555 
L 216.477055 158.068427 
L 216.943509 158.08978 
L 217.409963 158.109607 
L 217.876417 158.12791 
L 218.342871 158.144686 
L 218.809325 158.159938 
L 219.275779 158.173665 
L 219.742233 158.185866 
L 220.208687 158.196543 
L 220.675141 158.205694 
L 221.141595 158.21332 
L 221.608049 158.21942 
L 222.074503 158.223996 
L 222.540957 158.227046 
L 223.007411 158.228571 
L 223.473865 158.228571 
L 223.940319 158.227046 
L 224.406773 158.223996 
L 224.873227 158.21942 
L 225.339681 158.21332 
L 225.806135 158.205694 
L 226.272589 158.196543 
L 226.739043 158.185866 
L 227.205497 158.173665 
L 227.671951 158.159938 
L 228.138405 158.144686 
L 228.604859 158.12791 
L 229.071313 158.109607 
L 229.537767 158.08978 
L 230.004221 158.068427 
L 230.470675 158.04555 
L 230.937129 158.021147 
L 231.403583 157.995219 
L 231.870037 157.967766 
L 232.336491 157.938787 
L 232.802945 157.908284 
L 233.269399 157.876255 
L 233.735853 157.842701 
L 234.202307 157.807622 
L 234.668761 157.771017 
L 235.135215 157.732888 
L 235.601669 157.693233 
L 236.068123 157.652053 
L 236.534577 157.609348 
L 237.001031 157.565118 
L 237.467485 157.519362 
L 237.933939 157.472082 
L 238.400393 157.423276 
L 238.866847 157.372945 
L 239.333301 157.321089 
L 239.799755 157.267708 
L 240.266209 157.212801 
L 240.732663 157.156369 
L 241.199117 157.098413 
L 241.665571 157.038931 
L 242.132025 156.977923 
L 242.598479 156.915391 
L 243.064933 156.851333 
L 243.531387 156.785751 
L 243.99784 156.718643 
L 244.464294 156.65001 
L 244.930748 156.579851 
L 245.397202 156.508168 
L 245.863656 156.434959 
L 246.33011 156.360225 
L 246.796564 156.283966 
L 247.263018 156.206182 
L 247.729472 156.126873 
L 248.195926 156.046038 
L 248.66238 155.963678 
L 249.128834 155.879793 
L 249.595288 155.794383 
L 250.061742 155.707448 
L 250.528196 155.618987 
L 250.99465 155.529002 
L 251.461104 155.437491 
L 251.927558 155.344455 
L 252.394012 155.249894 
L 252.860466 155.153807 
L 253.32692 155.056196 
L 253.793374 154.957059 
L 254.259828 154.856397 
L 254.726282 154.75421 
L 255.192736 154.650498 
L 255.65919 154.54526 
L 256.125644 154.438498 
L 256.592098 154.33021 
L 257.058552 154.220397 
L 257.525006 154.109059 
L 257.99146 153.996195 
L 258.457914 153.881807 
L 258.924368 153.765893 
L 259.390822 153.648454 
L 259.857276 153.52949 
L 260.32373 153.409001 
L 260.790184 153.286986 
L 261.256638 153.163447 
L 261.256638 12.436553 
L 261.256638 12.436553 
L 260.790184 12.313014 
L 260.32373 12.190999 
L 259.857276 12.07051 
L 259.390822 11.951546 
L 258.924368 11.834107 
L 258.457914 11.718193 
L 257.99146 11.603805 
L 257.525006 11.490941 
L 257.058552 11.379603 
L 256.592098 11.26979 
L 256.125644 11.161502 
L 255.65919 11.05474 
L 255.192736 10.949502 
L 254.726282 10.84579 
L 254.259828 10.743603 
L 253.793374 10.642941 
L 253.32692 10.543804 
L 252.860466 10.446193 
L 252.394012 10.350106 
L 251.927558 10.255545 
L 251.461104 10.162509 
L 250.99465 10.070998 
L 250.528196 9.981013 
L 250.061742 9.892552 
L 249.595288 9.805617 
L 249.128834 9.720207 
L 248.66238 9.636322 
L 248.195926 9.553962 
L 247.729472 9.473127 
L 247.263018 9.393818 
L 246.796564 9.316034 
L 246.33011 9.239775 
L 245.863656 9.165041 
L 245.397202 9.091832 
L 244.930748 9.020149 
L 244.464294 8.94999 
L 243.99784 8.881357 
L 243.531387 8.814249 
L 243.064933 8.748667 
L 242.598479 8.684609 
L 242.132025 8.622077 
L 241.665571 8.561069 
L 241.199117 8.501587 
L 240.732663 8.443631 
L 240.266209 8.387199 
L 239.799755 8.332292 
L 239.333301 8.278911 
L 238.866847 8.227055 
L 238.400393 8.176724 
L 237.933939 8.127918 
L 237.467485 8.080638 
L 237.001031 8.034882 
L 236.534577 7.990652 
L 236.068123 7.947947 
L 235.601669 7.906767 
L 235.135215 7.867112 
L 234.668761 7.828983 
L 234.202307 7.792378 
L 233.735853 7.757299 
L 233.269399 7.723745 
L 232.802945 7.691716 
L 232.336491 7.661213 
L 231.870037 7.632234 
L 231.403583 7.604781 
L 230.937129 7.578853 
L 230.470675 7.55445 
L 230.004221 7.531573 
L 229.537767 7.51022 
L 229.071313 7.490393 
L 228.604859 7.47209 
L 228.138405 7.455314 
L 227.671951 7.440062 
L 227.205497 7.426335 
L 226.739043 7.414134 
L 226.272589 7.403457 
L 225.806135 7.394306 
L 225.339681 7.38668 
L 224.873227 7.38058 
L 224.406773 7.376004 
L 223.940319 7.372954 
L 223.473865 7.371429 
L 223.007411 7.371429 
L 222.540957 7.372954 
L 222.074503 7.376004 
L 221.608049 7.38058 
L 221.141595 7.38668 
L 220.675141 7.394306 
L 220.208687 7.403457 
L 219.742233 7.414134 
L 219.275779 7.426335 
L 218.809325 7.440062 
L 218.342871 7.455314 
L 217.876417 7.47209 
L 217.409963 7.490393 
L 216.943509 7.51022 
L 216.477055 7.531573 
L 216.010601 7.55445 
L 215.544147 7.578853 
L 215.077693 7.604781 
L 214.611239 7.632234 
L 214.144785 7.661213 
L 213.678331 7.691716 
L 213.211877 7.723745 
L 212.745423 7.757299 
L 212.278969 7.792378 
L 211.812515 7.828983 
L 211.346061 7.867112 
L 210.879607 7.906767 
L 210.413153 7.947947 
L 209.946699 7.990652 
L 209.480245 8.034882 
L 209.013791 8.080638 
L 208.547337 8.127918 
L 208.080883 8.176724 
L 207.614429 8.227055 
L 207.147975 8.278911 
L 206.681521 8.332292 
L 206.215067 8.387199 
L 205.748613 8.443631 
L 205.28216 8.501587 
L 204.815706 8.561069 
L 204.349252 8.622077 
L 203.882798 8.684609 
L 203.416344 8.748667 
L 202.94989 8.814249 
L 202.483436 8.881357 
L 202.016982 8.94999 
L 201.550528 9.020149 
L 201.084074 9.091832 
L 200.61762 9.165041 
L 200.151166 9.239775 
L 199.684712 9.316034 
L 199.218258 9.393818 
L 198.751804 9.473127 
L 198.28535 9.553962 
L 197.818896 9.636322 
L 197.352442 9.720207 
L 196.885988 9.805617 
L 196.419534 9.892552 
L 195.95308 9.981013 
L 195.486626 10.070998 
L 195.020172 10.162509 
L 194.553718 10.255545 
L 194.087264 10.350106 
L 193.62081 10.446193 
L 193.154356 10.543804 
L 192.687902 10.642941 
L 192.221448 10.743603 
L 191.754994 10.84579 
L 191.28854 10.949502 
L 190.822086 11.05474 
L 190.355632 11.161502 
L 189.889178 11.26979 
L 189.422724 11.379603 
L 188.95627 11.490941 
L 188.489816 11.603805 
L 188.023362 11.718193 
L 187.556908 11.834107 
L 187.090454 11.951546 
L 186.624 12.07051 
L 186.157546 12.190999 
L 185.691092 12.313014 
L 185.224638 12.436553 
L 184.758184 12.561618 
L 184.29173 12.688208 
L 183.825276 12.816323 
L 183.358822 12.945964 
L 182.892368 13.077129 
L 182.425914 13.20982 
L 181.95946 13.344036 
L 181.493006 13.479777 
L 181.026552 13.617043 
L 180.560098 13.755834 
L 180.093644 13.896151 
L 179.62719 14.037993 
L 179.160736 14.18136 
L 178.694282 14.326252 
L 178.227828 14.472669 
L 177.761374 14.620612 
L 177.29492 14.77008 
L 176.828466 14.921072 
L 176.362012 15.07359 
L 175.895558 15.227634 
L 175.429104 15.383202 
L 174.96265 15.540296 
L 174.496196 15.698914 
L 174.029742 15.859058 
L 173.563288 16.020728 
L 173.096834 16.183922 
L 172.63038 16.348641 
L 172.163926 16.514886 
L 171.697472 16.682656 
L 171.231018 16.851951 
L 170.764564 17.022771 
L 170.29811 17.195117 
L 169.831656 17.368987 
L 169.365202 17.544383 
L 168.898748 17.721304 
L 168.432294 17.89975 
L 167.96584 18.079721 
L 167.499387 18.261218 
L 167.032933 18.44424 
L 166.566479 18.628786 
L 166.100025 18.814858 
L 165.633571 19.002456 
L 165.167117 19.191578 
L 164.700663 19.382226 
L 164.234209 19.574398 
L 163.767755 19.768096 
L 163.301301 19.963319 
L 162.834847 20.160068 
L 162.368393 20.358341 
L 161.901939 20.55814 
L 161.435485 20.759464 
L 160.969031 20.962313 
L 160.502577 21.166687 
L 160.036123 21.372586 
L 159.569669 21.580011 
L 159.103215 21.788961 
L 158.636761 21.999435 
L 158.170307 22.211436 
L 157.703853 22.424961 
L 157.237399 22.640011 
L 156.770945 22.856587 
L 156.304491 23.074688 
L 155.838037 23.294314 
L 155.371583 23.515465 
L 154.905129 23.738141 
L 154.438675 23.962343 
L 153.972221 24.18807 
L 153.505767 24.415321 
L 153.039313 24.644099 
L 152.572859 24.874401 
L 152.106405 25.106228 
L 151.639951 25.339581 
L 151.173497 25.574459 
L 150.707043 25.810862 
L 150.240589 26.04879 
L 149.774135 26.288243 
L 149.307681 26.529222 
L 148.841227 26.771725 
L 148.374773 27.015754 
L 147.908319 27.261308 
L 147.441865 27.508388 
L 146.975411 27.756992 
L 146.508957 28.007122 
L 146.042503 28.258777 
L 145.576049 28.511956 
L 145.109595 28.766662 
L 144.643141 29.022892 
L 144.176687 29.280647 
L 143.710233 29.539928 
L 143.243779 29.800734 
L 142.777325 30.063065 
L 142.310871 30.326921 
L 141.844417 30.592303 
L 141.377963 30.859209 
L 140.911509 31.127641 
L 140.445055 31.397598 
L 139.978601 31.66908 
L 139.512147 31.942088 
L 139.045693 32.21662 
L 138.579239 32.492678 
L 138.112785 32.770261 
L 137.646331 33.049369 
L 137.179877 33.330002 
L 136.713423 33.61216 
L 136.246969 33.895844 
L 135.780515 34.181053 
L 135.314061 34.467787 
L 134.847607 34.756046 
L 134.381153 35.04583 
L 133.914699 35.33714 
L 133.448245 35.629974 
L 132.981791 35.924334 
L 132.515337 36.220219 
L 132.048883 36.517629 
L 131.582429 36.816565 
L 131.115975 37.117025 
L 130.649521 37.419011 
L 130.183067 37.722522 
L 129.716613 38.027558 
L 129.25016 38.334119 
L 128.783706 38.642206 
L 128.317252 38.951817 
L 127.850798 39.262954 
z
" style="fill:#0000ff;fill-opacity:0.1;stroke:#0000ff;stroke-opacity:0.1;"/>
    <path clip-path="url(#p9449690e46)" d="M 262.189546 12.561618 
L 262.189546 153.038382 
L 262.656 152.911792 
L 263.122454 152.783677 
L 263.588908 152.654036 
L 264.055362 152.522871 
L 264.521816 152.39018 
L 264.98827 152.255964 
L 265.454724 152.120223 
L 265.921178 151.982957 
L 266.387632 151.844166 
L 266.854086 151.703849 
L 267.32054 151.562007 
L 267.786994 151.41864 
L 268.253448 151.273748 
L 268.719902 151.127331 
L 269.186356 150.979388 
L 269.65281 150.82992 
L 270.119264 150.678928 
L 270.585718 150.52641 
L 271.052172 150.372366 
L 271.518626 150.216798 
L 271.98508 150.059704 
L 272.451534 149.901086 
L 272.917988 149.740942 
L 273.384442 149.579272 
L 273.850896 149.416078 
L 274.31735 149.251359 
L 274.783804 149.085114 
L 275.250258 148.917344 
L 275.716712 148.748049 
L 276.183166 148.577229 
L 276.64962 148.404883 
L 277.116074 148.231013 
L 277.582528 148.055617 
L 278.048982 147.878696 
L 278.515436 147.70025 
L 278.98189 147.520279 
L 279.448344 147.338782 
L 279.914798 147.15576 
L 280.381252 146.971214 
L 280.847706 146.785142 
L 281.31416 146.597544 
L 281.780613 146.408422 
L 282.247067 146.217774 
L 282.713521 146.025602 
L 283.179975 145.831904 
L 283.646429 145.636681 
L 284.112883 145.439932 
L 284.579337 145.241659 
L 285.045791 145.04186 
L 285.512245 144.840536 
L 285.978699 144.637687 
L 286.445153 144.433313 
L 286.911607 144.227414 
L 287.378061 144.019989 
L 287.844515 143.811039 
L 288.310969 143.600565 
L 288.777423 143.388564 
L 289.243877 143.175039 
L 289.710331 142.959989 
L 290.176785 142.743413 
L 290.643239 142.525312 
L 291.109693 142.305686 
L 291.576147 142.084535 
L 292.042601 141.861859 
L 292.509055 141.637657 
L 292.975509 141.41193 
L 293.441963 141.184679 
L 293.908417 140.955901 
L 294.374871 140.725599 
L 294.841325 140.493772 
L 295.307779 140.260419 
L 295.774233 140.025541 
L 296.240687 139.789138 
L 296.707141 139.55121 
L 297.173595 139.311757 
L 297.640049 139.070778 
L 298.106503 138.828275 
L 298.572957 138.584246 
L 299.039411 138.338692 
L 299.505865 138.091612 
L 299.972319 137.843008 
L 300.438773 137.592878 
L 300.905227 137.341223 
L 301.371681 137.088044 
L 301.838135 136.833338 
L 302.304589 136.577108 
L 302.771043 136.319353 
L 303.237497 136.060072 
L 303.703951 135.799266 
L 304.170405 135.536935 
L 304.636859 135.273079 
L 305.103313 135.007697 
L 305.569767 134.740791 
L 306.036221 134.472359 
L 306.502675 134.202402 
L 306.969129 133.93092 
L 307.435583 133.657912 
L 307.902037 133.38338 
L 308.368491 133.107322 
L 308.834945 132.829739 
L 309.301399 132.550631 
L 309.767853 132.269998 
L 310.234307 131.98784 
L 310.700761 131.704156 
L 311.167215 131.418947 
L 311.633669 131.132213 
L 312.100123 130.843954 
L 312.566577 130.55417 
L 313.033031 130.26286 
L 313.499485 129.970026 
L 313.965939 129.675666 
L 314.432393 129.379781 
L 314.898847 129.082371 
L 315.365301 128.783435 
L 315.831755 128.482975 
L 316.298209 128.180989 
L 316.764663 127.877478 
L 317.231117 127.572442 
L 317.697571 127.265881 
L 318.164025 126.957794 
L 318.630479 126.648183 
L 319.096933 126.337046 
L 319.563387 126.024384 
L 320.02984 125.710196 
L 320.496294 125.394484 
L 320.962748 125.077247 
L 321.429202 124.758484 
L 321.895656 124.438196 
L 322.36211 124.116383 
L 322.828564 123.793044 
L 323.295018 123.468181 
L 323.761472 123.141792 
L 324.227926 122.813879 
L 324.69438 122.48444 
L 325.160834 122.153475 
L 325.627288 121.820986 
L 326.093742 121.486971 
L 326.560196 121.151432 
L 327.02665 120.814367 
L 327.493104 120.475777 
L 327.959558 120.135661 
L 328.426012 119.794021 
L 328.892466 119.450855 
L 329.35892 119.106165 
L 329.825374 118.759949 
L 330.291828 118.412207 
L 330.758282 118.062941 
L 331.224736 117.71215 
L 331.69119 117.359833 
L 332.157644 117.005991 
L 332.624098 116.650624 
L 333.090552 116.293732 
L 333.557006 115.935314 
L 334.02346 115.575372 
L 334.489914 115.213904 
L 334.956368 114.850911 
L 334.956368 50.749089 
L 334.956368 50.749089 
L 334.489914 50.386096 
L 334.02346 50.024628 
L 333.557006 49.664686 
L 333.090552 49.306268 
L 332.624098 48.949376 
L 332.157644 48.594009 
L 331.69119 48.240167 
L 331.224736 47.88785 
L 330.758282 47.537059 
L 330.291828 47.187793 
L 329.825374 46.840051 
L 329.35892 46.493835 
L 328.892466 46.149145 
L 328.426012 45.805979 
L 327.959558 45.464339 
L 327.493104 45.124223 
L 327.02665 44.785633 
L 326.560196 44.448568 
L 326.093742 44.113029 
L 325.627288 43.779014 
L 325.160834 43.446525 
L 324.69438 43.11556 
L 324.227926 42.786121 
L 323.761472 42.458208 
L 323.295018 42.131819 
L 322.828564 41.806956 
L 322.36211 41.483617 
L 321.895656 41.161804 
L 321.429202 40.841516 
L 320.962748 40.522753 
L 320.496294 40.205516 
L 320.02984 39.889804 
L 319.563387 39.575616 
L 319.096933 39.262954 
L 318.630479 38.951817 
L 318.164025 38.642206 
L 317.697571 38.334119 
L 317.231117 38.027558 
L 316.764663 37.722522 
L 316.298209 37.419011 
L 315.831755 37.117025 
L 315.365301 36.816565 
L 314.898847 36.517629 
L 314.432393 36.220219 
L 313.965939 35.924334 
L 313.499485 35.629974 
L 313.033031 35.33714 
L 312.566577 35.04583 
L 312.100123 34.756046 
L 311.633669 34.467787 
L 311.167215 34.181053 
L 310.700761 33.895844 
L 310.234307 33.61216 
L 309.767853 33.330002 
L 309.301399 33.049369 
L 308.834945 32.770261 
L 308.368491 32.492678 
L 307.902037 32.21662 
L 307.435583 31.942088 
L 306.969129 31.66908 
L 306.502675 31.397598 
L 306.036221 31.127641 
L 305.569767 30.859209 
L 305.103313 30.592303 
L 304.636859 30.326921 
L 304.170405 30.063065 
L 303.703951 29.800734 
L 303.237497 29.539928 
L 302.771043 29.280647 
L 302.304589 29.022892 
L 301.838135 28.766662 
L 301.371681 28.511956 
L 300.905227 28.258777 
L 300.438773 28.007122 
L 299.972319 27.756992 
L 299.505865 27.508388 
L 299.039411 27.261308 
L 298.572957 27.015754 
L 298.106503 26.771725 
L 297.640049 26.529222 
L 297.173595 26.288243 
L 296.707141 26.04879 
L 296.240687 25.810862 
L 295.774233 25.574459 
L 295.307779 25.339581 
L 294.841325 25.106228 
L 294.374871 24.874401 
L 293.908417 24.644099 
L 293.441963 24.415321 
L 292.975509 24.18807 
L 292.509055 23.962343 
L 292.042601 23.738141 
L 291.576147 23.515465 
L 291.109693 23.294314 
L 290.643239 23.074688 
L 290.176785 22.856587 
L 289.710331 22.640011 
L 289.243877 22.424961 
L 288.777423 22.211436 
L 288.310969 21.999435 
L 287.844515 21.788961 
L 287.378061 21.580011 
L 286.911607 21.372586 
L 286.445153 21.166687 
L 285.978699 20.962313 
L 285.512245 20.759464 
L 285.045791 20.55814 
L 284.579337 20.358341 
L 284.112883 20.160068 
L 283.646429 19.963319 
L 283.179975 19.768096 
L 282.713521 19.574398 
L 282.247067 19.382226 
L 281.780613 19.191578 
L 281.31416 19.002456 
L 280.847706 18.814858 
L 280.381252 18.628786 
L 279.914798 18.44424 
L 279.448344 18.261218 
L 278.98189 18.079721 
L 278.515436 17.89975 
L 278.048982 17.721304 
L 277.582528 17.544383 
L 277.116074 17.368987 
L 276.64962 17.195117 
L 276.183166 17.022771 
L 275.716712 16.851951 
L 275.250258 16.682656 
L 274.783804 16.514886 
L 274.31735 16.348641 
L 273.850896 16.183922 
L 273.384442 16.020728 
L 272.917988 15.859058 
L 272.451534 15.698914 
L 271.98508 15.540296 
L 271.518626 15.383202 
L 271.052172 15.227634 
L 270.585718 15.07359 
L 270.119264 14.921072 
L 269.65281 14.77008 
L 269.186356 14.620612 
L 268.719902 14.472669 
L 268.253448 14.326252 
L 267.786994 14.18136 
L 267.32054 14.037993 
L 266.854086 13.896151 
L 266.387632 13.755834 
L 265.921178 13.617043 
L 265.454724 13.479777 
L 264.98827 13.344036 
L 264.521816 13.20982 
L 264.055362 13.077129 
L 263.588908 12.945964 
L 263.122454 12.816323 
L 262.656 12.688208 
L 262.189546 12.561618 
z
" style="fill:#0000ff;fill-opacity:0.1;stroke:#0000ff;stroke-opacity:0.1;"/>
    <path clip-path="url(#p9449690e46)" d="M 335.889276 51.113607 
L 335.889276 114.486393 
L 336.35573 114.120349 
L 336.822184 113.752781 
L 337.288638 113.383687 
L 337.755092 113.013068 
L 338.221546 112.640924 
L 338.688 112.267255 
L 339.154454 111.89206 
L 339.620908 111.515341 
L 340.087362 111.137096 
L 340.553816 110.757326 
L 340.553816 54.842674 
L 340.553816 54.842674 
L 340.087362 54.462904 
L 339.620908 54.084659 
L 339.154454 53.70794 
L 338.688 53.332745 
L 338.221546 52.959076 
L 337.755092 52.586932 
L 337.288638 52.216313 
L 336.822184 51.847219 
L 336.35573 51.479651 
L 335.889276 51.113607 
z
" style="fill:#0000ff;fill-opacity:0.1;stroke:#0000ff;stroke-opacity:0.1;"/>
    <path clip-path="url(#p9449690e46)" d="M 341.486724 55.223969 
L 341.486724 110.376031 
L 341.953178 109.993211 
L 342.419632 109.608865 
L 342.886086 109.222994 
L 343.35254 108.835599 
L 343.818994 108.446678 
L 344.285448 108.056231 
L 344.751902 107.66426 
L 345.218356 107.270763 
L 345.68481 106.875742 
L 346.151264 106.479195 
L 346.617718 106.081122 
L 347.084172 105.681525 
L 347.550626 105.280403 
L 348.01708 104.877755 
L 348.483534 104.473582 
L 348.949988 104.067884 
L 349.416442 103.660661 
L 349.882896 103.251913 
L 350.34935 102.841639 
L 350.815804 102.42984 
L 351.282258 102.016516 
L 351.748712 101.601667 
L 351.748712 63.998333 
L 351.748712 63.998333 
L 351.282258 63.583484 
L 350.815804 63.17016 
L 350.34935 62.758361 
L 349.882896 62.348087 
L 349.416442 61.939339 
L 348.949988 61.532116 
L 348.483534 61.126418 
L 348.01708 60.722245 
L 347.550626 60.319597 
L 347.084172 59.918475 
L 346.617718 59.518878 
L 346.151264 59.120805 
L 345.68481 58.724258 
L 345.218356 58.329237 
L 344.751902 57.93574 
L 344.285448 57.543769 
L 343.818994 57.153322 
L 343.35254 56.764401 
L 342.886086 56.377006 
L 342.419632 55.991135 
L 341.953178 55.606789 
L 341.486724 55.223969 
z
" style="fill:#0000ff;fill-opacity:0.1;stroke:#0000ff;stroke-opacity:0.1;"/>
    <path clip-path="url(#p9449690e46)" d="M 352.68162 64.414707 
L 352.68162 101.185293 
L 353.148074 100.767393 
L 353.614528 100.347969 
L 354.080982 99.927019 
L 354.547436 99.504544 
L 355.01389 99.080544 
L 355.480344 98.655018 
L 355.946798 98.227968 
L 356.413252 97.799392 
L 356.879706 97.369291 
L 357.34616 96.937665 
L 357.812613 96.504514 
L 358.279067 96.069837 
L 358.745521 95.633636 
L 359.211975 95.195909 
L 359.678429 94.756657 
L 360.144883 94.31588 
L 360.611337 93.873577 
L 361.077791 93.42975 
L 361.544245 92.984397 
L 362.010699 92.537519 
L 362.477153 92.089116 
L 362.943607 91.639188 
L 363.410061 91.187734 
L 363.876515 90.734756 
L 364.342969 90.280252 
L 364.809423 89.824223 
L 365.275877 89.366669 
L 365.742331 88.907589 
L 366.208785 88.446985 
L 366.675239 87.984855 
L 367.141693 87.5212 
L 367.608147 87.05602 
L 368.074601 86.589315 
L 368.541055 86.121084 
L 368.541055 79.478916 
L 368.541055 79.478916 
L 368.074601 79.010685 
L 367.608147 78.54398 
L 367.141693 78.0788 
L 366.675239 77.615145 
L 366.208785 77.153015 
L 365.742331 76.692411 
L 365.275877 76.233331 
L 364.809423 75.775777 
L 364.342969 75.319748 
L 363.876515 74.865244 
L 363.410061 74.412266 
L 362.943607 73.960812 
L 362.477153 73.510884 
L 362.010699 73.062481 
L 361.544245 72.615603 
L 361.077791 72.17025 
L 360.611337 71.726423 
L 360.144883 71.28412 
L 359.678429 70.843343 
L 359.211975 70.404091 
L 358.745521 69.966364 
L 358.279067 69.530163 
L 357.812613 69.095486 
L 357.34616 68.662335 
L 356.879706 68.230709 
L 356.413252 67.800608 
L 355.946798 67.372032 
L 355.480344 66.944982 
L 355.01389 66.519456 
L 354.547436 66.095456 
L 354.080982 65.672981 
L 353.614528 65.252031 
L 353.148074 64.832607 
L 352.68162 64.414707 
z
" style="fill:#0000ff;fill-opacity:0.1;stroke:#0000ff;stroke-opacity:0.1;"/>
    <path clip-path="url(#p9449690e46)" d="M 369.940417 79.948671 
L 369.940417 85.651329 
L 369.940417 79.948671 
L 369.940417 79.948671 
z
" style="fill:#0000ff;fill-opacity:0.1;stroke:#0000ff;stroke-opacity:0.1;"/>
    <path clip-path="url(#p9449690e46)" d="M 370.873325 80.419952 
L 370.873325 85.180048 
L 371.339779 84.707242 
L 371.806233 84.232911 
L 372.272687 83.757054 
L 372.739141 83.279673 
L 372.739141 82.320327 
L 372.739141 82.320327 
L 372.272687 81.842946 
L 371.806233 81.367089 
L 371.339779 80.892758 
L 370.873325 80.419952 
z
" style="fill:#0000ff;fill-opacity:0.1;stroke:#0000ff;stroke-opacity:0.1;"/>
   </g>
   <g id="matplotlib.axis_1">
    <g id="xtick_1">
     <g id="line2d_1">
      <defs>
       <path d="M 0 0 
L 0 3.5 
" id="m1c1cb3e5c1" style="stroke:#000000;stroke-width:0.8;"/>
      </defs>
      <g>
       <use style="stroke:#000000;stroke-width:0.8;" x="76.307632" xlink:href="#m1c1cb3e5c1" y="162"/>
      </g>
     </g>
     <g id="text_1">
      <!-- 1960 -->
      <g transform="translate(63.582632 176.598438)scale(0.1 -0.1)">
       <defs>
        <path d="M 794 531 
L 1825 531 
L 1825 4091 
L 703 3866 
L 703 4441 
L 1819 4666 
L 2450 4666 
L 2450 531 
L 3481 531 
L 3481 0 
L 794 0 
L 794 531 
z
" id="DejaVuSans-31" transform="scale(0.015625)"/>
        <path d="M 703 97 
L 703 672 
Q 941 559 1184 500 
Q 1428 441 1663 441 
Q 2288 441 2617 861 
Q 2947 1281 2994 2138 
Q 2813 1869 2534 1725 
Q 2256 1581 1919 1581 
Q 1219 1581 811 2004 
Q 403 2428 403 3163 
Q 403 3881 828 4315 
Q 1253 4750 1959 4750 
Q 2769 4750 3195 4129 
Q 3622 3509 3622 2328 
Q 3622 1225 3098 567 
Q 2575 -91 1691 -91 
Q 1453 -91 1209 -44 
Q 966 3 703 97 
z
M 1959 2075 
Q 2384 2075 2632 2365 
Q 2881 2656 2881 3163 
Q 2881 3666 2632 3958 
Q 2384 4250 1959 4250 
Q 1534 4250 1286 3958 
Q 1038 3666 1038 3163 
Q 1038 2656 1286 2365 
Q 1534 2075 1959 2075 
z
" id="DejaVuSans-39" transform="scale(0.015625)"/>
        <path d="M 2113 2584 
Q 1688 2584 1439 2293 
Q 1191 2003 1191 1497 
Q 1191 994 1439 701 
Q 1688 409 2113 409 
Q 2538 409 2786 701 
Q 3034 994 3034 1497 
Q 3034 2003 2786 2293 
Q 2538 2584 2113 2584 
z
M 3366 4563 
L 3366 3988 
Q 3128 4100 2886 4159 
Q 2644 4219 2406 4219 
Q 1781 4219 1451 3797 
Q 1122 3375 1075 2522 
Q 1259 2794 1537 2939 
Q 1816 3084 2150 3084 
Q 2853 3084 3261 2657 
Q 3669 2231 3669 1497 
Q 3669 778 3244 343 
Q 2819 -91 2113 -91 
Q 1303 -91 875 529 
Q 447 1150 447 2328 
Q 447 3434 972 4092 
Q 1497 4750 2381 4750 
Q 2619 4750 2861 4703 
Q 3103 4656 3366 4563 
z
" id="DejaVuSans-36" transform="scale(0.015625)"/>
        <path d="M 2034 4250 
Q 1547 4250 1301 3770 
Q 1056 3291 1056 2328 
Q 1056 1369 1301 889 
Q 1547 409 2034 409 
Q 2525 409 2770 889 
Q 3016 1369 3016 2328 
Q 3016 3291 2770 3770 
Q 2525 4250 2034 4250 
z
M 2034 4750 
Q 2819 4750 3233 4129 
Q 3647 3509 3647 2328 
Q 3647 1150 3233 529 
Q 2819 -91 2034 -91 
Q 1250 -91 836 529 
Q 422 1150 422 2328 
Q 422 3509 836 4129 
Q 1250 4750 2034 4750 
z
" id="DejaVuSans-30" transform="scale(0.015625)"/>
       </defs>
       <use xlink:href="#DejaVuSans-31"/>
       <use x="63.623047" xlink:href="#DejaVuSans-39"/>
       <use x="127.246094" xlink:href="#DejaVuSans-36"/>
       <use x="190.869141" xlink:href="#DejaVuSans-30"/>
      </g>
     </g>
    </g>
    <g id="xtick_2">
     <g id="line2d_2">
      <g>
       <use style="stroke:#000000;stroke-width:0.8;" x="132.28211" xlink:href="#m1c1cb3e5c1" y="162"/>
      </g>
     </g>
     <g id="text_2">
      <!-- 1970 -->
      <g transform="translate(119.55711 176.598438)scale(0.1 -0.1)">
       <defs>
        <path d="M 525 4666 
L 3525 4666 
L 3525 4397 
L 1831 0 
L 1172 0 
L 2766 4134 
L 525 4134 
L 525 4666 
z
" id="DejaVuSans-37" transform="scale(0.015625)"/>
       </defs>
       <use xlink:href="#DejaVuSans-31"/>
       <use x="63.623047" xlink:href="#DejaVuSans-39"/>
       <use x="127.246094" xlink:href="#DejaVuSans-37"/>
       <use x="190.869141" xlink:href="#DejaVuSans-30"/>
      </g>
     </g>
    </g>
    <g id="xtick_3">
     <g id="line2d_3">
      <g>
       <use style="stroke:#000000;stroke-width:0.8;" x="188.256589" xlink:href="#m1c1cb3e5c1" y="162"/>
      </g>
     </g>
     <g id="text_3">
      <!-- 1980 -->
      <g transform="translate(175.531589 176.598438)scale(0.1 -0.1)">
       <defs>
        <path d="M 2034 2216 
Q 1584 2216 1326 1975 
Q 1069 1734 1069 1313 
Q 1069 891 1326 650 
Q 1584 409 2034 409 
Q 2484 409 2743 651 
Q 3003 894 3003 1313 
Q 3003 1734 2745 1975 
Q 2488 2216 2034 2216 
z
M 1403 2484 
Q 997 2584 770 2862 
Q 544 3141 544 3541 
Q 544 4100 942 4425 
Q 1341 4750 2034 4750 
Q 2731 4750 3128 4425 
Q 3525 4100 3525 3541 
Q 3525 3141 3298 2862 
Q 3072 2584 2669 2484 
Q 3125 2378 3379 2068 
Q 3634 1759 3634 1313 
Q 3634 634 3220 271 
Q 2806 -91 2034 -91 
Q 1263 -91 848 271 
Q 434 634 434 1313 
Q 434 1759 690 2068 
Q 947 2378 1403 2484 
z
M 1172 3481 
Q 1172 3119 1398 2916 
Q 1625 2713 2034 2713 
Q 2441 2713 2670 2916 
Q 2900 3119 2900 3481 
Q 2900 3844 2670 4047 
Q 2441 4250 2034 4250 
Q 1625 4250 1398 4047 
Q 1172 3844 1172 3481 
z
" id="DejaVuSans-38" transform="scale(0.015625)"/>
       </defs>
       <use xlink:href="#DejaVuSans-31"/>
       <use x="63.623047" xlink:href="#DejaVuSans-39"/>
       <use x="127.246094" xlink:href="#DejaVuSans-38"/>
       <use x="190.869141" xlink:href="#DejaVuSans-30"/>
      </g>
     </g>
    </g>
    <g id="xtick_4">
     <g id="line2d_4">
      <g>
       <use style="stroke:#000000;stroke-width:0.8;" x="244.231067" xlink:href="#m1c1cb3e5c1" y="162"/>
      </g>
     </g>
     <g id="text_4">
      <!-- 1990 -->
      <g transform="translate(231.506067 176.598438)scale(0.1 -0.1)">
       <use xlink:href="#DejaVuSans-31"/>
       <use x="63.623047" xlink:href="#DejaVuSans-39"/>
       <use x="127.246094" xlink:href="#DejaVuSans-39"/>
       <use x="190.869141" xlink:href="#DejaVuSans-30"/>
      </g>
     </g>
    </g>
    <g id="xtick_5">
     <g id="line2d_5">
      <g>
       <use style="stroke:#000000;stroke-width:0.8;" x="300.205546" xlink:href="#m1c1cb3e5c1" y="162"/>
      </g>
     </g>
     <g id="text_5">
      <!-- 2000 -->
      <g transform="translate(287.480546 176.598438)scale(0.1 -0.1)">
       <defs>
        <path d="M 1228 531 
L 3431 531 
L 3431 0 
L 469 0 
L 469 531 
Q 828 903 1448 1529 
Q 2069 2156 2228 2338 
Q 2531 2678 2651 2914 
Q 2772 3150 2772 3378 
Q 2772 3750 2511 3984 
Q 2250 4219 1831 4219 
Q 1534 4219 1204 4116 
Q 875 4013 500 3803 
L 500 4441 
Q 881 4594 1212 4672 
Q 1544 4750 1819 4750 
Q 2544 4750 2975 4387 
Q 3406 4025 3406 3419 
Q 3406 3131 3298 2873 
Q 3191 2616 2906 2266 
Q 2828 2175 2409 1742 
Q 1991 1309 1228 531 
z
" id="DejaVuSans-32" transform="scale(0.015625)"/>
       </defs>
       <use xlink:href="#DejaVuSans-32"/>
       <use x="63.623047" xlink:href="#DejaVuSans-30"/>
       <use x="127.246094" xlink:href="#DejaVuSans-30"/>
       <use x="190.869141" xlink:href="#DejaVuSans-30"/>
      </g>
     </g>
    </g>
    <g id="xtick_6">
     <g id="line2d_6">
      <g>
       <use style="stroke:#000000;stroke-width:0.8;" x="356.180025" xlink:href="#m1c1cb3e5c1" y="162"/>
      </g>
     </g>
     <g id="text_6">
      <!-- 2010 -->
      <g transform="translate(343.455025 176.598438)scale(0.1 -0.1)">
       <use xlink:href="#DejaVuSans-32"/>
       <use x="63.623047" xlink:href="#DejaVuSans-30"/>
       <use x="127.246094" xlink:href="#DejaVuSans-31"/>
       <use x="190.869141" xlink:href="#DejaVuSans-30"/>
      </g>
     </g>
    </g>
    <g id="xtick_7">
     <g id="line2d_7">
      <g>
       <use style="stroke:#000000;stroke-width:0.8;" x="412.154503" xlink:href="#m1c1cb3e5c1" y="162"/>
      </g>
     </g>
     <g id="text_7">
      <!-- 2020 -->
      <g transform="translate(399.429503 176.598438)scale(0.1 -0.1)">
       <use xlink:href="#DejaVuSans-32"/>
       <use x="63.623047" xlink:href="#DejaVuSans-30"/>
       <use x="127.246094" xlink:href="#DejaVuSans-32"/>
       <use x="190.869141" xlink:href="#DejaVuSans-30"/>
      </g>
     </g>
    </g>
   </g>
   <g id="matplotlib.axis_2">
    <g id="ytick_1">
     <g id="line2d_8">
      <defs>
       <path d="M 0 0 
L -3.5 0 
" id="m942a34829f" style="stroke:#000000;stroke-width:0.8;"/>
      </defs>
      <g>
       <use style="stroke:#000000;stroke-width:0.8;" x="34.56" xlink:href="#m942a34829f" y="154.318409"/>
      </g>
     </g>
     <g id="text_8">
      <!-- −75 -->
      <g transform="translate(6.455313 158.117628)scale(0.1 -0.1)">
       <defs>
        <path d="M 678 2272 
L 4684 2272 
L 4684 1741 
L 678 1741 
L 678 2272 
z
" id="DejaVuSans-2212" transform="scale(0.015625)"/>
        <path d="M 691 4666 
L 3169 4666 
L 3169 4134 
L 1269 4134 
L 1269 2991 
Q 1406 3038 1543 3061 
Q 1681 3084 1819 3084 
Q 2600 3084 3056 2656 
Q 3513 2228 3513 1497 
Q 3513 744 3044 326 
Q 2575 -91 1722 -91 
Q 1428 -91 1123 -41 
Q 819 9 494 109 
L 494 744 
Q 775 591 1075 516 
Q 1375 441 1709 441 
Q 2250 441 2565 725 
Q 2881 1009 2881 1497 
Q 2881 1984 2565 2268 
Q 2250 2553 1709 2553 
Q 1456 2553 1204 2497 
Q 953 2441 691 2322 
L 691 4666 
z
" id="DejaVuSans-35" transform="scale(0.015625)"/>
       </defs>
       <use xlink:href="#DejaVuSans-2212"/>
       <use x="83.789062" xlink:href="#DejaVuSans-37"/>
       <use x="147.412109" xlink:href="#DejaVuSans-35"/>
      </g>
     </g>
    </g>
    <g id="ytick_2">
     <g id="line2d_9">
      <g>
       <use style="stroke:#000000;stroke-width:0.8;" x="34.56" xlink:href="#m942a34829f" y="130.478939"/>
      </g>
     </g>
     <g id="text_9">
      <!-- −50 -->
      <g transform="translate(6.455313 134.278158)scale(0.1 -0.1)">
       <use xlink:href="#DejaVuSans-2212"/>
       <use x="83.789062" xlink:href="#DejaVuSans-35"/>
       <use x="147.412109" xlink:href="#DejaVuSans-30"/>
      </g>
     </g>
    </g>
    <g id="ytick_3">
     <g id="line2d_10">
      <g>
       <use style="stroke:#000000;stroke-width:0.8;" x="34.56" xlink:href="#m942a34829f" y="106.63947"/>
      </g>
     </g>
     <g id="text_10">
      <!-- −25 -->
      <g transform="translate(6.455313 110.438688)scale(0.1 -0.1)">
       <use xlink:href="#DejaVuSans-2212"/>
       <use x="83.789062" xlink:href="#DejaVuSans-32"/>
       <use x="147.412109" xlink:href="#DejaVuSans-35"/>
      </g>
     </g>
    </g>
    <g id="ytick_4">
     <g id="line2d_11">
      <g>
       <use style="stroke:#000000;stroke-width:0.8;" x="34.56" xlink:href="#m942a34829f" y="82.8"/>
      </g>
     </g>
     <g id="text_11">
      <!-- 0 -->
      <g transform="translate(21.1975 86.599219)scale(0.1 -0.1)">
       <use xlink:href="#DejaVuSans-30"/>
      </g>
     </g>
    </g>
    <g id="ytick_5">
     <g id="line2d_12">
      <g>
       <use style="stroke:#000000;stroke-width:0.8;" x="34.56" xlink:href="#m942a34829f" y="58.96053"/>
      </g>
     </g>
     <g id="text_12">
      <!-- 25 -->
      <g transform="translate(14.835 62.759749)scale(0.1 -0.1)">
       <use xlink:href="#DejaVuSans-32"/>
       <use x="63.623047" xlink:href="#DejaVuSans-35"/>
      </g>
     </g>
    </g>
    <g id="ytick_6">
     <g id="line2d_13">
      <g>
       <use style="stroke:#000000;stroke-width:0.8;" x="34.56" xlink:href="#m942a34829f" y="35.121061"/>
      </g>
     </g>
     <g id="text_13">
      <!-- 50 -->
      <g transform="translate(14.835 38.92028)scale(0.1 -0.1)">
       <use xlink:href="#DejaVuSans-35"/>
       <use x="63.623047" xlink:href="#DejaVuSans-30"/>
      </g>
     </g>
    </g>
    <g id="ytick_7">
     <g id="line2d_14">
      <g>
       <use style="stroke:#000000;stroke-width:0.8;" x="34.56" xlink:href="#m942a34829f" y="11.281591"/>
      </g>
     </g>
     <g id="text_14">
      <!-- 75 -->
      <g transform="translate(14.835 15.08081)scale(0.1 -0.1)">
       <use xlink:href="#DejaVuSans-37"/>
       <use x="63.623047" xlink:href="#DejaVuSans-35"/>
      </g>
     </g>
    </g>
   </g>
   <g id="line2d_15">
    <path clip-path="url(#p9449690e46)" d="M 76.540859 82.874973 
L 77.007313 83.119097 
L 77.473767 83.67042 
L 77.940221 83.836706 
L 78.406675 83.837419 
L 79.806037 83.457858 
L 80.272491 83.346767 
L 80.738945 83.428255 
L 81.205399 84.040925 
L 82.138307 84.284177 
L 82.604761 84.325642 
L 83.071215 83.724027 
L 83.537669 84.004142 
L 84.004123 83.834511 
L 84.470577 83.498235 
L 84.937031 83.609242 
L 85.403485 83.43151 
L 86.336393 83.996903 
L 86.802847 83.658923 
L 87.269301 84.004934 
L 87.735755 83.720089 
L 88.202209 83.604791 
L 88.668663 83.326249 
L 89.135117 83.271662 
L 90.068025 82.879582 
L 90.534479 83.101498 
L 91.000933 82.937854 
L 91.93384 82.107244 
L 93.333202 81.992902 
L 93.799656 82.349019 
L 94.26611 82.507618 
L 94.732564 82.45832 
L 95.199018 82.205979 
L 95.665472 82.15118 
L 96.131926 82.329888 
L 96.59838 82.277157 
L 97.064834 81.794738 
L 97.531288 81.804375 
L 97.997742 82.396267 
L 99.397104 82.178304 
L 99.863558 82.660888 
L 100.796466 82.482217 
L 101.729374 82.381199 
L 102.195828 81.934083 
L 102.662282 82.059592 
L 103.128736 81.547107 
L 103.59519 81.38462 
L 104.528098 81.407078 
L 104.994552 80.981884 
L 105.461006 81.000437 
L 106.860368 80.689431 
L 107.326822 80.649797 
L 107.793276 80.268731 
L 108.25973 80.059361 
L 108.726184 80.081702 
L 109.192638 80.227053 
L 110.592 80.108645 
L 111.524908 79.405882 
L 111.991362 79.122199 
L 112.457816 79.300709 
L 113.390724 79.024608 
L 113.857178 79.119913 
L 114.323632 79.005682 
L 115.25654 78.460492 
L 117.122356 77.937233 
L 117.58881 77.898769 
L 118.055264 77.476461 
L 119.92108 77.662573 
L 120.853988 77.161282 
L 121.320442 77.141797 
L 121.786896 77.271856 
L 122.25335 76.848564 
L 122.719804 77.129836 
L 123.186258 76.801669 
L 123.652712 76.670625 
L 124.58562 75.888043 
L 125.052074 75.896245 
L 125.984982 76.217108 
L 126.91789 75.917662 
M 127.850798 75.849619 
L 128.317252 75.751853 
L 128.783706 75.869584 
L 130.649521 75.303831 
L 131.115975 75.374859 
L 131.582429 75.777748 
L 132.048883 75.661879 
L 132.515337 75.84866 
L 132.981791 75.723135 
L 134.381153 74.855388 
L 135.314061 74.612218 
L 136.246969 74.384202 
L 136.713423 74.016093 
L 137.179877 74.311413 
L 138.579239 74.107596 
L 139.045693 73.850693 
L 139.512147 74.222707 
L 141.377963 74.291106 
L 141.844417 73.70216 
L 142.310871 73.55175 
L 142.777325 72.908857 
L 143.243779 72.615674 
L 143.710233 72.555217 
L 144.176687 73.128596 
L 144.643141 73.514608 
L 145.109595 73.54077 
L 145.576049 73.897944 
L 146.042503 74.064601 
L 147.908319 73.421504 
L 148.374773 73.069577 
L 148.841227 73.435004 
L 149.307681 73.495397 
L 150.240589 72.966173 
L 150.707043 72.906099 
L 151.173497 73.082624 
L 151.639951 72.557739 
L 152.106405 72.365057 
L 152.572859 72.37487 
L 153.039313 72.23165 
L 153.505767 71.800379 
L 154.438675 71.866597 
L 154.905129 72.218562 
L 155.371583 72.186962 
L 156.304491 72.571679 
L 156.770945 72.519623 
L 158.170307 72.904517 
L 158.636761 72.974102 
L 159.103215 72.565116 
L 160.502577 72.822001 
L 161.435485 73.44575 
L 161.901939 73.280478 
L 162.368393 73.292139 
L 162.834847 73.040526 
L 163.301301 73.020918 
L 163.767755 73.329469 
L 164.234209 73.409228 
L 164.700663 73.273709 
L 165.167117 73.300151 
L 165.633571 72.660092 
L 166.100025 72.415279 
L 166.566479 72.562353 
L 167.032933 72.972914 
L 167.499387 73.073763 
L 168.432294 72.582675 
L 169.365202 72.83837 
L 169.831656 73.108608 
L 170.29811 73.625628 
L 170.764564 73.944694 
L 171.231018 74.014757 
L 171.697472 73.915075 
L 173.096834 74.250703 
L 173.563288 74.177893 
L 174.96265 73.553225 
L 175.429104 73.579148 
L 176.362012 74.140224 
L 177.29492 74.394138 
L 177.761374 74.628574 
L 178.227828 74.467878 
L 178.694282 74.656813 
L 179.160736 74.033951 
L 179.62719 74.216285 
L 180.093644 73.657036 
L 181.026552 73.397518 
L 181.493006 72.991636 
L 181.95946 73.274711 
L 182.425914 73.769031 
L 183.358822 74.247483 
L 184.29173 74.448153 
L 184.758184 73.995294 
L 186.157546 73.570574 
L 186.624 73.082905 
L 187.556908 73.001639 
L 188.023362 73.232839 
L 188.489816 73.138901 
L 188.95627 73.210333 
L 189.422724 73.566979 
L 191.28854 73.390419 
L 191.754994 73.183654 
L 192.221448 73.362234 
L 193.154356 73.066407 
L 193.62081 72.680679 
L 194.087264 72.523925 
L 194.553718 72.829989 
L 195.486626 72.639915 
L 196.419534 72.687725 
L 197.352442 72.260392 
L 197.818896 72.688838 
L 198.28535 72.774576 
L 198.751804 72.536815 
L 199.218258 72.867617 
L 199.684712 73.058591 
L 200.151166 72.979598 
L 201.084074 73.228206 
L 201.550528 73.141286 
L 202.016982 73.461572 
L 202.94989 73.256267 
L 203.416344 73.713693 
L 204.349252 74.031478 
L 204.815706 73.714995 
L 205.28216 73.581553 
L 205.748613 73.743523 
L 206.215067 73.389006 
L 206.681521 73.48747 
L 207.614429 73.319148 
L 208.080883 73.163832 
L 209.480245 73.179486 
L 210.413153 73.534148 
L 211.812515 73.698201 
L 212.278969 73.095282 
L 212.745423 73.141176 
L 213.211877 72.969686 
L 213.678331 72.950116 
L 214.144785 72.782635 
L 214.611239 72.88352 
L 215.077693 72.775628 
L 215.544147 73.380942 
L 216.010601 73.783888 
L 216.477055 72.993892 
L 216.943509 73.378979 
L 218.342871 73.264248 
L 219.275779 73.347869 
L 219.742233 73.262326 
L 220.208687 72.945707 
L 220.675141 73.05777 
L 221.141595 72.665811 
L 221.608049 72.86674 
L 222.074503 73.376871 
L 223.940319 73.483375 
L 224.406773 73.519105 
L 224.873227 73.338273 
L 225.339681 73.391344 
L 225.806135 72.627938 
L 226.272589 72.782259 
L 226.739043 72.810494 
L 227.205497 73.04053 
L 228.138405 72.783356 
L 228.604859 72.981895 
L 229.071313 72.839172 
L 229.537767 72.525981 
L 230.004221 72.428334 
L 230.470675 72.639843 
L 230.937129 72.309881 
L 232.336491 72.9912 
L 232.802945 73.067993 
L 233.269399 73.453591 
L 233.735853 73.440814 
L 234.202307 73.277483 
L 235.135215 73.42585 
L 235.601669 73.39886 
L 236.068123 73.583247 
L 237.933939 73.569006 
L 238.400393 73.227186 
L 238.866847 73.215757 
L 240.732663 73.693262 
L 241.199117 73.98426 
L 241.665571 73.984082 
L 242.598479 74.479354 
L 243.531387 74.411051 
L 243.99784 74.754375 
L 244.930748 75.202202 
L 245.863656 74.747128 
L 246.33011 75.246677 
L 246.796564 75.532619 
L 247.729472 75.465997 
L 248.195926 75.356137 
L 248.66238 75.733415 
L 249.128834 75.917435 
L 249.595288 75.295127 
L 250.061742 75.635023 
L 250.99465 75.720354 
L 251.461104 75.890834 
L 252.860466 75.765836 
L 253.793374 76.666044 
L 254.259828 76.693774 
L 254.726282 77.043593 
L 255.192736 76.889717 
L 255.65919 76.904617 
L 256.125644 76.680422 
L 257.058552 76.733865 
L 257.525006 76.775119 
L 257.99146 77.117274 
L 258.457914 77.270157 
L 258.924368 77.707421 
L 259.390822 77.813255 
L 259.857276 77.74412 
L 261.256638 78.474148 
M 262.189546 78.487695 
L 262.656 78.310315 
L 263.122454 78.374543 
L 263.588908 78.113874 
L 264.521816 78.144652 
L 264.98827 78.516103 
L 265.921178 78.579263 
L 266.387632 79.068421 
L 266.854086 79.158643 
L 267.32054 79.662871 
L 267.786994 79.653212 
L 268.253448 79.471324 
L 268.719902 79.760098 
L 269.186356 79.66231 
L 269.65281 79.89562 
L 270.119264 80.353746 
L 270.585718 80.498347 
L 271.052172 80.816348 
L 271.518626 80.888785 
L 271.98508 81.543322 
L 273.850896 81.145065 
L 274.31735 81.347062 
L 275.250258 81.217283 
L 275.716712 81.736335 
L 276.183166 81.867308 
L 277.116074 82.698239 
L 277.582528 83.360977 
L 278.515436 83.406676 
L 278.98189 83.817532 
L 279.914798 83.958647 
L 280.381252 83.870753 
L 281.780613 84.248391 
L 282.247067 84.492914 
L 282.713521 84.353227 
L 283.179975 84.514465 
L 284.112883 84.461467 
L 284.579337 84.429146 
L 285.045791 84.112182 
L 285.512245 84.274444 
L 285.978699 84.656808 
L 286.445153 84.583224 
L 286.911607 84.396151 
L 287.378061 84.459409 
L 288.777423 84.160381 
L 289.243877 84.545062 
L 290.176785 84.085123 
L 291.576147 84.549972 
L 292.042601 84.832257 
L 292.509055 84.677442 
L 292.975509 84.903387 
L 294.374871 85.164132 
L 294.841325 85.465025 
L 295.307779 85.0728 
L 296.240687 84.75339 
L 296.707141 84.812724 
L 297.640049 84.529475 
L 298.106503 84.574024 
L 298.572957 84.802053 
L 299.505865 84.269083 
L 300.438773 83.073188 
L 300.905227 83.065261 
L 301.838135 82.778309 
L 303.703951 82.934567 
L 304.636859 83.341723 
L 306.036221 84.266404 
L 306.502675 83.959448 
L 306.969129 83.816046 
L 307.435583 84.121162 
L 308.368491 83.71145 
L 309.301399 83.643514 
L 309.767853 83.283906 
L 310.234307 83.367593 
L 310.700761 82.776305 
L 311.167215 82.742343 
L 312.100123 83.170495 
L 312.566577 83.076849 
L 313.033031 83.237665 
L 313.499485 83.139542 
L 313.965939 83.233728 
L 314.898847 83.094473 
L 315.365301 83.206891 
L 317.231117 82.837943 
L 317.697571 82.887161 
L 318.630479 82.749044 
L 319.096933 82.863378 
L 319.563387 83.330299 
L 320.496294 83.689248 
L 321.429202 83.063398 
L 322.36211 83.093799 
L 322.828564 83.28726 
L 323.295018 83.269126 
L 323.761472 83.079909 
L 325.160834 82.948472 
L 325.627288 82.767683 
L 326.093742 83.050817 
L 326.560196 82.804012 
L 327.02665 82.840938 
L 327.493104 82.622532 
L 327.959558 82.180032 
L 330.758282 81.730252 
L 331.224736 81.914477 
L 332.157644 81.811592 
L 332.624098 82.041011 
L 333.557006 80.938609 
L 334.02346 80.838292 
L 334.489914 80.597499 
L 334.956368 80.925418 
M 335.889276 81.164646 
L 336.822184 81.868728 
L 337.288638 81.985372 
L 337.755092 82.448326 
L 338.221546 82.559168 
L 339.620908 82.440536 
L 340.087362 82.240444 
L 340.553816 82.256473 
M 341.486724 82.257889 
L 342.419632 82.721505 
L 343.35254 82.000316 
L 343.818994 81.724444 
L 344.285448 81.113312 
L 345.218356 81.098647 
L 346.151264 81.486415 
L 347.084172 82.202487 
L 347.550626 82.229452 
L 348.01708 82.387701 
L 348.483534 82.666033 
L 349.416442 82.391177 
L 349.882896 81.904732 
L 350.34935 81.600436 
L 350.815804 81.091809 
L 351.282258 80.777226 
L 351.748712 80.696271 
M 352.68162 81.168986 
L 353.148074 81.269532 
L 354.080982 81.833121 
L 354.547436 81.460034 
L 355.01389 81.389178 
L 355.480344 81.477958 
L 356.413252 81.059142 
L 358.279067 81.122766 
L 358.745521 81.226672 
L 359.211975 81.763096 
L 360.144883 81.643863 
L 362.010699 80.544925 
L 362.477153 80.706234 
L 362.943607 80.749566 
L 363.410061 80.908203 
L 363.876515 81.387111 
L 364.342969 81.670215 
L 364.809423 81.807972 
L 365.275877 81.77234 
L 365.742331 82.243176 
L 366.675239 82.720503 
L 367.608147 82.597734 
L 368.074601 81.772887 
L 368.541055 81.922311 
M 370.873325 82.600158 
L 371.339779 82.650921 
L 371.806233 83.010031 
L 372.739141 82.8 
L 372.739141 82.8 
" style="fill:none;stroke:#1f77b4;stroke-linecap:square;stroke-width:1.5;"/>
   </g>
   <g id="line2d_16">
    <path clip-path="url(#p9449690e46)" d="M 34.56 82.8 
L 414.72 82.8 
" style="fill:none;stroke:#000000;stroke-dasharray:1.5,2.475;stroke-dashoffset:0;stroke-width:1.5;"/>
   </g>
   <g id="patch_3">
    <path d="M 34.56 162 
L 34.56 3.6 
" style="fill:none;stroke:#000000;stroke-linecap:square;stroke-linejoin:miter;stroke-width:0.8;"/>
   </g>
   <g id="patch_4">
    <path d="M 414.72 162 
L 414.72 3.6 
" style="fill:none;stroke:#000000;stroke-linecap:square;stroke-linejoin:miter;stroke-width:0.8;"/>
   </g>
   <g id="patch_5">
    <path d="M 34.56 162 
L 414.72 162 
" style="fill:none;stroke:#000000;stroke-linecap:square;stroke-linejoin:miter;stroke-width:0.8;"/>
   </g>
   <g id="patch_6">
    <path d="M 34.56 3.6 
L 414.72 3.6 
" style="fill:none;stroke:#000000;stroke-linecap:square;stroke-linejoin:miter;stroke-width:0.8;"/>
   </g>
  </g>
 </g>
 <defs>
  <clipPath id="p9449690e46">
   <rect height="158.4" width="380.16" x="34.56" y="3.6"/>
  </clipPath>
 </defs>
</svg>
