<?xml version="1.0" encoding="utf-8" standalone="no"?>
<!DOCTYPE svg PUBLIC "-//W3C//DTD SVG 1.1//EN"
  "http://www.w3.org/Graphics/SVG/1.1/DTD/svg11.dtd">
<svg height="180pt" version="1.1" viewBox="0 0 432 180" width="432pt" xmlns="http://www.w3.org/2000/svg" xmlns:xlink="http://www.w3.org/1999/xlink">
 <metadata>
  <rdf:RDF xmlns:cc="http://creativecommons.org/ns#" xmlns:dc="http://purl.org/dc/elements/1.1/" xmlns:rdf="http://www.w3.org/1999/02/22-rdf-syntax-ns#">
   <cc:Work>
    <dc:type rdf:resource="http://purl.org/dc/dcmitype/StillImage"/>
    <dc:date>2021-08-12T10:41:47.140301</dc:date>
    <dc:format>image/svg+xml</dc:format>
    <dc:creator>
     <cc:Agent>
      <dc:title>Matplotlib v3.4.2, https://matplotlib.org/</dc:title>
     </cc:Agent>
    </dc:creator>
   </cc:Work>
  </rdf:RDF>
 </metadata>
 <defs>
  <style type="text/css">*{stroke-linecap:butt;stroke-linejoin:round;}</style>
 </defs>
 <g id="figure_1">
  <g id="patch_1">
   <path d="M 0 180 
L 432 180 
L 432 0 
L 0 0 
z
" style="fill:#ffffff;"/>
  </g>
  <g id="axes_1">
   <g id="patch_2">
    <path d="M 34.56 162 
L 414.72 162 
L 414.72 3.6 
L 34.56 3.6 
z
" style="fill:#ffffff;"/>
   </g>
   <g id="PolyCollection_1">
    <defs>
     <path d="M 96.881311 -98.013246 
L 96.881311 -96.386754 
L 97.57377 -95.580102 
L 98.26623 -94.777834 
L 98.958689 -93.979949 
L 99.651148 -93.186449 
L 100.343607 -92.397333 
L 101.036066 -91.612601 
L 101.728525 -90.832252 
L 102.420984 -90.056288 
L 103.113443 -89.284708 
L 103.805902 -88.517511 
L 104.498361 -87.754699 
L 105.19082 -86.996271 
L 105.883279 -86.242226 
L 106.575738 -85.492566 
L 107.268197 -84.747289 
L 107.960656 -84.006397 
L 108.653115 -83.269888 
L 109.345574 -82.537764 
L 110.038033 -81.810023 
L 110.730492 -81.086667 
L 111.422951 -80.367694 
L 112.11541 -79.653106 
L 112.807869 -78.942901 
L 113.500328 -78.23708 
L 114.192787 -77.535644 
L 114.885246 -76.838591 
L 115.577705 -76.145922 
L 116.270164 -75.457637 
L 116.962623 -74.773737 
L 117.655082 -74.09422 
L 118.347541 -73.419087 
L 119.04 -72.748338 
L 119.732459 -72.081973 
L 120.424918 -71.419993 
L 121.117377 -70.762396 
L 121.809836 -70.109183 
L 122.502295 -69.460354 
L 123.194754 -68.815909 
L 123.887213 -68.175848 
L 124.579672 -67.540171 
L 125.272131 -66.908878 
L 125.96459 -66.281969 
L 126.657049 -65.659444 
L 127.349508 -65.041303 
L 128.041967 -64.427546 
L 128.734426 -63.818173 
L 129.426885 -63.213184 
L 130.119344 -62.612578 
L 130.811803 -62.016357 
L 131.504262 -61.42452 
L 132.196721 -60.837067 
L 132.88918 -60.253998 
L 133.581639 -59.675312 
L 134.274098 -59.101011 
L 134.966557 -58.531094 
L 135.659016 -57.965561 
L 136.351475 -57.404411 
L 137.043934 -56.847646 
L 137.736393 -56.295265 
L 138.428852 -55.747267 
L 139.121311 -55.203654 
L 139.81377 -54.664424 
L 140.50623 -54.129579 
L 141.198689 -53.599117 
L 141.891148 -53.07304 
L 142.583607 -52.551346 
L 143.276066 -52.034037 
L 143.968525 -51.521111 
L 144.660984 -51.01257 
L 145.353443 -50.508412 
L 146.045902 -50.008638 
L 146.738361 -49.513249 
L 147.43082 -49.022243 
L 148.123279 -48.535621 
L 148.815738 -48.053384 
L 149.508197 -47.57553 
L 150.200656 -47.10206 
L 150.893115 -46.632974 
L 151.585574 -46.168273 
L 152.278033 -45.707955 
L 152.970492 -45.252021 
L 153.662951 -44.800471 
L 154.35541 -44.353305 
L 155.047869 -43.910523 
L 155.740328 -43.472125 
L 156.432787 -43.038112 
L 157.125246 -42.608482 
L 157.817705 -42.183236 
L 158.510164 -41.762374 
L 159.202623 -41.345896 
L 159.895082 -40.933802 
L 160.587541 -40.526091 
L 161.28 -40.122765 
L 161.972459 -39.723823 
L 162.664918 -39.329265 
L 163.357377 -38.939091 
L 164.049836 -38.553301 
L 164.742295 -38.171895 
L 165.434754 -37.794872 
L 166.127213 -37.422234 
L 166.819672 -37.05398 
L 167.512131 -36.69011 
L 168.20459 -36.330623 
L 168.897049 -35.975521 
L 169.589508 -35.624803 
L 170.281967 -35.278468 
L 170.974426 -34.936518 
L 171.666885 -34.598952 
L 172.359344 -34.265769 
L 173.051803 -33.936971 
L 173.744262 -33.612556 
L 174.436721 -33.292526 
L 175.12918 -32.976879 
L 175.821639 -32.665617 
L 176.514098 -32.358738 
L 177.206557 -32.056244 
L 177.899016 -31.758133 
L 178.591475 -31.464407 
L 179.283934 -31.175064 
L 179.976393 -30.890105 
L 180.668852 -30.609531 
L 181.361311 -30.33334 
L 182.05377 -30.061533 
L 182.74623 -29.79411 
L 183.438689 -29.531072 
L 184.131148 -29.272417 
L 184.823607 -29.018146 
L 185.516066 -28.768259 
L 186.208525 -28.522756 
L 186.900984 -28.281638 
L 187.593443 -28.044903 
L 188.285902 -27.812552 
L 188.978361 -27.584585 
L 189.67082 -27.361002 
L 190.363279 -27.141803 
L 191.055738 -26.926988 
L 191.748197 -26.716557 
L 192.440656 -26.51051 
L 193.133115 -26.308847 
L 193.825574 -26.111568 
L 194.518033 -25.918673 
L 195.210492 -25.730162 
L 195.902951 -25.546035 
L 196.59541 -25.366291 
L 197.287869 -25.190932 
L 197.980328 -25.019957 
L 198.672787 -24.853366 
L 199.365246 -24.691159 
L 200.057705 -24.533335 
L 200.750164 -24.379896 
L 201.442623 -24.230841 
L 202.135082 -24.08617 
L 202.827541 -23.945882 
L 203.52 -23.809979 
L 204.212459 -23.67846 
L 204.904918 -23.551324 
L 205.597377 -23.428573 
L 206.289836 -23.310205 
L 206.982295 -23.196222 
L 207.674754 -23.086622 
L 208.367213 -22.981407 
L 209.059672 -22.880575 
L 209.752131 -22.784128 
L 210.44459 -22.692064 
L 211.137049 -22.604385 
L 211.829508 -22.521089 
L 212.521967 -22.442177 
L 213.214426 -22.36765 
L 213.906885 -22.297506 
L 214.599344 -22.231746 
L 215.291803 -22.170371 
L 215.984262 -22.113379 
L 216.676721 -22.060771 
L 217.36918 -22.012547 
L 218.061639 -21.968708 
L 218.754098 -21.929252 
L 219.446557 -21.89418 
L 220.139016 -21.863492 
L 220.831475 -21.837188 
L 221.523934 -21.815268 
L 222.216393 -21.797732 
L 222.908852 -21.784581 
L 223.601311 -21.775813 
L 224.29377 -21.771429 
L 224.98623 -21.771429 
L 225.678689 -21.775813 
L 226.371148 -21.784581 
L 227.063607 -21.797732 
L 227.756066 -21.815268 
L 228.448525 -21.837188 
L 229.140984 -21.863492 
L 229.833443 -21.89418 
L 230.525902 -21.929252 
L 231.218361 -21.968708 
L 231.91082 -22.012547 
L 232.603279 -22.060771 
L 233.295738 -22.113379 
L 233.988197 -22.170371 
L 234.680656 -22.231746 
L 235.373115 -22.297506 
L 236.065574 -22.36765 
L 236.758033 -22.442177 
L 237.450492 -22.521089 
L 238.142951 -22.604385 
L 238.83541 -22.692064 
L 239.527869 -22.784128 
L 240.220328 -22.880575 
L 240.912787 -22.981407 
L 241.605246 -23.086622 
L 242.297705 -23.196222 
L 242.990164 -23.310205 
L 243.682623 -23.428573 
L 244.375082 -23.551324 
L 245.067541 -23.67846 
L 245.76 -23.809979 
L 246.452459 -23.945882 
L 247.144918 -24.08617 
L 247.837377 -24.230841 
L 248.529836 -24.379896 
L 249.222295 -24.533335 
L 249.914754 -24.691159 
L 250.607213 -24.853366 
L 251.299672 -25.019957 
L 251.992131 -25.190932 
L 252.68459 -25.366291 
L 253.377049 -25.546035 
L 254.069508 -25.730162 
L 254.761967 -25.918673 
L 255.454426 -26.111568 
L 256.146885 -26.308847 
L 256.839344 -26.51051 
L 257.531803 -26.716557 
L 258.224262 -26.926988 
L 258.916721 -27.141803 
L 259.60918 -27.361002 
L 260.301639 -27.584585 
L 260.994098 -27.812552 
L 261.686557 -28.044903 
L 262.379016 -28.281638 
L 263.071475 -28.522756 
L 263.763934 -28.768259 
L 264.456393 -29.018146 
L 265.148852 -29.272417 
L 265.841311 -29.531072 
L 266.53377 -29.79411 
L 267.22623 -30.061533 
L 267.918689 -30.33334 
L 268.611148 -30.609531 
L 269.303607 -30.890105 
L 269.996066 -31.175064 
L 270.688525 -31.464407 
L 271.380984 -31.758133 
L 272.073443 -32.056244 
L 272.765902 -32.358738 
L 273.458361 -32.665617 
L 274.15082 -32.976879 
L 274.843279 -33.292526 
L 275.535738 -33.612556 
L 276.228197 -33.936971 
L 276.920656 -34.265769 
L 277.613115 -34.598952 
L 278.305574 -34.936518 
L 278.998033 -35.278468 
L 279.690492 -35.624803 
L 280.382951 -35.975521 
L 281.07541 -36.330623 
L 281.767869 -36.69011 
L 282.460328 -37.05398 
L 283.152787 -37.422234 
L 283.845246 -37.794872 
L 284.537705 -38.171895 
L 285.230164 -38.553301 
L 285.922623 -38.939091 
L 286.615082 -39.329265 
L 287.307541 -39.723823 
L 288 -40.122765 
L 288.692459 -40.526091 
L 289.384918 -40.933802 
L 290.077377 -41.345896 
L 290.769836 -41.762374 
L 291.462295 -42.183236 
L 292.154754 -42.608482 
L 292.847213 -43.038112 
L 293.539672 -43.472125 
L 294.232131 -43.910523 
L 294.92459 -44.353305 
L 295.617049 -44.800471 
L 296.309508 -45.252021 
L 297.001967 -45.707955 
L 297.694426 -46.168273 
L 298.386885 -46.632974 
L 299.079344 -47.10206 
L 299.771803 -47.57553 
L 300.464262 -48.053384 
L 301.156721 -48.535621 
L 301.84918 -49.022243 
L 302.541639 -49.513249 
L 303.234098 -50.008638 
L 303.926557 -50.508412 
L 304.619016 -51.01257 
L 305.311475 -51.521111 
L 306.003934 -52.034037 
L 306.696393 -52.551346 
L 307.388852 -53.07304 
L 308.081311 -53.599117 
L 308.77377 -54.129579 
L 309.46623 -54.664424 
L 310.158689 -55.203654 
L 310.851148 -55.747267 
L 311.543607 -56.295265 
L 312.236066 -56.847646 
L 312.928525 -57.404411 
L 313.620984 -57.965561 
L 314.313443 -58.531094 
L 315.005902 -59.101011 
L 315.698361 -59.675312 
L 316.39082 -60.253998 
L 317.083279 -60.837067 
L 317.775738 -61.42452 
L 318.468197 -62.016357 
L 319.160656 -62.612578 
L 319.853115 -63.213184 
L 320.545574 -63.818173 
L 321.238033 -64.427546 
L 321.930492 -65.041303 
L 322.622951 -65.659444 
L 323.31541 -66.281969 
L 324.007869 -66.908878 
L 324.700328 -67.540171 
L 325.392787 -68.175848 
L 326.085246 -68.815909 
L 326.777705 -69.460354 
L 327.470164 -70.109183 
L 328.162623 -70.762396 
L 328.855082 -71.419993 
L 329.547541 -72.081973 
L 330.24 -72.748338 
L 330.932459 -73.419087 
L 331.624918 -74.09422 
L 332.317377 -74.773737 
L 333.009836 -75.457637 
L 333.702295 -76.145922 
L 334.394754 -76.838591 
L 335.087213 -77.535644 
L 335.779672 -78.23708 
L 336.472131 -78.942901 
L 337.16459 -79.653106 
L 337.857049 -80.367694 
L 338.549508 -81.086667 
L 339.241967 -81.810023 
L 339.934426 -82.537764 
L 340.626885 -83.269888 
L 341.319344 -84.006397 
L 342.011803 -84.747289 
L 342.704262 -85.492566 
L 343.396721 -86.242226 
L 344.08918 -86.996271 
L 344.781639 -87.754699 
L 345.474098 -88.517511 
L 346.166557 -89.284708 
L 346.859016 -90.056288 
L 347.551475 -90.832252 
L 348.243934 -91.612601 
L 348.936393 -92.397333 
L 349.628852 -93.186449 
L 350.321311 -93.979949 
L 351.01377 -94.777834 
L 351.70623 -95.580102 
L 352.398689 -96.386754 
L 352.398689 -98.013246 
L 352.398689 -98.013246 
L 351.70623 -98.819898 
L 351.01377 -99.622166 
L 350.321311 -100.420051 
L 349.628852 -101.213551 
L 348.936393 -102.002667 
L 348.243934 -102.787399 
L 347.551475 -103.567748 
L 346.859016 -104.343712 
L 346.166557 -105.115292 
L 345.474098 -105.882489 
L 344.781639 -106.645301 
L 344.08918 -107.403729 
L 343.396721 -108.157774 
L 342.704262 -108.907434 
L 342.011803 -109.652711 
L 341.319344 -110.393603 
L 340.626885 -111.130112 
L 339.934426 -111.862236 
L 339.241967 -112.589977 
L 338.549508 -113.313333 
L 337.857049 -114.032306 
L 337.16459 -114.746894 
L 336.472131 -115.457099 
L 335.779672 -116.16292 
L 335.087213 -116.864356 
L 334.394754 -117.561409 
L 333.702295 -118.254078 
L 333.009836 -118.942363 
L 332.317377 -119.626263 
L 331.624918 -120.30578 
L 330.932459 -120.980913 
L 330.24 -121.651662 
L 329.547541 -122.318027 
L 328.855082 -122.980007 
L 328.162623 -123.637604 
L 327.470164 -124.290817 
L 326.777705 -124.939646 
L 326.085246 -125.584091 
L 325.392787 -126.224152 
L 324.700328 -126.859829 
L 324.007869 -127.491122 
L 323.31541 -128.118031 
L 322.622951 -128.740556 
L 321.930492 -129.358697 
L 321.238033 -129.972454 
L 320.545574 -130.581827 
L 319.853115 -131.186816 
L 319.160656 -131.787422 
L 318.468197 -132.383643 
L 317.775738 -132.97548 
L 317.083279 -133.562933 
L 316.39082 -134.146002 
L 315.698361 -134.724688 
L 315.005902 -135.298989 
L 314.313443 -135.868906 
L 313.620984 -136.434439 
L 312.928525 -136.995589 
L 312.236066 -137.552354 
L 311.543607 -138.104735 
L 310.851148 -138.652733 
L 310.158689 -139.196346 
L 309.46623 -139.735576 
L 308.77377 -140.270421 
L 308.081311 -140.800883 
L 307.388852 -141.32696 
L 306.696393 -141.848654 
L 306.003934 -142.365963 
L 305.311475 -142.878889 
L 304.619016 -143.38743 
L 303.926557 -143.891588 
L 303.234098 -144.391362 
L 302.541639 -144.886751 
L 301.84918 -145.377757 
L 301.156721 -145.864379 
L 300.464262 -146.346616 
L 299.771803 -146.82447 
L 299.079344 -147.29794 
L 298.386885 -147.767026 
L 297.694426 -148.231727 
L 297.001967 -148.692045 
L 296.309508 -149.147979 
L 295.617049 -149.599529 
L 294.92459 -150.046695 
L 294.232131 -150.489477 
L 293.539672 -150.927875 
L 292.847213 -151.361888 
L 292.154754 -151.791518 
L 291.462295 -152.216764 
L 290.769836 -152.637626 
L 290.077377 -153.054104 
L 289.384918 -153.466198 
L 288.692459 -153.873909 
L 288 -154.277235 
L 287.307541 -154.676177 
L 286.615082 -155.070735 
L 285.922623 -155.460909 
L 285.230164 -155.846699 
L 284.537705 -156.228105 
L 283.845246 -156.605128 
L 283.152787 -156.977766 
L 282.460328 -157.34602 
L 281.767869 -157.70989 
L 281.07541 -158.069377 
L 280.382951 -158.424479 
L 279.690492 -158.775197 
L 278.998033 -159.121532 
L 278.305574 -159.463482 
L 277.613115 -159.801048 
L 276.920656 -160.134231 
L 276.228197 -160.463029 
L 275.535738 -160.787444 
L 274.843279 -161.107474 
L 274.15082 -161.423121 
L 273.458361 -161.734383 
L 272.765902 -162.041262 
L 272.073443 -162.343756 
L 271.380984 -162.641867 
L 270.688525 -162.935593 
L 269.996066 -163.224936 
L 269.303607 -163.509895 
L 268.611148 -163.790469 
L 267.918689 -164.06666 
L 267.22623 -164.338467 
L 266.53377 -164.60589 
L 265.841311 -164.868928 
L 265.148852 -165.127583 
L 264.456393 -165.381854 
L 263.763934 -165.631741 
L 263.071475 -165.877244 
L 262.379016 -166.118362 
L 261.686557 -166.355097 
L 260.994098 -166.587448 
L 260.301639 -166.815415 
L 259.60918 -167.038998 
L 258.916721 -167.258197 
L 258.224262 -167.473012 
L 257.531803 -167.683443 
L 256.839344 -167.88949 
L 256.146885 -168.091153 
L 255.454426 -168.288432 
L 254.761967 -168.481327 
L 254.069508 -168.669838 
L 253.377049 -168.853965 
L 252.68459 -169.033709 
L 251.992131 -169.209068 
L 251.299672 -169.380043 
L 250.607213 -169.546634 
L 249.914754 -169.708841 
L 249.222295 -169.866665 
L 248.529836 -170.020104 
L 247.837377 -170.169159 
L 247.144918 -170.31383 
L 246.452459 -170.454118 
L 245.76 -170.590021 
L 245.067541 -170.72154 
L 244.375082 -170.848676 
L 243.682623 -170.971427 
L 242.990164 -171.089795 
L 242.297705 -171.203778 
L 241.605246 -171.313378 
L 240.912787 -171.418593 
L 240.220328 -171.519425 
L 239.527869 -171.615872 
L 238.83541 -171.707936 
L 238.142951 -171.795615 
L 237.450492 -171.878911 
L 236.758033 -171.957823 
L 236.065574 -172.03235 
L 235.373115 -172.102494 
L 234.680656 -172.168254 
L 233.988197 -172.229629 
L 233.295738 -172.286621 
L 232.603279 -172.339229 
L 231.91082 -172.387453 
L 231.218361 -172.431292 
L 230.525902 -172.470748 
L 229.833443 -172.50582 
L 229.140984 -172.536508 
L 228.448525 -172.562812 
L 227.756066 -172.584732 
L 227.063607 -172.602268 
L 226.371148 -172.615419 
L 225.678689 -172.624187 
L 224.98623 -172.628571 
L 224.29377 -172.628571 
L 223.601311 -172.624187 
L 222.908852 -172.615419 
L 222.216393 -172.602268 
L 221.523934 -172.584732 
L 220.831475 -172.562812 
L 220.139016 -172.536508 
L 219.446557 -172.50582 
L 218.754098 -172.470748 
L 218.061639 -172.431292 
L 217.36918 -172.387453 
L 216.676721 -172.339229 
L 215.984262 -172.286621 
L 215.291803 -172.229629 
L 214.599344 -172.168254 
L 213.906885 -172.102494 
L 213.214426 -172.03235 
L 212.521967 -171.957823 
L 211.829508 -171.878911 
L 211.137049 -171.795615 
L 210.44459 -171.707936 
L 209.752131 -171.615872 
L 209.059672 -171.519425 
L 208.367213 -171.418593 
L 207.674754 -171.313378 
L 206.982295 -171.203778 
L 206.289836 -171.089795 
L 205.597377 -170.971427 
L 204.904918 -170.848676 
L 204.212459 -170.72154 
L 203.52 -170.590021 
L 202.827541 -170.454118 
L 202.135082 -170.31383 
L 201.442623 -170.169159 
L 200.750164 -170.020104 
L 200.057705 -169.866665 
L 199.365246 -169.708841 
L 198.672787 -169.546634 
L 197.980328 -169.380043 
L 197.287869 -169.209068 
L 196.59541 -169.033709 
L 195.902951 -168.853965 
L 195.210492 -168.669838 
L 194.518033 -168.481327 
L 193.825574 -168.288432 
L 193.133115 -168.091153 
L 192.440656 -167.88949 
L 191.748197 -167.683443 
L 191.055738 -167.473012 
L 190.363279 -167.258197 
L 189.67082 -167.038998 
L 188.978361 -166.815415 
L 188.285902 -166.587448 
L 187.593443 -166.355097 
L 186.900984 -166.118362 
L 186.208525 -165.877244 
L 185.516066 -165.631741 
L 184.823607 -165.381854 
L 184.131148 -165.127583 
L 183.438689 -164.868928 
L 182.74623 -164.60589 
L 182.05377 -164.338467 
L 181.361311 -164.06666 
L 180.668852 -163.790469 
L 179.976393 -163.509895 
L 179.283934 -163.224936 
L 178.591475 -162.935593 
L 177.899016 -162.641867 
L 177.206557 -162.343756 
L 176.514098 -162.041262 
L 175.821639 -161.734383 
L 175.12918 -161.423121 
L 174.436721 -161.107474 
L 173.744262 -160.787444 
L 173.051803 -160.463029 
L 172.359344 -160.134231 
L 171.666885 -159.801048 
L 170.974426 -159.463482 
L 170.281967 -159.121532 
L 169.589508 -158.775197 
L 168.897049 -158.424479 
L 168.20459 -158.069377 
L 167.512131 -157.70989 
L 166.819672 -157.34602 
L 166.127213 -156.977766 
L 165.434754 -156.605128 
L 164.742295 -156.228105 
L 164.049836 -155.846699 
L 163.357377 -155.460909 
L 162.664918 -155.070735 
L 161.972459 -154.676177 
L 161.28 -154.277235 
L 160.587541 -153.873909 
L 159.895082 -153.466198 
L 159.202623 -153.054104 
L 158.510164 -152.637626 
L 157.817705 -152.216764 
L 157.125246 -151.791518 
L 156.432787 -151.361888 
L 155.740328 -150.927875 
L 155.047869 -150.489477 
L 154.35541 -150.046695 
L 153.662951 -149.599529 
L 152.970492 -149.147979 
L 152.278033 -148.692045 
L 151.585574 -148.231727 
L 150.893115 -147.767026 
L 150.200656 -147.29794 
L 149.508197 -146.82447 
L 148.815738 -146.346616 
L 148.123279 -145.864379 
L 147.43082 -145.377757 
L 146.738361 -144.886751 
L 146.045902 -144.391362 
L 145.353443 -143.891588 
L 144.660984 -143.38743 
L 143.968525 -142.878889 
L 143.276066 -142.365963 
L 142.583607 -141.848654 
L 141.891148 -141.32696 
L 141.198689 -140.800883 
L 140.50623 -140.270421 
L 139.81377 -139.735576 
L 139.121311 -139.196346 
L 138.428852 -138.652733 
L 137.736393 -138.104735 
L 137.043934 -137.552354 
L 136.351475 -136.995589 
L 135.659016 -136.434439 
L 134.966557 -135.868906 
L 134.274098 -135.298989 
L 133.581639 -134.724688 
L 132.88918 -134.146002 
L 132.196721 -133.562933 
L 131.504262 -132.97548 
L 130.811803 -132.383643 
L 130.119344 -131.787422 
L 129.426885 -131.186816 
L 128.734426 -130.581827 
L 128.041967 -129.972454 
L 127.349508 -129.358697 
L 126.657049 -128.740556 
L 125.96459 -128.118031 
L 125.272131 -127.491122 
L 124.579672 -126.859829 
L 123.887213 -126.224152 
L 123.194754 -125.584091 
L 122.502295 -124.939646 
L 121.809836 -124.290817 
L 121.117377 -123.637604 
L 120.424918 -122.980007 
L 119.732459 -122.318027 
L 119.04 -121.651662 
L 118.347541 -120.980913 
L 117.655082 -120.30578 
L 116.962623 -119.626263 
L 116.270164 -118.942363 
L 115.577705 -118.254078 
L 114.885246 -117.561409 
L 114.192787 -116.864356 
L 113.500328 -116.16292 
L 112.807869 -115.457099 
L 112.11541 -114.746894 
L 111.422951 -114.032306 
L 110.730492 -113.313333 
L 110.038033 -112.589977 
L 109.345574 -111.862236 
L 108.653115 -111.130112 
L 107.960656 -110.393603 
L 107.268197 -109.652711 
L 106.575738 -108.907434 
L 105.883279 -108.157774 
L 105.19082 -107.403729 
L 104.498361 -106.645301 
L 103.805902 -105.882489 
L 103.113443 -105.115292 
L 102.420984 -104.343712 
L 101.728525 -103.567748 
L 101.036066 -102.787399 
L 100.343607 -102.002667 
L 99.651148 -101.213551 
L 98.958689 -100.420051 
L 98.26623 -99.622166 
L 97.57377 -98.819898 
L 96.881311 -98.013246 
z
" id="m2341e6c1ba" style="stroke:#0000ff;stroke-opacity:0.1;"/>
    </defs>
    <g clip-path="url(#p92c67fbe9e)">
     <use style="fill:#0000ff;fill-opacity:0.1;stroke:#0000ff;stroke-opacity:0.1;" x="0" xlink:href="#m2341e6c1ba" y="180"/>
    </g>
   </g>
   <g id="matplotlib.axis_1">
    <g id="xtick_1">
     <g id="line2d_1">
      <defs>
       <path d="M 0 0 
L 0 3.5 
" id="m7d74cd4d60" style="stroke:#000000;stroke-width:0.8;"/>
      </defs>
      <g>
       <use style="stroke:#000000;stroke-width:0.8;" x="98.612459" xlink:href="#m7d74cd4d60" y="162"/>
      </g>
     </g>
     <g id="text_1">
      <!-- 1990 -->
      <g transform="translate(85.887459 176.598438)scale(0.1 -0.1)">
       <defs>
        <path d="M 794 531 
L 1825 531 
L 1825 4091 
L 703 3866 
L 703 4441 
L 1819 4666 
L 2450 4666 
L 2450 531 
L 3481 531 
L 3481 0 
L 794 0 
L 794 531 
z
" id="DejaVuSans-31" transform="scale(0.015625)"/>
        <path d="M 703 97 
L 703 672 
Q 941 559 1184 500 
Q 1428 441 1663 441 
Q 2288 441 2617 861 
Q 2947 1281 2994 2138 
Q 2813 1869 2534 1725 
Q 2256 1581 1919 1581 
Q 1219 1581 811 2004 
Q 403 2428 403 3163 
Q 403 3881 828 4315 
Q 1253 4750 1959 4750 
Q 2769 4750 3195 4129 
Q 3622 3509 3622 2328 
Q 3622 1225 3098 567 
Q 2575 -91 1691 -91 
Q 1453 -91 1209 -44 
Q 966 3 703 97 
z
M 1959 2075 
Q 2384 2075 2632 2365 
Q 2881 2656 2881 3163 
Q 2881 3666 2632 3958 
Q 2384 4250 1959 4250 
Q 1534 4250 1286 3958 
Q 1038 3666 1038 3163 
Q 1038 2656 1286 2365 
Q 1534 2075 1959 2075 
z
" id="DejaVuSans-39" transform="scale(0.015625)"/>
        <path d="M 2034 4250 
Q 1547 4250 1301 3770 
Q 1056 3291 1056 2328 
Q 1056 1369 1301 889 
Q 1547 409 2034 409 
Q 2525 409 2770 889 
Q 3016 1369 3016 2328 
Q 3016 3291 2770 3770 
Q 2525 4250 2034 4250 
z
M 2034 4750 
Q 2819 4750 3233 4129 
Q 3647 3509 3647 2328 
Q 3647 1150 3233 529 
Q 2819 -91 2034 -91 
Q 1250 -91 836 529 
Q 422 1150 422 2328 
Q 422 3509 836 4129 
Q 1250 4750 2034 4750 
z
" id="DejaVuSans-30" transform="scale(0.015625)"/>
       </defs>
       <use xlink:href="#DejaVuSans-31"/>
       <use x="63.623047" xlink:href="#DejaVuSans-39"/>
       <use x="127.246094" xlink:href="#DejaVuSans-39"/>
       <use x="190.869141" xlink:href="#DejaVuSans-30"/>
      </g>
     </g>
    </g>
    <g id="xtick_2">
     <g id="line2d_2">
      <g>
       <use style="stroke:#000000;stroke-width:0.8;" x="181.707541" xlink:href="#m7d74cd4d60" y="162"/>
      </g>
     </g>
     <g id="text_2">
      <!-- 2000 -->
      <g transform="translate(168.982541 176.598438)scale(0.1 -0.1)">
       <defs>
        <path d="M 1228 531 
L 3431 531 
L 3431 0 
L 469 0 
L 469 531 
Q 828 903 1448 1529 
Q 2069 2156 2228 2338 
Q 2531 2678 2651 2914 
Q 2772 3150 2772 3378 
Q 2772 3750 2511 3984 
Q 2250 4219 1831 4219 
Q 1534 4219 1204 4116 
Q 875 4013 500 3803 
L 500 4441 
Q 881 4594 1212 4672 
Q 1544 4750 1819 4750 
Q 2544 4750 2975 4387 
Q 3406 4025 3406 3419 
Q 3406 3131 3298 2873 
Q 3191 2616 2906 2266 
Q 2828 2175 2409 1742 
Q 1991 1309 1228 531 
z
" id="DejaVuSans-32" transform="scale(0.015625)"/>
       </defs>
       <use xlink:href="#DejaVuSans-32"/>
       <use x="63.623047" xlink:href="#DejaVuSans-30"/>
       <use x="127.246094" xlink:href="#DejaVuSans-30"/>
       <use x="190.869141" xlink:href="#DejaVuSans-30"/>
      </g>
     </g>
    </g>
    <g id="xtick_3">
     <g id="line2d_3">
      <g>
       <use style="stroke:#000000;stroke-width:0.8;" x="264.802623" xlink:href="#m7d74cd4d60" y="162"/>
      </g>
     </g>
     <g id="text_3">
      <!-- 2010 -->
      <g transform="translate(252.077623 176.598438)scale(0.1 -0.1)">
       <use xlink:href="#DejaVuSans-32"/>
       <use x="63.623047" xlink:href="#DejaVuSans-30"/>
       <use x="127.246094" xlink:href="#DejaVuSans-31"/>
       <use x="190.869141" xlink:href="#DejaVuSans-30"/>
      </g>
     </g>
    </g>
    <g id="xtick_4">
     <g id="line2d_4">
      <g>
       <use style="stroke:#000000;stroke-width:0.8;" x="347.897705" xlink:href="#m7d74cd4d60" y="162"/>
      </g>
     </g>
     <g id="text_4">
      <!-- 2020 -->
      <g transform="translate(335.172705 176.598438)scale(0.1 -0.1)">
       <use xlink:href="#DejaVuSans-32"/>
       <use x="63.623047" xlink:href="#DejaVuSans-30"/>
       <use x="127.246094" xlink:href="#DejaVuSans-32"/>
       <use x="190.869141" xlink:href="#DejaVuSans-30"/>
      </g>
     </g>
    </g>
   </g>
   <g id="matplotlib.axis_2">
    <g id="ytick_1">
     <g id="line2d_5">
      <defs>
       <path d="M 0 0 
L -3.5 0 
" id="md8a594526c" style="stroke:#000000;stroke-width:0.8;"/>
      </defs>
      <g>
       <use style="stroke:#000000;stroke-width:0.8;" x="34.56" xlink:href="#md8a594526c" y="139.261277"/>
      </g>
     </g>
     <g id="text_5">
      <!-- −40 -->
      <g transform="translate(6.455313 143.060496)scale(0.1 -0.1)">
       <defs>
        <path d="M 678 2272 
L 4684 2272 
L 4684 1741 
L 678 1741 
L 678 2272 
z
" id="DejaVuSans-2212" transform="scale(0.015625)"/>
        <path d="M 2419 4116 
L 825 1625 
L 2419 1625 
L 2419 4116 
z
M 2253 4666 
L 3047 4666 
L 3047 1625 
L 3713 1625 
L 3713 1100 
L 3047 1100 
L 3047 0 
L 2419 0 
L 2419 1100 
L 313 1100 
L 313 1709 
L 2253 4666 
z
" id="DejaVuSans-34" transform="scale(0.015625)"/>
       </defs>
       <use xlink:href="#DejaVuSans-2212"/>
       <use x="83.789062" xlink:href="#DejaVuSans-34"/>
       <use x="147.412109" xlink:href="#DejaVuSans-30"/>
      </g>
     </g>
    </g>
    <g id="ytick_2">
     <g id="line2d_6">
      <g>
       <use style="stroke:#000000;stroke-width:0.8;" x="34.56" xlink:href="#md8a594526c" y="111.030639"/>
      </g>
     </g>
     <g id="text_6">
      <!-- −20 -->
      <g transform="translate(6.455313 114.829857)scale(0.1 -0.1)">
       <use xlink:href="#DejaVuSans-2212"/>
       <use x="83.789062" xlink:href="#DejaVuSans-32"/>
       <use x="147.412109" xlink:href="#DejaVuSans-30"/>
      </g>
     </g>
    </g>
    <g id="ytick_3">
     <g id="line2d_7">
      <g>
       <use style="stroke:#000000;stroke-width:0.8;" x="34.56" xlink:href="#md8a594526c" y="82.8"/>
      </g>
     </g>
     <g id="text_7">
      <!-- 0 -->
      <g transform="translate(21.1975 86.599219)scale(0.1 -0.1)">
       <use xlink:href="#DejaVuSans-30"/>
      </g>
     </g>
    </g>
    <g id="ytick_4">
     <g id="line2d_8">
      <g>
       <use style="stroke:#000000;stroke-width:0.8;" x="34.56" xlink:href="#md8a594526c" y="54.569361"/>
      </g>
     </g>
     <g id="text_8">
      <!-- 20 -->
      <g transform="translate(14.835 58.36858)scale(0.1 -0.1)">
       <use xlink:href="#DejaVuSans-32"/>
       <use x="63.623047" xlink:href="#DejaVuSans-30"/>
      </g>
     </g>
    </g>
    <g id="ytick_5">
     <g id="line2d_9">
      <g>
       <use style="stroke:#000000;stroke-width:0.8;" x="34.56" xlink:href="#md8a594526c" y="26.338723"/>
      </g>
     </g>
     <g id="text_9">
      <!-- 40 -->
      <g transform="translate(14.835 30.137942)scale(0.1 -0.1)">
       <use xlink:href="#DejaVuSans-34"/>
       <use x="63.623047" xlink:href="#DejaVuSans-30"/>
      </g>
     </g>
    </g>
   </g>
   <g id="line2d_10">
    <path clip-path="url(#p92c67fbe9e)" d="M 96.881311 83.223106 
L 98.26623 83.749671 
L 98.958689 83.840513 
L 101.036066 84.942234 
L 101.728525 84.342712 
L 102.420984 84.441966 
L 103.113443 84.337026 
L 104.498361 85.135343 
L 105.19082 84.948565 
L 105.883279 85.183299 
L 106.575738 85.078113 
L 107.268197 85.23253 
L 107.960656 85.053359 
L 108.653115 85.140675 
L 109.345574 85.075926 
L 110.038033 84.740699 
L 111.422951 84.770204 
L 112.807869 85.228046 
L 113.500328 85.836338 
L 114.885246 86.218619 
L 116.962623 87.433913 
L 117.655082 88.087931 
L 118.347541 87.973722 
L 119.04 88.275239 
L 119.732459 88.743793 
L 120.424918 88.698788 
L 121.117377 88.439495 
L 121.809836 88.602489 
L 123.887213 88.838869 
L 125.272131 89.465929 
L 125.96459 89.380098 
L 126.657049 89.577606 
L 127.349508 89.633629 
L 128.041967 89.947918 
L 128.734426 90.022965 
L 129.426885 89.895504 
L 130.119344 90.083932 
L 131.504262 89.818621 
L 132.196721 89.996587 
L 132.88918 90.044989 
L 134.966557 90.969445 
L 135.659016 91.309859 
L 137.043934 91.361482 
L 137.736393 91.463678 
L 138.428852 91.788852 
L 139.121311 91.851742 
L 139.81377 92.074717 
L 140.50623 92.519839 
L 141.198689 92.500602 
L 141.891148 93.023784 
L 142.583607 93.181921 
L 143.276066 93.000941 
L 143.968525 93.500885 
L 144.660984 93.624119 
L 145.353443 93.342121 
L 146.045902 93.895427 
L 146.738361 94.60697 
L 147.43082 94.886094 
L 148.123279 94.573668 
L 148.815738 94.006778 
L 149.508197 93.622344 
L 151.585574 93.630509 
L 152.278033 93.501419 
L 152.970492 93.518102 
L 153.662951 94.102268 
L 154.35541 94.21445 
L 155.047869 94.54564 
L 155.740328 94.560938 
L 156.432787 94.409981 
L 157.125246 94.818013 
L 158.510164 94.505479 
L 159.202623 94.448926 
L 159.895082 94.976517 
L 160.587541 95.192689 
L 161.28 95.70958 
L 161.972459 95.600751 
L 162.664918 96.089603 
L 163.357377 96.203385 
L 164.742295 95.753019 
L 165.434754 95.669784 
L 167.512131 94.914419 
L 168.20459 94.897837 
L 168.897049 95.610369 
L 170.281967 96.198132 
L 170.974426 96.434839 
L 171.666885 96.36834 
L 174.436721 96.685776 
L 175.821639 96.755658 
L 176.514098 97.31753 
L 177.206557 97.329956 
L 177.899016 97.483159 
L 178.591475 97.782813 
L 179.283934 98.384759 
L 179.976393 98.716817 
L 180.668852 98.493566 
L 181.361311 98.85835 
L 182.05377 98.592809 
L 182.74623 98.951327 
L 184.131148 99.282103 
L 185.516066 100.134787 
L 186.208525 100.7703 
L 186.900984 101.254967 
L 187.593443 101.363883 
L 188.285902 101.662383 
L 188.978361 101.520451 
L 189.67082 101.530452 
L 190.363279 101.669516 
L 191.055738 101.503119 
L 191.748197 101.598413 
L 192.440656 101.25766 
L 193.133115 101.214665 
L 193.825574 101.984046 
L 195.210492 102.695541 
L 195.902951 102.837997 
L 197.980328 102.406118 
L 198.672787 101.979361 
L 200.057705 101.568329 
L 200.750164 101.191658 
L 202.135082 101.621183 
L 202.827541 101.549954 
L 203.52 102.0182 
L 204.212459 101.933674 
L 204.904918 102.221515 
L 205.597377 102.022617 
L 206.289836 102.124365 
L 207.674754 102.523861 
L 208.367213 102.616592 
L 209.059672 102.493608 
L 209.752131 102.731434 
L 210.44459 102.562423 
L 211.829508 102.586119 
L 212.521967 103.11731 
L 213.214426 103.205448 
L 213.906885 103.133217 
L 215.291803 103.40948 
L 215.984262 103.289448 
L 216.676721 103.4142 
L 217.36918 103.183709 
L 218.061639 103.579472 
L 219.446557 103.737145 
L 221.523934 102.692154 
L 224.29377 102.93806 
L 224.98623 102.380493 
L 226.371148 102.048573 
L 227.063607 101.75316 
L 227.756066 101.798624 
L 228.448525 101.723851 
L 229.833443 101.041322 
L 230.525902 101.251401 
L 231.218361 101.309983 
L 231.91082 100.874466 
L 232.603279 100.935479 
L 233.295738 100.674944 
L 233.988197 100.656729 
L 237.450492 98.609138 
L 238.142951 98.223245 
L 239.527869 97.85726 
L 240.912787 97.840022 
L 241.605246 97.659474 
L 242.297705 97.07469 
L 245.067541 96.458735 
L 246.452459 95.700726 
L 247.144918 95.613471 
L 247.837377 95.679686 
L 248.529836 95.567002 
L 249.222295 95.649671 
L 249.914754 95.466399 
L 250.607213 95.47069 
L 251.299672 95.011373 
L 251.992131 94.799699 
L 253.377049 94.204945 
L 255.454426 94.057011 
L 256.146885 94.055618 
L 256.839344 94.193503 
L 258.916721 93.877354 
L 259.60918 93.956144 
L 261.686557 93.830673 
L 262.379016 93.898331 
L 263.763934 93.384851 
L 265.148852 93.219732 
L 265.841311 92.968519 
L 267.918689 93.092727 
L 268.611148 92.852105 
L 269.303607 92.951285 
L 269.996066 92.855107 
L 271.380984 92.501989 
L 272.073443 92.466945 
L 272.765902 92.308562 
L 274.15082 92.858625 
L 274.843279 93.500631 
L 275.535738 94.309133 
L 276.228197 94.422685 
L 277.613115 93.877905 
L 279.690492 93.388845 
L 280.382951 93.665708 
L 281.07541 93.454506 
L 282.460328 93.494894 
L 283.152787 93.397317 
L 283.845246 93.486235 
L 285.230164 93.106987 
L 285.922623 92.969197 
L 286.615082 92.70449 
L 287.307541 92.756792 
L 290.077377 92.014842 
L 291.462295 91.874268 
L 292.847213 91.713854 
L 294.232131 90.866304 
L 294.92459 90.770454 
L 296.309508 90.205064 
L 297.694426 90.692136 
L 298.386885 90.387033 
L 299.079344 90.66277 
L 300.464262 90.480006 
L 301.84918 90.496103 
L 303.234098 90.315034 
L 303.926557 90.09318 
L 305.311475 90.06728 
L 306.003934 89.698592 
L 308.081311 89.34634 
L 308.77377 89.389632 
L 309.46623 89.233134 
L 312.928525 87.392529 
L 315.698361 86.363064 
L 317.083279 86.259292 
L 317.775738 85.973689 
L 319.160656 86.066657 
L 319.853115 85.926022 
L 321.238033 85.446897 
L 321.930492 85.721178 
L 322.622951 86.18963 
L 323.31541 86.14525 
L 324.007869 85.739668 
L 324.700328 85.582953 
L 325.392787 85.797584 
L 326.085246 85.673817 
L 326.777705 85.320335 
L 327.470164 85.20804 
L 328.162623 85.243038 
L 330.932459 84.783408 
L 331.624918 84.504026 
L 332.317377 84.627614 
L 333.009836 84.268398 
L 334.394754 84.345572 
L 335.087213 84.363376 
L 336.472131 83.887452 
L 337.16459 84.076837 
L 337.857049 84.406496 
L 338.549508 84.360197 
L 339.934426 84.590607 
L 340.626885 84.947326 
L 341.319344 84.94797 
L 342.011803 84.603415 
L 342.704262 84.691149 
L 343.396721 84.338108 
L 345.474098 83.668712 
L 346.166557 83.20414 
L 346.859016 83.370717 
L 347.551475 83.388163 
L 348.243934 83.558506 
L 349.628852 83.089965 
L 350.321311 83.016153 
L 351.01377 83.169347 
L 352.398689 82.8 
L 352.398689 82.8 
" style="fill:none;stroke:#1f77b4;stroke-linecap:square;stroke-width:1.5;"/>
   </g>
   <g id="line2d_11">
    <path clip-path="url(#p92c67fbe9e)" d="M 34.56 82.8 
L 414.72 82.8 
" style="fill:none;stroke:#000000;stroke-dasharray:1.5,2.475;stroke-dashoffset:0;stroke-width:1.5;"/>
   </g>
   <g id="patch_3">
    <path d="M 34.56 162 
L 34.56 3.6 
" style="fill:none;stroke:#000000;stroke-linecap:square;stroke-linejoin:miter;stroke-width:0.8;"/>
   </g>
   <g id="patch_4">
    <path d="M 414.72 162 
L 414.72 3.6 
" style="fill:none;stroke:#000000;stroke-linecap:square;stroke-linejoin:miter;stroke-width:0.8;"/>
   </g>
   <g id="patch_5">
    <path d="M 34.56 162 
L 414.72 162 
" style="fill:none;stroke:#000000;stroke-linecap:square;stroke-linejoin:miter;stroke-width:0.8;"/>
   </g>
   <g id="patch_6">
    <path d="M 34.56 3.6 
L 414.72 3.6 
" style="fill:none;stroke:#000000;stroke-linecap:square;stroke-linejoin:miter;stroke-width:0.8;"/>
   </g>
  </g>
 </g>
 <defs>
  <clipPath id="p92c67fbe9e">
   <rect height="158.4" width="380.16" x="34.56" y="3.6"/>
  </clipPath>
 </defs>
</svg>
