<?xml version="1.0" encoding="utf-8" standalone="no"?>
<!DOCTYPE svg PUBLIC "-//W3C//DTD SVG 1.1//EN"
  "http://www.w3.org/Graphics/SVG/1.1/DTD/svg11.dtd">
<svg height="180pt" version="1.1" viewBox="0 0 432 180" width="432pt" xmlns="http://www.w3.org/2000/svg" xmlns:xlink="http://www.w3.org/1999/xlink">
 <metadata>
  <rdf:RDF xmlns:cc="http://creativecommons.org/ns#" xmlns:dc="http://purl.org/dc/elements/1.1/" xmlns:rdf="http://www.w3.org/1999/02/22-rdf-syntax-ns#">
   <cc:Work>
    <dc:type rdf:resource="http://purl.org/dc/dcmitype/StillImage"/>
    <dc:date>2021-08-12T10:41:47.388015</dc:date>
    <dc:format>image/svg+xml</dc:format>
    <dc:creator>
     <cc:Agent>
      <dc:title>Matplotlib v3.4.2, https://matplotlib.org/</dc:title>
     </cc:Agent>
    </dc:creator>
   </cc:Work>
  </rdf:RDF>
 </metadata>
 <defs>
  <style type="text/css">*{stroke-linecap:butt;stroke-linejoin:round;}</style>
 </defs>
 <g id="figure_1">
  <g id="patch_1">
   <path d="M 0 180 
L 432 180 
L 432 0 
L 0 0 
z
" style="fill:#ffffff;"/>
  </g>
  <g id="axes_1">
   <g id="patch_2">
    <path d="M 34.56 162 
L 414.72 162 
L 414.72 3.6 
L 34.56 3.6 
z
" style="fill:#ffffff;"/>
   </g>
   <g id="PolyCollection_1">
    <path clip-path="url(#p487a67a3c0)" d="M 62.930149 82.488312 
L 62.930149 83.111688 
L 63.245373 83.422409 
L 63.560597 83.732486 
L 63.875821 84.041919 
L 64.191045 84.350708 
L 64.506269 84.658853 
L 64.821493 84.966354 
L 65.136716 85.273211 
L 65.45194 85.579425 
L 65.767164 85.884994 
L 66.082388 86.189919 
L 66.397612 86.4942 
L 66.712836 86.797837 
L 67.02806 87.10083 
L 67.343284 87.40318 
L 67.658507 87.704885 
L 67.973731 88.005946 
L 68.288955 88.306364 
L 68.604179 88.606137 
L 68.919403 88.905266 
L 69.234627 89.203752 
L 69.549851 89.501593 
L 69.865075 89.79879 
L 70.180299 90.095344 
L 70.495522 90.391253 
L 70.810746 90.686519 
L 71.12597 90.98114 
L 71.441194 91.275118 
L 71.756418 91.568451 
L 72.071642 91.861141 
L 72.386866 92.153186 
L 72.70209 92.444588 
L 73.017313 92.735345 
L 73.332537 93.025459 
L 73.647761 93.314929 
L 73.962985 93.603754 
L 74.278209 93.891936 
L 74.593433 94.179474 
L 74.908657 94.466367 
L 75.223881 94.752617 
L 75.539104 95.038223 
L 75.854328 95.323184 
L 76.169552 95.607502 
L 76.484776 95.891176 
L 76.8 96.174206 
L 77.115224 96.456592 
L 77.430448 96.738334 
L 77.745672 97.019431 
L 78.060896 97.299885 
L 78.376119 97.579695 
L 78.691343 97.858861 
L 79.006567 98.137383 
L 79.321791 98.415261 
L 79.637015 98.692495 
L 79.952239 98.969085 
L 80.267463 99.245031 
L 80.582687 99.520333 
L 80.89791 99.794991 
L 81.213134 100.069005 
L 81.528358 100.342375 
L 81.843582 100.615101 
L 82.158806 100.887183 
L 82.47403 101.158622 
L 82.789254 101.429416 
L 83.104478 101.699566 
L 83.419701 101.969072 
L 83.734925 102.237934 
L 84.050149 102.506153 
L 84.365373 102.773727 
L 84.680597 103.040657 
L 84.995821 103.306943 
L 85.311045 103.572586 
L 85.626269 103.837584 
L 85.941493 104.101938 
L 86.256716 104.365649 
L 86.57194 104.628715 
L 86.887164 104.891137 
L 87.202388 105.152916 
L 87.517612 105.41405 
L 87.832836 105.674541 
L 88.14806 105.934387 
L 88.463284 106.19359 
L 88.778507 106.452148 
L 89.093731 106.710063 
L 89.408955 106.967333 
L 89.724179 107.22396 
L 90.039403 107.479943 
L 90.354627 107.735281 
L 90.669851 107.989976 
L 90.985075 108.244026 
L 91.300299 108.497433 
L 91.615522 108.750196 
L 91.930746 109.002314 
L 92.24597 109.253789 
L 92.561194 109.50462 
L 92.876418 109.754807 
L 93.191642 110.004349 
L 93.506866 110.253248 
L 93.82209 110.501503 
L 94.137313 110.749114 
L 94.452537 110.996081 
L 94.767761 111.242404 
L 95.082985 111.488083 
L 95.398209 111.733117 
L 95.713433 111.977508 
L 96.028657 112.221255 
L 96.343881 112.464358 
L 96.659104 112.706817 
L 96.974328 112.948632 
L 97.289552 113.189803 
L 97.604776 113.43033 
L 97.92 113.670213 
L 98.235224 113.909452 
L 98.550448 114.148048 
L 98.865672 114.385999 
L 99.180896 114.623306 
L 99.496119 114.859969 
L 99.811343 115.095988 
L 100.126567 115.331363 
L 100.441791 115.566094 
L 100.441791 50.033906 
L 100.441791 50.033906 
L 100.126567 50.268637 
L 99.811343 50.504012 
L 99.496119 50.740031 
L 99.180896 50.976694 
L 98.865672 51.214001 
L 98.550448 51.451952 
L 98.235224 51.690548 
L 97.92 51.929787 
L 97.604776 52.16967 
L 97.289552 52.410197 
L 96.974328 52.651368 
L 96.659104 52.893183 
L 96.343881 53.135642 
L 96.028657 53.378745 
L 95.713433 53.622492 
L 95.398209 53.866883 
L 95.082985 54.111917 
L 94.767761 54.357596 
L 94.452537 54.603919 
L 94.137313 54.850886 
L 93.82209 55.098497 
L 93.506866 55.346752 
L 93.191642 55.595651 
L 92.876418 55.845193 
L 92.561194 56.09538 
L 92.24597 56.346211 
L 91.930746 56.597686 
L 91.615522 56.849804 
L 91.300299 57.102567 
L 90.985075 57.355974 
L 90.669851 57.610024 
L 90.354627 57.864719 
L 90.039403 58.120057 
L 89.724179 58.37604 
L 89.408955 58.632667 
L 89.093731 58.889937 
L 88.778507 59.147852 
L 88.463284 59.40641 
L 88.14806 59.665613 
L 87.832836 59.925459 
L 87.517612 60.18595 
L 87.202388 60.447084 
L 86.887164 60.708863 
L 86.57194 60.971285 
L 86.256716 61.234351 
L 85.941493 61.498062 
L 85.626269 61.762416 
L 85.311045 62.027414 
L 84.995821 62.293057 
L 84.680597 62.559343 
L 84.365373 62.826273 
L 84.050149 63.093847 
L 83.734925 63.362066 
L 83.419701 63.630928 
L 83.104478 63.900434 
L 82.789254 64.170584 
L 82.47403 64.441378 
L 82.158806 64.712817 
L 81.843582 64.984899 
L 81.528358 65.257625 
L 81.213134 65.530995 
L 80.89791 65.805009 
L 80.582687 66.079667 
L 80.267463 66.354969 
L 79.952239 66.630915 
L 79.637015 66.907505 
L 79.321791 67.184739 
L 79.006567 67.462617 
L 78.691343 67.741139 
L 78.376119 68.020305 
L 78.060896 68.300115 
L 77.745672 68.580569 
L 77.430448 68.861666 
L 77.115224 69.143408 
L 76.8 69.425794 
L 76.484776 69.708824 
L 76.169552 69.992498 
L 75.854328 70.276816 
L 75.539104 70.561777 
L 75.223881 70.847383 
L 74.908657 71.133633 
L 74.593433 71.420526 
L 74.278209 71.708064 
L 73.962985 71.996246 
L 73.647761 72.285071 
L 73.332537 72.574541 
L 73.017313 72.864655 
L 72.70209 73.155412 
L 72.386866 73.446814 
L 72.071642 73.738859 
L 71.756418 74.031549 
L 71.441194 74.324882 
L 71.12597 74.61886 
L 70.810746 74.913481 
L 70.495522 75.208747 
L 70.180299 75.504656 
L 69.865075 75.80121 
L 69.549851 76.098407 
L 69.234627 76.396248 
L 68.919403 76.694734 
L 68.604179 76.993863 
L 68.288955 77.293636 
L 67.973731 77.594054 
L 67.658507 77.895115 
L 67.343284 78.19682 
L 67.02806 78.49917 
L 66.712836 78.802163 
L 66.397612 79.1058 
L 66.082388 79.410081 
L 65.767164 79.715006 
L 65.45194 80.020575 
L 65.136716 80.326789 
L 64.821493 80.633646 
L 64.506269 80.941147 
L 64.191045 81.249292 
L 63.875821 81.558081 
L 63.560597 81.867514 
L 63.245373 82.177591 
L 62.930149 82.488312 
z
" style="fill:#0000ff;fill-opacity:0.1;stroke:#0000ff;stroke-opacity:0.1;"/>
    <path clip-path="url(#p487a67a3c0)" d="M 119.670448 49.799818 
L 119.670448 115.800182 
L 119.985672 116.033625 
L 120.300896 116.266424 
L 120.616119 116.498579 
L 120.931343 116.730091 
L 121.246567 116.960958 
L 121.561791 117.191181 
L 121.877015 117.420761 
L 122.192239 117.649696 
L 122.507463 117.877988 
L 122.822687 118.105635 
L 123.13791 118.332638 
L 123.453134 118.558998 
L 123.768358 118.784713 
L 124.083582 119.009785 
L 124.398806 119.234212 
L 124.71403 119.457996 
L 125.029254 119.681135 
L 125.344478 119.903631 
L 125.659701 120.125482 
L 125.974925 120.34669 
L 126.290149 120.567254 
L 126.605373 120.787173 
L 126.920597 121.006449 
L 127.235821 121.225081 
L 127.551045 121.443068 
L 127.866269 121.660412 
L 128.181493 121.877112 
L 128.496716 122.093168 
L 128.81194 122.308579 
L 129.127164 122.523347 
L 129.442388 122.737471 
L 129.757612 122.950951 
L 130.072836 123.163787 
L 130.38806 123.375978 
L 130.703284 123.587526 
L 131.018507 123.79843 
L 131.333731 124.00869 
L 131.648955 124.218306 
L 131.964179 124.427278 
L 132.279403 124.635606 
L 132.594627 124.84329 
L 132.909851 125.05033 
L 133.225075 125.256726 
L 133.540299 125.462478 
L 133.855522 125.667586 
L 134.170746 125.87205 
L 134.48597 126.07587 
L 134.801194 126.279046 
L 135.116418 126.481578 
L 135.431642 126.683467 
L 135.746866 126.884711 
L 136.06209 127.085311 
L 136.377313 127.285267 
L 136.692537 127.484579 
L 137.007761 127.683248 
L 137.322985 127.881272 
L 137.638209 128.078652 
L 137.953433 128.275389 
L 138.268657 128.471481 
L 138.583881 128.666929 
L 138.899104 128.861734 
L 139.214328 129.055894 
L 139.529552 129.24941 
L 139.844776 129.442283 
L 140.16 129.634511 
L 140.475224 129.826096 
L 140.790448 130.017036 
L 141.105672 130.207333 
L 141.420896 130.396985 
L 141.736119 130.585994 
L 142.051343 130.774358 
L 142.366567 130.962079 
L 142.681791 131.149155 
L 142.997015 131.335588 
L 143.312239 131.521377 
L 143.627463 131.706521 
L 143.942687 131.891022 
L 144.25791 132.074879 
L 144.573134 132.258091 
L 144.888358 132.44066 
L 145.203582 132.622585 
L 145.518806 132.803865 
L 145.83403 132.984502 
L 146.149254 133.164495 
L 146.464478 133.343844 
L 146.779701 133.522549 
L 147.094925 133.700609 
L 147.410149 133.878026 
L 147.725373 134.054799 
L 148.040597 134.230928 
L 148.355821 134.406413 
L 148.671045 134.581254 
L 148.986269 134.755451 
L 149.301493 134.929004 
L 149.616716 135.101913 
L 149.93194 135.274178 
L 150.247164 135.445799 
L 150.562388 135.616776 
L 150.877612 135.787109 
L 151.192836 135.956798 
L 151.50806 136.125843 
L 151.823284 136.294244 
L 152.138507 136.462002 
L 152.453731 136.629115 
L 152.768955 136.795584 
L 153.084179 136.961409 
L 153.399403 137.12659 
L 153.714627 137.291128 
L 154.029851 137.455021 
L 154.345075 137.61827 
L 154.660299 137.780875 
L 154.975522 137.942837 
L 155.290746 138.104154 
L 155.60597 138.264827 
L 155.921194 138.424857 
L 156.236418 138.584242 
L 156.551642 138.742984 
L 156.866866 138.901081 
L 157.18209 139.058534 
L 157.497313 139.215344 
L 157.812537 139.371509 
L 158.127761 139.527031 
L 158.442985 139.681908 
L 158.758209 139.836142 
L 159.073433 139.989731 
L 159.388657 140.142677 
L 159.703881 140.294979 
L 160.019104 140.446636 
L 160.334328 140.59765 
L 160.649552 140.748019 
L 160.964776 140.897745 
L 161.28 141.046827 
L 161.595224 141.195265 
L 161.910448 141.343058 
L 162.225672 141.490208 
L 162.540896 141.636714 
L 162.856119 141.782576 
L 163.171343 141.927793 
L 163.486567 142.072367 
L 163.801791 142.216297 
L 164.117015 142.359583 
L 164.432239 142.502225 
L 164.747463 142.644223 
L 165.062687 142.785576 
L 165.37791 142.926286 
L 165.693134 143.066352 
L 166.008358 143.205774 
L 166.323582 143.344552 
L 166.638806 143.482686 
L 166.95403 143.620176 
L 167.269254 143.757022 
L 167.584478 143.893224 
L 167.899701 144.028782 
L 168.214925 144.163697 
L 168.530149 144.297967 
L 168.845373 144.431593 
L 169.160597 144.564575 
L 169.475821 144.696913 
L 169.791045 144.828607 
L 170.106269 144.959658 
L 170.421493 145.090064 
L 170.736716 145.219826 
L 171.05194 145.348944 
L 171.367164 145.477419 
L 171.682388 145.605249 
L 171.997612 145.732435 
L 172.312836 145.858978 
L 172.62806 145.984876 
L 172.943284 146.11013 
L 173.258507 146.234741 
L 173.573731 146.358707 
L 173.888955 146.482029 
L 174.204179 146.604708 
L 174.519403 146.726742 
L 174.834627 146.848133 
L 175.149851 146.968879 
L 175.465075 147.088982 
L 175.780299 147.20844 
L 176.095522 147.327255 
L 176.410746 147.445426 
L 176.72597 147.562952 
L 177.041194 147.679835 
L 177.356418 147.796073 
L 177.671642 147.911668 
L 177.986866 148.026619 
L 178.30209 148.140925 
L 178.617313 148.254588 
L 178.932537 148.367607 
L 179.247761 148.479982 
L 179.562985 148.591712 
L 179.878209 148.702799 
L 180.193433 148.813242 
L 180.508657 148.923041 
L 180.823881 149.032196 
L 181.139104 149.140707 
L 181.454328 149.248573 
L 181.769552 149.355796 
L 182.084776 149.462375 
L 182.4 149.56831 
L 182.715224 149.673601 
L 183.030448 149.778248 
L 183.345672 149.882251 
L 183.660896 149.98561 
L 183.976119 150.088325 
L 184.291343 150.190396 
L 184.606567 150.291823 
L 184.921791 150.392606 
L 185.237015 150.492745 
L 185.552239 150.59224 
L 185.867463 150.691092 
L 186.182687 150.789299 
L 186.49791 150.886862 
L 186.813134 150.983781 
L 187.128358 151.080056 
L 187.443582 151.175688 
L 187.758806 151.270675 
L 188.07403 151.365018 
L 188.389254 151.458717 
L 188.704478 151.551773 
L 189.019701 151.644184 
L 189.334925 151.735951 
L 189.650149 151.827075 
L 189.965373 151.917554 
L 190.280597 152.00739 
L 190.595821 152.096581 
L 190.911045 152.185128 
L 191.226269 152.273032 
L 191.541493 152.360291 
L 191.856716 152.446907 
L 192.17194 152.532878 
L 192.487164 152.618206 
L 192.802388 152.702889 
L 193.117612 152.786929 
L 193.432836 152.870325 
L 193.74806 152.953076 
L 194.063284 153.035184 
L 194.378507 153.116647 
L 194.693731 153.197467 
L 195.008955 153.277643 
L 195.324179 153.357174 
L 195.639403 153.436062 
L 195.954627 153.514306 
L 196.269851 153.591906 
L 196.585075 153.668861 
L 196.900299 153.745173 
L 197.215522 153.820841 
L 197.530746 153.895865 
L 197.84597 153.970245 
L 198.161194 154.043981 
L 198.476418 154.117072 
L 198.791642 154.18952 
L 199.106866 154.261324 
L 199.42209 154.332484 
L 199.737313 154.403 
L 200.052537 154.472872 
L 200.367761 154.5421 
L 200.682985 154.610684 
L 200.998209 154.678624 
L 201.313433 154.74592 
L 201.628657 154.812572 
L 201.943881 154.87858 
L 202.259104 154.943945 
L 202.574328 155.008665 
L 202.889552 155.072741 
L 203.204776 155.136173 
L 203.52 155.198961 
L 203.835224 155.261105 
L 204.150448 155.322606 
L 204.465672 155.383462 
L 204.780896 155.443674 
L 205.096119 155.503242 
L 205.411343 155.562167 
L 205.726567 155.620447 
L 206.041791 155.678083 
L 206.357015 155.735076 
L 206.672239 155.791424 
L 206.987463 155.847128 
L 207.302687 155.902189 
L 207.61791 155.956605 
L 207.933134 156.010378 
L 208.248358 156.063506 
L 208.563582 156.115991 
L 208.878806 156.167831 
L 209.19403 156.219028 
L 209.509254 156.26958 
L 209.824478 156.319489 
L 210.139701 156.368753 
L 210.454925 156.417374 
L 210.770149 156.46535 
L 211.085373 156.512683 
L 211.400597 156.559372 
L 211.715821 156.605416 
L 212.031045 156.650817 
L 212.346269 156.695574 
L 212.661493 156.739687 
L 212.976716 156.783155 
L 213.29194 156.82598 
L 213.607164 156.868161 
L 213.922388 156.909698 
L 214.237612 156.95059 
L 214.552836 156.990839 
L 214.86806 157.030444 
L 215.183284 157.069405 
L 215.498507 157.107722 
L 215.813731 157.145395 
L 216.128955 157.182424 
L 216.444179 157.218809 
L 216.759403 157.25455 
L 217.074627 157.289647 
L 217.389851 157.3241 
L 217.705075 157.357909 
L 218.020299 157.391074 
L 218.335522 157.423595 
L 218.650746 157.455472 
L 218.96597 157.486705 
L 219.281194 157.517294 
L 219.596418 157.547239 
L 219.911642 157.57654 
L 220.226866 157.605197 
L 220.54209 157.633211 
L 220.857313 157.66058 
L 221.172537 157.687305 
L 221.487761 157.713386 
L 221.802985 157.738824 
L 222.118209 157.763617 
L 222.433433 157.787766 
L 222.748657 157.811272 
L 223.063881 157.834133 
L 223.379104 157.85635 
L 223.694328 157.877924 
L 224.009552 157.898853 
L 224.324776 157.919138 
L 224.64 157.93878 
L 224.955224 157.957777 
L 225.270448 157.976131 
L 225.585672 157.99384 
L 225.900896 158.010906 
L 226.216119 158.027327 
L 226.531343 158.043105 
L 226.846567 158.058238 
L 227.161791 158.072728 
L 227.477015 158.086574 
L 227.792239 158.099775 
L 228.107463 158.112333 
L 228.422687 158.124246 
L 228.73791 158.135516 
L 229.053134 158.146142 
L 229.368358 158.156124 
L 229.683582 158.165461 
L 229.998806 158.174155 
L 230.31403 158.182205 
L 230.629254 158.189611 
L 230.944478 158.196372 
L 231.259701 158.20249 
L 231.574925 158.207964 
L 231.890149 158.212794 
L 232.205373 158.21698 
L 232.520597 158.220522 
L 232.835821 158.22342 
L 233.151045 158.225674 
L 233.466269 158.227283 
L 233.781493 158.228249 
L 234.096716 158.228571 
L 234.41194 158.228249 
L 234.727164 158.227283 
L 235.042388 158.225674 
L 235.357612 158.22342 
L 235.672836 158.220522 
L 235.98806 158.21698 
L 236.303284 158.212794 
L 236.618507 158.207964 
L 236.933731 158.20249 
L 237.248955 158.196372 
L 237.564179 158.189611 
L 237.879403 158.182205 
L 238.194627 158.174155 
L 238.509851 158.165461 
L 238.825075 158.156124 
L 239.140299 158.146142 
L 239.455522 158.135516 
L 239.770746 158.124246 
L 240.08597 158.112333 
L 240.401194 158.099775 
L 240.716418 158.086574 
L 241.031642 158.072728 
L 241.346866 158.058238 
L 241.66209 158.043105 
L 241.977313 158.027327 
L 242.292537 158.010906 
L 242.607761 157.99384 
L 242.922985 157.976131 
L 243.238209 157.957777 
L 243.553433 157.93878 
L 243.868657 157.919138 
L 244.183881 157.898853 
L 244.499104 157.877924 
L 244.814328 157.85635 
L 245.129552 157.834133 
L 245.444776 157.811272 
L 245.76 157.787766 
L 246.075224 157.763617 
L 246.390448 157.738824 
L 246.705672 157.713386 
L 247.020896 157.687305 
L 247.336119 157.66058 
L 247.651343 157.633211 
L 247.966567 157.605197 
L 248.281791 157.57654 
L 248.597015 157.547239 
L 248.912239 157.517294 
L 249.227463 157.486705 
L 249.542687 157.455472 
L 249.85791 157.423595 
L 250.173134 157.391074 
L 250.488358 157.357909 
L 250.803582 157.3241 
L 251.118806 157.289647 
L 251.43403 157.25455 
L 251.749254 157.218809 
L 252.064478 157.182424 
L 252.379701 157.145395 
L 252.694925 157.107722 
L 253.010149 157.069405 
L 253.325373 157.030444 
L 253.640597 156.990839 
L 253.955821 156.95059 
L 254.271045 156.909698 
L 254.586269 156.868161 
L 254.901493 156.82598 
L 255.216716 156.783155 
L 255.53194 156.739687 
L 255.847164 156.695574 
L 256.162388 156.650817 
L 256.477612 156.605416 
L 256.792836 156.559372 
L 257.10806 156.512683 
L 257.423284 156.46535 
L 257.738507 156.417374 
L 258.053731 156.368753 
L 258.368955 156.319489 
L 258.684179 156.26958 
L 258.999403 156.219028 
L 259.314627 156.167831 
L 259.629851 156.115991 
L 259.945075 156.063506 
L 260.260299 156.010378 
L 260.575522 155.956605 
L 260.890746 155.902189 
L 261.20597 155.847128 
L 261.521194 155.791424 
L 261.836418 155.735076 
L 262.151642 155.678083 
L 262.466866 155.620447 
L 262.78209 155.562167 
L 263.097313 155.503242 
L 263.412537 155.443674 
L 263.727761 155.383462 
L 264.042985 155.322606 
L 264.358209 155.261105 
L 264.673433 155.198961 
L 264.988657 155.136173 
L 265.303881 155.072741 
L 265.619104 155.008665 
L 265.934328 154.943945 
L 266.249552 154.87858 
L 266.564776 154.812572 
L 266.88 154.74592 
L 267.195224 154.678624 
L 267.510448 154.610684 
L 267.825672 154.5421 
L 268.140896 154.472872 
L 268.456119 154.403 
L 268.771343 154.332484 
L 269.086567 154.261324 
L 269.401791 154.18952 
L 269.717015 154.117072 
L 270.032239 154.043981 
L 270.347463 153.970245 
L 270.662687 153.895865 
L 270.97791 153.820841 
L 271.293134 153.745173 
L 271.608358 153.668861 
L 271.923582 153.591906 
L 272.238806 153.514306 
L 272.55403 153.436062 
L 272.869254 153.357174 
L 273.184478 153.277643 
L 273.499701 153.197467 
L 273.814925 153.116647 
L 274.130149 153.035184 
L 274.445373 152.953076 
L 274.760597 152.870325 
L 275.075821 152.786929 
L 275.391045 152.702889 
L 275.706269 152.618206 
L 276.021493 152.532878 
L 276.336716 152.446907 
L 276.65194 152.360291 
L 276.967164 152.273032 
L 277.282388 152.185128 
L 277.597612 152.096581 
L 277.912836 152.00739 
L 278.22806 151.917554 
L 278.543284 151.827075 
L 278.858507 151.735951 
L 279.173731 151.644184 
L 279.488955 151.551773 
L 279.804179 151.458717 
L 280.119403 151.365018 
L 280.434627 151.270675 
L 280.749851 151.175688 
L 281.065075 151.080056 
L 281.380299 150.983781 
L 281.695522 150.886862 
L 282.010746 150.789299 
L 282.32597 150.691092 
L 282.641194 150.59224 
L 282.956418 150.492745 
L 283.271642 150.392606 
L 283.586866 150.291823 
L 283.90209 150.190396 
L 284.217313 150.088325 
L 284.532537 149.98561 
L 284.847761 149.882251 
L 285.162985 149.778248 
L 285.478209 149.673601 
L 285.793433 149.56831 
L 286.108657 149.462375 
L 286.423881 149.355796 
L 286.739104 149.248573 
L 287.054328 149.140707 
L 287.369552 149.032196 
L 287.684776 148.923041 
L 288 148.813242 
L 288.315224 148.702799 
L 288.630448 148.591712 
L 288.945672 148.479982 
L 289.260896 148.367607 
L 289.576119 148.254588 
L 289.891343 148.140925 
L 290.206567 148.026619 
L 290.521791 147.911668 
L 290.837015 147.796073 
L 291.152239 147.679835 
L 291.467463 147.562952 
L 291.782687 147.445426 
L 292.09791 147.327255 
L 292.413134 147.20844 
L 292.728358 147.088982 
L 293.043582 146.968879 
L 293.358806 146.848133 
L 293.67403 146.726742 
L 293.989254 146.604708 
L 294.304478 146.482029 
L 294.619701 146.358707 
L 294.934925 146.234741 
L 295.250149 146.11013 
L 295.565373 145.984876 
L 295.880597 145.858978 
L 296.195821 145.732435 
L 296.511045 145.605249 
L 296.826269 145.477419 
L 297.141493 145.348944 
L 297.456716 145.219826 
L 297.77194 145.090064 
L 298.087164 144.959658 
L 298.402388 144.828607 
L 298.717612 144.696913 
L 299.032836 144.564575 
L 299.34806 144.431593 
L 299.663284 144.297967 
L 299.978507 144.163697 
L 300.293731 144.028782 
L 300.608955 143.893224 
L 300.924179 143.757022 
L 301.239403 143.620176 
L 301.554627 143.482686 
L 301.869851 143.344552 
L 302.185075 143.205774 
L 302.500299 143.066352 
L 302.815522 142.926286 
L 303.130746 142.785576 
L 303.44597 142.644223 
L 303.761194 142.502225 
L 304.076418 142.359583 
L 304.391642 142.216297 
L 304.706866 142.072367 
L 305.02209 141.927793 
L 305.337313 141.782576 
L 305.652537 141.636714 
L 305.967761 141.490208 
L 306.282985 141.343058 
L 306.598209 141.195265 
L 306.913433 141.046827 
L 307.228657 140.897745 
L 307.543881 140.748019 
L 307.859104 140.59765 
L 308.174328 140.446636 
L 308.489552 140.294979 
L 308.804776 140.142677 
L 309.12 139.989731 
L 309.435224 139.836142 
L 309.750448 139.681908 
L 310.065672 139.527031 
L 310.380896 139.371509 
L 310.696119 139.215344 
L 311.011343 139.058534 
L 311.326567 138.901081 
L 311.641791 138.742984 
L 311.957015 138.584242 
L 312.272239 138.424857 
L 312.587463 138.264827 
L 312.902687 138.104154 
L 313.21791 137.942837 
L 313.533134 137.780875 
L 313.848358 137.61827 
L 314.163582 137.455021 
L 314.478806 137.291128 
L 314.79403 137.12659 
L 315.109254 136.961409 
L 315.424478 136.795584 
L 315.739701 136.629115 
L 316.054925 136.462002 
L 316.370149 136.294244 
L 316.685373 136.125843 
L 317.000597 135.956798 
L 317.315821 135.787109 
L 317.631045 135.616776 
L 317.946269 135.445799 
L 318.261493 135.274178 
L 318.576716 135.101913 
L 318.89194 134.929004 
L 319.207164 134.755451 
L 319.522388 134.581254 
L 319.837612 134.406413 
L 320.152836 134.230928 
L 320.46806 134.054799 
L 320.783284 133.878026 
L 321.098507 133.700609 
L 321.413731 133.522549 
L 321.728955 133.343844 
L 322.044179 133.164495 
L 322.359403 132.984502 
L 322.674627 132.803865 
L 322.989851 132.622585 
L 323.305075 132.44066 
L 323.620299 132.258091 
L 323.935522 132.074879 
L 324.250746 131.891022 
L 324.56597 131.706521 
L 324.881194 131.521377 
L 325.196418 131.335588 
L 325.511642 131.149155 
L 325.826866 130.962079 
L 326.14209 130.774358 
L 326.457313 130.585994 
L 326.772537 130.396985 
L 327.087761 130.207333 
L 327.402985 130.017036 
L 327.718209 129.826096 
L 328.033433 129.634511 
L 328.348657 129.442283 
L 328.663881 129.24941 
L 328.979104 129.055894 
L 329.294328 128.861734 
L 329.609552 128.666929 
L 329.924776 128.471481 
L 330.24 128.275389 
L 330.555224 128.078652 
L 330.870448 127.881272 
L 331.185672 127.683248 
L 331.500896 127.484579 
L 331.816119 127.285267 
L 332.131343 127.085311 
L 332.446567 126.884711 
L 332.761791 126.683467 
L 333.077015 126.481578 
L 333.392239 126.279046 
L 333.707463 126.07587 
L 334.022687 125.87205 
L 334.33791 125.667586 
L 334.653134 125.462478 
L 334.968358 125.256726 
L 335.283582 125.05033 
L 335.598806 124.84329 
L 335.91403 124.635606 
L 336.229254 124.427278 
L 336.544478 124.218306 
L 336.859701 124.00869 
L 337.174925 123.79843 
L 337.490149 123.587526 
L 337.805373 123.375978 
L 338.120597 123.163787 
L 338.435821 122.950951 
L 338.751045 122.737471 
L 339.066269 122.523347 
L 339.381493 122.308579 
L 339.696716 122.093168 
L 340.01194 121.877112 
L 340.327164 121.660412 
L 340.642388 121.443068 
L 340.957612 121.225081 
L 341.272836 121.006449 
L 341.58806 120.787173 
L 341.903284 120.567254 
L 342.218507 120.34669 
L 342.533731 120.125482 
L 342.848955 119.903631 
L 343.164179 119.681135 
L 343.479403 119.457996 
L 343.794627 119.234212 
L 344.109851 119.009785 
L 344.425075 118.784713 
L 344.740299 118.558998 
L 345.055522 118.332638 
L 345.370746 118.105635 
L 345.68597 117.877988 
L 346.001194 117.649696 
L 346.316418 117.420761 
L 346.631642 117.191181 
L 346.946866 116.960958 
L 347.26209 116.730091 
L 347.577313 116.498579 
L 347.892537 116.266424 
L 348.207761 116.033625 
L 348.522985 115.800182 
L 348.838209 115.566094 
L 349.153433 115.331363 
L 349.468657 115.095988 
L 349.783881 114.859969 
L 350.099104 114.623306 
L 350.414328 114.385999 
L 350.729552 114.148048 
L 351.044776 113.909452 
L 351.36 113.670213 
L 351.675224 113.43033 
L 351.990448 113.189803 
L 352.305672 112.948632 
L 352.620896 112.706817 
L 352.936119 112.464358 
L 353.251343 112.221255 
L 353.566567 111.977508 
L 353.881791 111.733117 
L 354.197015 111.488083 
L 354.512239 111.242404 
L 354.827463 110.996081 
L 355.142687 110.749114 
L 355.45791 110.501503 
L 355.773134 110.253248 
L 356.088358 110.004349 
L 356.403582 109.754807 
L 356.718806 109.50462 
L 357.03403 109.253789 
L 357.349254 109.002314 
L 357.664478 108.750196 
L 357.979701 108.497433 
L 358.294925 108.244026 
L 358.610149 107.989976 
L 358.925373 107.735281 
L 359.240597 107.479943 
L 359.555821 107.22396 
L 359.871045 106.967333 
L 360.186269 106.710063 
L 360.501493 106.452148 
L 360.816716 106.19359 
L 361.13194 105.934387 
L 361.447164 105.674541 
L 361.762388 105.41405 
L 362.077612 105.152916 
L 362.392836 104.891137 
L 362.70806 104.628715 
L 363.023284 104.365649 
L 363.338507 104.101938 
L 363.653731 103.837584 
L 363.968955 103.572586 
L 364.284179 103.306943 
L 364.599403 103.040657 
L 364.914627 102.773727 
L 365.229851 102.506153 
L 365.545075 102.237934 
L 365.860299 101.969072 
L 366.175522 101.699566 
L 366.490746 101.429416 
L 366.80597 101.158622 
L 367.121194 100.887183 
L 367.436418 100.615101 
L 367.751642 100.342375 
L 368.066866 100.069005 
L 368.38209 99.794991 
L 368.697313 99.520333 
L 369.012537 99.245031 
L 369.327761 98.969085 
L 369.642985 98.692495 
L 369.958209 98.415261 
L 370.273433 98.137383 
L 370.588657 97.858861 
L 370.903881 97.579695 
L 371.219104 97.299885 
L 371.534328 97.019431 
L 371.849552 96.738334 
L 372.164776 96.456592 
L 372.48 96.174206 
L 372.795224 95.891176 
L 373.110448 95.607502 
L 373.425672 95.323184 
L 373.740896 95.038223 
L 374.056119 94.752617 
L 374.371343 94.466367 
L 374.686567 94.179474 
L 375.001791 93.891936 
L 375.317015 93.603754 
L 375.632239 93.314929 
L 375.947463 93.025459 
L 376.262687 92.735345 
L 376.57791 92.444588 
L 376.893134 92.153186 
L 377.208358 91.861141 
L 377.523582 91.568451 
L 377.838806 91.275118 
L 378.15403 90.98114 
L 378.469254 90.686519 
L 378.784478 90.391253 
L 379.099701 90.095344 
L 379.414925 89.79879 
L 379.730149 89.501593 
L 380.045373 89.203752 
L 380.360597 88.905266 
L 380.675821 88.606137 
L 380.991045 88.306364 
L 381.306269 88.005946 
L 381.621493 87.704885 
L 381.936716 87.40318 
L 382.25194 87.10083 
L 382.567164 86.797837 
L 382.882388 86.4942 
L 383.197612 86.189919 
L 383.512836 85.884994 
L 383.82806 85.579425 
L 384.143284 85.273211 
L 384.458507 84.966354 
L 384.773731 84.658853 
L 385.088955 84.350708 
L 385.404179 84.041919 
L 385.719403 83.732486 
L 386.034627 83.422409 
L 386.349851 83.111688 
L 386.349851 82.488312 
L 386.349851 82.488312 
L 386.034627 82.177591 
L 385.719403 81.867514 
L 385.404179 81.558081 
L 385.088955 81.249292 
L 384.773731 80.941147 
L 384.458507 80.633646 
L 384.143284 80.326789 
L 383.82806 80.020575 
L 383.512836 79.715006 
L 383.197612 79.410081 
L 382.882388 79.1058 
L 382.567164 78.802163 
L 382.25194 78.49917 
L 381.936716 78.19682 
L 381.621493 77.895115 
L 381.306269 77.594054 
L 380.991045 77.293636 
L 380.675821 76.993863 
L 380.360597 76.694734 
L 380.045373 76.396248 
L 379.730149 76.098407 
L 379.414925 75.80121 
L 379.099701 75.504656 
L 378.784478 75.208747 
L 378.469254 74.913481 
L 378.15403 74.61886 
L 377.838806 74.324882 
L 377.523582 74.031549 
L 377.208358 73.738859 
L 376.893134 73.446814 
L 376.57791 73.155412 
L 376.262687 72.864655 
L 375.947463 72.574541 
L 375.632239 72.285071 
L 375.317015 71.996246 
L 375.001791 71.708064 
L 374.686567 71.420526 
L 374.371343 71.133633 
L 374.056119 70.847383 
L 373.740896 70.561777 
L 373.425672 70.276816 
L 373.110448 69.992498 
L 372.795224 69.708824 
L 372.48 69.425794 
L 372.164776 69.143408 
L 371.849552 68.861666 
L 371.534328 68.580569 
L 371.219104 68.300115 
L 370.903881 68.020305 
L 370.588657 67.741139 
L 370.273433 67.462617 
L 369.958209 67.184739 
L 369.642985 66.907505 
L 369.327761 66.630915 
L 369.012537 66.354969 
L 368.697313 66.079667 
L 368.38209 65.805009 
L 368.066866 65.530995 
L 367.751642 65.257625 
L 367.436418 64.984899 
L 367.121194 64.712817 
L 366.80597 64.441378 
L 366.490746 64.170584 
L 366.175522 63.900434 
L 365.860299 63.630928 
L 365.545075 63.362066 
L 365.229851 63.093847 
L 364.914627 62.826273 
L 364.599403 62.559343 
L 364.284179 62.293057 
L 363.968955 62.027414 
L 363.653731 61.762416 
L 363.338507 61.498062 
L 363.023284 61.234351 
L 362.70806 60.971285 
L 362.392836 60.708863 
L 362.077612 60.447084 
L 361.762388 60.18595 
L 361.447164 59.925459 
L 361.13194 59.665613 
L 360.816716 59.40641 
L 360.501493 59.147852 
L 360.186269 58.889937 
L 359.871045 58.632667 
L 359.555821 58.37604 
L 359.240597 58.120057 
L 358.925373 57.864719 
L 358.610149 57.610024 
L 358.294925 57.355974 
L 357.979701 57.102567 
L 357.664478 56.849804 
L 357.349254 56.597686 
L 357.03403 56.346211 
L 356.718806 56.09538 
L 356.403582 55.845193 
L 356.088358 55.595651 
L 355.773134 55.346752 
L 355.45791 55.098497 
L 355.142687 54.850886 
L 354.827463 54.603919 
L 354.512239 54.357596 
L 354.197015 54.111917 
L 353.881791 53.866883 
L 353.566567 53.622492 
L 353.251343 53.378745 
L 352.936119 53.135642 
L 352.620896 52.893183 
L 352.305672 52.651368 
L 351.990448 52.410197 
L 351.675224 52.16967 
L 351.36 51.929787 
L 351.044776 51.690548 
L 350.729552 51.451952 
L 350.414328 51.214001 
L 350.099104 50.976694 
L 349.783881 50.740031 
L 349.468657 50.504012 
L 349.153433 50.268637 
L 348.838209 50.033906 
L 348.522985 49.799818 
L 348.207761 49.566375 
L 347.892537 49.333576 
L 347.577313 49.101421 
L 347.26209 48.869909 
L 346.946866 48.639042 
L 346.631642 48.408819 
L 346.316418 48.179239 
L 346.001194 47.950304 
L 345.68597 47.722012 
L 345.370746 47.494365 
L 345.055522 47.267362 
L 344.740299 47.041002 
L 344.425075 46.815287 
L 344.109851 46.590215 
L 343.794627 46.365788 
L 343.479403 46.142004 
L 343.164179 45.918865 
L 342.848955 45.696369 
L 342.533731 45.474518 
L 342.218507 45.25331 
L 341.903284 45.032746 
L 341.58806 44.812827 
L 341.272836 44.593551 
L 340.957612 44.374919 
L 340.642388 44.156932 
L 340.327164 43.939588 
L 340.01194 43.722888 
L 339.696716 43.506832 
L 339.381493 43.291421 
L 339.066269 43.076653 
L 338.751045 42.862529 
L 338.435821 42.649049 
L 338.120597 42.436213 
L 337.805373 42.224022 
L 337.490149 42.012474 
L 337.174925 41.80157 
L 336.859701 41.59131 
L 336.544478 41.381694 
L 336.229254 41.172722 
L 335.91403 40.964394 
L 335.598806 40.75671 
L 335.283582 40.54967 
L 334.968358 40.343274 
L 334.653134 40.137522 
L 334.33791 39.932414 
L 334.022687 39.72795 
L 333.707463 39.52413 
L 333.392239 39.320954 
L 333.077015 39.118422 
L 332.761791 38.916533 
L 332.446567 38.715289 
L 332.131343 38.514689 
L 331.816119 38.314733 
L 331.500896 38.115421 
L 331.185672 37.916752 
L 330.870448 37.718728 
L 330.555224 37.521348 
L 330.24 37.324611 
L 329.924776 37.128519 
L 329.609552 36.933071 
L 329.294328 36.738266 
L 328.979104 36.544106 
L 328.663881 36.35059 
L 328.348657 36.157717 
L 328.033433 35.965489 
L 327.718209 35.773904 
L 327.402985 35.582964 
L 327.087761 35.392667 
L 326.772537 35.203015 
L 326.457313 35.014006 
L 326.14209 34.825642 
L 325.826866 34.637921 
L 325.511642 34.450845 
L 325.196418 34.264412 
L 324.881194 34.078623 
L 324.56597 33.893479 
L 324.250746 33.708978 
L 323.935522 33.525121 
L 323.620299 33.341909 
L 323.305075 33.15934 
L 322.989851 32.977415 
L 322.674627 32.796135 
L 322.359403 32.615498 
L 322.044179 32.435505 
L 321.728955 32.256156 
L 321.413731 32.077451 
L 321.098507 31.899391 
L 320.783284 31.721974 
L 320.46806 31.545201 
L 320.152836 31.369072 
L 319.837612 31.193587 
L 319.522388 31.018746 
L 319.207164 30.844549 
L 318.89194 30.670996 
L 318.576716 30.498087 
L 318.261493 30.325822 
L 317.946269 30.154201 
L 317.631045 29.983224 
L 317.315821 29.812891 
L 317.000597 29.643202 
L 316.685373 29.474157 
L 316.370149 29.305756 
L 316.054925 29.137998 
L 315.739701 28.970885 
L 315.424478 28.804416 
L 315.109254 28.638591 
L 314.79403 28.47341 
L 314.478806 28.308872 
L 314.163582 28.144979 
L 313.848358 27.98173 
L 313.533134 27.819125 
L 313.21791 27.657163 
L 312.902687 27.495846 
L 312.587463 27.335173 
L 312.272239 27.175143 
L 311.957015 27.015758 
L 311.641791 26.857016 
L 311.326567 26.698919 
L 311.011343 26.541466 
L 310.696119 26.384656 
L 310.380896 26.228491 
L 310.065672 26.072969 
L 309.750448 25.918092 
L 309.435224 25.763858 
L 309.12 25.610269 
L 308.804776 25.457323 
L 308.489552 25.305021 
L 308.174328 25.153364 
L 307.859104 25.00235 
L 307.543881 24.851981 
L 307.228657 24.702255 
L 306.913433 24.553173 
L 306.598209 24.404735 
L 306.282985 24.256942 
L 305.967761 24.109792 
L 305.652537 23.963286 
L 305.337313 23.817424 
L 305.02209 23.672207 
L 304.706866 23.527633 
L 304.391642 23.383703 
L 304.076418 23.240417 
L 303.761194 23.097775 
L 303.44597 22.955777 
L 303.130746 22.814424 
L 302.815522 22.673714 
L 302.500299 22.533648 
L 302.185075 22.394226 
L 301.869851 22.255448 
L 301.554627 22.117314 
L 301.239403 21.979824 
L 300.924179 21.842978 
L 300.608955 21.706776 
L 300.293731 21.571218 
L 299.978507 21.436303 
L 299.663284 21.302033 
L 299.34806 21.168407 
L 299.032836 21.035425 
L 298.717612 20.903087 
L 298.402388 20.771393 
L 298.087164 20.640342 
L 297.77194 20.509936 
L 297.456716 20.380174 
L 297.141493 20.251056 
L 296.826269 20.122581 
L 296.511045 19.994751 
L 296.195821 19.867565 
L 295.880597 19.741022 
L 295.565373 19.615124 
L 295.250149 19.48987 
L 294.934925 19.365259 
L 294.619701 19.241293 
L 294.304478 19.117971 
L 293.989254 18.995292 
L 293.67403 18.873258 
L 293.358806 18.751867 
L 293.043582 18.631121 
L 292.728358 18.511018 
L 292.413134 18.39156 
L 292.09791 18.272745 
L 291.782687 18.154574 
L 291.467463 18.037048 
L 291.152239 17.920165 
L 290.837015 17.803927 
L 290.521791 17.688332 
L 290.206567 17.573381 
L 289.891343 17.459075 
L 289.576119 17.345412 
L 289.260896 17.232393 
L 288.945672 17.120018 
L 288.630448 17.008288 
L 288.315224 16.897201 
L 288 16.786758 
L 287.684776 16.676959 
L 287.369552 16.567804 
L 287.054328 16.459293 
L 286.739104 16.351427 
L 286.423881 16.244204 
L 286.108657 16.137625 
L 285.793433 16.03169 
L 285.478209 15.926399 
L 285.162985 15.821752 
L 284.847761 15.717749 
L 284.532537 15.61439 
L 284.217313 15.511675 
L 283.90209 15.409604 
L 283.586866 15.308177 
L 283.271642 15.207394 
L 282.956418 15.107255 
L 282.641194 15.00776 
L 282.32597 14.908908 
L 282.010746 14.810701 
L 281.695522 14.713138 
L 281.380299 14.616219 
L 281.065075 14.519944 
L 280.749851 14.424312 
L 280.434627 14.329325 
L 280.119403 14.234982 
L 279.804179 14.141283 
L 279.488955 14.048227 
L 279.173731 13.955816 
L 278.858507 13.864049 
L 278.543284 13.772925 
L 278.22806 13.682446 
L 277.912836 13.59261 
L 277.597612 13.503419 
L 277.282388 13.414872 
L 276.967164 13.326968 
L 276.65194 13.239709 
L 276.336716 13.153093 
L 276.021493 13.067122 
L 275.706269 12.981794 
L 275.391045 12.897111 
L 275.075821 12.813071 
L 274.760597 12.729675 
L 274.445373 12.646924 
L 274.130149 12.564816 
L 273.814925 12.483353 
L 273.499701 12.402533 
L 273.184478 12.322357 
L 272.869254 12.242826 
L 272.55403 12.163938 
L 272.238806 12.085694 
L 271.923582 12.008094 
L 271.608358 11.931139 
L 271.293134 11.854827 
L 270.97791 11.779159 
L 270.662687 11.704135 
L 270.347463 11.629755 
L 270.032239 11.556019 
L 269.717015 11.482928 
L 269.401791 11.41048 
L 269.086567 11.338676 
L 268.771343 11.267516 
L 268.456119 11.197 
L 268.140896 11.127128 
L 267.825672 11.0579 
L 267.510448 10.989316 
L 267.195224 10.921376 
L 266.88 10.85408 
L 266.564776 10.787428 
L 266.249552 10.72142 
L 265.934328 10.656055 
L 265.619104 10.591335 
L 265.303881 10.527259 
L 264.988657 10.463827 
L 264.673433 10.401039 
L 264.358209 10.338895 
L 264.042985 10.277394 
L 263.727761 10.216538 
L 263.412537 10.156326 
L 263.097313 10.096758 
L 262.78209 10.037833 
L 262.466866 9.979553 
L 262.151642 9.921917 
L 261.836418 9.864924 
L 261.521194 9.808576 
L 261.20597 9.752872 
L 260.890746 9.697811 
L 260.575522 9.643395 
L 260.260299 9.589622 
L 259.945075 9.536494 
L 259.629851 9.484009 
L 259.314627 9.432169 
L 258.999403 9.380972 
L 258.684179 9.33042 
L 258.368955 9.280511 
L 258.053731 9.231247 
L 257.738507 9.182626 
L 257.423284 9.13465 
L 257.10806 9.087317 
L 256.792836 9.040628 
L 256.477612 8.994584 
L 256.162388 8.949183 
L 255.847164 8.904426 
L 255.53194 8.860313 
L 255.216716 8.816845 
L 254.901493 8.77402 
L 254.586269 8.731839 
L 254.271045 8.690302 
L 253.955821 8.64941 
L 253.640597 8.609161 
L 253.325373 8.569556 
L 253.010149 8.530595 
L 252.694925 8.492278 
L 252.379701 8.454605 
L 252.064478 8.417576 
L 251.749254 8.381191 
L 251.43403 8.34545 
L 251.118806 8.310353 
L 250.803582 8.2759 
L 250.488358 8.242091 
L 250.173134 8.208926 
L 249.85791 8.176405 
L 249.542687 8.144528 
L 249.227463 8.113295 
L 248.912239 8.082706 
L 248.597015 8.052761 
L 248.281791 8.02346 
L 247.966567 7.994803 
L 247.651343 7.966789 
L 247.336119 7.93942 
L 247.020896 7.912695 
L 246.705672 7.886614 
L 246.390448 7.861176 
L 246.075224 7.836383 
L 245.76 7.812234 
L 245.444776 7.788728 
L 245.129552 7.765867 
L 244.814328 7.74365 
L 244.499104 7.722076 
L 244.183881 7.701147 
L 243.868657 7.680862 
L 243.553433 7.66122 
L 243.238209 7.642223 
L 242.922985 7.623869 
L 242.607761 7.60616 
L 242.292537 7.589094 
L 241.977313 7.572673 
L 241.66209 7.556895 
L 241.346866 7.541762 
L 241.031642 7.527272 
L 240.716418 7.513426 
L 240.401194 7.500225 
L 240.08597 7.487667 
L 239.770746 7.475754 
L 239.455522 7.464484 
L 239.140299 7.453858 
L 238.825075 7.443876 
L 238.509851 7.434539 
L 238.194627 7.425845 
L 237.879403 7.417795 
L 237.564179 7.410389 
L 237.248955 7.403628 
L 236.933731 7.39751 
L 236.618507 7.392036 
L 236.303284 7.387206 
L 235.98806 7.38302 
L 235.672836 7.379478 
L 235.357612 7.37658 
L 235.042388 7.374326 
L 234.727164 7.372717 
L 234.41194 7.371751 
L 234.096716 7.371429 
L 233.781493 7.371751 
L 233.466269 7.372717 
L 233.151045 7.374326 
L 232.835821 7.37658 
L 232.520597 7.379478 
L 232.205373 7.38302 
L 231.890149 7.387206 
L 231.574925 7.392036 
L 231.259701 7.39751 
L 230.944478 7.403628 
L 230.629254 7.410389 
L 230.31403 7.417795 
L 229.998806 7.425845 
L 229.683582 7.434539 
L 229.368358 7.443876 
L 229.053134 7.453858 
L 228.73791 7.464484 
L 228.422687 7.475754 
L 228.107463 7.487667 
L 227.792239 7.500225 
L 227.477015 7.513426 
L 227.161791 7.527272 
L 226.846567 7.541762 
L 226.531343 7.556895 
L 226.216119 7.572673 
L 225.900896 7.589094 
L 225.585672 7.60616 
L 225.270448 7.623869 
L 224.955224 7.642223 
L 224.64 7.66122 
L 224.324776 7.680862 
L 224.009552 7.701147 
L 223.694328 7.722076 
L 223.379104 7.74365 
L 223.063881 7.765867 
L 222.748657 7.788728 
L 222.433433 7.812234 
L 222.118209 7.836383 
L 221.802985 7.861176 
L 221.487761 7.886614 
L 221.172537 7.912695 
L 220.857313 7.93942 
L 220.54209 7.966789 
L 220.226866 7.994803 
L 219.911642 8.02346 
L 219.596418 8.052761 
L 219.281194 8.082706 
L 218.96597 8.113295 
L 218.650746 8.144528 
L 218.335522 8.176405 
L 218.020299 8.208926 
L 217.705075 8.242091 
L 217.389851 8.2759 
L 217.074627 8.310353 
L 216.759403 8.34545 
L 216.444179 8.381191 
L 216.128955 8.417576 
L 215.813731 8.454605 
L 215.498507 8.492278 
L 215.183284 8.530595 
L 214.86806 8.569556 
L 214.552836 8.609161 
L 214.237612 8.64941 
L 213.922388 8.690302 
L 213.607164 8.731839 
L 213.29194 8.77402 
L 212.976716 8.816845 
L 212.661493 8.860313 
L 212.346269 8.904426 
L 212.031045 8.949183 
L 211.715821 8.994584 
L 211.400597 9.040628 
L 211.085373 9.087317 
L 210.770149 9.13465 
L 210.454925 9.182626 
L 210.139701 9.231247 
L 209.824478 9.280511 
L 209.509254 9.33042 
L 209.19403 9.380972 
L 208.878806 9.432169 
L 208.563582 9.484009 
L 208.248358 9.536494 
L 207.933134 9.589622 
L 207.61791 9.643395 
L 207.302687 9.697811 
L 206.987463 9.752872 
L 206.672239 9.808576 
L 206.357015 9.864924 
L 206.041791 9.921917 
L 205.726567 9.979553 
L 205.411343 10.037833 
L 205.096119 10.096758 
L 204.780896 10.156326 
L 204.465672 10.216538 
L 204.150448 10.277394 
L 203.835224 10.338895 
L 203.52 10.401039 
L 203.204776 10.463827 
L 202.889552 10.527259 
L 202.574328 10.591335 
L 202.259104 10.656055 
L 201.943881 10.72142 
L 201.628657 10.787428 
L 201.313433 10.85408 
L 200.998209 10.921376 
L 200.682985 10.989316 
L 200.367761 11.0579 
L 200.052537 11.127128 
L 199.737313 11.197 
L 199.42209 11.267516 
L 199.106866 11.338676 
L 198.791642 11.41048 
L 198.476418 11.482928 
L 198.161194 11.556019 
L 197.84597 11.629755 
L 197.530746 11.704135 
L 197.215522 11.779159 
L 196.900299 11.854827 
L 196.585075 11.931139 
L 196.269851 12.008094 
L 195.954627 12.085694 
L 195.639403 12.163938 
L 195.324179 12.242826 
L 195.008955 12.322357 
L 194.693731 12.402533 
L 194.378507 12.483353 
L 194.063284 12.564816 
L 193.74806 12.646924 
L 193.432836 12.729675 
L 193.117612 12.813071 
L 192.802388 12.897111 
L 192.487164 12.981794 
L 192.17194 13.067122 
L 191.856716 13.153093 
L 191.541493 13.239709 
L 191.226269 13.326968 
L 190.911045 13.414872 
L 190.595821 13.503419 
L 190.280597 13.59261 
L 189.965373 13.682446 
L 189.650149 13.772925 
L 189.334925 13.864049 
L 189.019701 13.955816 
L 188.704478 14.048227 
L 188.389254 14.141283 
L 188.07403 14.234982 
L 187.758806 14.329325 
L 187.443582 14.424312 
L 187.128358 14.519944 
L 186.813134 14.616219 
L 186.49791 14.713138 
L 186.182687 14.810701 
L 185.867463 14.908908 
L 185.552239 15.00776 
L 185.237015 15.107255 
L 184.921791 15.207394 
L 184.606567 15.308177 
L 184.291343 15.409604 
L 183.976119 15.511675 
L 183.660896 15.61439 
L 183.345672 15.717749 
L 183.030448 15.821752 
L 182.715224 15.926399 
L 182.4 16.03169 
L 182.084776 16.137625 
L 181.769552 16.244204 
L 181.454328 16.351427 
L 181.139104 16.459293 
L 180.823881 16.567804 
L 180.508657 16.676959 
L 180.193433 16.786758 
L 179.878209 16.897201 
L 179.562985 17.008288 
L 179.247761 17.120018 
L 178.932537 17.232393 
L 178.617313 17.345412 
L 178.30209 17.459075 
L 177.986866 17.573381 
L 177.671642 17.688332 
L 177.356418 17.803927 
L 177.041194 17.920165 
L 176.72597 18.037048 
L 176.410746 18.154574 
L 176.095522 18.272745 
L 175.780299 18.39156 
L 175.465075 18.511018 
L 175.149851 18.631121 
L 174.834627 18.751867 
L 174.519403 18.873258 
L 174.204179 18.995292 
L 173.888955 19.117971 
L 173.573731 19.241293 
L 173.258507 19.365259 
L 172.943284 19.48987 
L 172.62806 19.615124 
L 172.312836 19.741022 
L 171.997612 19.867565 
L 171.682388 19.994751 
L 171.367164 20.122581 
L 171.05194 20.251056 
L 170.736716 20.380174 
L 170.421493 20.509936 
L 170.106269 20.640342 
L 169.791045 20.771393 
L 169.475821 20.903087 
L 169.160597 21.035425 
L 168.845373 21.168407 
L 168.530149 21.302033 
L 168.214925 21.436303 
L 167.899701 21.571218 
L 167.584478 21.706776 
L 167.269254 21.842978 
L 166.95403 21.979824 
L 166.638806 22.117314 
L 166.323582 22.255448 
L 166.008358 22.394226 
L 165.693134 22.533648 
L 165.37791 22.673714 
L 165.062687 22.814424 
L 164.747463 22.955777 
L 164.432239 23.097775 
L 164.117015 23.240417 
L 163.801791 23.383703 
L 163.486567 23.527633 
L 163.171343 23.672207 
L 162.856119 23.817424 
L 162.540896 23.963286 
L 162.225672 24.109792 
L 161.910448 24.256942 
L 161.595224 24.404735 
L 161.28 24.553173 
L 160.964776 24.702255 
L 160.649552 24.851981 
L 160.334328 25.00235 
L 160.019104 25.153364 
L 159.703881 25.305021 
L 159.388657 25.457323 
L 159.073433 25.610269 
L 158.758209 25.763858 
L 158.442985 25.918092 
L 158.127761 26.072969 
L 157.812537 26.228491 
L 157.497313 26.384656 
L 157.18209 26.541466 
L 156.866866 26.698919 
L 156.551642 26.857016 
L 156.236418 27.015758 
L 155.921194 27.175143 
L 155.60597 27.335173 
L 155.290746 27.495846 
L 154.975522 27.657163 
L 154.660299 27.819125 
L 154.345075 27.98173 
L 154.029851 28.144979 
L 153.714627 28.308872 
L 153.399403 28.47341 
L 153.084179 28.638591 
L 152.768955 28.804416 
L 152.453731 28.970885 
L 152.138507 29.137998 
L 151.823284 29.305756 
L 151.50806 29.474157 
L 151.192836 29.643202 
L 150.877612 29.812891 
L 150.562388 29.983224 
L 150.247164 30.154201 
L 149.93194 30.325822 
L 149.616716 30.498087 
L 149.301493 30.670996 
L 148.986269 30.844549 
L 148.671045 31.018746 
L 148.355821 31.193587 
L 148.040597 31.369072 
L 147.725373 31.545201 
L 147.410149 31.721974 
L 147.094925 31.899391 
L 146.779701 32.077451 
L 146.464478 32.256156 
L 146.149254 32.435505 
L 145.83403 32.615498 
L 145.518806 32.796135 
L 145.203582 32.977415 
L 144.888358 33.15934 
L 144.573134 33.341909 
L 144.25791 33.525121 
L 143.942687 33.708978 
L 143.627463 33.893479 
L 143.312239 34.078623 
L 142.997015 34.264412 
L 142.681791 34.450845 
L 142.366567 34.637921 
L 142.051343 34.825642 
L 141.736119 35.014006 
L 141.420896 35.203015 
L 141.105672 35.392667 
L 140.790448 35.582964 
L 140.475224 35.773904 
L 140.16 35.965489 
L 139.844776 36.157717 
L 139.529552 36.35059 
L 139.214328 36.544106 
L 138.899104 36.738266 
L 138.583881 36.933071 
L 138.268657 37.128519 
L 137.953433 37.324611 
L 137.638209 37.521348 
L 137.322985 37.718728 
L 137.007761 37.916752 
L 136.692537 38.115421 
L 136.377313 38.314733 
L 136.06209 38.514689 
L 135.746866 38.715289 
L 135.431642 38.916533 
L 135.116418 39.118422 
L 134.801194 39.320954 
L 134.48597 39.52413 
L 134.170746 39.72795 
L 133.855522 39.932414 
L 133.540299 40.137522 
L 133.225075 40.343274 
L 132.909851 40.54967 
L 132.594627 40.75671 
L 132.279403 40.964394 
L 131.964179 41.172722 
L 131.648955 41.381694 
L 131.333731 41.59131 
L 131.018507 41.80157 
L 130.703284 42.012474 
L 130.38806 42.224022 
L 130.072836 42.436213 
L 129.757612 42.649049 
L 129.442388 42.862529 
L 129.127164 43.076653 
L 128.81194 43.291421 
L 128.496716 43.506832 
L 128.181493 43.722888 
L 127.866269 43.939588 
L 127.551045 44.156932 
L 127.235821 44.374919 
L 126.920597 44.593551 
L 126.605373 44.812827 
L 126.290149 45.032746 
L 125.974925 45.25331 
L 125.659701 45.474518 
L 125.344478 45.696369 
L 125.029254 45.918865 
L 124.71403 46.142004 
L 124.398806 46.365788 
L 124.083582 46.590215 
L 123.768358 46.815287 
L 123.453134 47.041002 
L 123.13791 47.267362 
L 122.822687 47.494365 
L 122.507463 47.722012 
L 122.192239 47.950304 
L 121.877015 48.179239 
L 121.561791 48.408819 
L 121.246567 48.639042 
L 120.931343 48.869909 
L 120.616119 49.101421 
L 120.300896 49.333576 
L 119.985672 49.566375 
L 119.670448 49.799818 
z
" style="fill:#0000ff;fill-opacity:0.1;stroke:#0000ff;stroke-opacity:0.1;"/>
   </g>
   <g id="matplotlib.axis_1">
    <g id="xtick_1">
     <g id="line2d_1">
      <defs>
       <path d="M 0 0 
L 0 3.5 
" id="m7ec1ea5f0c" style="stroke:#000000;stroke-width:0.8;"/>
      </defs>
      <g>
       <use style="stroke:#000000;stroke-width:0.8;" x="81.68597" xlink:href="#m7ec1ea5f0c" y="162"/>
      </g>
     </g>
     <g id="text_1">
      <!-- 1940 -->
      <g transform="translate(68.96097 176.598438)scale(0.1 -0.1)">
       <defs>
        <path d="M 794 531 
L 1825 531 
L 1825 4091 
L 703 3866 
L 703 4441 
L 1819 4666 
L 2450 4666 
L 2450 531 
L 3481 531 
L 3481 0 
L 794 0 
L 794 531 
z
" id="DejaVuSans-31" transform="scale(0.015625)"/>
        <path d="M 703 97 
L 703 672 
Q 941 559 1184 500 
Q 1428 441 1663 441 
Q 2288 441 2617 861 
Q 2947 1281 2994 2138 
Q 2813 1869 2534 1725 
Q 2256 1581 1919 1581 
Q 1219 1581 811 2004 
Q 403 2428 403 3163 
Q 403 3881 828 4315 
Q 1253 4750 1959 4750 
Q 2769 4750 3195 4129 
Q 3622 3509 3622 2328 
Q 3622 1225 3098 567 
Q 2575 -91 1691 -91 
Q 1453 -91 1209 -44 
Q 966 3 703 97 
z
M 1959 2075 
Q 2384 2075 2632 2365 
Q 2881 2656 2881 3163 
Q 2881 3666 2632 3958 
Q 2384 4250 1959 4250 
Q 1534 4250 1286 3958 
Q 1038 3666 1038 3163 
Q 1038 2656 1286 2365 
Q 1534 2075 1959 2075 
z
" id="DejaVuSans-39" transform="scale(0.015625)"/>
        <path d="M 2419 4116 
L 825 1625 
L 2419 1625 
L 2419 4116 
z
M 2253 4666 
L 3047 4666 
L 3047 1625 
L 3713 1625 
L 3713 1100 
L 3047 1100 
L 3047 0 
L 2419 0 
L 2419 1100 
L 313 1100 
L 313 1709 
L 2253 4666 
z
" id="DejaVuSans-34" transform="scale(0.015625)"/>
        <path d="M 2034 4250 
Q 1547 4250 1301 3770 
Q 1056 3291 1056 2328 
Q 1056 1369 1301 889 
Q 1547 409 2034 409 
Q 2525 409 2770 889 
Q 3016 1369 3016 2328 
Q 3016 3291 2770 3770 
Q 2525 4250 2034 4250 
z
M 2034 4750 
Q 2819 4750 3233 4129 
Q 3647 3509 3647 2328 
Q 3647 1150 3233 529 
Q 2819 -91 2034 -91 
Q 1250 -91 836 529 
Q 422 1150 422 2328 
Q 422 3509 836 4129 
Q 1250 4750 2034 4750 
z
" id="DejaVuSans-30" transform="scale(0.015625)"/>
       </defs>
       <use xlink:href="#DejaVuSans-31"/>
       <use x="63.623047" xlink:href="#DejaVuSans-39"/>
       <use x="127.246094" xlink:href="#DejaVuSans-34"/>
       <use x="190.869141" xlink:href="#DejaVuSans-30"/>
      </g>
     </g>
    </g>
    <g id="xtick_2">
     <g id="line2d_2">
      <g>
       <use style="stroke:#000000;stroke-width:0.8;" x="157.339701" xlink:href="#m7ec1ea5f0c" y="162"/>
      </g>
     </g>
     <g id="text_2">
      <!-- 1960 -->
      <g transform="translate(144.614701 176.598438)scale(0.1 -0.1)">
       <defs>
        <path d="M 2113 2584 
Q 1688 2584 1439 2293 
Q 1191 2003 1191 1497 
Q 1191 994 1439 701 
Q 1688 409 2113 409 
Q 2538 409 2786 701 
Q 3034 994 3034 1497 
Q 3034 2003 2786 2293 
Q 2538 2584 2113 2584 
z
M 3366 4563 
L 3366 3988 
Q 3128 4100 2886 4159 
Q 2644 4219 2406 4219 
Q 1781 4219 1451 3797 
Q 1122 3375 1075 2522 
Q 1259 2794 1537 2939 
Q 1816 3084 2150 3084 
Q 2853 3084 3261 2657 
Q 3669 2231 3669 1497 
Q 3669 778 3244 343 
Q 2819 -91 2113 -91 
Q 1303 -91 875 529 
Q 447 1150 447 2328 
Q 447 3434 972 4092 
Q 1497 4750 2381 4750 
Q 2619 4750 2861 4703 
Q 3103 4656 3366 4563 
z
" id="DejaVuSans-36" transform="scale(0.015625)"/>
       </defs>
       <use xlink:href="#DejaVuSans-31"/>
       <use x="63.623047" xlink:href="#DejaVuSans-39"/>
       <use x="127.246094" xlink:href="#DejaVuSans-36"/>
       <use x="190.869141" xlink:href="#DejaVuSans-30"/>
      </g>
     </g>
    </g>
    <g id="xtick_3">
     <g id="line2d_3">
      <g>
       <use style="stroke:#000000;stroke-width:0.8;" x="232.993433" xlink:href="#m7ec1ea5f0c" y="162"/>
      </g>
     </g>
     <g id="text_3">
      <!-- 1980 -->
      <g transform="translate(220.268433 176.598438)scale(0.1 -0.1)">
       <defs>
        <path d="M 2034 2216 
Q 1584 2216 1326 1975 
Q 1069 1734 1069 1313 
Q 1069 891 1326 650 
Q 1584 409 2034 409 
Q 2484 409 2743 651 
Q 3003 894 3003 1313 
Q 3003 1734 2745 1975 
Q 2488 2216 2034 2216 
z
M 1403 2484 
Q 997 2584 770 2862 
Q 544 3141 544 3541 
Q 544 4100 942 4425 
Q 1341 4750 2034 4750 
Q 2731 4750 3128 4425 
Q 3525 4100 3525 3541 
Q 3525 3141 3298 2862 
Q 3072 2584 2669 2484 
Q 3125 2378 3379 2068 
Q 3634 1759 3634 1313 
Q 3634 634 3220 271 
Q 2806 -91 2034 -91 
Q 1263 -91 848 271 
Q 434 634 434 1313 
Q 434 1759 690 2068 
Q 947 2378 1403 2484 
z
M 1172 3481 
Q 1172 3119 1398 2916 
Q 1625 2713 2034 2713 
Q 2441 2713 2670 2916 
Q 2900 3119 2900 3481 
Q 2900 3844 2670 4047 
Q 2441 4250 2034 4250 
Q 1625 4250 1398 4047 
Q 1172 3844 1172 3481 
z
" id="DejaVuSans-38" transform="scale(0.015625)"/>
       </defs>
       <use xlink:href="#DejaVuSans-31"/>
       <use x="63.623047" xlink:href="#DejaVuSans-39"/>
       <use x="127.246094" xlink:href="#DejaVuSans-38"/>
       <use x="190.869141" xlink:href="#DejaVuSans-30"/>
      </g>
     </g>
    </g>
    <g id="xtick_4">
     <g id="line2d_4">
      <g>
       <use style="stroke:#000000;stroke-width:0.8;" x="308.647164" xlink:href="#m7ec1ea5f0c" y="162"/>
      </g>
     </g>
     <g id="text_4">
      <!-- 2000 -->
      <g transform="translate(295.922164 176.598438)scale(0.1 -0.1)">
       <defs>
        <path d="M 1228 531 
L 3431 531 
L 3431 0 
L 469 0 
L 469 531 
Q 828 903 1448 1529 
Q 2069 2156 2228 2338 
Q 2531 2678 2651 2914 
Q 2772 3150 2772 3378 
Q 2772 3750 2511 3984 
Q 2250 4219 1831 4219 
Q 1534 4219 1204 4116 
Q 875 4013 500 3803 
L 500 4441 
Q 881 4594 1212 4672 
Q 1544 4750 1819 4750 
Q 2544 4750 2975 4387 
Q 3406 4025 3406 3419 
Q 3406 3131 3298 2873 
Q 3191 2616 2906 2266 
Q 2828 2175 2409 1742 
Q 1991 1309 1228 531 
z
" id="DejaVuSans-32" transform="scale(0.015625)"/>
       </defs>
       <use xlink:href="#DejaVuSans-32"/>
       <use x="63.623047" xlink:href="#DejaVuSans-30"/>
       <use x="127.246094" xlink:href="#DejaVuSans-30"/>
       <use x="190.869141" xlink:href="#DejaVuSans-30"/>
      </g>
     </g>
    </g>
    <g id="xtick_5">
     <g id="line2d_5">
      <g>
       <use style="stroke:#000000;stroke-width:0.8;" x="384.300896" xlink:href="#m7ec1ea5f0c" y="162"/>
      </g>
     </g>
     <g id="text_5">
      <!-- 2020 -->
      <g transform="translate(371.575896 176.598438)scale(0.1 -0.1)">
       <use xlink:href="#DejaVuSans-32"/>
       <use x="63.623047" xlink:href="#DejaVuSans-30"/>
       <use x="127.246094" xlink:href="#DejaVuSans-32"/>
       <use x="190.869141" xlink:href="#DejaVuSans-30"/>
      </g>
     </g>
    </g>
   </g>
   <g id="matplotlib.axis_2">
    <g id="ytick_1">
     <g id="line2d_6">
      <defs>
       <path d="M 0 0 
L -3.5 0 
" id="m8c8cfe787e" style="stroke:#000000;stroke-width:0.8;"/>
      </defs>
      <g>
       <use style="stroke:#000000;stroke-width:0.8;" x="34.56" xlink:href="#m8c8cfe787e" y="152.267446"/>
      </g>
     </g>
     <g id="text_6">
      <!-- 100 -->
      <g transform="translate(0.092813 156.066665)scale(0.1 -0.1)">
       <defs>
        <path d="M 678 2272 
L 4684 2272 
L 4684 1741 
L 678 1741 
L 678 2272 
z
" id="DejaVuSans-2212" transform="scale(0.015625)"/>
       </defs>
       <use xlink:href="#DejaVuSans-2212"/>
       <use x="83.789062" xlink:href="#DejaVuSans-31"/>
       <use x="147.412109" xlink:href="#DejaVuSans-30"/>
       <use x="211.035156" xlink:href="#DejaVuSans-30"/>
      </g>
     </g>
    </g>
    <g id="ytick_2">
     <g id="line2d_7">
      <g>
       <use style="stroke:#000000;stroke-width:0.8;" x="34.56" xlink:href="#m8c8cfe787e" y="117.533723"/>
      </g>
     </g>
     <g id="text_7">
      <!-- 50 -->
      <g transform="translate(6.455313 121.332942)scale(0.1 -0.1)">
       <defs>
        <path d="M 691 4666 
L 3169 4666 
L 3169 4134 
L 1269 4134 
L 1269 2991 
Q 1406 3038 1543 3061 
Q 1681 3084 1819 3084 
Q 2600 3084 3056 2656 
Q 3513 2228 3513 1497 
Q 3513 744 3044 326 
Q 2575 -91 1722 -91 
Q 1428 -91 1123 -41 
Q 819 9 494 109 
L 494 744 
Q 775 591 1075 516 
Q 1375 441 1709 441 
Q 2250 441 2565 725 
Q 2881 1009 2881 1497 
Q 2881 1984 2565 2268 
Q 2250 2553 1709 2553 
Q 1456 2553 1204 2497 
Q 953 2441 691 2322 
L 691 4666 
z
" id="DejaVuSans-35" transform="scale(0.015625)"/>
       </defs>
       <use xlink:href="#DejaVuSans-2212"/>
       <use x="83.789062" xlink:href="#DejaVuSans-35"/>
       <use x="147.412109" xlink:href="#DejaVuSans-30"/>
      </g>
     </g>
    </g>
    <g id="ytick_3">
     <g id="line2d_8">
      <g>
       <use style="stroke:#000000;stroke-width:0.8;" x="34.56" xlink:href="#m8c8cfe787e" y="82.8"/>
      </g>
     </g>
     <g id="text_8">
      <!-- 0 -->
      <g transform="translate(21.1975 86.599219)scale(0.1 -0.1)">
       <use xlink:href="#DejaVuSans-30"/>
      </g>
     </g>
    </g>
    <g id="ytick_4">
     <g id="line2d_9">
      <g>
       <use style="stroke:#000000;stroke-width:0.8;" x="34.56" xlink:href="#m8c8cfe787e" y="48.066277"/>
      </g>
     </g>
     <g id="text_9">
      <!-- 50 -->
      <g transform="translate(14.835 51.865496)scale(0.1 -0.1)">
       <use xlink:href="#DejaVuSans-35"/>
       <use x="63.623047" xlink:href="#DejaVuSans-30"/>
      </g>
     </g>
    </g>
    <g id="ytick_5">
     <g id="line2d_10">
      <g>
       <use style="stroke:#000000;stroke-width:0.8;" x="34.56" xlink:href="#m8c8cfe787e" y="13.332554"/>
      </g>
     </g>
     <g id="text_10">
      <!-- 100 -->
      <g transform="translate(8.4725 17.131773)scale(0.1 -0.1)">
       <use xlink:href="#DejaVuSans-31"/>
       <use x="63.623047" xlink:href="#DejaVuSans-30"/>
       <use x="127.246094" xlink:href="#DejaVuSans-30"/>
      </g>
     </g>
    </g>
   </g>
   <g id="line2d_11">
    <path clip-path="url(#p487a67a3c0)" d="M 62.930149 83.026674 
L 63.875821 83.217697 
L 64.191045 83.686719 
L 64.506269 83.941143 
L 65.136716 84.760275 
L 65.45194 84.906678 
L 65.767164 85.341332 
L 66.082388 85.15085 
L 66.712836 85.464754 
L 67.02806 85.58185 
L 67.343284 85.46741 
L 67.658507 85.515367 
L 68.604179 84.865486 
L 69.234627 84.616545 
L 69.549851 84.695811 
L 69.865075 84.658642 
L 70.180299 84.797994 
L 70.810746 84.780189 
L 71.12597 84.850025 
L 71.756418 84.674493 
L 72.70209 84.077793 
L 73.647761 83.807573 
L 73.962985 83.801201 
L 74.908657 84.139849 
L 75.539104 83.809339 
L 75.854328 83.546689 
L 76.484776 83.457046 
L 79.321791 83.428966 
L 79.952239 83.118874 
L 80.267463 82.838956 
L 81.213134 82.737299 
L 81.528358 82.752801 
L 82.158806 82.393713 
L 82.47403 82.401564 
L 83.734925 81.614484 
L 84.365373 81.447155 
L 85.311045 81.574542 
L 85.941493 81.23352 
L 86.256716 81.181177 
L 87.202388 80.789399 
L 88.463284 80.234041 
L 89.408955 80.148485 
L 89.724179 80.019956 
L 90.039403 79.69275 
L 90.669851 79.50047 
L 91.930746 78.884075 
L 94.452537 79.057928 
L 94.767761 78.963266 
L 95.082985 78.748456 
L 95.713433 78.7488 
L 96.028657 78.399785 
L 96.659104 78.334566 
L 98.235224 78.635138 
L 98.865672 78.340653 
L 99.496119 77.887966 
L 99.811343 77.7962 
L 100.126567 77.958134 
L 100.441791 77.954945 
M 119.670448 77.999691 
L 120.616119 78.163125 
L 122.192239 77.687779 
L 123.13791 77.654993 
L 124.398806 77.352147 
L 125.344478 76.88627 
L 125.974925 76.6196 
L 126.290149 76.262791 
L 126.920597 76.234689 
L 127.866269 76.459543 
L 128.496716 76.391091 
L 131.018507 76.509724 
L 131.333731 76.59851 
L 131.964179 76.291857 
L 132.279403 76.060104 
L 132.909851 75.968738 
L 133.225075 76.025385 
L 133.855522 75.830806 
L 134.48597 75.875897 
L 135.431642 75.717127 
L 137.322985 76.112788 
L 137.638209 76.354059 
L 139.214328 76.230242 
L 139.844776 76.327421 
L 140.475224 76.276729 
L 141.420896 76.419339 
L 141.736119 76.321372 
L 142.366567 76.385289 
L 142.681791 76.372323 
L 142.997015 76.235933 
L 143.312239 76.32261 
L 143.942687 76.251537 
L 144.573134 76.349134 
L 144.888358 76.232942 
L 145.518806 76.495297 
L 145.83403 76.528207 
L 146.149254 76.680296 
L 146.779701 76.651309 
L 147.094925 76.770995 
L 147.410149 76.676673 
L 148.671045 76.992034 
L 150.247164 77.331188 
L 150.562388 77.507141 
L 150.877612 77.547439 
L 151.823284 78.036859 
L 152.453731 77.871584 
L 153.714627 78.195301 
L 154.345075 78.011819 
L 154.975522 78.039404 
L 155.60597 78.106421 
L 156.236418 78.328744 
L 156.551642 78.116571 
L 157.18209 78.131601 
L 157.812537 78.305284 
L 158.127761 78.322214 
L 158.442985 78.21243 
L 161.28 78.53823 
L 161.910448 78.750501 
L 162.225672 78.897959 
L 162.540896 78.878457 
L 163.486567 79.181308 
L 165.062687 79.279935 
L 165.693134 79.600134 
L 166.008358 79.560462 
L 166.638806 79.764183 
L 167.899701 79.901448 
L 170.421493 79.335414 
L 171.05194 79.307021 
L 171.367164 79.211947 
L 171.682388 79.32398 
L 172.62806 79.14274 
L 174.204179 79.307776 
L 174.834627 79.242404 
L 175.149851 79.301336 
L 175.780299 79.249729 
L 178.30209 79.994749 
L 178.932537 79.927714 
L 179.247761 79.86498 
L 180.508657 80.109737 
L 181.139104 80.316164 
L 182.084776 80.481091 
L 183.660896 80.39559 
L 184.921791 80.789634 
L 185.552239 80.734628 
L 185.867463 80.781264 
L 186.49791 80.699368 
L 187.443582 80.910976 
L 190.280597 81.085633 
L 190.911045 81.2493 
L 191.541493 81.062927 
L 192.802388 81.019678 
L 193.74806 81.004604 
L 194.063284 81.20824 
L 194.693731 81.306155 
L 195.324179 81.0937 
L 196.269851 81.207362 
L 196.585075 81.284045 
L 196.900299 81.519703 
L 198.791642 81.806248 
L 199.106866 81.73293 
L 199.737313 81.914282 
L 200.052537 81.918995 
L 200.682985 82.18779 
L 201.628657 82.41752 
L 202.574328 82.771083 
L 203.52 82.507978 
L 204.150448 82.794811 
L 204.465672 82.865366 
L 204.780896 83.108073 
L 206.041791 83.433696 
L 206.672239 83.285482 
L 207.61791 83.481226 
L 207.933134 83.460593 
L 208.248358 83.57933 
L 209.19403 83.385189 
L 209.824478 83.26193 
L 211.085373 83.303239 
L 211.715821 83.215303 
L 212.976716 83.152621 
L 214.552836 83.019598 
L 216.128955 82.872141 
L 216.444179 82.992084 
L 218.020299 82.947653 
L 218.650746 82.806476 
L 218.96597 82.775763 
L 219.596418 83.112524 
L 220.226866 83.354949 
L 222.433433 83.064375 
L 222.748657 82.958367 
L 223.063881 83.106258 
L 223.379104 83.011881 
L 224.324776 83.103379 
L 225.900896 82.956962 
L 226.216119 83.062353 
L 226.531343 82.991975 
L 227.477015 83.14195 
L 227.792239 83.06347 
L 228.422687 83.206611 
L 228.73791 83.22479 
L 230.944478 82.490692 
L 231.574925 82.589178 
L 231.890149 82.595018 
L 232.205373 82.450245 
L 232.835821 82.379602 
L 233.466269 82.06101 
L 234.096716 82.04602 
L 234.727164 82.124328 
L 236.303284 82.314308 
L 237.564179 82.421227 
L 237.879403 82.402892 
L 238.509851 82.633918 
L 238.825075 82.523636 
L 239.140299 82.629908 
L 240.401194 82.455621 
L 241.031642 82.050882 
L 242.607761 81.581841 
L 244.183881 81.210831 
L 244.814328 81.173902 
L 247.336119 81.185949 
L 247.651343 80.925809 
L 253.010149 80.464657 
L 253.640597 80.637153 
L 258.999403 80.483377 
L 260.575522 80.71171 
L 262.151642 80.984175 
L 263.412537 81.240241 
L 264.673433 81.54317 
L 265.303881 81.480717 
L 266.88 81.955306 
L 267.510448 81.932141 
L 268.456119 81.789701 
L 269.086567 82.150761 
L 270.032239 82.601371 
L 270.662687 82.333546 
L 271.293134 82.394876 
L 273.184478 82.230684 
L 273.499701 82.314912 
L 274.130149 82.189978 
L 275.391045 82.371678 
L 276.021493 82.619713 
L 277.282388 82.801955 
L 277.912836 82.659363 
L 278.22806 82.682267 
L 278.543284 82.566232 
L 279.173731 82.575295 
L 279.488955 82.589628 
L 279.804179 82.8 
L 280.119403 82.537864 
L 282.641194 82.483926 
L 282.956418 82.30095 
L 283.586866 82.497742 
L 284.847761 82.351066 
L 286.108657 82.376702 
L 286.423881 82.229209 
L 286.739104 82.213154 
L 287.054328 82.426894 
L 288.945672 82.481904 
L 289.576119 82.453412 
L 290.521791 82.668673 
L 291.152239 82.972955 
L 291.782687 83.000075 
L 292.09791 82.918031 
L 292.413134 83.036278 
L 292.728358 82.832303 
L 293.358806 82.767478 
L 293.989254 82.505688 
L 296.195821 82.541391 
L 296.511045 82.413771 
L 296.826269 82.487427 
L 298.402388 82.299351 
L 299.032836 82.371738 
L 299.978507 82.22246 
L 300.608955 82.248186 
L 302.815522 82.374884 
L 303.130746 82.506235 
L 303.761194 82.398531 
L 304.076418 82.578312 
L 305.02209 82.426343 
L 305.337313 82.620716 
L 305.652537 82.610357 
L 306.598209 83.002068 
L 307.228657 83.264277 
L 307.543881 83.136816 
L 308.174328 83.212288 
L 312.272239 83.812414 
L 312.902687 83.785474 
L 313.533134 83.987333 
L 314.163582 84.532314 
L 315.109254 85.119424 
L 315.424478 85.108685 
L 316.685373 85.68706 
L 317.315821 85.964057 
L 319.207164 86.933834 
L 319.837612 86.796265 
L 320.152836 87.015897 
L 320.46806 87.042004 
L 320.783284 86.917402 
L 321.413731 87.20798 
L 322.044179 87.734929 
L 322.359403 87.929616 
L 322.674627 87.765404 
L 322.989851 87.799627 
L 323.305075 87.704297 
L 323.620299 87.481306 
L 324.250746 87.784368 
L 325.826866 88.806263 
L 328.033433 89.571332 
L 328.663881 89.938374 
L 329.924776 90.677355 
L 330.555224 90.50324 
L 331.500896 90.656017 
L 331.816119 91.004629 
L 335.283582 92.497302 
L 336.229254 92.535241 
L 336.859701 92.697574 
L 338.751045 93.499198 
L 339.066269 93.454475 
L 339.381493 93.294965 
L 340.01194 93.352633 
L 340.642388 92.966632 
L 340.957612 92.740193 
L 341.272836 92.903372 
L 342.533731 92.890492 
L 342.848955 92.902573 
L 343.479403 93.073768 
L 343.794627 92.760706 
L 345.055522 92.391022 
L 346.001194 92.572413 
L 346.316418 92.486916 
L 346.631642 92.51662 
L 346.946866 92.341356 
L 347.577313 92.228012 
L 347.892537 92.152489 
L 348.207761 91.946132 
L 348.522985 91.966108 
L 349.153433 92.200905 
L 349.468657 92.216522 
L 349.783881 92.372144 
L 350.099104 92.043935 
L 350.729552 92.07771 
L 351.675224 91.508798 
L 353.251343 91.076598 
L 353.566567 90.955936 
L 354.197015 91.085405 
L 354.512239 91.17463 
L 354.827463 90.930729 
L 355.142687 91.051808 
L 355.773134 90.908346 
L 356.718806 90.818982 
L 357.03403 90.808897 
L 357.349254 90.681529 
L 357.664478 90.734515 
L 358.294925 90.556611 
L 358.925373 90.53882 
L 359.871045 90.174115 
L 360.186269 90.052099 
L 361.447164 90.203351 
L 362.70806 89.213561 
L 364.284179 88.605934 
L 364.599403 88.592521 
L 364.914627 88.397605 
L 365.860299 88.460608 
L 366.490746 88.333216 
L 367.121194 87.972342 
L 367.436418 87.899279 
L 367.751642 87.604852 
L 368.066866 87.558931 
L 368.697313 87.272455 
L 369.012537 87.315077 
L 369.327761 87.102231 
L 370.273433 87.170906 
L 370.588657 86.948231 
L 371.219104 86.820887 
L 372.164776 86.349476 
L 372.795224 86.330316 
L 373.425672 85.991247 
L 374.056119 85.816817 
L 374.371343 85.791347 
L 375.317015 85.350619 
L 376.262687 85.581526 
L 376.893134 85.645036 
L 377.523582 85.496026 
L 377.838806 85.207356 
L 378.784478 84.929368 
L 379.099701 84.586473 
L 379.730149 84.313442 
L 380.045373 84.033845 
L 380.675821 84.241621 
L 380.991045 83.910301 
L 381.306269 83.957308 
L 382.567164 83.522577 
L 382.882388 83.227342 
L 384.143284 83.042154 
L 384.458507 83.069971 
L 384.773731 83.221591 
L 385.088955 83.236965 
L 385.719403 82.872685 
L 386.349851 82.8 
L 386.349851 82.8 
" style="fill:none;stroke:#1f77b4;stroke-linecap:square;stroke-width:1.5;"/>
   </g>
   <g id="line2d_12">
    <path clip-path="url(#p487a67a3c0)" d="M 34.56 82.8 
L 414.72 82.8 
" style="fill:none;stroke:#000000;stroke-dasharray:1.5,2.475;stroke-dashoffset:0;stroke-width:1.5;"/>
   </g>
   <g id="patch_3">
    <path d="M 34.56 162 
L 34.56 3.6 
" style="fill:none;stroke:#000000;stroke-linecap:square;stroke-linejoin:miter;stroke-width:0.8;"/>
   </g>
   <g id="patch_4">
    <path d="M 414.72 162 
L 414.72 3.6 
" style="fill:none;stroke:#000000;stroke-linecap:square;stroke-linejoin:miter;stroke-width:0.8;"/>
   </g>
   <g id="patch_5">
    <path d="M 34.56 162 
L 414.72 162 
" style="fill:none;stroke:#000000;stroke-linecap:square;stroke-linejoin:miter;stroke-width:0.8;"/>
   </g>
   <g id="patch_6">
    <path d="M 34.56 3.6 
L 414.72 3.6 
" style="fill:none;stroke:#000000;stroke-linecap:square;stroke-linejoin:miter;stroke-width:0.8;"/>
   </g>
  </g>
 </g>
 <defs>
  <clipPath id="p487a67a3c0">
   <rect height="158.4" width="380.16" x="34.56" y="3.6"/>
  </clipPath>
 </defs>
</svg>
