<?xml version="1.0" encoding="utf-8" standalone="no"?>
<!DOCTYPE svg PUBLIC "-//W3C//DTD SVG 1.1//EN"
  "http://www.w3.org/Graphics/SVG/1.1/DTD/svg11.dtd">
<svg height="180pt" version="1.1" viewBox="0 0 432 180" width="432pt" xmlns="http://www.w3.org/2000/svg" xmlns:xlink="http://www.w3.org/1999/xlink">
 <metadata>
  <rdf:RDF xmlns:cc="http://creativecommons.org/ns#" xmlns:dc="http://purl.org/dc/elements/1.1/" xmlns:rdf="http://www.w3.org/1999/02/22-rdf-syntax-ns#">
   <cc:Work>
    <dc:type rdf:resource="http://purl.org/dc/dcmitype/StillImage"/>
    <dc:date>2021-08-12T10:41:48.533243</dc:date>
    <dc:format>image/svg+xml</dc:format>
    <dc:creator>
     <cc:Agent>
      <dc:title>Matplotlib v3.4.2, https://matplotlib.org/</dc:title>
     </cc:Agent>
    </dc:creator>
   </cc:Work>
  </rdf:RDF>
 </metadata>
 <defs>
  <style type="text/css">*{stroke-linecap:butt;stroke-linejoin:round;}</style>
 </defs>
 <g id="figure_1">
  <g id="patch_1">
   <path d="M 0 180 
L 432 180 
L 432 0 
L 0 0 
z
" style="fill:#ffffff;"/>
  </g>
  <g id="axes_1">
   <g id="patch_2">
    <path d="M 34.56 162 
L 414.72 162 
L 414.72 3.6 
L 34.56 3.6 
z
" style="fill:#ffffff;"/>
   </g>
   <g id="PolyCollection_1">
    <path clip-path="url(#peeca357551)" d="M 110.592 81.644007 
L 110.592 83.955993 
L 110.592 81.644007 
L 110.592 81.644007 
z
" style="fill:#0000ff;fill-opacity:0.1;stroke:#0000ff;stroke-opacity:0.1;"/>
    <path clip-path="url(#peeca357551)" d="M 112.2816 80.501352 
L 112.2816 85.098648 
L 112.2816 80.501352 
L 112.2816 80.501352 
z
" style="fill:#0000ff;fill-opacity:0.1;stroke:#0000ff;stroke-opacity:0.1;"/>
    <path clip-path="url(#peeca357551)" d="M 113.9712 79.367554 
L 113.9712 86.232446 
L 114.816 87.357385 
L 115.6608 88.473467 
L 116.5056 89.580691 
L 117.3504 90.679057 
L 117.3504 74.920943 
L 117.3504 74.920943 
L 116.5056 76.019309 
L 115.6608 77.126533 
L 114.816 78.242615 
L 113.9712 79.367554 
z
" style="fill:#0000ff;fill-opacity:0.1;stroke:#0000ff;stroke-opacity:0.1;"/>
    <path clip-path="url(#peeca357551)" d="M 119.8848 73.831435 
L 119.8848 91.768565 
L 120.7296 92.849216 
L 121.5744 93.921008 
L 122.4192 94.983943 
L 123.264 96.03802 
L 124.1088 97.08324 
L 124.9536 98.119601 
L 125.7984 99.147105 
L 126.6432 100.165751 
L 126.6432 65.434249 
L 126.6432 65.434249 
L 125.7984 66.452895 
L 124.9536 67.480399 
L 124.1088 68.51676 
L 123.264 69.56198 
L 122.4192 70.616057 
L 121.5744 71.678992 
L 120.7296 72.750784 
L 119.8848 73.831435 
z
" style="fill:#0000ff;fill-opacity:0.1;stroke:#0000ff;stroke-opacity:0.1;"/>
    <path clip-path="url(#peeca357551)" d="M 129.1776 64.424461 
L 129.1776 101.175539 
L 130.0224 102.17647 
L 130.8672 103.168542 
L 130.8672 62.431458 
L 130.8672 62.431458 
L 130.0224 63.42353 
L 129.1776 64.424461 
z
" style="fill:#0000ff;fill-opacity:0.1;stroke:#0000ff;stroke-opacity:0.1;"/>
    <path clip-path="url(#peeca357551)" d="M 132.5568 61.448243 
L 132.5568 104.151757 
L 133.4016 105.126114 
L 134.2464 106.091613 
L 134.2464 59.508387 
L 134.2464 59.508387 
L 133.4016 60.473886 
L 132.5568 61.448243 
z
" style="fill:#0000ff;fill-opacity:0.1;stroke:#0000ff;stroke-opacity:0.1;"/>
    <path clip-path="url(#peeca357551)" d="M 137.6256 58.551745 
L 137.6256 107.048255 
L 138.4704 107.996038 
L 139.3152 108.934964 
L 140.16 109.865032 
L 141.0048 110.786242 
L 141.8496 111.698595 
L 142.6944 112.60209 
L 143.5392 113.496727 
L 144.384 114.382506 
L 145.2288 115.259427 
L 146.0736 116.12749 
L 146.9184 116.986696 
L 147.7632 117.837044 
L 148.608 118.678534 
L 149.4528 119.511167 
L 150.2976 120.334941 
L 151.1424 121.149858 
L 151.9872 121.955917 
L 152.832 122.753118 
L 153.6768 123.541462 
L 154.5216 124.320947 
L 155.3664 125.091575 
L 156.2112 125.853345 
L 157.056 126.606257 
L 157.9008 127.350312 
L 158.7456 128.085508 
L 159.5904 128.811847 
L 160.4352 129.529328 
L 161.28 130.237952 
L 162.1248 130.937717 
L 162.9696 131.628625 
L 163.8144 132.310675 
L 164.6592 132.983867 
L 165.504 133.648201 
L 166.3488 134.303678 
L 167.1936 134.950296 
L 168.0384 135.588057 
L 168.8832 136.216961 
L 169.728 136.837006 
L 170.5728 137.448194 
L 171.4176 138.050523 
L 172.2624 138.643995 
L 173.1072 139.22861 
L 173.952 139.804366 
L 174.7968 140.371265 
L 175.6416 140.929305 
L 176.4864 141.478489 
L 177.3312 142.018814 
L 178.176 142.550281 
L 179.0208 143.072891 
L 179.8656 143.586643 
L 180.7104 144.091537 
L 181.5552 144.587573 
L 182.4 145.074752 
L 183.2448 145.553072 
L 184.0896 146.022535 
L 184.9344 146.48314 
L 185.7792 146.934888 
L 186.624 147.377777 
L 187.4688 147.811809 
L 188.3136 148.236983 
L 189.1584 148.653299 
L 190.0032 149.060758 
L 190.848 149.459358 
L 191.6928 149.849101 
L 192.5376 150.229986 
L 193.3824 150.602013 
L 194.2272 150.965183 
L 195.072 151.319494 
L 195.072 14.280506 
L 195.072 14.280506 
L 194.2272 14.634817 
L 193.3824 14.997987 
L 192.5376 15.370014 
L 191.6928 15.750899 
L 190.848 16.140642 
L 190.0032 16.539242 
L 189.1584 16.946701 
L 188.3136 17.363017 
L 187.4688 17.788191 
L 186.624 18.222223 
L 185.7792 18.665112 
L 184.9344 19.11686 
L 184.0896 19.577465 
L 183.2448 20.046928 
L 182.4 20.525248 
L 181.5552 21.012427 
L 180.7104 21.508463 
L 179.8656 22.013357 
L 179.0208 22.527109 
L 178.176 23.049719 
L 177.3312 23.581186 
L 176.4864 24.121511 
L 175.6416 24.670695 
L 174.7968 25.228735 
L 173.952 25.795634 
L 173.1072 26.37139 
L 172.2624 26.956005 
L 171.4176 27.549477 
L 170.5728 28.151806 
L 169.728 28.762994 
L 168.8832 29.383039 
L 168.0384 30.011943 
L 167.1936 30.649704 
L 166.3488 31.296322 
L 165.504 31.951799 
L 164.6592 32.616133 
L 163.8144 33.289325 
L 162.9696 33.971375 
L 162.1248 34.662283 
L 161.28 35.362048 
L 160.4352 36.070672 
L 159.5904 36.788153 
L 158.7456 37.514492 
L 157.9008 38.249688 
L 157.056 38.993743 
L 156.2112 39.746655 
L 155.3664 40.508425 
L 154.5216 41.279053 
L 153.6768 42.058538 
L 152.832 42.846882 
L 151.9872 43.644083 
L 151.1424 44.450142 
L 150.2976 45.265059 
L 149.4528 46.088833 
L 148.608 46.921466 
L 147.7632 47.762956 
L 146.9184 48.613304 
L 146.0736 49.47251 
L 145.2288 50.340573 
L 144.384 51.217494 
L 143.5392 52.103273 
L 142.6944 52.99791 
L 141.8496 53.901405 
L 141.0048 54.813758 
L 140.16 55.734968 
L 139.3152 56.665036 
L 138.4704 57.603962 
L 137.6256 58.551745 
z
" style="fill:#0000ff;fill-opacity:0.1;stroke:#0000ff;stroke-opacity:0.1;"/>
    <path clip-path="url(#peeca357551)" d="M 196.7616 13.935052 
L 196.7616 151.664948 
L 197.6064 152.001544 
L 198.4512 152.329283 
L 199.296 152.648163 
L 200.1408 152.958186 
L 200.9856 153.259351 
L 201.8304 153.551658 
L 202.6752 153.835107 
L 203.52 154.109699 
L 204.3648 154.375432 
L 205.2096 154.632308 
L 206.0544 154.880326 
L 206.8992 155.119487 
L 207.744 155.349789 
L 208.5888 155.571234 
L 209.4336 155.783821 
L 210.2784 155.98755 
L 211.1232 156.182422 
L 211.968 156.368435 
L 212.8128 156.545591 
L 213.6576 156.713889 
L 214.5024 156.873329 
L 215.3472 157.023912 
L 216.192 157.165637 
L 217.0368 157.298503 
L 217.8816 157.422512 
L 218.7264 157.537664 
L 219.5712 157.643957 
L 220.416 157.741393 
L 221.2608 157.829971 
L 222.1056 157.909691 
L 222.9504 157.980553 
L 223.7952 158.042558 
L 224.64 158.095705 
L 225.4848 158.139994 
L 226.3296 158.175425 
L 227.1744 158.201998 
L 228.0192 158.219714 
L 228.864 158.228571 
L 229.7088 158.228571 
L 230.5536 158.219714 
L 231.3984 158.201998 
L 232.2432 158.175425 
L 233.088 158.139994 
L 233.9328 158.095705 
L 234.7776 158.042558 
L 235.6224 157.980553 
L 236.4672 157.909691 
L 237.312 157.829971 
L 238.1568 157.741393 
L 239.0016 157.643957 
L 239.8464 157.537664 
L 240.6912 157.422512 
L 241.536 157.298503 
L 242.3808 157.165637 
L 243.2256 157.023912 
L 244.0704 156.873329 
L 244.9152 156.713889 
L 245.76 156.545591 
L 246.6048 156.368435 
L 247.4496 156.182422 
L 248.2944 155.98755 
L 249.1392 155.783821 
L 249.984 155.571234 
L 250.8288 155.349789 
L 251.6736 155.119487 
L 252.5184 154.880326 
L 253.3632 154.632308 
L 254.208 154.375432 
L 255.0528 154.109699 
L 255.8976 153.835107 
L 256.7424 153.551658 
L 257.5872 153.259351 
L 258.432 152.958186 
L 259.2768 152.648163 
L 260.1216 152.329283 
L 260.9664 152.001544 
L 261.8112 151.664948 
L 262.656 151.319494 
L 263.5008 150.965183 
L 264.3456 150.602013 
L 265.1904 150.229986 
L 266.0352 149.849101 
L 266.88 149.459358 
L 267.7248 149.060758 
L 268.5696 148.653299 
L 269.4144 148.236983 
L 270.2592 147.811809 
L 271.104 147.377777 
L 271.9488 146.934888 
L 272.7936 146.48314 
L 273.6384 146.022535 
L 274.4832 145.553072 
L 275.328 145.074752 
L 276.1728 144.587573 
L 277.0176 144.091537 
L 277.8624 143.586643 
L 278.7072 143.072891 
L 279.552 142.550281 
L 280.3968 142.018814 
L 281.2416 141.478489 
L 282.0864 140.929305 
L 282.9312 140.371265 
L 283.776 139.804366 
L 284.6208 139.22861 
L 285.4656 138.643995 
L 286.3104 138.050523 
L 287.1552 137.448194 
L 288 136.837006 
L 288.8448 136.216961 
L 289.6896 135.588057 
L 290.5344 134.950296 
L 291.3792 134.303678 
L 292.224 133.648201 
L 293.0688 132.983867 
L 293.9136 132.310675 
L 294.7584 131.628625 
L 295.6032 130.937717 
L 296.448 130.237952 
L 297.2928 129.529328 
L 298.1376 128.811847 
L 298.9824 128.085508 
L 299.8272 127.350312 
L 300.672 126.606257 
L 301.5168 125.853345 
L 302.3616 125.091575 
L 303.2064 124.320947 
L 304.0512 123.541462 
L 304.896 122.753118 
L 305.7408 121.955917 
L 306.5856 121.149858 
L 307.4304 120.334941 
L 308.2752 119.511167 
L 309.12 118.678534 
L 309.9648 117.837044 
L 310.8096 116.986696 
L 311.6544 116.12749 
L 312.4992 115.259427 
L 313.344 114.382506 
L 314.1888 113.496727 
L 315.0336 112.60209 
L 315.8784 111.698595 
L 316.7232 110.786242 
L 317.568 109.865032 
L 318.4128 108.934964 
L 319.2576 107.996038 
L 320.1024 107.048255 
L 320.9472 106.091613 
L 321.792 105.126114 
L 322.6368 104.151757 
L 323.4816 103.168542 
L 324.3264 102.17647 
L 325.1712 101.175539 
L 326.016 100.165751 
L 326.8608 99.147105 
L 327.7056 98.119601 
L 328.5504 97.08324 
L 329.3952 96.03802 
L 330.24 94.983943 
L 331.0848 93.921008 
L 331.9296 92.849216 
L 332.7744 91.768565 
L 333.6192 90.679057 
L 334.464 89.580691 
L 335.3088 88.473467 
L 336.1536 87.357385 
L 336.9984 86.232446 
L 337.8432 85.098648 
L 338.688 83.955993 
L 338.688 81.644007 
L 338.688 81.644007 
L 337.8432 80.501352 
L 336.9984 79.367554 
L 336.1536 78.242615 
L 335.3088 77.126533 
L 334.464 76.019309 
L 333.6192 74.920943 
L 332.7744 73.831435 
L 331.9296 72.750784 
L 331.0848 71.678992 
L 330.24 70.616057 
L 329.3952 69.56198 
L 328.5504 68.51676 
L 327.7056 67.480399 
L 326.8608 66.452895 
L 326.016 65.434249 
L 325.1712 64.424461 
L 324.3264 63.42353 
L 323.4816 62.431458 
L 322.6368 61.448243 
L 321.792 60.473886 
L 320.9472 59.508387 
L 320.1024 58.551745 
L 319.2576 57.603962 
L 318.4128 56.665036 
L 317.568 55.734968 
L 316.7232 54.813758 
L 315.8784 53.901405 
L 315.0336 52.99791 
L 314.1888 52.103273 
L 313.344 51.217494 
L 312.4992 50.340573 
L 311.6544 49.47251 
L 310.8096 48.613304 
L 309.9648 47.762956 
L 309.12 46.921466 
L 308.2752 46.088833 
L 307.4304 45.265059 
L 306.5856 44.450142 
L 305.7408 43.644083 
L 304.896 42.846882 
L 304.0512 42.058538 
L 303.2064 41.279053 
L 302.3616 40.508425 
L 301.5168 39.746655 
L 300.672 38.993743 
L 299.8272 38.249688 
L 298.9824 37.514492 
L 298.1376 36.788153 
L 297.2928 36.070672 
L 296.448 35.362048 
L 295.6032 34.662283 
L 294.7584 33.971375 
L 293.9136 33.289325 
L 293.0688 32.616133 
L 292.224 31.951799 
L 291.3792 31.296322 
L 290.5344 30.649704 
L 289.6896 30.011943 
L 288.8448 29.383039 
L 288 28.762994 
L 287.1552 28.151806 
L 286.3104 27.549477 
L 285.4656 26.956005 
L 284.6208 26.37139 
L 283.776 25.795634 
L 282.9312 25.228735 
L 282.0864 24.670695 
L 281.2416 24.121511 
L 280.3968 23.581186 
L 279.552 23.049719 
L 278.7072 22.527109 
L 277.8624 22.013357 
L 277.0176 21.508463 
L 276.1728 21.012427 
L 275.328 20.525248 
L 274.4832 20.046928 
L 273.6384 19.577465 
L 272.7936 19.11686 
L 271.9488 18.665112 
L 271.104 18.222223 
L 270.2592 17.788191 
L 269.4144 17.363017 
L 268.5696 16.946701 
L 267.7248 16.539242 
L 266.88 16.140642 
L 266.0352 15.750899 
L 265.1904 15.370014 
L 264.3456 14.997987 
L 263.5008 14.634817 
L 262.656 14.280506 
L 261.8112 13.935052 
L 260.9664 13.598456 
L 260.1216 13.270717 
L 259.2768 12.951837 
L 258.432 12.641814 
L 257.5872 12.340649 
L 256.7424 12.048342 
L 255.8976 11.764893 
L 255.0528 11.490301 
L 254.208 11.224568 
L 253.3632 10.967692 
L 252.5184 10.719674 
L 251.6736 10.480513 
L 250.8288 10.250211 
L 249.984 10.028766 
L 249.1392 9.816179 
L 248.2944 9.61245 
L 247.4496 9.417578 
L 246.6048 9.231565 
L 245.76 9.054409 
L 244.9152 8.886111 
L 244.0704 8.726671 
L 243.2256 8.576088 
L 242.3808 8.434363 
L 241.536 8.301497 
L 240.6912 8.177488 
L 239.8464 8.062336 
L 239.0016 7.956043 
L 238.1568 7.858607 
L 237.312 7.770029 
L 236.4672 7.690309 
L 235.6224 7.619447 
L 234.7776 7.557442 
L 233.9328 7.504295 
L 233.088 7.460006 
L 232.2432 7.424575 
L 231.3984 7.398002 
L 230.5536 7.380286 
L 229.7088 7.371429 
L 228.864 7.371429 
L 228.0192 7.380286 
L 227.1744 7.398002 
L 226.3296 7.424575 
L 225.4848 7.460006 
L 224.64 7.504295 
L 223.7952 7.557442 
L 222.9504 7.619447 
L 222.1056 7.690309 
L 221.2608 7.770029 
L 220.416 7.858607 
L 219.5712 7.956043 
L 218.7264 8.062336 
L 217.8816 8.177488 
L 217.0368 8.301497 
L 216.192 8.434363 
L 215.3472 8.576088 
L 214.5024 8.726671 
L 213.6576 8.886111 
L 212.8128 9.054409 
L 211.968 9.231565 
L 211.1232 9.417578 
L 210.2784 9.61245 
L 209.4336 9.816179 
L 208.5888 10.028766 
L 207.744 10.250211 
L 206.8992 10.480513 
L 206.0544 10.719674 
L 205.2096 10.967692 
L 204.3648 11.224568 
L 203.52 11.490301 
L 202.6752 11.764893 
L 201.8304 12.048342 
L 200.9856 12.340649 
L 200.1408 12.641814 
L 199.296 12.951837 
L 198.4512 13.270717 
L 197.6064 13.598456 
L 196.7616 13.935052 
z
" style="fill:#0000ff;fill-opacity:0.1;stroke:#0000ff;stroke-opacity:0.1;"/>
   </g>
   <g id="matplotlib.axis_1">
    <g id="xtick_1">
     <g id="line2d_1">
      <defs>
       <path d="M 0 0 
L 0 3.5 
" id="mbd89080463" style="stroke:#000000;stroke-width:0.8;"/>
      </defs>
      <g>
       <use style="stroke:#000000;stroke-width:0.8;" x="79.7568" xlink:href="#mbd89080463" y="162"/>
      </g>
     </g>
     <g id="text_1">
      <!-- 1995 -->
      <g transform="translate(67.0318 176.598438)scale(0.1 -0.1)">
       <defs>
        <path d="M 794 531 
L 1825 531 
L 1825 4091 
L 703 3866 
L 703 4441 
L 1819 4666 
L 2450 4666 
L 2450 531 
L 3481 531 
L 3481 0 
L 794 0 
L 794 531 
z
" id="DejaVuSans-31" transform="scale(0.015625)"/>
        <path d="M 703 97 
L 703 672 
Q 941 559 1184 500 
Q 1428 441 1663 441 
Q 2288 441 2617 861 
Q 2947 1281 2994 2138 
Q 2813 1869 2534 1725 
Q 2256 1581 1919 1581 
Q 1219 1581 811 2004 
Q 403 2428 403 3163 
Q 403 3881 828 4315 
Q 1253 4750 1959 4750 
Q 2769 4750 3195 4129 
Q 3622 3509 3622 2328 
Q 3622 1225 3098 567 
Q 2575 -91 1691 -91 
Q 1453 -91 1209 -44 
Q 966 3 703 97 
z
M 1959 2075 
Q 2384 2075 2632 2365 
Q 2881 2656 2881 3163 
Q 2881 3666 2632 3958 
Q 2384 4250 1959 4250 
Q 1534 4250 1286 3958 
Q 1038 3666 1038 3163 
Q 1038 2656 1286 2365 
Q 1534 2075 1959 2075 
z
" id="DejaVuSans-39" transform="scale(0.015625)"/>
        <path d="M 691 4666 
L 3169 4666 
L 3169 4134 
L 1269 4134 
L 1269 2991 
Q 1406 3038 1543 3061 
Q 1681 3084 1819 3084 
Q 2600 3084 3056 2656 
Q 3513 2228 3513 1497 
Q 3513 744 3044 326 
Q 2575 -91 1722 -91 
Q 1428 -91 1123 -41 
Q 819 9 494 109 
L 494 744 
Q 775 591 1075 516 
Q 1375 441 1709 441 
Q 2250 441 2565 725 
Q 2881 1009 2881 1497 
Q 2881 1984 2565 2268 
Q 2250 2553 1709 2553 
Q 1456 2553 1204 2497 
Q 953 2441 691 2322 
L 691 4666 
z
" id="DejaVuSans-35" transform="scale(0.015625)"/>
       </defs>
       <use xlink:href="#DejaVuSans-31"/>
       <use x="63.623047" xlink:href="#DejaVuSans-39"/>
       <use x="127.246094" xlink:href="#DejaVuSans-39"/>
       <use x="190.869141" xlink:href="#DejaVuSans-35"/>
      </g>
     </g>
    </g>
    <g id="xtick_2">
     <g id="line2d_2">
      <g>
       <use style="stroke:#000000;stroke-width:0.8;" x="130.4448" xlink:href="#mbd89080463" y="162"/>
      </g>
     </g>
     <g id="text_2">
      <!-- 2000 -->
      <g transform="translate(117.7198 176.598438)scale(0.1 -0.1)">
       <defs>
        <path d="M 1228 531 
L 3431 531 
L 3431 0 
L 469 0 
L 469 531 
Q 828 903 1448 1529 
Q 2069 2156 2228 2338 
Q 2531 2678 2651 2914 
Q 2772 3150 2772 3378 
Q 2772 3750 2511 3984 
Q 2250 4219 1831 4219 
Q 1534 4219 1204 4116 
Q 875 4013 500 3803 
L 500 4441 
Q 881 4594 1212 4672 
Q 1544 4750 1819 4750 
Q 2544 4750 2975 4387 
Q 3406 4025 3406 3419 
Q 3406 3131 3298 2873 
Q 3191 2616 2906 2266 
Q 2828 2175 2409 1742 
Q 1991 1309 1228 531 
z
" id="DejaVuSans-32" transform="scale(0.015625)"/>
        <path d="M 2034 4250 
Q 1547 4250 1301 3770 
Q 1056 3291 1056 2328 
Q 1056 1369 1301 889 
Q 1547 409 2034 409 
Q 2525 409 2770 889 
Q 3016 1369 3016 2328 
Q 3016 3291 2770 3770 
Q 2525 4250 2034 4250 
z
M 2034 4750 
Q 2819 4750 3233 4129 
Q 3647 3509 3647 2328 
Q 3647 1150 3233 529 
Q 2819 -91 2034 -91 
Q 1250 -91 836 529 
Q 422 1150 422 2328 
Q 422 3509 836 4129 
Q 1250 4750 2034 4750 
z
" id="DejaVuSans-30" transform="scale(0.015625)"/>
       </defs>
       <use xlink:href="#DejaVuSans-32"/>
       <use x="63.623047" xlink:href="#DejaVuSans-30"/>
       <use x="127.246094" xlink:href="#DejaVuSans-30"/>
       <use x="190.869141" xlink:href="#DejaVuSans-30"/>
      </g>
     </g>
    </g>
    <g id="xtick_3">
     <g id="line2d_3">
      <g>
       <use style="stroke:#000000;stroke-width:0.8;" x="181.1328" xlink:href="#mbd89080463" y="162"/>
      </g>
     </g>
     <g id="text_3">
      <!-- 2005 -->
      <g transform="translate(168.4078 176.598438)scale(0.1 -0.1)">
       <use xlink:href="#DejaVuSans-32"/>
       <use x="63.623047" xlink:href="#DejaVuSans-30"/>
       <use x="127.246094" xlink:href="#DejaVuSans-30"/>
       <use x="190.869141" xlink:href="#DejaVuSans-35"/>
      </g>
     </g>
    </g>
    <g id="xtick_4">
     <g id="line2d_4">
      <g>
       <use style="stroke:#000000;stroke-width:0.8;" x="231.8208" xlink:href="#mbd89080463" y="162"/>
      </g>
     </g>
     <g id="text_4">
      <!-- 2010 -->
      <g transform="translate(219.0958 176.598438)scale(0.1 -0.1)">
       <use xlink:href="#DejaVuSans-32"/>
       <use x="63.623047" xlink:href="#DejaVuSans-30"/>
       <use x="127.246094" xlink:href="#DejaVuSans-31"/>
       <use x="190.869141" xlink:href="#DejaVuSans-30"/>
      </g>
     </g>
    </g>
    <g id="xtick_5">
     <g id="line2d_5">
      <g>
       <use style="stroke:#000000;stroke-width:0.8;" x="282.5088" xlink:href="#mbd89080463" y="162"/>
      </g>
     </g>
     <g id="text_5">
      <!-- 2015 -->
      <g transform="translate(269.7838 176.598438)scale(0.1 -0.1)">
       <use xlink:href="#DejaVuSans-32"/>
       <use x="63.623047" xlink:href="#DejaVuSans-30"/>
       <use x="127.246094" xlink:href="#DejaVuSans-31"/>
       <use x="190.869141" xlink:href="#DejaVuSans-35"/>
      </g>
     </g>
    </g>
    <g id="xtick_6">
     <g id="line2d_6">
      <g>
       <use style="stroke:#000000;stroke-width:0.8;" x="333.1968" xlink:href="#mbd89080463" y="162"/>
      </g>
     </g>
     <g id="text_6">
      <!-- 2020 -->
      <g transform="translate(320.4718 176.598438)scale(0.1 -0.1)">
       <use xlink:href="#DejaVuSans-32"/>
       <use x="63.623047" xlink:href="#DejaVuSans-30"/>
       <use x="127.246094" xlink:href="#DejaVuSans-32"/>
       <use x="190.869141" xlink:href="#DejaVuSans-30"/>
      </g>
     </g>
    </g>
    <g id="xtick_7">
     <g id="line2d_7">
      <g>
       <use style="stroke:#000000;stroke-width:0.8;" x="383.8848" xlink:href="#mbd89080463" y="162"/>
      </g>
     </g>
     <g id="text_7">
      <!-- 2025 -->
      <g transform="translate(371.1598 176.598438)scale(0.1 -0.1)">
       <use xlink:href="#DejaVuSans-32"/>
       <use x="63.623047" xlink:href="#DejaVuSans-30"/>
       <use x="127.246094" xlink:href="#DejaVuSans-32"/>
       <use x="190.869141" xlink:href="#DejaVuSans-35"/>
      </g>
     </g>
    </g>
   </g>
   <g id="matplotlib.axis_2">
    <g id="ytick_1">
     <g id="line2d_8">
      <defs>
       <path d="M 0 0 
L -3.5 0 
" id="m2142a4020b" style="stroke:#000000;stroke-width:0.8;"/>
      </defs>
      <g>
       <use style="stroke:#000000;stroke-width:0.8;" x="34.56" xlink:href="#m2142a4020b" y="156.85976"/>
      </g>
     </g>
     <g id="text_8">
      <!-- −40 -->
      <g transform="translate(6.455313 160.658979)scale(0.1 -0.1)">
       <defs>
        <path d="M 678 2272 
L 4684 2272 
L 4684 1741 
L 678 1741 
L 678 2272 
z
" id="DejaVuSans-2212" transform="scale(0.015625)"/>
        <path d="M 2419 4116 
L 825 1625 
L 2419 1625 
L 2419 4116 
z
M 2253 4666 
L 3047 4666 
L 3047 1625 
L 3713 1625 
L 3713 1100 
L 3047 1100 
L 3047 0 
L 2419 0 
L 2419 1100 
L 313 1100 
L 313 1709 
L 2253 4666 
z
" id="DejaVuSans-34" transform="scale(0.015625)"/>
       </defs>
       <use xlink:href="#DejaVuSans-2212"/>
       <use x="83.789062" xlink:href="#DejaVuSans-34"/>
       <use x="147.412109" xlink:href="#DejaVuSans-30"/>
      </g>
     </g>
    </g>
    <g id="ytick_2">
     <g id="line2d_9">
      <g>
       <use style="stroke:#000000;stroke-width:0.8;" x="34.56" xlink:href="#m2142a4020b" y="119.82988"/>
      </g>
     </g>
     <g id="text_9">
      <!-- −20 -->
      <g transform="translate(6.455313 123.629099)scale(0.1 -0.1)">
       <use xlink:href="#DejaVuSans-2212"/>
       <use x="83.789062" xlink:href="#DejaVuSans-32"/>
       <use x="147.412109" xlink:href="#DejaVuSans-30"/>
      </g>
     </g>
    </g>
    <g id="ytick_3">
     <g id="line2d_10">
      <g>
       <use style="stroke:#000000;stroke-width:0.8;" x="34.56" xlink:href="#m2142a4020b" y="82.8"/>
      </g>
     </g>
     <g id="text_10">
      <!-- 0 -->
      <g transform="translate(21.1975 86.599219)scale(0.1 -0.1)">
       <use xlink:href="#DejaVuSans-30"/>
      </g>
     </g>
    </g>
    <g id="ytick_4">
     <g id="line2d_11">
      <g>
       <use style="stroke:#000000;stroke-width:0.8;" x="34.56" xlink:href="#m2142a4020b" y="45.77012"/>
      </g>
     </g>
     <g id="text_11">
      <!-- 20 -->
      <g transform="translate(14.835 49.569339)scale(0.1 -0.1)">
       <use xlink:href="#DejaVuSans-32"/>
       <use x="63.623047" xlink:href="#DejaVuSans-30"/>
      </g>
     </g>
    </g>
    <g id="ytick_5">
     <g id="line2d_12">
      <g>
       <use style="stroke:#000000;stroke-width:0.8;" x="34.56" xlink:href="#m2142a4020b" y="8.74024"/>
      </g>
     </g>
     <g id="text_12">
      <!-- 40 -->
      <g transform="translate(14.835 12.539459)scale(0.1 -0.1)">
       <use xlink:href="#DejaVuSans-34"/>
       <use x="63.623047" xlink:href="#DejaVuSans-30"/>
      </g>
     </g>
    </g>
   </g>
   <g id="line2d_13">
    <path clip-path="url(#peeca357551)" d="M 113.9712 81.623268 
L 114.816 80.359245 
L 115.6608 80.227786 
L 116.5056 79.537823 
L 117.3504 78.538122 
M 119.8848 78.567316 
L 120.7296 78.691697 
L 121.5744 78.140323 
L 122.4192 77.855847 
L 123.264 78.257001 
L 124.1088 78.133739 
L 124.9536 77.642318 
L 125.7984 77.007451 
L 126.6432 76.999186 
M 129.1776 76.330581 
L 130.0224 75.760623 
L 130.8672 75.589778 
M 132.5568 75.674673 
L 133.4016 74.784043 
L 134.2464 73.283621 
M 137.6256 72.06729 
L 138.4704 71.5972 
L 139.3152 71.275063 
L 140.16 70.353332 
L 141.0048 70.37991 
L 141.8496 70.095413 
L 142.6944 69.590226 
L 143.5392 68.523086 
L 144.384 68.308368 
L 146.0736 67.486322 
L 146.9184 66.797519 
L 147.7632 65.410998 
L 148.608 64.80685 
L 149.4528 64.665654 
L 150.2976 64.807118 
L 151.9872 64.488095 
L 154.5216 63.012079 
L 155.3664 61.990572 
L 156.2112 61.405609 
L 157.056 61.615835 
L 157.9008 62.029424 
L 158.7456 61.003991 
L 160.4352 61.243217 
L 161.28 61.173891 
L 162.9696 62.189486 
L 163.8144 62.243265 
L 164.6592 61.863958 
L 165.504 62.373265 
L 166.3488 62.347304 
L 168.8832 64.630182 
L 169.728 64.614717 
L 171.4176 65.174376 
L 172.2624 64.644164 
L 173.952 64.318621 
L 174.7968 64.285186 
L 176.4864 63.650564 
L 177.3312 64.015607 
L 178.176 64.178388 
L 179.0208 64.126279 
L 179.8656 63.918172 
L 180.7104 63.909101 
L 181.5552 63.637917 
L 182.4 63.584497 
L 183.2448 63.404309 
L 184.0896 63.937286 
L 184.9344 63.691453 
L 185.7792 64.220051 
L 187.4688 63.960944 
L 188.3136 64.924227 
L 189.1584 65.66523 
L 190.0032 65.688153 
L 190.848 66.222582 
L 191.6928 66.994372 
L 192.5376 67.309188 
L 193.3824 66.66695 
L 194.2272 66.256757 
L 195.072 66.551917 
M 196.7616 67.728649 
L 197.6064 67.088154 
L 198.4512 67.401411 
L 200.1408 66.836139 
L 200.9856 66.486136 
L 202.6752 65.199544 
L 203.52 65.229562 
L 204.3648 65.817399 
L 205.2096 65.695839 
L 206.0544 65.696211 
L 206.8992 65.064255 
L 207.744 64.723362 
L 208.5888 63.678046 
L 209.4336 63.687176 
L 211.1232 63.149505 
L 211.968 62.484368 
L 212.8128 62.46239 
L 214.5024 61.191219 
L 216.192 62.0306 
L 217.0368 62.091981 
L 217.8816 61.364481 
L 218.7264 61.14325 
L 219.5712 60.565144 
L 220.416 60.633364 
L 221.2608 61.071706 
L 222.1056 61.786364 
L 223.7952 61.347502 
L 224.64 62.132967 
L 225.4848 62.506731 
L 227.1744 62.233778 
L 228.864 63.777484 
L 229.7088 63.170282 
L 230.5536 62.78581 
L 232.2432 63.517731 
L 233.9328 63.563691 
L 234.7776 63.791979 
L 235.6224 63.595496 
L 236.4672 64.549845 
L 237.312 65.798019 
L 239.0016 65.194035 
L 239.8464 65.331684 
L 240.6912 64.965022 
L 241.536 65.690792 
L 243.2256 65.488462 
L 244.9152 66.89735 
L 245.76 67.451241 
L 246.6048 67.818047 
L 247.4496 67.487954 
L 248.2944 66.756402 
L 249.984 67.680706 
L 250.8288 68.916835 
L 251.6736 68.459832 
L 252.5184 68.390891 
L 254.208 69.415923 
L 255.0528 68.872649 
L 256.7424 68.240389 
L 257.5872 67.889711 
L 258.432 68.14174 
L 259.2768 68.084772 
L 260.1216 68.254769 
L 260.9664 68.197268 
L 261.8112 67.815029 
L 262.656 67.823166 
L 264.3456 67.349844 
L 265.1904 66.436002 
L 266.0352 66.525089 
L 266.88 66.254389 
L 267.7248 66.909357 
L 268.5696 67.02965 
L 269.4144 66.154017 
L 271.9488 65.514617 
L 272.7936 64.973873 
L 273.6384 65.042894 
L 274.4832 66.327253 
L 276.1728 65.724935 
L 277.8624 66.161369 
L 278.7072 66.183826 
L 279.552 65.704963 
L 281.2416 65.334777 
L 282.9312 64.770407 
L 284.6208 64.785497 
L 285.4656 64.661597 
L 286.3104 65.037064 
L 287.1552 65.12859 
L 288 64.781041 
L 288.8448 65.160214 
L 289.6896 65.700957 
L 290.5344 66.463055 
L 293.0688 66.718449 
L 293.9136 66.542453 
L 294.7584 66.490457 
L 295.6032 66.730183 
L 296.448 67.491442 
L 298.1376 68.26803 
L 298.9824 68.11048 
L 299.8272 69.398782 
L 300.672 69.091708 
L 303.2064 70.954285 
L 304.0512 70.901447 
L 304.896 71.598943 
L 305.7408 71.310343 
L 306.5856 71.691686 
L 307.4304 71.945551 
L 308.2752 71.375316 
L 310.8096 70.448904 
L 312.4992 70.788333 
L 313.344 70.519987 
L 314.1888 71.655497 
L 315.0336 71.48922 
L 315.8784 71.890221 
L 316.7232 72.69397 
L 317.568 72.528106 
L 318.4128 73.631933 
L 319.2576 74.422644 
L 320.1024 74.890593 
L 320.9472 76.420769 
L 321.792 77.261204 
L 323.4816 77.487403 
L 324.3264 78.540733 
L 325.1712 78.154481 
L 326.016 78.622582 
L 326.8608 78.788707 
L 327.7056 79.645985 
L 328.5504 79.6682 
L 329.3952 80.681715 
L 330.24 81.289933 
L 331.0848 81.443492 
L 331.9296 81.408978 
L 332.7744 81.518457 
L 333.6192 81.482058 
L 334.464 80.924789 
L 335.3088 81.615737 
L 336.1536 82.844311 
L 336.9984 83.218593 
L 338.688 82.8 
L 338.688 82.8 
" style="fill:none;stroke:#1f77b4;stroke-linecap:square;stroke-width:1.5;"/>
   </g>
   <g id="line2d_14">
    <path clip-path="url(#peeca357551)" d="M 34.56 82.8 
L 414.72 82.8 
" style="fill:none;stroke:#000000;stroke-dasharray:1.5,2.475;stroke-dashoffset:0;stroke-width:1.5;"/>
   </g>
   <g id="patch_3">
    <path d="M 34.56 162 
L 34.56 3.6 
" style="fill:none;stroke:#000000;stroke-linecap:square;stroke-linejoin:miter;stroke-width:0.8;"/>
   </g>
   <g id="patch_4">
    <path d="M 414.72 162 
L 414.72 3.6 
" style="fill:none;stroke:#000000;stroke-linecap:square;stroke-linejoin:miter;stroke-width:0.8;"/>
   </g>
   <g id="patch_5">
    <path d="M 34.56 162 
L 414.72 162 
" style="fill:none;stroke:#000000;stroke-linecap:square;stroke-linejoin:miter;stroke-width:0.8;"/>
   </g>
   <g id="patch_6">
    <path d="M 34.56 3.6 
L 414.72 3.6 
" style="fill:none;stroke:#000000;stroke-linecap:square;stroke-linejoin:miter;stroke-width:0.8;"/>
   </g>
  </g>
 </g>
 <defs>
  <clipPath id="peeca357551">
   <rect height="158.4" width="380.16" x="34.56" y="3.6"/>
  </clipPath>
 </defs>
</svg>
