<?xml version="1.0" encoding="utf-8" standalone="no"?>
<!DOCTYPE svg PUBLIC "-//W3C//DTD SVG 1.1//EN"
  "http://www.w3.org/Graphics/SVG/1.1/DTD/svg11.dtd">
<svg height="180pt" version="1.1" viewBox="0 0 432 180" width="432pt" xmlns="http://www.w3.org/2000/svg" xmlns:xlink="http://www.w3.org/1999/xlink">
 <metadata>
  <rdf:RDF xmlns:cc="http://creativecommons.org/ns#" xmlns:dc="http://purl.org/dc/elements/1.1/" xmlns:rdf="http://www.w3.org/1999/02/22-rdf-syntax-ns#">
   <cc:Work>
    <dc:type rdf:resource="http://purl.org/dc/dcmitype/StillImage"/>
    <dc:date>2021-08-12T10:43:36.545316</dc:date>
    <dc:format>image/svg+xml</dc:format>
    <dc:creator>
     <cc:Agent>
      <dc:title>Matplotlib v3.4.2, https://matplotlib.org/</dc:title>
     </cc:Agent>
    </dc:creator>
   </cc:Work>
  </rdf:RDF>
 </metadata>
 <defs>
  <style type="text/css">*{stroke-linecap:butt;stroke-linejoin:round;}</style>
 </defs>
 <g id="figure_1">
  <g id="patch_1">
   <path d="M 0 180 
L 432 180 
L 432 0 
L 0 0 
z
" style="fill:#ffffff;"/>
  </g>
  <g id="axes_1">
   <g id="patch_2">
    <path d="M 34.56 162 
L 414.72 162 
L 414.72 3.6 
L 34.56 3.6 
z
" style="fill:#ffffff;"/>
   </g>
   <g id="PolyCollection_1">
    <path clip-path="url(#p43bed3f548)" d="M 64.441572 82.439098 
L 64.441572 83.160902 
L 64.441572 82.439098 
L 64.441572 82.439098 
z
" style="fill:#0000ff;fill-opacity:0.1;stroke:#0000ff;stroke-opacity:0.1;"/>
    <path clip-path="url(#p43bed3f548)" d="M 65.105607 82.079493 
L 65.105607 83.520507 
L 65.105607 82.079493 
L 65.105607 82.079493 
z
" style="fill:#0000ff;fill-opacity:0.1;stroke:#0000ff;stroke-opacity:0.1;"/>
    <path clip-path="url(#p43bed3f548)" d="M 65.769642 81.720751 
L 65.769642 83.879249 
L 66.101659 84.237127 
L 66.433677 84.594142 
L 66.765694 84.950293 
L 67.097712 85.305581 
L 67.429729 85.660006 
L 67.761747 86.013567 
L 68.093764 86.366265 
L 68.425782 86.7181 
L 68.757799 87.069071 
L 69.089817 87.419179 
L 69.421834 87.768423 
L 69.753852 88.116804 
L 70.085869 88.464321 
L 70.417886 88.810975 
L 70.749904 89.156766 
L 71.081921 89.501693 
L 71.413939 89.845757 
L 71.745956 90.188958 
L 72.077974 90.531295 
L 72.409991 90.872769 
L 72.742009 91.213379 
L 73.074026 91.553126 
L 73.406044 91.89201 
L 73.738061 92.23003 
L 74.070079 92.567187 
L 74.402096 92.90348 
L 74.734114 93.23891 
L 75.066131 93.573476 
L 75.398148 93.90718 
L 75.730166 94.240019 
L 76.062183 94.571996 
L 76.394201 94.903109 
L 76.726218 95.233358 
L 77.058236 95.562744 
L 77.390253 95.891267 
L 77.722271 96.218927 
L 77.722271 69.381073 
L 77.722271 69.381073 
L 77.390253 69.708733 
L 77.058236 70.037256 
L 76.726218 70.366642 
L 76.394201 70.696891 
L 76.062183 71.028004 
L 75.730166 71.359981 
L 75.398148 71.69282 
L 75.066131 72.026524 
L 74.734114 72.36109 
L 74.402096 72.69652 
L 74.070079 73.032813 
L 73.738061 73.36997 
L 73.406044 73.70799 
L 73.074026 74.046874 
L 72.742009 74.386621 
L 72.409991 74.727231 
L 72.077974 75.068705 
L 71.745956 75.411042 
L 71.413939 75.754243 
L 71.081921 76.098307 
L 70.749904 76.443234 
L 70.417886 76.789025 
L 70.085869 77.135679 
L 69.753852 77.483196 
L 69.421834 77.831577 
L 69.089817 78.180821 
L 68.757799 78.530929 
L 68.425782 78.8819 
L 68.093764 79.233735 
L 67.761747 79.586433 
L 67.429729 79.939994 
L 67.097712 80.294419 
L 66.765694 80.649707 
L 66.433677 81.005858 
L 66.101659 81.362873 
L 65.769642 81.720751 
z
" style="fill:#0000ff;fill-opacity:0.1;stroke:#0000ff;stroke-opacity:0.1;"/>
    <path clip-path="url(#p43bed3f548)" d="M 78.718323 69.054277 
L 78.718323 96.545723 
L 79.050341 96.871655 
L 79.382358 97.196724 
L 79.382358 68.403276 
L 79.382358 68.403276 
L 79.050341 68.728345 
L 78.718323 69.054277 
z
" style="fill:#0000ff;fill-opacity:0.1;stroke:#0000ff;stroke-opacity:0.1;"/>
    <path clip-path="url(#p43bed3f548)" d="M 80.046393 68.07907 
L 80.046393 97.52093 
L 80.37841 97.844272 
L 80.710428 98.166751 
L 81.042445 98.488367 
L 81.374463 98.809119 
L 81.70648 99.129008 
L 82.038498 99.448033 
L 82.370515 99.766195 
L 82.702533 100.083494 
L 83.03455 100.399929 
L 83.366568 100.715501 
L 83.698585 101.030209 
L 83.698585 64.569791 
L 83.698585 64.569791 
L 83.366568 64.884499 
L 83.03455 65.200071 
L 82.702533 65.516506 
L 82.370515 65.833805 
L 82.038498 66.151967 
L 81.70648 66.470992 
L 81.374463 66.790881 
L 81.042445 67.111633 
L 80.710428 67.433249 
L 80.37841 67.755728 
L 80.046393 68.07907 
z
" style="fill:#0000ff;fill-opacity:0.1;stroke:#0000ff;stroke-opacity:0.1;"/>
    <path clip-path="url(#p43bed3f548)" d="M 84.36262 64.255946 
L 84.36262 101.344054 
L 84.694638 101.657036 
L 85.026655 101.969154 
L 85.358672 102.280409 
L 85.358672 63.319591 
L 85.358672 63.319591 
L 85.026655 63.630846 
L 84.694638 63.942964 
L 84.36262 64.255946 
z
" style="fill:#0000ff;fill-opacity:0.1;stroke:#0000ff;stroke-opacity:0.1;"/>
    <path clip-path="url(#p43bed3f548)" d="M 86.022707 63.009199 
L 86.022707 102.590801 
L 86.354725 102.900329 
L 86.354725 62.699671 
L 86.354725 62.699671 
L 86.022707 63.009199 
z
" style="fill:#0000ff;fill-opacity:0.1;stroke:#0000ff;stroke-opacity:0.1;"/>
    <path clip-path="url(#p43bed3f548)" d="M 87.01876 62.391007 
L 87.01876 103.208993 
L 87.350777 103.516794 
L 87.682795 103.823732 
L 88.014812 104.129807 
L 88.34683 104.435018 
L 88.678847 104.739365 
L 88.678847 60.860635 
L 88.678847 60.860635 
L 88.34683 61.164982 
L 88.014812 61.470193 
L 87.682795 61.776268 
L 87.350777 62.083206 
L 87.01876 62.391007 
z
" style="fill:#0000ff;fill-opacity:0.1;stroke:#0000ff;stroke-opacity:0.1;"/>
    <path clip-path="url(#p43bed3f548)" d="M 89.6749 60.55715 
L 89.6749 105.04285 
L 90.006917 105.345471 
L 90.338934 105.647228 
L 90.670952 105.948122 
L 91.002969 106.248153 
L 91.334987 106.54732 
L 91.667004 106.845624 
L 91.999022 107.143064 
L 92.331039 107.439641 
L 92.331039 58.160359 
L 92.331039 58.160359 
L 91.999022 58.456936 
L 91.667004 58.754376 
L 91.334987 59.05268 
L 91.002969 59.351847 
L 90.670952 59.651878 
L 90.338934 59.952772 
L 90.006917 60.254529 
L 89.6749 60.55715 
z
" style="fill:#0000ff;fill-opacity:0.1;stroke:#0000ff;stroke-opacity:0.1;"/>
    <path clip-path="url(#p43bed3f548)" d="M 93.327092 57.864645 
L 93.327092 107.735355 
L 93.659109 108.030205 
L 93.991127 108.324192 
L 94.323144 108.617316 
L 94.655162 108.909576 
L 94.987179 109.200972 
L 94.987179 56.399028 
L 94.987179 56.399028 
L 94.655162 56.690424 
L 94.323144 56.982684 
L 93.991127 57.275808 
L 93.659109 57.569795 
L 93.327092 57.864645 
z
" style="fill:#0000ff;fill-opacity:0.1;stroke:#0000ff;stroke-opacity:0.1;"/>
    <path clip-path="url(#p43bed3f548)" d="M 95.651214 56.108494 
L 95.651214 109.491506 
L 95.983231 109.781175 
L 96.315249 110.069982 
L 96.647266 110.357925 
L 96.979284 110.645005 
L 97.311301 110.931221 
L 97.643319 111.216574 
L 97.975336 111.501063 
L 98.307354 111.78469 
L 98.639371 112.067452 
L 98.971389 112.349352 
L 99.303406 112.630387 
L 99.635424 112.91056 
L 99.967441 113.189869 
L 100.299459 113.468315 
L 100.631476 113.745897 
L 100.963493 114.022616 
L 101.295511 114.298472 
L 101.627528 114.573464 
L 101.959546 114.847592 
L 102.291563 115.120858 
L 102.291563 50.479142 
L 102.291563 50.479142 
L 101.959546 50.752408 
L 101.627528 51.026536 
L 101.295511 51.301528 
L 100.963493 51.577384 
L 100.631476 51.854103 
L 100.299459 52.131685 
L 99.967441 52.410131 
L 99.635424 52.68944 
L 99.303406 52.969613 
L 98.971389 53.250648 
L 98.639371 53.532548 
L 98.307354 53.81531 
L 97.975336 54.098937 
L 97.643319 54.383426 
L 97.311301 54.668779 
L 96.979284 54.954995 
L 96.647266 55.242075 
L 96.315249 55.530018 
L 95.983231 55.818825 
L 95.651214 56.108494 
z
" style="fill:#0000ff;fill-opacity:0.1;stroke:#0000ff;stroke-opacity:0.1;"/>
    <path clip-path="url(#p43bed3f548)" d="M 102.955598 50.20674 
L 102.955598 115.39326 
L 103.287616 115.664798 
L 103.619633 115.935473 
L 103.951651 116.205285 
L 104.283668 116.474233 
L 104.283668 49.125767 
L 104.283668 49.125767 
L 103.951651 49.394715 
L 103.619633 49.664527 
L 103.287616 49.935202 
L 102.955598 50.20674 
z
" style="fill:#0000ff;fill-opacity:0.1;stroke:#0000ff;stroke-opacity:0.1;"/>
    <path clip-path="url(#p43bed3f548)" d="M 104.947703 48.857682 
L 104.947703 116.742318 
L 105.279721 117.00954 
L 105.611738 117.275898 
L 105.943755 117.541393 
L 106.275773 117.806024 
L 106.60779 118.069792 
L 106.939808 118.332697 
L 107.271825 118.594738 
L 107.603843 118.855916 
L 107.603843 46.744084 
L 107.603843 46.744084 
L 107.271825 47.005262 
L 106.939808 47.267303 
L 106.60779 47.530208 
L 106.275773 47.793976 
L 105.943755 48.058607 
L 105.611738 48.324102 
L 105.279721 48.59046 
L 104.947703 48.857682 
z
" style="fill:#0000ff;fill-opacity:0.1;stroke:#0000ff;stroke-opacity:0.1;"/>
    <path clip-path="url(#p43bed3f548)" d="M 108.267878 46.48377 
L 108.267878 119.11623 
L 108.267878 46.48377 
L 108.267878 46.48377 
z
" style="fill:#0000ff;fill-opacity:0.1;stroke:#0000ff;stroke-opacity:0.1;"/>
    <path clip-path="url(#p43bed3f548)" d="M 109.26393 46.224319 
L 109.26393 119.375681 
L 109.26393 46.224319 
L 109.26393 46.224319 
z
" style="fill:#0000ff;fill-opacity:0.1;stroke:#0000ff;stroke-opacity:0.1;"/>
    <path clip-path="url(#p43bed3f548)" d="M 109.927965 45.965731 
L 109.927965 119.634269 
L 109.927965 45.965731 
L 109.927965 45.965731 
z
" style="fill:#0000ff;fill-opacity:0.1;stroke:#0000ff;stroke-opacity:0.1;"/>
    <path clip-path="url(#p43bed3f548)" d="M 110.592 45.708007 
L 110.592 119.891993 
L 110.592 45.708007 
L 110.592 45.708007 
z
" style="fill:#0000ff;fill-opacity:0.1;stroke:#0000ff;stroke-opacity:0.1;"/>
    <path clip-path="url(#p43bed3f548)" d="M 111.256035 45.451147 
L 111.256035 120.148853 
L 111.588052 120.404851 
L 111.588052 45.195149 
L 111.588052 45.195149 
L 111.256035 45.451147 
z
" style="fill:#0000ff;fill-opacity:0.1;stroke:#0000ff;stroke-opacity:0.1;"/>
    <path clip-path="url(#p43bed3f548)" d="M 112.252087 44.940015 
L 112.252087 120.659985 
L 112.584105 120.914255 
L 112.584105 44.685745 
L 112.584105 44.685745 
L 112.252087 44.940015 
z
" style="fill:#0000ff;fill-opacity:0.1;stroke:#0000ff;stroke-opacity:0.1;"/>
    <path clip-path="url(#p43bed3f548)" d="M 116.568314 44.432337 
L 116.568314 121.167663 
L 116.900332 121.420206 
L 117.232349 121.671887 
L 117.564367 121.922704 
L 117.896384 122.172657 
L 118.228402 122.421748 
L 118.560419 122.669974 
L 118.892437 122.917338 
L 119.224454 123.163838 
L 119.556472 123.409474 
L 119.888489 123.654248 
L 120.220507 123.898157 
L 120.552524 124.141204 
L 120.884541 124.383387 
L 121.216559 124.624706 
L 121.548576 124.865163 
L 121.880594 125.104756 
L 122.212611 125.343485 
L 122.212611 40.256515 
L 122.212611 40.256515 
L 121.880594 40.495244 
L 121.548576 40.734837 
L 121.216559 40.975294 
L 120.884541 41.216613 
L 120.552524 41.458796 
L 120.220507 41.701843 
L 119.888489 41.945752 
L 119.556472 42.190526 
L 119.224454 42.436162 
L 118.892437 42.682662 
L 118.560419 42.930026 
L 118.228402 43.178252 
L 117.896384 43.427343 
L 117.564367 43.677296 
L 117.232349 43.928113 
L 116.900332 44.179794 
L 116.568314 44.432337 
z
" style="fill:#0000ff;fill-opacity:0.1;stroke:#0000ff;stroke-opacity:0.1;"/>
    <path clip-path="url(#p43bed3f548)" d="M 123.872699 40.018649 
L 123.872699 125.581351 
L 124.204716 125.818354 
L 124.536734 126.054493 
L 124.868751 126.289769 
L 124.868751 39.310231 
L 124.868751 39.310231 
L 124.536734 39.545507 
L 124.204716 39.781646 
L 123.872699 40.018649 
z
" style="fill:#0000ff;fill-opacity:0.1;stroke:#0000ff;stroke-opacity:0.1;"/>
    <path clip-path="url(#p43bed3f548)" d="M 125.532786 39.075819 
L 125.532786 126.524181 
L 125.864803 126.75773 
L 126.196821 126.990416 
L 126.528838 127.222238 
L 126.528838 38.377762 
L 126.528838 38.377762 
L 126.196821 38.609584 
L 125.864803 38.84227 
L 125.532786 39.075819 
z
" style="fill:#0000ff;fill-opacity:0.1;stroke:#0000ff;stroke-opacity:0.1;"/>
    <path clip-path="url(#p43bed3f548)" d="M 127.524891 38.146803 
L 127.524891 127.453197 
L 127.524891 38.146803 
L 127.524891 38.146803 
z
" style="fill:#0000ff;fill-opacity:0.1;stroke:#0000ff;stroke-opacity:0.1;"/>
    <path clip-path="url(#p43bed3f548)" d="M 130.845066 37.916708 
L 130.845066 127.683292 
L 131.177083 127.912524 
L 131.177083 37.687476 
L 131.177083 37.687476 
L 130.845066 37.916708 
z
" style="fill:#0000ff;fill-opacity:0.1;stroke:#0000ff;stroke-opacity:0.1;"/>
    <path clip-path="url(#p43bed3f548)" d="M 132.83717 37.459107 
L 132.83717 128.140893 
L 133.169188 128.368398 
L 133.169188 37.231602 
L 133.169188 37.231602 
L 132.83717 37.459107 
z
" style="fill:#0000ff;fill-opacity:0.1;stroke:#0000ff;stroke-opacity:0.1;"/>
    <path clip-path="url(#p43bed3f548)" d="M 134.829275 37.00496 
L 134.829275 128.59504 
L 134.829275 37.00496 
L 134.829275 37.00496 
z
" style="fill:#0000ff;fill-opacity:0.1;stroke:#0000ff;stroke-opacity:0.1;"/>
    <path clip-path="url(#p43bed3f548)" d="M 139.809537 36.779181 
L 139.809537 128.820819 
L 140.141555 129.045734 
L 140.473572 129.269785 
L 140.80559 129.492974 
L 141.137607 129.715299 
L 141.469624 129.93676 
L 141.801642 130.157358 
L 142.133659 130.377093 
L 142.465677 130.595964 
L 142.797694 130.813972 
L 143.129712 131.031116 
L 143.461729 131.247397 
L 143.793747 131.462815 
L 144.125764 131.677369 
L 144.457782 131.89106 
L 144.789799 132.103888 
L 145.121817 132.315852 
L 145.453834 132.526953 
L 145.785852 132.73719 
L 146.117869 132.946564 
L 146.449886 133.155074 
L 146.781904 133.362722 
L 147.113921 133.569505 
L 147.445939 133.775426 
L 147.777956 133.980482 
L 148.109974 134.184676 
L 148.441991 134.388006 
L 148.774009 134.590473 
L 149.106026 134.792076 
L 149.438044 134.992816 
L 149.770061 135.192693 
L 150.102079 135.391706 
L 150.434096 135.589856 
L 150.766114 135.787142 
L 151.098131 135.983565 
L 151.430148 136.179124 
L 151.762166 136.373821 
L 152.094183 136.567653 
L 152.426201 136.760623 
L 152.758218 136.952729 
L 153.090236 137.143971 
L 153.422253 137.33435 
L 153.754271 137.523866 
L 154.086288 137.712518 
L 154.418306 137.900307 
L 154.750323 138.087233 
L 155.082341 138.273295 
L 155.414358 138.458494 
L 155.746376 138.642829 
L 156.078393 138.826301 
L 156.41041 139.00891 
L 156.742428 139.190655 
L 157.074445 139.371537 
L 157.406463 139.551555 
L 157.73848 139.73071 
L 158.070498 139.909002 
L 158.402515 140.08643 
L 158.734533 140.262995 
L 159.06655 140.438696 
L 159.398568 140.613534 
L 159.730585 140.787509 
L 160.062603 140.96062 
L 160.39462 141.132868 
L 160.726638 141.304252 
L 161.058655 141.474773 
L 161.390672 141.644431 
L 161.72269 141.813225 
L 162.054707 141.981156 
L 162.386725 142.148223 
L 162.718742 142.314427 
L 163.05076 142.479768 
L 163.382777 142.644245 
L 163.714795 142.807859 
L 164.046812 142.97061 
L 164.37883 143.132497 
L 164.710847 143.29352 
L 165.042865 143.453681 
L 165.374882 143.612977 
L 165.7069 143.771411 
L 166.038917 143.928981 
L 166.370934 144.085688 
L 166.702952 144.241531 
L 167.034969 144.396511 
L 167.366987 144.550627 
L 167.699004 144.70388 
L 168.031022 144.85627 
L 168.363039 145.007796 
L 168.695057 145.158459 
L 169.027074 145.308259 
L 169.359092 145.457195 
L 169.691109 145.605267 
L 170.023127 145.752477 
L 170.355144 145.898822 
L 170.687162 146.044305 
L 171.019179 146.188924 
L 171.351197 146.33268 
L 171.683214 146.475572 
L 172.015231 146.617601 
L 172.347249 146.758766 
L 172.679266 146.899069 
L 173.011284 147.038507 
L 173.343301 147.177083 
L 173.675319 147.314794 
L 174.007336 147.451643 
L 174.339354 147.587628 
L 174.671371 147.72275 
L 175.003389 147.857008 
L 175.335406 147.990403 
L 175.667424 148.122935 
L 175.999441 148.254603 
L 176.331459 148.385407 
L 176.663476 148.515349 
L 176.995493 148.644427 
L 177.327511 148.772641 
L 177.659528 148.899992 
L 177.991546 149.02648 
L 178.323563 149.152105 
L 178.655581 149.276865 
L 178.987598 149.400763 
L 179.319616 149.523797 
L 179.651633 149.645968 
L 179.983651 149.767275 
L 180.315668 149.887719 
L 180.647686 150.0073 
L 180.979703 150.126017 
L 181.311721 150.243871 
L 181.643738 150.360861 
L 181.975755 150.476988 
L 182.307773 150.592252 
L 182.63979 150.706652 
L 182.971808 150.820189 
L 183.303825 150.932862 
L 183.635843 151.044672 
L 183.96786 151.155619 
L 184.299878 151.265702 
L 184.631895 151.374922 
L 184.963913 151.483278 
L 185.29593 151.590771 
L 185.627948 151.697401 
L 185.959965 151.803167 
L 186.291983 151.90807 
L 186.624 152.012109 
L 186.956017 152.115285 
L 187.288035 152.217598 
L 187.620052 152.319047 
L 187.95207 152.419633 
L 188.284087 152.519355 
L 188.616105 152.618214 
L 188.948122 152.71621 
L 189.28014 152.813342 
L 189.28014 12.786658 
L 189.28014 12.786658 
L 188.948122 12.88379 
L 188.616105 12.981786 
L 188.284087 13.080645 
L 187.95207 13.180367 
L 187.620052 13.280953 
L 187.288035 13.382402 
L 186.956017 13.484715 
L 186.624 13.587891 
L 186.291983 13.69193 
L 185.959965 13.796833 
L 185.627948 13.902599 
L 185.29593 14.009229 
L 184.963913 14.116722 
L 184.631895 14.225078 
L 184.299878 14.334298 
L 183.96786 14.444381 
L 183.635843 14.555328 
L 183.303825 14.667138 
L 182.971808 14.779811 
L 182.63979 14.893348 
L 182.307773 15.007748 
L 181.975755 15.123012 
L 181.643738 15.239139 
L 181.311721 15.356129 
L 180.979703 15.473983 
L 180.647686 15.5927 
L 180.315668 15.712281 
L 179.983651 15.832725 
L 179.651633 15.954032 
L 179.319616 16.076203 
L 178.987598 16.199237 
L 178.655581 16.323135 
L 178.323563 16.447895 
L 177.991546 16.57352 
L 177.659528 16.700008 
L 177.327511 16.827359 
L 176.995493 16.955573 
L 176.663476 17.084651 
L 176.331459 17.214593 
L 175.999441 17.345397 
L 175.667424 17.477065 
L 175.335406 17.609597 
L 175.003389 17.742992 
L 174.671371 17.87725 
L 174.339354 18.012372 
L 174.007336 18.148357 
L 173.675319 18.285206 
L 173.343301 18.422917 
L 173.011284 18.561493 
L 172.679266 18.700931 
L 172.347249 18.841234 
L 172.015231 18.982399 
L 171.683214 19.124428 
L 171.351197 19.26732 
L 171.019179 19.411076 
L 170.687162 19.555695 
L 170.355144 19.701178 
L 170.023127 19.847523 
L 169.691109 19.994733 
L 169.359092 20.142805 
L 169.027074 20.291741 
L 168.695057 20.441541 
L 168.363039 20.592204 
L 168.031022 20.74373 
L 167.699004 20.89612 
L 167.366987 21.049373 
L 167.034969 21.203489 
L 166.702952 21.358469 
L 166.370934 21.514312 
L 166.038917 21.671019 
L 165.7069 21.828589 
L 165.374882 21.987023 
L 165.042865 22.146319 
L 164.710847 22.30648 
L 164.37883 22.467503 
L 164.046812 22.62939 
L 163.714795 22.792141 
L 163.382777 22.955755 
L 163.05076 23.120232 
L 162.718742 23.285573 
L 162.386725 23.451777 
L 162.054707 23.618844 
L 161.72269 23.786775 
L 161.390672 23.955569 
L 161.058655 24.125227 
L 160.726638 24.295748 
L 160.39462 24.467132 
L 160.062603 24.63938 
L 159.730585 24.812491 
L 159.398568 24.986466 
L 159.06655 25.161304 
L 158.734533 25.337005 
L 158.402515 25.51357 
L 158.070498 25.690998 
L 157.73848 25.86929 
L 157.406463 26.048445 
L 157.074445 26.228463 
L 156.742428 26.409345 
L 156.41041 26.59109 
L 156.078393 26.773699 
L 155.746376 26.957171 
L 155.414358 27.141506 
L 155.082341 27.326705 
L 154.750323 27.512767 
L 154.418306 27.699693 
L 154.086288 27.887482 
L 153.754271 28.076134 
L 153.422253 28.26565 
L 153.090236 28.456029 
L 152.758218 28.647271 
L 152.426201 28.839377 
L 152.094183 29.032347 
L 151.762166 29.226179 
L 151.430148 29.420876 
L 151.098131 29.616435 
L 150.766114 29.812858 
L 150.434096 30.010144 
L 150.102079 30.208294 
L 149.770061 30.407307 
L 149.438044 30.607184 
L 149.106026 30.807924 
L 148.774009 31.009527 
L 148.441991 31.211994 
L 148.109974 31.415324 
L 147.777956 31.619518 
L 147.445939 31.824574 
L 147.113921 32.030495 
L 146.781904 32.237278 
L 146.449886 32.444926 
L 146.117869 32.653436 
L 145.785852 32.86281 
L 145.453834 33.073047 
L 145.121817 33.284148 
L 144.789799 33.496112 
L 144.457782 33.70894 
L 144.125764 33.922631 
L 143.793747 34.137185 
L 143.461729 34.352603 
L 143.129712 34.568884 
L 142.797694 34.786028 
L 142.465677 35.004036 
L 142.133659 35.222907 
L 141.801642 35.442642 
L 141.469624 35.66324 
L 141.137607 35.884701 
L 140.80559 36.107026 
L 140.473572 36.330215 
L 140.141555 36.554266 
L 139.809537 36.779181 
z
" style="fill:#0000ff;fill-opacity:0.1;stroke:#0000ff;stroke-opacity:0.1;"/>
    <path clip-path="url(#p43bed3f548)" d="M 190.276192 12.690389 
L 190.276192 152.909611 
L 190.60821 153.005016 
L 190.940227 153.099558 
L 191.272245 153.193237 
L 191.604262 153.286052 
L 191.936279 153.378004 
L 192.268297 153.469092 
L 192.600314 153.559317 
L 192.932332 153.648679 
L 193.264349 153.737177 
L 193.596367 153.824812 
L 193.928384 153.911584 
L 194.260402 153.997492 
L 194.592419 154.082536 
L 194.924437 154.166718 
L 195.256454 154.250035 
L 195.588472 154.33249 
L 195.920489 154.414081 
L 196.252507 154.494809 
L 196.584524 154.574673 
L 196.916541 154.653674 
L 197.248559 154.731811 
L 197.580576 154.809085 
L 197.912594 154.885496 
L 198.244611 154.961043 
L 198.576629 155.035727 
L 198.908646 155.109548 
L 198.908646 10.490452 
L 198.908646 10.490452 
L 198.576629 10.564273 
L 198.244611 10.638957 
L 197.912594 10.714504 
L 197.580576 10.790915 
L 197.248559 10.868189 
L 196.916541 10.946326 
L 196.584524 11.025327 
L 196.252507 11.105191 
L 195.920489 11.185919 
L 195.588472 11.26751 
L 195.256454 11.349965 
L 194.924437 11.433282 
L 194.592419 11.517464 
L 194.260402 11.602508 
L 193.928384 11.688416 
L 193.596367 11.775188 
L 193.264349 11.862823 
L 192.932332 11.951321 
L 192.600314 12.040683 
L 192.268297 12.130908 
L 191.936279 12.221996 
L 191.604262 12.313948 
L 191.272245 12.406763 
L 190.940227 12.500442 
L 190.60821 12.594984 
L 190.276192 12.690389 
z
" style="fill:#0000ff;fill-opacity:0.1;stroke:#0000ff;stroke-opacity:0.1;"/>
    <path clip-path="url(#p43bed3f548)" d="M 201.896803 10.417495 
L 201.896803 155.182505 
L 201.896803 10.417495 
L 201.896803 10.417495 
z
" style="fill:#0000ff;fill-opacity:0.1;stroke:#0000ff;stroke-opacity:0.1;"/>
    <path clip-path="url(#p43bed3f548)" d="M 202.560838 10.345401 
L 202.560838 155.254599 
L 202.892856 155.325829 
L 203.224873 155.396196 
L 203.556891 155.465699 
L 203.888908 155.534339 
L 204.220926 155.602116 
L 204.552943 155.669029 
L 204.884961 155.735079 
L 205.216978 155.800266 
L 205.548996 155.864589 
L 205.881013 155.928049 
L 206.213031 155.990645 
L 206.545048 156.052378 
L 206.877066 156.113247 
L 207.209083 156.173254 
L 207.5411 156.232396 
L 207.873118 156.290676 
L 208.205135 156.348092 
L 208.537153 156.404644 
L 208.86917 156.460333 
L 209.201188 156.515159 
L 209.533205 156.569121 
L 209.865223 156.62222 
L 210.19724 156.674456 
L 210.529258 156.725828 
L 210.861275 156.776337 
L 211.193293 156.825982 
L 211.52531 156.874764 
L 211.857328 156.922683 
L 212.189345 156.969738 
L 212.521362 157.01593 
L 212.85338 157.061258 
L 213.185397 157.105723 
L 213.517415 157.149324 
L 213.849432 157.192063 
L 214.18145 157.233937 
L 214.513467 157.274949 
L 214.845485 157.315097 
L 215.177502 157.354381 
L 215.50952 157.392803 
L 215.841537 157.43036 
L 216.173555 157.467055 
L 216.505572 157.502886 
L 216.83759 157.537853 
L 217.169607 157.571958 
L 217.169607 8.028042 
L 217.169607 8.028042 
L 216.83759 8.062147 
L 216.505572 8.097114 
L 216.173555 8.132945 
L 215.841537 8.16964 
L 215.50952 8.207197 
L 215.177502 8.245619 
L 214.845485 8.284903 
L 214.513467 8.325051 
L 214.18145 8.366063 
L 213.849432 8.407937 
L 213.517415 8.450676 
L 213.185397 8.494277 
L 212.85338 8.538742 
L 212.521362 8.58407 
L 212.189345 8.630262 
L 211.857328 8.677317 
L 211.52531 8.725236 
L 211.193293 8.774018 
L 210.861275 8.823663 
L 210.529258 8.874172 
L 210.19724 8.925544 
L 209.865223 8.97778 
L 209.533205 9.030879 
L 209.201188 9.084841 
L 208.86917 9.139667 
L 208.537153 9.195356 
L 208.205135 9.251908 
L 207.873118 9.309324 
L 207.5411 9.367604 
L 207.209083 9.426746 
L 206.877066 9.486753 
L 206.545048 9.547622 
L 206.213031 9.609355 
L 205.881013 9.671951 
L 205.548996 9.735411 
L 205.216978 9.799734 
L 204.884961 9.864921 
L 204.552943 9.930971 
L 204.220926 9.997884 
L 203.888908 10.065661 
L 203.556891 10.134301 
L 203.224873 10.203804 
L 202.892856 10.274171 
L 202.560838 10.345401 
z
" style="fill:#0000ff;fill-opacity:0.1;stroke:#0000ff;stroke-opacity:0.1;"/>
    <path clip-path="url(#p43bed3f548)" d="M 217.833642 7.994802 
L 217.833642 157.605198 
L 218.165659 157.637576 
L 218.497677 157.66909 
L 218.829694 157.69974 
L 219.161712 157.729528 
L 219.493729 157.758451 
L 219.825747 157.786512 
L 220.157764 157.813709 
L 220.489782 157.840043 
L 220.821799 157.865513 
L 221.153817 157.89012 
L 221.485834 157.913863 
L 221.817852 157.936743 
L 222.149869 157.95876 
L 222.481886 157.979913 
L 222.813904 158.000203 
L 223.145921 158.019629 
L 223.477939 158.038192 
L 223.809956 158.055892 
L 224.141974 158.072728 
L 224.473991 158.088701 
L 224.806009 158.10381 
L 225.138026 158.118057 
L 225.470044 158.131439 
L 225.802061 158.143958 
L 226.134079 158.155614 
L 226.466096 158.166407 
L 226.798114 158.176336 
L 227.130131 158.185402 
L 227.462148 158.193604 
L 227.794166 158.200943 
L 228.126183 158.207418 
L 228.458201 158.21303 
L 228.790218 158.217779 
L 229.122236 158.221664 
L 229.454253 158.224686 
L 229.786271 158.226845 
L 230.118288 158.22814 
L 230.450306 158.228571 
L 230.782323 158.22814 
L 231.114341 158.226845 
L 231.446358 158.224686 
L 231.778376 158.221664 
L 232.110393 158.217779 
L 232.44241 158.21303 
L 232.774428 158.207418 
L 233.106445 158.200943 
L 233.438463 158.193604 
L 233.77048 158.185402 
L 234.102498 158.176336 
L 234.434515 158.166407 
L 234.766533 158.155614 
L 235.09855 158.143958 
L 235.430568 158.131439 
L 235.762585 158.118057 
L 236.094603 158.10381 
L 236.42662 158.088701 
L 236.758638 158.072728 
L 237.090655 158.055892 
L 237.422672 158.038192 
L 237.75469 158.019629 
L 238.086707 158.000203 
L 238.418725 157.979913 
L 238.750742 157.95876 
L 239.08276 157.936743 
L 239.414777 157.913863 
L 239.746795 157.89012 
L 240.078812 157.865513 
L 240.41083 157.840043 
L 240.742847 157.813709 
L 241.074865 157.786512 
L 241.406882 157.758451 
L 241.7389 157.729528 
L 242.070917 157.69974 
L 242.402934 157.66909 
L 242.734952 157.637576 
L 243.066969 157.605198 
L 243.398987 157.571958 
L 243.731004 157.537853 
L 244.063022 157.502886 
L 244.395039 157.467055 
L 244.727057 157.43036 
L 245.059074 157.392803 
L 245.391092 157.354381 
L 245.723109 157.315097 
L 246.055127 157.274949 
L 246.387144 157.233937 
L 246.719162 157.192063 
L 247.051179 157.149324 
L 247.383197 157.105723 
L 247.715214 157.061258 
L 248.047231 157.01593 
L 248.379249 156.969738 
L 248.711266 156.922683 
L 249.043284 156.874764 
L 249.375301 156.825982 
L 249.707319 156.776337 
L 250.039336 156.725828 
L 250.371354 156.674456 
L 250.703371 156.62222 
L 251.035389 156.569121 
L 251.367406 156.515159 
L 251.699424 156.460333 
L 252.031441 156.404644 
L 252.363459 156.348092 
L 252.695476 156.290676 
L 253.027493 156.232396 
L 253.359511 156.173254 
L 253.691528 156.113247 
L 254.023546 156.052378 
L 254.355563 155.990645 
L 254.687581 155.928049 
L 255.019598 155.864589 
L 255.351616 155.800266 
L 255.683633 155.735079 
L 256.015651 155.669029 
L 256.347668 155.602116 
L 256.679686 155.534339 
L 257.011703 155.465699 
L 257.343721 155.396196 
L 257.675738 155.325829 
L 258.007755 155.254599 
L 258.007755 10.345401 
L 258.007755 10.345401 
L 257.675738 10.274171 
L 257.343721 10.203804 
L 257.011703 10.134301 
L 256.679686 10.065661 
L 256.347668 9.997884 
L 256.015651 9.930971 
L 255.683633 9.864921 
L 255.351616 9.799734 
L 255.019598 9.735411 
L 254.687581 9.671951 
L 254.355563 9.609355 
L 254.023546 9.547622 
L 253.691528 9.486753 
L 253.359511 9.426746 
L 253.027493 9.367604 
L 252.695476 9.309324 
L 252.363459 9.251908 
L 252.031441 9.195356 
L 251.699424 9.139667 
L 251.367406 9.084841 
L 251.035389 9.030879 
L 250.703371 8.97778 
L 250.371354 8.925544 
L 250.039336 8.874172 
L 249.707319 8.823663 
L 249.375301 8.774018 
L 249.043284 8.725236 
L 248.711266 8.677317 
L 248.379249 8.630262 
L 248.047231 8.58407 
L 247.715214 8.538742 
L 247.383197 8.494277 
L 247.051179 8.450676 
L 246.719162 8.407937 
L 246.387144 8.366063 
L 246.055127 8.325051 
L 245.723109 8.284903 
L 245.391092 8.245619 
L 245.059074 8.207197 
L 244.727057 8.16964 
L 244.395039 8.132945 
L 244.063022 8.097114 
L 243.731004 8.062147 
L 243.398987 8.028042 
L 243.066969 7.994802 
L 242.734952 7.962424 
L 242.402934 7.93091 
L 242.070917 7.90026 
L 241.7389 7.870472 
L 241.406882 7.841549 
L 241.074865 7.813488 
L 240.742847 7.786291 
L 240.41083 7.759957 
L 240.078812 7.734487 
L 239.746795 7.70988 
L 239.414777 7.686137 
L 239.08276 7.663257 
L 238.750742 7.64124 
L 238.418725 7.620087 
L 238.086707 7.599797 
L 237.75469 7.580371 
L 237.422672 7.561808 
L 237.090655 7.544108 
L 236.758638 7.527272 
L 236.42662 7.511299 
L 236.094603 7.49619 
L 235.762585 7.481943 
L 235.430568 7.468561 
L 235.09855 7.456042 
L 234.766533 7.444386 
L 234.434515 7.433593 
L 234.102498 7.423664 
L 233.77048 7.414598 
L 233.438463 7.406396 
L 233.106445 7.399057 
L 232.774428 7.392582 
L 232.44241 7.38697 
L 232.110393 7.382221 
L 231.778376 7.378336 
L 231.446358 7.375314 
L 231.114341 7.373155 
L 230.782323 7.37186 
L 230.450306 7.371429 
L 230.118288 7.37186 
L 229.786271 7.373155 
L 229.454253 7.375314 
L 229.122236 7.378336 
L 228.790218 7.382221 
L 228.458201 7.38697 
L 228.126183 7.392582 
L 227.794166 7.399057 
L 227.462148 7.406396 
L 227.130131 7.414598 
L 226.798114 7.423664 
L 226.466096 7.433593 
L 226.134079 7.444386 
L 225.802061 7.456042 
L 225.470044 7.468561 
L 225.138026 7.481943 
L 224.806009 7.49619 
L 224.473991 7.511299 
L 224.141974 7.527272 
L 223.809956 7.544108 
L 223.477939 7.561808 
L 223.145921 7.580371 
L 222.813904 7.599797 
L 222.481886 7.620087 
L 222.149869 7.64124 
L 221.817852 7.663257 
L 221.485834 7.686137 
L 221.153817 7.70988 
L 220.821799 7.734487 
L 220.489782 7.759957 
L 220.157764 7.786291 
L 219.825747 7.813488 
L 219.493729 7.841549 
L 219.161712 7.870472 
L 218.829694 7.90026 
L 218.497677 7.93091 
L 218.165659 7.962424 
L 217.833642 7.994802 
z
" style="fill:#0000ff;fill-opacity:0.1;stroke:#0000ff;stroke-opacity:0.1;"/>
    <path clip-path="url(#p43bed3f548)" d="M 259.335825 10.417495 
L 259.335825 155.182505 
L 259.667843 155.109548 
L 259.99986 155.035727 
L 260.331878 154.961043 
L 260.663895 154.885496 
L 260.995913 154.809085 
L 261.32793 154.731811 
L 261.659948 154.653674 
L 261.991965 154.574673 
L 262.323983 154.494809 
L 262.656 154.414081 
L 262.988017 154.33249 
L 263.320035 154.250035 
L 263.652052 154.166718 
L 263.98407 154.082536 
L 264.316087 153.997492 
L 264.648105 153.911584 
L 264.980122 153.824812 
L 265.31214 153.737177 
L 265.644157 153.648679 
L 265.976175 153.559317 
L 266.308192 153.469092 
L 266.64021 153.378004 
L 266.972227 153.286052 
L 267.304245 153.193237 
L 267.636262 153.099558 
L 267.968279 153.005016 
L 268.300297 152.909611 
L 268.632314 152.813342 
L 268.964332 152.71621 
L 269.296349 152.618214 
L 269.628367 152.519355 
L 269.960384 152.419633 
L 270.292402 152.319047 
L 270.624419 152.217598 
L 270.956437 152.115285 
L 270.956437 13.484715 
L 270.956437 13.484715 
L 270.624419 13.382402 
L 270.292402 13.280953 
L 269.960384 13.180367 
L 269.628367 13.080645 
L 269.296349 12.981786 
L 268.964332 12.88379 
L 268.632314 12.786658 
L 268.300297 12.690389 
L 267.968279 12.594984 
L 267.636262 12.500442 
L 267.304245 12.406763 
L 266.972227 12.313948 
L 266.64021 12.221996 
L 266.308192 12.130908 
L 265.976175 12.040683 
L 265.644157 11.951321 
L 265.31214 11.862823 
L 264.980122 11.775188 
L 264.648105 11.688416 
L 264.316087 11.602508 
L 263.98407 11.517464 
L 263.652052 11.433282 
L 263.320035 11.349965 
L 262.988017 11.26751 
L 262.656 11.185919 
L 262.323983 11.105191 
L 261.991965 11.025327 
L 261.659948 10.946326 
L 261.32793 10.868189 
L 260.995913 10.790915 
L 260.663895 10.714504 
L 260.331878 10.638957 
L 259.99986 10.564273 
L 259.667843 10.490452 
L 259.335825 10.417495 
z
" style="fill:#0000ff;fill-opacity:0.1;stroke:#0000ff;stroke-opacity:0.1;"/>
    <path clip-path="url(#p43bed3f548)" d="M 284.569153 13.587891 
L 284.569153 152.012109 
L 284.90117 151.90807 
L 285.233188 151.803167 
L 285.565205 151.697401 
L 285.897223 151.590771 
L 286.22924 151.483278 
L 286.561258 151.374922 
L 286.893275 151.265702 
L 287.225293 151.155619 
L 287.55731 151.044672 
L 287.889328 150.932862 
L 288.221345 150.820189 
L 288.553362 150.706652 
L 288.88538 150.592252 
L 289.217397 150.476988 
L 289.549415 150.360861 
L 289.881432 150.243871 
L 290.21345 150.126017 
L 290.545467 150.0073 
L 290.877485 149.887719 
L 291.209502 149.767275 
L 291.54152 149.645968 
L 291.873537 149.523797 
L 292.205555 149.400763 
L 292.537572 149.276865 
L 292.86959 149.152105 
L 293.201607 149.02648 
L 293.533624 148.899992 
L 293.865642 148.772641 
L 294.197659 148.644427 
L 294.529677 148.515349 
L 294.861694 148.385407 
L 295.193712 148.254603 
L 295.525729 148.122935 
L 295.857747 147.990403 
L 296.189764 147.857008 
L 296.521782 147.72275 
L 296.853799 147.587628 
L 297.185817 147.451643 
L 297.517834 147.314794 
L 297.849852 147.177083 
L 298.181869 147.038507 
L 298.513886 146.899069 
L 298.845904 146.758766 
L 299.177921 146.617601 
L 299.509939 146.475572 
L 299.841956 146.33268 
L 300.173974 146.188924 
L 300.505991 146.044305 
L 300.838009 145.898822 
L 301.170026 145.752477 
L 301.502044 145.605267 
L 301.834061 145.457195 
L 302.166079 145.308259 
L 302.498096 145.158459 
L 302.830114 145.007796 
L 303.162131 144.85627 
L 303.494148 144.70388 
L 303.826166 144.550627 
L 304.158183 144.396511 
L 304.490201 144.241531 
L 304.822218 144.085688 
L 305.154236 143.928981 
L 305.486253 143.771411 
L 305.818271 143.612977 
L 306.150288 143.453681 
L 306.482306 143.29352 
L 306.814323 143.132497 
L 307.146341 142.97061 
L 307.478358 142.807859 
L 307.810376 142.644245 
L 308.142393 142.479768 
L 308.47441 142.314427 
L 308.806428 142.148223 
L 309.138445 141.981156 
L 309.470463 141.813225 
L 309.80248 141.644431 
L 310.134498 141.474773 
L 310.466515 141.304252 
L 310.798533 141.132868 
L 311.13055 140.96062 
L 311.462568 140.787509 
L 311.794585 140.613534 
L 312.126603 140.438696 
L 312.45862 140.262995 
L 312.790638 140.08643 
L 313.122655 139.909002 
L 313.454672 139.73071 
L 313.78669 139.551555 
L 314.118707 139.371537 
L 314.450725 139.190655 
L 314.782742 139.00891 
L 315.11476 138.826301 
L 315.446777 138.642829 
L 315.778795 138.458494 
L 316.110812 138.273295 
L 316.44283 138.087233 
L 316.44283 27.512767 
L 316.44283 27.512767 
L 316.110812 27.326705 
L 315.778795 27.141506 
L 315.446777 26.957171 
L 315.11476 26.773699 
L 314.782742 26.59109 
L 314.450725 26.409345 
L 314.118707 26.228463 
L 313.78669 26.048445 
L 313.454672 25.86929 
L 313.122655 25.690998 
L 312.790638 25.51357 
L 312.45862 25.337005 
L 312.126603 25.161304 
L 311.794585 24.986466 
L 311.462568 24.812491 
L 311.13055 24.63938 
L 310.798533 24.467132 
L 310.466515 24.295748 
L 310.134498 24.125227 
L 309.80248 23.955569 
L 309.470463 23.786775 
L 309.138445 23.618844 
L 308.806428 23.451777 
L 308.47441 23.285573 
L 308.142393 23.120232 
L 307.810376 22.955755 
L 307.478358 22.792141 
L 307.146341 22.62939 
L 306.814323 22.467503 
L 306.482306 22.30648 
L 306.150288 22.146319 
L 305.818271 21.987023 
L 305.486253 21.828589 
L 305.154236 21.671019 
L 304.822218 21.514312 
L 304.490201 21.358469 
L 304.158183 21.203489 
L 303.826166 21.049373 
L 303.494148 20.89612 
L 303.162131 20.74373 
L 302.830114 20.592204 
L 302.498096 20.441541 
L 302.166079 20.291741 
L 301.834061 20.142805 
L 301.502044 19.994733 
L 301.170026 19.847523 
L 300.838009 19.701178 
L 300.505991 19.555695 
L 300.173974 19.411076 
L 299.841956 19.26732 
L 299.509939 19.124428 
L 299.177921 18.982399 
L 298.845904 18.841234 
L 298.513886 18.700931 
L 298.181869 18.561493 
L 297.849852 18.422917 
L 297.517834 18.285206 
L 297.185817 18.148357 
L 296.853799 18.012372 
L 296.521782 17.87725 
L 296.189764 17.742992 
L 295.857747 17.609597 
L 295.525729 17.477065 
L 295.193712 17.345397 
L 294.861694 17.214593 
L 294.529677 17.084651 
L 294.197659 16.955573 
L 293.865642 16.827359 
L 293.533624 16.700008 
L 293.201607 16.57352 
L 292.86959 16.447895 
L 292.537572 16.323135 
L 292.205555 16.199237 
L 291.873537 16.076203 
L 291.54152 15.954032 
L 291.209502 15.832725 
L 290.877485 15.712281 
L 290.545467 15.5927 
L 290.21345 15.473983 
L 289.881432 15.356129 
L 289.549415 15.239139 
L 289.217397 15.123012 
L 288.88538 15.007748 
L 288.553362 14.893348 
L 288.221345 14.779811 
L 287.889328 14.667138 
L 287.55731 14.555328 
L 287.225293 14.444381 
L 286.893275 14.334298 
L 286.561258 14.225078 
L 286.22924 14.116722 
L 285.897223 14.009229 
L 285.565205 13.902599 
L 285.233188 13.796833 
L 284.90117 13.69193 
L 284.569153 13.587891 
z
" style="fill:#0000ff;fill-opacity:0.1;stroke:#0000ff;stroke-opacity:0.1;"/>
    <path clip-path="url(#p43bed3f548)" d="M 317.106865 27.699693 
L 317.106865 137.900307 
L 317.438882 137.712518 
L 317.7709 137.523866 
L 318.102917 137.33435 
L 318.434934 137.143971 
L 318.766952 136.952729 
L 319.098969 136.760623 
L 319.430987 136.567653 
L 319.763004 136.373821 
L 320.095022 136.179124 
L 320.095022 29.420876 
L 320.095022 29.420876 
L 319.763004 29.226179 
L 319.430987 29.032347 
L 319.098969 28.839377 
L 318.766952 28.647271 
L 318.434934 28.456029 
L 318.102917 28.26565 
L 317.7709 28.076134 
L 317.438882 27.887482 
L 317.106865 27.699693 
z
" style="fill:#0000ff;fill-opacity:0.1;stroke:#0000ff;stroke-opacity:0.1;"/>
    <path clip-path="url(#p43bed3f548)" d="M 320.759057 29.616435 
L 320.759057 135.983565 
L 321.091074 135.787142 
L 321.423092 135.589856 
L 321.755109 135.391706 
L 322.087127 135.192693 
L 322.419144 134.992816 
L 322.751162 134.792076 
L 323.083179 134.590473 
L 323.415197 134.388006 
L 323.747214 134.184676 
L 324.079231 133.980482 
L 324.411249 133.775426 
L 324.743266 133.569505 
L 325.075284 133.362722 
L 325.407301 133.155074 
L 325.739319 132.946564 
L 326.071336 132.73719 
L 326.403354 132.526953 
L 326.735371 132.315852 
L 327.067389 132.103888 
L 327.399406 131.89106 
L 327.731424 131.677369 
L 328.063441 131.462815 
L 328.395459 131.247397 
L 328.727476 131.031116 
L 329.059493 130.813972 
L 329.391511 130.595964 
L 329.723528 130.377093 
L 330.055546 130.157358 
L 330.387563 129.93676 
L 330.719581 129.715299 
L 331.051598 129.492974 
L 331.383616 129.269785 
L 331.715633 129.045734 
L 332.047651 128.820819 
L 332.379668 128.59504 
L 332.711686 128.368398 
L 333.043703 128.140893 
L 333.375721 127.912524 
L 333.707738 127.683292 
L 334.039755 127.453197 
L 334.371773 127.222238 
L 334.70379 126.990416 
L 335.035808 126.75773 
L 335.367825 126.524181 
L 335.699843 126.289769 
L 336.03186 126.054493 
L 336.363878 125.818354 
L 336.695895 125.581351 
L 337.027913 125.343485 
L 337.35993 125.104756 
L 337.691948 124.865163 
L 338.023965 124.624706 
L 338.355983 124.383387 
L 338.688 124.141204 
L 339.020017 123.898157 
L 339.352035 123.654248 
L 339.684052 123.409474 
L 340.01607 123.163838 
L 340.348087 122.917338 
L 340.680105 122.669974 
L 341.012122 122.421748 
L 341.34414 122.172657 
L 341.676157 121.922704 
L 342.008175 121.671887 
L 342.340192 121.420206 
L 342.67221 121.167663 
L 343.004227 120.914255 
L 343.336245 120.659985 
L 343.668262 120.404851 
L 344.000279 120.148853 
L 344.332297 119.891993 
L 344.664314 119.634269 
L 344.996332 119.375681 
L 345.328349 119.11623 
L 345.660367 118.855916 
L 345.992384 118.594738 
L 346.324402 118.332697 
L 346.656419 118.069792 
L 346.988437 117.806024 
L 347.320454 117.541393 
L 347.652472 117.275898 
L 347.984489 117.00954 
L 348.316507 116.742318 
L 348.648524 116.474233 
L 348.980541 116.205285 
L 349.312559 115.935473 
L 349.644576 115.664798 
L 349.976594 115.39326 
L 350.308611 115.120858 
L 350.308611 50.479142 
L 350.308611 50.479142 
L 349.976594 50.20674 
L 349.644576 49.935202 
L 349.312559 49.664527 
L 348.980541 49.394715 
L 348.648524 49.125767 
L 348.316507 48.857682 
L 347.984489 48.59046 
L 347.652472 48.324102 
L 347.320454 48.058607 
L 346.988437 47.793976 
L 346.656419 47.530208 
L 346.324402 47.267303 
L 345.992384 47.005262 
L 345.660367 46.744084 
L 345.328349 46.48377 
L 344.996332 46.224319 
L 344.664314 45.965731 
L 344.332297 45.708007 
L 344.000279 45.451147 
L 343.668262 45.195149 
L 343.336245 44.940015 
L 343.004227 44.685745 
L 342.67221 44.432337 
L 342.340192 44.179794 
L 342.008175 43.928113 
L 341.676157 43.677296 
L 341.34414 43.427343 
L 341.012122 43.178252 
L 340.680105 42.930026 
L 340.348087 42.682662 
L 340.01607 42.436162 
L 339.684052 42.190526 
L 339.352035 41.945752 
L 339.020017 41.701843 
L 338.688 41.458796 
L 338.355983 41.216613 
L 338.023965 40.975294 
L 337.691948 40.734837 
L 337.35993 40.495244 
L 337.027913 40.256515 
L 336.695895 40.018649 
L 336.363878 39.781646 
L 336.03186 39.545507 
L 335.699843 39.310231 
L 335.367825 39.075819 
L 335.035808 38.84227 
L 334.70379 38.609584 
L 334.371773 38.377762 
L 334.039755 38.146803 
L 333.707738 37.916708 
L 333.375721 37.687476 
L 333.043703 37.459107 
L 332.711686 37.231602 
L 332.379668 37.00496 
L 332.047651 36.779181 
L 331.715633 36.554266 
L 331.383616 36.330215 
L 331.051598 36.107026 
L 330.719581 35.884701 
L 330.387563 35.66324 
L 330.055546 35.442642 
L 329.723528 35.222907 
L 329.391511 35.004036 
L 329.059493 34.786028 
L 328.727476 34.568884 
L 328.395459 34.352603 
L 328.063441 34.137185 
L 327.731424 33.922631 
L 327.399406 33.70894 
L 327.067389 33.496112 
L 326.735371 33.284148 
L 326.403354 33.073047 
L 326.071336 32.86281 
L 325.739319 32.653436 
L 325.407301 32.444926 
L 325.075284 32.237278 
L 324.743266 32.030495 
L 324.411249 31.824574 
L 324.079231 31.619518 
L 323.747214 31.415324 
L 323.415197 31.211994 
L 323.083179 31.009527 
L 322.751162 30.807924 
L 322.419144 30.607184 
L 322.087127 30.407307 
L 321.755109 30.208294 
L 321.423092 30.010144 
L 321.091074 29.812858 
L 320.759057 29.616435 
z
" style="fill:#0000ff;fill-opacity:0.1;stroke:#0000ff;stroke-opacity:0.1;"/>
    <path clip-path="url(#p43bed3f548)" d="M 350.972646 50.752408 
L 350.972646 114.847592 
L 351.304664 114.573464 
L 351.636681 114.298472 
L 351.968699 114.022616 
L 352.300716 113.745897 
L 352.632734 113.468315 
L 352.964751 113.189869 
L 353.296769 112.91056 
L 353.628786 112.630387 
L 353.960803 112.349352 
L 354.292821 112.067452 
L 354.624838 111.78469 
L 354.956856 111.501063 
L 355.288873 111.216574 
L 355.620891 110.931221 
L 355.952908 110.645005 
L 356.284926 110.357925 
L 356.616943 110.069982 
L 356.948961 109.781175 
L 357.280978 109.491506 
L 357.612996 109.200972 
L 357.945013 108.909576 
L 358.277031 108.617316 
L 358.609048 108.324192 
L 358.941066 108.030205 
L 359.273083 107.735355 
L 359.6051 107.439641 
L 359.937118 107.143064 
L 360.269135 106.845624 
L 360.601153 106.54732 
L 360.93317 106.248153 
L 361.265188 105.948122 
L 361.597205 105.647228 
L 361.929223 105.345471 
L 362.26124 105.04285 
L 362.593258 104.739365 
L 362.925275 104.435018 
L 363.257293 104.129807 
L 363.58931 103.823732 
L 363.921328 103.516794 
L 364.253345 103.208993 
L 364.585362 102.900329 
L 364.91738 102.590801 
L 365.249397 102.280409 
L 365.581415 101.969154 
L 365.913432 101.657036 
L 366.24545 101.344054 
L 366.577467 101.030209 
L 366.909485 100.715501 
L 367.241502 100.399929 
L 367.57352 100.083494 
L 367.905537 99.766195 
L 368.237555 99.448033 
L 368.569572 99.129008 
L 368.90159 98.809119 
L 369.233607 98.488367 
L 369.565624 98.166751 
L 369.897642 97.844272 
L 370.229659 97.52093 
L 370.561677 97.196724 
L 370.893694 96.871655 
L 371.225712 96.545723 
L 371.557729 96.218927 
L 371.889747 95.891267 
L 372.221764 95.562744 
L 372.553782 95.233358 
L 372.885799 94.903109 
L 373.217817 94.571996 
L 373.549834 94.240019 
L 373.881852 93.90718 
L 374.213869 93.573476 
L 374.545886 93.23891 
L 374.877904 92.90348 
L 375.209921 92.567187 
L 375.541939 92.23003 
L 375.873956 91.89201 
L 376.205974 91.553126 
L 376.537991 91.213379 
L 376.870009 90.872769 
L 377.202026 90.531295 
L 377.534044 90.188958 
L 377.866061 89.845757 
L 378.198079 89.501693 
L 378.530096 89.156766 
L 378.862114 88.810975 
L 379.194131 88.464321 
L 379.526148 88.116804 
L 379.858166 87.768423 
L 380.190183 87.419179 
L 380.522201 87.069071 
L 380.854218 86.7181 
L 381.186236 86.366265 
L 381.518253 86.013567 
L 381.850271 85.660006 
L 382.182288 85.305581 
L 382.182288 80.294419 
L 382.182288 80.294419 
L 381.850271 79.939994 
L 381.518253 79.586433 
L 381.186236 79.233735 
L 380.854218 78.8819 
L 380.522201 78.530929 
L 380.190183 78.180821 
L 379.858166 77.831577 
L 379.526148 77.483196 
L 379.194131 77.135679 
L 378.862114 76.789025 
L 378.530096 76.443234 
L 378.198079 76.098307 
L 377.866061 75.754243 
L 377.534044 75.411042 
L 377.202026 75.068705 
L 376.870009 74.727231 
L 376.537991 74.386621 
L 376.205974 74.046874 
L 375.873956 73.70799 
L 375.541939 73.36997 
L 375.209921 73.032813 
L 374.877904 72.69652 
L 374.545886 72.36109 
L 374.213869 72.026524 
L 373.881852 71.69282 
L 373.549834 71.359981 
L 373.217817 71.028004 
L 372.885799 70.696891 
L 372.553782 70.366642 
L 372.221764 70.037256 
L 371.889747 69.708733 
L 371.557729 69.381073 
L 371.225712 69.054277 
L 370.893694 68.728345 
L 370.561677 68.403276 
L 370.229659 68.07907 
L 369.897642 67.755728 
L 369.565624 67.433249 
L 369.233607 67.111633 
L 368.90159 66.790881 
L 368.569572 66.470992 
L 368.237555 66.151967 
L 367.905537 65.833805 
L 367.57352 65.516506 
L 367.241502 65.200071 
L 366.909485 64.884499 
L 366.577467 64.569791 
L 366.24545 64.255946 
L 365.913432 63.942964 
L 365.581415 63.630846 
L 365.249397 63.319591 
L 364.91738 63.009199 
L 364.585362 62.699671 
L 364.253345 62.391007 
L 363.921328 62.083206 
L 363.58931 61.776268 
L 363.257293 61.470193 
L 362.925275 61.164982 
L 362.593258 60.860635 
L 362.26124 60.55715 
L 361.929223 60.254529 
L 361.597205 59.952772 
L 361.265188 59.651878 
L 360.93317 59.351847 
L 360.601153 59.05268 
L 360.269135 58.754376 
L 359.937118 58.456936 
L 359.6051 58.160359 
L 359.273083 57.864645 
L 358.941066 57.569795 
L 358.609048 57.275808 
L 358.277031 56.982684 
L 357.945013 56.690424 
L 357.612996 56.399028 
L 357.280978 56.108494 
L 356.948961 55.818825 
L 356.616943 55.530018 
L 356.284926 55.242075 
L 355.952908 54.954995 
L 355.620891 54.668779 
L 355.288873 54.383426 
L 354.956856 54.098937 
L 354.624838 53.81531 
L 354.292821 53.532548 
L 353.960803 53.250648 
L 353.628786 52.969613 
L 353.296769 52.68944 
L 352.964751 52.410131 
L 352.632734 52.131685 
L 352.300716 51.854103 
L 351.968699 51.577384 
L 351.636681 51.301528 
L 351.304664 51.026536 
L 350.972646 50.752408 
z
" style="fill:#0000ff;fill-opacity:0.1;stroke:#0000ff;stroke-opacity:0.1;"/>
    <path clip-path="url(#p43bed3f548)" d="M 382.846323 80.649707 
L 382.846323 84.950293 
L 383.178341 84.594142 
L 383.510358 84.237127 
L 383.842376 83.879249 
L 383.842376 81.720751 
L 383.842376 81.720751 
L 383.510358 81.362873 
L 383.178341 81.005858 
L 382.846323 80.649707 
z
" style="fill:#0000ff;fill-opacity:0.1;stroke:#0000ff;stroke-opacity:0.1;"/>
    <path clip-path="url(#p43bed3f548)" d="M 384.50641 82.079493 
L 384.50641 83.520507 
L 384.838428 83.160902 
L 384.838428 82.439098 
L 384.838428 82.439098 
L 384.50641 82.079493 
z
" style="fill:#0000ff;fill-opacity:0.1;stroke:#0000ff;stroke-opacity:0.1;"/>
   </g>
   <g id="matplotlib.axis_1">
    <g id="xtick_1">
     <g id="line2d_1">
      <defs>
       <path d="M 0 0 
L 0 3.5 
" id="m17c9b942e0" style="stroke:#000000;stroke-width:0.8;"/>
      </defs>
      <g>
       <use style="stroke:#000000;stroke-width:0.8;" x="63.943546" xlink:href="#m17c9b942e0" y="162"/>
      </g>
     </g>
     <g id="text_1">
      <!-- 1940 -->
      <g transform="translate(51.218546 176.598438)scale(0.1 -0.1)">
       <defs>
        <path d="M 794 531 
L 1825 531 
L 1825 4091 
L 703 3866 
L 703 4441 
L 1819 4666 
L 2450 4666 
L 2450 531 
L 3481 531 
L 3481 0 
L 794 0 
L 794 531 
z
" id="DejaVuSans-31" transform="scale(0.015625)"/>
        <path d="M 703 97 
L 703 672 
Q 941 559 1184 500 
Q 1428 441 1663 441 
Q 2288 441 2617 861 
Q 2947 1281 2994 2138 
Q 2813 1869 2534 1725 
Q 2256 1581 1919 1581 
Q 1219 1581 811 2004 
Q 403 2428 403 3163 
Q 403 3881 828 4315 
Q 1253 4750 1959 4750 
Q 2769 4750 3195 4129 
Q 3622 3509 3622 2328 
Q 3622 1225 3098 567 
Q 2575 -91 1691 -91 
Q 1453 -91 1209 -44 
Q 966 3 703 97 
z
M 1959 2075 
Q 2384 2075 2632 2365 
Q 2881 2656 2881 3163 
Q 2881 3666 2632 3958 
Q 2384 4250 1959 4250 
Q 1534 4250 1286 3958 
Q 1038 3666 1038 3163 
Q 1038 2656 1286 2365 
Q 1534 2075 1959 2075 
z
" id="DejaVuSans-39" transform="scale(0.015625)"/>
        <path d="M 2419 4116 
L 825 1625 
L 2419 1625 
L 2419 4116 
z
M 2253 4666 
L 3047 4666 
L 3047 1625 
L 3713 1625 
L 3713 1100 
L 3047 1100 
L 3047 0 
L 2419 0 
L 2419 1100 
L 313 1100 
L 313 1709 
L 2253 4666 
z
" id="DejaVuSans-34" transform="scale(0.015625)"/>
        <path d="M 2034 4250 
Q 1547 4250 1301 3770 
Q 1056 3291 1056 2328 
Q 1056 1369 1301 889 
Q 1547 409 2034 409 
Q 2525 409 2770 889 
Q 3016 1369 3016 2328 
Q 3016 3291 2770 3770 
Q 2525 4250 2034 4250 
z
M 2034 4750 
Q 2819 4750 3233 4129 
Q 3647 3509 3647 2328 
Q 3647 1150 3233 529 
Q 2819 -91 2034 -91 
Q 1250 -91 836 529 
Q 422 1150 422 2328 
Q 422 3509 836 4129 
Q 1250 4750 2034 4750 
z
" id="DejaVuSans-30" transform="scale(0.015625)"/>
       </defs>
       <use xlink:href="#DejaVuSans-31"/>
       <use x="63.623047" xlink:href="#DejaVuSans-39"/>
       <use x="127.246094" xlink:href="#DejaVuSans-34"/>
       <use x="190.869141" xlink:href="#DejaVuSans-30"/>
      </g>
     </g>
    </g>
    <g id="xtick_2">
     <g id="line2d_2">
      <g>
       <use style="stroke:#000000;stroke-width:0.8;" x="143.627738" xlink:href="#m17c9b942e0" y="162"/>
      </g>
     </g>
     <g id="text_2">
      <!-- 1960 -->
      <g transform="translate(130.902738 176.598438)scale(0.1 -0.1)">
       <defs>
        <path d="M 2113 2584 
Q 1688 2584 1439 2293 
Q 1191 2003 1191 1497 
Q 1191 994 1439 701 
Q 1688 409 2113 409 
Q 2538 409 2786 701 
Q 3034 994 3034 1497 
Q 3034 2003 2786 2293 
Q 2538 2584 2113 2584 
z
M 3366 4563 
L 3366 3988 
Q 3128 4100 2886 4159 
Q 2644 4219 2406 4219 
Q 1781 4219 1451 3797 
Q 1122 3375 1075 2522 
Q 1259 2794 1537 2939 
Q 1816 3084 2150 3084 
Q 2853 3084 3261 2657 
Q 3669 2231 3669 1497 
Q 3669 778 3244 343 
Q 2819 -91 2113 -91 
Q 1303 -91 875 529 
Q 447 1150 447 2328 
Q 447 3434 972 4092 
Q 1497 4750 2381 4750 
Q 2619 4750 2861 4703 
Q 3103 4656 3366 4563 
z
" id="DejaVuSans-36" transform="scale(0.015625)"/>
       </defs>
       <use xlink:href="#DejaVuSans-31"/>
       <use x="63.623047" xlink:href="#DejaVuSans-39"/>
       <use x="127.246094" xlink:href="#DejaVuSans-36"/>
       <use x="190.869141" xlink:href="#DejaVuSans-30"/>
      </g>
     </g>
    </g>
    <g id="xtick_3">
     <g id="line2d_3">
      <g>
       <use style="stroke:#000000;stroke-width:0.8;" x="223.31193" xlink:href="#m17c9b942e0" y="162"/>
      </g>
     </g>
     <g id="text_3">
      <!-- 1980 -->
      <g transform="translate(210.58693 176.598438)scale(0.1 -0.1)">
       <defs>
        <path d="M 2034 2216 
Q 1584 2216 1326 1975 
Q 1069 1734 1069 1313 
Q 1069 891 1326 650 
Q 1584 409 2034 409 
Q 2484 409 2743 651 
Q 3003 894 3003 1313 
Q 3003 1734 2745 1975 
Q 2488 2216 2034 2216 
z
M 1403 2484 
Q 997 2584 770 2862 
Q 544 3141 544 3541 
Q 544 4100 942 4425 
Q 1341 4750 2034 4750 
Q 2731 4750 3128 4425 
Q 3525 4100 3525 3541 
Q 3525 3141 3298 2862 
Q 3072 2584 2669 2484 
Q 3125 2378 3379 2068 
Q 3634 1759 3634 1313 
Q 3634 634 3220 271 
Q 2806 -91 2034 -91 
Q 1263 -91 848 271 
Q 434 634 434 1313 
Q 434 1759 690 2068 
Q 947 2378 1403 2484 
z
M 1172 3481 
Q 1172 3119 1398 2916 
Q 1625 2713 2034 2713 
Q 2441 2713 2670 2916 
Q 2900 3119 2900 3481 
Q 2900 3844 2670 4047 
Q 2441 4250 2034 4250 
Q 1625 4250 1398 4047 
Q 1172 3844 1172 3481 
z
" id="DejaVuSans-38" transform="scale(0.015625)"/>
       </defs>
       <use xlink:href="#DejaVuSans-31"/>
       <use x="63.623047" xlink:href="#DejaVuSans-39"/>
       <use x="127.246094" xlink:href="#DejaVuSans-38"/>
       <use x="190.869141" xlink:href="#DejaVuSans-30"/>
      </g>
     </g>
    </g>
    <g id="xtick_4">
     <g id="line2d_4">
      <g>
       <use style="stroke:#000000;stroke-width:0.8;" x="302.996122" xlink:href="#m17c9b942e0" y="162"/>
      </g>
     </g>
     <g id="text_4">
      <!-- 2000 -->
      <g transform="translate(290.271122 176.598438)scale(0.1 -0.1)">
       <defs>
        <path d="M 1228 531 
L 3431 531 
L 3431 0 
L 469 0 
L 469 531 
Q 828 903 1448 1529 
Q 2069 2156 2228 2338 
Q 2531 2678 2651 2914 
Q 2772 3150 2772 3378 
Q 2772 3750 2511 3984 
Q 2250 4219 1831 4219 
Q 1534 4219 1204 4116 
Q 875 4013 500 3803 
L 500 4441 
Q 881 4594 1212 4672 
Q 1544 4750 1819 4750 
Q 2544 4750 2975 4387 
Q 3406 4025 3406 3419 
Q 3406 3131 3298 2873 
Q 3191 2616 2906 2266 
Q 2828 2175 2409 1742 
Q 1991 1309 1228 531 
z
" id="DejaVuSans-32" transform="scale(0.015625)"/>
       </defs>
       <use xlink:href="#DejaVuSans-32"/>
       <use x="63.623047" xlink:href="#DejaVuSans-30"/>
       <use x="127.246094" xlink:href="#DejaVuSans-30"/>
       <use x="190.869141" xlink:href="#DejaVuSans-30"/>
      </g>
     </g>
    </g>
    <g id="xtick_5">
     <g id="line2d_5">
      <g>
       <use style="stroke:#000000;stroke-width:0.8;" x="382.680314" xlink:href="#m17c9b942e0" y="162"/>
      </g>
     </g>
     <g id="text_5">
      <!-- 2020 -->
      <g transform="translate(369.955314 176.598438)scale(0.1 -0.1)">
       <use xlink:href="#DejaVuSans-32"/>
       <use x="63.623047" xlink:href="#DejaVuSans-30"/>
       <use x="127.246094" xlink:href="#DejaVuSans-32"/>
       <use x="190.869141" xlink:href="#DejaVuSans-30"/>
      </g>
     </g>
    </g>
   </g>
   <g id="matplotlib.axis_2">
    <g id="ytick_1">
     <g id="line2d_6">
      <defs>
       <path d="M 0 0 
L -3.5 0 
" id="m41c02cc60e" style="stroke:#000000;stroke-width:0.8;"/>
      </defs>
      <g>
       <use style="stroke:#000000;stroke-width:0.8;" x="34.56" xlink:href="#m41c02cc60e" y="160.195244"/>
      </g>
     </g>
     <g id="text_6">
      <!-- 100 -->
      <g transform="translate(0.092813 163.994462)scale(0.1 -0.1)">
       <defs>
        <path d="M 678 2272 
L 4684 2272 
L 4684 1741 
L 678 1741 
L 678 2272 
z
" id="DejaVuSans-2212" transform="scale(0.015625)"/>
       </defs>
       <use xlink:href="#DejaVuSans-2212"/>
       <use x="83.789062" xlink:href="#DejaVuSans-31"/>
       <use x="147.412109" xlink:href="#DejaVuSans-30"/>
       <use x="211.035156" xlink:href="#DejaVuSans-30"/>
      </g>
     </g>
    </g>
    <g id="ytick_2">
     <g id="line2d_7">
      <g>
       <use style="stroke:#000000;stroke-width:0.8;" x="34.56" xlink:href="#m41c02cc60e" y="121.497622"/>
      </g>
     </g>
     <g id="text_7">
      <!-- 50 -->
      <g transform="translate(6.455313 125.296841)scale(0.1 -0.1)">
       <defs>
        <path d="M 691 4666 
L 3169 4666 
L 3169 4134 
L 1269 4134 
L 1269 2991 
Q 1406 3038 1543 3061 
Q 1681 3084 1819 3084 
Q 2600 3084 3056 2656 
Q 3513 2228 3513 1497 
Q 3513 744 3044 326 
Q 2575 -91 1722 -91 
Q 1428 -91 1123 -41 
Q 819 9 494 109 
L 494 744 
Q 775 591 1075 516 
Q 1375 441 1709 441 
Q 2250 441 2565 725 
Q 2881 1009 2881 1497 
Q 2881 1984 2565 2268 
Q 2250 2553 1709 2553 
Q 1456 2553 1204 2497 
Q 953 2441 691 2322 
L 691 4666 
z
" id="DejaVuSans-35" transform="scale(0.015625)"/>
       </defs>
       <use xlink:href="#DejaVuSans-2212"/>
       <use x="83.789062" xlink:href="#DejaVuSans-35"/>
       <use x="147.412109" xlink:href="#DejaVuSans-30"/>
      </g>
     </g>
    </g>
    <g id="ytick_3">
     <g id="line2d_8">
      <g>
       <use style="stroke:#000000;stroke-width:0.8;" x="34.56" xlink:href="#m41c02cc60e" y="82.8"/>
      </g>
     </g>
     <g id="text_8">
      <!-- 0 -->
      <g transform="translate(21.1975 86.599219)scale(0.1 -0.1)">
       <use xlink:href="#DejaVuSans-30"/>
      </g>
     </g>
    </g>
    <g id="ytick_4">
     <g id="line2d_9">
      <g>
       <use style="stroke:#000000;stroke-width:0.8;" x="34.56" xlink:href="#m41c02cc60e" y="44.102378"/>
      </g>
     </g>
     <g id="text_9">
      <!-- 50 -->
      <g transform="translate(14.835 47.901597)scale(0.1 -0.1)">
       <use xlink:href="#DejaVuSans-35"/>
       <use x="63.623047" xlink:href="#DejaVuSans-30"/>
      </g>
     </g>
    </g>
    <g id="ytick_5">
     <g id="line2d_10">
      <g>
       <use style="stroke:#000000;stroke-width:0.8;" x="34.56" xlink:href="#m41c02cc60e" y="5.404756"/>
      </g>
     </g>
     <g id="text_10">
      <!-- 100 -->
      <g transform="translate(8.4725 9.203975)scale(0.1 -0.1)">
       <use xlink:href="#DejaVuSans-31"/>
       <use x="63.623047" xlink:href="#DejaVuSans-30"/>
       <use x="127.246094" xlink:href="#DejaVuSans-30"/>
      </g>
     </g>
    </g>
   </g>
   <g id="line2d_11">
    <path clip-path="url(#p43bed3f548)" d="M 65.769642 83.117473 
L 66.101659 83.136392 
L 68.093764 84.532546 
L 69.753852 85.085744 
L 70.085869 85.113298 
L 72.742009 86.822464 
L 74.402096 87.302583 
L 75.398148 88.027737 
L 76.062183 88.485795 
L 77.390253 88.947879 
L 77.722271 89.04885 
M 78.718323 89.270228 
L 79.382358 89.761309 
M 80.046393 89.949193 
L 81.70648 90.513545 
L 82.038498 90.555902 
L 83.698585 91.782898 
M 84.36262 91.909551 
L 85.026655 92.179714 
L 85.358672 92.222986 
M 86.022707 92.253772 
L 86.354725 92.499984 
M 87.01876 92.785987 
L 88.014812 93.451567 
L 88.678847 93.70472 
M 89.6749 93.804484 
L 90.006917 93.838434 
L 91.667004 94.977221 
L 92.331039 95.277313 
M 93.327092 95.316194 
L 94.323144 95.678645 
L 94.987179 96.15784 
M 95.651214 96.396136 
L 96.647266 96.894514 
L 98.307354 97.42066 
L 100.299459 98.697034 
L 100.963493 98.955595 
L 101.959546 99.135276 
L 102.291563 99.387662 
M 102.955598 99.67422 
L 104.283668 100.436547 
M 104.947703 100.518652 
L 105.943755 100.682595 
L 107.603843 101.86586 
M 111.256035 102.482162 
L 111.588052 102.706367 
M 112.252087 102.833078 
L 112.584105 103.006045 
M 116.568314 103.169552 
L 118.228402 103.628176 
L 119.224454 104.257558 
L 119.888489 104.681998 
L 121.548576 105.168392 
L 121.880594 105.186548 
L 122.212611 105.42013 
M 123.872699 105.594571 
L 124.868751 105.942948 
M 125.532786 106.029244 
L 125.864803 106.042098 
L 126.528838 106.488647 
M 130.845066 107.000281 
L 131.177083 107.218427 
M 132.83717 107.285722 
L 133.169188 107.323704 
M 139.809537 107.785655 
L 141.469624 108.324677 
L 141.801642 108.351924 
L 143.793747 109.650545 
L 145.121817 110.02286 
L 146.117869 110.303847 
L 148.441991 111.574841 
L 149.770061 111.749851 
L 151.762166 113.030594 
L 152.758218 113.30409 
L 153.754271 113.373628 
L 156.41041 114.905679 
L 158.070498 115.309421 
L 159.06655 115.948632 
L 159.730585 116.376913 
L 160.726638 116.693611 
L 161.72269 116.793152 
L 163.714795 118.097683 
L 165.374882 118.603402 
L 165.7069 118.610144 
L 168.363039 120.228622 
L 170.023127 120.623402 
L 172.347249 122.034302 
L 174.007336 122.461678 
L 176.663476 123.913556 
L 177.659528 124.056281 
L 179.319616 125.180037 
L 180.315668 125.635392 
L 181.975755 126.051897 
L 184.299878 127.386969 
L 185.959965 127.836389 
L 186.956017 128.514414 
L 187.288035 128.727848 
L 188.284087 128.382864 
L 188.616105 128.293589 
L 189.28014 128.476076 
M 190.276192 128.363227 
L 192.600314 127.717839 
L 192.932332 127.767921 
L 193.928384 128.21408 
L 194.592419 128.002734 
L 195.256454 127.77642 
L 196.252507 127.557173 
L 196.916541 127.587575 
L 197.912594 128.068437 
L 198.908646 127.787148 
M 202.560838 127.84634 
L 203.224873 127.594326 
L 204.220926 127.347145 
L 204.884961 127.313256 
L 205.881013 127.730132 
L 208.537153 126.918234 
L 209.201188 127.140958 
L 209.865223 127.394082 
L 212.521362 126.549467 
L 213.185397 126.761049 
L 213.849432 127.010826 
L 216.505572 126.15506 
L 217.169607 126.325695 
M 217.833642 126.487547 
L 220.821799 125.664411 
L 221.817852 126.079709 
L 224.473991 125.246735 
L 225.138026 125.471705 
L 226.134079 125.617892 
L 228.458201 124.938794 
L 228.790218 125.005098 
L 229.786271 125.465873 
L 232.44241 124.826132 
L 233.106445 125.054972 
L 233.77048 125.343658 
L 236.42662 124.585946 
L 237.090655 124.848913 
L 237.75469 125.132492 
L 239.414777 124.60217 
L 240.41083 124.387342 
L 240.742847 124.446352 
L 241.7389 124.901348 
L 243.066969 124.50914 
L 244.063022 124.253215 
L 244.395039 124.175978 
L 245.059074 124.436009 
L 246.055127 124.66643 
L 247.383197 124.276474 
L 248.379249 124.083068 
L 248.711266 124.148756 
L 249.707319 124.634666 
L 252.031441 123.961676 
L 252.695476 124.01661 
L 253.691528 124.48738 
L 256.347668 123.803368 
L 256.679686 123.870491 
L 257.675738 124.322993 
L 258.007755 124.251332 
M 259.335825 124.109686 
L 260.331878 123.888415 
L 260.663895 123.955612 
L 261.32793 124.226345 
L 261.659948 124.400683 
L 263.98407 123.701314 
L 264.316087 123.626746 
L 264.980122 123.8564 
L 265.644157 124.110235 
L 268.300297 123.358784 
L 268.632314 123.419655 
L 269.628367 123.857122 
L 270.956437 123.405003 
M 284.569153 123.43016 
L 285.897223 122.469375 
L 286.22924 121.9905 
L 286.561258 121.988806 
L 286.893275 123.060119 
L 287.225293 123.314599 
L 288.221345 124.563073 
L 288.88538 124.441616 
L 289.549415 125.756456 
L 289.881432 125.7137 
L 290.21345 125.89311 
L 290.545467 126.836697 
L 290.877485 127.132673 
L 291.209502 127.721032 
L 291.54152 126.940648 
L 291.873537 127.284759 
L 292.205555 127.40466 
L 292.537572 127.92853 
L 292.86959 127.831439 
L 293.201607 128.00794 
L 293.865642 126.850004 
L 294.197659 126.869243 
L 294.529677 126.414853 
L 294.861694 125.450017 
L 295.193712 125.690109 
L 295.525729 125.531839 
L 295.857747 125.680964 
L 296.189764 124.965273 
L 296.521782 124.613259 
L 296.853799 123.688872 
L 297.185817 123.671292 
L 297.517834 123.463319 
L 297.849852 123.465149 
L 298.181869 123.163606 
L 298.513886 122.686724 
L 298.845904 122.646934 
L 299.177921 122.999831 
L 299.841956 121.303511 
L 300.173974 121.139776 
L 300.505991 121.891598 
L 300.838009 122.257365 
L 301.170026 122.169273 
L 301.502044 121.799769 
L 301.834061 121.731612 
L 302.166079 121.873429 
L 302.498096 121.59349 
L 304.158183 126.009201 
L 304.490201 126.433796 
L 304.822218 126.421788 
L 305.154236 126.169334 
L 305.486253 125.592515 
L 305.818271 125.654758 
L 306.150288 125.518943 
L 306.482306 125.525605 
L 306.814323 124.868215 
L 307.478358 124.241519 
L 307.810376 123.678219 
L 308.142393 124.296138 
L 308.47441 124.313359 
L 308.806428 124.134284 
L 309.138445 124.184655 
L 309.470463 123.886105 
L 309.80248 124.091984 
L 310.134498 123.57301 
L 310.466515 123.779848 
L 311.13055 123.416866 
L 311.462568 122.65811 
L 311.794585 122.190504 
L 312.45862 119.489775 
L 312.790638 119.491273 
L 313.122655 119.310106 
L 313.454672 118.841776 
L 313.78669 119.016276 
L 314.118707 117.476996 
L 314.450725 117.259772 
L 314.782742 116.741435 
L 315.446777 113.841378 
L 315.778795 112.900396 
L 316.110812 111.584978 
L 316.44283 111.452115 
M 317.106865 110.929384 
L 317.438882 110.402567 
L 319.430987 103.73421 
L 319.763004 102.733425 
L 320.095022 102.884118 
M 320.759057 101.832071 
L 321.091074 102.270184 
L 321.423092 100.881905 
L 322.087127 101.054917 
L 322.751162 98.517277 
L 323.747214 96.940054 
L 324.079231 95.985226 
L 324.743266 93.693033 
L 325.075284 93.173381 
L 325.739319 90.927079 
L 326.071336 90.376346 
L 326.403354 90.459909 
L 327.067389 92.295657 
L 327.731424 95.357192 
L 328.395459 97.891249 
L 328.727476 97.921417 
L 329.059493 97.627793 
L 329.391511 97.546438 
L 329.723528 98.744667 
L 330.387563 98.804752 
L 330.719581 98.182633 
L 331.051598 98.315121 
L 331.383616 96.979557 
L 331.715633 97.356057 
L 332.047651 96.804478 
L 332.379668 96.538814 
L 332.711686 94.842905 
L 333.043703 95.031242 
L 333.707738 92.068751 
L 334.039755 92.581055 
L 335.035808 95.137522 
L 335.367825 95.538516 
L 335.699843 96.829247 
L 336.03186 97.310411 
L 336.363878 97.035239 
L 337.027913 97.032057 
L 337.35993 96.904681 
L 337.691948 97.481986 
L 338.023965 96.941974 
L 338.355983 96.014412 
L 339.020017 93.335062 
L 339.684052 95.68553 
L 340.01607 95.859972 
L 340.348087 95.741621 
L 341.012122 96.836098 
L 341.34414 96.300929 
L 342.008175 95.773007 
L 342.67221 95.542566 
L 343.004227 95.689606 
L 343.336245 96.26304 
L 344.000279 96.330021 
L 344.332297 95.881993 
L 344.664314 95.983609 
L 345.328349 95.543163 
L 345.992384 94.031577 
L 346.324402 93.619881 
L 346.656419 93.50378 
L 347.320454 96.005546 
L 347.652472 96.413672 
L 347.984489 97.610166 
L 348.316507 97.72939 
L 348.648524 97.337488 
L 348.980541 97.186385 
L 349.312559 96.728644 
L 349.976594 96.271726 
L 350.308611 96.904657 
M 350.972646 96.455337 
L 351.304664 96.451999 
L 351.636681 96.262101 
L 351.968699 96.43563 
L 352.300716 96.227473 
L 352.632734 96.498458 
L 352.964751 96.401336 
L 353.296769 96.017933 
L 354.292821 96.20597 
L 354.624838 97.732679 
L 354.956856 97.878811 
L 355.288873 97.138414 
L 355.620891 95.92025 
L 355.952908 96.065529 
L 356.284926 95.953629 
L 356.948961 94.128071 
L 357.280978 94.13551 
L 357.612996 94.595889 
L 357.945013 94.770294 
L 358.277031 95.129072 
L 358.609048 96.087057 
L 359.6051 95.0402 
L 360.269135 95.122892 
L 360.601153 95.070209 
L 360.93317 94.135369 
L 361.265188 94.223724 
L 361.929223 94.028955 
L 362.26124 94.283588 
L 362.593258 93.301236 
L 362.925275 92.842951 
L 363.58931 92.321865 
L 363.921328 92.522339 
L 364.253345 91.645684 
L 364.91738 91.847752 
L 365.249397 91.59399 
L 365.581415 91.776585 
L 365.913432 91.549337 
L 366.24545 92.520857 
L 366.577467 92.775685 
L 366.909485 93.512455 
L 367.57352 93.33715 
L 367.905537 93.512769 
L 368.237555 94.145554 
L 368.569572 93.967712 
L 368.90159 94.279204 
L 369.233607 94.366921 
L 369.565624 94.157421 
L 369.897642 93.748774 
L 370.229659 93.754693 
L 370.561677 93.434754 
L 371.225712 94.024629 
L 371.557729 94.086476 
L 371.889747 93.994817 
L 372.221764 93.369256 
L 372.553782 93.042876 
L 373.549834 91.416288 
L 373.881852 91.11695 
L 374.213869 91.026093 
L 374.545886 90.63438 
L 374.877904 90.572835 
L 375.209921 90.320486 
L 375.541939 89.33612 
L 376.537991 88.489411 
L 376.870009 87.92553 
L 377.534044 87.399401 
L 377.866061 89.105438 
L 378.198079 89.125757 
L 378.862114 85.280403 
L 379.194131 85.301343 
L 379.526148 82.618054 
L 379.858166 81.556162 
L 380.190183 81.372484 
L 380.522201 81.021317 
L 381.186236 81.229195 
L 381.518253 82.30347 
L 381.850271 82.152022 
L 382.182288 80.779227 
M 382.846323 79.146177 
L 383.178341 80.328045 
L 383.842376 81.07179 
M 384.50641 82.036343 
L 384.838428 82.8 
L 384.838428 82.8 
" style="fill:none;stroke:#1f77b4;stroke-linecap:square;stroke-width:1.5;"/>
   </g>
   <g id="line2d_12">
    <path clip-path="url(#p43bed3f548)" d="M 34.56 82.8 
L 414.72 82.8 
" style="fill:none;stroke:#000000;stroke-dasharray:1.5,2.475;stroke-dashoffset:0;stroke-width:1.5;"/>
   </g>
   <g id="patch_3">
    <path d="M 34.56 162 
L 34.56 3.6 
" style="fill:none;stroke:#000000;stroke-linecap:square;stroke-linejoin:miter;stroke-width:0.8;"/>
   </g>
   <g id="patch_4">
    <path d="M 414.72 162 
L 414.72 3.6 
" style="fill:none;stroke:#000000;stroke-linecap:square;stroke-linejoin:miter;stroke-width:0.8;"/>
   </g>
   <g id="patch_5">
    <path d="M 34.56 162 
L 414.72 162 
" style="fill:none;stroke:#000000;stroke-linecap:square;stroke-linejoin:miter;stroke-width:0.8;"/>
   </g>
   <g id="patch_6">
    <path d="M 34.56 3.6 
L 414.72 3.6 
" style="fill:none;stroke:#000000;stroke-linecap:square;stroke-linejoin:miter;stroke-width:0.8;"/>
   </g>
  </g>
 </g>
 <defs>
  <clipPath id="p43bed3f548">
   <rect height="158.4" width="380.16" x="34.56" y="3.6"/>
  </clipPath>
 </defs>
</svg>
