<?xml version="1.0" encoding="utf-8" standalone="no"?>
<!DOCTYPE svg PUBLIC "-//W3C//DTD SVG 1.1//EN"
  "http://www.w3.org/Graphics/SVG/1.1/DTD/svg11.dtd">
<svg height="180pt" version="1.1" viewBox="0 0 432 180" width="432pt" xmlns="http://www.w3.org/2000/svg" xmlns:xlink="http://www.w3.org/1999/xlink">
 <metadata>
  <rdf:RDF xmlns:cc="http://creativecommons.org/ns#" xmlns:dc="http://purl.org/dc/elements/1.1/" xmlns:rdf="http://www.w3.org/1999/02/22-rdf-syntax-ns#">
   <cc:Work>
    <dc:type rdf:resource="http://purl.org/dc/dcmitype/StillImage"/>
    <dc:date>2021-08-12T10:41:48.859192</dc:date>
    <dc:format>image/svg+xml</dc:format>
    <dc:creator>
     <cc:Agent>
      <dc:title>Matplotlib v3.4.2, https://matplotlib.org/</dc:title>
     </cc:Agent>
    </dc:creator>
   </cc:Work>
  </rdf:RDF>
 </metadata>
 <defs>
  <style type="text/css">*{stroke-linecap:butt;stroke-linejoin:round;}</style>
 </defs>
 <g id="figure_1">
  <g id="patch_1">
   <path d="M 0 180 
L 432 180 
L 432 0 
L 0 0 
z
" style="fill:#ffffff;"/>
  </g>
  <g id="axes_1">
   <g id="patch_2">
    <path d="M 34.56 162 
L 414.72 162 
L 414.72 3.6 
L 34.56 3.6 
z
" style="fill:#ffffff;"/>
   </g>
   <g id="PolyCollection_1">
    <defs>
     <path d="M 76.183358 -97.668499 
L 76.183358 -96.731501 
L 76.645839 -96.265187 
L 77.108321 -95.800329 
L 77.570803 -95.336925 
L 78.033285 -94.874977 
L 78.495766 -94.414483 
L 78.958248 -93.955444 
L 79.42073 -93.49786 
L 79.883212 -93.041732 
L 80.345693 -92.587058 
L 80.808175 -92.133839 
L 81.270657 -91.682075 
L 81.733139 -91.231766 
L 82.19562 -90.782912 
L 82.658102 -90.335513 
L 83.120584 -89.889569 
L 83.583066 -89.44508 
L 84.045547 -89.002046 
L 84.508029 -88.560467 
L 84.970511 -88.120342 
L 85.432993 -87.681673 
L 85.895474 -87.244459 
L 86.357956 -86.808699 
L 86.820438 -86.374395 
L 87.28292 -85.941545 
L 87.745401 -85.510151 
L 88.207883 -85.080211 
L 88.670365 -84.651727 
L 89.132847 -84.224697 
L 89.595328 -83.799122 
L 90.05781 -83.375003 
L 90.520292 -82.952338 
L 90.982774 -82.531128 
L 91.445255 -82.111373 
L 91.907737 -81.693073 
L 92.370219 -81.276228 
L 92.832701 -80.860838 
L 93.295182 -80.446903 
L 93.757664 -80.034423 
L 94.220146 -79.623398 
L 94.682628 -79.213828 
L 95.145109 -78.805713 
L 95.607591 -78.399052 
L 96.070073 -77.993847 
L 96.532555 -77.590097 
L 96.995036 -77.187801 
L 97.457518 -76.786961 
L 97.92 -76.387575 
L 98.382482 -75.989645 
L 98.844964 -75.593169 
L 99.307445 -75.198149 
L 99.769927 -74.804583 
L 100.232409 -74.412472 
L 100.694891 -74.021816 
L 101.157372 -73.632616 
L 101.619854 -73.24487 
L 102.082336 -72.858579 
L 102.544818 -72.473743 
L 103.007299 -72.090362 
L 103.469781 -71.708436 
L 103.932263 -71.327965 
L 104.394745 -70.948949 
L 104.857226 -70.571388 
L 105.319708 -70.195282 
L 105.78219 -69.82063 
L 106.244672 -69.447434 
L 106.707153 -69.075693 
L 107.169635 -68.705406 
L 107.632117 -68.336575 
L 108.094599 -67.969199 
L 108.55708 -67.603277 
L 109.019562 -67.238811 
L 109.482044 -66.875799 
L 109.944526 -66.514242 
L 110.407007 -66.154141 
L 110.869489 -65.795494 
L 111.331971 -65.438302 
L 111.794453 -65.082565 
L 112.256934 -64.728284 
L 112.719416 -64.375457 
L 113.181898 -64.024085 
L 113.64438 -63.674168 
L 114.106861 -63.325706 
L 114.569343 -62.978699 
L 115.031825 -62.633147 
L 115.494307 -62.289049 
L 115.956788 -61.946407 
L 116.41927 -61.60522 
L 116.881752 -61.265488 
L 117.344234 -60.92721 
L 117.806715 -60.590388 
L 118.269197 -60.255021 
L 118.731679 -59.921108 
L 119.194161 -59.588651 
L 119.656642 -59.257648 
L 120.119124 -58.928101 
L 120.581606 -58.600008 
L 121.044088 -58.27337 
L 121.506569 -57.948188 
L 121.969051 -57.62446 
L 122.431533 -57.302187 
L 122.894015 -56.981369 
L 123.356496 -56.662006 
L 123.818978 -56.344098 
L 124.28146 -56.027645 
L 124.743942 -55.712647 
L 125.206423 -55.399104 
L 125.668905 -55.087016 
L 126.131387 -54.776383 
L 126.593869 -54.467205 
L 127.05635 -54.159482 
L 127.518832 -53.853213 
L 127.981314 -53.5484 
L 128.443796 -53.245042 
L 128.906277 -52.943138 
L 129.368759 -52.64269 
L 129.831241 -52.343696 
L 130.293723 -52.046158 
L 130.756204 -51.750074 
L 131.218686 -51.455445 
L 131.681168 -51.162272 
L 132.14365 -50.870553 
L 132.606131 -50.580289 
L 133.068613 -50.29148 
L 133.531095 -50.004127 
L 133.993577 -49.718228 
L 134.456058 -49.433784 
L 134.91854 -49.150795 
L 135.381022 -48.869261 
L 135.843504 -48.589182 
L 136.305985 -48.310558 
L 136.768467 -48.033388 
L 137.230949 -47.757674 
L 137.693431 -47.483415 
L 138.155912 -47.210611 
L 138.618394 -46.939261 
L 139.080876 -46.669367 
L 139.543358 -46.400928 
L 140.005839 -46.133943 
L 140.468321 -45.868414 
L 140.930803 -45.604339 
L 141.393285 -45.341719 
L 141.855766 -45.080555 
L 142.318248 -44.820845 
L 142.78073 -44.56259 
L 143.243212 -44.305791 
L 143.705693 -44.050446 
L 144.168175 -43.796556 
L 144.630657 -43.544121 
L 145.093139 -43.293141 
L 145.55562 -43.043616 
L 146.018102 -42.795546 
L 146.480584 -42.548931 
L 146.943066 -42.303771 
L 147.405547 -42.060066 
L 147.868029 -41.817815 
L 148.330511 -41.57702 
L 148.792993 -41.33768 
L 149.255474 -41.099795 
L 149.717956 -40.863364 
L 150.180438 -40.628389 
L 150.64292 -40.394868 
L 151.105401 -40.162803 
L 151.567883 -39.932192 
L 152.030365 -39.703037 
L 152.492847 -39.475336 
L 152.955328 -39.24909 
L 153.41781 -39.024299 
L 153.880292 -38.800964 
L 154.342774 -38.579083 
L 154.805255 -38.358657 
L 155.267737 -38.139686 
L 155.730219 -37.92217 
L 156.192701 -37.706109 
L 156.655182 -37.491503 
L 157.117664 -37.278352 
L 157.580146 -37.066656 
L 158.042628 -36.856415 
L 158.505109 -36.647628 
L 158.967591 -36.440297 
L 159.430073 -36.234421 
L 159.892555 -36.03 
L 160.355036 -35.827033 
L 160.817518 -35.625522 
L 161.28 -35.425465 
L 161.742482 -35.226864 
L 162.204964 -35.029717 
L 162.667445 -34.834026 
L 163.129927 -34.639789 
L 163.592409 -34.447007 
L 164.054891 -34.25568 
L 164.517372 -34.065809 
L 164.979854 -33.877392 
L 165.442336 -33.69043 
L 165.904818 -33.504923 
L 166.367299 -33.320871 
L 166.829781 -33.138274 
L 167.292263 -32.957132 
L 167.754745 -32.777445 
L 168.217226 -32.599213 
L 168.679708 -32.422436 
L 169.14219 -32.247113 
L 169.604672 -32.073246 
L 170.067153 -31.900834 
L 170.529635 -31.729876 
L 170.992117 -31.560374 
L 171.454599 -31.392327 
L 171.91708 -31.225734 
L 172.379562 -31.060597 
L 172.842044 -30.896914 
L 173.304526 -30.734686 
L 173.767007 -30.573914 
L 174.229489 -30.414596 
L 174.691971 -30.256733 
L 175.154453 -30.100325 
L 175.616934 -29.945373 
L 176.079416 -29.791875 
L 176.541898 -29.639832 
L 177.00438 -29.489244 
L 177.466861 -29.340111 
L 177.929343 -29.192433 
L 178.391825 -29.04621 
L 178.854307 -28.901442 
L 179.316788 -28.758128 
L 179.77927 -28.61627 
L 180.241752 -28.475867 
L 180.704234 -28.336919 
L 181.166715 -28.199425 
L 181.629197 -28.063387 
L 182.091679 -27.928803 
L 182.554161 -27.795675 
L 183.016642 -27.664001 
L 183.479124 -27.533783 
L 183.941606 -27.405019 
L 184.404088 -27.27771 
L 184.866569 -27.151857 
L 185.329051 -27.027458 
L 185.791533 -26.904514 
L 186.254015 -26.783025 
L 186.716496 -26.662991 
L 187.178978 -26.544412 
L 187.64146 -26.427288 
L 188.103942 -26.311619 
L 188.566423 -26.197405 
L 189.028905 -26.084646 
L 189.491387 -25.973342 
L 189.953869 -25.863493 
L 190.41635 -25.755099 
L 190.878832 -25.648159 
L 191.341314 -25.542675 
L 191.803796 -25.438646 
L 192.266277 -25.336071 
L 192.728759 -25.234952 
L 193.191241 -25.135287 
L 193.653723 -25.037078 
L 194.116204 -24.940323 
L 194.578686 -24.845024 
L 195.041168 -24.751179 
L 195.50365 -24.658789 
L 195.966131 -24.567854 
L 196.428613 -24.478375 
L 196.891095 -24.39035 
L 197.353577 -24.30378 
L 197.816058 -24.218665 
L 198.27854 -24.135005 
L 198.741022 -24.0528 
L 199.203504 -23.97205 
L 199.665985 -23.892755 
L 200.128467 -23.814915 
L 200.590949 -23.738529 
L 201.053431 -23.663599 
L 201.515912 -23.590124 
L 201.978394 -23.518104 
L 202.440876 -23.447538 
L 202.903358 -23.378428 
L 203.365839 -23.310772 
L 203.828321 -23.244572 
L 204.290803 -23.179826 
L 204.753285 -23.116536 
L 205.215766 -23.0547 
L 205.678248 -22.994319 
L 206.14073 -22.935394 
L 206.603212 -22.877923 
L 207.065693 -22.821907 
L 207.528175 -22.767346 
L 207.990657 -22.71424 
L 208.453139 -22.662589 
L 208.91562 -22.612393 
L 209.378102 -22.563652 
L 209.840584 -22.516366 
L 210.303066 -22.470535 
L 210.765547 -22.426159 
L 211.228029 -22.383238 
L 211.690511 -22.341771 
L 212.152993 -22.30176 
L 212.615474 -22.263204 
L 213.077956 -22.226102 
L 213.540438 -22.190456 
L 214.00292 -22.156264 
L 214.465401 -22.123528 
L 214.927883 -22.092246 
L 215.390365 -22.06242 
L 215.852847 -22.034048 
L 216.315328 -22.007131 
L 216.77781 -21.98167 
L 217.240292 -21.957663 
L 217.702774 -21.935111 
L 218.165255 -21.914014 
L 218.627737 -21.894372 
L 219.090219 -21.876185 
L 219.552701 -21.859453 
L 220.015182 -21.844176 
L 220.477664 -21.830354 
L 220.940146 -21.817987 
L 221.402628 -21.807075 
L 221.865109 -21.797618 
L 222.327591 -21.789616 
L 222.790073 -21.783068 
L 223.252555 -21.777976 
L 223.715036 -21.774338 
L 224.177518 -21.772156 
L 224.64 -21.771429 
L 225.102482 -21.772156 
L 225.564964 -21.774338 
L 226.027445 -21.777976 
L 226.489927 -21.783068 
L 226.952409 -21.789616 
L 227.414891 -21.797618 
L 227.877372 -21.807075 
L 228.339854 -21.817987 
L 228.802336 -21.830354 
L 229.264818 -21.844176 
L 229.727299 -21.859453 
L 230.189781 -21.876185 
L 230.652263 -21.894372 
L 231.114745 -21.914014 
L 231.577226 -21.935111 
L 232.039708 -21.957663 
L 232.50219 -21.98167 
L 232.964672 -22.007131 
L 233.427153 -22.034048 
L 233.889635 -22.06242 
L 234.352117 -22.092246 
L 234.814599 -22.123528 
L 235.27708 -22.156264 
L 235.739562 -22.190456 
L 236.202044 -22.226102 
L 236.664526 -22.263204 
L 237.127007 -22.30176 
L 237.589489 -22.341771 
L 238.051971 -22.383238 
L 238.514453 -22.426159 
L 238.976934 -22.470535 
L 239.439416 -22.516366 
L 239.901898 -22.563652 
L 240.36438 -22.612393 
L 240.826861 -22.662589 
L 241.289343 -22.71424 
L 241.751825 -22.767346 
L 242.214307 -22.821907 
L 242.676788 -22.877923 
L 243.13927 -22.935394 
L 243.601752 -22.994319 
L 244.064234 -23.0547 
L 244.526715 -23.116536 
L 244.989197 -23.179826 
L 245.451679 -23.244572 
L 245.914161 -23.310772 
L 246.376642 -23.378428 
L 246.839124 -23.447538 
L 247.301606 -23.518104 
L 247.764088 -23.590124 
L 248.226569 -23.663599 
L 248.689051 -23.738529 
L 249.151533 -23.814915 
L 249.614015 -23.892755 
L 250.076496 -23.97205 
L 250.538978 -24.0528 
L 251.00146 -24.135005 
L 251.463942 -24.218665 
L 251.926423 -24.30378 
L 252.388905 -24.39035 
L 252.851387 -24.478375 
L 253.313869 -24.567854 
L 253.77635 -24.658789 
L 254.238832 -24.751179 
L 254.701314 -24.845024 
L 255.163796 -24.940323 
L 255.626277 -25.037078 
L 256.088759 -25.135287 
L 256.551241 -25.234952 
L 257.013723 -25.336071 
L 257.476204 -25.438646 
L 257.938686 -25.542675 
L 258.401168 -25.648159 
L 258.86365 -25.755099 
L 259.326131 -25.863493 
L 259.788613 -25.973342 
L 260.251095 -26.084646 
L 260.713577 -26.197405 
L 261.176058 -26.311619 
L 261.63854 -26.427288 
L 262.101022 -26.544412 
L 262.563504 -26.662991 
L 263.025985 -26.783025 
L 263.488467 -26.904514 
L 263.950949 -27.027458 
L 264.413431 -27.151857 
L 264.875912 -27.27771 
L 265.338394 -27.405019 
L 265.800876 -27.533783 
L 266.263358 -27.664001 
L 266.725839 -27.795675 
L 267.188321 -27.928803 
L 267.650803 -28.063387 
L 268.113285 -28.199425 
L 268.575766 -28.336919 
L 269.038248 -28.475867 
L 269.50073 -28.61627 
L 269.963212 -28.758128 
L 270.425693 -28.901442 
L 270.888175 -29.04621 
L 271.350657 -29.192433 
L 271.813139 -29.340111 
L 272.27562 -29.489244 
L 272.738102 -29.639832 
L 273.200584 -29.791875 
L 273.663066 -29.945373 
L 274.125547 -30.100325 
L 274.588029 -30.256733 
L 275.050511 -30.414596 
L 275.512993 -30.573914 
L 275.975474 -30.734686 
L 276.437956 -30.896914 
L 276.900438 -31.060597 
L 277.36292 -31.225734 
L 277.825401 -31.392327 
L 278.287883 -31.560374 
L 278.750365 -31.729876 
L 279.212847 -31.900834 
L 279.675328 -32.073246 
L 280.13781 -32.247113 
L 280.600292 -32.422436 
L 281.062774 -32.599213 
L 281.525255 -32.777445 
L 281.987737 -32.957132 
L 282.450219 -33.138274 
L 282.912701 -33.320871 
L 283.375182 -33.504923 
L 283.837664 -33.69043 
L 284.300146 -33.877392 
L 284.762628 -34.065809 
L 285.225109 -34.25568 
L 285.687591 -34.447007 
L 286.150073 -34.639789 
L 286.612555 -34.834026 
L 287.075036 -35.029717 
L 287.537518 -35.226864 
L 288 -35.425465 
L 288.462482 -35.625522 
L 288.924964 -35.827033 
L 289.387445 -36.03 
L 289.849927 -36.234421 
L 290.312409 -36.440297 
L 290.774891 -36.647628 
L 291.237372 -36.856415 
L 291.699854 -37.066656 
L 292.162336 -37.278352 
L 292.624818 -37.491503 
L 293.087299 -37.706109 
L 293.549781 -37.92217 
L 294.012263 -38.139686 
L 294.474745 -38.358657 
L 294.937226 -38.579083 
L 295.399708 -38.800964 
L 295.86219 -39.024299 
L 296.324672 -39.24909 
L 296.787153 -39.475336 
L 297.249635 -39.703037 
L 297.712117 -39.932192 
L 298.174599 -40.162803 
L 298.63708 -40.394868 
L 299.099562 -40.628389 
L 299.562044 -40.863364 
L 300.024526 -41.099795 
L 300.487007 -41.33768 
L 300.949489 -41.57702 
L 301.411971 -41.817815 
L 301.874453 -42.060066 
L 302.336934 -42.303771 
L 302.799416 -42.548931 
L 303.261898 -42.795546 
L 303.72438 -43.043616 
L 304.186861 -43.293141 
L 304.649343 -43.544121 
L 305.111825 -43.796556 
L 305.574307 -44.050446 
L 306.036788 -44.305791 
L 306.49927 -44.56259 
L 306.961752 -44.820845 
L 307.424234 -45.080555 
L 307.886715 -45.341719 
L 308.349197 -45.604339 
L 308.811679 -45.868414 
L 309.274161 -46.133943 
L 309.736642 -46.400928 
L 310.199124 -46.669367 
L 310.661606 -46.939261 
L 311.124088 -47.210611 
L 311.586569 -47.483415 
L 312.049051 -47.757674 
L 312.511533 -48.033388 
L 312.974015 -48.310558 
L 313.436496 -48.589182 
L 313.898978 -48.869261 
L 314.36146 -49.150795 
L 314.823942 -49.433784 
L 315.286423 -49.718228 
L 315.748905 -50.004127 
L 316.211387 -50.29148 
L 316.673869 -50.580289 
L 317.13635 -50.870553 
L 317.598832 -51.162272 
L 318.061314 -51.455445 
L 318.523796 -51.750074 
L 318.986277 -52.046158 
L 319.448759 -52.343696 
L 319.911241 -52.64269 
L 320.373723 -52.943138 
L 320.836204 -53.245042 
L 321.298686 -53.5484 
L 321.761168 -53.853213 
L 322.22365 -54.159482 
L 322.686131 -54.467205 
L 323.148613 -54.776383 
L 323.611095 -55.087016 
L 324.073577 -55.399104 
L 324.536058 -55.712647 
L 324.99854 -56.027645 
L 325.461022 -56.344098 
L 325.923504 -56.662006 
L 326.385985 -56.981369 
L 326.848467 -57.302187 
L 327.310949 -57.62446 
L 327.773431 -57.948188 
L 328.235912 -58.27337 
L 328.698394 -58.600008 
L 329.160876 -58.928101 
L 329.623358 -59.257648 
L 330.085839 -59.588651 
L 330.548321 -59.921108 
L 331.010803 -60.255021 
L 331.473285 -60.590388 
L 331.935766 -60.92721 
L 332.398248 -61.265488 
L 332.86073 -61.60522 
L 333.323212 -61.946407 
L 333.785693 -62.289049 
L 334.248175 -62.633147 
L 334.710657 -62.978699 
L 335.173139 -63.325706 
L 335.63562 -63.674168 
L 336.098102 -64.024085 
L 336.560584 -64.375457 
L 337.023066 -64.728284 
L 337.485547 -65.082565 
L 337.948029 -65.438302 
L 338.410511 -65.795494 
L 338.872993 -66.154141 
L 339.335474 -66.514242 
L 339.797956 -66.875799 
L 340.260438 -67.238811 
L 340.72292 -67.603277 
L 341.185401 -67.969199 
L 341.647883 -68.336575 
L 342.110365 -68.705406 
L 342.572847 -69.075693 
L 343.035328 -69.447434 
L 343.49781 -69.82063 
L 343.960292 -70.195282 
L 344.422774 -70.571388 
L 344.885255 -70.948949 
L 345.347737 -71.327965 
L 345.810219 -71.708436 
L 346.272701 -72.090362 
L 346.735182 -72.473743 
L 347.197664 -72.858579 
L 347.660146 -73.24487 
L 348.122628 -73.632616 
L 348.585109 -74.021816 
L 349.047591 -74.412472 
L 349.510073 -74.804583 
L 349.972555 -75.198149 
L 350.435036 -75.593169 
L 350.897518 -75.989645 
L 351.36 -76.387575 
L 351.822482 -76.786961 
L 352.284964 -77.187801 
L 352.747445 -77.590097 
L 353.209927 -77.993847 
L 353.672409 -78.399052 
L 354.134891 -78.805713 
L 354.597372 -79.213828 
L 355.059854 -79.623398 
L 355.522336 -80.034423 
L 355.984818 -80.446903 
L 356.447299 -80.860838 
L 356.909781 -81.276228 
L 357.372263 -81.693073 
L 357.834745 -82.111373 
L 358.297226 -82.531128 
L 358.759708 -82.952338 
L 359.22219 -83.375003 
L 359.684672 -83.799122 
L 360.147153 -84.224697 
L 360.609635 -84.651727 
L 361.072117 -85.080211 
L 361.534599 -85.510151 
L 361.99708 -85.941545 
L 362.459562 -86.374395 
L 362.922044 -86.808699 
L 363.384526 -87.244459 
L 363.847007 -87.681673 
L 364.309489 -88.120342 
L 364.771971 -88.560467 
L 365.234453 -89.002046 
L 365.696934 -89.44508 
L 366.159416 -89.889569 
L 366.621898 -90.335513 
L 367.08438 -90.782912 
L 367.546861 -91.231766 
L 368.009343 -91.682075 
L 368.471825 -92.133839 
L 368.934307 -92.587058 
L 369.396788 -93.041732 
L 369.85927 -93.49786 
L 370.321752 -93.955444 
L 370.784234 -94.414483 
L 371.246715 -94.874977 
L 371.709197 -95.336925 
L 372.171679 -95.800329 
L 372.634161 -96.265187 
L 373.096642 -96.731501 
L 373.096642 -97.668499 
L 373.096642 -97.668499 
L 372.634161 -98.134813 
L 372.171679 -98.599671 
L 371.709197 -99.063075 
L 371.246715 -99.525023 
L 370.784234 -99.985517 
L 370.321752 -100.444556 
L 369.85927 -100.90214 
L 369.396788 -101.358268 
L 368.934307 -101.812942 
L 368.471825 -102.266161 
L 368.009343 -102.717925 
L 367.546861 -103.168234 
L 367.08438 -103.617088 
L 366.621898 -104.064487 
L 366.159416 -104.510431 
L 365.696934 -104.95492 
L 365.234453 -105.397954 
L 364.771971 -105.839533 
L 364.309489 -106.279658 
L 363.847007 -106.718327 
L 363.384526 -107.155541 
L 362.922044 -107.591301 
L 362.459562 -108.025605 
L 361.99708 -108.458455 
L 361.534599 -108.889849 
L 361.072117 -109.319789 
L 360.609635 -109.748273 
L 360.147153 -110.175303 
L 359.684672 -110.600878 
L 359.22219 -111.024997 
L 358.759708 -111.447662 
L 358.297226 -111.868872 
L 357.834745 -112.288627 
L 357.372263 -112.706927 
L 356.909781 -113.123772 
L 356.447299 -113.539162 
L 355.984818 -113.953097 
L 355.522336 -114.365577 
L 355.059854 -114.776602 
L 354.597372 -115.186172 
L 354.134891 -115.594287 
L 353.672409 -116.000948 
L 353.209927 -116.406153 
L 352.747445 -116.809903 
L 352.284964 -117.212199 
L 351.822482 -117.613039 
L 351.36 -118.012425 
L 350.897518 -118.410355 
L 350.435036 -118.806831 
L 349.972555 -119.201851 
L 349.510073 -119.595417 
L 349.047591 -119.987528 
L 348.585109 -120.378184 
L 348.122628 -120.767384 
L 347.660146 -121.15513 
L 347.197664 -121.541421 
L 346.735182 -121.926257 
L 346.272701 -122.309638 
L 345.810219 -122.691564 
L 345.347737 -123.072035 
L 344.885255 -123.451051 
L 344.422774 -123.828612 
L 343.960292 -124.204718 
L 343.49781 -124.57937 
L 343.035328 -124.952566 
L 342.572847 -125.324307 
L 342.110365 -125.694594 
L 341.647883 -126.063425 
L 341.185401 -126.430801 
L 340.72292 -126.796723 
L 340.260438 -127.161189 
L 339.797956 -127.524201 
L 339.335474 -127.885758 
L 338.872993 -128.245859 
L 338.410511 -128.604506 
L 337.948029 -128.961698 
L 337.485547 -129.317435 
L 337.023066 -129.671716 
L 336.560584 -130.024543 
L 336.098102 -130.375915 
L 335.63562 -130.725832 
L 335.173139 -131.074294 
L 334.710657 -131.421301 
L 334.248175 -131.766853 
L 333.785693 -132.110951 
L 333.323212 -132.453593 
L 332.86073 -132.79478 
L 332.398248 -133.134512 
L 331.935766 -133.47279 
L 331.473285 -133.809612 
L 331.010803 -134.144979 
L 330.548321 -134.478892 
L 330.085839 -134.811349 
L 329.623358 -135.142352 
L 329.160876 -135.471899 
L 328.698394 -135.799992 
L 328.235912 -136.12663 
L 327.773431 -136.451812 
L 327.310949 -136.77554 
L 326.848467 -137.097813 
L 326.385985 -137.418631 
L 325.923504 -137.737994 
L 325.461022 -138.055902 
L 324.99854 -138.372355 
L 324.536058 -138.687353 
L 324.073577 -139.000896 
L 323.611095 -139.312984 
L 323.148613 -139.623617 
L 322.686131 -139.932795 
L 322.22365 -140.240518 
L 321.761168 -140.546787 
L 321.298686 -140.8516 
L 320.836204 -141.154958 
L 320.373723 -141.456862 
L 319.911241 -141.75731 
L 319.448759 -142.056304 
L 318.986277 -142.353842 
L 318.523796 -142.649926 
L 318.061314 -142.944555 
L 317.598832 -143.237728 
L 317.13635 -143.529447 
L 316.673869 -143.819711 
L 316.211387 -144.10852 
L 315.748905 -144.395873 
L 315.286423 -144.681772 
L 314.823942 -144.966216 
L 314.36146 -145.249205 
L 313.898978 -145.530739 
L 313.436496 -145.810818 
L 312.974015 -146.089442 
L 312.511533 -146.366612 
L 312.049051 -146.642326 
L 311.586569 -146.916585 
L 311.124088 -147.189389 
L 310.661606 -147.460739 
L 310.199124 -147.730633 
L 309.736642 -147.999072 
L 309.274161 -148.266057 
L 308.811679 -148.531586 
L 308.349197 -148.795661 
L 307.886715 -149.058281 
L 307.424234 -149.319445 
L 306.961752 -149.579155 
L 306.49927 -149.83741 
L 306.036788 -150.094209 
L 305.574307 -150.349554 
L 305.111825 -150.603444 
L 304.649343 -150.855879 
L 304.186861 -151.106859 
L 303.72438 -151.356384 
L 303.261898 -151.604454 
L 302.799416 -151.851069 
L 302.336934 -152.096229 
L 301.874453 -152.339934 
L 301.411971 -152.582185 
L 300.949489 -152.82298 
L 300.487007 -153.06232 
L 300.024526 -153.300205 
L 299.562044 -153.536636 
L 299.099562 -153.771611 
L 298.63708 -154.005132 
L 298.174599 -154.237197 
L 297.712117 -154.467808 
L 297.249635 -154.696963 
L 296.787153 -154.924664 
L 296.324672 -155.15091 
L 295.86219 -155.375701 
L 295.399708 -155.599036 
L 294.937226 -155.820917 
L 294.474745 -156.041343 
L 294.012263 -156.260314 
L 293.549781 -156.47783 
L 293.087299 -156.693891 
L 292.624818 -156.908497 
L 292.162336 -157.121648 
L 291.699854 -157.333344 
L 291.237372 -157.543585 
L 290.774891 -157.752372 
L 290.312409 -157.959703 
L 289.849927 -158.165579 
L 289.387445 -158.37 
L 288.924964 -158.572967 
L 288.462482 -158.774478 
L 288 -158.974535 
L 287.537518 -159.173136 
L 287.075036 -159.370283 
L 286.612555 -159.565974 
L 286.150073 -159.760211 
L 285.687591 -159.952993 
L 285.225109 -160.14432 
L 284.762628 -160.334191 
L 284.300146 -160.522608 
L 283.837664 -160.70957 
L 283.375182 -160.895077 
L 282.912701 -161.079129 
L 282.450219 -161.261726 
L 281.987737 -161.442868 
L 281.525255 -161.622555 
L 281.062774 -161.800787 
L 280.600292 -161.977564 
L 280.13781 -162.152887 
L 279.675328 -162.326754 
L 279.212847 -162.499166 
L 278.750365 -162.670124 
L 278.287883 -162.839626 
L 277.825401 -163.007673 
L 277.36292 -163.174266 
L 276.900438 -163.339403 
L 276.437956 -163.503086 
L 275.975474 -163.665314 
L 275.512993 -163.826086 
L 275.050511 -163.985404 
L 274.588029 -164.143267 
L 274.125547 -164.299675 
L 273.663066 -164.454627 
L 273.200584 -164.608125 
L 272.738102 -164.760168 
L 272.27562 -164.910756 
L 271.813139 -165.059889 
L 271.350657 -165.207567 
L 270.888175 -165.35379 
L 270.425693 -165.498558 
L 269.963212 -165.641872 
L 269.50073 -165.78373 
L 269.038248 -165.924133 
L 268.575766 -166.063081 
L 268.113285 -166.200575 
L 267.650803 -166.336613 
L 267.188321 -166.471197 
L 266.725839 -166.604325 
L 266.263358 -166.735999 
L 265.800876 -166.866217 
L 265.338394 -166.994981 
L 264.875912 -167.12229 
L 264.413431 -167.248143 
L 263.950949 -167.372542 
L 263.488467 -167.495486 
L 263.025985 -167.616975 
L 262.563504 -167.737009 
L 262.101022 -167.855588 
L 261.63854 -167.972712 
L 261.176058 -168.088381 
L 260.713577 -168.202595 
L 260.251095 -168.315354 
L 259.788613 -168.426658 
L 259.326131 -168.536507 
L 258.86365 -168.644901 
L 258.401168 -168.751841 
L 257.938686 -168.857325 
L 257.476204 -168.961354 
L 257.013723 -169.063929 
L 256.551241 -169.165048 
L 256.088759 -169.264713 
L 255.626277 -169.362922 
L 255.163796 -169.459677 
L 254.701314 -169.554976 
L 254.238832 -169.648821 
L 253.77635 -169.741211 
L 253.313869 -169.832146 
L 252.851387 -169.921625 
L 252.388905 -170.00965 
L 251.926423 -170.09622 
L 251.463942 -170.181335 
L 251.00146 -170.264995 
L 250.538978 -170.3472 
L 250.076496 -170.42795 
L 249.614015 -170.507245 
L 249.151533 -170.585085 
L 248.689051 -170.661471 
L 248.226569 -170.736401 
L 247.764088 -170.809876 
L 247.301606 -170.881896 
L 246.839124 -170.952462 
L 246.376642 -171.021572 
L 245.914161 -171.089228 
L 245.451679 -171.155428 
L 244.989197 -171.220174 
L 244.526715 -171.283464 
L 244.064234 -171.3453 
L 243.601752 -171.405681 
L 243.13927 -171.464606 
L 242.676788 -171.522077 
L 242.214307 -171.578093 
L 241.751825 -171.632654 
L 241.289343 -171.68576 
L 240.826861 -171.737411 
L 240.36438 -171.787607 
L 239.901898 -171.836348 
L 239.439416 -171.883634 
L 238.976934 -171.929465 
L 238.514453 -171.973841 
L 238.051971 -172.016762 
L 237.589489 -172.058229 
L 237.127007 -172.09824 
L 236.664526 -172.136796 
L 236.202044 -172.173898 
L 235.739562 -172.209544 
L 235.27708 -172.243736 
L 234.814599 -172.276472 
L 234.352117 -172.307754 
L 233.889635 -172.33758 
L 233.427153 -172.365952 
L 232.964672 -172.392869 
L 232.50219 -172.41833 
L 232.039708 -172.442337 
L 231.577226 -172.464889 
L 231.114745 -172.485986 
L 230.652263 -172.505628 
L 230.189781 -172.523815 
L 229.727299 -172.540547 
L 229.264818 -172.555824 
L 228.802336 -172.569646 
L 228.339854 -172.582013 
L 227.877372 -172.592925 
L 227.414891 -172.602382 
L 226.952409 -172.610384 
L 226.489927 -172.616932 
L 226.027445 -172.622024 
L 225.564964 -172.625662 
L 225.102482 -172.627844 
L 224.64 -172.628571 
L 224.177518 -172.627844 
L 223.715036 -172.625662 
L 223.252555 -172.622024 
L 222.790073 -172.616932 
L 222.327591 -172.610384 
L 221.865109 -172.602382 
L 221.402628 -172.592925 
L 220.940146 -172.582013 
L 220.477664 -172.569646 
L 220.015182 -172.555824 
L 219.552701 -172.540547 
L 219.090219 -172.523815 
L 218.627737 -172.505628 
L 218.165255 -172.485986 
L 217.702774 -172.464889 
L 217.240292 -172.442337 
L 216.77781 -172.41833 
L 216.315328 -172.392869 
L 215.852847 -172.365952 
L 215.390365 -172.33758 
L 214.927883 -172.307754 
L 214.465401 -172.276472 
L 214.00292 -172.243736 
L 213.540438 -172.209544 
L 213.077956 -172.173898 
L 212.615474 -172.136796 
L 212.152993 -172.09824 
L 211.690511 -172.058229 
L 211.228029 -172.016762 
L 210.765547 -171.973841 
L 210.303066 -171.929465 
L 209.840584 -171.883634 
L 209.378102 -171.836348 
L 208.91562 -171.787607 
L 208.453139 -171.737411 
L 207.990657 -171.68576 
L 207.528175 -171.632654 
L 207.065693 -171.578093 
L 206.603212 -171.522077 
L 206.14073 -171.464606 
L 205.678248 -171.405681 
L 205.215766 -171.3453 
L 204.753285 -171.283464 
L 204.290803 -171.220174 
L 203.828321 -171.155428 
L 203.365839 -171.089228 
L 202.903358 -171.021572 
L 202.440876 -170.952462 
L 201.978394 -170.881896 
L 201.515912 -170.809876 
L 201.053431 -170.736401 
L 200.590949 -170.661471 
L 200.128467 -170.585085 
L 199.665985 -170.507245 
L 199.203504 -170.42795 
L 198.741022 -170.3472 
L 198.27854 -170.264995 
L 197.816058 -170.181335 
L 197.353577 -170.09622 
L 196.891095 -170.00965 
L 196.428613 -169.921625 
L 195.966131 -169.832146 
L 195.50365 -169.741211 
L 195.041168 -169.648821 
L 194.578686 -169.554976 
L 194.116204 -169.459677 
L 193.653723 -169.362922 
L 193.191241 -169.264713 
L 192.728759 -169.165048 
L 192.266277 -169.063929 
L 191.803796 -168.961354 
L 191.341314 -168.857325 
L 190.878832 -168.751841 
L 190.41635 -168.644901 
L 189.953869 -168.536507 
L 189.491387 -168.426658 
L 189.028905 -168.315354 
L 188.566423 -168.202595 
L 188.103942 -168.088381 
L 187.64146 -167.972712 
L 187.178978 -167.855588 
L 186.716496 -167.737009 
L 186.254015 -167.616975 
L 185.791533 -167.495486 
L 185.329051 -167.372542 
L 184.866569 -167.248143 
L 184.404088 -167.12229 
L 183.941606 -166.994981 
L 183.479124 -166.866217 
L 183.016642 -166.735999 
L 182.554161 -166.604325 
L 182.091679 -166.471197 
L 181.629197 -166.336613 
L 181.166715 -166.200575 
L 180.704234 -166.063081 
L 180.241752 -165.924133 
L 179.77927 -165.78373 
L 179.316788 -165.641872 
L 178.854307 -165.498558 
L 178.391825 -165.35379 
L 177.929343 -165.207567 
L 177.466861 -165.059889 
L 177.00438 -164.910756 
L 176.541898 -164.760168 
L 176.079416 -164.608125 
L 175.616934 -164.454627 
L 175.154453 -164.299675 
L 174.691971 -164.143267 
L 174.229489 -163.985404 
L 173.767007 -163.826086 
L 173.304526 -163.665314 
L 172.842044 -163.503086 
L 172.379562 -163.339403 
L 171.91708 -163.174266 
L 171.454599 -163.007673 
L 170.992117 -162.839626 
L 170.529635 -162.670124 
L 170.067153 -162.499166 
L 169.604672 -162.326754 
L 169.14219 -162.152887 
L 168.679708 -161.977564 
L 168.217226 -161.800787 
L 167.754745 -161.622555 
L 167.292263 -161.442868 
L 166.829781 -161.261726 
L 166.367299 -161.079129 
L 165.904818 -160.895077 
L 165.442336 -160.70957 
L 164.979854 -160.522608 
L 164.517372 -160.334191 
L 164.054891 -160.14432 
L 163.592409 -159.952993 
L 163.129927 -159.760211 
L 162.667445 -159.565974 
L 162.204964 -159.370283 
L 161.742482 -159.173136 
L 161.28 -158.974535 
L 160.817518 -158.774478 
L 160.355036 -158.572967 
L 159.892555 -158.37 
L 159.430073 -158.165579 
L 158.967591 -157.959703 
L 158.505109 -157.752372 
L 158.042628 -157.543585 
L 157.580146 -157.333344 
L 157.117664 -157.121648 
L 156.655182 -156.908497 
L 156.192701 -156.693891 
L 155.730219 -156.47783 
L 155.267737 -156.260314 
L 154.805255 -156.041343 
L 154.342774 -155.820917 
L 153.880292 -155.599036 
L 153.41781 -155.375701 
L 152.955328 -155.15091 
L 152.492847 -154.924664 
L 152.030365 -154.696963 
L 151.567883 -154.467808 
L 151.105401 -154.237197 
L 150.64292 -154.005132 
L 150.180438 -153.771611 
L 149.717956 -153.536636 
L 149.255474 -153.300205 
L 148.792993 -153.06232 
L 148.330511 -152.82298 
L 147.868029 -152.582185 
L 147.405547 -152.339934 
L 146.943066 -152.096229 
L 146.480584 -151.851069 
L 146.018102 -151.604454 
L 145.55562 -151.356384 
L 145.093139 -151.106859 
L 144.630657 -150.855879 
L 144.168175 -150.603444 
L 143.705693 -150.349554 
L 143.243212 -150.094209 
L 142.78073 -149.83741 
L 142.318248 -149.579155 
L 141.855766 -149.319445 
L 141.393285 -149.058281 
L 140.930803 -148.795661 
L 140.468321 -148.531586 
L 140.005839 -148.266057 
L 139.543358 -147.999072 
L 139.080876 -147.730633 
L 138.618394 -147.460739 
L 138.155912 -147.189389 
L 137.693431 -146.916585 
L 137.230949 -146.642326 
L 136.768467 -146.366612 
L 136.305985 -146.089442 
L 135.843504 -145.810818 
L 135.381022 -145.530739 
L 134.91854 -145.249205 
L 134.456058 -144.966216 
L 133.993577 -144.681772 
L 133.531095 -144.395873 
L 133.068613 -144.10852 
L 132.606131 -143.819711 
L 132.14365 -143.529447 
L 131.681168 -143.237728 
L 131.218686 -142.944555 
L 130.756204 -142.649926 
L 130.293723 -142.353842 
L 129.831241 -142.056304 
L 129.368759 -141.75731 
L 128.906277 -141.456862 
L 128.443796 -141.154958 
L 127.981314 -140.8516 
L 127.518832 -140.546787 
L 127.05635 -140.240518 
L 126.593869 -139.932795 
L 126.131387 -139.623617 
L 125.668905 -139.312984 
L 125.206423 -139.000896 
L 124.743942 -138.687353 
L 124.28146 -138.372355 
L 123.818978 -138.055902 
L 123.356496 -137.737994 
L 122.894015 -137.418631 
L 122.431533 -137.097813 
L 121.969051 -136.77554 
L 121.506569 -136.451812 
L 121.044088 -136.12663 
L 120.581606 -135.799992 
L 120.119124 -135.471899 
L 119.656642 -135.142352 
L 119.194161 -134.811349 
L 118.731679 -134.478892 
L 118.269197 -134.144979 
L 117.806715 -133.809612 
L 117.344234 -133.47279 
L 116.881752 -133.134512 
L 116.41927 -132.79478 
L 115.956788 -132.453593 
L 115.494307 -132.110951 
L 115.031825 -131.766853 
L 114.569343 -131.421301 
L 114.106861 -131.074294 
L 113.64438 -130.725832 
L 113.181898 -130.375915 
L 112.719416 -130.024543 
L 112.256934 -129.671716 
L 111.794453 -129.317435 
L 111.331971 -128.961698 
L 110.869489 -128.604506 
L 110.407007 -128.245859 
L 109.944526 -127.885758 
L 109.482044 -127.524201 
L 109.019562 -127.161189 
L 108.55708 -126.796723 
L 108.094599 -126.430801 
L 107.632117 -126.063425 
L 107.169635 -125.694594 
L 106.707153 -125.324307 
L 106.244672 -124.952566 
L 105.78219 -124.57937 
L 105.319708 -124.204718 
L 104.857226 -123.828612 
L 104.394745 -123.451051 
L 103.932263 -123.072035 
L 103.469781 -122.691564 
L 103.007299 -122.309638 
L 102.544818 -121.926257 
L 102.082336 -121.541421 
L 101.619854 -121.15513 
L 101.157372 -120.767384 
L 100.694891 -120.378184 
L 100.232409 -119.987528 
L 99.769927 -119.595417 
L 99.307445 -119.201851 
L 98.844964 -118.806831 
L 98.382482 -118.410355 
L 97.92 -118.012425 
L 97.457518 -117.613039 
L 96.995036 -117.212199 
L 96.532555 -116.809903 
L 96.070073 -116.406153 
L 95.607591 -116.000948 
L 95.145109 -115.594287 
L 94.682628 -115.186172 
L 94.220146 -114.776602 
L 93.757664 -114.365577 
L 93.295182 -113.953097 
L 92.832701 -113.539162 
L 92.370219 -113.123772 
L 91.907737 -112.706927 
L 91.445255 -112.288627 
L 90.982774 -111.868872 
L 90.520292 -111.447662 
L 90.05781 -111.024997 
L 89.595328 -110.600878 
L 89.132847 -110.175303 
L 88.670365 -109.748273 
L 88.207883 -109.319789 
L 87.745401 -108.889849 
L 87.28292 -108.458455 
L 86.820438 -108.025605 
L 86.357956 -107.591301 
L 85.895474 -107.155541 
L 85.432993 -106.718327 
L 84.970511 -106.279658 
L 84.508029 -105.839533 
L 84.045547 -105.397954 
L 83.583066 -104.95492 
L 83.120584 -104.510431 
L 82.658102 -104.064487 
L 82.19562 -103.617088 
L 81.733139 -103.168234 
L 81.270657 -102.717925 
L 80.808175 -102.266161 
L 80.345693 -101.812942 
L 79.883212 -101.358268 
L 79.42073 -100.90214 
L 78.958248 -100.444556 
L 78.495766 -99.985517 
L 78.033285 -99.525023 
L 77.570803 -99.063075 
L 77.108321 -98.599671 
L 76.645839 -98.134813 
L 76.183358 -97.668499 
z
" id="m7050487c5a" style="stroke:#0000ff;stroke-opacity:0.1;"/>
    </defs>
    <g clip-path="url(#pc8c50a150a)">
     <use style="fill:#0000ff;fill-opacity:0.1;stroke:#0000ff;stroke-opacity:0.1;" x="0" xlink:href="#m7050487c5a" y="180"/>
    </g>
   </g>
   <g id="matplotlib.axis_1">
    <g id="xtick_1">
     <g id="line2d_1">
      <defs>
       <path d="M 0 0 
L 0 3.5 
" id="m584d84c8d8" style="stroke:#000000;stroke-width:0.8;"/>
      </defs>
      <g>
       <use style="stroke:#000000;stroke-width:0.8;" x="37.10365" xlink:href="#m584d84c8d8" y="162"/>
      </g>
     </g>
     <g id="text_1">
      <!-- 1960 -->
      <g transform="translate(24.37865 176.598438)scale(0.1 -0.1)">
       <defs>
        <path d="M 794 531 
L 1825 531 
L 1825 4091 
L 703 3866 
L 703 4441 
L 1819 4666 
L 2450 4666 
L 2450 531 
L 3481 531 
L 3481 0 
L 794 0 
L 794 531 
z
" id="DejaVuSans-31" transform="scale(0.015625)"/>
        <path d="M 703 97 
L 703 672 
Q 941 559 1184 500 
Q 1428 441 1663 441 
Q 2288 441 2617 861 
Q 2947 1281 2994 2138 
Q 2813 1869 2534 1725 
Q 2256 1581 1919 1581 
Q 1219 1581 811 2004 
Q 403 2428 403 3163 
Q 403 3881 828 4315 
Q 1253 4750 1959 4750 
Q 2769 4750 3195 4129 
Q 3622 3509 3622 2328 
Q 3622 1225 3098 567 
Q 2575 -91 1691 -91 
Q 1453 -91 1209 -44 
Q 966 3 703 97 
z
M 1959 2075 
Q 2384 2075 2632 2365 
Q 2881 2656 2881 3163 
Q 2881 3666 2632 3958 
Q 2384 4250 1959 4250 
Q 1534 4250 1286 3958 
Q 1038 3666 1038 3163 
Q 1038 2656 1286 2365 
Q 1534 2075 1959 2075 
z
" id="DejaVuSans-39" transform="scale(0.015625)"/>
        <path d="M 2113 2584 
Q 1688 2584 1439 2293 
Q 1191 2003 1191 1497 
Q 1191 994 1439 701 
Q 1688 409 2113 409 
Q 2538 409 2786 701 
Q 3034 994 3034 1497 
Q 3034 2003 2786 2293 
Q 2538 2584 2113 2584 
z
M 3366 4563 
L 3366 3988 
Q 3128 4100 2886 4159 
Q 2644 4219 2406 4219 
Q 1781 4219 1451 3797 
Q 1122 3375 1075 2522 
Q 1259 2794 1537 2939 
Q 1816 3084 2150 3084 
Q 2853 3084 3261 2657 
Q 3669 2231 3669 1497 
Q 3669 778 3244 343 
Q 2819 -91 2113 -91 
Q 1303 -91 875 529 
Q 447 1150 447 2328 
Q 447 3434 972 4092 
Q 1497 4750 2381 4750 
Q 2619 4750 2861 4703 
Q 3103 4656 3366 4563 
z
" id="DejaVuSans-36" transform="scale(0.015625)"/>
        <path d="M 2034 4250 
Q 1547 4250 1301 3770 
Q 1056 3291 1056 2328 
Q 1056 1369 1301 889 
Q 1547 409 2034 409 
Q 2525 409 2770 889 
Q 3016 1369 3016 2328 
Q 3016 3291 2770 3770 
Q 2525 4250 2034 4250 
z
M 2034 4750 
Q 2819 4750 3233 4129 
Q 3647 3509 3647 2328 
Q 3647 1150 3233 529 
Q 2819 -91 2034 -91 
Q 1250 -91 836 529 
Q 422 1150 422 2328 
Q 422 3509 836 4129 
Q 1250 4750 2034 4750 
z
" id="DejaVuSans-30" transform="scale(0.015625)"/>
       </defs>
       <use xlink:href="#DejaVuSans-31"/>
       <use x="63.623047" xlink:href="#DejaVuSans-39"/>
       <use x="127.246094" xlink:href="#DejaVuSans-36"/>
       <use x="190.869141" xlink:href="#DejaVuSans-30"/>
      </g>
     </g>
    </g>
    <g id="xtick_2">
     <g id="line2d_2">
      <g>
       <use style="stroke:#000000;stroke-width:0.8;" x="92.60146" xlink:href="#m584d84c8d8" y="162"/>
      </g>
     </g>
     <g id="text_2">
      <!-- 1970 -->
      <g transform="translate(79.87646 176.598438)scale(0.1 -0.1)">
       <defs>
        <path d="M 525 4666 
L 3525 4666 
L 3525 4397 
L 1831 0 
L 1172 0 
L 2766 4134 
L 525 4134 
L 525 4666 
z
" id="DejaVuSans-37" transform="scale(0.015625)"/>
       </defs>
       <use xlink:href="#DejaVuSans-31"/>
       <use x="63.623047" xlink:href="#DejaVuSans-39"/>
       <use x="127.246094" xlink:href="#DejaVuSans-37"/>
       <use x="190.869141" xlink:href="#DejaVuSans-30"/>
      </g>
     </g>
    </g>
    <g id="xtick_3">
     <g id="line2d_3">
      <g>
       <use style="stroke:#000000;stroke-width:0.8;" x="148.09927" xlink:href="#m584d84c8d8" y="162"/>
      </g>
     </g>
     <g id="text_3">
      <!-- 1980 -->
      <g transform="translate(135.37427 176.598438)scale(0.1 -0.1)">
       <defs>
        <path d="M 2034 2216 
Q 1584 2216 1326 1975 
Q 1069 1734 1069 1313 
Q 1069 891 1326 650 
Q 1584 409 2034 409 
Q 2484 409 2743 651 
Q 3003 894 3003 1313 
Q 3003 1734 2745 1975 
Q 2488 2216 2034 2216 
z
M 1403 2484 
Q 997 2584 770 2862 
Q 544 3141 544 3541 
Q 544 4100 942 4425 
Q 1341 4750 2034 4750 
Q 2731 4750 3128 4425 
Q 3525 4100 3525 3541 
Q 3525 3141 3298 2862 
Q 3072 2584 2669 2484 
Q 3125 2378 3379 2068 
Q 3634 1759 3634 1313 
Q 3634 634 3220 271 
Q 2806 -91 2034 -91 
Q 1263 -91 848 271 
Q 434 634 434 1313 
Q 434 1759 690 2068 
Q 947 2378 1403 2484 
z
M 1172 3481 
Q 1172 3119 1398 2916 
Q 1625 2713 2034 2713 
Q 2441 2713 2670 2916 
Q 2900 3119 2900 3481 
Q 2900 3844 2670 4047 
Q 2441 4250 2034 4250 
Q 1625 4250 1398 4047 
Q 1172 3844 1172 3481 
z
" id="DejaVuSans-38" transform="scale(0.015625)"/>
       </defs>
       <use xlink:href="#DejaVuSans-31"/>
       <use x="63.623047" xlink:href="#DejaVuSans-39"/>
       <use x="127.246094" xlink:href="#DejaVuSans-38"/>
       <use x="190.869141" xlink:href="#DejaVuSans-30"/>
      </g>
     </g>
    </g>
    <g id="xtick_4">
     <g id="line2d_4">
      <g>
       <use style="stroke:#000000;stroke-width:0.8;" x="203.59708" xlink:href="#m584d84c8d8" y="162"/>
      </g>
     </g>
     <g id="text_4">
      <!-- 1990 -->
      <g transform="translate(190.87208 176.598438)scale(0.1 -0.1)">
       <use xlink:href="#DejaVuSans-31"/>
       <use x="63.623047" xlink:href="#DejaVuSans-39"/>
       <use x="127.246094" xlink:href="#DejaVuSans-39"/>
       <use x="190.869141" xlink:href="#DejaVuSans-30"/>
      </g>
     </g>
    </g>
    <g id="xtick_5">
     <g id="line2d_5">
      <g>
       <use style="stroke:#000000;stroke-width:0.8;" x="259.094891" xlink:href="#m584d84c8d8" y="162"/>
      </g>
     </g>
     <g id="text_5">
      <!-- 2000 -->
      <g transform="translate(246.369891 176.598438)scale(0.1 -0.1)">
       <defs>
        <path d="M 1228 531 
L 3431 531 
L 3431 0 
L 469 0 
L 469 531 
Q 828 903 1448 1529 
Q 2069 2156 2228 2338 
Q 2531 2678 2651 2914 
Q 2772 3150 2772 3378 
Q 2772 3750 2511 3984 
Q 2250 4219 1831 4219 
Q 1534 4219 1204 4116 
Q 875 4013 500 3803 
L 500 4441 
Q 881 4594 1212 4672 
Q 1544 4750 1819 4750 
Q 2544 4750 2975 4387 
Q 3406 4025 3406 3419 
Q 3406 3131 3298 2873 
Q 3191 2616 2906 2266 
Q 2828 2175 2409 1742 
Q 1991 1309 1228 531 
z
" id="DejaVuSans-32" transform="scale(0.015625)"/>
       </defs>
       <use xlink:href="#DejaVuSans-32"/>
       <use x="63.623047" xlink:href="#DejaVuSans-30"/>
       <use x="127.246094" xlink:href="#DejaVuSans-30"/>
       <use x="190.869141" xlink:href="#DejaVuSans-30"/>
      </g>
     </g>
    </g>
    <g id="xtick_6">
     <g id="line2d_6">
      <g>
       <use style="stroke:#000000;stroke-width:0.8;" x="314.592701" xlink:href="#m584d84c8d8" y="162"/>
      </g>
     </g>
     <g id="text_6">
      <!-- 2010 -->
      <g transform="translate(301.867701 176.598438)scale(0.1 -0.1)">
       <use xlink:href="#DejaVuSans-32"/>
       <use x="63.623047" xlink:href="#DejaVuSans-30"/>
       <use x="127.246094" xlink:href="#DejaVuSans-31"/>
       <use x="190.869141" xlink:href="#DejaVuSans-30"/>
      </g>
     </g>
    </g>
    <g id="xtick_7">
     <g id="line2d_7">
      <g>
       <use style="stroke:#000000;stroke-width:0.8;" x="370.090511" xlink:href="#m584d84c8d8" y="162"/>
      </g>
     </g>
     <g id="text_7">
      <!-- 2020 -->
      <g transform="translate(357.365511 176.598438)scale(0.1 -0.1)">
       <use xlink:href="#DejaVuSans-32"/>
       <use x="63.623047" xlink:href="#DejaVuSans-30"/>
       <use x="127.246094" xlink:href="#DejaVuSans-32"/>
       <use x="190.869141" xlink:href="#DejaVuSans-30"/>
      </g>
     </g>
    </g>
   </g>
   <g id="matplotlib.axis_2">
    <g id="ytick_1">
     <g id="line2d_8">
      <defs>
       <path d="M 0 0 
L -3.5 0 
" id="m55ce37c20a" style="stroke:#000000;stroke-width:0.8;"/>
      </defs>
      <g>
       <use style="stroke:#000000;stroke-width:0.8;" x="34.56" xlink:href="#m55ce37c20a" y="153.092253"/>
      </g>
     </g>
     <g id="text_8">
      <!-- −75 -->
      <g transform="translate(6.455313 156.891472)scale(0.1 -0.1)">
       <defs>
        <path d="M 678 2272 
L 4684 2272 
L 4684 1741 
L 678 1741 
L 678 2272 
z
" id="DejaVuSans-2212" transform="scale(0.015625)"/>
        <path d="M 691 4666 
L 3169 4666 
L 3169 4134 
L 1269 4134 
L 1269 2991 
Q 1406 3038 1543 3061 
Q 1681 3084 1819 3084 
Q 2600 3084 3056 2656 
Q 3513 2228 3513 1497 
Q 3513 744 3044 326 
Q 2575 -91 1722 -91 
Q 1428 -91 1123 -41 
Q 819 9 494 109 
L 494 744 
Q 775 591 1075 516 
Q 1375 441 1709 441 
Q 2250 441 2565 725 
Q 2881 1009 2881 1497 
Q 2881 1984 2565 2268 
Q 2250 2553 1709 2553 
Q 1456 2553 1204 2497 
Q 953 2441 691 2322 
L 691 4666 
z
" id="DejaVuSans-35" transform="scale(0.015625)"/>
       </defs>
       <use xlink:href="#DejaVuSans-2212"/>
       <use x="83.789062" xlink:href="#DejaVuSans-37"/>
       <use x="147.412109" xlink:href="#DejaVuSans-35"/>
      </g>
     </g>
    </g>
    <g id="ytick_2">
     <g id="line2d_9">
      <g>
       <use style="stroke:#000000;stroke-width:0.8;" x="34.56" xlink:href="#m55ce37c20a" y="129.661502"/>
      </g>
     </g>
     <g id="text_9">
      <!-- −50 -->
      <g transform="translate(6.455313 133.460721)scale(0.1 -0.1)">
       <use xlink:href="#DejaVuSans-2212"/>
       <use x="83.789062" xlink:href="#DejaVuSans-35"/>
       <use x="147.412109" xlink:href="#DejaVuSans-30"/>
      </g>
     </g>
    </g>
    <g id="ytick_3">
     <g id="line2d_10">
      <g>
       <use style="stroke:#000000;stroke-width:0.8;" x="34.56" xlink:href="#m55ce37c20a" y="106.230751"/>
      </g>
     </g>
     <g id="text_10">
      <!-- −25 -->
      <g transform="translate(6.455313 110.02997)scale(0.1 -0.1)">
       <use xlink:href="#DejaVuSans-2212"/>
       <use x="83.789062" xlink:href="#DejaVuSans-32"/>
       <use x="147.412109" xlink:href="#DejaVuSans-35"/>
      </g>
     </g>
    </g>
    <g id="ytick_4">
     <g id="line2d_11">
      <g>
       <use style="stroke:#000000;stroke-width:0.8;" x="34.56" xlink:href="#m55ce37c20a" y="82.8"/>
      </g>
     </g>
     <g id="text_11">
      <!-- 0 -->
      <g transform="translate(21.1975 86.599219)scale(0.1 -0.1)">
       <use xlink:href="#DejaVuSans-30"/>
      </g>
     </g>
    </g>
    <g id="ytick_5">
     <g id="line2d_12">
      <g>
       <use style="stroke:#000000;stroke-width:0.8;" x="34.56" xlink:href="#m55ce37c20a" y="59.369249"/>
      </g>
     </g>
     <g id="text_12">
      <!-- 25 -->
      <g transform="translate(14.835 63.168468)scale(0.1 -0.1)">
       <use xlink:href="#DejaVuSans-32"/>
       <use x="63.623047" xlink:href="#DejaVuSans-35"/>
      </g>
     </g>
    </g>
    <g id="ytick_6">
     <g id="line2d_13">
      <g>
       <use style="stroke:#000000;stroke-width:0.8;" x="34.56" xlink:href="#m55ce37c20a" y="35.938498"/>
      </g>
     </g>
     <g id="text_13">
      <!-- 50 -->
      <g transform="translate(14.835 39.737716)scale(0.1 -0.1)">
       <use xlink:href="#DejaVuSans-35"/>
       <use x="63.623047" xlink:href="#DejaVuSans-30"/>
      </g>
     </g>
    </g>
    <g id="ytick_7">
     <g id="line2d_14">
      <g>
       <use style="stroke:#000000;stroke-width:0.8;" x="34.56" xlink:href="#m55ce37c20a" y="12.507747"/>
      </g>
     </g>
     <g id="text_14">
      <!-- 75 -->
      <g transform="translate(14.835 16.306965)scale(0.1 -0.1)">
       <use xlink:href="#DejaVuSans-37"/>
       <use x="63.623047" xlink:href="#DejaVuSans-35"/>
      </g>
     </g>
    </g>
   </g>
   <g id="line2d_15">
    <path clip-path="url(#pc8c50a150a)" d="M 76.183358 82.651401 
L 77.570803 82.217231 
L 78.495766 82.455738 
L 79.883212 82.959617 
L 81.270657 82.877891 
L 81.733139 82.791338 
L 83.583066 83.276949 
L 84.970511 83.727505 
L 86.357956 83.668943 
L 86.820438 83.89238 
L 87.28292 83.812424 
L 88.670365 84.170651 
L 90.520292 84.968716 
L 90.982774 85.09018 
L 91.445255 85.356918 
L 91.907737 85.325723 
L 92.370219 85.441848 
L 92.832701 85.783721 
L 93.295182 85.796508 
L 93.757664 86.012756 
L 94.220146 85.925423 
L 95.607591 86.604372 
L 96.532555 86.727067 
L 97.457518 86.497057 
L 97.92 86.491731 
L 98.382482 86.785031 
L 98.844964 86.558068 
L 99.769927 86.523626 
L 100.232409 86.778162 
L 101.619854 87.071855 
L 102.082336 86.97916 
L 102.544818 87.096018 
L 103.007299 87.07954 
L 103.932263 86.847643 
L 104.394745 87.122777 
L 105.78219 87.431749 
L 107.169635 87.895357 
L 108.55708 88.293828 
L 109.019562 88.635821 
L 109.482044 88.83152 
L 109.944526 88.677866 
L 110.869489 88.871836 
L 111.331971 89.217107 
L 113.181898 89.868439 
L 113.64438 89.802081 
L 115.031825 90.081982 
L 115.494307 90.052591 
L 115.956788 90.144825 
L 116.881752 90.11751 
L 117.806715 90.257121 
L 118.269197 90.079525 
L 118.731679 90.147075 
L 119.656642 89.876483 
L 120.581606 89.731514 
L 121.506569 90.091709 
L 121.969051 90.018965 
L 124.28146 90.316458 
L 124.743942 90.195422 
L 125.668905 90.196877 
L 126.131387 90.082206 
L 126.593869 90.278167 
L 127.518832 90.267727 
L 130.756204 90.903278 
L 131.218686 91.223332 
L 131.681168 91.347235 
L 132.14365 91.627922 
L 134.456058 92.276985 
L 135.381022 92.291323 
L 135.843504 92.621722 
L 137.230949 92.745245 
L 137.693431 93.078084 
L 140.005839 93.494542 
L 141.393285 93.142929 
L 141.855766 93.430917 
L 142.78073 93.667451 
L 143.243212 93.982315 
L 144.168175 94.072395 
L 144.630657 94.40711 
L 145.55562 94.812752 
L 146.018102 95.059466 
L 146.480584 94.943643 
L 146.943066 95.112174 
L 147.868029 95.153661 
L 148.792993 95.702047 
L 151.567883 95.772777 
L 152.030365 95.8809 
L 152.955328 95.717933 
L 153.41781 95.999343 
L 154.342774 96.007489 
L 154.805255 95.873093 
L 155.730219 96.277152 
L 156.192701 96.039757 
L 157.117664 95.937026 
L 158.505109 96.028734 
L 159.430073 96.44964 
L 160.355036 97.014609 
L 161.28 97.371437 
L 161.742482 97.531206 
L 162.667445 97.539713 
L 163.129927 97.706269 
L 164.979854 97.738707 
L 167.292263 98.249159 
L 170.067153 99.385163 
L 170.992117 99.518486 
L 175.616934 100.365087 
L 176.079416 100.514118 
L 176.541898 100.30129 
L 177.929343 100.846363 
L 178.854307 101.565111 
L 180.241752 102.173088 
L 180.704234 102.161393 
L 181.166715 102.269236 
L 181.629197 102.125603 
L 182.091679 102.653646 
L 182.554161 102.866779 
L 183.016642 102.718779 
L 184.404088 103.095211 
L 185.791533 103.453753 
L 186.254015 103.694942 
L 187.178978 103.574932 
L 187.64146 103.764319 
L 188.103942 103.793483 
L 189.491387 104.293068 
L 189.953869 104.266456 
L 191.341314 104.513667 
L 191.803796 104.305057 
L 193.191241 103.977709 
L 193.653723 103.723139 
L 195.50365 103.840603 
L 195.966131 103.891436 
L 196.891095 103.75839 
L 197.353577 103.83413 
L 197.816058 103.602283 
L 199.203504 103.866692 
L 199.665985 103.772719 
L 200.590949 103.787983 
L 201.515912 103.814832 
L 205.215766 104.16678 
L 205.678248 104.280526 
L 206.14073 104.2465 
L 207.065693 104.450338 
L 207.528175 104.332949 
L 207.990657 104.573462 
L 208.91562 104.288041 
L 209.378102 104.445015 
L 210.765547 104.648944 
L 211.228029 104.348053 
L 212.152993 103.991596 
L 212.615474 103.547547 
L 216.315328 102.7651 
L 216.77781 102.769369 
L 217.240292 102.419747 
L 217.702774 102.402159 
L 218.165255 102.269207 
L 219.090219 102.478994 
L 220.477664 102.458312 
L 220.940146 102.275885 
L 221.402628 102.340543 
L 221.865109 102.539688 
L 222.327591 102.562389 
L 222.790073 102.466257 
L 223.252555 102.585627 
L 224.64 102.539326 
L 225.102482 102.593108 
L 225.564964 102.45824 
L 227.414891 102.315195 
L 228.802336 102.259724 
L 229.264818 101.98022 
L 229.727299 101.984217 
L 230.652263 102.353554 
L 231.114745 102.406447 
L 231.577226 102.27198 
L 232.50219 102.402958 
L 233.889635 102.093281 
L 234.352117 102.151604 
L 235.27708 102.13695 
L 235.739562 102.30134 
L 236.664526 102.273204 
L 239.439416 102.073759 
L 240.36438 102.215975 
L 240.826861 101.877308 
L 242.214307 102.055086 
L 242.676788 102.378651 
L 243.13927 102.558085 
L 244.064234 102.616226 
L 244.526715 102.505972 
L 244.989197 102.537586 
L 245.451679 102.434009 
L 245.914161 102.522786 
L 246.376642 102.491254 
L 246.839124 102.620894 
L 247.764088 102.304362 
L 249.151533 102.254724 
L 250.076496 102.22543 
L 250.538978 102.28589 
L 252.388905 102.082679 
L 255.626277 101.903458 
L 256.088759 101.949243 
L 257.013723 101.888412 
L 257.476204 102.09659 
L 259.788613 101.849788 
L 260.251095 101.581161 
L 261.176058 101.600278 
L 262.101022 101.223257 
L 262.563504 101.132706 
L 263.025985 101.22474 
L 263.488467 101.19107 
L 264.413431 101.352761 
L 265.338394 101.179048 
L 265.800876 101.136211 
L 266.725839 101.363579 
L 268.575766 101.602804 
L 270.425693 101.290151 
L 271.350657 101.319515 
L 272.27562 101.453027 
L 273.200584 101.812306 
L 274.125547 101.812599 
L 275.050511 101.681021 
L 276.437956 101.52361 
L 277.36292 101.641099 
L 277.825401 101.852923 
L 278.287883 101.879933 
L 279.675328 102.235911 
L 280.13781 102.072307 
L 281.062774 102.088339 
L 282.450219 101.871397 
L 283.375182 101.969763 
L 283.837664 102.192997 
L 286.150073 102.196987 
L 286.612555 102.33614 
L 287.075036 102.281997 
L 287.537518 102.084576 
L 288 102.133344 
L 288.462482 102.321705 
L 290.312409 102.245834 
L 290.774891 102.367969 
L 291.699854 102.334181 
L 292.162336 102.210949 
L 292.624818 102.379415 
L 294.012263 102.201007 
L 294.937226 102.36796 
L 295.399708 102.196646 
L 295.86219 102.168945 
L 296.787153 102.410083 
L 297.249635 102.563298 
L 299.099562 102.549909 
L 299.562044 102.682474 
L 300.024526 102.635395 
L 301.874453 102.960853 
L 303.261898 102.697527 
L 305.111825 102.645997 
L 306.036788 102.341199 
L 307.424234 102.195988 
L 308.349197 102.33059 
L 308.811679 102.268815 
L 309.274161 102.33054 
L 310.199124 101.8788 
L 311.586569 101.270625 
L 312.049051 101.342093 
L 312.974015 100.967362 
L 313.898978 100.883813 
L 314.36146 100.890303 
L 316.211387 100.487515 
L 317.13635 99.905706 
L 317.598832 99.668738 
L 319.448759 99.422883 
L 320.373723 99.463569 
L 324.99854 98.264452 
L 325.923504 97.982878 
L 328.698394 97.310488 
L 330.085839 96.726928 
L 331.473285 96.39687 
L 331.935766 96.151938 
L 332.398248 96.033491 
L 334.710657 94.874133 
L 337.023066 94.416506 
L 339.335474 94.166245 
L 340.72292 93.869248 
L 344.422774 93.690237 
L 345.347737 93.349683 
L 346.272701 93.09971 
L 349.510073 92.96105 
L 349.972555 92.783837 
L 350.435036 92.787241 
L 352.284964 92.255922 
L 353.209927 92.210827 
L 354.134891 91.898503 
L 355.059854 91.614645 
L 355.984818 91.212834 
L 356.909781 91.28454 
L 359.22219 90.932017 
L 360.609635 90.633206 
L 363.384526 89.147349 
L 363.847007 88.926515 
L 364.771971 88.145342 
L 365.234453 88.183684 
L 366.159416 87.675689 
L 366.621898 87.138166 
L 369.396788 85.060166 
L 369.85927 84.85326 
L 370.321752 84.794279 
L 372.634161 83.092265 
L 373.096642 82.8 
L 373.096642 82.8 
" style="fill:none;stroke:#1f77b4;stroke-linecap:square;stroke-width:1.5;"/>
   </g>
   <g id="line2d_16">
    <path clip-path="url(#pc8c50a150a)" d="M 34.56 82.8 
L 414.72 82.8 
" style="fill:none;stroke:#000000;stroke-dasharray:1.5,2.475;stroke-dashoffset:0;stroke-width:1.5;"/>
   </g>
   <g id="patch_3">
    <path d="M 34.56 162 
L 34.56 3.6 
" style="fill:none;stroke:#000000;stroke-linecap:square;stroke-linejoin:miter;stroke-width:0.8;"/>
   </g>
   <g id="patch_4">
    <path d="M 414.72 162 
L 414.72 3.6 
" style="fill:none;stroke:#000000;stroke-linecap:square;stroke-linejoin:miter;stroke-width:0.8;"/>
   </g>
   <g id="patch_5">
    <path d="M 34.56 162 
L 414.72 162 
" style="fill:none;stroke:#000000;stroke-linecap:square;stroke-linejoin:miter;stroke-width:0.8;"/>
   </g>
   <g id="patch_6">
    <path d="M 34.56 3.6 
L 414.72 3.6 
" style="fill:none;stroke:#000000;stroke-linecap:square;stroke-linejoin:miter;stroke-width:0.8;"/>
   </g>
  </g>
 </g>
 <defs>
  <clipPath id="pc8c50a150a">
   <rect height="158.4" width="380.16" x="34.56" y="3.6"/>
  </clipPath>
 </defs>
</svg>
