<?xml version="1.0" encoding="utf-8" standalone="no"?>
<!DOCTYPE svg PUBLIC "-//W3C//DTD SVG 1.1//EN"
  "http://www.w3.org/Graphics/SVG/1.1/DTD/svg11.dtd">
<svg height="180pt" version="1.1" viewBox="0 0 432 180" width="432pt" xmlns="http://www.w3.org/2000/svg" xmlns:xlink="http://www.w3.org/1999/xlink">
 <metadata>
  <rdf:RDF xmlns:cc="http://creativecommons.org/ns#" xmlns:dc="http://purl.org/dc/elements/1.1/" xmlns:rdf="http://www.w3.org/1999/02/22-rdf-syntax-ns#">
   <cc:Work>
    <dc:type rdf:resource="http://purl.org/dc/dcmitype/StillImage"/>
    <dc:date>2021-08-12T10:41:47.320401</dc:date>
    <dc:format>image/svg+xml</dc:format>
    <dc:creator>
     <cc:Agent>
      <dc:title>Matplotlib v3.4.2, https://matplotlib.org/</dc:title>
     </cc:Agent>
    </dc:creator>
   </cc:Work>
  </rdf:RDF>
 </metadata>
 <defs>
  <style type="text/css">*{stroke-linecap:butt;stroke-linejoin:round;}</style>
 </defs>
 <g id="figure_1">
  <g id="patch_1">
   <path d="M 0 180 
L 432 180 
L 432 0 
L 0 0 
z
" style="fill:#ffffff;"/>
  </g>
  <g id="axes_1">
   <g id="patch_2">
    <path d="M 34.56 162 
L 414.72 162 
L 414.72 3.6 
L 34.56 3.6 
z
" style="fill:#ffffff;"/>
   </g>
   <g id="PolyCollection_1">
    <defs>
     <path d="M 68.980926 -97.569747 
L 68.980926 -96.830253 
L 69.36338 -96.461866 
L 69.745835 -96.094386 
L 70.12829 -95.727812 
L 70.510744 -95.362145 
L 70.893199 -94.997383 
L 71.275654 -94.633528 
L 71.658109 -94.27058 
L 72.040563 -93.908537 
L 72.423018 -93.5474 
L 72.805473 -93.18717 
L 73.187928 -92.827846 
L 73.570382 -92.469429 
L 73.952837 -92.111917 
L 74.335292 -91.755312 
L 74.717746 -91.399613 
L 75.100201 -91.04482 
L 75.482656 -90.690934 
L 75.865111 -90.337954 
L 76.247565 -89.98588 
L 76.63002 -89.634712 
L 77.012475 -89.28445 
L 77.39493 -88.935095 
L 77.777384 -88.586646 
L 78.159839 -88.239103 
L 78.542294 -87.892467 
L 78.924748 -87.546736 
L 79.307203 -87.201912 
L 79.689658 -86.857994 
L 80.072113 -86.514983 
L 80.454567 -86.172877 
L 80.837022 -85.831678 
L 81.219477 -85.491385 
L 81.601932 -85.151999 
L 81.984386 -84.813518 
L 82.366841 -84.475944 
L 82.749296 -84.139276 
L 83.131751 -83.803515 
L 83.514205 -83.468659 
L 83.89666 -83.13471 
L 84.279115 -82.801667 
L 84.661569 -82.46953 
L 85.044024 -82.1383 
L 85.426479 -81.807975 
L 85.808934 -81.478557 
L 86.191388 -81.150046 
L 86.573843 -80.82244 
L 86.956298 -80.495741 
L 87.338753 -80.169948 
L 87.721207 -79.845061 
L 88.103662 -79.52108 
L 88.486117 -79.198006 
L 88.868571 -78.875838 
L 89.251026 -78.554576 
L 89.633481 -78.23422 
L 90.015936 -77.914771 
L 90.39839 -77.596228 
L 90.780845 -77.278591 
L 91.1633 -76.96186 
L 91.545755 -76.646036 
L 91.928209 -76.331118 
L 92.310664 -76.017106 
L 92.693119 -75.704 
L 93.075573 -75.391801 
L 93.458028 -75.080507 
L 93.840483 -74.77012 
L 94.222938 -74.46064 
L 94.605392 -74.152065 
L 94.987847 -73.844397 
L 95.370302 -73.537635 
L 95.752757 -73.231779 
L 96.135211 -72.926829 
L 96.517666 -72.622786 
L 96.900121 -72.319649 
L 97.282575 -72.017418 
L 97.66503 -71.716094 
L 98.047485 -71.415675 
L 98.42994 -71.116163 
L 98.812394 -70.817557 
L 99.194849 -70.519858 
L 99.577304 -70.223064 
L 99.959759 -69.927177 
L 100.342213 -69.632196 
L 100.724668 -69.338122 
L 101.107123 -69.044953 
L 101.489577 -68.752691 
L 101.872032 -68.461335 
L 102.254487 -68.170885 
L 102.636942 -67.881342 
L 103.019396 -67.592704 
L 103.401851 -67.304973 
L 103.784306 -67.018149 
L 104.166761 -66.73223 
L 104.549215 -66.447218 
L 104.93167 -66.163112 
L 105.314125 -65.879912 
L 105.696579 -65.597618 
L 106.079034 -65.316231 
L 106.461489 -65.03575 
L 106.843944 -64.756175 
L 107.226398 -64.477507 
L 107.608853 -64.199744 
L 107.991308 -63.922888 
L 108.373763 -63.646938 
L 108.756217 -63.371894 
L 109.138672 -63.097757 
L 109.521127 -62.824526 
L 109.903581 -62.552201 
L 110.286036 -62.280782 
L 110.668491 -62.01027 
L 111.050946 -61.740664 
L 111.4334 -61.471964 
L 111.815855 -61.20417 
L 112.19831 -60.937282 
L 112.580765 -60.671301 
L 112.963219 -60.406226 
L 113.345674 -60.142057 
L 113.728129 -59.878795 
L 114.110584 -59.616438 
L 114.493038 -59.354988 
L 114.875493 -59.094445 
L 115.257948 -58.834807 
L 115.640402 -58.576076 
L 116.022857 -58.318251 
L 116.405312 -58.061332 
L 116.787767 -57.805319 
L 117.170221 -57.550213 
L 117.552676 -57.296013 
L 117.935131 -57.042719 
L 118.317586 -56.790331 
L 118.70004 -56.53885 
L 119.082495 -56.288274 
L 119.46495 -56.038605 
L 119.847404 -55.789843 
L 120.229859 -55.541986 
L 120.612314 -55.295036 
L 120.994769 -55.048992 
L 121.377223 -54.803854 
L 121.759678 -54.559623 
L 122.142133 -54.316297 
L 122.524588 -54.073878 
L 122.907042 -53.832366 
L 123.289497 -53.591759 
L 123.671952 -53.352059 
L 124.054406 -53.113265 
L 124.436861 -52.875377 
L 124.819316 -52.638395 
L 125.201771 -52.40232 
L 125.584225 -52.167151 
L 125.96668 -51.932888 
L 126.349135 -51.699531 
L 126.73159 -51.467081 
L 127.114044 -51.235537 
L 127.496499 -51.004899 
L 127.878954 -50.775167 
L 128.261408 -50.546342 
L 128.643863 -50.318422 
L 129.026318 -50.091409 
L 129.408773 -49.865303 
L 129.791227 -49.640102 
L 130.173682 -49.415808 
L 130.556137 -49.19242 
L 130.938592 -48.969938 
L 131.321046 -48.748363 
L 131.703501 -48.527693 
L 132.085956 -48.30793 
L 132.46841 -48.089073 
L 132.850865 -47.871123 
L 133.23332 -47.654079 
L 133.615775 -47.43794 
L 133.998229 -47.222709 
L 134.380684 -47.008383 
L 134.763139 -46.794964 
L 135.145594 -46.582451 
L 135.528048 -46.370844 
L 135.910503 -46.160143 
L 136.292958 -45.950349 
L 136.675412 -45.74146 
L 137.057867 -45.533478 
L 137.440322 -45.326403 
L 137.822777 -45.120233 
L 138.205231 -44.91497 
L 138.587686 -44.710613 
L 138.970141 -44.507162 
L 139.352596 -44.304618 
L 139.73505 -44.10298 
L 140.117505 -43.902248 
L 140.49996 -43.702422 
L 140.882414 -43.503502 
L 141.264869 -43.305489 
L 141.647324 -43.108382 
L 142.029779 -42.912181 
L 142.412233 -42.716886 
L 142.794688 -42.522498 
L 143.177143 -42.329016 
L 143.559598 -42.13644 
L 143.942052 -41.94477 
L 144.324507 -41.754007 
L 144.706962 -41.56415 
L 145.089416 -41.375199 
L 145.471871 -41.187154 
L 145.854326 -41.000016 
L 146.236781 -40.813784 
L 146.619235 -40.628458 
L 147.00169 -40.444038 
L 147.384145 -40.260525 
L 147.7666 -40.077917 
L 148.149054 -39.896216 
L 148.531509 -39.715422 
L 148.913964 -39.535533 
L 149.296419 -39.356551 
L 149.678873 -39.178475 
L 150.061328 -39.001305 
L 150.443783 -38.825041 
L 150.826237 -38.649684 
L 151.208692 -38.475233 
L 151.591147 -38.301688 
L 151.973602 -38.12905 
L 152.356056 -37.957317 
L 152.738511 -37.786491 
L 153.120966 -37.616571 
L 153.503421 -37.447557 
L 153.885875 -37.27945 
L 154.26833 -37.112249 
L 154.650785 -36.945954 
L 155.033239 -36.780565 
L 155.415694 -36.616083 
L 155.798149 -36.452507 
L 156.180604 -36.289837 
L 156.563058 -36.128073 
L 156.945513 -35.967215 
L 157.327968 -35.807264 
L 157.710423 -35.648219 
L 158.092877 -35.49008 
L 158.475332 -35.332848 
L 158.857787 -35.176522 
L 159.240241 -35.021102 
L 159.622696 -34.866588 
L 160.005151 -34.71298 
L 160.387606 -34.560279 
L 160.77006 -34.408484 
L 161.152515 -34.257595 
L 161.53497 -34.107612 
L 161.917425 -33.958536 
L 162.299879 -33.810366 
L 162.682334 -33.663102 
L 163.064789 -33.516744 
L 163.447243 -33.371293 
L 163.829698 -33.226748 
L 164.212153 -33.083109 
L 164.594608 -32.940376 
L 164.977062 -32.798549 
L 165.359517 -32.657629 
L 165.741972 -32.517615 
L 166.124427 -32.378507 
L 166.506881 -32.240306 
L 166.889336 -32.103011 
L 167.271791 -31.966622 
L 167.654245 -31.831139 
L 168.0367 -31.696562 
L 168.419155 -31.562892 
L 168.80161 -31.430128 
L 169.184064 -31.29827 
L 169.566519 -31.167319 
L 169.948974 -31.037273 
L 170.331429 -30.908134 
L 170.713883 -30.779901 
L 171.096338 -30.652575 
L 171.478793 -30.526154 
L 171.861247 -30.40064 
L 172.243702 -30.276032 
L 172.626157 -30.15233 
L 173.008612 -30.029535 
L 173.391066 -29.907646 
L 173.773521 -29.786663 
L 174.155976 -29.666586 
L 174.538431 -29.547416 
L 174.920885 -29.429151 
L 175.30334 -29.311793 
L 175.685795 -29.195342 
L 176.068249 -29.079796 
L 176.450704 -28.965157 
L 176.833159 -28.851424 
L 177.215614 -28.738597 
L 177.598068 -28.626676 
L 177.980523 -28.515662 
L 178.362978 -28.405554 
L 178.745433 -28.296352 
L 179.127887 -28.188057 
L 179.510342 -28.080667 
L 179.892797 -27.974184 
L 180.275252 -27.868607 
L 180.657706 -27.763937 
L 181.040161 -27.660172 
L 181.422616 -27.557314 
L 181.80507 -27.455362 
L 182.187525 -27.354316 
L 182.56998 -27.254177 
L 182.952435 -27.154944 
L 183.334889 -27.056617 
L 183.717344 -26.959196 
L 184.099799 -26.862681 
L 184.482254 -26.767073 
L 184.864708 -26.672371 
L 185.247163 -26.578575 
L 185.629618 -26.485686 
L 186.012072 -26.393703 
L 186.394527 -26.302626 
L 186.776982 -26.212455 
L 187.159437 -26.12319 
L 187.541891 -26.034832 
L 187.924346 -25.94738 
L 188.306801 -25.860834 
L 188.689256 -25.775194 
L 189.07171 -25.690461 
L 189.454165 -25.606634 
L 189.83662 -25.523713 
L 190.219074 -25.441698 
L 190.601529 -25.36059 
L 190.983984 -25.280387 
L 191.366439 -25.201092 
L 191.748893 -25.122702 
L 192.131348 -25.045218 
L 192.513803 -24.968641 
L 192.896258 -24.89297 
L 193.278712 -24.818205 
L 193.661167 -24.744347 
L 194.043622 -24.671395 
L 194.426076 -24.599349 
L 194.808531 -24.528209 
L 195.190986 -24.457975 
L 195.573441 -24.388648 
L 195.955895 -24.320227 
L 196.33835 -24.252712 
L 196.720805 -24.186103 
L 197.10326 -24.120401 
L 197.485714 -24.055605 
L 197.868169 -23.991715 
L 198.250624 -23.928731 
L 198.633078 -23.866654 
L 199.015533 -23.805483 
L 199.397988 -23.745218 
L 199.780443 -23.685859 
L 200.162897 -23.627407 
L 200.545352 -23.569861 
L 200.927807 -23.513221 
L 201.310262 -23.457487 
L 201.692716 -23.402659 
L 202.075171 -23.348738 
L 202.457626 -23.295723 
L 202.84008 -23.243614 
L 203.222535 -23.192412 
L 203.60499 -23.142116 
L 203.987445 -23.092726 
L 204.369899 -23.044242 
L 204.752354 -22.996664 
L 205.134809 -22.949993 
L 205.517264 -22.904228 
L 205.899718 -22.859369 
L 206.282173 -22.815416 
L 206.664628 -22.77237 
L 207.047082 -22.73023 
L 207.429537 -22.688996 
L 207.811992 -22.648668 
L 208.194447 -22.609247 
L 208.576901 -22.570732 
L 208.959356 -22.533123 
L 209.341811 -22.49642 
L 209.724266 -22.460624 
L 210.10672 -22.425733 
L 210.489175 -22.391749 
L 210.87163 -22.358672 
L 211.254085 -22.3265 
L 211.636539 -22.295235 
L 212.018994 -22.264876 
L 212.401449 -22.235423 
L 212.783903 -22.206877 
L 213.166358 -22.179236 
L 213.548813 -22.152502 
L 213.931268 -22.126674 
L 214.313722 -22.101753 
L 214.696177 -22.077737 
L 215.078632 -22.054628 
L 215.461087 -22.032426 
L 215.843541 -22.011129 
L 216.225996 -21.990739 
L 216.608451 -21.971254 
L 216.990905 -21.952676 
L 217.37336 -21.935005 
L 217.755815 -21.918239 
L 218.13827 -21.90238 
L 218.520724 -21.887427 
L 218.903179 -21.873381 
L 219.285634 -21.86024 
L 219.668089 -21.848006 
L 220.050543 -21.836678 
L 220.432998 -21.826256 
L 220.815453 -21.816741 
L 221.197907 -21.808131 
L 221.580362 -21.800428 
L 221.962817 -21.793631 
L 222.345272 -21.787741 
L 222.727726 -21.782757 
L 223.110181 -21.778678 
L 223.492636 -21.775507 
L 223.875091 -21.773241 
L 224.257545 -21.771882 
L 224.64 -21.771429 
L 225.022455 -21.771882 
L 225.404909 -21.773241 
L 225.787364 -21.775507 
L 226.169819 -21.778678 
L 226.552274 -21.782757 
L 226.934728 -21.787741 
L 227.317183 -21.793631 
L 227.699638 -21.800428 
L 228.082093 -21.808131 
L 228.464547 -21.816741 
L 228.847002 -21.826256 
L 229.229457 -21.836678 
L 229.611911 -21.848006 
L 229.994366 -21.86024 
L 230.376821 -21.873381 
L 230.759276 -21.887427 
L 231.14173 -21.90238 
L 231.524185 -21.918239 
L 231.90664 -21.935005 
L 232.289095 -21.952676 
L 232.671549 -21.971254 
L 233.054004 -21.990739 
L 233.436459 -22.011129 
L 233.818913 -22.032426 
L 234.201368 -22.054628 
L 234.583823 -22.077737 
L 234.966278 -22.101753 
L 235.348732 -22.126674 
L 235.731187 -22.152502 
L 236.113642 -22.179236 
L 236.496097 -22.206877 
L 236.878551 -22.235423 
L 237.261006 -22.264876 
L 237.643461 -22.295235 
L 238.025915 -22.3265 
L 238.40837 -22.358672 
L 238.790825 -22.391749 
L 239.17328 -22.425733 
L 239.555734 -22.460624 
L 239.938189 -22.49642 
L 240.320644 -22.533123 
L 240.703099 -22.570732 
L 241.085553 -22.609247 
L 241.468008 -22.648668 
L 241.850463 -22.688996 
L 242.232918 -22.73023 
L 242.615372 -22.77237 
L 242.997827 -22.815416 
L 243.380282 -22.859369 
L 243.762736 -22.904228 
L 244.145191 -22.949993 
L 244.527646 -22.996664 
L 244.910101 -23.044242 
L 245.292555 -23.092726 
L 245.67501 -23.142116 
L 246.057465 -23.192412 
L 246.43992 -23.243614 
L 246.822374 -23.295723 
L 247.204829 -23.348738 
L 247.587284 -23.402659 
L 247.969738 -23.457487 
L 248.352193 -23.513221 
L 248.734648 -23.569861 
L 249.117103 -23.627407 
L 249.499557 -23.685859 
L 249.882012 -23.745218 
L 250.264467 -23.805483 
L 250.646922 -23.866654 
L 251.029376 -23.928731 
L 251.411831 -23.991715 
L 251.794286 -24.055605 
L 252.17674 -24.120401 
L 252.559195 -24.186103 
L 252.94165 -24.252712 
L 253.324105 -24.320227 
L 253.706559 -24.388648 
L 254.089014 -24.457975 
L 254.471469 -24.528209 
L 254.853924 -24.599349 
L 255.236378 -24.671395 
L 255.618833 -24.744347 
L 256.001288 -24.818205 
L 256.383742 -24.89297 
L 256.766197 -24.968641 
L 257.148652 -25.045218 
L 257.531107 -25.122702 
L 257.913561 -25.201092 
L 258.296016 -25.280387 
L 258.678471 -25.36059 
L 259.060926 -25.441698 
L 259.44338 -25.523713 
L 259.825835 -25.606634 
L 260.20829 -25.690461 
L 260.590744 -25.775194 
L 260.973199 -25.860834 
L 261.355654 -25.94738 
L 261.738109 -26.034832 
L 262.120563 -26.12319 
L 262.503018 -26.212455 
L 262.885473 -26.302626 
L 263.267928 -26.393703 
L 263.650382 -26.485686 
L 264.032837 -26.578575 
L 264.415292 -26.672371 
L 264.797746 -26.767073 
L 265.180201 -26.862681 
L 265.562656 -26.959196 
L 265.945111 -27.056617 
L 266.327565 -27.154944 
L 266.71002 -27.254177 
L 267.092475 -27.354316 
L 267.47493 -27.455362 
L 267.857384 -27.557314 
L 268.239839 -27.660172 
L 268.622294 -27.763937 
L 269.004748 -27.868607 
L 269.387203 -27.974184 
L 269.769658 -28.080667 
L 270.152113 -28.188057 
L 270.534567 -28.296352 
L 270.917022 -28.405554 
L 271.299477 -28.515662 
L 271.681932 -28.626676 
L 272.064386 -28.738597 
L 272.446841 -28.851424 
L 272.829296 -28.965157 
L 273.211751 -29.079796 
L 273.594205 -29.195342 
L 273.97666 -29.311793 
L 274.359115 -29.429151 
L 274.741569 -29.547416 
L 275.124024 -29.666586 
L 275.506479 -29.786663 
L 275.888934 -29.907646 
L 276.271388 -30.029535 
L 276.653843 -30.15233 
L 277.036298 -30.276032 
L 277.418753 -30.40064 
L 277.801207 -30.526154 
L 278.183662 -30.652575 
L 278.566117 -30.779901 
L 278.948571 -30.908134 
L 279.331026 -31.037273 
L 279.713481 -31.167319 
L 280.095936 -31.29827 
L 280.47839 -31.430128 
L 280.860845 -31.562892 
L 281.2433 -31.696562 
L 281.625755 -31.831139 
L 282.008209 -31.966622 
L 282.390664 -32.103011 
L 282.773119 -32.240306 
L 283.155573 -32.378507 
L 283.538028 -32.517615 
L 283.920483 -32.657629 
L 284.302938 -32.798549 
L 284.685392 -32.940376 
L 285.067847 -33.083109 
L 285.450302 -33.226748 
L 285.832757 -33.371293 
L 286.215211 -33.516744 
L 286.597666 -33.663102 
L 286.980121 -33.810366 
L 287.362575 -33.958536 
L 287.74503 -34.107612 
L 288.127485 -34.257595 
L 288.50994 -34.408484 
L 288.892394 -34.560279 
L 289.274849 -34.71298 
L 289.657304 -34.866588 
L 290.039759 -35.021102 
L 290.422213 -35.176522 
L 290.804668 -35.332848 
L 291.187123 -35.49008 
L 291.569577 -35.648219 
L 291.952032 -35.807264 
L 292.334487 -35.967215 
L 292.716942 -36.128073 
L 293.099396 -36.289837 
L 293.481851 -36.452507 
L 293.864306 -36.616083 
L 294.246761 -36.780565 
L 294.629215 -36.945954 
L 295.01167 -37.112249 
L 295.394125 -37.27945 
L 295.776579 -37.447557 
L 296.159034 -37.616571 
L 296.541489 -37.786491 
L 296.923944 -37.957317 
L 297.306398 -38.12905 
L 297.688853 -38.301688 
L 298.071308 -38.475233 
L 298.453763 -38.649684 
L 298.836217 -38.825041 
L 299.218672 -39.001305 
L 299.601127 -39.178475 
L 299.983581 -39.356551 
L 300.366036 -39.535533 
L 300.748491 -39.715422 
L 301.130946 -39.896216 
L 301.5134 -40.077917 
L 301.895855 -40.260525 
L 302.27831 -40.444038 
L 302.660765 -40.628458 
L 303.043219 -40.813784 
L 303.425674 -41.000016 
L 303.808129 -41.187154 
L 304.190584 -41.375199 
L 304.573038 -41.56415 
L 304.955493 -41.754007 
L 305.337948 -41.94477 
L 305.720402 -42.13644 
L 306.102857 -42.329016 
L 306.485312 -42.522498 
L 306.867767 -42.716886 
L 307.250221 -42.912181 
L 307.632676 -43.108382 
L 308.015131 -43.305489 
L 308.397586 -43.503502 
L 308.78004 -43.702422 
L 309.162495 -43.902248 
L 309.54495 -44.10298 
L 309.927404 -44.304618 
L 310.309859 -44.507162 
L 310.692314 -44.710613 
L 311.074769 -44.91497 
L 311.457223 -45.120233 
L 311.839678 -45.326403 
L 312.222133 -45.533478 
L 312.604588 -45.74146 
L 312.987042 -45.950349 
L 313.369497 -46.160143 
L 313.751952 -46.370844 
L 314.134406 -46.582451 
L 314.516861 -46.794964 
L 314.899316 -47.008383 
L 315.281771 -47.222709 
L 315.664225 -47.43794 
L 316.04668 -47.654079 
L 316.429135 -47.871123 
L 316.81159 -48.089073 
L 317.194044 -48.30793 
L 317.576499 -48.527693 
L 317.958954 -48.748363 
L 318.341408 -48.969938 
L 318.723863 -49.19242 
L 319.106318 -49.415808 
L 319.488773 -49.640102 
L 319.871227 -49.865303 
L 320.253682 -50.091409 
L 320.636137 -50.318422 
L 321.018592 -50.546342 
L 321.401046 -50.775167 
L 321.783501 -51.004899 
L 322.165956 -51.235537 
L 322.54841 -51.467081 
L 322.930865 -51.699531 
L 323.31332 -51.932888 
L 323.695775 -52.167151 
L 324.078229 -52.40232 
L 324.460684 -52.638395 
L 324.843139 -52.875377 
L 325.225594 -53.113265 
L 325.608048 -53.352059 
L 325.990503 -53.591759 
L 326.372958 -53.832366 
L 326.755412 -54.073878 
L 327.137867 -54.316297 
L 327.520322 -54.559623 
L 327.902777 -54.803854 
L 328.285231 -55.048992 
L 328.667686 -55.295036 
L 329.050141 -55.541986 
L 329.432596 -55.789843 
L 329.81505 -56.038605 
L 330.197505 -56.288274 
L 330.57996 -56.53885 
L 330.962414 -56.790331 
L 331.344869 -57.042719 
L 331.727324 -57.296013 
L 332.109779 -57.550213 
L 332.492233 -57.805319 
L 332.874688 -58.061332 
L 333.257143 -58.318251 
L 333.639598 -58.576076 
L 334.022052 -58.834807 
L 334.404507 -59.094445 
L 334.786962 -59.354988 
L 335.169416 -59.616438 
L 335.551871 -59.878795 
L 335.934326 -60.142057 
L 336.316781 -60.406226 
L 336.699235 -60.671301 
L 337.08169 -60.937282 
L 337.464145 -61.20417 
L 337.8466 -61.471964 
L 338.229054 -61.740664 
L 338.611509 -62.01027 
L 338.993964 -62.280782 
L 339.376419 -62.552201 
L 339.758873 -62.824526 
L 340.141328 -63.097757 
L 340.523783 -63.371894 
L 340.906237 -63.646938 
L 341.288692 -63.922888 
L 341.671147 -64.199744 
L 342.053602 -64.477507 
L 342.436056 -64.756175 
L 342.818511 -65.03575 
L 343.200966 -65.316231 
L 343.583421 -65.597618 
L 343.965875 -65.879912 
L 344.34833 -66.163112 
L 344.730785 -66.447218 
L 345.113239 -66.73223 
L 345.495694 -67.018149 
L 345.878149 -67.304973 
L 346.260604 -67.592704 
L 346.643058 -67.881342 
L 347.025513 -68.170885 
L 347.407968 -68.461335 
L 347.790423 -68.752691 
L 348.172877 -69.044953 
L 348.555332 -69.338122 
L 348.937787 -69.632196 
L 349.320241 -69.927177 
L 349.702696 -70.223064 
L 350.085151 -70.519858 
L 350.467606 -70.817557 
L 350.85006 -71.116163 
L 351.232515 -71.415675 
L 351.61497 -71.716094 
L 351.997425 -72.017418 
L 352.379879 -72.319649 
L 352.762334 -72.622786 
L 353.144789 -72.926829 
L 353.527243 -73.231779 
L 353.909698 -73.537635 
L 354.292153 -73.844397 
L 354.674608 -74.152065 
L 355.057062 -74.46064 
L 355.439517 -74.77012 
L 355.821972 -75.080507 
L 356.204427 -75.391801 
L 356.586881 -75.704 
L 356.969336 -76.017106 
L 357.351791 -76.331118 
L 357.734245 -76.646036 
L 358.1167 -76.96186 
L 358.499155 -77.278591 
L 358.88161 -77.596228 
L 359.264064 -77.914771 
L 359.646519 -78.23422 
L 360.028974 -78.554576 
L 360.411429 -78.875838 
L 360.793883 -79.198006 
L 361.176338 -79.52108 
L 361.558793 -79.845061 
L 361.941247 -80.169948 
L 362.323702 -80.495741 
L 362.706157 -80.82244 
L 363.088612 -81.150046 
L 363.471066 -81.478557 
L 363.853521 -81.807975 
L 364.235976 -82.1383 
L 364.618431 -82.46953 
L 365.000885 -82.801667 
L 365.38334 -83.13471 
L 365.765795 -83.468659 
L 366.148249 -83.803515 
L 366.530704 -84.139276 
L 366.913159 -84.475944 
L 367.295614 -84.813518 
L 367.678068 -85.151999 
L 368.060523 -85.491385 
L 368.442978 -85.831678 
L 368.825433 -86.172877 
L 369.207887 -86.514983 
L 369.590342 -86.857994 
L 369.972797 -87.201912 
L 370.355252 -87.546736 
L 370.737706 -87.892467 
L 371.120161 -88.239103 
L 371.502616 -88.586646 
L 371.88507 -88.935095 
L 372.267525 -89.28445 
L 372.64998 -89.634712 
L 373.032435 -89.98588 
L 373.414889 -90.337954 
L 373.797344 -90.690934 
L 374.179799 -91.04482 
L 374.562254 -91.399613 
L 374.944708 -91.755312 
L 375.327163 -92.111917 
L 375.709618 -92.469429 
L 376.092072 -92.827846 
L 376.474527 -93.18717 
L 376.856982 -93.5474 
L 377.239437 -93.908537 
L 377.621891 -94.27058 
L 378.004346 -94.633528 
L 378.386801 -94.997383 
L 378.769256 -95.362145 
L 379.15171 -95.727812 
L 379.534165 -96.094386 
L 379.91662 -96.461866 
L 380.299074 -96.830253 
L 380.299074 -97.569747 
L 380.299074 -97.569747 
L 379.91662 -97.938134 
L 379.534165 -98.305614 
L 379.15171 -98.672188 
L 378.769256 -99.037855 
L 378.386801 -99.402617 
L 378.004346 -99.766472 
L 377.621891 -100.12942 
L 377.239437 -100.491463 
L 376.856982 -100.8526 
L 376.474527 -101.21283 
L 376.092072 -101.572154 
L 375.709618 -101.930571 
L 375.327163 -102.288083 
L 374.944708 -102.644688 
L 374.562254 -103.000387 
L 374.179799 -103.35518 
L 373.797344 -103.709066 
L 373.414889 -104.062046 
L 373.032435 -104.41412 
L 372.64998 -104.765288 
L 372.267525 -105.11555 
L 371.88507 -105.464905 
L 371.502616 -105.813354 
L 371.120161 -106.160897 
L 370.737706 -106.507533 
L 370.355252 -106.853264 
L 369.972797 -107.198088 
L 369.590342 -107.542006 
L 369.207887 -107.885017 
L 368.825433 -108.227123 
L 368.442978 -108.568322 
L 368.060523 -108.908615 
L 367.678068 -109.248001 
L 367.295614 -109.586482 
L 366.913159 -109.924056 
L 366.530704 -110.260724 
L 366.148249 -110.596485 
L 365.765795 -110.931341 
L 365.38334 -111.26529 
L 365.000885 -111.598333 
L 364.618431 -111.93047 
L 364.235976 -112.2617 
L 363.853521 -112.592025 
L 363.471066 -112.921443 
L 363.088612 -113.249954 
L 362.706157 -113.57756 
L 362.323702 -113.904259 
L 361.941247 -114.230052 
L 361.558793 -114.554939 
L 361.176338 -114.87892 
L 360.793883 -115.201994 
L 360.411429 -115.524162 
L 360.028974 -115.845424 
L 359.646519 -116.16578 
L 359.264064 -116.485229 
L 358.88161 -116.803772 
L 358.499155 -117.121409 
L 358.1167 -117.43814 
L 357.734245 -117.753964 
L 357.351791 -118.068882 
L 356.969336 -118.382894 
L 356.586881 -118.696 
L 356.204427 -119.008199 
L 355.821972 -119.319493 
L 355.439517 -119.62988 
L 355.057062 -119.93936 
L 354.674608 -120.247935 
L 354.292153 -120.555603 
L 353.909698 -120.862365 
L 353.527243 -121.168221 
L 353.144789 -121.473171 
L 352.762334 -121.777214 
L 352.379879 -122.080351 
L 351.997425 -122.382582 
L 351.61497 -122.683906 
L 351.232515 -122.984325 
L 350.85006 -123.283837 
L 350.467606 -123.582443 
L 350.085151 -123.880142 
L 349.702696 -124.176936 
L 349.320241 -124.472823 
L 348.937787 -124.767804 
L 348.555332 -125.061878 
L 348.172877 -125.355047 
L 347.790423 -125.647309 
L 347.407968 -125.938665 
L 347.025513 -126.229115 
L 346.643058 -126.518658 
L 346.260604 -126.807296 
L 345.878149 -127.095027 
L 345.495694 -127.381851 
L 345.113239 -127.66777 
L 344.730785 -127.952782 
L 344.34833 -128.236888 
L 343.965875 -128.520088 
L 343.583421 -128.802382 
L 343.200966 -129.083769 
L 342.818511 -129.36425 
L 342.436056 -129.643825 
L 342.053602 -129.922493 
L 341.671147 -130.200256 
L 341.288692 -130.477112 
L 340.906237 -130.753062 
L 340.523783 -131.028106 
L 340.141328 -131.302243 
L 339.758873 -131.575474 
L 339.376419 -131.847799 
L 338.993964 -132.119218 
L 338.611509 -132.38973 
L 338.229054 -132.659336 
L 337.8466 -132.928036 
L 337.464145 -133.19583 
L 337.08169 -133.462718 
L 336.699235 -133.728699 
L 336.316781 -133.993774 
L 335.934326 -134.257943 
L 335.551871 -134.521205 
L 335.169416 -134.783562 
L 334.786962 -135.045012 
L 334.404507 -135.305555 
L 334.022052 -135.565193 
L 333.639598 -135.823924 
L 333.257143 -136.081749 
L 332.874688 -136.338668 
L 332.492233 -136.594681 
L 332.109779 -136.849787 
L 331.727324 -137.103987 
L 331.344869 -137.357281 
L 330.962414 -137.609669 
L 330.57996 -137.86115 
L 330.197505 -138.111726 
L 329.81505 -138.361395 
L 329.432596 -138.610157 
L 329.050141 -138.858014 
L 328.667686 -139.104964 
L 328.285231 -139.351008 
L 327.902777 -139.596146 
L 327.520322 -139.840377 
L 327.137867 -140.083703 
L 326.755412 -140.326122 
L 326.372958 -140.567634 
L 325.990503 -140.808241 
L 325.608048 -141.047941 
L 325.225594 -141.286735 
L 324.843139 -141.524623 
L 324.460684 -141.761605 
L 324.078229 -141.99768 
L 323.695775 -142.232849 
L 323.31332 -142.467112 
L 322.930865 -142.700469 
L 322.54841 -142.932919 
L 322.165956 -143.164463 
L 321.783501 -143.395101 
L 321.401046 -143.624833 
L 321.018592 -143.853658 
L 320.636137 -144.081578 
L 320.253682 -144.308591 
L 319.871227 -144.534697 
L 319.488773 -144.759898 
L 319.106318 -144.984192 
L 318.723863 -145.20758 
L 318.341408 -145.430062 
L 317.958954 -145.651637 
L 317.576499 -145.872307 
L 317.194044 -146.09207 
L 316.81159 -146.310927 
L 316.429135 -146.528877 
L 316.04668 -146.745921 
L 315.664225 -146.96206 
L 315.281771 -147.177291 
L 314.899316 -147.391617 
L 314.516861 -147.605036 
L 314.134406 -147.817549 
L 313.751952 -148.029156 
L 313.369497 -148.239857 
L 312.987042 -148.449651 
L 312.604588 -148.65854 
L 312.222133 -148.866522 
L 311.839678 -149.073597 
L 311.457223 -149.279767 
L 311.074769 -149.48503 
L 310.692314 -149.689387 
L 310.309859 -149.892838 
L 309.927404 -150.095382 
L 309.54495 -150.29702 
L 309.162495 -150.497752 
L 308.78004 -150.697578 
L 308.397586 -150.896498 
L 308.015131 -151.094511 
L 307.632676 -151.291618 
L 307.250221 -151.487819 
L 306.867767 -151.683114 
L 306.485312 -151.877502 
L 306.102857 -152.070984 
L 305.720402 -152.26356 
L 305.337948 -152.45523 
L 304.955493 -152.645993 
L 304.573038 -152.83585 
L 304.190584 -153.024801 
L 303.808129 -153.212846 
L 303.425674 -153.399984 
L 303.043219 -153.586216 
L 302.660765 -153.771542 
L 302.27831 -153.955962 
L 301.895855 -154.139475 
L 301.5134 -154.322083 
L 301.130946 -154.503784 
L 300.748491 -154.684578 
L 300.366036 -154.864467 
L 299.983581 -155.043449 
L 299.601127 -155.221525 
L 299.218672 -155.398695 
L 298.836217 -155.574959 
L 298.453763 -155.750316 
L 298.071308 -155.924767 
L 297.688853 -156.098312 
L 297.306398 -156.27095 
L 296.923944 -156.442683 
L 296.541489 -156.613509 
L 296.159034 -156.783429 
L 295.776579 -156.952443 
L 295.394125 -157.12055 
L 295.01167 -157.287751 
L 294.629215 -157.454046 
L 294.246761 -157.619435 
L 293.864306 -157.783917 
L 293.481851 -157.947493 
L 293.099396 -158.110163 
L 292.716942 -158.271927 
L 292.334487 -158.432785 
L 291.952032 -158.592736 
L 291.569577 -158.751781 
L 291.187123 -158.90992 
L 290.804668 -159.067152 
L 290.422213 -159.223478 
L 290.039759 -159.378898 
L 289.657304 -159.533412 
L 289.274849 -159.68702 
L 288.892394 -159.839721 
L 288.50994 -159.991516 
L 288.127485 -160.142405 
L 287.74503 -160.292388 
L 287.362575 -160.441464 
L 286.980121 -160.589634 
L 286.597666 -160.736898 
L 286.215211 -160.883256 
L 285.832757 -161.028707 
L 285.450302 -161.173252 
L 285.067847 -161.316891 
L 284.685392 -161.459624 
L 284.302938 -161.601451 
L 283.920483 -161.742371 
L 283.538028 -161.882385 
L 283.155573 -162.021493 
L 282.773119 -162.159694 
L 282.390664 -162.296989 
L 282.008209 -162.433378 
L 281.625755 -162.568861 
L 281.2433 -162.703438 
L 280.860845 -162.837108 
L 280.47839 -162.969872 
L 280.095936 -163.10173 
L 279.713481 -163.232681 
L 279.331026 -163.362727 
L 278.948571 -163.491866 
L 278.566117 -163.620099 
L 278.183662 -163.747425 
L 277.801207 -163.873846 
L 277.418753 -163.99936 
L 277.036298 -164.123968 
L 276.653843 -164.24767 
L 276.271388 -164.370465 
L 275.888934 -164.492354 
L 275.506479 -164.613337 
L 275.124024 -164.733414 
L 274.741569 -164.852584 
L 274.359115 -164.970849 
L 273.97666 -165.088207 
L 273.594205 -165.204658 
L 273.211751 -165.320204 
L 272.829296 -165.434843 
L 272.446841 -165.548576 
L 272.064386 -165.661403 
L 271.681932 -165.773324 
L 271.299477 -165.884338 
L 270.917022 -165.994446 
L 270.534567 -166.103648 
L 270.152113 -166.211943 
L 269.769658 -166.319333 
L 269.387203 -166.425816 
L 269.004748 -166.531393 
L 268.622294 -166.636063 
L 268.239839 -166.739828 
L 267.857384 -166.842686 
L 267.47493 -166.944638 
L 267.092475 -167.045684 
L 266.71002 -167.145823 
L 266.327565 -167.245056 
L 265.945111 -167.343383 
L 265.562656 -167.440804 
L 265.180201 -167.537319 
L 264.797746 -167.632927 
L 264.415292 -167.727629 
L 264.032837 -167.821425 
L 263.650382 -167.914314 
L 263.267928 -168.006297 
L 262.885473 -168.097374 
L 262.503018 -168.187545 
L 262.120563 -168.27681 
L 261.738109 -168.365168 
L 261.355654 -168.45262 
L 260.973199 -168.539166 
L 260.590744 -168.624806 
L 260.20829 -168.709539 
L 259.825835 -168.793366 
L 259.44338 -168.876287 
L 259.060926 -168.958302 
L 258.678471 -169.03941 
L 258.296016 -169.119613 
L 257.913561 -169.198908 
L 257.531107 -169.277298 
L 257.148652 -169.354782 
L 256.766197 -169.431359 
L 256.383742 -169.50703 
L 256.001288 -169.581795 
L 255.618833 -169.655653 
L 255.236378 -169.728605 
L 254.853924 -169.800651 
L 254.471469 -169.871791 
L 254.089014 -169.942025 
L 253.706559 -170.011352 
L 253.324105 -170.079773 
L 252.94165 -170.147288 
L 252.559195 -170.213897 
L 252.17674 -170.279599 
L 251.794286 -170.344395 
L 251.411831 -170.408285 
L 251.029376 -170.471269 
L 250.646922 -170.533346 
L 250.264467 -170.594517 
L 249.882012 -170.654782 
L 249.499557 -170.714141 
L 249.117103 -170.772593 
L 248.734648 -170.830139 
L 248.352193 -170.886779 
L 247.969738 -170.942513 
L 247.587284 -170.997341 
L 247.204829 -171.051262 
L 246.822374 -171.104277 
L 246.43992 -171.156386 
L 246.057465 -171.207588 
L 245.67501 -171.257884 
L 245.292555 -171.307274 
L 244.910101 -171.355758 
L 244.527646 -171.403336 
L 244.145191 -171.450007 
L 243.762736 -171.495772 
L 243.380282 -171.540631 
L 242.997827 -171.584584 
L 242.615372 -171.62763 
L 242.232918 -171.66977 
L 241.850463 -171.711004 
L 241.468008 -171.751332 
L 241.085553 -171.790753 
L 240.703099 -171.829268 
L 240.320644 -171.866877 
L 239.938189 -171.90358 
L 239.555734 -171.939376 
L 239.17328 -171.974267 
L 238.790825 -172.008251 
L 238.40837 -172.041328 
L 238.025915 -172.0735 
L 237.643461 -172.104765 
L 237.261006 -172.135124 
L 236.878551 -172.164577 
L 236.496097 -172.193123 
L 236.113642 -172.220764 
L 235.731187 -172.247498 
L 235.348732 -172.273326 
L 234.966278 -172.298247 
L 234.583823 -172.322263 
L 234.201368 -172.345372 
L 233.818913 -172.367574 
L 233.436459 -172.388871 
L 233.054004 -172.409261 
L 232.671549 -172.428746 
L 232.289095 -172.447324 
L 231.90664 -172.464995 
L 231.524185 -172.481761 
L 231.14173 -172.49762 
L 230.759276 -172.512573 
L 230.376821 -172.526619 
L 229.994366 -172.53976 
L 229.611911 -172.551994 
L 229.229457 -172.563322 
L 228.847002 -172.573744 
L 228.464547 -172.583259 
L 228.082093 -172.591869 
L 227.699638 -172.599572 
L 227.317183 -172.606369 
L 226.934728 -172.612259 
L 226.552274 -172.617243 
L 226.169819 -172.621322 
L 225.787364 -172.624493 
L 225.404909 -172.626759 
L 225.022455 -172.628118 
L 224.64 -172.628571 
L 224.257545 -172.628118 
L 223.875091 -172.626759 
L 223.492636 -172.624493 
L 223.110181 -172.621322 
L 222.727726 -172.617243 
L 222.345272 -172.612259 
L 221.962817 -172.606369 
L 221.580362 -172.599572 
L 221.197907 -172.591869 
L 220.815453 -172.583259 
L 220.432998 -172.573744 
L 220.050543 -172.563322 
L 219.668089 -172.551994 
L 219.285634 -172.53976 
L 218.903179 -172.526619 
L 218.520724 -172.512573 
L 218.13827 -172.49762 
L 217.755815 -172.481761 
L 217.37336 -172.464995 
L 216.990905 -172.447324 
L 216.608451 -172.428746 
L 216.225996 -172.409261 
L 215.843541 -172.388871 
L 215.461087 -172.367574 
L 215.078632 -172.345372 
L 214.696177 -172.322263 
L 214.313722 -172.298247 
L 213.931268 -172.273326 
L 213.548813 -172.247498 
L 213.166358 -172.220764 
L 212.783903 -172.193123 
L 212.401449 -172.164577 
L 212.018994 -172.135124 
L 211.636539 -172.104765 
L 211.254085 -172.0735 
L 210.87163 -172.041328 
L 210.489175 -172.008251 
L 210.10672 -171.974267 
L 209.724266 -171.939376 
L 209.341811 -171.90358 
L 208.959356 -171.866877 
L 208.576901 -171.829268 
L 208.194447 -171.790753 
L 207.811992 -171.751332 
L 207.429537 -171.711004 
L 207.047082 -171.66977 
L 206.664628 -171.62763 
L 206.282173 -171.584584 
L 205.899718 -171.540631 
L 205.517264 -171.495772 
L 205.134809 -171.450007 
L 204.752354 -171.403336 
L 204.369899 -171.355758 
L 203.987445 -171.307274 
L 203.60499 -171.257884 
L 203.222535 -171.207588 
L 202.84008 -171.156386 
L 202.457626 -171.104277 
L 202.075171 -171.051262 
L 201.692716 -170.997341 
L 201.310262 -170.942513 
L 200.927807 -170.886779 
L 200.545352 -170.830139 
L 200.162897 -170.772593 
L 199.780443 -170.714141 
L 199.397988 -170.654782 
L 199.015533 -170.594517 
L 198.633078 -170.533346 
L 198.250624 -170.471269 
L 197.868169 -170.408285 
L 197.485714 -170.344395 
L 197.10326 -170.279599 
L 196.720805 -170.213897 
L 196.33835 -170.147288 
L 195.955895 -170.079773 
L 195.573441 -170.011352 
L 195.190986 -169.942025 
L 194.808531 -169.871791 
L 194.426076 -169.800651 
L 194.043622 -169.728605 
L 193.661167 -169.655653 
L 193.278712 -169.581795 
L 192.896258 -169.50703 
L 192.513803 -169.431359 
L 192.131348 -169.354782 
L 191.748893 -169.277298 
L 191.366439 -169.198908 
L 190.983984 -169.119613 
L 190.601529 -169.03941 
L 190.219074 -168.958302 
L 189.83662 -168.876287 
L 189.454165 -168.793366 
L 189.07171 -168.709539 
L 188.689256 -168.624806 
L 188.306801 -168.539166 
L 187.924346 -168.45262 
L 187.541891 -168.365168 
L 187.159437 -168.27681 
L 186.776982 -168.187545 
L 186.394527 -168.097374 
L 186.012072 -168.006297 
L 185.629618 -167.914314 
L 185.247163 -167.821425 
L 184.864708 -167.727629 
L 184.482254 -167.632927 
L 184.099799 -167.537319 
L 183.717344 -167.440804 
L 183.334889 -167.343383 
L 182.952435 -167.245056 
L 182.56998 -167.145823 
L 182.187525 -167.045684 
L 181.80507 -166.944638 
L 181.422616 -166.842686 
L 181.040161 -166.739828 
L 180.657706 -166.636063 
L 180.275252 -166.531393 
L 179.892797 -166.425816 
L 179.510342 -166.319333 
L 179.127887 -166.211943 
L 178.745433 -166.103648 
L 178.362978 -165.994446 
L 177.980523 -165.884338 
L 177.598068 -165.773324 
L 177.215614 -165.661403 
L 176.833159 -165.548576 
L 176.450704 -165.434843 
L 176.068249 -165.320204 
L 175.685795 -165.204658 
L 175.30334 -165.088207 
L 174.920885 -164.970849 
L 174.538431 -164.852584 
L 174.155976 -164.733414 
L 173.773521 -164.613337 
L 173.391066 -164.492354 
L 173.008612 -164.370465 
L 172.626157 -164.24767 
L 172.243702 -164.123968 
L 171.861247 -163.99936 
L 171.478793 -163.873846 
L 171.096338 -163.747425 
L 170.713883 -163.620099 
L 170.331429 -163.491866 
L 169.948974 -163.362727 
L 169.566519 -163.232681 
L 169.184064 -163.10173 
L 168.80161 -162.969872 
L 168.419155 -162.837108 
L 168.0367 -162.703438 
L 167.654245 -162.568861 
L 167.271791 -162.433378 
L 166.889336 -162.296989 
L 166.506881 -162.159694 
L 166.124427 -162.021493 
L 165.741972 -161.882385 
L 165.359517 -161.742371 
L 164.977062 -161.601451 
L 164.594608 -161.459624 
L 164.212153 -161.316891 
L 163.829698 -161.173252 
L 163.447243 -161.028707 
L 163.064789 -160.883256 
L 162.682334 -160.736898 
L 162.299879 -160.589634 
L 161.917425 -160.441464 
L 161.53497 -160.292388 
L 161.152515 -160.142405 
L 160.77006 -159.991516 
L 160.387606 -159.839721 
L 160.005151 -159.68702 
L 159.622696 -159.533412 
L 159.240241 -159.378898 
L 158.857787 -159.223478 
L 158.475332 -159.067152 
L 158.092877 -158.90992 
L 157.710423 -158.751781 
L 157.327968 -158.592736 
L 156.945513 -158.432785 
L 156.563058 -158.271927 
L 156.180604 -158.110163 
L 155.798149 -157.947493 
L 155.415694 -157.783917 
L 155.033239 -157.619435 
L 154.650785 -157.454046 
L 154.26833 -157.287751 
L 153.885875 -157.12055 
L 153.503421 -156.952443 
L 153.120966 -156.783429 
L 152.738511 -156.613509 
L 152.356056 -156.442683 
L 151.973602 -156.27095 
L 151.591147 -156.098312 
L 151.208692 -155.924767 
L 150.826237 -155.750316 
L 150.443783 -155.574959 
L 150.061328 -155.398695 
L 149.678873 -155.221525 
L 149.296419 -155.043449 
L 148.913964 -154.864467 
L 148.531509 -154.684578 
L 148.149054 -154.503784 
L 147.7666 -154.322083 
L 147.384145 -154.139475 
L 147.00169 -153.955962 
L 146.619235 -153.771542 
L 146.236781 -153.586216 
L 145.854326 -153.399984 
L 145.471871 -153.212846 
L 145.089416 -153.024801 
L 144.706962 -152.83585 
L 144.324507 -152.645993 
L 143.942052 -152.45523 
L 143.559598 -152.26356 
L 143.177143 -152.070984 
L 142.794688 -151.877502 
L 142.412233 -151.683114 
L 142.029779 -151.487819 
L 141.647324 -151.291618 
L 141.264869 -151.094511 
L 140.882414 -150.896498 
L 140.49996 -150.697578 
L 140.117505 -150.497752 
L 139.73505 -150.29702 
L 139.352596 -150.095382 
L 138.970141 -149.892838 
L 138.587686 -149.689387 
L 138.205231 -149.48503 
L 137.822777 -149.279767 
L 137.440322 -149.073597 
L 137.057867 -148.866522 
L 136.675412 -148.65854 
L 136.292958 -148.449651 
L 135.910503 -148.239857 
L 135.528048 -148.029156 
L 135.145594 -147.817549 
L 134.763139 -147.605036 
L 134.380684 -147.391617 
L 133.998229 -147.177291 
L 133.615775 -146.96206 
L 133.23332 -146.745921 
L 132.850865 -146.528877 
L 132.46841 -146.310927 
L 132.085956 -146.09207 
L 131.703501 -145.872307 
L 131.321046 -145.651637 
L 130.938592 -145.430062 
L 130.556137 -145.20758 
L 130.173682 -144.984192 
L 129.791227 -144.759898 
L 129.408773 -144.534697 
L 129.026318 -144.308591 
L 128.643863 -144.081578 
L 128.261408 -143.853658 
L 127.878954 -143.624833 
L 127.496499 -143.395101 
L 127.114044 -143.164463 
L 126.73159 -142.932919 
L 126.349135 -142.700469 
L 125.96668 -142.467112 
L 125.584225 -142.232849 
L 125.201771 -141.99768 
L 124.819316 -141.761605 
L 124.436861 -141.524623 
L 124.054406 -141.286735 
L 123.671952 -141.047941 
L 123.289497 -140.808241 
L 122.907042 -140.567634 
L 122.524588 -140.326122 
L 122.142133 -140.083703 
L 121.759678 -139.840377 
L 121.377223 -139.596146 
L 120.994769 -139.351008 
L 120.612314 -139.104964 
L 120.229859 -138.858014 
L 119.847404 -138.610157 
L 119.46495 -138.361395 
L 119.082495 -138.111726 
L 118.70004 -137.86115 
L 118.317586 -137.609669 
L 117.935131 -137.357281 
L 117.552676 -137.103987 
L 117.170221 -136.849787 
L 116.787767 -136.594681 
L 116.405312 -136.338668 
L 116.022857 -136.081749 
L 115.640402 -135.823924 
L 115.257948 -135.565193 
L 114.875493 -135.305555 
L 114.493038 -135.045012 
L 114.110584 -134.783562 
L 113.728129 -134.521205 
L 113.345674 -134.257943 
L 112.963219 -133.993774 
L 112.580765 -133.728699 
L 112.19831 -133.462718 
L 111.815855 -133.19583 
L 111.4334 -132.928036 
L 111.050946 -132.659336 
L 110.668491 -132.38973 
L 110.286036 -132.119218 
L 109.903581 -131.847799 
L 109.521127 -131.575474 
L 109.138672 -131.302243 
L 108.756217 -131.028106 
L 108.373763 -130.753062 
L 107.991308 -130.477112 
L 107.608853 -130.200256 
L 107.226398 -129.922493 
L 106.843944 -129.643825 
L 106.461489 -129.36425 
L 106.079034 -129.083769 
L 105.696579 -128.802382 
L 105.314125 -128.520088 
L 104.93167 -128.236888 
L 104.549215 -127.952782 
L 104.166761 -127.66777 
L 103.784306 -127.381851 
L 103.401851 -127.095027 
L 103.019396 -126.807296 
L 102.636942 -126.518658 
L 102.254487 -126.229115 
L 101.872032 -125.938665 
L 101.489577 -125.647309 
L 101.107123 -125.355047 
L 100.724668 -125.061878 
L 100.342213 -124.767804 
L 99.959759 -124.472823 
L 99.577304 -124.176936 
L 99.194849 -123.880142 
L 98.812394 -123.582443 
L 98.42994 -123.283837 
L 98.047485 -122.984325 
L 97.66503 -122.683906 
L 97.282575 -122.382582 
L 96.900121 -122.080351 
L 96.517666 -121.777214 
L 96.135211 -121.473171 
L 95.752757 -121.168221 
L 95.370302 -120.862365 
L 94.987847 -120.555603 
L 94.605392 -120.247935 
L 94.222938 -119.93936 
L 93.840483 -119.62988 
L 93.458028 -119.319493 
L 93.075573 -119.008199 
L 92.693119 -118.696 
L 92.310664 -118.382894 
L 91.928209 -118.068882 
L 91.545755 -117.753964 
L 91.1633 -117.43814 
L 90.780845 -117.121409 
L 90.39839 -116.803772 
L 90.015936 -116.485229 
L 89.633481 -116.16578 
L 89.251026 -115.845424 
L 88.868571 -115.524162 
L 88.486117 -115.201994 
L 88.103662 -114.87892 
L 87.721207 -114.554939 
L 87.338753 -114.230052 
L 86.956298 -113.904259 
L 86.573843 -113.57756 
L 86.191388 -113.249954 
L 85.808934 -112.921443 
L 85.426479 -112.592025 
L 85.044024 -112.2617 
L 84.661569 -111.93047 
L 84.279115 -111.598333 
L 83.89666 -111.26529 
L 83.514205 -110.931341 
L 83.131751 -110.596485 
L 82.749296 -110.260724 
L 82.366841 -109.924056 
L 81.984386 -109.586482 
L 81.601932 -109.248001 
L 81.219477 -108.908615 
L 80.837022 -108.568322 
L 80.454567 -108.227123 
L 80.072113 -107.885017 
L 79.689658 -107.542006 
L 79.307203 -107.198088 
L 78.924748 -106.853264 
L 78.542294 -106.507533 
L 78.159839 -106.160897 
L 77.777384 -105.813354 
L 77.39493 -105.464905 
L 77.012475 -105.11555 
L 76.63002 -104.765288 
L 76.247565 -104.41412 
L 75.865111 -104.062046 
L 75.482656 -103.709066 
L 75.100201 -103.35518 
L 74.717746 -103.000387 
L 74.335292 -102.644688 
L 73.952837 -102.288083 
L 73.570382 -101.930571 
L 73.187928 -101.572154 
L 72.805473 -101.21283 
L 72.423018 -100.8526 
L 72.040563 -100.491463 
L 71.658109 -100.12942 
L 71.275654 -99.766472 
L 70.893199 -99.402617 
L 70.510744 -99.037855 
L 70.12829 -98.672188 
L 69.745835 -98.305614 
L 69.36338 -97.938134 
L 68.980926 -97.569747 
z
" id="m6336b7c1bc" style="stroke:#0000ff;stroke-opacity:0.1;"/>
    </defs>
    <g clip-path="url(#paa47601a89)">
     <use style="fill:#0000ff;fill-opacity:0.1;stroke:#0000ff;stroke-opacity:0.1;" x="0" xlink:href="#m6336b7c1bc" y="180"/>
    </g>
   </g>
   <g id="matplotlib.axis_1">
    <g id="xtick_1">
     <g id="line2d_1">
      <defs>
       <path d="M 0 0 
L 0 3.5 
" id="m69f21d91e6" style="stroke:#000000;stroke-width:0.8;"/>
      </defs>
      <g>
       <use style="stroke:#000000;stroke-width:0.8;" x="56.551147" xlink:href="#m69f21d91e6" y="162"/>
      </g>
     </g>
     <g id="text_1">
      <!-- 1950 -->
      <g transform="translate(43.826147 176.598438)scale(0.1 -0.1)">
       <defs>
        <path d="M 794 531 
L 1825 531 
L 1825 4091 
L 703 3866 
L 703 4441 
L 1819 4666 
L 2450 4666 
L 2450 531 
L 3481 531 
L 3481 0 
L 794 0 
L 794 531 
z
" id="DejaVuSans-31" transform="scale(0.015625)"/>
        <path d="M 703 97 
L 703 672 
Q 941 559 1184 500 
Q 1428 441 1663 441 
Q 2288 441 2617 861 
Q 2947 1281 2994 2138 
Q 2813 1869 2534 1725 
Q 2256 1581 1919 1581 
Q 1219 1581 811 2004 
Q 403 2428 403 3163 
Q 403 3881 828 4315 
Q 1253 4750 1959 4750 
Q 2769 4750 3195 4129 
Q 3622 3509 3622 2328 
Q 3622 1225 3098 567 
Q 2575 -91 1691 -91 
Q 1453 -91 1209 -44 
Q 966 3 703 97 
z
M 1959 2075 
Q 2384 2075 2632 2365 
Q 2881 2656 2881 3163 
Q 2881 3666 2632 3958 
Q 2384 4250 1959 4250 
Q 1534 4250 1286 3958 
Q 1038 3666 1038 3163 
Q 1038 2656 1286 2365 
Q 1534 2075 1959 2075 
z
" id="DejaVuSans-39" transform="scale(0.015625)"/>
        <path d="M 691 4666 
L 3169 4666 
L 3169 4134 
L 1269 4134 
L 1269 2991 
Q 1406 3038 1543 3061 
Q 1681 3084 1819 3084 
Q 2600 3084 3056 2656 
Q 3513 2228 3513 1497 
Q 3513 744 3044 326 
Q 2575 -91 1722 -91 
Q 1428 -91 1123 -41 
Q 819 9 494 109 
L 494 744 
Q 775 591 1075 516 
Q 1375 441 1709 441 
Q 2250 441 2565 725 
Q 2881 1009 2881 1497 
Q 2881 1984 2565 2268 
Q 2250 2553 1709 2553 
Q 1456 2553 1204 2497 
Q 953 2441 691 2322 
L 691 4666 
z
" id="DejaVuSans-35" transform="scale(0.015625)"/>
        <path d="M 2034 4250 
Q 1547 4250 1301 3770 
Q 1056 3291 1056 2328 
Q 1056 1369 1301 889 
Q 1547 409 2034 409 
Q 2525 409 2770 889 
Q 3016 1369 3016 2328 
Q 3016 3291 2770 3770 
Q 2525 4250 2034 4250 
z
M 2034 4750 
Q 2819 4750 3233 4129 
Q 3647 3509 3647 2328 
Q 3647 1150 3233 529 
Q 2819 -91 2034 -91 
Q 1250 -91 836 529 
Q 422 1150 422 2328 
Q 422 3509 836 4129 
Q 1250 4750 2034 4750 
z
" id="DejaVuSans-30" transform="scale(0.015625)"/>
       </defs>
       <use xlink:href="#DejaVuSans-31"/>
       <use x="63.623047" xlink:href="#DejaVuSans-39"/>
       <use x="127.246094" xlink:href="#DejaVuSans-35"/>
       <use x="190.869141" xlink:href="#DejaVuSans-30"/>
      </g>
     </g>
    </g>
    <g id="xtick_2">
     <g id="line2d_2">
      <g>
       <use style="stroke:#000000;stroke-width:0.8;" x="102.445714" xlink:href="#m69f21d91e6" y="162"/>
      </g>
     </g>
     <g id="text_2">
      <!-- 1960 -->
      <g transform="translate(89.720714 176.598438)scale(0.1 -0.1)">
       <defs>
        <path d="M 2113 2584 
Q 1688 2584 1439 2293 
Q 1191 2003 1191 1497 
Q 1191 994 1439 701 
Q 1688 409 2113 409 
Q 2538 409 2786 701 
Q 3034 994 3034 1497 
Q 3034 2003 2786 2293 
Q 2538 2584 2113 2584 
z
M 3366 4563 
L 3366 3988 
Q 3128 4100 2886 4159 
Q 2644 4219 2406 4219 
Q 1781 4219 1451 3797 
Q 1122 3375 1075 2522 
Q 1259 2794 1537 2939 
Q 1816 3084 2150 3084 
Q 2853 3084 3261 2657 
Q 3669 2231 3669 1497 
Q 3669 778 3244 343 
Q 2819 -91 2113 -91 
Q 1303 -91 875 529 
Q 447 1150 447 2328 
Q 447 3434 972 4092 
Q 1497 4750 2381 4750 
Q 2619 4750 2861 4703 
Q 3103 4656 3366 4563 
z
" id="DejaVuSans-36" transform="scale(0.015625)"/>
       </defs>
       <use xlink:href="#DejaVuSans-31"/>
       <use x="63.623047" xlink:href="#DejaVuSans-39"/>
       <use x="127.246094" xlink:href="#DejaVuSans-36"/>
       <use x="190.869141" xlink:href="#DejaVuSans-30"/>
      </g>
     </g>
    </g>
    <g id="xtick_3">
     <g id="line2d_3">
      <g>
       <use style="stroke:#000000;stroke-width:0.8;" x="148.340282" xlink:href="#m69f21d91e6" y="162"/>
      </g>
     </g>
     <g id="text_3">
      <!-- 1970 -->
      <g transform="translate(135.615282 176.598438)scale(0.1 -0.1)">
       <defs>
        <path d="M 525 4666 
L 3525 4666 
L 3525 4397 
L 1831 0 
L 1172 0 
L 2766 4134 
L 525 4134 
L 525 4666 
z
" id="DejaVuSans-37" transform="scale(0.015625)"/>
       </defs>
       <use xlink:href="#DejaVuSans-31"/>
       <use x="63.623047" xlink:href="#DejaVuSans-39"/>
       <use x="127.246094" xlink:href="#DejaVuSans-37"/>
       <use x="190.869141" xlink:href="#DejaVuSans-30"/>
      </g>
     </g>
    </g>
    <g id="xtick_4">
     <g id="line2d_4">
      <g>
       <use style="stroke:#000000;stroke-width:0.8;" x="194.234849" xlink:href="#m69f21d91e6" y="162"/>
      </g>
     </g>
     <g id="text_4">
      <!-- 1980 -->
      <g transform="translate(181.509849 176.598438)scale(0.1 -0.1)">
       <defs>
        <path d="M 2034 2216 
Q 1584 2216 1326 1975 
Q 1069 1734 1069 1313 
Q 1069 891 1326 650 
Q 1584 409 2034 409 
Q 2484 409 2743 651 
Q 3003 894 3003 1313 
Q 3003 1734 2745 1975 
Q 2488 2216 2034 2216 
z
M 1403 2484 
Q 997 2584 770 2862 
Q 544 3141 544 3541 
Q 544 4100 942 4425 
Q 1341 4750 2034 4750 
Q 2731 4750 3128 4425 
Q 3525 4100 3525 3541 
Q 3525 3141 3298 2862 
Q 3072 2584 2669 2484 
Q 3125 2378 3379 2068 
Q 3634 1759 3634 1313 
Q 3634 634 3220 271 
Q 2806 -91 2034 -91 
Q 1263 -91 848 271 
Q 434 634 434 1313 
Q 434 1759 690 2068 
Q 947 2378 1403 2484 
z
M 1172 3481 
Q 1172 3119 1398 2916 
Q 1625 2713 2034 2713 
Q 2441 2713 2670 2916 
Q 2900 3119 2900 3481 
Q 2900 3844 2670 4047 
Q 2441 4250 2034 4250 
Q 1625 4250 1398 4047 
Q 1172 3844 1172 3481 
z
" id="DejaVuSans-38" transform="scale(0.015625)"/>
       </defs>
       <use xlink:href="#DejaVuSans-31"/>
       <use x="63.623047" xlink:href="#DejaVuSans-39"/>
       <use x="127.246094" xlink:href="#DejaVuSans-38"/>
       <use x="190.869141" xlink:href="#DejaVuSans-30"/>
      </g>
     </g>
    </g>
    <g id="xtick_5">
     <g id="line2d_5">
      <g>
       <use style="stroke:#000000;stroke-width:0.8;" x="240.129416" xlink:href="#m69f21d91e6" y="162"/>
      </g>
     </g>
     <g id="text_5">
      <!-- 1990 -->
      <g transform="translate(227.404416 176.598438)scale(0.1 -0.1)">
       <use xlink:href="#DejaVuSans-31"/>
       <use x="63.623047" xlink:href="#DejaVuSans-39"/>
       <use x="127.246094" xlink:href="#DejaVuSans-39"/>
       <use x="190.869141" xlink:href="#DejaVuSans-30"/>
      </g>
     </g>
    </g>
    <g id="xtick_6">
     <g id="line2d_6">
      <g>
       <use style="stroke:#000000;stroke-width:0.8;" x="286.023984" xlink:href="#m69f21d91e6" y="162"/>
      </g>
     </g>
     <g id="text_6">
      <!-- 2000 -->
      <g transform="translate(273.298984 176.598438)scale(0.1 -0.1)">
       <defs>
        <path d="M 1228 531 
L 3431 531 
L 3431 0 
L 469 0 
L 469 531 
Q 828 903 1448 1529 
Q 2069 2156 2228 2338 
Q 2531 2678 2651 2914 
Q 2772 3150 2772 3378 
Q 2772 3750 2511 3984 
Q 2250 4219 1831 4219 
Q 1534 4219 1204 4116 
Q 875 4013 500 3803 
L 500 4441 
Q 881 4594 1212 4672 
Q 1544 4750 1819 4750 
Q 2544 4750 2975 4387 
Q 3406 4025 3406 3419 
Q 3406 3131 3298 2873 
Q 3191 2616 2906 2266 
Q 2828 2175 2409 1742 
Q 1991 1309 1228 531 
z
" id="DejaVuSans-32" transform="scale(0.015625)"/>
       </defs>
       <use xlink:href="#DejaVuSans-32"/>
       <use x="63.623047" xlink:href="#DejaVuSans-30"/>
       <use x="127.246094" xlink:href="#DejaVuSans-30"/>
       <use x="190.869141" xlink:href="#DejaVuSans-30"/>
      </g>
     </g>
    </g>
    <g id="xtick_7">
     <g id="line2d_7">
      <g>
       <use style="stroke:#000000;stroke-width:0.8;" x="331.918551" xlink:href="#m69f21d91e6" y="162"/>
      </g>
     </g>
     <g id="text_7">
      <!-- 2010 -->
      <g transform="translate(319.193551 176.598438)scale(0.1 -0.1)">
       <use xlink:href="#DejaVuSans-32"/>
       <use x="63.623047" xlink:href="#DejaVuSans-30"/>
       <use x="127.246094" xlink:href="#DejaVuSans-31"/>
       <use x="190.869141" xlink:href="#DejaVuSans-30"/>
      </g>
     </g>
    </g>
    <g id="xtick_8">
     <g id="line2d_8">
      <g>
       <use style="stroke:#000000;stroke-width:0.8;" x="377.813119" xlink:href="#m69f21d91e6" y="162"/>
      </g>
     </g>
     <g id="text_8">
      <!-- 2020 -->
      <g transform="translate(365.088119 176.598438)scale(0.1 -0.1)">
       <use xlink:href="#DejaVuSans-32"/>
       <use x="63.623047" xlink:href="#DejaVuSans-30"/>
       <use x="127.246094" xlink:href="#DejaVuSans-32"/>
       <use x="190.869141" xlink:href="#DejaVuSans-30"/>
      </g>
     </g>
    </g>
   </g>
   <g id="matplotlib.axis_2">
    <g id="ytick_1">
     <g id="line2d_9">
      <defs>
       <path d="M 0 0 
L -3.5 0 
" id="m76174e1383" style="stroke:#000000;stroke-width:0.8;"/>
      </defs>
      <g>
       <use style="stroke:#000000;stroke-width:0.8;" x="34.56" xlink:href="#m76174e1383" y="161.584688"/>
      </g>
     </g>
     <g id="text_9">
      <!-- 100 -->
      <g transform="translate(0.092813 165.383907)scale(0.1 -0.1)">
       <defs>
        <path d="M 678 2272 
L 4684 2272 
L 4684 1741 
L 678 1741 
L 678 2272 
z
" id="DejaVuSans-2212" transform="scale(0.015625)"/>
       </defs>
       <use xlink:href="#DejaVuSans-2212"/>
       <use x="83.789062" xlink:href="#DejaVuSans-31"/>
       <use x="147.412109" xlink:href="#DejaVuSans-30"/>
       <use x="211.035156" xlink:href="#DejaVuSans-30"/>
      </g>
     </g>
    </g>
    <g id="ytick_2">
     <g id="line2d_10">
      <g>
       <use style="stroke:#000000;stroke-width:0.8;" x="34.56" xlink:href="#m76174e1383" y="122.192344"/>
      </g>
     </g>
     <g id="text_10">
      <!-- 50 -->
      <g transform="translate(6.455313 125.991563)scale(0.1 -0.1)">
       <use xlink:href="#DejaVuSans-2212"/>
       <use x="83.789062" xlink:href="#DejaVuSans-35"/>
       <use x="147.412109" xlink:href="#DejaVuSans-30"/>
      </g>
     </g>
    </g>
    <g id="ytick_3">
     <g id="line2d_11">
      <g>
       <use style="stroke:#000000;stroke-width:0.8;" x="34.56" xlink:href="#m76174e1383" y="82.8"/>
      </g>
     </g>
     <g id="text_11">
      <!-- 0 -->
      <g transform="translate(21.1975 86.599219)scale(0.1 -0.1)">
       <use xlink:href="#DejaVuSans-30"/>
      </g>
     </g>
    </g>
    <g id="ytick_4">
     <g id="line2d_12">
      <g>
       <use style="stroke:#000000;stroke-width:0.8;" x="34.56" xlink:href="#m76174e1383" y="43.407656"/>
      </g>
     </g>
     <g id="text_12">
      <!-- 50 -->
      <g transform="translate(14.835 47.206875)scale(0.1 -0.1)">
       <use xlink:href="#DejaVuSans-35"/>
       <use x="63.623047" xlink:href="#DejaVuSans-30"/>
      </g>
     </g>
    </g>
    <g id="ytick_5">
     <g id="line2d_13">
      <g>
       <use style="stroke:#000000;stroke-width:0.8;" x="34.56" xlink:href="#m76174e1383" y="4.015312"/>
      </g>
     </g>
     <g id="text_13">
      <!-- 100 -->
      <g transform="translate(8.4725 7.81453)scale(0.1 -0.1)">
       <use xlink:href="#DejaVuSans-31"/>
       <use x="63.623047" xlink:href="#DejaVuSans-30"/>
       <use x="127.246094" xlink:href="#DejaVuSans-30"/>
      </g>
     </g>
    </g>
   </g>
   <g id="line2d_14">
    <path clip-path="url(#paa47601a89)" d="M 68.980926 82.738181 
L 69.745835 82.650096 
L 70.12829 82.693948 
L 70.510744 82.376804 
L 71.275654 82.507633 
L 72.040563 82.902064 
L 73.187928 82.855753 
L 73.952837 83.006706 
L 75.100201 83.098094 
L 75.865111 83.430819 
L 76.247565 83.496262 
L 77.777384 83.133099 
L 78.159839 82.943236 
L 78.542294 82.887319 
L 80.072113 83.180143 
L 80.454567 83.041457 
L 80.837022 83.089424 
L 81.601932 83.405989 
L 81.984386 83.448469 
L 83.131751 82.742735 
L 84.279115 82.641114 
L 84.661569 82.840603 
L 85.808934 82.801962 
L 88.103662 81.720133 
L 88.486117 81.863606 
L 89.633481 81.63637 
L 90.39839 81.785431 
L 91.1633 81.764931 
L 91.928209 81.510401 
L 93.075573 81.491455 
L 93.840483 81.655469 
L 94.605392 81.434927 
L 96.135211 80.747578 
L 96.900121 80.210139 
L 97.282575 80.08384 
L 98.812394 80.256586 
L 99.194849 80.025625 
L 99.577304 80.184157 
L 100.342213 80.116696 
L 100.724668 79.797579 
L 101.107123 79.978222 
L 101.489577 79.995258 
L 101.872032 80.142297 
L 102.254487 80.162963 
L 102.636942 79.895556 
L 103.401851 79.871809 
L 104.166761 80.088824 
L 104.549215 80.21134 
L 104.93167 80.086993 
L 105.314125 80.181231 
L 106.843944 79.799958 
L 109.903581 78.82476 
L 110.286036 79.100719 
L 110.668491 79.129761 
L 111.815855 78.522051 
L 112.19831 78.309382 
L 113.345674 78.030802 
L 114.493038 77.779574 
L 115.257948 77.696841 
L 115.640402 77.607246 
L 116.787767 76.950215 
L 117.170221 77.016902 
L 120.612314 75.903503 
L 121.377223 75.634042 
L 123.671952 75.574384 
L 124.819316 74.998409 
L 125.584225 74.868475 
L 127.114044 74.251309 
L 128.643863 74.167639 
L 129.026318 73.823327 
L 129.791227 73.549381 
L 130.556137 73.927261 
L 131.321046 73.888144 
L 132.085956 73.479894 
L 132.850865 73.323394 
L 133.23332 72.978959 
L 134.380684 72.720555 
L 134.763139 72.449384 
L 135.145594 72.32822 
L 135.528048 72.406149 
L 135.910503 72.286969 
L 136.292958 72.320468 
L 137.057867 72.185543 
L 138.205231 72.08238 
L 138.587686 71.90374 
L 139.352596 71.735135 
L 140.117505 71.498747 
L 140.882414 71.466192 
L 141.647324 71.510649 
L 142.029779 71.672882 
L 143.177143 71.328308 
L 144.324507 71.521337 
L 144.706962 71.491468 
L 145.471871 71.23189 
L 145.854326 71.193108 
L 146.619235 71.456116 
L 147.00169 71.245888 
L 148.149054 71.124934 
L 148.531509 71.302459 
L 149.678873 70.953006 
L 150.061328 70.953549 
L 150.826237 71.322866 
L 151.208692 71.208521 
L 151.591147 71.253746 
L 151.973602 71.091027 
L 152.356056 71.258314 
L 152.738511 71.258804 
L 153.120966 71.497208 
L 154.26833 71.309269 
L 154.650785 71.364947 
L 155.415694 71.07503 
L 156.180604 70.960027 
L 157.327968 70.44176 
L 158.092877 70.766945 
L 158.857787 70.774757 
L 159.240241 70.483416 
L 159.622696 70.411445 
L 160.005151 70.496111 
L 160.387606 70.324051 
L 161.152515 70.195266 
L 161.917425 70.055309 
L 162.299879 70.065851 
L 163.064789 69.595866 
L 164.977062 69.460109 
L 165.359517 69.505136 
L 166.124427 69.188091 
L 166.506881 69.17672 
L 166.889336 69.371301 
L 168.0367 69.481271 
L 168.419155 69.397508 
L 169.184064 69.425248 
L 169.566519 69.348039 
L 170.331429 69.458447 
L 171.478793 69.476206 
L 171.861247 69.389131 
L 172.626157 69.407141 
L 173.008612 69.259105 
L 173.391066 69.280147 
L 173.773521 69.434703 
L 174.155976 69.717607 
L 175.30334 69.690019 
L 175.685795 69.509839 
L 176.833159 69.629104 
L 177.215614 69.566422 
L 177.980523 69.687611 
L 178.362978 70.005081 
L 179.510342 70.291319 
L 180.657706 70.522094 
L 182.56998 71.102811 
L 186.776982 71.640454 
L 187.924346 71.416973 
L 188.306801 71.495266 
L 189.07171 71.305882 
L 190.601529 71.606163 
L 191.366439 71.587821 
L 194.426076 71.327814 
L 194.808531 71.500095 
L 195.573441 71.592211 
L 195.955895 71.613059 
L 196.720805 71.29866 
L 198.250624 71.172876 
L 199.780443 70.858614 
L 200.162897 70.970016 
L 200.927807 70.81775 
L 201.310262 70.669641 
L 202.84008 70.623224 
L 203.60499 70.994989 
L 203.987445 71.381581 
L 204.752354 71.57116 
L 205.517264 71.694547 
L 205.899718 72.026212 
L 206.664628 72.007283 
L 207.047082 72.154978 
L 210.10672 72.324768 
L 210.87163 72.498261 
L 212.018994 72.30108 
L 212.401449 72.530835 
L 213.166358 72.460899 
L 214.313722 72.787218 
L 215.078632 72.814766 
L 215.461087 72.942815 
L 216.225996 72.968576 
L 216.990905 73.460682 
L 217.755815 73.351269 
L 220.815453 74.510445 
L 221.580362 74.472253 
L 223.110181 74.563241 
L 225.787364 75.515445 
L 226.552274 75.444557 
L 227.317183 75.572756 
L 227.699638 75.872885 
L 228.464547 76.026597 
L 229.994366 76.863794 
L 231.14173 76.415857 
L 232.289095 76.428763 
L 232.671549 76.631213 
L 233.436459 76.699865 
L 234.583823 76.824472 
L 236.113642 76.556733 
L 236.496097 76.712997 
L 236.878551 76.72133 
L 237.261006 76.886691 
L 237.643461 76.895729 
L 238.025915 77.048425 
L 238.40837 76.901604 
L 239.17328 76.900182 
L 241.085553 76.491705 
L 241.468008 76.24545 
L 241.850463 76.187771 
L 242.615372 75.774904 
L 242.997827 75.72948 
L 245.292555 74.358571 
L 245.67501 74.164814 
L 246.057465 74.147229 
L 246.43992 73.971867 
L 247.204829 73.396413 
L 247.587284 73.279684 
L 247.969738 73.281364 
L 248.352193 73.115846 
L 248.734648 73.111648 
L 249.882012 72.54722 
L 250.264467 72.652676 
L 251.794286 72.288769 
L 252.17674 72.080198 
L 252.559195 72.043798 
L 253.324105 71.689482 
L 254.089014 71.659984 
L 256.001288 70.815022 
L 256.766197 70.707064 
L 257.148652 70.752233 
L 258.678471 70.069614 
L 259.060926 70.323114 
L 260.20829 70.355032 
L 260.973199 70.52603 
L 261.738109 70.739936 
L 262.120563 70.97312 
L 264.032837 71.385032 
L 264.415292 71.406671 
L 264.797746 71.592718 
L 265.180201 71.5103 
L 266.327565 71.930061 
L 266.71002 72.358211 
L 267.092475 72.562984 
L 267.47493 72.602171 
L 268.239839 72.92707 
L 268.622294 73.079195 
L 269.387203 73.084147 
L 270.534567 73.640063 
L 270.917022 73.720648 
L 271.299477 74.052556 
L 272.064386 74.017759 
L 272.446841 74.241746 
L 273.211751 74.391199 
L 274.359115 75.179268 
L 275.124024 75.500939 
L 275.506479 75.923245 
L 276.653843 76.389235 
L 278.566117 77.106636 
L 278.948571 77.066344 
L 280.095936 77.529435 
L 280.47839 77.611778 
L 281.625755 78.438031 
L 282.008209 78.541777 
L 283.155573 79.215417 
L 285.067847 80.21208 
L 285.450302 80.478813 
L 286.597666 80.701075 
L 286.980121 80.632614 
L 287.362575 80.794946 
L 288.892394 80.61471 
L 289.657304 80.982129 
L 290.039759 81.481242 
L 291.569577 82.459382 
L 291.952032 82.407898 
L 293.099396 83.102177 
L 294.246761 83.084385 
L 294.629215 82.881213 
L 295.394125 82.991835 
L 296.159034 82.925433 
L 296.541489 82.947363 
L 297.688853 83.454743 
L 298.836217 83.485675 
L 299.601127 84.312287 
L 299.983581 84.580288 
L 300.748491 85.377343 
L 301.5134 85.916629 
L 301.895855 86.300114 
L 302.660765 86.626558 
L 304.190584 87.812365 
L 304.573038 88.048865 
L 304.955493 88.034683 
L 307.250221 89.737261 
L 308.015131 90.056205 
L 308.78004 89.652596 
L 309.54495 89.27474 
L 310.309859 89.216352 
L 311.839678 88.843485 
L 312.222133 88.609525 
L 312.987042 88.604253 
L 313.369497 88.413714 
L 313.751952 88.441431 
L 316.81159 87.221546 
L 317.194044 87.019924 
L 317.958954 86.978294 
L 318.341408 86.727365 
L 318.723863 86.713314 
L 320.636137 86.072371 
L 321.401046 85.95609 
L 322.165956 85.663893 
L 322.54841 85.499458 
L 323.31332 85.426254 
L 325.225594 84.766666 
L 325.990503 84.767228 
L 326.372958 84.876925 
L 327.137867 84.784029 
L 327.520322 84.844839 
L 329.81505 84.081254 
L 330.57996 84.104976 
L 330.962414 84.049814 
L 331.727324 84.233713 
L 332.109779 84.189914 
L 332.492233 84.328217 
L 333.639598 83.980002 
L 334.404507 83.762767 
L 335.169416 83.494678 
L 339.758873 82.590254 
L 340.523783 82.799879 
L 343.200966 81.838727 
L 344.34833 81.626727 
L 345.113239 81.856759 
L 345.878149 81.790954 
L 346.643058 81.553095 
L 347.025513 81.589318 
L 348.172877 81.240717 
L 348.555332 81.375256 
L 348.937787 81.382916 
L 349.320241 81.565025 
L 349.702696 81.312466 
L 350.467606 81.72915 
L 350.85006 82.13936 
L 351.232515 82.231519 
L 352.379879 81.99989 
L 353.527243 81.844594 
L 354.292153 82.022384 
L 355.821972 81.613155 
L 356.204427 81.432624 
L 356.969336 81.326014 
L 358.1167 81.117407 
L 358.88161 81.149264 
L 359.264064 81.292274 
L 359.646519 81.683633 
L 360.793883 81.529652 
L 361.558793 81.268921 
L 361.941247 81.176283 
L 363.088612 81.356002 
L 363.853521 81.932029 
L 364.618431 81.698906 
L 365.000885 81.778936 
L 365.38334 81.660761 
L 367.295614 82.028628 
L 368.060523 81.872886 
L 368.442978 81.691419 
L 368.825433 81.691446 
L 369.207887 81.542482 
L 369.590342 81.530541 
L 369.972797 81.686246 
L 370.355252 81.438198 
L 370.737706 81.409297 
L 371.88507 81.862203 
L 372.267525 82.002423 
L 372.64998 82.299717 
L 373.414889 81.949211 
L 373.797344 82.104279 
L 374.179799 82.031498 
L 374.562254 82.102481 
L 374.944708 81.989863 
L 375.327163 82.146258 
L 375.709618 82.115209 
L 376.092072 82.418061 
L 378.004346 82.762291 
L 378.769256 82.606819 
L 379.15171 82.767491 
L 380.299074 82.8 
L 380.299074 82.8 
" style="fill:none;stroke:#1f77b4;stroke-linecap:square;stroke-width:1.5;"/>
   </g>
   <g id="line2d_15">
    <path clip-path="url(#paa47601a89)" d="M 34.56 82.8 
L 414.72 82.8 
" style="fill:none;stroke:#000000;stroke-dasharray:1.5,2.475;stroke-dashoffset:0;stroke-width:1.5;"/>
   </g>
   <g id="patch_3">
    <path d="M 34.56 162 
L 34.56 3.6 
" style="fill:none;stroke:#000000;stroke-linecap:square;stroke-linejoin:miter;stroke-width:0.8;"/>
   </g>
   <g id="patch_4">
    <path d="M 414.72 162 
L 414.72 3.6 
" style="fill:none;stroke:#000000;stroke-linecap:square;stroke-linejoin:miter;stroke-width:0.8;"/>
   </g>
   <g id="patch_5">
    <path d="M 34.56 162 
L 414.72 162 
" style="fill:none;stroke:#000000;stroke-linecap:square;stroke-linejoin:miter;stroke-width:0.8;"/>
   </g>
   <g id="patch_6">
    <path d="M 34.56 3.6 
L 414.72 3.6 
" style="fill:none;stroke:#000000;stroke-linecap:square;stroke-linejoin:miter;stroke-width:0.8;"/>
   </g>
  </g>
 </g>
 <defs>
  <clipPath id="paa47601a89">
   <rect height="158.4" width="380.16" x="34.56" y="3.6"/>
  </clipPath>
 </defs>
</svg>
