<?xml version="1.0" encoding="utf-8" standalone="no"?>
<!DOCTYPE svg PUBLIC "-//W3C//DTD SVG 1.1//EN"
  "http://www.w3.org/Graphics/SVG/1.1/DTD/svg11.dtd">
<svg height="180pt" version="1.1" viewBox="0 0 432 180" width="432pt" xmlns="http://www.w3.org/2000/svg" xmlns:xlink="http://www.w3.org/1999/xlink">
 <metadata>
  <rdf:RDF xmlns:cc="http://creativecommons.org/ns#" xmlns:dc="http://purl.org/dc/elements/1.1/" xmlns:rdf="http://www.w3.org/1999/02/22-rdf-syntax-ns#">
   <cc:Work>
    <dc:type rdf:resource="http://purl.org/dc/dcmitype/StillImage"/>
    <dc:date>2021-08-12T10:41:47.003485</dc:date>
    <dc:format>image/svg+xml</dc:format>
    <dc:creator>
     <cc:Agent>
      <dc:title>Matplotlib v3.4.2, https://matplotlib.org/</dc:title>
     </cc:Agent>
    </dc:creator>
   </cc:Work>
  </rdf:RDF>
 </metadata>
 <defs>
  <style type="text/css">*{stroke-linecap:butt;stroke-linejoin:round;}</style>
 </defs>
 <g id="figure_1">
  <g id="patch_1">
   <path d="M 0 180 
L 432 180 
L 432 0 
L 0 0 
z
" style="fill:#ffffff;"/>
  </g>
  <g id="axes_1">
   <g id="patch_2">
    <path d="M 34.56 162 
L 414.72 162 
L 414.72 3.6 
L 34.56 3.6 
z
" style="fill:#ffffff;"/>
   </g>
   <g id="PolyCollection_1">
    <path clip-path="url(#p603271a9bc)" d="M 74.670668 82.350351 
L 74.670668 83.249649 
L 75.116342 83.697284 
L 75.562016 84.143579 
L 76.007691 84.588534 
L 76.453365 85.032149 
L 76.899039 85.474423 
L 77.344713 85.915357 
L 77.790387 86.354951 
L 78.236061 86.793205 
L 78.681735 87.230119 
L 79.127409 87.665692 
L 79.573083 88.099925 
L 80.018757 88.532818 
L 80.464431 88.964371 
L 80.910106 89.394583 
L 81.35578 89.823455 
L 81.801454 90.250987 
L 82.247128 90.677179 
L 82.692802 91.102031 
L 83.138476 91.525542 
L 83.58415 91.947713 
L 84.029824 92.368544 
L 84.475498 92.788034 
L 84.921172 93.206185 
L 85.366846 93.622995 
L 85.812521 94.038465 
L 86.258195 94.452595 
L 86.703869 94.865384 
L 87.149543 95.276833 
L 87.595217 95.686943 
L 88.040891 96.095711 
L 88.486565 96.50314 
L 88.932239 96.909228 
L 89.377913 97.313976 
L 89.823587 97.717384 
L 90.269261 98.119452 
L 90.714936 98.52018 
L 91.16061 98.919567 
L 91.606284 99.317614 
L 92.051958 99.714321 
L 92.497632 100.109687 
L 92.943306 100.503713 
L 93.38898 100.8964 
L 93.834654 101.287745 
L 94.280328 101.677751 
L 94.726002 102.066417 
L 95.171676 102.453742 
L 95.617351 102.839727 
L 96.063025 103.224371 
L 96.508699 103.607676 
L 96.954373 103.98964 
L 97.400047 104.370264 
L 97.845721 104.749548 
L 98.291395 105.127492 
L 98.737069 105.504095 
L 99.182743 105.879358 
L 99.628417 106.253281 
L 100.074091 106.625864 
L 100.519766 106.997107 
L 100.96544 107.367009 
L 101.411114 107.735571 
L 101.856788 108.102793 
L 102.302462 108.468674 
L 102.748136 108.833216 
L 103.19381 109.196417 
L 103.639484 109.558278 
L 104.085158 109.918798 
L 104.530832 110.277979 
L 104.976506 110.635819 
L 105.422181 110.992319 
L 105.867855 111.347479 
L 106.313529 111.701299 
L 106.759203 112.053778 
L 107.204877 112.404917 
L 107.650551 112.754716 
L 108.096225 113.103175 
L 108.541899 113.450293 
L 108.987573 113.796071 
L 109.433247 114.140509 
L 109.878921 114.483607 
L 110.324596 114.825364 
L 110.77027 115.165782 
L 111.215944 115.504859 
L 111.661618 115.842596 
L 112.107292 116.178992 
L 112.552966 116.514049 
L 112.99864 116.847765 
L 113.444314 117.180141 
L 113.889988 117.511177 
L 114.335662 117.840872 
L 114.781336 118.169227 
L 115.227011 118.496242 
L 115.672685 118.821917 
L 116.118359 119.146252 
L 116.564033 119.469246 
L 117.009707 119.7909 
L 117.455381 120.111214 
L 117.901055 120.430188 
L 118.346729 120.747822 
L 118.792403 121.064115 
L 119.238077 121.379068 
L 119.683751 121.692681 
L 120.129426 122.004953 
L 120.5751 122.315886 
L 121.020774 122.625478 
L 121.466448 122.93373 
L 121.912122 123.240641 
L 122.357796 123.546213 
L 122.80347 123.850444 
L 123.249144 124.153335 
L 123.694818 124.454886 
L 124.140492 124.755096 
L 124.586166 125.053966 
L 125.031841 125.351497 
L 125.477515 125.647686 
L 125.923189 125.942536 
L 126.368863 126.236045 
L 126.814537 126.528215 
L 127.260211 126.819044 
L 127.705885 127.108532 
L 128.151559 127.396681 
L 128.597233 127.683489 
L 129.042907 127.968957 
L 129.488581 128.253085 
L 129.934256 128.535873 
L 130.37993 128.81732 
L 130.825604 129.097427 
L 131.271278 129.376194 
L 131.716952 129.653621 
L 132.162626 129.929707 
L 132.6083 130.204454 
L 133.053974 130.47786 
L 133.499648 130.749925 
L 133.945322 131.020651 
L 134.390996 131.290036 
L 134.836671 131.558081 
L 135.282345 131.824786 
L 135.728019 132.090151 
L 136.173693 132.354175 
L 136.619367 132.61686 
L 137.065041 132.878204 
L 137.510715 133.138207 
L 137.956389 133.396871 
L 138.402063 133.654194 
L 138.847737 133.910177 
L 139.293411 134.16482 
L 139.739086 134.418123 
L 140.18476 134.670085 
L 140.630434 134.920708 
L 141.076108 135.16999 
L 141.521782 135.417931 
L 141.967456 135.664533 
L 142.41313 135.909794 
L 142.858804 136.153715 
L 143.304478 136.396296 
L 143.750152 136.637537 
L 144.195826 136.877437 
L 144.641501 137.115997 
L 145.087175 137.353217 
L 145.532849 137.589097 
L 145.978523 137.823636 
L 146.424197 138.056836 
L 146.869871 138.288695 
L 147.315545 138.519213 
L 147.761219 138.748392 
L 148.206893 138.97623 
L 148.652567 139.202728 
L 149.098242 139.427886 
L 149.543916 139.651704 
L 149.98959 139.874181 
L 150.435264 140.095319 
L 150.880938 140.315116 
L 151.326612 140.533572 
L 151.772286 140.750689 
L 152.21796 140.966465 
L 152.663634 141.180901 
L 153.109308 141.393997 
L 153.554982 141.605753 
L 154.000657 141.816168 
L 154.446331 142.025244 
L 154.892005 142.232979 
L 155.337679 142.439373 
L 155.783353 142.644428 
L 156.229027 142.848142 
L 156.674701 143.050516 
L 157.120375 143.25155 
L 157.566049 143.451244 
L 158.011723 143.649597 
L 158.457397 143.84661 
L 158.903072 144.042283 
L 159.348746 144.236616 
L 159.79442 144.429608 
L 160.240094 144.621261 
L 160.685768 144.811573 
L 161.131442 145.000544 
L 161.577116 145.188176 
L 162.02279 145.374467 
L 162.468464 145.559419 
L 162.914138 145.743029 
L 163.359812 145.9253 
L 163.805487 146.106231 
L 164.251161 146.285821 
L 164.696835 146.464071 
L 165.142509 146.640981 
L 165.588183 146.81655 
L 166.033857 146.99078 
L 166.479531 147.163669 
L 166.925205 147.335218 
L 167.370879 147.505426 
L 167.816553 147.674295 
L 168.262227 147.841823 
L 168.707902 148.008011 
L 169.153576 148.172859 
L 169.59925 148.336366 
L 170.044924 148.498533 
L 170.490598 148.65936 
L 170.936272 148.818847 
L 171.381946 148.976994 
L 171.82762 149.1338 
L 172.273294 149.289266 
L 172.718968 149.443392 
L 173.164642 149.596178 
L 173.610317 149.747624 
L 174.055991 149.897729 
L 174.501665 150.046494 
L 174.947339 150.193919 
L 175.393013 150.340003 
L 175.838687 150.484748 
L 176.284361 150.628152 
L 176.730035 150.770216 
L 177.175709 150.91094 
L 177.621383 151.050323 
L 178.067057 151.188366 
L 178.512732 151.325069 
L 178.958406 151.460432 
L 179.40408 151.594455 
L 179.849754 151.727137 
L 180.295428 151.858479 
L 180.741102 151.988481 
L 181.186776 152.117143 
L 181.63245 152.244464 
L 182.078124 152.370445 
L 182.523798 152.495086 
L 182.969472 152.618387 
L 183.415147 152.740347 
L 183.860821 152.860968 
L 184.306495 152.980248 
L 184.752169 153.098188 
L 185.197843 153.214787 
L 185.643517 153.330047 
L 186.089191 153.443966 
L 186.534865 153.556545 
L 186.534865 12.043455 
L 186.534865 12.043455 
L 186.089191 12.156034 
L 185.643517 12.269953 
L 185.197843 12.385213 
L 184.752169 12.501812 
L 184.306495 12.619752 
L 183.860821 12.739032 
L 183.415147 12.859653 
L 182.969472 12.981613 
L 182.523798 13.104914 
L 182.078124 13.229555 
L 181.63245 13.355536 
L 181.186776 13.482857 
L 180.741102 13.611519 
L 180.295428 13.741521 
L 179.849754 13.872863 
L 179.40408 14.005545 
L 178.958406 14.139568 
L 178.512732 14.274931 
L 178.067057 14.411634 
L 177.621383 14.549677 
L 177.175709 14.68906 
L 176.730035 14.829784 
L 176.284361 14.971848 
L 175.838687 15.115252 
L 175.393013 15.259997 
L 174.947339 15.406081 
L 174.501665 15.553506 
L 174.055991 15.702271 
L 173.610317 15.852376 
L 173.164642 16.003822 
L 172.718968 16.156608 
L 172.273294 16.310734 
L 171.82762 16.4662 
L 171.381946 16.623006 
L 170.936272 16.781153 
L 170.490598 16.94064 
L 170.044924 17.101467 
L 169.59925 17.263634 
L 169.153576 17.427141 
L 168.707902 17.591989 
L 168.262227 17.758177 
L 167.816553 17.925705 
L 167.370879 18.094574 
L 166.925205 18.264782 
L 166.479531 18.436331 
L 166.033857 18.60922 
L 165.588183 18.78345 
L 165.142509 18.959019 
L 164.696835 19.135929 
L 164.251161 19.314179 
L 163.805487 19.493769 
L 163.359812 19.6747 
L 162.914138 19.856971 
L 162.468464 20.040581 
L 162.02279 20.225533 
L 161.577116 20.411824 
L 161.131442 20.599456 
L 160.685768 20.788427 
L 160.240094 20.978739 
L 159.79442 21.170392 
L 159.348746 21.363384 
L 158.903072 21.557717 
L 158.457397 21.75339 
L 158.011723 21.950403 
L 157.566049 22.148756 
L 157.120375 22.34845 
L 156.674701 22.549484 
L 156.229027 22.751858 
L 155.783353 22.955572 
L 155.337679 23.160627 
L 154.892005 23.367021 
L 154.446331 23.574756 
L 154.000657 23.783832 
L 153.554982 23.994247 
L 153.109308 24.206003 
L 152.663634 24.419099 
L 152.21796 24.633535 
L 151.772286 24.849311 
L 151.326612 25.066428 
L 150.880938 25.284884 
L 150.435264 25.504681 
L 149.98959 25.725819 
L 149.543916 25.948296 
L 149.098242 26.172114 
L 148.652567 26.397272 
L 148.206893 26.62377 
L 147.761219 26.851608 
L 147.315545 27.080787 
L 146.869871 27.311305 
L 146.424197 27.543164 
L 145.978523 27.776364 
L 145.532849 28.010903 
L 145.087175 28.246783 
L 144.641501 28.484003 
L 144.195826 28.722563 
L 143.750152 28.962463 
L 143.304478 29.203704 
L 142.858804 29.446285 
L 142.41313 29.690206 
L 141.967456 29.935467 
L 141.521782 30.182069 
L 141.076108 30.43001 
L 140.630434 30.679292 
L 140.18476 30.929915 
L 139.739086 31.181877 
L 139.293411 31.43518 
L 138.847737 31.689823 
L 138.402063 31.945806 
L 137.956389 32.203129 
L 137.510715 32.461793 
L 137.065041 32.721796 
L 136.619367 32.98314 
L 136.173693 33.245825 
L 135.728019 33.509849 
L 135.282345 33.775214 
L 134.836671 34.041919 
L 134.390996 34.309964 
L 133.945322 34.579349 
L 133.499648 34.850075 
L 133.053974 35.12214 
L 132.6083 35.395546 
L 132.162626 35.670293 
L 131.716952 35.946379 
L 131.271278 36.223806 
L 130.825604 36.502573 
L 130.37993 36.78268 
L 129.934256 37.064127 
L 129.488581 37.346915 
L 129.042907 37.631043 
L 128.597233 37.916511 
L 128.151559 38.203319 
L 127.705885 38.491468 
L 127.260211 38.780956 
L 126.814537 39.071785 
L 126.368863 39.363955 
L 125.923189 39.657464 
L 125.477515 39.952314 
L 125.031841 40.248503 
L 124.586166 40.546034 
L 124.140492 40.844904 
L 123.694818 41.145114 
L 123.249144 41.446665 
L 122.80347 41.749556 
L 122.357796 42.053787 
L 121.912122 42.359359 
L 121.466448 42.66627 
L 121.020774 42.974522 
L 120.5751 43.284114 
L 120.129426 43.595047 
L 119.683751 43.907319 
L 119.238077 44.220932 
L 118.792403 44.535885 
L 118.346729 44.852178 
L 117.901055 45.169812 
L 117.455381 45.488786 
L 117.009707 45.8091 
L 116.564033 46.130754 
L 116.118359 46.453748 
L 115.672685 46.778083 
L 115.227011 47.103758 
L 114.781336 47.430773 
L 114.335662 47.759128 
L 113.889988 48.088823 
L 113.444314 48.419859 
L 112.99864 48.752235 
L 112.552966 49.085951 
L 112.107292 49.421008 
L 111.661618 49.757404 
L 111.215944 50.095141 
L 110.77027 50.434218 
L 110.324596 50.774636 
L 109.878921 51.116393 
L 109.433247 51.459491 
L 108.987573 51.803929 
L 108.541899 52.149707 
L 108.096225 52.496825 
L 107.650551 52.845284 
L 107.204877 53.195083 
L 106.759203 53.546222 
L 106.313529 53.898701 
L 105.867855 54.252521 
L 105.422181 54.607681 
L 104.976506 54.964181 
L 104.530832 55.322021 
L 104.085158 55.681202 
L 103.639484 56.041722 
L 103.19381 56.403583 
L 102.748136 56.766784 
L 102.302462 57.131326 
L 101.856788 57.497207 
L 101.411114 57.864429 
L 100.96544 58.232991 
L 100.519766 58.602893 
L 100.074091 58.974136 
L 99.628417 59.346719 
L 99.182743 59.720642 
L 98.737069 60.095905 
L 98.291395 60.472508 
L 97.845721 60.850452 
L 97.400047 61.229736 
L 96.954373 61.61036 
L 96.508699 61.992324 
L 96.063025 62.375629 
L 95.617351 62.760273 
L 95.171676 63.146258 
L 94.726002 63.533583 
L 94.280328 63.922249 
L 93.834654 64.312255 
L 93.38898 64.7036 
L 92.943306 65.096287 
L 92.497632 65.490313 
L 92.051958 65.885679 
L 91.606284 66.282386 
L 91.16061 66.680433 
L 90.714936 67.07982 
L 90.269261 67.480548 
L 89.823587 67.882616 
L 89.377913 68.286024 
L 88.932239 68.690772 
L 88.486565 69.09686 
L 88.040891 69.504289 
L 87.595217 69.913057 
L 87.149543 70.323167 
L 86.703869 70.734616 
L 86.258195 71.147405 
L 85.812521 71.561535 
L 85.366846 71.977005 
L 84.921172 72.393815 
L 84.475498 72.811966 
L 84.029824 73.231456 
L 83.58415 73.652287 
L 83.138476 74.074458 
L 82.692802 74.497969 
L 82.247128 74.922821 
L 81.801454 75.349013 
L 81.35578 75.776545 
L 80.910106 76.205417 
L 80.464431 76.635629 
L 80.018757 77.067182 
L 79.573083 77.500075 
L 79.127409 77.934308 
L 78.681735 78.369881 
L 78.236061 78.806795 
L 77.790387 79.245049 
L 77.344713 79.684643 
L 76.899039 80.125577 
L 76.453365 80.567851 
L 76.007691 81.011466 
L 75.562016 81.456421 
L 75.116342 81.902716 
L 74.670668 82.350351 
z
" style="fill:#0000ff;fill-opacity:0.1;stroke:#0000ff;stroke-opacity:0.1;"/>
    <path clip-path="url(#p603271a9bc)" d="M 188.317562 11.932216 
L 188.317562 153.667784 
L 188.763236 153.777682 
L 189.20891 153.88624 
L 189.654584 153.993458 
L 190.100258 154.099336 
L 190.545932 154.203874 
L 190.991606 154.307071 
L 191.43728 154.408928 
L 191.882954 154.509445 
L 192.328628 154.608622 
L 192.774302 154.706458 
L 193.219977 154.802955 
L 193.665651 154.898111 
L 194.111325 154.991927 
L 194.556999 155.084402 
L 195.002673 155.175537 
L 195.448347 155.265333 
L 195.894021 155.353787 
L 196.339695 155.440902 
L 196.785369 155.526677 
L 197.231043 155.611111 
L 197.676717 155.694205 
L 198.122392 155.775959 
L 198.568066 155.856372 
L 199.01374 155.935445 
L 199.459414 156.013178 
L 199.905088 156.089571 
L 200.350762 156.164624 
L 200.796436 156.238336 
L 201.24211 156.310709 
L 201.687784 156.381741 
L 202.133458 156.451432 
L 202.579132 156.519784 
L 203.024807 156.586795 
L 203.470481 156.652466 
L 203.916155 156.716797 
L 204.361829 156.779788 
L 204.807503 156.841438 
L 205.253177 156.901748 
L 205.698851 156.960718 
L 206.144525 157.018348 
L 206.590199 157.074637 
L 207.035873 157.129586 
L 207.481547 157.183195 
L 207.927222 157.235464 
L 208.372896 157.286393 
L 208.81857 157.335981 
L 209.264244 157.384229 
L 209.709918 157.431137 
L 210.155592 157.476705 
L 210.601266 157.520932 
L 211.04694 157.56382 
L 211.492614 157.605367 
L 211.938288 157.645573 
L 212.383962 157.68444 
L 212.829637 157.721966 
L 213.275311 157.758152 
L 213.720985 157.792998 
L 214.166659 157.826504 
L 214.612333 157.858669 
L 215.058007 157.889494 
L 215.503681 157.918979 
L 215.949355 157.947124 
L 216.395029 157.973929 
L 216.840703 157.999393 
L 217.286377 158.023517 
L 217.732052 158.046301 
L 218.177726 158.067744 
L 218.6234 158.087848 
L 219.069074 158.106611 
L 219.514748 158.124034 
L 219.960422 158.140117 
L 220.406096 158.154859 
L 220.85177 158.168261 
L 221.297444 158.180323 
L 221.743118 158.191045 
L 222.188792 158.200427 
L 222.634467 158.208468 
L 223.080141 158.215169 
L 223.525815 158.22053 
L 223.971489 158.224551 
L 224.417163 158.227231 
L 224.862837 158.228571 
L 225.308511 158.228571 
L 225.754185 158.227231 
L 226.199859 158.224551 
L 226.645533 158.22053 
L 227.091208 158.215169 
L 227.536882 158.208468 
L 227.982556 158.200427 
L 228.42823 158.191045 
L 228.873904 158.180323 
L 229.319578 158.168261 
L 229.765252 158.154859 
L 230.210926 158.140117 
L 230.6566 158.124034 
L 231.102274 158.106611 
L 231.547948 158.087848 
L 231.993623 158.067744 
L 232.439297 158.046301 
L 232.884971 158.023517 
L 233.330645 157.999393 
L 233.776319 157.973929 
L 234.221993 157.947124 
L 234.667667 157.918979 
L 235.113341 157.889494 
L 235.559015 157.858669 
L 236.004689 157.826504 
L 236.450363 157.792998 
L 236.896038 157.758152 
L 237.341712 157.721966 
L 237.787386 157.68444 
L 238.23306 157.645573 
L 238.678734 157.605367 
L 239.124408 157.56382 
L 239.570082 157.520932 
L 240.015756 157.476705 
L 240.46143 157.431137 
L 240.907104 157.384229 
L 241.352778 157.335981 
L 241.798453 157.286393 
L 242.244127 157.235464 
L 242.689801 157.183195 
L 243.135475 157.129586 
L 243.581149 157.074637 
L 244.026823 157.018348 
L 244.472497 156.960718 
L 244.918171 156.901748 
L 245.363845 156.841438 
L 245.809519 156.779788 
L 246.255193 156.716797 
L 246.700868 156.652466 
L 247.146542 156.586795 
L 247.592216 156.519784 
L 248.03789 156.451432 
L 248.483564 156.381741 
L 248.929238 156.310709 
L 249.374912 156.238336 
L 249.820586 156.164624 
L 250.26626 156.089571 
L 250.711934 156.013178 
L 251.157608 155.935445 
L 251.603283 155.856372 
L 252.048957 155.775959 
L 252.494631 155.694205 
L 252.940305 155.611111 
L 253.385979 155.526677 
L 253.831653 155.440902 
L 254.277327 155.353787 
L 254.723001 155.265333 
L 255.168675 155.175537 
L 255.614349 155.084402 
L 256.060023 154.991927 
L 256.505698 154.898111 
L 256.951372 154.802955 
L 257.397046 154.706458 
L 257.84272 154.608622 
L 258.288394 154.509445 
L 258.734068 154.408928 
L 259.179742 154.307071 
L 259.625416 154.203874 
L 260.07109 154.099336 
L 260.516764 153.993458 
L 260.962438 153.88624 
L 261.408113 153.777682 
L 261.853787 153.667784 
L 262.299461 153.556545 
L 262.745135 153.443966 
L 263.190809 153.330047 
L 263.636483 153.214787 
L 264.082157 153.098188 
L 264.527831 152.980248 
L 264.973505 152.860968 
L 265.419179 152.740347 
L 265.864853 152.618387 
L 266.310528 152.495086 
L 266.756202 152.370445 
L 267.201876 152.244464 
L 267.64755 152.117143 
L 268.093224 151.988481 
L 268.538898 151.858479 
L 268.984572 151.727137 
L 269.430246 151.594455 
L 269.87592 151.460432 
L 270.321594 151.325069 
L 270.767268 151.188366 
L 271.212943 151.050323 
L 271.658617 150.91094 
L 272.104291 150.770216 
L 272.549965 150.628152 
L 272.995639 150.484748 
L 273.441313 150.340003 
L 273.886987 150.193919 
L 274.332661 150.046494 
L 274.778335 149.897729 
L 275.224009 149.747624 
L 275.669683 149.596178 
L 276.115358 149.443392 
L 276.561032 149.289266 
L 277.006706 149.1338 
L 277.45238 148.976994 
L 277.898054 148.818847 
L 278.343728 148.65936 
L 278.789402 148.498533 
L 279.235076 148.336366 
L 279.68075 148.172859 
L 280.126424 148.008011 
L 280.572098 147.841823 
L 281.017773 147.674295 
L 281.463447 147.505426 
L 281.909121 147.335218 
L 282.354795 147.163669 
L 282.800469 146.99078 
L 283.246143 146.81655 
L 283.691817 146.640981 
L 284.137491 146.464071 
L 284.583165 146.285821 
L 285.028839 146.106231 
L 285.474513 145.9253 
L 285.920188 145.743029 
L 286.365862 145.559419 
L 286.811536 145.374467 
L 287.25721 145.188176 
L 287.702884 145.000544 
L 288.148558 144.811573 
L 288.594232 144.621261 
L 289.039906 144.429608 
L 289.48558 144.236616 
L 289.931254 144.042283 
L 290.376928 143.84661 
L 290.822603 143.649597 
L 291.268277 143.451244 
L 291.713951 143.25155 
L 292.159625 143.050516 
L 292.605299 142.848142 
L 293.050973 142.644428 
L 293.496647 142.439373 
L 293.942321 142.232979 
L 294.387995 142.025244 
L 294.833669 141.816168 
L 295.279343 141.605753 
L 295.725018 141.393997 
L 296.170692 141.180901 
L 296.616366 140.966465 
L 297.06204 140.750689 
L 297.507714 140.533572 
L 297.953388 140.315116 
L 298.399062 140.095319 
L 298.844736 139.874181 
L 299.29041 139.651704 
L 299.736084 139.427886 
L 300.181758 139.202728 
L 300.627433 138.97623 
L 301.073107 138.748392 
L 301.518781 138.519213 
L 301.964455 138.288695 
L 302.410129 138.056836 
L 302.855803 137.823636 
L 303.301477 137.589097 
L 303.747151 137.353217 
L 304.192825 137.115997 
L 304.638499 136.877437 
L 305.084174 136.637537 
L 305.529848 136.396296 
L 305.975522 136.153715 
L 306.421196 135.909794 
L 306.86687 135.664533 
L 307.312544 135.417931 
L 307.758218 135.16999 
L 308.203892 134.920708 
L 308.649566 134.670085 
L 309.09524 134.418123 
L 309.540914 134.16482 
L 309.986589 133.910177 
L 310.432263 133.654194 
L 310.877937 133.396871 
L 311.323611 133.138207 
L 311.769285 132.878204 
L 312.214959 132.61686 
L 312.660633 132.354175 
L 313.106307 132.090151 
L 313.551981 131.824786 
L 313.997655 131.558081 
L 314.443329 131.290036 
L 314.889004 131.020651 
L 315.334678 130.749925 
L 315.780352 130.47786 
L 316.226026 130.204454 
L 316.6717 129.929707 
L 317.117374 129.653621 
L 317.563048 129.376194 
L 318.008722 129.097427 
L 318.454396 128.81732 
L 318.90007 128.535873 
L 319.345744 128.253085 
L 319.791419 127.968957 
L 320.237093 127.683489 
L 320.682767 127.396681 
L 321.128441 127.108532 
L 321.574115 126.819044 
L 322.019789 126.528215 
L 322.465463 126.236045 
L 322.911137 125.942536 
L 323.356811 125.647686 
L 323.802485 125.351497 
L 324.248159 125.053966 
L 324.693834 124.755096 
L 325.139508 124.454886 
L 325.585182 124.153335 
L 326.030856 123.850444 
L 326.47653 123.546213 
L 326.922204 123.240641 
L 327.367878 122.93373 
L 327.813552 122.625478 
L 328.259226 122.315886 
L 328.7049 122.004953 
L 329.150574 121.692681 
L 329.596249 121.379068 
L 330.041923 121.064115 
L 330.487597 120.747822 
L 330.933271 120.430188 
L 331.378945 120.111214 
L 331.824619 119.7909 
L 332.270293 119.469246 
L 332.715967 119.146252 
L 333.161641 118.821917 
L 333.607315 118.496242 
L 334.052989 118.169227 
L 334.498664 117.840872 
L 334.944338 117.511177 
L 335.390012 117.180141 
L 335.835686 116.847765 
L 336.28136 116.514049 
L 336.727034 116.178992 
L 337.172708 115.842596 
L 337.618382 115.504859 
L 338.064056 115.165782 
L 338.50973 114.825364 
L 338.955404 114.483607 
L 339.401079 114.140509 
L 339.846753 113.796071 
L 340.292427 113.450293 
L 340.738101 113.103175 
L 341.183775 112.754716 
L 341.629449 112.404917 
L 342.075123 112.053778 
L 342.520797 111.701299 
L 342.966471 111.347479 
L 343.412145 110.992319 
L 343.857819 110.635819 
L 344.303494 110.277979 
L 344.749168 109.918798 
L 345.194842 109.558278 
L 345.640516 109.196417 
L 346.08619 108.833216 
L 346.531864 108.468674 
L 346.977538 108.102793 
L 347.423212 107.735571 
L 347.868886 107.367009 
L 348.31456 106.997107 
L 348.760234 106.625864 
L 349.205909 106.253281 
L 349.651583 105.879358 
L 350.097257 105.504095 
L 350.542931 105.127492 
L 350.988605 104.749548 
L 351.434279 104.370264 
L 351.879953 103.98964 
L 352.325627 103.607676 
L 352.771301 103.224371 
L 353.216975 102.839727 
L 353.662649 102.453742 
L 354.108324 102.066417 
L 354.553998 101.677751 
L 354.999672 101.287745 
L 355.445346 100.8964 
L 355.89102 100.503713 
L 356.336694 100.109687 
L 356.782368 99.714321 
L 357.228042 99.317614 
L 357.673716 98.919567 
L 358.11939 98.52018 
L 358.11939 67.07982 
L 358.11939 67.07982 
L 357.673716 66.680433 
L 357.228042 66.282386 
L 356.782368 65.885679 
L 356.336694 65.490313 
L 355.89102 65.096287 
L 355.445346 64.7036 
L 354.999672 64.312255 
L 354.553998 63.922249 
L 354.108324 63.533583 
L 353.662649 63.146258 
L 353.216975 62.760273 
L 352.771301 62.375629 
L 352.325627 61.992324 
L 351.879953 61.61036 
L 351.434279 61.229736 
L 350.988605 60.850452 
L 350.542931 60.472508 
L 350.097257 60.095905 
L 349.651583 59.720642 
L 349.205909 59.346719 
L 348.760234 58.974136 
L 348.31456 58.602893 
L 347.868886 58.232991 
L 347.423212 57.864429 
L 346.977538 57.497207 
L 346.531864 57.131326 
L 346.08619 56.766784 
L 345.640516 56.403583 
L 345.194842 56.041722 
L 344.749168 55.681202 
L 344.303494 55.322021 
L 343.857819 54.964181 
L 343.412145 54.607681 
L 342.966471 54.252521 
L 342.520797 53.898701 
L 342.075123 53.546222 
L 341.629449 53.195083 
L 341.183775 52.845284 
L 340.738101 52.496825 
L 340.292427 52.149707 
L 339.846753 51.803929 
L 339.401079 51.459491 
L 338.955404 51.116393 
L 338.50973 50.774636 
L 338.064056 50.434218 
L 337.618382 50.095141 
L 337.172708 49.757404 
L 336.727034 49.421008 
L 336.28136 49.085951 
L 335.835686 48.752235 
L 335.390012 48.419859 
L 334.944338 48.088823 
L 334.498664 47.759128 
L 334.052989 47.430773 
L 333.607315 47.103758 
L 333.161641 46.778083 
L 332.715967 46.453748 
L 332.270293 46.130754 
L 331.824619 45.8091 
L 331.378945 45.488786 
L 330.933271 45.169812 
L 330.487597 44.852178 
L 330.041923 44.535885 
L 329.596249 44.220932 
L 329.150574 43.907319 
L 328.7049 43.595047 
L 328.259226 43.284114 
L 327.813552 42.974522 
L 327.367878 42.66627 
L 326.922204 42.359359 
L 326.47653 42.053787 
L 326.030856 41.749556 
L 325.585182 41.446665 
L 325.139508 41.145114 
L 324.693834 40.844904 
L 324.248159 40.546034 
L 323.802485 40.248503 
L 323.356811 39.952314 
L 322.911137 39.657464 
L 322.465463 39.363955 
L 322.019789 39.071785 
L 321.574115 38.780956 
L 321.128441 38.491468 
L 320.682767 38.203319 
L 320.237093 37.916511 
L 319.791419 37.631043 
L 319.345744 37.346915 
L 318.90007 37.064127 
L 318.454396 36.78268 
L 318.008722 36.502573 
L 317.563048 36.223806 
L 317.117374 35.946379 
L 316.6717 35.670293 
L 316.226026 35.395546 
L 315.780352 35.12214 
L 315.334678 34.850075 
L 314.889004 34.579349 
L 314.443329 34.309964 
L 313.997655 34.041919 
L 313.551981 33.775214 
L 313.106307 33.509849 
L 312.660633 33.245825 
L 312.214959 32.98314 
L 311.769285 32.721796 
L 311.323611 32.461793 
L 310.877937 32.203129 
L 310.432263 31.945806 
L 309.986589 31.689823 
L 309.540914 31.43518 
L 309.09524 31.181877 
L 308.649566 30.929915 
L 308.203892 30.679292 
L 307.758218 30.43001 
L 307.312544 30.182069 
L 306.86687 29.935467 
L 306.421196 29.690206 
L 305.975522 29.446285 
L 305.529848 29.203704 
L 305.084174 28.962463 
L 304.638499 28.722563 
L 304.192825 28.484003 
L 303.747151 28.246783 
L 303.301477 28.010903 
L 302.855803 27.776364 
L 302.410129 27.543164 
L 301.964455 27.311305 
L 301.518781 27.080787 
L 301.073107 26.851608 
L 300.627433 26.62377 
L 300.181758 26.397272 
L 299.736084 26.172114 
L 299.29041 25.948296 
L 298.844736 25.725819 
L 298.399062 25.504681 
L 297.953388 25.284884 
L 297.507714 25.066428 
L 297.06204 24.849311 
L 296.616366 24.633535 
L 296.170692 24.419099 
L 295.725018 24.206003 
L 295.279343 23.994247 
L 294.833669 23.783832 
L 294.387995 23.574756 
L 293.942321 23.367021 
L 293.496647 23.160627 
L 293.050973 22.955572 
L 292.605299 22.751858 
L 292.159625 22.549484 
L 291.713951 22.34845 
L 291.268277 22.148756 
L 290.822603 21.950403 
L 290.376928 21.75339 
L 289.931254 21.557717 
L 289.48558 21.363384 
L 289.039906 21.170392 
L 288.594232 20.978739 
L 288.148558 20.788427 
L 287.702884 20.599456 
L 287.25721 20.411824 
L 286.811536 20.225533 
L 286.365862 20.040581 
L 285.920188 19.856971 
L 285.474513 19.6747 
L 285.028839 19.493769 
L 284.583165 19.314179 
L 284.137491 19.135929 
L 283.691817 18.959019 
L 283.246143 18.78345 
L 282.800469 18.60922 
L 282.354795 18.436331 
L 281.909121 18.264782 
L 281.463447 18.094574 
L 281.017773 17.925705 
L 280.572098 17.758177 
L 280.126424 17.591989 
L 279.68075 17.427141 
L 279.235076 17.263634 
L 278.789402 17.101467 
L 278.343728 16.94064 
L 277.898054 16.781153 
L 277.45238 16.623006 
L 277.006706 16.4662 
L 276.561032 16.310734 
L 276.115358 16.156608 
L 275.669683 16.003822 
L 275.224009 15.852376 
L 274.778335 15.702271 
L 274.332661 15.553506 
L 273.886987 15.406081 
L 273.441313 15.259997 
L 272.995639 15.115252 
L 272.549965 14.971848 
L 272.104291 14.829784 
L 271.658617 14.68906 
L 271.212943 14.549677 
L 270.767268 14.411634 
L 270.321594 14.274931 
L 269.87592 14.139568 
L 269.430246 14.005545 
L 268.984572 13.872863 
L 268.538898 13.741521 
L 268.093224 13.611519 
L 267.64755 13.482857 
L 267.201876 13.355536 
L 266.756202 13.229555 
L 266.310528 13.104914 
L 265.864853 12.981613 
L 265.419179 12.859653 
L 264.973505 12.739032 
L 264.527831 12.619752 
L 264.082157 12.501812 
L 263.636483 12.385213 
L 263.190809 12.269953 
L 262.745135 12.156034 
L 262.299461 12.043455 
L 261.853787 11.932216 
L 261.408113 11.822318 
L 260.962438 11.71376 
L 260.516764 11.606542 
L 260.07109 11.500664 
L 259.625416 11.396126 
L 259.179742 11.292929 
L 258.734068 11.191072 
L 258.288394 11.090555 
L 257.84272 10.991378 
L 257.397046 10.893542 
L 256.951372 10.797045 
L 256.505698 10.701889 
L 256.060023 10.608073 
L 255.614349 10.515598 
L 255.168675 10.424463 
L 254.723001 10.334667 
L 254.277327 10.246213 
L 253.831653 10.159098 
L 253.385979 10.073323 
L 252.940305 9.988889 
L 252.494631 9.905795 
L 252.048957 9.824041 
L 251.603283 9.743628 
L 251.157608 9.664555 
L 250.711934 9.586822 
L 250.26626 9.510429 
L 249.820586 9.435376 
L 249.374912 9.361664 
L 248.929238 9.289291 
L 248.483564 9.218259 
L 248.03789 9.148568 
L 247.592216 9.080216 
L 247.146542 9.013205 
L 246.700868 8.947534 
L 246.255193 8.883203 
L 245.809519 8.820212 
L 245.363845 8.758562 
L 244.918171 8.698252 
L 244.472497 8.639282 
L 244.026823 8.581652 
L 243.581149 8.525363 
L 243.135475 8.470414 
L 242.689801 8.416805 
L 242.244127 8.364536 
L 241.798453 8.313607 
L 241.352778 8.264019 
L 240.907104 8.215771 
L 240.46143 8.168863 
L 240.015756 8.123295 
L 239.570082 8.079068 
L 239.124408 8.03618 
L 238.678734 7.994633 
L 238.23306 7.954427 
L 237.787386 7.91556 
L 237.341712 7.878034 
L 236.896038 7.841848 
L 236.450363 7.807002 
L 236.004689 7.773496 
L 235.559015 7.741331 
L 235.113341 7.710506 
L 234.667667 7.681021 
L 234.221993 7.652876 
L 233.776319 7.626071 
L 233.330645 7.600607 
L 232.884971 7.576483 
L 232.439297 7.553699 
L 231.993623 7.532256 
L 231.547948 7.512152 
L 231.102274 7.493389 
L 230.6566 7.475966 
L 230.210926 7.459883 
L 229.765252 7.445141 
L 229.319578 7.431739 
L 228.873904 7.419677 
L 228.42823 7.408955 
L 227.982556 7.399573 
L 227.536882 7.391532 
L 227.091208 7.384831 
L 226.645533 7.37947 
L 226.199859 7.375449 
L 225.754185 7.372769 
L 225.308511 7.371429 
L 224.862837 7.371429 
L 224.417163 7.372769 
L 223.971489 7.375449 
L 223.525815 7.37947 
L 223.080141 7.384831 
L 222.634467 7.391532 
L 222.188792 7.399573 
L 221.743118 7.408955 
L 221.297444 7.419677 
L 220.85177 7.431739 
L 220.406096 7.445141 
L 219.960422 7.459883 
L 219.514748 7.475966 
L 219.069074 7.493389 
L 218.6234 7.512152 
L 218.177726 7.532256 
L 217.732052 7.553699 
L 217.286377 7.576483 
L 216.840703 7.600607 
L 216.395029 7.626071 
L 215.949355 7.652876 
L 215.503681 7.681021 
L 215.058007 7.710506 
L 214.612333 7.741331 
L 214.166659 7.773496 
L 213.720985 7.807002 
L 213.275311 7.841848 
L 212.829637 7.878034 
L 212.383962 7.91556 
L 211.938288 7.954427 
L 211.492614 7.994633 
L 211.04694 8.03618 
L 210.601266 8.079068 
L 210.155592 8.123295 
L 209.709918 8.168863 
L 209.264244 8.215771 
L 208.81857 8.264019 
L 208.372896 8.313607 
L 207.927222 8.364536 
L 207.481547 8.416805 
L 207.035873 8.470414 
L 206.590199 8.525363 
L 206.144525 8.581652 
L 205.698851 8.639282 
L 205.253177 8.698252 
L 204.807503 8.758562 
L 204.361829 8.820212 
L 203.916155 8.883203 
L 203.470481 8.947534 
L 203.024807 9.013205 
L 202.579132 9.080216 
L 202.133458 9.148568 
L 201.687784 9.218259 
L 201.24211 9.289291 
L 200.796436 9.361664 
L 200.350762 9.435376 
L 199.905088 9.510429 
L 199.459414 9.586822 
L 199.01374 9.664555 
L 198.568066 9.743628 
L 198.122392 9.824041 
L 197.676717 9.905795 
L 197.231043 9.988889 
L 196.785369 10.073323 
L 196.339695 10.159098 
L 195.894021 10.246213 
L 195.448347 10.334667 
L 195.002673 10.424463 
L 194.556999 10.515598 
L 194.111325 10.608073 
L 193.665651 10.701889 
L 193.219977 10.797045 
L 192.774302 10.893542 
L 192.328628 10.991378 
L 191.882954 11.090555 
L 191.43728 11.191072 
L 190.991606 11.292929 
L 190.545932 11.396126 
L 190.100258 11.500664 
L 189.654584 11.606542 
L 189.20891 11.71376 
L 188.763236 11.822318 
L 188.317562 11.932216 
z
" style="fill:#0000ff;fill-opacity:0.1;stroke:#0000ff;stroke-opacity:0.1;"/>
    <path clip-path="url(#p603271a9bc)" d="M 359.010739 67.480548 
L 359.010739 98.119452 
L 359.456413 97.717384 
L 359.902087 97.313976 
L 360.347761 96.909228 
L 360.793435 96.50314 
L 361.239109 96.095711 
L 361.684783 95.686943 
L 362.130457 95.276833 
L 362.576131 94.865384 
L 363.021805 94.452595 
L 363.467479 94.038465 
L 363.913154 93.622995 
L 364.358828 93.206185 
L 364.804502 92.788034 
L 365.250176 92.368544 
L 365.69585 91.947713 
L 366.141524 91.525542 
L 366.587198 91.102031 
L 367.032872 90.677179 
L 367.478546 90.250987 
L 367.92422 89.823455 
L 368.369894 89.394583 
L 368.815569 88.964371 
L 369.261243 88.532818 
L 369.706917 88.099925 
L 370.152591 87.665692 
L 370.598265 87.230119 
L 371.043939 86.793205 
L 371.489613 86.354951 
L 371.935287 85.915357 
L 372.380961 85.474423 
L 372.826635 85.032149 
L 373.272309 84.588534 
L 373.717984 84.143579 
L 374.163658 83.697284 
L 374.609332 83.249649 
L 374.609332 82.350351 
L 374.609332 82.350351 
L 374.163658 81.902716 
L 373.717984 81.456421 
L 373.272309 81.011466 
L 372.826635 80.567851 
L 372.380961 80.125577 
L 371.935287 79.684643 
L 371.489613 79.245049 
L 371.043939 78.806795 
L 370.598265 78.369881 
L 370.152591 77.934308 
L 369.706917 77.500075 
L 369.261243 77.067182 
L 368.815569 76.635629 
L 368.369894 76.205417 
L 367.92422 75.776545 
L 367.478546 75.349013 
L 367.032872 74.922821 
L 366.587198 74.497969 
L 366.141524 74.074458 
L 365.69585 73.652287 
L 365.250176 73.231456 
L 364.804502 72.811966 
L 364.358828 72.393815 
L 363.913154 71.977005 
L 363.467479 71.561535 
L 363.021805 71.147405 
L 362.576131 70.734616 
L 362.130457 70.323167 
L 361.684783 69.913057 
L 361.239109 69.504289 
L 360.793435 69.09686 
L 360.347761 68.690772 
L 359.902087 68.286024 
L 359.456413 67.882616 
L 359.010739 67.480548 
z
" style="fill:#0000ff;fill-opacity:0.1;stroke:#0000ff;stroke-opacity:0.1;"/>
   </g>
   <g id="matplotlib.axis_1">
    <g id="xtick_1">
     <g id="line2d_1">
      <defs>
       <path d="M 0 0 
L 0 3.5 
" id="m72ddf136f7" style="stroke:#000000;stroke-width:0.8;"/>
      </defs>
      <g>
       <use style="stroke:#000000;stroke-width:0.8;" x="69.099742" xlink:href="#m72ddf136f7" y="162"/>
      </g>
     </g>
     <g id="text_1">
      <!-- 1960 -->
      <g transform="translate(56.374742 176.598438)scale(0.1 -0.1)">
       <defs>
        <path d="M 794 531 
L 1825 531 
L 1825 4091 
L 703 3866 
L 703 4441 
L 1819 4666 
L 2450 4666 
L 2450 531 
L 3481 531 
L 3481 0 
L 794 0 
L 794 531 
z
" id="DejaVuSans-31" transform="scale(0.015625)"/>
        <path d="M 703 97 
L 703 672 
Q 941 559 1184 500 
Q 1428 441 1663 441 
Q 2288 441 2617 861 
Q 2947 1281 2994 2138 
Q 2813 1869 2534 1725 
Q 2256 1581 1919 1581 
Q 1219 1581 811 2004 
Q 403 2428 403 3163 
Q 403 3881 828 4315 
Q 1253 4750 1959 4750 
Q 2769 4750 3195 4129 
Q 3622 3509 3622 2328 
Q 3622 1225 3098 567 
Q 2575 -91 1691 -91 
Q 1453 -91 1209 -44 
Q 966 3 703 97 
z
M 1959 2075 
Q 2384 2075 2632 2365 
Q 2881 2656 2881 3163 
Q 2881 3666 2632 3958 
Q 2384 4250 1959 4250 
Q 1534 4250 1286 3958 
Q 1038 3666 1038 3163 
Q 1038 2656 1286 2365 
Q 1534 2075 1959 2075 
z
" id="DejaVuSans-39" transform="scale(0.015625)"/>
        <path d="M 2113 2584 
Q 1688 2584 1439 2293 
Q 1191 2003 1191 1497 
Q 1191 994 1439 701 
Q 1688 409 2113 409 
Q 2538 409 2786 701 
Q 3034 994 3034 1497 
Q 3034 2003 2786 2293 
Q 2538 2584 2113 2584 
z
M 3366 4563 
L 3366 3988 
Q 3128 4100 2886 4159 
Q 2644 4219 2406 4219 
Q 1781 4219 1451 3797 
Q 1122 3375 1075 2522 
Q 1259 2794 1537 2939 
Q 1816 3084 2150 3084 
Q 2853 3084 3261 2657 
Q 3669 2231 3669 1497 
Q 3669 778 3244 343 
Q 2819 -91 2113 -91 
Q 1303 -91 875 529 
Q 447 1150 447 2328 
Q 447 3434 972 4092 
Q 1497 4750 2381 4750 
Q 2619 4750 2861 4703 
Q 3103 4656 3366 4563 
z
" id="DejaVuSans-36" transform="scale(0.015625)"/>
        <path d="M 2034 4250 
Q 1547 4250 1301 3770 
Q 1056 3291 1056 2328 
Q 1056 1369 1301 889 
Q 1547 409 2034 409 
Q 2525 409 2770 889 
Q 3016 1369 3016 2328 
Q 3016 3291 2770 3770 
Q 2525 4250 2034 4250 
z
M 2034 4750 
Q 2819 4750 3233 4129 
Q 3647 3509 3647 2328 
Q 3647 1150 3233 529 
Q 2819 -91 2034 -91 
Q 1250 -91 836 529 
Q 422 1150 422 2328 
Q 422 3509 836 4129 
Q 1250 4750 2034 4750 
z
" id="DejaVuSans-30" transform="scale(0.015625)"/>
       </defs>
       <use xlink:href="#DejaVuSans-31"/>
       <use x="63.623047" xlink:href="#DejaVuSans-39"/>
       <use x="127.246094" xlink:href="#DejaVuSans-36"/>
       <use x="190.869141" xlink:href="#DejaVuSans-30"/>
      </g>
     </g>
    </g>
    <g id="xtick_2">
     <g id="line2d_2">
      <g>
       <use style="stroke:#000000;stroke-width:0.8;" x="122.580633" xlink:href="#m72ddf136f7" y="162"/>
      </g>
     </g>
     <g id="text_2">
      <!-- 1970 -->
      <g transform="translate(109.855633 176.598438)scale(0.1 -0.1)">
       <defs>
        <path d="M 525 4666 
L 3525 4666 
L 3525 4397 
L 1831 0 
L 1172 0 
L 2766 4134 
L 525 4134 
L 525 4666 
z
" id="DejaVuSans-37" transform="scale(0.015625)"/>
       </defs>
       <use xlink:href="#DejaVuSans-31"/>
       <use x="63.623047" xlink:href="#DejaVuSans-39"/>
       <use x="127.246094" xlink:href="#DejaVuSans-37"/>
       <use x="190.869141" xlink:href="#DejaVuSans-30"/>
      </g>
     </g>
    </g>
    <g id="xtick_3">
     <g id="line2d_3">
      <g>
       <use style="stroke:#000000;stroke-width:0.8;" x="176.061524" xlink:href="#m72ddf136f7" y="162"/>
      </g>
     </g>
     <g id="text_3">
      <!-- 1980 -->
      <g transform="translate(163.336524 176.598438)scale(0.1 -0.1)">
       <defs>
        <path d="M 2034 2216 
Q 1584 2216 1326 1975 
Q 1069 1734 1069 1313 
Q 1069 891 1326 650 
Q 1584 409 2034 409 
Q 2484 409 2743 651 
Q 3003 894 3003 1313 
Q 3003 1734 2745 1975 
Q 2488 2216 2034 2216 
z
M 1403 2484 
Q 997 2584 770 2862 
Q 544 3141 544 3541 
Q 544 4100 942 4425 
Q 1341 4750 2034 4750 
Q 2731 4750 3128 4425 
Q 3525 4100 3525 3541 
Q 3525 3141 3298 2862 
Q 3072 2584 2669 2484 
Q 3125 2378 3379 2068 
Q 3634 1759 3634 1313 
Q 3634 634 3220 271 
Q 2806 -91 2034 -91 
Q 1263 -91 848 271 
Q 434 634 434 1313 
Q 434 1759 690 2068 
Q 947 2378 1403 2484 
z
M 1172 3481 
Q 1172 3119 1398 2916 
Q 1625 2713 2034 2713 
Q 2441 2713 2670 2916 
Q 2900 3119 2900 3481 
Q 2900 3844 2670 4047 
Q 2441 4250 2034 4250 
Q 1625 4250 1398 4047 
Q 1172 3844 1172 3481 
z
" id="DejaVuSans-38" transform="scale(0.015625)"/>
       </defs>
       <use xlink:href="#DejaVuSans-31"/>
       <use x="63.623047" xlink:href="#DejaVuSans-39"/>
       <use x="127.246094" xlink:href="#DejaVuSans-38"/>
       <use x="190.869141" xlink:href="#DejaVuSans-30"/>
      </g>
     </g>
    </g>
    <g id="xtick_4">
     <g id="line2d_4">
      <g>
       <use style="stroke:#000000;stroke-width:0.8;" x="229.542415" xlink:href="#m72ddf136f7" y="162"/>
      </g>
     </g>
     <g id="text_4">
      <!-- 1990 -->
      <g transform="translate(216.817415 176.598438)scale(0.1 -0.1)">
       <use xlink:href="#DejaVuSans-31"/>
       <use x="63.623047" xlink:href="#DejaVuSans-39"/>
       <use x="127.246094" xlink:href="#DejaVuSans-39"/>
       <use x="190.869141" xlink:href="#DejaVuSans-30"/>
      </g>
     </g>
    </g>
    <g id="xtick_5">
     <g id="line2d_5">
      <g>
       <use style="stroke:#000000;stroke-width:0.8;" x="283.023306" xlink:href="#m72ddf136f7" y="162"/>
      </g>
     </g>
     <g id="text_5">
      <!-- 2000 -->
      <g transform="translate(270.298306 176.598438)scale(0.1 -0.1)">
       <defs>
        <path d="M 1228 531 
L 3431 531 
L 3431 0 
L 469 0 
L 469 531 
Q 828 903 1448 1529 
Q 2069 2156 2228 2338 
Q 2531 2678 2651 2914 
Q 2772 3150 2772 3378 
Q 2772 3750 2511 3984 
Q 2250 4219 1831 4219 
Q 1534 4219 1204 4116 
Q 875 4013 500 3803 
L 500 4441 
Q 881 4594 1212 4672 
Q 1544 4750 1819 4750 
Q 2544 4750 2975 4387 
Q 3406 4025 3406 3419 
Q 3406 3131 3298 2873 
Q 3191 2616 2906 2266 
Q 2828 2175 2409 1742 
Q 1991 1309 1228 531 
z
" id="DejaVuSans-32" transform="scale(0.015625)"/>
       </defs>
       <use xlink:href="#DejaVuSans-32"/>
       <use x="63.623047" xlink:href="#DejaVuSans-30"/>
       <use x="127.246094" xlink:href="#DejaVuSans-30"/>
       <use x="190.869141" xlink:href="#DejaVuSans-30"/>
      </g>
     </g>
    </g>
    <g id="xtick_6">
     <g id="line2d_6">
      <g>
       <use style="stroke:#000000;stroke-width:0.8;" x="336.504197" xlink:href="#m72ddf136f7" y="162"/>
      </g>
     </g>
     <g id="text_6">
      <!-- 2010 -->
      <g transform="translate(323.779197 176.598438)scale(0.1 -0.1)">
       <use xlink:href="#DejaVuSans-32"/>
       <use x="63.623047" xlink:href="#DejaVuSans-30"/>
       <use x="127.246094" xlink:href="#DejaVuSans-31"/>
       <use x="190.869141" xlink:href="#DejaVuSans-30"/>
      </g>
     </g>
    </g>
    <g id="xtick_7">
     <g id="line2d_7">
      <g>
       <use style="stroke:#000000;stroke-width:0.8;" x="389.985088" xlink:href="#m72ddf136f7" y="162"/>
      </g>
     </g>
     <g id="text_7">
      <!-- 2020 -->
      <g transform="translate(377.260088 176.598438)scale(0.1 -0.1)">
       <use xlink:href="#DejaVuSans-32"/>
       <use x="63.623047" xlink:href="#DejaVuSans-30"/>
       <use x="127.246094" xlink:href="#DejaVuSans-32"/>
       <use x="190.869141" xlink:href="#DejaVuSans-30"/>
      </g>
     </g>
    </g>
   </g>
   <g id="matplotlib.axis_2">
    <g id="ytick_1">
     <g id="line2d_8">
      <defs>
       <path d="M 0 0 
L -3.5 0 
" id="m31e1bb1687" style="stroke:#000000;stroke-width:0.8;"/>
      </defs>
      <g>
       <use style="stroke:#000000;stroke-width:0.8;" x="34.56" xlink:href="#m31e1bb1687" y="151.00682"/>
      </g>
     </g>
     <g id="text_8">
      <!-- −75 -->
      <g transform="translate(6.455313 154.806038)scale(0.1 -0.1)">
       <defs>
        <path d="M 678 2272 
L 4684 2272 
L 4684 1741 
L 678 1741 
L 678 2272 
z
" id="DejaVuSans-2212" transform="scale(0.015625)"/>
        <path d="M 691 4666 
L 3169 4666 
L 3169 4134 
L 1269 4134 
L 1269 2991 
Q 1406 3038 1543 3061 
Q 1681 3084 1819 3084 
Q 2600 3084 3056 2656 
Q 3513 2228 3513 1497 
Q 3513 744 3044 326 
Q 2575 -91 1722 -91 
Q 1428 -91 1123 -41 
Q 819 9 494 109 
L 494 744 
Q 775 591 1075 516 
Q 1375 441 1709 441 
Q 2250 441 2565 725 
Q 2881 1009 2881 1497 
Q 2881 1984 2565 2268 
Q 2250 2553 1709 2553 
Q 1456 2553 1204 2497 
Q 953 2441 691 2322 
L 691 4666 
z
" id="DejaVuSans-35" transform="scale(0.015625)"/>
       </defs>
       <use xlink:href="#DejaVuSans-2212"/>
       <use x="83.789062" xlink:href="#DejaVuSans-37"/>
       <use x="147.412109" xlink:href="#DejaVuSans-35"/>
      </g>
     </g>
    </g>
    <g id="ytick_2">
     <g id="line2d_9">
      <g>
       <use style="stroke:#000000;stroke-width:0.8;" x="34.56" xlink:href="#m31e1bb1687" y="128.271213"/>
      </g>
     </g>
     <g id="text_9">
      <!-- −50 -->
      <g transform="translate(6.455313 132.070432)scale(0.1 -0.1)">
       <use xlink:href="#DejaVuSans-2212"/>
       <use x="83.789062" xlink:href="#DejaVuSans-35"/>
       <use x="147.412109" xlink:href="#DejaVuSans-30"/>
      </g>
     </g>
    </g>
    <g id="ytick_3">
     <g id="line2d_10">
      <g>
       <use style="stroke:#000000;stroke-width:0.8;" x="34.56" xlink:href="#m31e1bb1687" y="105.535607"/>
      </g>
     </g>
     <g id="text_10">
      <!-- −25 -->
      <g transform="translate(6.455313 109.334825)scale(0.1 -0.1)">
       <use xlink:href="#DejaVuSans-2212"/>
       <use x="83.789062" xlink:href="#DejaVuSans-32"/>
       <use x="147.412109" xlink:href="#DejaVuSans-35"/>
      </g>
     </g>
    </g>
    <g id="ytick_4">
     <g id="line2d_11">
      <g>
       <use style="stroke:#000000;stroke-width:0.8;" x="34.56" xlink:href="#m31e1bb1687" y="82.8"/>
      </g>
     </g>
     <g id="text_11">
      <!-- 0 -->
      <g transform="translate(21.1975 86.599219)scale(0.1 -0.1)">
       <use xlink:href="#DejaVuSans-30"/>
      </g>
     </g>
    </g>
    <g id="ytick_5">
     <g id="line2d_12">
      <g>
       <use style="stroke:#000000;stroke-width:0.8;" x="34.56" xlink:href="#m31e1bb1687" y="60.064393"/>
      </g>
     </g>
     <g id="text_12">
      <!-- 25 -->
      <g transform="translate(14.835 63.863612)scale(0.1 -0.1)">
       <use xlink:href="#DejaVuSans-32"/>
       <use x="63.623047" xlink:href="#DejaVuSans-35"/>
      </g>
     </g>
    </g>
    <g id="ytick_6">
     <g id="line2d_13">
      <g>
       <use style="stroke:#000000;stroke-width:0.8;" x="34.56" xlink:href="#m31e1bb1687" y="37.328787"/>
      </g>
     </g>
     <g id="text_13">
      <!-- 50 -->
      <g transform="translate(14.835 41.128006)scale(0.1 -0.1)">
       <use xlink:href="#DejaVuSans-35"/>
       <use x="63.623047" xlink:href="#DejaVuSans-30"/>
      </g>
     </g>
    </g>
    <g id="ytick_7">
     <g id="line2d_14">
      <g>
       <use style="stroke:#000000;stroke-width:0.8;" x="34.56" xlink:href="#m31e1bb1687" y="14.59318"/>
      </g>
     </g>
     <g id="text_14">
      <!-- 75 -->
      <g transform="translate(14.835 18.392399)scale(0.1 -0.1)">
       <use xlink:href="#DejaVuSans-37"/>
       <use x="63.623047" xlink:href="#DejaVuSans-35"/>
      </g>
     </g>
    </g>
   </g>
   <g id="line2d_15">
    <path clip-path="url(#p603271a9bc)" d="M 74.670668 82.753617 
L 75.116342 82.736773 
L 75.562016 83.027308 
L 77.344713 83.023381 
L 77.790387 82.983965 
L 78.236061 82.822424 
L 79.573083 83.378746 
L 81.35578 83.455652 
L 83.138476 83.214966 
L 85.366846 83.602932 
L 85.812521 84.242816 
L 86.258195 84.515608 
L 86.703869 84.993016 
L 87.149543 85.068256 
L 88.040891 85.419661 
L 88.486565 85.306037 
L 88.932239 85.3577 
L 89.377913 85.703234 
L 89.823587 85.781737 
L 90.714936 86.242713 
L 91.16061 86.484657 
L 91.606284 86.458728 
L 93.38898 87.300169 
L 94.726002 88.496199 
L 96.508699 88.267813 
L 97.400047 89.014761 
L 97.845721 88.976195 
L 98.291395 89.07539 
L 98.737069 88.861599 
L 99.182743 89.097182 
L 99.628417 89.521096 
L 100.074091 90.139556 
L 100.519766 90.262497 
L 100.96544 90.122929 
L 101.411114 90.180826 
L 102.748136 89.969015 
L 103.19381 90.366899 
L 103.639484 90.553619 
L 104.530832 90.532777 
L 105.867855 90.949145 
L 106.759203 90.978747 
L 107.204877 91.056991 
L 107.650551 90.945422 
L 108.096225 91.021895 
L 110.324596 92.242636 
L 110.77027 92.117397 
L 111.215944 92.277042 
L 111.661618 92.177037 
L 112.99864 92.45722 
L 113.444314 92.861628 
L 113.889988 92.891049 
L 114.781336 93.205036 
L 115.672685 93.149283 
L 117.009707 93.157763 
L 118.346729 92.959029 
L 118.792403 93.184805 
L 119.238077 93.218691 
L 120.129426 93.506523 
L 120.5751 93.508738 
L 121.466448 94.37132 
L 121.912122 94.317139 
L 123.249144 94.513105 
L 123.694818 94.496979 
L 124.140492 94.35145 
L 124.586166 94.483538 
L 125.031841 94.737009 
L 125.477515 94.78591 
L 125.923189 95.306061 
L 126.368863 95.524636 
L 129.042907 95.94994 
L 129.934256 96.791197 
L 130.37993 96.914321 
L 130.825604 97.599442 
L 131.271278 97.968451 
L 132.162626 98.989013 
L 132.6083 99.143532 
L 133.499648 99.14689 
L 133.945322 99.253015 
L 134.390996 100.094116 
L 134.836671 100.098097 
L 135.282345 100.427418 
L 135.728019 100.899982 
L 137.065041 101.450732 
L 137.510715 102.29615 
L 137.956389 102.303082 
L 138.402063 102.74406 
L 139.293411 102.980686 
L 139.739086 103.579134 
L 140.630434 104.094347 
L 141.967456 105.29552 
L 142.858804 105.800184 
L 143.750152 106.277934 
L 144.195826 106.165864 
L 145.087175 106.293703 
L 145.978523 106.798817 
L 146.424197 107.029912 
L 146.869871 107.071821 
L 147.315545 107.501607 
L 147.761219 107.643355 
L 149.098242 107.470081 
L 149.543916 107.404416 
L 150.435264 108.113941 
L 150.880938 108.115901 
L 151.772286 108.559936 
L 152.21796 108.580128 
L 153.109308 109.633077 
L 154.446331 110.077668 
L 154.892005 109.917146 
L 156.229027 110.788041 
L 157.120375 111.922376 
L 157.566049 112.066726 
L 158.457397 112.531948 
L 158.903072 112.771833 
L 160.240094 112.988605 
L 160.685768 112.917207 
L 161.131442 113.11061 
L 161.577116 113.180826 
L 162.468464 113.580803 
L 163.805487 113.925987 
L 164.251161 114.22445 
L 165.142509 114.267087 
L 165.588183 114.468057 
L 166.033857 114.800825 
L 166.479531 114.8135 
L 168.262227 116.264924 
L 168.707902 116.326473 
L 169.153576 116.233751 
L 169.59925 116.498833 
L 170.936272 116.860281 
L 171.381946 116.988669 
L 172.273294 117.017574 
L 172.718968 116.989055 
L 173.164642 117.210192 
L 174.055991 117.39638 
L 175.393013 117.97495 
L 175.838687 117.871898 
L 178.067057 118.631372 
L 178.512732 118.794281 
L 179.40408 118.756843 
L 179.849754 119.244953 
L 180.295428 119.283607 
L 180.741102 119.090976 
L 181.63245 119.045832 
L 182.078124 119.217621 
L 182.523798 119.064833 
L 182.969472 119.05257 
L 183.415147 119.425177 
L 183.860821 119.482355 
L 184.306495 119.706535 
L 184.752169 119.770721 
L 185.197843 120.231179 
L 186.089191 120.187285 
L 186.534865 120.281421 
M 188.317562 119.903282 
L 189.654584 119.323011 
L 191.43728 119.261894 
L 196.339695 118.031055 
L 196.785369 118.187478 
L 197.231043 118.041876 
L 197.676717 118.055546 
L 199.01374 117.678942 
L 200.350762 116.900303 
L 200.796436 116.954805 
L 202.133458 116.783103 
L 203.024807 116.752342 
L 205.253177 115.974561 
L 205.698851 116.082342 
L 207.035873 115.50136 
L 207.927222 115.364006 
L 208.81857 115.129152 
L 210.601266 114.475665 
L 211.938288 113.694317 
L 213.275311 113.712582 
L 214.166659 113.796415 
L 214.612333 113.775157 
L 215.949355 112.924119 
L 217.732052 111.687516 
L 218.6234 111.572227 
L 219.069074 111.650872 
L 220.85177 111.067241 
L 221.297444 110.786573 
L 221.743118 110.699168 
L 222.634467 110.321629 
L 223.971489 110.1045 
L 224.862837 110.350652 
L 225.308511 110.331 
L 225.754185 110.094634 
L 226.645533 110.442917 
L 227.536882 110.451494 
L 227.982556 110.299694 
L 228.42823 110.346525 
L 228.873904 110.606776 
L 229.319578 110.737834 
L 230.210926 110.742198 
L 231.102274 110.790333 
L 233.330645 110.220113 
L 233.776319 110.28639 
L 234.667667 110.157931 
L 235.559015 110.517762 
L 236.004689 110.779246 
L 236.450363 110.799153 
L 237.341712 110.334428 
L 237.787386 110.314092 
L 238.23306 110.05868 
L 239.124408 109.927119 
L 240.015756 109.650945 
L 240.907104 109.524461 
L 243.581149 108.200012 
L 244.918171 107.879421 
L 246.255193 107.802837 
L 247.592216 107.566733 
L 248.03789 107.372502 
L 249.820586 105.937222 
L 250.26626 105.718693 
L 252.048957 105.455231 
L 252.494631 105.2406 
L 253.385979 104.443187 
L 253.831653 104.366488 
L 255.168675 102.918412 
L 255.614349 102.828323 
L 256.060023 102.527189 
L 256.505698 102.069143 
L 257.397046 101.443793 
L 258.288394 100.42262 
L 259.625416 99.561225 
L 260.07109 99.393095 
L 260.516764 99.360333 
L 260.962438 99.211069 
L 262.299461 99.198748 
L 262.745135 98.581897 
L 263.190809 98.452189 
L 264.527831 97.171891 
L 264.973505 96.889768 
L 266.310528 95.59889 
L 266.756202 95.669633 
L 267.64755 95.22799 
L 268.093224 95.014158 
L 270.321594 91.965693 
L 271.212943 90.955982 
L 271.658617 90.711691 
L 272.995639 90.331885 
L 274.332661 88.959724 
L 274.778335 88.660217 
L 275.669683 87.618924 
L 278.789402 83.358197 
L 279.68075 81.782339 
L 280.126424 81.243575 
L 280.572098 80.367944 
L 281.017773 79.845943 
L 282.354795 77.501287 
L 282.800469 77.124573 
L 283.246143 77.127937 
L 285.028839 76.578516 
L 285.474513 76.461313 
L 285.920188 76.559118 
L 286.365862 76.374613 
L 286.811536 76.495432 
L 287.702884 75.99257 
L 288.148558 75.997202 
L 289.48558 74.972747 
L 290.376928 74.156901 
L 290.822603 73.689904 
L 291.268277 73.386375 
L 291.713951 73.453871 
L 292.159625 73.302656 
L 292.605299 73.406791 
L 293.050973 73.34587 
L 293.496647 73.029206 
L 293.942321 72.875238 
L 294.833669 72.9633 
L 295.279343 72.817664 
L 295.725018 72.462621 
L 296.170692 71.861671 
L 297.06204 71.20677 
L 298.399062 69.625874 
L 298.844736 69.396475 
L 299.736084 67.668436 
L 301.073107 66.170309 
L 301.518781 65.593659 
L 302.410129 65.088275 
L 303.747151 63.525966 
L 304.638499 62.479415 
L 305.084174 61.946465 
L 305.529848 60.998578 
L 305.975522 60.381888 
L 306.421196 59.454079 
L 307.758218 57.85709 
L 308.649566 56.961734 
L 309.986589 57.352558 
L 310.432263 57.414126 
L 310.877937 57.674612 
L 312.660633 59.329526 
L 313.106307 59.592764 
L 314.443329 60.794823 
L 314.889004 60.916229 
L 315.334678 61.168556 
L 316.226026 61.396219 
L 316.6717 61.679665 
L 317.563048 62.612223 
L 318.008722 63.275566 
L 318.454396 63.320298 
L 319.345744 64.004077 
L 320.682767 64.496137 
L 321.128441 64.663725 
L 321.574115 64.950484 
L 322.019789 65.375933 
L 322.911137 65.712024 
L 323.802485 65.934845 
L 325.585182 65.788358 
L 327.367878 66.294041 
L 328.259226 66.859875 
L 329.150574 66.850204 
L 329.596249 66.704194 
L 330.041923 66.717149 
L 332.270293 67.521969 
L 333.161641 68.265705 
L 333.607315 68.478295 
L 334.498664 69.17396 
L 336.28136 69.444018 
L 338.064056 70.378645 
L 338.50973 70.417289 
L 338.955404 70.574885 
L 339.401079 70.981379 
L 340.738101 71.267919 
L 341.629449 71.591813 
L 342.966471 71.633401 
L 344.749168 72.07504 
L 345.194842 72.157668 
L 346.531864 72.754173 
L 347.423212 72.869727 
L 349.651583 73.414224 
L 350.988605 74.115793 
L 351.434279 74.149351 
L 352.771301 74.729077 
L 353.662649 74.902746 
L 356.336694 75.302379 
L 357.228042 75.324298 
L 358.11939 75.51564 
M 359.010739 75.735578 
L 360.347761 76.234948 
L 363.021805 77.440934 
L 363.467479 77.658795 
L 363.913154 77.746979 
L 366.587198 79.369287 
L 367.478546 79.484686 
L 369.706917 80.270905 
L 370.152591 80.498394 
L 370.598265 80.886868 
L 371.489613 81.355294 
L 371.935287 81.537818 
L 372.380961 81.923995 
L 372.826635 82.031766 
L 373.272309 81.99313 
L 373.717984 82.084041 
L 374.163658 82.574846 
L 374.609332 82.8 
L 374.609332 82.8 
" style="fill:none;stroke:#1f77b4;stroke-linecap:square;stroke-width:1.5;"/>
   </g>
   <g id="line2d_16">
    <path clip-path="url(#p603271a9bc)" d="M 34.56 82.8 
L 414.72 82.8 
" style="fill:none;stroke:#000000;stroke-dasharray:1.5,2.475;stroke-dashoffset:0;stroke-width:1.5;"/>
   </g>
   <g id="patch_3">
    <path d="M 34.56 162 
L 34.56 3.6 
" style="fill:none;stroke:#000000;stroke-linecap:square;stroke-linejoin:miter;stroke-width:0.8;"/>
   </g>
   <g id="patch_4">
    <path d="M 414.72 162 
L 414.72 3.6 
" style="fill:none;stroke:#000000;stroke-linecap:square;stroke-linejoin:miter;stroke-width:0.8;"/>
   </g>
   <g id="patch_5">
    <path d="M 34.56 162 
L 414.72 162 
" style="fill:none;stroke:#000000;stroke-linecap:square;stroke-linejoin:miter;stroke-width:0.8;"/>
   </g>
   <g id="patch_6">
    <path d="M 34.56 3.6 
L 414.72 3.6 
" style="fill:none;stroke:#000000;stroke-linecap:square;stroke-linejoin:miter;stroke-width:0.8;"/>
   </g>
  </g>
 </g>
 <defs>
  <clipPath id="p603271a9bc">
   <rect height="158.4" width="380.16" x="34.56" y="3.6"/>
  </clipPath>
 </defs>
</svg>
