<?xml version="1.0" encoding="utf-8" standalone="no"?>
<!DOCTYPE svg PUBLIC "-//W3C//DTD SVG 1.1//EN"
  "http://www.w3.org/Graphics/SVG/1.1/DTD/svg11.dtd">
<svg height="180pt" version="1.1" viewBox="0 0 432 180" width="432pt" xmlns="http://www.w3.org/2000/svg" xmlns:xlink="http://www.w3.org/1999/xlink">
 <metadata>
  <rdf:RDF xmlns:cc="http://creativecommons.org/ns#" xmlns:dc="http://purl.org/dc/elements/1.1/" xmlns:rdf="http://www.w3.org/1999/02/22-rdf-syntax-ns#">
   <cc:Work>
    <dc:type rdf:resource="http://purl.org/dc/dcmitype/StillImage"/>
    <dc:date>2021-08-10T10:27:40.007236</dc:date>
    <dc:format>image/svg+xml</dc:format>
    <dc:creator>
     <cc:Agent>
      <dc:title>Matplotlib v3.4.2, https://matplotlib.org/</dc:title>
     </cc:Agent>
    </dc:creator>
   </cc:Work>
  </rdf:RDF>
 </metadata>
 <defs>
  <style type="text/css">*{stroke-linecap:butt;stroke-linejoin:round;}</style>
 </defs>
 <g id="figure_1">
  <g id="patch_1">
   <path d="M 0 180 
L 432 180 
L 432 0 
L 0 0 
z
" style="fill:#ffffff;"/>
  </g>
  <g id="axes_1">
   <g id="patch_2">
    <path d="M 34.56 162 
L 414.72 162 
L 414.72 3.6 
L 34.56 3.6 
z
" style="fill:#ffffff;"/>
   </g>
   <g id="PolyCollection_1">
    <path clip-path="url(#p8db18bf29d)" d="M 62.789703 82.476619 
L 62.789703 83.123381 
L 63.103366 83.445721 
L 63.41703 83.767367 
L 63.730693 84.088321 
L 64.044356 84.408581 
L 64.35802 84.728148 
L 64.671683 85.047022 
L 64.985347 85.365203 
L 65.29901 85.68269 
L 65.612673 85.999484 
L 65.926337 86.315585 
L 66.24 86.630993 
L 66.553663 86.945708 
L 66.867327 87.259729 
L 67.18099 87.573057 
L 67.494653 87.885692 
L 67.808317 88.197634 
L 68.12198 88.508883 
L 68.435644 88.819438 
L 68.749307 89.129301 
L 69.06297 89.43847 
L 69.376634 89.746945 
L 69.690297 90.054728 
L 70.00396 90.361817 
L 70.317624 90.668213 
L 70.631287 90.973916 
L 70.94495 91.278926 
L 71.258614 91.583243 
L 71.572277 91.886866 
L 71.885941 92.189796 
L 72.199604 92.492033 
L 72.513267 92.793577 
L 72.826931 93.094428 
L 73.140594 93.394585 
L 73.454257 93.694049 
L 73.767921 93.99282 
L 74.081584 94.290898 
L 74.395248 94.588282 
L 74.708911 94.884974 
L 75.022574 95.180972 
L 75.336238 95.476277 
L 75.649901 95.770888 
L 75.963564 96.064807 
L 76.277228 96.358032 
L 76.590891 96.650564 
L 76.904554 96.942403 
L 77.218218 97.233549 
L 77.531881 97.524001 
L 77.845545 97.813761 
L 78.159208 98.102827 
L 78.472871 98.3912 
L 78.786535 98.678879 
L 79.100198 98.965866 
L 79.413861 99.252159 
L 79.727525 99.537759 
L 80.041188 99.822666 
L 80.354851 100.10688 
L 80.668515 100.3904 
L 80.982178 100.673227 
L 81.295842 100.955361 
L 81.609505 101.236802 
L 81.923168 101.51755 
L 82.236832 101.797604 
L 82.550495 102.076965 
L 82.864158 102.355633 
L 83.177822 102.633608 
L 83.491485 102.91089 
L 83.805149 103.187478 
L 84.118812 103.463373 
L 84.432475 103.738575 
L 84.746139 104.013084 
L 85.059802 104.2869 
L 85.373465 104.560022 
L 85.373465 61.039978 
L 85.373465 61.039978 
L 85.059802 61.3131 
L 84.746139 61.586916 
L 84.432475 61.861425 
L 84.118812 62.136627 
L 83.805149 62.412522 
L 83.491485 62.68911 
L 83.177822 62.966392 
L 82.864158 63.244367 
L 82.550495 63.523035 
L 82.236832 63.802396 
L 81.923168 64.08245 
L 81.609505 64.363198 
L 81.295842 64.644639 
L 80.982178 64.926773 
L 80.668515 65.2096 
L 80.354851 65.49312 
L 80.041188 65.777334 
L 79.727525 66.062241 
L 79.413861 66.347841 
L 79.100198 66.634134 
L 78.786535 66.921121 
L 78.472871 67.2088 
L 78.159208 67.497173 
L 77.845545 67.786239 
L 77.531881 68.075999 
L 77.218218 68.366451 
L 76.904554 68.657597 
L 76.590891 68.949436 
L 76.277228 69.241968 
L 75.963564 69.535193 
L 75.649901 69.829112 
L 75.336238 70.123723 
L 75.022574 70.419028 
L 74.708911 70.715026 
L 74.395248 71.011718 
L 74.081584 71.309102 
L 73.767921 71.60718 
L 73.454257 71.905951 
L 73.140594 72.205415 
L 72.826931 72.505572 
L 72.513267 72.806423 
L 72.199604 73.107967 
L 71.885941 73.410204 
L 71.572277 73.713134 
L 71.258614 74.016757 
L 70.94495 74.321074 
L 70.631287 74.626084 
L 70.317624 74.931787 
L 70.00396 75.238183 
L 69.690297 75.545272 
L 69.376634 75.853055 
L 69.06297 76.16153 
L 68.749307 76.470699 
L 68.435644 76.780562 
L 68.12198 77.091117 
L 67.808317 77.402366 
L 67.494653 77.714308 
L 67.18099 78.026943 
L 66.867327 78.340271 
L 66.553663 78.654292 
L 66.24 78.969007 
L 65.926337 79.284415 
L 65.612673 79.600516 
L 65.29901 79.91731 
L 64.985347 80.234797 
L 64.671683 80.552978 
L 64.35802 80.871852 
L 64.044356 81.191419 
L 63.730693 81.511679 
L 63.41703 81.832633 
L 63.103366 82.154279 
L 62.789703 82.476619 
z
" style="fill:#0000ff;fill-opacity:0.1;stroke:#0000ff;stroke-opacity:0.1;"/>
    <path clip-path="url(#p8db18bf29d)" d="M 88.510099 60.767549 
L 88.510099 104.832451 
L 88.823762 105.104187 
L 89.137426 105.37523 
L 89.451089 105.64558 
L 89.764752 105.915236 
L 90.078416 106.184199 
L 90.392079 106.452469 
L 90.705743 106.720046 
L 91.019406 106.98693 
L 91.333069 107.25312 
L 91.646733 107.518617 
L 91.960396 107.783421 
L 92.274059 108.047532 
L 92.587723 108.310949 
L 92.901386 108.573674 
L 93.21505 108.835705 
L 93.528713 109.097043 
L 93.842376 109.357687 
L 94.15604 109.617639 
L 94.469703 109.876897 
L 94.783366 110.135462 
L 95.09703 110.393334 
L 95.410693 110.650513 
L 95.724356 110.906998 
L 96.03802 111.162791 
L 96.351683 111.41789 
L 96.665347 111.672296 
L 96.97901 111.926008 
L 97.292673 112.179028 
L 97.606337 112.431354 
L 97.92 112.682987 
L 98.233663 112.933927 
L 98.547327 113.184174 
L 98.86099 113.433727 
L 99.174653 113.682587 
L 99.488317 113.930754 
L 99.80198 114.178228 
L 100.115644 114.425009 
L 100.429307 114.671096 
L 100.74297 114.91649 
L 101.056634 115.161191 
L 101.370297 115.405199 
L 101.68396 115.648514 
L 101.997624 115.891135 
L 102.311287 116.133064 
L 102.62495 116.374299 
L 102.938614 116.61484 
L 103.252277 116.854689 
L 103.565941 117.093844 
L 103.879604 117.332306 
L 104.193267 117.570075 
L 104.506931 117.807151 
L 104.820594 118.043534 
L 105.134257 118.279223 
L 105.447921 118.514219 
L 105.761584 118.748522 
L 106.075248 118.982132 
L 106.388911 119.215049 
L 106.702574 119.447272 
L 107.016238 119.678802 
L 107.329901 119.909639 
L 107.643564 120.139783 
L 107.957228 120.369233 
L 108.270891 120.597991 
L 108.584554 120.826055 
L 108.898218 121.053426 
L 109.211881 121.280103 
L 109.525545 121.506088 
L 109.839208 121.731379 
L 110.152871 121.955977 
L 110.466535 122.179882 
L 110.780198 122.403094 
L 111.093861 122.625612 
L 111.407525 122.847438 
L 111.721188 123.06857 
L 112.034851 123.289009 
L 112.348515 123.508754 
L 112.662178 123.727807 
L 112.975842 123.946166 
L 113.289505 124.163832 
L 113.603168 124.380805 
L 113.916832 124.597085 
L 114.230495 124.812671 
L 114.544158 125.027564 
L 114.857822 125.241764 
L 115.171485 125.455271 
L 115.485149 125.668085 
L 115.798812 125.880205 
L 116.112475 126.091633 
L 116.426139 126.302367 
L 116.739802 126.512407 
L 117.053465 126.721755 
L 117.367129 126.930409 
L 117.680792 127.138371 
L 117.994455 127.345639 
L 118.308119 127.552213 
L 118.621782 127.758095 
L 118.935446 127.963283 
L 119.249109 128.167779 
L 119.562772 128.371581 
L 119.876436 128.574689 
L 120.190099 128.777105 
L 120.503762 128.978827 
L 120.817426 129.179857 
L 121.131089 129.380193 
L 121.444752 129.579835 
L 121.758416 129.778785 
L 122.072079 129.977041 
L 122.385743 130.174604 
L 122.699406 130.371474 
L 123.013069 130.567651 
L 123.326733 130.763135 
L 123.640396 130.957925 
L 123.954059 131.152022 
L 124.267723 131.345426 
L 124.581386 131.538137 
L 124.89505 131.730154 
L 125.208713 131.921478 
L 125.522376 132.11211 
L 125.83604 132.302048 
L 126.149703 132.491292 
L 126.463366 132.679844 
L 126.77703 132.867702 
L 127.090693 133.054867 
L 127.404356 133.241339 
L 127.71802 133.427118 
L 128.031683 133.612203 
L 128.345347 133.796595 
L 128.65901 133.980294 
L 128.972673 134.1633 
L 129.286337 134.345613 
L 129.6 134.527232 
L 129.913663 134.708159 
L 130.227327 134.888392 
L 130.54099 135.067932 
L 130.854653 135.246778 
L 131.168317 135.424932 
L 131.48198 135.602392 
L 131.795644 135.779159 
L 132.109307 135.955233 
L 132.42297 136.130613 
L 132.736634 136.305301 
L 133.050297 136.479295 
L 133.36396 136.652596 
L 133.36396 28.947404 
L 133.36396 28.947404 
L 133.050297 29.120705 
L 132.736634 29.294699 
L 132.42297 29.469387 
L 132.109307 29.644767 
L 131.795644 29.820841 
L 131.48198 29.997608 
L 131.168317 30.175068 
L 130.854653 30.353222 
L 130.54099 30.532068 
L 130.227327 30.711608 
L 129.913663 30.891841 
L 129.6 31.072768 
L 129.286337 31.254387 
L 128.972673 31.4367 
L 128.65901 31.619706 
L 128.345347 31.803405 
L 128.031683 31.987797 
L 127.71802 32.172882 
L 127.404356 32.358661 
L 127.090693 32.545133 
L 126.77703 32.732298 
L 126.463366 32.920156 
L 126.149703 33.108708 
L 125.83604 33.297952 
L 125.522376 33.48789 
L 125.208713 33.678522 
L 124.89505 33.869846 
L 124.581386 34.061863 
L 124.267723 34.254574 
L 123.954059 34.447978 
L 123.640396 34.642075 
L 123.326733 34.836865 
L 123.013069 35.032349 
L 122.699406 35.228526 
L 122.385743 35.425396 
L 122.072079 35.622959 
L 121.758416 35.821215 
L 121.444752 36.020165 
L 121.131089 36.219807 
L 120.817426 36.420143 
L 120.503762 36.621173 
L 120.190099 36.822895 
L 119.876436 37.025311 
L 119.562772 37.228419 
L 119.249109 37.432221 
L 118.935446 37.636717 
L 118.621782 37.841905 
L 118.308119 38.047787 
L 117.994455 38.254361 
L 117.680792 38.461629 
L 117.367129 38.669591 
L 117.053465 38.878245 
L 116.739802 39.087593 
L 116.426139 39.297633 
L 116.112475 39.508367 
L 115.798812 39.719795 
L 115.485149 39.931915 
L 115.171485 40.144729 
L 114.857822 40.358236 
L 114.544158 40.572436 
L 114.230495 40.787329 
L 113.916832 41.002915 
L 113.603168 41.219195 
L 113.289505 41.436168 
L 112.975842 41.653834 
L 112.662178 41.872193 
L 112.348515 42.091246 
L 112.034851 42.310991 
L 111.721188 42.53143 
L 111.407525 42.752562 
L 111.093861 42.974388 
L 110.780198 43.196906 
L 110.466535 43.420118 
L 110.152871 43.644023 
L 109.839208 43.868621 
L 109.525545 44.093912 
L 109.211881 44.319897 
L 108.898218 44.546574 
L 108.584554 44.773945 
L 108.270891 45.002009 
L 107.957228 45.230767 
L 107.643564 45.460217 
L 107.329901 45.690361 
L 107.016238 45.921198 
L 106.702574 46.152728 
L 106.388911 46.384951 
L 106.075248 46.617868 
L 105.761584 46.851478 
L 105.447921 47.085781 
L 105.134257 47.320777 
L 104.820594 47.556466 
L 104.506931 47.792849 
L 104.193267 48.029925 
L 103.879604 48.267694 
L 103.565941 48.506156 
L 103.252277 48.745311 
L 102.938614 48.98516 
L 102.62495 49.225701 
L 102.311287 49.466936 
L 101.997624 49.708865 
L 101.68396 49.951486 
L 101.370297 50.194801 
L 101.056634 50.438809 
L 100.74297 50.68351 
L 100.429307 50.928904 
L 100.115644 51.174991 
L 99.80198 51.421772 
L 99.488317 51.669246 
L 99.174653 51.917413 
L 98.86099 52.166273 
L 98.547327 52.415826 
L 98.233663 52.666073 
L 97.92 52.917013 
L 97.606337 53.168646 
L 97.292673 53.420972 
L 96.97901 53.673992 
L 96.665347 53.927704 
L 96.351683 54.18211 
L 96.03802 54.437209 
L 95.724356 54.693002 
L 95.410693 54.949487 
L 95.09703 55.206666 
L 94.783366 55.464538 
L 94.469703 55.723103 
L 94.15604 55.982361 
L 93.842376 56.242313 
L 93.528713 56.502957 
L 93.21505 56.764295 
L 92.901386 57.026326 
L 92.587723 57.289051 
L 92.274059 57.552468 
L 91.960396 57.816579 
L 91.646733 58.081383 
L 91.333069 58.34688 
L 91.019406 58.61307 
L 90.705743 58.879954 
L 90.392079 59.147531 
L 90.078416 59.415801 
L 89.764752 59.684764 
L 89.451089 59.95442 
L 89.137426 60.22477 
L 88.823762 60.495813 
L 88.510099 60.767549 
z
" style="fill:#0000ff;fill-opacity:0.1;stroke:#0000ff;stroke-opacity:0.1;"/>
    <path clip-path="url(#p8db18bf29d)" d="M 162.534653 28.774796 
L 162.534653 136.825204 
L 162.848317 136.997118 
L 163.16198 137.16834 
L 163.475644 137.338868 
L 163.789307 137.508703 
L 164.10297 137.677845 
L 164.416634 137.846293 
L 164.730297 138.014049 
L 165.04396 138.181111 
L 165.357624 138.34748 
L 165.671287 138.513156 
L 165.98495 138.678138 
L 166.298614 138.842428 
L 166.612277 139.006024 
L 166.925941 139.168927 
L 167.239604 139.331136 
L 167.553267 139.492653 
L 167.866931 139.653476 
L 168.180594 139.813606 
L 168.494257 139.973043 
L 168.807921 140.131787 
L 169.121584 140.289838 
L 169.435248 140.447195 
L 169.748911 140.603859 
L 170.062574 140.75983 
L 170.376238 140.915108 
L 170.689901 141.069692 
L 171.003564 141.223583 
L 171.317228 141.376781 
L 171.630891 141.529286 
L 171.944554 141.681098 
L 172.258218 141.832217 
L 172.571881 141.982642 
L 172.885545 142.132374 
L 173.199208 142.281413 
L 173.512871 142.429758 
L 173.826535 142.577411 
L 174.140198 142.72437 
L 174.453861 142.870636 
L 174.767525 143.016209 
L 175.081188 143.161089 
L 175.394851 143.305275 
L 175.708515 143.448768 
L 176.022178 143.591568 
L 176.335842 143.733675 
L 176.649505 143.875089 
L 176.963168 144.015809 
L 177.276832 144.155836 
L 177.590495 144.29517 
L 177.904158 144.433811 
L 178.217822 144.571759 
L 178.531485 144.709013 
L 178.845149 144.845574 
L 179.158812 144.981442 
L 179.472475 145.116617 
L 179.786139 145.251099 
L 180.099802 145.384887 
L 180.413465 145.517982 
L 180.727129 145.650384 
L 181.040792 145.782093 
L 181.354455 145.913109 
L 181.668119 146.043431 
L 181.981782 146.17306 
L 182.295446 146.301996 
L 182.609109 146.430239 
L 182.922772 146.557788 
L 183.236436 146.684645 
L 183.550099 146.810808 
L 183.863762 146.936278 
L 184.177426 147.061055 
L 184.491089 147.185138 
L 184.804752 147.308528 
L 185.118416 147.431225 
L 185.432079 147.553229 
L 185.745743 147.67454 
L 186.059406 147.795158 
L 186.373069 147.915082 
L 186.686733 148.034313 
L 187.000396 148.152851 
L 187.314059 148.270696 
L 187.627723 148.387847 
L 187.941386 148.504305 
L 188.25505 148.62007 
L 188.568713 148.735142 
L 188.882376 148.849521 
L 189.19604 148.963206 
L 189.509703 149.076199 
L 189.823366 149.188498 
L 190.13703 149.300104 
L 190.450693 149.411016 
L 190.764356 149.521236 
L 191.07802 149.630762 
L 191.391683 149.739595 
L 191.705347 149.847735 
L 192.01901 149.955181 
L 192.332673 150.061935 
L 192.646337 150.167995 
L 192.96 150.273362 
L 193.273663 150.378036 
L 193.587327 150.482016 
L 193.90099 150.585304 
L 194.214653 150.687898 
L 194.528317 150.789799 
L 194.84198 150.891007 
L 195.155644 150.991521 
L 195.469307 151.091343 
L 195.78297 151.190471 
L 196.096634 151.288906 
L 196.410297 151.386648 
L 196.72396 151.483696 
L 197.037624 151.580052 
L 197.351287 151.675714 
L 197.66495 151.770683 
L 197.978614 151.864958 
L 198.292277 151.958541 
L 198.605941 152.05143 
L 198.919604 152.143626 
L 199.233267 152.235129 
L 199.546931 152.325939 
L 199.860594 152.416056 
L 200.174257 152.505479 
L 200.487921 152.594209 
L 200.801584 152.682246 
L 201.115248 152.76959 
L 201.428911 152.85624 
L 201.742574 152.942197 
L 202.056238 153.027462 
L 202.369901 153.112032 
L 202.683564 153.19591 
L 202.997228 153.279095 
L 203.310891 153.361586 
L 203.624554 153.443384 
L 203.938218 153.524489 
L 204.251881 153.604901 
L 204.565545 153.684619 
L 204.879208 153.763644 
L 205.192871 153.841976 
L 205.506535 153.919615 
L 205.820198 153.996561 
L 206.133861 154.072813 
L 206.447525 154.148373 
L 206.761188 154.223239 
L 207.074851 154.297411 
L 207.388515 154.370891 
L 207.702178 154.443677 
L 208.015842 154.515771 
L 208.329505 154.587171 
L 208.643168 154.657877 
L 208.956832 154.727891 
L 209.270495 154.797211 
L 209.584158 154.865839 
L 209.897822 154.933773 
L 210.211485 155.001013 
L 210.525149 155.067561 
L 210.838812 155.133415 
L 211.152475 155.198577 
L 211.466139 155.263045 
L 211.779802 155.326819 
L 212.093465 155.389901 
L 212.407129 155.452289 
L 212.720792 155.513984 
L 213.034455 155.574986 
L 213.348119 155.635295 
L 213.661782 155.694911 
L 213.975446 155.753833 
L 214.289109 155.812062 
L 214.602772 155.869598 
L 214.916436 155.926441 
L 215.230099 155.98259 
L 215.543762 156.038047 
L 215.857426 156.09281 
L 216.171089 156.14688 
L 216.484752 156.200256 
L 216.798416 156.25294 
L 217.112079 156.30493 
L 217.425743 156.356227 
L 217.739406 156.406831 
L 218.053069 156.456742 
L 218.366733 156.505959 
L 218.680396 156.554484 
L 218.994059 156.602315 
L 219.307723 156.649453 
L 219.621386 156.695897 
L 219.93505 156.741649 
L 220.248713 156.786707 
L 220.562376 156.831072 
L 220.87604 156.874744 
L 221.189703 156.917723 
L 221.503366 156.960008 
L 221.81703 157.0016 
L 222.130693 157.042499 
L 222.444356 157.082705 
L 222.75802 157.122218 
L 223.071683 157.161037 
L 223.385347 157.199163 
L 223.69901 157.236596 
L 224.012673 157.273336 
L 224.326337 157.309383 
L 224.64 157.344736 
L 224.953663 157.379396 
L 225.267327 157.413363 
L 225.58099 157.446637 
L 225.894653 157.479218 
L 226.208317 157.511105 
L 226.52198 157.542299 
L 226.835644 157.5728 
L 227.149307 157.602608 
L 227.46297 157.631723 
L 227.776634 157.660144 
L 228.090297 157.687872 
L 228.40396 157.714907 
L 228.717624 157.741249 
L 229.031287 157.766898 
L 229.34495 157.791853 
L 229.658614 157.816115 
L 229.972277 157.839684 
L 230.285941 157.86256 
L 230.599604 157.884742 
L 230.913267 157.906232 
L 231.226931 157.927028 
L 231.540594 157.947131 
L 231.854257 157.96654 
L 232.167921 157.985257 
L 232.481584 158.00328 
L 232.795248 158.02061 
L 233.108911 158.037247 
L 233.422574 158.053191 
L 233.736238 158.068441 
L 234.049901 158.082999 
L 234.363564 158.096863 
L 234.677228 158.110034 
L 234.990891 158.122511 
L 235.304554 158.134296 
L 235.618218 158.145387 
L 235.931881 158.155785 
L 236.245545 158.16549 
L 236.559208 158.174502 
L 236.872871 158.18282 
L 237.186535 158.190445 
L 237.500198 158.197377 
L 237.813861 158.203616 
L 238.127525 158.209162 
L 238.441188 158.214014 
L 238.754851 158.218173 
L 239.068515 158.221639 
L 239.382178 158.224412 
L 239.695842 158.226492 
L 240.009505 158.227878 
L 240.323168 158.228571 
L 240.636832 158.228571 
L 240.950495 158.227878 
L 241.264158 158.226492 
L 241.577822 158.224412 
L 241.891485 158.221639 
L 242.205149 158.218173 
L 242.518812 158.214014 
L 242.832475 158.209162 
L 243.146139 158.203616 
L 243.459802 158.197377 
L 243.773465 158.190445 
L 244.087129 158.18282 
L 244.400792 158.174502 
L 244.714455 158.16549 
L 245.028119 158.155785 
L 245.341782 158.145387 
L 245.655446 158.134296 
L 245.969109 158.122511 
L 246.282772 158.110034 
L 246.596436 158.096863 
L 246.910099 158.082999 
L 247.223762 158.068441 
L 247.537426 158.053191 
L 247.851089 158.037247 
L 248.164752 158.02061 
L 248.478416 158.00328 
L 248.792079 157.985257 
L 249.105743 157.96654 
L 249.419406 157.947131 
L 249.733069 157.927028 
L 250.046733 157.906232 
L 250.360396 157.884742 
L 250.674059 157.86256 
L 250.987723 157.839684 
L 251.301386 157.816115 
L 251.61505 157.791853 
L 251.928713 157.766898 
L 252.242376 157.741249 
L 252.55604 157.714907 
L 252.869703 157.687872 
L 253.183366 157.660144 
L 253.49703 157.631723 
L 253.810693 157.602608 
L 254.124356 157.5728 
L 254.43802 157.542299 
L 254.751683 157.511105 
L 255.065347 157.479218 
L 255.37901 157.446637 
L 255.692673 157.413363 
L 256.006337 157.379396 
L 256.32 157.344736 
L 256.633663 157.309383 
L 256.947327 157.273336 
L 257.26099 157.236596 
L 257.574653 157.199163 
L 257.888317 157.161037 
L 258.20198 157.122218 
L 258.515644 157.082705 
L 258.829307 157.042499 
L 259.14297 157.0016 
L 259.456634 156.960008 
L 259.770297 156.917723 
L 260.08396 156.874744 
L 260.397624 156.831072 
L 260.711287 156.786707 
L 261.02495 156.741649 
L 261.338614 156.695897 
L 261.652277 156.649453 
L 261.965941 156.602315 
L 262.279604 156.554484 
L 262.593267 156.505959 
L 262.906931 156.456742 
L 263.220594 156.406831 
L 263.534257 156.356227 
L 263.847921 156.30493 
L 264.161584 156.25294 
L 264.475248 156.200256 
L 264.788911 156.14688 
L 265.102574 156.09281 
L 265.416238 156.038047 
L 265.729901 155.98259 
L 266.043564 155.926441 
L 266.357228 155.869598 
L 266.670891 155.812062 
L 266.984554 155.753833 
L 267.298218 155.694911 
L 267.611881 155.635295 
L 267.925545 155.574986 
L 268.239208 155.513984 
L 268.552871 155.452289 
L 268.866535 155.389901 
L 269.180198 155.326819 
L 269.493861 155.263045 
L 269.807525 155.198577 
L 270.121188 155.133415 
L 270.434851 155.067561 
L 270.748515 155.001013 
L 271.062178 154.933773 
L 271.375842 154.865839 
L 271.689505 154.797211 
L 272.003168 154.727891 
L 272.316832 154.657877 
L 272.630495 154.587171 
L 272.944158 154.515771 
L 273.257822 154.443677 
L 273.571485 154.370891 
L 273.885149 154.297411 
L 274.198812 154.223239 
L 274.512475 154.148373 
L 274.826139 154.072813 
L 275.139802 153.996561 
L 275.453465 153.919615 
L 275.767129 153.841976 
L 276.080792 153.763644 
L 276.394455 153.684619 
L 276.708119 153.604901 
L 277.021782 153.524489 
L 277.335446 153.443384 
L 277.649109 153.361586 
L 277.962772 153.279095 
L 278.276436 153.19591 
L 278.590099 153.112032 
L 278.903762 153.027462 
L 279.217426 152.942197 
L 279.531089 152.85624 
L 279.844752 152.76959 
L 280.158416 152.682246 
L 280.472079 152.594209 
L 280.785743 152.505479 
L 281.099406 152.416056 
L 281.413069 152.325939 
L 281.726733 152.235129 
L 282.040396 152.143626 
L 282.354059 152.05143 
L 282.667723 151.958541 
L 282.981386 151.864958 
L 283.29505 151.770683 
L 283.608713 151.675714 
L 283.922376 151.580052 
L 284.23604 151.483696 
L 284.549703 151.386648 
L 284.863366 151.288906 
L 285.17703 151.190471 
L 285.490693 151.091343 
L 285.804356 150.991521 
L 286.11802 150.891007 
L 286.431683 150.789799 
L 286.745347 150.687898 
L 287.05901 150.585304 
L 287.372673 150.482016 
L 287.686337 150.378036 
L 288 150.273362 
L 288.313663 150.167995 
L 288.627327 150.061935 
L 288.94099 149.955181 
L 289.254653 149.847735 
L 289.568317 149.739595 
L 289.88198 149.630762 
L 290.195644 149.521236 
L 290.509307 149.411016 
L 290.82297 149.300104 
L 291.136634 149.188498 
L 291.450297 149.076199 
L 291.76396 148.963206 
L 292.077624 148.849521 
L 292.391287 148.735142 
L 292.70495 148.62007 
L 293.018614 148.504305 
L 293.332277 148.387847 
L 293.645941 148.270696 
L 293.959604 148.152851 
L 294.273267 148.034313 
L 294.586931 147.915082 
L 294.900594 147.795158 
L 295.214257 147.67454 
L 295.527921 147.553229 
L 295.841584 147.431225 
L 296.155248 147.308528 
L 296.468911 147.185138 
L 296.782574 147.061055 
L 297.096238 146.936278 
L 297.409901 146.810808 
L 297.723564 146.684645 
L 298.037228 146.557788 
L 298.350891 146.430239 
L 298.664554 146.301996 
L 298.978218 146.17306 
L 299.291881 146.043431 
L 299.605545 145.913109 
L 299.919208 145.782093 
L 300.232871 145.650384 
L 300.546535 145.517982 
L 300.860198 145.384887 
L 301.173861 145.251099 
L 301.487525 145.116617 
L 301.801188 144.981442 
L 302.114851 144.845574 
L 302.428515 144.709013 
L 302.742178 144.571759 
L 303.055842 144.433811 
L 303.369505 144.29517 
L 303.683168 144.155836 
L 303.996832 144.015809 
L 304.310495 143.875089 
L 304.624158 143.733675 
L 304.937822 143.591568 
L 305.251485 143.448768 
L 305.565149 143.305275 
L 305.878812 143.161089 
L 306.192475 143.016209 
L 306.506139 142.870636 
L 306.819802 142.72437 
L 307.133465 142.577411 
L 307.447129 142.429758 
L 307.760792 142.281413 
L 308.074455 142.132374 
L 308.388119 141.982642 
L 308.701782 141.832217 
L 309.015446 141.681098 
L 309.329109 141.529286 
L 309.642772 141.376781 
L 309.956436 141.223583 
L 310.270099 141.069692 
L 310.583762 140.915108 
L 310.897426 140.75983 
L 311.211089 140.603859 
L 311.524752 140.447195 
L 311.838416 140.289838 
L 312.152079 140.131787 
L 312.465743 139.973043 
L 312.779406 139.813606 
L 313.093069 139.653476 
L 313.406733 139.492653 
L 313.720396 139.331136 
L 314.034059 139.168927 
L 314.347723 139.006024 
L 314.661386 138.842428 
L 314.97505 138.678138 
L 315.288713 138.513156 
L 315.602376 138.34748 
L 315.91604 138.181111 
L 316.229703 138.014049 
L 316.543366 137.846293 
L 316.85703 137.677845 
L 317.170693 137.508703 
L 317.484356 137.338868 
L 317.79802 137.16834 
L 318.111683 136.997118 
L 318.425347 136.825204 
L 318.73901 136.652596 
L 319.052673 136.479295 
L 319.366337 136.305301 
L 319.68 136.130613 
L 319.993663 135.955233 
L 320.307327 135.779159 
L 320.62099 135.602392 
L 320.934653 135.424932 
L 321.248317 135.246778 
L 321.56198 135.067932 
L 321.875644 134.888392 
L 322.189307 134.708159 
L 322.50297 134.527232 
L 322.816634 134.345613 
L 323.130297 134.1633 
L 323.44396 133.980294 
L 323.757624 133.796595 
L 324.071287 133.612203 
L 324.38495 133.427118 
L 324.698614 133.241339 
L 325.012277 133.054867 
L 325.325941 132.867702 
L 325.639604 132.679844 
L 325.953267 132.491292 
L 326.266931 132.302048 
L 326.580594 132.11211 
L 326.894257 131.921478 
L 327.207921 131.730154 
L 327.521584 131.538137 
L 327.835248 131.345426 
L 328.148911 131.152022 
L 328.462574 130.957925 
L 328.776238 130.763135 
L 329.089901 130.567651 
L 329.403564 130.371474 
L 329.717228 130.174604 
L 330.030891 129.977041 
L 330.344554 129.778785 
L 330.658218 129.579835 
L 330.971881 129.380193 
L 331.285545 129.179857 
L 331.599208 128.978827 
L 331.912871 128.777105 
L 332.226535 128.574689 
L 332.540198 128.371581 
L 332.853861 128.167779 
L 333.167525 127.963283 
L 333.481188 127.758095 
L 333.794851 127.552213 
L 334.108515 127.345639 
L 334.422178 127.138371 
L 334.735842 126.930409 
L 335.049505 126.721755 
L 335.363168 126.512407 
L 335.676832 126.302367 
L 335.990495 126.091633 
L 336.304158 125.880205 
L 336.617822 125.668085 
L 336.931485 125.455271 
L 337.245149 125.241764 
L 337.558812 125.027564 
L 337.872475 124.812671 
L 338.186139 124.597085 
L 338.499802 124.380805 
L 338.813465 124.163832 
L 339.127129 123.946166 
L 339.440792 123.727807 
L 339.754455 123.508754 
L 340.068119 123.289009 
L 340.381782 123.06857 
L 340.695446 122.847438 
L 341.009109 122.625612 
L 341.322772 122.403094 
L 341.636436 122.179882 
L 341.950099 121.955977 
L 342.263762 121.731379 
L 342.577426 121.506088 
L 342.891089 121.280103 
L 343.204752 121.053426 
L 343.518416 120.826055 
L 343.832079 120.597991 
L 344.145743 120.369233 
L 344.459406 120.139783 
L 344.773069 119.909639 
L 345.086733 119.678802 
L 345.400396 119.447272 
L 345.714059 119.215049 
L 346.027723 118.982132 
L 346.341386 118.748522 
L 346.65505 118.514219 
L 346.968713 118.279223 
L 347.282376 118.043534 
L 347.59604 117.807151 
L 347.909703 117.570075 
L 348.223366 117.332306 
L 348.53703 117.093844 
L 348.850693 116.854689 
L 349.164356 116.61484 
L 349.47802 116.374299 
L 349.791683 116.133064 
L 350.105347 115.891135 
L 350.41901 115.648514 
L 350.732673 115.405199 
L 351.046337 115.161191 
L 351.36 114.91649 
L 351.673663 114.671096 
L 351.987327 114.425009 
L 352.30099 114.178228 
L 352.614653 113.930754 
L 352.928317 113.682587 
L 353.24198 113.433727 
L 353.555644 113.184174 
L 353.869307 112.933927 
L 354.18297 112.682987 
L 354.496634 112.431354 
L 354.810297 112.179028 
L 355.12396 111.926008 
L 355.437624 111.672296 
L 355.751287 111.41789 
L 356.06495 111.162791 
L 356.378614 110.906998 
L 356.692277 110.650513 
L 357.005941 110.393334 
L 357.319604 110.135462 
L 357.633267 109.876897 
L 357.946931 109.617639 
L 358.260594 109.357687 
L 358.574257 109.097043 
L 358.887921 108.835705 
L 359.201584 108.573674 
L 359.515248 108.310949 
L 359.828911 108.047532 
L 360.142574 107.783421 
L 360.456238 107.518617 
L 360.769901 107.25312 
L 361.083564 106.98693 
L 361.397228 106.720046 
L 361.710891 106.452469 
L 362.024554 106.184199 
L 362.338218 105.915236 
L 362.651881 105.64558 
L 362.965545 105.37523 
L 363.279208 105.104187 
L 363.592871 104.832451 
L 363.906535 104.560022 
L 364.220198 104.2869 
L 364.533861 104.013084 
L 364.847525 103.738575 
L 365.161188 103.463373 
L 365.474851 103.187478 
L 365.788515 102.91089 
L 366.102178 102.633608 
L 366.415842 102.355633 
L 366.729505 102.076965 
L 367.043168 101.797604 
L 367.356832 101.51755 
L 367.670495 101.236802 
L 367.984158 100.955361 
L 368.297822 100.673227 
L 368.611485 100.3904 
L 368.925149 100.10688 
L 369.238812 99.822666 
L 369.552475 99.537759 
L 369.866139 99.252159 
L 370.179802 98.965866 
L 370.493465 98.678879 
L 370.807129 98.3912 
L 371.120792 98.102827 
L 371.434455 97.813761 
L 371.748119 97.524001 
L 372.061782 97.233549 
L 372.375446 96.942403 
L 372.689109 96.650564 
L 373.002772 96.358032 
L 373.316436 96.064807 
L 373.630099 95.770888 
L 373.943762 95.476277 
L 374.257426 95.180972 
L 374.571089 94.884974 
L 374.884752 94.588282 
L 375.198416 94.290898 
L 375.512079 93.99282 
L 375.825743 93.694049 
L 376.139406 93.394585 
L 376.453069 93.094428 
L 376.766733 92.793577 
L 377.080396 92.492033 
L 377.394059 92.189796 
L 377.707723 91.886866 
L 378.021386 91.583243 
L 378.33505 91.278926 
L 378.648713 90.973916 
L 378.962376 90.668213 
L 379.27604 90.361817 
L 379.589703 90.054728 
L 379.903366 89.746945 
L 380.21703 89.43847 
L 380.530693 89.129301 
L 380.844356 88.819438 
L 381.15802 88.508883 
L 381.471683 88.197634 
L 381.785347 87.885692 
L 382.09901 87.573057 
L 382.412673 87.259729 
L 382.726337 86.945708 
L 383.04 86.630993 
L 383.353663 86.315585 
L 383.667327 85.999484 
L 383.98099 85.68269 
L 384.294653 85.365203 
L 384.608317 85.047022 
L 384.92198 84.728148 
L 385.235644 84.408581 
L 385.549307 84.088321 
L 385.86297 83.767367 
L 386.176634 83.445721 
L 386.490297 83.123381 
L 386.490297 82.476619 
L 386.490297 82.476619 
L 386.176634 82.154279 
L 385.86297 81.832633 
L 385.549307 81.511679 
L 385.235644 81.191419 
L 384.92198 80.871852 
L 384.608317 80.552978 
L 384.294653 80.234797 
L 383.98099 79.91731 
L 383.667327 79.600516 
L 383.353663 79.284415 
L 383.04 78.969007 
L 382.726337 78.654292 
L 382.412673 78.340271 
L 382.09901 78.026943 
L 381.785347 77.714308 
L 381.471683 77.402366 
L 381.15802 77.091117 
L 380.844356 76.780562 
L 380.530693 76.470699 
L 380.21703 76.16153 
L 379.903366 75.853055 
L 379.589703 75.545272 
L 379.27604 75.238183 
L 378.962376 74.931787 
L 378.648713 74.626084 
L 378.33505 74.321074 
L 378.021386 74.016757 
L 377.707723 73.713134 
L 377.394059 73.410204 
L 377.080396 73.107967 
L 376.766733 72.806423 
L 376.453069 72.505572 
L 376.139406 72.205415 
L 375.825743 71.905951 
L 375.512079 71.60718 
L 375.198416 71.309102 
L 374.884752 71.011718 
L 374.571089 70.715026 
L 374.257426 70.419028 
L 373.943762 70.123723 
L 373.630099 69.829112 
L 373.316436 69.535193 
L 373.002772 69.241968 
L 372.689109 68.949436 
L 372.375446 68.657597 
L 372.061782 68.366451 
L 371.748119 68.075999 
L 371.434455 67.786239 
L 371.120792 67.497173 
L 370.807129 67.2088 
L 370.493465 66.921121 
L 370.179802 66.634134 
L 369.866139 66.347841 
L 369.552475 66.062241 
L 369.238812 65.777334 
L 368.925149 65.49312 
L 368.611485 65.2096 
L 368.297822 64.926773 
L 367.984158 64.644639 
L 367.670495 64.363198 
L 367.356832 64.08245 
L 367.043168 63.802396 
L 366.729505 63.523035 
L 366.415842 63.244367 
L 366.102178 62.966392 
L 365.788515 62.68911 
L 365.474851 62.412522 
L 365.161188 62.136627 
L 364.847525 61.861425 
L 364.533861 61.586916 
L 364.220198 61.3131 
L 363.906535 61.039978 
L 363.592871 60.767549 
L 363.279208 60.495813 
L 362.965545 60.22477 
L 362.651881 59.95442 
L 362.338218 59.684764 
L 362.024554 59.415801 
L 361.710891 59.147531 
L 361.397228 58.879954 
L 361.083564 58.61307 
L 360.769901 58.34688 
L 360.456238 58.081383 
L 360.142574 57.816579 
L 359.828911 57.552468 
L 359.515248 57.289051 
L 359.201584 57.026326 
L 358.887921 56.764295 
L 358.574257 56.502957 
L 358.260594 56.242313 
L 357.946931 55.982361 
L 357.633267 55.723103 
L 357.319604 55.464538 
L 357.005941 55.206666 
L 356.692277 54.949487 
L 356.378614 54.693002 
L 356.06495 54.437209 
L 355.751287 54.18211 
L 355.437624 53.927704 
L 355.12396 53.673992 
L 354.810297 53.420972 
L 354.496634 53.168646 
L 354.18297 52.917013 
L 353.869307 52.666073 
L 353.555644 52.415826 
L 353.24198 52.166273 
L 352.928317 51.917413 
L 352.614653 51.669246 
L 352.30099 51.421772 
L 351.987327 51.174991 
L 351.673663 50.928904 
L 351.36 50.68351 
L 351.046337 50.438809 
L 350.732673 50.194801 
L 350.41901 49.951486 
L 350.105347 49.708865 
L 349.791683 49.466936 
L 349.47802 49.225701 
L 349.164356 48.98516 
L 348.850693 48.745311 
L 348.53703 48.506156 
L 348.223366 48.267694 
L 347.909703 48.029925 
L 347.59604 47.792849 
L 347.282376 47.556466 
L 346.968713 47.320777 
L 346.65505 47.085781 
L 346.341386 46.851478 
L 346.027723 46.617868 
L 345.714059 46.384951 
L 345.400396 46.152728 
L 345.086733 45.921198 
L 344.773069 45.690361 
L 344.459406 45.460217 
L 344.145743 45.230767 
L 343.832079 45.002009 
L 343.518416 44.773945 
L 343.204752 44.546574 
L 342.891089 44.319897 
L 342.577426 44.093912 
L 342.263762 43.868621 
L 341.950099 43.644023 
L 341.636436 43.420118 
L 341.322772 43.196906 
L 341.009109 42.974388 
L 340.695446 42.752562 
L 340.381782 42.53143 
L 340.068119 42.310991 
L 339.754455 42.091246 
L 339.440792 41.872193 
L 339.127129 41.653834 
L 338.813465 41.436168 
L 338.499802 41.219195 
L 338.186139 41.002915 
L 337.872475 40.787329 
L 337.558812 40.572436 
L 337.245149 40.358236 
L 336.931485 40.144729 
L 336.617822 39.931915 
L 336.304158 39.719795 
L 335.990495 39.508367 
L 335.676832 39.297633 
L 335.363168 39.087593 
L 335.049505 38.878245 
L 334.735842 38.669591 
L 334.422178 38.461629 
L 334.108515 38.254361 
L 333.794851 38.047787 
L 333.481188 37.841905 
L 333.167525 37.636717 
L 332.853861 37.432221 
L 332.540198 37.228419 
L 332.226535 37.025311 
L 331.912871 36.822895 
L 331.599208 36.621173 
L 331.285545 36.420143 
L 330.971881 36.219807 
L 330.658218 36.020165 
L 330.344554 35.821215 
L 330.030891 35.622959 
L 329.717228 35.425396 
L 329.403564 35.228526 
L 329.089901 35.032349 
L 328.776238 34.836865 
L 328.462574 34.642075 
L 328.148911 34.447978 
L 327.835248 34.254574 
L 327.521584 34.061863 
L 327.207921 33.869846 
L 326.894257 33.678522 
L 326.580594 33.48789 
L 326.266931 33.297952 
L 325.953267 33.108708 
L 325.639604 32.920156 
L 325.325941 32.732298 
L 325.012277 32.545133 
L 324.698614 32.358661 
L 324.38495 32.172882 
L 324.071287 31.987797 
L 323.757624 31.803405 
L 323.44396 31.619706 
L 323.130297 31.4367 
L 322.816634 31.254387 
L 322.50297 31.072768 
L 322.189307 30.891841 
L 321.875644 30.711608 
L 321.56198 30.532068 
L 321.248317 30.353222 
L 320.934653 30.175068 
L 320.62099 29.997608 
L 320.307327 29.820841 
L 319.993663 29.644767 
L 319.68 29.469387 
L 319.366337 29.294699 
L 319.052673 29.120705 
L 318.73901 28.947404 
L 318.425347 28.774796 
L 318.111683 28.602882 
L 317.79802 28.43166 
L 317.484356 28.261132 
L 317.170693 28.091297 
L 316.85703 27.922155 
L 316.543366 27.753707 
L 316.229703 27.585951 
L 315.91604 27.418889 
L 315.602376 27.25252 
L 315.288713 27.086844 
L 314.97505 26.921862 
L 314.661386 26.757572 
L 314.347723 26.593976 
L 314.034059 26.431073 
L 313.720396 26.268864 
L 313.406733 26.107347 
L 313.093069 25.946524 
L 312.779406 25.786394 
L 312.465743 25.626957 
L 312.152079 25.468213 
L 311.838416 25.310162 
L 311.524752 25.152805 
L 311.211089 24.996141 
L 310.897426 24.84017 
L 310.583762 24.684892 
L 310.270099 24.530308 
L 309.956436 24.376417 
L 309.642772 24.223219 
L 309.329109 24.070714 
L 309.015446 23.918902 
L 308.701782 23.767783 
L 308.388119 23.617358 
L 308.074455 23.467626 
L 307.760792 23.318587 
L 307.447129 23.170242 
L 307.133465 23.022589 
L 306.819802 22.87563 
L 306.506139 22.729364 
L 306.192475 22.583791 
L 305.878812 22.438911 
L 305.565149 22.294725 
L 305.251485 22.151232 
L 304.937822 22.008432 
L 304.624158 21.866325 
L 304.310495 21.724911 
L 303.996832 21.584191 
L 303.683168 21.444164 
L 303.369505 21.30483 
L 303.055842 21.166189 
L 302.742178 21.028241 
L 302.428515 20.890987 
L 302.114851 20.754426 
L 301.801188 20.618558 
L 301.487525 20.483383 
L 301.173861 20.348901 
L 300.860198 20.215113 
L 300.546535 20.082018 
L 300.232871 19.949616 
L 299.919208 19.817907 
L 299.605545 19.686891 
L 299.291881 19.556569 
L 298.978218 19.42694 
L 298.664554 19.298004 
L 298.350891 19.169761 
L 298.037228 19.042212 
L 297.723564 18.915355 
L 297.409901 18.789192 
L 297.096238 18.663722 
L 296.782574 18.538945 
L 296.468911 18.414862 
L 296.155248 18.291472 
L 295.841584 18.168775 
L 295.527921 18.046771 
L 295.214257 17.92546 
L 294.900594 17.804842 
L 294.586931 17.684918 
L 294.273267 17.565687 
L 293.959604 17.447149 
L 293.645941 17.329304 
L 293.332277 17.212153 
L 293.018614 17.095695 
L 292.70495 16.97993 
L 292.391287 16.864858 
L 292.077624 16.750479 
L 291.76396 16.636794 
L 291.450297 16.523801 
L 291.136634 16.411502 
L 290.82297 16.299896 
L 290.509307 16.188984 
L 290.195644 16.078764 
L 289.88198 15.969238 
L 289.568317 15.860405 
L 289.254653 15.752265 
L 288.94099 15.644819 
L 288.627327 15.538065 
L 288.313663 15.432005 
L 288 15.326638 
L 287.686337 15.221964 
L 287.372673 15.117984 
L 287.05901 15.014696 
L 286.745347 14.912102 
L 286.431683 14.810201 
L 286.11802 14.708993 
L 285.804356 14.608479 
L 285.490693 14.508657 
L 285.17703 14.409529 
L 284.863366 14.311094 
L 284.549703 14.213352 
L 284.23604 14.116304 
L 283.922376 14.019948 
L 283.608713 13.924286 
L 283.29505 13.829317 
L 282.981386 13.735042 
L 282.667723 13.641459 
L 282.354059 13.54857 
L 282.040396 13.456374 
L 281.726733 13.364871 
L 281.413069 13.274061 
L 281.099406 13.183944 
L 280.785743 13.094521 
L 280.472079 13.005791 
L 280.158416 12.917754 
L 279.844752 12.83041 
L 279.531089 12.74376 
L 279.217426 12.657803 
L 278.903762 12.572538 
L 278.590099 12.487968 
L 278.276436 12.40409 
L 277.962772 12.320905 
L 277.649109 12.238414 
L 277.335446 12.156616 
L 277.021782 12.075511 
L 276.708119 11.995099 
L 276.394455 11.915381 
L 276.080792 11.836356 
L 275.767129 11.758024 
L 275.453465 11.680385 
L 275.139802 11.603439 
L 274.826139 11.527187 
L 274.512475 11.451627 
L 274.198812 11.376761 
L 273.885149 11.302589 
L 273.571485 11.229109 
L 273.257822 11.156323 
L 272.944158 11.084229 
L 272.630495 11.012829 
L 272.316832 10.942123 
L 272.003168 10.872109 
L 271.689505 10.802789 
L 271.375842 10.734161 
L 271.062178 10.666227 
L 270.748515 10.598987 
L 270.434851 10.532439 
L 270.121188 10.466585 
L 269.807525 10.401423 
L 269.493861 10.336955 
L 269.180198 10.273181 
L 268.866535 10.210099 
L 268.552871 10.147711 
L 268.239208 10.086016 
L 267.925545 10.025014 
L 267.611881 9.964705 
L 267.298218 9.905089 
L 266.984554 9.846167 
L 266.670891 9.787938 
L 266.357228 9.730402 
L 266.043564 9.673559 
L 265.729901 9.61741 
L 265.416238 9.561953 
L 265.102574 9.50719 
L 264.788911 9.45312 
L 264.475248 9.399744 
L 264.161584 9.34706 
L 263.847921 9.29507 
L 263.534257 9.243773 
L 263.220594 9.193169 
L 262.906931 9.143258 
L 262.593267 9.094041 
L 262.279604 9.045516 
L 261.965941 8.997685 
L 261.652277 8.950547 
L 261.338614 8.904103 
L 261.02495 8.858351 
L 260.711287 8.813293 
L 260.397624 8.768928 
L 260.08396 8.725256 
L 259.770297 8.682277 
L 259.456634 8.639992 
L 259.14297 8.5984 
L 258.829307 8.557501 
L 258.515644 8.517295 
L 258.20198 8.477782 
L 257.888317 8.438963 
L 257.574653 8.400837 
L 257.26099 8.363404 
L 256.947327 8.326664 
L 256.633663 8.290617 
L 256.32 8.255264 
L 256.006337 8.220604 
L 255.692673 8.186637 
L 255.37901 8.153363 
L 255.065347 8.120782 
L 254.751683 8.088895 
L 254.43802 8.057701 
L 254.124356 8.0272 
L 253.810693 7.997392 
L 253.49703 7.968277 
L 253.183366 7.939856 
L 252.869703 7.912128 
L 252.55604 7.885093 
L 252.242376 7.858751 
L 251.928713 7.833102 
L 251.61505 7.808147 
L 251.301386 7.783885 
L 250.987723 7.760316 
L 250.674059 7.73744 
L 250.360396 7.715258 
L 250.046733 7.693768 
L 249.733069 7.672972 
L 249.419406 7.652869 
L 249.105743 7.63346 
L 248.792079 7.614743 
L 248.478416 7.59672 
L 248.164752 7.57939 
L 247.851089 7.562753 
L 247.537426 7.546809 
L 247.223762 7.531559 
L 246.910099 7.517001 
L 246.596436 7.503137 
L 246.282772 7.489966 
L 245.969109 7.477489 
L 245.655446 7.465704 
L 245.341782 7.454613 
L 245.028119 7.444215 
L 244.714455 7.43451 
L 244.400792 7.425498 
L 244.087129 7.41718 
L 243.773465 7.409555 
L 243.459802 7.402623 
L 243.146139 7.396384 
L 242.832475 7.390838 
L 242.518812 7.385986 
L 242.205149 7.381827 
L 241.891485 7.378361 
L 241.577822 7.375588 
L 241.264158 7.373508 
L 240.950495 7.372122 
L 240.636832 7.371429 
L 240.323168 7.371429 
L 240.009505 7.372122 
L 239.695842 7.373508 
L 239.382178 7.375588 
L 239.068515 7.378361 
L 238.754851 7.381827 
L 238.441188 7.385986 
L 238.127525 7.390838 
L 237.813861 7.396384 
L 237.500198 7.402623 
L 237.186535 7.409555 
L 236.872871 7.41718 
L 236.559208 7.425498 
L 236.245545 7.43451 
L 235.931881 7.444215 
L 235.618218 7.454613 
L 235.304554 7.465704 
L 234.990891 7.477489 
L 234.677228 7.489966 
L 234.363564 7.503137 
L 234.049901 7.517001 
L 233.736238 7.531559 
L 233.422574 7.546809 
L 233.108911 7.562753 
L 232.795248 7.57939 
L 232.481584 7.59672 
L 232.167921 7.614743 
L 231.854257 7.63346 
L 231.540594 7.652869 
L 231.226931 7.672972 
L 230.913267 7.693768 
L 230.599604 7.715258 
L 230.285941 7.73744 
L 229.972277 7.760316 
L 229.658614 7.783885 
L 229.34495 7.808147 
L 229.031287 7.833102 
L 228.717624 7.858751 
L 228.40396 7.885093 
L 228.090297 7.912128 
L 227.776634 7.939856 
L 227.46297 7.968277 
L 227.149307 7.997392 
L 226.835644 8.0272 
L 226.52198 8.057701 
L 226.208317 8.088895 
L 225.894653 8.120782 
L 225.58099 8.153363 
L 225.267327 8.186637 
L 224.953663 8.220604 
L 224.64 8.255264 
L 224.326337 8.290617 
L 224.012673 8.326664 
L 223.69901 8.363404 
L 223.385347 8.400837 
L 223.071683 8.438963 
L 222.75802 8.477782 
L 222.444356 8.517295 
L 222.130693 8.557501 
L 221.81703 8.5984 
L 221.503366 8.639992 
L 221.189703 8.682277 
L 220.87604 8.725256 
L 220.562376 8.768928 
L 220.248713 8.813293 
L 219.93505 8.858351 
L 219.621386 8.904103 
L 219.307723 8.950547 
L 218.994059 8.997685 
L 218.680396 9.045516 
L 218.366733 9.094041 
L 218.053069 9.143258 
L 217.739406 9.193169 
L 217.425743 9.243773 
L 217.112079 9.29507 
L 216.798416 9.34706 
L 216.484752 9.399744 
L 216.171089 9.45312 
L 215.857426 9.50719 
L 215.543762 9.561953 
L 215.230099 9.61741 
L 214.916436 9.673559 
L 214.602772 9.730402 
L 214.289109 9.787938 
L 213.975446 9.846167 
L 213.661782 9.905089 
L 213.348119 9.964705 
L 213.034455 10.025014 
L 212.720792 10.086016 
L 212.407129 10.147711 
L 212.093465 10.210099 
L 211.779802 10.273181 
L 211.466139 10.336955 
L 211.152475 10.401423 
L 210.838812 10.466585 
L 210.525149 10.532439 
L 210.211485 10.598987 
L 209.897822 10.666227 
L 209.584158 10.734161 
L 209.270495 10.802789 
L 208.956832 10.872109 
L 208.643168 10.942123 
L 208.329505 11.012829 
L 208.015842 11.084229 
L 207.702178 11.156323 
L 207.388515 11.229109 
L 207.074851 11.302589 
L 206.761188 11.376761 
L 206.447525 11.451627 
L 206.133861 11.527187 
L 205.820198 11.603439 
L 205.506535 11.680385 
L 205.192871 11.758024 
L 204.879208 11.836356 
L 204.565545 11.915381 
L 204.251881 11.995099 
L 203.938218 12.075511 
L 203.624554 12.156616 
L 203.310891 12.238414 
L 202.997228 12.320905 
L 202.683564 12.40409 
L 202.369901 12.487968 
L 202.056238 12.572538 
L 201.742574 12.657803 
L 201.428911 12.74376 
L 201.115248 12.83041 
L 200.801584 12.917754 
L 200.487921 13.005791 
L 200.174257 13.094521 
L 199.860594 13.183944 
L 199.546931 13.274061 
L 199.233267 13.364871 
L 198.919604 13.456374 
L 198.605941 13.54857 
L 198.292277 13.641459 
L 197.978614 13.735042 
L 197.66495 13.829317 
L 197.351287 13.924286 
L 197.037624 14.019948 
L 196.72396 14.116304 
L 196.410297 14.213352 
L 196.096634 14.311094 
L 195.78297 14.409529 
L 195.469307 14.508657 
L 195.155644 14.608479 
L 194.84198 14.708993 
L 194.528317 14.810201 
L 194.214653 14.912102 
L 193.90099 15.014696 
L 193.587327 15.117984 
L 193.273663 15.221964 
L 192.96 15.326638 
L 192.646337 15.432005 
L 192.332673 15.538065 
L 192.01901 15.644819 
L 191.705347 15.752265 
L 191.391683 15.860405 
L 191.07802 15.969238 
L 190.764356 16.078764 
L 190.450693 16.188984 
L 190.13703 16.299896 
L 189.823366 16.411502 
L 189.509703 16.523801 
L 189.19604 16.636794 
L 188.882376 16.750479 
L 188.568713 16.864858 
L 188.25505 16.97993 
L 187.941386 17.095695 
L 187.627723 17.212153 
L 187.314059 17.329304 
L 187.000396 17.447149 
L 186.686733 17.565687 
L 186.373069 17.684918 
L 186.059406 17.804842 
L 185.745743 17.92546 
L 185.432079 18.046771 
L 185.118416 18.168775 
L 184.804752 18.291472 
L 184.491089 18.414862 
L 184.177426 18.538945 
L 183.863762 18.663722 
L 183.550099 18.789192 
L 183.236436 18.915355 
L 182.922772 19.042212 
L 182.609109 19.169761 
L 182.295446 19.298004 
L 181.981782 19.42694 
L 181.668119 19.556569 
L 181.354455 19.686891 
L 181.040792 19.817907 
L 180.727129 19.949616 
L 180.413465 20.082018 
L 180.099802 20.215113 
L 179.786139 20.348901 
L 179.472475 20.483383 
L 179.158812 20.618558 
L 178.845149 20.754426 
L 178.531485 20.890987 
L 178.217822 21.028241 
L 177.904158 21.166189 
L 177.590495 21.30483 
L 177.276832 21.444164 
L 176.963168 21.584191 
L 176.649505 21.724911 
L 176.335842 21.866325 
L 176.022178 22.008432 
L 175.708515 22.151232 
L 175.394851 22.294725 
L 175.081188 22.438911 
L 174.767525 22.583791 
L 174.453861 22.729364 
L 174.140198 22.87563 
L 173.826535 23.022589 
L 173.512871 23.170242 
L 173.199208 23.318587 
L 172.885545 23.467626 
L 172.571881 23.617358 
L 172.258218 23.767783 
L 171.944554 23.918902 
L 171.630891 24.070714 
L 171.317228 24.223219 
L 171.003564 24.376417 
L 170.689901 24.530308 
L 170.376238 24.684892 
L 170.062574 24.84017 
L 169.748911 24.996141 
L 169.435248 25.152805 
L 169.121584 25.310162 
L 168.807921 25.468213 
L 168.494257 25.626957 
L 168.180594 25.786394 
L 167.866931 25.946524 
L 167.553267 26.107347 
L 167.239604 26.268864 
L 166.925941 26.431073 
L 166.612277 26.593976 
L 166.298614 26.757572 
L 165.98495 26.921862 
L 165.671287 27.086844 
L 165.357624 27.25252 
L 165.04396 27.418889 
L 164.730297 27.585951 
L 164.416634 27.753707 
L 164.10297 27.922155 
L 163.789307 28.091297 
L 163.475644 28.261132 
L 163.16198 28.43166 
L 162.848317 28.602882 
L 162.534653 28.774796 
z
" style="fill:#0000ff;fill-opacity:0.1;stroke:#0000ff;stroke-opacity:0.1;"/>
   </g>
   <g id="matplotlib.axis_1">
    <g id="xtick_1">
     <g id="line2d_1">
      <defs>
       <path d="M 0 0 
L 0 3.5 
" id="m97b7f9096a" style="stroke:#000000;stroke-width:0.8;"/>
      </defs>
      <g>
       <use style="stroke:#000000;stroke-width:0.8;" x="83.334653" xlink:href="#m97b7f9096a" y="162"/>
      </g>
     </g>
     <g id="text_1">
      <!-- 1940 -->
      <g transform="translate(70.609653 176.598438)scale(0.1 -0.1)">
       <defs>
        <path d="M 794 531 
L 1825 531 
L 1825 4091 
L 703 3866 
L 703 4441 
L 1819 4666 
L 2450 4666 
L 2450 531 
L 3481 531 
L 3481 0 
L 794 0 
L 794 531 
z
" id="DejaVuSans-31" transform="scale(0.015625)"/>
        <path d="M 703 97 
L 703 672 
Q 941 559 1184 500 
Q 1428 441 1663 441 
Q 2288 441 2617 861 
Q 2947 1281 2994 2138 
Q 2813 1869 2534 1725 
Q 2256 1581 1919 1581 
Q 1219 1581 811 2004 
Q 403 2428 403 3163 
Q 403 3881 828 4315 
Q 1253 4750 1959 4750 
Q 2769 4750 3195 4129 
Q 3622 3509 3622 2328 
Q 3622 1225 3098 567 
Q 2575 -91 1691 -91 
Q 1453 -91 1209 -44 
Q 966 3 703 97 
z
M 1959 2075 
Q 2384 2075 2632 2365 
Q 2881 2656 2881 3163 
Q 2881 3666 2632 3958 
Q 2384 4250 1959 4250 
Q 1534 4250 1286 3958 
Q 1038 3666 1038 3163 
Q 1038 2656 1286 2365 
Q 1534 2075 1959 2075 
z
" id="DejaVuSans-39" transform="scale(0.015625)"/>
        <path d="M 2419 4116 
L 825 1625 
L 2419 1625 
L 2419 4116 
z
M 2253 4666 
L 3047 4666 
L 3047 1625 
L 3713 1625 
L 3713 1100 
L 3047 1100 
L 3047 0 
L 2419 0 
L 2419 1100 
L 313 1100 
L 313 1709 
L 2253 4666 
z
" id="DejaVuSans-34" transform="scale(0.015625)"/>
        <path d="M 2034 4250 
Q 1547 4250 1301 3770 
Q 1056 3291 1056 2328 
Q 1056 1369 1301 889 
Q 1547 409 2034 409 
Q 2525 409 2770 889 
Q 3016 1369 3016 2328 
Q 3016 3291 2770 3770 
Q 2525 4250 2034 4250 
z
M 2034 4750 
Q 2819 4750 3233 4129 
Q 3647 3509 3647 2328 
Q 3647 1150 3233 529 
Q 2819 -91 2034 -91 
Q 1250 -91 836 529 
Q 422 1150 422 2328 
Q 422 3509 836 4129 
Q 1250 4750 2034 4750 
z
" id="DejaVuSans-30" transform="scale(0.015625)"/>
       </defs>
       <use xlink:href="#DejaVuSans-31"/>
       <use x="63.623047" xlink:href="#DejaVuSans-39"/>
       <use x="127.246094" xlink:href="#DejaVuSans-34"/>
       <use x="190.869141" xlink:href="#DejaVuSans-30"/>
      </g>
     </g>
    </g>
    <g id="xtick_2">
     <g id="line2d_2">
      <g>
       <use style="stroke:#000000;stroke-width:0.8;" x="158.613861" xlink:href="#m97b7f9096a" y="162"/>
      </g>
     </g>
     <g id="text_2">
      <!-- 1960 -->
      <g transform="translate(145.888861 176.598438)scale(0.1 -0.1)">
       <defs>
        <path d="M 2113 2584 
Q 1688 2584 1439 2293 
Q 1191 2003 1191 1497 
Q 1191 994 1439 701 
Q 1688 409 2113 409 
Q 2538 409 2786 701 
Q 3034 994 3034 1497 
Q 3034 2003 2786 2293 
Q 2538 2584 2113 2584 
z
M 3366 4563 
L 3366 3988 
Q 3128 4100 2886 4159 
Q 2644 4219 2406 4219 
Q 1781 4219 1451 3797 
Q 1122 3375 1075 2522 
Q 1259 2794 1537 2939 
Q 1816 3084 2150 3084 
Q 2853 3084 3261 2657 
Q 3669 2231 3669 1497 
Q 3669 778 3244 343 
Q 2819 -91 2113 -91 
Q 1303 -91 875 529 
Q 447 1150 447 2328 
Q 447 3434 972 4092 
Q 1497 4750 2381 4750 
Q 2619 4750 2861 4703 
Q 3103 4656 3366 4563 
z
" id="DejaVuSans-36" transform="scale(0.015625)"/>
       </defs>
       <use xlink:href="#DejaVuSans-31"/>
       <use x="63.623047" xlink:href="#DejaVuSans-39"/>
       <use x="127.246094" xlink:href="#DejaVuSans-36"/>
       <use x="190.869141" xlink:href="#DejaVuSans-30"/>
      </g>
     </g>
    </g>
    <g id="xtick_3">
     <g id="line2d_3">
      <g>
       <use style="stroke:#000000;stroke-width:0.8;" x="233.893069" xlink:href="#m97b7f9096a" y="162"/>
      </g>
     </g>
     <g id="text_3">
      <!-- 1980 -->
      <g transform="translate(221.168069 176.598438)scale(0.1 -0.1)">
       <defs>
        <path d="M 2034 2216 
Q 1584 2216 1326 1975 
Q 1069 1734 1069 1313 
Q 1069 891 1326 650 
Q 1584 409 2034 409 
Q 2484 409 2743 651 
Q 3003 894 3003 1313 
Q 3003 1734 2745 1975 
Q 2488 2216 2034 2216 
z
M 1403 2484 
Q 997 2584 770 2862 
Q 544 3141 544 3541 
Q 544 4100 942 4425 
Q 1341 4750 2034 4750 
Q 2731 4750 3128 4425 
Q 3525 4100 3525 3541 
Q 3525 3141 3298 2862 
Q 3072 2584 2669 2484 
Q 3125 2378 3379 2068 
Q 3634 1759 3634 1313 
Q 3634 634 3220 271 
Q 2806 -91 2034 -91 
Q 1263 -91 848 271 
Q 434 634 434 1313 
Q 434 1759 690 2068 
Q 947 2378 1403 2484 
z
M 1172 3481 
Q 1172 3119 1398 2916 
Q 1625 2713 2034 2713 
Q 2441 2713 2670 2916 
Q 2900 3119 2900 3481 
Q 2900 3844 2670 4047 
Q 2441 4250 2034 4250 
Q 1625 4250 1398 4047 
Q 1172 3844 1172 3481 
z
" id="DejaVuSans-38" transform="scale(0.015625)"/>
       </defs>
       <use xlink:href="#DejaVuSans-31"/>
       <use x="63.623047" xlink:href="#DejaVuSans-39"/>
       <use x="127.246094" xlink:href="#DejaVuSans-38"/>
       <use x="190.869141" xlink:href="#DejaVuSans-30"/>
      </g>
     </g>
    </g>
    <g id="xtick_4">
     <g id="line2d_4">
      <g>
       <use style="stroke:#000000;stroke-width:0.8;" x="309.172277" xlink:href="#m97b7f9096a" y="162"/>
      </g>
     </g>
     <g id="text_4">
      <!-- 2000 -->
      <g transform="translate(296.447277 176.598438)scale(0.1 -0.1)">
       <defs>
        <path d="M 1228 531 
L 3431 531 
L 3431 0 
L 469 0 
L 469 531 
Q 828 903 1448 1529 
Q 2069 2156 2228 2338 
Q 2531 2678 2651 2914 
Q 2772 3150 2772 3378 
Q 2772 3750 2511 3984 
Q 2250 4219 1831 4219 
Q 1534 4219 1204 4116 
Q 875 4013 500 3803 
L 500 4441 
Q 881 4594 1212 4672 
Q 1544 4750 1819 4750 
Q 2544 4750 2975 4387 
Q 3406 4025 3406 3419 
Q 3406 3131 3298 2873 
Q 3191 2616 2906 2266 
Q 2828 2175 2409 1742 
Q 1991 1309 1228 531 
z
" id="DejaVuSans-32" transform="scale(0.015625)"/>
       </defs>
       <use xlink:href="#DejaVuSans-32"/>
       <use x="63.623047" xlink:href="#DejaVuSans-30"/>
       <use x="127.246094" xlink:href="#DejaVuSans-30"/>
       <use x="190.869141" xlink:href="#DejaVuSans-30"/>
      </g>
     </g>
    </g>
    <g id="xtick_5">
     <g id="line2d_5">
      <g>
       <use style="stroke:#000000;stroke-width:0.8;" x="384.451485" xlink:href="#m97b7f9096a" y="162"/>
      </g>
     </g>
     <g id="text_5">
      <!-- 2020 -->
      <g transform="translate(371.726485 176.598438)scale(0.1 -0.1)">
       <use xlink:href="#DejaVuSans-32"/>
       <use x="63.623047" xlink:href="#DejaVuSans-30"/>
       <use x="127.246094" xlink:href="#DejaVuSans-32"/>
       <use x="190.869141" xlink:href="#DejaVuSans-30"/>
      </g>
     </g>
    </g>
   </g>
   <g id="matplotlib.axis_2">
    <g id="ytick_1">
     <g id="line2d_6">
      <defs>
       <path d="M 0 0 
L -3.5 0 
" id="m5d81ecd030" style="stroke:#000000;stroke-width:0.8;"/>
      </defs>
      <g>
       <use style="stroke:#000000;stroke-width:0.8;" x="34.56" xlink:href="#m5d81ecd030" y="154.183825"/>
      </g>
     </g>
     <g id="text_6">
      <!-- 100 -->
      <g transform="translate(0.092813 157.983044)scale(0.1 -0.1)">
       <defs>
        <path d="M 678 2272 
L 4684 2272 
L 4684 1741 
L 678 1741 
L 678 2272 
z
" id="DejaVuSans-2212" transform="scale(0.015625)"/>
       </defs>
       <use xlink:href="#DejaVuSans-2212"/>
       <use x="83.789062" xlink:href="#DejaVuSans-31"/>
       <use x="147.412109" xlink:href="#DejaVuSans-30"/>
       <use x="211.035156" xlink:href="#DejaVuSans-30"/>
      </g>
     </g>
    </g>
    <g id="ytick_2">
     <g id="line2d_7">
      <g>
       <use style="stroke:#000000;stroke-width:0.8;" x="34.56" xlink:href="#m5d81ecd030" y="118.491912"/>
      </g>
     </g>
     <g id="text_7">
      <!-- 50 -->
      <g transform="translate(6.455313 122.291131)scale(0.1 -0.1)">
       <defs>
        <path d="M 691 4666 
L 3169 4666 
L 3169 4134 
L 1269 4134 
L 1269 2991 
Q 1406 3038 1543 3061 
Q 1681 3084 1819 3084 
Q 2600 3084 3056 2656 
Q 3513 2228 3513 1497 
Q 3513 744 3044 326 
Q 2575 -91 1722 -91 
Q 1428 -91 1123 -41 
Q 819 9 494 109 
L 494 744 
Q 775 591 1075 516 
Q 1375 441 1709 441 
Q 2250 441 2565 725 
Q 2881 1009 2881 1497 
Q 2881 1984 2565 2268 
Q 2250 2553 1709 2553 
Q 1456 2553 1204 2497 
Q 953 2441 691 2322 
L 691 4666 
z
" id="DejaVuSans-35" transform="scale(0.015625)"/>
       </defs>
       <use xlink:href="#DejaVuSans-2212"/>
       <use x="83.789062" xlink:href="#DejaVuSans-35"/>
       <use x="147.412109" xlink:href="#DejaVuSans-30"/>
      </g>
     </g>
    </g>
    <g id="ytick_3">
     <g id="line2d_8">
      <g>
       <use style="stroke:#000000;stroke-width:0.8;" x="34.56" xlink:href="#m5d81ecd030" y="82.8"/>
      </g>
     </g>
     <g id="text_8">
      <!-- 0 -->
      <g transform="translate(21.1975 86.599219)scale(0.1 -0.1)">
       <use xlink:href="#DejaVuSans-30"/>
      </g>
     </g>
    </g>
    <g id="ytick_4">
     <g id="line2d_9">
      <g>
       <use style="stroke:#000000;stroke-width:0.8;" x="34.56" xlink:href="#m5d81ecd030" y="47.108088"/>
      </g>
     </g>
     <g id="text_9">
      <!-- 50 -->
      <g transform="translate(14.835 50.907306)scale(0.1 -0.1)">
       <use xlink:href="#DejaVuSans-35"/>
       <use x="63.623047" xlink:href="#DejaVuSans-30"/>
      </g>
     </g>
    </g>
    <g id="ytick_5">
     <g id="line2d_10">
      <g>
       <use style="stroke:#000000;stroke-width:0.8;" x="34.56" xlink:href="#m5d81ecd030" y="11.416175"/>
      </g>
     </g>
     <g id="text_10">
      <!-- 100 -->
      <g transform="translate(8.4725 15.215394)scale(0.1 -0.1)">
       <use xlink:href="#DejaVuSans-31"/>
       <use x="63.623047" xlink:href="#DejaVuSans-30"/>
       <use x="127.246094" xlink:href="#DejaVuSans-30"/>
      </g>
     </g>
    </g>
   </g>
   <g id="line2d_11">
    <path clip-path="url(#p8db18bf29d)" d="M 62.789703 83.501226 
L 63.103366 83.438756 
L 63.730693 84.010664 
L 64.044356 83.804466 
L 64.985347 84.177319 
L 65.29901 84.369734 
L 65.612673 84.07481 
L 65.926337 84.631684 
L 66.24 84.671281 
L 66.553663 85.020462 
L 66.867327 85.102664 
L 67.18099 85.331124 
L 67.494653 85.407865 
L 68.12198 85.029292 
L 68.749307 84.28825 
L 69.06297 84.248789 
L 69.376634 84.000875 
L 69.690297 84.340532 
L 70.00396 84.213779 
L 70.317624 83.925148 
L 70.631287 84.116162 
L 70.94495 84.03069 
L 71.885941 84.501441 
L 72.513267 84.22887 
L 72.826931 83.886237 
L 73.767921 83.691958 
L 74.081584 83.500496 
L 74.395248 83.817558 
L 75.022574 83.53432 
L 75.649901 82.76696 
L 75.963564 83.022284 
L 76.590891 83.157091 
L 76.904554 83.558528 
L 77.218218 83.621398 
L 77.845545 83.975886 
L 78.159208 84.337023 
L 78.472871 84.292133 
L 78.786535 84.44212 
L 79.413861 85.000789 
L 79.727525 84.796306 
L 80.354851 85.105888 
L 80.668515 85.015439 
L 80.982178 85.606501 
L 81.295842 85.819002 
L 81.609505 85.23455 
L 81.923168 85.453821 
L 82.550495 84.521023 
L 82.864158 84.603179 
L 83.491485 83.718456 
L 83.805149 84.130207 
L 84.432475 84.214252 
L 85.059802 84.996928 
L 85.373465 84.697456 
M 88.510099 84.484692 
L 88.823762 85.390784 
L 89.137426 85.803804 
L 89.451089 85.738936 
L 90.078416 85.892563 
L 90.392079 86.122009 
L 91.019406 86.271885 
L 91.333069 86.438615 
L 91.646733 86.804478 
L 92.274059 86.974007 
L 92.587723 87.605999 
L 93.842376 86.835693 
L 94.15604 86.133121 
L 94.469703 86.402779 
L 95.09703 86.27972 
L 95.410693 86.252214 
L 96.03802 85.83184 
L 96.351683 85.445656 
L 96.665347 85.568076 
L 97.606337 85.123881 
L 97.92 84.735098 
L 98.547327 84.468123 
L 99.174653 84.812099 
L 99.80198 85.674863 
L 100.429307 85.555323 
L 100.74297 85.374329 
L 101.056634 85.920114 
L 101.68396 85.696752 
L 101.997624 84.838482 
L 102.62495 84.352422 
L 103.252277 84.364562 
L 103.565941 84.067921 
L 104.193267 83.217456 
L 104.506931 83.164394 
L 104.820594 82.834844 
L 106.388911 82.096149 
L 106.702574 82.083968 
L 107.016238 82.600635 
L 107.329901 82.548785 
L 107.643564 82.285034 
L 107.957228 82.376131 
L 108.270891 82.20522 
L 108.584554 82.24527 
L 108.898218 81.914499 
L 109.211881 82.12549 
L 109.525545 82.177942 
L 109.839208 82.085378 
L 110.152871 81.81046 
L 110.780198 81.913062 
L 111.721188 81.42987 
L 112.034851 81.933246 
L 112.348515 81.569449 
L 112.975842 81.336049 
L 113.603168 81.556847 
L 113.916832 81.609 
L 114.857822 82.10256 
L 115.171485 81.595926 
L 115.485149 81.73166 
L 115.798812 81.690256 
L 116.112475 81.888282 
L 116.426139 81.57823 
L 117.367129 81.474792 
L 117.680792 81.189326 
L 117.994455 81.419636 
L 118.308119 81.448045 
L 118.621782 81.90699 
L 118.935446 82.668609 
L 119.562772 82.840033 
L 120.190099 82.71409 
L 120.817426 82.838659 
L 121.131089 82.947942 
L 121.444752 82.691181 
L 121.758416 83.23526 
L 122.072079 83.537632 
L 122.699406 84.403165 
L 123.013069 84.393392 
L 123.954059 85.180515 
L 124.581386 85.182264 
L 125.208713 84.492863 
L 125.522376 84.336775 
L 125.83604 84.753558 
L 126.149703 84.845036 
L 126.463366 85.576783 
L 127.090693 86.423924 
L 127.404356 86.647225 
L 127.71802 86.286909 
L 128.031683 86.537752 
L 128.345347 86.528423 
L 128.972673 86.259538 
L 129.6 86.631078 
L 129.913663 86.963578 
L 130.54099 86.963136 
L 130.854653 86.954856 
L 131.168317 86.568902 
L 131.48198 86.629113 
L 131.795644 86.038448 
L 132.109307 85.798648 
L 132.736634 85.879586 
L 133.36396 86.545431 
M 162.534653 86.649208 
L 162.848317 86.787104 
L 163.16198 86.591241 
L 163.475644 86.635818 
L 164.10297 86.422874 
L 164.730297 86.512715 
L 165.357624 86.896669 
L 166.298614 86.501072 
L 166.612277 86.573883 
L 166.925941 86.443542 
L 167.239604 86.688168 
L 167.866931 86.075114 
L 168.180594 86.083127 
L 168.494257 86.315088 
L 169.121584 86.201592 
L 169.748911 86.362937 
L 170.376238 86.325277 
L 170.689901 86.004292 
L 171.003564 85.986763 
L 171.317228 86.104694 
L 171.630891 86.613831 
L 171.944554 86.611455 
L 172.258218 86.736953 
L 173.199208 87.608707 
L 174.140198 87.803311 
L 174.453861 87.890913 
L 175.081188 87.683272 
L 175.394851 87.544759 
L 176.649505 87.597376 
L 176.963168 87.847228 
L 177.590495 87.953983 
L 178.531485 88.279491 
L 178.845149 88.180476 
L 179.786139 88.648785 
L 180.099802 89.034707 
L 180.413465 89.078656 
L 180.727129 88.943857 
L 181.668119 89.230776 
L 182.922772 89.589548 
L 184.177426 90.108757 
L 184.491089 90.14707 
L 184.804752 90.35937 
L 185.745743 90.462252 
L 186.059406 90.643544 
L 186.373069 90.540434 
L 187.000396 89.958 
L 187.314059 89.794103 
L 187.627723 89.768634 
L 187.941386 90.10858 
L 189.19604 89.995 
L 189.509703 90.001682 
L 190.13703 89.35815 
L 190.450693 89.466897 
L 190.764356 89.437045 
L 191.07802 89.827514 
L 192.332673 90.363391 
L 192.646337 90.424952 
L 193.273663 90.078516 
L 193.90099 89.917372 
L 194.214653 89.999506 
L 194.84198 89.918338 
L 195.469307 90.015974 
L 195.78297 89.855566 
L 196.096634 90.142916 
L 196.410297 90.053759 
L 197.037624 90.124462 
L 197.351287 89.860217 
L 197.978614 89.840647 
L 198.292277 89.491276 
L 199.546931 89.649825 
L 199.860594 89.513884 
L 200.174257 89.675721 
L 200.487921 89.645914 
L 201.428911 89.995244 
L 202.683564 90.678413 
L 203.310891 90.359376 
L 203.624554 90.161295 
L 204.565545 90.104857 
L 205.192871 89.926604 
L 205.506535 89.708842 
L 205.820198 89.880286 
L 206.133861 89.906181 
L 206.761188 89.581134 
L 207.074851 89.702861 
L 207.388515 89.972947 
L 208.015842 89.91183 
L 208.329505 89.977162 
L 209.584158 89.349835 
L 209.897822 89.489606 
L 210.211485 89.494306 
L 210.838812 89.204325 
L 211.152475 89.13644 
L 211.779802 89.433406 
L 212.093465 89.656926 
L 212.407129 89.611963 
L 212.720792 89.244595 
L 213.034455 89.451262 
L 213.661782 89.645513 
L 213.975446 89.816852 
L 214.916436 89.855983 
L 215.230099 89.955533 
L 215.857426 89.505884 
L 216.171089 89.518156 
L 216.484752 89.675419 
L 216.798416 90.164661 
L 217.425743 90.386769 
L 217.739406 90.279395 
L 218.053069 90.306557 
L 218.366733 90.502441 
L 218.994059 90.253901 
L 219.621386 90.201427 
L 219.93505 90.600298 
L 220.562376 89.828542 
L 221.81703 90.175767 
L 222.130693 89.962177 
L 222.75802 89.951416 
L 223.071683 89.928343 
L 223.69901 89.552026 
L 224.326337 89.833163 
L 224.64 90.436217 
L 225.267327 90.505758 
L 226.52198 90.413248 
L 227.149307 89.993089 
L 227.46297 90.059586 
L 227.776634 90.563219 
L 228.090297 90.341307 
L 228.40396 90.445315 
L 228.717624 90.208206 
L 229.34495 90.107602 
L 229.658614 90.190505 
L 229.972277 90.118767 
L 230.285941 90.170106 
L 230.599604 90.017564 
L 231.226931 89.986949 
L 231.540594 89.842755 
L 231.854257 89.91866 
L 232.167921 89.548394 
L 233.736238 89.252037 
L 234.363564 89.215685 
L 234.677228 89.065439 
L 235.618218 89.43955 
L 236.559208 89.274368 
L 238.441188 89.404141 
L 238.754851 89.702525 
L 239.382178 89.281037 
L 240.950495 89.257052 
L 241.577822 88.577256 
L 242.205149 88.750212 
L 242.518812 88.88514 
L 242.832475 88.629497 
L 243.146139 88.608072 
L 243.459802 89.063626 
L 244.087129 88.881708 
L 244.400792 89.090284 
L 244.714455 89.436971 
L 245.655446 89.791393 
L 245.969109 89.766607 
L 246.282772 89.463268 
L 246.596436 89.507645 
L 247.851089 90.697689 
L 248.164752 90.862552 
L 248.478416 90.845891 
L 249.105743 91.156222 
L 249.733069 91.320282 
L 250.046733 91.356133 
L 250.360396 91.537442 
L 250.674059 91.480202 
L 250.987723 91.122923 
L 251.301386 91.157655 
L 251.61505 91.306266 
L 251.928713 91.692105 
L 252.242376 91.793687 
L 252.55604 92.025232 
L 253.183366 92.116183 
L 253.810693 92.239819 
L 254.43802 92.804251 
L 254.751683 92.868357 
L 255.065347 93.181876 
L 256.006337 93.112247 
L 256.947327 93.476188 
L 257.26099 93.384661 
L 257.574653 93.511833 
L 257.888317 93.370849 
L 258.20198 93.643756 
L 258.515644 93.503727 
L 258.829307 93.720561 
L 259.14297 93.452695 
L 259.456634 93.530058 
L 259.770297 93.961697 
L 260.397624 94.205327 
L 260.711287 94.213805 
L 261.02495 94.497867 
L 261.652277 94.474537 
L 261.965941 94.683825 
L 262.906931 94.173488 
L 263.220594 94.170555 
L 263.534257 93.933527 
L 264.475248 94.025498 
L 264.788911 94.211835 
L 265.102574 94.043687 
L 265.729901 94.590809 
L 266.984554 94.402798 
L 267.298218 94.127402 
L 267.611881 94.101893 
L 267.925545 94.368281 
L 268.239208 94.427912 
L 268.866535 94.087154 
L 269.180198 94.173451 
L 271.375842 93.429173 
L 272.003168 93.77864 
L 272.630495 93.705287 
L 273.257822 93.101439 
L 273.571485 93.026964 
L 274.198812 92.711955 
L 274.512475 93.039253 
L 275.139802 93.03779 
L 275.453465 93.008908 
L 276.080792 92.54436 
L 276.708119 92.251298 
L 277.021782 92.077877 
L 277.649109 92.125941 
L 277.962772 92.005122 
L 278.590099 92.41522 
L 278.903762 92.316467 
L 279.217426 92.381547 
L 279.531089 92.602712 
L 280.472079 92.352529 
L 280.785743 91.92863 
L 281.099406 91.706172 
L 281.726733 91.862384 
L 282.040396 91.652241 
L 282.354059 91.722354 
L 282.667723 91.531619 
L 283.29505 91.719078 
L 283.608713 91.296604 
L 283.922376 91.350388 
L 284.23604 91.618541 
L 284.549703 91.562214 
L 285.17703 91.218681 
L 285.490693 91.323986 
L 285.804356 91.071928 
L 286.431683 91.467425 
L 286.745347 91.623056 
L 287.05901 91.477223 
L 287.686337 91.481427 
L 288.313663 90.681778 
L 288.627327 90.553128 
L 288.94099 90.568062 
L 289.568317 91.276662 
L 291.450297 92.083218 
L 291.76396 91.946624 
L 292.077624 92.273086 
L 292.391287 92.334909 
L 292.70495 92.581515 
L 293.018614 92.588354 
L 293.332277 92.727639 
L 293.645941 92.659972 
L 293.959604 92.355954 
L 294.586931 92.473762 
L 294.900594 92.728251 
L 296.155248 91.615446 
L 296.468911 91.464822 
L 298.037228 91.454225 
L 298.664554 91.076703 
L 299.291881 90.249284 
L 299.605545 90.185617 
L 299.919208 90.323587 
L 300.232871 89.993629 
L 300.546535 89.920969 
L 300.860198 90.105708 
L 301.173861 90.549266 
L 301.801188 90.930924 
L 302.742178 91.113885 
L 303.055842 91.368298 
L 303.683168 91.325658 
L 303.996832 91.001883 
L 304.624158 91.12129 
L 305.565149 91.401826 
L 305.878812 91.616314 
L 306.506139 91.597599 
L 306.819802 91.500246 
L 307.133465 91.231657 
L 307.447129 91.249927 
L 308.074455 90.803288 
L 308.388119 90.691444 
L 309.015446 90.223457 
L 309.642772 89.875282 
L 309.956436 89.848142 
L 310.270099 89.582196 
L 310.583762 89.777974 
L 310.897426 89.66669 
L 311.211089 89.84635 
L 312.152079 89.692989 
L 313.720396 89.755298 
L 314.034059 89.554101 
L 314.347723 89.496069 
L 314.661386 89.081772 
L 314.97505 89.073934 
L 315.288713 88.610683 
L 315.91604 88.994151 
L 316.229703 88.720801 
L 316.543366 88.199635 
L 317.484356 87.583667 
L 317.79802 87.234255 
L 318.111683 87.073277 
L 318.425347 86.653252 
L 319.366337 86.432534 
L 319.68 86.316143 
L 319.993663 86.500942 
L 320.307327 86.55558 
L 320.62099 86.327662 
L 320.934653 86.299244 
L 321.56198 86.866257 
L 321.875644 86.660261 
L 322.189307 86.238606 
L 322.816634 86.038906 
L 323.130297 86.132198 
L 324.071287 85.790278 
L 324.698614 85.962851 
L 325.325941 85.497677 
L 326.266931 84.844589 
L 326.894257 85.215446 
L 327.521584 85.150159 
L 328.148911 85.474544 
L 328.776238 85.457553 
L 329.403564 84.832795 
L 329.717228 84.424053 
L 330.030891 84.585593 
L 330.344554 84.520418 
L 330.658218 84.00714 
L 332.226535 84.540796 
L 333.167525 84.0608 
L 333.481188 83.996909 
L 333.794851 84.196325 
L 334.108515 84.22931 
L 334.422178 84.146543 
L 335.049505 84.395839 
L 335.990495 84.499633 
L 336.304158 84.585197 
L 336.617822 84.840581 
L 336.931485 84.932712 
L 337.245149 85.282442 
L 337.872475 85.112667 
L 338.186139 85.182554 
L 338.499802 84.871924 
L 338.813465 84.762313 
L 339.127129 84.846164 
L 339.440792 85.090235 
L 340.381782 85.064702 
L 340.695446 85.408882 
L 341.009109 85.509729 
L 341.636436 85.389965 
L 341.950099 85.383016 
L 342.263762 85.147976 
L 342.891089 85.18118 
L 343.518416 85.329907 
L 343.832079 85.264158 
L 345.086733 84.470588 
L 345.400396 84.060641 
L 346.027723 83.878037 
L 346.341386 83.939835 
L 346.968713 83.608041 
L 347.282376 84.090026 
L 347.59604 83.733658 
L 348.53703 83.569674 
L 348.850693 83.016446 
L 349.791683 82.183001 
L 350.732673 80.740228 
L 351.36 80.537074 
L 351.673663 80.481124 
L 351.987327 79.692685 
L 353.24198 79.357241 
L 353.555644 79.225912 
L 353.869307 79.590502 
L 354.18297 79.7505 
L 354.496634 79.505165 
L 354.810297 79.409067 
L 355.12396 79.504502 
L 355.751287 78.467864 
L 357.005941 76.722261 
L 357.319604 76.651249 
L 357.633267 76.707795 
L 357.946931 77.005087 
L 358.260594 76.955343 
L 358.574257 77.20093 
L 358.887921 76.987858 
L 359.515248 77.180303 
L 359.828911 77.382241 
L 360.142574 78.75454 
L 360.456238 78.773373 
L 360.769901 78.920072 
L 361.397228 79.542598 
L 361.710891 79.635554 
L 362.024554 79.514481 
L 362.338218 79.51996 
L 362.651881 79.317729 
L 362.965545 78.958581 
L 363.279208 78.818605 
L 363.592871 78.841737 
L 363.906535 79.227478 
L 364.220198 79.108244 
L 364.847525 79.275351 
L 365.161188 79.116165 
L 366.415842 79.409094 
L 366.729505 79.933022 
L 367.670495 79.369794 
L 367.984158 79.032915 
L 368.297822 79.084366 
L 368.611485 79.449767 
L 368.925149 79.623897 
L 369.238812 79.974023 
L 369.866139 79.900449 
L 370.493465 79.395554 
L 371.120792 79.611841 
L 371.434455 79.334443 
L 371.748119 79.398389 
L 372.061782 78.846149 
L 372.689109 78.743661 
L 373.002772 78.859711 
L 373.316436 79.156806 
L 374.571089 79.099904 
L 375.512079 78.292694 
L 376.139406 78.566724 
L 376.766733 78.988451 
L 377.707723 79.154717 
L 378.021386 78.898814 
L 378.648713 80.781401 
L 378.962376 80.974498 
L 379.589703 81.729431 
L 379.903366 81.352692 
L 380.530693 81.789003 
L 380.844356 81.875678 
L 381.785347 82.475074 
L 382.09901 82.545692 
L 382.412673 82.164623 
L 383.353663 82.366206 
L 383.98099 81.987487 
L 385.235644 82.035727 
L 385.549307 82.69969 
L 385.86297 83.042969 
L 386.490297 82.8 
L 386.490297 82.8 
" style="fill:none;stroke:#1f77b4;stroke-linecap:square;stroke-width:1.5;"/>
   </g>
   <g id="line2d_12">
    <path clip-path="url(#p8db18bf29d)" d="M 34.56 82.8 
L 414.72 82.8 
" style="fill:none;stroke:#000000;stroke-dasharray:1.5,2.475;stroke-dashoffset:0;stroke-width:1.5;"/>
   </g>
   <g id="patch_3">
    <path d="M 34.56 162 
L 34.56 3.6 
" style="fill:none;stroke:#000000;stroke-linecap:square;stroke-linejoin:miter;stroke-width:0.8;"/>
   </g>
   <g id="patch_4">
    <path d="M 414.72 162 
L 414.72 3.6 
" style="fill:none;stroke:#000000;stroke-linecap:square;stroke-linejoin:miter;stroke-width:0.8;"/>
   </g>
   <g id="patch_5">
    <path d="M 34.56 162 
L 414.72 162 
" style="fill:none;stroke:#000000;stroke-linecap:square;stroke-linejoin:miter;stroke-width:0.8;"/>
   </g>
   <g id="patch_6">
    <path d="M 34.56 3.6 
L 414.72 3.6 
" style="fill:none;stroke:#000000;stroke-linecap:square;stroke-linejoin:miter;stroke-width:0.8;"/>
   </g>
  </g>
 </g>
 <defs>
  <clipPath id="p8db18bf29d">
   <rect height="158.4" width="380.16" x="34.56" y="3.6"/>
  </clipPath>
 </defs>
</svg>
