<?xml version="1.0" encoding="utf-8" standalone="no"?>
<!DOCTYPE svg PUBLIC "-//W3C//DTD SVG 1.1//EN"
  "http://www.w3.org/Graphics/SVG/1.1/DTD/svg11.dtd">
<svg height="180pt" version="1.1" viewBox="0 0 432 180" width="432pt" xmlns="http://www.w3.org/2000/svg" xmlns:xlink="http://www.w3.org/1999/xlink">
 <metadata>
  <rdf:RDF xmlns:cc="http://creativecommons.org/ns#" xmlns:dc="http://purl.org/dc/elements/1.1/" xmlns:rdf="http://www.w3.org/1999/02/22-rdf-syntax-ns#">
   <cc:Work>
    <dc:type rdf:resource="http://purl.org/dc/dcmitype/StillImage"/>
    <dc:date>2021-08-10T10:27:39.261957</dc:date>
    <dc:format>image/svg+xml</dc:format>
    <dc:creator>
     <cc:Agent>
      <dc:title>Matplotlib v3.4.2, https://matplotlib.org/</dc:title>
     </cc:Agent>
    </dc:creator>
   </cc:Work>
  </rdf:RDF>
 </metadata>
 <defs>
  <style type="text/css">*{stroke-linecap:butt;stroke-linejoin:round;}</style>
 </defs>
 <g id="figure_1">
  <g id="patch_1">
   <path d="M 0 180 
L 432 180 
L 432 0 
L 0 0 
z
" style="fill:#ffffff;"/>
  </g>
  <g id="axes_1">
   <g id="patch_2">
    <path d="M 34.56 162 
L 414.72 162 
L 414.72 3.6 
L 34.56 3.6 
z
" style="fill:#ffffff;"/>
   </g>
   <g id="PolyCollection_1">
    <defs>
     <path d="M 72.324238 -97.614442 
L 72.324238 -96.785558 
L 72.743841 -96.372826 
L 73.163444 -95.961233 
L 73.583046 -95.550779 
L 74.002649 -95.141463 
L 74.422252 -94.733285 
L 74.841854 -94.326246 
L 75.261457 -93.920346 
L 75.68106 -93.515584 
L 76.100662 -93.111961 
L 76.520265 -92.709477 
L 76.939868 -92.308131 
L 77.35947 -91.907923 
L 77.779073 -91.508854 
L 78.198675 -91.110924 
L 78.618278 -90.714132 
L 79.037881 -90.318479 
L 79.457483 -89.923965 
L 79.877086 -89.530589 
L 80.296689 -89.138351 
L 80.716291 -88.747252 
L 81.135894 -88.357292 
L 81.555497 -87.96847 
L 81.975099 -87.580787 
L 82.394702 -87.194243 
L 82.814305 -86.808837 
L 83.233907 -86.424569 
L 83.65351 -86.04144 
L 84.073113 -85.65945 
L 84.492715 -85.278598 
L 84.912318 -84.898885 
L 85.331921 -84.52031 
L 85.751523 -84.142874 
L 86.171126 -83.766577 
L 86.590728 -83.391418 
L 87.010331 -83.017398 
L 87.429934 -82.644516 
L 87.849536 -82.272773 
L 88.269139 -81.902168 
L 88.688742 -81.532702 
L 89.108344 -81.164375 
L 89.527947 -80.797186 
L 89.94755 -80.431135 
L 90.367152 -80.066224 
L 90.786755 -79.702451 
L 91.206358 -79.339816 
L 91.62596 -78.97832 
L 92.045563 -78.617962 
L 92.465166 -78.258744 
L 92.884768 -77.900663 
L 93.304371 -77.543721 
L 93.723974 -77.187918 
L 94.143576 -76.833254 
L 94.563179 -76.479728 
L 94.982781 -76.12734 
L 95.402384 -75.776091 
L 95.821987 -75.425981 
L 96.241589 -75.077009 
L 96.661192 -74.729176 
L 97.080795 -74.382481 
L 97.500397 -74.036925 
L 97.92 -73.692508 
L 98.339603 -73.349229 
L 98.759205 -73.007088 
L 99.178808 -72.666087 
L 99.598411 -72.326223 
L 100.018013 -71.987499 
L 100.437616 -71.649913 
L 100.857219 -71.313465 
L 101.276821 -70.978156 
L 101.696424 -70.643986 
L 102.116026 -70.310954 
L 102.535629 -69.979061 
L 102.955232 -69.648306 
L 103.374834 -69.31869 
L 103.794437 -68.990213 
L 104.21404 -68.662874 
L 104.633642 -68.336673 
L 105.053245 -68.011612 
L 105.472848 -67.687688 
L 105.89245 -67.364904 
L 106.312053 -67.043258 
L 106.731656 -66.72275 
L 107.151258 -66.403381 
L 107.570861 -66.085151 
L 107.990464 -65.768059 
L 108.410066 -65.452106 
L 108.829669 -65.137291 
L 109.249272 -64.823615 
L 109.668874 -64.511077 
L 110.088477 -64.199678 
L 110.508079 -63.889418 
L 110.927682 -63.580296 
L 111.347285 -63.272313 
L 111.766887 -62.965468 
L 112.18649 -62.659762 
L 112.606093 -62.355195 
L 113.025695 -62.051766 
L 113.445298 -61.749475 
L 113.864901 -61.448324 
L 114.284503 -61.14831 
L 114.704106 -60.849436 
L 115.123709 -60.551699 
L 115.543311 -60.255102 
L 115.962914 -59.959643 
L 116.382517 -59.665323 
L 116.802119 -59.372141 
L 117.221722 -59.080097 
L 117.641325 -58.789193 
L 118.060927 -58.499427 
L 118.48053 -58.210799 
L 118.900132 -57.92331 
L 119.319735 -57.63696 
L 119.739338 -57.351748 
L 120.15894 -57.067675 
L 120.578543 -56.78474 
L 120.998146 -56.502944 
L 121.417748 -56.222286 
L 121.837351 -55.942767 
L 122.256954 -55.664387 
L 122.676556 -55.387145 
L 123.096159 -55.111042 
L 123.515762 -54.836077 
L 123.935364 -54.562251 
L 124.354967 -54.289563 
L 124.77457 -54.018014 
L 125.194172 -53.747604 
L 125.613775 -53.478332 
L 126.033377 -53.210199 
L 126.45298 -52.943204 
L 126.872583 -52.677348 
L 127.292185 -52.41263 
L 127.711788 -52.149051 
L 128.131391 -51.886611 
L 128.550993 -51.625309 
L 128.970596 -51.365146 
L 129.390199 -51.106121 
L 129.809801 -50.848235 
L 130.229404 -50.591487 
L 130.649007 -50.335878 
L 131.068609 -50.081408 
L 131.488212 -49.828076 
L 131.907815 -49.575883 
L 132.327417 -49.324828 
L 132.74702 -49.074912 
L 133.166623 -48.826134 
L 133.586225 -48.578495 
L 134.005828 -48.331995 
L 134.42543 -48.086633 
L 134.845033 -47.842409 
L 135.264636 -47.599325 
L 135.684238 -47.357379 
L 136.103841 -47.116571 
L 136.523444 -46.876902 
L 136.943046 -46.638371 
L 137.362649 -46.40098 
L 137.782252 -46.164726 
L 138.201854 -45.929611 
L 138.621457 -45.695635 
L 139.04106 -45.462798 
L 139.460662 -45.231099 
L 139.880265 -45.000538 
L 140.299868 -44.771116 
L 140.71947 -44.542833 
L 141.139073 -44.315688 
L 141.558675 -44.089682 
L 141.978278 -43.864814 
L 142.397881 -43.641085 
L 142.817483 -43.418495 
L 143.237086 -43.197043 
L 143.656689 -42.97673 
L 144.076291 -42.757555 
L 144.495894 -42.539519 
L 144.915497 -42.322621 
L 145.335099 -42.106862 
L 145.754702 -41.892241 
L 146.174305 -41.67876 
L 146.593907 -41.466416 
L 147.01351 -41.255211 
L 147.433113 -41.045145 
L 147.852715 -40.836218 
L 148.272318 -40.628429 
L 148.691921 -40.421778 
L 149.111523 -40.216266 
L 149.531126 -40.011893 
L 149.950728 -39.808658 
L 150.370331 -39.606562 
L 150.789934 -39.405604 
L 151.209536 -39.205785 
L 151.629139 -39.007105 
L 152.048742 -38.809563 
L 152.468344 -38.613159 
L 152.887947 -38.417894 
L 153.30755 -38.223768 
L 153.727152 -38.030781 
L 154.146755 -37.838931 
L 154.566358 -37.648221 
L 154.98596 -37.458649 
L 155.405563 -37.270216 
L 155.825166 -37.082921 
L 156.244768 -36.896765 
L 156.664371 -36.711747 
L 157.083974 -36.527868 
L 157.503576 -36.345127 
L 157.923179 -36.163525 
L 158.342781 -35.983062 
L 158.762384 -35.803737 
L 159.181987 -35.625551 
L 159.601589 -35.448503 
L 160.021192 -35.272594 
L 160.440795 -35.097824 
L 160.860397 -34.924192 
L 161.28 -34.751698 
L 161.699603 -34.580344 
L 162.119205 -34.410127 
L 162.538808 -34.24105 
L 162.958411 -34.07311 
L 163.378013 -33.90631 
L 163.797616 -33.740648 
L 164.217219 -33.576125 
L 164.636821 -33.41274 
L 165.056424 -33.250494 
L 165.476026 -33.089386 
L 165.895629 -32.929417 
L 166.315232 -32.770586 
L 166.734834 -32.612894 
L 167.154437 -32.456341 
L 167.57404 -32.300926 
L 167.993642 -32.14665 
L 168.413245 -31.993512 
L 168.832848 -31.841513 
L 169.25245 -31.690652 
L 169.672053 -31.54093 
L 170.091656 -31.392347 
L 170.511258 -31.244902 
L 170.930861 -31.098596 
L 171.350464 -30.953428 
L 171.770066 -30.809399 
L 172.189669 -30.666508 
L 172.609272 -30.524756 
L 173.028874 -30.384143 
L 173.448477 -30.244668 
L 173.868079 -30.106332 
L 174.287682 -29.969134 
L 174.707285 -29.833075 
L 175.126887 -29.698154 
L 175.54649 -29.564372 
L 175.966093 -29.431729 
L 176.385695 -29.300224 
L 176.805298 -29.169858 
L 177.224901 -29.04063 
L 177.644503 -28.912541 
L 178.064106 -28.78559 
L 178.483709 -28.659778 
L 178.903311 -28.535105 
L 179.322914 -28.41157 
L 179.742517 -28.289174 
L 180.162119 -28.167916 
L 180.581722 -28.047797 
L 181.001325 -27.928816 
L 181.420927 -27.810974 
L 181.84053 -27.694271 
L 182.260132 -27.578706 
L 182.679735 -27.46428 
L 183.099338 -27.350992 
L 183.51894 -27.238843 
L 183.938543 -27.127832 
L 184.358146 -27.01796 
L 184.777748 -26.909227 
L 185.197351 -26.801632 
L 185.616954 -26.695175 
L 186.036556 -26.589858 
L 186.456159 -26.485679 
L 186.875762 -26.382638 
L 187.295364 -26.280736 
L 187.714967 -26.179972 
L 188.13457 -26.080348 
L 188.554172 -25.981861 
L 188.973775 -25.884513 
L 189.393377 -25.788304 
L 189.81298 -25.693234 
L 190.232583 -25.599302 
L 190.652185 -25.506508 
L 191.071788 -25.414853 
L 191.491391 -25.324337 
L 191.910993 -25.234959 
L 192.330596 -25.14672 
L 192.750199 -25.059619 
L 193.169801 -24.973657 
L 193.589404 -24.888834 
L 194.009007 -24.805149 
L 194.428609 -24.722603 
L 194.848212 -24.641195 
L 195.267815 -24.560926 
L 195.687417 -24.481795 
L 196.10702 -24.403803 
L 196.526623 -24.326949 
L 196.946225 -24.251235 
L 197.365828 -24.176658 
L 197.78543 -24.10322 
L 198.205033 -24.030921 
L 198.624636 -23.959761 
L 199.044238 -23.889738 
L 199.463841 -23.820855 
L 199.883444 -23.75311 
L 200.303046 -23.686504 
L 200.722649 -23.621036 
L 201.142252 -23.556707 
L 201.561854 -23.493516 
L 201.981457 -23.431464 
L 202.40106 -23.37055 
L 202.820662 -23.310776 
L 203.240265 -23.252139 
L 203.659868 -23.194641 
L 204.07947 -23.138282 
L 204.499073 -23.083061 
L 204.918675 -23.028979 
L 205.338278 -22.976036 
L 205.757881 -22.924231 
L 206.177483 -22.873565 
L 206.597086 -22.824037 
L 207.016689 -22.775648 
L 207.436291 -22.728397 
L 207.855894 -22.682285 
L 208.275497 -22.637311 
L 208.695099 -22.593476 
L 209.114702 -22.55078 
L 209.534305 -22.509222 
L 209.953907 -22.468803 
L 210.37351 -22.429522 
L 210.793113 -22.39138 
L 211.212715 -22.354377 
L 211.632318 -22.318512 
L 212.051921 -22.283785 
L 212.471523 -22.250197 
L 212.891126 -22.217748 
L 213.310728 -22.186437 
L 213.730331 -22.156265 
L 214.149934 -22.127232 
L 214.569536 -22.099337 
L 214.989139 -22.07258 
L 215.408742 -22.046963 
L 215.828344 -22.022483 
L 216.247947 -21.999143 
L 216.66755 -21.97694 
L 217.087152 -21.955877 
L 217.506755 -21.935952 
L 217.926358 -21.917166 
L 218.34596 -21.899518 
L 218.765563 -21.883008 
L 219.185166 -21.867638 
L 219.604768 -21.853406 
L 220.024371 -21.840312 
L 220.443974 -21.828357 
L 220.863576 -21.817541 
L 221.283179 -21.807863 
L 221.702781 -21.799324 
L 222.122384 -21.791923 
L 222.541987 -21.785661 
L 222.961589 -21.780537 
L 223.381192 -21.776552 
L 223.800795 -21.773706 
L 224.220397 -21.771998 
L 224.64 -21.771429 
L 225.059603 -21.771998 
L 225.479205 -21.773706 
L 225.898808 -21.776552 
L 226.318411 -21.780537 
L 226.738013 -21.785661 
L 227.157616 -21.791923 
L 227.577219 -21.799324 
L 227.996821 -21.807863 
L 228.416424 -21.817541 
L 228.836026 -21.828357 
L 229.255629 -21.840312 
L 229.675232 -21.853406 
L 230.094834 -21.867638 
L 230.514437 -21.883008 
L 230.93404 -21.899518 
L 231.353642 -21.917166 
L 231.773245 -21.935952 
L 232.192848 -21.955877 
L 232.61245 -21.97694 
L 233.032053 -21.999143 
L 233.451656 -22.022483 
L 233.871258 -22.046963 
L 234.290861 -22.07258 
L 234.710464 -22.099337 
L 235.130066 -22.127232 
L 235.549669 -22.156265 
L 235.969272 -22.186437 
L 236.388874 -22.217748 
L 236.808477 -22.250197 
L 237.228079 -22.283785 
L 237.647682 -22.318512 
L 238.067285 -22.354377 
L 238.486887 -22.39138 
L 238.90649 -22.429522 
L 239.326093 -22.468803 
L 239.745695 -22.509222 
L 240.165298 -22.55078 
L 240.584901 -22.593476 
L 241.004503 -22.637311 
L 241.424106 -22.682285 
L 241.843709 -22.728397 
L 242.263311 -22.775648 
L 242.682914 -22.824037 
L 243.102517 -22.873565 
L 243.522119 -22.924231 
L 243.941722 -22.976036 
L 244.361325 -23.028979 
L 244.780927 -23.083061 
L 245.20053 -23.138282 
L 245.620132 -23.194641 
L 246.039735 -23.252139 
L 246.459338 -23.310776 
L 246.87894 -23.37055 
L 247.298543 -23.431464 
L 247.718146 -23.493516 
L 248.137748 -23.556707 
L 248.557351 -23.621036 
L 248.976954 -23.686504 
L 249.396556 -23.75311 
L 249.816159 -23.820855 
L 250.235762 -23.889738 
L 250.655364 -23.959761 
L 251.074967 -24.030921 
L 251.49457 -24.10322 
L 251.914172 -24.176658 
L 252.333775 -24.251235 
L 252.753377 -24.326949 
L 253.17298 -24.403803 
L 253.592583 -24.481795 
L 254.012185 -24.560926 
L 254.431788 -24.641195 
L 254.851391 -24.722603 
L 255.270993 -24.805149 
L 255.690596 -24.888834 
L 256.110199 -24.973657 
L 256.529801 -25.059619 
L 256.949404 -25.14672 
L 257.369007 -25.234959 
L 257.788609 -25.324337 
L 258.208212 -25.414853 
L 258.627815 -25.506508 
L 259.047417 -25.599302 
L 259.46702 -25.693234 
L 259.886623 -25.788304 
L 260.306225 -25.884513 
L 260.725828 -25.981861 
L 261.14543 -26.080348 
L 261.565033 -26.179972 
L 261.984636 -26.280736 
L 262.404238 -26.382638 
L 262.823841 -26.485679 
L 263.243444 -26.589858 
L 263.663046 -26.695175 
L 264.082649 -26.801632 
L 264.502252 -26.909227 
L 264.921854 -27.01796 
L 265.341457 -27.127832 
L 265.76106 -27.238843 
L 266.180662 -27.350992 
L 266.600265 -27.46428 
L 267.019868 -27.578706 
L 267.43947 -27.694271 
L 267.859073 -27.810974 
L 268.278675 -27.928816 
L 268.698278 -28.047797 
L 269.117881 -28.167916 
L 269.537483 -28.289174 
L 269.957086 -28.41157 
L 270.376689 -28.535105 
L 270.796291 -28.659778 
L 271.215894 -28.78559 
L 271.635497 -28.912541 
L 272.055099 -29.04063 
L 272.474702 -29.169858 
L 272.894305 -29.300224 
L 273.313907 -29.431729 
L 273.73351 -29.564372 
L 274.153113 -29.698154 
L 274.572715 -29.833075 
L 274.992318 -29.969134 
L 275.411921 -30.106332 
L 275.831523 -30.244668 
L 276.251126 -30.384143 
L 276.670728 -30.524756 
L 277.090331 -30.666508 
L 277.509934 -30.809399 
L 277.929536 -30.953428 
L 278.349139 -31.098596 
L 278.768742 -31.244902 
L 279.188344 -31.392347 
L 279.607947 -31.54093 
L 280.02755 -31.690652 
L 280.447152 -31.841513 
L 280.866755 -31.993512 
L 281.286358 -32.14665 
L 281.70596 -32.300926 
L 282.125563 -32.456341 
L 282.545166 -32.612894 
L 282.964768 -32.770586 
L 283.384371 -32.929417 
L 283.803974 -33.089386 
L 284.223576 -33.250494 
L 284.643179 -33.41274 
L 285.062781 -33.576125 
L 285.482384 -33.740648 
L 285.901987 -33.90631 
L 286.321589 -34.07311 
L 286.741192 -34.24105 
L 287.160795 -34.410127 
L 287.580397 -34.580344 
L 288 -34.751698 
L 288.419603 -34.924192 
L 288.839205 -35.097824 
L 289.258808 -35.272594 
L 289.678411 -35.448503 
L 290.098013 -35.625551 
L 290.517616 -35.803737 
L 290.937219 -35.983062 
L 291.356821 -36.163525 
L 291.776424 -36.345127 
L 292.196026 -36.527868 
L 292.615629 -36.711747 
L 293.035232 -36.896765 
L 293.454834 -37.082921 
L 293.874437 -37.270216 
L 294.29404 -37.458649 
L 294.713642 -37.648221 
L 295.133245 -37.838931 
L 295.552848 -38.030781 
L 295.97245 -38.223768 
L 296.392053 -38.417894 
L 296.811656 -38.613159 
L 297.231258 -38.809563 
L 297.650861 -39.007105 
L 298.070464 -39.205785 
L 298.490066 -39.405604 
L 298.909669 -39.606562 
L 299.329272 -39.808658 
L 299.748874 -40.011893 
L 300.168477 -40.216266 
L 300.588079 -40.421778 
L 301.007682 -40.628429 
L 301.427285 -40.836218 
L 301.846887 -41.045145 
L 302.26649 -41.255211 
L 302.686093 -41.466416 
L 303.105695 -41.67876 
L 303.525298 -41.892241 
L 303.944901 -42.106862 
L 304.364503 -42.322621 
L 304.784106 -42.539519 
L 305.203709 -42.757555 
L 305.623311 -42.97673 
L 306.042914 -43.197043 
L 306.462517 -43.418495 
L 306.882119 -43.641085 
L 307.301722 -43.864814 
L 307.721325 -44.089682 
L 308.140927 -44.315688 
L 308.56053 -44.542833 
L 308.980132 -44.771116 
L 309.399735 -45.000538 
L 309.819338 -45.231099 
L 310.23894 -45.462798 
L 310.658543 -45.695635 
L 311.078146 -45.929611 
L 311.497748 -46.164726 
L 311.917351 -46.40098 
L 312.336954 -46.638371 
L 312.756556 -46.876902 
L 313.176159 -47.116571 
L 313.595762 -47.357379 
L 314.015364 -47.599325 
L 314.434967 -47.842409 
L 314.85457 -48.086633 
L 315.274172 -48.331995 
L 315.693775 -48.578495 
L 316.113377 -48.826134 
L 316.53298 -49.074912 
L 316.952583 -49.324828 
L 317.372185 -49.575883 
L 317.791788 -49.828076 
L 318.211391 -50.081408 
L 318.630993 -50.335878 
L 319.050596 -50.591487 
L 319.470199 -50.848235 
L 319.889801 -51.106121 
L 320.309404 -51.365146 
L 320.729007 -51.625309 
L 321.148609 -51.886611 
L 321.568212 -52.149051 
L 321.987815 -52.41263 
L 322.407417 -52.677348 
L 322.82702 -52.943204 
L 323.246623 -53.210199 
L 323.666225 -53.478332 
L 324.085828 -53.747604 
L 324.50543 -54.018014 
L 324.925033 -54.289563 
L 325.344636 -54.562251 
L 325.764238 -54.836077 
L 326.183841 -55.111042 
L 326.603444 -55.387145 
L 327.023046 -55.664387 
L 327.442649 -55.942767 
L 327.862252 -56.222286 
L 328.281854 -56.502944 
L 328.701457 -56.78474 
L 329.12106 -57.067675 
L 329.540662 -57.351748 
L 329.960265 -57.63696 
L 330.379868 -57.92331 
L 330.79947 -58.210799 
L 331.219073 -58.499427 
L 331.638675 -58.789193 
L 332.058278 -59.080097 
L 332.477881 -59.372141 
L 332.897483 -59.665323 
L 333.317086 -59.959643 
L 333.736689 -60.255102 
L 334.156291 -60.551699 
L 334.575894 -60.849436 
L 334.995497 -61.14831 
L 335.415099 -61.448324 
L 335.834702 -61.749475 
L 336.254305 -62.051766 
L 336.673907 -62.355195 
L 337.09351 -62.659762 
L 337.513113 -62.965468 
L 337.932715 -63.272313 
L 338.352318 -63.580296 
L 338.771921 -63.889418 
L 339.191523 -64.199678 
L 339.611126 -64.511077 
L 340.030728 -64.823615 
L 340.450331 -65.137291 
L 340.869934 -65.452106 
L 341.289536 -65.768059 
L 341.709139 -66.085151 
L 342.128742 -66.403381 
L 342.548344 -66.72275 
L 342.967947 -67.043258 
L 343.38755 -67.364904 
L 343.807152 -67.687688 
L 344.226755 -68.011612 
L 344.646358 -68.336673 
L 345.06596 -68.662874 
L 345.485563 -68.990213 
L 345.905166 -69.31869 
L 346.324768 -69.648306 
L 346.744371 -69.979061 
L 347.163974 -70.310954 
L 347.583576 -70.643986 
L 348.003179 -70.978156 
L 348.422781 -71.313465 
L 348.842384 -71.649913 
L 349.261987 -71.987499 
L 349.681589 -72.326223 
L 350.101192 -72.666087 
L 350.520795 -73.007088 
L 350.940397 -73.349229 
L 351.36 -73.692508 
L 351.779603 -74.036925 
L 352.199205 -74.382481 
L 352.618808 -74.729176 
L 353.038411 -75.077009 
L 353.458013 -75.425981 
L 353.877616 -75.776091 
L 354.297219 -76.12734 
L 354.716821 -76.479728 
L 355.136424 -76.833254 
L 355.556026 -77.187918 
L 355.975629 -77.543721 
L 356.395232 -77.900663 
L 356.814834 -78.258744 
L 357.234437 -78.617962 
L 357.65404 -78.97832 
L 358.073642 -79.339816 
L 358.493245 -79.702451 
L 358.912848 -80.066224 
L 359.33245 -80.431135 
L 359.752053 -80.797186 
L 360.171656 -81.164375 
L 360.591258 -81.532702 
L 361.010861 -81.902168 
L 361.430464 -82.272773 
L 361.850066 -82.644516 
L 362.269669 -83.017398 
L 362.689272 -83.391418 
L 363.108874 -83.766577 
L 363.528477 -84.142874 
L 363.948079 -84.52031 
L 364.367682 -84.898885 
L 364.787285 -85.278598 
L 365.206887 -85.65945 
L 365.62649 -86.04144 
L 366.046093 -86.424569 
L 366.465695 -86.808837 
L 366.885298 -87.194243 
L 367.304901 -87.580787 
L 367.724503 -87.96847 
L 368.144106 -88.357292 
L 368.563709 -88.747252 
L 368.983311 -89.138351 
L 369.402914 -89.530589 
L 369.822517 -89.923965 
L 370.242119 -90.318479 
L 370.661722 -90.714132 
L 371.081325 -91.110924 
L 371.500927 -91.508854 
L 371.92053 -91.907923 
L 372.340132 -92.308131 
L 372.759735 -92.709477 
L 373.179338 -93.111961 
L 373.59894 -93.515584 
L 374.018543 -93.920346 
L 374.438146 -94.326246 
L 374.857748 -94.733285 
L 375.277351 -95.141463 
L 375.696954 -95.550779 
L 376.116556 -95.961233 
L 376.536159 -96.372826 
L 376.955762 -96.785558 
L 376.955762 -97.614442 
L 376.955762 -97.614442 
L 376.536159 -98.027174 
L 376.116556 -98.438767 
L 375.696954 -98.849221 
L 375.277351 -99.258537 
L 374.857748 -99.666715 
L 374.438146 -100.073754 
L 374.018543 -100.479654 
L 373.59894 -100.884416 
L 373.179338 -101.288039 
L 372.759735 -101.690523 
L 372.340132 -102.091869 
L 371.92053 -102.492077 
L 371.500927 -102.891146 
L 371.081325 -103.289076 
L 370.661722 -103.685868 
L 370.242119 -104.081521 
L 369.822517 -104.476035 
L 369.402914 -104.869411 
L 368.983311 -105.261649 
L 368.563709 -105.652748 
L 368.144106 -106.042708 
L 367.724503 -106.43153 
L 367.304901 -106.819213 
L 366.885298 -107.205757 
L 366.465695 -107.591163 
L 366.046093 -107.975431 
L 365.62649 -108.35856 
L 365.206887 -108.74055 
L 364.787285 -109.121402 
L 364.367682 -109.501115 
L 363.948079 -109.87969 
L 363.528477 -110.257126 
L 363.108874 -110.633423 
L 362.689272 -111.008582 
L 362.269669 -111.382602 
L 361.850066 -111.755484 
L 361.430464 -112.127227 
L 361.010861 -112.497832 
L 360.591258 -112.867298 
L 360.171656 -113.235625 
L 359.752053 -113.602814 
L 359.33245 -113.968865 
L 358.912848 -114.333776 
L 358.493245 -114.697549 
L 358.073642 -115.060184 
L 357.65404 -115.42168 
L 357.234437 -115.782038 
L 356.814834 -116.141256 
L 356.395232 -116.499337 
L 355.975629 -116.856279 
L 355.556026 -117.212082 
L 355.136424 -117.566746 
L 354.716821 -117.920272 
L 354.297219 -118.27266 
L 353.877616 -118.623909 
L 353.458013 -118.974019 
L 353.038411 -119.322991 
L 352.618808 -119.670824 
L 352.199205 -120.017519 
L 351.779603 -120.363075 
L 351.36 -120.707492 
L 350.940397 -121.050771 
L 350.520795 -121.392912 
L 350.101192 -121.733913 
L 349.681589 -122.073777 
L 349.261987 -122.412501 
L 348.842384 -122.750087 
L 348.422781 -123.086535 
L 348.003179 -123.421844 
L 347.583576 -123.756014 
L 347.163974 -124.089046 
L 346.744371 -124.420939 
L 346.324768 -124.751694 
L 345.905166 -125.08131 
L 345.485563 -125.409787 
L 345.06596 -125.737126 
L 344.646358 -126.063327 
L 344.226755 -126.388388 
L 343.807152 -126.712312 
L 343.38755 -127.035096 
L 342.967947 -127.356742 
L 342.548344 -127.67725 
L 342.128742 -127.996619 
L 341.709139 -128.314849 
L 341.289536 -128.631941 
L 340.869934 -128.947894 
L 340.450331 -129.262709 
L 340.030728 -129.576385 
L 339.611126 -129.888923 
L 339.191523 -130.200322 
L 338.771921 -130.510582 
L 338.352318 -130.819704 
L 337.932715 -131.127687 
L 337.513113 -131.434532 
L 337.09351 -131.740238 
L 336.673907 -132.044805 
L 336.254305 -132.348234 
L 335.834702 -132.650525 
L 335.415099 -132.951676 
L 334.995497 -133.25169 
L 334.575894 -133.550564 
L 334.156291 -133.848301 
L 333.736689 -134.144898 
L 333.317086 -134.440357 
L 332.897483 -134.734677 
L 332.477881 -135.027859 
L 332.058278 -135.319903 
L 331.638675 -135.610807 
L 331.219073 -135.900573 
L 330.79947 -136.189201 
L 330.379868 -136.47669 
L 329.960265 -136.76304 
L 329.540662 -137.048252 
L 329.12106 -137.332325 
L 328.701457 -137.61526 
L 328.281854 -137.897056 
L 327.862252 -138.177714 
L 327.442649 -138.457233 
L 327.023046 -138.735613 
L 326.603444 -139.012855 
L 326.183841 -139.288958 
L 325.764238 -139.563923 
L 325.344636 -139.837749 
L 324.925033 -140.110437 
L 324.50543 -140.381986 
L 324.085828 -140.652396 
L 323.666225 -140.921668 
L 323.246623 -141.189801 
L 322.82702 -141.456796 
L 322.407417 -141.722652 
L 321.987815 -141.98737 
L 321.568212 -142.250949 
L 321.148609 -142.513389 
L 320.729007 -142.774691 
L 320.309404 -143.034854 
L 319.889801 -143.293879 
L 319.470199 -143.551765 
L 319.050596 -143.808513 
L 318.630993 -144.064122 
L 318.211391 -144.318592 
L 317.791788 -144.571924 
L 317.372185 -144.824117 
L 316.952583 -145.075172 
L 316.53298 -145.325088 
L 316.113377 -145.573866 
L 315.693775 -145.821505 
L 315.274172 -146.068005 
L 314.85457 -146.313367 
L 314.434967 -146.557591 
L 314.015364 -146.800675 
L 313.595762 -147.042621 
L 313.176159 -147.283429 
L 312.756556 -147.523098 
L 312.336954 -147.761629 
L 311.917351 -147.99902 
L 311.497748 -148.235274 
L 311.078146 -148.470389 
L 310.658543 -148.704365 
L 310.23894 -148.937202 
L 309.819338 -149.168901 
L 309.399735 -149.399462 
L 308.980132 -149.628884 
L 308.56053 -149.857167 
L 308.140927 -150.084312 
L 307.721325 -150.310318 
L 307.301722 -150.535186 
L 306.882119 -150.758915 
L 306.462517 -150.981505 
L 306.042914 -151.202957 
L 305.623311 -151.42327 
L 305.203709 -151.642445 
L 304.784106 -151.860481 
L 304.364503 -152.077379 
L 303.944901 -152.293138 
L 303.525298 -152.507759 
L 303.105695 -152.72124 
L 302.686093 -152.933584 
L 302.26649 -153.144789 
L 301.846887 -153.354855 
L 301.427285 -153.563782 
L 301.007682 -153.771571 
L 300.588079 -153.978222 
L 300.168477 -154.183734 
L 299.748874 -154.388107 
L 299.329272 -154.591342 
L 298.909669 -154.793438 
L 298.490066 -154.994396 
L 298.070464 -155.194215 
L 297.650861 -155.392895 
L 297.231258 -155.590437 
L 296.811656 -155.786841 
L 296.392053 -155.982106 
L 295.97245 -156.176232 
L 295.552848 -156.369219 
L 295.133245 -156.561069 
L 294.713642 -156.751779 
L 294.29404 -156.941351 
L 293.874437 -157.129784 
L 293.454834 -157.317079 
L 293.035232 -157.503235 
L 292.615629 -157.688253 
L 292.196026 -157.872132 
L 291.776424 -158.054873 
L 291.356821 -158.236475 
L 290.937219 -158.416938 
L 290.517616 -158.596263 
L 290.098013 -158.774449 
L 289.678411 -158.951497 
L 289.258808 -159.127406 
L 288.839205 -159.302176 
L 288.419603 -159.475808 
L 288 -159.648302 
L 287.580397 -159.819656 
L 287.160795 -159.989873 
L 286.741192 -160.15895 
L 286.321589 -160.32689 
L 285.901987 -160.49369 
L 285.482384 -160.659352 
L 285.062781 -160.823875 
L 284.643179 -160.98726 
L 284.223576 -161.149506 
L 283.803974 -161.310614 
L 283.384371 -161.470583 
L 282.964768 -161.629414 
L 282.545166 -161.787106 
L 282.125563 -161.943659 
L 281.70596 -162.099074 
L 281.286358 -162.25335 
L 280.866755 -162.406488 
L 280.447152 -162.558487 
L 280.02755 -162.709348 
L 279.607947 -162.85907 
L 279.188344 -163.007653 
L 278.768742 -163.155098 
L 278.349139 -163.301404 
L 277.929536 -163.446572 
L 277.509934 -163.590601 
L 277.090331 -163.733492 
L 276.670728 -163.875244 
L 276.251126 -164.015857 
L 275.831523 -164.155332 
L 275.411921 -164.293668 
L 274.992318 -164.430866 
L 274.572715 -164.566925 
L 274.153113 -164.701846 
L 273.73351 -164.835628 
L 273.313907 -164.968271 
L 272.894305 -165.099776 
L 272.474702 -165.230142 
L 272.055099 -165.35937 
L 271.635497 -165.487459 
L 271.215894 -165.61441 
L 270.796291 -165.740222 
L 270.376689 -165.864895 
L 269.957086 -165.98843 
L 269.537483 -166.110826 
L 269.117881 -166.232084 
L 268.698278 -166.352203 
L 268.278675 -166.471184 
L 267.859073 -166.589026 
L 267.43947 -166.705729 
L 267.019868 -166.821294 
L 266.600265 -166.93572 
L 266.180662 -167.049008 
L 265.76106 -167.161157 
L 265.341457 -167.272168 
L 264.921854 -167.38204 
L 264.502252 -167.490773 
L 264.082649 -167.598368 
L 263.663046 -167.704825 
L 263.243444 -167.810142 
L 262.823841 -167.914321 
L 262.404238 -168.017362 
L 261.984636 -168.119264 
L 261.565033 -168.220028 
L 261.14543 -168.319652 
L 260.725828 -168.418139 
L 260.306225 -168.515487 
L 259.886623 -168.611696 
L 259.46702 -168.706766 
L 259.047417 -168.800698 
L 258.627815 -168.893492 
L 258.208212 -168.985147 
L 257.788609 -169.075663 
L 257.369007 -169.165041 
L 256.949404 -169.25328 
L 256.529801 -169.340381 
L 256.110199 -169.426343 
L 255.690596 -169.511166 
L 255.270993 -169.594851 
L 254.851391 -169.677397 
L 254.431788 -169.758805 
L 254.012185 -169.839074 
L 253.592583 -169.918205 
L 253.17298 -169.996197 
L 252.753377 -170.073051 
L 252.333775 -170.148765 
L 251.914172 -170.223342 
L 251.49457 -170.29678 
L 251.074967 -170.369079 
L 250.655364 -170.440239 
L 250.235762 -170.510262 
L 249.816159 -170.579145 
L 249.396556 -170.64689 
L 248.976954 -170.713496 
L 248.557351 -170.778964 
L 248.137748 -170.843293 
L 247.718146 -170.906484 
L 247.298543 -170.968536 
L 246.87894 -171.02945 
L 246.459338 -171.089224 
L 246.039735 -171.147861 
L 245.620132 -171.205359 
L 245.20053 -171.261718 
L 244.780927 -171.316939 
L 244.361325 -171.371021 
L 243.941722 -171.423964 
L 243.522119 -171.475769 
L 243.102517 -171.526435 
L 242.682914 -171.575963 
L 242.263311 -171.624352 
L 241.843709 -171.671603 
L 241.424106 -171.717715 
L 241.004503 -171.762689 
L 240.584901 -171.806524 
L 240.165298 -171.84922 
L 239.745695 -171.890778 
L 239.326093 -171.931197 
L 238.90649 -171.970478 
L 238.486887 -172.00862 
L 238.067285 -172.045623 
L 237.647682 -172.081488 
L 237.228079 -172.116215 
L 236.808477 -172.149803 
L 236.388874 -172.182252 
L 235.969272 -172.213563 
L 235.549669 -172.243735 
L 235.130066 -172.272768 
L 234.710464 -172.300663 
L 234.290861 -172.32742 
L 233.871258 -172.353037 
L 233.451656 -172.377517 
L 233.032053 -172.400857 
L 232.61245 -172.42306 
L 232.192848 -172.444123 
L 231.773245 -172.464048 
L 231.353642 -172.482834 
L 230.93404 -172.500482 
L 230.514437 -172.516992 
L 230.094834 -172.532362 
L 229.675232 -172.546594 
L 229.255629 -172.559688 
L 228.836026 -172.571643 
L 228.416424 -172.582459 
L 227.996821 -172.592137 
L 227.577219 -172.600676 
L 227.157616 -172.608077 
L 226.738013 -172.614339 
L 226.318411 -172.619463 
L 225.898808 -172.623448 
L 225.479205 -172.626294 
L 225.059603 -172.628002 
L 224.64 -172.628571 
L 224.220397 -172.628002 
L 223.800795 -172.626294 
L 223.381192 -172.623448 
L 222.961589 -172.619463 
L 222.541987 -172.614339 
L 222.122384 -172.608077 
L 221.702781 -172.600676 
L 221.283179 -172.592137 
L 220.863576 -172.582459 
L 220.443974 -172.571643 
L 220.024371 -172.559688 
L 219.604768 -172.546594 
L 219.185166 -172.532362 
L 218.765563 -172.516992 
L 218.34596 -172.500482 
L 217.926358 -172.482834 
L 217.506755 -172.464048 
L 217.087152 -172.444123 
L 216.66755 -172.42306 
L 216.247947 -172.400857 
L 215.828344 -172.377517 
L 215.408742 -172.353037 
L 214.989139 -172.32742 
L 214.569536 -172.300663 
L 214.149934 -172.272768 
L 213.730331 -172.243735 
L 213.310728 -172.213563 
L 212.891126 -172.182252 
L 212.471523 -172.149803 
L 212.051921 -172.116215 
L 211.632318 -172.081488 
L 211.212715 -172.045623 
L 210.793113 -172.00862 
L 210.37351 -171.970478 
L 209.953907 -171.931197 
L 209.534305 -171.890778 
L 209.114702 -171.84922 
L 208.695099 -171.806524 
L 208.275497 -171.762689 
L 207.855894 -171.717715 
L 207.436291 -171.671603 
L 207.016689 -171.624352 
L 206.597086 -171.575963 
L 206.177483 -171.526435 
L 205.757881 -171.475769 
L 205.338278 -171.423964 
L 204.918675 -171.371021 
L 204.499073 -171.316939 
L 204.07947 -171.261718 
L 203.659868 -171.205359 
L 203.240265 -171.147861 
L 202.820662 -171.089224 
L 202.40106 -171.02945 
L 201.981457 -170.968536 
L 201.561854 -170.906484 
L 201.142252 -170.843293 
L 200.722649 -170.778964 
L 200.303046 -170.713496 
L 199.883444 -170.64689 
L 199.463841 -170.579145 
L 199.044238 -170.510262 
L 198.624636 -170.440239 
L 198.205033 -170.369079 
L 197.78543 -170.29678 
L 197.365828 -170.223342 
L 196.946225 -170.148765 
L 196.526623 -170.073051 
L 196.10702 -169.996197 
L 195.687417 -169.918205 
L 195.267815 -169.839074 
L 194.848212 -169.758805 
L 194.428609 -169.677397 
L 194.009007 -169.594851 
L 193.589404 -169.511166 
L 193.169801 -169.426343 
L 192.750199 -169.340381 
L 192.330596 -169.25328 
L 191.910993 -169.165041 
L 191.491391 -169.075663 
L 191.071788 -168.985147 
L 190.652185 -168.893492 
L 190.232583 -168.800698 
L 189.81298 -168.706766 
L 189.393377 -168.611696 
L 188.973775 -168.515487 
L 188.554172 -168.418139 
L 188.13457 -168.319652 
L 187.714967 -168.220028 
L 187.295364 -168.119264 
L 186.875762 -168.017362 
L 186.456159 -167.914321 
L 186.036556 -167.810142 
L 185.616954 -167.704825 
L 185.197351 -167.598368 
L 184.777748 -167.490773 
L 184.358146 -167.38204 
L 183.938543 -167.272168 
L 183.51894 -167.161157 
L 183.099338 -167.049008 
L 182.679735 -166.93572 
L 182.260132 -166.821294 
L 181.84053 -166.705729 
L 181.420927 -166.589026 
L 181.001325 -166.471184 
L 180.581722 -166.352203 
L 180.162119 -166.232084 
L 179.742517 -166.110826 
L 179.322914 -165.98843 
L 178.903311 -165.864895 
L 178.483709 -165.740222 
L 178.064106 -165.61441 
L 177.644503 -165.487459 
L 177.224901 -165.35937 
L 176.805298 -165.230142 
L 176.385695 -165.099776 
L 175.966093 -164.968271 
L 175.54649 -164.835628 
L 175.126887 -164.701846 
L 174.707285 -164.566925 
L 174.287682 -164.430866 
L 173.868079 -164.293668 
L 173.448477 -164.155332 
L 173.028874 -164.015857 
L 172.609272 -163.875244 
L 172.189669 -163.733492 
L 171.770066 -163.590601 
L 171.350464 -163.446572 
L 170.930861 -163.301404 
L 170.511258 -163.155098 
L 170.091656 -163.007653 
L 169.672053 -162.85907 
L 169.25245 -162.709348 
L 168.832848 -162.558487 
L 168.413245 -162.406488 
L 167.993642 -162.25335 
L 167.57404 -162.099074 
L 167.154437 -161.943659 
L 166.734834 -161.787106 
L 166.315232 -161.629414 
L 165.895629 -161.470583 
L 165.476026 -161.310614 
L 165.056424 -161.149506 
L 164.636821 -160.98726 
L 164.217219 -160.823875 
L 163.797616 -160.659352 
L 163.378013 -160.49369 
L 162.958411 -160.32689 
L 162.538808 -160.15895 
L 162.119205 -159.989873 
L 161.699603 -159.819656 
L 161.28 -159.648302 
L 160.860397 -159.475808 
L 160.440795 -159.302176 
L 160.021192 -159.127406 
L 159.601589 -158.951497 
L 159.181987 -158.774449 
L 158.762384 -158.596263 
L 158.342781 -158.416938 
L 157.923179 -158.236475 
L 157.503576 -158.054873 
L 157.083974 -157.872132 
L 156.664371 -157.688253 
L 156.244768 -157.503235 
L 155.825166 -157.317079 
L 155.405563 -157.129784 
L 154.98596 -156.941351 
L 154.566358 -156.751779 
L 154.146755 -156.561069 
L 153.727152 -156.369219 
L 153.30755 -156.176232 
L 152.887947 -155.982106 
L 152.468344 -155.786841 
L 152.048742 -155.590437 
L 151.629139 -155.392895 
L 151.209536 -155.194215 
L 150.789934 -154.994396 
L 150.370331 -154.793438 
L 149.950728 -154.591342 
L 149.531126 -154.388107 
L 149.111523 -154.183734 
L 148.691921 -153.978222 
L 148.272318 -153.771571 
L 147.852715 -153.563782 
L 147.433113 -153.354855 
L 147.01351 -153.144789 
L 146.593907 -152.933584 
L 146.174305 -152.72124 
L 145.754702 -152.507759 
L 145.335099 -152.293138 
L 144.915497 -152.077379 
L 144.495894 -151.860481 
L 144.076291 -151.642445 
L 143.656689 -151.42327 
L 143.237086 -151.202957 
L 142.817483 -150.981505 
L 142.397881 -150.758915 
L 141.978278 -150.535186 
L 141.558675 -150.310318 
L 141.139073 -150.084312 
L 140.71947 -149.857167 
L 140.299868 -149.628884 
L 139.880265 -149.399462 
L 139.460662 -149.168901 
L 139.04106 -148.937202 
L 138.621457 -148.704365 
L 138.201854 -148.470389 
L 137.782252 -148.235274 
L 137.362649 -147.99902 
L 136.943046 -147.761629 
L 136.523444 -147.523098 
L 136.103841 -147.283429 
L 135.684238 -147.042621 
L 135.264636 -146.800675 
L 134.845033 -146.557591 
L 134.42543 -146.313367 
L 134.005828 -146.068005 
L 133.586225 -145.821505 
L 133.166623 -145.573866 
L 132.74702 -145.325088 
L 132.327417 -145.075172 
L 131.907815 -144.824117 
L 131.488212 -144.571924 
L 131.068609 -144.318592 
L 130.649007 -144.064122 
L 130.229404 -143.808513 
L 129.809801 -143.551765 
L 129.390199 -143.293879 
L 128.970596 -143.034854 
L 128.550993 -142.774691 
L 128.131391 -142.513389 
L 127.711788 -142.250949 
L 127.292185 -141.98737 
L 126.872583 -141.722652 
L 126.45298 -141.456796 
L 126.033377 -141.189801 
L 125.613775 -140.921668 
L 125.194172 -140.652396 
L 124.77457 -140.381986 
L 124.354967 -140.110437 
L 123.935364 -139.837749 
L 123.515762 -139.563923 
L 123.096159 -139.288958 
L 122.676556 -139.012855 
L 122.256954 -138.735613 
L 121.837351 -138.457233 
L 121.417748 -138.177714 
L 120.998146 -137.897056 
L 120.578543 -137.61526 
L 120.15894 -137.332325 
L 119.739338 -137.048252 
L 119.319735 -136.76304 
L 118.900132 -136.47669 
L 118.48053 -136.189201 
L 118.060927 -135.900573 
L 117.641325 -135.610807 
L 117.221722 -135.319903 
L 116.802119 -135.027859 
L 116.382517 -134.734677 
L 115.962914 -134.440357 
L 115.543311 -134.144898 
L 115.123709 -133.848301 
L 114.704106 -133.550564 
L 114.284503 -133.25169 
L 113.864901 -132.951676 
L 113.445298 -132.650525 
L 113.025695 -132.348234 
L 112.606093 -132.044805 
L 112.18649 -131.740238 
L 111.766887 -131.434532 
L 111.347285 -131.127687 
L 110.927682 -130.819704 
L 110.508079 -130.510582 
L 110.088477 -130.200322 
L 109.668874 -129.888923 
L 109.249272 -129.576385 
L 108.829669 -129.262709 
L 108.410066 -128.947894 
L 107.990464 -128.631941 
L 107.570861 -128.314849 
L 107.151258 -127.996619 
L 106.731656 -127.67725 
L 106.312053 -127.356742 
L 105.89245 -127.035096 
L 105.472848 -126.712312 
L 105.053245 -126.388388 
L 104.633642 -126.063327 
L 104.21404 -125.737126 
L 103.794437 -125.409787 
L 103.374834 -125.08131 
L 102.955232 -124.751694 
L 102.535629 -124.420939 
L 102.116026 -124.089046 
L 101.696424 -123.756014 
L 101.276821 -123.421844 
L 100.857219 -123.086535 
L 100.437616 -122.750087 
L 100.018013 -122.412501 
L 99.598411 -122.073777 
L 99.178808 -121.733913 
L 98.759205 -121.392912 
L 98.339603 -121.050771 
L 97.92 -120.707492 
L 97.500397 -120.363075 
L 97.080795 -120.017519 
L 96.661192 -119.670824 
L 96.241589 -119.322991 
L 95.821987 -118.974019 
L 95.402384 -118.623909 
L 94.982781 -118.27266 
L 94.563179 -117.920272 
L 94.143576 -117.566746 
L 93.723974 -117.212082 
L 93.304371 -116.856279 
L 92.884768 -116.499337 
L 92.465166 -116.141256 
L 92.045563 -115.782038 
L 91.62596 -115.42168 
L 91.206358 -115.060184 
L 90.786755 -114.697549 
L 90.367152 -114.333776 
L 89.94755 -113.968865 
L 89.527947 -113.602814 
L 89.108344 -113.235625 
L 88.688742 -112.867298 
L 88.269139 -112.497832 
L 87.849536 -112.127227 
L 87.429934 -111.755484 
L 87.010331 -111.382602 
L 86.590728 -111.008582 
L 86.171126 -110.633423 
L 85.751523 -110.257126 
L 85.331921 -109.87969 
L 84.912318 -109.501115 
L 84.492715 -109.121402 
L 84.073113 -108.74055 
L 83.65351 -108.35856 
L 83.233907 -107.975431 
L 82.814305 -107.591163 
L 82.394702 -107.205757 
L 81.975099 -106.819213 
L 81.555497 -106.43153 
L 81.135894 -106.042708 
L 80.716291 -105.652748 
L 80.296689 -105.261649 
L 79.877086 -104.869411 
L 79.457483 -104.476035 
L 79.037881 -104.081521 
L 78.618278 -103.685868 
L 78.198675 -103.289076 
L 77.779073 -102.891146 
L 77.35947 -102.492077 
L 76.939868 -102.091869 
L 76.520265 -101.690523 
L 76.100662 -101.288039 
L 75.68106 -100.884416 
L 75.261457 -100.479654 
L 74.841854 -100.073754 
L 74.422252 -99.666715 
L 74.002649 -99.258537 
L 73.583046 -98.849221 
L 73.163444 -98.438767 
L 72.743841 -98.027174 
L 72.324238 -97.614442 
z
" id="m58770bb206" style="stroke:#0000ff;stroke-opacity:0.1;"/>
    </defs>
    <g clip-path="url(#pc77e1c7e78)">
     <use style="fill:#0000ff;fill-opacity:0.1;stroke:#0000ff;stroke-opacity:0.1;" x="0" xlink:href="#m58770bb206" y="180"/>
    </g>
   </g>
   <g id="matplotlib.axis_1">
    <g id="xtick_1">
     <g id="line2d_1">
      <defs>
       <path d="M 0 0 
L 0 3.5 
" id="mc2a33f3cfe" style="stroke:#000000;stroke-width:0.8;"/>
      </defs>
      <g>
       <use style="stroke:#000000;stroke-width:0.8;" x="72.114437" xlink:href="#mc2a33f3cfe" y="162"/>
      </g>
     </g>
     <g id="text_1">
      <!-- 1960 -->
      <g transform="translate(59.389437 176.598438)scale(0.1 -0.1)">
       <defs>
        <path d="M 794 531 
L 1825 531 
L 1825 4091 
L 703 3866 
L 703 4441 
L 1819 4666 
L 2450 4666 
L 2450 531 
L 3481 531 
L 3481 0 
L 794 0 
L 794 531 
z
" id="DejaVuSans-31" transform="scale(0.015625)"/>
        <path d="M 703 97 
L 703 672 
Q 941 559 1184 500 
Q 1428 441 1663 441 
Q 2288 441 2617 861 
Q 2947 1281 2994 2138 
Q 2813 1869 2534 1725 
Q 2256 1581 1919 1581 
Q 1219 1581 811 2004 
Q 403 2428 403 3163 
Q 403 3881 828 4315 
Q 1253 4750 1959 4750 
Q 2769 4750 3195 4129 
Q 3622 3509 3622 2328 
Q 3622 1225 3098 567 
Q 2575 -91 1691 -91 
Q 1453 -91 1209 -44 
Q 966 3 703 97 
z
M 1959 2075 
Q 2384 2075 2632 2365 
Q 2881 2656 2881 3163 
Q 2881 3666 2632 3958 
Q 2384 4250 1959 4250 
Q 1534 4250 1286 3958 
Q 1038 3666 1038 3163 
Q 1038 2656 1286 2365 
Q 1534 2075 1959 2075 
z
" id="DejaVuSans-39" transform="scale(0.015625)"/>
        <path d="M 2113 2584 
Q 1688 2584 1439 2293 
Q 1191 2003 1191 1497 
Q 1191 994 1439 701 
Q 1688 409 2113 409 
Q 2538 409 2786 701 
Q 3034 994 3034 1497 
Q 3034 2003 2786 2293 
Q 2538 2584 2113 2584 
z
M 3366 4563 
L 3366 3988 
Q 3128 4100 2886 4159 
Q 2644 4219 2406 4219 
Q 1781 4219 1451 3797 
Q 1122 3375 1075 2522 
Q 1259 2794 1537 2939 
Q 1816 3084 2150 3084 
Q 2853 3084 3261 2657 
Q 3669 2231 3669 1497 
Q 3669 778 3244 343 
Q 2819 -91 2113 -91 
Q 1303 -91 875 529 
Q 447 1150 447 2328 
Q 447 3434 972 4092 
Q 1497 4750 2381 4750 
Q 2619 4750 2861 4703 
Q 3103 4656 3366 4563 
z
" id="DejaVuSans-36" transform="scale(0.015625)"/>
        <path d="M 2034 4250 
Q 1547 4250 1301 3770 
Q 1056 3291 1056 2328 
Q 1056 1369 1301 889 
Q 1547 409 2034 409 
Q 2525 409 2770 889 
Q 3016 1369 3016 2328 
Q 3016 3291 2770 3770 
Q 2525 4250 2034 4250 
z
M 2034 4750 
Q 2819 4750 3233 4129 
Q 3647 3509 3647 2328 
Q 3647 1150 3233 529 
Q 2819 -91 2034 -91 
Q 1250 -91 836 529 
Q 422 1150 422 2328 
Q 422 3509 836 4129 
Q 1250 4750 2034 4750 
z
" id="DejaVuSans-30" transform="scale(0.015625)"/>
       </defs>
       <use xlink:href="#DejaVuSans-31"/>
       <use x="63.623047" xlink:href="#DejaVuSans-39"/>
       <use x="127.246094" xlink:href="#DejaVuSans-36"/>
       <use x="190.869141" xlink:href="#DejaVuSans-30"/>
      </g>
     </g>
    </g>
    <g id="xtick_2">
     <g id="line2d_2">
      <g>
       <use style="stroke:#000000;stroke-width:0.8;" x="122.466755" xlink:href="#mc2a33f3cfe" y="162"/>
      </g>
     </g>
     <g id="text_2">
      <!-- 1970 -->
      <g transform="translate(109.741755 176.598438)scale(0.1 -0.1)">
       <defs>
        <path d="M 525 4666 
L 3525 4666 
L 3525 4397 
L 1831 0 
L 1172 0 
L 2766 4134 
L 525 4134 
L 525 4666 
z
" id="DejaVuSans-37" transform="scale(0.015625)"/>
       </defs>
       <use xlink:href="#DejaVuSans-31"/>
       <use x="63.623047" xlink:href="#DejaVuSans-39"/>
       <use x="127.246094" xlink:href="#DejaVuSans-37"/>
       <use x="190.869141" xlink:href="#DejaVuSans-30"/>
      </g>
     </g>
    </g>
    <g id="xtick_3">
     <g id="line2d_3">
      <g>
       <use style="stroke:#000000;stroke-width:0.8;" x="172.819073" xlink:href="#mc2a33f3cfe" y="162"/>
      </g>
     </g>
     <g id="text_3">
      <!-- 1980 -->
      <g transform="translate(160.094073 176.598438)scale(0.1 -0.1)">
       <defs>
        <path d="M 2034 2216 
Q 1584 2216 1326 1975 
Q 1069 1734 1069 1313 
Q 1069 891 1326 650 
Q 1584 409 2034 409 
Q 2484 409 2743 651 
Q 3003 894 3003 1313 
Q 3003 1734 2745 1975 
Q 2488 2216 2034 2216 
z
M 1403 2484 
Q 997 2584 770 2862 
Q 544 3141 544 3541 
Q 544 4100 942 4425 
Q 1341 4750 2034 4750 
Q 2731 4750 3128 4425 
Q 3525 4100 3525 3541 
Q 3525 3141 3298 2862 
Q 3072 2584 2669 2484 
Q 3125 2378 3379 2068 
Q 3634 1759 3634 1313 
Q 3634 634 3220 271 
Q 2806 -91 2034 -91 
Q 1263 -91 848 271 
Q 434 634 434 1313 
Q 434 1759 690 2068 
Q 947 2378 1403 2484 
z
M 1172 3481 
Q 1172 3119 1398 2916 
Q 1625 2713 2034 2713 
Q 2441 2713 2670 2916 
Q 2900 3119 2900 3481 
Q 2900 3844 2670 4047 
Q 2441 4250 2034 4250 
Q 1625 4250 1398 4047 
Q 1172 3844 1172 3481 
z
" id="DejaVuSans-38" transform="scale(0.015625)"/>
       </defs>
       <use xlink:href="#DejaVuSans-31"/>
       <use x="63.623047" xlink:href="#DejaVuSans-39"/>
       <use x="127.246094" xlink:href="#DejaVuSans-38"/>
       <use x="190.869141" xlink:href="#DejaVuSans-30"/>
      </g>
     </g>
    </g>
    <g id="xtick_4">
     <g id="line2d_4">
      <g>
       <use style="stroke:#000000;stroke-width:0.8;" x="223.171391" xlink:href="#mc2a33f3cfe" y="162"/>
      </g>
     </g>
     <g id="text_4">
      <!-- 1990 -->
      <g transform="translate(210.446391 176.598438)scale(0.1 -0.1)">
       <use xlink:href="#DejaVuSans-31"/>
       <use x="63.623047" xlink:href="#DejaVuSans-39"/>
       <use x="127.246094" xlink:href="#DejaVuSans-39"/>
       <use x="190.869141" xlink:href="#DejaVuSans-30"/>
      </g>
     </g>
    </g>
    <g id="xtick_5">
     <g id="line2d_5">
      <g>
       <use style="stroke:#000000;stroke-width:0.8;" x="273.523709" xlink:href="#mc2a33f3cfe" y="162"/>
      </g>
     </g>
     <g id="text_5">
      <!-- 2000 -->
      <g transform="translate(260.798709 176.598438)scale(0.1 -0.1)">
       <defs>
        <path d="M 1228 531 
L 3431 531 
L 3431 0 
L 469 0 
L 469 531 
Q 828 903 1448 1529 
Q 2069 2156 2228 2338 
Q 2531 2678 2651 2914 
Q 2772 3150 2772 3378 
Q 2772 3750 2511 3984 
Q 2250 4219 1831 4219 
Q 1534 4219 1204 4116 
Q 875 4013 500 3803 
L 500 4441 
Q 881 4594 1212 4672 
Q 1544 4750 1819 4750 
Q 2544 4750 2975 4387 
Q 3406 4025 3406 3419 
Q 3406 3131 3298 2873 
Q 3191 2616 2906 2266 
Q 2828 2175 2409 1742 
Q 1991 1309 1228 531 
z
" id="DejaVuSans-32" transform="scale(0.015625)"/>
       </defs>
       <use xlink:href="#DejaVuSans-32"/>
       <use x="63.623047" xlink:href="#DejaVuSans-30"/>
       <use x="127.246094" xlink:href="#DejaVuSans-30"/>
       <use x="190.869141" xlink:href="#DejaVuSans-30"/>
      </g>
     </g>
    </g>
    <g id="xtick_6">
     <g id="line2d_6">
      <g>
       <use style="stroke:#000000;stroke-width:0.8;" x="323.876026" xlink:href="#mc2a33f3cfe" y="162"/>
      </g>
     </g>
     <g id="text_6">
      <!-- 2010 -->
      <g transform="translate(311.151026 176.598438)scale(0.1 -0.1)">
       <use xlink:href="#DejaVuSans-32"/>
       <use x="63.623047" xlink:href="#DejaVuSans-30"/>
       <use x="127.246094" xlink:href="#DejaVuSans-31"/>
       <use x="190.869141" xlink:href="#DejaVuSans-30"/>
      </g>
     </g>
    </g>
    <g id="xtick_7">
     <g id="line2d_7">
      <g>
       <use style="stroke:#000000;stroke-width:0.8;" x="374.228344" xlink:href="#mc2a33f3cfe" y="162"/>
      </g>
     </g>
     <g id="text_7">
      <!-- 2020 -->
      <g transform="translate(361.503344 176.598438)scale(0.1 -0.1)">
       <use xlink:href="#DejaVuSans-32"/>
       <use x="63.623047" xlink:href="#DejaVuSans-30"/>
       <use x="127.246094" xlink:href="#DejaVuSans-32"/>
       <use x="190.869141" xlink:href="#DejaVuSans-30"/>
      </g>
     </g>
    </g>
   </g>
   <g id="matplotlib.axis_2">
    <g id="ytick_1">
     <g id="line2d_8">
      <defs>
       <path d="M 0 0 
L -3.5 0 
" id="mf05f2f2f7b" style="stroke:#000000;stroke-width:0.8;"/>
      </defs>
      <g>
       <use style="stroke:#000000;stroke-width:0.8;" x="34.56" xlink:href="#mf05f2f2f7b" y="125.632754"/>
      </g>
     </g>
     <g id="text_8">
      <!-- −50 -->
      <g transform="translate(6.455313 129.431973)scale(0.1 -0.1)">
       <defs>
        <path d="M 678 2272 
L 4684 2272 
L 4684 1741 
L 678 1741 
L 678 2272 
z
" id="DejaVuSans-2212" transform="scale(0.015625)"/>
        <path d="M 691 4666 
L 3169 4666 
L 3169 4134 
L 1269 4134 
L 1269 2991 
Q 1406 3038 1543 3061 
Q 1681 3084 1819 3084 
Q 2600 3084 3056 2656 
Q 3513 2228 3513 1497 
Q 3513 744 3044 326 
Q 2575 -91 1722 -91 
Q 1428 -91 1123 -41 
Q 819 9 494 109 
L 494 744 
Q 775 591 1075 516 
Q 1375 441 1709 441 
Q 2250 441 2565 725 
Q 2881 1009 2881 1497 
Q 2881 1984 2565 2268 
Q 2250 2553 1709 2553 
Q 1456 2553 1204 2497 
Q 953 2441 691 2322 
L 691 4666 
z
" id="DejaVuSans-35" transform="scale(0.015625)"/>
       </defs>
       <use xlink:href="#DejaVuSans-2212"/>
       <use x="83.789062" xlink:href="#DejaVuSans-35"/>
       <use x="147.412109" xlink:href="#DejaVuSans-30"/>
      </g>
     </g>
    </g>
    <g id="ytick_2">
     <g id="line2d_9">
      <g>
       <use style="stroke:#000000;stroke-width:0.8;" x="34.56" xlink:href="#mf05f2f2f7b" y="82.8"/>
      </g>
     </g>
     <g id="text_9">
      <!-- 0 -->
      <g transform="translate(21.1975 86.599219)scale(0.1 -0.1)">
       <use xlink:href="#DejaVuSans-30"/>
      </g>
     </g>
    </g>
    <g id="ytick_3">
     <g id="line2d_10">
      <g>
       <use style="stroke:#000000;stroke-width:0.8;" x="34.56" xlink:href="#mf05f2f2f7b" y="39.967246"/>
      </g>
     </g>
     <g id="text_10">
      <!-- 50 -->
      <g transform="translate(14.835 43.766465)scale(0.1 -0.1)">
       <use xlink:href="#DejaVuSans-35"/>
       <use x="63.623047" xlink:href="#DejaVuSans-30"/>
      </g>
     </g>
    </g>
   </g>
   <g id="line2d_11">
    <path clip-path="url(#pc77e1c7e78)" d="M 72.324238 82.831829 
L 72.743841 82.701391 
L 73.163444 82.441881 
L 73.583046 82.57547 
L 76.100662 82.576273 
L 76.520265 82.47554 
L 76.939868 82.550505 
L 77.779073 82.411261 
L 78.198675 82.31514 
L 78.618278 82.375524 
L 79.037881 82.284287 
L 79.457483 82.051078 
L 80.716291 81.98294 
L 81.135894 82.250095 
L 81.555497 82.192684 
L 81.975099 82.265915 
L 82.394702 82.193846 
L 82.814305 82.391975 
L 83.65351 82.18941 
L 84.492715 82.117526 
L 84.912318 81.887985 
L 85.331921 81.808627 
L 87.010331 82.040966 
L 87.429934 82.346289 
L 87.849536 82.497875 
L 88.269139 82.392705 
L 89.108344 82.606883 
L 89.527947 82.931992 
L 90.367152 83.293822 
L 91.206358 83.444614 
L 92.045563 83.694771 
L 92.465166 83.50072 
L 92.884768 83.439892 
L 93.304371 83.537369 
L 93.723974 83.475539 
L 94.563179 83.651177 
L 95.402384 83.215609 
L 95.821987 82.998144 
L 96.241589 82.950009 
L 96.661192 83.04604 
L 97.500397 82.907341 
L 97.92 82.968959 
L 98.339603 82.485831 
L 99.598411 82.315431 
L 100.018013 82.405912 
L 101.276821 82.30047 
L 102.535629 82.659751 
L 102.955232 82.367853 
L 103.794437 82.192049 
L 104.21404 82.286846 
L 105.472848 82.120571 
L 106.312053 82.224302 
L 107.151258 82.132646 
L 108.410066 82.00799 
L 109.668874 82.051405 
L 110.508079 81.8864 
L 110.927682 81.866479 
L 111.347285 82.112851 
L 111.766887 82.146178 
L 112.18649 82.017364 
L 113.025695 82.077782 
L 114.284503 81.581087 
L 115.962914 81.553393 
L 116.382517 81.694321 
L 117.221722 81.59379 
L 117.641325 81.204903 
L 118.060927 81.240815 
L 118.48053 80.987255 
L 118.900132 80.863832 
L 119.739338 80.883113 
L 120.15894 80.695833 
L 120.578543 80.743441 
L 120.998146 80.991999 
L 121.417748 80.897069 
L 121.837351 81.074358 
L 122.256954 81.028369 
L 122.676556 80.726734 
L 123.515762 80.738489 
L 125.194172 80.354429 
L 126.45298 80.330484 
L 126.872583 80.150122 
L 130.649007 80.031017 
L 131.068609 79.607994 
L 131.907815 79.372041 
L 132.327417 79.567961 
L 132.74702 79.499018 
L 133.586225 79.072321 
L 134.42543 79.35266 
L 135.264636 79.617148 
L 135.684238 79.504939 
L 136.103841 79.261057 
L 137.362649 79.143653 
L 137.782252 79.294807 
L 138.201854 79.271689 
L 138.621457 79.076429 
L 139.460662 79.363751 
L 141.139073 79.123043 
L 141.558675 79.117021 
L 142.397881 78.830873 
L 142.817483 78.784733 
L 144.076291 79.135146 
L 145.335099 79.093835 
L 145.754702 79.727224 
L 146.593907 80.241451 
L 147.01351 80.116564 
L 147.433113 80.43785 
L 147.852715 80.548608 
L 148.272318 80.318079 
L 149.950728 80.225891 
L 150.789934 79.652253 
L 151.209536 79.674174 
L 152.468344 79.278458 
L 153.30755 79.351633 
L 154.146755 79.326874 
L 154.566358 79.038953 
L 154.98596 78.551314 
L 155.405563 78.470835 
L 155.825166 78.218023 
L 157.503576 77.959546 
L 158.342781 77.576719 
L 159.601589 77.6937 
L 160.021192 77.903991 
L 160.860397 77.805457 
L 161.28 77.935774 
L 161.699603 77.923112 
L 162.119205 78.204775 
L 163.797616 78.102263 
L 164.217219 78.145124 
L 164.636821 77.929235 
L 165.056424 77.883649 
L 166.315232 77.447474 
L 166.734834 77.333531 
L 167.154437 77.468641 
L 167.993642 77.385155 
L 168.413245 77.397433 
L 168.832848 77.597839 
L 169.25245 77.500089 
L 169.672053 77.623958 
L 170.091656 77.535278 
L 170.511258 77.086998 
L 170.930861 77.024422 
L 171.350464 77.093475 
L 172.609272 76.512423 
L 173.028874 76.50476 
L 173.448477 76.22174 
L 173.868079 76.297099 
L 175.54649 75.751186 
L 176.385695 75.334303 
L 177.224901 75.250345 
L 178.064106 75.241118 
L 178.483709 75.006725 
L 178.903311 74.988648 
L 179.742517 74.718873 
L 180.581722 74.665036 
L 181.001325 74.394062 
L 181.420927 74.28266 
L 181.84053 74.576212 
L 182.679735 74.5706 
L 183.099338 74.477985 
L 183.51894 74.213817 
L 184.358146 74.113462 
L 185.197351 73.716579 
L 186.036556 73.825471 
L 186.456159 73.565942 
L 187.714967 73.639862 
L 190.232583 73.608119 
L 190.652185 73.261554 
L 191.491391 73.407635 
L 192.330596 73.551264 
L 192.750199 73.468601 
L 193.589404 73.552684 
L 194.009007 73.605926 
L 194.428609 73.307475 
L 194.848212 73.537807 
L 196.10702 72.618012 
L 198.624636 72.699732 
L 199.463841 72.721161 
L 199.883444 72.862844 
L 200.722649 72.835073 
L 201.981457 73.0766 
L 202.40106 72.831121 
L 203.240265 72.924526 
L 204.499073 73.397598 
L 206.177483 73.475904 
L 207.016689 73.242874 
L 207.436291 73.266595 
L 207.855894 72.990972 
L 209.534305 72.858219 
L 210.37351 73.090314 
L 211.632318 73.158558 
L 212.051921 72.990559 
L 212.471523 72.981331 
L 212.891126 73.087944 
L 213.310728 73.342643 
L 214.989139 73.491705 
L 215.828344 74.14688 
L 216.66755 74.402864 
L 217.087152 74.26622 
L 217.506755 73.724432 
L 217.926358 73.694076 
L 218.765563 73.291523 
L 219.185166 73.413834 
L 220.024371 73.447356 
L 221.283179 73.773498 
L 221.702781 73.568014 
L 222.122384 73.751049 
L 223.381192 73.670073 
L 224.220397 73.864373 
L 224.64 73.873857 
L 225.059603 73.707508 
L 225.479205 74.010712 
L 226.318411 74.046401 
L 227.157616 73.906756 
L 227.577219 73.963367 
L 228.836026 74.595435 
L 229.255629 74.578363 
L 230.094834 74.866725 
L 230.93404 75.03632 
L 231.773245 74.920406 
L 232.192848 75.032269 
L 232.61245 75.334414 
L 233.451656 75.262664 
L 233.871258 75.620548 
L 234.710464 75.90835 
L 235.130066 76.244171 
L 235.549669 76.16696 
L 236.808477 76.775564 
L 238.90649 77.426395 
L 239.326093 77.291729 
L 240.165298 77.550861 
L 241.843709 77.540092 
L 242.263311 77.809235 
L 242.682914 77.803208 
L 243.102517 78.074013 
L 243.522119 78.171671 
L 243.941722 78.101204 
L 244.780927 78.567883 
L 246.039735 78.727861 
L 246.87894 79.401995 
L 247.718146 79.557085 
L 248.137748 79.964005 
L 249.396556 80.369837 
L 249.816159 80.732802 
L 250.235762 80.698792 
L 250.655364 81.047628 
L 251.074967 81.0591 
L 251.49457 80.946418 
L 252.333775 81.149342 
L 252.753377 81.069135 
L 253.17298 81.340086 
L 255.690596 81.631185 
L 256.110199 81.460782 
L 256.949404 81.509437 
L 259.047417 82.165626 
L 259.46702 81.957739 
L 260.725828 82.211212 
L 261.14543 82.31267 
L 261.565033 82.217019 
L 261.984636 82.260171 
L 262.823841 81.918195 
L 263.663046 82.221215 
L 264.082649 82.136638 
L 265.341457 82.714092 
L 266.180662 83.248127 
L 266.600265 83.423618 
L 267.43947 83.91977 
L 268.278675 83.910018 
L 269.117881 84.226988 
L 269.537483 84.149721 
L 270.376689 84.355132 
L 270.796291 84.319303 
L 271.215894 84.543024 
L 272.474702 84.264224 
L 272.894305 84.463668 
L 273.313907 84.309039 
L 273.73351 84.0359 
L 274.153113 84.044048 
L 274.572715 84.241559 
L 276.670728 83.510127 
L 277.090331 83.731526 
L 277.929536 83.645746 
L 278.768742 83.470857 
L 279.607947 82.934004 
L 280.447152 82.841658 
L 281.286358 82.484319 
L 282.125563 82.230701 
L 284.223576 81.840475 
L 286.321589 81.730739 
L 286.741192 81.729843 
L 287.160795 81.548784 
L 287.580397 81.158037 
L 288.419603 81.182496 
L 288.839205 81.4522 
L 290.517616 81.215226 
L 291.776424 81.186193 
L 292.196026 80.720401 
L 292.615629 80.607589 
L 294.713642 81.003197 
L 295.133245 80.946372 
L 295.552848 80.675409 
L 295.97245 80.595088 
L 298.490066 81.350038 
L 298.909669 81.875699 
L 299.748874 82.454836 
L 300.168477 82.461017 
L 300.588079 82.696246 
L 301.427285 82.870467 
L 301.846887 82.737833 
L 303.105695 83.353824 
L 303.525298 83.32606 
L 303.944901 83.548597 
L 304.364503 83.502081 
L 304.784106 83.893442 
L 306.462517 84.578239 
L 306.882119 84.566973 
L 307.301722 84.849981 
L 308.140927 85.102689 
L 308.980132 85.842562 
L 309.399735 85.85406 
L 309.819338 86.045842 
L 311.078146 86.315278 
L 311.497748 86.562261 
L 311.917351 86.593472 
L 312.336954 86.781725 
L 313.176159 86.854941 
L 314.015364 87.170937 
L 314.434967 87.059649 
L 314.85457 87.36133 
L 315.693775 87.58712 
L 316.53298 88.078617 
L 316.952583 88.551338 
L 317.791788 88.733525 
L 318.630993 89.466612 
L 319.050596 89.522536 
L 319.470199 90.063705 
L 320.309404 90.099889 
L 320.729007 90.300688 
L 321.148609 90.231724 
L 323.246623 91.395958 
L 323.666225 91.256915 
L 324.085828 91.483332 
L 324.925033 91.584548 
L 325.764238 91.318124 
L 326.183841 91.607536 
L 328.281854 91.162941 
L 328.701457 90.894989 
L 329.12106 91.010983 
L 329.540662 90.969461 
L 329.960265 90.5652 
L 330.379868 90.487866 
L 330.79947 90.280099 
L 331.638675 90.171476 
L 332.477881 90.377639 
L 332.897483 90.354379 
L 333.317086 90.216194 
L 333.736689 90.296419 
L 334.156291 90.141612 
L 334.575894 90.519366 
L 335.834702 90.551246 
L 336.254305 90.336731 
L 337.513113 90.73693 
L 337.932715 90.677981 
L 338.352318 90.976834 
L 338.771921 90.986583 
L 339.191523 90.78963 
L 339.611126 90.854956 
L 340.030728 90.717206 
L 340.450331 90.779635 
L 341.709139 90.478127 
L 342.128742 90.587593 
L 342.548344 90.241255 
L 342.967947 90.089126 
L 343.38755 90.108505 
L 343.807152 89.859002 
L 344.226755 89.751957 
L 345.485563 89.850918 
L 346.324768 89.043599 
L 347.163974 88.876791 
L 348.003179 88.41643 
L 348.422781 88.354974 
L 348.842384 88.177019 
L 349.261987 87.748758 
L 350.101192 87.699797 
L 350.520795 87.29961 
L 351.36 87.075047 
L 352.199205 87.153027 
L 352.618808 86.926189 
L 353.038411 86.861847 
L 353.877616 86.424939 
L 354.716821 85.735208 
L 355.136424 85.732269 
L 356.395232 85.138095 
L 356.814834 85.174018 
L 357.234437 85.442952 
L 358.073642 85.253193 
L 358.493245 85.065811 
L 358.912848 84.682261 
L 359.33245 84.120779 
L 359.752053 83.969603 
L 360.171656 84.029933 
L 360.591258 83.531974 
L 361.010861 83.218154 
L 361.430464 83.455278 
L 361.850066 83.444175 
L 363.108874 82.887347 
L 363.948079 82.298456 
L 364.787285 82.092334 
L 366.046093 82.41206 
L 367.304901 82.419114 
L 367.724503 82.186251 
L 368.144106 82.182575 
L 368.563709 82.363175 
L 370.242119 81.239084 
L 371.081325 80.846427 
L 371.500927 80.889983 
L 371.92053 80.715775 
L 372.340132 80.826302 
L 372.759735 80.777723 
L 373.179338 80.455879 
L 373.59894 80.450106 
L 374.018543 80.555811 
L 375.277351 81.452377 
L 375.696954 81.513811 
L 376.116556 81.994434 
L 376.536159 82.262804 
L 376.955762 82.8 
L 376.955762 82.8 
" style="fill:none;stroke:#1f77b4;stroke-linecap:square;stroke-width:1.5;"/>
   </g>
   <g id="line2d_12">
    <path clip-path="url(#pc77e1c7e78)" d="M 34.56 82.8 
L 414.72 82.8 
" style="fill:none;stroke:#000000;stroke-dasharray:1.5,2.475;stroke-dashoffset:0;stroke-width:1.5;"/>
   </g>
   <g id="patch_3">
    <path d="M 34.56 162 
L 34.56 3.6 
" style="fill:none;stroke:#000000;stroke-linecap:square;stroke-linejoin:miter;stroke-width:0.8;"/>
   </g>
   <g id="patch_4">
    <path d="M 414.72 162 
L 414.72 3.6 
" style="fill:none;stroke:#000000;stroke-linecap:square;stroke-linejoin:miter;stroke-width:0.8;"/>
   </g>
   <g id="patch_5">
    <path d="M 34.56 162 
L 414.72 162 
" style="fill:none;stroke:#000000;stroke-linecap:square;stroke-linejoin:miter;stroke-width:0.8;"/>
   </g>
   <g id="patch_6">
    <path d="M 34.56 3.6 
L 414.72 3.6 
" style="fill:none;stroke:#000000;stroke-linecap:square;stroke-linejoin:miter;stroke-width:0.8;"/>
   </g>
  </g>
 </g>
 <defs>
  <clipPath id="pc77e1c7e78">
   <rect height="158.4" width="380.16" x="34.56" y="3.6"/>
  </clipPath>
 </defs>
</svg>
