<?xml version="1.0" encoding="utf-8" standalone="no"?>
<!DOCTYPE svg PUBLIC "-//W3C//DTD SVG 1.1//EN"
  "http://www.w3.org/Graphics/SVG/1.1/DTD/svg11.dtd">
<svg height="180pt" version="1.1" viewBox="0 0 432 180" width="432pt" xmlns="http://www.w3.org/2000/svg" xmlns:xlink="http://www.w3.org/1999/xlink">
 <metadata>
  <rdf:RDF xmlns:cc="http://creativecommons.org/ns#" xmlns:dc="http://purl.org/dc/elements/1.1/" xmlns:rdf="http://www.w3.org/1999/02/22-rdf-syntax-ns#">
   <cc:Work>
    <dc:type rdf:resource="http://purl.org/dc/dcmitype/StillImage"/>
    <dc:date>2021-08-12T10:41:47.879756</dc:date>
    <dc:format>image/svg+xml</dc:format>
    <dc:creator>
     <cc:Agent>
      <dc:title>Matplotlib v3.4.2, https://matplotlib.org/</dc:title>
     </cc:Agent>
    </dc:creator>
   </cc:Work>
  </rdf:RDF>
 </metadata>
 <defs>
  <style type="text/css">*{stroke-linecap:butt;stroke-linejoin:round;}</style>
 </defs>
 <g id="figure_1">
  <g id="patch_1">
   <path d="M 0 180 
L 432 180 
L 432 0 
L 0 0 
z
" style="fill:#ffffff;"/>
  </g>
  <g id="axes_1">
   <g id="patch_2">
    <path d="M 34.56 162 
L 414.72 162 
L 414.72 3.6 
L 34.56 3.6 
z
" style="fill:#ffffff;"/>
   </g>
   <g id="PolyCollection_1">
    <defs>
     <path d="M 92.846882 -97.937688 
L 92.846882 -96.462312 
L 93.494514 -95.730049 
L 94.142147 -95.001392 
L 94.789779 -94.276343 
L 95.437411 -93.554901 
L 96.085043 -92.837067 
L 96.732675 -92.122839 
L 97.380307 -91.412219 
L 98.027939 -90.705206 
L 98.675571 -90.0018 
L 99.323203 -89.302001 
L 99.970835 -88.60581 
L 100.618467 -87.913225 
L 101.266099 -87.224248 
L 101.913731 -86.538878 
L 102.561363 -85.857116 
L 103.208995 -85.17896 
L 103.856627 -84.504412 
L 104.504259 -83.833471 
L 105.151891 -83.166137 
L 105.799523 -82.502411 
L 106.447155 -81.842291 
L 107.094787 -81.185779 
L 107.742419 -80.532874 
L 108.390051 -79.883577 
L 109.037683 -79.237886 
L 109.685315 -78.595803 
L 110.332947 -77.957327 
L 110.980579 -77.322458 
L 111.628211 -76.691196 
L 112.275843 -76.063542 
L 112.923475 -75.439494 
L 113.571107 -74.819054 
L 114.218739 -74.202221 
L 114.866371 -73.588996 
L 115.514003 -72.979377 
L 116.161635 -72.373366 
L 116.809267 -71.770962 
L 117.456899 -71.172165 
L 118.104532 -70.576976 
L 118.752164 -69.985393 
L 119.399796 -69.397418 
L 120.047428 -68.81305 
L 120.69506 -68.232289 
L 121.342692 -67.655136 
L 121.990324 -67.081589 
L 122.637956 -66.51165 
L 123.285588 -65.945318 
L 123.93322 -65.382594 
L 124.580852 -64.823476 
L 125.228484 -64.267966 
L 125.876116 -63.716063 
L 126.523748 -63.167767 
L 127.17138 -62.623078 
L 127.819012 -62.081997 
L 128.466644 -61.544523 
L 129.114276 -61.010656 
L 129.761908 -60.480396 
L 130.40954 -59.953743 
L 131.057172 -59.430698 
L 131.704804 -58.911259 
L 132.352436 -58.395428 
L 133.000068 -57.883205 
L 133.6477 -57.374588 
L 134.295332 -56.869579 
L 134.942964 -56.368177 
L 135.590596 -55.870382 
L 136.238228 -55.376194 
L 136.88586 -54.885613 
L 137.533492 -54.39864 
L 138.181124 -53.915274 
L 138.828756 -53.435515 
L 139.476388 -52.959363 
L 140.12402 -52.486819 
L 140.771652 -52.017882 
L 141.419284 -51.552552 
L 142.066917 -51.090829 
L 142.714549 -50.632713 
L 143.362181 -50.178205 
L 144.009813 -49.727304 
L 144.657445 -49.28001 
L 145.305077 -48.836323 
L 145.952709 -48.396243 
L 146.600341 -47.959771 
L 147.247973 -47.526906 
L 147.895605 -47.097648 
L 148.543237 -46.671997 
L 149.190869 -46.249953 
L 149.838501 -45.831517 
L 150.486133 -45.416688 
L 151.133765 -45.005466 
L 151.781397 -44.597851 
L 152.429029 -44.193844 
L 153.076661 -43.793444 
L 153.724293 -43.396651 
L 154.371925 -43.003465 
L 155.019557 -42.613886 
L 155.667189 -42.227915 
L 156.314821 -41.84555 
L 156.962453 -41.466793 
L 157.610085 -41.091644 
L 158.257717 -40.720101 
L 158.905349 -40.352166 
L 159.552981 -39.987837 
L 160.200613 -39.627117 
L 160.848245 -39.270003 
L 161.495877 -38.916496 
L 162.143509 -38.566597 
L 162.791141 -38.220305 
L 163.438773 -37.87762 
L 164.086405 -37.538542 
L 164.734037 -37.203072 
L 165.38167 -36.871208 
L 166.029302 -36.542952 
L 166.676934 -36.218303 
L 167.324566 -35.897262 
L 167.972198 -35.579827 
L 168.61983 -35.266 
L 169.267462 -34.95578 
L 169.915094 -34.649167 
L 170.562726 -34.346162 
L 171.210358 -34.046763 
L 171.85799 -33.750972 
L 172.505622 -33.458788 
L 173.153254 -33.170211 
L 173.800886 -32.885242 
L 174.448518 -32.603879 
L 175.09615 -32.326124 
L 175.743782 -32.051976 
L 176.391414 -31.781435 
L 177.039046 -31.514502 
L 177.686678 -31.251176 
L 178.33431 -30.991457 
L 178.981942 -30.735345 
L 179.629574 -30.48284 
L 180.277206 -30.233942 
L 180.924838 -29.988652 
L 181.57247 -29.746969 
L 182.220102 -29.508893 
L 182.867734 -29.274425 
L 183.515366 -29.043563 
L 184.162998 -28.816309 
L 184.81063 -28.592662 
L 185.458262 -28.372622 
L 186.105894 -28.15619 
L 186.753526 -27.943364 
L 187.401158 -27.734146 
L 188.04879 -27.528535 
L 188.696422 -27.326531 
L 189.344055 -27.128135 
L 189.991687 -26.933346 
L 190.639319 -26.742164 
L 191.286951 -26.554589 
L 191.934583 -26.370621 
L 192.582215 -26.19026 
L 193.229847 -26.013507 
L 193.877479 -25.840361 
L 194.525111 -25.670822 
L 195.172743 -25.504891 
L 195.820375 -25.342566 
L 196.468007 -25.183849 
L 197.115639 -25.028739 
L 197.763271 -24.877236 
L 198.410903 -24.729341 
L 199.058535 -24.585052 
L 199.706167 -24.444371 
L 200.353799 -24.307297 
L 201.001431 -24.17383 
L 201.649063 -24.043971 
L 202.296695 -23.917718 
L 202.944327 -23.795073 
L 203.591959 -23.676035 
L 204.239591 -23.560605 
L 204.887223 -23.448781 
L 205.534855 -23.340565 
L 206.182487 -23.235956 
L 206.830119 -23.134954 
L 207.477751 -23.037559 
L 208.125383 -22.943772 
L 208.773015 -22.853591 
L 209.420647 -22.767018 
L 210.068279 -22.684053 
L 210.715911 -22.604694 
L 211.363543 -22.528943 
L 212.011175 -22.456798 
L 212.658807 -22.388261 
L 213.30644 -22.323332 
L 213.954072 -22.262009 
L 214.601704 -22.204294 
L 215.249336 -22.150186 
L 215.896968 -22.099685 
L 216.5446 -22.052791 
L 217.192232 -22.009504 
L 217.839864 -21.969825 
L 218.487496 -21.933753 
L 219.135128 -21.901288 
L 219.78276 -21.87243 
L 220.430392 -21.84718 
L 221.078024 -21.825537 
L 221.725656 -21.807501 
L 222.373288 -21.793072 
L 223.02092 -21.78225 
L 223.668552 -21.775036 
L 224.316184 -21.771429 
L 224.963816 -21.771429 
L 225.611448 -21.775036 
L 226.25908 -21.78225 
L 226.906712 -21.793072 
L 227.554344 -21.807501 
L 228.201976 -21.825537 
L 228.849608 -21.84718 
L 229.49724 -21.87243 
L 230.144872 -21.901288 
L 230.792504 -21.933753 
L 231.440136 -21.969825 
L 232.087768 -22.009504 
L 232.7354 -22.052791 
L 233.383032 -22.099685 
L 234.030664 -22.150186 
L 234.678296 -22.204294 
L 235.325928 -22.262009 
L 235.97356 -22.323332 
L 236.621193 -22.388261 
L 237.268825 -22.456798 
L 237.916457 -22.528943 
L 238.564089 -22.604694 
L 239.211721 -22.684053 
L 239.859353 -22.767018 
L 240.506985 -22.853591 
L 241.154617 -22.943772 
L 241.802249 -23.037559 
L 242.449881 -23.134954 
L 243.097513 -23.235956 
L 243.745145 -23.340565 
L 244.392777 -23.448781 
L 245.040409 -23.560605 
L 245.688041 -23.676035 
L 246.335673 -23.795073 
L 246.983305 -23.917718 
L 247.630937 -24.043971 
L 248.278569 -24.17383 
L 248.926201 -24.307297 
L 249.573833 -24.444371 
L 250.221465 -24.585052 
L 250.869097 -24.729341 
L 251.516729 -24.877236 
L 252.164361 -25.028739 
L 252.811993 -25.183849 
L 253.459625 -25.342566 
L 254.107257 -25.504891 
L 254.754889 -25.670822 
L 255.402521 -25.840361 
L 256.050153 -26.013507 
L 256.697785 -26.19026 
L 257.345417 -26.370621 
L 257.993049 -26.554589 
L 258.640681 -26.742164 
L 259.288313 -26.933346 
L 259.935945 -27.128135 
L 260.583578 -27.326531 
L 261.23121 -27.528535 
L 261.878842 -27.734146 
L 262.526474 -27.943364 
L 263.174106 -28.15619 
L 263.821738 -28.372622 
L 264.46937 -28.592662 
L 265.117002 -28.816309 
L 265.764634 -29.043563 
L 266.412266 -29.274425 
L 267.059898 -29.508893 
L 267.70753 -29.746969 
L 268.355162 -29.988652 
L 269.002794 -30.233942 
L 269.650426 -30.48284 
L 270.298058 -30.735345 
L 270.94569 -30.991457 
L 271.593322 -31.251176 
L 272.240954 -31.514502 
L 272.888586 -31.781435 
L 273.536218 -32.051976 
L 274.18385 -32.326124 
L 274.831482 -32.603879 
L 275.479114 -32.885242 
L 276.126746 -33.170211 
L 276.774378 -33.458788 
L 277.42201 -33.750972 
L 278.069642 -34.046763 
L 278.717274 -34.346162 
L 279.364906 -34.649167 
L 280.012538 -34.95578 
L 280.66017 -35.266 
L 281.307802 -35.579827 
L 281.955434 -35.897262 
L 282.603066 -36.218303 
L 283.250698 -36.542952 
L 283.89833 -36.871208 
L 284.545963 -37.203072 
L 285.193595 -37.538542 
L 285.841227 -37.87762 
L 286.488859 -38.220305 
L 287.136491 -38.566597 
L 287.784123 -38.916496 
L 288.431755 -39.270003 
L 289.079387 -39.627117 
L 289.727019 -39.987837 
L 290.374651 -40.352166 
L 291.022283 -40.720101 
L 291.669915 -41.091644 
L 292.317547 -41.466793 
L 292.965179 -41.84555 
L 293.612811 -42.227915 
L 294.260443 -42.613886 
L 294.908075 -43.003465 
L 295.555707 -43.396651 
L 296.203339 -43.793444 
L 296.850971 -44.193844 
L 297.498603 -44.597851 
L 298.146235 -45.005466 
L 298.793867 -45.416688 
L 299.441499 -45.831517 
L 300.089131 -46.249953 
L 300.736763 -46.671997 
L 301.384395 -47.097648 
L 302.032027 -47.526906 
L 302.679659 -47.959771 
L 303.327291 -48.396243 
L 303.974923 -48.836323 
L 304.622555 -49.28001 
L 305.270187 -49.727304 
L 305.917819 -50.178205 
L 306.565451 -50.632713 
L 307.213083 -51.090829 
L 307.860716 -51.552552 
L 308.508348 -52.017882 
L 309.15598 -52.486819 
L 309.803612 -52.959363 
L 310.451244 -53.435515 
L 311.098876 -53.915274 
L 311.746508 -54.39864 
L 312.39414 -54.885613 
L 313.041772 -55.376194 
L 313.689404 -55.870382 
L 314.337036 -56.368177 
L 314.984668 -56.869579 
L 315.6323 -57.374588 
L 316.279932 -57.883205 
L 316.927564 -58.395428 
L 317.575196 -58.911259 
L 318.222828 -59.430698 
L 318.87046 -59.953743 
L 319.518092 -60.480396 
L 320.165724 -61.010656 
L 320.813356 -61.544523 
L 321.460988 -62.081997 
L 322.10862 -62.623078 
L 322.756252 -63.167767 
L 323.403884 -63.716063 
L 324.051516 -64.267966 
L 324.699148 -64.823476 
L 325.34678 -65.382594 
L 325.994412 -65.945318 
L 326.642044 -66.51165 
L 327.289676 -67.081589 
L 327.937308 -67.655136 
L 328.58494 -68.232289 
L 329.232572 -68.81305 
L 329.880204 -69.397418 
L 330.527836 -69.985393 
L 331.175468 -70.576976 
L 331.823101 -71.172165 
L 332.470733 -71.770962 
L 333.118365 -72.373366 
L 333.765997 -72.979377 
L 334.413629 -73.588996 
L 335.061261 -74.202221 
L 335.708893 -74.819054 
L 336.356525 -75.439494 
L 337.004157 -76.063542 
L 337.651789 -76.691196 
L 338.299421 -77.322458 
L 338.947053 -77.957327 
L 339.594685 -78.595803 
L 340.242317 -79.237886 
L 340.889949 -79.883577 
L 341.537581 -80.532874 
L 342.185213 -81.185779 
L 342.832845 -81.842291 
L 343.480477 -82.502411 
L 344.128109 -83.166137 
L 344.775741 -83.833471 
L 345.423373 -84.504412 
L 346.071005 -85.17896 
L 346.718637 -85.857116 
L 347.366269 -86.538878 
L 348.013901 -87.224248 
L 348.661533 -87.913225 
L 349.309165 -88.60581 
L 349.956797 -89.302001 
L 350.604429 -90.0018 
L 351.252061 -90.705206 
L 351.899693 -91.412219 
L 352.547325 -92.122839 
L 353.194957 -92.837067 
L 353.842589 -93.554901 
L 354.490221 -94.276343 
L 355.137853 -95.001392 
L 355.785486 -95.730049 
L 356.433118 -96.462312 
L 356.433118 -97.937688 
L 356.433118 -97.937688 
L 355.785486 -98.669951 
L 355.137853 -99.398608 
L 354.490221 -100.123657 
L 353.842589 -100.845099 
L 353.194957 -101.562933 
L 352.547325 -102.277161 
L 351.899693 -102.987781 
L 351.252061 -103.694794 
L 350.604429 -104.3982 
L 349.956797 -105.097999 
L 349.309165 -105.79419 
L 348.661533 -106.486775 
L 348.013901 -107.175752 
L 347.366269 -107.861122 
L 346.718637 -108.542884 
L 346.071005 -109.22104 
L 345.423373 -109.895588 
L 344.775741 -110.566529 
L 344.128109 -111.233863 
L 343.480477 -111.897589 
L 342.832845 -112.557709 
L 342.185213 -113.214221 
L 341.537581 -113.867126 
L 340.889949 -114.516423 
L 340.242317 -115.162114 
L 339.594685 -115.804197 
L 338.947053 -116.442673 
L 338.299421 -117.077542 
L 337.651789 -117.708804 
L 337.004157 -118.336458 
L 336.356525 -118.960506 
L 335.708893 -119.580946 
L 335.061261 -120.197779 
L 334.413629 -120.811004 
L 333.765997 -121.420623 
L 333.118365 -122.026634 
L 332.470733 -122.629038 
L 331.823101 -123.227835 
L 331.175468 -123.823024 
L 330.527836 -124.414607 
L 329.880204 -125.002582 
L 329.232572 -125.58695 
L 328.58494 -126.167711 
L 327.937308 -126.744864 
L 327.289676 -127.318411 
L 326.642044 -127.88835 
L 325.994412 -128.454682 
L 325.34678 -129.017406 
L 324.699148 -129.576524 
L 324.051516 -130.132034 
L 323.403884 -130.683937 
L 322.756252 -131.232233 
L 322.10862 -131.776922 
L 321.460988 -132.318003 
L 320.813356 -132.855477 
L 320.165724 -133.389344 
L 319.518092 -133.919604 
L 318.87046 -134.446257 
L 318.222828 -134.969302 
L 317.575196 -135.488741 
L 316.927564 -136.004572 
L 316.279932 -136.516795 
L 315.6323 -137.025412 
L 314.984668 -137.530421 
L 314.337036 -138.031823 
L 313.689404 -138.529618 
L 313.041772 -139.023806 
L 312.39414 -139.514387 
L 311.746508 -140.00136 
L 311.098876 -140.484726 
L 310.451244 -140.964485 
L 309.803612 -141.440637 
L 309.15598 -141.913181 
L 308.508348 -142.382118 
L 307.860716 -142.847448 
L 307.213083 -143.309171 
L 306.565451 -143.767287 
L 305.917819 -144.221795 
L 305.270187 -144.672696 
L 304.622555 -145.11999 
L 303.974923 -145.563677 
L 303.327291 -146.003757 
L 302.679659 -146.440229 
L 302.032027 -146.873094 
L 301.384395 -147.302352 
L 300.736763 -147.728003 
L 300.089131 -148.150047 
L 299.441499 -148.568483 
L 298.793867 -148.983312 
L 298.146235 -149.394534 
L 297.498603 -149.802149 
L 296.850971 -150.206156 
L 296.203339 -150.606556 
L 295.555707 -151.003349 
L 294.908075 -151.396535 
L 294.260443 -151.786114 
L 293.612811 -152.172085 
L 292.965179 -152.55445 
L 292.317547 -152.933207 
L 291.669915 -153.308356 
L 291.022283 -153.679899 
L 290.374651 -154.047834 
L 289.727019 -154.412163 
L 289.079387 -154.772883 
L 288.431755 -155.129997 
L 287.784123 -155.483504 
L 287.136491 -155.833403 
L 286.488859 -156.179695 
L 285.841227 -156.52238 
L 285.193595 -156.861458 
L 284.545963 -157.196928 
L 283.89833 -157.528792 
L 283.250698 -157.857048 
L 282.603066 -158.181697 
L 281.955434 -158.502738 
L 281.307802 -158.820173 
L 280.66017 -159.134 
L 280.012538 -159.44422 
L 279.364906 -159.750833 
L 278.717274 -160.053838 
L 278.069642 -160.353237 
L 277.42201 -160.649028 
L 276.774378 -160.941212 
L 276.126746 -161.229789 
L 275.479114 -161.514758 
L 274.831482 -161.796121 
L 274.18385 -162.073876 
L 273.536218 -162.348024 
L 272.888586 -162.618565 
L 272.240954 -162.885498 
L 271.593322 -163.148824 
L 270.94569 -163.408543 
L 270.298058 -163.664655 
L 269.650426 -163.91716 
L 269.002794 -164.166058 
L 268.355162 -164.411348 
L 267.70753 -164.653031 
L 267.059898 -164.891107 
L 266.412266 -165.125575 
L 265.764634 -165.356437 
L 265.117002 -165.583691 
L 264.46937 -165.807338 
L 263.821738 -166.027378 
L 263.174106 -166.24381 
L 262.526474 -166.456636 
L 261.878842 -166.665854 
L 261.23121 -166.871465 
L 260.583578 -167.073469 
L 259.935945 -167.271865 
L 259.288313 -167.466654 
L 258.640681 -167.657836 
L 257.993049 -167.845411 
L 257.345417 -168.029379 
L 256.697785 -168.20974 
L 256.050153 -168.386493 
L 255.402521 -168.559639 
L 254.754889 -168.729178 
L 254.107257 -168.895109 
L 253.459625 -169.057434 
L 252.811993 -169.216151 
L 252.164361 -169.371261 
L 251.516729 -169.522764 
L 250.869097 -169.670659 
L 250.221465 -169.814948 
L 249.573833 -169.955629 
L 248.926201 -170.092703 
L 248.278569 -170.22617 
L 247.630937 -170.356029 
L 246.983305 -170.482282 
L 246.335673 -170.604927 
L 245.688041 -170.723965 
L 245.040409 -170.839395 
L 244.392777 -170.951219 
L 243.745145 -171.059435 
L 243.097513 -171.164044 
L 242.449881 -171.265046 
L 241.802249 -171.362441 
L 241.154617 -171.456228 
L 240.506985 -171.546409 
L 239.859353 -171.632982 
L 239.211721 -171.715947 
L 238.564089 -171.795306 
L 237.916457 -171.871057 
L 237.268825 -171.943202 
L 236.621193 -172.011739 
L 235.97356 -172.076668 
L 235.325928 -172.137991 
L 234.678296 -172.195706 
L 234.030664 -172.249814 
L 233.383032 -172.300315 
L 232.7354 -172.347209 
L 232.087768 -172.390496 
L 231.440136 -172.430175 
L 230.792504 -172.466247 
L 230.144872 -172.498712 
L 229.49724 -172.52757 
L 228.849608 -172.55282 
L 228.201976 -172.574463 
L 227.554344 -172.592499 
L 226.906712 -172.606928 
L 226.25908 -172.61775 
L 225.611448 -172.624964 
L 224.963816 -172.628571 
L 224.316184 -172.628571 
L 223.668552 -172.624964 
L 223.02092 -172.61775 
L 222.373288 -172.606928 
L 221.725656 -172.592499 
L 221.078024 -172.574463 
L 220.430392 -172.55282 
L 219.78276 -172.52757 
L 219.135128 -172.498712 
L 218.487496 -172.466247 
L 217.839864 -172.430175 
L 217.192232 -172.390496 
L 216.5446 -172.347209 
L 215.896968 -172.300315 
L 215.249336 -172.249814 
L 214.601704 -172.195706 
L 213.954072 -172.137991 
L 213.30644 -172.076668 
L 212.658807 -172.011739 
L 212.011175 -171.943202 
L 211.363543 -171.871057 
L 210.715911 -171.795306 
L 210.068279 -171.715947 
L 209.420647 -171.632982 
L 208.773015 -171.546409 
L 208.125383 -171.456228 
L 207.477751 -171.362441 
L 206.830119 -171.265046 
L 206.182487 -171.164044 
L 205.534855 -171.059435 
L 204.887223 -170.951219 
L 204.239591 -170.839395 
L 203.591959 -170.723965 
L 202.944327 -170.604927 
L 202.296695 -170.482282 
L 201.649063 -170.356029 
L 201.001431 -170.22617 
L 200.353799 -170.092703 
L 199.706167 -169.955629 
L 199.058535 -169.814948 
L 198.410903 -169.670659 
L 197.763271 -169.522764 
L 197.115639 -169.371261 
L 196.468007 -169.216151 
L 195.820375 -169.057434 
L 195.172743 -168.895109 
L 194.525111 -168.729178 
L 193.877479 -168.559639 
L 193.229847 -168.386493 
L 192.582215 -168.20974 
L 191.934583 -168.029379 
L 191.286951 -167.845411 
L 190.639319 -167.657836 
L 189.991687 -167.466654 
L 189.344055 -167.271865 
L 188.696422 -167.073469 
L 188.04879 -166.871465 
L 187.401158 -166.665854 
L 186.753526 -166.456636 
L 186.105894 -166.24381 
L 185.458262 -166.027378 
L 184.81063 -165.807338 
L 184.162998 -165.583691 
L 183.515366 -165.356437 
L 182.867734 -165.125575 
L 182.220102 -164.891107 
L 181.57247 -164.653031 
L 180.924838 -164.411348 
L 180.277206 -164.166058 
L 179.629574 -163.91716 
L 178.981942 -163.664655 
L 178.33431 -163.408543 
L 177.686678 -163.148824 
L 177.039046 -162.885498 
L 176.391414 -162.618565 
L 175.743782 -162.348024 
L 175.09615 -162.073876 
L 174.448518 -161.796121 
L 173.800886 -161.514758 
L 173.153254 -161.229789 
L 172.505622 -160.941212 
L 171.85799 -160.649028 
L 171.210358 -160.353237 
L 170.562726 -160.053838 
L 169.915094 -159.750833 
L 169.267462 -159.44422 
L 168.61983 -159.134 
L 167.972198 -158.820173 
L 167.324566 -158.502738 
L 166.676934 -158.181697 
L 166.029302 -157.857048 
L 165.38167 -157.528792 
L 164.734037 -157.196928 
L 164.086405 -156.861458 
L 163.438773 -156.52238 
L 162.791141 -156.179695 
L 162.143509 -155.833403 
L 161.495877 -155.483504 
L 160.848245 -155.129997 
L 160.200613 -154.772883 
L 159.552981 -154.412163 
L 158.905349 -154.047834 
L 158.257717 -153.679899 
L 157.610085 -153.308356 
L 156.962453 -152.933207 
L 156.314821 -152.55445 
L 155.667189 -152.172085 
L 155.019557 -151.786114 
L 154.371925 -151.396535 
L 153.724293 -151.003349 
L 153.076661 -150.606556 
L 152.429029 -150.206156 
L 151.781397 -149.802149 
L 151.133765 -149.394534 
L 150.486133 -148.983312 
L 149.838501 -148.568483 
L 149.190869 -148.150047 
L 148.543237 -147.728003 
L 147.895605 -147.302352 
L 147.247973 -146.873094 
L 146.600341 -146.440229 
L 145.952709 -146.003757 
L 145.305077 -145.563677 
L 144.657445 -145.11999 
L 144.009813 -144.672696 
L 143.362181 -144.221795 
L 142.714549 -143.767287 
L 142.066917 -143.309171 
L 141.419284 -142.847448 
L 140.771652 -142.382118 
L 140.12402 -141.913181 
L 139.476388 -141.440637 
L 138.828756 -140.964485 
L 138.181124 -140.484726 
L 137.533492 -140.00136 
L 136.88586 -139.514387 
L 136.238228 -139.023806 
L 135.590596 -138.529618 
L 134.942964 -138.031823 
L 134.295332 -137.530421 
L 133.6477 -137.025412 
L 133.000068 -136.516795 
L 132.352436 -136.004572 
L 131.704804 -135.488741 
L 131.057172 -134.969302 
L 130.40954 -134.446257 
L 129.761908 -133.919604 
L 129.114276 -133.389344 
L 128.466644 -132.855477 
L 127.819012 -132.318003 
L 127.17138 -131.776922 
L 126.523748 -131.232233 
L 125.876116 -130.683937 
L 125.228484 -130.132034 
L 124.580852 -129.576524 
L 123.93322 -129.017406 
L 123.285588 -128.454682 
L 122.637956 -127.88835 
L 121.990324 -127.318411 
L 121.342692 -126.744864 
L 120.69506 -126.167711 
L 120.047428 -125.58695 
L 119.399796 -125.002582 
L 118.752164 -124.414607 
L 118.104532 -123.823024 
L 117.456899 -123.227835 
L 116.809267 -122.629038 
L 116.161635 -122.026634 
L 115.514003 -121.420623 
L 114.866371 -120.811004 
L 114.218739 -120.197779 
L 113.571107 -119.580946 
L 112.923475 -118.960506 
L 112.275843 -118.336458 
L 111.628211 -117.708804 
L 110.980579 -117.077542 
L 110.332947 -116.442673 
L 109.685315 -115.804197 
L 109.037683 -115.162114 
L 108.390051 -114.516423 
L 107.742419 -113.867126 
L 107.094787 -113.214221 
L 106.447155 -112.557709 
L 105.799523 -111.897589 
L 105.151891 -111.233863 
L 104.504259 -110.566529 
L 103.856627 -109.895588 
L 103.208995 -109.22104 
L 102.561363 -108.542884 
L 101.913731 -107.861122 
L 101.266099 -107.175752 
L 100.618467 -106.486775 
L 99.970835 -105.79419 
L 99.323203 -105.097999 
L 98.675571 -104.3982 
L 98.027939 -103.694794 
L 97.380307 -102.987781 
L 96.732675 -102.277161 
L 96.085043 -101.562933 
L 95.437411 -100.845099 
L 94.789779 -100.123657 
L 94.142147 -99.398608 
L 93.494514 -98.669951 
L 92.846882 -97.937688 
z
" id="m3a762c91d1" style="stroke:#0000ff;stroke-opacity:0.1;"/>
    </defs>
    <g clip-path="url(#p4fc297e359)">
     <use style="fill:#0000ff;fill-opacity:0.1;stroke:#0000ff;stroke-opacity:0.1;" x="0" xlink:href="#m3a762c91d1" y="180"/>
    </g>
   </g>
   <g id="matplotlib.axis_1">
    <g id="xtick_1">
     <g id="line2d_1">
      <defs>
       <path d="M 0 0 
L 0 3.5 
" id="mbd9bd9ea8b" style="stroke:#000000;stroke-width:0.8;"/>
      </defs>
      <g>
       <use style="stroke:#000000;stroke-width:0.8;" x="84.751482" xlink:href="#mbd9bd9ea8b" y="162"/>
      </g>
     </g>
     <g id="text_1">
      <!-- 1960 -->
      <g transform="translate(72.026482 176.598438)scale(0.1 -0.1)">
       <defs>
        <path d="M 794 531 
L 1825 531 
L 1825 4091 
L 703 3866 
L 703 4441 
L 1819 4666 
L 2450 4666 
L 2450 531 
L 3481 531 
L 3481 0 
L 794 0 
L 794 531 
z
" id="DejaVuSans-31" transform="scale(0.015625)"/>
        <path d="M 703 97 
L 703 672 
Q 941 559 1184 500 
Q 1428 441 1663 441 
Q 2288 441 2617 861 
Q 2947 1281 2994 2138 
Q 2813 1869 2534 1725 
Q 2256 1581 1919 1581 
Q 1219 1581 811 2004 
Q 403 2428 403 3163 
Q 403 3881 828 4315 
Q 1253 4750 1959 4750 
Q 2769 4750 3195 4129 
Q 3622 3509 3622 2328 
Q 3622 1225 3098 567 
Q 2575 -91 1691 -91 
Q 1453 -91 1209 -44 
Q 966 3 703 97 
z
M 1959 2075 
Q 2384 2075 2632 2365 
Q 2881 2656 2881 3163 
Q 2881 3666 2632 3958 
Q 2384 4250 1959 4250 
Q 1534 4250 1286 3958 
Q 1038 3666 1038 3163 
Q 1038 2656 1286 2365 
Q 1534 2075 1959 2075 
z
" id="DejaVuSans-39" transform="scale(0.015625)"/>
        <path d="M 2113 2584 
Q 1688 2584 1439 2293 
Q 1191 2003 1191 1497 
Q 1191 994 1439 701 
Q 1688 409 2113 409 
Q 2538 409 2786 701 
Q 3034 994 3034 1497 
Q 3034 2003 2786 2293 
Q 2538 2584 2113 2584 
z
M 3366 4563 
L 3366 3988 
Q 3128 4100 2886 4159 
Q 2644 4219 2406 4219 
Q 1781 4219 1451 3797 
Q 1122 3375 1075 2522 
Q 1259 2794 1537 2939 
Q 1816 3084 2150 3084 
Q 2853 3084 3261 2657 
Q 3669 2231 3669 1497 
Q 3669 778 3244 343 
Q 2819 -91 2113 -91 
Q 1303 -91 875 529 
Q 447 1150 447 2328 
Q 447 3434 972 4092 
Q 1497 4750 2381 4750 
Q 2619 4750 2861 4703 
Q 3103 4656 3366 4563 
z
" id="DejaVuSans-36" transform="scale(0.015625)"/>
        <path d="M 2034 4250 
Q 1547 4250 1301 3770 
Q 1056 3291 1056 2328 
Q 1056 1369 1301 889 
Q 1547 409 2034 409 
Q 2525 409 2770 889 
Q 3016 1369 3016 2328 
Q 3016 3291 2770 3770 
Q 2525 4250 2034 4250 
z
M 2034 4750 
Q 2819 4750 3233 4129 
Q 3647 3509 3647 2328 
Q 3647 1150 3233 529 
Q 2819 -91 2034 -91 
Q 1250 -91 836 529 
Q 422 1150 422 2328 
Q 422 3509 836 4129 
Q 1250 4750 2034 4750 
z
" id="DejaVuSans-30" transform="scale(0.015625)"/>
       </defs>
       <use xlink:href="#DejaVuSans-31"/>
       <use x="63.623047" xlink:href="#DejaVuSans-39"/>
       <use x="127.246094" xlink:href="#DejaVuSans-36"/>
       <use x="190.869141" xlink:href="#DejaVuSans-30"/>
      </g>
     </g>
    </g>
    <g id="xtick_2">
     <g id="line2d_2">
      <g>
       <use style="stroke:#000000;stroke-width:0.8;" x="162.467325" xlink:href="#mbd9bd9ea8b" y="162"/>
      </g>
     </g>
     <g id="text_2">
      <!-- 1970 -->
      <g transform="translate(149.742325 176.598438)scale(0.1 -0.1)">
       <defs>
        <path d="M 525 4666 
L 3525 4666 
L 3525 4397 
L 1831 0 
L 1172 0 
L 2766 4134 
L 525 4134 
L 525 4666 
z
" id="DejaVuSans-37" transform="scale(0.015625)"/>
       </defs>
       <use xlink:href="#DejaVuSans-31"/>
       <use x="63.623047" xlink:href="#DejaVuSans-39"/>
       <use x="127.246094" xlink:href="#DejaVuSans-37"/>
       <use x="190.869141" xlink:href="#DejaVuSans-30"/>
      </g>
     </g>
    </g>
    <g id="xtick_3">
     <g id="line2d_3">
      <g>
       <use style="stroke:#000000;stroke-width:0.8;" x="240.183169" xlink:href="#mbd9bd9ea8b" y="162"/>
      </g>
     </g>
     <g id="text_3">
      <!-- 1980 -->
      <g transform="translate(227.458169 176.598438)scale(0.1 -0.1)">
       <defs>
        <path d="M 2034 2216 
Q 1584 2216 1326 1975 
Q 1069 1734 1069 1313 
Q 1069 891 1326 650 
Q 1584 409 2034 409 
Q 2484 409 2743 651 
Q 3003 894 3003 1313 
Q 3003 1734 2745 1975 
Q 2488 2216 2034 2216 
z
M 1403 2484 
Q 997 2584 770 2862 
Q 544 3141 544 3541 
Q 544 4100 942 4425 
Q 1341 4750 2034 4750 
Q 2731 4750 3128 4425 
Q 3525 4100 3525 3541 
Q 3525 3141 3298 2862 
Q 3072 2584 2669 2484 
Q 3125 2378 3379 2068 
Q 3634 1759 3634 1313 
Q 3634 634 3220 271 
Q 2806 -91 2034 -91 
Q 1263 -91 848 271 
Q 434 634 434 1313 
Q 434 1759 690 2068 
Q 947 2378 1403 2484 
z
M 1172 3481 
Q 1172 3119 1398 2916 
Q 1625 2713 2034 2713 
Q 2441 2713 2670 2916 
Q 2900 3119 2900 3481 
Q 2900 3844 2670 4047 
Q 2441 4250 2034 4250 
Q 1625 4250 1398 4047 
Q 1172 3844 1172 3481 
z
" id="DejaVuSans-38" transform="scale(0.015625)"/>
       </defs>
       <use xlink:href="#DejaVuSans-31"/>
       <use x="63.623047" xlink:href="#DejaVuSans-39"/>
       <use x="127.246094" xlink:href="#DejaVuSans-38"/>
       <use x="190.869141" xlink:href="#DejaVuSans-30"/>
      </g>
     </g>
    </g>
    <g id="xtick_4">
     <g id="line2d_4">
      <g>
       <use style="stroke:#000000;stroke-width:0.8;" x="317.899012" xlink:href="#mbd9bd9ea8b" y="162"/>
      </g>
     </g>
     <g id="text_4">
      <!-- 1990 -->
      <g transform="translate(305.174012 176.598438)scale(0.1 -0.1)">
       <use xlink:href="#DejaVuSans-31"/>
       <use x="63.623047" xlink:href="#DejaVuSans-39"/>
       <use x="127.246094" xlink:href="#DejaVuSans-39"/>
       <use x="190.869141" xlink:href="#DejaVuSans-30"/>
      </g>
     </g>
    </g>
    <g id="xtick_5">
     <g id="line2d_5">
      <g>
       <use style="stroke:#000000;stroke-width:0.8;" x="395.614855" xlink:href="#mbd9bd9ea8b" y="162"/>
      </g>
     </g>
     <g id="text_5">
      <!-- 2000 -->
      <g transform="translate(382.889855 176.598438)scale(0.1 -0.1)">
       <defs>
        <path d="M 1228 531 
L 3431 531 
L 3431 0 
L 469 0 
L 469 531 
Q 828 903 1448 1529 
Q 2069 2156 2228 2338 
Q 2531 2678 2651 2914 
Q 2772 3150 2772 3378 
Q 2772 3750 2511 3984 
Q 2250 4219 1831 4219 
Q 1534 4219 1204 4116 
Q 875 4013 500 3803 
L 500 4441 
Q 881 4594 1212 4672 
Q 1544 4750 1819 4750 
Q 2544 4750 2975 4387 
Q 3406 4025 3406 3419 
Q 3406 3131 3298 2873 
Q 3191 2616 2906 2266 
Q 2828 2175 2409 1742 
Q 1991 1309 1228 531 
z
" id="DejaVuSans-32" transform="scale(0.015625)"/>
       </defs>
       <use xlink:href="#DejaVuSans-32"/>
       <use x="63.623047" xlink:href="#DejaVuSans-30"/>
       <use x="127.246094" xlink:href="#DejaVuSans-30"/>
       <use x="190.869141" xlink:href="#DejaVuSans-30"/>
      </g>
     </g>
    </g>
   </g>
   <g id="matplotlib.axis_2">
    <g id="ytick_1">
     <g id="line2d_6">
      <defs>
       <path d="M 0 0 
L -3.5 0 
" id="me5c8b50e10" style="stroke:#000000;stroke-width:0.8;"/>
      </defs>
      <g>
       <use style="stroke:#000000;stroke-width:0.8;" x="34.56" xlink:href="#me5c8b50e10" y="161.489576"/>
      </g>
     </g>
     <g id="text_6">
      <!-- −60 -->
      <g transform="translate(6.455313 165.288794)scale(0.1 -0.1)">
       <defs>
        <path d="M 678 2272 
L 4684 2272 
L 4684 1741 
L 678 1741 
L 678 2272 
z
" id="DejaVuSans-2212" transform="scale(0.015625)"/>
       </defs>
       <use xlink:href="#DejaVuSans-2212"/>
       <use x="83.789062" xlink:href="#DejaVuSans-36"/>
       <use x="147.412109" xlink:href="#DejaVuSans-30"/>
      </g>
     </g>
    </g>
    <g id="ytick_2">
     <g id="line2d_7">
      <g>
       <use style="stroke:#000000;stroke-width:0.8;" x="34.56" xlink:href="#me5c8b50e10" y="135.259717"/>
      </g>
     </g>
     <g id="text_7">
      <!-- −40 -->
      <g transform="translate(6.455313 139.058936)scale(0.1 -0.1)">
       <defs>
        <path d="M 2419 4116 
L 825 1625 
L 2419 1625 
L 2419 4116 
z
M 2253 4666 
L 3047 4666 
L 3047 1625 
L 3713 1625 
L 3713 1100 
L 3047 1100 
L 3047 0 
L 2419 0 
L 2419 1100 
L 313 1100 
L 313 1709 
L 2253 4666 
z
" id="DejaVuSans-34" transform="scale(0.015625)"/>
       </defs>
       <use xlink:href="#DejaVuSans-2212"/>
       <use x="83.789062" xlink:href="#DejaVuSans-34"/>
       <use x="147.412109" xlink:href="#DejaVuSans-30"/>
      </g>
     </g>
    </g>
    <g id="ytick_3">
     <g id="line2d_8">
      <g>
       <use style="stroke:#000000;stroke-width:0.8;" x="34.56" xlink:href="#me5c8b50e10" y="109.029859"/>
      </g>
     </g>
     <g id="text_8">
      <!-- −20 -->
      <g transform="translate(6.455313 112.829077)scale(0.1 -0.1)">
       <use xlink:href="#DejaVuSans-2212"/>
       <use x="83.789062" xlink:href="#DejaVuSans-32"/>
       <use x="147.412109" xlink:href="#DejaVuSans-30"/>
      </g>
     </g>
    </g>
    <g id="ytick_4">
     <g id="line2d_9">
      <g>
       <use style="stroke:#000000;stroke-width:0.8;" x="34.56" xlink:href="#me5c8b50e10" y="82.8"/>
      </g>
     </g>
     <g id="text_9">
      <!-- 0 -->
      <g transform="translate(21.1975 86.599219)scale(0.1 -0.1)">
       <use xlink:href="#DejaVuSans-30"/>
      </g>
     </g>
    </g>
    <g id="ytick_5">
     <g id="line2d_10">
      <g>
       <use style="stroke:#000000;stroke-width:0.8;" x="34.56" xlink:href="#me5c8b50e10" y="56.570141"/>
      </g>
     </g>
     <g id="text_10">
      <!-- 20 -->
      <g transform="translate(14.835 60.36936)scale(0.1 -0.1)">
       <use xlink:href="#DejaVuSans-32"/>
       <use x="63.623047" xlink:href="#DejaVuSans-30"/>
      </g>
     </g>
    </g>
    <g id="ytick_6">
     <g id="line2d_11">
      <g>
       <use style="stroke:#000000;stroke-width:0.8;" x="34.56" xlink:href="#me5c8b50e10" y="30.340283"/>
      </g>
     </g>
     <g id="text_11">
      <!-- 40 -->
      <g transform="translate(14.835 34.139502)scale(0.1 -0.1)">
       <use xlink:href="#DejaVuSans-34"/>
       <use x="63.623047" xlink:href="#DejaVuSans-30"/>
      </g>
     </g>
    </g>
    <g id="ytick_7">
     <g id="line2d_12">
      <g>
       <use style="stroke:#000000;stroke-width:0.8;" x="34.56" xlink:href="#me5c8b50e10" y="4.110424"/>
      </g>
     </g>
     <g id="text_12">
      <!-- 60 -->
      <g transform="translate(14.835 7.909643)scale(0.1 -0.1)">
       <use xlink:href="#DejaVuSans-36"/>
       <use x="63.623047" xlink:href="#DejaVuSans-30"/>
      </g>
     </g>
    </g>
   </g>
   <g id="line2d_13">
    <path clip-path="url(#p4fc297e359)" d="M 92.846882 83.353188 
L 93.494514 83.722576 
L 94.142147 83.346108 
L 94.789779 83.471085 
L 95.437411 83.225988 
L 96.732675 83.476341 
L 97.380307 83.412133 
L 98.027939 83.480485 
L 99.323203 83.893055 
L 99.970835 83.924371 
L 100.618467 84.103044 
L 103.208995 84.04279 
L 105.799523 83.829791 
L 106.447155 83.570946 
L 107.094787 83.707742 
L 107.742419 83.605971 
L 108.390051 82.611147 
L 109.037683 82.24892 
L 109.685315 82.115426 
L 110.332947 82.20629 
L 110.980579 82.169718 
L 112.923475 82.465783 
L 114.218739 82.271742 
L 114.866371 82.500388 
L 115.514003 82.297047 
L 116.161635 81.500727 
L 116.809267 81.773273 
L 118.752164 82.29552 
L 119.399796 82.499183 
L 120.69506 82.397852 
L 121.342692 82.670677 
L 121.990324 82.754035 
L 122.637956 82.585314 
L 123.285588 82.819699 
L 123.93322 82.884203 
L 124.580852 82.836035 
L 125.228484 83.01633 
L 125.876116 82.984331 
L 126.523748 82.79596 
L 128.466644 82.724076 
L 129.114276 83.105917 
L 130.40954 82.815616 
L 131.057172 83.109512 
L 131.704804 82.944892 
L 132.352436 83.515901 
L 133.000068 83.453483 
L 133.6477 84.005894 
L 134.295332 84.117317 
L 134.942964 84.351521 
L 135.590596 84.342634 
L 136.238228 84.170837 
L 136.88586 83.848298 
L 138.828756 84.83587 
L 139.476388 84.991558 
L 140.12402 85.327215 
L 140.771652 85.518266 
L 141.419284 85.139188 
L 142.066917 85.20369 
L 143.362181 84.861866 
L 144.009813 84.797334 
L 144.657445 84.471213 
L 145.305077 84.8071 
L 145.952709 84.871699 
L 147.247973 84.745239 
L 147.895605 84.82455 
L 149.838501 84.242393 
L 150.486133 84.259398 
L 151.133765 83.84066 
L 152.429029 83.597753 
L 153.076661 83.272009 
L 153.724293 83.27309 
L 155.019557 83.922517 
L 155.667189 84.233661 
L 156.314821 84.211905 
L 156.962453 84.321492 
L 157.610085 84.232418 
L 158.257717 83.78673 
L 159.552981 83.370323 
L 160.848245 82.974782 
L 161.495877 83.085689 
L 162.143509 82.874853 
L 163.438773 83.115933 
L 164.734037 83.474128 
L 165.38167 82.981065 
L 167.324566 83.168327 
L 167.972198 83.384045 
L 168.61983 83.284798 
L 169.267462 83.915192 
L 169.915094 83.981466 
L 170.562726 84.181196 
L 171.85799 84.283951 
L 172.505622 84.114817 
L 173.153254 84.072876 
L 173.800886 83.877369 
L 174.448518 83.455957 
L 175.09615 83.474857 
L 176.391414 82.803264 
L 177.039046 83.000352 
L 177.686678 82.913821 
L 178.981942 83.160783 
L 180.277206 83.120304 
L 181.57247 83.280848 
L 182.867734 82.463176 
L 183.515366 82.021647 
L 184.81063 81.852778 
L 185.458262 82.026448 
L 186.753526 81.837292 
L 187.401158 81.293119 
L 188.04879 81.185916 
L 189.344055 80.718018 
L 189.991687 80.583745 
L 190.639319 81.024119 
L 191.934583 80.524796 
L 192.582215 80.589552 
L 193.229847 80.389698 
L 193.877479 80.750497 
L 195.172743 80.855503 
L 195.820375 80.181043 
L 196.468007 79.785012 
L 197.763271 79.38843 
L 199.058535 80.034317 
L 199.706167 79.440986 
L 200.353799 79.603983 
L 201.001431 79.562522 
L 201.649063 79.694211 
L 202.944327 79.218985 
L 203.591959 79.492712 
L 204.887223 79.207607 
L 205.534855 78.695021 
L 208.125383 78.265223 
L 208.773015 78.073512 
L 209.420647 78.175204 
L 210.715911 77.898797 
L 211.363543 77.759027 
L 212.011175 77.938745 
L 213.30644 77.274622 
L 213.954072 76.68664 
L 216.5446 76.63609 
L 217.839864 77.312374 
L 218.487496 77.155023 
L 219.135128 77.283984 
L 219.78276 77.125237 
L 220.430392 76.696204 
L 221.725656 76.210093 
L 223.02092 76.323504 
L 224.963816 76.611383 
L 225.611448 76.215717 
L 226.25908 76.233746 
L 226.906712 76.377852 
L 227.554344 76.244196 
L 228.201976 76.395434 
L 228.849608 76.811059 
L 229.49724 76.41366 
L 230.792504 76.027878 
L 231.440136 75.524458 
L 232.087768 75.55227 
L 233.383032 75.092804 
L 234.030664 75.435881 
L 234.678296 75.49663 
L 235.325928 75.757107 
L 235.97356 75.78672 
L 236.621193 75.698886 
L 237.268825 75.823423 
L 237.916457 75.694795 
L 238.564089 76.035259 
L 240.506985 76.09595 
L 241.154617 76.335823 
L 241.802249 76.391619 
L 242.449881 75.821306 
L 243.745145 75.114004 
L 244.392777 74.911945 
L 245.688041 75.050466 
L 246.335673 74.662695 
L 246.983305 74.479986 
L 248.278569 74.355891 
L 249.573833 74.226333 
L 250.221465 74.33183 
L 252.164361 74.242969 
L 252.811993 73.835703 
L 253.459625 74.023588 
L 254.107257 73.785451 
L 254.754889 73.848087 
L 256.050153 74.633962 
L 257.345417 74.621119 
L 257.993049 74.316344 
L 259.288313 74.856123 
L 259.935945 74.869711 
L 260.583578 75.092874 
L 262.526474 76.585301 
L 263.174106 76.84526 
L 263.821738 76.913576 
L 265.117002 76.776538 
L 266.412266 77.155716 
L 267.059898 76.744271 
L 268.355162 77.138607 
L 269.002794 77.577227 
L 269.650426 77.757814 
L 270.298058 77.558933 
L 272.240954 78.261383 
L 272.888586 78.314955 
L 274.18385 77.427824 
L 274.831482 77.245212 
L 275.479114 77.341723 
L 276.126746 77.301441 
L 276.774378 77.560745 
L 277.42201 77.661636 
L 278.069642 77.877393 
L 278.717274 77.85084 
L 280.012538 77.432091 
L 283.89833 78.259802 
L 285.193595 78.138739 
L 287.136491 78.327996 
L 287.784123 77.927391 
L 288.431755 78.179575 
L 289.727019 78.177067 
L 290.374651 78.018665 
L 291.022283 78.039243 
L 291.669915 78.370377 
L 292.317547 78.122893 
L 292.965179 78.300712 
L 294.260443 78.33714 
L 294.908075 78.597098 
L 296.203339 78.518062 
L 296.850971 78.265649 
L 297.498603 77.593174 
L 298.793867 77.284044 
L 300.089131 77.193366 
L 300.736763 77.504116 
L 301.384395 77.102913 
L 302.032027 76.874024 
L 303.327291 77.417916 
L 303.974923 77.331951 
L 305.270187 76.842202 
L 305.917819 75.797752 
L 307.213083 75.151643 
L 307.860716 74.999095 
L 308.508348 75.063769 
L 309.803612 74.384578 
L 310.451244 73.818192 
L 311.098876 73.482895 
L 311.746508 73.41099 
L 312.39414 73.486571 
L 313.041772 73.968691 
L 313.689404 74.696622 
L 314.337036 74.882173 
L 314.984668 75.360553 
L 316.279932 75.243214 
L 316.927564 75.372617 
L 317.575196 75.630514 
L 318.222828 75.266361 
L 318.87046 75.147016 
L 320.165724 75.351603 
L 320.813356 75.911782 
L 321.460988 76.160425 
L 322.756252 76.333258 
L 323.403884 75.805783 
L 324.051516 76.123188 
L 324.699148 75.754276 
L 326.642044 75.510636 
L 327.289676 76.014839 
L 327.937308 76.362814 
L 328.58494 76.138815 
L 329.232572 76.041749 
L 329.880204 76.400245 
L 330.527836 76.3889 
L 331.175468 76.87554 
L 331.823101 76.872966 
L 334.413629 75.977675 
L 335.708893 75.968102 
L 337.004157 77.897721 
L 338.299421 78.658567 
L 338.947053 79.344837 
L 340.242317 79.131001 
L 340.889949 78.857471 
L 341.537581 78.740632 
L 342.185213 78.483261 
L 342.832845 78.397773 
L 343.480477 78.896433 
L 344.775741 80.185212 
L 345.423373 80.36374 
L 346.071005 80.405184 
L 346.718637 80.16414 
L 347.366269 80.442756 
L 348.013901 80.020799 
L 348.661533 79.735001 
L 349.309165 79.725474 
L 350.604429 79.474985 
L 351.899693 80.116927 
L 352.547325 80.845958 
L 353.194957 82.249697 
L 353.842589 82.556373 
L 354.490221 82.680768 
L 355.137853 82.690588 
L 355.785486 82.9751 
L 356.433118 82.8 
L 356.433118 82.8 
" style="fill:none;stroke:#1f77b4;stroke-linecap:square;stroke-width:1.5;"/>
   </g>
   <g id="line2d_14">
    <path clip-path="url(#p4fc297e359)" d="M 34.56 82.8 
L 414.72 82.8 
" style="fill:none;stroke:#000000;stroke-dasharray:1.5,2.475;stroke-dashoffset:0;stroke-width:1.5;"/>
   </g>
   <g id="patch_3">
    <path d="M 34.56 162 
L 34.56 3.6 
" style="fill:none;stroke:#000000;stroke-linecap:square;stroke-linejoin:miter;stroke-width:0.8;"/>
   </g>
   <g id="patch_4">
    <path d="M 414.72 162 
L 414.72 3.6 
" style="fill:none;stroke:#000000;stroke-linecap:square;stroke-linejoin:miter;stroke-width:0.8;"/>
   </g>
   <g id="patch_5">
    <path d="M 34.56 162 
L 414.72 162 
" style="fill:none;stroke:#000000;stroke-linecap:square;stroke-linejoin:miter;stroke-width:0.8;"/>
   </g>
   <g id="patch_6">
    <path d="M 34.56 3.6 
L 414.72 3.6 
" style="fill:none;stroke:#000000;stroke-linecap:square;stroke-linejoin:miter;stroke-width:0.8;"/>
   </g>
  </g>
 </g>
 <defs>
  <clipPath id="p4fc297e359">
   <rect height="158.4" width="380.16" x="34.56" y="3.6"/>
  </clipPath>
 </defs>
</svg>
