<?xml version="1.0" encoding="utf-8" standalone="no"?>
<!DOCTYPE svg PUBLIC "-//W3C//DTD SVG 1.1//EN"
  "http://www.w3.org/Graphics/SVG/1.1/DTD/svg11.dtd">
<svg height="180pt" version="1.1" viewBox="0 0 432 180" width="432pt" xmlns="http://www.w3.org/2000/svg" xmlns:xlink="http://www.w3.org/1999/xlink">
 <metadata>
  <rdf:RDF xmlns:cc="http://creativecommons.org/ns#" xmlns:dc="http://purl.org/dc/elements/1.1/" xmlns:rdf="http://www.w3.org/1999/02/22-rdf-syntax-ns#">
   <cc:Work>
    <dc:type rdf:resource="http://purl.org/dc/dcmitype/StillImage"/>
    <dc:date>2021-09-03T23:24:21.712738</dc:date>
    <dc:format>image/svg+xml</dc:format>
    <dc:creator>
     <cc:Agent>
      <dc:title>Matplotlib v3.4.2, https://matplotlib.org/</dc:title>
     </cc:Agent>
    </dc:creator>
   </cc:Work>
  </rdf:RDF>
 </metadata>
 <defs>
  <style type="text/css">*{stroke-linecap:butt;stroke-linejoin:round;}</style>
 </defs>
 <g id="figure_1">
  <g id="patch_1">
   <path d="M 0 180 
L 432 180 
L 432 0 
L 0 0 
z
" style="fill:#ffffff;"/>
  </g>
  <g id="axes_1">
   <g id="patch_2">
    <path d="M 34.56 162 
L 414.72 162 
L 414.72 3.6 
L 34.56 3.6 
z
" style="fill:#ffffff;"/>
   </g>
   <g id="PolyCollection_1">
    <path clip-path="url(#p4d322c0079)" d="M 69.35811 80.176401 
L 69.35811 85.423599 
L 69.35811 80.176401 
L 69.35811 80.176401 
z
" style="fill:#0000ff;fill-opacity:0.1;stroke:#0000ff;stroke-opacity:0.1;"/>
    <path clip-path="url(#p4d322c0079)" d="M 70.854803 77.621841 
L 70.854803 87.978159 
L 70.854803 77.621841 
L 70.854803 77.621841 
z
" style="fill:#0000ff;fill-opacity:0.1;stroke:#0000ff;stroke-opacity:0.1;"/>
    <path clip-path="url(#p4d322c0079)" d="M 73.848189 75.112897 
L 73.848189 90.487103 
L 73.848189 75.112897 
L 73.848189 75.112897 
z
" style="fill:#0000ff;fill-opacity:0.1;stroke:#0000ff;stroke-opacity:0.1;"/>
    <path clip-path="url(#p4d322c0079)" d="M 75.344882 72.649571 
L 75.344882 92.950429 
L 75.344882 72.649571 
L 75.344882 72.649571 
z
" style="fill:#0000ff;fill-opacity:0.1;stroke:#0000ff;stroke-opacity:0.1;"/>
    <path clip-path="url(#p4d322c0079)" d="M 78.338268 70.231862 
L 78.338268 95.368138 
L 78.338268 70.231862 
L 78.338268 70.231862 
z
" style="fill:#0000ff;fill-opacity:0.1;stroke:#0000ff;stroke-opacity:0.1;"/>
    <path clip-path="url(#p4d322c0079)" d="M 79.834961 67.85977 
L 79.834961 97.74023 
L 79.834961 67.85977 
L 79.834961 67.85977 
z
" style="fill:#0000ff;fill-opacity:0.1;stroke:#0000ff;stroke-opacity:0.1;"/>
    <path clip-path="url(#p4d322c0079)" d="M 84.325039 65.533296 
L 84.325039 100.066704 
L 84.325039 65.533296 
L 84.325039 65.533296 
z
" style="fill:#0000ff;fill-opacity:0.1;stroke:#0000ff;stroke-opacity:0.1;"/>
    <path clip-path="url(#p4d322c0079)" d="M 87.318425 63.252438 
L 87.318425 102.347562 
L 87.318425 63.252438 
L 87.318425 63.252438 
z
" style="fill:#0000ff;fill-opacity:0.1;stroke:#0000ff;stroke-opacity:0.1;"/>
    <path clip-path="url(#p4d322c0079)" d="M 88.815118 61.017198 
L 88.815118 104.582802 
L 88.815118 61.017198 
L 88.815118 61.017198 
z
" style="fill:#0000ff;fill-opacity:0.1;stroke:#0000ff;stroke-opacity:0.1;"/>
    <path clip-path="url(#p4d322c0079)" d="M 91.808504 58.827575 
L 91.808504 106.772425 
L 91.808504 58.827575 
L 91.808504 58.827575 
z
" style="fill:#0000ff;fill-opacity:0.1;stroke:#0000ff;stroke-opacity:0.1;"/>
    <path clip-path="url(#p4d322c0079)" d="M 93.305197 56.683568 
L 93.305197 108.916432 
L 93.305197 56.683568 
L 93.305197 56.683568 
z
" style="fill:#0000ff;fill-opacity:0.1;stroke:#0000ff;stroke-opacity:0.1;"/>
    <path clip-path="url(#p4d322c0079)" d="M 96.298583 54.58518 
L 96.298583 111.01482 
L 96.298583 54.58518 
L 96.298583 54.58518 
z
" style="fill:#0000ff;fill-opacity:0.1;stroke:#0000ff;stroke-opacity:0.1;"/>
    <path clip-path="url(#p4d322c0079)" d="M 97.795276 52.532408 
L 97.795276 113.067592 
L 97.795276 52.532408 
L 97.795276 52.532408 
z
" style="fill:#0000ff;fill-opacity:0.1;stroke:#0000ff;stroke-opacity:0.1;"/>
    <path clip-path="url(#p4d322c0079)" d="M 100.788661 50.525253 
L 100.788661 115.074747 
L 100.788661 50.525253 
L 100.788661 50.525253 
z
" style="fill:#0000ff;fill-opacity:0.1;stroke:#0000ff;stroke-opacity:0.1;"/>
    <path clip-path="url(#p4d322c0079)" d="M 102.285354 48.563716 
L 102.285354 117.036284 
L 102.285354 48.563716 
L 102.285354 48.563716 
z
" style="fill:#0000ff;fill-opacity:0.1;stroke:#0000ff;stroke-opacity:0.1;"/>
    <path clip-path="url(#p4d322c0079)" d="M 105.27874 46.647795 
L 105.27874 118.952205 
L 105.27874 46.647795 
L 105.27874 46.647795 
z
" style="fill:#0000ff;fill-opacity:0.1;stroke:#0000ff;stroke-opacity:0.1;"/>
    <path clip-path="url(#p4d322c0079)" d="M 106.775433 44.777492 
L 106.775433 120.822508 
L 106.775433 44.777492 
L 106.775433 44.777492 
z
" style="fill:#0000ff;fill-opacity:0.1;stroke:#0000ff;stroke-opacity:0.1;"/>
    <path clip-path="url(#p4d322c0079)" d="M 109.768819 42.952806 
L 109.768819 122.647194 
L 109.768819 42.952806 
L 109.768819 42.952806 
z
" style="fill:#0000ff;fill-opacity:0.1;stroke:#0000ff;stroke-opacity:0.1;"/>
    <path clip-path="url(#p4d322c0079)" d="M 111.265512 41.173737 
L 111.265512 124.426263 
L 111.265512 41.173737 
L 111.265512 41.173737 
z
" style="fill:#0000ff;fill-opacity:0.1;stroke:#0000ff;stroke-opacity:0.1;"/>
    <path clip-path="url(#p4d322c0079)" d="M 114.258898 39.440286 
L 114.258898 126.159714 
L 114.258898 39.440286 
L 114.258898 39.440286 
z
" style="fill:#0000ff;fill-opacity:0.1;stroke:#0000ff;stroke-opacity:0.1;"/>
    <path clip-path="url(#p4d322c0079)" d="M 115.755591 37.752451 
L 115.755591 127.847549 
L 115.755591 37.752451 
L 115.755591 37.752451 
z
" style="fill:#0000ff;fill-opacity:0.1;stroke:#0000ff;stroke-opacity:0.1;"/>
    <path clip-path="url(#p4d322c0079)" d="M 118.748976 36.110234 
L 118.748976 129.489766 
L 118.748976 36.110234 
L 118.748976 36.110234 
z
" style="fill:#0000ff;fill-opacity:0.1;stroke:#0000ff;stroke-opacity:0.1;"/>
    <path clip-path="url(#p4d322c0079)" d="M 120.245669 34.513633 
L 120.245669 131.086367 
L 120.245669 34.513633 
L 120.245669 34.513633 
z
" style="fill:#0000ff;fill-opacity:0.1;stroke:#0000ff;stroke-opacity:0.1;"/>
    <path clip-path="url(#p4d322c0079)" d="M 123.239055 32.96265 
L 123.239055 132.63735 
L 123.239055 32.96265 
L 123.239055 32.96265 
z
" style="fill:#0000ff;fill-opacity:0.1;stroke:#0000ff;stroke-opacity:0.1;"/>
    <path clip-path="url(#p4d322c0079)" d="M 124.735748 31.457284 
L 124.735748 134.142716 
L 124.735748 31.457284 
L 124.735748 31.457284 
z
" style="fill:#0000ff;fill-opacity:0.1;stroke:#0000ff;stroke-opacity:0.1;"/>
    <path clip-path="url(#p4d322c0079)" d="M 127.729134 29.997535 
L 127.729134 135.602465 
L 127.729134 29.997535 
L 127.729134 29.997535 
z
" style="fill:#0000ff;fill-opacity:0.1;stroke:#0000ff;stroke-opacity:0.1;"/>
    <path clip-path="url(#p4d322c0079)" d="M 129.225827 28.583404 
L 129.225827 137.016596 
L 129.225827 28.583404 
L 129.225827 28.583404 
z
" style="fill:#0000ff;fill-opacity:0.1;stroke:#0000ff;stroke-opacity:0.1;"/>
    <path clip-path="url(#p4d322c0079)" d="M 132.219213 27.214889 
L 132.219213 138.385111 
L 132.219213 27.214889 
L 132.219213 27.214889 
z
" style="fill:#0000ff;fill-opacity:0.1;stroke:#0000ff;stroke-opacity:0.1;"/>
    <path clip-path="url(#p4d322c0079)" d="M 133.715906 25.891992 
L 133.715906 139.708008 
L 133.715906 25.891992 
L 133.715906 25.891992 
z
" style="fill:#0000ff;fill-opacity:0.1;stroke:#0000ff;stroke-opacity:0.1;"/>
    <path clip-path="url(#p4d322c0079)" d="M 136.709291 24.614712 
L 136.709291 140.985288 
L 136.709291 24.614712 
L 136.709291 24.614712 
z
" style="fill:#0000ff;fill-opacity:0.1;stroke:#0000ff;stroke-opacity:0.1;"/>
    <path clip-path="url(#p4d322c0079)" d="M 138.205984 23.383048 
L 138.205984 142.216952 
L 138.205984 23.383048 
L 138.205984 23.383048 
z
" style="fill:#0000ff;fill-opacity:0.1;stroke:#0000ff;stroke-opacity:0.1;"/>
    <path clip-path="url(#p4d322c0079)" d="M 141.19937 22.197003 
L 141.19937 143.402997 
L 141.19937 22.197003 
L 141.19937 22.197003 
z
" style="fill:#0000ff;fill-opacity:0.1;stroke:#0000ff;stroke-opacity:0.1;"/>
    <path clip-path="url(#p4d322c0079)" d="M 142.696063 21.056574 
L 142.696063 144.543426 
L 142.696063 21.056574 
L 142.696063 21.056574 
z
" style="fill:#0000ff;fill-opacity:0.1;stroke:#0000ff;stroke-opacity:0.1;"/>
    <path clip-path="url(#p4d322c0079)" d="M 145.689449 19.961762 
L 145.689449 145.638238 
L 145.689449 19.961762 
L 145.689449 19.961762 
z
" style="fill:#0000ff;fill-opacity:0.1;stroke:#0000ff;stroke-opacity:0.1;"/>
    <path clip-path="url(#p4d322c0079)" d="M 147.186142 18.912568 
L 147.186142 146.687432 
L 147.186142 18.912568 
L 147.186142 18.912568 
z
" style="fill:#0000ff;fill-opacity:0.1;stroke:#0000ff;stroke-opacity:0.1;"/>
    <path clip-path="url(#p4d322c0079)" d="M 150.179528 17.90899 
L 150.179528 147.69101 
L 150.179528 17.90899 
L 150.179528 17.90899 
z
" style="fill:#0000ff;fill-opacity:0.1;stroke:#0000ff;stroke-opacity:0.1;"/>
    <path clip-path="url(#p4d322c0079)" d="M 151.67622 16.95103 
L 151.67622 148.64897 
L 151.67622 16.95103 
L 151.67622 16.95103 
z
" style="fill:#0000ff;fill-opacity:0.1;stroke:#0000ff;stroke-opacity:0.1;"/>
    <path clip-path="url(#p4d322c0079)" d="M 154.669606 16.038687 
L 154.669606 149.561313 
L 154.669606 16.038687 
L 154.669606 16.038687 
z
" style="fill:#0000ff;fill-opacity:0.1;stroke:#0000ff;stroke-opacity:0.1;"/>
    <path clip-path="url(#p4d322c0079)" d="M 156.166299 15.171961 
L 156.166299 150.428039 
L 156.166299 15.171961 
L 156.166299 15.171961 
z
" style="fill:#0000ff;fill-opacity:0.1;stroke:#0000ff;stroke-opacity:0.1;"/>
    <path clip-path="url(#p4d322c0079)" d="M 159.159685 14.350853 
L 159.159685 151.249147 
L 159.159685 14.350853 
L 159.159685 14.350853 
z
" style="fill:#0000ff;fill-opacity:0.1;stroke:#0000ff;stroke-opacity:0.1;"/>
    <path clip-path="url(#p4d322c0079)" d="M 160.656378 13.575361 
L 160.656378 152.024639 
L 160.656378 13.575361 
L 160.656378 13.575361 
z
" style="fill:#0000ff;fill-opacity:0.1;stroke:#0000ff;stroke-opacity:0.1;"/>
    <path clip-path="url(#p4d322c0079)" d="M 163.649764 12.845487 
L 163.649764 152.754513 
L 163.649764 12.845487 
L 163.649764 12.845487 
z
" style="fill:#0000ff;fill-opacity:0.1;stroke:#0000ff;stroke-opacity:0.1;"/>
    <path clip-path="url(#p4d322c0079)" d="M 165.146457 12.161229 
L 165.146457 153.438771 
L 165.146457 12.161229 
L 165.146457 12.161229 
z
" style="fill:#0000ff;fill-opacity:0.1;stroke:#0000ff;stroke-opacity:0.1;"/>
    <path clip-path="url(#p4d322c0079)" d="M 168.139843 11.522589 
L 168.139843 154.077411 
L 168.139843 11.522589 
L 168.139843 11.522589 
z
" style="fill:#0000ff;fill-opacity:0.1;stroke:#0000ff;stroke-opacity:0.1;"/>
    <path clip-path="url(#p4d322c0079)" d="M 169.636535 10.929566 
L 169.636535 154.670434 
L 169.636535 10.929566 
L 169.636535 10.929566 
z
" style="fill:#0000ff;fill-opacity:0.1;stroke:#0000ff;stroke-opacity:0.1;"/>
    <path clip-path="url(#p4d322c0079)" d="M 172.629921 10.382161 
L 172.629921 155.217839 
L 172.629921 10.382161 
L 172.629921 10.382161 
z
" style="fill:#0000ff;fill-opacity:0.1;stroke:#0000ff;stroke-opacity:0.1;"/>
    <path clip-path="url(#p4d322c0079)" d="M 174.126614 9.880372 
L 174.126614 155.719628 
L 174.126614 9.880372 
L 174.126614 9.880372 
z
" style="fill:#0000ff;fill-opacity:0.1;stroke:#0000ff;stroke-opacity:0.1;"/>
    <path clip-path="url(#p4d322c0079)" d="M 177.12 9.4242 
L 177.12 156.1758 
L 177.12 9.4242 
L 177.12 9.4242 
z
" style="fill:#0000ff;fill-opacity:0.1;stroke:#0000ff;stroke-opacity:0.1;"/>
    <path clip-path="url(#p4d322c0079)" d="M 178.616693 9.013646 
L 178.616693 156.586354 
L 178.616693 9.013646 
L 178.616693 9.013646 
z
" style="fill:#0000ff;fill-opacity:0.1;stroke:#0000ff;stroke-opacity:0.1;"/>
    <path clip-path="url(#p4d322c0079)" d="M 181.610079 8.648709 
L 181.610079 156.951291 
L 181.610079 8.648709 
L 181.610079 8.648709 
z
" style="fill:#0000ff;fill-opacity:0.1;stroke:#0000ff;stroke-opacity:0.1;"/>
    <path clip-path="url(#p4d322c0079)" d="M 183.106772 8.329389 
L 183.106772 157.270611 
L 183.106772 8.329389 
L 183.106772 8.329389 
z
" style="fill:#0000ff;fill-opacity:0.1;stroke:#0000ff;stroke-opacity:0.1;"/>
    <path clip-path="url(#p4d322c0079)" d="M 186.100157 8.055686 
L 186.100157 157.544314 
L 186.100157 8.055686 
L 186.100157 8.055686 
z
" style="fill:#0000ff;fill-opacity:0.1;stroke:#0000ff;stroke-opacity:0.1;"/>
    <path clip-path="url(#p4d322c0079)" d="M 187.59685 7.8276 
L 187.59685 157.7724 
L 187.59685 7.8276 
L 187.59685 7.8276 
z
" style="fill:#0000ff;fill-opacity:0.1;stroke:#0000ff;stroke-opacity:0.1;"/>
    <path clip-path="url(#p4d322c0079)" d="M 190.590236 7.645131 
L 190.590236 157.954869 
L 190.590236 7.645131 
L 190.590236 7.645131 
z
" style="fill:#0000ff;fill-opacity:0.1;stroke:#0000ff;stroke-opacity:0.1;"/>
    <path clip-path="url(#p4d322c0079)" d="M 192.086929 7.50828 
L 192.086929 158.09172 
L 192.086929 7.50828 
L 192.086929 7.50828 
z
" style="fill:#0000ff;fill-opacity:0.1;stroke:#0000ff;stroke-opacity:0.1;"/>
    <path clip-path="url(#p4d322c0079)" d="M 195.080315 7.417046 
L 195.080315 158.182954 
L 195.080315 7.417046 
L 195.080315 7.417046 
z
" style="fill:#0000ff;fill-opacity:0.1;stroke:#0000ff;stroke-opacity:0.1;"/>
    <path clip-path="url(#p4d322c0079)" d="M 196.577008 7.371429 
L 196.577008 158.228571 
L 196.577008 7.371429 
L 196.577008 7.371429 
z
" style="fill:#0000ff;fill-opacity:0.1;stroke:#0000ff;stroke-opacity:0.1;"/>
    <path clip-path="url(#p4d322c0079)" d="M 199.570394 7.371429 
L 199.570394 158.228571 
L 199.570394 7.371429 
L 199.570394 7.371429 
z
" style="fill:#0000ff;fill-opacity:0.1;stroke:#0000ff;stroke-opacity:0.1;"/>
    <path clip-path="url(#p4d322c0079)" d="M 201.067087 7.417046 
L 201.067087 158.182954 
L 201.067087 7.417046 
L 201.067087 7.417046 
z
" style="fill:#0000ff;fill-opacity:0.1;stroke:#0000ff;stroke-opacity:0.1;"/>
    <path clip-path="url(#p4d322c0079)" d="M 204.060472 7.50828 
L 204.060472 158.09172 
L 204.060472 7.50828 
L 204.060472 7.50828 
z
" style="fill:#0000ff;fill-opacity:0.1;stroke:#0000ff;stroke-opacity:0.1;"/>
    <path clip-path="url(#p4d322c0079)" d="M 205.557165 7.645131 
L 205.557165 157.954869 
L 205.557165 7.645131 
L 205.557165 7.645131 
z
" style="fill:#0000ff;fill-opacity:0.1;stroke:#0000ff;stroke-opacity:0.1;"/>
    <path clip-path="url(#p4d322c0079)" d="M 208.550551 7.8276 
L 208.550551 157.7724 
L 208.550551 7.8276 
L 208.550551 7.8276 
z
" style="fill:#0000ff;fill-opacity:0.1;stroke:#0000ff;stroke-opacity:0.1;"/>
    <path clip-path="url(#p4d322c0079)" d="M 210.047244 8.055686 
L 210.047244 157.544314 
L 210.047244 8.055686 
L 210.047244 8.055686 
z
" style="fill:#0000ff;fill-opacity:0.1;stroke:#0000ff;stroke-opacity:0.1;"/>
    <path clip-path="url(#p4d322c0079)" d="M 213.04063 8.329389 
L 213.04063 157.270611 
L 213.04063 8.329389 
L 213.04063 8.329389 
z
" style="fill:#0000ff;fill-opacity:0.1;stroke:#0000ff;stroke-opacity:0.1;"/>
    <path clip-path="url(#p4d322c0079)" d="M 214.537323 8.648709 
L 214.537323 156.951291 
L 214.537323 8.648709 
L 214.537323 8.648709 
z
" style="fill:#0000ff;fill-opacity:0.1;stroke:#0000ff;stroke-opacity:0.1;"/>
    <path clip-path="url(#p4d322c0079)" d="M 217.530709 9.013646 
L 217.530709 156.586354 
L 217.530709 9.013646 
L 217.530709 9.013646 
z
" style="fill:#0000ff;fill-opacity:0.1;stroke:#0000ff;stroke-opacity:0.1;"/>
    <path clip-path="url(#p4d322c0079)" d="M 219.027402 9.4242 
L 219.027402 156.1758 
L 219.027402 9.4242 
L 219.027402 9.4242 
z
" style="fill:#0000ff;fill-opacity:0.1;stroke:#0000ff;stroke-opacity:0.1;"/>
    <path clip-path="url(#p4d322c0079)" d="M 226.510866 9.880372 
L 226.510866 155.719628 
L 226.510866 9.880372 
L 226.510866 9.880372 
z
" style="fill:#0000ff;fill-opacity:0.1;stroke:#0000ff;stroke-opacity:0.1;"/>
    <path clip-path="url(#p4d322c0079)" d="M 228.007559 10.382161 
L 228.007559 155.217839 
L 228.007559 10.382161 
L 228.007559 10.382161 
z
" style="fill:#0000ff;fill-opacity:0.1;stroke:#0000ff;stroke-opacity:0.1;"/>
    <path clip-path="url(#p4d322c0079)" d="M 231.000945 10.929566 
L 231.000945 154.670434 
L 231.000945 10.929566 
L 231.000945 10.929566 
z
" style="fill:#0000ff;fill-opacity:0.1;stroke:#0000ff;stroke-opacity:0.1;"/>
    <path clip-path="url(#p4d322c0079)" d="M 232.497638 11.522589 
L 232.497638 154.077411 
L 232.497638 11.522589 
L 232.497638 11.522589 
z
" style="fill:#0000ff;fill-opacity:0.1;stroke:#0000ff;stroke-opacity:0.1;"/>
    <path clip-path="url(#p4d322c0079)" d="M 235.491024 12.161229 
L 235.491024 153.438771 
L 235.491024 12.161229 
L 235.491024 12.161229 
z
" style="fill:#0000ff;fill-opacity:0.1;stroke:#0000ff;stroke-opacity:0.1;"/>
    <path clip-path="url(#p4d322c0079)" d="M 236.987717 12.845487 
L 236.987717 152.754513 
L 236.987717 12.845487 
L 236.987717 12.845487 
z
" style="fill:#0000ff;fill-opacity:0.1;stroke:#0000ff;stroke-opacity:0.1;"/>
    <path clip-path="url(#p4d322c0079)" d="M 239.981102 13.575361 
L 239.981102 152.024639 
L 239.981102 13.575361 
L 239.981102 13.575361 
z
" style="fill:#0000ff;fill-opacity:0.1;stroke:#0000ff;stroke-opacity:0.1;"/>
    <path clip-path="url(#p4d322c0079)" d="M 241.477795 14.350853 
L 241.477795 151.249147 
L 241.477795 14.350853 
L 241.477795 14.350853 
z
" style="fill:#0000ff;fill-opacity:0.1;stroke:#0000ff;stroke-opacity:0.1;"/>
    <path clip-path="url(#p4d322c0079)" d="M 244.471181 15.171961 
L 244.471181 150.428039 
L 244.471181 15.171961 
L 244.471181 15.171961 
z
" style="fill:#0000ff;fill-opacity:0.1;stroke:#0000ff;stroke-opacity:0.1;"/>
    <path clip-path="url(#p4d322c0079)" d="M 245.967874 16.038687 
L 245.967874 149.561313 
L 245.967874 16.038687 
L 245.967874 16.038687 
z
" style="fill:#0000ff;fill-opacity:0.1;stroke:#0000ff;stroke-opacity:0.1;"/>
    <path clip-path="url(#p4d322c0079)" d="M 248.96126 16.95103 
L 248.96126 148.64897 
L 248.96126 16.95103 
L 248.96126 16.95103 
z
" style="fill:#0000ff;fill-opacity:0.1;stroke:#0000ff;stroke-opacity:0.1;"/>
    <path clip-path="url(#p4d322c0079)" d="M 250.457953 17.90899 
L 250.457953 147.69101 
L 250.457953 17.90899 
L 250.457953 17.90899 
z
" style="fill:#0000ff;fill-opacity:0.1;stroke:#0000ff;stroke-opacity:0.1;"/>
    <path clip-path="url(#p4d322c0079)" d="M 253.451339 18.912568 
L 253.451339 146.687432 
L 253.451339 18.912568 
L 253.451339 18.912568 
z
" style="fill:#0000ff;fill-opacity:0.1;stroke:#0000ff;stroke-opacity:0.1;"/>
    <path clip-path="url(#p4d322c0079)" d="M 254.948031 19.961762 
L 254.948031 145.638238 
L 254.948031 19.961762 
L 254.948031 19.961762 
z
" style="fill:#0000ff;fill-opacity:0.1;stroke:#0000ff;stroke-opacity:0.1;"/>
    <path clip-path="url(#p4d322c0079)" d="M 257.941417 21.056574 
L 257.941417 144.543426 
L 257.941417 21.056574 
L 257.941417 21.056574 
z
" style="fill:#0000ff;fill-opacity:0.1;stroke:#0000ff;stroke-opacity:0.1;"/>
    <path clip-path="url(#p4d322c0079)" d="M 259.43811 22.197003 
L 259.43811 143.402997 
L 259.43811 22.197003 
L 259.43811 22.197003 
z
" style="fill:#0000ff;fill-opacity:0.1;stroke:#0000ff;stroke-opacity:0.1;"/>
    <path clip-path="url(#p4d322c0079)" d="M 262.431496 23.383048 
L 262.431496 142.216952 
L 262.431496 23.383048 
L 262.431496 23.383048 
z
" style="fill:#0000ff;fill-opacity:0.1;stroke:#0000ff;stroke-opacity:0.1;"/>
    <path clip-path="url(#p4d322c0079)" d="M 263.928189 24.614712 
L 263.928189 140.985288 
L 263.928189 24.614712 
L 263.928189 24.614712 
z
" style="fill:#0000ff;fill-opacity:0.1;stroke:#0000ff;stroke-opacity:0.1;"/>
    <path clip-path="url(#p4d322c0079)" d="M 266.921575 25.891992 
L 266.921575 139.708008 
L 266.921575 25.891992 
L 266.921575 25.891992 
z
" style="fill:#0000ff;fill-opacity:0.1;stroke:#0000ff;stroke-opacity:0.1;"/>
    <path clip-path="url(#p4d322c0079)" d="M 268.418268 27.214889 
L 268.418268 138.385111 
L 268.418268 27.214889 
L 268.418268 27.214889 
z
" style="fill:#0000ff;fill-opacity:0.1;stroke:#0000ff;stroke-opacity:0.1;"/>
    <path clip-path="url(#p4d322c0079)" d="M 299.848819 28.583404 
L 299.848819 137.016596 
L 299.848819 28.583404 
L 299.848819 28.583404 
z
" style="fill:#0000ff;fill-opacity:0.1;stroke:#0000ff;stroke-opacity:0.1;"/>
    <path clip-path="url(#p4d322c0079)" d="M 302.842205 29.997535 
L 302.842205 135.602465 
L 302.842205 29.997535 
L 302.842205 29.997535 
z
" style="fill:#0000ff;fill-opacity:0.1;stroke:#0000ff;stroke-opacity:0.1;"/>
    <path clip-path="url(#p4d322c0079)" d="M 304.338898 31.457284 
L 304.338898 134.142716 
L 304.338898 31.457284 
L 304.338898 31.457284 
z
" style="fill:#0000ff;fill-opacity:0.1;stroke:#0000ff;stroke-opacity:0.1;"/>
    <path clip-path="url(#p4d322c0079)" d="M 311.822362 32.96265 
L 311.822362 132.63735 
L 311.822362 32.96265 
L 311.822362 32.96265 
z
" style="fill:#0000ff;fill-opacity:0.1;stroke:#0000ff;stroke-opacity:0.1;"/>
    <path clip-path="url(#p4d322c0079)" d="M 313.319055 34.513633 
L 313.319055 131.086367 
L 313.319055 34.513633 
L 313.319055 34.513633 
z
" style="fill:#0000ff;fill-opacity:0.1;stroke:#0000ff;stroke-opacity:0.1;"/>
    <path clip-path="url(#p4d322c0079)" d="M 316.312441 36.110234 
L 316.312441 129.489766 
L 316.312441 36.110234 
L 316.312441 36.110234 
z
" style="fill:#0000ff;fill-opacity:0.1;stroke:#0000ff;stroke-opacity:0.1;"/>
    <path clip-path="url(#p4d322c0079)" d="M 325.292598 37.752451 
L 325.292598 127.847549 
L 325.292598 37.752451 
L 325.292598 37.752451 
z
" style="fill:#0000ff;fill-opacity:0.1;stroke:#0000ff;stroke-opacity:0.1;"/>
    <path clip-path="url(#p4d322c0079)" d="M 331.27937 39.440286 
L 331.27937 126.159714 
L 331.27937 39.440286 
L 331.27937 39.440286 
z
" style="fill:#0000ff;fill-opacity:0.1;stroke:#0000ff;stroke-opacity:0.1;"/>
    <path clip-path="url(#p4d322c0079)" d="M 334.272756 41.173737 
L 334.272756 124.426263 
L 334.272756 41.173737 
L 334.272756 41.173737 
z
" style="fill:#0000ff;fill-opacity:0.1;stroke:#0000ff;stroke-opacity:0.1;"/>
    <path clip-path="url(#p4d322c0079)" d="M 335.769449 42.952806 
L 335.769449 122.647194 
L 335.769449 42.952806 
L 335.769449 42.952806 
z
" style="fill:#0000ff;fill-opacity:0.1;stroke:#0000ff;stroke-opacity:0.1;"/>
    <path clip-path="url(#p4d322c0079)" d="M 338.762835 44.777492 
L 338.762835 120.822508 
L 338.762835 44.777492 
L 338.762835 44.777492 
z
" style="fill:#0000ff;fill-opacity:0.1;stroke:#0000ff;stroke-opacity:0.1;"/>
    <path clip-path="url(#p4d322c0079)" d="M 340.259528 46.647795 
L 340.259528 118.952205 
L 340.259528 46.647795 
L 340.259528 46.647795 
z
" style="fill:#0000ff;fill-opacity:0.1;stroke:#0000ff;stroke-opacity:0.1;"/>
    <path clip-path="url(#p4d322c0079)" d="M 343.252913 48.563716 
L 343.252913 117.036284 
L 343.252913 48.563716 
L 343.252913 48.563716 
z
" style="fill:#0000ff;fill-opacity:0.1;stroke:#0000ff;stroke-opacity:0.1;"/>
    <path clip-path="url(#p4d322c0079)" d="M 344.749606 50.525253 
L 344.749606 115.074747 
L 344.749606 50.525253 
L 344.749606 50.525253 
z
" style="fill:#0000ff;fill-opacity:0.1;stroke:#0000ff;stroke-opacity:0.1;"/>
    <path clip-path="url(#p4d322c0079)" d="M 347.742992 52.532408 
L 347.742992 113.067592 
L 347.742992 52.532408 
L 347.742992 52.532408 
z
" style="fill:#0000ff;fill-opacity:0.1;stroke:#0000ff;stroke-opacity:0.1;"/>
    <path clip-path="url(#p4d322c0079)" d="M 349.239685 54.58518 
L 349.239685 111.01482 
L 349.239685 54.58518 
L 349.239685 54.58518 
z
" style="fill:#0000ff;fill-opacity:0.1;stroke:#0000ff;stroke-opacity:0.1;"/>
    <path clip-path="url(#p4d322c0079)" d="M 352.233071 56.683568 
L 352.233071 108.916432 
L 352.233071 56.683568 
L 352.233071 56.683568 
z
" style="fill:#0000ff;fill-opacity:0.1;stroke:#0000ff;stroke-opacity:0.1;"/>
    <path clip-path="url(#p4d322c0079)" d="M 353.729764 58.827575 
L 353.729764 106.772425 
L 353.729764 58.827575 
L 353.729764 58.827575 
z
" style="fill:#0000ff;fill-opacity:0.1;stroke:#0000ff;stroke-opacity:0.1;"/>
    <path clip-path="url(#p4d322c0079)" d="M 356.72315 61.017198 
L 356.72315 104.582802 
L 356.72315 61.017198 
L 356.72315 61.017198 
z
" style="fill:#0000ff;fill-opacity:0.1;stroke:#0000ff;stroke-opacity:0.1;"/>
    <path clip-path="url(#p4d322c0079)" d="M 358.219843 63.252438 
L 358.219843 102.347562 
L 358.219843 63.252438 
L 358.219843 63.252438 
z
" style="fill:#0000ff;fill-opacity:0.1;stroke:#0000ff;stroke-opacity:0.1;"/>
    <path clip-path="url(#p4d322c0079)" d="M 361.213228 65.533296 
L 361.213228 100.066704 
L 361.213228 65.533296 
L 361.213228 65.533296 
z
" style="fill:#0000ff;fill-opacity:0.1;stroke:#0000ff;stroke-opacity:0.1;"/>
    <path clip-path="url(#p4d322c0079)" d="M 362.709921 67.85977 
L 362.709921 97.74023 
L 362.709921 67.85977 
L 362.709921 67.85977 
z
" style="fill:#0000ff;fill-opacity:0.1;stroke:#0000ff;stroke-opacity:0.1;"/>
    <path clip-path="url(#p4d322c0079)" d="M 367.2 70.231862 
L 367.2 95.368138 
L 367.2 70.231862 
L 367.2 70.231862 
z
" style="fill:#0000ff;fill-opacity:0.1;stroke:#0000ff;stroke-opacity:0.1;"/>
    <path clip-path="url(#p4d322c0079)" d="M 370.193386 72.649571 
L 370.193386 92.950429 
L 370.193386 72.649571 
L 370.193386 72.649571 
z
" style="fill:#0000ff;fill-opacity:0.1;stroke:#0000ff;stroke-opacity:0.1;"/>
    <path clip-path="url(#p4d322c0079)" d="M 371.690079 75.112897 
L 371.690079 90.487103 
L 371.690079 75.112897 
L 371.690079 75.112897 
z
" style="fill:#0000ff;fill-opacity:0.1;stroke:#0000ff;stroke-opacity:0.1;"/>
    <path clip-path="url(#p4d322c0079)" d="M 379.173543 77.621841 
L 379.173543 87.978159 
L 379.173543 77.621841 
L 379.173543 77.621841 
z
" style="fill:#0000ff;fill-opacity:0.1;stroke:#0000ff;stroke-opacity:0.1;"/>
    <path clip-path="url(#p4d322c0079)" d="M 380.670236 80.176401 
L 380.670236 85.423599 
L 380.670236 80.176401 
L 380.670236 80.176401 
z
" style="fill:#0000ff;fill-opacity:0.1;stroke:#0000ff;stroke-opacity:0.1;"/>
   </g>
   <g id="matplotlib.axis_1">
    <g id="xtick_1">
     <g id="line2d_1">
      <defs>
       <path d="M 0 0 
L 0 3.5 
" id="m778e22ccd1" style="stroke:#000000;stroke-width:0.8;"/>
      </defs>
      <g>
       <use style="stroke:#000000;stroke-width:0.8;" x="39.985512" xlink:href="#m778e22ccd1" y="162"/>
      </g>
     </g>
     <g id="text_1">
      <!-- 1920 -->
      <g transform="translate(27.260512 176.598438)scale(0.1 -0.1)">
       <defs>
        <path d="M 794 531 
L 1825 531 
L 1825 4091 
L 703 3866 
L 703 4441 
L 1819 4666 
L 2450 4666 
L 2450 531 
L 3481 531 
L 3481 0 
L 794 0 
L 794 531 
z
" id="DejaVuSans-31" transform="scale(0.015625)"/>
        <path d="M 703 97 
L 703 672 
Q 941 559 1184 500 
Q 1428 441 1663 441 
Q 2288 441 2617 861 
Q 2947 1281 2994 2138 
Q 2813 1869 2534 1725 
Q 2256 1581 1919 1581 
Q 1219 1581 811 2004 
Q 403 2428 403 3163 
Q 403 3881 828 4315 
Q 1253 4750 1959 4750 
Q 2769 4750 3195 4129 
Q 3622 3509 3622 2328 
Q 3622 1225 3098 567 
Q 2575 -91 1691 -91 
Q 1453 -91 1209 -44 
Q 966 3 703 97 
z
M 1959 2075 
Q 2384 2075 2632 2365 
Q 2881 2656 2881 3163 
Q 2881 3666 2632 3958 
Q 2384 4250 1959 4250 
Q 1534 4250 1286 3958 
Q 1038 3666 1038 3163 
Q 1038 2656 1286 2365 
Q 1534 2075 1959 2075 
z
" id="DejaVuSans-39" transform="scale(0.015625)"/>
        <path d="M 1228 531 
L 3431 531 
L 3431 0 
L 469 0 
L 469 531 
Q 828 903 1448 1529 
Q 2069 2156 2228 2338 
Q 2531 2678 2651 2914 
Q 2772 3150 2772 3378 
Q 2772 3750 2511 3984 
Q 2250 4219 1831 4219 
Q 1534 4219 1204 4116 
Q 875 4013 500 3803 
L 500 4441 
Q 881 4594 1212 4672 
Q 1544 4750 1819 4750 
Q 2544 4750 2975 4387 
Q 3406 4025 3406 3419 
Q 3406 3131 3298 2873 
Q 3191 2616 2906 2266 
Q 2828 2175 2409 1742 
Q 1991 1309 1228 531 
z
" id="DejaVuSans-32" transform="scale(0.015625)"/>
        <path d="M 2034 4250 
Q 1547 4250 1301 3770 
Q 1056 3291 1056 2328 
Q 1056 1369 1301 889 
Q 1547 409 2034 409 
Q 2525 409 2770 889 
Q 3016 1369 3016 2328 
Q 3016 3291 2770 3770 
Q 2525 4250 2034 4250 
z
M 2034 4750 
Q 2819 4750 3233 4129 
Q 3647 3509 3647 2328 
Q 3647 1150 3233 529 
Q 2819 -91 2034 -91 
Q 1250 -91 836 529 
Q 422 1150 422 2328 
Q 422 3509 836 4129 
Q 1250 4750 2034 4750 
z
" id="DejaVuSans-30" transform="scale(0.015625)"/>
       </defs>
       <use xlink:href="#DejaVuSans-31"/>
       <use x="63.623047" xlink:href="#DejaVuSans-39"/>
       <use x="127.246094" xlink:href="#DejaVuSans-32"/>
       <use x="190.869141" xlink:href="#DejaVuSans-30"/>
      </g>
     </g>
    </g>
    <g id="xtick_2">
     <g id="line2d_2">
      <g>
       <use style="stroke:#000000;stroke-width:0.8;" x="84.886299" xlink:href="#m778e22ccd1" y="162"/>
      </g>
     </g>
     <g id="text_2">
      <!-- 1930 -->
      <g transform="translate(72.161299 176.598438)scale(0.1 -0.1)">
       <defs>
        <path d="M 2597 2516 
Q 3050 2419 3304 2112 
Q 3559 1806 3559 1356 
Q 3559 666 3084 287 
Q 2609 -91 1734 -91 
Q 1441 -91 1130 -33 
Q 819 25 488 141 
L 488 750 
Q 750 597 1062 519 
Q 1375 441 1716 441 
Q 2309 441 2620 675 
Q 2931 909 2931 1356 
Q 2931 1769 2642 2001 
Q 2353 2234 1838 2234 
L 1294 2234 
L 1294 2753 
L 1863 2753 
Q 2328 2753 2575 2939 
Q 2822 3125 2822 3475 
Q 2822 3834 2567 4026 
Q 2313 4219 1838 4219 
Q 1578 4219 1281 4162 
Q 984 4106 628 3988 
L 628 4550 
Q 988 4650 1302 4700 
Q 1616 4750 1894 4750 
Q 2613 4750 3031 4423 
Q 3450 4097 3450 3541 
Q 3450 3153 3228 2886 
Q 3006 2619 2597 2516 
z
" id="DejaVuSans-33" transform="scale(0.015625)"/>
       </defs>
       <use xlink:href="#DejaVuSans-31"/>
       <use x="63.623047" xlink:href="#DejaVuSans-39"/>
       <use x="127.246094" xlink:href="#DejaVuSans-33"/>
       <use x="190.869141" xlink:href="#DejaVuSans-30"/>
      </g>
     </g>
    </g>
    <g id="xtick_3">
     <g id="line2d_3">
      <g>
       <use style="stroke:#000000;stroke-width:0.8;" x="129.787087" xlink:href="#m778e22ccd1" y="162"/>
      </g>
     </g>
     <g id="text_3">
      <!-- 1940 -->
      <g transform="translate(117.062087 176.598438)scale(0.1 -0.1)">
       <defs>
        <path d="M 2419 4116 
L 825 1625 
L 2419 1625 
L 2419 4116 
z
M 2253 4666 
L 3047 4666 
L 3047 1625 
L 3713 1625 
L 3713 1100 
L 3047 1100 
L 3047 0 
L 2419 0 
L 2419 1100 
L 313 1100 
L 313 1709 
L 2253 4666 
z
" id="DejaVuSans-34" transform="scale(0.015625)"/>
       </defs>
       <use xlink:href="#DejaVuSans-31"/>
       <use x="63.623047" xlink:href="#DejaVuSans-39"/>
       <use x="127.246094" xlink:href="#DejaVuSans-34"/>
       <use x="190.869141" xlink:href="#DejaVuSans-30"/>
      </g>
     </g>
    </g>
    <g id="xtick_4">
     <g id="line2d_4">
      <g>
       <use style="stroke:#000000;stroke-width:0.8;" x="174.687874" xlink:href="#m778e22ccd1" y="162"/>
      </g>
     </g>
     <g id="text_4">
      <!-- 1950 -->
      <g transform="translate(161.962874 176.598438)scale(0.1 -0.1)">
       <defs>
        <path d="M 691 4666 
L 3169 4666 
L 3169 4134 
L 1269 4134 
L 1269 2991 
Q 1406 3038 1543 3061 
Q 1681 3084 1819 3084 
Q 2600 3084 3056 2656 
Q 3513 2228 3513 1497 
Q 3513 744 3044 326 
Q 2575 -91 1722 -91 
Q 1428 -91 1123 -41 
Q 819 9 494 109 
L 494 744 
Q 775 591 1075 516 
Q 1375 441 1709 441 
Q 2250 441 2565 725 
Q 2881 1009 2881 1497 
Q 2881 1984 2565 2268 
Q 2250 2553 1709 2553 
Q 1456 2553 1204 2497 
Q 953 2441 691 2322 
L 691 4666 
z
" id="DejaVuSans-35" transform="scale(0.015625)"/>
       </defs>
       <use xlink:href="#DejaVuSans-31"/>
       <use x="63.623047" xlink:href="#DejaVuSans-39"/>
       <use x="127.246094" xlink:href="#DejaVuSans-35"/>
       <use x="190.869141" xlink:href="#DejaVuSans-30"/>
      </g>
     </g>
    </g>
    <g id="xtick_5">
     <g id="line2d_5">
      <g>
       <use style="stroke:#000000;stroke-width:0.8;" x="219.588661" xlink:href="#m778e22ccd1" y="162"/>
      </g>
     </g>
     <g id="text_5">
      <!-- 1960 -->
      <g transform="translate(206.863661 176.598438)scale(0.1 -0.1)">
       <defs>
        <path d="M 2113 2584 
Q 1688 2584 1439 2293 
Q 1191 2003 1191 1497 
Q 1191 994 1439 701 
Q 1688 409 2113 409 
Q 2538 409 2786 701 
Q 3034 994 3034 1497 
Q 3034 2003 2786 2293 
Q 2538 2584 2113 2584 
z
M 3366 4563 
L 3366 3988 
Q 3128 4100 2886 4159 
Q 2644 4219 2406 4219 
Q 1781 4219 1451 3797 
Q 1122 3375 1075 2522 
Q 1259 2794 1537 2939 
Q 1816 3084 2150 3084 
Q 2853 3084 3261 2657 
Q 3669 2231 3669 1497 
Q 3669 778 3244 343 
Q 2819 -91 2113 -91 
Q 1303 -91 875 529 
Q 447 1150 447 2328 
Q 447 3434 972 4092 
Q 1497 4750 2381 4750 
Q 2619 4750 2861 4703 
Q 3103 4656 3366 4563 
z
" id="DejaVuSans-36" transform="scale(0.015625)"/>
       </defs>
       <use xlink:href="#DejaVuSans-31"/>
       <use x="63.623047" xlink:href="#DejaVuSans-39"/>
       <use x="127.246094" xlink:href="#DejaVuSans-36"/>
       <use x="190.869141" xlink:href="#DejaVuSans-30"/>
      </g>
     </g>
    </g>
    <g id="xtick_6">
     <g id="line2d_6">
      <g>
       <use style="stroke:#000000;stroke-width:0.8;" x="264.489449" xlink:href="#m778e22ccd1" y="162"/>
      </g>
     </g>
     <g id="text_6">
      <!-- 1970 -->
      <g transform="translate(251.764449 176.598438)scale(0.1 -0.1)">
       <defs>
        <path d="M 525 4666 
L 3525 4666 
L 3525 4397 
L 1831 0 
L 1172 0 
L 2766 4134 
L 525 4134 
L 525 4666 
z
" id="DejaVuSans-37" transform="scale(0.015625)"/>
       </defs>
       <use xlink:href="#DejaVuSans-31"/>
       <use x="63.623047" xlink:href="#DejaVuSans-39"/>
       <use x="127.246094" xlink:href="#DejaVuSans-37"/>
       <use x="190.869141" xlink:href="#DejaVuSans-30"/>
      </g>
     </g>
    </g>
    <g id="xtick_7">
     <g id="line2d_7">
      <g>
       <use style="stroke:#000000;stroke-width:0.8;" x="309.390236" xlink:href="#m778e22ccd1" y="162"/>
      </g>
     </g>
     <g id="text_7">
      <!-- 1980 -->
      <g transform="translate(296.665236 176.598438)scale(0.1 -0.1)">
       <defs>
        <path d="M 2034 2216 
Q 1584 2216 1326 1975 
Q 1069 1734 1069 1313 
Q 1069 891 1326 650 
Q 1584 409 2034 409 
Q 2484 409 2743 651 
Q 3003 894 3003 1313 
Q 3003 1734 2745 1975 
Q 2488 2216 2034 2216 
z
M 1403 2484 
Q 997 2584 770 2862 
Q 544 3141 544 3541 
Q 544 4100 942 4425 
Q 1341 4750 2034 4750 
Q 2731 4750 3128 4425 
Q 3525 4100 3525 3541 
Q 3525 3141 3298 2862 
Q 3072 2584 2669 2484 
Q 3125 2378 3379 2068 
Q 3634 1759 3634 1313 
Q 3634 634 3220 271 
Q 2806 -91 2034 -91 
Q 1263 -91 848 271 
Q 434 634 434 1313 
Q 434 1759 690 2068 
Q 947 2378 1403 2484 
z
M 1172 3481 
Q 1172 3119 1398 2916 
Q 1625 2713 2034 2713 
Q 2441 2713 2670 2916 
Q 2900 3119 2900 3481 
Q 2900 3844 2670 4047 
Q 2441 4250 2034 4250 
Q 1625 4250 1398 4047 
Q 1172 3844 1172 3481 
z
" id="DejaVuSans-38" transform="scale(0.015625)"/>
       </defs>
       <use xlink:href="#DejaVuSans-31"/>
       <use x="63.623047" xlink:href="#DejaVuSans-39"/>
       <use x="127.246094" xlink:href="#DejaVuSans-38"/>
       <use x="190.869141" xlink:href="#DejaVuSans-30"/>
      </g>
     </g>
    </g>
    <g id="xtick_8">
     <g id="line2d_8">
      <g>
       <use style="stroke:#000000;stroke-width:0.8;" x="354.291024" xlink:href="#m778e22ccd1" y="162"/>
      </g>
     </g>
     <g id="text_8">
      <!-- 1990 -->
      <g transform="translate(341.566024 176.598438)scale(0.1 -0.1)">
       <use xlink:href="#DejaVuSans-31"/>
       <use x="63.623047" xlink:href="#DejaVuSans-39"/>
       <use x="127.246094" xlink:href="#DejaVuSans-39"/>
       <use x="190.869141" xlink:href="#DejaVuSans-30"/>
      </g>
     </g>
    </g>
    <g id="xtick_9">
     <g id="line2d_9">
      <g>
       <use style="stroke:#000000;stroke-width:0.8;" x="399.191811" xlink:href="#m778e22ccd1" y="162"/>
      </g>
     </g>
     <g id="text_9">
      <!-- 2000 -->
      <g transform="translate(386.466811 176.598438)scale(0.1 -0.1)">
       <use xlink:href="#DejaVuSans-32"/>
       <use x="63.623047" xlink:href="#DejaVuSans-30"/>
       <use x="127.246094" xlink:href="#DejaVuSans-30"/>
       <use x="190.869141" xlink:href="#DejaVuSans-30"/>
      </g>
     </g>
    </g>
   </g>
   <g id="matplotlib.axis_2">
    <g id="ytick_1">
     <g id="line2d_10">
      <defs>
       <path d="M 0 0 
L -3.5 0 
" id="m9bff58e643" style="stroke:#000000;stroke-width:0.8;"/>
      </defs>
      <g>
       <use style="stroke:#000000;stroke-width:0.8;" x="34.56" xlink:href="#m9bff58e643" y="155.884273"/>
      </g>
     </g>
     <g id="text_10">
      <!-- −20 -->
      <g transform="translate(6.455313 159.683492)scale(0.1 -0.1)">
       <defs>
        <path d="M 678 2272 
L 4684 2272 
L 4684 1741 
L 678 1741 
L 678 2272 
z
" id="DejaVuSans-2212" transform="scale(0.015625)"/>
       </defs>
       <use xlink:href="#DejaVuSans-2212"/>
       <use x="83.789062" xlink:href="#DejaVuSans-32"/>
       <use x="147.412109" xlink:href="#DejaVuSans-30"/>
      </g>
     </g>
    </g>
    <g id="ytick_2">
     <g id="line2d_11">
      <g>
       <use style="stroke:#000000;stroke-width:0.8;" x="34.56" xlink:href="#m9bff58e643" y="119.342136"/>
      </g>
     </g>
     <g id="text_11">
      <!-- −10 -->
      <g transform="translate(6.455313 123.141355)scale(0.1 -0.1)">
       <use xlink:href="#DejaVuSans-2212"/>
       <use x="83.789062" xlink:href="#DejaVuSans-31"/>
       <use x="147.412109" xlink:href="#DejaVuSans-30"/>
      </g>
     </g>
    </g>
    <g id="ytick_3">
     <g id="line2d_12">
      <g>
       <use style="stroke:#000000;stroke-width:0.8;" x="34.56" xlink:href="#m9bff58e643" y="82.8"/>
      </g>
     </g>
     <g id="text_12">
      <!-- 0 -->
      <g transform="translate(21.1975 86.599219)scale(0.1 -0.1)">
       <use xlink:href="#DejaVuSans-30"/>
      </g>
     </g>
    </g>
    <g id="ytick_4">
     <g id="line2d_13">
      <g>
       <use style="stroke:#000000;stroke-width:0.8;" x="34.56" xlink:href="#m9bff58e643" y="46.257864"/>
      </g>
     </g>
     <g id="text_13">
      <!-- 10 -->
      <g transform="translate(14.835 50.057082)scale(0.1 -0.1)">
       <use xlink:href="#DejaVuSans-31"/>
       <use x="63.623047" xlink:href="#DejaVuSans-30"/>
      </g>
     </g>
    </g>
    <g id="ytick_5">
     <g id="line2d_14">
      <g>
       <use style="stroke:#000000;stroke-width:0.8;" x="34.56" xlink:href="#m9bff58e643" y="9.715727"/>
      </g>
     </g>
     <g id="text_14">
      <!-- 20 -->
      <g transform="translate(14.835 13.514946)scale(0.1 -0.1)">
       <use xlink:href="#DejaVuSans-32"/>
       <use x="63.623047" xlink:href="#DejaVuSans-30"/>
      </g>
     </g>
    </g>
   </g>
   <g id="line2d_15">
    <path clip-path="url(#p4d322c0079)" d="M 380.670236 82.8 
" style="fill:none;stroke:#1f77b4;stroke-linecap:square;stroke-width:1.5;"/>
   </g>
   <g id="line2d_16">
    <path clip-path="url(#p4d322c0079)" d="M 34.56 82.8 
L 414.72 82.8 
" style="fill:none;stroke:#000000;stroke-dasharray:1.5,2.475;stroke-dashoffset:0;stroke-width:1.5;"/>
   </g>
   <g id="patch_3">
    <path d="M 34.56 162 
L 34.56 3.6 
" style="fill:none;stroke:#000000;stroke-linecap:square;stroke-linejoin:miter;stroke-width:0.8;"/>
   </g>
   <g id="patch_4">
    <path d="M 414.72 162 
L 414.72 3.6 
" style="fill:none;stroke:#000000;stroke-linecap:square;stroke-linejoin:miter;stroke-width:0.8;"/>
   </g>
   <g id="patch_5">
    <path d="M 34.56 162 
L 414.72 162 
" style="fill:none;stroke:#000000;stroke-linecap:square;stroke-linejoin:miter;stroke-width:0.8;"/>
   </g>
   <g id="patch_6">
    <path d="M 34.56 3.6 
L 414.72 3.6 
" style="fill:none;stroke:#000000;stroke-linecap:square;stroke-linejoin:miter;stroke-width:0.8;"/>
   </g>
  </g>
 </g>
 <defs>
  <clipPath id="p4d322c0079">
   <rect height="158.4" width="380.16" x="34.56" y="3.6"/>
  </clipPath>
 </defs>
</svg>
