<?xml version="1.0" encoding="utf-8" standalone="no"?>
<!DOCTYPE svg PUBLIC "-//W3C//DTD SVG 1.1//EN"
  "http://www.w3.org/Graphics/SVG/1.1/DTD/svg11.dtd">
<svg height="180pt" version="1.1" viewBox="0 0 432 180" width="432pt" xmlns="http://www.w3.org/2000/svg" xmlns:xlink="http://www.w3.org/1999/xlink">
 <metadata>
  <rdf:RDF xmlns:cc="http://creativecommons.org/ns#" xmlns:dc="http://purl.org/dc/elements/1.1/" xmlns:rdf="http://www.w3.org/1999/02/22-rdf-syntax-ns#">
   <cc:Work>
    <dc:type rdf:resource="http://purl.org/dc/dcmitype/StillImage"/>
    <dc:date>2021-08-10T10:27:39.470486</dc:date>
    <dc:format>image/svg+xml</dc:format>
    <dc:creator>
     <cc:Agent>
      <dc:title>Matplotlib v3.4.2, https://matplotlib.org/</dc:title>
     </cc:Agent>
    </dc:creator>
   </cc:Work>
  </rdf:RDF>
 </metadata>
 <defs>
  <style type="text/css">*{stroke-linecap:butt;stroke-linejoin:round;}</style>
 </defs>
 <g id="figure_1">
  <g id="patch_1">
   <path d="M 0 180 
L 432 180 
L 432 0 
L 0 0 
z
" style="fill:#ffffff;"/>
  </g>
  <g id="axes_1">
   <g id="patch_2">
    <path d="M 34.56 162 
L 414.72 162 
L 414.72 3.6 
L 34.56 3.6 
z
" style="fill:#ffffff;"/>
   </g>
   <g id="PolyCollection_1">
    <path clip-path="url(#p5dd1519f2f)" d="M 57.025135 82.574166 
L 57.025135 83.025834 
L 57.274747 83.25116 
L 57.52436 83.476149 
L 57.773972 83.700799 
L 58.023585 83.925111 
L 58.273198 84.149085 
L 58.52281 84.372721 
L 58.772423 84.596019 
L 59.022035 84.818979 
L 59.271648 85.041601 
L 59.521261 85.263885 
L 59.770873 85.485831 
L 60.020486 85.707438 
L 60.270098 85.928708 
L 60.519711 86.149639 
L 60.769324 86.370233 
L 61.018936 86.590488 
L 61.268549 86.810405 
L 61.518162 87.029984 
L 61.767774 87.249225 
L 62.017387 87.468128 
L 62.266999 87.686693 
L 62.516612 87.90492 
L 62.766225 88.122809 
L 63.015837 88.34036 
L 63.26545 88.557572 
L 63.515062 88.774447 
L 63.764675 88.990983 
L 64.014288 89.207182 
L 64.2639 89.423042 
L 64.513513 89.638564 
L 64.763125 89.853749 
L 65.012738 90.068595 
L 65.262351 90.283103 
L 65.511963 90.497273 
L 65.761576 90.711105 
L 66.011188 90.924599 
L 66.260801 91.137754 
L 66.510414 91.350572 
L 66.760026 91.563052 
L 67.009639 91.775193 
L 67.259251 91.986997 
L 67.508864 92.198462 
L 67.758477 92.409589 
L 68.008089 92.620379 
L 68.257702 92.83083 
L 68.507315 93.040943 
L 68.756927 93.250718 
L 69.00654 93.460155 
L 69.256152 93.669254 
L 69.505765 93.878014 
L 69.755378 94.086437 
L 70.00499 94.294522 
L 70.254603 94.502268 
L 70.504215 94.709677 
L 70.753828 94.916747 
L 71.003441 95.12348 
L 71.253053 95.329874 
L 71.502666 95.53593 
L 71.752278 95.741648 
L 72.001891 95.947028 
L 72.251504 96.15207 
L 72.501116 96.356774 
L 72.750729 96.56114 
L 73.000341 96.765168 
L 73.249954 96.968857 
L 73.499567 97.172209 
L 73.749179 97.375223 
L 73.998792 97.577898 
L 74.248404 97.780235 
L 74.498017 97.982235 
L 74.74763 98.183896 
L 74.997242 98.385219 
L 75.246855 98.586204 
L 75.496467 98.786851 
L 75.496467 66.813149 
L 75.496467 66.813149 
L 75.246855 67.013796 
L 74.997242 67.214781 
L 74.74763 67.416104 
L 74.498017 67.617765 
L 74.248404 67.819765 
L 73.998792 68.022102 
L 73.749179 68.224777 
L 73.499567 68.427791 
L 73.249954 68.631143 
L 73.000341 68.834832 
L 72.750729 69.03886 
L 72.501116 69.243226 
L 72.251504 69.44793 
L 72.001891 69.652972 
L 71.752278 69.858352 
L 71.502666 70.06407 
L 71.253053 70.270126 
L 71.003441 70.47652 
L 70.753828 70.683253 
L 70.504215 70.890323 
L 70.254603 71.097732 
L 70.00499 71.305478 
L 69.755378 71.513563 
L 69.505765 71.721986 
L 69.256152 71.930746 
L 69.00654 72.139845 
L 68.756927 72.349282 
L 68.507315 72.559057 
L 68.257702 72.76917 
L 68.008089 72.979621 
L 67.758477 73.190411 
L 67.508864 73.401538 
L 67.259251 73.613003 
L 67.009639 73.824807 
L 66.760026 74.036948 
L 66.510414 74.249428 
L 66.260801 74.462246 
L 66.011188 74.675401 
L 65.761576 74.888895 
L 65.511963 75.102727 
L 65.262351 75.316897 
L 65.012738 75.531405 
L 64.763125 75.746251 
L 64.513513 75.961436 
L 64.2639 76.176958 
L 64.014288 76.392818 
L 63.764675 76.609017 
L 63.515062 76.825553 
L 63.26545 77.042428 
L 63.015837 77.25964 
L 62.766225 77.477191 
L 62.516612 77.69508 
L 62.266999 77.913307 
L 62.017387 78.131872 
L 61.767774 78.350775 
L 61.518162 78.570016 
L 61.268549 78.789595 
L 61.018936 79.009512 
L 60.769324 79.229767 
L 60.519711 79.450361 
L 60.270098 79.671292 
L 60.020486 79.892562 
L 59.770873 80.114169 
L 59.521261 80.336115 
L 59.271648 80.558399 
L 59.022035 80.781021 
L 58.772423 81.003981 
L 58.52281 81.227279 
L 58.273198 81.450915 
L 58.023585 81.674889 
L 57.773972 81.899201 
L 57.52436 82.123851 
L 57.274747 82.34884 
L 57.025135 82.574166 
z
" style="fill:#0000ff;fill-opacity:0.1;stroke:#0000ff;stroke-opacity:0.1;"/>
    <path clip-path="url(#p5dd1519f2f)" d="M 75.995693 66.61284 
L 75.995693 98.98716 
L 76.245305 99.187131 
L 76.494918 99.386764 
L 76.744531 99.586059 
L 76.994143 99.785015 
L 77.243756 99.983634 
L 77.493368 100.181914 
L 77.742981 100.379857 
L 77.992594 100.577461 
L 78.242206 100.774727 
L 78.491819 100.971656 
L 78.741431 101.168246 
L 78.991044 101.364498 
L 79.240657 101.560412 
L 79.490269 101.755988 
L 79.739882 101.951225 
L 79.989494 102.146125 
L 80.239107 102.340687 
L 80.48872 102.53491 
L 80.738332 102.728796 
L 80.987945 102.922343 
L 81.237557 103.115553 
L 81.48717 103.308424 
L 81.736783 103.500957 
L 81.986395 103.693153 
L 82.236008 103.88501 
L 82.48562 104.076529 
L 82.48562 61.523471 
L 82.48562 61.523471 
L 82.236008 61.71499 
L 81.986395 61.906847 
L 81.736783 62.099043 
L 81.48717 62.291576 
L 81.237557 62.484447 
L 80.987945 62.677657 
L 80.738332 62.871204 
L 80.48872 63.06509 
L 80.239107 63.259313 
L 79.989494 63.453875 
L 79.739882 63.648775 
L 79.490269 63.844012 
L 79.240657 64.039588 
L 78.991044 64.235502 
L 78.741431 64.431754 
L 78.491819 64.628344 
L 78.242206 64.825273 
L 77.992594 65.022539 
L 77.742981 65.220143 
L 77.493368 65.418086 
L 77.243756 65.616366 
L 76.994143 65.814985 
L 76.744531 66.013941 
L 76.494918 66.213236 
L 76.245305 66.412869 
L 75.995693 66.61284 
z
" style="fill:#0000ff;fill-opacity:0.1;stroke:#0000ff;stroke-opacity:0.1;"/>
    <path clip-path="url(#p5dd1519f2f)" d="M 84.482521 61.33229 
L 84.482521 104.26771 
L 84.732134 104.458552 
L 84.981747 104.649057 
L 85.231359 104.839224 
L 85.480972 105.029053 
L 85.730584 105.218543 
L 85.980197 105.407696 
L 85.980197 60.192304 
L 85.980197 60.192304 
L 85.730584 60.381457 
L 85.480972 60.570947 
L 85.231359 60.760776 
L 84.981747 60.950943 
L 84.732134 61.141448 
L 84.482521 61.33229 
z
" style="fill:#0000ff;fill-opacity:0.1;stroke:#0000ff;stroke-opacity:0.1;"/>
    <path clip-path="url(#p5dd1519f2f)" d="M 86.479422 60.00349 
L 86.479422 105.59651 
L 86.729035 105.784986 
L 86.978647 105.973125 
L 87.22826 106.160925 
L 87.477873 106.348387 
L 87.727485 106.535511 
L 87.977098 106.722297 
L 88.22671 106.908745 
L 88.476323 107.094855 
L 88.725936 107.280626 
L 88.975548 107.46606 
L 89.225161 107.651156 
L 89.474773 107.835913 
L 89.724386 108.020333 
L 89.973999 108.204414 
L 90.223611 108.388157 
L 90.473224 108.571563 
L 90.722837 108.75463 
L 90.972449 108.937359 
L 91.222062 109.11975 
L 91.471674 109.301803 
L 91.721287 109.483518 
L 91.9709 109.664894 
L 92.220512 109.845933 
L 92.470125 110.026634 
L 92.719737 110.206996 
L 92.96935 110.387021 
L 93.218963 110.566707 
L 93.468575 110.746056 
L 93.718188 110.925066 
L 93.9678 111.103738 
L 94.217413 111.282072 
L 94.467026 111.460068 
L 94.716638 111.637726 
L 94.966251 111.815046 
L 95.215863 111.992028 
L 95.465476 112.168672 
L 95.715089 112.344977 
L 95.964701 112.520945 
L 96.214314 112.696575 
L 96.463926 112.871866 
L 96.713539 113.046819 
L 96.963152 113.221435 
L 97.212764 113.395712 
L 97.462377 113.569651 
L 97.711989 113.743252 
L 97.961602 113.916515 
L 98.211215 114.08944 
L 98.460827 114.262027 
L 98.71044 114.434276 
L 98.960053 114.606186 
L 99.209665 114.777759 
L 99.459278 114.948994 
L 99.70889 115.11989 
L 99.958503 115.290449 
L 100.208116 115.460669 
L 100.457728 115.630551 
L 100.707341 115.800095 
L 100.956953 115.969301 
L 101.206566 116.138169 
L 101.456179 116.306699 
L 101.705791 116.474891 
L 101.955404 116.642745 
L 102.205016 116.810261 
L 102.454629 116.977439 
L 102.704242 117.144278 
L 102.953854 117.31078 
L 103.203467 117.476943 
L 103.453079 117.642769 
L 103.702692 117.808256 
L 103.952305 117.973405 
L 104.201917 118.138216 
L 104.45153 118.302689 
L 104.701142 118.466824 
L 104.950755 118.630621 
L 105.200368 118.79408 
L 105.44998 118.957201 
L 105.699593 119.119984 
L 105.949206 119.282428 
L 106.198818 119.444535 
L 106.448431 119.606303 
L 106.698043 119.767734 
L 106.947656 119.928826 
L 107.197269 120.08958 
L 107.446881 120.249996 
L 107.696494 120.410075 
L 107.946106 120.569815 
L 108.195719 120.729217 
L 108.445332 120.88828 
L 108.694944 121.047006 
L 108.944557 121.205394 
L 109.194169 121.363444 
L 109.443782 121.521155 
L 109.693395 121.678529 
L 109.943007 121.835564 
L 110.19262 121.992262 
L 110.442232 122.148621 
L 110.691845 122.304642 
L 110.941458 122.460325 
L 111.19107 122.61567 
L 111.440683 122.770677 
L 111.690295 122.925346 
L 111.939908 123.079677 
L 112.189521 123.23367 
L 112.439133 123.387325 
L 112.688746 123.540641 
L 112.938359 123.69362 
L 113.187971 123.84626 
L 113.437584 123.998563 
L 113.687196 124.150527 
L 113.936809 124.302153 
L 114.186422 124.453441 
L 114.436034 124.604392 
L 114.685647 124.755004 
L 114.935259 124.905278 
L 115.184872 125.055214 
L 115.434485 125.204811 
L 115.684097 125.354071 
L 115.93371 125.502993 
L 116.183322 125.651576 
L 116.432935 125.799822 
L 116.682548 125.947729 
L 116.93216 126.095299 
L 117.181773 126.24253 
L 117.431385 126.389423 
L 117.680998 126.535978 
L 117.930611 126.682195 
L 118.180223 126.828074 
L 118.429836 126.973615 
L 118.679448 127.118818 
L 118.929061 127.263683 
L 119.178674 127.40821 
L 119.428286 127.552398 
L 119.677899 127.696249 
L 119.927511 127.839761 
L 120.177124 127.982936 
L 120.426737 128.125772 
L 120.676349 128.26827 
L 120.925962 128.410431 
L 121.175575 128.552253 
L 121.425187 128.693737 
L 121.6748 128.834883 
L 121.924412 128.975691 
L 122.174025 129.11616 
L 122.423638 129.256292 
L 122.67325 129.396086 
L 122.922863 129.535541 
L 123.172475 129.674659 
L 123.422088 129.813438 
L 123.671701 129.95188 
L 123.921313 130.089983 
L 124.170926 130.227748 
L 124.420538 130.365175 
L 124.670151 130.502264 
L 124.919764 130.639015 
L 125.169376 130.775428 
L 125.418989 130.911503 
L 125.668601 131.04724 
L 125.918214 131.182639 
L 126.167827 131.317699 
L 126.417439 131.452422 
L 126.667052 131.586806 
L 126.916664 131.720853 
L 127.166277 131.854561 
L 127.41589 131.987931 
L 127.665502 132.120963 
L 127.915115 132.253658 
L 128.164728 132.386014 
L 128.41434 132.518032 
L 128.663953 132.649711 
L 128.913565 132.781053 
L 129.163178 132.912057 
L 129.412791 133.042723 
L 129.662403 133.17305 
L 129.912016 133.30304 
L 130.161628 133.432691 
L 130.411241 133.562005 
L 130.660854 133.69098 
L 130.910466 133.819617 
L 131.160079 133.947916 
L 131.409691 134.075877 
L 131.659304 134.2035 
L 131.908917 134.330785 
L 132.158529 134.457732 
L 132.408142 134.584341 
L 132.657754 134.710612 
L 132.907367 134.836544 
L 133.15698 134.962139 
L 133.406592 135.087395 
L 133.656205 135.212314 
L 133.905817 135.336894 
L 134.15543 135.461136 
L 134.405043 135.58504 
L 134.654655 135.708606 
L 134.904268 135.831834 
L 135.15388 135.954724 
L 135.403493 136.077276 
L 135.653106 136.19949 
L 135.902718 136.321366 
L 136.152331 136.442904 
L 136.401944 136.564103 
L 136.651556 136.684965 
L 136.901169 136.805488 
L 137.150781 136.925673 
L 137.400394 137.045521 
L 137.650007 137.16503 
L 137.899619 137.284201 
L 138.149232 137.403034 
L 138.398844 137.521529 
L 138.648457 137.639686 
L 138.89807 137.757505 
L 139.147682 137.874986 
L 139.397295 137.992128 
L 139.646907 138.108933 
L 139.89652 138.2254 
L 140.146133 138.341528 
L 140.395745 138.457318 
L 140.645358 138.572771 
L 140.89497 138.687885 
L 141.144583 138.802661 
L 141.394196 138.917099 
L 141.643808 139.031199 
L 141.893421 139.144961 
L 142.143033 139.258385 
L 142.392646 139.371471 
L 142.642259 139.484219 
L 142.891871 139.596628 
L 143.141484 139.7087 
L 143.391097 139.820433 
L 143.640709 139.931829 
L 143.890322 140.042886 
L 144.139934 140.153605 
L 144.389547 140.263987 
L 144.63916 140.37403 
L 144.888772 140.483735 
L 145.138385 140.593102 
L 145.387997 140.702131 
L 145.63761 140.810822 
L 145.887223 140.919174 
L 146.136835 141.027189 
L 146.386448 141.134866 
L 146.63606 141.242204 
L 146.885673 141.349205 
L 147.135286 141.455867 
L 147.384898 141.562191 
L 147.634511 141.668178 
L 147.884123 141.773826 
L 148.133736 141.879136 
L 148.383349 141.984108 
L 148.632961 142.088742 
L 148.882574 142.193038 
L 149.132186 142.296996 
L 149.381799 142.400615 
L 149.631412 142.503897 
L 149.881024 142.606841 
L 150.130637 142.709446 
L 150.38025 142.811714 
L 150.629862 142.913643 
L 150.879475 143.015234 
L 151.129087 143.116487 
L 151.3787 143.217403 
L 151.628313 143.31798 
L 151.877925 143.418219 
L 152.127538 143.51812 
L 152.37715 143.617682 
L 152.626763 143.716907 
L 152.876376 143.815794 
L 153.125988 143.914342 
L 153.375601 144.012553 
L 153.625213 144.110425 
L 153.874826 144.20796 
L 154.124439 144.305156 
L 154.374051 144.402014 
L 154.623664 144.498535 
L 154.873276 144.594717 
L 155.122889 144.690561 
L 155.372502 144.786067 
L 155.622114 144.881235 
L 155.871727 144.976064 
L 156.121339 145.070556 
L 156.370952 145.16471 
L 156.620565 145.258525 
L 156.870177 145.352003 
L 157.11979 145.445142 
L 157.369402 145.537944 
L 157.619015 145.630407 
L 157.868628 145.722532 
L 158.11824 145.814319 
L 158.367853 145.905768 
L 158.617466 145.996879 
L 158.867078 146.087652 
L 159.116691 146.178087 
L 159.366303 146.268184 
L 159.615916 146.357942 
L 159.865529 146.447363 
L 160.115141 146.536446 
L 160.364754 146.62519 
L 160.614366 146.713596 
L 160.863979 146.801665 
L 161.113592 146.889395 
L 161.363204 146.976787 
L 161.612817 147.063841 
L 161.862429 147.150557 
L 162.112042 147.236935 
L 162.361655 147.322975 
L 162.611267 147.408677 
L 162.86088 147.494041 
L 163.110492 147.579066 
L 163.360105 147.663754 
L 163.609718 147.748103 
L 163.85933 147.832115 
L 164.108943 147.915788 
L 164.358555 147.999123 
L 164.608168 148.082121 
L 164.857781 148.16478 
L 165.107393 148.247101 
L 165.357006 148.329084 
L 165.606619 148.410729 
L 165.856231 148.492036 
L 166.105844 148.573004 
L 166.355456 148.653635 
L 166.605069 148.733928 
L 166.854682 148.813882 
L 167.104294 148.893499 
L 167.353907 148.972777 
L 167.603519 149.051717 
L 167.853132 149.13032 
L 168.102745 149.208584 
L 168.352357 149.28651 
L 168.60197 149.364098 
L 168.851582 149.441348 
L 169.101195 149.51826 
L 169.350808 149.594834 
L 169.60042 149.671069 
L 169.850033 149.746967 
L 170.099645 149.822526 
L 170.349258 149.897748 
L 170.598871 149.972631 
L 170.848483 150.047177 
L 171.098096 150.121384 
L 171.347708 150.195253 
L 171.597321 150.268784 
L 171.846934 150.341977 
L 172.096546 150.414832 
L 172.346159 150.487349 
L 172.595772 150.559528 
L 172.845384 150.631369 
L 173.094997 150.702872 
L 173.344609 150.774036 
L 173.594222 150.844863 
L 173.843835 150.915351 
L 174.093447 150.985502 
L 174.34306 151.055314 
L 174.592672 151.124788 
L 174.842285 151.193924 
L 175.091898 151.262722 
L 175.34151 151.331182 
L 175.591123 151.399304 
L 175.840735 151.467088 
L 176.090348 151.534534 
L 176.339961 151.601642 
L 176.589573 151.668411 
L 176.839186 151.734843 
L 177.088798 151.800936 
L 177.338411 151.866692 
L 177.588024 151.932109 
L 177.837636 151.997189 
L 178.087249 152.06193 
L 178.336861 152.126333 
L 178.586474 152.190398 
L 178.836087 152.254125 
L 179.085699 152.317514 
L 179.335312 152.380565 
L 179.584924 152.443277 
L 179.834537 152.505652 
L 180.08415 152.567689 
L 180.333762 152.629387 
L 180.583375 152.690748 
L 180.832988 152.75177 
L 181.0826 152.812454 
L 181.332213 152.872801 
L 181.581825 152.932809 
L 181.831438 152.992479 
L 182.081051 153.051811 
L 182.330663 153.110805 
L 182.580276 153.169461 
L 182.829888 153.227778 
L 183.079501 153.285758 
L 183.329114 153.3434 
L 183.578726 153.400703 
L 183.828339 153.457669 
L 184.077951 153.514296 
L 184.327564 153.570586 
L 184.577177 153.626537 
L 184.826789 153.68215 
L 185.076402 153.737425 
L 185.326014 153.792362 
L 185.575627 153.846961 
L 185.82524 153.901222 
L 186.074852 153.955145 
L 186.324465 154.00873 
L 186.574077 154.061976 
L 186.82369 154.114885 
L 187.073303 154.167456 
L 187.322915 154.219688 
L 187.572528 154.271582 
L 187.822141 154.323139 
L 188.071753 154.374357 
L 188.321366 154.425237 
L 188.570978 154.475779 
L 188.820591 154.525983 
L 189.070204 154.575849 
L 189.319816 154.625377 
L 189.569429 154.674567 
L 189.819041 154.723419 
L 190.068654 154.771932 
L 190.318267 154.820108 
L 190.567879 154.867945 
L 190.817492 154.915445 
L 191.067104 154.962606 
L 191.316717 155.009429 
L 191.56633 155.055914 
L 191.815942 155.102062 
L 192.065555 155.147871 
L 192.315167 155.193342 
L 192.56478 155.238475 
L 192.814393 155.283269 
L 193.064005 155.327726 
L 193.313618 155.371845 
L 193.56323 155.415625 
L 193.812843 155.459068 
L 194.062456 155.502172 
L 194.312068 155.544939 
L 194.561681 155.587367 
L 194.811293 155.629457 
L 195.060906 155.671209 
L 195.310519 155.712624 
L 195.560131 155.7537 
L 195.809744 155.794437 
L 196.059357 155.834837 
L 196.308969 155.874899 
L 196.558582 155.914623 
L 196.808194 155.954008 
L 197.057807 155.993056 
L 197.30742 156.031766 
L 197.557032 156.070137 
L 197.806645 156.10817 
L 198.056257 156.145866 
L 198.30587 156.183223 
L 198.555483 156.220242 
L 198.805095 156.256923 
L 199.054708 156.293266 
L 199.30432 156.329271 
L 199.553933 156.364938 
L 199.803546 156.400266 
L 200.053158 156.435257 
L 200.302771 156.46991 
L 200.552383 156.504224 
L 200.801996 156.538201 
L 201.051609 156.571839 
L 201.301221 156.605139 
L 201.550834 156.638102 
L 201.800446 156.670726 
L 202.050059 156.703012 
L 202.299672 156.73496 
L 202.549284 156.76657 
L 202.798897 156.797842 
L 203.04851 156.828775 
L 203.298122 156.859371 
L 203.547735 156.889629 
L 203.797347 156.919548 
L 204.04696 156.94913 
L 204.296573 156.978373 
L 204.546185 157.007279 
L 204.795798 157.035846 
L 205.04541 157.064075 
L 205.295023 157.091966 
L 205.544636 157.119519 
L 205.794248 157.146734 
L 206.043861 157.173611 
L 206.293473 157.20015 
L 206.543086 157.226351 
L 206.792699 157.252213 
L 207.042311 157.277738 
L 207.291924 157.302924 
L 207.541536 157.327773 
L 207.791149 157.352283 
L 208.040762 157.376456 
L 208.290374 157.40029 
L 208.539987 157.423786 
L 208.789599 157.446944 
L 209.039212 157.469764 
L 209.288825 157.492246 
L 209.538437 157.51439 
L 209.78805 157.536196 
L 210.037663 157.557663 
L 210.287275 157.578793 
L 210.536888 157.599584 
L 210.7865 157.620038 
L 211.036113 157.640153 
L 211.285726 157.659931 
L 211.535338 157.67937 
L 211.784951 157.698471 
L 212.034563 157.717234 
L 212.284176 157.735659 
L 212.533789 157.753746 
L 212.783401 157.771495 
L 213.033014 157.788906 
L 213.282626 157.805979 
L 213.532239 157.822713 
L 213.781852 157.83911 
L 214.031464 157.855169 
L 214.281077 157.870889 
L 214.530689 157.886271 
L 214.780302 157.901316 
L 215.029915 157.916022 
L 215.279527 157.93039 
L 215.52914 157.94442 
L 215.778752 157.958112 
L 216.028365 157.971466 
L 216.277978 157.984482 
L 216.52759 157.99716 
L 216.777203 158.009499 
L 217.026815 158.021501 
L 217.276428 158.033165 
L 217.526041 158.04449 
L 217.775653 158.055477 
L 218.025266 158.066127 
L 218.274879 158.076438 
L 218.524491 158.086411 
L 218.774104 158.096046 
L 219.023716 158.105343 
L 219.273329 158.114302 
L 219.522942 158.122923 
L 219.772554 158.131206 
L 220.022167 158.139151 
L 220.271779 158.146757 
L 220.521392 158.154026 
L 220.771005 158.160957 
L 221.020617 158.167549 
L 221.27023 158.173803 
L 221.519842 158.17972 
L 221.769455 158.185298 
L 222.019068 158.190538 
L 222.26868 158.19544 
L 222.518293 158.200004 
L 222.767905 158.20423 
L 223.017518 158.208118 
L 223.267131 158.211668 
L 223.516743 158.214879 
L 223.766356 158.217753 
L 224.015968 158.220289 
L 224.265581 158.222486 
L 224.515194 158.224346 
L 224.764806 158.225867 
L 225.014419 158.22705 
L 225.264032 158.227895 
L 225.513644 158.228402 
L 225.763257 158.228571 
L 226.012869 158.228402 
L 226.262482 158.227895 
L 226.512095 158.22705 
L 226.761707 158.225867 
L 227.01132 158.224346 
L 227.260932 158.222486 
L 227.510545 158.220289 
L 227.760158 158.217753 
L 228.00977 158.214879 
L 228.259383 158.211668 
L 228.508995 158.208118 
L 228.758608 158.20423 
L 229.008221 158.200004 
L 229.257833 158.19544 
L 229.507446 158.190538 
L 229.757058 158.185298 
L 230.006671 158.17972 
L 230.256284 158.173803 
L 230.505896 158.167549 
L 230.755509 158.160957 
L 231.005121 158.154026 
L 231.254734 158.146757 
L 231.504347 158.139151 
L 231.753959 158.131206 
L 232.003572 158.122923 
L 232.253185 158.114302 
L 232.502797 158.105343 
L 232.75241 158.096046 
L 233.002022 158.086411 
L 233.251635 158.076438 
L 233.501248 158.066127 
L 233.75086 158.055477 
L 234.000473 158.04449 
L 234.250085 158.033165 
L 234.499698 158.021501 
L 234.749311 158.009499 
L 234.998923 157.99716 
L 235.248536 157.984482 
L 235.498148 157.971466 
L 235.747761 157.958112 
L 235.997374 157.94442 
L 236.246986 157.93039 
L 236.496599 157.916022 
L 236.746211 157.901316 
L 236.995824 157.886271 
L 237.245437 157.870889 
L 237.495049 157.855169 
L 237.744662 157.83911 
L 237.994274 157.822713 
L 238.243887 157.805979 
L 238.4935 157.788906 
L 238.743112 157.771495 
L 238.992725 157.753746 
L 239.242337 157.735659 
L 239.49195 157.717234 
L 239.741563 157.698471 
L 239.991175 157.67937 
L 240.240788 157.659931 
L 240.490401 157.640153 
L 240.740013 157.620038 
L 240.989626 157.599584 
L 241.239238 157.578793 
L 241.488851 157.557663 
L 241.738464 157.536196 
L 241.988076 157.51439 
L 242.237689 157.492246 
L 242.487301 157.469764 
L 242.736914 157.446944 
L 242.986527 157.423786 
L 243.236139 157.40029 
L 243.485752 157.376456 
L 243.735364 157.352283 
L 243.984977 157.327773 
L 244.23459 157.302924 
L 244.484202 157.277738 
L 244.733815 157.252213 
L 244.983427 157.226351 
L 245.23304 157.20015 
L 245.482653 157.173611 
L 245.732265 157.146734 
L 245.981878 157.119519 
L 246.23149 157.091966 
L 246.481103 157.064075 
L 246.730716 157.035846 
L 246.980328 157.007279 
L 247.229941 156.978373 
L 247.479554 156.94913 
L 247.729166 156.919548 
L 247.978779 156.889629 
L 248.228391 156.859371 
L 248.478004 156.828775 
L 248.727617 156.797842 
L 248.977229 156.76657 
L 249.226842 156.73496 
L 249.476454 156.703012 
L 249.726067 156.670726 
L 249.97568 156.638102 
L 250.225292 156.605139 
L 250.474905 156.571839 
L 250.724517 156.538201 
L 250.97413 156.504224 
L 251.223743 156.46991 
L 251.473355 156.435257 
L 251.722968 156.400266 
L 251.97258 156.364938 
L 252.222193 156.329271 
L 252.471806 156.293266 
L 252.721418 156.256923 
L 252.971031 156.220242 
L 253.220643 156.183223 
L 253.470256 156.145866 
L 253.719869 156.10817 
L 253.969481 156.070137 
L 254.219094 156.031766 
L 254.468707 155.993056 
L 254.718319 155.954008 
L 254.967932 155.914623 
L 255.217544 155.874899 
L 255.467157 155.834837 
L 255.71677 155.794437 
L 255.966382 155.7537 
L 256.215995 155.712624 
L 256.465607 155.671209 
L 256.71522 155.629457 
L 256.964833 155.587367 
L 257.214445 155.544939 
L 257.464058 155.502172 
L 257.71367 155.459068 
L 257.963283 155.415625 
L 258.212896 155.371845 
L 258.462508 155.327726 
L 258.712121 155.283269 
L 258.961733 155.238475 
L 259.211346 155.193342 
L 259.460959 155.147871 
L 259.710571 155.102062 
L 259.960184 155.055914 
L 260.209796 155.009429 
L 260.459409 154.962606 
L 260.709022 154.915445 
L 260.958634 154.867945 
L 261.208247 154.820108 
L 261.457859 154.771932 
L 261.707472 154.723419 
L 261.957085 154.674567 
L 262.206697 154.625377 
L 262.45631 154.575849 
L 262.705923 154.525983 
L 262.955535 154.475779 
L 263.205148 154.425237 
L 263.45476 154.374357 
L 263.704373 154.323139 
L 263.953986 154.271582 
L 264.203598 154.219688 
L 264.453211 154.167456 
L 264.702823 154.114885 
L 264.952436 154.061976 
L 265.202049 154.00873 
L 265.451661 153.955145 
L 265.701274 153.901222 
L 265.950886 153.846961 
L 266.200499 153.792362 
L 266.450112 153.737425 
L 266.699724 153.68215 
L 266.949337 153.626537 
L 267.198949 153.570586 
L 267.448562 153.514296 
L 267.698175 153.457669 
L 267.947787 153.400703 
L 268.1974 153.3434 
L 268.447012 153.285758 
L 268.696625 153.227778 
L 268.946238 153.169461 
L 269.19585 153.110805 
L 269.445463 153.051811 
L 269.695076 152.992479 
L 269.944688 152.932809 
L 270.194301 152.872801 
L 270.443913 152.812454 
L 270.693526 152.75177 
L 270.943139 152.690748 
L 271.192751 152.629387 
L 271.442364 152.567689 
L 271.691976 152.505652 
L 271.941589 152.443277 
L 272.191202 152.380565 
L 272.440814 152.317514 
L 272.690427 152.254125 
L 272.940039 152.190398 
L 273.189652 152.126333 
L 273.439265 152.06193 
L 273.688877 151.997189 
L 273.93849 151.932109 
L 274.188102 151.866692 
L 274.437715 151.800936 
L 274.687328 151.734843 
L 274.93694 151.668411 
L 275.186553 151.601642 
L 275.436165 151.534534 
L 275.685778 151.467088 
L 275.935391 151.399304 
L 276.185003 151.331182 
L 276.434616 151.262722 
L 276.684228 151.193924 
L 276.933841 151.124788 
L 277.183454 151.055314 
L 277.433066 150.985502 
L 277.682679 150.915351 
L 277.932292 150.844863 
L 278.181904 150.774036 
L 278.431517 150.702872 
L 278.681129 150.631369 
L 278.930742 150.559528 
L 279.180355 150.487349 
L 279.429967 150.414832 
L 279.67958 150.341977 
L 279.929192 150.268784 
L 280.178805 150.195253 
L 280.428418 150.121384 
L 280.67803 150.047177 
L 280.927643 149.972631 
L 281.177255 149.897748 
L 281.426868 149.822526 
L 281.676481 149.746967 
L 281.926093 149.671069 
L 282.175706 149.594834 
L 282.425318 149.51826 
L 282.674931 149.441348 
L 282.924544 149.364098 
L 283.174156 149.28651 
L 283.423769 149.208584 
L 283.673381 149.13032 
L 283.922994 149.051717 
L 284.172607 148.972777 
L 284.422219 148.893499 
L 284.671832 148.813882 
L 284.921445 148.733928 
L 285.171057 148.653635 
L 285.42067 148.573004 
L 285.670282 148.492036 
L 285.919895 148.410729 
L 286.169508 148.329084 
L 286.41912 148.247101 
L 286.668733 148.16478 
L 286.918345 148.082121 
L 287.167958 147.999123 
L 287.417571 147.915788 
L 287.667183 147.832115 
L 287.916796 147.748103 
L 288.166408 147.663754 
L 288.416021 147.579066 
L 288.665634 147.494041 
L 288.915246 147.408677 
L 289.164859 147.322975 
L 289.414471 147.236935 
L 289.664084 147.150557 
L 289.913697 147.063841 
L 290.163309 146.976787 
L 290.412922 146.889395 
L 290.662534 146.801665 
L 290.912147 146.713596 
L 291.16176 146.62519 
L 291.411372 146.536446 
L 291.660985 146.447363 
L 291.910598 146.357942 
L 292.16021 146.268184 
L 292.409823 146.178087 
L 292.659435 146.087652 
L 292.909048 145.996879 
L 293.158661 145.905768 
L 293.408273 145.814319 
L 293.657886 145.722532 
L 293.907498 145.630407 
L 294.157111 145.537944 
L 294.406724 145.445142 
L 294.656336 145.352003 
L 294.905949 145.258525 
L 295.155561 145.16471 
L 295.405174 145.070556 
L 295.654787 144.976064 
L 295.904399 144.881235 
L 296.154012 144.786067 
L 296.403624 144.690561 
L 296.653237 144.594717 
L 296.90285 144.498535 
L 297.152462 144.402014 
L 297.402075 144.305156 
L 297.651687 144.20796 
L 297.9013 144.110425 
L 298.150913 144.012553 
L 298.400525 143.914342 
L 298.650138 143.815794 
L 298.89975 143.716907 
L 299.149363 143.617682 
L 299.398976 143.51812 
L 299.648588 143.418219 
L 299.898201 143.31798 
L 300.147814 143.217403 
L 300.397426 143.116487 
L 300.647039 143.015234 
L 300.896651 142.913643 
L 301.146264 142.811714 
L 301.395877 142.709446 
L 301.645489 142.606841 
L 301.895102 142.503897 
L 302.144714 142.400615 
L 302.394327 142.296996 
L 302.64394 142.193038 
L 302.893552 142.088742 
L 303.143165 141.984108 
L 303.392777 141.879136 
L 303.64239 141.773826 
L 303.892003 141.668178 
L 304.141615 141.562191 
L 304.391228 141.455867 
L 304.64084 141.349205 
L 304.890453 141.242204 
L 305.140066 141.134866 
L 305.389678 141.027189 
L 305.639291 140.919174 
L 305.888903 140.810822 
L 306.138516 140.702131 
L 306.388129 140.593102 
L 306.637741 140.483735 
L 306.887354 140.37403 
L 307.136967 140.263987 
L 307.386579 140.153605 
L 307.636192 140.042886 
L 307.885804 139.931829 
L 308.135417 139.820433 
L 308.38503 139.7087 
L 308.634642 139.596628 
L 308.884255 139.484219 
L 309.133867 139.371471 
L 309.38348 139.258385 
L 309.633093 139.144961 
L 309.882705 139.031199 
L 310.132318 138.917099 
L 310.38193 138.802661 
L 310.631543 138.687885 
L 310.881156 138.572771 
L 311.130768 138.457318 
L 311.380381 138.341528 
L 311.629993 138.2254 
L 311.879606 138.108933 
L 312.129219 137.992128 
L 312.378831 137.874986 
L 312.628444 137.757505 
L 312.878056 137.639686 
L 313.127669 137.521529 
L 313.377282 137.403034 
L 313.626894 137.284201 
L 313.876507 137.16503 
L 314.12612 137.045521 
L 314.375732 136.925673 
L 314.625345 136.805488 
L 314.874957 136.684965 
L 315.12457 136.564103 
L 315.374183 136.442904 
L 315.623795 136.321366 
L 315.873408 136.19949 
L 316.12302 136.077276 
L 316.372633 135.954724 
L 316.622246 135.831834 
L 316.871858 135.708606 
L 317.121471 135.58504 
L 317.371083 135.461136 
L 317.620696 135.336894 
L 317.870309 135.212314 
L 318.119921 135.087395 
L 318.369534 134.962139 
L 318.619146 134.836544 
L 318.868759 134.710612 
L 319.118372 134.584341 
L 319.367984 134.457732 
L 319.617597 134.330785 
L 319.867209 134.2035 
L 320.116822 134.075877 
L 320.366435 133.947916 
L 320.616047 133.819617 
L 320.86566 133.69098 
L 321.115272 133.562005 
L 321.364885 133.432691 
L 321.614498 133.30304 
L 321.86411 133.17305 
L 322.113723 133.042723 
L 322.363336 132.912057 
L 322.612948 132.781053 
L 322.862561 132.649711 
L 323.112173 132.518032 
L 323.361786 132.386014 
L 323.611399 132.253658 
L 323.861011 132.120963 
L 324.110624 131.987931 
L 324.360236 131.854561 
L 324.609849 131.720853 
L 324.859462 131.586806 
L 325.109074 131.452422 
L 325.358687 131.317699 
L 325.608299 131.182639 
L 325.857912 131.04724 
L 326.107525 130.911503 
L 326.357137 130.775428 
L 326.60675 130.639015 
L 326.856362 130.502264 
L 327.105975 130.365175 
L 327.355588 130.227748 
L 327.6052 130.089983 
L 327.854813 129.95188 
L 328.104425 129.813438 
L 328.354038 129.674659 
L 328.603651 129.535541 
L 328.853263 129.396086 
L 329.102876 129.256292 
L 329.352489 129.11616 
L 329.602101 128.975691 
L 329.851714 128.834883 
L 330.101326 128.693737 
L 330.350939 128.552253 
L 330.600552 128.410431 
L 330.850164 128.26827 
L 331.099777 128.125772 
L 331.349389 127.982936 
L 331.599002 127.839761 
L 331.848615 127.696249 
L 332.098227 127.552398 
L 332.34784 127.40821 
L 332.597452 127.263683 
L 332.847065 127.118818 
L 333.096678 126.973615 
L 333.34629 126.828074 
L 333.595903 126.682195 
L 333.845515 126.535978 
L 334.095128 126.389423 
L 334.344741 126.24253 
L 334.594353 126.095299 
L 334.843966 125.947729 
L 335.093578 125.799822 
L 335.343191 125.651576 
L 335.592804 125.502993 
L 335.842416 125.354071 
L 336.092029 125.204811 
L 336.341641 125.055214 
L 336.591254 124.905278 
L 336.840867 124.755004 
L 337.090479 124.604392 
L 337.340092 124.453441 
L 337.589705 124.302153 
L 337.839317 124.150527 
L 338.08893 123.998563 
L 338.338542 123.84626 
L 338.588155 123.69362 
L 338.837768 123.540641 
L 339.08738 123.387325 
L 339.336993 123.23367 
L 339.586605 123.079677 
L 339.836218 122.925346 
L 340.085831 122.770677 
L 340.335443 122.61567 
L 340.585056 122.460325 
L 340.834668 122.304642 
L 341.084281 122.148621 
L 341.333894 121.992262 
L 341.583506 121.835564 
L 341.833119 121.678529 
L 342.082731 121.521155 
L 342.332344 121.363444 
L 342.581957 121.205394 
L 342.831569 121.047006 
L 343.081182 120.88828 
L 343.330794 120.729217 
L 343.580407 120.569815 
L 343.83002 120.410075 
L 344.079632 120.249996 
L 344.329245 120.08958 
L 344.578858 119.928826 
L 344.82847 119.767734 
L 345.078083 119.606303 
L 345.327695 119.444535 
L 345.577308 119.282428 
L 345.826921 119.119984 
L 346.076533 118.957201 
L 346.326146 118.79408 
L 346.575758 118.630621 
L 346.825371 118.466824 
L 347.074984 118.302689 
L 347.324596 118.138216 
L 347.574209 117.973405 
L 347.823821 117.808256 
L 348.073434 117.642769 
L 348.323047 117.476943 
L 348.572659 117.31078 
L 348.822272 117.144278 
L 349.071884 116.977439 
L 349.321497 116.810261 
L 349.57111 116.642745 
L 349.820722 116.474891 
L 350.070335 116.306699 
L 350.319947 116.138169 
L 350.56956 115.969301 
L 350.819173 115.800095 
L 351.068785 115.630551 
L 351.318398 115.460669 
L 351.568011 115.290449 
L 351.817623 115.11989 
L 352.067236 114.948994 
L 352.316848 114.777759 
L 352.566461 114.606186 
L 352.816074 114.434276 
L 353.065686 114.262027 
L 353.315299 114.08944 
L 353.564911 113.916515 
L 353.814524 113.743252 
L 354.064137 113.569651 
L 354.313749 113.395712 
L 354.563362 113.221435 
L 354.812974 113.046819 
L 355.062587 112.871866 
L 355.3122 112.696575 
L 355.561812 112.520945 
L 355.811425 112.344977 
L 356.061037 112.168672 
L 356.31065 111.992028 
L 356.560263 111.815046 
L 356.809875 111.637726 
L 357.059488 111.460068 
L 357.3091 111.282072 
L 357.558713 111.103738 
L 357.808326 110.925066 
L 358.057938 110.746056 
L 358.307551 110.566707 
L 358.557163 110.387021 
L 358.806776 110.206996 
L 359.056389 110.026634 
L 359.306001 109.845933 
L 359.555614 109.664894 
L 359.805227 109.483518 
L 360.054839 109.301803 
L 360.304452 109.11975 
L 360.554064 108.937359 
L 360.803677 108.75463 
L 361.05329 108.571563 
L 361.302902 108.388157 
L 361.552515 108.204414 
L 361.802127 108.020333 
L 362.05174 107.835913 
L 362.301353 107.651156 
L 362.550965 107.46606 
L 362.800578 107.280626 
L 363.05019 107.094855 
L 363.299803 106.908745 
L 363.549416 106.722297 
L 363.799028 106.535511 
L 364.048641 106.348387 
L 364.298253 106.160925 
L 364.547866 105.973125 
L 364.797479 105.784986 
L 365.047091 105.59651 
L 365.296704 105.407696 
L 365.546316 105.218543 
L 365.795929 105.029053 
L 366.045542 104.839224 
L 366.295154 104.649057 
L 366.544767 104.458552 
L 366.79438 104.26771 
L 367.043992 104.076529 
L 367.293605 103.88501 
L 367.543217 103.693153 
L 367.79283 103.500957 
L 368.042443 103.308424 
L 368.292055 103.115553 
L 368.541668 102.922343 
L 368.79128 102.728796 
L 369.040893 102.53491 
L 369.290506 102.340687 
L 369.540118 102.146125 
L 369.789731 101.951225 
L 370.039343 101.755988 
L 370.288956 101.560412 
L 370.538569 101.364498 
L 370.788181 101.168246 
L 371.037794 100.971656 
L 371.287406 100.774727 
L 371.537019 100.577461 
L 371.786632 100.379857 
L 372.036244 100.181914 
L 372.285857 99.983634 
L 372.535469 99.785015 
L 372.785082 99.586059 
L 373.034695 99.386764 
L 373.284307 99.187131 
L 373.53392 98.98716 
L 373.783533 98.786851 
L 374.033145 98.586204 
L 374.282758 98.385219 
L 374.53237 98.183896 
L 374.781983 97.982235 
L 375.031596 97.780235 
L 375.281208 97.577898 
L 375.530821 97.375223 
L 375.780433 97.172209 
L 376.030046 96.968857 
L 376.279659 96.765168 
L 376.529271 96.56114 
L 376.778884 96.356774 
L 377.028496 96.15207 
L 377.278109 95.947028 
L 377.527722 95.741648 
L 377.777334 95.53593 
L 378.026947 95.329874 
L 378.276559 95.12348 
L 378.526172 94.916747 
L 378.775785 94.709677 
L 379.025397 94.502268 
L 379.27501 94.294522 
L 379.524622 94.086437 
L 379.774235 93.878014 
L 380.023848 93.669254 
L 380.27346 93.460155 
L 380.523073 93.250718 
L 380.772685 93.040943 
L 381.022298 92.83083 
L 381.271911 92.620379 
L 381.521523 92.409589 
L 381.771136 92.198462 
L 382.020749 91.986997 
L 382.270361 91.775193 
L 382.519974 91.563052 
L 382.769586 91.350572 
L 383.019199 91.137754 
L 383.268812 90.924599 
L 383.518424 90.711105 
L 383.768037 90.497273 
L 384.017649 90.283103 
L 384.267262 90.068595 
L 384.516875 89.853749 
L 384.766487 89.638564 
L 385.0161 89.423042 
L 385.265712 89.207182 
L 385.515325 88.990983 
L 385.764938 88.774447 
L 386.01455 88.557572 
L 386.264163 88.34036 
L 386.513775 88.122809 
L 386.763388 87.90492 
L 387.013001 87.686693 
L 387.262613 87.468128 
L 387.512226 87.249225 
L 387.761838 87.029984 
L 388.011451 86.810405 
L 388.261064 86.590488 
L 388.510676 86.370233 
L 388.760289 86.149639 
L 389.009902 85.928708 
L 389.259514 85.707438 
L 389.509127 85.485831 
L 389.758739 85.263885 
L 390.008352 85.041601 
L 390.257965 84.818979 
L 390.507577 84.596019 
L 390.75719 84.372721 
L 391.006802 84.149085 
L 391.256415 83.925111 
L 391.506028 83.700799 
L 391.75564 83.476149 
L 392.005253 83.25116 
L 392.254865 83.025834 
L 392.254865 82.574166 
L 392.254865 82.574166 
L 392.005253 82.34884 
L 391.75564 82.123851 
L 391.506028 81.899201 
L 391.256415 81.674889 
L 391.006802 81.450915 
L 390.75719 81.227279 
L 390.507577 81.003981 
L 390.257965 80.781021 
L 390.008352 80.558399 
L 389.758739 80.336115 
L 389.509127 80.114169 
L 389.259514 79.892562 
L 389.009902 79.671292 
L 388.760289 79.450361 
L 388.510676 79.229767 
L 388.261064 79.009512 
L 388.011451 78.789595 
L 387.761838 78.570016 
L 387.512226 78.350775 
L 387.262613 78.131872 
L 387.013001 77.913307 
L 386.763388 77.69508 
L 386.513775 77.477191 
L 386.264163 77.25964 
L 386.01455 77.042428 
L 385.764938 76.825553 
L 385.515325 76.609017 
L 385.265712 76.392818 
L 385.0161 76.176958 
L 384.766487 75.961436 
L 384.516875 75.746251 
L 384.267262 75.531405 
L 384.017649 75.316897 
L 383.768037 75.102727 
L 383.518424 74.888895 
L 383.268812 74.675401 
L 383.019199 74.462246 
L 382.769586 74.249428 
L 382.519974 74.036948 
L 382.270361 73.824807 
L 382.020749 73.613003 
L 381.771136 73.401538 
L 381.521523 73.190411 
L 381.271911 72.979621 
L 381.022298 72.76917 
L 380.772685 72.559057 
L 380.523073 72.349282 
L 380.27346 72.139845 
L 380.023848 71.930746 
L 379.774235 71.721986 
L 379.524622 71.513563 
L 379.27501 71.305478 
L 379.025397 71.097732 
L 378.775785 70.890323 
L 378.526172 70.683253 
L 378.276559 70.47652 
L 378.026947 70.270126 
L 377.777334 70.06407 
L 377.527722 69.858352 
L 377.278109 69.652972 
L 377.028496 69.44793 
L 376.778884 69.243226 
L 376.529271 69.03886 
L 376.279659 68.834832 
L 376.030046 68.631143 
L 375.780433 68.427791 
L 375.530821 68.224777 
L 375.281208 68.022102 
L 375.031596 67.819765 
L 374.781983 67.617765 
L 374.53237 67.416104 
L 374.282758 67.214781 
L 374.033145 67.013796 
L 373.783533 66.813149 
L 373.53392 66.61284 
L 373.284307 66.412869 
L 373.034695 66.213236 
L 372.785082 66.013941 
L 372.535469 65.814985 
L 372.285857 65.616366 
L 372.036244 65.418086 
L 371.786632 65.220143 
L 371.537019 65.022539 
L 371.287406 64.825273 
L 371.037794 64.628344 
L 370.788181 64.431754 
L 370.538569 64.235502 
L 370.288956 64.039588 
L 370.039343 63.844012 
L 369.789731 63.648775 
L 369.540118 63.453875 
L 369.290506 63.259313 
L 369.040893 63.06509 
L 368.79128 62.871204 
L 368.541668 62.677657 
L 368.292055 62.484447 
L 368.042443 62.291576 
L 367.79283 62.099043 
L 367.543217 61.906847 
L 367.293605 61.71499 
L 367.043992 61.523471 
L 366.79438 61.33229 
L 366.544767 61.141448 
L 366.295154 60.950943 
L 366.045542 60.760776 
L 365.795929 60.570947 
L 365.546316 60.381457 
L 365.296704 60.192304 
L 365.047091 60.00349 
L 364.797479 59.815014 
L 364.547866 59.626875 
L 364.298253 59.439075 
L 364.048641 59.251613 
L 363.799028 59.064489 
L 363.549416 58.877703 
L 363.299803 58.691255 
L 363.05019 58.505145 
L 362.800578 58.319374 
L 362.550965 58.13394 
L 362.301353 57.948844 
L 362.05174 57.764087 
L 361.802127 57.579667 
L 361.552515 57.395586 
L 361.302902 57.211843 
L 361.05329 57.028437 
L 360.803677 56.84537 
L 360.554064 56.662641 
L 360.304452 56.48025 
L 360.054839 56.298197 
L 359.805227 56.116482 
L 359.555614 55.935106 
L 359.306001 55.754067 
L 359.056389 55.573366 
L 358.806776 55.393004 
L 358.557163 55.212979 
L 358.307551 55.033293 
L 358.057938 54.853944 
L 357.808326 54.674934 
L 357.558713 54.496262 
L 357.3091 54.317928 
L 357.059488 54.139932 
L 356.809875 53.962274 
L 356.560263 53.784954 
L 356.31065 53.607972 
L 356.061037 53.431328 
L 355.811425 53.255023 
L 355.561812 53.079055 
L 355.3122 52.903425 
L 355.062587 52.728134 
L 354.812974 52.553181 
L 354.563362 52.378565 
L 354.313749 52.204288 
L 354.064137 52.030349 
L 353.814524 51.856748 
L 353.564911 51.683485 
L 353.315299 51.51056 
L 353.065686 51.337973 
L 352.816074 51.165724 
L 352.566461 50.993814 
L 352.316848 50.822241 
L 352.067236 50.651006 
L 351.817623 50.48011 
L 351.568011 50.309551 
L 351.318398 50.139331 
L 351.068785 49.969449 
L 350.819173 49.799905 
L 350.56956 49.630699 
L 350.319947 49.461831 
L 350.070335 49.293301 
L 349.820722 49.125109 
L 349.57111 48.957255 
L 349.321497 48.789739 
L 349.071884 48.622561 
L 348.822272 48.455722 
L 348.572659 48.28922 
L 348.323047 48.123057 
L 348.073434 47.957231 
L 347.823821 47.791744 
L 347.574209 47.626595 
L 347.324596 47.461784 
L 347.074984 47.297311 
L 346.825371 47.133176 
L 346.575758 46.969379 
L 346.326146 46.80592 
L 346.076533 46.642799 
L 345.826921 46.480016 
L 345.577308 46.317572 
L 345.327695 46.155465 
L 345.078083 45.993697 
L 344.82847 45.832266 
L 344.578858 45.671174 
L 344.329245 45.51042 
L 344.079632 45.350004 
L 343.83002 45.189925 
L 343.580407 45.030185 
L 343.330794 44.870783 
L 343.081182 44.71172 
L 342.831569 44.552994 
L 342.581957 44.394606 
L 342.332344 44.236556 
L 342.082731 44.078845 
L 341.833119 43.921471 
L 341.583506 43.764436 
L 341.333894 43.607738 
L 341.084281 43.451379 
L 340.834668 43.295358 
L 340.585056 43.139675 
L 340.335443 42.98433 
L 340.085831 42.829323 
L 339.836218 42.674654 
L 339.586605 42.520323 
L 339.336993 42.36633 
L 339.08738 42.212675 
L 338.837768 42.059359 
L 338.588155 41.90638 
L 338.338542 41.75374 
L 338.08893 41.601437 
L 337.839317 41.449473 
L 337.589705 41.297847 
L 337.340092 41.146559 
L 337.090479 40.995608 
L 336.840867 40.844996 
L 336.591254 40.694722 
L 336.341641 40.544786 
L 336.092029 40.395189 
L 335.842416 40.245929 
L 335.592804 40.097007 
L 335.343191 39.948424 
L 335.093578 39.800178 
L 334.843966 39.652271 
L 334.594353 39.504701 
L 334.344741 39.35747 
L 334.095128 39.210577 
L 333.845515 39.064022 
L 333.595903 38.917805 
L 333.34629 38.771926 
L 333.096678 38.626385 
L 332.847065 38.481182 
L 332.597452 38.336317 
L 332.34784 38.19179 
L 332.098227 38.047602 
L 331.848615 37.903751 
L 331.599002 37.760239 
L 331.349389 37.617064 
L 331.099777 37.474228 
L 330.850164 37.33173 
L 330.600552 37.189569 
L 330.350939 37.047747 
L 330.101326 36.906263 
L 329.851714 36.765117 
L 329.602101 36.624309 
L 329.352489 36.48384 
L 329.102876 36.343708 
L 328.853263 36.203914 
L 328.603651 36.064459 
L 328.354038 35.925341 
L 328.104425 35.786562 
L 327.854813 35.64812 
L 327.6052 35.510017 
L 327.355588 35.372252 
L 327.105975 35.234825 
L 326.856362 35.097736 
L 326.60675 34.960985 
L 326.357137 34.824572 
L 326.107525 34.688497 
L 325.857912 34.55276 
L 325.608299 34.417361 
L 325.358687 34.282301 
L 325.109074 34.147578 
L 324.859462 34.013194 
L 324.609849 33.879147 
L 324.360236 33.745439 
L 324.110624 33.612069 
L 323.861011 33.479037 
L 323.611399 33.346342 
L 323.361786 33.213986 
L 323.112173 33.081968 
L 322.862561 32.950289 
L 322.612948 32.818947 
L 322.363336 32.687943 
L 322.113723 32.557277 
L 321.86411 32.42695 
L 321.614498 32.29696 
L 321.364885 32.167309 
L 321.115272 32.037995 
L 320.86566 31.90902 
L 320.616047 31.780383 
L 320.366435 31.652084 
L 320.116822 31.524123 
L 319.867209 31.3965 
L 319.617597 31.269215 
L 319.367984 31.142268 
L 319.118372 31.015659 
L 318.868759 30.889388 
L 318.619146 30.763456 
L 318.369534 30.637861 
L 318.119921 30.512605 
L 317.870309 30.387686 
L 317.620696 30.263106 
L 317.371083 30.138864 
L 317.121471 30.01496 
L 316.871858 29.891394 
L 316.622246 29.768166 
L 316.372633 29.645276 
L 316.12302 29.522724 
L 315.873408 29.40051 
L 315.623795 29.278634 
L 315.374183 29.157096 
L 315.12457 29.035897 
L 314.874957 28.915035 
L 314.625345 28.794512 
L 314.375732 28.674327 
L 314.12612 28.554479 
L 313.876507 28.43497 
L 313.626894 28.315799 
L 313.377282 28.196966 
L 313.127669 28.078471 
L 312.878056 27.960314 
L 312.628444 27.842495 
L 312.378831 27.725014 
L 312.129219 27.607872 
L 311.879606 27.491067 
L 311.629993 27.3746 
L 311.380381 27.258472 
L 311.130768 27.142682 
L 310.881156 27.027229 
L 310.631543 26.912115 
L 310.38193 26.797339 
L 310.132318 26.682901 
L 309.882705 26.568801 
L 309.633093 26.455039 
L 309.38348 26.341615 
L 309.133867 26.228529 
L 308.884255 26.115781 
L 308.634642 26.003372 
L 308.38503 25.8913 
L 308.135417 25.779567 
L 307.885804 25.668171 
L 307.636192 25.557114 
L 307.386579 25.446395 
L 307.136967 25.336013 
L 306.887354 25.22597 
L 306.637741 25.116265 
L 306.388129 25.006898 
L 306.138516 24.897869 
L 305.888903 24.789178 
L 305.639291 24.680826 
L 305.389678 24.572811 
L 305.140066 24.465134 
L 304.890453 24.357796 
L 304.64084 24.250795 
L 304.391228 24.144133 
L 304.141615 24.037809 
L 303.892003 23.931822 
L 303.64239 23.826174 
L 303.392777 23.720864 
L 303.143165 23.615892 
L 302.893552 23.511258 
L 302.64394 23.406962 
L 302.394327 23.303004 
L 302.144714 23.199385 
L 301.895102 23.096103 
L 301.645489 22.993159 
L 301.395877 22.890554 
L 301.146264 22.788286 
L 300.896651 22.686357 
L 300.647039 22.584766 
L 300.397426 22.483513 
L 300.147814 22.382597 
L 299.898201 22.28202 
L 299.648588 22.181781 
L 299.398976 22.08188 
L 299.149363 21.982318 
L 298.89975 21.883093 
L 298.650138 21.784206 
L 298.400525 21.685658 
L 298.150913 21.587447 
L 297.9013 21.489575 
L 297.651687 21.39204 
L 297.402075 21.294844 
L 297.152462 21.197986 
L 296.90285 21.101465 
L 296.653237 21.005283 
L 296.403624 20.909439 
L 296.154012 20.813933 
L 295.904399 20.718765 
L 295.654787 20.623936 
L 295.405174 20.529444 
L 295.155561 20.43529 
L 294.905949 20.341475 
L 294.656336 20.247997 
L 294.406724 20.154858 
L 294.157111 20.062056 
L 293.907498 19.969593 
L 293.657886 19.877468 
L 293.408273 19.785681 
L 293.158661 19.694232 
L 292.909048 19.603121 
L 292.659435 19.512348 
L 292.409823 19.421913 
L 292.16021 19.331816 
L 291.910598 19.242058 
L 291.660985 19.152637 
L 291.411372 19.063554 
L 291.16176 18.97481 
L 290.912147 18.886404 
L 290.662534 18.798335 
L 290.412922 18.710605 
L 290.163309 18.623213 
L 289.913697 18.536159 
L 289.664084 18.449443 
L 289.414471 18.363065 
L 289.164859 18.277025 
L 288.915246 18.191323 
L 288.665634 18.105959 
L 288.416021 18.020934 
L 288.166408 17.936246 
L 287.916796 17.851897 
L 287.667183 17.767885 
L 287.417571 17.684212 
L 287.167958 17.600877 
L 286.918345 17.517879 
L 286.668733 17.43522 
L 286.41912 17.352899 
L 286.169508 17.270916 
L 285.919895 17.189271 
L 285.670282 17.107964 
L 285.42067 17.026996 
L 285.171057 16.946365 
L 284.921445 16.866072 
L 284.671832 16.786118 
L 284.422219 16.706501 
L 284.172607 16.627223 
L 283.922994 16.548283 
L 283.673381 16.46968 
L 283.423769 16.391416 
L 283.174156 16.31349 
L 282.924544 16.235902 
L 282.674931 16.158652 
L 282.425318 16.08174 
L 282.175706 16.005166 
L 281.926093 15.928931 
L 281.676481 15.853033 
L 281.426868 15.777474 
L 281.177255 15.702252 
L 280.927643 15.627369 
L 280.67803 15.552823 
L 280.428418 15.478616 
L 280.178805 15.404747 
L 279.929192 15.331216 
L 279.67958 15.258023 
L 279.429967 15.185168 
L 279.180355 15.112651 
L 278.930742 15.040472 
L 278.681129 14.968631 
L 278.431517 14.897128 
L 278.181904 14.825964 
L 277.932292 14.755137 
L 277.682679 14.684649 
L 277.433066 14.614498 
L 277.183454 14.544686 
L 276.933841 14.475212 
L 276.684228 14.406076 
L 276.434616 14.337278 
L 276.185003 14.268818 
L 275.935391 14.200696 
L 275.685778 14.132912 
L 275.436165 14.065466 
L 275.186553 13.998358 
L 274.93694 13.931589 
L 274.687328 13.865157 
L 274.437715 13.799064 
L 274.188102 13.733308 
L 273.93849 13.667891 
L 273.688877 13.602811 
L 273.439265 13.53807 
L 273.189652 13.473667 
L 272.940039 13.409602 
L 272.690427 13.345875 
L 272.440814 13.282486 
L 272.191202 13.219435 
L 271.941589 13.156723 
L 271.691976 13.094348 
L 271.442364 13.032311 
L 271.192751 12.970613 
L 270.943139 12.909252 
L 270.693526 12.84823 
L 270.443913 12.787546 
L 270.194301 12.727199 
L 269.944688 12.667191 
L 269.695076 12.607521 
L 269.445463 12.548189 
L 269.19585 12.489195 
L 268.946238 12.430539 
L 268.696625 12.372222 
L 268.447012 12.314242 
L 268.1974 12.2566 
L 267.947787 12.199297 
L 267.698175 12.142331 
L 267.448562 12.085704 
L 267.198949 12.029414 
L 266.949337 11.973463 
L 266.699724 11.91785 
L 266.450112 11.862575 
L 266.200499 11.807638 
L 265.950886 11.753039 
L 265.701274 11.698778 
L 265.451661 11.644855 
L 265.202049 11.59127 
L 264.952436 11.538024 
L 264.702823 11.485115 
L 264.453211 11.432544 
L 264.203598 11.380312 
L 263.953986 11.328418 
L 263.704373 11.276861 
L 263.45476 11.225643 
L 263.205148 11.174763 
L 262.955535 11.124221 
L 262.705923 11.074017 
L 262.45631 11.024151 
L 262.206697 10.974623 
L 261.957085 10.925433 
L 261.707472 10.876581 
L 261.457859 10.828068 
L 261.208247 10.779892 
L 260.958634 10.732055 
L 260.709022 10.684555 
L 260.459409 10.637394 
L 260.209796 10.590571 
L 259.960184 10.544086 
L 259.710571 10.497938 
L 259.460959 10.452129 
L 259.211346 10.406658 
L 258.961733 10.361525 
L 258.712121 10.316731 
L 258.462508 10.272274 
L 258.212896 10.228155 
L 257.963283 10.184375 
L 257.71367 10.140932 
L 257.464058 10.097828 
L 257.214445 10.055061 
L 256.964833 10.012633 
L 256.71522 9.970543 
L 256.465607 9.928791 
L 256.215995 9.887376 
L 255.966382 9.8463 
L 255.71677 9.805563 
L 255.467157 9.765163 
L 255.217544 9.725101 
L 254.967932 9.685377 
L 254.718319 9.645992 
L 254.468707 9.606944 
L 254.219094 9.568234 
L 253.969481 9.529863 
L 253.719869 9.49183 
L 253.470256 9.454134 
L 253.220643 9.416777 
L 252.971031 9.379758 
L 252.721418 9.343077 
L 252.471806 9.306734 
L 252.222193 9.270729 
L 251.97258 9.235062 
L 251.722968 9.199734 
L 251.473355 9.164743 
L 251.223743 9.13009 
L 250.97413 9.095776 
L 250.724517 9.061799 
L 250.474905 9.028161 
L 250.225292 8.994861 
L 249.97568 8.961898 
L 249.726067 8.929274 
L 249.476454 8.896988 
L 249.226842 8.86504 
L 248.977229 8.83343 
L 248.727617 8.802158 
L 248.478004 8.771225 
L 248.228391 8.740629 
L 247.978779 8.710371 
L 247.729166 8.680452 
L 247.479554 8.65087 
L 247.229941 8.621627 
L 246.980328 8.592721 
L 246.730716 8.564154 
L 246.481103 8.535925 
L 246.23149 8.508034 
L 245.981878 8.480481 
L 245.732265 8.453266 
L 245.482653 8.426389 
L 245.23304 8.39985 
L 244.983427 8.373649 
L 244.733815 8.347787 
L 244.484202 8.322262 
L 244.23459 8.297076 
L 243.984977 8.272227 
L 243.735364 8.247717 
L 243.485752 8.223544 
L 243.236139 8.19971 
L 242.986527 8.176214 
L 242.736914 8.153056 
L 242.487301 8.130236 
L 242.237689 8.107754 
L 241.988076 8.08561 
L 241.738464 8.063804 
L 241.488851 8.042337 
L 241.239238 8.021207 
L 240.989626 8.000416 
L 240.740013 7.979962 
L 240.490401 7.959847 
L 240.240788 7.940069 
L 239.991175 7.92063 
L 239.741563 7.901529 
L 239.49195 7.882766 
L 239.242337 7.864341 
L 238.992725 7.846254 
L 238.743112 7.828505 
L 238.4935 7.811094 
L 238.243887 7.794021 
L 237.994274 7.777287 
L 237.744662 7.76089 
L 237.495049 7.744831 
L 237.245437 7.729111 
L 236.995824 7.713729 
L 236.746211 7.698684 
L 236.496599 7.683978 
L 236.246986 7.66961 
L 235.997374 7.65558 
L 235.747761 7.641888 
L 235.498148 7.628534 
L 235.248536 7.615518 
L 234.998923 7.60284 
L 234.749311 7.590501 
L 234.499698 7.578499 
L 234.250085 7.566835 
L 234.000473 7.55551 
L 233.75086 7.544523 
L 233.501248 7.533873 
L 233.251635 7.523562 
L 233.002022 7.513589 
L 232.75241 7.503954 
L 232.502797 7.494657 
L 232.253185 7.485698 
L 232.003572 7.477077 
L 231.753959 7.468794 
L 231.504347 7.460849 
L 231.254734 7.453243 
L 231.005121 7.445974 
L 230.755509 7.439043 
L 230.505896 7.432451 
L 230.256284 7.426197 
L 230.006671 7.42028 
L 229.757058 7.414702 
L 229.507446 7.409462 
L 229.257833 7.40456 
L 229.008221 7.399996 
L 228.758608 7.39577 
L 228.508995 7.391882 
L 228.259383 7.388332 
L 228.00977 7.385121 
L 227.760158 7.382247 
L 227.510545 7.379711 
L 227.260932 7.377514 
L 227.01132 7.375654 
L 226.761707 7.374133 
L 226.512095 7.37295 
L 226.262482 7.372105 
L 226.012869 7.371598 
L 225.763257 7.371429 
L 225.513644 7.371598 
L 225.264032 7.372105 
L 225.014419 7.37295 
L 224.764806 7.374133 
L 224.515194 7.375654 
L 224.265581 7.377514 
L 224.015968 7.379711 
L 223.766356 7.382247 
L 223.516743 7.385121 
L 223.267131 7.388332 
L 223.017518 7.391882 
L 222.767905 7.39577 
L 222.518293 7.399996 
L 222.26868 7.40456 
L 222.019068 7.409462 
L 221.769455 7.414702 
L 221.519842 7.42028 
L 221.27023 7.426197 
L 221.020617 7.432451 
L 220.771005 7.439043 
L 220.521392 7.445974 
L 220.271779 7.453243 
L 220.022167 7.460849 
L 219.772554 7.468794 
L 219.522942 7.477077 
L 219.273329 7.485698 
L 219.023716 7.494657 
L 218.774104 7.503954 
L 218.524491 7.513589 
L 218.274879 7.523562 
L 218.025266 7.533873 
L 217.775653 7.544523 
L 217.526041 7.55551 
L 217.276428 7.566835 
L 217.026815 7.578499 
L 216.777203 7.590501 
L 216.52759 7.60284 
L 216.277978 7.615518 
L 216.028365 7.628534 
L 215.778752 7.641888 
L 215.52914 7.65558 
L 215.279527 7.66961 
L 215.029915 7.683978 
L 214.780302 7.698684 
L 214.530689 7.713729 
L 214.281077 7.729111 
L 214.031464 7.744831 
L 213.781852 7.76089 
L 213.532239 7.777287 
L 213.282626 7.794021 
L 213.033014 7.811094 
L 212.783401 7.828505 
L 212.533789 7.846254 
L 212.284176 7.864341 
L 212.034563 7.882766 
L 211.784951 7.901529 
L 211.535338 7.92063 
L 211.285726 7.940069 
L 211.036113 7.959847 
L 210.7865 7.979962 
L 210.536888 8.000416 
L 210.287275 8.021207 
L 210.037663 8.042337 
L 209.78805 8.063804 
L 209.538437 8.08561 
L 209.288825 8.107754 
L 209.039212 8.130236 
L 208.789599 8.153056 
L 208.539987 8.176214 
L 208.290374 8.19971 
L 208.040762 8.223544 
L 207.791149 8.247717 
L 207.541536 8.272227 
L 207.291924 8.297076 
L 207.042311 8.322262 
L 206.792699 8.347787 
L 206.543086 8.373649 
L 206.293473 8.39985 
L 206.043861 8.426389 
L 205.794248 8.453266 
L 205.544636 8.480481 
L 205.295023 8.508034 
L 205.04541 8.535925 
L 204.795798 8.564154 
L 204.546185 8.592721 
L 204.296573 8.621627 
L 204.04696 8.65087 
L 203.797347 8.680452 
L 203.547735 8.710371 
L 203.298122 8.740629 
L 203.04851 8.771225 
L 202.798897 8.802158 
L 202.549284 8.83343 
L 202.299672 8.86504 
L 202.050059 8.896988 
L 201.800446 8.929274 
L 201.550834 8.961898 
L 201.301221 8.994861 
L 201.051609 9.028161 
L 200.801996 9.061799 
L 200.552383 9.095776 
L 200.302771 9.13009 
L 200.053158 9.164743 
L 199.803546 9.199734 
L 199.553933 9.235062 
L 199.30432 9.270729 
L 199.054708 9.306734 
L 198.805095 9.343077 
L 198.555483 9.379758 
L 198.30587 9.416777 
L 198.056257 9.454134 
L 197.806645 9.49183 
L 197.557032 9.529863 
L 197.30742 9.568234 
L 197.057807 9.606944 
L 196.808194 9.645992 
L 196.558582 9.685377 
L 196.308969 9.725101 
L 196.059357 9.765163 
L 195.809744 9.805563 
L 195.560131 9.8463 
L 195.310519 9.887376 
L 195.060906 9.928791 
L 194.811293 9.970543 
L 194.561681 10.012633 
L 194.312068 10.055061 
L 194.062456 10.097828 
L 193.812843 10.140932 
L 193.56323 10.184375 
L 193.313618 10.228155 
L 193.064005 10.272274 
L 192.814393 10.316731 
L 192.56478 10.361525 
L 192.315167 10.406658 
L 192.065555 10.452129 
L 191.815942 10.497938 
L 191.56633 10.544086 
L 191.316717 10.590571 
L 191.067104 10.637394 
L 190.817492 10.684555 
L 190.567879 10.732055 
L 190.318267 10.779892 
L 190.068654 10.828068 
L 189.819041 10.876581 
L 189.569429 10.925433 
L 189.319816 10.974623 
L 189.070204 11.024151 
L 188.820591 11.074017 
L 188.570978 11.124221 
L 188.321366 11.174763 
L 188.071753 11.225643 
L 187.822141 11.276861 
L 187.572528 11.328418 
L 187.322915 11.380312 
L 187.073303 11.432544 
L 186.82369 11.485115 
L 186.574077 11.538024 
L 186.324465 11.59127 
L 186.074852 11.644855 
L 185.82524 11.698778 
L 185.575627 11.753039 
L 185.326014 11.807638 
L 185.076402 11.862575 
L 184.826789 11.91785 
L 184.577177 11.973463 
L 184.327564 12.029414 
L 184.077951 12.085704 
L 183.828339 12.142331 
L 183.578726 12.199297 
L 183.329114 12.2566 
L 183.079501 12.314242 
L 182.829888 12.372222 
L 182.580276 12.430539 
L 182.330663 12.489195 
L 182.081051 12.548189 
L 181.831438 12.607521 
L 181.581825 12.667191 
L 181.332213 12.727199 
L 181.0826 12.787546 
L 180.832988 12.84823 
L 180.583375 12.909252 
L 180.333762 12.970613 
L 180.08415 13.032311 
L 179.834537 13.094348 
L 179.584924 13.156723 
L 179.335312 13.219435 
L 179.085699 13.282486 
L 178.836087 13.345875 
L 178.586474 13.409602 
L 178.336861 13.473667 
L 178.087249 13.53807 
L 177.837636 13.602811 
L 177.588024 13.667891 
L 177.338411 13.733308 
L 177.088798 13.799064 
L 176.839186 13.865157 
L 176.589573 13.931589 
L 176.339961 13.998358 
L 176.090348 14.065466 
L 175.840735 14.132912 
L 175.591123 14.200696 
L 175.34151 14.268818 
L 175.091898 14.337278 
L 174.842285 14.406076 
L 174.592672 14.475212 
L 174.34306 14.544686 
L 174.093447 14.614498 
L 173.843835 14.684649 
L 173.594222 14.755137 
L 173.344609 14.825964 
L 173.094997 14.897128 
L 172.845384 14.968631 
L 172.595772 15.040472 
L 172.346159 15.112651 
L 172.096546 15.185168 
L 171.846934 15.258023 
L 171.597321 15.331216 
L 171.347708 15.404747 
L 171.098096 15.478616 
L 170.848483 15.552823 
L 170.598871 15.627369 
L 170.349258 15.702252 
L 170.099645 15.777474 
L 169.850033 15.853033 
L 169.60042 15.928931 
L 169.350808 16.005166 
L 169.101195 16.08174 
L 168.851582 16.158652 
L 168.60197 16.235902 
L 168.352357 16.31349 
L 168.102745 16.391416 
L 167.853132 16.46968 
L 167.603519 16.548283 
L 167.353907 16.627223 
L 167.104294 16.706501 
L 166.854682 16.786118 
L 166.605069 16.866072 
L 166.355456 16.946365 
L 166.105844 17.026996 
L 165.856231 17.107964 
L 165.606619 17.189271 
L 165.357006 17.270916 
L 165.107393 17.352899 
L 164.857781 17.43522 
L 164.608168 17.517879 
L 164.358555 17.600877 
L 164.108943 17.684212 
L 163.85933 17.767885 
L 163.609718 17.851897 
L 163.360105 17.936246 
L 163.110492 18.020934 
L 162.86088 18.105959 
L 162.611267 18.191323 
L 162.361655 18.277025 
L 162.112042 18.363065 
L 161.862429 18.449443 
L 161.612817 18.536159 
L 161.363204 18.623213 
L 161.113592 18.710605 
L 160.863979 18.798335 
L 160.614366 18.886404 
L 160.364754 18.97481 
L 160.115141 19.063554 
L 159.865529 19.152637 
L 159.615916 19.242058 
L 159.366303 19.331816 
L 159.116691 19.421913 
L 158.867078 19.512348 
L 158.617466 19.603121 
L 158.367853 19.694232 
L 158.11824 19.785681 
L 157.868628 19.877468 
L 157.619015 19.969593 
L 157.369402 20.062056 
L 157.11979 20.154858 
L 156.870177 20.247997 
L 156.620565 20.341475 
L 156.370952 20.43529 
L 156.121339 20.529444 
L 155.871727 20.623936 
L 155.622114 20.718765 
L 155.372502 20.813933 
L 155.122889 20.909439 
L 154.873276 21.005283 
L 154.623664 21.101465 
L 154.374051 21.197986 
L 154.124439 21.294844 
L 153.874826 21.39204 
L 153.625213 21.489575 
L 153.375601 21.587447 
L 153.125988 21.685658 
L 152.876376 21.784206 
L 152.626763 21.883093 
L 152.37715 21.982318 
L 152.127538 22.08188 
L 151.877925 22.181781 
L 151.628313 22.28202 
L 151.3787 22.382597 
L 151.129087 22.483513 
L 150.879475 22.584766 
L 150.629862 22.686357 
L 150.38025 22.788286 
L 150.130637 22.890554 
L 149.881024 22.993159 
L 149.631412 23.096103 
L 149.381799 23.199385 
L 149.132186 23.303004 
L 148.882574 23.406962 
L 148.632961 23.511258 
L 148.383349 23.615892 
L 148.133736 23.720864 
L 147.884123 23.826174 
L 147.634511 23.931822 
L 147.384898 24.037809 
L 147.135286 24.144133 
L 146.885673 24.250795 
L 146.63606 24.357796 
L 146.386448 24.465134 
L 146.136835 24.572811 
L 145.887223 24.680826 
L 145.63761 24.789178 
L 145.387997 24.897869 
L 145.138385 25.006898 
L 144.888772 25.116265 
L 144.63916 25.22597 
L 144.389547 25.336013 
L 144.139934 25.446395 
L 143.890322 25.557114 
L 143.640709 25.668171 
L 143.391097 25.779567 
L 143.141484 25.8913 
L 142.891871 26.003372 
L 142.642259 26.115781 
L 142.392646 26.228529 
L 142.143033 26.341615 
L 141.893421 26.455039 
L 141.643808 26.568801 
L 141.394196 26.682901 
L 141.144583 26.797339 
L 140.89497 26.912115 
L 140.645358 27.027229 
L 140.395745 27.142682 
L 140.146133 27.258472 
L 139.89652 27.3746 
L 139.646907 27.491067 
L 139.397295 27.607872 
L 139.147682 27.725014 
L 138.89807 27.842495 
L 138.648457 27.960314 
L 138.398844 28.078471 
L 138.149232 28.196966 
L 137.899619 28.315799 
L 137.650007 28.43497 
L 137.400394 28.554479 
L 137.150781 28.674327 
L 136.901169 28.794512 
L 136.651556 28.915035 
L 136.401944 29.035897 
L 136.152331 29.157096 
L 135.902718 29.278634 
L 135.653106 29.40051 
L 135.403493 29.522724 
L 135.15388 29.645276 
L 134.904268 29.768166 
L 134.654655 29.891394 
L 134.405043 30.01496 
L 134.15543 30.138864 
L 133.905817 30.263106 
L 133.656205 30.387686 
L 133.406592 30.512605 
L 133.15698 30.637861 
L 132.907367 30.763456 
L 132.657754 30.889388 
L 132.408142 31.015659 
L 132.158529 31.142268 
L 131.908917 31.269215 
L 131.659304 31.3965 
L 131.409691 31.524123 
L 131.160079 31.652084 
L 130.910466 31.780383 
L 130.660854 31.90902 
L 130.411241 32.037995 
L 130.161628 32.167309 
L 129.912016 32.29696 
L 129.662403 32.42695 
L 129.412791 32.557277 
L 129.163178 32.687943 
L 128.913565 32.818947 
L 128.663953 32.950289 
L 128.41434 33.081968 
L 128.164728 33.213986 
L 127.915115 33.346342 
L 127.665502 33.479037 
L 127.41589 33.612069 
L 127.166277 33.745439 
L 126.916664 33.879147 
L 126.667052 34.013194 
L 126.417439 34.147578 
L 126.167827 34.282301 
L 125.918214 34.417361 
L 125.668601 34.55276 
L 125.418989 34.688497 
L 125.169376 34.824572 
L 124.919764 34.960985 
L 124.670151 35.097736 
L 124.420538 35.234825 
L 124.170926 35.372252 
L 123.921313 35.510017 
L 123.671701 35.64812 
L 123.422088 35.786562 
L 123.172475 35.925341 
L 122.922863 36.064459 
L 122.67325 36.203914 
L 122.423638 36.343708 
L 122.174025 36.48384 
L 121.924412 36.624309 
L 121.6748 36.765117 
L 121.425187 36.906263 
L 121.175575 37.047747 
L 120.925962 37.189569 
L 120.676349 37.33173 
L 120.426737 37.474228 
L 120.177124 37.617064 
L 119.927511 37.760239 
L 119.677899 37.903751 
L 119.428286 38.047602 
L 119.178674 38.19179 
L 118.929061 38.336317 
L 118.679448 38.481182 
L 118.429836 38.626385 
L 118.180223 38.771926 
L 117.930611 38.917805 
L 117.680998 39.064022 
L 117.431385 39.210577 
L 117.181773 39.35747 
L 116.93216 39.504701 
L 116.682548 39.652271 
L 116.432935 39.800178 
L 116.183322 39.948424 
L 115.93371 40.097007 
L 115.684097 40.245929 
L 115.434485 40.395189 
L 115.184872 40.544786 
L 114.935259 40.694722 
L 114.685647 40.844996 
L 114.436034 40.995608 
L 114.186422 41.146559 
L 113.936809 41.297847 
L 113.687196 41.449473 
L 113.437584 41.601437 
L 113.187971 41.75374 
L 112.938359 41.90638 
L 112.688746 42.059359 
L 112.439133 42.212675 
L 112.189521 42.36633 
L 111.939908 42.520323 
L 111.690295 42.674654 
L 111.440683 42.829323 
L 111.19107 42.98433 
L 110.941458 43.139675 
L 110.691845 43.295358 
L 110.442232 43.451379 
L 110.19262 43.607738 
L 109.943007 43.764436 
L 109.693395 43.921471 
L 109.443782 44.078845 
L 109.194169 44.236556 
L 108.944557 44.394606 
L 108.694944 44.552994 
L 108.445332 44.71172 
L 108.195719 44.870783 
L 107.946106 45.030185 
L 107.696494 45.189925 
L 107.446881 45.350004 
L 107.197269 45.51042 
L 106.947656 45.671174 
L 106.698043 45.832266 
L 106.448431 45.993697 
L 106.198818 46.155465 
L 105.949206 46.317572 
L 105.699593 46.480016 
L 105.44998 46.642799 
L 105.200368 46.80592 
L 104.950755 46.969379 
L 104.701142 47.133176 
L 104.45153 47.297311 
L 104.201917 47.461784 
L 103.952305 47.626595 
L 103.702692 47.791744 
L 103.453079 47.957231 
L 103.203467 48.123057 
L 102.953854 48.28922 
L 102.704242 48.455722 
L 102.454629 48.622561 
L 102.205016 48.789739 
L 101.955404 48.957255 
L 101.705791 49.125109 
L 101.456179 49.293301 
L 101.206566 49.461831 
L 100.956953 49.630699 
L 100.707341 49.799905 
L 100.457728 49.969449 
L 100.208116 50.139331 
L 99.958503 50.309551 
L 99.70889 50.48011 
L 99.459278 50.651006 
L 99.209665 50.822241 
L 98.960053 50.993814 
L 98.71044 51.165724 
L 98.460827 51.337973 
L 98.211215 51.51056 
L 97.961602 51.683485 
L 97.711989 51.856748 
L 97.462377 52.030349 
L 97.212764 52.204288 
L 96.963152 52.378565 
L 96.713539 52.553181 
L 96.463926 52.728134 
L 96.214314 52.903425 
L 95.964701 53.079055 
L 95.715089 53.255023 
L 95.465476 53.431328 
L 95.215863 53.607972 
L 94.966251 53.784954 
L 94.716638 53.962274 
L 94.467026 54.139932 
L 94.217413 54.317928 
L 93.9678 54.496262 
L 93.718188 54.674934 
L 93.468575 54.853944 
L 93.218963 55.033293 
L 92.96935 55.212979 
L 92.719737 55.393004 
L 92.470125 55.573366 
L 92.220512 55.754067 
L 91.9709 55.935106 
L 91.721287 56.116482 
L 91.471674 56.298197 
L 91.222062 56.48025 
L 90.972449 56.662641 
L 90.722837 56.84537 
L 90.473224 57.028437 
L 90.223611 57.211843 
L 89.973999 57.395586 
L 89.724386 57.579667 
L 89.474773 57.764087 
L 89.225161 57.948844 
L 88.975548 58.13394 
L 88.725936 58.319374 
L 88.476323 58.505145 
L 88.22671 58.691255 
L 87.977098 58.877703 
L 87.727485 59.064489 
L 87.477873 59.251613 
L 87.22826 59.439075 
L 86.978647 59.626875 
L 86.729035 59.815014 
L 86.479422 60.00349 
z
" style="fill:#0000ff;fill-opacity:0.1;stroke:#0000ff;stroke-opacity:0.1;"/>
   </g>
   <g id="matplotlib.axis_1">
    <g id="xtick_1">
     <g id="line2d_1">
      <defs>
       <path d="M 0 0 
L 0 3.5 
" id="mf923b862bb" style="stroke:#000000;stroke-width:0.8;"/>
      </defs>
      <g>
       <use style="stroke:#000000;stroke-width:0.8;" x="92.844544" xlink:href="#mf923b862bb" y="162"/>
      </g>
     </g>
     <g id="text_1">
      <!-- 1920 -->
      <g transform="translate(80.119544 176.598438)scale(0.1 -0.1)">
       <defs>
        <path d="M 794 531 
L 1825 531 
L 1825 4091 
L 703 3866 
L 703 4441 
L 1819 4666 
L 2450 4666 
L 2450 531 
L 3481 531 
L 3481 0 
L 794 0 
L 794 531 
z
" id="DejaVuSans-31" transform="scale(0.015625)"/>
        <path d="M 703 97 
L 703 672 
Q 941 559 1184 500 
Q 1428 441 1663 441 
Q 2288 441 2617 861 
Q 2947 1281 2994 2138 
Q 2813 1869 2534 1725 
Q 2256 1581 1919 1581 
Q 1219 1581 811 2004 
Q 403 2428 403 3163 
Q 403 3881 828 4315 
Q 1253 4750 1959 4750 
Q 2769 4750 3195 4129 
Q 3622 3509 3622 2328 
Q 3622 1225 3098 567 
Q 2575 -91 1691 -91 
Q 1453 -91 1209 -44 
Q 966 3 703 97 
z
M 1959 2075 
Q 2384 2075 2632 2365 
Q 2881 2656 2881 3163 
Q 2881 3666 2632 3958 
Q 2384 4250 1959 4250 
Q 1534 4250 1286 3958 
Q 1038 3666 1038 3163 
Q 1038 2656 1286 2365 
Q 1534 2075 1959 2075 
z
" id="DejaVuSans-39" transform="scale(0.015625)"/>
        <path d="M 1228 531 
L 3431 531 
L 3431 0 
L 469 0 
L 469 531 
Q 828 903 1448 1529 
Q 2069 2156 2228 2338 
Q 2531 2678 2651 2914 
Q 2772 3150 2772 3378 
Q 2772 3750 2511 3984 
Q 2250 4219 1831 4219 
Q 1534 4219 1204 4116 
Q 875 4013 500 3803 
L 500 4441 
Q 881 4594 1212 4672 
Q 1544 4750 1819 4750 
Q 2544 4750 2975 4387 
Q 3406 4025 3406 3419 
Q 3406 3131 3298 2873 
Q 3191 2616 2906 2266 
Q 2828 2175 2409 1742 
Q 1991 1309 1228 531 
z
" id="DejaVuSans-32" transform="scale(0.015625)"/>
        <path d="M 2034 4250 
Q 1547 4250 1301 3770 
Q 1056 3291 1056 2328 
Q 1056 1369 1301 889 
Q 1547 409 2034 409 
Q 2525 409 2770 889 
Q 3016 1369 3016 2328 
Q 3016 3291 2770 3770 
Q 2525 4250 2034 4250 
z
M 2034 4750 
Q 2819 4750 3233 4129 
Q 3647 3509 3647 2328 
Q 3647 1150 3233 529 
Q 2819 -91 2034 -91 
Q 1250 -91 836 529 
Q 422 1150 422 2328 
Q 422 3509 836 4129 
Q 1250 4750 2034 4750 
z
" id="DejaVuSans-30" transform="scale(0.015625)"/>
       </defs>
       <use xlink:href="#DejaVuSans-31"/>
       <use x="63.623047" xlink:href="#DejaVuSans-39"/>
       <use x="127.246094" xlink:href="#DejaVuSans-32"/>
       <use x="190.869141" xlink:href="#DejaVuSans-30"/>
      </g>
     </g>
    </g>
    <g id="xtick_2">
     <g id="line2d_2">
      <g>
       <use style="stroke:#000000;stroke-width:0.8;" x="152.751569" xlink:href="#mf923b862bb" y="162"/>
      </g>
     </g>
     <g id="text_2">
      <!-- 1940 -->
      <g transform="translate(140.026569 176.598438)scale(0.1 -0.1)">
       <defs>
        <path d="M 2419 4116 
L 825 1625 
L 2419 1625 
L 2419 4116 
z
M 2253 4666 
L 3047 4666 
L 3047 1625 
L 3713 1625 
L 3713 1100 
L 3047 1100 
L 3047 0 
L 2419 0 
L 2419 1100 
L 313 1100 
L 313 1709 
L 2253 4666 
z
" id="DejaVuSans-34" transform="scale(0.015625)"/>
       </defs>
       <use xlink:href="#DejaVuSans-31"/>
       <use x="63.623047" xlink:href="#DejaVuSans-39"/>
       <use x="127.246094" xlink:href="#DejaVuSans-34"/>
       <use x="190.869141" xlink:href="#DejaVuSans-30"/>
      </g>
     </g>
    </g>
    <g id="xtick_3">
     <g id="line2d_3">
      <g>
       <use style="stroke:#000000;stroke-width:0.8;" x="212.658595" xlink:href="#mf923b862bb" y="162"/>
      </g>
     </g>
     <g id="text_3">
      <!-- 1960 -->
      <g transform="translate(199.933595 176.598438)scale(0.1 -0.1)">
       <defs>
        <path d="M 2113 2584 
Q 1688 2584 1439 2293 
Q 1191 2003 1191 1497 
Q 1191 994 1439 701 
Q 1688 409 2113 409 
Q 2538 409 2786 701 
Q 3034 994 3034 1497 
Q 3034 2003 2786 2293 
Q 2538 2584 2113 2584 
z
M 3366 4563 
L 3366 3988 
Q 3128 4100 2886 4159 
Q 2644 4219 2406 4219 
Q 1781 4219 1451 3797 
Q 1122 3375 1075 2522 
Q 1259 2794 1537 2939 
Q 1816 3084 2150 3084 
Q 2853 3084 3261 2657 
Q 3669 2231 3669 1497 
Q 3669 778 3244 343 
Q 2819 -91 2113 -91 
Q 1303 -91 875 529 
Q 447 1150 447 2328 
Q 447 3434 972 4092 
Q 1497 4750 2381 4750 
Q 2619 4750 2861 4703 
Q 3103 4656 3366 4563 
z
" id="DejaVuSans-36" transform="scale(0.015625)"/>
       </defs>
       <use xlink:href="#DejaVuSans-31"/>
       <use x="63.623047" xlink:href="#DejaVuSans-39"/>
       <use x="127.246094" xlink:href="#DejaVuSans-36"/>
       <use x="190.869141" xlink:href="#DejaVuSans-30"/>
      </g>
     </g>
    </g>
    <g id="xtick_4">
     <g id="line2d_4">
      <g>
       <use style="stroke:#000000;stroke-width:0.8;" x="272.56562" xlink:href="#mf923b862bb" y="162"/>
      </g>
     </g>
     <g id="text_4">
      <!-- 1980 -->
      <g transform="translate(259.84062 176.598438)scale(0.1 -0.1)">
       <defs>
        <path d="M 2034 2216 
Q 1584 2216 1326 1975 
Q 1069 1734 1069 1313 
Q 1069 891 1326 650 
Q 1584 409 2034 409 
Q 2484 409 2743 651 
Q 3003 894 3003 1313 
Q 3003 1734 2745 1975 
Q 2488 2216 2034 2216 
z
M 1403 2484 
Q 997 2584 770 2862 
Q 544 3141 544 3541 
Q 544 4100 942 4425 
Q 1341 4750 2034 4750 
Q 2731 4750 3128 4425 
Q 3525 4100 3525 3541 
Q 3525 3141 3298 2862 
Q 3072 2584 2669 2484 
Q 3125 2378 3379 2068 
Q 3634 1759 3634 1313 
Q 3634 634 3220 271 
Q 2806 -91 2034 -91 
Q 1263 -91 848 271 
Q 434 634 434 1313 
Q 434 1759 690 2068 
Q 947 2378 1403 2484 
z
M 1172 3481 
Q 1172 3119 1398 2916 
Q 1625 2713 2034 2713 
Q 2441 2713 2670 2916 
Q 2900 3119 2900 3481 
Q 2900 3844 2670 4047 
Q 2441 4250 2034 4250 
Q 1625 4250 1398 4047 
Q 1172 3844 1172 3481 
z
" id="DejaVuSans-38" transform="scale(0.015625)"/>
       </defs>
       <use xlink:href="#DejaVuSans-31"/>
       <use x="63.623047" xlink:href="#DejaVuSans-39"/>
       <use x="127.246094" xlink:href="#DejaVuSans-38"/>
       <use x="190.869141" xlink:href="#DejaVuSans-30"/>
      </g>
     </g>
    </g>
    <g id="xtick_5">
     <g id="line2d_5">
      <g>
       <use style="stroke:#000000;stroke-width:0.8;" x="332.472646" xlink:href="#mf923b862bb" y="162"/>
      </g>
     </g>
     <g id="text_5">
      <!-- 2000 -->
      <g transform="translate(319.747646 176.598438)scale(0.1 -0.1)">
       <use xlink:href="#DejaVuSans-32"/>
       <use x="63.623047" xlink:href="#DejaVuSans-30"/>
       <use x="127.246094" xlink:href="#DejaVuSans-30"/>
       <use x="190.869141" xlink:href="#DejaVuSans-30"/>
      </g>
     </g>
    </g>
    <g id="xtick_6">
     <g id="line2d_6">
      <g>
       <use style="stroke:#000000;stroke-width:0.8;" x="392.379672" xlink:href="#mf923b862bb" y="162"/>
      </g>
     </g>
     <g id="text_6">
      <!-- 2020 -->
      <g transform="translate(379.654672 176.598438)scale(0.1 -0.1)">
       <use xlink:href="#DejaVuSans-32"/>
       <use x="63.623047" xlink:href="#DejaVuSans-30"/>
       <use x="127.246094" xlink:href="#DejaVuSans-32"/>
       <use x="190.869141" xlink:href="#DejaVuSans-30"/>
      </g>
     </g>
    </g>
   </g>
   <g id="matplotlib.axis_2">
    <g id="ytick_1">
     <g id="line2d_7">
      <defs>
       <path d="M 0 0 
L -3.5 0 
" id="mf3d8cfbd95" style="stroke:#000000;stroke-width:0.8;"/>
      </defs>
      <g>
       <use style="stroke:#000000;stroke-width:0.8;" x="34.56" xlink:href="#mf3d8cfbd95" y="137.393188"/>
      </g>
     </g>
     <g id="text_7">
      <!-- 100 -->
      <g transform="translate(0.092813 141.192406)scale(0.1 -0.1)">
       <defs>
        <path d="M 678 2272 
L 4684 2272 
L 4684 1741 
L 678 1741 
L 678 2272 
z
" id="DejaVuSans-2212" transform="scale(0.015625)"/>
       </defs>
       <use xlink:href="#DejaVuSans-2212"/>
       <use x="83.789062" xlink:href="#DejaVuSans-31"/>
       <use x="147.412109" xlink:href="#DejaVuSans-30"/>
       <use x="211.035156" xlink:href="#DejaVuSans-30"/>
      </g>
     </g>
    </g>
    <g id="ytick_2">
     <g id="line2d_8">
      <g>
       <use style="stroke:#000000;stroke-width:0.8;" x="34.56" xlink:href="#mf3d8cfbd95" y="110.096594"/>
      </g>
     </g>
     <g id="text_8">
      <!-- 50 -->
      <g transform="translate(6.455313 113.895813)scale(0.1 -0.1)">
       <defs>
        <path d="M 691 4666 
L 3169 4666 
L 3169 4134 
L 1269 4134 
L 1269 2991 
Q 1406 3038 1543 3061 
Q 1681 3084 1819 3084 
Q 2600 3084 3056 2656 
Q 3513 2228 3513 1497 
Q 3513 744 3044 326 
Q 2575 -91 1722 -91 
Q 1428 -91 1123 -41 
Q 819 9 494 109 
L 494 744 
Q 775 591 1075 516 
Q 1375 441 1709 441 
Q 2250 441 2565 725 
Q 2881 1009 2881 1497 
Q 2881 1984 2565 2268 
Q 2250 2553 1709 2553 
Q 1456 2553 1204 2497 
Q 953 2441 691 2322 
L 691 4666 
z
" id="DejaVuSans-35" transform="scale(0.015625)"/>
       </defs>
       <use xlink:href="#DejaVuSans-2212"/>
       <use x="83.789062" xlink:href="#DejaVuSans-35"/>
       <use x="147.412109" xlink:href="#DejaVuSans-30"/>
      </g>
     </g>
    </g>
    <g id="ytick_3">
     <g id="line2d_9">
      <g>
       <use style="stroke:#000000;stroke-width:0.8;" x="34.56" xlink:href="#mf3d8cfbd95" y="82.8"/>
      </g>
     </g>
     <g id="text_9">
      <!-- 0 -->
      <g transform="translate(21.1975 86.599219)scale(0.1 -0.1)">
       <use xlink:href="#DejaVuSans-30"/>
      </g>
     </g>
    </g>
    <g id="ytick_4">
     <g id="line2d_10">
      <g>
       <use style="stroke:#000000;stroke-width:0.8;" x="34.56" xlink:href="#mf3d8cfbd95" y="55.503406"/>
      </g>
     </g>
     <g id="text_10">
      <!-- 50 -->
      <g transform="translate(14.835 59.302625)scale(0.1 -0.1)">
       <use xlink:href="#DejaVuSans-35"/>
       <use x="63.623047" xlink:href="#DejaVuSans-30"/>
      </g>
     </g>
    </g>
    <g id="ytick_5">
     <g id="line2d_11">
      <g>
       <use style="stroke:#000000;stroke-width:0.8;" x="34.56" xlink:href="#mf3d8cfbd95" y="28.206812"/>
      </g>
     </g>
     <g id="text_11">
      <!-- 100 -->
      <g transform="translate(8.4725 32.006031)scale(0.1 -0.1)">
       <use xlink:href="#DejaVuSans-31"/>
       <use x="63.623047" xlink:href="#DejaVuSans-30"/>
       <use x="127.246094" xlink:href="#DejaVuSans-30"/>
      </g>
     </g>
    </g>
   </g>
   <g id="line2d_12">
    <path clip-path="url(#p5dd1519f2f)" d="M 57.025135 83.066122 
L 57.52436 83.28043 
L 58.273198 83.348409 
L 58.772423 83.218156 
L 59.271648 83.596528 
L 59.521261 83.701747 
L 60.270098 84.559029 
L 61.018936 85.075905 
L 61.518162 85.129858 
L 63.015837 86.109313 
L 63.515062 86.592897 
L 63.764675 86.699839 
L 64.763125 86.56299 
L 65.012738 86.738213 
L 65.262351 86.700988 
L 65.761576 87.263459 
L 66.011188 87.468462 
L 66.260801 87.860247 
L 67.259251 88.292378 
L 67.758477 88.409402 
L 68.257702 88.96522 
L 69.505765 90.433843 
L 69.755378 90.559376 
L 70.00499 90.443176 
L 70.254603 90.612288 
L 70.504215 90.958477 
L 70.753828 89.002534 
L 71.003441 89.301847 
L 71.253053 88.919987 
L 72.001891 89.789216 
L 72.501116 90.315995 
L 72.750729 90.278082 
L 73.249954 90.61725 
L 73.499567 90.426401 
L 74.248404 90.384537 
L 74.74763 91.192112 
L 75.496467 92.323025 
M 75.995693 92.424252 
L 76.245305 92.398218 
L 77.243756 92.95512 
L 78.242206 93.583726 
L 78.491819 93.527595 
L 78.741431 93.663065 
L 79.240657 93.233627 
L 79.989494 93.334286 
L 80.239107 93.146626 
L 81.237557 94.02894 
L 81.48717 94.064349 
L 81.986395 93.875277 
L 82.236008 93.9783 
L 82.48562 98.296738 
M 84.482521 98.62148 
L 84.732134 98.582288 
L 84.981747 98.193456 
L 85.480972 98.064001 
L 85.980197 98.184774 
M 86.479422 98.531925 
L 87.477873 99.192524 
L 87.727485 99.174149 
L 87.977098 98.84204 
L 88.22671 98.985699 
L 88.725936 98.967191 
L 88.975548 99.024238 
L 90.223611 100.182457 
L 90.722837 100.2643 
L 90.972449 100.092282 
L 91.222062 100.301082 
L 91.471674 100.162085 
L 91.9709 100.282899 
L 92.719737 100.738273 
L 93.468575 101.791313 
L 94.217413 102.168688 
L 94.716638 102.631584 
L 94.966251 102.675672 
L 95.215863 102.546294 
L 95.465476 103.100657 
L 95.715089 103.191274 
L 96.463926 103.895657 
L 96.713539 103.760999 
L 97.212764 103.754349 
L 97.462377 103.692934 
L 97.961602 103.850415 
L 98.460827 103.960799 
L 99.209665 104.825834 
L 99.70889 104.770296 
L 101.206566 105.343872 
L 101.705791 105.948828 
L 102.205016 106.565952 
L 102.454629 106.714569 
L 103.203467 106.656995 
L 103.702692 106.606033 
L 104.201917 106.843616 
L 104.701142 107.352344 
L 105.200368 107.623036 
L 105.44998 107.412728 
L 105.699593 108.934124 
L 105.949206 109.053093 
L 106.698043 108.319235 
L 106.947656 108.426573 
L 107.446881 108.412017 
L 108.195719 108.963075 
L 108.944557 109.111757 
L 109.443782 108.913657 
L 110.19262 109.375239 
L 110.442232 109.396391 
L 110.691845 109.690477 
L 110.941458 110.201887 
L 111.440683 110.383645 
L 112.439133 110.199621 
L 112.688746 110.433319 
L 113.437584 110.571039 
L 113.687196 110.540974 
L 114.436034 111.303306 
L 114.685647 111.471701 
L 114.935259 111.360468 
L 116.432935 111.866325 
L 116.682548 111.77301 
L 117.431385 112.03568 
L 117.680998 112.281615 
L 117.930611 112.133769 
L 118.180223 112.42725 
L 119.178674 112.814502 
L 119.428286 112.770511 
L 120.177124 112.998461 
L 120.676349 112.965257 
L 121.425187 113.077582 
L 122.174025 112.707351 
L 122.922863 112.956176 
L 123.172475 112.839669 
L 123.422088 113.107375 
L 123.921313 113.290278 
L 125.668601 113.833803 
L 126.417439 113.536841 
L 126.667052 113.625919 
L 126.916664 113.542383 
L 127.915115 113.595342 
L 128.41434 113.502985 
L 129.163178 113.657157 
L 131.160079 114.691897 
L 132.158529 114.72604 
L 132.408142 114.670388 
L 132.657754 114.730797 
L 132.907367 114.674639 
L 133.15698 114.777914 
L 133.656205 114.695592 
L 133.905817 114.366752 
L 134.654655 114.023169 
L 135.15388 114.215438 
L 135.653106 114.021369 
L 136.401944 113.831951 
L 136.901169 114.106854 
L 137.650007 113.871195 
L 137.899619 113.587283 
L 140.89497 112.32622 
L 141.643808 112.200361 
L 141.893421 111.989145 
L 142.642259 111.999412 
L 142.891871 111.848261 
L 143.890322 111.78938 
L 145.387997 111.155168 
L 145.63761 111.142862 
L 145.887223 111.333466 
L 146.136835 111.181788 
L 146.386448 111.186049 
L 146.63606 111.013678 
L 147.135286 110.902306 
L 147.384898 110.750758 
L 148.383349 110.842754 
L 148.632961 110.643116 
L 149.881024 110.565516 
L 151.3787 110.597528 
L 152.127538 110.064027 
L 152.626763 109.965616 
L 153.375601 110.205145 
L 154.124439 109.785939 
L 154.374051 109.816361 
L 155.122889 109.406633 
L 155.372502 109.463889 
L 158.367853 107.88014 
L 158.617466 108.012148 
L 158.867078 107.982511 
L 159.366303 107.641892 
L 159.865529 107.322297 
L 160.364754 107.182523 
L 160.863979 106.97111 
L 161.113592 106.956855 
L 161.363204 106.800856 
L 163.110492 106.941227 
L 163.85933 106.959381 
L 164.108943 107.022809 
L 164.608168 106.888282 
L 164.857781 107.088192 
L 165.357006 107.01823 
L 165.606619 107.049719 
L 165.856231 106.967523 
L 166.105844 107.038769 
L 166.854682 106.625977 
L 167.353907 106.352683 
L 167.603519 106.358982 
L 168.102745 106.202025 
L 168.851582 106.158427 
L 169.350808 106.293967 
L 170.099645 106.145673 
L 171.597321 106.363614 
L 171.846934 106.227737 
L 172.346159 106.193253 
L 172.845384 106.032717 
L 173.094997 105.7643 
L 174.34306 105.716163 
L 174.592672 105.776285 
L 174.842285 105.642418 
L 175.091898 105.793166 
L 175.34151 105.638289 
L 175.840735 104.946246 
L 176.839186 104.781037 
L 179.085699 103.296149 
L 179.335312 103.358612 
L 181.0826 102.453518 
L 181.581825 101.994902 
L 182.081051 101.599905 
L 182.829888 101.291159 
L 183.828339 100.763934 
L 184.077951 100.679875 
L 184.327564 100.457207 
L 184.826789 100.290712 
L 188.321366 98.760593 
L 188.570978 98.771917 
L 188.820591 98.670136 
L 189.070204 98.281859 
L 189.819041 97.78631 
L 190.068654 97.792085 
L 191.067104 97.192593 
L 196.059357 95.508152 
L 196.308969 95.499141 
L 197.057807 95.163784 
L 197.30742 95.129365 
L 197.557032 94.949387 
L 197.806645 94.978652 
L 198.805095 94.597663 
L 199.30432 94.555109 
L 199.553933 94.323475 
L 199.803546 94.34479 
L 200.801996 94.049102 
L 202.050059 93.746359 
L 202.549284 93.476676 
L 203.04851 93.291712 
L 204.296573 92.638446 
L 205.04541 92.57377 
L 205.544636 92.578921 
L 205.794248 92.622948 
L 207.541536 92.140347 
L 208.539987 91.992768 
L 210.037663 91.558902 
L 210.536888 91.440889 
L 211.285726 91.048785 
L 212.034563 90.923988 
L 212.783401 91.066993 
L 213.532239 90.877141 
L 214.780302 90.569407 
L 215.52914 90.33114 
L 216.028365 90.219686 
L 216.52759 89.967831 
L 217.276428 89.820465 
L 217.775653 89.744974 
L 218.025266 89.610983 
L 218.774104 89.534753 
L 220.771005 88.87928 
L 221.27023 88.699828 
L 221.519842 88.726342 
L 222.019068 88.446286 
L 222.26868 88.455054 
L 222.767905 88.160459 
L 229.507446 86.32949 
L 229.757058 86.355378 
L 231.504347 85.731246 
L 233.501248 85.485298 
L 234.749311 84.690116 
L 235.248536 84.492897 
L 235.747761 84.512306 
L 235.997374 84.525467 
L 236.496599 84.204995 
L 236.746211 84.086973 
L 236.995824 84.147768 
L 237.245437 84.080805 
L 237.495049 84.159787 
L 237.744662 84.087222 
L 238.243887 83.718192 
L 238.743112 83.662525 
L 239.242337 83.609055 
L 240.240788 83.605233 
L 240.740013 83.381389 
L 240.989626 83.421826 
L 241.738464 82.902941 
L 241.988076 83.06755 
L 242.237689 83.080515 
L 242.487301 82.980035 
L 242.736914 83.057227 
L 243.485752 82.847393 
L 243.984977 82.881932 
L 244.733815 82.655098 
L 245.23304 82.672775 
L 245.482653 82.608805 
L 245.981878 82.670446 
L 248.228391 82.257519 
L 248.727617 82.076039 
L 250.97413 82.074197 
L 251.223743 81.964416 
L 251.473355 81.979057 
L 251.97258 81.692311 
L 253.220643 81.75687 
L 253.470256 81.922784 
L 254.468707 81.725018 
L 255.71677 81.534644 
L 256.71522 81.346926 
L 257.71367 80.874986 
L 258.212896 81.007074 
L 258.462508 80.923333 
L 258.712121 80.984752 
L 259.211346 80.935699 
L 259.460959 81.213171 
L 260.209796 81.235672 
L 260.958634 80.805231 
L 262.45631 81.126125 
L 262.955535 81.358974 
L 263.45476 81.44776 
L 263.953986 81.441577 
L 264.453211 81.459152 
L 264.952436 81.531443 
L 265.451661 81.499943 
L 265.701274 81.398272 
L 265.950886 81.498447 
L 266.450112 81.367805 
L 268.447012 81.402974 
L 268.946238 81.54144 
L 271.691976 81.548772 
L 271.941589 81.651447 
L 272.690427 81.518965 
L 272.940039 81.455652 
L 273.439265 81.718825 
L 273.688877 81.776474 
L 274.188102 81.741613 
L 274.93694 81.981197 
L 276.185003 81.720634 
L 276.684228 81.905284 
L 277.183454 81.809964 
L 277.682679 81.978136 
L 279.429967 82.123552 
L 279.67958 82.25463 
L 280.178805 82.209606 
L 281.177255 82.365786 
L 282.175706 82.03268 
L 283.174156 82.119145 
L 284.422219 82.120383 
L 284.921445 81.888998 
L 285.670282 81.94673 
L 285.919895 81.910861 
L 286.41912 82.123195 
L 286.918345 81.984794 
L 287.417571 81.935826 
L 288.665634 81.445643 
L 289.164859 81.337038 
L 289.664084 81.375948 
L 289.913697 81.548296 
L 291.411372 80.742318 
L 291.910598 80.651358 
L 292.659435 80.474899 
L 292.909048 80.464013 
L 294.157111 79.79485 
L 294.406724 79.817327 
L 295.654787 79.353856 
L 295.904399 79.463524 
L 296.403624 79.265051 
L 297.152462 78.672588 
L 299.149363 78.834942 
L 299.398976 78.628734 
L 299.648588 78.583356 
L 300.147814 78.295528 
L 300.397426 78.28192 
L 300.647039 78.442022 
L 300.896651 78.428568 
L 301.146264 78.191742 
L 302.64394 78.128643 
L 303.143165 77.962476 
L 303.392777 77.998579 
L 303.64239 78.159482 
L 304.141615 77.871472 
L 304.890453 77.714576 
L 305.888903 77.038729 
L 306.388129 76.963993 
L 307.386579 76.566595 
L 307.636192 76.650829 
L 308.634642 76.340581 
L 309.38348 76.109153 
L 309.882705 76.127498 
L 312.628444 75.57999 
L 314.12612 75.316929 
L 315.873408 74.633664 
L 316.12302 74.585296 
L 316.372633 74.661427 
L 317.371083 74.291932 
L 317.870309 73.983673 
L 320.116822 73.823023 
L 320.86566 73.412647 
L 321.86411 73.426407 
L 322.862561 73.521177 
L 324.110624 73.007207 
L 324.859462 72.985646 
L 325.109074 72.893351 
L 326.107525 73.313535 
L 327.854813 72.974913 
L 328.104425 72.895384 
L 328.354038 72.937069 
L 329.102876 72.335689 
L 329.851714 71.74133 
L 330.101326 71.792621 
L 330.350939 71.698636 
L 331.848615 72.072273 
L 332.34784 71.781096 
L 333.595903 71.710065 
L 334.843966 71.985494 
L 335.093578 71.911197 
L 336.591254 72.36948 
L 337.090479 72.665277 
L 337.340092 72.950469 
L 338.08893 73.241071 
L 339.836218 74.322284 
L 340.085831 74.41941 
L 340.834668 75.257618 
L 341.084281 75.224515 
L 342.082731 74.681446 
L 342.831569 74.896087 
L 343.330794 74.757594 
L 343.580407 74.900758 
L 344.578858 74.541823 
L 345.078083 74.266901 
L 345.577308 74.503057 
L 346.326146 74.248171 
L 346.575758 74.075021 
L 346.825371 74.089655 
L 347.074984 73.98501 
L 347.324596 74.016553 
L 347.574209 73.720555 
L 348.822272 73.214858 
L 349.071884 73.136757 
L 349.321497 73.229168 
L 349.820722 73.035852 
L 350.819173 72.837984 
L 351.568011 72.293319 
L 352.067236 72.320375 
L 353.564911 71.103203 
L 354.064137 71.075332 
L 354.313749 71.215324 
L 355.3122 70.810916 
L 355.811425 70.877867 
L 356.061037 70.702104 
L 356.31065 70.681946 
L 356.560263 70.504376 
L 356.809875 70.55321 
L 357.3091 70.382004 
L 358.557163 70.414957 
L 358.806776 70.34088 
L 359.306001 69.996119 
L 359.555614 69.945416 
L 359.805227 69.731196 
L 360.304452 69.830045 
L 360.803677 69.972596 
L 361.05329 69.876885 
L 361.302902 70.000852 
L 362.05174 69.953664 
L 362.301353 70.066388 
L 362.800578 69.908127 
L 363.05019 69.88979 
L 363.549416 70.160697 
L 364.048641 70.016241 
L 365.047091 70.303216 
L 365.546316 70.24328 
L 365.795929 70.270917 
L 366.544767 70.786021 
L 367.293605 70.8031 
L 367.543217 70.880141 
L 367.79283 71.09556 
L 368.042443 71.162481 
L 368.541668 71.103483 
L 370.788181 71.65179 
L 371.786632 71.599038 
L 372.285857 71.738767 
L 372.535469 72.002082 
L 373.034695 72.211854 
L 374.53237 72.934863 
L 374.781983 73.008097 
L 376.529271 74.512075 
L 377.278109 74.794134 
L 377.777334 74.906438 
L 378.026947 74.826793 
L 380.023848 76.055318 
L 380.523073 76.227724 
L 382.519974 77.33568 
L 383.019199 77.897791 
L 383.518424 78.277281 
L 384.017649 78.550967 
L 384.516875 79.178539 
L 386.264163 79.878582 
L 387.761838 80.218486 
L 390.257965 81.554721 
L 390.75719 81.99617 
L 392.254865 82.8 
L 392.254865 82.8 
" style="fill:none;stroke:#1f77b4;stroke-linecap:square;stroke-width:1.5;"/>
   </g>
   <g id="line2d_13">
    <path clip-path="url(#p5dd1519f2f)" d="M 34.56 82.8 
L 414.72 82.8 
" style="fill:none;stroke:#000000;stroke-dasharray:1.5,2.475;stroke-dashoffset:0;stroke-width:1.5;"/>
   </g>
   <g id="patch_3">
    <path d="M 34.56 162 
L 34.56 3.6 
" style="fill:none;stroke:#000000;stroke-linecap:square;stroke-linejoin:miter;stroke-width:0.8;"/>
   </g>
   <g id="patch_4">
    <path d="M 414.72 162 
L 414.72 3.6 
" style="fill:none;stroke:#000000;stroke-linecap:square;stroke-linejoin:miter;stroke-width:0.8;"/>
   </g>
   <g id="patch_5">
    <path d="M 34.56 162 
L 414.72 162 
" style="fill:none;stroke:#000000;stroke-linecap:square;stroke-linejoin:miter;stroke-width:0.8;"/>
   </g>
   <g id="patch_6">
    <path d="M 34.56 3.6 
L 414.72 3.6 
" style="fill:none;stroke:#000000;stroke-linecap:square;stroke-linejoin:miter;stroke-width:0.8;"/>
   </g>
  </g>
 </g>
 <defs>
  <clipPath id="p5dd1519f2f">
   <rect height="158.4" width="380.16" x="34.56" y="3.6"/>
  </clipPath>
 </defs>
</svg>
