<?xml version="1.0" encoding="utf-8" standalone="no"?>
<!DOCTYPE svg PUBLIC "-//W3C//DTD SVG 1.1//EN"
  "http://www.w3.org/Graphics/SVG/1.1/DTD/svg11.dtd">
<svg height="180pt" version="1.1" viewBox="0 0 432 180" width="432pt" xmlns="http://www.w3.org/2000/svg" xmlns:xlink="http://www.w3.org/1999/xlink">
 <metadata>
  <rdf:RDF xmlns:cc="http://creativecommons.org/ns#" xmlns:dc="http://purl.org/dc/elements/1.1/" xmlns:rdf="http://www.w3.org/1999/02/22-rdf-syntax-ns#">
   <cc:Work>
    <dc:type rdf:resource="http://purl.org/dc/dcmitype/StillImage"/>
    <dc:date>2021-08-12T10:43:36.667059</dc:date>
    <dc:format>image/svg+xml</dc:format>
    <dc:creator>
     <cc:Agent>
      <dc:title>Matplotlib v3.4.2, https://matplotlib.org/</dc:title>
     </cc:Agent>
    </dc:creator>
   </cc:Work>
  </rdf:RDF>
 </metadata>
 <defs>
  <style type="text/css">*{stroke-linecap:butt;stroke-linejoin:round;}</style>
 </defs>
 <g id="figure_1">
  <g id="patch_1">
   <path d="M 0 180 
L 432 180 
L 432 0 
L 0 0 
z
" style="fill:#ffffff;"/>
  </g>
  <g id="axes_1">
   <g id="patch_2">
    <path d="M 34.56 162 
L 414.72 162 
L 414.72 3.6 
L 34.56 3.6 
z
" style="fill:#ffffff;"/>
   </g>
   <g id="PolyCollection_1">
    <path clip-path="url(#pa032601c5f)" d="M 63.212146 82.539452 
L 63.212146 83.060548 
L 63.419771 83.32042 
L 63.627395 83.579841 
L 63.835019 83.838813 
L 64.042643 84.097335 
L 64.250268 84.355407 
L 64.457892 84.613029 
L 64.665516 84.870201 
L 64.87314 85.126923 
L 65.080765 85.383195 
L 65.288389 85.639017 
L 65.496013 85.89439 
L 65.703637 86.149312 
L 65.911262 86.403784 
L 66.118886 86.657806 
L 66.32651 86.911378 
L 66.534134 87.1645 
L 66.741759 87.417172 
L 66.949383 87.669394 
L 67.157007 87.921166 
L 67.364631 88.172488 
L 67.572256 88.42336 
L 67.77988 88.673782 
L 67.987504 88.923754 
L 68.195128 89.173276 
L 68.402753 89.422348 
L 68.610377 89.670971 
L 68.818001 89.919143 
L 69.025625 90.166865 
L 69.23325 90.414137 
L 69.440874 90.660959 
L 69.648498 90.907331 
L 69.856122 91.153253 
L 70.063747 91.398725 
L 70.271371 91.643748 
L 70.478995 91.88832 
L 70.686619 92.132442 
L 70.894244 92.376114 
L 71.101868 92.619336 
L 71.309492 92.862108 
L 71.517116 93.10443 
L 71.724741 93.346303 
L 71.932365 93.587725 
L 72.139989 93.828697 
L 72.347613 94.069219 
L 72.555238 94.309291 
L 72.762862 94.548914 
L 72.970486 94.788086 
L 73.17811 95.026808 
L 73.385735 95.26508 
L 73.593359 95.502903 
L 73.800983 95.740275 
L 74.008607 95.977197 
L 74.216232 96.213669 
L 74.423856 96.449691 
L 74.63148 96.685264 
L 74.839104 96.920386 
L 75.046729 97.155058 
L 75.254353 97.389281 
L 75.461977 97.623053 
L 75.669601 97.856375 
L 75.877226 98.089247 
L 76.08485 98.32167 
L 76.292474 98.553642 
L 76.500098 98.785164 
L 76.707723 99.016237 
L 76.915347 99.246859 
L 77.122971 99.477031 
L 77.330595 99.706754 
L 77.53822 99.936026 
L 77.745844 100.164848 
L 77.953468 100.393221 
L 78.161092 100.621143 
L 78.368717 100.848615 
L 78.576341 101.075638 
L 78.783965 101.30221 
L 78.991589 101.528332 
L 79.199214 101.754005 
L 79.406838 101.979227 
L 79.614462 102.203999 
L 79.822086 102.428322 
L 80.029711 102.652194 
L 80.237335 102.875617 
L 80.444959 103.098589 
L 80.652583 103.321111 
L 80.860208 103.543184 
L 81.067832 103.764806 
L 81.275456 103.985979 
L 81.48308 104.206701 
L 81.690705 104.426974 
L 81.898329 104.646796 
L 82.105953 104.866168 
L 82.313577 105.085091 
L 82.521202 105.303563 
L 82.728826 105.521586 
L 82.93645 105.739158 
L 83.144074 105.956281 
L 83.351699 106.172953 
L 83.559323 106.389176 
L 83.766947 106.604948 
L 83.974571 106.820271 
L 84.182196 107.035143 
L 84.38982 107.249566 
L 84.597444 107.463538 
L 84.805068 107.677061 
L 85.012693 107.890133 
L 85.220317 108.102756 
L 85.427941 108.314928 
L 85.635565 108.526651 
L 85.84319 108.737923 
L 86.050814 108.948746 
L 86.258438 109.159118 
L 86.466062 109.369041 
L 86.673687 109.578513 
L 86.881311 109.787536 
L 87.088935 109.996109 
L 87.296559 110.204231 
L 87.504184 110.411904 
L 87.711808 110.619126 
L 87.919432 110.825899 
L 88.127056 111.032222 
L 88.334681 111.238094 
L 88.542305 111.443517 
L 88.749929 111.648489 
L 88.957553 111.853012 
L 89.165177 112.057085 
L 89.372802 112.260707 
L 89.580426 112.46388 
L 89.78805 112.666602 
L 89.995674 112.868875 
L 90.203299 113.070698 
L 90.410923 113.27207 
L 90.618547 113.472993 
L 90.826171 113.673466 
L 91.033796 113.873488 
L 91.24142 114.073061 
L 91.449044 114.272184 
L 91.656668 114.470856 
L 91.864293 114.669079 
L 92.071917 114.866852 
L 92.279541 115.064175 
L 92.487165 115.261047 
L 92.69479 115.45747 
L 92.902414 115.653443 
L 93.110038 115.848965 
L 93.317662 116.044038 
L 93.525287 116.238661 
L 93.732911 116.432834 
L 93.940535 116.626556 
L 94.148159 116.819829 
L 94.355784 117.012652 
L 94.563408 117.205025 
L 94.771032 117.396947 
L 94.978656 117.58842 
L 95.186281 117.779443 
L 95.393905 117.970016 
L 95.601529 118.160138 
L 95.809153 118.349811 
L 96.016778 118.539034 
L 96.224402 118.727807 
L 96.432026 118.91613 
L 96.63965 119.104002 
L 96.847275 119.291425 
L 97.054899 119.478398 
L 97.262523 119.664921 
L 97.470147 119.850994 
L 97.677772 120.036617 
L 97.885396 120.221789 
L 98.09302 120.406512 
L 98.300644 120.590785 
L 98.508269 120.774608 
L 98.715893 120.957981 
L 98.923517 121.140904 
L 99.131141 121.323377 
L 99.338766 121.505399 
L 99.54639 121.686972 
L 99.754014 121.868095 
L 99.961638 122.048768 
L 100.169263 122.228991 
L 100.376887 122.408764 
L 100.584511 122.588087 
L 100.792135 122.76696 
L 100.99976 122.945383 
L 101.207384 123.123356 
L 101.415008 123.300879 
L 101.622632 123.477951 
L 101.830257 123.654574 
L 102.037881 123.830747 
L 102.245505 124.00647 
L 102.453129 124.181743 
L 102.660754 124.356566 
L 102.868378 124.530939 
L 103.076002 124.704862 
L 103.283626 124.878335 
L 103.491251 125.051358 
L 103.698875 125.223931 
L 103.906499 125.396054 
L 104.114123 125.567727 
L 104.321748 125.73895 
L 104.529372 125.909723 
L 104.736996 126.080046 
L 104.94462 126.249919 
L 105.152245 126.419342 
L 105.359869 126.588315 
L 105.567493 126.756838 
L 105.775117 126.924911 
L 105.982742 127.092534 
L 106.190366 127.259707 
L 106.39799 127.42643 
L 106.605614 127.592704 
L 106.813239 127.758527 
L 107.020863 127.9239 
L 107.228487 128.088823 
L 107.436111 128.253296 
L 107.643736 128.417319 
L 107.85136 128.580892 
L 108.058984 128.744015 
L 108.266608 128.906688 
L 108.474233 129.068911 
L 108.681857 129.230684 
L 108.889481 129.392008 
L 109.097105 129.552881 
L 109.30473 129.713304 
L 109.512354 129.873277 
L 109.719978 130.0328 
L 109.927602 130.191873 
L 110.135227 130.350496 
L 110.342851 130.50867 
L 110.550475 130.666393 
L 110.758099 130.823666 
L 110.965724 130.980489 
L 111.173348 131.136862 
L 111.380972 131.292785 
L 111.588596 131.448259 
L 111.796221 131.603282 
L 112.003845 131.757855 
L 112.211469 131.911978 
L 112.419093 132.065651 
L 112.626718 132.218875 
L 112.834342 132.371648 
L 113.041966 132.523971 
L 113.24959 132.675844 
L 113.457215 132.827267 
L 113.664839 132.978241 
L 113.872463 133.128764 
L 114.080087 133.278837 
L 114.287712 133.42846 
L 114.495336 133.577634 
L 114.70296 133.726357 
L 114.910584 133.87463 
L 115.118209 134.022454 
L 115.325833 134.169827 
L 115.533457 134.31675 
L 115.741081 134.463223 
L 115.948706 134.609247 
L 116.15633 134.75482 
L 116.363954 134.899943 
L 116.571578 135.044617 
L 116.779203 135.18884 
L 116.986827 135.332613 
L 117.194451 135.475937 
L 117.402075 135.61881 
L 117.6097 135.761233 
L 117.817324 135.903207 
L 118.024948 136.04473 
L 118.232572 136.185803 
L 118.440197 136.326427 
L 118.647821 136.4666 
L 118.855445 136.606323 
L 119.063069 136.745597 
L 119.270694 136.88442 
L 119.478318 137.022794 
L 119.685942 137.160717 
L 119.893566 137.29819 
L 120.101191 137.435214 
L 120.308815 137.571787 
L 120.516439 137.707911 
L 120.724063 137.843584 
L 120.931688 137.978807 
L 121.139312 138.113581 
L 121.346936 138.247904 
L 121.55456 138.381778 
L 121.762185 138.515201 
L 121.969809 138.648175 
L 122.177433 138.780698 
L 122.385057 138.912772 
L 122.592682 139.044395 
L 122.800306 139.175569 
L 123.00793 139.306292 
L 123.215554 139.436565 
L 123.423179 139.566389 
L 123.630803 139.695762 
L 123.838427 139.824686 
L 124.046051 139.953159 
L 124.253676 140.081183 
L 124.4613 140.208756 
L 124.668924 140.33588 
L 124.876548 140.462553 
L 125.084173 140.588777 
L 125.291797 140.714551 
L 125.499421 140.839874 
L 125.707045 140.964748 
L 125.91467 141.089171 
L 126.122294 141.213145 
L 126.329918 141.336668 
L 126.537542 141.459742 
L 126.745167 141.582365 
L 126.952791 141.704539 
L 127.160415 141.826263 
L 127.368039 141.947536 
L 127.575664 142.06836 
L 127.783288 142.188733 
L 127.990912 142.308657 
L 128.198536 142.428131 
L 128.406161 142.547154 
L 128.613785 142.665728 
L 128.821409 142.783851 
L 129.029033 142.901525 
L 129.236658 143.018749 
L 129.444282 143.135522 
L 129.651906 143.251846 
L 129.85953 143.36772 
L 130.067155 143.483143 
L 130.274779 143.598117 
L 130.482403 143.712641 
L 130.690027 143.826714 
L 130.897652 143.940338 
L 131.105276 144.053512 
L 131.3129 144.166235 
L 131.520524 144.278509 
L 131.728149 144.390333 
L 131.935773 144.501706 
L 132.143397 144.61263 
L 132.351021 144.723104 
L 132.558646 144.833128 
L 132.76627 144.942701 
L 132.973894 145.051825 
L 133.181518 145.160499 
L 133.389143 145.268722 
L 133.596767 145.376496 
L 133.804391 145.48382 
L 134.012015 145.590694 
L 134.012015 20.009306 
L 134.012015 20.009306 
L 133.804391 20.11618 
L 133.596767 20.223504 
L 133.389143 20.331278 
L 133.181518 20.439501 
L 132.973894 20.548175 
L 132.76627 20.657299 
L 132.558646 20.766872 
L 132.351021 20.876896 
L 132.143397 20.98737 
L 131.935773 21.098294 
L 131.728149 21.209667 
L 131.520524 21.321491 
L 131.3129 21.433765 
L 131.105276 21.546488 
L 130.897652 21.659662 
L 130.690027 21.773286 
L 130.482403 21.887359 
L 130.274779 22.001883 
L 130.067155 22.116857 
L 129.85953 22.23228 
L 129.651906 22.348154 
L 129.444282 22.464478 
L 129.236658 22.581251 
L 129.029033 22.698475 
L 128.821409 22.816149 
L 128.613785 22.934272 
L 128.406161 23.052846 
L 128.198536 23.171869 
L 127.990912 23.291343 
L 127.783288 23.411267 
L 127.575664 23.53164 
L 127.368039 23.652464 
L 127.160415 23.773737 
L 126.952791 23.895461 
L 126.745167 24.017635 
L 126.537542 24.140258 
L 126.329918 24.263332 
L 126.122294 24.386855 
L 125.91467 24.510829 
L 125.707045 24.635252 
L 125.499421 24.760126 
L 125.291797 24.885449 
L 125.084173 25.011223 
L 124.876548 25.137447 
L 124.668924 25.26412 
L 124.4613 25.391244 
L 124.253676 25.518817 
L 124.046051 25.646841 
L 123.838427 25.775314 
L 123.630803 25.904238 
L 123.423179 26.033611 
L 123.215554 26.163435 
L 123.00793 26.293708 
L 122.800306 26.424431 
L 122.592682 26.555605 
L 122.385057 26.687228 
L 122.177433 26.819302 
L 121.969809 26.951825 
L 121.762185 27.084799 
L 121.55456 27.218222 
L 121.346936 27.352096 
L 121.139312 27.486419 
L 120.931688 27.621193 
L 120.724063 27.756416 
L 120.516439 27.892089 
L 120.308815 28.028213 
L 120.101191 28.164786 
L 119.893566 28.30181 
L 119.685942 28.439283 
L 119.478318 28.577206 
L 119.270694 28.71558 
L 119.063069 28.854403 
L 118.855445 28.993677 
L 118.647821 29.1334 
L 118.440197 29.273573 
L 118.232572 29.414197 
L 118.024948 29.55527 
L 117.817324 29.696793 
L 117.6097 29.838767 
L 117.402075 29.98119 
L 117.194451 30.124063 
L 116.986827 30.267387 
L 116.779203 30.41116 
L 116.571578 30.555383 
L 116.363954 30.700057 
L 116.15633 30.84518 
L 115.948706 30.990753 
L 115.741081 31.136777 
L 115.533457 31.28325 
L 115.325833 31.430173 
L 115.118209 31.577546 
L 114.910584 31.72537 
L 114.70296 31.873643 
L 114.495336 32.022366 
L 114.287712 32.17154 
L 114.080087 32.321163 
L 113.872463 32.471236 
L 113.664839 32.621759 
L 113.457215 32.772733 
L 113.24959 32.924156 
L 113.041966 33.076029 
L 112.834342 33.228352 
L 112.626718 33.381125 
L 112.419093 33.534349 
L 112.211469 33.688022 
L 112.003845 33.842145 
L 111.796221 33.996718 
L 111.588596 34.151741 
L 111.380972 34.307215 
L 111.173348 34.463138 
L 110.965724 34.619511 
L 110.758099 34.776334 
L 110.550475 34.933607 
L 110.342851 35.09133 
L 110.135227 35.249504 
L 109.927602 35.408127 
L 109.719978 35.5672 
L 109.512354 35.726723 
L 109.30473 35.886696 
L 109.097105 36.047119 
L 108.889481 36.207992 
L 108.681857 36.369316 
L 108.474233 36.531089 
L 108.266608 36.693312 
L 108.058984 36.855985 
L 107.85136 37.019108 
L 107.643736 37.182681 
L 107.436111 37.346704 
L 107.228487 37.511177 
L 107.020863 37.6761 
L 106.813239 37.841473 
L 106.605614 38.007296 
L 106.39799 38.17357 
L 106.190366 38.340293 
L 105.982742 38.507466 
L 105.775117 38.675089 
L 105.567493 38.843162 
L 105.359869 39.011685 
L 105.152245 39.180658 
L 104.94462 39.350081 
L 104.736996 39.519954 
L 104.529372 39.690277 
L 104.321748 39.86105 
L 104.114123 40.032273 
L 103.906499 40.203946 
L 103.698875 40.376069 
L 103.491251 40.548642 
L 103.283626 40.721665 
L 103.076002 40.895138 
L 102.868378 41.069061 
L 102.660754 41.243434 
L 102.453129 41.418257 
L 102.245505 41.59353 
L 102.037881 41.769253 
L 101.830257 41.945426 
L 101.622632 42.122049 
L 101.415008 42.299121 
L 101.207384 42.476644 
L 100.99976 42.654617 
L 100.792135 42.83304 
L 100.584511 43.011913 
L 100.376887 43.191236 
L 100.169263 43.371009 
L 99.961638 43.551232 
L 99.754014 43.731905 
L 99.54639 43.913028 
L 99.338766 44.094601 
L 99.131141 44.276623 
L 98.923517 44.459096 
L 98.715893 44.642019 
L 98.508269 44.825392 
L 98.300644 45.009215 
L 98.09302 45.193488 
L 97.885396 45.378211 
L 97.677772 45.563383 
L 97.470147 45.749006 
L 97.262523 45.935079 
L 97.054899 46.121602 
L 96.847275 46.308575 
L 96.63965 46.495998 
L 96.432026 46.68387 
L 96.224402 46.872193 
L 96.016778 47.060966 
L 95.809153 47.250189 
L 95.601529 47.439862 
L 95.393905 47.629984 
L 95.186281 47.820557 
L 94.978656 48.01158 
L 94.771032 48.203053 
L 94.563408 48.394975 
L 94.355784 48.587348 
L 94.148159 48.780171 
L 93.940535 48.973444 
L 93.732911 49.167166 
L 93.525287 49.361339 
L 93.317662 49.555962 
L 93.110038 49.751035 
L 92.902414 49.946557 
L 92.69479 50.14253 
L 92.487165 50.338953 
L 92.279541 50.535825 
L 92.071917 50.733148 
L 91.864293 50.930921 
L 91.656668 51.129144 
L 91.449044 51.327816 
L 91.24142 51.526939 
L 91.033796 51.726512 
L 90.826171 51.926534 
L 90.618547 52.127007 
L 90.410923 52.32793 
L 90.203299 52.529302 
L 89.995674 52.731125 
L 89.78805 52.933398 
L 89.580426 53.13612 
L 89.372802 53.339293 
L 89.165177 53.542915 
L 88.957553 53.746988 
L 88.749929 53.951511 
L 88.542305 54.156483 
L 88.334681 54.361906 
L 88.127056 54.567778 
L 87.919432 54.774101 
L 87.711808 54.980874 
L 87.504184 55.188096 
L 87.296559 55.395769 
L 87.088935 55.603891 
L 86.881311 55.812464 
L 86.673687 56.021487 
L 86.466062 56.230959 
L 86.258438 56.440882 
L 86.050814 56.651254 
L 85.84319 56.862077 
L 85.635565 57.073349 
L 85.427941 57.285072 
L 85.220317 57.497244 
L 85.012693 57.709867 
L 84.805068 57.922939 
L 84.597444 58.136462 
L 84.38982 58.350434 
L 84.182196 58.564857 
L 83.974571 58.779729 
L 83.766947 58.995052 
L 83.559323 59.210824 
L 83.351699 59.427047 
L 83.144074 59.643719 
L 82.93645 59.860842 
L 82.728826 60.078414 
L 82.521202 60.296437 
L 82.313577 60.514909 
L 82.105953 60.733832 
L 81.898329 60.953204 
L 81.690705 61.173026 
L 81.48308 61.393299 
L 81.275456 61.614021 
L 81.067832 61.835194 
L 80.860208 62.056816 
L 80.652583 62.278889 
L 80.444959 62.501411 
L 80.237335 62.724383 
L 80.029711 62.947806 
L 79.822086 63.171678 
L 79.614462 63.396001 
L 79.406838 63.620773 
L 79.199214 63.845995 
L 78.991589 64.071668 
L 78.783965 64.29779 
L 78.576341 64.524362 
L 78.368717 64.751385 
L 78.161092 64.978857 
L 77.953468 65.206779 
L 77.745844 65.435152 
L 77.53822 65.663974 
L 77.330595 65.893246 
L 77.122971 66.122969 
L 76.915347 66.353141 
L 76.707723 66.583763 
L 76.500098 66.814836 
L 76.292474 67.046358 
L 76.08485 67.27833 
L 75.877226 67.510753 
L 75.669601 67.743625 
L 75.461977 67.976947 
L 75.254353 68.210719 
L 75.046729 68.444942 
L 74.839104 68.679614 
L 74.63148 68.914736 
L 74.423856 69.150309 
L 74.216232 69.386331 
L 74.008607 69.622803 
L 73.800983 69.859725 
L 73.593359 70.097097 
L 73.385735 70.33492 
L 73.17811 70.573192 
L 72.970486 70.811914 
L 72.762862 71.051086 
L 72.555238 71.290709 
L 72.347613 71.530781 
L 72.139989 71.771303 
L 71.932365 72.012275 
L 71.724741 72.253697 
L 71.517116 72.49557 
L 71.309492 72.737892 
L 71.101868 72.980664 
L 70.894244 73.223886 
L 70.686619 73.467558 
L 70.478995 73.71168 
L 70.271371 73.956252 
L 70.063747 74.201275 
L 69.856122 74.446747 
L 69.648498 74.692669 
L 69.440874 74.939041 
L 69.23325 75.185863 
L 69.025625 75.433135 
L 68.818001 75.680857 
L 68.610377 75.929029 
L 68.402753 76.177652 
L 68.195128 76.426724 
L 67.987504 76.676246 
L 67.77988 76.926218 
L 67.572256 77.17664 
L 67.364631 77.427512 
L 67.157007 77.678834 
L 66.949383 77.930606 
L 66.741759 78.182828 
L 66.534134 78.4355 
L 66.32651 78.688622 
L 66.118886 78.942194 
L 65.911262 79.196216 
L 65.703637 79.450688 
L 65.496013 79.70561 
L 65.288389 79.960983 
L 65.080765 80.216805 
L 64.87314 80.473077 
L 64.665516 80.729799 
L 64.457892 80.986971 
L 64.250268 81.244593 
L 64.042643 81.502665 
L 63.835019 81.761187 
L 63.627395 82.020159 
L 63.419771 82.27958 
L 63.212146 82.539452 
z
" style="fill:#0000ff;fill-opacity:0.1;stroke:#0000ff;stroke-opacity:0.1;"/>
    <path clip-path="url(#pa032601c5f)" d="M 134.427264 19.902883 
L 134.427264 145.697117 
L 134.634888 145.803091 
L 134.842512 145.908615 
L 135.050137 146.013689 
L 135.257761 146.118313 
L 135.465385 146.222486 
L 135.673009 146.32621 
L 135.880634 146.429484 
L 136.088258 146.532308 
L 136.295882 146.634682 
L 136.503506 146.736605 
L 136.711131 146.838079 
L 136.918755 146.939103 
L 137.126379 147.039677 
L 137.334003 147.139801 
L 137.541628 147.239475 
L 137.749252 147.338698 
L 137.956876 147.437472 
L 138.1645 147.535796 
L 138.372125 147.63367 
L 138.579749 147.731094 
L 138.787373 147.828068 
L 138.994997 147.924592 
L 139.202622 148.020665 
L 139.410246 148.116289 
L 139.61787 148.211463 
L 139.825494 148.306187 
L 140.033119 148.400461 
L 140.240743 148.494285 
L 140.448367 148.587659 
L 140.655991 148.680583 
L 140.863616 148.773057 
L 141.07124 148.865081 
L 141.278864 148.956654 
L 141.486488 149.047778 
L 141.694113 149.138452 
L 141.901737 149.228676 
L 142.109361 149.31845 
L 142.316985 149.407774 
L 142.52461 149.496648 
L 142.732234 149.585072 
L 142.939858 149.673046 
L 143.147482 149.76057 
L 143.355106 149.847644 
L 143.562731 149.934268 
L 143.770355 150.020442 
L 143.977979 150.106166 
L 144.185603 150.19144 
L 144.393228 150.276264 
L 144.600852 150.360638 
L 144.808476 150.444562 
L 145.0161 150.528036 
L 145.223725 150.61106 
L 145.431349 150.693634 
L 145.638973 150.775758 
L 145.846597 150.857432 
L 146.054222 150.938656 
L 146.261846 151.01943 
L 146.46947 151.099755 
L 146.677094 151.179629 
L 146.884719 151.259053 
L 147.092343 151.338027 
L 147.299967 151.416551 
L 147.507591 151.494625 
L 147.715216 151.572249 
L 147.92284 151.649423 
L 148.130464 151.726147 
L 148.338088 151.802421 
L 148.545713 151.878245 
L 148.753337 151.95362 
L 148.960961 152.028544 
L 149.168585 152.103018 
L 149.37621 152.177042 
L 149.583834 152.250616 
L 149.791458 152.32374 
L 149.999082 152.396414 
L 150.206707 152.468639 
L 150.414331 152.540413 
L 150.621955 152.611737 
L 150.829579 152.682611 
L 151.037204 152.753035 
L 151.244828 152.823009 
L 151.452452 152.892534 
L 151.660076 152.961608 
L 151.867701 153.030232 
L 152.075325 153.098406 
L 152.282949 153.16613 
L 152.490573 153.233405 
L 152.698198 153.300229 
L 152.905822 153.366603 
L 153.113446 153.432527 
L 153.32107 153.498002 
L 153.528695 153.563026 
L 153.736319 153.6276 
L 153.943943 153.691724 
L 154.151567 153.755399 
L 154.359192 153.818623 
L 154.566816 153.881397 
L 154.77444 153.943721 
L 154.982064 154.005596 
L 155.189689 154.06702 
L 155.397313 154.127994 
L 155.604937 154.188519 
L 155.812561 154.248593 
L 156.020186 154.308217 
L 156.22781 154.367391 
L 156.435434 154.426116 
L 156.643058 154.48439 
L 156.850683 154.542214 
L 157.058307 154.599589 
L 157.265931 154.656513 
L 157.473555 154.712987 
L 157.68118 154.769012 
L 157.888804 154.824586 
L 158.096428 154.87971 
L 158.304052 154.934385 
L 158.511677 154.988609 
L 158.719301 155.042384 
L 158.926925 155.095708 
L 159.134549 155.148582 
L 159.342174 155.201007 
L 159.549798 155.252981 
L 159.757422 155.304506 
L 159.965046 155.35558 
L 160.172671 155.406204 
L 160.380295 155.456379 
L 160.587919 155.506103 
L 160.795543 155.555378 
L 161.003168 155.604202 
L 161.210792 155.652576 
L 161.418416 155.700501 
L 161.62604 155.747975 
L 161.833665 155.795 
L 162.041289 155.841574 
L 162.248913 155.887699 
L 162.456537 155.933373 
L 162.664162 155.978598 
L 162.871786 156.023372 
L 163.07941 156.067697 
L 163.287034 156.111571 
L 163.494659 156.154996 
L 163.702283 156.19797 
L 163.909907 156.240495 
L 164.117531 156.282569 
L 164.325156 156.324194 
L 164.53278 156.365368 
L 164.740404 156.406093 
L 164.948028 156.446367 
L 165.155653 156.486192 
L 165.363277 156.525566 
L 165.570901 156.564491 
L 165.778525 156.602965 
L 165.98615 156.64099 
L 166.193774 156.678564 
L 166.401398 156.715689 
L 166.609022 156.752364 
L 166.816647 156.788588 
L 167.024271 156.824363 
L 167.231895 156.859687 
L 167.439519 156.894562 
L 167.647144 156.928987 
L 167.854768 156.962961 
L 168.062392 156.996486 
L 168.270016 157.02956 
L 168.477641 157.062185 
L 168.685265 157.09436 
L 168.892889 157.126084 
L 169.100513 157.157359 
L 169.308138 157.188184 
L 169.515762 157.218558 
L 169.723386 157.248483 
L 169.93101 157.277958 
L 170.138635 157.306982 
L 170.346259 157.335557 
L 170.553883 157.363682 
L 170.761507 157.391356 
L 170.969132 157.418581 
L 171.176756 157.445356 
L 171.38438 157.47168 
L 171.592004 157.497555 
L 171.799629 157.52298 
L 172.007253 157.547954 
L 172.214877 157.572479 
L 172.422501 157.596554 
L 172.630126 157.620179 
L 172.83775 157.643353 
L 173.045374 157.666078 
L 173.252998 157.688353 
L 173.460623 157.710177 
L 173.668247 157.731552 
L 173.875871 157.752477 
L 174.083495 157.772952 
L 174.29112 157.792977 
L 174.498744 157.812551 
L 174.706368 157.831676 
L 174.913992 157.850351 
L 175.121617 157.868576 
L 175.329241 157.88635 
L 175.536865 157.903675 
L 175.744489 157.92055 
L 175.952114 157.936975 
L 176.159738 157.95295 
L 176.367362 157.968474 
L 176.574986 157.983549 
L 176.782611 157.998174 
L 176.990235 158.012349 
L 177.197859 158.026074 
L 177.405483 158.039349 
L 177.613108 158.052173 
L 177.820732 158.064548 
L 178.028356 158.076473 
L 178.23598 158.087948 
L 178.443605 158.098973 
L 178.651229 158.109548 
L 178.858853 158.119673 
L 179.066477 158.129348 
L 179.274102 158.138572 
L 179.481726 158.147347 
L 179.68935 158.155672 
L 179.896974 158.163547 
L 180.104599 158.170972 
L 180.312223 158.177947 
L 180.519847 158.184472 
L 180.727471 158.190547 
L 180.935096 158.196172 
L 181.14272 158.201347 
L 181.350344 158.206072 
L 181.557968 158.210347 
L 181.765593 158.214172 
L 181.973217 158.217547 
L 182.180841 158.220472 
L 182.388465 158.222946 
L 182.59609 158.224971 
L 182.803714 158.226546 
L 183.011338 158.227671 
L 183.218962 158.228346 
L 183.426587 158.228571 
L 183.634211 158.228346 
L 183.841835 158.227671 
L 184.049459 158.226546 
L 184.257084 158.224971 
L 184.464708 158.222946 
L 184.672332 158.220472 
L 184.879956 158.217547 
L 185.087581 158.214172 
L 185.295205 158.210347 
L 185.502829 158.206072 
L 185.710453 158.201347 
L 185.918078 158.196172 
L 186.125702 158.190547 
L 186.333326 158.184472 
L 186.54095 158.177947 
L 186.748575 158.170972 
L 186.956199 158.163547 
L 187.163823 158.155672 
L 187.371447 158.147347 
L 187.579072 158.138572 
L 187.786696 158.129348 
L 187.99432 158.119673 
L 188.201944 158.109548 
L 188.409569 158.098973 
L 188.617193 158.087948 
L 188.824817 158.076473 
L 189.032441 158.064548 
L 189.240066 158.052173 
L 189.44769 158.039349 
L 189.655314 158.026074 
L 189.862938 158.012349 
L 190.070563 157.998174 
L 190.278187 157.983549 
L 190.485811 157.968474 
L 190.693435 157.95295 
L 190.90106 157.936975 
L 191.108684 157.92055 
L 191.316308 157.903675 
L 191.523932 157.88635 
L 191.731557 157.868576 
L 191.939181 157.850351 
L 192.146805 157.831676 
L 192.354429 157.812551 
L 192.562054 157.792977 
L 192.769678 157.772952 
L 192.977302 157.752477 
L 193.184926 157.731552 
L 193.392551 157.710177 
L 193.600175 157.688353 
L 193.807799 157.666078 
L 194.015423 157.643353 
L 194.223048 157.620179 
L 194.430672 157.596554 
L 194.638296 157.572479 
L 194.84592 157.547954 
L 195.053545 157.52298 
L 195.261169 157.497555 
L 195.468793 157.47168 
L 195.676417 157.445356 
L 195.884042 157.418581 
L 196.091666 157.391356 
L 196.29929 157.363682 
L 196.506914 157.335557 
L 196.714539 157.306982 
L 196.922163 157.277958 
L 197.129787 157.248483 
L 197.337411 157.218558 
L 197.545035 157.188184 
L 197.75266 157.157359 
L 197.960284 157.126084 
L 198.167908 157.09436 
L 198.375532 157.062185 
L 198.583157 157.02956 
L 198.790781 156.996486 
L 198.998405 156.962961 
L 199.206029 156.928987 
L 199.413654 156.894562 
L 199.621278 156.859687 
L 199.828902 156.824363 
L 200.036526 156.788588 
L 200.244151 156.752364 
L 200.451775 156.715689 
L 200.659399 156.678564 
L 200.867023 156.64099 
L 201.074648 156.602965 
L 201.282272 156.564491 
L 201.489896 156.525566 
L 201.69752 156.486192 
L 201.905145 156.446367 
L 202.112769 156.406093 
L 202.320393 156.365368 
L 202.528017 156.324194 
L 202.735642 156.282569 
L 202.943266 156.240495 
L 203.15089 156.19797 
L 203.358514 156.154996 
L 203.566139 156.111571 
L 203.773763 156.067697 
L 203.981387 156.023372 
L 204.189011 155.978598 
L 204.396636 155.933373 
L 204.60426 155.887699 
L 204.811884 155.841574 
L 205.019508 155.795 
L 205.227133 155.747975 
L 205.434757 155.700501 
L 205.642381 155.652576 
L 205.850005 155.604202 
L 206.05763 155.555378 
L 206.265254 155.506103 
L 206.472878 155.456379 
L 206.680502 155.406204 
L 206.888127 155.35558 
L 207.095751 155.304506 
L 207.303375 155.252981 
L 207.510999 155.201007 
L 207.718624 155.148582 
L 207.926248 155.095708 
L 208.133872 155.042384 
L 208.341496 154.988609 
L 208.549121 154.934385 
L 208.756745 154.87971 
L 208.756745 10.72029 
L 208.756745 10.72029 
L 208.549121 10.665615 
L 208.341496 10.611391 
L 208.133872 10.557616 
L 207.926248 10.504292 
L 207.718624 10.451418 
L 207.510999 10.398993 
L 207.303375 10.347019 
L 207.095751 10.295494 
L 206.888127 10.24442 
L 206.680502 10.193796 
L 206.472878 10.143621 
L 206.265254 10.093897 
L 206.05763 10.044622 
L 205.850005 9.995798 
L 205.642381 9.947424 
L 205.434757 9.899499 
L 205.227133 9.852025 
L 205.019508 9.805 
L 204.811884 9.758426 
L 204.60426 9.712301 
L 204.396636 9.666627 
L 204.189011 9.621402 
L 203.981387 9.576628 
L 203.773763 9.532303 
L 203.566139 9.488429 
L 203.358514 9.445004 
L 203.15089 9.40203 
L 202.943266 9.359505 
L 202.735642 9.317431 
L 202.528017 9.275806 
L 202.320393 9.234632 
L 202.112769 9.193907 
L 201.905145 9.153633 
L 201.69752 9.113808 
L 201.489896 9.074434 
L 201.282272 9.035509 
L 201.074648 8.997035 
L 200.867023 8.95901 
L 200.659399 8.921436 
L 200.451775 8.884311 
L 200.244151 8.847636 
L 200.036526 8.811412 
L 199.828902 8.775637 
L 199.621278 8.740313 
L 199.413654 8.705438 
L 199.206029 8.671013 
L 198.998405 8.637039 
L 198.790781 8.603514 
L 198.583157 8.57044 
L 198.375532 8.537815 
L 198.167908 8.50564 
L 197.960284 8.473916 
L 197.75266 8.442641 
L 197.545035 8.411816 
L 197.337411 8.381442 
L 197.129787 8.351517 
L 196.922163 8.322042 
L 196.714539 8.293018 
L 196.506914 8.264443 
L 196.29929 8.236318 
L 196.091666 8.208644 
L 195.884042 8.181419 
L 195.676417 8.154644 
L 195.468793 8.12832 
L 195.261169 8.102445 
L 195.053545 8.07702 
L 194.84592 8.052046 
L 194.638296 8.027521 
L 194.430672 8.003446 
L 194.223048 7.979821 
L 194.015423 7.956647 
L 193.807799 7.933922 
L 193.600175 7.911647 
L 193.392551 7.889823 
L 193.184926 7.868448 
L 192.977302 7.847523 
L 192.769678 7.827048 
L 192.562054 7.807023 
L 192.354429 7.787449 
L 192.146805 7.768324 
L 191.939181 7.749649 
L 191.731557 7.731424 
L 191.523932 7.71365 
L 191.316308 7.696325 
L 191.108684 7.67945 
L 190.90106 7.663025 
L 190.693435 7.64705 
L 190.485811 7.631526 
L 190.278187 7.616451 
L 190.070563 7.601826 
L 189.862938 7.587651 
L 189.655314 7.573926 
L 189.44769 7.560651 
L 189.240066 7.547827 
L 189.032441 7.535452 
L 188.824817 7.523527 
L 188.617193 7.512052 
L 188.409569 7.501027 
L 188.201944 7.490452 
L 187.99432 7.480327 
L 187.786696 7.470652 
L 187.579072 7.461428 
L 187.371447 7.452653 
L 187.163823 7.444328 
L 186.956199 7.436453 
L 186.748575 7.429028 
L 186.54095 7.422053 
L 186.333326 7.415528 
L 186.125702 7.409453 
L 185.918078 7.403828 
L 185.710453 7.398653 
L 185.502829 7.393928 
L 185.295205 7.389653 
L 185.087581 7.385828 
L 184.879956 7.382453 
L 184.672332 7.379528 
L 184.464708 7.377054 
L 184.257084 7.375029 
L 184.049459 7.373454 
L 183.841835 7.372329 
L 183.634211 7.371654 
L 183.426587 7.371429 
L 183.218962 7.371654 
L 183.011338 7.372329 
L 182.803714 7.373454 
L 182.59609 7.375029 
L 182.388465 7.377054 
L 182.180841 7.379528 
L 181.973217 7.382453 
L 181.765593 7.385828 
L 181.557968 7.389653 
L 181.350344 7.393928 
L 181.14272 7.398653 
L 180.935096 7.403828 
L 180.727471 7.409453 
L 180.519847 7.415528 
L 180.312223 7.422053 
L 180.104599 7.429028 
L 179.896974 7.436453 
L 179.68935 7.444328 
L 179.481726 7.452653 
L 179.274102 7.461428 
L 179.066477 7.470652 
L 178.858853 7.480327 
L 178.651229 7.490452 
L 178.443605 7.501027 
L 178.23598 7.512052 
L 178.028356 7.523527 
L 177.820732 7.535452 
L 177.613108 7.547827 
L 177.405483 7.560651 
L 177.197859 7.573926 
L 176.990235 7.587651 
L 176.782611 7.601826 
L 176.574986 7.616451 
L 176.367362 7.631526 
L 176.159738 7.64705 
L 175.952114 7.663025 
L 175.744489 7.67945 
L 175.536865 7.696325 
L 175.329241 7.71365 
L 175.121617 7.731424 
L 174.913992 7.749649 
L 174.706368 7.768324 
L 174.498744 7.787449 
L 174.29112 7.807023 
L 174.083495 7.827048 
L 173.875871 7.847523 
L 173.668247 7.868448 
L 173.460623 7.889823 
L 173.252998 7.911647 
L 173.045374 7.933922 
L 172.83775 7.956647 
L 172.630126 7.979821 
L 172.422501 8.003446 
L 172.214877 8.027521 
L 172.007253 8.052046 
L 171.799629 8.07702 
L 171.592004 8.102445 
L 171.38438 8.12832 
L 171.176756 8.154644 
L 170.969132 8.181419 
L 170.761507 8.208644 
L 170.553883 8.236318 
L 170.346259 8.264443 
L 170.138635 8.293018 
L 169.93101 8.322042 
L 169.723386 8.351517 
L 169.515762 8.381442 
L 169.308138 8.411816 
L 169.100513 8.442641 
L 168.892889 8.473916 
L 168.685265 8.50564 
L 168.477641 8.537815 
L 168.270016 8.57044 
L 168.062392 8.603514 
L 167.854768 8.637039 
L 167.647144 8.671013 
L 167.439519 8.705438 
L 167.231895 8.740313 
L 167.024271 8.775637 
L 166.816647 8.811412 
L 166.609022 8.847636 
L 166.401398 8.884311 
L 166.193774 8.921436 
L 165.98615 8.95901 
L 165.778525 8.997035 
L 165.570901 9.035509 
L 165.363277 9.074434 
L 165.155653 9.113808 
L 164.948028 9.153633 
L 164.740404 9.193907 
L 164.53278 9.234632 
L 164.325156 9.275806 
L 164.117531 9.317431 
L 163.909907 9.359505 
L 163.702283 9.40203 
L 163.494659 9.445004 
L 163.287034 9.488429 
L 163.07941 9.532303 
L 162.871786 9.576628 
L 162.664162 9.621402 
L 162.456537 9.666627 
L 162.248913 9.712301 
L 162.041289 9.758426 
L 161.833665 9.805 
L 161.62604 9.852025 
L 161.418416 9.899499 
L 161.210792 9.947424 
L 161.003168 9.995798 
L 160.795543 10.044622 
L 160.587919 10.093897 
L 160.380295 10.143621 
L 160.172671 10.193796 
L 159.965046 10.24442 
L 159.757422 10.295494 
L 159.549798 10.347019 
L 159.342174 10.398993 
L 159.134549 10.451418 
L 158.926925 10.504292 
L 158.719301 10.557616 
L 158.511677 10.611391 
L 158.304052 10.665615 
L 158.096428 10.72029 
L 157.888804 10.775414 
L 157.68118 10.830988 
L 157.473555 10.887013 
L 157.265931 10.943487 
L 157.058307 11.000411 
L 156.850683 11.057786 
L 156.643058 11.11561 
L 156.435434 11.173884 
L 156.22781 11.232609 
L 156.020186 11.291783 
L 155.812561 11.351407 
L 155.604937 11.411481 
L 155.397313 11.472006 
L 155.189689 11.53298 
L 154.982064 11.594404 
L 154.77444 11.656279 
L 154.566816 11.718603 
L 154.359192 11.781377 
L 154.151567 11.844601 
L 153.943943 11.908276 
L 153.736319 11.9724 
L 153.528695 12.036974 
L 153.32107 12.101998 
L 153.113446 12.167473 
L 152.905822 12.233397 
L 152.698198 12.299771 
L 152.490573 12.366595 
L 152.282949 12.43387 
L 152.075325 12.501594 
L 151.867701 12.569768 
L 151.660076 12.638392 
L 151.452452 12.707466 
L 151.244828 12.776991 
L 151.037204 12.846965 
L 150.829579 12.917389 
L 150.621955 12.988263 
L 150.414331 13.059587 
L 150.206707 13.131361 
L 149.999082 13.203586 
L 149.791458 13.27626 
L 149.583834 13.349384 
L 149.37621 13.422958 
L 149.168585 13.496982 
L 148.960961 13.571456 
L 148.753337 13.64638 
L 148.545713 13.721755 
L 148.338088 13.797579 
L 148.130464 13.873853 
L 147.92284 13.950577 
L 147.715216 14.027751 
L 147.507591 14.105375 
L 147.299967 14.183449 
L 147.092343 14.261973 
L 146.884719 14.340947 
L 146.677094 14.420371 
L 146.46947 14.500245 
L 146.261846 14.58057 
L 146.054222 14.661344 
L 145.846597 14.742568 
L 145.638973 14.824242 
L 145.431349 14.906366 
L 145.223725 14.98894 
L 145.0161 15.071964 
L 144.808476 15.155438 
L 144.600852 15.239362 
L 144.393228 15.323736 
L 144.185603 15.40856 
L 143.977979 15.493834 
L 143.770355 15.579558 
L 143.562731 15.665732 
L 143.355106 15.752356 
L 143.147482 15.83943 
L 142.939858 15.926954 
L 142.732234 16.014928 
L 142.52461 16.103352 
L 142.316985 16.192226 
L 142.109361 16.28155 
L 141.901737 16.371324 
L 141.694113 16.461548 
L 141.486488 16.552222 
L 141.278864 16.643346 
L 141.07124 16.734919 
L 140.863616 16.826943 
L 140.655991 16.919417 
L 140.448367 17.012341 
L 140.240743 17.105715 
L 140.033119 17.199539 
L 139.825494 17.293813 
L 139.61787 17.388537 
L 139.410246 17.483711 
L 139.202622 17.579335 
L 138.994997 17.675408 
L 138.787373 17.771932 
L 138.579749 17.868906 
L 138.372125 17.96633 
L 138.1645 18.064204 
L 137.956876 18.162528 
L 137.749252 18.261302 
L 137.541628 18.360525 
L 137.334003 18.460199 
L 137.126379 18.560323 
L 136.918755 18.660897 
L 136.711131 18.761921 
L 136.503506 18.863395 
L 136.295882 18.965318 
L 136.088258 19.067692 
L 135.880634 19.170516 
L 135.673009 19.27379 
L 135.465385 19.377514 
L 135.257761 19.481687 
L 135.050137 19.586311 
L 134.842512 19.691385 
L 134.634888 19.796909 
L 134.427264 19.902883 
z
" style="fill:#0000ff;fill-opacity:0.1;stroke:#0000ff;stroke-opacity:0.1;"/>
    <path clip-path="url(#pa032601c5f)" d="M 209.171993 10.775414 
L 209.171993 154.824586 
L 209.379618 154.769012 
L 209.587242 154.712987 
L 209.794866 154.656513 
L 210.00249 154.599589 
L 210.210115 154.542214 
L 210.417739 154.48439 
L 210.625363 154.426116 
L 210.832987 154.367391 
L 211.040612 154.308217 
L 211.248236 154.248593 
L 211.45586 154.188519 
L 211.663484 154.127994 
L 211.871109 154.06702 
L 212.078733 154.005596 
L 212.286357 153.943721 
L 212.493981 153.881397 
L 212.701606 153.818623 
L 212.90923 153.755399 
L 213.116854 153.691724 
L 213.324478 153.6276 
L 213.532103 153.563026 
L 213.739727 153.498002 
L 213.947351 153.432527 
L 214.154975 153.366603 
L 214.3626 153.300229 
L 214.570224 153.233405 
L 214.777848 153.16613 
L 214.985472 153.098406 
L 215.193097 153.030232 
L 215.400721 152.961608 
L 215.608345 152.892534 
L 215.815969 152.823009 
L 216.023594 152.753035 
L 216.231218 152.682611 
L 216.438842 152.611737 
L 216.646466 152.540413 
L 216.854091 152.468639 
L 217.061715 152.396414 
L 217.269339 152.32374 
L 217.476963 152.250616 
L 217.684588 152.177042 
L 217.892212 152.103018 
L 218.099836 152.028544 
L 218.30746 151.95362 
L 218.515085 151.878245 
L 218.722709 151.802421 
L 218.930333 151.726147 
L 219.137957 151.649423 
L 219.345582 151.572249 
L 219.553206 151.494625 
L 219.76083 151.416551 
L 219.968454 151.338027 
L 220.176079 151.259053 
L 220.383703 151.179629 
L 220.591327 151.099755 
L 220.798951 151.01943 
L 221.006576 150.938656 
L 221.2142 150.857432 
L 221.421824 150.775758 
L 221.629448 150.693634 
L 221.837073 150.61106 
L 222.044697 150.528036 
L 222.044697 15.071964 
L 222.044697 15.071964 
L 221.837073 14.98894 
L 221.629448 14.906366 
L 221.421824 14.824242 
L 221.2142 14.742568 
L 221.006576 14.661344 
L 220.798951 14.58057 
L 220.591327 14.500245 
L 220.383703 14.420371 
L 220.176079 14.340947 
L 219.968454 14.261973 
L 219.76083 14.183449 
L 219.553206 14.105375 
L 219.345582 14.027751 
L 219.137957 13.950577 
L 218.930333 13.873853 
L 218.722709 13.797579 
L 218.515085 13.721755 
L 218.30746 13.64638 
L 218.099836 13.571456 
L 217.892212 13.496982 
L 217.684588 13.422958 
L 217.476963 13.349384 
L 217.269339 13.27626 
L 217.061715 13.203586 
L 216.854091 13.131361 
L 216.646466 13.059587 
L 216.438842 12.988263 
L 216.231218 12.917389 
L 216.023594 12.846965 
L 215.815969 12.776991 
L 215.608345 12.707466 
L 215.400721 12.638392 
L 215.193097 12.569768 
L 214.985472 12.501594 
L 214.777848 12.43387 
L 214.570224 12.366595 
L 214.3626 12.299771 
L 214.154975 12.233397 
L 213.947351 12.167473 
L 213.739727 12.101998 
L 213.532103 12.036974 
L 213.324478 11.9724 
L 213.116854 11.908276 
L 212.90923 11.844601 
L 212.701606 11.781377 
L 212.493981 11.718603 
L 212.286357 11.656279 
L 212.078733 11.594404 
L 211.871109 11.53298 
L 211.663484 11.472006 
L 211.45586 11.411481 
L 211.248236 11.351407 
L 211.040612 11.291783 
L 210.832987 11.232609 
L 210.625363 11.173884 
L 210.417739 11.11561 
L 210.210115 11.057786 
L 210.00249 11.000411 
L 209.794866 10.943487 
L 209.587242 10.887013 
L 209.379618 10.830988 
L 209.171993 10.775414 
z
" style="fill:#0000ff;fill-opacity:0.1;stroke:#0000ff;stroke-opacity:0.1;"/>
    <path clip-path="url(#pa032601c5f)" d="M 222.875194 15.155438 
L 222.875194 150.444562 
L 223.082818 150.360638 
L 223.290442 150.276264 
L 223.498067 150.19144 
L 223.705691 150.106166 
L 223.913315 150.020442 
L 224.120939 149.934268 
L 224.328564 149.847644 
L 224.536188 149.76057 
L 224.536188 15.83943 
L 224.536188 15.83943 
L 224.328564 15.752356 
L 224.120939 15.665732 
L 223.913315 15.579558 
L 223.705691 15.493834 
L 223.498067 15.40856 
L 223.290442 15.323736 
L 223.082818 15.239362 
L 222.875194 15.155438 
z
" style="fill:#0000ff;fill-opacity:0.1;stroke:#0000ff;stroke-opacity:0.1;"/>
    <path clip-path="url(#pa032601c5f)" d="M 224.951436 15.926954 
L 224.951436 149.673046 
L 224.951436 15.926954 
L 224.951436 15.926954 
z
" style="fill:#0000ff;fill-opacity:0.1;stroke:#0000ff;stroke-opacity:0.1;"/>
    <path clip-path="url(#pa032601c5f)" d="M 230.97254 16.014928 
L 230.97254 149.585072 
L 231.180164 149.496648 
L 231.387788 149.407774 
L 231.595412 149.31845 
L 231.803037 149.228676 
L 232.010661 149.138452 
L 232.218285 149.047778 
L 232.425909 148.956654 
L 232.633534 148.865081 
L 232.841158 148.773057 
L 233.048782 148.680583 
L 233.256406 148.587659 
L 233.464031 148.494285 
L 233.671655 148.400461 
L 233.879279 148.306187 
L 234.086903 148.211463 
L 234.294528 148.116289 
L 234.502152 148.020665 
L 234.709776 147.924592 
L 234.9174 147.828068 
L 235.125025 147.731094 
L 235.332649 147.63367 
L 235.540273 147.535796 
L 235.747897 147.437472 
L 235.955522 147.338698 
L 236.163146 147.239475 
L 236.37077 147.139801 
L 236.578394 147.039677 
L 236.786019 146.939103 
L 236.993643 146.838079 
L 237.201267 146.736605 
L 237.408891 146.634682 
L 237.616516 146.532308 
L 237.82414 146.429484 
L 238.031764 146.32621 
L 238.239388 146.222486 
L 238.447013 146.118313 
L 238.654637 146.013689 
L 238.862261 145.908615 
L 239.069885 145.803091 
L 239.27751 145.697117 
L 239.485134 145.590694 
L 239.692758 145.48382 
L 239.900382 145.376496 
L 240.108007 145.268722 
L 240.315631 145.160499 
L 240.523255 145.051825 
L 240.730879 144.942701 
L 240.938504 144.833128 
L 241.146128 144.723104 
L 241.353752 144.61263 
L 241.561376 144.501706 
L 241.769001 144.390333 
L 241.976625 144.278509 
L 242.184249 144.166235 
L 242.391873 144.053512 
L 242.599498 143.940338 
L 242.807122 143.826714 
L 243.014746 143.712641 
L 243.22237 143.598117 
L 243.429995 143.483143 
L 243.637619 143.36772 
L 243.845243 143.251846 
L 244.052867 143.135522 
L 244.260492 143.018749 
L 244.468116 142.901525 
L 244.67574 142.783851 
L 244.883364 142.665728 
L 245.090989 142.547154 
L 245.298613 142.428131 
L 245.506237 142.308657 
L 245.713861 142.188733 
L 245.921486 142.06836 
L 246.12911 141.947536 
L 246.336734 141.826263 
L 246.544358 141.704539 
L 246.751983 141.582365 
L 246.959607 141.459742 
L 247.167231 141.336668 
L 247.374855 141.213145 
L 247.58248 141.089171 
L 247.790104 140.964748 
L 247.997728 140.839874 
L 248.205352 140.714551 
L 248.412977 140.588777 
L 248.620601 140.462553 
L 248.828225 140.33588 
L 249.035849 140.208756 
L 249.243474 140.081183 
L 249.451098 139.953159 
L 249.658722 139.824686 
L 249.866346 139.695762 
L 250.073971 139.566389 
L 250.281595 139.436565 
L 250.489219 139.306292 
L 250.696843 139.175569 
L 250.904468 139.044395 
L 251.112092 138.912772 
L 251.319716 138.780698 
L 251.52734 138.648175 
L 251.734965 138.515201 
L 251.942589 138.381778 
L 252.150213 138.247904 
L 252.357837 138.113581 
L 252.357837 27.486419 
L 252.357837 27.486419 
L 252.150213 27.352096 
L 251.942589 27.218222 
L 251.734965 27.084799 
L 251.52734 26.951825 
L 251.319716 26.819302 
L 251.112092 26.687228 
L 250.904468 26.555605 
L 250.696843 26.424431 
L 250.489219 26.293708 
L 250.281595 26.163435 
L 250.073971 26.033611 
L 249.866346 25.904238 
L 249.658722 25.775314 
L 249.451098 25.646841 
L 249.243474 25.518817 
L 249.035849 25.391244 
L 248.828225 25.26412 
L 248.620601 25.137447 
L 248.412977 25.011223 
L 248.205352 24.885449 
L 247.997728 24.760126 
L 247.790104 24.635252 
L 247.58248 24.510829 
L 247.374855 24.386855 
L 247.167231 24.263332 
L 246.959607 24.140258 
L 246.751983 24.017635 
L 246.544358 23.895461 
L 246.336734 23.773737 
L 246.12911 23.652464 
L 245.921486 23.53164 
L 245.713861 23.411267 
L 245.506237 23.291343 
L 245.298613 23.171869 
L 245.090989 23.052846 
L 244.883364 22.934272 
L 244.67574 22.816149 
L 244.468116 22.698475 
L 244.260492 22.581251 
L 244.052867 22.464478 
L 243.845243 22.348154 
L 243.637619 22.23228 
L 243.429995 22.116857 
L 243.22237 22.001883 
L 243.014746 21.887359 
L 242.807122 21.773286 
L 242.599498 21.659662 
L 242.391873 21.546488 
L 242.184249 21.433765 
L 241.976625 21.321491 
L 241.769001 21.209667 
L 241.561376 21.098294 
L 241.353752 20.98737 
L 241.146128 20.876896 
L 240.938504 20.766872 
L 240.730879 20.657299 
L 240.523255 20.548175 
L 240.315631 20.439501 
L 240.108007 20.331278 
L 239.900382 20.223504 
L 239.692758 20.11618 
L 239.485134 20.009306 
L 239.27751 19.902883 
L 239.069885 19.796909 
L 238.862261 19.691385 
L 238.654637 19.586311 
L 238.447013 19.481687 
L 238.239388 19.377514 
L 238.031764 19.27379 
L 237.82414 19.170516 
L 237.616516 19.067692 
L 237.408891 18.965318 
L 237.201267 18.863395 
L 236.993643 18.761921 
L 236.786019 18.660897 
L 236.578394 18.560323 
L 236.37077 18.460199 
L 236.163146 18.360525 
L 235.955522 18.261302 
L 235.747897 18.162528 
L 235.540273 18.064204 
L 235.332649 17.96633 
L 235.125025 17.868906 
L 234.9174 17.771932 
L 234.709776 17.675408 
L 234.502152 17.579335 
L 234.294528 17.483711 
L 234.086903 17.388537 
L 233.879279 17.293813 
L 233.671655 17.199539 
L 233.464031 17.105715 
L 233.256406 17.012341 
L 233.048782 16.919417 
L 232.841158 16.826943 
L 232.633534 16.734919 
L 232.425909 16.643346 
L 232.218285 16.552222 
L 232.010661 16.461548 
L 231.803037 16.371324 
L 231.595412 16.28155 
L 231.387788 16.192226 
L 231.180164 16.103352 
L 230.97254 16.014928 
z
" style="fill:#0000ff;fill-opacity:0.1;stroke:#0000ff;stroke-opacity:0.1;"/>
    <path clip-path="url(#pa032601c5f)" d="M 294.297936 27.621193 
L 294.297936 137.978807 
L 294.50556 137.843584 
L 294.713184 137.707911 
L 294.920808 137.571787 
L 295.128433 137.435214 
L 295.336057 137.29819 
L 295.543681 137.160717 
L 295.751305 137.022794 
L 295.95893 136.88442 
L 296.166554 136.745597 
L 296.374178 136.606323 
L 296.581802 136.4666 
L 296.789427 136.326427 
L 296.997051 136.185803 
L 297.204675 136.04473 
L 297.412299 135.903207 
L 297.619924 135.761233 
L 297.827548 135.61881 
L 298.035172 135.475937 
L 298.242796 135.332613 
L 298.450421 135.18884 
L 298.658045 135.044617 
L 298.865669 134.899943 
L 298.865669 30.700057 
L 298.865669 30.700057 
L 298.658045 30.555383 
L 298.450421 30.41116 
L 298.242796 30.267387 
L 298.035172 30.124063 
L 297.827548 29.98119 
L 297.619924 29.838767 
L 297.412299 29.696793 
L 297.204675 29.55527 
L 296.997051 29.414197 
L 296.789427 29.273573 
L 296.581802 29.1334 
L 296.374178 28.993677 
L 296.166554 28.854403 
L 295.95893 28.71558 
L 295.751305 28.577206 
L 295.543681 28.439283 
L 295.336057 28.30181 
L 295.128433 28.164786 
L 294.920808 28.028213 
L 294.713184 27.892089 
L 294.50556 27.756416 
L 294.297936 27.621193 
z
" style="fill:#0000ff;fill-opacity:0.1;stroke:#0000ff;stroke-opacity:0.1;"/>
    <path clip-path="url(#pa032601c5f)" d="M 299.280918 30.84518 
L 299.280918 134.75482 
L 299.488542 134.609247 
L 299.696166 134.463223 
L 299.90379 134.31675 
L 300.111415 134.169827 
L 300.319039 134.022454 
L 300.526663 133.87463 
L 300.734287 133.726357 
L 300.941912 133.577634 
L 301.149536 133.42846 
L 301.35716 133.278837 
L 301.564784 133.128764 
L 301.772409 132.978241 
L 301.980033 132.827267 
L 301.980033 32.772733 
L 301.980033 32.772733 
L 301.772409 32.621759 
L 301.564784 32.471236 
L 301.35716 32.321163 
L 301.149536 32.17154 
L 300.941912 32.022366 
L 300.734287 31.873643 
L 300.526663 31.72537 
L 300.319039 31.577546 
L 300.111415 31.430173 
L 299.90379 31.28325 
L 299.696166 31.136777 
L 299.488542 30.990753 
L 299.280918 30.84518 
z
" style="fill:#0000ff;fill-opacity:0.1;stroke:#0000ff;stroke-opacity:0.1;"/>
    <path clip-path="url(#pa032601c5f)" d="M 302.395281 32.924156 
L 302.395281 132.675844 
L 302.602906 132.523971 
L 302.81053 132.371648 
L 303.018154 132.218875 
L 303.225778 132.065651 
L 303.433403 131.911978 
L 303.433403 33.688022 
L 303.433403 33.688022 
L 303.225778 33.534349 
L 303.018154 33.381125 
L 302.81053 33.228352 
L 302.602906 33.076029 
L 302.395281 32.924156 
z
" style="fill:#0000ff;fill-opacity:0.1;stroke:#0000ff;stroke-opacity:0.1;"/>
    <path clip-path="url(#pa032601c5f)" d="M 303.848651 33.842145 
L 303.848651 131.757855 
L 304.056275 131.603282 
L 304.2639 131.448259 
L 304.471524 131.292785 
L 304.471524 34.307215 
L 304.471524 34.307215 
L 304.2639 34.151741 
L 304.056275 33.996718 
L 303.848651 33.842145 
z
" style="fill:#0000ff;fill-opacity:0.1;stroke:#0000ff;stroke-opacity:0.1;"/>
    <path clip-path="url(#pa032601c5f)" d="M 304.886772 34.463138 
L 304.886772 131.136862 
L 305.094397 130.980489 
L 305.302021 130.823666 
L 305.509645 130.666393 
L 305.717269 130.50867 
L 305.924894 130.350496 
L 306.132518 130.191873 
L 306.340142 130.0328 
L 306.547766 129.873277 
L 306.75539 129.713304 
L 306.963015 129.552881 
L 306.963015 36.047119 
L 306.963015 36.047119 
L 306.75539 35.886696 
L 306.547766 35.726723 
L 306.340142 35.5672 
L 306.132518 35.408127 
L 305.924894 35.249504 
L 305.717269 35.09133 
L 305.509645 34.933607 
L 305.302021 34.776334 
L 305.094397 34.619511 
L 304.886772 34.463138 
z
" style="fill:#0000ff;fill-opacity:0.1;stroke:#0000ff;stroke-opacity:0.1;"/>
    <path clip-path="url(#pa032601c5f)" d="M 307.378263 36.207992 
L 307.378263 129.392008 
L 307.585887 129.230684 
L 307.793512 129.068911 
L 307.793512 36.531089 
L 307.793512 36.531089 
L 307.585887 36.369316 
L 307.378263 36.207992 
z
" style="fill:#0000ff;fill-opacity:0.1;stroke:#0000ff;stroke-opacity:0.1;"/>
    <path clip-path="url(#pa032601c5f)" d="M 308.20876 36.693312 
L 308.20876 128.906688 
L 308.416384 128.744015 
L 308.624009 128.580892 
L 308.831633 128.417319 
L 309.039257 128.253296 
L 309.246881 128.088823 
L 309.454506 127.9239 
L 309.66213 127.758527 
L 309.869754 127.592704 
L 309.869754 38.007296 
L 309.869754 38.007296 
L 309.66213 37.841473 
L 309.454506 37.6761 
L 309.246881 37.511177 
L 309.039257 37.346704 
L 308.831633 37.182681 
L 308.624009 37.019108 
L 308.416384 36.855985 
L 308.20876 36.693312 
z
" style="fill:#0000ff;fill-opacity:0.1;stroke:#0000ff;stroke-opacity:0.1;"/>
    <path clip-path="url(#pa032601c5f)" d="M 310.285003 38.17357 
L 310.285003 127.42643 
L 310.492627 127.259707 
L 310.492627 38.340293 
L 310.492627 38.340293 
L 310.285003 38.17357 
z
" style="fill:#0000ff;fill-opacity:0.1;stroke:#0000ff;stroke-opacity:0.1;"/>
    <path clip-path="url(#pa032601c5f)" d="M 310.907875 38.507466 
L 310.907875 127.092534 
L 311.1155 126.924911 
L 311.323124 126.756838 
L 311.530748 126.588315 
L 311.738372 126.419342 
L 311.945997 126.249919 
L 312.153621 126.080046 
L 312.153621 39.519954 
L 312.153621 39.519954 
L 311.945997 39.350081 
L 311.738372 39.180658 
L 311.530748 39.011685 
L 311.323124 38.843162 
L 311.1155 38.675089 
L 310.907875 38.507466 
z
" style="fill:#0000ff;fill-opacity:0.1;stroke:#0000ff;stroke-opacity:0.1;"/>
    <path clip-path="url(#pa032601c5f)" d="M 312.984118 39.690277 
L 312.984118 125.909723 
L 313.191742 125.73895 
L 313.399366 125.567727 
L 313.399366 40.032273 
L 313.399366 40.032273 
L 313.191742 39.86105 
L 312.984118 39.690277 
z
" style="fill:#0000ff;fill-opacity:0.1;stroke:#0000ff;stroke-opacity:0.1;"/>
    <path clip-path="url(#pa032601c5f)" d="M 313.814615 40.203946 
L 313.814615 125.396054 
L 314.022239 125.223931 
L 314.229863 125.051358 
L 314.437488 124.878335 
L 314.645112 124.704862 
L 314.852736 124.530939 
L 315.06036 124.356566 
L 315.06036 41.243434 
L 315.06036 41.243434 
L 314.852736 41.069061 
L 314.645112 40.895138 
L 314.437488 40.721665 
L 314.229863 40.548642 
L 314.022239 40.376069 
L 313.814615 40.203946 
z
" style="fill:#0000ff;fill-opacity:0.1;stroke:#0000ff;stroke-opacity:0.1;"/>
    <path clip-path="url(#pa032601c5f)" d="M 315.475609 41.418257 
L 315.475609 124.181743 
L 315.475609 41.418257 
L 315.475609 41.418257 
z
" style="fill:#0000ff;fill-opacity:0.1;stroke:#0000ff;stroke-opacity:0.1;"/>
    <path clip-path="url(#pa032601c5f)" d="M 315.890857 41.59353 
L 315.890857 124.00647 
L 316.098482 123.830747 
L 316.306106 123.654574 
L 316.306106 41.945426 
L 316.306106 41.945426 
L 316.098482 41.769253 
L 315.890857 41.59353 
z
" style="fill:#0000ff;fill-opacity:0.1;stroke:#0000ff;stroke-opacity:0.1;"/>
    <path clip-path="url(#pa032601c5f)" d="M 316.721354 42.122049 
L 316.721354 123.477951 
L 316.928979 123.300879 
L 316.928979 42.299121 
L 316.928979 42.299121 
L 316.721354 42.122049 
z
" style="fill:#0000ff;fill-opacity:0.1;stroke:#0000ff;stroke-opacity:0.1;"/>
    <path clip-path="url(#pa032601c5f)" d="M 317.344227 42.476644 
L 317.344227 123.123356 
L 317.551851 122.945383 
L 317.759476 122.76696 
L 317.9671 122.588087 
L 318.174724 122.408764 
L 318.382348 122.228991 
L 318.382348 43.371009 
L 318.382348 43.371009 
L 318.174724 43.191236 
L 317.9671 43.011913 
L 317.759476 42.83304 
L 317.551851 42.654617 
L 317.344227 42.476644 
z
" style="fill:#0000ff;fill-opacity:0.1;stroke:#0000ff;stroke-opacity:0.1;"/>
    <path clip-path="url(#pa032601c5f)" d="M 318.797597 43.551232 
L 318.797597 122.048768 
L 319.005221 121.868095 
L 319.212845 121.686972 
L 319.42047 121.505399 
L 319.628094 121.323377 
L 319.835718 121.140904 
L 320.043342 120.957981 
L 320.250967 120.774608 
L 320.250967 44.825392 
L 320.250967 44.825392 
L 320.043342 44.642019 
L 319.835718 44.459096 
L 319.628094 44.276623 
L 319.42047 44.094601 
L 319.212845 43.913028 
L 319.005221 43.731905 
L 318.797597 43.551232 
z
" style="fill:#0000ff;fill-opacity:0.1;stroke:#0000ff;stroke-opacity:0.1;"/>
    <path clip-path="url(#pa032601c5f)" d="M 320.666215 45.009215 
L 320.666215 120.590785 
L 320.666215 45.009215 
L 320.666215 45.009215 
z
" style="fill:#0000ff;fill-opacity:0.1;stroke:#0000ff;stroke-opacity:0.1;"/>
    <path clip-path="url(#pa032601c5f)" d="M 321.289088 45.193488 
L 321.289088 120.406512 
L 321.496712 120.221789 
L 321.704336 120.036617 
L 321.911961 119.850994 
L 322.119585 119.664921 
L 322.327209 119.478398 
L 322.534833 119.291425 
L 322.742458 119.104002 
L 322.950082 118.91613 
L 323.157706 118.727807 
L 323.157706 46.872193 
L 323.157706 46.872193 
L 322.950082 46.68387 
L 322.742458 46.495998 
L 322.534833 46.308575 
L 322.327209 46.121602 
L 322.119585 45.935079 
L 321.911961 45.749006 
L 321.704336 45.563383 
L 321.496712 45.378211 
L 321.289088 45.193488 
z
" style="fill:#0000ff;fill-opacity:0.1;stroke:#0000ff;stroke-opacity:0.1;"/>
    <path clip-path="url(#pa032601c5f)" d="M 323.572955 47.060966 
L 323.572955 118.539034 
L 323.572955 47.060966 
L 323.572955 47.060966 
z
" style="fill:#0000ff;fill-opacity:0.1;stroke:#0000ff;stroke-opacity:0.1;"/>
    <path clip-path="url(#pa032601c5f)" d="M 323.988203 47.250189 
L 323.988203 118.349811 
L 324.195827 118.160138 
L 324.403452 117.970016 
L 324.611076 117.779443 
L 324.8187 117.58842 
L 325.026324 117.396947 
L 325.233949 117.205025 
L 325.441573 117.012652 
L 325.649197 116.819829 
L 325.649197 48.780171 
L 325.649197 48.780171 
L 325.441573 48.587348 
L 325.233949 48.394975 
L 325.026324 48.203053 
L 324.8187 48.01158 
L 324.611076 47.820557 
L 324.403452 47.629984 
L 324.195827 47.439862 
L 323.988203 47.250189 
z
" style="fill:#0000ff;fill-opacity:0.1;stroke:#0000ff;stroke-opacity:0.1;"/>
    <path clip-path="url(#pa032601c5f)" d="M 326.27207 48.973444 
L 326.27207 116.626556 
L 326.479694 116.432834 
L 326.687318 116.238661 
L 326.894943 116.044038 
L 327.102567 115.848965 
L 327.102567 49.751035 
L 327.102567 49.751035 
L 326.894943 49.555962 
L 326.687318 49.361339 
L 326.479694 49.167166 
L 326.27207 48.973444 
z
" style="fill:#0000ff;fill-opacity:0.1;stroke:#0000ff;stroke-opacity:0.1;"/>
    <path clip-path="url(#pa032601c5f)" d="M 327.517815 49.946557 
L 327.517815 115.653443 
L 327.72544 115.45747 
L 327.933064 115.261047 
L 328.140688 115.064175 
L 328.348312 114.866852 
L 328.555937 114.669079 
L 328.763561 114.470856 
L 328.971185 114.272184 
L 329.178809 114.073061 
L 329.386434 113.873488 
L 329.386434 51.726512 
L 329.386434 51.726512 
L 329.178809 51.526939 
L 328.971185 51.327816 
L 328.763561 51.129144 
L 328.555937 50.930921 
L 328.348312 50.733148 
L 328.140688 50.535825 
L 327.933064 50.338953 
L 327.72544 50.14253 
L 327.517815 49.946557 
z
" style="fill:#0000ff;fill-opacity:0.1;stroke:#0000ff;stroke-opacity:0.1;"/>
    <path clip-path="url(#pa032601c5f)" d="M 330.009306 51.926534 
L 330.009306 113.673466 
L 330.009306 51.926534 
L 330.009306 51.926534 
z
" style="fill:#0000ff;fill-opacity:0.1;stroke:#0000ff;stroke-opacity:0.1;"/>
    <path clip-path="url(#pa032601c5f)" d="M 330.424555 52.127007 
L 330.424555 113.472993 
L 330.632179 113.27207 
L 330.839803 113.070698 
L 331.047428 112.868875 
L 331.255052 112.666602 
L 331.462676 112.46388 
L 331.6703 112.260707 
L 331.877925 112.057085 
L 332.085549 111.853012 
L 332.085549 53.746988 
L 332.085549 53.746988 
L 331.877925 53.542915 
L 331.6703 53.339293 
L 331.462676 53.13612 
L 331.255052 52.933398 
L 331.047428 52.731125 
L 330.839803 52.529302 
L 330.632179 52.32793 
L 330.424555 52.127007 
z
" style="fill:#0000ff;fill-opacity:0.1;stroke:#0000ff;stroke-opacity:0.1;"/>
    <path clip-path="url(#pa032601c5f)" d="M 332.500797 53.951511 
L 332.500797 111.648489 
L 332.500797 53.951511 
L 332.500797 53.951511 
z
" style="fill:#0000ff;fill-opacity:0.1;stroke:#0000ff;stroke-opacity:0.1;"/>
    <path clip-path="url(#pa032601c5f)" d="M 333.12367 54.156483 
L 333.12367 111.443517 
L 333.331294 111.238094 
L 333.538919 111.032222 
L 333.746543 110.825899 
L 333.954167 110.619126 
L 334.161791 110.411904 
L 334.369416 110.204231 
L 334.369416 55.395769 
L 334.369416 55.395769 
L 334.161791 55.188096 
L 333.954167 54.980874 
L 333.746543 54.774101 
L 333.538919 54.567778 
L 333.331294 54.361906 
L 333.12367 54.156483 
z
" style="fill:#0000ff;fill-opacity:0.1;stroke:#0000ff;stroke-opacity:0.1;"/>
    <path clip-path="url(#pa032601c5f)" d="M 334.992288 55.603891 
L 334.992288 109.996109 
L 335.199913 109.787536 
L 335.407537 109.578513 
L 335.407537 56.021487 
L 335.407537 56.021487 
L 335.199913 55.812464 
L 334.992288 55.603891 
z
" style="fill:#0000ff;fill-opacity:0.1;stroke:#0000ff;stroke-opacity:0.1;"/>
    <path clip-path="url(#pa032601c5f)" d="M 335.822785 56.230959 
L 335.822785 109.369041 
L 336.03041 109.159118 
L 336.238034 108.948746 
L 336.445658 108.737923 
L 336.653282 108.526651 
L 336.860907 108.314928 
L 337.068531 108.102756 
L 337.276155 107.890133 
L 337.483779 107.677061 
L 337.691404 107.463538 
L 337.899028 107.249566 
L 338.106652 107.035143 
L 338.314276 106.820271 
L 338.521901 106.604948 
L 338.729525 106.389176 
L 338.937149 106.172953 
L 338.937149 59.427047 
L 338.937149 59.427047 
L 338.729525 59.210824 
L 338.521901 58.995052 
L 338.314276 58.779729 
L 338.106652 58.564857 
L 337.899028 58.350434 
L 337.691404 58.136462 
L 337.483779 57.922939 
L 337.276155 57.709867 
L 337.068531 57.497244 
L 336.860907 57.285072 
L 336.653282 57.073349 
L 336.445658 56.862077 
L 336.238034 56.651254 
L 336.03041 56.440882 
L 335.822785 56.230959 
z
" style="fill:#0000ff;fill-opacity:0.1;stroke:#0000ff;stroke-opacity:0.1;"/>
    <path clip-path="url(#pa032601c5f)" d="M 339.352398 59.643719 
L 339.352398 105.956281 
L 339.352398 59.643719 
L 339.352398 59.643719 
z
" style="fill:#0000ff;fill-opacity:0.1;stroke:#0000ff;stroke-opacity:0.1;"/>
    <path clip-path="url(#pa032601c5f)" d="M 368.212168 59.860842 
L 368.212168 105.739158 
L 368.212168 59.860842 
L 368.212168 59.860842 
z
" style="fill:#0000ff;fill-opacity:0.1;stroke:#0000ff;stroke-opacity:0.1;"/>
    <path clip-path="url(#pa032601c5f)" d="M 368.627417 60.078414 
L 368.627417 105.521586 
L 368.627417 60.078414 
L 368.627417 60.078414 
z
" style="fill:#0000ff;fill-opacity:0.1;stroke:#0000ff;stroke-opacity:0.1;"/>
    <path clip-path="url(#pa032601c5f)" d="M 369.042665 60.296437 
L 369.042665 105.303563 
L 369.250289 105.085091 
L 369.457914 104.866168 
L 369.665538 104.646796 
L 369.665538 60.953204 
L 369.665538 60.953204 
L 369.457914 60.733832 
L 369.250289 60.514909 
L 369.042665 60.296437 
z
" style="fill:#0000ff;fill-opacity:0.1;stroke:#0000ff;stroke-opacity:0.1;"/>
    <path clip-path="url(#pa032601c5f)" d="M 370.288411 61.173026 
L 370.288411 104.426974 
L 370.496035 104.206701 
L 370.703659 103.985979 
L 370.703659 61.614021 
L 370.703659 61.614021 
L 370.496035 61.393299 
L 370.288411 61.173026 
z
" style="fill:#0000ff;fill-opacity:0.1;stroke:#0000ff;stroke-opacity:0.1;"/>
    <path clip-path="url(#pa032601c5f)" d="M 371.118908 61.835194 
L 371.118908 103.764806 
L 371.118908 61.835194 
L 371.118908 61.835194 
z
" style="fill:#0000ff;fill-opacity:0.1;stroke:#0000ff;stroke-opacity:0.1;"/>
    <path clip-path="url(#pa032601c5f)" d="M 371.534156 62.056816 
L 371.534156 103.543184 
L 371.74178 103.321111 
L 371.949405 103.098589 
L 371.949405 62.501411 
L 371.949405 62.501411 
L 371.74178 62.278889 
L 371.534156 62.056816 
z
" style="fill:#0000ff;fill-opacity:0.1;stroke:#0000ff;stroke-opacity:0.1;"/>
    <path clip-path="url(#pa032601c5f)" d="M 374.025647 62.724383 
L 374.025647 102.875617 
L 374.233271 102.652194 
L 374.440896 102.428322 
L 374.440896 63.171678 
L 374.440896 63.171678 
L 374.233271 62.947806 
L 374.025647 62.724383 
z
" style="fill:#0000ff;fill-opacity:0.1;stroke:#0000ff;stroke-opacity:0.1;"/>
    <path clip-path="url(#pa032601c5f)" d="M 374.856144 63.396001 
L 374.856144 102.203999 
L 375.063768 101.979227 
L 375.271393 101.754005 
L 375.479017 101.528332 
L 375.686641 101.30221 
L 375.686641 64.29779 
L 375.686641 64.29779 
L 375.479017 64.071668 
L 375.271393 63.845995 
L 375.063768 63.620773 
L 374.856144 63.396001 
z
" style="fill:#0000ff;fill-opacity:0.1;stroke:#0000ff;stroke-opacity:0.1;"/>
    <path clip-path="url(#pa032601c5f)" d="M 376.932387 64.524362 
L 376.932387 101.075638 
L 376.932387 64.524362 
L 376.932387 64.524362 
z
" style="fill:#0000ff;fill-opacity:0.1;stroke:#0000ff;stroke-opacity:0.1;"/>
    <path clip-path="url(#pa032601c5f)" d="M 377.555259 64.751385 
L 377.555259 100.848615 
L 377.762884 100.621143 
L 377.970508 100.393221 
L 377.970508 65.206779 
L 377.970508 65.206779 
L 377.762884 64.978857 
L 377.555259 64.751385 
z
" style="fill:#0000ff;fill-opacity:0.1;stroke:#0000ff;stroke-opacity:0.1;"/>
    <path clip-path="url(#pa032601c5f)" d="M 378.385756 65.435152 
L 378.385756 100.164848 
L 378.593381 99.936026 
L 378.801005 99.706754 
L 379.008629 99.477031 
L 379.216253 99.246859 
L 379.423878 99.016237 
L 379.631502 98.785164 
L 379.839126 98.553642 
L 380.04675 98.32167 
L 380.254375 98.089247 
L 380.461999 97.856375 
L 380.669623 97.623053 
L 380.877247 97.389281 
L 381.084872 97.155058 
L 381.292496 96.920386 
L 381.292496 68.679614 
L 381.292496 68.679614 
L 381.084872 68.444942 
L 380.877247 68.210719 
L 380.669623 67.976947 
L 380.461999 67.743625 
L 380.254375 67.510753 
L 380.04675 67.27833 
L 379.839126 67.046358 
L 379.631502 66.814836 
L 379.423878 66.583763 
L 379.216253 66.353141 
L 379.008629 66.122969 
L 378.801005 65.893246 
L 378.593381 65.663974 
L 378.385756 65.435152 
z
" style="fill:#0000ff;fill-opacity:0.1;stroke:#0000ff;stroke-opacity:0.1;"/>
    <path clip-path="url(#pa032601c5f)" d="M 381.707744 68.914736 
L 381.707744 96.685264 
L 381.707744 68.914736 
L 381.707744 68.914736 
z
" style="fill:#0000ff;fill-opacity:0.1;stroke:#0000ff;stroke-opacity:0.1;"/>
    <path clip-path="url(#pa032601c5f)" d="M 384.199235 69.150309 
L 384.199235 96.449691 
L 384.40686 96.213669 
L 384.614484 95.977197 
L 384.614484 69.622803 
L 384.614484 69.622803 
L 384.40686 69.386331 
L 384.199235 69.150309 
z
" style="fill:#0000ff;fill-opacity:0.1;stroke:#0000ff;stroke-opacity:0.1;"/>
    <path clip-path="url(#pa032601c5f)" d="M 385.029732 69.859725 
L 385.029732 95.740275 
L 385.237357 95.502903 
L 385.444981 95.26508 
L 385.652605 95.026808 
L 385.860229 94.788086 
L 386.067854 94.548914 
L 386.275478 94.309291 
L 386.483102 94.069219 
L 386.690726 93.828697 
L 386.898351 93.587725 
L 387.105975 93.346303 
L 387.313599 93.10443 
L 387.521223 92.862108 
L 387.728848 92.619336 
L 387.936472 92.376114 
L 388.144096 92.132442 
L 388.35172 91.88832 
L 388.559345 91.643748 
L 388.766969 91.398725 
L 388.974593 91.153253 
L 389.182217 90.907331 
L 389.389842 90.660959 
L 389.597466 90.414137 
L 389.80509 90.166865 
L 390.012714 89.919143 
L 390.220339 89.670971 
L 390.427963 89.422348 
L 390.635587 89.173276 
L 390.843211 88.923754 
L 391.050836 88.673782 
L 391.25846 88.42336 
L 391.25846 77.17664 
L 391.25846 77.17664 
L 391.050836 76.926218 
L 390.843211 76.676246 
L 390.635587 76.426724 
L 390.427963 76.177652 
L 390.220339 75.929029 
L 390.012714 75.680857 
L 389.80509 75.433135 
L 389.597466 75.185863 
L 389.389842 74.939041 
L 389.182217 74.692669 
L 388.974593 74.446747 
L 388.766969 74.201275 
L 388.559345 73.956252 
L 388.35172 73.71168 
L 388.144096 73.467558 
L 387.936472 73.223886 
L 387.728848 72.980664 
L 387.521223 72.737892 
L 387.313599 72.49557 
L 387.105975 72.253697 
L 386.898351 72.012275 
L 386.690726 71.771303 
L 386.483102 71.530781 
L 386.275478 71.290709 
L 386.067854 71.051086 
L 385.860229 70.811914 
L 385.652605 70.573192 
L 385.444981 70.33492 
L 385.237357 70.097097 
L 385.029732 69.859725 
z
" style="fill:#0000ff;fill-opacity:0.1;stroke:#0000ff;stroke-opacity:0.1;"/>
    <path clip-path="url(#pa032601c5f)" d="M 391.673708 77.427512 
L 391.673708 88.172488 
L 391.881333 87.921166 
L 392.088957 87.669394 
L 392.296581 87.417172 
L 392.504205 87.1645 
L 392.71183 86.911378 
L 392.919454 86.657806 
L 393.127078 86.403784 
L 393.334702 86.149312 
L 393.542327 85.89439 
L 393.749951 85.639017 
L 393.957575 85.383195 
L 394.165199 85.126923 
L 394.372824 84.870201 
L 394.580448 84.613029 
L 394.788072 84.355407 
L 394.995696 84.097335 
L 395.203321 83.838813 
L 395.203321 81.761187 
L 395.203321 81.761187 
L 394.995696 81.502665 
L 394.788072 81.244593 
L 394.580448 80.986971 
L 394.372824 80.729799 
L 394.165199 80.473077 
L 393.957575 80.216805 
L 393.749951 79.960983 
L 393.542327 79.70561 
L 393.334702 79.450688 
L 393.127078 79.196216 
L 392.919454 78.942194 
L 392.71183 78.688622 
L 392.504205 78.4355 
L 392.296581 78.182828 
L 392.088957 77.930606 
L 391.881333 77.678834 
L 391.673708 77.427512 
z
" style="fill:#0000ff;fill-opacity:0.1;stroke:#0000ff;stroke-opacity:0.1;"/>
    <path clip-path="url(#pa032601c5f)" d="M 395.618569 82.020159 
L 395.618569 83.579841 
L 395.826193 83.32042 
L 396.033818 83.060548 
L 396.033818 82.539452 
L 396.033818 82.539452 
L 395.826193 82.27958 
L 395.618569 82.020159 
z
" style="fill:#0000ff;fill-opacity:0.1;stroke:#0000ff;stroke-opacity:0.1;"/>
   </g>
   <g id="matplotlib.axis_1">
    <g id="xtick_1">
     <g id="line2d_1">
      <defs>
       <path d="M 0 0 
L 0 3.5 
" id="m520ef5e4e1" style="stroke:#000000;stroke-width:0.8;"/>
      </defs>
      <g>
       <use style="stroke:#000000;stroke-width:0.8;" x="50.650879" xlink:href="#m520ef5e4e1" y="162"/>
      </g>
     </g>
     <g id="text_1">
      <!-- 1880 -->
      <g transform="translate(37.925879 176.598438)scale(0.1 -0.1)">
       <defs>
        <path d="M 794 531 
L 1825 531 
L 1825 4091 
L 703 3866 
L 703 4441 
L 1819 4666 
L 2450 4666 
L 2450 531 
L 3481 531 
L 3481 0 
L 794 0 
L 794 531 
z
" id="DejaVuSans-31" transform="scale(0.015625)"/>
        <path d="M 2034 2216 
Q 1584 2216 1326 1975 
Q 1069 1734 1069 1313 
Q 1069 891 1326 650 
Q 1584 409 2034 409 
Q 2484 409 2743 651 
Q 3003 894 3003 1313 
Q 3003 1734 2745 1975 
Q 2488 2216 2034 2216 
z
M 1403 2484 
Q 997 2584 770 2862 
Q 544 3141 544 3541 
Q 544 4100 942 4425 
Q 1341 4750 2034 4750 
Q 2731 4750 3128 4425 
Q 3525 4100 3525 3541 
Q 3525 3141 3298 2862 
Q 3072 2584 2669 2484 
Q 3125 2378 3379 2068 
Q 3634 1759 3634 1313 
Q 3634 634 3220 271 
Q 2806 -91 2034 -91 
Q 1263 -91 848 271 
Q 434 634 434 1313 
Q 434 1759 690 2068 
Q 947 2378 1403 2484 
z
M 1172 3481 
Q 1172 3119 1398 2916 
Q 1625 2713 2034 2713 
Q 2441 2713 2670 2916 
Q 2900 3119 2900 3481 
Q 2900 3844 2670 4047 
Q 2441 4250 2034 4250 
Q 1625 4250 1398 4047 
Q 1172 3844 1172 3481 
z
" id="DejaVuSans-38" transform="scale(0.015625)"/>
        <path d="M 2034 4250 
Q 1547 4250 1301 3770 
Q 1056 3291 1056 2328 
Q 1056 1369 1301 889 
Q 1547 409 2034 409 
Q 2525 409 2770 889 
Q 3016 1369 3016 2328 
Q 3016 3291 2770 3770 
Q 2525 4250 2034 4250 
z
M 2034 4750 
Q 2819 4750 3233 4129 
Q 3647 3509 3647 2328 
Q 3647 1150 3233 529 
Q 2819 -91 2034 -91 
Q 1250 -91 836 529 
Q 422 1150 422 2328 
Q 422 3509 836 4129 
Q 1250 4750 2034 4750 
z
" id="DejaVuSans-30" transform="scale(0.015625)"/>
       </defs>
       <use xlink:href="#DejaVuSans-31"/>
       <use x="63.623047" xlink:href="#DejaVuSans-38"/>
       <use x="127.246094" xlink:href="#DejaVuSans-38"/>
       <use x="190.869141" xlink:href="#DejaVuSans-30"/>
      </g>
     </g>
    </g>
    <g id="xtick_2">
     <g id="line2d_2">
      <g>
       <use style="stroke:#000000;stroke-width:0.8;" x="100.480699" xlink:href="#m520ef5e4e1" y="162"/>
      </g>
     </g>
     <g id="text_2">
      <!-- 1900 -->
      <g transform="translate(87.755699 176.598438)scale(0.1 -0.1)">
       <defs>
        <path d="M 703 97 
L 703 672 
Q 941 559 1184 500 
Q 1428 441 1663 441 
Q 2288 441 2617 861 
Q 2947 1281 2994 2138 
Q 2813 1869 2534 1725 
Q 2256 1581 1919 1581 
Q 1219 1581 811 2004 
Q 403 2428 403 3163 
Q 403 3881 828 4315 
Q 1253 4750 1959 4750 
Q 2769 4750 3195 4129 
Q 3622 3509 3622 2328 
Q 3622 1225 3098 567 
Q 2575 -91 1691 -91 
Q 1453 -91 1209 -44 
Q 966 3 703 97 
z
M 1959 2075 
Q 2384 2075 2632 2365 
Q 2881 2656 2881 3163 
Q 2881 3666 2632 3958 
Q 2384 4250 1959 4250 
Q 1534 4250 1286 3958 
Q 1038 3666 1038 3163 
Q 1038 2656 1286 2365 
Q 1534 2075 1959 2075 
z
" id="DejaVuSans-39" transform="scale(0.015625)"/>
       </defs>
       <use xlink:href="#DejaVuSans-31"/>
       <use x="63.623047" xlink:href="#DejaVuSans-39"/>
       <use x="127.246094" xlink:href="#DejaVuSans-30"/>
       <use x="190.869141" xlink:href="#DejaVuSans-30"/>
      </g>
     </g>
    </g>
    <g id="xtick_3">
     <g id="line2d_3">
      <g>
       <use style="stroke:#000000;stroke-width:0.8;" x="150.310519" xlink:href="#m520ef5e4e1" y="162"/>
      </g>
     </g>
     <g id="text_3">
      <!-- 1920 -->
      <g transform="translate(137.585519 176.598438)scale(0.1 -0.1)">
       <defs>
        <path d="M 1228 531 
L 3431 531 
L 3431 0 
L 469 0 
L 469 531 
Q 828 903 1448 1529 
Q 2069 2156 2228 2338 
Q 2531 2678 2651 2914 
Q 2772 3150 2772 3378 
Q 2772 3750 2511 3984 
Q 2250 4219 1831 4219 
Q 1534 4219 1204 4116 
Q 875 4013 500 3803 
L 500 4441 
Q 881 4594 1212 4672 
Q 1544 4750 1819 4750 
Q 2544 4750 2975 4387 
Q 3406 4025 3406 3419 
Q 3406 3131 3298 2873 
Q 3191 2616 2906 2266 
Q 2828 2175 2409 1742 
Q 1991 1309 1228 531 
z
" id="DejaVuSans-32" transform="scale(0.015625)"/>
       </defs>
       <use xlink:href="#DejaVuSans-31"/>
       <use x="63.623047" xlink:href="#DejaVuSans-39"/>
       <use x="127.246094" xlink:href="#DejaVuSans-32"/>
       <use x="190.869141" xlink:href="#DejaVuSans-30"/>
      </g>
     </g>
    </g>
    <g id="xtick_4">
     <g id="line2d_4">
      <g>
       <use style="stroke:#000000;stroke-width:0.8;" x="200.140339" xlink:href="#m520ef5e4e1" y="162"/>
      </g>
     </g>
     <g id="text_4">
      <!-- 1940 -->
      <g transform="translate(187.415339 176.598438)scale(0.1 -0.1)">
       <defs>
        <path d="M 2419 4116 
L 825 1625 
L 2419 1625 
L 2419 4116 
z
M 2253 4666 
L 3047 4666 
L 3047 1625 
L 3713 1625 
L 3713 1100 
L 3047 1100 
L 3047 0 
L 2419 0 
L 2419 1100 
L 313 1100 
L 313 1709 
L 2253 4666 
z
" id="DejaVuSans-34" transform="scale(0.015625)"/>
       </defs>
       <use xlink:href="#DejaVuSans-31"/>
       <use x="63.623047" xlink:href="#DejaVuSans-39"/>
       <use x="127.246094" xlink:href="#DejaVuSans-34"/>
       <use x="190.869141" xlink:href="#DejaVuSans-30"/>
      </g>
     </g>
    </g>
    <g id="xtick_5">
     <g id="line2d_5">
      <g>
       <use style="stroke:#000000;stroke-width:0.8;" x="249.970158" xlink:href="#m520ef5e4e1" y="162"/>
      </g>
     </g>
     <g id="text_5">
      <!-- 1960 -->
      <g transform="translate(237.245158 176.598438)scale(0.1 -0.1)">
       <defs>
        <path d="M 2113 2584 
Q 1688 2584 1439 2293 
Q 1191 2003 1191 1497 
Q 1191 994 1439 701 
Q 1688 409 2113 409 
Q 2538 409 2786 701 
Q 3034 994 3034 1497 
Q 3034 2003 2786 2293 
Q 2538 2584 2113 2584 
z
M 3366 4563 
L 3366 3988 
Q 3128 4100 2886 4159 
Q 2644 4219 2406 4219 
Q 1781 4219 1451 3797 
Q 1122 3375 1075 2522 
Q 1259 2794 1537 2939 
Q 1816 3084 2150 3084 
Q 2853 3084 3261 2657 
Q 3669 2231 3669 1497 
Q 3669 778 3244 343 
Q 2819 -91 2113 -91 
Q 1303 -91 875 529 
Q 447 1150 447 2328 
Q 447 3434 972 4092 
Q 1497 4750 2381 4750 
Q 2619 4750 2861 4703 
Q 3103 4656 3366 4563 
z
" id="DejaVuSans-36" transform="scale(0.015625)"/>
       </defs>
       <use xlink:href="#DejaVuSans-31"/>
       <use x="63.623047" xlink:href="#DejaVuSans-39"/>
       <use x="127.246094" xlink:href="#DejaVuSans-36"/>
       <use x="190.869141" xlink:href="#DejaVuSans-30"/>
      </g>
     </g>
    </g>
    <g id="xtick_6">
     <g id="line2d_6">
      <g>
       <use style="stroke:#000000;stroke-width:0.8;" x="299.799978" xlink:href="#m520ef5e4e1" y="162"/>
      </g>
     </g>
     <g id="text_6">
      <!-- 1980 -->
      <g transform="translate(287.074978 176.598438)scale(0.1 -0.1)">
       <use xlink:href="#DejaVuSans-31"/>
       <use x="63.623047" xlink:href="#DejaVuSans-39"/>
       <use x="127.246094" xlink:href="#DejaVuSans-38"/>
       <use x="190.869141" xlink:href="#DejaVuSans-30"/>
      </g>
     </g>
    </g>
    <g id="xtick_7">
     <g id="line2d_7">
      <g>
       <use style="stroke:#000000;stroke-width:0.8;" x="349.629798" xlink:href="#m520ef5e4e1" y="162"/>
      </g>
     </g>
     <g id="text_7">
      <!-- 2000 -->
      <g transform="translate(336.904798 176.598438)scale(0.1 -0.1)">
       <use xlink:href="#DejaVuSans-32"/>
       <use x="63.623047" xlink:href="#DejaVuSans-30"/>
       <use x="127.246094" xlink:href="#DejaVuSans-30"/>
       <use x="190.869141" xlink:href="#DejaVuSans-30"/>
      </g>
     </g>
    </g>
    <g id="xtick_8">
     <g id="line2d_8">
      <g>
       <use style="stroke:#000000;stroke-width:0.8;" x="399.459618" xlink:href="#m520ef5e4e1" y="162"/>
      </g>
     </g>
     <g id="text_8">
      <!-- 2020 -->
      <g transform="translate(386.734618 176.598438)scale(0.1 -0.1)">
       <use xlink:href="#DejaVuSans-32"/>
       <use x="63.623047" xlink:href="#DejaVuSans-30"/>
       <use x="127.246094" xlink:href="#DejaVuSans-32"/>
       <use x="190.869141" xlink:href="#DejaVuSans-30"/>
      </g>
     </g>
    </g>
   </g>
   <g id="matplotlib.axis_2">
    <g id="ytick_1">
     <g id="line2d_9">
      <defs>
       <path d="M 0 0 
L -3.5 0 
" id="m553f710fc9" style="stroke:#000000;stroke-width:0.8;"/>
      </defs>
      <g>
       <use style="stroke:#000000;stroke-width:0.8;" x="34.56" xlink:href="#m553f710fc9" y="143.598641"/>
      </g>
     </g>
     <g id="text_9">
      <!-- 100 -->
      <g transform="translate(0.092813 147.39786)scale(0.1 -0.1)">
       <defs>
        <path d="M 678 2272 
L 4684 2272 
L 4684 1741 
L 678 1741 
L 678 2272 
z
" id="DejaVuSans-2212" transform="scale(0.015625)"/>
       </defs>
       <use xlink:href="#DejaVuSans-2212"/>
       <use x="83.789062" xlink:href="#DejaVuSans-31"/>
       <use x="147.412109" xlink:href="#DejaVuSans-30"/>
       <use x="211.035156" xlink:href="#DejaVuSans-30"/>
      </g>
     </g>
    </g>
    <g id="ytick_2">
     <g id="line2d_10">
      <g>
       <use style="stroke:#000000;stroke-width:0.8;" x="34.56" xlink:href="#m553f710fc9" y="113.199321"/>
      </g>
     </g>
     <g id="text_10">
      <!-- 50 -->
      <g transform="translate(6.455313 116.998539)scale(0.1 -0.1)">
       <defs>
        <path d="M 691 4666 
L 3169 4666 
L 3169 4134 
L 1269 4134 
L 1269 2991 
Q 1406 3038 1543 3061 
Q 1681 3084 1819 3084 
Q 2600 3084 3056 2656 
Q 3513 2228 3513 1497 
Q 3513 744 3044 326 
Q 2575 -91 1722 -91 
Q 1428 -91 1123 -41 
Q 819 9 494 109 
L 494 744 
Q 775 591 1075 516 
Q 1375 441 1709 441 
Q 2250 441 2565 725 
Q 2881 1009 2881 1497 
Q 2881 1984 2565 2268 
Q 2250 2553 1709 2553 
Q 1456 2553 1204 2497 
Q 953 2441 691 2322 
L 691 4666 
z
" id="DejaVuSans-35" transform="scale(0.015625)"/>
       </defs>
       <use xlink:href="#DejaVuSans-2212"/>
       <use x="83.789062" xlink:href="#DejaVuSans-35"/>
       <use x="147.412109" xlink:href="#DejaVuSans-30"/>
      </g>
     </g>
    </g>
    <g id="ytick_3">
     <g id="line2d_11">
      <g>
       <use style="stroke:#000000;stroke-width:0.8;" x="34.56" xlink:href="#m553f710fc9" y="82.8"/>
      </g>
     </g>
     <g id="text_11">
      <!-- 0 -->
      <g transform="translate(21.1975 86.599219)scale(0.1 -0.1)">
       <use xlink:href="#DejaVuSans-30"/>
      </g>
     </g>
    </g>
    <g id="ytick_4">
     <g id="line2d_12">
      <g>
       <use style="stroke:#000000;stroke-width:0.8;" x="34.56" xlink:href="#m553f710fc9" y="52.400679"/>
      </g>
     </g>
     <g id="text_12">
      <!-- 50 -->
      <g transform="translate(14.835 56.199898)scale(0.1 -0.1)">
       <use xlink:href="#DejaVuSans-35"/>
       <use x="63.623047" xlink:href="#DejaVuSans-30"/>
      </g>
     </g>
    </g>
    <g id="ytick_5">
     <g id="line2d_13">
      <g>
       <use style="stroke:#000000;stroke-width:0.8;" x="34.56" xlink:href="#m553f710fc9" y="22.001359"/>
      </g>
     </g>
     <g id="text_13">
      <!-- 100 -->
      <g transform="translate(8.4725 25.800577)scale(0.1 -0.1)">
       <use xlink:href="#DejaVuSans-31"/>
       <use x="63.623047" xlink:href="#DejaVuSans-30"/>
       <use x="127.246094" xlink:href="#DejaVuSans-30"/>
      </g>
     </g>
    </g>
   </g>
   <g id="line2d_14">
    <path clip-path="url(#pa032601c5f)" d="M 63.212146 82.183404 
L 63.835019 80.774671 
L 64.042643 80.774671 
L 64.250268 81.005706 
L 64.87314 80.203164 
L 65.080765 80.434198 
L 65.288389 80.118044 
L 65.496013 79.473579 
L 65.703637 79.282573 
L 65.911262 78.569129 
L 66.118886 78.888339 
L 66.32651 78.785819 
L 66.534134 77.691443 
L 66.741759 77.800881 
L 66.949383 77.752242 
L 67.157007 77.934638 
L 67.364631 77.667124 
L 67.572256 78.202152 
L 67.77988 77.642805 
L 68.195128 77.780111 
L 68.402753 78.161043 
L 68.610377 77.872266 
L 69.025625 77.891344 
L 69.440874 76.857767 
L 69.648498 77.526552 
L 69.856122 76.772649 
L 70.271371 76.079545 
L 70.686619 76.946434 
L 70.894244 76.780178 
L 71.517116 78.030446 
L 71.932365 77.908848 
L 72.139989 77.300861 
L 72.347613 77.945327 
L 72.555238 77.568376 
L 72.762862 78.346598 
L 72.970486 77.82373 
L 73.17811 77.815119 
L 73.385735 78.317649 
L 73.593359 78.150469 
L 73.800983 78.169546 
L 74.008607 78.899129 
L 74.216232 79.069365 
L 74.423856 80.054304 
L 74.63148 80.175901 
L 74.839104 80.698769 
L 75.046729 80.625811 
L 75.877226 82.545879 
L 76.08485 82.591394 
L 76.292474 82.8 
L 76.500098 84.892804 
L 76.707723 84.745141 
L 77.122971 86.550848 
L 77.330595 86.432438 
L 78.161092 91.686128 
L 78.576341 92.459036 
L 78.783965 92.470373 
L 78.991589 93.225607 
L 79.199214 93.017146 
L 79.406838 92.601308 
L 79.614462 92.998893 
L 79.822086 92.941282 
L 80.237335 93.53726 
L 80.652583 95.215837 
L 80.860208 95.355676 
L 81.067832 95.319962 
L 81.690705 97.154842 
L 82.105953 97.50138 
L 82.313577 97.626165 
L 82.93645 100.604103 
L 83.144074 100.447908 
L 83.559323 99.761649 
L 83.766947 100.076979 
L 83.974571 99.798636 
L 84.597444 99.57192 
L 85.220317 100.779072 
L 85.635565 102.153656 
L 86.258438 102.086721 
L 86.466062 101.747579 
L 86.881311 101.731267 
L 87.088935 101.27767 
L 87.504184 99.754079 
L 87.711808 99.992078 
L 87.919432 99.942093 
L 88.334681 100.861579 
L 88.542305 100.396402 
L 88.749929 100.89627 
L 88.957553 100.734634 
L 89.165177 100.865745 
L 89.372802 100.447066 
L 89.580426 99.680617 
L 89.78805 99.972151 
L 90.203299 98.81984 
L 90.618547 100.155632 
L 91.033796 99.834727 
L 91.24142 99.605011 
L 91.656668 99.635283 
L 91.864293 99.702994 
L 92.071917 99.301337 
L 92.279541 99.228078 
L 92.69479 98.258164 
L 92.902414 98.575546 
L 93.317662 100.163818 
L 93.525287 100.61062 
L 93.732911 100.198508 
L 94.148159 100.471975 
L 94.355784 100.661284 
L 94.563408 100.13803 
L 94.771032 100.186368 
L 94.978656 99.921967 
L 95.186281 100.310829 
L 95.393905 99.533835 
L 95.809153 101.486898 
L 96.016778 101.447311 
L 96.224402 100.974401 
L 97.262523 96.888752 
L 97.677772 97.742797 
L 98.300644 96.061333 
L 98.508269 96.264941 
L 98.715893 96.156823 
L 98.923517 95.751993 
L 99.131141 94.727929 
L 99.54639 94.393983 
L 99.754014 93.408745 
L 99.961638 93.691532 
L 100.169263 94.323589 
L 100.792135 94.629301 
L 101.207384 95.514457 
L 101.415008 95.499059 
L 101.622632 95.338328 
L 101.830257 94.99475 
L 102.037881 95.371173 
L 102.245505 95.080273 
L 102.453129 95.119064 
L 102.660754 94.729695 
L 102.868378 95.831236 
L 103.076002 95.242417 
L 103.283626 95.098736 
L 103.491251 95.18039 
L 103.698875 94.974861 
L 103.906499 95.193489 
L 104.529372 93.874587 
L 104.736996 93.566478 
L 105.152245 94.673646 
L 105.359869 94.599136 
L 105.567493 94.186502 
L 105.775117 94.397735 
L 106.190366 95.894545 
L 106.39799 95.24652 
L 106.605614 95.256033 
L 107.020863 93.594925 
L 107.436111 94.419982 
L 107.643736 95.170411 
L 107.85136 95.332884 
L 108.266608 95.081733 
L 108.474233 95.102945 
L 108.681857 95.359618 
L 108.889481 95.258781 
L 109.719978 93.151177 
L 109.927602 93.231722 
L 110.342851 91.734265 
L 110.550475 92.299911 
L 110.758099 92.279659 
L 111.173348 92.044063 
L 111.380972 92.443254 
L 111.796221 91.978866 
L 112.003845 92.112094 
L 112.211469 91.831072 
L 112.419093 91.918951 
L 112.626718 91.368064 
L 112.834342 91.525037 
L 113.24959 90.844579 
L 113.457215 90.794759 
L 113.872463 90.340514 
L 114.080087 89.673226 
L 114.287712 89.505834 
L 114.495336 89.114585 
L 114.70296 89.316286 
L 115.325833 88.248079 
L 115.741081 88.580322 
L 115.948706 88.481414 
L 116.15633 88.699641 
L 116.571578 87.350002 
L 116.779203 87.369383 
L 116.986827 87.25575 
L 117.194451 86.42754 
L 117.6097 87.181628 
L 118.024948 87.458488 
L 118.232572 87.481824 
L 119.063069 85.34757 
L 119.270694 85.381618 
L 119.478318 85.856218 
L 119.893566 84.663209 
L 120.101191 84.440859 
L 120.308815 84.554244 
L 120.516439 84.390306 
L 120.931688 82.332923 
L 121.55456 80.945484 
L 122.177433 79.201885 
L 122.385057 78.787997 
L 122.800306 77.689044 
L 123.00793 77.36542 
L 123.423179 77.469701 
L 124.668924 73.756345 
L 124.876548 73.811636 
L 125.084173 72.862928 
L 125.291797 72.822837 
L 125.499421 72.392283 
L 125.707045 72.55005 
L 125.91467 72.51744 
L 126.122294 71.954452 
L 126.329918 71.754824 
L 127.160415 69.253508 
L 127.575664 69.304389 
L 127.783288 69.350765 
L 127.990912 69.007927 
L 128.406161 69.732169 
L 128.821409 71.253576 
L 129.029033 71.414734 
L 129.236658 71.397156 
L 129.444282 70.412484 
L 129.651906 69.994488 
L 129.85953 70.380149 
L 130.274779 69.851094 
L 131.105276 66.969319 
L 131.3129 65.233934 
L 131.728149 63.98904 
L 131.935773 64.091514 
L 132.143397 64.734182 
L 132.351021 64.635287 
L 132.558646 63.926549 
L 132.76627 64.108065 
L 133.181518 64.947575 
L 133.389143 64.684604 
L 133.596767 63.8275 
L 133.804391 64.164059 
L 134.012015 63.784677 
M 134.427264 63.1539 
L 134.634888 63.494409 
L 134.842512 64.138642 
L 135.050137 64.364593 
L 135.257761 64.130396 
L 135.673009 62.685934 
L 135.880634 62.710457 
L 136.295882 61.893963 
L 136.503506 61.755942 
L 136.711131 61.989596 
L 136.918755 61.710777 
L 137.126379 60.85619 
L 137.334003 60.703831 
L 137.541628 61.632989 
L 137.749252 61.131183 
L 138.1645 61.898184 
L 138.372125 62.581615 
L 138.787373 62.675266 
L 138.994997 62.921081 
L 139.202622 62.887706 
L 139.61787 61.258035 
L 140.240743 62.415957 
L 140.448367 62.341029 
L 140.655991 61.809134 
L 140.863616 61.771025 
L 141.07124 61.462941 
L 141.694113 61.494797 
L 141.901737 61.954729 
L 142.109361 61.810682 
L 142.316985 61.261653 
L 142.52461 61.371507 
L 142.732234 61.788885 
L 142.939858 61.653157 
L 143.147482 61.949023 
L 143.355106 61.681262 
L 143.770355 62.506331 
L 143.977979 60.725624 
L 144.185603 61.024453 
L 144.393228 60.891777 
L 145.223725 59.253946 
L 145.431349 59.834258 
L 145.638973 59.467549 
L 146.054222 59.696755 
L 146.261846 60.075068 
L 146.46947 60.041434 
L 146.677094 59.82933 
L 146.884719 60.436527 
L 147.092343 60.17455 
L 147.507591 60.372283 
L 147.715216 60.115376 
L 148.130464 58.861356 
L 148.338088 58.868668 
L 148.545713 58.577795 
L 148.753337 59.156838 
L 148.960961 58.615938 
L 149.168585 58.683648 
L 149.37621 58.099596 
L 149.583834 58.502736 
L 149.791458 58.451096 
L 149.999082 58.75068 
L 150.206707 57.729768 
L 150.414331 57.544952 
L 150.621955 58.003045 
L 150.829579 58.986802 
L 151.244828 59.179754 
L 151.452452 59.703185 
L 151.660076 59.608302 
L 151.867701 59.976681 
L 152.282949 59.724572 
L 152.905822 57.595122 
L 153.32107 58.034149 
L 153.528695 57.910296 
L 153.736319 58.453085 
L 154.151567 57.270824 
L 154.359192 57.362298 
L 154.566816 57.297383 
L 154.77444 57.42264 
L 154.982064 58.037928 
L 155.189689 58.299998 
L 155.397313 57.866487 
L 155.604937 57.77556 
L 155.812561 57.537844 
L 156.020186 56.731662 
L 156.22781 57.077387 
L 156.435434 56.747804 
L 156.643058 56.962413 
L 156.850683 56.391312 
L 157.265931 55.965974 
L 157.473555 55.751667 
L 157.68118 56.030237 
L 157.888804 55.8055 
L 158.304052 56.168352 
L 158.511677 56.538932 
L 158.719301 56.602252 
L 159.549798 55.906562 
L 159.757422 55.359366 
L 160.172671 55.761335 
L 160.380295 55.608397 
L 160.587919 55.83063 
L 160.795543 55.441272 
L 161.003168 55.734965 
L 161.210792 55.6386 
L 161.418416 57.379837 
L 161.62604 57.813097 
L 161.833665 57.585201 
L 162.041289 57.691682 
L 162.248913 57.462024 
L 162.456537 57.701519 
L 162.664162 57.236548 
L 162.871786 57.171497 
L 163.07941 57.631425 
L 163.287034 58.618848 
L 163.494659 58.696434 
L 163.702283 59.536593 
L 163.909907 59.689731 
L 164.117531 59.517548 
L 164.53278 60.079584 
L 164.740404 60.503334 
L 164.948028 60.594855 
L 165.363277 59.801884 
L 165.570901 58.619124 
L 165.778525 58.385075 
L 166.401398 58.440005 
L 166.609022 59.145381 
L 166.816647 58.919318 
L 167.024271 58.928746 
L 167.231895 58.686253 
L 167.439519 59.151733 
L 167.854768 58.526903 
L 168.062392 58.538529 
L 168.270016 58.32719 
L 168.477641 58.460075 
L 168.685265 58.37471 
L 168.892889 58.821255 
L 169.100513 58.319825 
L 169.308138 58.524852 
L 169.723386 58.214192 
L 170.553883 58.297951 
L 170.761507 57.6046 
L 170.969132 57.38186 
L 171.176756 57.582568 
L 171.38438 57.289239 
L 171.592004 57.401296 
L 171.799629 56.973793 
L 172.214877 57.506566 
L 172.422501 57.445735 
L 172.630126 56.780448 
L 172.83775 56.720187 
L 173.045374 56.042151 
L 173.252998 56.035919 
L 174.083495 55.125328 
L 174.29112 55.102539 
L 174.498744 54.874982 
L 174.706368 55.109001 
L 174.913992 55.069048 
L 175.121617 55.207687 
L 175.329241 56.067449 
L 175.744489 56.647118 
L 175.952114 56.755459 
L 176.367362 57.608528 
L 176.574986 57.638909 
L 176.990235 58.241576 
L 177.197859 57.80131 
L 177.613108 55.090425 
L 178.028356 56.087077 
L 178.23598 55.676132 
L 178.443605 56.261694 
L 178.651229 56.343349 
L 178.858853 58.395912 
L 179.066477 58.288195 
L 179.274102 58.402379 
L 179.896974 59.388922 
L 180.104599 59.044838 
L 180.312223 59.709369 
L 180.727471 59.350681 
L 180.935096 58.914791 
L 181.14272 57.797683 
L 181.350344 57.990743 
L 181.557968 57.839438 
L 181.765593 58.002711 
L 182.180841 57.272256 
L 182.59609 56.232267 
L 182.803714 56.360611 
L 183.218962 55.173454 
L 183.426587 55.171197 
L 183.634211 55.057622 
L 183.841835 55.826081 
L 184.049459 54.125889 
L 184.672332 53.001641 
L 184.879956 53.214048 
L 185.710453 55.702678 
L 185.918078 55.700422 
L 186.125702 55.451706 
L 186.333326 55.767486 
L 186.54095 55.842165 
L 186.748575 55.367407 
L 187.163823 55.088921 
L 187.371447 54.946414 
L 187.579072 56.034409 
L 188.201944 56.091971 
L 189.032441 57.285499 
L 189.44769 58.821024 
L 189.655314 58.150398 
L 189.862938 58.486236 
L 190.070563 58.361927 
L 190.485811 57.450697 
L 190.693435 57.51514 
L 190.90106 57.233434 
L 191.108684 57.33851 
L 191.523932 57.837022 
L 191.939181 59.417258 
L 192.146805 59.632233 
L 192.354429 59.575069 
L 192.562054 58.987792 
L 192.769678 59.01175 
L 192.977302 59.572397 
L 193.184926 59.504243 
L 194.015423 62.400133 
L 194.223048 62.204114 
L 194.430672 63.021134 
L 194.84592 60.813299 
L 195.053545 61.420407 
L 195.261169 61.552418 
L 195.468793 62.065812 
L 195.884042 61.520723 
L 196.091666 61.944458 
L 196.29929 61.544909 
L 196.506914 61.490656 
L 196.714539 62.917156 
L 196.922163 63.118857 
L 197.129787 63.04705 
L 197.545035 64.281156 
L 198.167908 65.568945 
L 198.375532 65.734417 
L 198.790781 67.849591 
L 198.998405 68.212886 
L 199.206029 68.180929 
L 199.621278 69.157627 
L 199.828902 69.53522 
L 200.036526 69.205804 
L 200.244151 69.328648 
L 200.451775 69.147824 
L 200.659399 69.539682 
L 201.074648 69.504441 
L 201.282272 69.035612 
L 201.489896 69.160525 
L 201.905145 69.1464 
L 202.112769 69.170758 
L 202.528017 67.918435 
L 202.735642 67.772954 
L 202.943266 68.490303 
L 203.15089 68.502064 
L 203.358514 67.931801 
L 203.566139 67.699459 
L 203.773763 67.880245 
L 204.396636 67.736205 
L 204.60426 67.594965 
L 204.811884 67.143214 
L 205.019508 66.159878 
L 205.642381 65.79193 
L 205.850005 66.051449 
L 206.05763 66.105229 
L 206.265254 65.955399 
L 206.472878 66.569213 
L 206.680502 66.320241 
L 207.718624 66.705572 
L 208.341496 66.602706 
L 208.549121 65.99675 
L 208.756745 65.818489 
M 209.171993 66.373642 
L 209.587242 66.083145 
L 209.794866 66.378285 
L 210.00249 67.933627 
L 210.210115 68.377928 
L 210.417739 68.349528 
L 210.625363 68.11109 
L 210.832987 67.599599 
L 211.040612 67.551749 
L 211.45586 66.740924 
L 211.663484 66.113562 
L 211.871109 66.207983 
L 212.078733 65.995788 
L 213.116854 62.402623 
L 213.324478 61.780215 
L 213.532103 62.243731 
L 213.739727 62.982828 
L 213.947351 62.721545 
L 215.193097 59.382622 
L 215.400721 59.853729 
L 215.608345 59.934053 
L 215.815969 62.319 
L 216.023594 61.863344 
L 216.231218 62.155888 
L 216.438842 61.798858 
L 216.646466 61.706859 
L 217.269339 62.658179 
L 217.684588 61.346826 
L 217.892212 61.347044 
L 218.30746 60.001695 
L 218.515085 60.313253 
L 218.722709 60.306703 
L 218.930333 60.1068 
L 219.345582 59.229212 
L 219.553206 59.629007 
L 219.76083 59.589053 
L 219.968454 59.734326 
L 220.176079 59.552171 
L 220.383703 60.12905 
L 220.798951 59.861102 
L 221.2142 59.331557 
L 221.837073 58.840949 
L 222.044697 58.269743 
M 222.875194 57.947503 
L 223.290442 57.072813 
L 223.498067 57.049067 
L 223.705691 56.737085 
L 223.913315 56.630505 
L 224.120939 56.23495 
L 224.536188 54.022597 
M 230.97254 54.100988 
L 231.387788 53.483125 
L 231.595412 53.744161 
L 231.803037 54.647234 
L 232.010661 54.765156 
L 232.425909 53.92294 
L 232.633534 53.253569 
L 232.841158 52.974746 
L 233.879279 54.723017 
L 234.086903 54.22145 
L 234.294528 54.988578 
L 234.502152 55.062465 
L 234.709776 55.51424 
L 235.125025 55.612872 
L 235.540273 56.567348 
L 235.747897 56.70139 
L 235.955522 56.403116 
L 236.578394 57.278728 
L 236.786019 57.266267 
L 236.993643 56.637074 
L 237.201267 56.782741 
L 237.408891 56.552936 
L 238.239388 58.055273 
L 238.447013 56.920858 
L 238.654637 57.034596 
L 239.069885 58.200699 
L 239.27751 58.296845 
L 239.485134 58.793103 
L 239.692758 58.880248 
L 240.315631 58.586029 
L 240.938504 57.868398 
L 241.146128 57.438095 
L 241.353752 56.654624 
L 241.561376 56.658922 
L 241.769001 57.073063 
L 241.976625 57.010438 
L 242.184249 57.616093 
L 242.391873 58.818353 
L 242.599498 59.325033 
L 242.807122 59.380957 
L 243.014746 59.078775 
L 243.429995 58.844563 
L 243.845243 57.749478 
L 244.260492 57.974521 
L 244.468116 58.263176 
L 244.67574 58.185135 
L 245.298613 58.809181 
L 245.506237 58.911712 
L 245.713861 58.184249 
L 246.12911 57.987951 
L 246.336734 57.630829 
L 246.544358 58.016419 
L 246.751983 58.121066 
L 246.959607 57.866863 
L 247.167231 57.374942 
L 247.58248 57.347546 
L 247.790104 57.292116 
L 248.205352 56.760112 
L 248.412977 56.07197 
L 248.620601 55.828606 
L 248.828225 55.313164 
L 249.243474 55.730305 
L 249.451098 55.463671 
L 249.658722 55.536016 
L 249.866346 55.974158 
L 250.073971 56.049445 
L 250.281595 55.946616 
L 251.319716 53.726927 
L 252.357837 52.957014 
M 294.297936 52.651393 
L 294.50556 52.089892 
L 294.713184 51.981665 
L 294.920808 52.112064 
L 295.128433 51.91647 
L 295.543681 51.998716 
L 295.751305 51.818051 
L 295.95893 51.821664 
L 296.166554 52.198339 
L 296.374178 52.106081 
L 296.789427 52.563383 
L 296.997051 53.43055 
L 297.412299 53.646158 
L 297.619924 53.28922 
L 298.035172 53.199275 
L 298.242796 52.753177 
L 298.450421 53.033914 
L 298.865669 53.233326 
M 299.280918 53.202577 
L 300.111415 52.425215 
L 300.526663 52.566839 
L 300.734287 52.586374 
L 301.564784 51.575694 
L 301.772409 51.733924 
L 301.980033 51.571777 
M 302.395281 50.992959 
L 302.602906 51.027443 
L 303.225778 50.378177 
L 303.433403 50.065668 
M 303.848651 50.401048 
L 304.056275 50.141899 
L 304.2639 50.064905 
L 304.471524 49.764066 
M 304.886772 49.275924 
L 305.094397 48.999645 
L 305.302021 49.336057 
L 305.924894 49.311112 
L 306.547766 50.169719 
L 306.75539 49.975322 
L 306.963015 50.010197 
M 307.378263 49.969312 
L 307.585887 49.575622 
L 307.793512 49.654627 
M 308.20876 49.70379 
L 308.416384 49.609388 
L 309.039257 51.233827 
L 309.246881 51.433986 
L 309.869754 51.363982 
M 310.285003 51.860152 
L 310.492627 52.035508 
M 310.907875 52.20972 
L 311.323124 52.37417 
L 311.738372 52.239381 
L 311.945997 52.38171 
L 312.153621 52.327837 
M 312.984118 52.840384 
L 313.191742 52.55855 
L 313.399366 52.55115 
M 313.814615 52.635521 
L 314.022239 52.750072 
L 314.229863 52.715961 
L 314.645112 52.973343 
L 315.06036 53.633837 
M 315.890857 54.195155 
L 316.306106 54.37977 
M 316.721354 54.546038 
L 316.928979 54.922935 
M 317.344227 54.669133 
L 317.551851 54.526299 
L 317.759476 54.226608 
L 318.174724 53.423225 
L 318.382348 53.450665 
M 318.797597 53.572851 
L 319.005221 53.635583 
L 319.212845 53.477774 
L 319.42047 53.653005 
L 319.628094 53.542588 
L 319.835718 53.177382 
L 320.250967 53.642368 
M 321.289088 53.833234 
L 321.496712 53.738816 
L 321.704336 53.92063 
L 321.911961 53.869573 
L 322.119585 54.212273 
L 322.327209 54.920021 
L 322.950082 55.188195 
L 323.157706 55.226728 
M 323.988203 56.195003 
L 324.195827 56.62486 
L 324.403452 56.731667 
L 324.611076 57.033025 
L 324.8187 57.001903 
L 325.026324 56.698174 
L 325.441573 57.373149 
L 325.649197 57.629567 
M 326.27207 58.518177 
L 326.479694 59.213301 
L 326.687318 59.36397 
L 326.894943 59.65647 
L 327.102567 59.483652 
M 327.517815 59.748438 
L 327.933064 60.39573 
L 328.348312 61.044933 
L 328.763561 62.845782 
L 329.386434 63.687391 
M 330.424555 64.514472 
L 330.839803 65.350401 
L 331.6703 67.203245 
L 332.085549 67.967796 
M 333.12367 68.630354 
L 333.538919 69.76717 
L 333.746543 70.686537 
L 334.161791 71.194045 
L 334.369416 71.720303 
M 334.992288 71.980567 
L 335.407537 72.539851 
M 335.822785 72.845781 
L 336.445658 74.997756 
L 336.860907 75.24878 
L 337.068531 75.570938 
L 337.483779 75.047829 
L 337.899028 75.372685 
L 338.314276 75.799356 
L 338.937149 77.38652 
M 369.042665 79.646164 
L 369.457914 78.403893 
L 369.665538 78.064248 
M 370.288411 78.0926 
L 370.703659 78.094786 
M 371.534156 78.086814 
L 371.949405 80.715123 
M 374.025647 81.033702 
L 374.233271 81.37163 
L 374.440896 80.964099 
M 374.856144 80.433957 
L 375.063768 80.256798 
L 375.271393 80.652324 
L 375.479017 80.798469 
L 375.686641 80.771955 
M 377.555259 81.052115 
L 377.762884 80.338822 
L 377.970508 80.475047 
M 378.385756 81.048025 
L 378.593381 81.369086 
L 378.801005 81.904374 
L 379.008629 81.838197 
L 379.216253 81.066035 
L 379.423878 81.221403 
L 380.04675 80.975515 
L 381.292496 79.530281 
M 384.199235 79.317013 
L 384.614484 79.035862 
M 385.029732 79.457907 
L 385.237357 79.756295 
L 385.444981 79.85221 
L 386.067854 81.001663 
L 386.275478 81.435318 
L 386.483102 81.34021 
L 387.105975 82.384198 
L 387.313599 82.107428 
L 387.521223 82.306339 
L 387.936472 83.702375 
L 388.144096 83.616421 
L 388.35172 83.345611 
L 388.559345 83.336535 
L 388.974593 82.575815 
L 389.597466 80.407687 
L 390.012714 79.534601 
L 390.220339 79.516091 
L 390.427963 79.295802 
L 390.635587 79.327247 
L 390.843211 79.18197 
L 391.050836 79.4372 
L 391.25846 79.495949 
M 391.673708 79.078105 
L 391.881333 78.729729 
L 392.088957 78.631994 
L 392.504205 79.031941 
L 392.71183 79.180203 
L 392.919454 79.868028 
L 393.127078 80.084683 
L 393.542327 81.320186 
L 393.749951 81.373256 
L 393.957575 81.69613 
L 394.165199 81.618416 
L 394.372824 81.808284 
L 394.580448 81.478635 
L 395.203321 81.495127 
M 395.618569 82.02577 
L 395.826193 82.670399 
L 396.033818 82.8 
L 396.033818 82.8 
" style="fill:none;stroke:#1f77b4;stroke-linecap:square;stroke-width:1.5;"/>
   </g>
   <g id="line2d_15">
    <path clip-path="url(#pa032601c5f)" d="M 34.56 82.8 
L 414.72 82.8 
" style="fill:none;stroke:#000000;stroke-dasharray:1.5,2.475;stroke-dashoffset:0;stroke-width:1.5;"/>
   </g>
   <g id="patch_3">
    <path d="M 34.56 162 
L 34.56 3.6 
" style="fill:none;stroke:#000000;stroke-linecap:square;stroke-linejoin:miter;stroke-width:0.8;"/>
   </g>
   <g id="patch_4">
    <path d="M 414.72 162 
L 414.72 3.6 
" style="fill:none;stroke:#000000;stroke-linecap:square;stroke-linejoin:miter;stroke-width:0.8;"/>
   </g>
   <g id="patch_5">
    <path d="M 34.56 162 
L 414.72 162 
" style="fill:none;stroke:#000000;stroke-linecap:square;stroke-linejoin:miter;stroke-width:0.8;"/>
   </g>
   <g id="patch_6">
    <path d="M 34.56 3.6 
L 414.72 3.6 
" style="fill:none;stroke:#000000;stroke-linecap:square;stroke-linejoin:miter;stroke-width:0.8;"/>
   </g>
  </g>
 </g>
 <defs>
  <clipPath id="pa032601c5f">
   <rect height="158.4" width="380.16" x="34.56" y="3.6"/>
  </clipPath>
 </defs>
</svg>
