<?xml version="1.0" encoding="utf-8" standalone="no"?>
<!DOCTYPE svg PUBLIC "-//W3C//DTD SVG 1.1//EN"
  "http://www.w3.org/Graphics/SVG/1.1/DTD/svg11.dtd">
<svg height="180pt" version="1.1" viewBox="0 0 432 180" width="432pt" xmlns="http://www.w3.org/2000/svg" xmlns:xlink="http://www.w3.org/1999/xlink">
 <metadata>
  <rdf:RDF xmlns:cc="http://creativecommons.org/ns#" xmlns:dc="http://purl.org/dc/elements/1.1/" xmlns:rdf="http://www.w3.org/1999/02/22-rdf-syntax-ns#">
   <cc:Work>
    <dc:type rdf:resource="http://purl.org/dc/dcmitype/StillImage"/>
    <dc:date>2021-08-12T10:41:46.655610</dc:date>
    <dc:format>image/svg+xml</dc:format>
    <dc:creator>
     <cc:Agent>
      <dc:title>Matplotlib v3.4.2, https://matplotlib.org/</dc:title>
     </cc:Agent>
    </dc:creator>
   </cc:Work>
  </rdf:RDF>
 </metadata>
 <defs>
  <style type="text/css">*{stroke-linecap:butt;stroke-linejoin:round;}</style>
 </defs>
 <g id="figure_1">
  <g id="patch_1">
   <path d="M 0 180 
L 432 180 
L 432 0 
L 0 0 
z
" style="fill:#ffffff;"/>
  </g>
  <g id="axes_1">
   <g id="patch_2">
    <path d="M 34.56 162 
L 414.72 162 
L 414.72 3.6 
L 34.56 3.6 
z
" style="fill:#ffffff;"/>
   </g>
   <g id="PolyCollection_1">
    <path clip-path="url(#p96ae8eb338)" d="M 73.662171 82.365879 
L 73.662171 83.234121 
L 74.09664 83.666366 
L 74.531109 84.097361 
L 74.965577 84.527107 
L 75.400046 84.955604 
L 75.834514 85.382852 
L 76.268983 85.80885 
L 76.703451 86.233599 
L 77.13792 86.657099 
L 77.572389 87.07935 
L 78.006857 87.500351 
L 78.441326 87.920103 
L 78.875794 88.338606 
L 79.310263 88.75586 
L 79.744731 89.171864 
L 80.1792 89.586619 
L 80.613669 90.000125 
L 81.048137 90.412381 
L 81.482606 90.823388 
L 81.917074 91.233146 
L 82.351543 91.641655 
L 82.786011 92.048914 
L 83.22048 92.454924 
L 83.654949 92.859685 
L 84.089417 93.263197 
L 84.523886 93.665459 
L 84.958354 94.066473 
L 85.392823 94.466236 
L 85.827291 94.864751 
L 86.26176 95.262016 
L 86.696229 95.658032 
L 87.130697 96.052799 
L 87.565166 96.446317 
L 87.999634 96.838585 
L 88.434103 97.229604 
L 88.868571 97.619374 
L 89.30304 98.007894 
L 89.737509 98.395166 
L 90.171977 98.781187 
L 90.606446 99.16596 
L 91.040914 99.549484 
L 91.475383 99.931758 
L 91.909851 100.312783 
L 92.34432 100.692558 
L 92.778789 101.071085 
L 93.213257 101.448362 
L 93.647726 101.82439 
L 94.082194 102.199168 
L 94.516663 102.572698 
L 94.951131 102.944978 
L 95.3856 103.316009 
L 95.820069 103.68579 
L 96.254537 104.054323 
L 96.689006 104.421606 
L 97.123474 104.787639 
L 97.557943 105.152424 
L 97.992411 105.515959 
L 98.42688 105.878245 
L 98.861349 106.239282 
L 99.295817 106.599069 
L 99.730286 106.957608 
L 100.164754 107.314897 
L 100.599223 107.670936 
L 101.033691 108.025727 
L 101.46816 108.379268 
L 101.902629 108.73156 
L 102.337097 109.082602 
L 102.771566 109.432396 
L 103.206034 109.78094 
L 103.640503 110.128235 
L 104.074971 110.47428 
L 104.50944 110.819077 
L 104.943909 111.162624 
L 105.378377 111.504921 
L 105.812846 111.84597 
L 106.247314 112.185769 
L 106.681783 112.524319 
L 107.116251 112.86162 
L 107.55072 113.197672 
L 107.985189 113.532474 
L 108.419657 113.866027 
L 108.854126 114.19833 
L 109.288594 114.529385 
L 109.723063 114.85919 
L 110.157531 115.187746 
L 110.592 115.515053 
L 111.026469 115.84111 
L 111.460937 116.165918 
L 111.895406 116.489477 
L 112.329874 116.811787 
L 112.764343 117.132847 
L 113.198811 117.452658 
L 113.63328 117.77122 
L 114.067749 118.088532 
L 114.502217 118.404596 
L 114.936686 118.71941 
L 115.371154 119.032975 
L 115.805623 119.34529 
L 116.240091 119.656356 
L 116.67456 119.966173 
L 117.109029 120.274741 
L 117.543497 120.58206 
L 117.977966 120.888129 
L 118.412434 121.192949 
L 118.846903 121.496519 
L 119.281371 121.798841 
L 119.71584 122.099913 
L 120.150309 122.399736 
L 120.584777 122.698309 
L 121.019246 122.995634 
L 121.453714 123.291709 
L 121.888183 123.586535 
L 122.322651 123.880111 
L 122.75712 124.172439 
L 123.191589 124.463517 
L 123.626057 124.753346 
L 124.060526 125.041925 
L 124.494994 125.329255 
L 124.929463 125.615336 
L 125.363931 125.900168 
L 125.7984 126.183751 
L 126.232869 126.466084 
L 126.667337 126.747168 
L 127.101806 127.027002 
L 127.536274 127.305588 
L 127.970743 127.582924 
L 128.405211 127.859011 
L 128.83968 128.133849 
L 129.274149 128.407437 
L 129.708617 128.679776 
L 130.143086 128.950866 
L 130.577554 129.220707 
L 131.012023 129.489298 
L 131.446491 129.75664 
L 131.88096 130.022733 
L 132.315429 130.287576 
L 132.749897 130.551171 
L 133.184366 130.813516 
L 133.618834 131.074611 
L 134.053303 131.334458 
L 134.487771 131.593055 
L 134.92224 131.850403 
L 135.356709 132.106502 
L 135.791177 132.361351 
L 136.225646 132.614952 
L 136.660114 132.867303 
L 137.094583 133.118404 
L 137.529051 133.368257 
L 137.96352 133.61686 
L 138.397989 133.864214 
L 138.832457 134.110318 
L 139.266926 134.355174 
L 139.701394 134.59878 
L 140.135863 134.841137 
L 140.570331 135.082244 
L 141.0048 135.322102 
L 141.439269 135.560712 
L 141.873737 135.798071 
L 142.308206 136.034182 
L 142.742674 136.269043 
L 143.177143 136.502655 
L 143.611611 136.735018 
L 144.04608 136.966131 
L 144.480549 137.195996 
L 144.915017 137.424611 
L 145.349486 137.651976 
L 145.783954 137.878093 
L 146.218423 138.10296 
L 146.652891 138.326578 
L 147.08736 138.548946 
L 147.521829 138.770066 
L 147.956297 138.989936 
L 148.390766 139.208557 
L 148.825234 139.425928 
L 149.259703 139.642051 
L 149.694171 139.856924 
L 150.12864 140.070548 
L 150.563109 140.282922 
L 150.997577 140.494047 
L 151.432046 140.703923 
L 151.866514 140.91255 
L 152.300983 141.119928 
L 152.735451 141.326056 
L 153.16992 141.530935 
L 153.604389 141.734565 
L 154.038857 141.936945 
L 154.473326 142.138076 
L 154.907794 142.337958 
L 155.342263 142.536591 
L 155.776731 142.733974 
L 156.2112 142.930108 
L 156.645669 143.124993 
L 157.080137 143.318629 
L 157.514606 143.511015 
L 157.949074 143.702152 
L 158.383543 143.89204 
L 158.818011 144.080679 
L 159.25248 144.268068 
L 159.686949 144.454208 
L 160.121417 144.639099 
L 160.555886 144.82274 
L 160.990354 145.005133 
L 161.424823 145.186276 
L 161.859291 145.366169 
L 162.29376 145.544814 
L 162.728229 145.722209 
L 163.162697 145.898355 
L 163.597166 146.073252 
L 164.031634 146.246899 
L 164.466103 146.419297 
L 164.900571 146.590446 
L 165.33504 146.760346 
L 165.769509 146.928996 
L 166.203977 147.096397 
L 166.638446 147.262549 
L 167.072914 147.427452 
L 167.507383 147.591105 
L 167.941851 147.753509 
L 168.37632 147.914664 
L 168.810789 148.074569 
L 169.245257 148.233226 
L 169.679726 148.390633 
L 170.114194 148.546791 
L 170.548663 148.701699 
L 170.983131 148.855358 
L 171.4176 149.007768 
L 171.852069 149.158929 
L 172.286537 149.30884 
L 172.721006 149.457503 
L 173.155474 149.604915 
L 173.589943 149.751079 
L 174.024411 149.895994 
L 174.45888 150.039659 
L 174.893349 150.182075 
L 175.327817 150.323241 
L 175.762286 150.463159 
L 176.196754 150.601827 
L 176.631223 150.739245 
L 177.065691 150.875415 
L 177.50016 151.010335 
L 177.934629 151.144006 
L 178.369097 151.276428 
L 178.803566 151.407601 
L 179.238034 151.537524 
L 179.672503 151.666198 
L 180.106971 151.793623 
L 180.54144 151.919798 
L 180.975909 152.044724 
L 181.410377 152.168401 
L 181.844846 152.290829 
L 182.279314 152.412007 
L 182.713783 152.531936 
L 183.148251 152.650616 
L 183.58272 152.768047 
L 184.017189 152.884228 
L 184.451657 152.99916 
L 184.886126 153.112843 
L 185.320594 153.225277 
L 185.755063 153.336461 
L 186.189531 153.446396 
L 186.624 153.555082 
L 187.058469 153.662519 
L 187.492937 153.768706 
L 187.927406 153.873644 
L 188.361874 153.977333 
L 188.796343 154.079772 
L 189.230811 154.180962 
L 189.66528 154.280903 
L 190.099749 154.379595 
L 190.534217 154.477037 
L 190.968686 154.573231 
L 191.403154 154.668175 
L 191.837623 154.761869 
L 192.272091 154.854315 
L 192.70656 154.945511 
L 193.141029 155.035458 
L 193.575497 155.124155 
L 194.009966 155.211604 
L 194.444434 155.297803 
L 194.878903 155.382752 
L 195.313371 155.466453 
L 195.74784 155.548904 
L 196.182309 155.630106 
L 196.616777 155.710059 
L 197.051246 155.788763 
L 197.485714 155.866217 
L 197.920183 155.942422 
L 198.354651 156.017378 
L 198.78912 156.091084 
L 199.223589 156.163541 
L 199.658057 156.234749 
L 200.092526 156.304708 
L 200.526994 156.373417 
L 200.961463 156.440877 
L 201.395931 156.507088 
L 201.8304 156.57205 
L 202.264869 156.635762 
L 202.699337 156.698225 
L 203.133806 156.759439 
L 203.568274 156.819404 
L 204.002743 156.878119 
L 204.437211 156.935585 
L 204.87168 156.991802 
L 205.306149 157.04677 
L 205.740617 157.100488 
L 206.175086 157.152957 
L 206.609554 157.204177 
L 207.044023 157.254147 
L 207.478491 157.302868 
L 207.91296 157.35034 
L 208.347429 157.396563 
L 208.781897 157.441536 
L 209.216366 157.485261 
L 209.650834 157.527735 
L 210.085303 157.568961 
L 210.519771 157.608937 
L 210.95424 157.647665 
L 211.388709 157.685142 
L 211.823177 157.721371 
L 212.257646 157.75635 
L 212.692114 157.79008 
L 213.126583 157.822561 
L 213.561051 157.853793 
L 213.99552 157.883775 
L 214.429989 157.912508 
L 214.864457 157.939992 
L 215.298926 157.966226 
L 215.733394 157.991212 
L 216.167863 158.014948 
L 216.602331 158.037434 
L 217.0368 158.058672 
L 217.471269 158.07866 
L 217.905737 158.097399 
L 218.340206 158.114889 
L 218.774674 158.131129 
L 219.209143 158.14612 
L 219.643611 158.159862 
L 220.07808 158.172355 
L 220.512549 158.183598 
L 220.947017 158.193592 
L 221.381486 158.202337 
L 221.815954 158.209832 
L 222.250423 158.216079 
L 222.684891 158.221076 
L 223.11936 158.224824 
L 223.553829 158.227322 
L 223.988297 158.228571 
L 224.422766 158.228571 
L 224.857234 158.227322 
L 225.291703 158.224824 
L 225.726171 158.221076 
L 226.16064 158.216079 
L 226.595109 158.209832 
L 227.029577 158.202337 
L 227.464046 158.193592 
L 227.898514 158.183598 
L 228.332983 158.172355 
L 228.767451 158.159862 
L 229.20192 158.14612 
L 229.636389 158.131129 
L 230.070857 158.114889 
L 230.505326 158.097399 
L 230.939794 158.07866 
L 231.374263 158.058672 
L 231.808731 158.037434 
L 232.2432 158.014948 
L 232.677669 157.991212 
L 233.112137 157.966226 
L 233.546606 157.939992 
L 233.981074 157.912508 
L 234.415543 157.883775 
L 234.850011 157.853793 
L 235.28448 157.822561 
L 235.718949 157.79008 
L 236.153417 157.75635 
L 236.587886 157.721371 
L 237.022354 157.685142 
L 237.456823 157.647665 
L 237.891291 157.608937 
L 238.32576 157.568961 
L 238.760229 157.527735 
L 239.194697 157.485261 
L 239.629166 157.441536 
L 240.063634 157.396563 
L 240.498103 157.35034 
L 240.932571 157.302868 
L 241.36704 157.254147 
L 241.801509 157.204177 
L 242.235977 157.152957 
L 242.670446 157.100488 
L 243.104914 157.04677 
L 243.539383 156.991802 
L 243.973851 156.935585 
L 244.40832 156.878119 
L 244.842789 156.819404 
L 245.277257 156.759439 
L 245.711726 156.698225 
L 246.146194 156.635762 
L 246.580663 156.57205 
L 247.015131 156.507088 
L 247.4496 156.440877 
L 247.884069 156.373417 
L 248.318537 156.304708 
L 248.753006 156.234749 
L 249.187474 156.163541 
L 249.621943 156.091084 
L 250.056411 156.017378 
L 250.49088 155.942422 
L 250.925349 155.866217 
L 251.359817 155.788763 
L 251.794286 155.710059 
L 252.228754 155.630106 
L 252.663223 155.548904 
L 253.097691 155.466453 
L 253.53216 155.382752 
L 253.966629 155.297803 
L 254.401097 155.211604 
L 254.835566 155.124155 
L 255.270034 155.035458 
L 255.704503 154.945511 
L 256.138971 154.854315 
L 256.57344 154.761869 
L 257.007909 154.668175 
L 257.442377 154.573231 
L 257.876846 154.477037 
L 258.311314 154.379595 
L 258.745783 154.280903 
L 259.180251 154.180962 
L 259.61472 154.079772 
L 260.049189 153.977333 
L 260.483657 153.873644 
L 260.918126 153.768706 
L 261.352594 153.662519 
L 261.787063 153.555082 
L 262.221531 153.446396 
L 262.656 153.336461 
L 263.090469 153.225277 
L 263.524937 153.112843 
L 263.959406 152.99916 
L 264.393874 152.884228 
L 264.828343 152.768047 
L 265.262811 152.650616 
L 265.69728 152.531936 
L 266.131749 152.412007 
L 266.566217 152.290829 
L 267.000686 152.168401 
L 267.435154 152.044724 
L 267.869623 151.919798 
L 268.304091 151.793623 
L 268.73856 151.666198 
L 269.173029 151.537524 
L 269.607497 151.407601 
L 270.041966 151.276428 
L 270.476434 151.144006 
L 270.910903 151.010335 
L 271.345371 150.875415 
L 271.77984 150.739245 
L 272.214309 150.601827 
L 272.648777 150.463159 
L 273.083246 150.323241 
L 273.517714 150.182075 
L 273.952183 150.039659 
L 274.386651 149.895994 
L 274.82112 149.751079 
L 275.255589 149.604915 
L 275.690057 149.457503 
L 276.124526 149.30884 
L 276.558994 149.158929 
L 276.993463 149.007768 
L 277.427931 148.855358 
L 277.8624 148.701699 
L 278.296869 148.546791 
L 278.731337 148.390633 
L 279.165806 148.233226 
L 279.600274 148.074569 
L 280.034743 147.914664 
L 280.469211 147.753509 
L 280.90368 147.591105 
L 281.338149 147.427452 
L 281.772617 147.262549 
L 282.207086 147.096397 
L 282.641554 146.928996 
L 283.076023 146.760346 
L 283.510491 146.590446 
L 283.94496 146.419297 
L 284.379429 146.246899 
L 284.813897 146.073252 
L 285.248366 145.898355 
L 285.682834 145.722209 
L 286.117303 145.544814 
L 286.551771 145.366169 
L 286.98624 145.186276 
L 287.420709 145.005133 
L 287.855177 144.82274 
L 288.289646 144.639099 
L 288.724114 144.454208 
L 289.158583 144.268068 
L 289.593051 144.080679 
L 290.02752 143.89204 
L 290.461989 143.702152 
L 290.896457 143.511015 
L 291.330926 143.318629 
L 291.765394 143.124993 
L 292.199863 142.930108 
L 292.634331 142.733974 
L 293.0688 142.536591 
L 293.503269 142.337958 
L 293.937737 142.138076 
L 294.372206 141.936945 
L 294.806674 141.734565 
L 295.241143 141.530935 
L 295.675611 141.326056 
L 296.11008 141.119928 
L 296.544549 140.91255 
L 296.979017 140.703923 
L 297.413486 140.494047 
L 297.847954 140.282922 
L 298.282423 140.070548 
L 298.716891 139.856924 
L 299.15136 139.642051 
L 299.585829 139.425928 
L 300.020297 139.208557 
L 300.454766 138.989936 
L 300.889234 138.770066 
L 301.323703 138.548946 
L 301.758171 138.326578 
L 302.19264 138.10296 
L 302.627109 137.878093 
L 303.061577 137.651976 
L 303.496046 137.424611 
L 303.930514 137.195996 
L 304.364983 136.966131 
L 304.799451 136.735018 
L 305.23392 136.502655 
L 305.668389 136.269043 
L 306.102857 136.034182 
L 306.537326 135.798071 
L 306.971794 135.560712 
L 307.406263 135.322102 
L 307.840731 135.082244 
L 308.2752 134.841137 
L 308.709669 134.59878 
L 309.144137 134.355174 
L 309.578606 134.110318 
L 310.013074 133.864214 
L 310.447543 133.61686 
L 310.882011 133.368257 
L 311.31648 133.118404 
L 311.750949 132.867303 
L 312.185417 132.614952 
L 312.619886 132.361351 
L 313.054354 132.106502 
L 313.488823 131.850403 
L 313.923291 131.593055 
L 314.35776 131.334458 
L 314.792229 131.074611 
L 315.226697 130.813516 
L 315.661166 130.551171 
L 316.095634 130.287576 
L 316.530103 130.022733 
L 316.964571 129.75664 
L 317.39904 129.489298 
L 317.833509 129.220707 
L 318.267977 128.950866 
L 318.702446 128.679776 
L 319.136914 128.407437 
L 319.571383 128.133849 
L 320.005851 127.859011 
L 320.44032 127.582924 
L 320.874789 127.305588 
L 321.309257 127.027002 
L 321.743726 126.747168 
L 322.178194 126.466084 
L 322.612663 126.183751 
L 323.047131 125.900168 
L 323.4816 125.615336 
L 323.916069 125.329255 
L 324.350537 125.041925 
L 324.785006 124.753346 
L 325.219474 124.463517 
L 325.653943 124.172439 
L 326.088411 123.880111 
L 326.52288 123.586535 
L 326.957349 123.291709 
L 327.391817 122.995634 
L 327.826286 122.698309 
L 328.260754 122.399736 
L 328.695223 122.099913 
L 329.129691 121.798841 
L 329.56416 121.496519 
L 329.998629 121.192949 
L 330.433097 120.888129 
L 330.867566 120.58206 
L 331.302034 120.274741 
L 331.736503 119.966173 
L 332.170971 119.656356 
L 332.170971 45.943644 
L 332.170971 45.943644 
L 331.736503 45.633827 
L 331.302034 45.325259 
L 330.867566 45.01794 
L 330.433097 44.711871 
L 329.998629 44.407051 
L 329.56416 44.103481 
L 329.129691 43.801159 
L 328.695223 43.500087 
L 328.260754 43.200264 
L 327.826286 42.901691 
L 327.391817 42.604366 
L 326.957349 42.308291 
L 326.52288 42.013465 
L 326.088411 41.719889 
L 325.653943 41.427561 
L 325.219474 41.136483 
L 324.785006 40.846654 
L 324.350537 40.558075 
L 323.916069 40.270745 
L 323.4816 39.984664 
L 323.047131 39.699832 
L 322.612663 39.416249 
L 322.178194 39.133916 
L 321.743726 38.852832 
L 321.309257 38.572998 
L 320.874789 38.294412 
L 320.44032 38.017076 
L 320.005851 37.740989 
L 319.571383 37.466151 
L 319.136914 37.192563 
L 318.702446 36.920224 
L 318.267977 36.649134 
L 317.833509 36.379293 
L 317.39904 36.110702 
L 316.964571 35.84336 
L 316.530103 35.577267 
L 316.095634 35.312424 
L 315.661166 35.048829 
L 315.226697 34.786484 
L 314.792229 34.525389 
L 314.35776 34.265542 
L 313.923291 34.006945 
L 313.488823 33.749597 
L 313.054354 33.493498 
L 312.619886 33.238649 
L 312.185417 32.985048 
L 311.750949 32.732697 
L 311.31648 32.481596 
L 310.882011 32.231743 
L 310.447543 31.98314 
L 310.013074 31.735786 
L 309.578606 31.489682 
L 309.144137 31.244826 
L 308.709669 31.00122 
L 308.2752 30.758863 
L 307.840731 30.517756 
L 307.406263 30.277898 
L 306.971794 30.039288 
L 306.537326 29.801929 
L 306.102857 29.565818 
L 305.668389 29.330957 
L 305.23392 29.097345 
L 304.799451 28.864982 
L 304.364983 28.633869 
L 303.930514 28.404004 
L 303.496046 28.175389 
L 303.061577 27.948024 
L 302.627109 27.721907 
L 302.19264 27.49704 
L 301.758171 27.273422 
L 301.323703 27.051054 
L 300.889234 26.829934 
L 300.454766 26.610064 
L 300.020297 26.391443 
L 299.585829 26.174072 
L 299.15136 25.957949 
L 298.716891 25.743076 
L 298.282423 25.529452 
L 297.847954 25.317078 
L 297.413486 25.105953 
L 296.979017 24.896077 
L 296.544549 24.68745 
L 296.11008 24.480072 
L 295.675611 24.273944 
L 295.241143 24.069065 
L 294.806674 23.865435 
L 294.372206 23.663055 
L 293.937737 23.461924 
L 293.503269 23.262042 
L 293.0688 23.063409 
L 292.634331 22.866026 
L 292.199863 22.669892 
L 291.765394 22.475007 
L 291.330926 22.281371 
L 290.896457 22.088985 
L 290.461989 21.897848 
L 290.02752 21.70796 
L 289.593051 21.519321 
L 289.158583 21.331932 
L 288.724114 21.145792 
L 288.289646 20.960901 
L 287.855177 20.77726 
L 287.420709 20.594867 
L 286.98624 20.413724 
L 286.551771 20.233831 
L 286.117303 20.055186 
L 285.682834 19.877791 
L 285.248366 19.701645 
L 284.813897 19.526748 
L 284.379429 19.353101 
L 283.94496 19.180703 
L 283.510491 19.009554 
L 283.076023 18.839654 
L 282.641554 18.671004 
L 282.207086 18.503603 
L 281.772617 18.337451 
L 281.338149 18.172548 
L 280.90368 18.008895 
L 280.469211 17.846491 
L 280.034743 17.685336 
L 279.600274 17.525431 
L 279.165806 17.366774 
L 278.731337 17.209367 
L 278.296869 17.053209 
L 277.8624 16.898301 
L 277.427931 16.744642 
L 276.993463 16.592232 
L 276.558994 16.441071 
L 276.124526 16.29116 
L 275.690057 16.142497 
L 275.255589 15.995085 
L 274.82112 15.848921 
L 274.386651 15.704006 
L 273.952183 15.560341 
L 273.517714 15.417925 
L 273.083246 15.276759 
L 272.648777 15.136841 
L 272.214309 14.998173 
L 271.77984 14.860755 
L 271.345371 14.724585 
L 270.910903 14.589665 
L 270.476434 14.455994 
L 270.041966 14.323572 
L 269.607497 14.192399 
L 269.173029 14.062476 
L 268.73856 13.933802 
L 268.304091 13.806377 
L 267.869623 13.680202 
L 267.435154 13.555276 
L 267.000686 13.431599 
L 266.566217 13.309171 
L 266.131749 13.187993 
L 265.69728 13.068064 
L 265.262811 12.949384 
L 264.828343 12.831953 
L 264.393874 12.715772 
L 263.959406 12.60084 
L 263.524937 12.487157 
L 263.090469 12.374723 
L 262.656 12.263539 
L 262.221531 12.153604 
L 261.787063 12.044918 
L 261.352594 11.937481 
L 260.918126 11.831294 
L 260.483657 11.726356 
L 260.049189 11.622667 
L 259.61472 11.520228 
L 259.180251 11.419038 
L 258.745783 11.319097 
L 258.311314 11.220405 
L 257.876846 11.122963 
L 257.442377 11.026769 
L 257.007909 10.931825 
L 256.57344 10.838131 
L 256.138971 10.745685 
L 255.704503 10.654489 
L 255.270034 10.564542 
L 254.835566 10.475845 
L 254.401097 10.388396 
L 253.966629 10.302197 
L 253.53216 10.217248 
L 253.097691 10.133547 
L 252.663223 10.051096 
L 252.228754 9.969894 
L 251.794286 9.889941 
L 251.359817 9.811237 
L 250.925349 9.733783 
L 250.49088 9.657578 
L 250.056411 9.582622 
L 249.621943 9.508916 
L 249.187474 9.436459 
L 248.753006 9.365251 
L 248.318537 9.295292 
L 247.884069 9.226583 
L 247.4496 9.159123 
L 247.015131 9.092912 
L 246.580663 9.02795 
L 246.146194 8.964238 
L 245.711726 8.901775 
L 245.277257 8.840561 
L 244.842789 8.780596 
L 244.40832 8.721881 
L 243.973851 8.664415 
L 243.539383 8.608198 
L 243.104914 8.55323 
L 242.670446 8.499512 
L 242.235977 8.447043 
L 241.801509 8.395823 
L 241.36704 8.345853 
L 240.932571 8.297132 
L 240.498103 8.24966 
L 240.063634 8.203437 
L 239.629166 8.158464 
L 239.194697 8.114739 
L 238.760229 8.072265 
L 238.32576 8.031039 
L 237.891291 7.991063 
L 237.456823 7.952335 
L 237.022354 7.914858 
L 236.587886 7.878629 
L 236.153417 7.84365 
L 235.718949 7.80992 
L 235.28448 7.777439 
L 234.850011 7.746207 
L 234.415543 7.716225 
L 233.981074 7.687492 
L 233.546606 7.660008 
L 233.112137 7.633774 
L 232.677669 7.608788 
L 232.2432 7.585052 
L 231.808731 7.562566 
L 231.374263 7.541328 
L 230.939794 7.52134 
L 230.505326 7.502601 
L 230.070857 7.485111 
L 229.636389 7.468871 
L 229.20192 7.45388 
L 228.767451 7.440138 
L 228.332983 7.427645 
L 227.898514 7.416402 
L 227.464046 7.406408 
L 227.029577 7.397663 
L 226.595109 7.390168 
L 226.16064 7.383921 
L 225.726171 7.378924 
L 225.291703 7.375176 
L 224.857234 7.372678 
L 224.422766 7.371429 
L 223.988297 7.371429 
L 223.553829 7.372678 
L 223.11936 7.375176 
L 222.684891 7.378924 
L 222.250423 7.383921 
L 221.815954 7.390168 
L 221.381486 7.397663 
L 220.947017 7.406408 
L 220.512549 7.416402 
L 220.07808 7.427645 
L 219.643611 7.440138 
L 219.209143 7.45388 
L 218.774674 7.468871 
L 218.340206 7.485111 
L 217.905737 7.502601 
L 217.471269 7.52134 
L 217.0368 7.541328 
L 216.602331 7.562566 
L 216.167863 7.585052 
L 215.733394 7.608788 
L 215.298926 7.633774 
L 214.864457 7.660008 
L 214.429989 7.687492 
L 213.99552 7.716225 
L 213.561051 7.746207 
L 213.126583 7.777439 
L 212.692114 7.80992 
L 212.257646 7.84365 
L 211.823177 7.878629 
L 211.388709 7.914858 
L 210.95424 7.952335 
L 210.519771 7.991063 
L 210.085303 8.031039 
L 209.650834 8.072265 
L 209.216366 8.114739 
L 208.781897 8.158464 
L 208.347429 8.203437 
L 207.91296 8.24966 
L 207.478491 8.297132 
L 207.044023 8.345853 
L 206.609554 8.395823 
L 206.175086 8.447043 
L 205.740617 8.499512 
L 205.306149 8.55323 
L 204.87168 8.608198 
L 204.437211 8.664415 
L 204.002743 8.721881 
L 203.568274 8.780596 
L 203.133806 8.840561 
L 202.699337 8.901775 
L 202.264869 8.964238 
L 201.8304 9.02795 
L 201.395931 9.092912 
L 200.961463 9.159123 
L 200.526994 9.226583 
L 200.092526 9.295292 
L 199.658057 9.365251 
L 199.223589 9.436459 
L 198.78912 9.508916 
L 198.354651 9.582622 
L 197.920183 9.657578 
L 197.485714 9.733783 
L 197.051246 9.811237 
L 196.616777 9.889941 
L 196.182309 9.969894 
L 195.74784 10.051096 
L 195.313371 10.133547 
L 194.878903 10.217248 
L 194.444434 10.302197 
L 194.009966 10.388396 
L 193.575497 10.475845 
L 193.141029 10.564542 
L 192.70656 10.654489 
L 192.272091 10.745685 
L 191.837623 10.838131 
L 191.403154 10.931825 
L 190.968686 11.026769 
L 190.534217 11.122963 
L 190.099749 11.220405 
L 189.66528 11.319097 
L 189.230811 11.419038 
L 188.796343 11.520228 
L 188.361874 11.622667 
L 187.927406 11.726356 
L 187.492937 11.831294 
L 187.058469 11.937481 
L 186.624 12.044918 
L 186.189531 12.153604 
L 185.755063 12.263539 
L 185.320594 12.374723 
L 184.886126 12.487157 
L 184.451657 12.60084 
L 184.017189 12.715772 
L 183.58272 12.831953 
L 183.148251 12.949384 
L 182.713783 13.068064 
L 182.279314 13.187993 
L 181.844846 13.309171 
L 181.410377 13.431599 
L 180.975909 13.555276 
L 180.54144 13.680202 
L 180.106971 13.806377 
L 179.672503 13.933802 
L 179.238034 14.062476 
L 178.803566 14.192399 
L 178.369097 14.323572 
L 177.934629 14.455994 
L 177.50016 14.589665 
L 177.065691 14.724585 
L 176.631223 14.860755 
L 176.196754 14.998173 
L 175.762286 15.136841 
L 175.327817 15.276759 
L 174.893349 15.417925 
L 174.45888 15.560341 
L 174.024411 15.704006 
L 173.589943 15.848921 
L 173.155474 15.995085 
L 172.721006 16.142497 
L 172.286537 16.29116 
L 171.852069 16.441071 
L 171.4176 16.592232 
L 170.983131 16.744642 
L 170.548663 16.898301 
L 170.114194 17.053209 
L 169.679726 17.209367 
L 169.245257 17.366774 
L 168.810789 17.525431 
L 168.37632 17.685336 
L 167.941851 17.846491 
L 167.507383 18.008895 
L 167.072914 18.172548 
L 166.638446 18.337451 
L 166.203977 18.503603 
L 165.769509 18.671004 
L 165.33504 18.839654 
L 164.900571 19.009554 
L 164.466103 19.180703 
L 164.031634 19.353101 
L 163.597166 19.526748 
L 163.162697 19.701645 
L 162.728229 19.877791 
L 162.29376 20.055186 
L 161.859291 20.233831 
L 161.424823 20.413724 
L 160.990354 20.594867 
L 160.555886 20.77726 
L 160.121417 20.960901 
L 159.686949 21.145792 
L 159.25248 21.331932 
L 158.818011 21.519321 
L 158.383543 21.70796 
L 157.949074 21.897848 
L 157.514606 22.088985 
L 157.080137 22.281371 
L 156.645669 22.475007 
L 156.2112 22.669892 
L 155.776731 22.866026 
L 155.342263 23.063409 
L 154.907794 23.262042 
L 154.473326 23.461924 
L 154.038857 23.663055 
L 153.604389 23.865435 
L 153.16992 24.069065 
L 152.735451 24.273944 
L 152.300983 24.480072 
L 151.866514 24.68745 
L 151.432046 24.896077 
L 150.997577 25.105953 
L 150.563109 25.317078 
L 150.12864 25.529452 
L 149.694171 25.743076 
L 149.259703 25.957949 
L 148.825234 26.174072 
L 148.390766 26.391443 
L 147.956297 26.610064 
L 147.521829 26.829934 
L 147.08736 27.051054 
L 146.652891 27.273422 
L 146.218423 27.49704 
L 145.783954 27.721907 
L 145.349486 27.948024 
L 144.915017 28.175389 
L 144.480549 28.404004 
L 144.04608 28.633869 
L 143.611611 28.864982 
L 143.177143 29.097345 
L 142.742674 29.330957 
L 142.308206 29.565818 
L 141.873737 29.801929 
L 141.439269 30.039288 
L 141.0048 30.277898 
L 140.570331 30.517756 
L 140.135863 30.758863 
L 139.701394 31.00122 
L 139.266926 31.244826 
L 138.832457 31.489682 
L 138.397989 31.735786 
L 137.96352 31.98314 
L 137.529051 32.231743 
L 137.094583 32.481596 
L 136.660114 32.732697 
L 136.225646 32.985048 
L 135.791177 33.238649 
L 135.356709 33.493498 
L 134.92224 33.749597 
L 134.487771 34.006945 
L 134.053303 34.265542 
L 133.618834 34.525389 
L 133.184366 34.786484 
L 132.749897 35.048829 
L 132.315429 35.312424 
L 131.88096 35.577267 
L 131.446491 35.84336 
L 131.012023 36.110702 
L 130.577554 36.379293 
L 130.143086 36.649134 
L 129.708617 36.920224 
L 129.274149 37.192563 
L 128.83968 37.466151 
L 128.405211 37.740989 
L 127.970743 38.017076 
L 127.536274 38.294412 
L 127.101806 38.572998 
L 126.667337 38.852832 
L 126.232869 39.133916 
L 125.7984 39.416249 
L 125.363931 39.699832 
L 124.929463 39.984664 
L 124.494994 40.270745 
L 124.060526 40.558075 
L 123.626057 40.846654 
L 123.191589 41.136483 
L 122.75712 41.427561 
L 122.322651 41.719889 
L 121.888183 42.013465 
L 121.453714 42.308291 
L 121.019246 42.604366 
L 120.584777 42.901691 
L 120.150309 43.200264 
L 119.71584 43.500087 
L 119.281371 43.801159 
L 118.846903 44.103481 
L 118.412434 44.407051 
L 117.977966 44.711871 
L 117.543497 45.01794 
L 117.109029 45.325259 
L 116.67456 45.633827 
L 116.240091 45.943644 
L 115.805623 46.25471 
L 115.371154 46.567025 
L 114.936686 46.88059 
L 114.502217 47.195404 
L 114.067749 47.511468 
L 113.63328 47.82878 
L 113.198811 48.147342 
L 112.764343 48.467153 
L 112.329874 48.788213 
L 111.895406 49.110523 
L 111.460937 49.434082 
L 111.026469 49.75889 
L 110.592 50.084947 
L 110.157531 50.412254 
L 109.723063 50.74081 
L 109.288594 51.070615 
L 108.854126 51.40167 
L 108.419657 51.733973 
L 107.985189 52.067526 
L 107.55072 52.402328 
L 107.116251 52.73838 
L 106.681783 53.075681 
L 106.247314 53.414231 
L 105.812846 53.75403 
L 105.378377 54.095079 
L 104.943909 54.437376 
L 104.50944 54.780923 
L 104.074971 55.12572 
L 103.640503 55.471765 
L 103.206034 55.81906 
L 102.771566 56.167604 
L 102.337097 56.517398 
L 101.902629 56.86844 
L 101.46816 57.220732 
L 101.033691 57.574273 
L 100.599223 57.929064 
L 100.164754 58.285103 
L 99.730286 58.642392 
L 99.295817 59.000931 
L 98.861349 59.360718 
L 98.42688 59.721755 
L 97.992411 60.084041 
L 97.557943 60.447576 
L 97.123474 60.812361 
L 96.689006 61.178394 
L 96.254537 61.545677 
L 95.820069 61.91421 
L 95.3856 62.283991 
L 94.951131 62.655022 
L 94.516663 63.027302 
L 94.082194 63.400832 
L 93.647726 63.77561 
L 93.213257 64.151638 
L 92.778789 64.528915 
L 92.34432 64.907442 
L 91.909851 65.287217 
L 91.475383 65.668242 
L 91.040914 66.050516 
L 90.606446 66.43404 
L 90.171977 66.818813 
L 89.737509 67.204834 
L 89.30304 67.592106 
L 88.868571 67.980626 
L 88.434103 68.370396 
L 87.999634 68.761415 
L 87.565166 69.153683 
L 87.130697 69.547201 
L 86.696229 69.941968 
L 86.26176 70.337984 
L 85.827291 70.735249 
L 85.392823 71.133764 
L 84.958354 71.533527 
L 84.523886 71.934541 
L 84.089417 72.336803 
L 83.654949 72.740315 
L 83.22048 73.145076 
L 82.786011 73.551086 
L 82.351543 73.958345 
L 81.917074 74.366854 
L 81.482606 74.776612 
L 81.048137 75.187619 
L 80.613669 75.599875 
L 80.1792 76.013381 
L 79.744731 76.428136 
L 79.310263 76.84414 
L 78.875794 77.261394 
L 78.441326 77.679897 
L 78.006857 78.099649 
L 77.572389 78.52065 
L 77.13792 78.942901 
L 76.703451 79.366401 
L 76.268983 79.79115 
L 75.834514 80.217148 
L 75.400046 80.644396 
L 74.965577 81.072893 
L 74.531109 81.502639 
L 74.09664 81.933634 
L 73.662171 82.365879 
z
" style="fill:#0000ff;fill-opacity:0.1;stroke:#0000ff;stroke-opacity:0.1;"/>
    <path clip-path="url(#p96ae8eb338)" d="M 333.039909 46.25471 
L 333.039909 119.34529 
L 333.474377 119.032975 
L 333.908846 118.71941 
L 334.343314 118.404596 
L 334.777783 118.088532 
L 335.212251 117.77122 
L 335.64672 117.452658 
L 336.081189 117.132847 
L 336.515657 116.811787 
L 336.950126 116.489477 
L 337.384594 116.165918 
L 337.819063 115.84111 
L 338.253531 115.515053 
L 338.688 115.187746 
L 339.122469 114.85919 
L 339.556937 114.529385 
L 339.991406 114.19833 
L 340.425874 113.866027 
L 340.860343 113.532474 
L 341.294811 113.197672 
L 341.72928 112.86162 
L 342.163749 112.524319 
L 342.598217 112.185769 
L 343.032686 111.84597 
L 343.467154 111.504921 
L 343.901623 111.162624 
L 344.336091 110.819077 
L 344.77056 110.47428 
L 345.205029 110.128235 
L 345.639497 109.78094 
L 346.073966 109.432396 
L 346.508434 109.082602 
L 346.942903 108.73156 
L 347.377371 108.379268 
L 347.81184 108.025727 
L 348.246309 107.670936 
L 348.680777 107.314897 
L 349.115246 106.957608 
L 349.549714 106.599069 
L 349.984183 106.239282 
L 350.418651 105.878245 
L 350.85312 105.515959 
L 351.287589 105.152424 
L 351.722057 104.787639 
L 352.156526 104.421606 
L 352.590994 104.054323 
L 353.025463 103.68579 
L 353.459931 103.316009 
L 353.8944 102.944978 
L 354.328869 102.572698 
L 354.763337 102.199168 
L 355.197806 101.82439 
L 355.632274 101.448362 
L 356.066743 101.071085 
L 356.501211 100.692558 
L 356.93568 100.312783 
L 357.370149 99.931758 
L 357.804617 99.549484 
L 358.239086 99.16596 
L 358.673554 98.781187 
L 359.108023 98.395166 
L 359.542491 98.007894 
L 359.542491 67.592106 
L 359.542491 67.592106 
L 359.108023 67.204834 
L 358.673554 66.818813 
L 358.239086 66.43404 
L 357.804617 66.050516 
L 357.370149 65.668242 
L 356.93568 65.287217 
L 356.501211 64.907442 
L 356.066743 64.528915 
L 355.632274 64.151638 
L 355.197806 63.77561 
L 354.763337 63.400832 
L 354.328869 63.027302 
L 353.8944 62.655022 
L 353.459931 62.283991 
L 353.025463 61.91421 
L 352.590994 61.545677 
L 352.156526 61.178394 
L 351.722057 60.812361 
L 351.287589 60.447576 
L 350.85312 60.084041 
L 350.418651 59.721755 
L 349.984183 59.360718 
L 349.549714 59.000931 
L 349.115246 58.642392 
L 348.680777 58.285103 
L 348.246309 57.929064 
L 347.81184 57.574273 
L 347.377371 57.220732 
L 346.942903 56.86844 
L 346.508434 56.517398 
L 346.073966 56.167604 
L 345.639497 55.81906 
L 345.205029 55.471765 
L 344.77056 55.12572 
L 344.336091 54.780923 
L 343.901623 54.437376 
L 343.467154 54.095079 
L 343.032686 53.75403 
L 342.598217 53.414231 
L 342.163749 53.075681 
L 341.72928 52.73838 
L 341.294811 52.402328 
L 340.860343 52.067526 
L 340.425874 51.733973 
L 339.991406 51.40167 
L 339.556937 51.070615 
L 339.122469 50.74081 
L 338.688 50.412254 
L 338.253531 50.084947 
L 337.819063 49.75889 
L 337.384594 49.434082 
L 336.950126 49.110523 
L 336.515657 48.788213 
L 336.081189 48.467153 
L 335.64672 48.147342 
L 335.212251 47.82878 
L 334.777783 47.511468 
L 334.343314 47.195404 
L 333.908846 46.88059 
L 333.474377 46.567025 
L 333.039909 46.25471 
z
" style="fill:#0000ff;fill-opacity:0.1;stroke:#0000ff;stroke-opacity:0.1;"/>
    <path clip-path="url(#p96ae8eb338)" d="M 360.411429 67.980626 
L 360.411429 97.619374 
L 360.845897 97.229604 
L 361.280366 96.838585 
L 361.714834 96.446317 
L 362.149303 96.052799 
L 362.583771 95.658032 
L 363.01824 95.262016 
L 363.452709 94.864751 
L 363.887177 94.466236 
L 364.321646 94.066473 
L 364.756114 93.665459 
L 365.190583 93.263197 
L 365.625051 92.859685 
L 366.05952 92.454924 
L 366.493989 92.048914 
L 366.928457 91.641655 
L 367.362926 91.233146 
L 367.797394 90.823388 
L 368.231863 90.412381 
L 368.666331 90.000125 
L 369.1008 89.586619 
L 369.535269 89.171864 
L 369.969737 88.75586 
L 370.404206 88.338606 
L 370.838674 87.920103 
L 371.273143 87.500351 
L 371.707611 87.07935 
L 372.14208 86.657099 
L 372.576549 86.233599 
L 373.011017 85.80885 
L 373.445486 85.382852 
L 373.879954 84.955604 
L 374.314423 84.527107 
L 374.748891 84.097361 
L 375.18336 83.666366 
L 375.617829 83.234121 
L 375.617829 82.365879 
L 375.617829 82.365879 
L 375.18336 81.933634 
L 374.748891 81.502639 
L 374.314423 81.072893 
L 373.879954 80.644396 
L 373.445486 80.217148 
L 373.011017 79.79115 
L 372.576549 79.366401 
L 372.14208 78.942901 
L 371.707611 78.52065 
L 371.273143 78.099649 
L 370.838674 77.679897 
L 370.404206 77.261394 
L 369.969737 76.84414 
L 369.535269 76.428136 
L 369.1008 76.013381 
L 368.666331 75.599875 
L 368.231863 75.187619 
L 367.797394 74.776612 
L 367.362926 74.366854 
L 366.928457 73.958345 
L 366.493989 73.551086 
L 366.05952 73.145076 
L 365.625051 72.740315 
L 365.190583 72.336803 
L 364.756114 71.934541 
L 364.321646 71.533527 
L 363.887177 71.133764 
L 363.452709 70.735249 
L 363.01824 70.337984 
L 362.583771 69.941968 
L 362.149303 69.547201 
L 361.714834 69.153683 
L 361.280366 68.761415 
L 360.845897 68.370396 
L 360.411429 67.980626 
z
" style="fill:#0000ff;fill-opacity:0.1;stroke:#0000ff;stroke-opacity:0.1;"/>
   </g>
   <g id="matplotlib.axis_1">
    <g id="xtick_1">
     <g id="line2d_1">
      <defs>
       <path d="M 0 0 
L 0 3.5 
" id="mef6cc05165" style="stroke:#000000;stroke-width:0.8;"/>
      </defs>
      <g>
       <use style="stroke:#000000;stroke-width:0.8;" x="77.789623" xlink:href="#mef6cc05165" y="162"/>
      </g>
     </g>
     <g id="text_1">
      <!-- 1960 -->
      <g transform="translate(65.064623 176.598438)scale(0.1 -0.1)">
       <defs>
        <path d="M 794 531 
L 1825 531 
L 1825 4091 
L 703 3866 
L 703 4441 
L 1819 4666 
L 2450 4666 
L 2450 531 
L 3481 531 
L 3481 0 
L 794 0 
L 794 531 
z
" id="DejaVuSans-31" transform="scale(0.015625)"/>
        <path d="M 703 97 
L 703 672 
Q 941 559 1184 500 
Q 1428 441 1663 441 
Q 2288 441 2617 861 
Q 2947 1281 2994 2138 
Q 2813 1869 2534 1725 
Q 2256 1581 1919 1581 
Q 1219 1581 811 2004 
Q 403 2428 403 3163 
Q 403 3881 828 4315 
Q 1253 4750 1959 4750 
Q 2769 4750 3195 4129 
Q 3622 3509 3622 2328 
Q 3622 1225 3098 567 
Q 2575 -91 1691 -91 
Q 1453 -91 1209 -44 
Q 966 3 703 97 
z
M 1959 2075 
Q 2384 2075 2632 2365 
Q 2881 2656 2881 3163 
Q 2881 3666 2632 3958 
Q 2384 4250 1959 4250 
Q 1534 4250 1286 3958 
Q 1038 3666 1038 3163 
Q 1038 2656 1286 2365 
Q 1534 2075 1959 2075 
z
" id="DejaVuSans-39" transform="scale(0.015625)"/>
        <path d="M 2113 2584 
Q 1688 2584 1439 2293 
Q 1191 2003 1191 1497 
Q 1191 994 1439 701 
Q 1688 409 2113 409 
Q 2538 409 2786 701 
Q 3034 994 3034 1497 
Q 3034 2003 2786 2293 
Q 2538 2584 2113 2584 
z
M 3366 4563 
L 3366 3988 
Q 3128 4100 2886 4159 
Q 2644 4219 2406 4219 
Q 1781 4219 1451 3797 
Q 1122 3375 1075 2522 
Q 1259 2794 1537 2939 
Q 1816 3084 2150 3084 
Q 2853 3084 3261 2657 
Q 3669 2231 3669 1497 
Q 3669 778 3244 343 
Q 2819 -91 2113 -91 
Q 1303 -91 875 529 
Q 447 1150 447 2328 
Q 447 3434 972 4092 
Q 1497 4750 2381 4750 
Q 2619 4750 2861 4703 
Q 3103 4656 3366 4563 
z
" id="DejaVuSans-36" transform="scale(0.015625)"/>
        <path d="M 2034 4250 
Q 1547 4250 1301 3770 
Q 1056 3291 1056 2328 
Q 1056 1369 1301 889 
Q 1547 409 2034 409 
Q 2525 409 2770 889 
Q 3016 1369 3016 2328 
Q 3016 3291 2770 3770 
Q 2525 4250 2034 4250 
z
M 2034 4750 
Q 2819 4750 3233 4129 
Q 3647 3509 3647 2328 
Q 3647 1150 3233 529 
Q 2819 -91 2034 -91 
Q 1250 -91 836 529 
Q 422 1150 422 2328 
Q 422 3509 836 4129 
Q 1250 4750 2034 4750 
z
" id="DejaVuSans-30" transform="scale(0.015625)"/>
       </defs>
       <use xlink:href="#DejaVuSans-31"/>
       <use x="63.623047" xlink:href="#DejaVuSans-39"/>
       <use x="127.246094" xlink:href="#DejaVuSans-36"/>
       <use x="190.869141" xlink:href="#DejaVuSans-30"/>
      </g>
     </g>
    </g>
    <g id="xtick_2">
     <g id="line2d_2">
      <g>
       <use style="stroke:#000000;stroke-width:0.8;" x="129.925851" xlink:href="#mef6cc05165" y="162"/>
      </g>
     </g>
     <g id="text_2">
      <!-- 1970 -->
      <g transform="translate(117.200851 176.598438)scale(0.1 -0.1)">
       <defs>
        <path d="M 525 4666 
L 3525 4666 
L 3525 4397 
L 1831 0 
L 1172 0 
L 2766 4134 
L 525 4134 
L 525 4666 
z
" id="DejaVuSans-37" transform="scale(0.015625)"/>
       </defs>
       <use xlink:href="#DejaVuSans-31"/>
       <use x="63.623047" xlink:href="#DejaVuSans-39"/>
       <use x="127.246094" xlink:href="#DejaVuSans-37"/>
       <use x="190.869141" xlink:href="#DejaVuSans-30"/>
      </g>
     </g>
    </g>
    <g id="xtick_3">
     <g id="line2d_3">
      <g>
       <use style="stroke:#000000;stroke-width:0.8;" x="182.06208" xlink:href="#mef6cc05165" y="162"/>
      </g>
     </g>
     <g id="text_3">
      <!-- 1980 -->
      <g transform="translate(169.33708 176.598438)scale(0.1 -0.1)">
       <defs>
        <path d="M 2034 2216 
Q 1584 2216 1326 1975 
Q 1069 1734 1069 1313 
Q 1069 891 1326 650 
Q 1584 409 2034 409 
Q 2484 409 2743 651 
Q 3003 894 3003 1313 
Q 3003 1734 2745 1975 
Q 2488 2216 2034 2216 
z
M 1403 2484 
Q 997 2584 770 2862 
Q 544 3141 544 3541 
Q 544 4100 942 4425 
Q 1341 4750 2034 4750 
Q 2731 4750 3128 4425 
Q 3525 4100 3525 3541 
Q 3525 3141 3298 2862 
Q 3072 2584 2669 2484 
Q 3125 2378 3379 2068 
Q 3634 1759 3634 1313 
Q 3634 634 3220 271 
Q 2806 -91 2034 -91 
Q 1263 -91 848 271 
Q 434 634 434 1313 
Q 434 1759 690 2068 
Q 947 2378 1403 2484 
z
M 1172 3481 
Q 1172 3119 1398 2916 
Q 1625 2713 2034 2713 
Q 2441 2713 2670 2916 
Q 2900 3119 2900 3481 
Q 2900 3844 2670 4047 
Q 2441 4250 2034 4250 
Q 1625 4250 1398 4047 
Q 1172 3844 1172 3481 
z
" id="DejaVuSans-38" transform="scale(0.015625)"/>
       </defs>
       <use xlink:href="#DejaVuSans-31"/>
       <use x="63.623047" xlink:href="#DejaVuSans-39"/>
       <use x="127.246094" xlink:href="#DejaVuSans-38"/>
       <use x="190.869141" xlink:href="#DejaVuSans-30"/>
      </g>
     </g>
    </g>
    <g id="xtick_4">
     <g id="line2d_4">
      <g>
       <use style="stroke:#000000;stroke-width:0.8;" x="234.198309" xlink:href="#mef6cc05165" y="162"/>
      </g>
     </g>
     <g id="text_4">
      <!-- 1990 -->
      <g transform="translate(221.473309 176.598438)scale(0.1 -0.1)">
       <use xlink:href="#DejaVuSans-31"/>
       <use x="63.623047" xlink:href="#DejaVuSans-39"/>
       <use x="127.246094" xlink:href="#DejaVuSans-39"/>
       <use x="190.869141" xlink:href="#DejaVuSans-30"/>
      </g>
     </g>
    </g>
    <g id="xtick_5">
     <g id="line2d_5">
      <g>
       <use style="stroke:#000000;stroke-width:0.8;" x="286.334537" xlink:href="#mef6cc05165" y="162"/>
      </g>
     </g>
     <g id="text_5">
      <!-- 2000 -->
      <g transform="translate(273.609537 176.598438)scale(0.1 -0.1)">
       <defs>
        <path d="M 1228 531 
L 3431 531 
L 3431 0 
L 469 0 
L 469 531 
Q 828 903 1448 1529 
Q 2069 2156 2228 2338 
Q 2531 2678 2651 2914 
Q 2772 3150 2772 3378 
Q 2772 3750 2511 3984 
Q 2250 4219 1831 4219 
Q 1534 4219 1204 4116 
Q 875 4013 500 3803 
L 500 4441 
Q 881 4594 1212 4672 
Q 1544 4750 1819 4750 
Q 2544 4750 2975 4387 
Q 3406 4025 3406 3419 
Q 3406 3131 3298 2873 
Q 3191 2616 2906 2266 
Q 2828 2175 2409 1742 
Q 1991 1309 1228 531 
z
" id="DejaVuSans-32" transform="scale(0.015625)"/>
       </defs>
       <use xlink:href="#DejaVuSans-32"/>
       <use x="63.623047" xlink:href="#DejaVuSans-30"/>
       <use x="127.246094" xlink:href="#DejaVuSans-30"/>
       <use x="190.869141" xlink:href="#DejaVuSans-30"/>
      </g>
     </g>
    </g>
    <g id="xtick_6">
     <g id="line2d_6">
      <g>
       <use style="stroke:#000000;stroke-width:0.8;" x="338.470766" xlink:href="#mef6cc05165" y="162"/>
      </g>
     </g>
     <g id="text_6">
      <!-- 2010 -->
      <g transform="translate(325.745766 176.598438)scale(0.1 -0.1)">
       <use xlink:href="#DejaVuSans-32"/>
       <use x="63.623047" xlink:href="#DejaVuSans-30"/>
       <use x="127.246094" xlink:href="#DejaVuSans-31"/>
       <use x="190.869141" xlink:href="#DejaVuSans-30"/>
      </g>
     </g>
    </g>
    <g id="xtick_7">
     <g id="line2d_7">
      <g>
       <use style="stroke:#000000;stroke-width:0.8;" x="390.606994" xlink:href="#mef6cc05165" y="162"/>
      </g>
     </g>
     <g id="text_7">
      <!-- 2020 -->
      <g transform="translate(377.881994 176.598438)scale(0.1 -0.1)">
       <use xlink:href="#DejaVuSans-32"/>
       <use x="63.623047" xlink:href="#DejaVuSans-30"/>
       <use x="127.246094" xlink:href="#DejaVuSans-32"/>
       <use x="190.869141" xlink:href="#DejaVuSans-30"/>
      </g>
     </g>
    </g>
   </g>
   <g id="matplotlib.axis_2">
    <g id="ytick_1">
     <g id="line2d_8">
      <defs>
       <path d="M 0 0 
L -3.5 0 
" id="m6d60b6422b" style="stroke:#000000;stroke-width:0.8;"/>
      </defs>
      <g>
       <use style="stroke:#000000;stroke-width:0.8;" x="34.56" xlink:href="#m6d60b6422b" y="127.114615"/>
      </g>
     </g>
     <g id="text_8">
      <!-- −50 -->
      <g transform="translate(6.455313 130.913834)scale(0.1 -0.1)">
       <defs>
        <path d="M 678 2272 
L 4684 2272 
L 4684 1741 
L 678 1741 
L 678 2272 
z
" id="DejaVuSans-2212" transform="scale(0.015625)"/>
        <path d="M 691 4666 
L 3169 4666 
L 3169 4134 
L 1269 4134 
L 1269 2991 
Q 1406 3038 1543 3061 
Q 1681 3084 1819 3084 
Q 2600 3084 3056 2656 
Q 3513 2228 3513 1497 
Q 3513 744 3044 326 
Q 2575 -91 1722 -91 
Q 1428 -91 1123 -41 
Q 819 9 494 109 
L 494 744 
Q 775 591 1075 516 
Q 1375 441 1709 441 
Q 2250 441 2565 725 
Q 2881 1009 2881 1497 
Q 2881 1984 2565 2268 
Q 2250 2553 1709 2553 
Q 1456 2553 1204 2497 
Q 953 2441 691 2322 
L 691 4666 
z
" id="DejaVuSans-35" transform="scale(0.015625)"/>
       </defs>
       <use xlink:href="#DejaVuSans-2212"/>
       <use x="83.789062" xlink:href="#DejaVuSans-35"/>
       <use x="147.412109" xlink:href="#DejaVuSans-30"/>
      </g>
     </g>
    </g>
    <g id="ytick_2">
     <g id="line2d_9">
      <g>
       <use style="stroke:#000000;stroke-width:0.8;" x="34.56" xlink:href="#m6d60b6422b" y="82.8"/>
      </g>
     </g>
     <g id="text_9">
      <!-- 0 -->
      <g transform="translate(21.1975 86.599219)scale(0.1 -0.1)">
       <use xlink:href="#DejaVuSans-30"/>
      </g>
     </g>
    </g>
    <g id="ytick_3">
     <g id="line2d_10">
      <g>
       <use style="stroke:#000000;stroke-width:0.8;" x="34.56" xlink:href="#m6d60b6422b" y="38.485385"/>
      </g>
     </g>
     <g id="text_10">
      <!-- 50 -->
      <g transform="translate(14.835 42.284603)scale(0.1 -0.1)">
       <use xlink:href="#DejaVuSans-35"/>
       <use x="63.623047" xlink:href="#DejaVuSans-30"/>
      </g>
     </g>
    </g>
   </g>
   <g id="line2d_11">
    <path clip-path="url(#p96ae8eb338)" d="M 73.662171 82.941221 
L 74.09664 82.979546 
L 74.531109 83.440785 
L 74.965577 83.314104 
L 75.400046 83.428067 
L 75.834514 83.334645 
L 76.268983 83.643076 
L 76.703451 83.726444 
L 77.572389 83.622848 
L 80.1792 83.833652 
L 80.613669 83.60271 
L 81.482606 82.873991 
L 82.351543 82.988594 
L 82.786011 83.05907 
L 83.22048 82.989749 
L 83.654949 83.05075 
L 84.089417 82.974005 
L 84.958354 82.951716 
L 85.392823 82.94551 
L 86.26176 82.339948 
L 86.696229 82.497745 
L 87.565166 82.549179 
L 88.434103 82.80091 
L 88.868571 82.672224 
L 90.171977 82.595449 
L 91.909851 82.13774 
L 92.34432 81.939269 
L 93.647726 82.311609 
L 94.082194 82.839497 
L 94.951131 82.873758 
L 95.3856 82.601364 
L 96.254537 82.45637 
L 96.689006 82.127727 
L 97.123474 82.201255 
L 97.557943 82.147304 
L 97.992411 82.322022 
L 98.861349 82.321771 
L 99.295817 82.18752 
L 100.599223 82.302094 
L 101.033691 82.133295 
L 101.46816 82.255144 
L 102.337097 81.998352 
L 103.640503 82.405981 
L 104.074971 82.559834 
L 104.50944 82.38855 
L 105.378377 82.540468 
L 106.681783 81.969867 
L 107.55072 81.370472 
L 107.985189 81.392356 
L 108.854126 81.87228 
L 109.723063 81.987814 
L 110.157531 81.745191 
L 110.592 82.1914 
L 111.026469 82.221937 
L 111.895406 82.062757 
L 112.764343 82.190431 
L 113.198811 82.312562 
L 113.63328 82.175776 
L 114.936686 82.437435 
L 115.371154 82.336855 
L 115.805623 82.379129 
L 116.240091 82.152585 
L 116.67456 82.308065 
L 117.543497 82.246067 
L 117.977966 82.081795 
L 118.412434 82.140456 
L 118.846903 82.033344 
L 119.281371 82.059316 
L 119.71584 82.251605 
L 120.584777 82.250262 
L 121.019246 82.57764 
L 121.888183 82.38223 
L 122.322651 82.425782 
L 122.75712 82.350114 
L 124.929463 82.48772 
L 126.232869 82.571182 
L 126.667337 82.66886 
L 127.536274 82.581048 
L 128.83968 81.877653 
L 129.274149 81.949738 
L 129.708617 81.708027 
L 130.143086 81.622473 
L 130.577554 81.700584 
L 131.446491 81.570268 
L 132.315429 81.732483 
L 132.749897 81.385335 
L 133.618834 81.216048 
L 135.791177 81.135293 
L 136.225646 80.968964 
L 137.094583 81.705449 
L 137.96352 81.859367 
L 138.397989 81.906493 
L 138.832457 81.817516 
L 139.266926 81.568309 
L 140.570331 81.335918 
L 141.0048 81.379342 
L 141.439269 81.672532 
L 142.742674 81.204698 
L 143.177143 81.220743 
L 143.611611 81.091436 
L 144.04608 80.76355 
L 144.480549 80.845032 
L 147.08736 80.536679 
L 148.825234 81.263164 
L 150.997577 81.222887 
L 151.432046 81.120096 
L 152.300983 81.34954 
L 153.16992 81.209726 
L 153.604389 81.065003 
L 154.038857 81.187897 
L 155.776731 81.03488 
L 156.645669 81.502696 
L 157.949074 81.778648 
L 158.383543 81.930059 
L 159.25248 82.55201 
L 159.686949 82.693237 
L 160.555886 82.615117 
L 160.990354 82.446676 
L 163.597166 82.546462 
L 164.031634 82.757717 
L 165.769509 82.533109 
L 166.638446 82.748621 
L 167.072914 82.925601 
L 167.941851 82.862842 
L 168.810789 83.300527 
L 169.679726 83.37942 
L 170.114194 83.48764 
L 170.548663 83.720004 
L 172.286537 83.710391 
L 172.721006 84.3486 
L 173.155474 84.545045 
L 173.589943 85.075564 
L 174.024411 85.284836 
L 174.45888 85.22519 
L 174.893349 84.904246 
L 175.327817 84.803959 
L 175.762286 84.827484 
L 176.196754 84.738708 
L 176.631223 84.973822 
L 177.065691 85.373016 
L 177.934629 85.882055 
L 178.369097 86.450748 
L 178.803566 86.284802 
L 180.106971 86.720255 
L 180.54144 86.662457 
L 182.279314 87.090916 
L 183.148251 87.878058 
L 183.58272 87.911413 
L 184.017189 88.321295 
L 184.451657 88.397436 
L 184.886126 88.339403 
L 185.320594 88.650845 
L 185.755063 88.66681 
L 186.624 88.867491 
L 187.058469 88.929066 
L 188.796343 89.892335 
L 189.230811 89.908779 
L 190.534217 90.312428 
L 191.403154 90.157057 
L 192.272091 90.576777 
L 192.70656 90.920727 
L 193.141029 90.83735 
L 194.009966 91.572134 
L 194.444434 91.931759 
L 194.878903 92.056894 
L 195.313371 92.516836 
L 195.74784 92.508123 
L 196.182309 92.936071 
L 196.616777 92.870541 
L 197.051246 92.932476 
L 197.485714 93.149468 
L 198.78912 93.244258 
L 199.223589 93.401216 
L 199.658057 93.237603 
L 200.961463 93.667814 
L 202.699337 93.580394 
L 203.133806 93.495205 
L 204.437211 93.654496 
L 204.87168 93.39916 
L 205.740617 93.722551 
L 206.175086 93.962978 
L 207.91296 93.871163 
L 209.216366 94.664417 
L 210.085303 94.693155 
L 212.257646 94.838397 
L 213.561051 95.315088 
L 213.99552 95.334965 
L 214.429989 95.656301 
L 214.864457 95.528289 
L 215.733394 95.822495 
L 216.167863 95.825794 
L 217.905737 96.345456 
L 218.340206 96.398154 
L 218.774674 96.221985 
L 220.07808 96.390956 
L 220.947017 96.719683 
L 221.815954 97.001951 
L 222.250423 97.340441 
L 223.11936 97.452927 
L 225.291703 97.626215 
L 226.595109 97.388688 
L 227.029577 97.451577 
L 227.898514 97.375696 
L 228.332983 97.396307 
L 228.767451 97.263438 
L 229.20192 97.333053 
L 230.070857 97.205715 
L 231.374263 97.566292 
L 231.808731 97.695794 
L 233.112137 97.117422 
L 234.415543 97.315704 
L 234.850011 97.334147 
L 235.718949 97.060501 
L 236.153417 97.129388 
L 237.022354 96.425189 
L 237.456823 96.566187 
L 237.891291 96.515383 
L 238.760229 96.784569 
L 239.194697 96.596808 
L 239.629166 96.671322 
L 241.801509 96.377901 
L 242.235977 96.602898 
L 243.104914 96.62882 
L 243.539383 96.752351 
L 243.973851 96.621535 
L 244.40832 96.613378 
L 244.842789 96.331567 
L 245.711726 96.201444 
L 247.4496 95.773926 
L 248.318537 95.62937 
L 248.753006 95.758687 
L 249.621943 95.600867 
L 250.056411 95.763483 
L 250.49088 95.406109 
L 251.359817 95.294302 
L 252.228754 95.511303 
L 253.966629 95.92388 
L 254.835566 96.019913 
L 255.704503 96.062787 
L 256.138971 95.990461 
L 256.57344 95.67982 
L 257.442377 95.69172 
L 260.049189 95.919262 
L 261.352594 96.417891 
L 262.221531 96.733651 
L 262.656 96.884666 
L 263.524937 97.432788 
L 263.959406 97.268618 
L 264.828343 96.725746 
L 265.262811 96.785793 
L 265.69728 96.591273 
L 266.131749 96.635003 
L 266.566217 96.813235 
L 267.000686 96.767441 
L 267.435154 97.099766 
L 268.304091 97.273245 
L 269.173029 97.058552 
L 270.041966 97.257253 
L 270.910903 96.819808 
L 271.345371 96.867764 
L 271.77984 97.078031 
L 272.214309 97.010095 
L 273.083246 97.257771 
L 273.952183 97.04745 
L 275.255589 97.260615 
L 276.558994 97.122415 
L 276.993463 96.925173 
L 277.427931 96.602931 
L 277.8624 96.7222 
L 278.731337 96.387258 
L 279.165806 96.615123 
L 283.510491 96.874695 
L 283.94496 97.252028 
L 284.379429 97.461004 
L 285.682834 97.710753 
L 286.117303 97.958418 
L 287.420709 97.551894 
L 288.289646 97.36061 
L 288.724114 97.602515 
L 289.593051 97.438242 
L 290.02752 97.0524 
L 291.330926 96.833462 
L 291.765394 96.827011 
L 292.199863 96.943028 
L 292.634331 96.708806 
L 293.0688 96.706678 
L 293.503269 97.078234 
L 295.241143 96.677441 
L 296.544549 96.155365 
L 297.847954 95.773466 
L 298.282423 95.454336 
L 299.15136 95.243943 
L 300.020297 95.04239 
L 301.323703 95.454667 
L 301.758171 95.381144 
L 302.19264 95.489767 
L 303.061577 95.415293 
L 303.930514 95.178576 
L 304.364983 95.217357 
L 304.799451 94.876107 
L 305.668389 94.799993 
L 306.971794 94.799779 
L 307.840731 94.464049 
L 308.2752 94.384373 
L 308.709669 94.06042 
L 309.144137 94.005535 
L 310.013074 93.6979 
L 310.447543 94.019792 
L 311.31648 93.979131 
L 311.750949 93.718796 
L 312.185417 93.727719 
L 312.619886 93.867439 
L 313.488823 93.568762 
L 314.35776 92.641912 
L 314.792229 92.531919 
L 315.661166 92.11284 
L 316.095634 92.47809 
L 316.530103 92.044115 
L 317.39904 91.528147 
L 317.833509 90.944902 
L 318.267977 90.611342 
L 319.136914 90.57612 
L 320.005851 90.17912 
L 320.44032 90.158564 
L 320.874789 89.862955 
L 321.743726 89.655952 
L 323.047131 89.204851 
L 323.916069 88.563398 
L 324.785006 87.772371 
L 325.653943 87.259158 
L 326.088411 87.047736 
L 326.52288 86.676595 
L 326.957349 86.484756 
L 327.826286 85.932207 
L 328.260754 85.728819 
L 329.998629 83.979585 
L 330.867566 82.706277 
L 331.302034 82.588539 
L 331.736503 82.59326 
L 332.170971 82.94647 
M 333.039909 83.034011 
L 333.908846 82.799796 
L 334.343314 82.724829 
L 335.212251 82.898595 
L 335.64672 82.743074 
L 336.515657 83.235866 
L 337.819063 83.266915 
L 338.688 83.089435 
L 339.122469 83.134251 
L 339.556937 82.857508 
L 340.425874 82.841933 
L 340.860343 83.202793 
L 341.72928 83.290402 
L 342.598217 83.252688 
L 343.032686 83.472827 
L 345.205029 82.7701 
L 345.639497 82.527786 
L 346.073966 82.583878 
L 347.377371 83.102138 
L 347.81184 82.90006 
L 348.680777 82.813362 
L 349.984183 82.375312 
L 350.85312 82.692208 
L 351.722057 82.730931 
L 352.156526 82.518402 
L 352.590994 82.47548 
L 354.328869 82.742455 
L 355.632274 82.669656 
L 356.501211 82.527886 
L 356.93568 82.64203 
L 357.370149 83.003391 
L 357.804617 83.0776 
L 359.542491 82.840526 
M 360.411429 82.791709 
L 360.845897 82.867476 
L 361.280366 82.554354 
L 362.149303 82.270748 
L 362.583771 82.351876 
L 363.01824 82.608581 
L 363.887177 82.836683 
L 364.756114 82.720772 
L 365.190583 82.505652 
L 365.625051 82.461415 
L 366.05952 82.570965 
L 366.493989 82.357272 
L 366.928457 82.337002 
L 368.231863 82.985685 
L 369.535269 83.047326 
L 369.969737 83.117541 
L 370.404206 82.951184 
L 371.273143 82.934801 
L 371.707611 82.790626 
L 372.14208 82.942861 
L 373.011017 82.985483 
L 373.445486 83.422654 
L 374.748891 83.062013 
L 375.18336 82.833675 
L 375.617829 82.8 
L 375.617829 82.8 
" style="fill:none;stroke:#1f77b4;stroke-linecap:square;stroke-width:1.5;"/>
   </g>
   <g id="line2d_12">
    <path clip-path="url(#p96ae8eb338)" d="M 34.56 82.8 
L 414.72 82.8 
" style="fill:none;stroke:#000000;stroke-dasharray:1.5,2.475;stroke-dashoffset:0;stroke-width:1.5;"/>
   </g>
   <g id="patch_3">
    <path d="M 34.56 162 
L 34.56 3.6 
" style="fill:none;stroke:#000000;stroke-linecap:square;stroke-linejoin:miter;stroke-width:0.8;"/>
   </g>
   <g id="patch_4">
    <path d="M 414.72 162 
L 414.72 3.6 
" style="fill:none;stroke:#000000;stroke-linecap:square;stroke-linejoin:miter;stroke-width:0.8;"/>
   </g>
   <g id="patch_5">
    <path d="M 34.56 162 
L 414.72 162 
" style="fill:none;stroke:#000000;stroke-linecap:square;stroke-linejoin:miter;stroke-width:0.8;"/>
   </g>
   <g id="patch_6">
    <path d="M 34.56 3.6 
L 414.72 3.6 
" style="fill:none;stroke:#000000;stroke-linecap:square;stroke-linejoin:miter;stroke-width:0.8;"/>
   </g>
  </g>
 </g>
 <defs>
  <clipPath id="p96ae8eb338">
   <rect height="158.4" width="380.16" x="34.56" y="3.6"/>
  </clipPath>
 </defs>
</svg>
