<?xml version="1.0" encoding="utf-8" standalone="no"?>
<!DOCTYPE svg PUBLIC "-//W3C//DTD SVG 1.1//EN"
  "http://www.w3.org/Graphics/SVG/1.1/DTD/svg11.dtd">
<svg height="180pt" version="1.1" viewBox="0 0 432 180" width="432pt" xmlns="http://www.w3.org/2000/svg" xmlns:xlink="http://www.w3.org/1999/xlink">
 <metadata>
  <rdf:RDF xmlns:cc="http://creativecommons.org/ns#" xmlns:dc="http://purl.org/dc/elements/1.1/" xmlns:rdf="http://www.w3.org/1999/02/22-rdf-syntax-ns#">
   <cc:Work>
    <dc:type rdf:resource="http://purl.org/dc/dcmitype/StillImage"/>
    <dc:date>2021-08-12T10:41:49.015797</dc:date>
    <dc:format>image/svg+xml</dc:format>
    <dc:creator>
     <cc:Agent>
      <dc:title>Matplotlib v3.4.2, https://matplotlib.org/</dc:title>
     </cc:Agent>
    </dc:creator>
   </cc:Work>
  </rdf:RDF>
 </metadata>
 <defs>
  <style type="text/css">*{stroke-linecap:butt;stroke-linejoin:round;}</style>
 </defs>
 <g id="figure_1">
  <g id="patch_1">
   <path d="M 0 180 
L 432 180 
L 432 0 
L 0 0 
z
" style="fill:#ffffff;"/>
  </g>
  <g id="axes_1">
   <g id="patch_2">
    <path d="M 34.56 162 
L 414.72 162 
L 414.72 3.6 
L 34.56 3.6 
z
" style="fill:#ffffff;"/>
   </g>
   <g id="PolyCollection_1">
    <path clip-path="url(#pdefeca8682)" d="M 68.877352 82.422858 
L 68.877352 83.177142 
L 69.258656 83.552868 
L 69.63996 83.927652 
L 70.021264 84.301492 
L 70.402568 84.67439 
L 70.783872 85.046345 
L 71.165176 85.417357 
L 71.546479 85.787426 
L 71.927783 86.156552 
L 72.309087 86.524736 
L 72.690391 86.891976 
L 73.071695 87.258274 
L 73.452999 87.623629 
L 73.834303 87.988041 
L 74.215607 88.35151 
L 74.596911 88.714036 
L 74.978215 89.07562 
L 75.359519 89.43626 
L 75.740822 89.795958 
L 76.122126 90.154713 
L 76.50343 90.512525 
L 76.884734 90.869394 
L 77.266038 91.22532 
L 77.647342 91.580304 
L 78.028646 91.934344 
L 78.40995 92.287442 
L 78.791254 92.639597 
L 79.172558 92.990809 
L 79.553862 93.341079 
L 79.935165 93.690405 
L 80.316469 94.038788 
L 80.697773 94.386229 
L 81.079077 94.732727 
L 81.460381 95.078282 
L 81.841685 95.422894 
L 82.222989 95.766563 
L 82.604293 96.10929 
L 82.985597 96.451073 
L 83.366901 96.791914 
L 83.748205 97.131812 
L 84.129509 97.470767 
L 84.510812 97.808779 
L 84.892116 98.145848 
L 85.27342 98.481975 
L 85.654724 98.817158 
L 86.036028 99.151399 
L 86.417332 99.484697 
L 86.798636 99.817052 
L 87.17994 100.148464 
L 87.561244 100.478934 
L 87.942548 100.80846 
L 88.323852 101.137044 
L 88.705155 101.464685 
L 89.086459 101.791383 
L 89.467763 102.117138 
L 89.849067 102.44195 
L 90.230371 102.765819 
L 90.611675 103.088746 
L 90.992979 103.41073 
L 91.374283 103.73177 
L 91.755587 104.051868 
L 92.136891 104.371024 
L 92.518195 104.689236 
L 92.899498 105.006505 
L 93.280802 105.322832 
L 93.662106 105.638216 
L 94.04341 105.952657 
L 94.424714 106.266155 
L 94.806018 106.57871 
L 95.187322 106.890322 
L 95.568626 107.200992 
L 95.94993 107.510718 
L 96.331234 107.819502 
L 96.712538 108.127343 
L 97.093842 108.434241 
L 97.475145 108.740196 
L 97.856449 109.045209 
L 98.237753 109.349278 
L 98.619057 109.652405 
L 99.000361 109.954589 
L 99.381665 110.25583 
L 99.762969 110.556128 
L 100.144273 110.855483 
L 100.525577 111.153895 
L 100.906881 111.451365 
L 101.288185 111.747892 
L 101.669488 112.043475 
L 102.050792 112.338116 
L 102.432096 112.631815 
L 102.8134 112.92457 
L 103.194704 113.216382 
L 103.576008 113.507252 
L 103.957312 113.797179 
L 104.338616 114.086163 
L 104.71992 114.374204 
L 105.101224 114.661302 
L 105.482528 114.947457 
L 105.863831 115.23267 
L 106.245135 115.516939 
L 106.626439 115.800266 
L 107.007743 116.08265 
L 107.389047 116.364091 
L 107.770351 116.644589 
L 108.151655 116.924145 
L 108.532959 117.202757 
L 108.914263 117.480427 
L 109.295567 117.757154 
L 109.676871 118.032938 
L 110.058175 118.307779 
L 110.439478 118.581677 
L 110.820782 118.854633 
L 111.202086 119.126645 
L 111.58339 119.397715 
L 111.964694 119.667842 
L 112.345998 119.937026 
L 112.727302 120.205267 
L 113.108606 120.472565 
L 113.48991 120.738921 
L 113.871214 121.004334 
L 114.252518 121.268803 
L 114.633821 121.53233 
L 115.015125 121.794914 
L 115.396429 122.056555 
L 115.777733 122.317254 
L 116.159037 122.577009 
L 116.540341 122.835822 
L 116.921645 123.093692 
L 117.302949 123.350619 
L 117.684253 123.606603 
L 118.065557 123.861644 
L 118.446861 124.115743 
L 118.828164 124.368898 
L 119.209468 124.621111 
L 119.590772 124.872381 
L 119.972076 125.122708 
L 120.35338 125.372092 
L 120.734684 125.620533 
L 121.115988 125.868032 
L 121.497292 126.114587 
L 121.878596 126.3602 
L 122.2599 126.60487 
L 122.641204 126.848597 
L 123.022508 127.091381 
L 123.403811 127.333222 
L 123.785115 127.574121 
L 124.166419 127.814077 
L 124.547723 128.053089 
L 124.929027 128.291159 
L 125.310331 128.528286 
L 125.691635 128.764471 
L 126.072939 128.999712 
L 126.454243 129.23401 
L 126.835547 129.467366 
L 127.216851 129.699779 
L 127.598154 129.931249 
L 127.979458 130.161776 
L 128.360762 130.39136 
L 128.742066 130.620002 
L 129.12337 130.8477 
L 129.504674 131.074456 
L 129.885978 131.300269 
L 130.267282 131.525139 
L 130.648586 131.749066 
L 131.02989 131.97205 
L 131.411194 132.194092 
L 131.792497 132.415191 
L 132.173801 132.635346 
L 132.555105 132.854559 
L 132.936409 133.072829 
L 133.317713 133.290156 
L 133.699017 133.506541 
L 134.080321 133.721982 
L 134.461625 133.936481 
L 134.842929 134.150037 
L 135.224233 134.36265 
L 135.605537 134.57432 
L 135.986841 134.785047 
L 136.368144 134.994831 
L 136.749448 135.203673 
L 137.130752 135.411572 
L 137.512056 135.618528 
L 137.89336 135.824541 
L 138.274664 136.029611 
L 138.655968 136.233738 
L 139.037272 136.436922 
L 139.418576 136.639164 
L 139.79988 136.840463 
L 140.181184 137.040819 
L 140.562487 137.240232 
L 140.943791 137.438702 
L 141.325095 137.636229 
L 141.706399 137.832814 
L 142.087703 138.028455 
L 142.469007 138.223154 
L 142.850311 138.41691 
L 143.231615 138.609723 
L 143.612919 138.801593 
L 143.994223 138.992521 
L 144.375527 139.182505 
L 144.75683 139.371547 
L 145.138134 139.559646 
L 145.519438 139.746802 
L 145.900742 139.933015 
L 146.282046 140.118285 
L 146.66335 140.302612 
L 147.044654 140.485997 
L 147.425958 140.668439 
L 147.807262 140.849938 
L 148.188566 141.030494 
L 148.56987 141.210107 
L 148.951174 141.388777 
L 149.332477 141.566505 
L 149.713781 141.743289 
L 150.095085 141.919131 
L 150.476389 142.09403 
L 150.857693 142.267986 
L 151.238997 142.440999 
L 151.620301 142.613069 
L 152.001605 142.784197 
L 152.382909 142.954382 
L 152.764213 143.123623 
L 153.145517 143.291922 
L 153.52682 143.459278 
L 153.908124 143.625692 
L 154.289428 143.791162 
L 154.670732 143.95569 
L 155.052036 144.119274 
L 155.43334 144.281916 
L 155.814644 144.443615 
L 156.195948 144.604371 
L 156.577252 144.764184 
L 156.958556 144.923055 
L 157.33986 145.080982 
L 157.721163 145.237967 
L 158.102467 145.394009 
L 158.483771 145.549108 
L 158.865075 145.703264 
L 159.246379 145.856478 
L 159.627683 146.008748 
L 160.008987 146.160076 
L 160.390291 146.31046 
L 160.771595 146.459902 
L 161.152899 146.608401 
L 161.534203 146.755958 
L 161.915507 146.902571 
L 162.29681 147.048242 
L 162.678114 147.192969 
L 163.059418 147.336754 
L 163.440722 147.479596 
L 163.822026 147.621495 
L 164.20333 147.762451 
L 164.584634 147.902465 
L 164.965938 148.041535 
L 165.347242 148.179663 
L 165.728546 148.316848 
L 166.10985 148.45309 
L 166.491153 148.588389 
L 166.872457 148.722745 
L 167.253761 148.856159 
L 167.635065 148.988629 
L 168.016369 149.120157 
L 168.397673 149.250742 
L 168.778977 149.380384 
L 169.160281 149.509083 
L 169.541585 149.63684 
L 169.922889 149.763653 
L 170.304193 149.889524 
L 170.685496 150.014452 
L 171.0668 150.138436 
L 171.448104 150.261479 
L 171.829408 150.383578 
L 172.210712 150.504734 
L 172.592016 150.624948 
L 172.97332 150.744218 
L 173.354624 150.862546 
L 173.735928 150.979931 
L 174.117232 151.096373 
L 174.498536 151.211873 
L 174.87984 151.326429 
L 175.261143 151.440043 
L 175.642447 151.552713 
L 176.023751 151.664441 
L 176.405055 151.775226 
L 176.786359 151.885068 
L 177.167663 151.993968 
L 177.548967 152.101924 
L 177.930271 152.208938 
L 178.311575 152.315009 
L 178.692879 152.420136 
L 179.074183 152.524322 
L 179.455486 152.627564 
L 179.83679 152.729863 
L 180.218094 152.83122 
L 180.599398 152.931633 
L 180.980702 153.031104 
L 181.362006 153.129632 
L 181.74331 153.227217 
L 182.124614 153.323859 
L 182.505918 153.419559 
L 182.887222 153.514315 
L 183.268526 153.608129 
L 183.649829 153.701 
L 184.031133 153.792928 
L 184.412437 153.883913 
L 184.793741 153.973955 
L 185.175045 154.063055 
L 185.556349 154.151211 
L 185.937653 154.238425 
L 186.318957 154.324696 
L 186.700261 154.410024 
L 187.081565 154.494409 
L 187.462869 154.577851 
L 187.844173 154.660351 
L 188.225476 154.741908 
L 188.60678 154.822521 
L 188.988084 154.902192 
L 189.369388 154.98092 
L 189.750692 155.058706 
L 190.131996 155.135548 
L 190.5133 155.211447 
L 190.894604 155.286404 
L 191.275908 155.360418 
L 191.657212 155.433489 
L 192.038516 155.505617 
L 192.419819 155.576802 
L 192.801123 155.647045 
L 193.182427 155.716344 
L 193.563731 155.784701 
L 193.945035 155.852115 
L 194.326339 155.918586 
L 194.707643 155.984114 
L 195.088947 156.048699 
L 195.470251 156.112342 
L 195.851555 156.175041 
L 196.232859 156.236798 
L 196.614162 156.297612 
L 196.995466 156.357483 
L 197.37677 156.416411 
L 197.758074 156.474397 
L 198.139378 156.531439 
L 198.520682 156.587539 
L 198.901986 156.642696 
L 199.28329 156.69691 
L 199.664594 156.750181 
L 200.045898 156.802509 
L 200.427202 156.853894 
L 200.808506 156.904337 
L 201.189809 156.953837 
L 201.571113 157.002393 
L 201.952417 157.050007 
L 202.333721 157.096679 
L 202.715025 157.142407 
L 203.096329 157.187192 
L 203.477633 157.231035 
L 203.858937 157.273935 
L 204.240241 157.315891 
L 204.621545 157.356905 
L 205.002849 157.396977 
L 205.384152 157.436105 
L 205.765456 157.47429 
L 206.14676 157.511533 
L 206.528064 157.547833 
L 206.909368 157.58319 
L 207.290672 157.617604 
L 207.671976 157.651075 
L 208.05328 157.683603 
L 208.434584 157.715189 
L 208.815888 157.745832 
L 209.197192 157.775531 
L 209.578495 157.804288 
L 209.959799 157.832102 
L 210.341103 157.858974 
L 210.722407 157.884902 
L 211.103711 157.909888 
L 211.485015 157.93393 
L 211.866319 157.95703 
L 212.247623 157.979187 
L 212.628927 158.000401 
L 213.010231 158.020673 
L 213.391535 158.040001 
L 213.772839 158.058387 
L 214.154142 158.07583 
L 214.535446 158.092329 
L 214.91675 158.107886 
L 214.91675 7.492114 
L 214.91675 7.492114 
L 214.535446 7.507671 
L 214.154142 7.52417 
L 213.772839 7.541613 
L 213.391535 7.559999 
L 213.010231 7.579327 
L 212.628927 7.599599 
L 212.247623 7.620813 
L 211.866319 7.64297 
L 211.485015 7.66607 
L 211.103711 7.690112 
L 210.722407 7.715098 
L 210.341103 7.741026 
L 209.959799 7.767898 
L 209.578495 7.795712 
L 209.197192 7.824469 
L 208.815888 7.854168 
L 208.434584 7.884811 
L 208.05328 7.916397 
L 207.671976 7.948925 
L 207.290672 7.982396 
L 206.909368 8.01681 
L 206.528064 8.052167 
L 206.14676 8.088467 
L 205.765456 8.12571 
L 205.384152 8.163895 
L 205.002849 8.203023 
L 204.621545 8.243095 
L 204.240241 8.284109 
L 203.858937 8.326065 
L 203.477633 8.368965 
L 203.096329 8.412808 
L 202.715025 8.457593 
L 202.333721 8.503321 
L 201.952417 8.549993 
L 201.571113 8.597607 
L 201.189809 8.646163 
L 200.808506 8.695663 
L 200.427202 8.746106 
L 200.045898 8.797491 
L 199.664594 8.849819 
L 199.28329 8.90309 
L 198.901986 8.957304 
L 198.520682 9.012461 
L 198.139378 9.068561 
L 197.758074 9.125603 
L 197.37677 9.183589 
L 196.995466 9.242517 
L 196.614162 9.302388 
L 196.232859 9.363202 
L 195.851555 9.424959 
L 195.470251 9.487658 
L 195.088947 9.551301 
L 194.707643 9.615886 
L 194.326339 9.681414 
L 193.945035 9.747885 
L 193.563731 9.815299 
L 193.182427 9.883656 
L 192.801123 9.952955 
L 192.419819 10.023198 
L 192.038516 10.094383 
L 191.657212 10.166511 
L 191.275908 10.239582 
L 190.894604 10.313596 
L 190.5133 10.388553 
L 190.131996 10.464452 
L 189.750692 10.541294 
L 189.369388 10.61908 
L 188.988084 10.697808 
L 188.60678 10.777479 
L 188.225476 10.858092 
L 187.844173 10.939649 
L 187.462869 11.022149 
L 187.081565 11.105591 
L 186.700261 11.189976 
L 186.318957 11.275304 
L 185.937653 11.361575 
L 185.556349 11.448789 
L 185.175045 11.536945 
L 184.793741 11.626045 
L 184.412437 11.716087 
L 184.031133 11.807072 
L 183.649829 11.899 
L 183.268526 11.991871 
L 182.887222 12.085685 
L 182.505918 12.180441 
L 182.124614 12.276141 
L 181.74331 12.372783 
L 181.362006 12.470368 
L 180.980702 12.568896 
L 180.599398 12.668367 
L 180.218094 12.76878 
L 179.83679 12.870137 
L 179.455486 12.972436 
L 179.074183 13.075678 
L 178.692879 13.179864 
L 178.311575 13.284991 
L 177.930271 13.391062 
L 177.548967 13.498076 
L 177.167663 13.606032 
L 176.786359 13.714932 
L 176.405055 13.824774 
L 176.023751 13.935559 
L 175.642447 14.047287 
L 175.261143 14.159957 
L 174.87984 14.273571 
L 174.498536 14.388127 
L 174.117232 14.503627 
L 173.735928 14.620069 
L 173.354624 14.737454 
L 172.97332 14.855782 
L 172.592016 14.975052 
L 172.210712 15.095266 
L 171.829408 15.216422 
L 171.448104 15.338521 
L 171.0668 15.461564 
L 170.685496 15.585548 
L 170.304193 15.710476 
L 169.922889 15.836347 
L 169.541585 15.96316 
L 169.160281 16.090917 
L 168.778977 16.219616 
L 168.397673 16.349258 
L 168.016369 16.479843 
L 167.635065 16.611371 
L 167.253761 16.743841 
L 166.872457 16.877255 
L 166.491153 17.011611 
L 166.10985 17.14691 
L 165.728546 17.283152 
L 165.347242 17.420337 
L 164.965938 17.558465 
L 164.584634 17.697535 
L 164.20333 17.837549 
L 163.822026 17.978505 
L 163.440722 18.120404 
L 163.059418 18.263246 
L 162.678114 18.407031 
L 162.29681 18.551758 
L 161.915507 18.697429 
L 161.534203 18.844042 
L 161.152899 18.991599 
L 160.771595 19.140098 
L 160.390291 19.28954 
L 160.008987 19.439924 
L 159.627683 19.591252 
L 159.246379 19.743522 
L 158.865075 19.896736 
L 158.483771 20.050892 
L 158.102467 20.205991 
L 157.721163 20.362033 
L 157.33986 20.519018 
L 156.958556 20.676945 
L 156.577252 20.835816 
L 156.195948 20.995629 
L 155.814644 21.156385 
L 155.43334 21.318084 
L 155.052036 21.480726 
L 154.670732 21.64431 
L 154.289428 21.808838 
L 153.908124 21.974308 
L 153.52682 22.140722 
L 153.145517 22.308078 
L 152.764213 22.476377 
L 152.382909 22.645618 
L 152.001605 22.815803 
L 151.620301 22.986931 
L 151.238997 23.159001 
L 150.857693 23.332014 
L 150.476389 23.50597 
L 150.095085 23.680869 
L 149.713781 23.856711 
L 149.332477 24.033495 
L 148.951174 24.211223 
L 148.56987 24.389893 
L 148.188566 24.569506 
L 147.807262 24.750062 
L 147.425958 24.931561 
L 147.044654 25.114003 
L 146.66335 25.297388 
L 146.282046 25.481715 
L 145.900742 25.666985 
L 145.519438 25.853198 
L 145.138134 26.040354 
L 144.75683 26.228453 
L 144.375527 26.417495 
L 143.994223 26.607479 
L 143.612919 26.798407 
L 143.231615 26.990277 
L 142.850311 27.18309 
L 142.469007 27.376846 
L 142.087703 27.571545 
L 141.706399 27.767186 
L 141.325095 27.963771 
L 140.943791 28.161298 
L 140.562487 28.359768 
L 140.181184 28.559181 
L 139.79988 28.759537 
L 139.418576 28.960836 
L 139.037272 29.163078 
L 138.655968 29.366262 
L 138.274664 29.570389 
L 137.89336 29.775459 
L 137.512056 29.981472 
L 137.130752 30.188428 
L 136.749448 30.396327 
L 136.368144 30.605169 
L 135.986841 30.814953 
L 135.605537 31.02568 
L 135.224233 31.23735 
L 134.842929 31.449963 
L 134.461625 31.663519 
L 134.080321 31.878018 
L 133.699017 32.093459 
L 133.317713 32.309844 
L 132.936409 32.527171 
L 132.555105 32.745441 
L 132.173801 32.964654 
L 131.792497 33.184809 
L 131.411194 33.405908 
L 131.02989 33.62795 
L 130.648586 33.850934 
L 130.267282 34.074861 
L 129.885978 34.299731 
L 129.504674 34.525544 
L 129.12337 34.7523 
L 128.742066 34.979998 
L 128.360762 35.20864 
L 127.979458 35.438224 
L 127.598154 35.668751 
L 127.216851 35.900221 
L 126.835547 36.132634 
L 126.454243 36.36599 
L 126.072939 36.600288 
L 125.691635 36.835529 
L 125.310331 37.071714 
L 124.929027 37.308841 
L 124.547723 37.546911 
L 124.166419 37.785923 
L 123.785115 38.025879 
L 123.403811 38.266778 
L 123.022508 38.508619 
L 122.641204 38.751403 
L 122.2599 38.99513 
L 121.878596 39.2398 
L 121.497292 39.485413 
L 121.115988 39.731968 
L 120.734684 39.979467 
L 120.35338 40.227908 
L 119.972076 40.477292 
L 119.590772 40.727619 
L 119.209468 40.978889 
L 118.828164 41.231102 
L 118.446861 41.484257 
L 118.065557 41.738356 
L 117.684253 41.993397 
L 117.302949 42.249381 
L 116.921645 42.506308 
L 116.540341 42.764178 
L 116.159037 43.022991 
L 115.777733 43.282746 
L 115.396429 43.543445 
L 115.015125 43.805086 
L 114.633821 44.06767 
L 114.252518 44.331197 
L 113.871214 44.595666 
L 113.48991 44.861079 
L 113.108606 45.127435 
L 112.727302 45.394733 
L 112.345998 45.662974 
L 111.964694 45.932158 
L 111.58339 46.202285 
L 111.202086 46.473355 
L 110.820782 46.745367 
L 110.439478 47.018323 
L 110.058175 47.292221 
L 109.676871 47.567062 
L 109.295567 47.842846 
L 108.914263 48.119573 
L 108.532959 48.397243 
L 108.151655 48.675855 
L 107.770351 48.955411 
L 107.389047 49.235909 
L 107.007743 49.51735 
L 106.626439 49.799734 
L 106.245135 50.083061 
L 105.863831 50.36733 
L 105.482528 50.652543 
L 105.101224 50.938698 
L 104.71992 51.225796 
L 104.338616 51.513837 
L 103.957312 51.802821 
L 103.576008 52.092748 
L 103.194704 52.383618 
L 102.8134 52.67543 
L 102.432096 52.968185 
L 102.050792 53.261884 
L 101.669488 53.556525 
L 101.288185 53.852108 
L 100.906881 54.148635 
L 100.525577 54.446105 
L 100.144273 54.744517 
L 99.762969 55.043872 
L 99.381665 55.34417 
L 99.000361 55.645411 
L 98.619057 55.947595 
L 98.237753 56.250722 
L 97.856449 56.554791 
L 97.475145 56.859804 
L 97.093842 57.165759 
L 96.712538 57.472657 
L 96.331234 57.780498 
L 95.94993 58.089282 
L 95.568626 58.399008 
L 95.187322 58.709678 
L 94.806018 59.02129 
L 94.424714 59.333845 
L 94.04341 59.647343 
L 93.662106 59.961784 
L 93.280802 60.277168 
L 92.899498 60.593495 
L 92.518195 60.910764 
L 92.136891 61.228976 
L 91.755587 61.548132 
L 91.374283 61.86823 
L 90.992979 62.18927 
L 90.611675 62.511254 
L 90.230371 62.834181 
L 89.849067 63.15805 
L 89.467763 63.482862 
L 89.086459 63.808617 
L 88.705155 64.135315 
L 88.323852 64.462956 
L 87.942548 64.79154 
L 87.561244 65.121066 
L 87.17994 65.451536 
L 86.798636 65.782948 
L 86.417332 66.115303 
L 86.036028 66.448601 
L 85.654724 66.782842 
L 85.27342 67.118025 
L 84.892116 67.454152 
L 84.510812 67.791221 
L 84.129509 68.129233 
L 83.748205 68.468188 
L 83.366901 68.808086 
L 82.985597 69.148927 
L 82.604293 69.49071 
L 82.222989 69.833437 
L 81.841685 70.177106 
L 81.460381 70.521718 
L 81.079077 70.867273 
L 80.697773 71.213771 
L 80.316469 71.561212 
L 79.935165 71.909595 
L 79.553862 72.258921 
L 79.172558 72.609191 
L 78.791254 72.960403 
L 78.40995 73.312558 
L 78.028646 73.665656 
L 77.647342 74.019696 
L 77.266038 74.37468 
L 76.884734 74.730606 
L 76.50343 75.087475 
L 76.122126 75.445287 
L 75.740822 75.804042 
L 75.359519 76.16374 
L 74.978215 76.52438 
L 74.596911 76.885964 
L 74.215607 77.24849 
L 73.834303 77.611959 
L 73.452999 77.976371 
L 73.071695 78.341726 
L 72.690391 78.708024 
L 72.309087 79.075264 
L 71.927783 79.443448 
L 71.546479 79.812574 
L 71.165176 80.182643 
L 70.783872 80.553655 
L 70.402568 80.92561 
L 70.021264 81.298508 
L 69.63996 81.672348 
L 69.258656 82.047132 
L 68.877352 82.422858 
z
" style="fill:#0000ff;fill-opacity:0.1;stroke:#0000ff;stroke-opacity:0.1;"/>
    <path clip-path="url(#pdefeca8682)" d="M 216.441966 7.477499 
L 216.441966 158.122501 
L 216.82327 158.136172 
L 217.204574 158.1489 
L 217.585878 158.160686 
L 217.967182 158.171529 
L 218.348485 158.181429 
L 218.729789 158.190386 
L 219.111093 158.1984 
L 219.492397 158.205472 
L 219.873701 158.2116 
L 220.255005 158.216786 
L 220.636309 158.221029 
L 221.017613 158.224329 
L 221.398917 158.226686 
L 221.780221 158.2281 
L 222.161525 158.228571 
L 222.542828 158.2281 
L 222.924132 158.226686 
L 223.305436 158.224329 
L 223.68674 158.221029 
L 224.068044 158.216786 
L 224.449348 158.2116 
L 224.830652 158.205472 
L 225.211956 158.1984 
L 225.59326 158.190386 
L 225.974564 158.181429 
L 226.355868 158.171529 
L 226.737172 158.160686 
L 227.118475 158.1489 
L 227.499779 158.136172 
L 227.881083 158.122501 
L 228.262387 158.107886 
L 228.643691 158.092329 
L 229.024995 158.07583 
L 229.406299 158.058387 
L 229.787603 158.040001 
L 230.168907 158.020673 
L 230.550211 158.000401 
L 230.931515 157.979187 
L 231.312818 157.95703 
L 231.694122 157.93393 
L 232.075426 157.909888 
L 232.45673 157.884902 
L 232.838034 157.858974 
L 233.219338 157.832102 
L 233.600642 157.804288 
L 233.981946 157.775531 
L 234.36325 157.745832 
L 234.744554 157.715189 
L 235.125858 157.683603 
L 235.507161 157.651075 
L 235.888465 157.617604 
L 236.269769 157.58319 
L 236.651073 157.547833 
L 237.032377 157.511533 
L 237.413681 157.47429 
L 237.794985 157.436105 
L 238.176289 157.396977 
L 238.557593 157.356905 
L 238.938897 157.315891 
L 239.320201 157.273935 
L 239.701505 157.231035 
L 240.082808 157.187192 
L 240.464112 157.142407 
L 240.845416 157.096679 
L 241.22672 157.050007 
L 241.608024 157.002393 
L 241.989328 156.953837 
L 242.370632 156.904337 
L 242.751936 156.853894 
L 243.13324 156.802509 
L 243.514544 156.750181 
L 243.895848 156.69691 
L 244.277151 156.642696 
L 244.658455 156.587539 
L 245.039759 156.531439 
L 245.421063 156.474397 
L 245.802367 156.416411 
L 246.183671 156.357483 
L 246.564975 156.297612 
L 246.946279 156.236798 
L 247.327583 156.175041 
L 247.708887 156.112342 
L 248.090191 156.048699 
L 248.471494 155.984114 
L 248.852798 155.918586 
L 249.234102 155.852115 
L 249.615406 155.784701 
L 249.99671 155.716344 
L 250.378014 155.647045 
L 250.759318 155.576802 
L 251.140622 155.505617 
L 251.521926 155.433489 
L 251.90323 155.360418 
L 252.284534 155.286404 
L 252.665838 155.211447 
L 253.047141 155.135548 
L 253.428445 155.058706 
L 253.809749 154.98092 
L 254.191053 154.902192 
L 254.572357 154.822521 
L 254.953661 154.741908 
L 255.334965 154.660351 
L 255.716269 154.577851 
L 256.097573 154.494409 
L 256.478877 154.410024 
L 256.860181 154.324696 
L 257.241484 154.238425 
L 257.622788 154.151211 
L 258.004092 154.063055 
L 258.385396 153.973955 
L 258.7667 153.883913 
L 259.148004 153.792928 
L 259.529308 153.701 
L 259.910612 153.608129 
L 260.291916 153.514315 
L 260.67322 153.419559 
L 260.67322 12.180441 
L 260.67322 12.180441 
L 260.291916 12.085685 
L 259.910612 11.991871 
L 259.529308 11.899 
L 259.148004 11.807072 
L 258.7667 11.716087 
L 258.385396 11.626045 
L 258.004092 11.536945 
L 257.622788 11.448789 
L 257.241484 11.361575 
L 256.860181 11.275304 
L 256.478877 11.189976 
L 256.097573 11.105591 
L 255.716269 11.022149 
L 255.334965 10.939649 
L 254.953661 10.858092 
L 254.572357 10.777479 
L 254.191053 10.697808 
L 253.809749 10.61908 
L 253.428445 10.541294 
L 253.047141 10.464452 
L 252.665838 10.388553 
L 252.284534 10.313596 
L 251.90323 10.239582 
L 251.521926 10.166511 
L 251.140622 10.094383 
L 250.759318 10.023198 
L 250.378014 9.952955 
L 249.99671 9.883656 
L 249.615406 9.815299 
L 249.234102 9.747885 
L 248.852798 9.681414 
L 248.471494 9.615886 
L 248.090191 9.551301 
L 247.708887 9.487658 
L 247.327583 9.424959 
L 246.946279 9.363202 
L 246.564975 9.302388 
L 246.183671 9.242517 
L 245.802367 9.183589 
L 245.421063 9.125603 
L 245.039759 9.068561 
L 244.658455 9.012461 
L 244.277151 8.957304 
L 243.895848 8.90309 
L 243.514544 8.849819 
L 243.13324 8.797491 
L 242.751936 8.746106 
L 242.370632 8.695663 
L 241.989328 8.646163 
L 241.608024 8.597607 
L 241.22672 8.549993 
L 240.845416 8.503321 
L 240.464112 8.457593 
L 240.082808 8.412808 
L 239.701505 8.368965 
L 239.320201 8.326065 
L 238.938897 8.284109 
L 238.557593 8.243095 
L 238.176289 8.203023 
L 237.794985 8.163895 
L 237.413681 8.12571 
L 237.032377 8.088467 
L 236.651073 8.052167 
L 236.269769 8.01681 
L 235.888465 7.982396 
L 235.507161 7.948925 
L 235.125858 7.916397 
L 234.744554 7.884811 
L 234.36325 7.854168 
L 233.981946 7.824469 
L 233.600642 7.795712 
L 233.219338 7.767898 
L 232.838034 7.741026 
L 232.45673 7.715098 
L 232.075426 7.690112 
L 231.694122 7.66607 
L 231.312818 7.64297 
L 230.931515 7.620813 
L 230.550211 7.599599 
L 230.168907 7.579327 
L 229.787603 7.559999 
L 229.406299 7.541613 
L 229.024995 7.52417 
L 228.643691 7.507671 
L 228.262387 7.492114 
L 227.881083 7.477499 
L 227.499779 7.463828 
L 227.118475 7.4511 
L 226.737172 7.439314 
L 226.355868 7.428471 
L 225.974564 7.418571 
L 225.59326 7.409614 
L 225.211956 7.4016 
L 224.830652 7.394528 
L 224.449348 7.3884 
L 224.068044 7.383214 
L 223.68674 7.378971 
L 223.305436 7.375671 
L 222.924132 7.373314 
L 222.542828 7.3719 
L 222.161525 7.371429 
L 221.780221 7.3719 
L 221.398917 7.373314 
L 221.017613 7.375671 
L 220.636309 7.378971 
L 220.255005 7.383214 
L 219.873701 7.3884 
L 219.492397 7.394528 
L 219.111093 7.4016 
L 218.729789 7.409614 
L 218.348485 7.418571 
L 217.967182 7.428471 
L 217.585878 7.439314 
L 217.204574 7.4511 
L 216.82327 7.463828 
L 216.441966 7.477499 
z
" style="fill:#0000ff;fill-opacity:0.1;stroke:#0000ff;stroke-opacity:0.1;"/>
    <path clip-path="url(#pdefeca8682)" d="M 266.774082 12.276141 
L 266.774082 153.323859 
L 267.155386 153.227217 
L 267.53669 153.129632 
L 267.917994 153.031104 
L 268.299298 152.931633 
L 268.680602 152.83122 
L 269.061906 152.729863 
L 269.44321 152.627564 
L 269.824514 152.524322 
L 270.205817 152.420136 
L 270.587121 152.315009 
L 270.968425 152.208938 
L 271.349729 152.101924 
L 271.731033 151.993968 
L 272.112337 151.885068 
L 272.493641 151.775226 
L 272.874945 151.664441 
L 273.256249 151.552713 
L 273.637553 151.440043 
L 274.018857 151.326429 
L 274.40016 151.211873 
L 274.781464 151.096373 
L 275.162768 150.979931 
L 275.544072 150.862546 
L 275.925376 150.744218 
L 276.30668 150.624948 
L 276.687984 150.504734 
L 277.069288 150.383578 
L 277.450592 150.261479 
L 277.831896 150.138436 
L 278.2132 150.014452 
L 278.594504 149.889524 
L 278.975807 149.763653 
L 279.357111 149.63684 
L 279.738415 149.509083 
L 280.119719 149.380384 
L 280.501023 149.250742 
L 280.882327 149.120157 
L 281.263631 148.988629 
L 281.644935 148.856159 
L 282.026239 148.722745 
L 282.407543 148.588389 
L 282.788847 148.45309 
L 283.17015 148.316848 
L 283.551454 148.179663 
L 283.932758 148.041535 
L 284.314062 147.902465 
L 284.695366 147.762451 
L 285.07667 147.621495 
L 285.457974 147.479596 
L 285.839278 147.336754 
L 286.220582 147.192969 
L 286.601886 147.048242 
L 286.98319 146.902571 
L 287.364493 146.755958 
L 287.745797 146.608401 
L 288.127101 146.459902 
L 288.508405 146.31046 
L 288.889709 146.160076 
L 289.271013 146.008748 
L 289.652317 145.856478 
L 290.033621 145.703264 
L 290.414925 145.549108 
L 290.796229 145.394009 
L 291.177533 145.237967 
L 291.558837 145.080982 
L 291.94014 144.923055 
L 292.321444 144.764184 
L 292.702748 144.604371 
L 293.084052 144.443615 
L 293.465356 144.281916 
L 293.84666 144.119274 
L 294.227964 143.95569 
L 294.609268 143.791162 
L 294.990572 143.625692 
L 295.371876 143.459278 
L 295.75318 143.291922 
L 296.134483 143.123623 
L 296.515787 142.954382 
L 296.897091 142.784197 
L 297.278395 142.613069 
L 297.659699 142.440999 
L 298.041003 142.267986 
L 298.422307 142.09403 
L 298.803611 141.919131 
L 299.184915 141.743289 
L 299.566219 141.566505 
L 299.947523 141.388777 
L 300.328826 141.210107 
L 300.71013 141.030494 
L 301.091434 140.849938 
L 301.472738 140.668439 
L 301.854042 140.485997 
L 302.235346 140.302612 
L 302.61665 140.118285 
L 302.997954 139.933015 
L 303.379258 139.746802 
L 303.760562 139.559646 
L 304.141866 139.371547 
L 304.52317 139.182505 
L 304.904473 138.992521 
L 305.285777 138.801593 
L 305.667081 138.609723 
L 306.048385 138.41691 
L 306.429689 138.223154 
L 306.810993 138.028455 
L 307.192297 137.832814 
L 307.573601 137.636229 
L 307.954905 137.438702 
L 308.336209 137.240232 
L 308.717513 137.040819 
L 308.717513 28.559181 
L 308.717513 28.559181 
L 308.336209 28.359768 
L 307.954905 28.161298 
L 307.573601 27.963771 
L 307.192297 27.767186 
L 306.810993 27.571545 
L 306.429689 27.376846 
L 306.048385 27.18309 
L 305.667081 26.990277 
L 305.285777 26.798407 
L 304.904473 26.607479 
L 304.52317 26.417495 
L 304.141866 26.228453 
L 303.760562 26.040354 
L 303.379258 25.853198 
L 302.997954 25.666985 
L 302.61665 25.481715 
L 302.235346 25.297388 
L 301.854042 25.114003 
L 301.472738 24.931561 
L 301.091434 24.750062 
L 300.71013 24.569506 
L 300.328826 24.389893 
L 299.947523 24.211223 
L 299.566219 24.033495 
L 299.184915 23.856711 
L 298.803611 23.680869 
L 298.422307 23.50597 
L 298.041003 23.332014 
L 297.659699 23.159001 
L 297.278395 22.986931 
L 296.897091 22.815803 
L 296.515787 22.645618 
L 296.134483 22.476377 
L 295.75318 22.308078 
L 295.371876 22.140722 
L 294.990572 21.974308 
L 294.609268 21.808838 
L 294.227964 21.64431 
L 293.84666 21.480726 
L 293.465356 21.318084 
L 293.084052 21.156385 
L 292.702748 20.995629 
L 292.321444 20.835816 
L 291.94014 20.676945 
L 291.558837 20.519018 
L 291.177533 20.362033 
L 290.796229 20.205991 
L 290.414925 20.050892 
L 290.033621 19.896736 
L 289.652317 19.743522 
L 289.271013 19.591252 
L 288.889709 19.439924 
L 288.508405 19.28954 
L 288.127101 19.140098 
L 287.745797 18.991599 
L 287.364493 18.844042 
L 286.98319 18.697429 
L 286.601886 18.551758 
L 286.220582 18.407031 
L 285.839278 18.263246 
L 285.457974 18.120404 
L 285.07667 17.978505 
L 284.695366 17.837549 
L 284.314062 17.697535 
L 283.932758 17.558465 
L 283.551454 17.420337 
L 283.17015 17.283152 
L 282.788847 17.14691 
L 282.407543 17.011611 
L 282.026239 16.877255 
L 281.644935 16.743841 
L 281.263631 16.611371 
L 280.882327 16.479843 
L 280.501023 16.349258 
L 280.119719 16.219616 
L 279.738415 16.090917 
L 279.357111 15.96316 
L 278.975807 15.836347 
L 278.594504 15.710476 
L 278.2132 15.585548 
L 277.831896 15.461564 
L 277.450592 15.338521 
L 277.069288 15.216422 
L 276.687984 15.095266 
L 276.30668 14.975052 
L 275.925376 14.855782 
L 275.544072 14.737454 
L 275.162768 14.620069 
L 274.781464 14.503627 
L 274.40016 14.388127 
L 274.018857 14.273571 
L 273.637553 14.159957 
L 273.256249 14.047287 
L 272.874945 13.935559 
L 272.493641 13.824774 
L 272.112337 13.714932 
L 271.731033 13.606032 
L 271.349729 13.498076 
L 270.968425 13.391062 
L 270.587121 13.284991 
L 270.205817 13.179864 
L 269.824514 13.075678 
L 269.44321 12.972436 
L 269.061906 12.870137 
L 268.680602 12.76878 
L 268.299298 12.668367 
L 267.917994 12.568896 
L 267.53669 12.470368 
L 267.155386 12.372783 
L 266.774082 12.276141 
z
" style="fill:#0000ff;fill-opacity:0.1;stroke:#0000ff;stroke-opacity:0.1;"/>
    <path clip-path="url(#pdefeca8682)" d="M 309.48012 28.759537 
L 309.48012 136.840463 
L 309.861424 136.639164 
L 310.242728 136.436922 
L 310.624032 136.233738 
L 311.005336 136.029611 
L 311.38664 135.824541 
L 311.767944 135.618528 
L 312.149248 135.411572 
L 312.530552 135.203673 
L 312.911856 134.994831 
L 313.293159 134.785047 
L 313.674463 134.57432 
L 314.055767 134.36265 
L 314.437071 134.150037 
L 314.818375 133.936481 
L 315.199679 133.721982 
L 315.580983 133.506541 
L 315.962287 133.290156 
L 316.343591 133.072829 
L 316.724895 132.854559 
L 317.106199 132.635346 
L 317.487503 132.415191 
L 317.868806 132.194092 
L 318.25011 131.97205 
L 318.631414 131.749066 
L 319.012718 131.525139 
L 319.394022 131.300269 
L 319.775326 131.074456 
L 320.15663 130.8477 
L 320.537934 130.620002 
L 320.919238 130.39136 
L 321.300542 130.161776 
L 321.681846 129.931249 
L 322.063149 129.699779 
L 322.444453 129.467366 
L 322.825757 129.23401 
L 323.207061 128.999712 
L 323.588365 128.764471 
L 323.969669 128.528286 
L 324.350973 128.291159 
L 324.732277 128.053089 
L 325.113581 127.814077 
L 325.494885 127.574121 
L 325.876189 127.333222 
L 326.257492 127.091381 
L 326.638796 126.848597 
L 327.0201 126.60487 
L 327.401404 126.3602 
L 327.782708 126.114587 
L 328.164012 125.868032 
L 328.545316 125.620533 
L 328.92662 125.372092 
L 329.307924 125.122708 
L 329.689228 124.872381 
L 330.070532 124.621111 
L 330.451836 124.368898 
L 330.833139 124.115743 
L 331.214443 123.861644 
L 331.595747 123.606603 
L 331.977051 123.350619 
L 332.358355 123.093692 
L 332.739659 122.835822 
L 333.120963 122.577009 
L 333.502267 122.317254 
L 333.883571 122.056555 
L 334.264875 121.794914 
L 334.646179 121.53233 
L 335.027482 121.268803 
L 335.408786 121.004334 
L 335.79009 120.738921 
L 336.171394 120.472565 
L 336.552698 120.205267 
L 336.934002 119.937026 
L 337.315306 119.667842 
L 337.69661 119.397715 
L 338.077914 119.126645 
L 338.459218 118.854633 
L 338.840522 118.581677 
L 339.221825 118.307779 
L 339.603129 118.032938 
L 339.984433 117.757154 
L 340.365737 117.480427 
L 340.747041 117.202757 
L 341.128345 116.924145 
L 341.509649 116.644589 
L 341.890953 116.364091 
L 342.272257 116.08265 
L 342.653561 115.800266 
L 343.034865 115.516939 
L 343.416169 115.23267 
L 343.797472 114.947457 
L 344.178776 114.661302 
L 344.56008 114.374204 
L 344.941384 114.086163 
L 345.322688 113.797179 
L 345.703992 113.507252 
L 346.085296 113.216382 
L 346.4666 112.92457 
L 346.847904 112.631815 
L 347.229208 112.338116 
L 347.610512 112.043475 
L 347.991815 111.747892 
L 348.373119 111.451365 
L 348.754423 111.153895 
L 349.135727 110.855483 
L 349.517031 110.556128 
L 349.898335 110.25583 
L 350.279639 109.954589 
L 350.660943 109.652405 
L 351.042247 109.349278 
L 351.423551 109.045209 
L 351.804855 108.740196 
L 352.186158 108.434241 
L 352.567462 108.127343 
L 352.948766 107.819502 
L 353.33007 107.510718 
L 353.711374 107.200992 
L 354.092678 106.890322 
L 354.473982 106.57871 
L 354.855286 106.266155 
L 355.23659 105.952657 
L 355.617894 105.638216 
L 355.999198 105.322832 
L 356.380502 105.006505 
L 356.761805 104.689236 
L 357.143109 104.371024 
L 357.524413 104.051868 
L 357.905717 103.73177 
L 358.287021 103.41073 
L 358.668325 103.088746 
L 359.049629 102.765819 
L 359.430933 102.44195 
L 359.812237 102.117138 
L 360.193541 101.791383 
L 360.574845 101.464685 
L 360.956148 101.137044 
L 361.337452 100.80846 
L 361.718756 100.478934 
L 362.10006 100.148464 
L 362.481364 99.817052 
L 362.862668 99.484697 
L 363.243972 99.151399 
L 363.625276 98.817158 
L 364.00658 98.481975 
L 364.387884 98.145848 
L 364.769188 97.808779 
L 365.150491 97.470767 
L 365.531795 97.131812 
L 365.913099 96.791914 
L 366.294403 96.451073 
L 366.675707 96.10929 
L 367.057011 95.766563 
L 367.438315 95.422894 
L 367.819619 95.078282 
L 368.200923 94.732727 
L 368.582227 94.386229 
L 368.963531 94.038788 
L 369.344835 93.690405 
L 369.726138 93.341079 
L 370.107442 92.990809 
L 370.488746 92.639597 
L 370.87005 92.287442 
L 371.251354 91.934344 
L 371.632658 91.580304 
L 372.013962 91.22532 
L 372.395266 90.869394 
L 372.77657 90.512525 
L 373.157874 90.154713 
L 373.539178 89.795958 
L 373.920481 89.43626 
L 374.301785 89.07562 
L 374.683089 88.714036 
L 375.064393 88.35151 
L 375.445697 87.988041 
L 375.827001 87.623629 
L 376.208305 87.258274 
L 376.589609 86.891976 
L 376.970913 86.524736 
L 377.352217 86.156552 
L 377.733521 85.787426 
L 378.114824 85.417357 
L 378.496128 85.046345 
L 378.877432 84.67439 
L 379.258736 84.301492 
L 379.64004 83.927652 
L 380.021344 83.552868 
L 380.402648 83.177142 
L 380.402648 82.422858 
L 380.402648 82.422858 
L 380.021344 82.047132 
L 379.64004 81.672348 
L 379.258736 81.298508 
L 378.877432 80.92561 
L 378.496128 80.553655 
L 378.114824 80.182643 
L 377.733521 79.812574 
L 377.352217 79.443448 
L 376.970913 79.075264 
L 376.589609 78.708024 
L 376.208305 78.341726 
L 375.827001 77.976371 
L 375.445697 77.611959 
L 375.064393 77.24849 
L 374.683089 76.885964 
L 374.301785 76.52438 
L 373.920481 76.16374 
L 373.539178 75.804042 
L 373.157874 75.445287 
L 372.77657 75.087475 
L 372.395266 74.730606 
L 372.013962 74.37468 
L 371.632658 74.019696 
L 371.251354 73.665656 
L 370.87005 73.312558 
L 370.488746 72.960403 
L 370.107442 72.609191 
L 369.726138 72.258921 
L 369.344835 71.909595 
L 368.963531 71.561212 
L 368.582227 71.213771 
L 368.200923 70.867273 
L 367.819619 70.521718 
L 367.438315 70.177106 
L 367.057011 69.833437 
L 366.675707 69.49071 
L 366.294403 69.148927 
L 365.913099 68.808086 
L 365.531795 68.468188 
L 365.150491 68.129233 
L 364.769188 67.791221 
L 364.387884 67.454152 
L 364.00658 67.118025 
L 363.625276 66.782842 
L 363.243972 66.448601 
L 362.862668 66.115303 
L 362.481364 65.782948 
L 362.10006 65.451536 
L 361.718756 65.121066 
L 361.337452 64.79154 
L 360.956148 64.462956 
L 360.574845 64.135315 
L 360.193541 63.808617 
L 359.812237 63.482862 
L 359.430933 63.15805 
L 359.049629 62.834181 
L 358.668325 62.511254 
L 358.287021 62.18927 
L 357.905717 61.86823 
L 357.524413 61.548132 
L 357.143109 61.228976 
L 356.761805 60.910764 
L 356.380502 60.593495 
L 355.999198 60.277168 
L 355.617894 59.961784 
L 355.23659 59.647343 
L 354.855286 59.333845 
L 354.473982 59.02129 
L 354.092678 58.709678 
L 353.711374 58.399008 
L 353.33007 58.089282 
L 352.948766 57.780498 
L 352.567462 57.472657 
L 352.186158 57.165759 
L 351.804855 56.859804 
L 351.423551 56.554791 
L 351.042247 56.250722 
L 350.660943 55.947595 
L 350.279639 55.645411 
L 349.898335 55.34417 
L 349.517031 55.043872 
L 349.135727 54.744517 
L 348.754423 54.446105 
L 348.373119 54.148635 
L 347.991815 53.852108 
L 347.610512 53.556525 
L 347.229208 53.261884 
L 346.847904 52.968185 
L 346.4666 52.67543 
L 346.085296 52.383618 
L 345.703992 52.092748 
L 345.322688 51.802821 
L 344.941384 51.513837 
L 344.56008 51.225796 
L 344.178776 50.938698 
L 343.797472 50.652543 
L 343.416169 50.36733 
L 343.034865 50.083061 
L 342.653561 49.799734 
L 342.272257 49.51735 
L 341.890953 49.235909 
L 341.509649 48.955411 
L 341.128345 48.675855 
L 340.747041 48.397243 
L 340.365737 48.119573 
L 339.984433 47.842846 
L 339.603129 47.567062 
L 339.221825 47.292221 
L 338.840522 47.018323 
L 338.459218 46.745367 
L 338.077914 46.473355 
L 337.69661 46.202285 
L 337.315306 45.932158 
L 336.934002 45.662974 
L 336.552698 45.394733 
L 336.171394 45.127435 
L 335.79009 44.861079 
L 335.408786 44.595666 
L 335.027482 44.331197 
L 334.646179 44.06767 
L 334.264875 43.805086 
L 333.883571 43.543445 
L 333.502267 43.282746 
L 333.120963 43.022991 
L 332.739659 42.764178 
L 332.358355 42.506308 
L 331.977051 42.249381 
L 331.595747 41.993397 
L 331.214443 41.738356 
L 330.833139 41.484257 
L 330.451836 41.231102 
L 330.070532 40.978889 
L 329.689228 40.727619 
L 329.307924 40.477292 
L 328.92662 40.227908 
L 328.545316 39.979467 
L 328.164012 39.731968 
L 327.782708 39.485413 
L 327.401404 39.2398 
L 327.0201 38.99513 
L 326.638796 38.751403 
L 326.257492 38.508619 
L 325.876189 38.266778 
L 325.494885 38.025879 
L 325.113581 37.785923 
L 324.732277 37.546911 
L 324.350973 37.308841 
L 323.969669 37.071714 
L 323.588365 36.835529 
L 323.207061 36.600288 
L 322.825757 36.36599 
L 322.444453 36.132634 
L 322.063149 35.900221 
L 321.681846 35.668751 
L 321.300542 35.438224 
L 320.919238 35.20864 
L 320.537934 34.979998 
L 320.15663 34.7523 
L 319.775326 34.525544 
L 319.394022 34.299731 
L 319.012718 34.074861 
L 318.631414 33.850934 
L 318.25011 33.62795 
L 317.868806 33.405908 
L 317.487503 33.184809 
L 317.106199 32.964654 
L 316.724895 32.745441 
L 316.343591 32.527171 
L 315.962287 32.309844 
L 315.580983 32.093459 
L 315.199679 31.878018 
L 314.818375 31.663519 
L 314.437071 31.449963 
L 314.055767 31.23735 
L 313.674463 31.02568 
L 313.293159 30.814953 
L 312.911856 30.605169 
L 312.530552 30.396327 
L 312.149248 30.188428 
L 311.767944 29.981472 
L 311.38664 29.775459 
L 311.005336 29.570389 
L 310.624032 29.366262 
L 310.242728 29.163078 
L 309.861424 28.960836 
L 309.48012 28.759537 
z
" style="fill:#0000ff;fill-opacity:0.1;stroke:#0000ff;stroke-opacity:0.1;"/>
   </g>
   <g id="matplotlib.axis_1">
    <g id="xtick_1">
     <g id="line2d_1">
      <defs>
       <path d="M 0 0 
L 0 3.5 
" id="m5a147ef8ee" style="stroke:#000000;stroke-width:0.8;"/>
      </defs>
      <g>
       <use style="stroke:#000000;stroke-width:0.8;" x="73.262347" xlink:href="#m5a147ef8ee" y="162"/>
      </g>
     </g>
     <g id="text_1">
      <!-- 1950 -->
      <g transform="translate(60.537347 176.598438)scale(0.1 -0.1)">
       <defs>
        <path d="M 794 531 
L 1825 531 
L 1825 4091 
L 703 3866 
L 703 4441 
L 1819 4666 
L 2450 4666 
L 2450 531 
L 3481 531 
L 3481 0 
L 794 0 
L 794 531 
z
" id="DejaVuSans-31" transform="scale(0.015625)"/>
        <path d="M 703 97 
L 703 672 
Q 941 559 1184 500 
Q 1428 441 1663 441 
Q 2288 441 2617 861 
Q 2947 1281 2994 2138 
Q 2813 1869 2534 1725 
Q 2256 1581 1919 1581 
Q 1219 1581 811 2004 
Q 403 2428 403 3163 
Q 403 3881 828 4315 
Q 1253 4750 1959 4750 
Q 2769 4750 3195 4129 
Q 3622 3509 3622 2328 
Q 3622 1225 3098 567 
Q 2575 -91 1691 -91 
Q 1453 -91 1209 -44 
Q 966 3 703 97 
z
M 1959 2075 
Q 2384 2075 2632 2365 
Q 2881 2656 2881 3163 
Q 2881 3666 2632 3958 
Q 2384 4250 1959 4250 
Q 1534 4250 1286 3958 
Q 1038 3666 1038 3163 
Q 1038 2656 1286 2365 
Q 1534 2075 1959 2075 
z
" id="DejaVuSans-39" transform="scale(0.015625)"/>
        <path d="M 691 4666 
L 3169 4666 
L 3169 4134 
L 1269 4134 
L 1269 2991 
Q 1406 3038 1543 3061 
Q 1681 3084 1819 3084 
Q 2600 3084 3056 2656 
Q 3513 2228 3513 1497 
Q 3513 744 3044 326 
Q 2575 -91 1722 -91 
Q 1428 -91 1123 -41 
Q 819 9 494 109 
L 494 744 
Q 775 591 1075 516 
Q 1375 441 1709 441 
Q 2250 441 2565 725 
Q 2881 1009 2881 1497 
Q 2881 1984 2565 2268 
Q 2250 2553 1709 2553 
Q 1456 2553 1204 2497 
Q 953 2441 691 2322 
L 691 4666 
z
" id="DejaVuSans-35" transform="scale(0.015625)"/>
        <path d="M 2034 4250 
Q 1547 4250 1301 3770 
Q 1056 3291 1056 2328 
Q 1056 1369 1301 889 
Q 1547 409 2034 409 
Q 2525 409 2770 889 
Q 3016 1369 3016 2328 
Q 3016 3291 2770 3770 
Q 2525 4250 2034 4250 
z
M 2034 4750 
Q 2819 4750 3233 4129 
Q 3647 3509 3647 2328 
Q 3647 1150 3233 529 
Q 2819 -91 2034 -91 
Q 1250 -91 836 529 
Q 422 1150 422 2328 
Q 422 3509 836 4129 
Q 1250 4750 2034 4750 
z
" id="DejaVuSans-30" transform="scale(0.015625)"/>
       </defs>
       <use xlink:href="#DejaVuSans-31"/>
       <use x="63.623047" xlink:href="#DejaVuSans-39"/>
       <use x="127.246094" xlink:href="#DejaVuSans-35"/>
       <use x="190.869141" xlink:href="#DejaVuSans-30"/>
      </g>
     </g>
    </g>
    <g id="xtick_2">
     <g id="line2d_2">
      <g>
       <use style="stroke:#000000;stroke-width:0.8;" x="119.018816" xlink:href="#m5a147ef8ee" y="162"/>
      </g>
     </g>
     <g id="text_2">
      <!-- 1960 -->
      <g transform="translate(106.293816 176.598438)scale(0.1 -0.1)">
       <defs>
        <path d="M 2113 2584 
Q 1688 2584 1439 2293 
Q 1191 2003 1191 1497 
Q 1191 994 1439 701 
Q 1688 409 2113 409 
Q 2538 409 2786 701 
Q 3034 994 3034 1497 
Q 3034 2003 2786 2293 
Q 2538 2584 2113 2584 
z
M 3366 4563 
L 3366 3988 
Q 3128 4100 2886 4159 
Q 2644 4219 2406 4219 
Q 1781 4219 1451 3797 
Q 1122 3375 1075 2522 
Q 1259 2794 1537 2939 
Q 1816 3084 2150 3084 
Q 2853 3084 3261 2657 
Q 3669 2231 3669 1497 
Q 3669 778 3244 343 
Q 2819 -91 2113 -91 
Q 1303 -91 875 529 
Q 447 1150 447 2328 
Q 447 3434 972 4092 
Q 1497 4750 2381 4750 
Q 2619 4750 2861 4703 
Q 3103 4656 3366 4563 
z
" id="DejaVuSans-36" transform="scale(0.015625)"/>
       </defs>
       <use xlink:href="#DejaVuSans-31"/>
       <use x="63.623047" xlink:href="#DejaVuSans-39"/>
       <use x="127.246094" xlink:href="#DejaVuSans-36"/>
       <use x="190.869141" xlink:href="#DejaVuSans-30"/>
      </g>
     </g>
    </g>
    <g id="xtick_3">
     <g id="line2d_3">
      <g>
       <use style="stroke:#000000;stroke-width:0.8;" x="164.775286" xlink:href="#m5a147ef8ee" y="162"/>
      </g>
     </g>
     <g id="text_3">
      <!-- 1970 -->
      <g transform="translate(152.050286 176.598438)scale(0.1 -0.1)">
       <defs>
        <path d="M 525 4666 
L 3525 4666 
L 3525 4397 
L 1831 0 
L 1172 0 
L 2766 4134 
L 525 4134 
L 525 4666 
z
" id="DejaVuSans-37" transform="scale(0.015625)"/>
       </defs>
       <use xlink:href="#DejaVuSans-31"/>
       <use x="63.623047" xlink:href="#DejaVuSans-39"/>
       <use x="127.246094" xlink:href="#DejaVuSans-37"/>
       <use x="190.869141" xlink:href="#DejaVuSans-30"/>
      </g>
     </g>
    </g>
    <g id="xtick_4">
     <g id="line2d_4">
      <g>
       <use style="stroke:#000000;stroke-width:0.8;" x="210.531755" xlink:href="#m5a147ef8ee" y="162"/>
      </g>
     </g>
     <g id="text_4">
      <!-- 1980 -->
      <g transform="translate(197.806755 176.598438)scale(0.1 -0.1)">
       <defs>
        <path d="M 2034 2216 
Q 1584 2216 1326 1975 
Q 1069 1734 1069 1313 
Q 1069 891 1326 650 
Q 1584 409 2034 409 
Q 2484 409 2743 651 
Q 3003 894 3003 1313 
Q 3003 1734 2745 1975 
Q 2488 2216 2034 2216 
z
M 1403 2484 
Q 997 2584 770 2862 
Q 544 3141 544 3541 
Q 544 4100 942 4425 
Q 1341 4750 2034 4750 
Q 2731 4750 3128 4425 
Q 3525 4100 3525 3541 
Q 3525 3141 3298 2862 
Q 3072 2584 2669 2484 
Q 3125 2378 3379 2068 
Q 3634 1759 3634 1313 
Q 3634 634 3220 271 
Q 2806 -91 2034 -91 
Q 1263 -91 848 271 
Q 434 634 434 1313 
Q 434 1759 690 2068 
Q 947 2378 1403 2484 
z
M 1172 3481 
Q 1172 3119 1398 2916 
Q 1625 2713 2034 2713 
Q 2441 2713 2670 2916 
Q 2900 3119 2900 3481 
Q 2900 3844 2670 4047 
Q 2441 4250 2034 4250 
Q 1625 4250 1398 4047 
Q 1172 3844 1172 3481 
z
" id="DejaVuSans-38" transform="scale(0.015625)"/>
       </defs>
       <use xlink:href="#DejaVuSans-31"/>
       <use x="63.623047" xlink:href="#DejaVuSans-39"/>
       <use x="127.246094" xlink:href="#DejaVuSans-38"/>
       <use x="190.869141" xlink:href="#DejaVuSans-30"/>
      </g>
     </g>
    </g>
    <g id="xtick_5">
     <g id="line2d_5">
      <g>
       <use style="stroke:#000000;stroke-width:0.8;" x="256.288225" xlink:href="#m5a147ef8ee" y="162"/>
      </g>
     </g>
     <g id="text_5">
      <!-- 1990 -->
      <g transform="translate(243.563225 176.598438)scale(0.1 -0.1)">
       <use xlink:href="#DejaVuSans-31"/>
       <use x="63.623047" xlink:href="#DejaVuSans-39"/>
       <use x="127.246094" xlink:href="#DejaVuSans-39"/>
       <use x="190.869141" xlink:href="#DejaVuSans-30"/>
      </g>
     </g>
    </g>
    <g id="xtick_6">
     <g id="line2d_6">
      <g>
       <use style="stroke:#000000;stroke-width:0.8;" x="302.044694" xlink:href="#m5a147ef8ee" y="162"/>
      </g>
     </g>
     <g id="text_6">
      <!-- 2000 -->
      <g transform="translate(289.319694 176.598438)scale(0.1 -0.1)">
       <defs>
        <path d="M 1228 531 
L 3431 531 
L 3431 0 
L 469 0 
L 469 531 
Q 828 903 1448 1529 
Q 2069 2156 2228 2338 
Q 2531 2678 2651 2914 
Q 2772 3150 2772 3378 
Q 2772 3750 2511 3984 
Q 2250 4219 1831 4219 
Q 1534 4219 1204 4116 
Q 875 4013 500 3803 
L 500 4441 
Q 881 4594 1212 4672 
Q 1544 4750 1819 4750 
Q 2544 4750 2975 4387 
Q 3406 4025 3406 3419 
Q 3406 3131 3298 2873 
Q 3191 2616 2906 2266 
Q 2828 2175 2409 1742 
Q 1991 1309 1228 531 
z
" id="DejaVuSans-32" transform="scale(0.015625)"/>
       </defs>
       <use xlink:href="#DejaVuSans-32"/>
       <use x="63.623047" xlink:href="#DejaVuSans-30"/>
       <use x="127.246094" xlink:href="#DejaVuSans-30"/>
       <use x="190.869141" xlink:href="#DejaVuSans-30"/>
      </g>
     </g>
    </g>
    <g id="xtick_7">
     <g id="line2d_7">
      <g>
       <use style="stroke:#000000;stroke-width:0.8;" x="347.801163" xlink:href="#m5a147ef8ee" y="162"/>
      </g>
     </g>
     <g id="text_7">
      <!-- 2010 -->
      <g transform="translate(335.076163 176.598438)scale(0.1 -0.1)">
       <use xlink:href="#DejaVuSans-32"/>
       <use x="63.623047" xlink:href="#DejaVuSans-30"/>
       <use x="127.246094" xlink:href="#DejaVuSans-31"/>
       <use x="190.869141" xlink:href="#DejaVuSans-30"/>
      </g>
     </g>
    </g>
    <g id="xtick_8">
     <g id="line2d_8">
      <g>
       <use style="stroke:#000000;stroke-width:0.8;" x="393.557633" xlink:href="#m5a147ef8ee" y="162"/>
      </g>
     </g>
     <g id="text_8">
      <!-- 2020 -->
      <g transform="translate(380.832633 176.598438)scale(0.1 -0.1)">
       <use xlink:href="#DejaVuSans-32"/>
       <use x="63.623047" xlink:href="#DejaVuSans-30"/>
       <use x="127.246094" xlink:href="#DejaVuSans-32"/>
       <use x="190.869141" xlink:href="#DejaVuSans-30"/>
      </g>
     </g>
    </g>
   </g>
   <g id="matplotlib.axis_2">
    <g id="ytick_1">
     <g id="line2d_9">
      <defs>
       <path d="M 0 0 
L -3.5 0 
" id="m7113ab2528" style="stroke:#000000;stroke-width:0.8;"/>
      </defs>
      <g>
       <use style="stroke:#000000;stroke-width:0.8;" x="34.56" xlink:href="#m7113ab2528" y="122.769417"/>
      </g>
     </g>
     <g id="text_9">
      <!-- −50 -->
      <g transform="translate(6.455313 126.568636)scale(0.1 -0.1)">
       <defs>
        <path d="M 678 2272 
L 4684 2272 
L 4684 1741 
L 678 1741 
L 678 2272 
z
" id="DejaVuSans-2212" transform="scale(0.015625)"/>
       </defs>
       <use xlink:href="#DejaVuSans-2212"/>
       <use x="83.789062" xlink:href="#DejaVuSans-35"/>
       <use x="147.412109" xlink:href="#DejaVuSans-30"/>
      </g>
     </g>
    </g>
    <g id="ytick_2">
     <g id="line2d_10">
      <g>
       <use style="stroke:#000000;stroke-width:0.8;" x="34.56" xlink:href="#m7113ab2528" y="82.8"/>
      </g>
     </g>
     <g id="text_10">
      <!-- 0 -->
      <g transform="translate(21.1975 86.599219)scale(0.1 -0.1)">
       <use xlink:href="#DejaVuSans-30"/>
      </g>
     </g>
    </g>
    <g id="ytick_3">
     <g id="line2d_11">
      <g>
       <use style="stroke:#000000;stroke-width:0.8;" x="34.56" xlink:href="#m7113ab2528" y="42.830583"/>
      </g>
     </g>
     <g id="text_11">
      <!-- 50 -->
      <g transform="translate(14.835 46.629801)scale(0.1 -0.1)">
       <use xlink:href="#DejaVuSans-35"/>
       <use x="63.623047" xlink:href="#DejaVuSans-30"/>
      </g>
     </g>
    </g>
   </g>
   <g id="line2d_12">
    <path clip-path="url(#pdefeca8682)" d="M 68.877352 82.552723 
L 69.258656 82.169881 
L 69.63996 82.199138 
L 70.402568 81.740742 
L 71.165176 81.586115 
L 71.546479 81.594603 
L 71.927783 81.893894 
L 72.690391 82.151685 
L 73.071695 81.987828 
L 73.452999 82.005166 
L 73.834303 81.583472 
L 75.359519 80.858324 
L 75.740822 80.856753 
L 77.647342 79.836926 
L 78.028646 79.770407 
L 78.791254 79.341576 
L 79.172558 79.269515 
L 79.935165 79.507336 
L 81.079077 79.944056 
L 81.460381 81.018212 
L 82.985597 80.19267 
L 85.27342 80.937442 
L 85.654724 80.866752 
L 86.036028 80.454455 
L 86.798636 80.468671 
L 87.17994 80.26822 
L 87.561244 80.267839 
L 87.942548 80.534934 
L 88.323852 80.478379 
L 89.849067 80.756479 
L 90.230371 80.781989 
L 90.611675 81.013024 
L 90.992979 80.79248 
L 91.755587 81.217736 
L 92.136891 81.314261 
L 92.899498 81.023423 
L 93.280802 81.08912 
L 94.04341 80.857968 
L 94.424714 81.052526 
L 94.806018 81.022639 
L 95.187322 80.7104 
L 95.568626 80.680041 
L 95.94993 80.435275 
L 96.331234 80.376224 
L 97.093842 81.174724 
L 97.856449 80.862381 
L 98.237753 80.957974 
L 99.000361 81.299848 
L 99.381665 81.468589 
L 99.762969 81.298051 
L 100.144273 81.306404 
L 100.525577 81.102742 
L 100.906881 81.072592 
L 101.288185 81.634777 
L 102.432096 81.493747 
L 102.8134 81.518262 
L 103.194704 81.673537 
L 103.576008 81.576078 
L 103.957312 81.890946 
L 104.338616 82.060467 
L 104.71992 82.033265 
L 105.101224 82.292461 
L 105.482528 82.251643 
L 105.863831 82.0937 
L 106.245135 82.33259 
L 106.626439 82.803466 
L 107.007743 82.869853 
L 107.770351 83.219432 
L 108.151655 83.177851 
L 109.295567 83.385343 
L 109.676871 83.255445 
L 110.058175 83.434971 
L 110.820782 83.128714 
L 111.202086 82.925936 
L 112.345998 83.579495 
L 113.108606 84.198589 
L 113.871214 84.324623 
L 114.633821 84.542729 
L 115.015125 84.557188 
L 115.396429 84.710427 
L 115.777733 84.713717 
L 116.159037 85.082308 
L 116.540341 85.119 
L 117.302949 85.585775 
L 118.065557 87.311639 
L 118.446861 87.503182 
L 120.35338 87.787282 
L 120.734684 87.994142 
L 121.115988 88.413812 
L 122.2599 88.670757 
L 123.785115 88.650334 
L 125.310331 87.694923 
L 126.454243 87.534161 
L 126.835547 87.849984 
L 127.598154 87.978465 
L 127.979458 88.076582 
L 129.504674 87.305849 
L 130.648586 87.198337 
L 131.411194 86.888587 
L 131.792497 87.159187 
L 132.936409 87.423001 
L 133.317713 88.179634 
L 134.080321 88.040204 
L 134.842929 88.028931 
L 135.224233 88.182008 
L 135.605537 88.056977 
L 135.986841 88.301298 
L 136.749448 88.207248 
L 137.130752 88.416325 
L 138.655968 88.408129 
L 139.418576 88.578416 
L 139.79988 88.434779 
L 140.181184 88.423299 
L 140.562487 88.540019 
L 140.943791 88.426366 
L 141.325095 88.442076 
L 142.087703 88.286795 
L 142.469007 88.204204 
L 142.850311 88.573873 
L 143.612919 88.515015 
L 143.994223 88.295061 
L 144.75683 88.333011 
L 145.138134 88.199497 
L 145.519438 88.584344 
L 146.66335 88.367485 
L 147.044654 88.570226 
L 147.425958 88.320313 
L 148.188566 88.754537 
L 148.56987 88.897301 
L 149.332477 88.697407 
L 150.095085 88.705425 
L 150.476389 88.872052 
L 153.145517 88.094771 
L 153.908124 88.21837 
L 156.577252 87.400268 
L 156.958556 87.512811 
L 157.33986 87.278221 
L 158.865075 86.955049 
L 159.627683 86.422006 
L 160.008987 86.557658 
L 160.771595 87.252177 
L 161.152899 87.732454 
L 161.915507 87.633574 
L 162.29681 87.387425 
L 162.678114 87.302621 
L 163.822026 87.619912 
L 164.20333 87.574839 
L 164.965938 88.70685 
L 165.728546 88.985418 
L 166.491153 88.57152 
L 166.872457 88.735827 
L 167.253761 88.534623 
L 168.016369 88.606316 
L 169.160281 88.334054 
L 169.541585 88.630519 
L 169.922889 88.353686 
L 170.304193 88.247611 
L 170.685496 88.276945 
L 171.0668 88.575124 
L 172.210712 88.129712 
L 173.354624 88.083743 
L 173.735928 87.877252 
L 174.117232 88.174548 
L 174.498536 88.752257 
L 174.87984 89.011129 
L 175.642447 88.944348 
L 176.405055 88.900828 
L 176.786359 88.755973 
L 177.167663 88.985076 
L 177.548967 89.345181 
L 177.930271 89.162919 
L 178.692879 89.579 
L 179.074183 89.344652 
L 179.455486 89.408754 
L 180.599398 89.202237 
L 180.980702 89.161416 
L 182.124614 89.423792 
L 183.649829 89.165933 
L 184.412437 89.737219 
L 184.793741 89.798809 
L 185.175045 89.593281 
L 185.556349 89.235483 
L 186.318957 89.194904 
L 186.700261 88.940508 
L 187.844173 88.764182 
L 188.60678 89.135271 
L 188.988084 89.213778 
L 190.131996 88.786113 
L 190.894604 89.132049 
L 191.275908 89.101375 
L 191.657212 89.43109 
L 192.419819 89.129264 
L 192.801123 89.470907 
L 193.945035 89.477375 
L 195.851555 90.980381 
L 196.232859 91.115174 
L 196.614162 91.125144 
L 197.758074 91.618882 
L 200.045898 91.278698 
L 200.427202 91.312622 
L 201.189809 91.06497 
L 201.571113 91.078765 
L 203.096329 91.691996 
L 203.477633 91.534301 
L 203.858937 91.645536 
L 204.621545 91.400909 
L 205.002849 91.600957 
L 205.384152 91.62001 
L 205.765456 91.836283 
L 206.14676 91.829722 
L 206.528064 92.476523 
L 207.290672 92.401765 
L 208.815888 91.786567 
L 209.197192 91.983167 
L 209.578495 92.340426 
L 210.341103 92.552513 
L 210.722407 93.088074 
L 212.628927 93.860529 
L 213.010231 93.715973 
L 213.391535 93.712792 
L 213.772839 93.908835 
L 214.91675 93.694919 
M 216.441966 93.727888 
L 217.204574 93.715823 
L 217.585878 93.458465 
L 218.729789 93.005203 
L 219.111093 92.670056 
L 219.492397 92.619436 
L 220.255005 92.800719 
L 220.636309 92.749703 
L 221.398917 92.85891 
L 221.780221 92.892634 
L 222.161525 93.121466 
L 222.542828 93.062524 
L 222.924132 93.298549 
L 224.068044 93.487256 
L 224.449348 93.280734 
L 224.830652 93.333703 
L 225.211956 93.096036 
L 225.59326 93.133326 
L 225.974564 92.991766 
L 227.118475 94.500452 
L 227.881083 94.459511 
L 229.024995 94.737175 
L 229.406299 94.826919 
L 230.168907 94.796674 
L 230.550211 94.801943 
L 231.312818 94.417466 
L 231.694122 94.542047 
L 232.45673 94.062442 
L 232.838034 94.207351 
L 233.600642 94.040119 
L 234.744554 93.650407 
L 235.125858 93.774692 
L 235.507161 93.689748 
L 236.269769 93.865328 
L 239.701505 93.386387 
L 240.082808 93.428693 
L 240.464112 93.291178 
L 241.22672 92.840856 
L 242.370632 92.254511 
L 243.13324 92.233353 
L 243.895848 92.528143 
L 244.277151 92.500963 
L 246.183671 91.581992 
L 246.946279 91.525768 
L 247.708887 91.603571 
L 248.471494 91.609338 
L 248.852798 91.488281 
L 249.234102 91.61316 
L 249.99671 91.495298 
L 252.284534 91.668559 
L 252.665838 91.564351 
L 253.047141 91.602509 
L 253.428445 91.823116 
L 254.191053 91.797239 
L 254.953661 91.781652 
L 255.716269 91.581319 
L 256.097573 91.58078 
L 256.860181 91.314234 
L 257.241484 91.066134 
L 259.148004 91.057751 
L 259.529308 90.887716 
L 260.67322 90.861054 
M 266.774082 90.783391 
L 267.53669 90.645934 
L 268.299298 90.042027 
L 268.680602 89.921037 
L 269.061906 90.140025 
L 269.824514 90.184638 
L 270.205817 90.256599 
L 270.587121 90.157098 
L 271.349729 90.190885 
L 271.731033 90.157166 
L 272.874945 89.540979 
L 273.256249 89.384644 
L 273.637553 89.367492 
L 274.018857 89.639916 
L 275.925376 89.655299 
L 276.30668 89.735424 
L 276.687984 89.684887 
L 277.069288 89.887343 
L 277.450592 89.883763 
L 278.594504 89.284516 
L 281.263631 88.85912 
L 282.026239 88.988457 
L 282.407543 88.747485 
L 283.17015 88.897764 
L 283.551454 89.133137 
L 284.314062 89.256776 
L 284.695366 89.288121 
L 285.07667 89.580461 
L 286.601886 89.309329 
L 286.98319 89.179204 
L 287.745797 89.224353 
L 288.127101 89.43666 
L 288.508405 89.499235 
L 288.889709 89.310198 
L 289.271013 89.334965 
L 290.033621 88.991385 
L 290.796229 88.644645 
L 291.177533 88.724901 
L 291.94014 88.394822 
L 293.084052 88.443842 
L 293.84666 88.12312 
L 294.227964 88.192366 
L 294.609268 88.422552 
L 295.371876 88.184705 
L 296.897091 87.724088 
L 297.278395 87.731882 
L 299.184915 87.032756 
L 299.947523 86.602536 
L 300.71013 85.952284 
L 301.091434 85.745305 
L 301.472738 85.795058 
L 302.235346 85.512164 
L 302.997954 84.999183 
L 303.379258 84.792973 
L 303.760562 84.745891 
L 304.141866 84.546145 
L 304.904473 83.661934 
L 305.667081 83.155454 
L 306.429689 83.013201 
L 306.810993 82.968177 
L 308.336209 82.170041 
L 308.717513 81.876361 
M 309.48012 81.636062 
L 310.242728 81.082593 
L 311.38664 80.741947 
L 311.767944 80.482192 
L 312.530552 80.410063 
L 314.055767 79.518353 
L 315.199679 79.344924 
L 315.580983 79.373091 
L 315.962287 79.283364 
L 316.343591 79.481507 
L 317.106199 79.069731 
L 317.868806 78.484026 
L 320.15663 78.0379 
L 321.300542 77.222942 
L 321.681846 77.10308 
L 322.063149 76.698177 
L 322.825757 76.856071 
L 323.207061 76.854336 
L 325.876189 75.902439 
L 326.257492 76.121624 
L 327.401404 76.230035 
L 327.782708 76.164021 
L 328.164012 76.255269 
L 328.92662 76.060578 
L 330.451836 75.622486 
L 330.833139 75.610327 
L 331.595747 75.819004 
L 331.977051 75.886756 
L 333.502267 75.308708 
L 334.646179 74.998102 
L 335.027482 75.013028 
L 336.171394 75.387405 
L 336.934002 75.619169 
L 337.69661 75.34164 
L 338.840522 75.045498 
L 339.603129 74.700568 
L 339.984433 74.686726 
L 340.747041 74.969793 
L 342.653561 74.751009 
L 343.034865 74.89599 
L 343.797472 74.850894 
L 344.178776 74.792564 
L 344.941384 75.292248 
L 345.322688 75.275233 
L 346.085296 75.699138 
L 346.4666 75.89179 
L 346.847904 75.862901 
L 348.373119 76.287958 
L 348.754423 76.103877 
L 349.517031 76.456433 
L 350.660943 77.32467 
L 351.423551 77.420664 
L 351.804855 77.547612 
L 352.186158 77.902163 
L 352.948766 77.937012 
L 355.617894 79.010746 
L 355.999198 79.005434 
L 356.380502 79.37032 
L 357.524413 79.332246 
L 358.287021 79.375049 
L 358.668325 79.498532 
L 359.049629 79.504106 
L 359.812237 79.772108 
L 360.956148 79.750457 
L 361.718756 79.748723 
L 362.10006 79.870968 
L 362.481364 80.147223 
L 363.243972 80.286327 
L 364.387884 80.906341 
L 365.913099 80.767535 
L 366.294403 80.783228 
L 366.675707 80.678962 
L 367.438315 81.007661 
L 367.819619 81.006119 
L 368.582227 81.311856 
L 370.107442 81.759072 
L 370.87005 81.886427 
L 372.77657 81.751185 
L 373.539178 81.924428 
L 373.920481 81.817321 
L 375.064393 81.995979 
L 375.827001 82.002505 
L 376.970913 82.10853 
L 377.352217 82.334327 
L 378.114824 82.528958 
L 378.496128 82.814862 
L 379.258736 82.57797 
L 379.64004 82.535865 
L 380.402648 82.8 
L 380.402648 82.8 
" style="fill:none;stroke:#1f77b4;stroke-linecap:square;stroke-width:1.5;"/>
   </g>
   <g id="line2d_13">
    <path clip-path="url(#pdefeca8682)" d="M 34.56 82.8 
L 414.72 82.8 
" style="fill:none;stroke:#000000;stroke-dasharray:1.5,2.475;stroke-dashoffset:0;stroke-width:1.5;"/>
   </g>
   <g id="patch_3">
    <path d="M 34.56 162 
L 34.56 3.6 
" style="fill:none;stroke:#000000;stroke-linecap:square;stroke-linejoin:miter;stroke-width:0.8;"/>
   </g>
   <g id="patch_4">
    <path d="M 414.72 162 
L 414.72 3.6 
" style="fill:none;stroke:#000000;stroke-linecap:square;stroke-linejoin:miter;stroke-width:0.8;"/>
   </g>
   <g id="patch_5">
    <path d="M 34.56 162 
L 414.72 162 
" style="fill:none;stroke:#000000;stroke-linecap:square;stroke-linejoin:miter;stroke-width:0.8;"/>
   </g>
   <g id="patch_6">
    <path d="M 34.56 3.6 
L 414.72 3.6 
" style="fill:none;stroke:#000000;stroke-linecap:square;stroke-linejoin:miter;stroke-width:0.8;"/>
   </g>
  </g>
 </g>
 <defs>
  <clipPath id="pdefeca8682">
   <rect height="158.4" width="380.16" x="34.56" y="3.6"/>
  </clipPath>
 </defs>
</svg>
