<?xml version="1.0" encoding="utf-8" standalone="no"?>
<!DOCTYPE svg PUBLIC "-//W3C//DTD SVG 1.1//EN"
  "http://www.w3.org/Graphics/SVG/1.1/DTD/svg11.dtd">
<svg height="180pt" version="1.1" viewBox="0 0 432 180" width="432pt" xmlns="http://www.w3.org/2000/svg" xmlns:xlink="http://www.w3.org/1999/xlink">
 <metadata>
  <rdf:RDF xmlns:cc="http://creativecommons.org/ns#" xmlns:dc="http://purl.org/dc/elements/1.1/" xmlns:rdf="http://www.w3.org/1999/02/22-rdf-syntax-ns#">
   <cc:Work>
    <dc:type rdf:resource="http://purl.org/dc/dcmitype/StillImage"/>
    <dc:date>2021-08-12T10:43:36.740206</dc:date>
    <dc:format>image/svg+xml</dc:format>
    <dc:creator>
     <cc:Agent>
      <dc:title>Matplotlib v3.4.2, https://matplotlib.org/</dc:title>
     </cc:Agent>
    </dc:creator>
   </cc:Work>
  </rdf:RDF>
 </metadata>
 <defs>
  <style type="text/css">*{stroke-linecap:butt;stroke-linejoin:round;}</style>
 </defs>
 <g id="figure_1">
  <g id="patch_1">
   <path d="M 0 180 
L 432 180 
L 432 0 
L 0 0 
z
" style="fill:#ffffff;"/>
  </g>
  <g id="axes_1">
   <g id="patch_2">
    <path d="M 34.56 162 
L 414.72 162 
L 414.72 3.6 
L 34.56 3.6 
z
" style="fill:#ffffff;"/>
   </g>
   <g id="PolyCollection_1">
    <path clip-path="url(#p7ebdfb252f)" d="M 84.290233 82.132494 
L 84.290233 83.467506 
L 84.842791 84.130572 
L 85.395349 84.790685 
L 85.947907 85.447844 
L 86.500465 86.102049 
L 87.053023 86.753301 
L 87.605581 87.4016 
L 88.15814 88.046944 
L 88.710698 88.689336 
L 89.263256 89.328774 
L 89.815814 89.965258 
L 90.368372 90.598789 
L 90.92093 91.229366 
L 91.473488 91.85699 
L 92.026047 92.48166 
L 92.578605 93.103377 
L 93.131163 93.72214 
L 93.683721 94.33795 
L 94.236279 94.950806 
L 94.788837 95.560708 
L 95.341395 96.167658 
L 95.893953 96.771653 
L 96.446512 97.372695 
L 96.99907 97.970784 
L 97.551628 98.565919 
L 98.104186 99.1581 
L 98.656744 99.747328 
L 99.209302 100.333603 
L 99.76186 100.916923 
L 100.314419 101.497291 
L 100.866977 102.074705 
L 101.419535 102.649165 
L 101.972093 103.220672 
L 102.524651 103.789225 
L 103.077209 104.354825 
L 103.629767 104.917471 
L 104.182326 105.477164 
L 104.734884 106.033903 
L 105.287442 106.587689 
L 105.84 107.138521 
L 106.392558 107.686399 
L 106.945116 108.231325 
L 106.945116 57.368675 
L 106.945116 57.368675 
L 106.392558 57.913601 
L 105.84 58.461479 
L 105.287442 59.012311 
L 104.734884 59.566097 
L 104.182326 60.122836 
L 103.629767 60.682529 
L 103.077209 61.245175 
L 102.524651 61.810775 
L 101.972093 62.379328 
L 101.419535 62.950835 
L 100.866977 63.525295 
L 100.314419 64.102709 
L 99.76186 64.683077 
L 99.209302 65.266397 
L 98.656744 65.852672 
L 98.104186 66.4419 
L 97.551628 67.034081 
L 96.99907 67.629216 
L 96.446512 68.227305 
L 95.893953 68.828347 
L 95.341395 69.432342 
L 94.788837 70.039292 
L 94.236279 70.649194 
L 93.683721 71.26205 
L 93.131163 71.87786 
L 92.578605 72.496623 
L 92.026047 73.11834 
L 91.473488 73.74301 
L 90.92093 74.370634 
L 90.368372 75.001211 
L 89.815814 75.634742 
L 89.263256 76.271226 
L 88.710698 76.910664 
L 88.15814 77.553056 
L 87.605581 78.1984 
L 87.053023 78.846699 
L 86.500465 79.497951 
L 85.947907 80.152156 
L 85.395349 80.809315 
L 84.842791 81.469428 
L 84.290233 82.132494 
z
" style="fill:#0000ff;fill-opacity:0.1;stroke:#0000ff;stroke-opacity:0.1;"/>
    <path clip-path="url(#p7ebdfb252f)" d="M 108.050233 56.826704 
L 108.050233 108.773296 
L 108.602791 109.312314 
L 109.155349 109.848379 
L 109.707907 110.38149 
L 110.260465 110.911647 
L 110.813023 111.438851 
L 111.365581 111.963102 
L 111.91814 112.484398 
L 112.470698 113.002742 
L 113.023256 113.518132 
L 113.575814 114.030568 
L 114.128372 114.540051 
L 114.68093 115.04658 
L 115.233488 115.550156 
L 115.786047 116.050778 
L 116.338605 116.548447 
L 116.891163 117.043162 
L 117.443721 117.534924 
L 117.996279 118.023732 
L 118.548837 118.509587 
L 119.101395 118.992488 
L 119.653953 119.472435 
L 120.206512 119.949429 
L 120.75907 120.42347 
L 121.311628 120.894557 
L 121.864186 121.36269 
L 122.416744 121.82787 
L 122.969302 122.290097 
L 123.52186 122.74937 
L 124.074419 123.205689 
L 124.626977 123.659055 
L 125.179535 124.109467 
L 125.732093 124.556926 
L 126.284651 125.001431 
L 126.837209 125.442983 
L 127.389767 125.881581 
L 127.942326 126.317226 
L 128.494884 126.749917 
L 129.047442 127.179655 
L 129.047442 38.420345 
L 129.047442 38.420345 
L 128.494884 38.850083 
L 127.942326 39.282774 
L 127.389767 39.718419 
L 126.837209 40.157017 
L 126.284651 40.598569 
L 125.732093 41.043074 
L 125.179535 41.490533 
L 124.626977 41.940945 
L 124.074419 42.394311 
L 123.52186 42.85063 
L 122.969302 43.309903 
L 122.416744 43.77213 
L 121.864186 44.23731 
L 121.311628 44.705443 
L 120.75907 45.17653 
L 120.206512 45.650571 
L 119.653953 46.127565 
L 119.101395 46.607512 
L 118.548837 47.090413 
L 117.996279 47.576268 
L 117.443721 48.065076 
L 116.891163 48.556838 
L 116.338605 49.051553 
L 115.786047 49.549222 
L 115.233488 50.049844 
L 114.68093 50.55342 
L 114.128372 51.059949 
L 113.575814 51.569432 
L 113.023256 52.081868 
L 112.470698 52.597258 
L 111.91814 53.115602 
L 111.365581 53.636898 
L 110.813023 54.161149 
L 110.260465 54.688353 
L 109.707907 55.21851 
L 109.155349 55.751621 
L 108.602791 56.287686 
L 108.050233 56.826704 
z
" style="fill:#0000ff;fill-opacity:0.1;stroke:#0000ff;stroke-opacity:0.1;"/>
    <path clip-path="url(#p7ebdfb252f)" d="M 130.152558 37.993561 
L 130.152558 127.606439 
L 130.705116 128.03027 
L 131.257674 128.451147 
L 131.810233 128.86907 
L 132.362791 129.28404 
L 132.915349 129.696057 
L 133.467907 130.10512 
L 134.020465 130.51123 
L 134.573023 130.914386 
L 135.125581 131.314588 
L 135.125581 34.285412 
L 135.125581 34.285412 
L 134.573023 34.685614 
L 134.020465 35.08877 
L 133.467907 35.49488 
L 132.915349 35.903943 
L 132.362791 36.31596 
L 131.810233 36.73093 
L 131.257674 37.148853 
L 130.705116 37.56973 
L 130.152558 37.993561 
z
" style="fill:#0000ff;fill-opacity:0.1;stroke:#0000ff;stroke-opacity:0.1;"/>
    <path clip-path="url(#p7ebdfb252f)" d="M 136.230698 33.888163 
L 136.230698 131.711837 
L 136.783256 132.106132 
L 137.335814 132.497474 
L 137.888372 132.885862 
L 138.44093 133.271297 
L 138.993488 133.653779 
L 139.546047 134.033306 
L 140.098605 134.409881 
L 140.651163 134.783501 
L 140.651163 30.816499 
L 140.651163 30.816499 
L 140.098605 31.190119 
L 139.546047 31.566694 
L 138.993488 31.946221 
L 138.44093 32.328703 
L 137.888372 32.714138 
L 137.335814 33.102526 
L 136.783256 33.493868 
L 136.230698 33.888163 
z
" style="fill:#0000ff;fill-opacity:0.1;stroke:#0000ff;stroke-opacity:0.1;"/>
    <path clip-path="url(#p7ebdfb252f)" d="M 141.756279 30.445831 
L 141.756279 135.154169 
L 142.308837 135.521882 
L 142.861395 135.886642 
L 143.413953 136.248449 
L 143.966512 136.607302 
L 144.51907 136.963202 
L 145.071628 137.316148 
L 145.624186 137.66614 
L 146.176744 138.013179 
L 146.729302 138.357265 
L 147.28186 138.698397 
L 147.834419 139.036575 
L 148.386977 139.3718 
L 148.939535 139.704072 
L 149.492093 140.03339 
L 150.044651 140.359754 
L 150.597209 140.683165 
L 151.149767 141.003622 
L 151.702326 141.321126 
L 152.254884 141.635676 
L 152.807442 141.947273 
L 153.36 142.255916 
L 153.36 23.344084 
L 153.36 23.344084 
L 152.807442 23.652727 
L 152.254884 23.964324 
L 151.702326 24.278874 
L 151.149767 24.596378 
L 150.597209 24.916835 
L 150.044651 25.240246 
L 149.492093 25.56661 
L 148.939535 25.895928 
L 148.386977 26.2282 
L 147.834419 26.563425 
L 147.28186 26.901603 
L 146.729302 27.242735 
L 146.176744 27.586821 
L 145.624186 27.93386 
L 145.071628 28.283852 
L 144.51907 28.636798 
L 143.966512 28.992698 
L 143.413953 29.351551 
L 142.861395 29.713358 
L 142.308837 30.078118 
L 141.756279 30.445831 
z
" style="fill:#0000ff;fill-opacity:0.1;stroke:#0000ff;stroke-opacity:0.1;"/>
    <path clip-path="url(#p7ebdfb252f)" d="M 154.465116 23.038394 
L 154.465116 142.561606 
L 155.017674 142.864342 
L 155.570233 143.164124 
L 156.122791 143.460954 
L 156.675349 143.754829 
L 157.227907 144.045751 
L 157.780465 144.33372 
L 158.333023 144.618735 
L 158.885581 144.900796 
L 159.43814 145.179904 
L 159.990698 145.456059 
L 160.543256 145.72926 
L 161.095814 145.999507 
L 161.648372 146.266801 
L 162.20093 146.531141 
L 162.753488 146.792528 
L 163.306047 147.050961 
L 163.858605 147.306441 
L 164.411163 147.558968 
L 164.963721 147.80854 
L 165.516279 148.05516 
L 166.068837 148.298825 
L 166.621395 148.539537 
L 167.173953 148.777296 
L 167.726512 149.012101 
L 168.27907 149.243953 
L 168.831628 149.472851 
L 169.384186 149.698795 
L 169.936744 149.921786 
L 170.489302 150.141824 
L 171.04186 150.358908 
L 171.594419 150.573038 
L 172.146977 150.784215 
L 172.699535 150.992439 
L 173.252093 151.197709 
L 173.804651 151.400025 
L 174.357209 151.599388 
L 174.909767 151.795797 
L 175.462326 151.989253 
L 176.014884 152.179755 
L 176.567442 152.367304 
L 177.12 152.551899 
L 177.672558 152.733541 
L 178.225116 152.912229 
L 178.777674 153.087964 
L 179.330233 153.260745 
L 179.882791 153.430572 
L 180.435349 153.597446 
L 180.987907 153.761367 
L 181.540465 153.922334 
L 182.093023 154.080348 
L 182.645581 154.235408 
L 182.645581 11.364592 
L 182.645581 11.364592 
L 182.093023 11.519652 
L 181.540465 11.677666 
L 180.987907 11.838633 
L 180.435349 12.002554 
L 179.882791 12.169428 
L 179.330233 12.339255 
L 178.777674 12.512036 
L 178.225116 12.687771 
L 177.672558 12.866459 
L 177.12 13.048101 
L 176.567442 13.232696 
L 176.014884 13.420245 
L 175.462326 13.610747 
L 174.909767 13.804203 
L 174.357209 14.000612 
L 173.804651 14.199975 
L 173.252093 14.402291 
L 172.699535 14.607561 
L 172.146977 14.815785 
L 171.594419 15.026962 
L 171.04186 15.241092 
L 170.489302 15.458176 
L 169.936744 15.678214 
L 169.384186 15.901205 
L 168.831628 16.127149 
L 168.27907 16.356047 
L 167.726512 16.587899 
L 167.173953 16.822704 
L 166.621395 17.060463 
L 166.068837 17.301175 
L 165.516279 17.54484 
L 164.963721 17.79146 
L 164.411163 18.041032 
L 163.858605 18.293559 
L 163.306047 18.549039 
L 162.753488 18.807472 
L 162.20093 19.068859 
L 161.648372 19.333199 
L 161.095814 19.600493 
L 160.543256 19.87074 
L 159.990698 20.143941 
L 159.43814 20.420096 
L 158.885581 20.699204 
L 158.333023 20.981265 
L 157.780465 21.26628 
L 157.227907 21.554249 
L 156.675349 21.845171 
L 156.122791 22.139046 
L 155.570233 22.435876 
L 155.017674 22.735658 
L 154.465116 23.038394 
z
" style="fill:#0000ff;fill-opacity:0.1;stroke:#0000ff;stroke-opacity:0.1;"/>
    <path clip-path="url(#p7ebdfb252f)" d="M 183.750698 11.212486 
L 183.750698 154.387514 
L 184.303256 154.536667 
L 184.855814 154.682866 
L 185.408372 154.826112 
L 185.96093 154.966405 
L 186.513488 155.103743 
L 187.066047 155.238129 
L 187.618605 155.369561 
L 188.171163 155.498039 
L 188.723721 155.623564 
L 189.276279 155.746135 
L 189.828837 155.865753 
L 190.381395 155.982417 
L 190.933953 156.096127 
L 191.486512 156.206885 
L 192.03907 156.314688 
L 192.591628 156.419538 
L 193.144186 156.521435 
L 193.696744 156.620378 
L 194.249302 156.716367 
L 194.80186 156.809403 
L 195.354419 156.899486 
L 195.906977 156.986615 
L 196.459535 157.07079 
L 197.012093 157.152012 
L 197.564651 157.23028 
L 198.117209 157.305595 
L 198.669767 157.377957 
L 199.222326 157.447364 
L 199.774884 157.513819 
L 200.327442 157.577319 
L 200.88 157.637867 
L 201.432558 157.69546 
L 201.985116 157.750101 
L 202.537674 157.801787 
L 202.537674 7.798213 
L 202.537674 7.798213 
L 201.985116 7.849899 
L 201.432558 7.90454 
L 200.88 7.962133 
L 200.327442 8.022681 
L 199.774884 8.086181 
L 199.222326 8.152636 
L 198.669767 8.222043 
L 198.117209 8.294405 
L 197.564651 8.36972 
L 197.012093 8.447988 
L 196.459535 8.52921 
L 195.906977 8.613385 
L 195.354419 8.700514 
L 194.80186 8.790597 
L 194.249302 8.883633 
L 193.696744 8.979622 
L 193.144186 9.078565 
L 192.591628 9.180462 
L 192.03907 9.285312 
L 191.486512 9.393115 
L 190.933953 9.503873 
L 190.381395 9.617583 
L 189.828837 9.734247 
L 189.276279 9.853865 
L 188.723721 9.976436 
L 188.171163 10.101961 
L 187.618605 10.230439 
L 187.066047 10.361871 
L 186.513488 10.496257 
L 185.96093 10.633595 
L 185.408372 10.773888 
L 184.855814 10.917134 
L 184.303256 11.063333 
L 183.750698 11.212486 
z
" style="fill:#0000ff;fill-opacity:0.1;stroke:#0000ff;stroke-opacity:0.1;"/>
    <path clip-path="url(#p7ebdfb252f)" d="M 203.642791 7.74948 
L 203.642791 157.85052 
L 204.195349 157.8963 
L 204.747907 157.939126 
L 205.300465 157.978999 
L 205.853023 158.015918 
L 206.405581 158.049883 
L 206.95814 158.080895 
L 207.510698 158.108954 
L 208.063256 158.134059 
L 208.615814 158.15621 
L 209.168372 158.175408 
L 209.168372 7.424592 
L 209.168372 7.424592 
L 208.615814 7.44379 
L 208.063256 7.465941 
L 207.510698 7.491046 
L 206.95814 7.519105 
L 206.405581 7.550117 
L 205.853023 7.584082 
L 205.300465 7.621001 
L 204.747907 7.660874 
L 204.195349 7.7037 
L 203.642791 7.74948 
z
" style="fill:#0000ff;fill-opacity:0.1;stroke:#0000ff;stroke-opacity:0.1;"/>
    <path clip-path="url(#p7ebdfb252f)" d="M 210.273488 7.408348 
L 210.273488 158.191652 
L 210.826047 158.204943 
L 211.378605 158.215281 
L 211.931163 158.222664 
L 211.931163 7.377336 
L 211.931163 7.377336 
L 211.378605 7.384719 
L 210.826047 7.395057 
L 210.273488 7.408348 
z
" style="fill:#0000ff;fill-opacity:0.1;stroke:#0000ff;stroke-opacity:0.1;"/>
    <path clip-path="url(#p7ebdfb252f)" d="M 213.036279 7.372905 
L 213.036279 158.227095 
L 213.588837 158.228571 
L 214.141395 158.227095 
L 214.141395 7.372905 
L 214.141395 7.372905 
L 213.588837 7.371429 
L 213.036279 7.372905 
z
" style="fill:#0000ff;fill-opacity:0.1;stroke:#0000ff;stroke-opacity:0.1;"/>
    <path clip-path="url(#p7ebdfb252f)" d="M 215.246512 7.377336 
L 215.246512 158.222664 
L 215.246512 7.377336 
L 215.246512 7.377336 
z
" style="fill:#0000ff;fill-opacity:0.1;stroke:#0000ff;stroke-opacity:0.1;"/>
    <path clip-path="url(#p7ebdfb252f)" d="M 219.666977 7.384719 
L 219.666977 158.215281 
L 220.219535 158.204943 
L 220.772093 158.191652 
L 221.324651 158.175408 
L 221.324651 7.424592 
L 221.324651 7.424592 
L 220.772093 7.408348 
L 220.219535 7.395057 
L 219.666977 7.384719 
z
" style="fill:#0000ff;fill-opacity:0.1;stroke:#0000ff;stroke-opacity:0.1;"/>
    <path clip-path="url(#p7ebdfb252f)" d="M 222.429767 7.44379 
L 222.429767 158.15621 
L 222.429767 7.44379 
L 222.429767 7.44379 
z
" style="fill:#0000ff;fill-opacity:0.1;stroke:#0000ff;stroke-opacity:0.1;"/>
    <path clip-path="url(#p7ebdfb252f)" d="M 223.534884 7.465941 
L 223.534884 158.134059 
L 224.087442 158.108954 
L 224.64 158.080895 
L 225.192558 158.049883 
L 225.745116 158.015918 
L 226.297674 157.978999 
L 226.850233 157.939126 
L 227.402791 157.8963 
L 227.955349 157.85052 
L 228.507907 157.801787 
L 229.060465 157.750101 
L 229.060465 7.849899 
L 229.060465 7.849899 
L 228.507907 7.798213 
L 227.955349 7.74948 
L 227.402791 7.7037 
L 226.850233 7.660874 
L 226.297674 7.621001 
L 225.745116 7.584082 
L 225.192558 7.550117 
L 224.64 7.519105 
L 224.087442 7.491046 
L 223.534884 7.465941 
z
" style="fill:#0000ff;fill-opacity:0.1;stroke:#0000ff;stroke-opacity:0.1;"/>
    <path clip-path="url(#p7ebdfb252f)" d="M 230.165581 7.90454 
L 230.165581 157.69546 
L 230.71814 157.637867 
L 231.270698 157.577319 
L 231.823256 157.513819 
L 232.375814 157.447364 
L 232.375814 8.152636 
L 232.375814 8.152636 
L 231.823256 8.086181 
L 231.270698 8.022681 
L 230.71814 7.962133 
L 230.165581 7.90454 
z
" style="fill:#0000ff;fill-opacity:0.1;stroke:#0000ff;stroke-opacity:0.1;"/>
    <path clip-path="url(#p7ebdfb252f)" d="M 233.48093 8.222043 
L 233.48093 157.377957 
L 234.033488 157.305595 
L 234.586047 157.23028 
L 235.138605 157.152012 
L 235.691163 157.07079 
L 235.691163 8.52921 
L 235.691163 8.52921 
L 235.138605 8.447988 
L 234.586047 8.36972 
L 234.033488 8.294405 
L 233.48093 8.222043 
z
" style="fill:#0000ff;fill-opacity:0.1;stroke:#0000ff;stroke-opacity:0.1;"/>
    <path clip-path="url(#p7ebdfb252f)" d="M 236.796279 8.613385 
L 236.796279 156.986615 
L 237.348837 156.899486 
L 237.901395 156.809403 
L 237.901395 8.790597 
L 237.901395 8.790597 
L 237.348837 8.700514 
L 236.796279 8.613385 
z
" style="fill:#0000ff;fill-opacity:0.1;stroke:#0000ff;stroke-opacity:0.1;"/>
    <path clip-path="url(#p7ebdfb252f)" d="M 239.006512 8.883633 
L 239.006512 156.716367 
L 239.55907 156.620378 
L 240.111628 156.521435 
L 240.664186 156.419538 
L 241.216744 156.314688 
L 241.769302 156.206885 
L 242.32186 156.096127 
L 242.32186 9.503873 
L 242.32186 9.503873 
L 241.769302 9.393115 
L 241.216744 9.285312 
L 240.664186 9.180462 
L 240.111628 9.078565 
L 239.55907 8.979622 
L 239.006512 8.883633 
z
" style="fill:#0000ff;fill-opacity:0.1;stroke:#0000ff;stroke-opacity:0.1;"/>
    <path clip-path="url(#p7ebdfb252f)" d="M 243.426977 9.617583 
L 243.426977 155.982417 
L 243.979535 155.865753 
L 244.532093 155.746135 
L 245.084651 155.623564 
L 245.637209 155.498039 
L 246.189767 155.369561 
L 246.742326 155.238129 
L 247.294884 155.103743 
L 247.847442 154.966405 
L 248.4 154.826112 
L 248.952558 154.682866 
L 249.505116 154.536667 
L 250.057674 154.387514 
L 250.610233 154.235408 
L 251.162791 154.080348 
L 251.715349 153.922334 
L 252.267907 153.761367 
L 252.820465 153.597446 
L 253.373023 153.430572 
L 253.925581 153.260745 
L 254.47814 153.087964 
L 255.030698 152.912229 
L 255.583256 152.733541 
L 256.135814 152.551899 
L 256.688372 152.367304 
L 257.24093 152.179755 
L 257.793488 151.989253 
L 258.346047 151.795797 
L 258.898605 151.599388 
L 259.451163 151.400025 
L 260.003721 151.197709 
L 260.556279 150.992439 
L 261.108837 150.784215 
L 261.661395 150.573038 
L 262.213953 150.358908 
L 262.766512 150.141824 
L 263.31907 149.921786 
L 263.871628 149.698795 
L 264.424186 149.472851 
L 264.976744 149.243953 
L 265.529302 149.012101 
L 266.08186 148.777296 
L 266.634419 148.539537 
L 267.186977 148.298825 
L 267.739535 148.05516 
L 268.292093 147.80854 
L 268.844651 147.558968 
L 269.397209 147.306441 
L 269.949767 147.050961 
L 270.502326 146.792528 
L 271.054884 146.531141 
L 271.054884 19.068859 
L 271.054884 19.068859 
L 270.502326 18.807472 
L 269.949767 18.549039 
L 269.397209 18.293559 
L 268.844651 18.041032 
L 268.292093 17.79146 
L 267.739535 17.54484 
L 267.186977 17.301175 
L 266.634419 17.060463 
L 266.08186 16.822704 
L 265.529302 16.587899 
L 264.976744 16.356047 
L 264.424186 16.127149 
L 263.871628 15.901205 
L 263.31907 15.678214 
L 262.766512 15.458176 
L 262.213953 15.241092 
L 261.661395 15.026962 
L 261.108837 14.815785 
L 260.556279 14.607561 
L 260.003721 14.402291 
L 259.451163 14.199975 
L 258.898605 14.000612 
L 258.346047 13.804203 
L 257.793488 13.610747 
L 257.24093 13.420245 
L 256.688372 13.232696 
L 256.135814 13.048101 
L 255.583256 12.866459 
L 255.030698 12.687771 
L 254.47814 12.512036 
L 253.925581 12.339255 
L 253.373023 12.169428 
L 252.820465 12.002554 
L 252.267907 11.838633 
L 251.715349 11.677666 
L 251.162791 11.519652 
L 250.610233 11.364592 
L 250.057674 11.212486 
L 249.505116 11.063333 
L 248.952558 10.917134 
L 248.4 10.773888 
L 247.847442 10.633595 
L 247.294884 10.496257 
L 246.742326 10.361871 
L 246.189767 10.230439 
L 245.637209 10.101961 
L 245.084651 9.976436 
L 244.532093 9.853865 
L 243.979535 9.734247 
L 243.426977 9.617583 
z
" style="fill:#0000ff;fill-opacity:0.1;stroke:#0000ff;stroke-opacity:0.1;"/>
    <path clip-path="url(#p7ebdfb252f)" d="M 272.16 19.333199 
L 272.16 146.266801 
L 272.712558 145.999507 
L 273.265116 145.72926 
L 273.817674 145.456059 
L 274.370233 145.179904 
L 274.922791 144.900796 
L 275.475349 144.618735 
L 275.475349 20.981265 
L 275.475349 20.981265 
L 274.922791 20.699204 
L 274.370233 20.420096 
L 273.817674 20.143941 
L 273.265116 19.87074 
L 272.712558 19.600493 
L 272.16 19.333199 
z
" style="fill:#0000ff;fill-opacity:0.1;stroke:#0000ff;stroke-opacity:0.1;"/>
    <path clip-path="url(#p7ebdfb252f)" d="M 277.133023 21.26628 
L 277.133023 144.33372 
L 277.685581 144.045751 
L 278.23814 143.754829 
L 278.790698 143.460954 
L 279.343256 143.164124 
L 279.895814 142.864342 
L 280.448372 142.561606 
L 281.00093 142.255916 
L 281.553488 141.947273 
L 282.106047 141.635676 
L 282.658605 141.321126 
L 283.211163 141.003622 
L 283.763721 140.683165 
L 284.316279 140.359754 
L 284.868837 140.03339 
L 285.421395 139.704072 
L 285.973953 139.3718 
L 286.526512 139.036575 
L 287.07907 138.698397 
L 287.631628 138.357265 
L 288.184186 138.013179 
L 288.736744 137.66614 
L 288.736744 27.93386 
L 288.736744 27.93386 
L 288.184186 27.586821 
L 287.631628 27.242735 
L 287.07907 26.901603 
L 286.526512 26.563425 
L 285.973953 26.2282 
L 285.421395 25.895928 
L 284.868837 25.56661 
L 284.316279 25.240246 
L 283.763721 24.916835 
L 283.211163 24.596378 
L 282.658605 24.278874 
L 282.106047 23.964324 
L 281.553488 23.652727 
L 281.00093 23.344084 
L 280.448372 23.038394 
L 279.895814 22.735658 
L 279.343256 22.435876 
L 278.790698 22.139046 
L 278.23814 21.845171 
L 277.685581 21.554249 
L 277.133023 21.26628 
z
" style="fill:#0000ff;fill-opacity:0.1;stroke:#0000ff;stroke-opacity:0.1;"/>
    <path clip-path="url(#p7ebdfb252f)" d="M 289.84186 28.283852 
L 289.84186 137.316148 
L 290.394419 136.963202 
L 290.946977 136.607302 
L 291.499535 136.248449 
L 292.052093 135.886642 
L 292.604651 135.521882 
L 293.157209 135.154169 
L 293.709767 134.783501 
L 294.262326 134.409881 
L 294.262326 31.190119 
L 294.262326 31.190119 
L 293.709767 30.816499 
L 293.157209 30.445831 
L 292.604651 30.078118 
L 292.052093 29.713358 
L 291.499535 29.351551 
L 290.946977 28.992698 
L 290.394419 28.636798 
L 289.84186 28.283852 
z
" style="fill:#0000ff;fill-opacity:0.1;stroke:#0000ff;stroke-opacity:0.1;"/>
    <path clip-path="url(#p7ebdfb252f)" d="M 295.367442 31.566694 
L 295.367442 134.033306 
L 295.92 133.653779 
L 296.472558 133.271297 
L 297.025116 132.885862 
L 297.577674 132.497474 
L 298.130233 132.106132 
L 298.682791 131.711837 
L 299.235349 131.314588 
L 299.787907 130.914386 
L 300.340465 130.51123 
L 300.893023 130.10512 
L 301.445581 129.696057 
L 301.99814 129.28404 
L 302.550698 128.86907 
L 303.103256 128.451147 
L 303.655814 128.03027 
L 304.208372 127.606439 
L 304.76093 127.179655 
L 305.313488 126.749917 
L 305.866047 126.317226 
L 306.418605 125.881581 
L 306.971163 125.442983 
L 307.523721 125.001431 
L 308.076279 124.556926 
L 308.628837 124.109467 
L 309.181395 123.659055 
L 309.733953 123.205689 
L 310.286512 122.74937 
L 310.286512 42.85063 
L 310.286512 42.85063 
L 309.733953 42.394311 
L 309.181395 41.940945 
L 308.628837 41.490533 
L 308.076279 41.043074 
L 307.523721 40.598569 
L 306.971163 40.157017 
L 306.418605 39.718419 
L 305.866047 39.282774 
L 305.313488 38.850083 
L 304.76093 38.420345 
L 304.208372 37.993561 
L 303.655814 37.56973 
L 303.103256 37.148853 
L 302.550698 36.73093 
L 301.99814 36.31596 
L 301.445581 35.903943 
L 300.893023 35.49488 
L 300.340465 35.08877 
L 299.787907 34.685614 
L 299.235349 34.285412 
L 298.682791 33.888163 
L 298.130233 33.493868 
L 297.577674 33.102526 
L 297.025116 32.714138 
L 296.472558 32.328703 
L 295.92 31.946221 
L 295.367442 31.566694 
z
" style="fill:#0000ff;fill-opacity:0.1;stroke:#0000ff;stroke-opacity:0.1;"/>
    <path clip-path="url(#p7ebdfb252f)" d="M 311.391628 43.309903 
L 311.391628 122.290097 
L 311.944186 121.82787 
L 312.496744 121.36269 
L 313.049302 120.894557 
L 313.60186 120.42347 
L 314.154419 119.949429 
L 314.706977 119.472435 
L 315.259535 118.992488 
L 315.812093 118.509587 
L 316.364651 118.023732 
L 316.917209 117.534924 
L 317.469767 117.043162 
L 318.022326 116.548447 
L 318.574884 116.050778 
L 319.127442 115.550156 
L 319.68 115.04658 
L 320.232558 114.540051 
L 320.785116 114.030568 
L 321.337674 113.518132 
L 321.890233 113.002742 
L 322.442791 112.484398 
L 322.995349 111.963102 
L 323.547907 111.438851 
L 324.100465 110.911647 
L 324.653023 110.38149 
L 325.205581 109.848379 
L 325.75814 109.312314 
L 326.310698 108.773296 
L 326.863256 108.231325 
L 327.415814 107.686399 
L 327.968372 107.138521 
L 328.52093 106.587689 
L 328.52093 59.012311 
L 328.52093 59.012311 
L 327.968372 58.461479 
L 327.415814 57.913601 
L 326.863256 57.368675 
L 326.310698 56.826704 
L 325.75814 56.287686 
L 325.205581 55.751621 
L 324.653023 55.21851 
L 324.100465 54.688353 
L 323.547907 54.161149 
L 322.995349 53.636898 
L 322.442791 53.115602 
L 321.890233 52.597258 
L 321.337674 52.081868 
L 320.785116 51.569432 
L 320.232558 51.059949 
L 319.68 50.55342 
L 319.127442 50.049844 
L 318.574884 49.549222 
L 318.022326 49.051553 
L 317.469767 48.556838 
L 316.917209 48.065076 
L 316.364651 47.576268 
L 315.812093 47.090413 
L 315.259535 46.607512 
L 314.706977 46.127565 
L 314.154419 45.650571 
L 313.60186 45.17653 
L 313.049302 44.705443 
L 312.496744 44.23731 
L 311.944186 43.77213 
L 311.391628 43.309903 
z
" style="fill:#0000ff;fill-opacity:0.1;stroke:#0000ff;stroke-opacity:0.1;"/>
    <path clip-path="url(#p7ebdfb252f)" d="M 344.545116 59.566097 
L 344.545116 106.033903 
L 345.097674 105.477164 
L 345.650233 104.917471 
L 346.202791 104.354825 
L 346.755349 103.789225 
L 347.307907 103.220672 
L 347.860465 102.649165 
L 348.413023 102.074705 
L 348.965581 101.497291 
L 349.51814 100.916923 
L 350.070698 100.333603 
L 350.623256 99.747328 
L 351.175814 99.1581 
L 351.728372 98.565919 
L 352.28093 97.970784 
L 352.833488 97.372695 
L 353.386047 96.771653 
L 353.938605 96.167658 
L 354.491163 95.560708 
L 355.043721 94.950806 
L 355.596279 94.33795 
L 356.148837 93.72214 
L 356.701395 93.103377 
L 357.253953 92.48166 
L 357.806512 91.85699 
L 358.35907 91.229366 
L 358.911628 90.598789 
L 359.464186 89.965258 
L 360.016744 89.328774 
L 360.569302 88.689336 
L 361.12186 88.046944 
L 361.674419 87.4016 
L 362.226977 86.753301 
L 362.779535 86.102049 
L 363.332093 85.447844 
L 363.884651 84.790685 
L 364.437209 84.130572 
L 364.989767 83.467506 
L 364.989767 82.132494 
L 364.989767 82.132494 
L 364.437209 81.469428 
L 363.884651 80.809315 
L 363.332093 80.152156 
L 362.779535 79.497951 
L 362.226977 78.846699 
L 361.674419 78.1984 
L 361.12186 77.553056 
L 360.569302 76.910664 
L 360.016744 76.271226 
L 359.464186 75.634742 
L 358.911628 75.001211 
L 358.35907 74.370634 
L 357.806512 73.74301 
L 357.253953 73.11834 
L 356.701395 72.496623 
L 356.148837 71.87786 
L 355.596279 71.26205 
L 355.043721 70.649194 
L 354.491163 70.039292 
L 353.938605 69.432342 
L 353.386047 68.828347 
L 352.833488 68.227305 
L 352.28093 67.629216 
L 351.728372 67.034081 
L 351.175814 66.4419 
L 350.623256 65.852672 
L 350.070698 65.266397 
L 349.51814 64.683077 
L 348.965581 64.102709 
L 348.413023 63.525295 
L 347.860465 62.950835 
L 347.307907 62.379328 
L 346.755349 61.810775 
L 346.202791 61.245175 
L 345.650233 60.682529 
L 345.097674 60.122836 
L 344.545116 59.566097 
z
" style="fill:#0000ff;fill-opacity:0.1;stroke:#0000ff;stroke-opacity:0.1;"/>
   </g>
   <g id="matplotlib.axis_1">
    <g id="xtick_1">
     <g id="line2d_1">
      <defs>
       <path d="M 0 0 
L 0 3.5 
" id="m85db1b7b5b" style="stroke:#000000;stroke-width:0.8;"/>
      </defs>
      <g>
       <use style="stroke:#000000;stroke-width:0.8;" x="84.013953" xlink:href="#m85db1b7b5b" y="162"/>
      </g>
     </g>
     <g id="text_1">
      <!-- 1960 -->
      <g transform="translate(71.288953 176.598438)scale(0.1 -0.1)">
       <defs>
        <path d="M 794 531 
L 1825 531 
L 1825 4091 
L 703 3866 
L 703 4441 
L 1819 4666 
L 2450 4666 
L 2450 531 
L 3481 531 
L 3481 0 
L 794 0 
L 794 531 
z
" id="DejaVuSans-31" transform="scale(0.015625)"/>
        <path d="M 703 97 
L 703 672 
Q 941 559 1184 500 
Q 1428 441 1663 441 
Q 2288 441 2617 861 
Q 2947 1281 2994 2138 
Q 2813 1869 2534 1725 
Q 2256 1581 1919 1581 
Q 1219 1581 811 2004 
Q 403 2428 403 3163 
Q 403 3881 828 4315 
Q 1253 4750 1959 4750 
Q 2769 4750 3195 4129 
Q 3622 3509 3622 2328 
Q 3622 1225 3098 567 
Q 2575 -91 1691 -91 
Q 1453 -91 1209 -44 
Q 966 3 703 97 
z
M 1959 2075 
Q 2384 2075 2632 2365 
Q 2881 2656 2881 3163 
Q 2881 3666 2632 3958 
Q 2384 4250 1959 4250 
Q 1534 4250 1286 3958 
Q 1038 3666 1038 3163 
Q 1038 2656 1286 2365 
Q 1534 2075 1959 2075 
z
" id="DejaVuSans-39" transform="scale(0.015625)"/>
        <path d="M 2113 2584 
Q 1688 2584 1439 2293 
Q 1191 2003 1191 1497 
Q 1191 994 1439 701 
Q 1688 409 2113 409 
Q 2538 409 2786 701 
Q 3034 994 3034 1497 
Q 3034 2003 2786 2293 
Q 2538 2584 2113 2584 
z
M 3366 4563 
L 3366 3988 
Q 3128 4100 2886 4159 
Q 2644 4219 2406 4219 
Q 1781 4219 1451 3797 
Q 1122 3375 1075 2522 
Q 1259 2794 1537 2939 
Q 1816 3084 2150 3084 
Q 2853 3084 3261 2657 
Q 3669 2231 3669 1497 
Q 3669 778 3244 343 
Q 2819 -91 2113 -91 
Q 1303 -91 875 529 
Q 447 1150 447 2328 
Q 447 3434 972 4092 
Q 1497 4750 2381 4750 
Q 2619 4750 2861 4703 
Q 3103 4656 3366 4563 
z
" id="DejaVuSans-36" transform="scale(0.015625)"/>
        <path d="M 2034 4250 
Q 1547 4250 1301 3770 
Q 1056 3291 1056 2328 
Q 1056 1369 1301 889 
Q 1547 409 2034 409 
Q 2525 409 2770 889 
Q 3016 1369 3016 2328 
Q 3016 3291 2770 3770 
Q 2525 4250 2034 4250 
z
M 2034 4750 
Q 2819 4750 3233 4129 
Q 3647 3509 3647 2328 
Q 3647 1150 3233 529 
Q 2819 -91 2034 -91 
Q 1250 -91 836 529 
Q 422 1150 422 2328 
Q 422 3509 836 4129 
Q 1250 4750 2034 4750 
z
" id="DejaVuSans-30" transform="scale(0.015625)"/>
       </defs>
       <use xlink:href="#DejaVuSans-31"/>
       <use x="63.623047" xlink:href="#DejaVuSans-39"/>
       <use x="127.246094" xlink:href="#DejaVuSans-36"/>
       <use x="190.869141" xlink:href="#DejaVuSans-30"/>
      </g>
     </g>
    </g>
    <g id="xtick_2">
     <g id="line2d_2">
      <g>
       <use style="stroke:#000000;stroke-width:0.8;" x="150.32093" xlink:href="#m85db1b7b5b" y="162"/>
      </g>
     </g>
     <g id="text_2">
      <!-- 1970 -->
      <g transform="translate(137.59593 176.598438)scale(0.1 -0.1)">
       <defs>
        <path d="M 525 4666 
L 3525 4666 
L 3525 4397 
L 1831 0 
L 1172 0 
L 2766 4134 
L 525 4134 
L 525 4666 
z
" id="DejaVuSans-37" transform="scale(0.015625)"/>
       </defs>
       <use xlink:href="#DejaVuSans-31"/>
       <use x="63.623047" xlink:href="#DejaVuSans-39"/>
       <use x="127.246094" xlink:href="#DejaVuSans-37"/>
       <use x="190.869141" xlink:href="#DejaVuSans-30"/>
      </g>
     </g>
    </g>
    <g id="xtick_3">
     <g id="line2d_3">
      <g>
       <use style="stroke:#000000;stroke-width:0.8;" x="216.627907" xlink:href="#m85db1b7b5b" y="162"/>
      </g>
     </g>
     <g id="text_3">
      <!-- 1980 -->
      <g transform="translate(203.902907 176.598438)scale(0.1 -0.1)">
       <defs>
        <path d="M 2034 2216 
Q 1584 2216 1326 1975 
Q 1069 1734 1069 1313 
Q 1069 891 1326 650 
Q 1584 409 2034 409 
Q 2484 409 2743 651 
Q 3003 894 3003 1313 
Q 3003 1734 2745 1975 
Q 2488 2216 2034 2216 
z
M 1403 2484 
Q 997 2584 770 2862 
Q 544 3141 544 3541 
Q 544 4100 942 4425 
Q 1341 4750 2034 4750 
Q 2731 4750 3128 4425 
Q 3525 4100 3525 3541 
Q 3525 3141 3298 2862 
Q 3072 2584 2669 2484 
Q 3125 2378 3379 2068 
Q 3634 1759 3634 1313 
Q 3634 634 3220 271 
Q 2806 -91 2034 -91 
Q 1263 -91 848 271 
Q 434 634 434 1313 
Q 434 1759 690 2068 
Q 947 2378 1403 2484 
z
M 1172 3481 
Q 1172 3119 1398 2916 
Q 1625 2713 2034 2713 
Q 2441 2713 2670 2916 
Q 2900 3119 2900 3481 
Q 2900 3844 2670 4047 
Q 2441 4250 2034 4250 
Q 1625 4250 1398 4047 
Q 1172 3844 1172 3481 
z
" id="DejaVuSans-38" transform="scale(0.015625)"/>
       </defs>
       <use xlink:href="#DejaVuSans-31"/>
       <use x="63.623047" xlink:href="#DejaVuSans-39"/>
       <use x="127.246094" xlink:href="#DejaVuSans-38"/>
       <use x="190.869141" xlink:href="#DejaVuSans-30"/>
      </g>
     </g>
    </g>
    <g id="xtick_4">
     <g id="line2d_4">
      <g>
       <use style="stroke:#000000;stroke-width:0.8;" x="282.934884" xlink:href="#m85db1b7b5b" y="162"/>
      </g>
     </g>
     <g id="text_4">
      <!-- 1990 -->
      <g transform="translate(270.209884 176.598438)scale(0.1 -0.1)">
       <use xlink:href="#DejaVuSans-31"/>
       <use x="63.623047" xlink:href="#DejaVuSans-39"/>
       <use x="127.246094" xlink:href="#DejaVuSans-39"/>
       <use x="190.869141" xlink:href="#DejaVuSans-30"/>
      </g>
     </g>
    </g>
    <g id="xtick_5">
     <g id="line2d_5">
      <g>
       <use style="stroke:#000000;stroke-width:0.8;" x="349.24186" xlink:href="#m85db1b7b5b" y="162"/>
      </g>
     </g>
     <g id="text_5">
      <!-- 2000 -->
      <g transform="translate(336.51686 176.598438)scale(0.1 -0.1)">
       <defs>
        <path d="M 1228 531 
L 3431 531 
L 3431 0 
L 469 0 
L 469 531 
Q 828 903 1448 1529 
Q 2069 2156 2228 2338 
Q 2531 2678 2651 2914 
Q 2772 3150 2772 3378 
Q 2772 3750 2511 3984 
Q 2250 4219 1831 4219 
Q 1534 4219 1204 4116 
Q 875 4013 500 3803 
L 500 4441 
Q 881 4594 1212 4672 
Q 1544 4750 1819 4750 
Q 2544 4750 2975 4387 
Q 3406 4025 3406 3419 
Q 3406 3131 3298 2873 
Q 3191 2616 2906 2266 
Q 2828 2175 2409 1742 
Q 1991 1309 1228 531 
z
" id="DejaVuSans-32" transform="scale(0.015625)"/>
       </defs>
       <use xlink:href="#DejaVuSans-32"/>
       <use x="63.623047" xlink:href="#DejaVuSans-30"/>
       <use x="127.246094" xlink:href="#DejaVuSans-30"/>
       <use x="190.869141" xlink:href="#DejaVuSans-30"/>
      </g>
     </g>
    </g>
   </g>
   <g id="matplotlib.axis_2">
    <g id="ytick_1">
     <g id="line2d_6">
      <defs>
       <path d="M 0 0 
L -3.5 0 
" id="maa995fadfa" style="stroke:#000000;stroke-width:0.8;"/>
      </defs>
      <g>
       <use style="stroke:#000000;stroke-width:0.8;" x="34.56" xlink:href="#maa995fadfa" y="155.822282"/>
      </g>
     </g>
     <g id="text_6">
      <!-- −60 -->
      <g transform="translate(6.455313 159.6215)scale(0.1 -0.1)">
       <defs>
        <path d="M 678 2272 
L 4684 2272 
L 4684 1741 
L 678 1741 
L 678 2272 
z
" id="DejaVuSans-2212" transform="scale(0.015625)"/>
       </defs>
       <use xlink:href="#DejaVuSans-2212"/>
       <use x="83.789062" xlink:href="#DejaVuSans-36"/>
       <use x="147.412109" xlink:href="#DejaVuSans-30"/>
      </g>
     </g>
    </g>
    <g id="ytick_2">
     <g id="line2d_7">
      <g>
       <use style="stroke:#000000;stroke-width:0.8;" x="34.56" xlink:href="#maa995fadfa" y="131.481521"/>
      </g>
     </g>
     <g id="text_7">
      <!-- −40 -->
      <g transform="translate(6.455313 135.28074)scale(0.1 -0.1)">
       <defs>
        <path d="M 2419 4116 
L 825 1625 
L 2419 1625 
L 2419 4116 
z
M 2253 4666 
L 3047 4666 
L 3047 1625 
L 3713 1625 
L 3713 1100 
L 3047 1100 
L 3047 0 
L 2419 0 
L 2419 1100 
L 313 1100 
L 313 1709 
L 2253 4666 
z
" id="DejaVuSans-34" transform="scale(0.015625)"/>
       </defs>
       <use xlink:href="#DejaVuSans-2212"/>
       <use x="83.789062" xlink:href="#DejaVuSans-34"/>
       <use x="147.412109" xlink:href="#DejaVuSans-30"/>
      </g>
     </g>
    </g>
    <g id="ytick_3">
     <g id="line2d_8">
      <g>
       <use style="stroke:#000000;stroke-width:0.8;" x="34.56" xlink:href="#maa995fadfa" y="107.140761"/>
      </g>
     </g>
     <g id="text_8">
      <!-- −20 -->
      <g transform="translate(6.455313 110.939979)scale(0.1 -0.1)">
       <use xlink:href="#DejaVuSans-2212"/>
       <use x="83.789062" xlink:href="#DejaVuSans-32"/>
       <use x="147.412109" xlink:href="#DejaVuSans-30"/>
      </g>
     </g>
    </g>
    <g id="ytick_4">
     <g id="line2d_9">
      <g>
       <use style="stroke:#000000;stroke-width:0.8;" x="34.56" xlink:href="#maa995fadfa" y="82.8"/>
      </g>
     </g>
     <g id="text_9">
      <!-- 0 -->
      <g transform="translate(21.1975 86.599219)scale(0.1 -0.1)">
       <use xlink:href="#DejaVuSans-30"/>
      </g>
     </g>
    </g>
    <g id="ytick_5">
     <g id="line2d_10">
      <g>
       <use style="stroke:#000000;stroke-width:0.8;" x="34.56" xlink:href="#maa995fadfa" y="58.459239"/>
      </g>
     </g>
     <g id="text_10">
      <!-- 20 -->
      <g transform="translate(14.835 62.258458)scale(0.1 -0.1)">
       <use xlink:href="#DejaVuSans-32"/>
       <use x="63.623047" xlink:href="#DejaVuSans-30"/>
      </g>
     </g>
    </g>
    <g id="ytick_6">
     <g id="line2d_11">
      <g>
       <use style="stroke:#000000;stroke-width:0.8;" x="34.56" xlink:href="#maa995fadfa" y="34.118479"/>
      </g>
     </g>
     <g id="text_11">
      <!-- 40 -->
      <g transform="translate(14.835 37.917698)scale(0.1 -0.1)">
       <use xlink:href="#DejaVuSans-34"/>
       <use x="63.623047" xlink:href="#DejaVuSans-30"/>
      </g>
     </g>
    </g>
    <g id="ytick_7">
     <g id="line2d_12">
      <g>
       <use style="stroke:#000000;stroke-width:0.8;" x="34.56" xlink:href="#maa995fadfa" y="9.777718"/>
      </g>
     </g>
     <g id="text_12">
      <!-- 60 -->
      <g transform="translate(14.835 13.576937)scale(0.1 -0.1)">
       <use xlink:href="#DejaVuSans-36"/>
       <use x="63.623047" xlink:href="#DejaVuSans-30"/>
      </g>
     </g>
    </g>
   </g>
   <g id="line2d_13">
    <path clip-path="url(#p7ebdfb252f)" d="M 84.290233 82.488939 
L 84.842791 81.996548 
L 85.395349 82.54909 
L 85.947907 82.520213 
L 87.605581 84.256437 
L 88.15814 83.881464 
L 88.710698 84.178829 
L 89.263256 84.767382 
L 89.815814 84.868941 
L 90.368372 84.570969 
L 90.92093 84.763383 
L 91.473488 84.469815 
L 92.026047 83.779201 
L 92.578605 83.399736 
L 93.131163 81.471429 
L 93.683721 80.149525 
L 94.236279 79.51834 
L 94.788837 79.566396 
L 95.341395 78.477352 
L 95.893953 78.185137 
L 96.99907 77.302132 
L 97.551628 74.943561 
L 98.104186 74.501711 
L 98.656744 74.274112 
L 99.209302 74.335192 
L 100.314419 73.067097 
L 101.419535 72.853164 
L 102.524651 71.495944 
L 103.077209 71.349911 
L 103.629767 70.282592 
L 104.182326 70.477894 
L 104.734884 70.399138 
L 105.287442 69.096029 
L 105.84 68.562373 
L 106.392558 68.354266 
L 106.945116 67.724607 
M 108.050233 67.931727 
L 109.155349 67.098265 
L 109.707907 67.261851 
L 110.260465 67.616151 
L 110.813023 66.268851 
L 111.365581 65.591516 
L 113.575814 61.967824 
L 114.128372 62.158588 
L 114.68093 61.234399 
L 115.233488 60.76027 
L 115.786047 60.476303 
L 116.891163 61.34978 
L 117.443721 61.736029 
L 117.996279 62.418429 
L 118.548837 61.853327 
L 119.101395 60.902457 
L 119.653953 60.637734 
L 120.75907 59.035916 
L 121.864186 57.94627 
L 122.416744 57.638032 
L 123.52186 56.741491 
L 124.074419 57.011712 
L 124.626977 57.025042 
L 125.179535 57.30972 
L 125.732093 57.171358 
L 126.284651 56.792818 
L 126.837209 56.231481 
L 127.389767 55.970084 
L 127.942326 55.298655 
L 128.494884 54.896732 
L 129.047442 54.831379 
M 130.152558 54.731699 
L 130.705116 55.319662 
L 131.810233 55.80275 
L 132.362791 55.350952 
L 132.915349 54.344129 
L 133.467907 53.814492 
L 134.020465 53.621041 
L 134.573023 53.293953 
L 135.125581 53.26364 
M 136.230698 52.990133 
L 136.783256 52.413903 
L 138.44093 50.072953 
L 139.546047 49.440229 
L 140.098605 49.672268 
L 140.651163 48.600827 
M 141.756279 48.361622 
L 142.861395 48.653038 
L 143.413953 49.58667 
L 143.966512 49.523889 
L 144.51907 48.525704 
L 145.071628 49.020138 
L 145.624186 48.689732 
L 146.176744 48.892392 
L 146.729302 47.485905 
L 147.28186 47.072465 
L 147.834419 47.777904 
L 148.939535 48.534482 
L 149.492093 47.933817 
L 150.044651 46.508318 
L 150.597209 46.457978 
L 151.149767 45.840029 
L 152.254884 45.677529 
L 153.36 45.959711 
M 154.465116 46.049611 
L 155.017674 46.500664 
L 155.570233 46.556871 
L 156.122791 47.007908 
L 156.675349 48.007153 
L 158.333023 47.769796 
L 158.885581 47.524476 
L 159.43814 47.868647 
L 159.990698 47.297899 
L 161.095814 47.947822 
L 162.20093 47.311943 
L 162.753488 47.071585 
L 163.306047 47.703772 
L 164.411163 48.556902 
L 164.963721 48.400448 
L 165.516279 48.831025 
L 166.068837 48.877693 
L 167.173953 50.074079 
L 168.27907 52.301381 
L 168.831628 52.623248 
L 169.936744 52.563027 
L 170.489302 51.978123 
L 171.594419 51.545371 
L 172.146977 51.351759 
L 172.699535 52.173987 
L 173.252093 53.842109 
L 173.804651 55.086623 
L 174.357209 55.654131 
L 174.909767 56.837177 
L 175.462326 57.570466 
L 176.014884 57.652561 
L 176.567442 57.573998 
L 177.12 57.305454 
L 177.672558 57.748005 
L 178.777674 59.255232 
L 179.330233 59.764201 
L 180.435349 61.960252 
L 180.987907 61.544683 
L 181.540465 62.648888 
L 182.093023 63.043624 
L 182.645581 63.778672 
M 183.750698 65.04104 
L 184.855814 67.316227 
L 185.408372 68.395074 
L 186.513488 71.190986 
L 187.066047 71.4188 
L 187.618605 72.251059 
L 190.933953 75.845746 
L 191.486512 75.519005 
L 192.03907 76.518981 
L 192.591628 77.102992 
L 193.144186 76.699572 
L 193.696744 76.644491 
L 194.249302 77.048142 
L 194.80186 77.301147 
L 195.354419 78.367186 
L 195.906977 81.226245 
L 197.012093 84.543624 
L 197.564651 84.688585 
L 199.222326 86.006787 
L 199.774884 86.255633 
L 200.327442 86.709904 
L 200.88 87.407576 
L 201.432558 87.748559 
L 202.537674 89.196218 
M 203.642791 89.268839 
L 204.195349 89.899667 
L 204.747907 90.70371 
L 205.300465 91.052093 
L 205.853023 91.572695 
L 206.405581 92.523186 
L 206.95814 92.521808 
L 208.063256 92.090727 
L 208.615814 92.176145 
L 209.168372 90.57428 
M 210.273488 90.513232 
L 210.826047 91.260332 
L 211.931163 91.030249 
M 213.036279 91.364221 
L 213.588837 91.161895 
L 214.141395 90.601472 
M 219.666977 92.284173 
L 220.219535 94.049216 
L 221.324651 95.573596 
M 223.534884 96.262665 
L 224.087442 96.134811 
L 225.745116 97.369748 
L 226.297674 97.225093 
L 226.850233 96.028862 
L 227.402791 95.536808 
L 227.955349 95.709491 
L 228.507907 96.427979 
L 229.060465 96.091096 
M 230.165581 95.721762 
L 230.71814 95.795382 
L 231.270698 95.319881 
L 232.375814 95.537206 
M 233.48093 94.898272 
L 234.033488 95.194653 
L 234.586047 94.839011 
L 235.138605 94.829992 
L 235.691163 94.983276 
M 236.796279 94.278495 
L 237.348837 94.299591 
L 237.901395 93.773728 
M 239.006512 93.462368 
L 239.55907 93.650863 
L 240.111628 92.87179 
L 240.664186 92.478221 
L 241.216744 91.735672 
L 241.769302 91.313431 
L 242.32186 91.371083 
M 243.426977 91.755731 
L 244.532093 89.948493 
L 245.084651 90.061683 
L 245.637209 89.783892 
L 246.742326 90.113308 
L 247.847442 90.839315 
L 248.4 90.749669 
L 250.057674 90.849807 
L 250.610233 90.506163 
L 251.162791 91.526722 
L 251.715349 91.118092 
L 252.267907 91.802887 
L 253.373023 92.686346 
L 253.925581 92.925373 
L 254.47814 92.37933 
L 255.030698 92.09882 
L 255.583256 92.32157 
L 256.135814 91.964965 
L 256.688372 91.290848 
L 257.24093 90.969657 
L 257.793488 91.32234 
L 258.346047 90.660279 
L 258.898605 91.490275 
L 259.451163 90.85156 
L 260.003721 90.972088 
L 260.556279 90.978462 
L 261.108837 91.469222 
L 261.661395 91.744624 
L 262.213953 91.678531 
L 262.766512 90.78147 
L 263.31907 90.138877 
L 263.871628 90.06521 
L 266.08186 93.710865 
L 266.634419 95.084582 
L 267.186977 95.603364 
L 267.739535 95.725478 
L 268.292093 96.078125 
L 268.844651 95.374674 
L 269.397209 95.324496 
L 269.949767 95.156576 
L 271.054884 94.403858 
M 272.16 94.626321 
L 272.712558 94.935481 
L 273.265116 94.907047 
L 273.817674 95.63863 
L 274.370233 97.076339 
L 274.922791 97.224923 
L 275.475349 98.172698 
M 277.133023 98.477629 
L 277.685581 99.463438 
L 278.23814 100.015586 
L 278.790698 99.951543 
L 279.343256 100.442454 
L 279.895814 100.734603 
L 280.448372 99.927744 
L 281.00093 99.577135 
L 281.553488 98.497009 
L 282.106047 98.787457 
L 282.658605 98.677529 
L 283.211163 99.159877 
L 283.763721 100.235886 
L 284.868837 98.75402 
L 285.421395 98.573296 
L 286.526512 98.885104 
L 287.07907 97.021921 
L 287.631628 96.014193 
L 288.184186 95.308988 
L 288.736744 94.006119 
M 289.84186 93.244295 
L 290.946977 92.388528 
L 291.499535 92.520228 
L 292.052093 91.621696 
L 292.604651 91.061607 
L 293.157209 89.248194 
L 293.709767 87.933897 
L 294.262326 87.518225 
M 295.367442 87.10916 
L 295.92 87.233204 
L 296.472558 86.652801 
L 297.025116 85.712503 
L 297.577674 85.93686 
L 298.130233 84.851527 
L 298.682791 84.983803 
L 299.235349 84.373849 
L 299.787907 84.513149 
L 300.340465 84.399112 
L 300.893023 82.963201 
L 301.445581 82.333868 
L 301.99814 82.115327 
L 302.550698 80.345904 
L 303.655814 78.994446 
L 304.208372 79.597815 
L 304.76093 81.429945 
L 305.313488 80.989763 
L 305.866047 80.718505 
L 306.418605 80.062468 
L 306.971163 78.672952 
L 307.523721 78.747471 
L 309.181395 77.393435 
L 309.733953 79.135349 
L 310.286512 79.253214 
M 311.391628 79.240954 
L 311.944186 80.186292 
L 312.496744 80.024446 
L 313.049302 79.623992 
L 313.60186 78.721277 
L 314.154419 78.044417 
L 314.706977 78.040218 
L 315.259535 77.5253 
L 315.812093 76.182247 
L 316.364651 76.098821 
L 316.917209 75.793273 
L 317.469767 75.698499 
L 318.022326 75.408552 
L 319.127442 75.376174 
L 319.68 74.746407 
L 320.785116 72.782578 
L 321.890233 71.834362 
L 322.442791 71.590635 
L 322.995349 71.6554 
L 323.547907 72.309755 
L 324.100465 71.803399 
L 324.653023 71.729882 
L 325.205581 71.229719 
L 325.75814 70.993794 
L 326.310698 70.240154 
L 326.863256 70.227709 
L 327.415814 69.794671 
L 327.968372 68.054009 
L 328.52093 67.184047 
M 344.545116 67.03073 
L 345.097674 66.132471 
L 345.650233 66.001123 
L 346.202791 65.532392 
L 346.755349 66.782594 
L 347.307907 67.58801 
L 347.860465 68.168139 
L 348.413023 66.9044 
L 348.965581 67.839907 
L 349.51814 68.487173 
L 350.070698 68.51565 
L 350.623256 67.199532 
L 351.175814 67.117194 
L 351.728372 66.147936 
L 352.28093 65.536658 
L 352.833488 66.695553 
L 353.386047 68.385433 
L 353.938605 69.192575 
L 354.491163 68.872836 
L 355.596279 71.15595 
L 356.148837 71.821558 
L 356.701395 72.698022 
L 357.253953 73.277817 
L 358.35907 72.566542 
L 358.911628 72.910697 
L 359.464186 73.62376 
L 360.016744 75.200562 
L 360.569302 75.697526 
L 361.12186 76.583067 
L 362.226977 79.548595 
L 362.779535 80.257083 
L 363.884651 81.883845 
L 364.989767 82.8 
L 364.989767 82.8 
" style="fill:none;stroke:#1f77b4;stroke-linecap:square;stroke-width:1.5;"/>
   </g>
   <g id="line2d_14">
    <path clip-path="url(#p7ebdfb252f)" d="M 34.56 82.8 
L 414.72 82.8 
" style="fill:none;stroke:#000000;stroke-dasharray:1.5,2.475;stroke-dashoffset:0;stroke-width:1.5;"/>
   </g>
   <g id="patch_3">
    <path d="M 34.56 162 
L 34.56 3.6 
" style="fill:none;stroke:#000000;stroke-linecap:square;stroke-linejoin:miter;stroke-width:0.8;"/>
   </g>
   <g id="patch_4">
    <path d="M 414.72 162 
L 414.72 3.6 
" style="fill:none;stroke:#000000;stroke-linecap:square;stroke-linejoin:miter;stroke-width:0.8;"/>
   </g>
   <g id="patch_5">
    <path d="M 34.56 162 
L 414.72 162 
" style="fill:none;stroke:#000000;stroke-linecap:square;stroke-linejoin:miter;stroke-width:0.8;"/>
   </g>
   <g id="patch_6">
    <path d="M 34.56 3.6 
L 414.72 3.6 
" style="fill:none;stroke:#000000;stroke-linecap:square;stroke-linejoin:miter;stroke-width:0.8;"/>
   </g>
  </g>
 </g>
 <defs>
  <clipPath id="p7ebdfb252f">
   <rect height="158.4" width="380.16" x="34.56" y="3.6"/>
  </clipPath>
 </defs>
</svg>
