<?xml version="1.0" encoding="utf-8" standalone="no"?>
<!DOCTYPE svg PUBLIC "-//W3C//DTD SVG 1.1//EN"
  "http://www.w3.org/Graphics/SVG/1.1/DTD/svg11.dtd">
<svg height="180pt" version="1.1" viewBox="0 0 432 180" width="432pt" xmlns="http://www.w3.org/2000/svg" xmlns:xlink="http://www.w3.org/1999/xlink">
 <metadata>
  <rdf:RDF xmlns:cc="http://creativecommons.org/ns#" xmlns:dc="http://purl.org/dc/elements/1.1/" xmlns:rdf="http://www.w3.org/1999/02/22-rdf-syntax-ns#">
   <cc:Work>
    <dc:type rdf:resource="http://purl.org/dc/dcmitype/StillImage"/>
    <dc:date>2021-08-12T10:41:48.289465</dc:date>
    <dc:format>image/svg+xml</dc:format>
    <dc:creator>
     <cc:Agent>
      <dc:title>Matplotlib v3.4.2, https://matplotlib.org/</dc:title>
     </cc:Agent>
    </dc:creator>
   </cc:Work>
  </rdf:RDF>
 </metadata>
 <defs>
  <style type="text/css">*{stroke-linecap:butt;stroke-linejoin:round;}</style>
 </defs>
 <g id="figure_1">
  <g id="patch_1">
   <path d="M 0 180 
L 432 180 
L 432 0 
L 0 0 
z
" style="fill:#ffffff;"/>
  </g>
  <g id="axes_1">
   <g id="patch_2">
    <path d="M 34.56 162 
L 414.72 162 
L 414.72 3.6 
L 34.56 3.6 
z
" style="fill:#ffffff;"/>
   </g>
   <g id="PolyCollection_1">
    <path clip-path="url(#p941472e246)" d="M 70.162914 82.410189 
L 70.162914 83.189811 
L 70.558502 83.578109 
L 70.954089 83.9654 
L 71.349677 84.351684 
L 71.745265 84.73696 
L 72.140853 85.12123 
L 72.536441 85.504492 
L 72.932029 85.886746 
L 73.327617 86.267994 
L 73.723205 86.648234 
L 74.118793 87.027467 
L 74.514381 87.405692 
L 74.909969 87.782911 
L 75.305557 88.159122 
L 75.701145 88.534326 
L 76.096733 88.908522 
L 76.49232 89.281712 
L 76.887908 89.653894 
L 77.283496 90.025069 
L 77.679084 90.395236 
L 78.074672 90.764397 
L 78.47026 91.13255 
L 78.865848 91.499696 
L 79.261436 91.865834 
L 79.657024 92.230965 
L 80.052612 92.595089 
L 80.4482 92.958206 
L 80.843788 93.320316 
L 81.239376 93.681418 
L 81.634964 94.041513 
L 82.030552 94.400601 
L 82.426139 94.758681 
L 82.821727 95.115754 
L 83.217315 95.47182 
L 83.612903 95.826879 
L 84.008491 96.18093 
L 84.404079 96.533975 
L 84.799667 96.886012 
L 85.195255 97.237041 
L 85.590843 97.587064 
L 85.986431 97.936079 
L 86.382019 98.284087 
L 86.777607 98.631087 
L 87.173195 98.977081 
L 87.568783 99.322067 
L 87.96437 99.666046 
L 88.359958 100.009017 
L 88.755546 100.350982 
L 89.151134 100.691939 
L 89.546722 101.031888 
L 89.94231 101.370831 
L 90.337898 101.708766 
L 90.733486 102.045694 
L 91.129074 102.381615 
L 91.524662 102.716529 
L 91.92025 103.050435 
L 92.315838 103.383334 
L 92.711426 103.715226 
L 93.107014 104.04611 
L 93.502601 104.375987 
L 93.898189 104.704857 
L 94.293777 105.03272 
L 94.689365 105.359576 
L 95.084953 105.685424 
L 95.480541 106.010265 
L 95.876129 106.334098 
L 96.271717 106.656925 
L 96.667305 106.978744 
L 97.062893 107.299556 
L 97.458481 107.619361 
L 97.854069 107.938158 
L 98.249657 108.255948 
L 98.645245 108.572731 
L 99.040832 108.888507 
L 99.43642 109.203275 
L 99.832008 109.517036 
L 100.227596 109.82979 
L 100.623184 110.141536 
L 101.018772 110.452276 
L 101.41436 110.762008 
L 101.809948 111.070733 
L 102.205536 111.37845 
L 102.601124 111.68516 
L 102.996712 111.990863 
L 103.3923 112.295559 
L 103.787888 112.599248 
L 104.183476 112.901929 
L 104.579063 113.203603 
L 104.974651 113.50427 
L 105.370239 113.803929 
L 105.765827 114.102581 
L 106.161415 114.400226 
L 106.557003 114.696864 
L 106.952591 114.992494 
L 107.348179 115.287118 
L 107.743767 115.580733 
L 108.139355 115.873342 
L 108.534943 116.164944 
L 108.930531 116.455538 
L 109.326119 116.745125 
L 109.721707 117.033704 
L 110.117294 117.321277 
L 110.512882 117.607842 
L 110.90847 117.893399 
L 111.304058 118.17795 
L 111.699646 118.461493 
L 112.095234 118.744029 
L 112.490822 119.025558 
L 112.88641 119.30608 
L 113.281998 119.585594 
L 113.677586 119.864101 
L 114.073174 120.141601 
L 114.468762 120.418093 
L 114.86435 120.693579 
L 115.259938 120.968057 
L 115.655525 121.241527 
L 116.051113 121.513991 
L 116.446701 121.785447 
L 116.842289 122.055896 
L 117.237877 122.325338 
L 117.633465 122.593772 
L 118.029053 122.8612 
L 118.424641 123.127619 
L 118.820229 123.393032 
L 119.215817 123.657438 
L 119.611405 123.920836 
L 120.006993 124.183227 
L 120.402581 124.44461 
L 120.798169 124.704987 
L 121.193757 124.964356 
L 121.589344 125.222718 
L 121.984932 125.480072 
L 122.38052 125.73642 
L 122.776108 125.99176 
L 123.171696 126.246092 
L 123.567284 126.499418 
L 123.962872 126.751736 
L 124.35846 127.003047 
L 124.754048 127.253351 
L 125.149636 127.502648 
L 125.545224 127.750937 
L 125.940812 127.998219 
L 126.3364 128.244494 
L 126.731988 128.489761 
L 127.127575 128.734022 
L 127.523163 128.977274 
L 127.918751 129.21952 
L 128.314339 129.460759 
L 128.709927 129.70099 
L 129.105515 129.940214 
L 129.501103 130.178431 
L 129.896691 130.41564 
L 130.292279 130.651842 
L 130.687867 130.887037 
L 131.083455 131.121225 
L 131.479043 131.354405 
L 131.874631 131.586578 
L 132.270219 131.817744 
L 132.665806 132.047903 
L 133.061394 132.277054 
L 133.456982 132.505198 
L 133.85257 132.732335 
L 134.248158 132.958465 
L 134.643746 133.183587 
L 135.039334 133.407702 
L 135.434922 133.63081 
L 135.83051 133.85291 
L 136.226098 134.074004 
L 136.621686 134.29409 
L 137.017274 134.513168 
L 137.412862 134.73124 
L 137.80845 134.948304 
L 138.204037 135.164361 
L 138.599625 135.379411 
L 138.995213 135.593453 
L 139.390801 135.806489 
L 139.786389 136.018517 
L 140.181977 136.229537 
L 140.577565 136.439551 
L 140.973153 136.648557 
L 141.368741 136.856556 
L 141.764329 137.063548 
L 142.159917 137.269532 
L 142.555505 137.474509 
L 142.951093 137.678479 
L 143.346681 137.881442 
L 143.742268 138.083397 
L 144.137856 138.284345 
L 144.533444 138.484286 
L 144.929032 138.68322 
L 145.32462 138.881146 
L 145.720208 139.078065 
L 146.115796 139.273977 
L 146.511384 139.468881 
L 146.906972 139.662779 
L 147.30256 139.855669 
L 147.698148 140.047551 
L 148.093736 140.238427 
L 148.489324 140.428295 
L 148.884912 140.617156 
L 149.280499 140.80501 
L 149.676087 140.991857 
L 150.071675 141.177696 
L 150.467263 141.362528 
L 150.862851 141.546352 
L 151.258439 141.72917 
L 151.654027 141.91098 
L 152.049615 142.091783 
L 152.445203 142.271579 
L 152.840791 142.450367 
L 153.236379 142.628148 
L 153.631967 142.804922 
L 154.027555 142.980689 
L 154.423143 143.155448 
L 154.81873 143.3292 
L 155.214318 143.501945 
L 155.609906 143.673683 
L 156.005494 143.844413 
L 156.401082 144.014136 
L 156.79667 144.182852 
L 157.192258 144.350561 
L 157.587846 144.517262 
L 157.983434 144.682956 
L 158.379022 144.847643 
L 158.77461 145.011322 
L 159.170198 145.173995 
L 159.565786 145.33566 
L 159.961374 145.496318 
L 160.356961 145.655968 
L 160.752549 145.814611 
L 160.752549 19.785389 
L 160.752549 19.785389 
L 160.356961 19.944032 
L 159.961374 20.103682 
L 159.565786 20.26434 
L 159.170198 20.426005 
L 158.77461 20.588678 
L 158.379022 20.752357 
L 157.983434 20.917044 
L 157.587846 21.082738 
L 157.192258 21.249439 
L 156.79667 21.417148 
L 156.401082 21.585864 
L 156.005494 21.755587 
L 155.609906 21.926317 
L 155.214318 22.098055 
L 154.81873 22.2708 
L 154.423143 22.444552 
L 154.027555 22.619311 
L 153.631967 22.795078 
L 153.236379 22.971852 
L 152.840791 23.149633 
L 152.445203 23.328421 
L 152.049615 23.508217 
L 151.654027 23.68902 
L 151.258439 23.87083 
L 150.862851 24.053648 
L 150.467263 24.237472 
L 150.071675 24.422304 
L 149.676087 24.608143 
L 149.280499 24.79499 
L 148.884912 24.982844 
L 148.489324 25.171705 
L 148.093736 25.361573 
L 147.698148 25.552449 
L 147.30256 25.744331 
L 146.906972 25.937221 
L 146.511384 26.131119 
L 146.115796 26.326023 
L 145.720208 26.521935 
L 145.32462 26.718854 
L 144.929032 26.91678 
L 144.533444 27.115714 
L 144.137856 27.315655 
L 143.742268 27.516603 
L 143.346681 27.718558 
L 142.951093 27.921521 
L 142.555505 28.125491 
L 142.159917 28.330468 
L 141.764329 28.536452 
L 141.368741 28.743444 
L 140.973153 28.951443 
L 140.577565 29.160449 
L 140.181977 29.370463 
L 139.786389 29.581483 
L 139.390801 29.793511 
L 138.995213 30.006547 
L 138.599625 30.220589 
L 138.204037 30.435639 
L 137.80845 30.651696 
L 137.412862 30.86876 
L 137.017274 31.086832 
L 136.621686 31.30591 
L 136.226098 31.525996 
L 135.83051 31.74709 
L 135.434922 31.96919 
L 135.039334 32.192298 
L 134.643746 32.416413 
L 134.248158 32.641535 
L 133.85257 32.867665 
L 133.456982 33.094802 
L 133.061394 33.322946 
L 132.665806 33.552097 
L 132.270219 33.782256 
L 131.874631 34.013422 
L 131.479043 34.245595 
L 131.083455 34.478775 
L 130.687867 34.712963 
L 130.292279 34.948158 
L 129.896691 35.18436 
L 129.501103 35.421569 
L 129.105515 35.659786 
L 128.709927 35.89901 
L 128.314339 36.139241 
L 127.918751 36.38048 
L 127.523163 36.622726 
L 127.127575 36.865978 
L 126.731988 37.110239 
L 126.3364 37.355506 
L 125.940812 37.601781 
L 125.545224 37.849063 
L 125.149636 38.097352 
L 124.754048 38.346649 
L 124.35846 38.596953 
L 123.962872 38.848264 
L 123.567284 39.100582 
L 123.171696 39.353908 
L 122.776108 39.60824 
L 122.38052 39.86358 
L 121.984932 40.119928 
L 121.589344 40.377282 
L 121.193757 40.635644 
L 120.798169 40.895013 
L 120.402581 41.15539 
L 120.006993 41.416773 
L 119.611405 41.679164 
L 119.215817 41.942562 
L 118.820229 42.206968 
L 118.424641 42.472381 
L 118.029053 42.7388 
L 117.633465 43.006228 
L 117.237877 43.274662 
L 116.842289 43.544104 
L 116.446701 43.814553 
L 116.051113 44.086009 
L 115.655525 44.358473 
L 115.259938 44.631943 
L 114.86435 44.906421 
L 114.468762 45.181907 
L 114.073174 45.458399 
L 113.677586 45.735899 
L 113.281998 46.014406 
L 112.88641 46.29392 
L 112.490822 46.574442 
L 112.095234 46.855971 
L 111.699646 47.138507 
L 111.304058 47.42205 
L 110.90847 47.706601 
L 110.512882 47.992158 
L 110.117294 48.278723 
L 109.721707 48.566296 
L 109.326119 48.854875 
L 108.930531 49.144462 
L 108.534943 49.435056 
L 108.139355 49.726658 
L 107.743767 50.019267 
L 107.348179 50.312882 
L 106.952591 50.607506 
L 106.557003 50.903136 
L 106.161415 51.199774 
L 105.765827 51.497419 
L 105.370239 51.796071 
L 104.974651 52.09573 
L 104.579063 52.396397 
L 104.183476 52.698071 
L 103.787888 53.000752 
L 103.3923 53.304441 
L 102.996712 53.609137 
L 102.601124 53.91484 
L 102.205536 54.22155 
L 101.809948 54.529267 
L 101.41436 54.837992 
L 101.018772 55.147724 
L 100.623184 55.458464 
L 100.227596 55.77021 
L 99.832008 56.082964 
L 99.43642 56.396725 
L 99.040832 56.711493 
L 98.645245 57.027269 
L 98.249657 57.344052 
L 97.854069 57.661842 
L 97.458481 57.980639 
L 97.062893 58.300444 
L 96.667305 58.621256 
L 96.271717 58.943075 
L 95.876129 59.265902 
L 95.480541 59.589735 
L 95.084953 59.914576 
L 94.689365 60.240424 
L 94.293777 60.56728 
L 93.898189 60.895143 
L 93.502601 61.224013 
L 93.107014 61.55389 
L 92.711426 61.884774 
L 92.315838 62.216666 
L 91.92025 62.549565 
L 91.524662 62.883471 
L 91.129074 63.218385 
L 90.733486 63.554306 
L 90.337898 63.891234 
L 89.94231 64.229169 
L 89.546722 64.568112 
L 89.151134 64.908061 
L 88.755546 65.249018 
L 88.359958 65.590983 
L 87.96437 65.933954 
L 87.568783 66.277933 
L 87.173195 66.622919 
L 86.777607 66.968913 
L 86.382019 67.315913 
L 85.986431 67.663921 
L 85.590843 68.012936 
L 85.195255 68.362959 
L 84.799667 68.713988 
L 84.404079 69.066025 
L 84.008491 69.41907 
L 83.612903 69.773121 
L 83.217315 70.12818 
L 82.821727 70.484246 
L 82.426139 70.841319 
L 82.030552 71.199399 
L 81.634964 71.558487 
L 81.239376 71.918582 
L 80.843788 72.279684 
L 80.4482 72.641794 
L 80.052612 73.004911 
L 79.657024 73.369035 
L 79.261436 73.734166 
L 78.865848 74.100304 
L 78.47026 74.46745 
L 78.074672 74.835603 
L 77.679084 75.204764 
L 77.283496 75.574931 
L 76.887908 75.946106 
L 76.49232 76.318288 
L 76.096733 76.691478 
L 75.701145 77.065674 
L 75.305557 77.440878 
L 74.909969 77.817089 
L 74.514381 78.194308 
L 74.118793 78.572533 
L 73.723205 78.951766 
L 73.327617 79.332006 
L 72.932029 79.713254 
L 72.536441 80.095508 
L 72.140853 80.47877 
L 71.745265 80.86304 
L 71.349677 81.248316 
L 70.954089 81.6346 
L 70.558502 82.021891 
L 70.162914 82.410189 
z
" style="fill:#0000ff;fill-opacity:0.1;stroke:#0000ff;stroke-opacity:0.1;"/>
    <path clip-path="url(#p941472e246)" d="M 163.917253 19.627753 
L 163.917253 145.972247 
L 164.312841 146.128876 
L 164.708429 146.284497 
L 165.104017 146.439112 
L 165.499605 146.592719 
L 165.895193 146.745318 
L 166.29078 146.896911 
L 166.686368 147.047496 
L 167.081956 147.197074 
L 167.477544 147.345645 
L 167.873132 147.493208 
L 168.26872 147.639764 
L 168.664308 147.785313 
L 169.059896 147.929855 
L 169.455484 148.073389 
L 169.851072 148.215916 
L 170.24666 148.357436 
L 170.642248 148.497949 
L 171.037836 148.637454 
L 171.433424 148.775952 
L 171.829011 148.913443 
L 172.224599 149.049926 
L 172.620187 149.185403 
L 173.015775 149.319872 
L 173.411363 149.453333 
L 173.806951 149.585788 
L 174.202539 149.717235 
L 174.598127 149.847675 
L 174.993715 149.977108 
L 175.389303 150.105533 
L 175.784891 150.232952 
L 176.180479 150.359363 
L 176.576067 150.484766 
L 176.971655 150.609163 
L 177.367242 150.732552 
L 177.76283 150.854934 
L 178.158418 150.976309 
L 178.554006 151.096676 
L 178.949594 151.216036 
L 179.345182 151.334389 
L 179.74077 151.451735 
L 180.136358 151.568073 
L 180.531946 151.683404 
L 180.927534 151.797728 
L 181.323122 151.911045 
L 181.71871 152.023354 
L 182.114298 152.134656 
L 182.509886 152.244951 
L 182.905473 152.354239 
L 183.301061 152.462519 
L 183.696649 152.569792 
L 184.092237 152.676058 
L 184.487825 152.781316 
L 184.883413 152.885568 
L 185.279001 152.988812 
L 185.674589 153.091048 
L 186.070177 153.192278 
L 186.465765 153.2925 
L 186.861353 153.391715 
L 187.256941 153.489923 
L 187.652529 153.587123 
L 188.048117 153.683316 
L 188.443704 153.778502 
L 188.839292 153.872681 
L 189.23488 153.965853 
L 189.630468 154.058017 
L 190.026056 154.149174 
L 190.421644 154.239323 
L 190.817232 154.328466 
L 191.21282 154.416601 
L 191.608408 154.503729 
L 192.003996 154.589849 
L 192.399584 154.674963 
L 192.795172 154.759069 
L 193.19076 154.842168 
L 193.586348 154.924259 
L 193.981935 155.005344 
L 194.377523 155.085421 
L 194.773111 155.16449 
L 195.168699 155.242553 
L 195.564287 155.319608 
L 195.959875 155.395656 
L 196.355463 155.470697 
L 196.751051 155.544731 
L 197.146639 155.617757 
L 197.542227 155.689776 
L 197.937815 155.760788 
L 198.333403 155.830792 
L 198.728991 155.899789 
L 199.124579 155.967779 
L 199.520166 156.034762 
L 199.915754 156.100737 
L 200.311342 156.165706 
L 200.70693 156.229666 
L 201.102518 156.29262 
L 201.498106 156.354567 
L 201.893694 156.415506 
L 202.289282 156.475438 
L 202.68487 156.534362 
L 203.080458 156.59228 
L 203.476046 156.64919 
L 203.871634 156.705093 
L 204.267222 156.759988 
L 204.66281 156.813877 
L 205.058398 156.866758 
L 205.453985 156.918631 
L 205.849573 156.969498 
L 206.245161 157.019357 
L 206.640749 157.068209 
L 207.036337 157.116054 
L 207.431925 157.162892 
L 207.827513 157.208722 
L 208.223101 157.253545 
L 208.618689 157.297361 
L 209.014277 157.340169 
L 209.409865 157.38197 
L 209.805453 157.422764 
L 210.201041 157.462551 
L 210.596629 157.501331 
L 210.992216 157.539103 
L 211.387804 157.575868 
L 211.783392 157.611625 
L 212.17898 157.646376 
L 212.574568 157.680119 
L 212.970156 157.712855 
L 213.365744 157.744584 
L 213.761332 157.775305 
L 214.15692 157.805019 
L 214.15692 7.794981 
L 214.15692 7.794981 
L 213.761332 7.824695 
L 213.365744 7.855416 
L 212.970156 7.887145 
L 212.574568 7.919881 
L 212.17898 7.953624 
L 211.783392 7.988375 
L 211.387804 8.024132 
L 210.992216 8.060897 
L 210.596629 8.098669 
L 210.201041 8.137449 
L 209.805453 8.177236 
L 209.409865 8.21803 
L 209.014277 8.259831 
L 208.618689 8.302639 
L 208.223101 8.346455 
L 207.827513 8.391278 
L 207.431925 8.437108 
L 207.036337 8.483946 
L 206.640749 8.531791 
L 206.245161 8.580643 
L 205.849573 8.630502 
L 205.453985 8.681369 
L 205.058398 8.733242 
L 204.66281 8.786123 
L 204.267222 8.840012 
L 203.871634 8.894907 
L 203.476046 8.95081 
L 203.080458 9.00772 
L 202.68487 9.065638 
L 202.289282 9.124562 
L 201.893694 9.184494 
L 201.498106 9.245433 
L 201.102518 9.30738 
L 200.70693 9.370334 
L 200.311342 9.434294 
L 199.915754 9.499263 
L 199.520166 9.565238 
L 199.124579 9.632221 
L 198.728991 9.700211 
L 198.333403 9.769208 
L 197.937815 9.839212 
L 197.542227 9.910224 
L 197.146639 9.982243 
L 196.751051 10.055269 
L 196.355463 10.129303 
L 195.959875 10.204344 
L 195.564287 10.280392 
L 195.168699 10.357447 
L 194.773111 10.43551 
L 194.377523 10.514579 
L 193.981935 10.594656 
L 193.586348 10.675741 
L 193.19076 10.757832 
L 192.795172 10.840931 
L 192.399584 10.925037 
L 192.003996 11.010151 
L 191.608408 11.096271 
L 191.21282 11.183399 
L 190.817232 11.271534 
L 190.421644 11.360677 
L 190.026056 11.450826 
L 189.630468 11.541983 
L 189.23488 11.634147 
L 188.839292 11.727319 
L 188.443704 11.821498 
L 188.048117 11.916684 
L 187.652529 12.012877 
L 187.256941 12.110077 
L 186.861353 12.208285 
L 186.465765 12.3075 
L 186.070177 12.407722 
L 185.674589 12.508952 
L 185.279001 12.611188 
L 184.883413 12.714432 
L 184.487825 12.818684 
L 184.092237 12.923942 
L 183.696649 13.030208 
L 183.301061 13.137481 
L 182.905473 13.245761 
L 182.509886 13.355049 
L 182.114298 13.465344 
L 181.71871 13.576646 
L 181.323122 13.688955 
L 180.927534 13.802272 
L 180.531946 13.916596 
L 180.136358 14.031927 
L 179.74077 14.148265 
L 179.345182 14.265611 
L 178.949594 14.383964 
L 178.554006 14.503324 
L 178.158418 14.623691 
L 177.76283 14.745066 
L 177.367242 14.867448 
L 176.971655 14.990837 
L 176.576067 15.115234 
L 176.180479 15.240637 
L 175.784891 15.367048 
L 175.389303 15.494467 
L 174.993715 15.622892 
L 174.598127 15.752325 
L 174.202539 15.882765 
L 173.806951 16.014212 
L 173.411363 16.146667 
L 173.015775 16.280128 
L 172.620187 16.414597 
L 172.224599 16.550074 
L 171.829011 16.686557 
L 171.433424 16.824048 
L 171.037836 16.962546 
L 170.642248 17.102051 
L 170.24666 17.242564 
L 169.851072 17.384084 
L 169.455484 17.526611 
L 169.059896 17.670145 
L 168.664308 17.814687 
L 168.26872 17.960236 
L 167.873132 18.106792 
L 167.477544 18.254355 
L 167.081956 18.402926 
L 166.686368 18.552504 
L 166.29078 18.703089 
L 165.895193 18.854682 
L 165.499605 19.007281 
L 165.104017 19.160888 
L 164.708429 19.315503 
L 164.312841 19.471124 
L 163.917253 19.627753 
z
" style="fill:#0000ff;fill-opacity:0.1;stroke:#0000ff;stroke-opacity:0.1;"/>
    <path clip-path="url(#p941472e246)" d="M 214.948096 7.766274 
L 214.948096 157.833726 
L 215.343684 157.861426 
L 215.739272 157.888118 
L 216.13486 157.913803 
L 216.530447 157.938481 
L 216.926035 157.962151 
L 217.321623 157.984815 
L 217.717211 158.006471 
L 218.112799 158.02712 
L 218.508387 158.046761 
L 218.903975 158.065396 
L 219.299563 158.083023 
L 219.695151 158.099642 
L 220.090739 158.115255 
L 220.486327 158.12986 
L 220.881915 158.143458 
L 221.277503 158.156049 
L 221.673091 158.167632 
L 222.068678 158.178208 
L 222.464266 158.187777 
L 222.859854 158.196339 
L 223.255442 158.203894 
L 223.65103 158.210441 
L 224.046618 158.215981 
L 224.442206 158.220513 
L 224.837794 158.224039 
L 225.233382 158.226557 
L 225.62897 158.228068 
L 226.024558 158.228571 
L 226.420146 158.228068 
L 226.815734 158.226557 
L 227.211322 158.224039 
L 227.606909 158.220513 
L 228.002497 158.215981 
L 228.398085 158.210441 
L 228.793673 158.203894 
L 229.189261 158.196339 
L 229.584849 158.187777 
L 229.980437 158.178208 
L 230.376025 158.167632 
L 230.771613 158.156049 
L 231.167201 158.143458 
L 231.562789 158.12986 
L 231.958377 158.115255 
L 232.353965 158.099642 
L 232.749553 158.083023 
L 233.14514 158.065396 
L 233.540728 158.046761 
L 233.936316 158.02712 
L 234.331904 158.006471 
L 234.727492 157.984815 
L 235.12308 157.962151 
L 235.518668 157.938481 
L 235.914256 157.913803 
L 236.309844 157.888118 
L 236.705432 157.861426 
L 237.10102 157.833726 
L 237.496608 157.805019 
L 237.892196 157.775305 
L 238.287784 157.744584 
L 238.683371 157.712855 
L 239.078959 157.680119 
L 239.474547 157.646376 
L 239.870135 157.611625 
L 240.265723 157.575868 
L 240.661311 157.539103 
L 241.056899 157.501331 
L 241.452487 157.462551 
L 241.848075 157.422764 
L 242.243663 157.38197 
L 242.639251 157.340169 
L 243.034839 157.297361 
L 243.430427 157.253545 
L 243.826015 157.208722 
L 244.221602 157.162892 
L 244.61719 157.116054 
L 245.012778 157.068209 
L 245.408366 157.019357 
L 245.803954 156.969498 
L 246.199542 156.918631 
L 246.59513 156.866758 
L 246.990718 156.813877 
L 247.386306 156.759988 
L 247.781894 156.705093 
L 248.177482 156.64919 
L 248.57307 156.59228 
L 248.968658 156.534362 
L 249.364246 156.475438 
L 249.759834 156.415506 
L 250.155421 156.354567 
L 250.551009 156.29262 
L 250.946597 156.229666 
L 251.342185 156.165706 
L 251.737773 156.100737 
L 252.133361 156.034762 
L 252.528949 155.967779 
L 252.924537 155.899789 
L 253.320125 155.830792 
L 253.715713 155.760788 
L 254.111301 155.689776 
L 254.506889 155.617757 
L 254.902477 155.544731 
L 255.298065 155.470697 
L 255.693652 155.395656 
L 256.08924 155.319608 
L 256.484828 155.242553 
L 256.880416 155.16449 
L 257.276004 155.085421 
L 257.671592 155.005344 
L 258.06718 154.924259 
L 258.462768 154.842168 
L 258.858356 154.759069 
L 259.253944 154.674963 
L 259.649532 154.589849 
L 260.04512 154.503729 
L 260.440708 154.416601 
L 260.836296 154.328466 
L 261.231883 154.239323 
L 261.627471 154.149174 
L 262.023059 154.058017 
L 262.418647 153.965853 
L 262.814235 153.872681 
L 263.209823 153.778502 
L 263.605411 153.683316 
L 264.000999 153.587123 
L 264.396587 153.489923 
L 264.792175 153.391715 
L 265.187763 153.2925 
L 265.583351 153.192278 
L 265.978939 153.091048 
L 266.374527 152.988812 
L 266.770114 152.885568 
L 267.165702 152.781316 
L 267.56129 152.676058 
L 267.956878 152.569792 
L 268.352466 152.462519 
L 268.748054 152.354239 
L 269.143642 152.244951 
L 269.53923 152.134656 
L 269.934818 152.023354 
L 270.330406 151.911045 
L 270.725994 151.797728 
L 271.121582 151.683404 
L 271.51717 151.568073 
L 271.912758 151.451735 
L 272.308345 151.334389 
L 272.703933 151.216036 
L 273.099521 151.096676 
L 273.495109 150.976309 
L 273.890697 150.854934 
L 274.286285 150.732552 
L 274.681873 150.609163 
L 275.077461 150.484766 
L 275.473049 150.359363 
L 275.868637 150.232952 
L 276.264225 150.105533 
L 276.659813 149.977108 
L 277.055401 149.847675 
L 277.450989 149.717235 
L 277.846576 149.585788 
L 278.242164 149.453333 
L 278.637752 149.319872 
L 279.03334 149.185403 
L 279.428928 149.049926 
L 279.824516 148.913443 
L 280.220104 148.775952 
L 280.615692 148.637454 
L 281.01128 148.497949 
L 281.406868 148.357436 
L 281.802456 148.215916 
L 282.198044 148.073389 
L 282.593632 147.929855 
L 282.98922 147.785313 
L 283.384807 147.639764 
L 283.780395 147.493208 
L 284.175983 147.345645 
L 284.571571 147.197074 
L 284.967159 147.047496 
L 285.362747 146.896911 
L 285.758335 146.745318 
L 286.153923 146.592719 
L 286.549511 146.439112 
L 286.945099 146.284497 
L 287.340687 146.128876 
L 287.736275 145.972247 
L 288.131863 145.814611 
L 288.527451 145.655968 
L 288.923039 145.496318 
L 289.318626 145.33566 
L 289.714214 145.173995 
L 290.109802 145.011322 
L 290.50539 144.847643 
L 290.900978 144.682956 
L 291.296566 144.517262 
L 291.692154 144.350561 
L 292.087742 144.182852 
L 292.48333 144.014136 
L 292.878918 143.844413 
L 293.274506 143.673683 
L 293.670094 143.501945 
L 294.065682 143.3292 
L 294.46127 143.155448 
L 294.856857 142.980689 
L 295.252445 142.804922 
L 295.648033 142.628148 
L 296.043621 142.450367 
L 296.439209 142.271579 
L 296.834797 142.091783 
L 297.230385 141.91098 
L 297.625973 141.72917 
L 298.021561 141.546352 
L 298.417149 141.362528 
L 298.812737 141.177696 
L 299.208325 140.991857 
L 299.603913 140.80501 
L 299.999501 140.617156 
L 300.395088 140.428295 
L 300.790676 140.238427 
L 301.186264 140.047551 
L 301.581852 139.855669 
L 301.97744 139.662779 
L 302.373028 139.468881 
L 302.768616 139.273977 
L 303.164204 139.078065 
L 303.559792 138.881146 
L 303.95538 138.68322 
L 304.350968 138.484286 
L 304.746556 138.284345 
L 305.142144 138.083397 
L 305.537732 137.881442 
L 305.933319 137.678479 
L 306.328907 137.474509 
L 306.724495 137.269532 
L 307.120083 137.063548 
L 307.515671 136.856556 
L 307.911259 136.648557 
L 308.306847 136.439551 
L 308.702435 136.229537 
L 309.098023 136.018517 
L 309.493611 135.806489 
L 309.889199 135.593453 
L 310.284787 135.379411 
L 310.680375 135.164361 
L 311.075963 134.948304 
L 311.47155 134.73124 
L 311.867138 134.513168 
L 312.262726 134.29409 
L 312.658314 134.074004 
L 313.053902 133.85291 
L 313.44949 133.63081 
L 313.845078 133.407702 
L 314.240666 133.183587 
L 314.636254 132.958465 
L 315.031842 132.732335 
L 315.42743 132.505198 
L 315.823018 132.277054 
L 316.218606 132.047903 
L 316.614194 131.817744 
L 317.009781 131.586578 
L 317.405369 131.354405 
L 317.800957 131.121225 
L 318.196545 130.887037 
L 318.592133 130.651842 
L 318.987721 130.41564 
L 319.383309 130.178431 
L 319.778897 129.940214 
L 320.174485 129.70099 
L 320.570073 129.460759 
L 320.965661 129.21952 
L 321.361249 128.977274 
L 321.756837 128.734022 
L 322.152425 128.489761 
L 322.548012 128.244494 
L 322.9436 127.998219 
L 323.339188 127.750937 
L 323.734776 127.502648 
L 324.130364 127.253351 
L 324.525952 127.003047 
L 324.92154 126.751736 
L 325.317128 126.499418 
L 325.712716 126.246092 
L 326.108304 125.99176 
L 326.503892 125.73642 
L 326.89948 125.480072 
L 327.295068 125.222718 
L 327.690656 124.964356 
L 328.086243 124.704987 
L 328.481831 124.44461 
L 328.877419 124.183227 
L 329.273007 123.920836 
L 329.668595 123.657438 
L 330.064183 123.393032 
L 330.459771 123.127619 
L 330.855359 122.8612 
L 331.250947 122.593772 
L 331.646535 122.325338 
L 332.042123 122.055896 
L 332.437711 121.785447 
L 332.833299 121.513991 
L 333.228887 121.241527 
L 333.624475 120.968057 
L 334.020062 120.693579 
L 334.41565 120.418093 
L 334.811238 120.141601 
L 335.206826 119.864101 
L 335.602414 119.585594 
L 335.998002 119.30608 
L 336.39359 119.025558 
L 336.789178 118.744029 
L 337.184766 118.461493 
L 337.580354 118.17795 
L 337.975942 117.893399 
L 338.37153 117.607842 
L 338.767118 117.321277 
L 339.162706 117.033704 
L 339.558293 116.745125 
L 339.953881 116.455538 
L 340.349469 116.164944 
L 340.745057 115.873342 
L 341.140645 115.580733 
L 341.536233 115.287118 
L 341.931821 114.992494 
L 342.327409 114.696864 
L 342.722997 114.400226 
L 343.118585 114.102581 
L 343.514173 113.803929 
L 343.909761 113.50427 
L 344.305349 113.203603 
L 344.700937 112.901929 
L 345.096524 112.599248 
L 345.492112 112.295559 
L 345.8877 111.990863 
L 346.283288 111.68516 
L 346.678876 111.37845 
L 347.074464 111.070733 
L 347.470052 110.762008 
L 347.86564 110.452276 
L 348.261228 110.141536 
L 348.656816 109.82979 
L 349.052404 109.517036 
L 349.447992 109.203275 
L 349.84358 108.888507 
L 350.239168 108.572731 
L 350.634755 108.255948 
L 351.030343 107.938158 
L 351.425931 107.619361 
L 351.821519 107.299556 
L 352.217107 106.978744 
L 352.612695 106.656925 
L 353.008283 106.334098 
L 353.403871 106.010265 
L 353.799459 105.685424 
L 354.195047 105.359576 
L 354.590635 105.03272 
L 354.986223 104.704857 
L 355.381811 104.375987 
L 355.777399 104.04611 
L 356.172986 103.715226 
L 356.568574 103.383334 
L 356.964162 103.050435 
L 357.35975 102.716529 
L 357.755338 102.381615 
L 358.150926 102.045694 
L 358.546514 101.708766 
L 358.942102 101.370831 
L 359.33769 101.031888 
L 359.733278 100.691939 
L 360.128866 100.350982 
L 360.524454 100.009017 
L 360.920042 99.666046 
L 361.31563 99.322067 
L 361.711217 98.977081 
L 362.106805 98.631087 
L 362.502393 98.284087 
L 362.897981 97.936079 
L 363.293569 97.587064 
L 363.689157 97.237041 
L 364.084745 96.886012 
L 364.480333 96.533975 
L 364.480333 69.066025 
L 364.480333 69.066025 
L 364.084745 68.713988 
L 363.689157 68.362959 
L 363.293569 68.012936 
L 362.897981 67.663921 
L 362.502393 67.315913 
L 362.106805 66.968913 
L 361.711217 66.622919 
L 361.31563 66.277933 
L 360.920042 65.933954 
L 360.524454 65.590983 
L 360.128866 65.249018 
L 359.733278 64.908061 
L 359.33769 64.568112 
L 358.942102 64.229169 
L 358.546514 63.891234 
L 358.150926 63.554306 
L 357.755338 63.218385 
L 357.35975 62.883471 
L 356.964162 62.549565 
L 356.568574 62.216666 
L 356.172986 61.884774 
L 355.777399 61.55389 
L 355.381811 61.224013 
L 354.986223 60.895143 
L 354.590635 60.56728 
L 354.195047 60.240424 
L 353.799459 59.914576 
L 353.403871 59.589735 
L 353.008283 59.265902 
L 352.612695 58.943075 
L 352.217107 58.621256 
L 351.821519 58.300444 
L 351.425931 57.980639 
L 351.030343 57.661842 
L 350.634755 57.344052 
L 350.239168 57.027269 
L 349.84358 56.711493 
L 349.447992 56.396725 
L 349.052404 56.082964 
L 348.656816 55.77021 
L 348.261228 55.458464 
L 347.86564 55.147724 
L 347.470052 54.837992 
L 347.074464 54.529267 
L 346.678876 54.22155 
L 346.283288 53.91484 
L 345.8877 53.609137 
L 345.492112 53.304441 
L 345.096524 53.000752 
L 344.700937 52.698071 
L 344.305349 52.396397 
L 343.909761 52.09573 
L 343.514173 51.796071 
L 343.118585 51.497419 
L 342.722997 51.199774 
L 342.327409 50.903136 
L 341.931821 50.607506 
L 341.536233 50.312882 
L 341.140645 50.019267 
L 340.745057 49.726658 
L 340.349469 49.435056 
L 339.953881 49.144462 
L 339.558293 48.854875 
L 339.162706 48.566296 
L 338.767118 48.278723 
L 338.37153 47.992158 
L 337.975942 47.706601 
L 337.580354 47.42205 
L 337.184766 47.138507 
L 336.789178 46.855971 
L 336.39359 46.574442 
L 335.998002 46.29392 
L 335.602414 46.014406 
L 335.206826 45.735899 
L 334.811238 45.458399 
L 334.41565 45.181907 
L 334.020062 44.906421 
L 333.624475 44.631943 
L 333.228887 44.358473 
L 332.833299 44.086009 
L 332.437711 43.814553 
L 332.042123 43.544104 
L 331.646535 43.274662 
L 331.250947 43.006228 
L 330.855359 42.7388 
L 330.459771 42.472381 
L 330.064183 42.206968 
L 329.668595 41.942562 
L 329.273007 41.679164 
L 328.877419 41.416773 
L 328.481831 41.15539 
L 328.086243 40.895013 
L 327.690656 40.635644 
L 327.295068 40.377282 
L 326.89948 40.119928 
L 326.503892 39.86358 
L 326.108304 39.60824 
L 325.712716 39.353908 
L 325.317128 39.100582 
L 324.92154 38.848264 
L 324.525952 38.596953 
L 324.130364 38.346649 
L 323.734776 38.097352 
L 323.339188 37.849063 
L 322.9436 37.601781 
L 322.548012 37.355506 
L 322.152425 37.110239 
L 321.756837 36.865978 
L 321.361249 36.622726 
L 320.965661 36.38048 
L 320.570073 36.139241 
L 320.174485 35.89901 
L 319.778897 35.659786 
L 319.383309 35.421569 
L 318.987721 35.18436 
L 318.592133 34.948158 
L 318.196545 34.712963 
L 317.800957 34.478775 
L 317.405369 34.245595 
L 317.009781 34.013422 
L 316.614194 33.782256 
L 316.218606 33.552097 
L 315.823018 33.322946 
L 315.42743 33.094802 
L 315.031842 32.867665 
L 314.636254 32.641535 
L 314.240666 32.416413 
L 313.845078 32.192298 
L 313.44949 31.96919 
L 313.053902 31.74709 
L 312.658314 31.525996 
L 312.262726 31.30591 
L 311.867138 31.086832 
L 311.47155 30.86876 
L 311.075963 30.651696 
L 310.680375 30.435639 
L 310.284787 30.220589 
L 309.889199 30.006547 
L 309.493611 29.793511 
L 309.098023 29.581483 
L 308.702435 29.370463 
L 308.306847 29.160449 
L 307.911259 28.951443 
L 307.515671 28.743444 
L 307.120083 28.536452 
L 306.724495 28.330468 
L 306.328907 28.125491 
L 305.933319 27.921521 
L 305.537732 27.718558 
L 305.142144 27.516603 
L 304.746556 27.315655 
L 304.350968 27.115714 
L 303.95538 26.91678 
L 303.559792 26.718854 
L 303.164204 26.521935 
L 302.768616 26.326023 
L 302.373028 26.131119 
L 301.97744 25.937221 
L 301.581852 25.744331 
L 301.186264 25.552449 
L 300.790676 25.361573 
L 300.395088 25.171705 
L 299.999501 24.982844 
L 299.603913 24.79499 
L 299.208325 24.608143 
L 298.812737 24.422304 
L 298.417149 24.237472 
L 298.021561 24.053648 
L 297.625973 23.87083 
L 297.230385 23.68902 
L 296.834797 23.508217 
L 296.439209 23.328421 
L 296.043621 23.149633 
L 295.648033 22.971852 
L 295.252445 22.795078 
L 294.856857 22.619311 
L 294.46127 22.444552 
L 294.065682 22.2708 
L 293.670094 22.098055 
L 293.274506 21.926317 
L 292.878918 21.755587 
L 292.48333 21.585864 
L 292.087742 21.417148 
L 291.692154 21.249439 
L 291.296566 21.082738 
L 290.900978 20.917044 
L 290.50539 20.752357 
L 290.109802 20.588678 
L 289.714214 20.426005 
L 289.318626 20.26434 
L 288.923039 20.103682 
L 288.527451 19.944032 
L 288.131863 19.785389 
L 287.736275 19.627753 
L 287.340687 19.471124 
L 286.945099 19.315503 
L 286.549511 19.160888 
L 286.153923 19.007281 
L 285.758335 18.854682 
L 285.362747 18.703089 
L 284.967159 18.552504 
L 284.571571 18.402926 
L 284.175983 18.254355 
L 283.780395 18.106792 
L 283.384807 17.960236 
L 282.98922 17.814687 
L 282.593632 17.670145 
L 282.198044 17.526611 
L 281.802456 17.384084 
L 281.406868 17.242564 
L 281.01128 17.102051 
L 280.615692 16.962546 
L 280.220104 16.824048 
L 279.824516 16.686557 
L 279.428928 16.550074 
L 279.03334 16.414597 
L 278.637752 16.280128 
L 278.242164 16.146667 
L 277.846576 16.014212 
L 277.450989 15.882765 
L 277.055401 15.752325 
L 276.659813 15.622892 
L 276.264225 15.494467 
L 275.868637 15.367048 
L 275.473049 15.240637 
L 275.077461 15.115234 
L 274.681873 14.990837 
L 274.286285 14.867448 
L 273.890697 14.745066 
L 273.495109 14.623691 
L 273.099521 14.503324 
L 272.703933 14.383964 
L 272.308345 14.265611 
L 271.912758 14.148265 
L 271.51717 14.031927 
L 271.121582 13.916596 
L 270.725994 13.802272 
L 270.330406 13.688955 
L 269.934818 13.576646 
L 269.53923 13.465344 
L 269.143642 13.355049 
L 268.748054 13.245761 
L 268.352466 13.137481 
L 267.956878 13.030208 
L 267.56129 12.923942 
L 267.165702 12.818684 
L 266.770114 12.714432 
L 266.374527 12.611188 
L 265.978939 12.508952 
L 265.583351 12.407722 
L 265.187763 12.3075 
L 264.792175 12.208285 
L 264.396587 12.110077 
L 264.000999 12.012877 
L 263.605411 11.916684 
L 263.209823 11.821498 
L 262.814235 11.727319 
L 262.418647 11.634147 
L 262.023059 11.541983 
L 261.627471 11.450826 
L 261.231883 11.360677 
L 260.836296 11.271534 
L 260.440708 11.183399 
L 260.04512 11.096271 
L 259.649532 11.010151 
L 259.253944 10.925037 
L 258.858356 10.840931 
L 258.462768 10.757832 
L 258.06718 10.675741 
L 257.671592 10.594656 
L 257.276004 10.514579 
L 256.880416 10.43551 
L 256.484828 10.357447 
L 256.08924 10.280392 
L 255.693652 10.204344 
L 255.298065 10.129303 
L 254.902477 10.055269 
L 254.506889 9.982243 
L 254.111301 9.910224 
L 253.715713 9.839212 
L 253.320125 9.769208 
L 252.924537 9.700211 
L 252.528949 9.632221 
L 252.133361 9.565238 
L 251.737773 9.499263 
L 251.342185 9.434294 
L 250.946597 9.370334 
L 250.551009 9.30738 
L 250.155421 9.245433 
L 249.759834 9.184494 
L 249.364246 9.124562 
L 248.968658 9.065638 
L 248.57307 9.00772 
L 248.177482 8.95081 
L 247.781894 8.894907 
L 247.386306 8.840012 
L 246.990718 8.786123 
L 246.59513 8.733242 
L 246.199542 8.681369 
L 245.803954 8.630502 
L 245.408366 8.580643 
L 245.012778 8.531791 
L 244.61719 8.483946 
L 244.221602 8.437108 
L 243.826015 8.391278 
L 243.430427 8.346455 
L 243.034839 8.302639 
L 242.639251 8.259831 
L 242.243663 8.21803 
L 241.848075 8.177236 
L 241.452487 8.137449 
L 241.056899 8.098669 
L 240.661311 8.060897 
L 240.265723 8.024132 
L 239.870135 7.988375 
L 239.474547 7.953624 
L 239.078959 7.919881 
L 238.683371 7.887145 
L 238.287784 7.855416 
L 237.892196 7.824695 
L 237.496608 7.794981 
L 237.10102 7.766274 
L 236.705432 7.738574 
L 236.309844 7.711882 
L 235.914256 7.686197 
L 235.518668 7.661519 
L 235.12308 7.637849 
L 234.727492 7.615185 
L 234.331904 7.593529 
L 233.936316 7.57288 
L 233.540728 7.553239 
L 233.14514 7.534604 
L 232.749553 7.516977 
L 232.353965 7.500358 
L 231.958377 7.484745 
L 231.562789 7.47014 
L 231.167201 7.456542 
L 230.771613 7.443951 
L 230.376025 7.432368 
L 229.980437 7.421792 
L 229.584849 7.412223 
L 229.189261 7.403661 
L 228.793673 7.396106 
L 228.398085 7.389559 
L 228.002497 7.384019 
L 227.606909 7.379487 
L 227.211322 7.375961 
L 226.815734 7.373443 
L 226.420146 7.371932 
L 226.024558 7.371429 
L 225.62897 7.371932 
L 225.233382 7.373443 
L 224.837794 7.375961 
L 224.442206 7.379487 
L 224.046618 7.384019 
L 223.65103 7.389559 
L 223.255442 7.396106 
L 222.859854 7.403661 
L 222.464266 7.412223 
L 222.068678 7.421792 
L 221.673091 7.432368 
L 221.277503 7.443951 
L 220.881915 7.456542 
L 220.486327 7.47014 
L 220.090739 7.484745 
L 219.695151 7.500358 
L 219.299563 7.516977 
L 218.903975 7.534604 
L 218.508387 7.553239 
L 218.112799 7.57288 
L 217.717211 7.593529 
L 217.321623 7.615185 
L 216.926035 7.637849 
L 216.530447 7.661519 
L 216.13486 7.686197 
L 215.739272 7.711882 
L 215.343684 7.738574 
L 214.948096 7.766274 
z
" style="fill:#0000ff;fill-opacity:0.1;stroke:#0000ff;stroke-opacity:0.1;"/>
    <path clip-path="url(#p941472e246)" d="M 365.271509 69.41907 
L 365.271509 96.18093 
L 365.667097 95.826879 
L 366.062685 95.47182 
L 366.458273 95.115754 
L 366.853861 94.758681 
L 367.249448 94.400601 
L 367.645036 94.041513 
L 368.040624 93.681418 
L 368.436212 93.320316 
L 368.8318 92.958206 
L 369.227388 92.595089 
L 369.622976 92.230965 
L 370.018564 91.865834 
L 370.414152 91.499696 
L 370.80974 91.13255 
L 371.205328 90.764397 
L 371.600916 90.395236 
L 371.996504 90.025069 
L 372.392092 89.653894 
L 372.78768 89.281712 
L 373.183267 88.908522 
L 373.578855 88.534326 
L 373.974443 88.159122 
L 374.370031 87.782911 
L 374.765619 87.405692 
L 375.161207 87.027467 
L 375.556795 86.648234 
L 375.952383 86.267994 
L 376.347971 85.886746 
L 376.743559 85.504492 
L 377.139147 85.12123 
L 377.534735 84.73696 
L 377.930323 84.351684 
L 378.325911 83.9654 
L 378.721498 83.578109 
L 379.117086 83.189811 
L 379.117086 82.410189 
L 379.117086 82.410189 
L 378.721498 82.021891 
L 378.325911 81.6346 
L 377.930323 81.248316 
L 377.534735 80.86304 
L 377.139147 80.47877 
L 376.743559 80.095508 
L 376.347971 79.713254 
L 375.952383 79.332006 
L 375.556795 78.951766 
L 375.161207 78.572533 
L 374.765619 78.194308 
L 374.370031 77.817089 
L 373.974443 77.440878 
L 373.578855 77.065674 
L 373.183267 76.691478 
L 372.78768 76.318288 
L 372.392092 75.946106 
L 371.996504 75.574931 
L 371.600916 75.204764 
L 371.205328 74.835603 
L 370.80974 74.46745 
L 370.414152 74.100304 
L 370.018564 73.734166 
L 369.622976 73.369035 
L 369.227388 73.004911 
L 368.8318 72.641794 
L 368.436212 72.279684 
L 368.040624 71.918582 
L 367.645036 71.558487 
L 367.249448 71.199399 
L 366.853861 70.841319 
L 366.458273 70.484246 
L 366.062685 70.12818 
L 365.667097 69.773121 
L 365.271509 69.41907 
z
" style="fill:#0000ff;fill-opacity:0.1;stroke:#0000ff;stroke-opacity:0.1;"/>
   </g>
   <g id="matplotlib.axis_1">
    <g id="xtick_1">
     <g id="line2d_1">
      <defs>
       <path d="M 0 0 
L 0 3.5 
" id="m781707fc3e" style="stroke:#000000;stroke-width:0.8;"/>
      </defs>
      <g>
       <use style="stroke:#000000;stroke-width:0.8;" x="60.471009" xlink:href="#m781707fc3e" y="162"/>
      </g>
     </g>
     <g id="text_1">
      <!-- 1950 -->
      <g transform="translate(47.746009 176.598438)scale(0.1 -0.1)">
       <defs>
        <path d="M 794 531 
L 1825 531 
L 1825 4091 
L 703 3866 
L 703 4441 
L 1819 4666 
L 2450 4666 
L 2450 531 
L 3481 531 
L 3481 0 
L 794 0 
L 794 531 
z
" id="DejaVuSans-31" transform="scale(0.015625)"/>
        <path d="M 703 97 
L 703 672 
Q 941 559 1184 500 
Q 1428 441 1663 441 
Q 2288 441 2617 861 
Q 2947 1281 2994 2138 
Q 2813 1869 2534 1725 
Q 2256 1581 1919 1581 
Q 1219 1581 811 2004 
Q 403 2428 403 3163 
Q 403 3881 828 4315 
Q 1253 4750 1959 4750 
Q 2769 4750 3195 4129 
Q 3622 3509 3622 2328 
Q 3622 1225 3098 567 
Q 2575 -91 1691 -91 
Q 1453 -91 1209 -44 
Q 966 3 703 97 
z
M 1959 2075 
Q 2384 2075 2632 2365 
Q 2881 2656 2881 3163 
Q 2881 3666 2632 3958 
Q 2384 4250 1959 4250 
Q 1534 4250 1286 3958 
Q 1038 3666 1038 3163 
Q 1038 2656 1286 2365 
Q 1534 2075 1959 2075 
z
" id="DejaVuSans-39" transform="scale(0.015625)"/>
        <path d="M 691 4666 
L 3169 4666 
L 3169 4134 
L 1269 4134 
L 1269 2991 
Q 1406 3038 1543 3061 
Q 1681 3084 1819 3084 
Q 2600 3084 3056 2656 
Q 3513 2228 3513 1497 
Q 3513 744 3044 326 
Q 2575 -91 1722 -91 
Q 1428 -91 1123 -41 
Q 819 9 494 109 
L 494 744 
Q 775 591 1075 516 
Q 1375 441 1709 441 
Q 2250 441 2565 725 
Q 2881 1009 2881 1497 
Q 2881 1984 2565 2268 
Q 2250 2553 1709 2553 
Q 1456 2553 1204 2497 
Q 953 2441 691 2322 
L 691 4666 
z
" id="DejaVuSans-35" transform="scale(0.015625)"/>
        <path d="M 2034 4250 
Q 1547 4250 1301 3770 
Q 1056 3291 1056 2328 
Q 1056 1369 1301 889 
Q 1547 409 2034 409 
Q 2525 409 2770 889 
Q 3016 1369 3016 2328 
Q 3016 3291 2770 3770 
Q 2525 4250 2034 4250 
z
M 2034 4750 
Q 2819 4750 3233 4129 
Q 3647 3509 3647 2328 
Q 3647 1150 3233 529 
Q 2819 -91 2034 -91 
Q 1250 -91 836 529 
Q 422 1150 422 2328 
Q 422 3509 836 4129 
Q 1250 4750 2034 4750 
z
" id="DejaVuSans-30" transform="scale(0.015625)"/>
       </defs>
       <use xlink:href="#DejaVuSans-31"/>
       <use x="63.623047" xlink:href="#DejaVuSans-39"/>
       <use x="127.246094" xlink:href="#DejaVuSans-35"/>
       <use x="190.869141" xlink:href="#DejaVuSans-30"/>
      </g>
     </g>
    </g>
    <g id="xtick_2">
     <g id="line2d_2">
      <g>
       <use style="stroke:#000000;stroke-width:0.8;" x="107.941561" xlink:href="#m781707fc3e" y="162"/>
      </g>
     </g>
     <g id="text_2">
      <!-- 1960 -->
      <g transform="translate(95.216561 176.598438)scale(0.1 -0.1)">
       <defs>
        <path d="M 2113 2584 
Q 1688 2584 1439 2293 
Q 1191 2003 1191 1497 
Q 1191 994 1439 701 
Q 1688 409 2113 409 
Q 2538 409 2786 701 
Q 3034 994 3034 1497 
Q 3034 2003 2786 2293 
Q 2538 2584 2113 2584 
z
M 3366 4563 
L 3366 3988 
Q 3128 4100 2886 4159 
Q 2644 4219 2406 4219 
Q 1781 4219 1451 3797 
Q 1122 3375 1075 2522 
Q 1259 2794 1537 2939 
Q 1816 3084 2150 3084 
Q 2853 3084 3261 2657 
Q 3669 2231 3669 1497 
Q 3669 778 3244 343 
Q 2819 -91 2113 -91 
Q 1303 -91 875 529 
Q 447 1150 447 2328 
Q 447 3434 972 4092 
Q 1497 4750 2381 4750 
Q 2619 4750 2861 4703 
Q 3103 4656 3366 4563 
z
" id="DejaVuSans-36" transform="scale(0.015625)"/>
       </defs>
       <use xlink:href="#DejaVuSans-31"/>
       <use x="63.623047" xlink:href="#DejaVuSans-39"/>
       <use x="127.246094" xlink:href="#DejaVuSans-36"/>
       <use x="190.869141" xlink:href="#DejaVuSans-30"/>
      </g>
     </g>
    </g>
    <g id="xtick_3">
     <g id="line2d_3">
      <g>
       <use style="stroke:#000000;stroke-width:0.8;" x="155.412112" xlink:href="#m781707fc3e" y="162"/>
      </g>
     </g>
     <g id="text_3">
      <!-- 1970 -->
      <g transform="translate(142.687112 176.598438)scale(0.1 -0.1)">
       <defs>
        <path d="M 525 4666 
L 3525 4666 
L 3525 4397 
L 1831 0 
L 1172 0 
L 2766 4134 
L 525 4134 
L 525 4666 
z
" id="DejaVuSans-37" transform="scale(0.015625)"/>
       </defs>
       <use xlink:href="#DejaVuSans-31"/>
       <use x="63.623047" xlink:href="#DejaVuSans-39"/>
       <use x="127.246094" xlink:href="#DejaVuSans-37"/>
       <use x="190.869141" xlink:href="#DejaVuSans-30"/>
      </g>
     </g>
    </g>
    <g id="xtick_4">
     <g id="line2d_4">
      <g>
       <use style="stroke:#000000;stroke-width:0.8;" x="202.882664" xlink:href="#m781707fc3e" y="162"/>
      </g>
     </g>
     <g id="text_4">
      <!-- 1980 -->
      <g transform="translate(190.157664 176.598438)scale(0.1 -0.1)">
       <defs>
        <path d="M 2034 2216 
Q 1584 2216 1326 1975 
Q 1069 1734 1069 1313 
Q 1069 891 1326 650 
Q 1584 409 2034 409 
Q 2484 409 2743 651 
Q 3003 894 3003 1313 
Q 3003 1734 2745 1975 
Q 2488 2216 2034 2216 
z
M 1403 2484 
Q 997 2584 770 2862 
Q 544 3141 544 3541 
Q 544 4100 942 4425 
Q 1341 4750 2034 4750 
Q 2731 4750 3128 4425 
Q 3525 4100 3525 3541 
Q 3525 3141 3298 2862 
Q 3072 2584 2669 2484 
Q 3125 2378 3379 2068 
Q 3634 1759 3634 1313 
Q 3634 634 3220 271 
Q 2806 -91 2034 -91 
Q 1263 -91 848 271 
Q 434 634 434 1313 
Q 434 1759 690 2068 
Q 947 2378 1403 2484 
z
M 1172 3481 
Q 1172 3119 1398 2916 
Q 1625 2713 2034 2713 
Q 2441 2713 2670 2916 
Q 2900 3119 2900 3481 
Q 2900 3844 2670 4047 
Q 2441 4250 2034 4250 
Q 1625 4250 1398 4047 
Q 1172 3844 1172 3481 
z
" id="DejaVuSans-38" transform="scale(0.015625)"/>
       </defs>
       <use xlink:href="#DejaVuSans-31"/>
       <use x="63.623047" xlink:href="#DejaVuSans-39"/>
       <use x="127.246094" xlink:href="#DejaVuSans-38"/>
       <use x="190.869141" xlink:href="#DejaVuSans-30"/>
      </g>
     </g>
    </g>
    <g id="xtick_5">
     <g id="line2d_5">
      <g>
       <use style="stroke:#000000;stroke-width:0.8;" x="250.353215" xlink:href="#m781707fc3e" y="162"/>
      </g>
     </g>
     <g id="text_5">
      <!-- 1990 -->
      <g transform="translate(237.628215 176.598438)scale(0.1 -0.1)">
       <use xlink:href="#DejaVuSans-31"/>
       <use x="63.623047" xlink:href="#DejaVuSans-39"/>
       <use x="127.246094" xlink:href="#DejaVuSans-39"/>
       <use x="190.869141" xlink:href="#DejaVuSans-30"/>
      </g>
     </g>
    </g>
    <g id="xtick_6">
     <g id="line2d_6">
      <g>
       <use style="stroke:#000000;stroke-width:0.8;" x="297.823767" xlink:href="#m781707fc3e" y="162"/>
      </g>
     </g>
     <g id="text_6">
      <!-- 2000 -->
      <g transform="translate(285.098767 176.598438)scale(0.1 -0.1)">
       <defs>
        <path d="M 1228 531 
L 3431 531 
L 3431 0 
L 469 0 
L 469 531 
Q 828 903 1448 1529 
Q 2069 2156 2228 2338 
Q 2531 2678 2651 2914 
Q 2772 3150 2772 3378 
Q 2772 3750 2511 3984 
Q 2250 4219 1831 4219 
Q 1534 4219 1204 4116 
Q 875 4013 500 3803 
L 500 4441 
Q 881 4594 1212 4672 
Q 1544 4750 1819 4750 
Q 2544 4750 2975 4387 
Q 3406 4025 3406 3419 
Q 3406 3131 3298 2873 
Q 3191 2616 2906 2266 
Q 2828 2175 2409 1742 
Q 1991 1309 1228 531 
z
" id="DejaVuSans-32" transform="scale(0.015625)"/>
       </defs>
       <use xlink:href="#DejaVuSans-32"/>
       <use x="63.623047" xlink:href="#DejaVuSans-30"/>
       <use x="127.246094" xlink:href="#DejaVuSans-30"/>
       <use x="190.869141" xlink:href="#DejaVuSans-30"/>
      </g>
     </g>
    </g>
    <g id="xtick_7">
     <g id="line2d_7">
      <g>
       <use style="stroke:#000000;stroke-width:0.8;" x="345.294318" xlink:href="#m781707fc3e" y="162"/>
      </g>
     </g>
     <g id="text_7">
      <!-- 2010 -->
      <g transform="translate(332.569318 176.598438)scale(0.1 -0.1)">
       <use xlink:href="#DejaVuSans-32"/>
       <use x="63.623047" xlink:href="#DejaVuSans-30"/>
       <use x="127.246094" xlink:href="#DejaVuSans-31"/>
       <use x="190.869141" xlink:href="#DejaVuSans-30"/>
      </g>
     </g>
    </g>
    <g id="xtick_8">
     <g id="line2d_8">
      <g>
       <use style="stroke:#000000;stroke-width:0.8;" x="392.76487" xlink:href="#m781707fc3e" y="162"/>
      </g>
     </g>
     <g id="text_8">
      <!-- 2020 -->
      <g transform="translate(380.03987 176.598438)scale(0.1 -0.1)">
       <use xlink:href="#DejaVuSans-32"/>
       <use x="63.623047" xlink:href="#DejaVuSans-30"/>
       <use x="127.246094" xlink:href="#DejaVuSans-32"/>
       <use x="190.869141" xlink:href="#DejaVuSans-30"/>
      </g>
     </g>
    </g>
   </g>
   <g id="matplotlib.axis_2">
    <g id="ytick_1">
     <g id="line2d_9">
      <defs>
       <path d="M 0 0 
L -3.5 0 
" id="m8315c674b4" style="stroke:#000000;stroke-width:0.8;"/>
      </defs>
      <g>
       <use style="stroke:#000000;stroke-width:0.8;" x="34.56" xlink:href="#m8315c674b4" y="123.750541"/>
      </g>
     </g>
     <g id="text_9">
      <!-- −50 -->
      <g transform="translate(6.455313 127.549759)scale(0.1 -0.1)">
       <defs>
        <path d="M 678 2272 
L 4684 2272 
L 4684 1741 
L 678 1741 
L 678 2272 
z
" id="DejaVuSans-2212" transform="scale(0.015625)"/>
       </defs>
       <use xlink:href="#DejaVuSans-2212"/>
       <use x="83.789062" xlink:href="#DejaVuSans-35"/>
       <use x="147.412109" xlink:href="#DejaVuSans-30"/>
      </g>
     </g>
    </g>
    <g id="ytick_2">
     <g id="line2d_10">
      <g>
       <use style="stroke:#000000;stroke-width:0.8;" x="34.56" xlink:href="#m8315c674b4" y="82.8"/>
      </g>
     </g>
     <g id="text_10">
      <!-- 0 -->
      <g transform="translate(21.1975 86.599219)scale(0.1 -0.1)">
       <use xlink:href="#DejaVuSans-30"/>
      </g>
     </g>
    </g>
    <g id="ytick_3">
     <g id="line2d_11">
      <g>
       <use style="stroke:#000000;stroke-width:0.8;" x="34.56" xlink:href="#m8315c674b4" y="41.849459"/>
      </g>
     </g>
     <g id="text_11">
      <!-- 50 -->
      <g transform="translate(14.835 45.648678)scale(0.1 -0.1)">
       <use xlink:href="#DejaVuSans-35"/>
       <use x="63.623047" xlink:href="#DejaVuSans-30"/>
      </g>
     </g>
    </g>
   </g>
   <g id="line2d_12">
    <path clip-path="url(#p941472e246)" d="M 70.162914 82.577434 
L 70.954089 82.099371 
L 71.745265 80.841997 
L 72.140853 80.83243 
L 72.536441 81.05615 
L 73.327617 80.322064 
L 74.909969 79.970803 
L 75.305557 79.567728 
L 76.49232 79.530769 
L 76.887908 79.675221 
L 77.679084 78.914897 
L 78.074672 78.476746 
L 78.47026 78.380917 
L 79.261436 77.891158 
L 79.657024 78.146699 
L 81.239376 77.174102 
L 81.634964 76.969927 
L 82.030552 77.132192 
L 83.217315 76.532272 
L 84.008491 76.294745 
L 84.404079 76.42297 
L 84.799667 76.763294 
L 86.382019 76.252133 
L 86.777607 76.354632 
L 88.755546 75.544988 
L 89.151134 75.659706 
L 89.546722 76.330962 
L 89.94231 76.615431 
L 90.733486 76.250411 
L 91.129074 76.222563 
L 91.92025 76.35501 
L 92.711426 76.230818 
L 93.107014 75.950633 
L 93.502601 75.954243 
L 94.293777 75.302618 
L 94.689365 75.014756 
L 97.458481 74.813924 
L 98.645245 74.260258 
L 99.040832 73.905421 
L 99.832008 73.668661 
L 100.227596 73.428007 
L 100.623184 73.443484 
L 101.018772 73.631696 
L 101.41436 73.551824 
L 102.205536 73.044619 
L 102.601124 72.979908 
L 103.787888 72.349802 
L 104.579063 72.269128 
L 105.370239 72.600238 
L 106.161415 72.691848 
L 106.557003 72.578284 
L 106.952591 72.700726 
L 107.348179 72.519977 
L 108.534943 72.909019 
L 108.930531 73.232721 
L 109.326119 73.331744 
L 109.721707 73.609972 
L 110.117294 74.194177 
L 112.095234 75.822217 
L 112.490822 76.372335 
L 112.88641 76.704848 
L 113.281998 76.797066 
L 114.073174 77.243606 
L 114.86435 78.216819 
L 115.259938 78.804845 
L 115.655525 79.154351 
L 116.051113 79.163645 
L 118.029053 80.191238 
L 119.215817 80.45179 
L 120.402581 81.131919 
L 121.193757 81.332693 
L 122.38052 82.371085 
L 123.171696 82.756963 
L 123.567284 82.878501 
L 124.35846 83.284275 
L 124.754048 83.345216 
L 125.149636 83.809273 
L 125.545224 83.990867 
L 127.523163 85.701673 
L 131.083455 87.869716 
L 131.479043 88.481575 
L 131.874631 88.713825 
L 132.665806 88.720925 
L 133.85257 89.20541 
L 134.248158 89.468757 
L 135.039334 90.186471 
L 135.434922 90.39851 
L 135.83051 90.786462 
L 136.226098 91.002272 
L 137.017274 91.633385 
L 137.412862 91.762574 
L 137.80845 91.733413 
L 138.599625 92.527064 
L 139.390801 93.351605 
L 140.181977 93.773266 
L 140.973153 94.015438 
L 141.368741 94.21645 
L 144.137856 96.657066 
L 144.929032 97.101239 
L 145.32462 97.5146 
L 146.511384 98.285826 
L 147.30256 99.292461 
L 148.093736 99.430974 
L 148.489324 99.492428 
L 150.467263 100.615842 
L 150.862851 100.639226 
L 151.258439 100.97918 
L 151.654027 101.025725 
L 152.049615 101.196575 
L 152.840791 101.13637 
L 153.236379 101.262166 
L 154.027555 101.698736 
L 154.423143 101.5494 
L 155.214318 102.264482 
L 156.005494 102.599285 
L 156.401082 102.92556 
L 157.983434 103.095154 
L 158.379022 103.240566 
L 159.961374 104.366002 
L 160.356961 105.143659 
L 160.752549 105.351408 
M 163.917253 105.155905 
L 164.708429 104.888673 
L 165.104017 105.037596 
L 165.499605 104.794259 
L 165.895193 104.806081 
L 166.29078 104.596686 
L 167.477544 104.319284 
L 168.664308 104.737215 
L 169.059896 104.474643 
L 169.455484 104.432794 
L 171.829011 102.929709 
L 172.620187 103.084489 
L 173.015775 102.962723 
L 173.411363 102.977358 
L 174.598127 102.061652 
L 174.993715 101.740937 
L 175.389303 101.564749 
L 176.180479 101.655783 
L 176.971655 101.254464 
L 177.367242 101.350166 
L 177.76283 101.321238 
L 178.554006 100.845128 
L 179.74077 99.782601 
L 180.136358 99.673924 
L 180.531946 99.701872 
L 181.71871 99.374403 
L 182.509886 99.257108 
L 182.905473 99.142011 
L 183.696649 98.491191 
L 184.487825 97.752623 
L 184.883413 97.647153 
L 186.465765 96.521428 
L 186.861353 95.72991 
L 187.652529 95.269212 
L 188.443704 94.679264 
L 188.839292 94.384542 
L 189.23488 93.759344 
L 189.630468 93.419033 
L 191.608408 92.918577 
L 192.003996 92.93803 
L 192.399584 92.619005 
L 193.19076 92.21793 
L 194.377523 91.092566 
L 195.959875 90.351659 
L 196.355463 90.379456 
L 197.937815 89.848228 
L 198.333403 89.304669 
L 198.728991 89.218919 
L 199.520166 88.664302 
L 200.70693 88.296867 
L 201.498106 88.490361 
L 201.893694 88.707636 
L 202.289282 88.52084 
L 202.68487 88.200966 
L 203.080458 88.102067 
L 203.476046 87.800408 
L 204.267222 87.618264 
L 204.66281 87.285347 
L 205.058398 86.582238 
L 205.453985 86.170572 
L 207.036337 85.353508 
L 207.431925 85.193496 
L 207.827513 84.68494 
L 208.223101 84.809479 
L 208.618689 84.598291 
L 209.014277 84.671744 
L 209.409865 84.382886 
L 210.201041 83.278337 
L 211.387804 82.52096 
L 213.761332 81.230785 
L 214.15692 80.767228 
M 214.948096 80.404528 
L 216.530447 78.817275 
L 216.926035 78.67697 
L 217.321623 78.379983 
L 217.717211 78.716901 
L 218.508387 78.224685 
L 218.903975 78.098793 
L 219.695151 76.792246 
L 220.090739 76.770862 
L 220.486327 76.906472 
L 220.881915 77.28477 
L 221.277503 77.464245 
L 221.673091 77.331293 
L 222.464266 77.387192 
L 223.255442 77.709506 
L 223.65103 77.282211 
L 224.046618 77.329547 
L 225.233382 78.080319 
L 226.420146 78.016255 
L 226.815734 78.574442 
L 227.211322 78.920865 
L 228.002497 79.20377 
L 228.793673 79.150658 
L 229.584849 78.710318 
L 230.376025 78.64723 
L 230.771613 78.762775 
L 231.562789 78.798578 
L 231.958377 79.550975 
L 232.749553 79.63308 
L 233.540728 79.337839 
L 234.727492 79.294168 
L 235.518668 79.280785 
L 235.914256 79.135893 
L 236.705432 79.330304 
L 237.10102 79.56851 
L 239.078959 78.515011 
L 239.474547 78.540828 
L 239.870135 78.181612 
L 241.056899 77.794646 
L 241.848075 77.805087 
L 243.034839 77.397688 
L 243.826015 76.53123 
L 244.61719 76.245584 
L 245.012778 76.033183 
L 246.990718 75.829851 
L 248.177482 74.939157 
L 249.364246 74.809261 
L 249.759834 75.008016 
L 250.155421 75.007267 
L 251.342185 74.618221 
L 251.737773 74.962444 
L 252.924537 74.007762 
L 254.111301 74.107797 
L 254.506889 74.305973 
L 254.902477 74.240591 
L 255.298065 74.30287 
L 255.693652 74.087224 
L 257.276004 74.66042 
L 257.671592 74.827388 
L 258.858356 74.251433 
L 259.649532 74.293137 
L 260.04512 74.460721 
L 261.627471 74.635024 
L 262.418647 75.179751 
L 262.814235 74.953587 
L 263.209823 75.115145 
L 264.396587 74.90996 
L 265.583351 75.15612 
L 265.978939 75.159525 
L 266.770114 75.454806 
L 267.165702 75.456881 
L 267.956878 75.271465 
L 268.748054 75.527848 
L 270.330406 74.835643 
L 271.121582 75.022969 
L 271.51717 75.028418 
L 271.912758 75.297992 
L 272.308345 75.345014 
L 273.099521 75.104808 
L 273.495109 75.143614 
L 274.286285 74.953792 
L 275.077461 75.427926 
L 275.473049 75.414014 
L 275.868637 75.783451 
L 276.264225 75.939302 
L 277.055401 76.413173 
L 279.03334 76.874927 
L 280.220104 77.833139 
L 280.615692 77.752749 
L 281.802456 77.913964 
L 282.198044 77.755996 
L 282.593632 77.740251 
L 282.98922 77.573403 
L 283.384807 78.127569 
L 283.780395 78.464429 
L 284.175983 78.343664 
L 284.571571 78.426038 
L 284.967159 78.237206 
L 285.362747 78.231374 
L 285.758335 78.495811 
L 286.153923 78.599694 
L 289.318626 78.030198 
L 290.109802 78.173578 
L 290.50539 78.05738 
L 291.296566 77.468719 
L 291.692154 77.532158 
L 292.878918 77.305506 
L 293.670094 77.336908 
L 294.46127 77.471862 
L 295.252445 77.897985 
L 295.648033 78.360922 
L 296.834797 78.491675 
L 297.230385 78.863762 
L 297.625973 78.968347 
L 298.021561 78.786987 
L 298.417149 78.770358 
L 298.812737 78.637023 
L 299.208325 78.952333 
L 299.603913 79.67709 
L 299.999501 80.034661 
L 300.395088 79.896705 
L 300.790676 79.558045 
L 301.581852 79.838562 
L 302.768616 80.739115 
L 303.164204 80.820373 
L 303.559792 80.639205 
L 303.95538 80.722608 
L 304.350968 80.928796 
L 304.746556 80.953861 
L 305.142144 81.173437 
L 306.328907 81.488947 
L 306.724495 81.293176 
L 307.120083 81.222772 
L 307.515671 80.993547 
L 310.680375 80.432655 
L 311.075963 80.401698 
L 311.867138 79.76346 
L 312.262726 79.763035 
L 312.658314 79.442535 
L 313.053902 79.414758 
L 313.845078 78.836159 
L 315.031842 78.474449 
L 315.42743 78.614803 
L 316.218606 78.604346 
L 316.614194 78.833827 
L 317.009781 78.58953 
L 318.592133 78.87485 
L 320.174485 79.59636 
L 321.756837 79.604974 
L 322.9436 80.119174 
L 323.734776 80.846225 
L 324.92154 81.760033 
L 325.712716 82.486703 
L 326.89948 82.8 
L 327.295068 82.485982 
L 327.690656 82.489342 
L 328.481831 83.098192 
L 330.064183 84.030323 
L 330.459771 84.07277 
L 330.855359 84.285249 
L 331.646535 84.137359 
L 333.228887 84.670244 
L 334.020062 84.738495 
L 334.811238 84.874621 
L 335.602414 84.742247 
L 335.998002 84.711278 
L 336.39359 84.855832 
L 337.184766 84.708335 
L 337.580354 84.973448 
L 338.37153 84.878576 
L 338.767118 84.720412 
L 339.558293 84.916052 
L 340.349469 84.879676 
L 340.745057 84.942768 
L 341.140645 84.797509 
L 341.536233 84.788255 
L 341.931821 85.023133 
L 342.722997 84.685086 
L 343.118585 84.776049 
L 344.305349 84.691828 
L 344.700937 84.753727 
L 345.096524 84.673622 
L 345.492112 84.99195 
L 345.8877 85.128532 
L 347.074464 84.943492 
L 347.470052 85.146378 
L 347.86564 85.611721 
L 348.656816 85.784834 
L 349.447992 85.663543 
L 350.239168 85.825666 
L 350.634755 85.731704 
L 351.030343 85.899099 
L 351.821519 85.812364 
L 352.612695 85.961167 
L 353.008283 85.905025 
L 353.799459 86.024934 
L 354.195047 86.38473 
L 354.590635 86.388861 
L 354.986223 86.247321 
L 355.381811 86.39945 
L 357.35975 85.902077 
L 358.546514 86.01233 
L 360.920042 85.778463 
L 361.31563 85.69437 
L 362.502393 86.058002 
L 362.897981 85.92149 
L 364.480333 86.020827 
M 365.271509 86.233827 
L 365.667097 86.24653 
L 366.458273 86.05779 
L 367.645036 86.081703 
L 368.040624 85.872784 
L 368.436212 85.858835 
L 369.227388 85.602019 
L 371.205328 85.291675 
L 371.600916 84.990651 
L 372.392092 84.812543 
L 373.183267 84.870177 
L 373.974443 84.839906 
L 375.161207 84.461563 
L 375.556795 84.547437 
L 375.952383 84.320613 
L 376.743559 83.472105 
L 377.930323 82.722791 
L 378.721498 82.672784 
L 379.117086 82.8 
L 379.117086 82.8 
" style="fill:none;stroke:#1f77b4;stroke-linecap:square;stroke-width:1.5;"/>
   </g>
   <g id="line2d_13">
    <path clip-path="url(#p941472e246)" d="M 34.56 82.8 
L 414.72 82.8 
" style="fill:none;stroke:#000000;stroke-dasharray:1.5,2.475;stroke-dashoffset:0;stroke-width:1.5;"/>
   </g>
   <g id="patch_3">
    <path d="M 34.56 162 
L 34.56 3.6 
" style="fill:none;stroke:#000000;stroke-linecap:square;stroke-linejoin:miter;stroke-width:0.8;"/>
   </g>
   <g id="patch_4">
    <path d="M 414.72 162 
L 414.72 3.6 
" style="fill:none;stroke:#000000;stroke-linecap:square;stroke-linejoin:miter;stroke-width:0.8;"/>
   </g>
   <g id="patch_5">
    <path d="M 34.56 162 
L 414.72 162 
" style="fill:none;stroke:#000000;stroke-linecap:square;stroke-linejoin:miter;stroke-width:0.8;"/>
   </g>
   <g id="patch_6">
    <path d="M 34.56 3.6 
L 414.72 3.6 
" style="fill:none;stroke:#000000;stroke-linecap:square;stroke-linejoin:miter;stroke-width:0.8;"/>
   </g>
  </g>
 </g>
 <defs>
  <clipPath id="p941472e246">
   <rect height="158.4" width="380.16" x="34.56" y="3.6"/>
  </clipPath>
 </defs>
</svg>
