<?xml version="1.0" encoding="utf-8" standalone="no"?>
<!DOCTYPE svg PUBLIC "-//W3C//DTD SVG 1.1//EN"
  "http://www.w3.org/Graphics/SVG/1.1/DTD/svg11.dtd">
<svg height="180pt" version="1.1" viewBox="0 0 432 180" width="432pt" xmlns="http://www.w3.org/2000/svg" xmlns:xlink="http://www.w3.org/1999/xlink">
 <metadata>
  <rdf:RDF xmlns:cc="http://creativecommons.org/ns#" xmlns:dc="http://purl.org/dc/elements/1.1/" xmlns:rdf="http://www.w3.org/1999/02/22-rdf-syntax-ns#">
   <cc:Work>
    <dc:type rdf:resource="http://purl.org/dc/dcmitype/StillImage"/>
    <dc:date>2021-08-12T10:43:36.925532</dc:date>
    <dc:format>image/svg+xml</dc:format>
    <dc:creator>
     <cc:Agent>
      <dc:title>Matplotlib v3.4.2, https://matplotlib.org/</dc:title>
     </cc:Agent>
    </dc:creator>
   </cc:Work>
  </rdf:RDF>
 </metadata>
 <defs>
  <style type="text/css">*{stroke-linecap:butt;stroke-linejoin:round;}</style>
 </defs>
 <g id="figure_1">
  <g id="patch_1">
   <path d="M 0 180 
L 432 180 
L 432 0 
L 0 0 
z
" style="fill:#ffffff;"/>
  </g>
  <g id="axes_1">
   <g id="patch_2">
    <path d="M 34.56 162 
L 414.72 162 
L 414.72 3.6 
L 34.56 3.6 
z
" style="fill:#ffffff;"/>
   </g>
   <g id="PolyCollection_1">
    <path clip-path="url(#p0f35e0d8b2)" d="M 90.557381 82.091754 
L 90.557381 83.508246 
L 91.179574 84.211492 
L 91.801768 84.911413 
L 92.423961 85.608009 
L 93.046154 86.30128 
L 93.668347 86.991226 
L 94.29054 87.677847 
L 94.912733 88.361143 
L 95.534926 89.041114 
L 96.157119 89.71776 
L 96.779313 90.391081 
L 97.401506 91.061077 
L 98.023699 91.727747 
L 98.645892 92.391093 
L 99.268085 93.051114 
L 99.890278 93.707809 
L 100.512471 94.36118 
L 101.134664 95.011226 
L 101.756858 95.657946 
L 102.379051 96.301342 
L 103.001244 96.941412 
L 103.623437 97.578157 
L 104.24563 98.211578 
L 104.867823 98.841673 
L 105.490016 99.468443 
L 106.112209 100.091889 
L 106.734403 100.712009 
L 107.356596 101.328804 
L 107.978789 101.942274 
L 108.600982 102.552419 
L 109.223175 103.159239 
L 109.845368 103.762734 
L 110.467561 104.362904 
L 110.467561 61.237096 
L 110.467561 61.237096 
L 109.845368 61.837266 
L 109.223175 62.440761 
L 108.600982 63.047581 
L 107.978789 63.657726 
L 107.356596 64.271196 
L 106.734403 64.887991 
L 106.112209 65.508111 
L 105.490016 66.131557 
L 104.867823 66.758327 
L 104.24563 67.388422 
L 103.623437 68.021843 
L 103.001244 68.658588 
L 102.379051 69.298658 
L 101.756858 69.942054 
L 101.134664 70.588774 
L 100.512471 71.23882 
L 99.890278 71.892191 
L 99.268085 72.548886 
L 98.645892 73.208907 
L 98.023699 73.872253 
L 97.401506 74.538923 
L 96.779313 75.208919 
L 96.157119 75.88224 
L 95.534926 76.558886 
L 94.912733 77.238857 
L 94.29054 77.922153 
L 93.668347 78.608774 
L 93.046154 79.29872 
L 92.423961 79.991991 
L 91.801768 80.688587 
L 91.179574 81.388508 
L 90.557381 82.091754 
z
" style="fill:#0000ff;fill-opacity:0.1;stroke:#0000ff;stroke-opacity:0.1;"/>
    <path clip-path="url(#p0f35e0d8b2)" d="M 111.711948 60.640251 
L 111.711948 104.959749 
L 112.334141 105.553269 
L 112.956334 106.143464 
L 113.578527 106.730333 
L 114.20072 107.313878 
L 114.822913 107.894098 
L 115.445106 108.470992 
L 116.0673 109.044562 
L 116.689493 109.614807 
L 117.311686 110.181726 
L 117.933879 110.745321 
L 118.556072 111.30559 
L 119.178265 111.862534 
L 119.800458 112.416154 
L 120.422651 112.966448 
L 121.044845 113.513417 
L 121.667038 114.057062 
L 122.289231 114.597381 
L 122.911424 115.134375 
L 123.533617 115.668044 
L 124.15581 116.198388 
L 124.778003 116.725407 
L 125.400196 117.249101 
L 126.02239 117.76947 
L 126.644583 118.286514 
L 127.266776 118.800233 
L 127.888969 119.310627 
L 128.511162 119.817695 
L 129.133355 120.321439 
L 129.755548 120.821858 
L 130.377741 121.318952 
L 130.999935 121.81272 
L 131.622128 122.303164 
L 132.244321 122.790282 
L 132.866514 123.274076 
L 133.488707 123.754544 
L 134.1109 124.231688 
L 134.733093 124.705506 
L 135.355286 125.175999 
L 135.97748 125.643168 
L 136.599673 126.107011 
L 137.221866 126.567529 
L 137.844059 127.024722 
L 138.466252 127.47859 
L 139.088445 127.929133 
L 139.710638 128.376352 
L 140.332831 128.820245 
L 140.955025 129.260812 
L 141.577218 129.698055 
L 142.199411 130.131973 
L 142.821604 130.562566 
L 143.443797 130.989834 
L 144.06599 131.413777 
L 144.688183 131.834394 
L 145.310376 132.251687 
L 145.93257 132.665655 
L 146.554763 133.076297 
L 147.176956 133.483615 
L 147.799149 133.887607 
L 148.421342 134.288275 
L 149.043535 134.685617 
L 149.665728 135.079635 
L 150.287921 135.470327 
L 150.910115 135.857694 
L 151.532308 136.241736 
L 152.154501 136.622454 
L 152.776694 136.999846 
L 153.398887 137.373913 
L 154.02108 137.744655 
L 154.643273 138.112072 
L 155.265466 138.476164 
L 155.88766 138.836931 
L 156.509853 139.194373 
L 157.132046 139.54849 
L 157.754239 139.899282 
L 158.376432 140.246749 
L 158.998625 140.59089 
L 159.620818 140.931707 
L 160.243011 141.269199 
L 160.865205 141.603365 
L 161.487398 141.934207 
L 162.109591 142.261724 
L 162.731784 142.585915 
L 163.353977 142.906782 
L 163.97617 143.224323 
L 164.598363 143.538539 
L 165.220556 143.849431 
L 165.84275 144.156997 
L 166.464943 144.461238 
L 167.087136 144.762155 
L 167.709329 145.059746 
L 168.331522 145.354012 
L 168.953715 145.644953 
L 169.575908 145.932569 
L 170.198101 146.21686 
L 170.820295 146.497826 
L 171.442488 146.775467 
L 172.064681 147.049783 
L 172.686874 147.320774 
L 173.309067 147.58844 
L 173.93126 147.85278 
L 174.553453 148.113796 
L 175.175646 148.371487 
L 175.79784 148.625852 
L 175.79784 16.974148 
L 175.79784 16.974148 
L 175.175646 17.228513 
L 174.553453 17.486204 
L 173.93126 17.74722 
L 173.309067 18.01156 
L 172.686874 18.279226 
L 172.064681 18.550217 
L 171.442488 18.824533 
L 170.820295 19.102174 
L 170.198101 19.38314 
L 169.575908 19.667431 
L 168.953715 19.955047 
L 168.331522 20.245988 
L 167.709329 20.540254 
L 167.087136 20.837845 
L 166.464943 21.138762 
L 165.84275 21.443003 
L 165.220556 21.750569 
L 164.598363 22.061461 
L 163.97617 22.375677 
L 163.353977 22.693218 
L 162.731784 23.014085 
L 162.109591 23.338276 
L 161.487398 23.665793 
L 160.865205 23.996635 
L 160.243011 24.330801 
L 159.620818 24.668293 
L 158.998625 25.00911 
L 158.376432 25.353251 
L 157.754239 25.700718 
L 157.132046 26.05151 
L 156.509853 26.405627 
L 155.88766 26.763069 
L 155.265466 27.123836 
L 154.643273 27.487928 
L 154.02108 27.855345 
L 153.398887 28.226087 
L 152.776694 28.600154 
L 152.154501 28.977546 
L 151.532308 29.358264 
L 150.910115 29.742306 
L 150.287921 30.129673 
L 149.665728 30.520365 
L 149.043535 30.914383 
L 148.421342 31.311725 
L 147.799149 31.712393 
L 147.176956 32.116385 
L 146.554763 32.523703 
L 145.93257 32.934345 
L 145.310376 33.348313 
L 144.688183 33.765606 
L 144.06599 34.186223 
L 143.443797 34.610166 
L 142.821604 35.037434 
L 142.199411 35.468027 
L 141.577218 35.901945 
L 140.955025 36.339188 
L 140.332831 36.779755 
L 139.710638 37.223648 
L 139.088445 37.670867 
L 138.466252 38.12141 
L 137.844059 38.575278 
L 137.221866 39.032471 
L 136.599673 39.492989 
L 135.97748 39.956832 
L 135.355286 40.424001 
L 134.733093 40.894494 
L 134.1109 41.368312 
L 133.488707 41.845456 
L 132.866514 42.325924 
L 132.244321 42.809718 
L 131.622128 43.296836 
L 130.999935 43.78728 
L 130.377741 44.281048 
L 129.755548 44.778142 
L 129.133355 45.278561 
L 128.511162 45.782305 
L 127.888969 46.289373 
L 127.266776 46.799767 
L 126.644583 47.313486 
L 126.02239 47.83053 
L 125.400196 48.350899 
L 124.778003 48.874593 
L 124.15581 49.401612 
L 123.533617 49.931956 
L 122.911424 50.465625 
L 122.289231 51.002619 
L 121.667038 51.542938 
L 121.044845 52.086583 
L 120.422651 52.633552 
L 119.800458 53.183846 
L 119.178265 53.737466 
L 118.556072 54.29441 
L 117.933879 54.854679 
L 117.311686 55.418274 
L 116.689493 55.985193 
L 116.0673 56.555438 
L 115.445106 57.129008 
L 114.822913 57.705902 
L 114.20072 58.286122 
L 113.578527 58.869667 
L 112.956334 59.456536 
L 112.334141 60.046731 
L 111.711948 60.640251 
z
" style="fill:#0000ff;fill-opacity:0.1;stroke:#0000ff;stroke-opacity:0.1;"/>
    <path clip-path="url(#p0f35e0d8b2)" d="M 177.042226 16.723107 
L 177.042226 148.876893 
L 177.664419 149.124609 
L 178.286612 149.368999 
L 178.908805 149.610065 
L 179.530998 149.847805 
L 180.153191 150.08222 
L 180.775385 150.313311 
L 181.397578 150.541076 
L 182.019771 150.765516 
L 182.641964 150.986632 
L 183.264157 151.204422 
L 183.88635 151.418887 
L 184.508543 151.630027 
L 185.130736 151.837842 
L 185.75293 152.042332 
L 186.375123 152.243497 
L 186.997316 152.441337 
L 187.619509 152.635852 
L 188.241702 152.827042 
L 188.863895 153.014907 
L 189.486088 153.199447 
L 190.108282 153.380661 
L 190.730475 153.558551 
L 191.352668 153.733116 
L 191.974861 153.904355 
L 192.597054 154.07227 
L 193.219247 154.236859 
L 193.84144 154.398124 
L 194.463633 154.556063 
L 195.085827 154.710678 
L 195.70802 154.861967 
L 196.330213 155.009932 
L 196.952406 155.154571 
L 197.574599 155.295885 
L 198.196792 155.433874 
L 198.818985 155.568538 
L 199.441178 155.699878 
L 200.063372 155.827892 
L 200.685565 155.952581 
L 201.307758 156.073945 
L 201.929951 156.191984 
L 202.552144 156.306698 
L 202.552144 9.293302 
L 202.552144 9.293302 
L 201.929951 9.408016 
L 201.307758 9.526055 
L 200.685565 9.647419 
L 200.063372 9.772108 
L 199.441178 9.900122 
L 198.818985 10.031462 
L 198.196792 10.166126 
L 197.574599 10.304115 
L 196.952406 10.445429 
L 196.330213 10.590068 
L 195.70802 10.738033 
L 195.085827 10.889322 
L 194.463633 11.043937 
L 193.84144 11.201876 
L 193.219247 11.363141 
L 192.597054 11.52773 
L 191.974861 11.695645 
L 191.352668 11.866884 
L 190.730475 12.041449 
L 190.108282 12.219339 
L 189.486088 12.400553 
L 188.863895 12.585093 
L 188.241702 12.772958 
L 187.619509 12.964148 
L 186.997316 13.158663 
L 186.375123 13.356503 
L 185.75293 13.557668 
L 185.130736 13.762158 
L 184.508543 13.969973 
L 183.88635 14.181113 
L 183.264157 14.395578 
L 182.641964 14.613368 
L 182.019771 14.834484 
L 181.397578 15.058924 
L 180.775385 15.286689 
L 180.153191 15.51778 
L 179.530998 15.752195 
L 178.908805 15.989935 
L 178.286612 16.231001 
L 177.664419 16.475391 
L 177.042226 16.723107 
z
" style="fill:#0000ff;fill-opacity:0.1;stroke:#0000ff;stroke-opacity:0.1;"/>
    <path clip-path="url(#p0f35e0d8b2)" d="M 203.79653 9.181914 
L 203.79653 156.418086 
L 204.418723 156.52615 
L 205.040917 156.630889 
L 205.66311 156.732303 
L 206.285303 156.830392 
L 206.907496 156.925155 
L 207.529689 157.016594 
L 208.151882 157.104708 
L 208.774075 157.189496 
L 209.396268 157.27096 
L 210.018462 157.349098 
L 210.640655 157.423911 
L 211.262848 157.4954 
L 211.885041 157.563563 
L 212.507234 157.628401 
L 213.129427 157.689915 
L 213.75162 157.748103 
L 214.373813 157.802966 
L 214.996007 157.854504 
L 215.6182 157.902717 
L 216.240393 157.947605 
L 216.862586 157.989168 
L 217.484779 158.027406 
L 218.106972 158.062319 
L 218.729165 158.093907 
L 219.351358 158.12217 
L 219.973552 158.147108 
L 220.595745 158.168721 
L 221.217938 158.187008 
L 221.840131 158.201971 
L 222.462324 158.213609 
L 223.084517 158.221921 
L 223.70671 158.226909 
L 224.328903 158.228571 
L 224.951097 158.226909 
L 225.57329 158.221921 
L 226.195483 158.213609 
L 226.817676 158.201971 
L 227.439869 158.187008 
L 228.062062 158.168721 
L 228.684255 158.147108 
L 229.306448 158.12217 
L 229.928642 158.093907 
L 230.550835 158.062319 
L 231.173028 158.027406 
L 231.795221 157.989168 
L 232.417414 157.947605 
L 233.039607 157.902717 
L 233.6618 157.854504 
L 234.283993 157.802966 
L 234.906187 157.748103 
L 235.52838 157.689915 
L 236.150573 157.628401 
L 236.772766 157.563563 
L 237.394959 157.4954 
L 238.017152 157.423911 
L 238.639345 157.349098 
L 239.261538 157.27096 
L 239.883732 157.189496 
L 240.505925 157.104708 
L 241.128118 157.016594 
L 241.750311 156.925155 
L 242.372504 156.830392 
L 242.994697 156.732303 
L 243.61689 156.630889 
L 244.239083 156.52615 
L 244.861277 156.418086 
L 245.48347 156.306698 
L 246.105663 156.191984 
L 246.727856 156.073945 
L 247.350049 155.952581 
L 247.972242 155.827892 
L 248.594435 155.699878 
L 249.216628 155.568538 
L 249.838822 155.433874 
L 250.461015 155.295885 
L 251.083208 155.154571 
L 251.705401 155.009932 
L 252.327594 154.861967 
L 252.949787 154.710678 
L 253.57198 154.556063 
L 254.194173 154.398124 
L 254.816367 154.236859 
L 255.43856 154.07227 
L 256.060753 153.904355 
L 256.682946 153.733116 
L 257.305139 153.558551 
L 257.927332 153.380661 
L 258.549525 153.199447 
L 259.171718 153.014907 
L 259.793912 152.827042 
L 260.416105 152.635852 
L 261.038298 152.441337 
L 261.660491 152.243497 
L 262.282684 152.042332 
L 262.904877 151.837842 
L 263.52707 151.630027 
L 264.149264 151.418887 
L 264.771457 151.204422 
L 265.39365 150.986632 
L 266.015843 150.765516 
L 266.638036 150.541076 
L 267.260229 150.313311 
L 267.882422 150.08222 
L 268.504615 149.847805 
L 269.126809 149.610065 
L 269.749002 149.368999 
L 270.371195 149.124609 
L 270.993388 148.876893 
L 271.615581 148.625852 
L 272.237774 148.371487 
L 272.859967 148.113796 
L 273.48216 147.85278 
L 274.104354 147.58844 
L 274.726547 147.320774 
L 275.34874 147.049783 
L 275.970933 146.775467 
L 276.593126 146.497826 
L 277.215319 146.21686 
L 277.837512 145.932569 
L 278.459705 145.644953 
L 279.081899 145.354012 
L 279.704092 145.059746 
L 280.326285 144.762155 
L 280.948478 144.461238 
L 281.570671 144.156997 
L 282.192864 143.849431 
L 282.815057 143.538539 
L 283.43725 143.224323 
L 284.059444 142.906782 
L 284.681637 142.585915 
L 285.30383 142.261724 
L 285.926023 141.934207 
L 286.548216 141.603365 
L 287.170409 141.269199 
L 287.792602 140.931707 
L 288.414795 140.59089 
L 289.036989 140.246749 
L 289.659182 139.899282 
L 290.281375 139.54849 
L 290.903568 139.194373 
L 291.525761 138.836931 
L 292.147954 138.476164 
L 292.770147 138.112072 
L 293.39234 137.744655 
L 294.014534 137.373913 
L 294.636727 136.999846 
L 295.25892 136.622454 
L 295.881113 136.241736 
L 296.503306 135.857694 
L 297.125499 135.470327 
L 297.747692 135.079635 
L 298.369885 134.685617 
L 298.992079 134.288275 
L 299.614272 133.887607 
L 300.236465 133.483615 
L 300.858658 133.076297 
L 301.480851 132.665655 
L 302.103044 132.251687 
L 302.725237 131.834394 
L 303.34743 131.413777 
L 303.969624 130.989834 
L 304.591817 130.562566 
L 305.21401 130.131973 
L 305.836203 129.698055 
L 306.458396 129.260812 
L 307.080589 128.820245 
L 307.702782 128.376352 
L 308.324975 127.929133 
L 308.947169 127.47859 
L 309.569362 127.024722 
L 310.191555 126.567529 
L 310.813748 126.107011 
L 311.435941 125.643168 
L 312.058134 125.175999 
L 312.680327 124.705506 
L 313.30252 124.231688 
L 313.924714 123.754544 
L 314.546907 123.274076 
L 315.1691 122.790282 
L 315.791293 122.303164 
L 316.413486 121.81272 
L 317.035679 121.318952 
L 317.657872 120.821858 
L 318.280065 120.321439 
L 318.902259 119.817695 
L 319.524452 119.310627 
L 320.146645 118.800233 
L 320.768838 118.286514 
L 321.391031 117.76947 
L 322.013224 117.249101 
L 322.635417 116.725407 
L 323.25761 116.198388 
L 323.879804 115.668044 
L 324.501997 115.134375 
L 325.12419 114.597381 
L 325.746383 114.057062 
L 326.368576 113.513417 
L 326.990769 112.966448 
L 327.612962 112.416154 
L 328.235155 111.862534 
L 328.857349 111.30559 
L 329.479542 110.745321 
L 330.101735 110.181726 
L 330.723928 109.614807 
L 331.346121 109.044562 
L 331.968314 108.470992 
L 332.590507 107.894098 
L 333.2127 107.313878 
L 333.834894 106.730333 
L 334.457087 106.143464 
L 335.07928 105.553269 
L 335.701473 104.959749 
L 336.323666 104.362904 
L 336.945859 103.762734 
L 337.568052 103.159239 
L 338.190245 102.552419 
L 338.812439 101.942274 
L 339.434632 101.328804 
L 340.056825 100.712009 
L 340.679018 100.091889 
L 341.301211 99.468443 
L 341.923404 98.841673 
L 342.545597 98.211578 
L 342.545597 67.388422 
L 342.545597 67.388422 
L 341.923404 66.758327 
L 341.301211 66.131557 
L 340.679018 65.508111 
L 340.056825 64.887991 
L 339.434632 64.271196 
L 338.812439 63.657726 
L 338.190245 63.047581 
L 337.568052 62.440761 
L 336.945859 61.837266 
L 336.323666 61.237096 
L 335.701473 60.640251 
L 335.07928 60.046731 
L 334.457087 59.456536 
L 333.834894 58.869667 
L 333.2127 58.286122 
L 332.590507 57.705902 
L 331.968314 57.129008 
L 331.346121 56.555438 
L 330.723928 55.985193 
L 330.101735 55.418274 
L 329.479542 54.854679 
L 328.857349 54.29441 
L 328.235155 53.737466 
L 327.612962 53.183846 
L 326.990769 52.633552 
L 326.368576 52.086583 
L 325.746383 51.542938 
L 325.12419 51.002619 
L 324.501997 50.465625 
L 323.879804 49.931956 
L 323.25761 49.401612 
L 322.635417 48.874593 
L 322.013224 48.350899 
L 321.391031 47.83053 
L 320.768838 47.313486 
L 320.146645 46.799767 
L 319.524452 46.289373 
L 318.902259 45.782305 
L 318.280065 45.278561 
L 317.657872 44.778142 
L 317.035679 44.281048 
L 316.413486 43.78728 
L 315.791293 43.296836 
L 315.1691 42.809718 
L 314.546907 42.325924 
L 313.924714 41.845456 
L 313.30252 41.368312 
L 312.680327 40.894494 
L 312.058134 40.424001 
L 311.435941 39.956832 
L 310.813748 39.492989 
L 310.191555 39.032471 
L 309.569362 38.575278 
L 308.947169 38.12141 
L 308.324975 37.670867 
L 307.702782 37.223648 
L 307.080589 36.779755 
L 306.458396 36.339188 
L 305.836203 35.901945 
L 305.21401 35.468027 
L 304.591817 35.037434 
L 303.969624 34.610166 
L 303.34743 34.186223 
L 302.725237 33.765606 
L 302.103044 33.348313 
L 301.480851 32.934345 
L 300.858658 32.523703 
L 300.236465 32.116385 
L 299.614272 31.712393 
L 298.992079 31.311725 
L 298.369885 30.914383 
L 297.747692 30.520365 
L 297.125499 30.129673 
L 296.503306 29.742306 
L 295.881113 29.358264 
L 295.25892 28.977546 
L 294.636727 28.600154 
L 294.014534 28.226087 
L 293.39234 27.855345 
L 292.770147 27.487928 
L 292.147954 27.123836 
L 291.525761 26.763069 
L 290.903568 26.405627 
L 290.281375 26.05151 
L 289.659182 25.700718 
L 289.036989 25.353251 
L 288.414795 25.00911 
L 287.792602 24.668293 
L 287.170409 24.330801 
L 286.548216 23.996635 
L 285.926023 23.665793 
L 285.30383 23.338276 
L 284.681637 23.014085 
L 284.059444 22.693218 
L 283.43725 22.375677 
L 282.815057 22.061461 
L 282.192864 21.750569 
L 281.570671 21.443003 
L 280.948478 21.138762 
L 280.326285 20.837845 
L 279.704092 20.540254 
L 279.081899 20.245988 
L 278.459705 19.955047 
L 277.837512 19.667431 
L 277.215319 19.38314 
L 276.593126 19.102174 
L 275.970933 18.824533 
L 275.34874 18.550217 
L 274.726547 18.279226 
L 274.104354 18.01156 
L 273.48216 17.74722 
L 272.859967 17.486204 
L 272.237774 17.228513 
L 271.615581 16.974148 
L 270.993388 16.723107 
L 270.371195 16.475391 
L 269.749002 16.231001 
L 269.126809 15.989935 
L 268.504615 15.752195 
L 267.882422 15.51778 
L 267.260229 15.286689 
L 266.638036 15.058924 
L 266.015843 14.834484 
L 265.39365 14.613368 
L 264.771457 14.395578 
L 264.149264 14.181113 
L 263.52707 13.969973 
L 262.904877 13.762158 
L 262.282684 13.557668 
L 261.660491 13.356503 
L 261.038298 13.158663 
L 260.416105 12.964148 
L 259.793912 12.772958 
L 259.171718 12.585093 
L 258.549525 12.400553 
L 257.927332 12.219339 
L 257.305139 12.041449 
L 256.682946 11.866884 
L 256.060753 11.695645 
L 255.43856 11.52773 
L 254.816367 11.363141 
L 254.194173 11.201876 
L 253.57198 11.043937 
L 252.949787 10.889322 
L 252.327594 10.738033 
L 251.705401 10.590068 
L 251.083208 10.445429 
L 250.461015 10.304115 
L 249.838822 10.166126 
L 249.216628 10.031462 
L 248.594435 9.900122 
L 247.972242 9.772108 
L 247.350049 9.647419 
L 246.727856 9.526055 
L 246.105663 9.408016 
L 245.48347 9.293302 
L 244.861277 9.181914 
L 244.239083 9.07385 
L 243.61689 8.969111 
L 242.994697 8.867697 
L 242.372504 8.769608 
L 241.750311 8.674845 
L 241.128118 8.583406 
L 240.505925 8.495292 
L 239.883732 8.410504 
L 239.261538 8.32904 
L 238.639345 8.250902 
L 238.017152 8.176089 
L 237.394959 8.1046 
L 236.772766 8.036437 
L 236.150573 7.971599 
L 235.52838 7.910085 
L 234.906187 7.851897 
L 234.283993 7.797034 
L 233.6618 7.745496 
L 233.039607 7.697283 
L 232.417414 7.652395 
L 231.795221 7.610832 
L 231.173028 7.572594 
L 230.550835 7.537681 
L 229.928642 7.506093 
L 229.306448 7.47783 
L 228.684255 7.452892 
L 228.062062 7.431279 
L 227.439869 7.412992 
L 226.817676 7.398029 
L 226.195483 7.386391 
L 225.57329 7.378079 
L 224.951097 7.373091 
L 224.328903 7.371429 
L 223.70671 7.373091 
L 223.084517 7.378079 
L 222.462324 7.386391 
L 221.840131 7.398029 
L 221.217938 7.412992 
L 220.595745 7.431279 
L 219.973552 7.452892 
L 219.351358 7.47783 
L 218.729165 7.506093 
L 218.106972 7.537681 
L 217.484779 7.572594 
L 216.862586 7.610832 
L 216.240393 7.652395 
L 215.6182 7.697283 
L 214.996007 7.745496 
L 214.373813 7.797034 
L 213.75162 7.851897 
L 213.129427 7.910085 
L 212.507234 7.971599 
L 211.885041 8.036437 
L 211.262848 8.1046 
L 210.640655 8.176089 
L 210.018462 8.250902 
L 209.396268 8.32904 
L 208.774075 8.410504 
L 208.151882 8.495292 
L 207.529689 8.583406 
L 206.907496 8.674845 
L 206.285303 8.769608 
L 205.66311 8.867697 
L 205.040917 8.969111 
L 204.418723 9.07385 
L 203.79653 9.181914 
z
" style="fill:#0000ff;fill-opacity:0.1;stroke:#0000ff;stroke-opacity:0.1;"/>
    <path clip-path="url(#p0f35e0d8b2)" d="M 343.789984 68.021843 
L 343.789984 97.578157 
L 344.412177 96.941412 
L 345.03437 96.301342 
L 345.656563 95.657946 
L 346.278756 95.011226 
L 346.900949 94.36118 
L 347.523142 93.707809 
L 348.145336 93.051114 
L 348.767529 92.391093 
L 349.389722 91.727747 
L 350.011915 91.061077 
L 350.634108 90.391081 
L 351.256301 89.71776 
L 351.256301 75.88224 
L 351.256301 75.88224 
L 350.634108 75.208919 
L 350.011915 74.538923 
L 349.389722 73.872253 
L 348.767529 73.208907 
L 348.145336 72.548886 
L 347.523142 71.892191 
L 346.900949 71.23882 
L 346.278756 70.588774 
L 345.656563 69.942054 
L 345.03437 69.298658 
L 344.412177 68.658588 
L 343.789984 68.021843 
z
" style="fill:#0000ff;fill-opacity:0.1;stroke:#0000ff;stroke-opacity:0.1;"/>
    <path clip-path="url(#p0f35e0d8b2)" d="M 352.500687 76.558886 
L 352.500687 89.041114 
L 353.122881 88.361143 
L 353.745074 87.677847 
L 354.367267 86.991226 
L 354.367267 78.608774 
L 354.367267 78.608774 
L 353.745074 77.922153 
L 353.122881 77.238857 
L 352.500687 76.558886 
z
" style="fill:#0000ff;fill-opacity:0.1;stroke:#0000ff;stroke-opacity:0.1;"/>
    <path clip-path="url(#p0f35e0d8b2)" d="M 355.611653 79.29872 
L 355.611653 86.30128 
L 356.233846 85.608009 
L 356.233846 79.991991 
L 356.233846 79.991991 
L 355.611653 79.29872 
z
" style="fill:#0000ff;fill-opacity:0.1;stroke:#0000ff;stroke-opacity:0.1;"/>
    <path clip-path="url(#p0f35e0d8b2)" d="M 357.478232 80.688587 
L 357.478232 84.911413 
L 358.100426 84.211492 
L 358.722619 83.508246 
L 358.722619 82.091754 
L 358.722619 82.091754 
L 358.100426 81.388508 
L 357.478232 80.688587 
z
" style="fill:#0000ff;fill-opacity:0.1;stroke:#0000ff;stroke-opacity:0.1;"/>
   </g>
   <g id="matplotlib.axis_1">
    <g id="xtick_1">
     <g id="line2d_1">
      <defs>
       <path d="M 0 0 
L 0 3.5 
" id="m732b122865" style="stroke:#000000;stroke-width:0.8;"/>
      </defs>
      <g>
       <use style="stroke:#000000;stroke-width:0.8;" x="90.246285" xlink:href="#m732b122865" y="162"/>
      </g>
     </g>
     <g id="text_1">
      <!-- 1960 -->
      <g transform="translate(77.521285 176.598438)scale(0.1 -0.1)">
       <defs>
        <path d="M 794 531 
L 1825 531 
L 1825 4091 
L 703 3866 
L 703 4441 
L 1819 4666 
L 2450 4666 
L 2450 531 
L 3481 531 
L 3481 0 
L 794 0 
L 794 531 
z
" id="DejaVuSans-31" transform="scale(0.015625)"/>
        <path d="M 703 97 
L 703 672 
Q 941 559 1184 500 
Q 1428 441 1663 441 
Q 2288 441 2617 861 
Q 2947 1281 2994 2138 
Q 2813 1869 2534 1725 
Q 2256 1581 1919 1581 
Q 1219 1581 811 2004 
Q 403 2428 403 3163 
Q 403 3881 828 4315 
Q 1253 4750 1959 4750 
Q 2769 4750 3195 4129 
Q 3622 3509 3622 2328 
Q 3622 1225 3098 567 
Q 2575 -91 1691 -91 
Q 1453 -91 1209 -44 
Q 966 3 703 97 
z
M 1959 2075 
Q 2384 2075 2632 2365 
Q 2881 2656 2881 3163 
Q 2881 3666 2632 3958 
Q 2384 4250 1959 4250 
Q 1534 4250 1286 3958 
Q 1038 3666 1038 3163 
Q 1038 2656 1286 2365 
Q 1534 2075 1959 2075 
z
" id="DejaVuSans-39" transform="scale(0.015625)"/>
        <path d="M 2113 2584 
Q 1688 2584 1439 2293 
Q 1191 2003 1191 1497 
Q 1191 994 1439 701 
Q 1688 409 2113 409 
Q 2538 409 2786 701 
Q 3034 994 3034 1497 
Q 3034 2003 2786 2293 
Q 2538 2584 2113 2584 
z
M 3366 4563 
L 3366 3988 
Q 3128 4100 2886 4159 
Q 2644 4219 2406 4219 
Q 1781 4219 1451 3797 
Q 1122 3375 1075 2522 
Q 1259 2794 1537 2939 
Q 1816 3084 2150 3084 
Q 2853 3084 3261 2657 
Q 3669 2231 3669 1497 
Q 3669 778 3244 343 
Q 2819 -91 2113 -91 
Q 1303 -91 875 529 
Q 447 1150 447 2328 
Q 447 3434 972 4092 
Q 1497 4750 2381 4750 
Q 2619 4750 2861 4703 
Q 3103 4656 3366 4563 
z
" id="DejaVuSans-36" transform="scale(0.015625)"/>
        <path d="M 2034 4250 
Q 1547 4250 1301 3770 
Q 1056 3291 1056 2328 
Q 1056 1369 1301 889 
Q 1547 409 2034 409 
Q 2525 409 2770 889 
Q 3016 1369 3016 2328 
Q 3016 3291 2770 3770 
Q 2525 4250 2034 4250 
z
M 2034 4750 
Q 2819 4750 3233 4129 
Q 3647 3509 3647 2328 
Q 3647 1150 3233 529 
Q 2819 -91 2034 -91 
Q 1250 -91 836 529 
Q 422 1150 422 2328 
Q 422 3509 836 4129 
Q 1250 4750 2034 4750 
z
" id="DejaVuSans-30" transform="scale(0.015625)"/>
       </defs>
       <use xlink:href="#DejaVuSans-31"/>
       <use x="63.623047" xlink:href="#DejaVuSans-39"/>
       <use x="127.246094" xlink:href="#DejaVuSans-36"/>
       <use x="190.869141" xlink:href="#DejaVuSans-30"/>
      </g>
     </g>
    </g>
    <g id="xtick_2">
     <g id="line2d_2">
      <g>
       <use style="stroke:#000000;stroke-width:0.8;" x="164.90946" xlink:href="#m732b122865" y="162"/>
      </g>
     </g>
     <g id="text_2">
      <!-- 1970 -->
      <g transform="translate(152.18446 176.598438)scale(0.1 -0.1)">
       <defs>
        <path d="M 525 4666 
L 3525 4666 
L 3525 4397 
L 1831 0 
L 1172 0 
L 2766 4134 
L 525 4134 
L 525 4666 
z
" id="DejaVuSans-37" transform="scale(0.015625)"/>
       </defs>
       <use xlink:href="#DejaVuSans-31"/>
       <use x="63.623047" xlink:href="#DejaVuSans-39"/>
       <use x="127.246094" xlink:href="#DejaVuSans-37"/>
       <use x="190.869141" xlink:href="#DejaVuSans-30"/>
      </g>
     </g>
    </g>
    <g id="xtick_3">
     <g id="line2d_3">
      <g>
       <use style="stroke:#000000;stroke-width:0.8;" x="239.572635" xlink:href="#m732b122865" y="162"/>
      </g>
     </g>
     <g id="text_3">
      <!-- 1980 -->
      <g transform="translate(226.847635 176.598438)scale(0.1 -0.1)">
       <defs>
        <path d="M 2034 2216 
Q 1584 2216 1326 1975 
Q 1069 1734 1069 1313 
Q 1069 891 1326 650 
Q 1584 409 2034 409 
Q 2484 409 2743 651 
Q 3003 894 3003 1313 
Q 3003 1734 2745 1975 
Q 2488 2216 2034 2216 
z
M 1403 2484 
Q 997 2584 770 2862 
Q 544 3141 544 3541 
Q 544 4100 942 4425 
Q 1341 4750 2034 4750 
Q 2731 4750 3128 4425 
Q 3525 4100 3525 3541 
Q 3525 3141 3298 2862 
Q 3072 2584 2669 2484 
Q 3125 2378 3379 2068 
Q 3634 1759 3634 1313 
Q 3634 634 3220 271 
Q 2806 -91 2034 -91 
Q 1263 -91 848 271 
Q 434 634 434 1313 
Q 434 1759 690 2068 
Q 947 2378 1403 2484 
z
M 1172 3481 
Q 1172 3119 1398 2916 
Q 1625 2713 2034 2713 
Q 2441 2713 2670 2916 
Q 2900 3119 2900 3481 
Q 2900 3844 2670 4047 
Q 2441 4250 2034 4250 
Q 1625 4250 1398 4047 
Q 1172 3844 1172 3481 
z
" id="DejaVuSans-38" transform="scale(0.015625)"/>
       </defs>
       <use xlink:href="#DejaVuSans-31"/>
       <use x="63.623047" xlink:href="#DejaVuSans-39"/>
       <use x="127.246094" xlink:href="#DejaVuSans-38"/>
       <use x="190.869141" xlink:href="#DejaVuSans-30"/>
      </g>
     </g>
    </g>
    <g id="xtick_4">
     <g id="line2d_4">
      <g>
       <use style="stroke:#000000;stroke-width:0.8;" x="314.23581" xlink:href="#m732b122865" y="162"/>
      </g>
     </g>
     <g id="text_4">
      <!-- 1990 -->
      <g transform="translate(301.51081 176.598438)scale(0.1 -0.1)">
       <use xlink:href="#DejaVuSans-31"/>
       <use x="63.623047" xlink:href="#DejaVuSans-39"/>
       <use x="127.246094" xlink:href="#DejaVuSans-39"/>
       <use x="190.869141" xlink:href="#DejaVuSans-30"/>
      </g>
     </g>
    </g>
    <g id="xtick_5">
     <g id="line2d_5">
      <g>
       <use style="stroke:#000000;stroke-width:0.8;" x="388.898985" xlink:href="#m732b122865" y="162"/>
      </g>
     </g>
     <g id="text_5">
      <!-- 2000 -->
      <g transform="translate(376.173985 176.598438)scale(0.1 -0.1)">
       <defs>
        <path d="M 1228 531 
L 3431 531 
L 3431 0 
L 469 0 
L 469 531 
Q 828 903 1448 1529 
Q 2069 2156 2228 2338 
Q 2531 2678 2651 2914 
Q 2772 3150 2772 3378 
Q 2772 3750 2511 3984 
Q 2250 4219 1831 4219 
Q 1534 4219 1204 4116 
Q 875 4013 500 3803 
L 500 4441 
Q 881 4594 1212 4672 
Q 1544 4750 1819 4750 
Q 2544 4750 2975 4387 
Q 3406 4025 3406 3419 
Q 3406 3131 3298 2873 
Q 3191 2616 2906 2266 
Q 2828 2175 2409 1742 
Q 1991 1309 1228 531 
z
" id="DejaVuSans-32" transform="scale(0.015625)"/>
       </defs>
       <use xlink:href="#DejaVuSans-32"/>
       <use x="63.623047" xlink:href="#DejaVuSans-30"/>
       <use x="127.246094" xlink:href="#DejaVuSans-30"/>
       <use x="190.869141" xlink:href="#DejaVuSans-30"/>
      </g>
     </g>
    </g>
   </g>
   <g id="matplotlib.axis_2">
    <g id="ytick_1">
     <g id="line2d_6">
      <defs>
       <path d="M 0 0 
L -3.5 0 
" id="m9758e51e11" style="stroke:#000000;stroke-width:0.8;"/>
      </defs>
      <g>
       <use style="stroke:#000000;stroke-width:0.8;" x="34.56" xlink:href="#m9758e51e11" y="159.123997"/>
      </g>
     </g>
     <g id="text_6">
      <!-- −60 -->
      <g transform="translate(6.455313 162.923216)scale(0.1 -0.1)">
       <defs>
        <path d="M 678 2272 
L 4684 2272 
L 4684 1741 
L 678 1741 
L 678 2272 
z
" id="DejaVuSans-2212" transform="scale(0.015625)"/>
       </defs>
       <use xlink:href="#DejaVuSans-2212"/>
       <use x="83.789062" xlink:href="#DejaVuSans-36"/>
       <use x="147.412109" xlink:href="#DejaVuSans-30"/>
      </g>
     </g>
    </g>
    <g id="ytick_2">
     <g id="line2d_7">
      <g>
       <use style="stroke:#000000;stroke-width:0.8;" x="34.56" xlink:href="#m9758e51e11" y="133.682665"/>
      </g>
     </g>
     <g id="text_7">
      <!-- −40 -->
      <g transform="translate(6.455313 137.481883)scale(0.1 -0.1)">
       <defs>
        <path d="M 2419 4116 
L 825 1625 
L 2419 1625 
L 2419 4116 
z
M 2253 4666 
L 3047 4666 
L 3047 1625 
L 3713 1625 
L 3713 1100 
L 3047 1100 
L 3047 0 
L 2419 0 
L 2419 1100 
L 313 1100 
L 313 1709 
L 2253 4666 
z
" id="DejaVuSans-34" transform="scale(0.015625)"/>
       </defs>
       <use xlink:href="#DejaVuSans-2212"/>
       <use x="83.789062" xlink:href="#DejaVuSans-34"/>
       <use x="147.412109" xlink:href="#DejaVuSans-30"/>
      </g>
     </g>
    </g>
    <g id="ytick_3">
     <g id="line2d_8">
      <g>
       <use style="stroke:#000000;stroke-width:0.8;" x="34.56" xlink:href="#m9758e51e11" y="108.241332"/>
      </g>
     </g>
     <g id="text_8">
      <!-- −20 -->
      <g transform="translate(6.455313 112.040551)scale(0.1 -0.1)">
       <use xlink:href="#DejaVuSans-2212"/>
       <use x="83.789062" xlink:href="#DejaVuSans-32"/>
       <use x="147.412109" xlink:href="#DejaVuSans-30"/>
      </g>
     </g>
    </g>
    <g id="ytick_4">
     <g id="line2d_9">
      <g>
       <use style="stroke:#000000;stroke-width:0.8;" x="34.56" xlink:href="#m9758e51e11" y="82.8"/>
      </g>
     </g>
     <g id="text_9">
      <!-- 0 -->
      <g transform="translate(21.1975 86.599219)scale(0.1 -0.1)">
       <use xlink:href="#DejaVuSans-30"/>
      </g>
     </g>
    </g>
    <g id="ytick_5">
     <g id="line2d_10">
      <g>
       <use style="stroke:#000000;stroke-width:0.8;" x="34.56" xlink:href="#m9758e51e11" y="57.358668"/>
      </g>
     </g>
     <g id="text_10">
      <!-- 20 -->
      <g transform="translate(14.835 61.157886)scale(0.1 -0.1)">
       <use xlink:href="#DejaVuSans-32"/>
       <use x="63.623047" xlink:href="#DejaVuSans-30"/>
      </g>
     </g>
    </g>
    <g id="ytick_6">
     <g id="line2d_11">
      <g>
       <use style="stroke:#000000;stroke-width:0.8;" x="34.56" xlink:href="#m9758e51e11" y="31.917335"/>
      </g>
     </g>
     <g id="text_11">
      <!-- 40 -->
      <g transform="translate(14.835 35.716554)scale(0.1 -0.1)">
       <use xlink:href="#DejaVuSans-34"/>
       <use x="63.623047" xlink:href="#DejaVuSans-30"/>
      </g>
     </g>
    </g>
    <g id="ytick_7">
     <g id="line2d_12">
      <g>
       <use style="stroke:#000000;stroke-width:0.8;" x="34.56" xlink:href="#m9758e51e11" y="6.476003"/>
      </g>
     </g>
     <g id="text_12">
      <!-- 60 -->
      <g transform="translate(14.835 10.275222)scale(0.1 -0.1)">
       <use xlink:href="#DejaVuSans-36"/>
       <use x="63.623047" xlink:href="#DejaVuSans-30"/>
      </g>
     </g>
    </g>
   </g>
   <g id="line2d_13">
    <path clip-path="url(#p0f35e0d8b2)" d="M 90.557381 83.321917 
L 91.801768 84.487982 
L 92.423961 83.755697 
L 93.046154 82.771147 
L 93.668347 82.965042 
L 94.29054 83.729774 
L 94.912733 83.894768 
L 96.157119 86.046312 
L 96.779313 86.614974 
L 97.401506 86.167373 
L 98.023699 86.533771 
L 99.268085 86.585556 
L 100.512471 86.020065 
L 101.134664 86.216867 
L 101.756858 85.558291 
L 102.379051 85.958192 
L 103.001244 87.175666 
L 103.623437 87.800978 
L 104.867823 88.751451 
L 105.490016 88.917701 
L 106.112209 89.432077 
L 107.356596 91.318571 
L 107.978789 91.392068 
L 108.600982 91.204397 
L 109.223175 91.551838 
L 109.845368 92.951723 
L 110.467561 93.464607 
M 111.711948 93.688001 
L 112.334141 93.477058 
L 112.956334 93.601938 
L 113.578527 94.175291 
L 114.20072 93.975397 
L 114.822913 94.291423 
L 115.445106 94.313573 
L 116.0673 94.604024 
L 116.689493 94.173209 
L 117.311686 95.686463 
L 117.933879 97.582616 
L 119.800458 97.586516 
L 120.422651 97.402947 
L 121.044845 98.057888 
L 121.667038 98.064348 
L 122.289231 97.836436 
L 122.911424 98.622289 
L 123.533617 97.9279 
L 124.778003 98.201525 
L 125.400196 98.876934 
L 126.644583 99.282044 
L 127.888969 98.823225 
L 128.511162 98.955213 
L 129.133355 99.866605 
L 129.755548 99.913433 
L 130.377741 100.389916 
L 130.999935 99.587678 
L 131.622128 99.539195 
L 132.244321 100.104185 
L 132.866514 100.194208 
L 133.488707 100.06558 
L 134.733093 100.602013 
L 135.355286 100.274327 
L 135.97748 100.215039 
L 136.599673 101.893763 
L 137.844059 103.051194 
L 138.466252 104.051256 
L 139.088445 104.350121 
L 139.710638 104.882451 
L 140.332831 104.717724 
L 140.955025 105.20383 
L 141.577218 105.088258 
L 142.199411 105.571648 
L 143.443797 105.380487 
L 144.06599 105.661364 
L 144.688183 105.723791 
L 146.554763 107.511968 
L 147.176956 108.963832 
L 147.799149 109.40823 
L 149.665728 112.056894 
L 150.287921 112.286928 
L 150.910115 113.3198 
L 152.154501 113.95116 
L 152.776694 114.624238 
L 153.398887 115.003057 
L 154.02108 115.929236 
L 155.265466 115.563243 
L 157.754239 119.889581 
L 159.620818 121.743583 
L 160.865205 122.411444 
L 161.487398 122.808279 
L 162.109591 124.067973 
L 162.731784 123.678517 
L 163.97617 124.805964 
L 165.84275 127.20092 
L 166.464943 128.083702 
L 167.087136 128.746011 
L 168.331522 131.058625 
L 169.575908 131.908783 
L 170.820295 133.384397 
L 171.442488 133.456658 
L 172.064681 134.111695 
L 173.309067 134.950848 
L 173.93126 135.36656 
L 174.553453 135.318608 
L 175.175646 135.432296 
L 175.79784 136.432184 
M 177.042226 136.218981 
L 177.664419 135.416905 
L 178.286612 135.877139 
L 178.908805 136.182578 
L 179.530998 136.193544 
L 180.153191 137.294341 
L 180.775385 137.39395 
L 181.397578 138.196732 
L 182.019771 138.749976 
L 182.641964 138.012738 
L 183.264157 137.757115 
L 183.88635 138.634777 
L 184.508543 138.490596 
L 185.130736 140.330926 
L 185.75293 140.408736 
L 186.375123 140.969813 
L 187.619509 141.077354 
L 188.241702 140.997283 
L 188.863895 141.282349 
L 189.486088 141.997258 
L 190.108282 141.911341 
L 191.352668 143.721141 
L 192.597054 144.363349 
L 193.219247 144.907743 
L 193.84144 145.200842 
L 195.085827 144.467525 
L 195.70802 143.978663 
L 196.330213 143.659277 
L 196.952406 142.934022 
L 197.574599 143.01035 
L 198.196792 143.716421 
L 198.818985 144.207763 
L 199.441178 143.92074 
L 200.063372 144.032877 
L 200.685565 144.53516 
L 201.929951 143.95637 
L 202.552144 143.824583 
M 203.79653 144.07713 
L 204.418723 144.017123 
L 205.040917 143.795544 
L 205.66311 143.983679 
L 206.285303 143.92447 
L 206.907496 143.717352 
L 207.529689 142.765923 
L 208.151882 142.258763 
L 208.774075 142.093386 
L 209.396268 141.612236 
L 210.018462 141.440814 
L 210.640655 141.43656 
L 211.262848 141.033133 
L 211.885041 140.828408 
L 212.507234 140.288842 
L 213.129427 139.337267 
L 214.373813 136.533884 
L 214.996007 135.958709 
L 215.6182 134.963099 
L 216.240393 134.847864 
L 218.729165 133.136099 
L 219.351358 133.060405 
L 219.973552 131.507516 
L 221.217938 131.430265 
L 221.840131 130.683411 
L 223.70671 128.866998 
L 224.328903 129.163582 
L 224.951097 128.427109 
L 225.57329 128.172968 
L 226.195483 128.680943 
L 226.817676 127.819227 
L 228.062062 125.558161 
L 228.684255 125.343535 
L 229.306448 124.008186 
L 230.550835 122.455716 
L 233.039607 122.745399 
L 233.6618 122.090298 
L 234.283993 122.664137 
L 234.906187 122.402077 
L 235.52838 121.892465 
L 236.150573 120.708308 
L 236.772766 119.227031 
L 237.394959 119.170508 
L 238.017152 118.324834 
L 238.639345 117.720741 
L 240.505925 116.306679 
L 241.128118 115.681914 
L 241.750311 114.745096 
L 242.372504 114.668629 
L 243.61689 115.146986 
L 244.239083 115.024622 
L 244.861277 113.093619 
L 245.48347 112.87962 
L 246.105663 112.492383 
L 247.350049 111.551451 
L 248.594435 109.510614 
L 249.216628 110.142032 
L 251.083208 107.756716 
L 252.327594 105.247169 
L 252.949787 104.721997 
L 253.57198 104.731709 
L 254.194173 104.892723 
L 254.816367 104.233955 
L 255.43856 104.367372 
L 256.060753 103.331609 
L 256.682946 101.85482 
L 257.927332 102.932848 
L 259.793912 101.758477 
L 260.416105 102.283623 
L 261.038298 101.451821 
L 261.660491 101.485434 
L 262.282684 101.704219 
L 262.904877 101.461065 
L 263.52707 100.873085 
L 264.149264 100.881216 
L 264.771457 100.076518 
L 265.39365 99.980324 
L 266.015843 99.565828 
L 266.638036 98.512248 
L 267.260229 98.922611 
L 268.504615 98.375624 
L 269.126809 98.521395 
L 269.749002 97.96159 
L 270.371195 97.610151 
L 271.615581 97.877812 
L 272.237774 98.43919 
L 272.859967 98.448369 
L 273.48216 98.230951 
L 274.104354 97.80647 
L 274.726547 98.126937 
L 275.34874 98.081731 
L 277.837512 97.333652 
L 278.459705 97.867956 
L 279.081899 99.526927 
L 280.326285 99.011302 
L 280.948478 98.696408 
L 281.570671 100.158371 
L 282.192864 100.280439 
L 284.059444 99.989495 
L 284.681637 99.960988 
L 285.926023 98.596075 
L 286.548216 98.022172 
L 287.170409 98.23187 
L 287.792602 98.910692 
L 288.414795 98.910672 
L 289.036989 98.381613 
L 290.281375 98.06922 
L 291.525761 97.328824 
L 292.147954 96.679464 
L 292.770147 97.150708 
L 293.39234 96.950751 
L 294.014534 96.595557 
L 294.636727 97.614177 
L 295.25892 97.162825 
L 296.503306 96.862288 
L 297.125499 95.799413 
L 297.747692 95.320641 
L 298.369885 95.591611 
L 298.992079 95.623802 
L 299.614272 96.389595 
L 300.236465 95.672982 
L 300.858658 96.673624 
L 301.480851 95.837221 
L 302.103044 96.151512 
L 302.725237 95.501075 
L 303.34743 95.629685 
L 303.969624 95.194249 
L 304.591817 94.271202 
L 305.836203 94.299471 
L 306.458396 93.699003 
L 307.080589 93.582981 
L 307.702782 92.805193 
L 308.947169 91.728128 
L 309.569362 91.892125 
L 310.191555 91.344794 
L 310.813748 91.351293 
L 312.058134 92.658215 
L 312.680327 92.618318 
L 313.30252 92.361857 
L 313.924714 92.547532 
L 315.1691 91.714198 
L 315.791293 90.592612 
L 316.413486 90.133028 
L 317.035679 89.461713 
L 318.280065 90.085255 
L 319.524452 89.52133 
L 320.146645 88.374963 
L 320.768838 88.306835 
L 321.391031 87.605895 
L 322.013224 87.757829 
L 322.635417 87.018143 
L 323.25761 86.678085 
L 323.879804 87.252822 
L 324.501997 88.079973 
L 325.12419 88.42493 
L 326.368576 88.417426 
L 326.990769 88.260058 
L 328.235155 88.286912 
L 328.857349 88.865751 
L 329.479542 89.174925 
L 330.101735 89.125361 
L 330.723928 88.786903 
L 331.346121 89.095444 
L 331.968314 88.626032 
L 332.590507 87.301293 
L 333.2127 86.498429 
L 333.834894 86.260143 
L 334.457087 86.186254 
L 335.701473 85.090907 
L 336.323666 84.805937 
L 336.945859 84.644386 
L 337.568052 84.161069 
L 338.190245 83.398589 
L 338.812439 83.070062 
L 339.434632 83.410982 
L 340.056825 83.522181 
L 340.679018 83.879715 
L 341.301211 83.846406 
L 341.923404 83.497583 
L 342.545597 83.655522 
M 343.789984 83.213293 
L 344.412177 83.242318 
L 345.03437 82.935036 
L 345.656563 82.133813 
L 346.278756 81.930119 
L 346.900949 82.292595 
L 348.145336 81.713186 
L 348.767529 81.848886 
L 349.389722 82.276214 
L 350.634108 81.714926 
L 351.256301 82.224996 
M 352.500687 83.556073 
L 353.745074 83.922384 
L 354.367267 83.684039 
M 355.611653 83.771242 
L 356.233846 84.321631 
M 357.478232 83.976846 
L 358.722619 82.8 
L 358.722619 82.8 
" style="fill:none;stroke:#1f77b4;stroke-linecap:square;stroke-width:1.5;"/>
   </g>
   <g id="line2d_14">
    <path clip-path="url(#p0f35e0d8b2)" d="M 34.56 82.8 
L 414.72 82.8 
" style="fill:none;stroke:#000000;stroke-dasharray:1.5,2.475;stroke-dashoffset:0;stroke-width:1.5;"/>
   </g>
   <g id="patch_3">
    <path d="M 34.56 162 
L 34.56 3.6 
" style="fill:none;stroke:#000000;stroke-linecap:square;stroke-linejoin:miter;stroke-width:0.8;"/>
   </g>
   <g id="patch_4">
    <path d="M 414.72 162 
L 414.72 3.6 
" style="fill:none;stroke:#000000;stroke-linecap:square;stroke-linejoin:miter;stroke-width:0.8;"/>
   </g>
   <g id="patch_5">
    <path d="M 34.56 162 
L 414.72 162 
" style="fill:none;stroke:#000000;stroke-linecap:square;stroke-linejoin:miter;stroke-width:0.8;"/>
   </g>
   <g id="patch_6">
    <path d="M 34.56 3.6 
L 414.72 3.6 
" style="fill:none;stroke:#000000;stroke-linecap:square;stroke-linejoin:miter;stroke-width:0.8;"/>
   </g>
  </g>
 </g>
 <defs>
  <clipPath id="p0f35e0d8b2">
   <rect height="158.4" width="380.16" x="34.56" y="3.6"/>
  </clipPath>
 </defs>
</svg>
