<?xml version="1.0" encoding="utf-8" standalone="no"?>
<!DOCTYPE svg PUBLIC "-//W3C//DTD SVG 1.1//EN"
  "http://www.w3.org/Graphics/SVG/1.1/DTD/svg11.dtd">
<svg height="180pt" version="1.1" viewBox="0 0 432 180" width="432pt" xmlns="http://www.w3.org/2000/svg" xmlns:xlink="http://www.w3.org/1999/xlink">
 <metadata>
  <rdf:RDF xmlns:cc="http://creativecommons.org/ns#" xmlns:dc="http://purl.org/dc/elements/1.1/" xmlns:rdf="http://www.w3.org/1999/02/22-rdf-syntax-ns#">
   <cc:Work>
    <dc:type rdf:resource="http://purl.org/dc/dcmitype/StillImage"/>
    <dc:date>2021-08-12T10:41:48.925169</dc:date>
    <dc:format>image/svg+xml</dc:format>
    <dc:creator>
     <cc:Agent>
      <dc:title>Matplotlib v3.4.2, https://matplotlib.org/</dc:title>
     </cc:Agent>
    </dc:creator>
   </cc:Work>
  </rdf:RDF>
 </metadata>
 <defs>
  <style type="text/css">*{stroke-linecap:butt;stroke-linejoin:round;}</style>
 </defs>
 <g id="figure_1">
  <g id="patch_1">
   <path d="M 0 180 
L 432 180 
L 432 0 
L 0 0 
z
" style="fill:#ffffff;"/>
  </g>
  <g id="axes_1">
   <g id="patch_2">
    <path d="M 34.56 162 
L 414.72 162 
L 414.72 3.6 
L 34.56 3.6 
z
" style="fill:#ffffff;"/>
   </g>
   <g id="PolyCollection_1">
    <path clip-path="url(#pfd999ea657)" d="M 74.670668 82.349007 
L 74.670668 83.250993 
L 75.116342 83.69996 
L 75.562016 84.14758 
L 76.007691 84.593851 
L 76.453365 85.038774 
L 76.899039 85.482348 
L 77.344713 85.924574 
L 77.790387 86.365452 
L 78.236061 86.804982 
L 78.681735 87.243164 
L 79.127409 87.679997 
L 79.573083 88.115482 
L 80.018757 88.549619 
L 80.464431 88.982407 
L 80.910106 89.413848 
L 81.35578 89.84394 
L 81.801454 90.272683 
L 82.247128 90.700079 
L 82.692802 91.126126 
L 83.138476 91.550825 
L 83.58415 91.974176 
L 84.029824 92.396179 
L 84.475498 92.816833 
L 84.921172 93.236139 
L 85.366846 93.654097 
L 85.812521 94.070706 
L 86.258195 94.485967 
L 86.703869 94.89988 
L 87.149543 95.312445 
L 87.595217 95.723662 
L 88.040891 96.13353 
L 88.486565 96.54205 
L 88.932239 96.949222 
L 89.377913 97.355045 
L 89.823587 97.75952 
L 90.269261 98.162647 
L 90.714936 98.564426 
L 91.16061 98.964857 
L 91.606284 99.363939 
L 92.051958 99.761673 
L 92.497632 100.158059 
L 92.943306 100.553096 
L 93.38898 100.946785 
L 93.834654 101.339126 
L 94.280328 101.730119 
L 94.726002 102.119764 
L 95.171676 102.50806 
L 95.617351 102.895008 
L 96.063025 103.280608 
L 96.508699 103.664859 
L 96.954373 104.047762 
L 97.400047 104.429317 
L 97.845721 104.809524 
L 98.291395 105.188383 
L 98.737069 105.565893 
L 99.182743 105.942055 
L 99.628417 106.316869 
L 100.074091 106.690334 
L 100.519766 107.062451 
L 100.96544 107.43322 
L 101.411114 107.802641 
L 101.856788 108.170714 
L 102.302462 108.537438 
L 102.748136 108.902814 
L 103.19381 109.266842 
L 103.639484 109.629521 
L 104.085158 109.990852 
L 104.530832 110.350835 
L 104.976506 110.70947 
L 105.422181 111.066756 
L 105.867855 111.422695 
L 106.313529 111.777285 
L 106.759203 112.130526 
L 107.204877 112.48242 
L 107.650551 112.832965 
L 108.096225 113.182162 
L 108.541899 113.530011 
L 108.987573 113.876511 
L 109.433247 114.221663 
L 109.878921 114.565467 
L 110.324596 114.907923 
L 110.77027 115.249031 
L 111.215944 115.58879 
L 111.661618 115.927201 
L 112.107292 116.264263 
L 112.552966 116.599978 
L 112.99864 116.934344 
L 113.444314 117.267362 
L 113.889988 117.599032 
L 114.335662 117.929353 
L 114.781336 118.258326 
L 115.227011 118.585951 
L 115.672685 118.912228 
L 116.118359 119.237157 
L 116.564033 119.560737 
L 117.009707 119.882969 
L 117.455381 120.203852 
L 117.901055 120.523388 
L 118.346729 120.841575 
L 118.792403 121.158414 
L 119.238077 121.473905 
L 119.683751 121.788047 
L 120.129426 122.100841 
L 120.5751 122.412287 
L 121.020774 122.722385 
L 121.466448 123.031135 
L 121.912122 123.338536 
L 122.357796 123.644589 
L 122.80347 123.949293 
L 123.249144 124.25265 
L 123.694818 124.554658 
L 124.140492 124.855318 
L 124.586166 125.15463 
L 125.031841 125.452593 
L 125.477515 125.749208 
L 125.923189 126.044475 
L 126.368863 126.338394 
L 126.814537 126.630964 
L 127.260211 126.922186 
L 127.705885 127.21206 
L 128.151559 127.500586 
L 128.597233 127.787764 
L 129.042907 128.073593 
L 129.488581 128.358074 
L 129.934256 128.641206 
L 130.37993 128.922991 
L 130.825604 129.203427 
L 131.271278 129.482515 
L 131.716952 129.760255 
L 132.162626 130.036646 
L 132.6083 130.311689 
L 133.053974 130.585384 
L 133.499648 130.857731 
L 133.945322 131.128729 
L 134.390996 131.398379 
L 134.836671 131.666681 
L 135.282345 131.933635 
L 135.728019 132.19924 
L 136.173693 132.463498 
L 136.619367 132.726406 
L 137.065041 132.987967 
L 137.510715 133.24818 
L 137.956389 133.507044 
L 138.402063 133.76456 
L 138.847737 134.020727 
L 139.293411 134.275547 
L 139.739086 134.529018 
L 140.18476 134.781141 
L 140.630434 135.031915 
L 141.076108 135.281342 
L 141.521782 135.52942 
L 141.967456 135.77615 
L 142.41313 136.021532 
L 142.858804 136.265565 
L 143.304478 136.50825 
L 143.750152 136.749587 
L 144.195826 136.989576 
L 144.641501 137.228216 
L 145.087175 137.465508 
L 145.532849 137.701452 
L 145.978523 137.936048 
L 146.424197 138.169295 
L 146.869871 138.401194 
L 147.315545 138.631745 
L 147.761219 138.860948 
L 148.206893 139.088802 
L 148.652567 139.315308 
L 149.098242 139.540466 
L 149.543916 139.764276 
L 149.98959 139.986737 
L 150.435264 140.20785 
L 150.880938 140.427615 
L 151.326612 140.646032 
L 151.772286 140.8631 
L 152.21796 141.078821 
L 152.663634 141.293192 
L 153.109308 141.506216 
L 153.554982 141.717891 
L 154.000657 141.928219 
L 154.446331 142.137197 
L 154.892005 142.344828 
L 155.337679 142.55111 
L 155.783353 142.756045 
L 156.229027 142.95963 
L 156.674701 143.161868 
L 157.120375 143.362757 
L 157.566049 143.562299 
L 158.011723 143.760491 
L 158.457397 143.957336 
L 158.903072 144.152832 
L 159.348746 144.346981 
L 159.79442 144.53978 
L 160.240094 144.731232 
L 160.685768 144.921335 
L 161.131442 145.110091 
L 161.577116 145.297497 
L 162.02279 145.483556 
L 162.468464 145.668266 
L 162.914138 145.851629 
L 163.359812 146.033642 
L 163.805487 146.214308 
L 164.251161 146.393625 
L 164.696835 146.571595 
L 165.142509 146.748215 
L 165.588183 146.923488 
L 166.033857 147.097412 
L 166.479531 147.269988 
L 166.925205 147.441216 
L 167.370879 147.611096 
L 167.816553 147.779627 
L 168.262227 147.94681 
L 168.707902 148.112645 
L 169.153576 148.277132 
L 169.59925 148.44027 
L 170.044924 148.60206 
L 170.490598 148.762502 
L 170.936272 148.921596 
L 171.381946 149.079341 
L 171.82762 149.235738 
L 172.273294 149.390787 
L 172.718968 149.544488 
L 173.164642 149.69684 
L 173.610317 149.847844 
L 174.055991 149.9975 
L 174.501665 150.145808 
L 174.947339 150.292767 
L 175.393013 150.438378 
L 175.838687 150.582641 
L 176.284361 150.725555 
L 176.730035 150.867122 
L 177.175709 151.00734 
L 177.621383 151.14621 
L 178.067057 151.283731 
L 178.512732 151.419905 
L 178.958406 151.55473 
L 179.40408 151.688207 
L 179.849754 151.820335 
L 180.295428 151.951115 
L 180.741102 152.080548 
L 181.186776 152.208631 
L 181.63245 152.335367 
L 182.078124 152.460754 
L 182.523798 152.584793 
L 182.969472 152.707484 
L 183.415147 152.828827 
L 183.860821 152.948821 
L 184.306495 153.067467 
L 184.752169 153.184765 
L 185.197843 153.300715 
L 185.643517 153.415316 
L 186.089191 153.528569 
L 186.534865 153.640474 
L 186.980539 153.75103 
L 187.426213 153.860239 
L 187.871887 153.968099 
L 188.317562 154.074611 
L 188.763236 154.179774 
L 189.20891 154.283589 
L 189.654584 154.386056 
L 190.100258 154.487175 
L 190.545932 154.586946 
L 190.991606 154.685368 
L 191.43728 154.782442 
L 191.882954 154.878168 
L 192.328628 154.972546 
L 192.774302 155.065575 
L 193.219977 155.157256 
L 193.665651 155.247589 
L 194.111325 155.336573 
L 194.556999 155.42421 
L 195.002673 155.510498 
L 195.448347 155.595438 
L 195.894021 155.679029 
L 196.339695 155.761272 
L 196.785369 155.842167 
L 197.231043 155.921714 
L 197.676717 155.999913 
L 198.122392 156.076763 
L 198.568066 156.152265 
L 199.01374 156.226419 
L 199.459414 156.299224 
L 199.905088 156.370682 
L 200.350762 156.440791 
L 200.796436 156.509552 
L 201.24211 156.576964 
L 201.687784 156.643028 
L 202.133458 156.707744 
L 202.579132 156.771112 
L 203.024807 156.833132 
L 203.470481 156.893803 
L 203.916155 156.953126 
L 204.361829 157.011101 
L 204.807503 157.067727 
L 205.253177 157.123006 
L 205.698851 157.176936 
L 206.144525 157.229518 
L 206.590199 157.280751 
L 207.035873 157.330636 
L 207.481547 157.379173 
L 207.927222 157.426362 
L 208.372896 157.472203 
L 208.81857 157.516695 
L 209.264244 157.559839 
L 209.709918 157.601635 
L 210.155592 157.642082 
L 210.601266 157.681182 
L 211.04694 157.718933 
L 211.492614 157.755335 
L 211.938288 157.79039 
L 212.383962 157.824096 
L 212.829637 157.856454 
L 213.275311 157.887464 
L 213.720985 157.917125 
L 214.166659 157.945439 
L 214.612333 157.972404 
L 215.058007 157.998021 
L 215.503681 158.022289 
L 215.949355 158.045209 
L 216.395029 158.066781 
L 216.840703 158.087005 
L 217.286377 158.105881 
L 217.732052 158.123408 
L 218.177726 158.139587 
L 218.6234 158.154418 
L 219.069074 158.1679 
L 219.514748 158.180034 
L 219.960422 158.19082 
L 220.406096 158.200258 
L 220.85177 158.208348 
L 221.297444 158.215089 
L 221.743118 158.220482 
L 222.188792 158.224527 
L 222.634467 158.227223 
L 223.080141 158.228571 
L 223.525815 158.228571 
L 223.971489 158.227223 
L 224.417163 158.224527 
L 224.862837 158.220482 
L 225.308511 158.215089 
L 225.754185 158.208348 
L 226.199859 158.200258 
L 226.645533 158.19082 
L 227.091208 158.180034 
L 227.536882 158.1679 
L 227.982556 158.154418 
L 228.42823 158.139587 
L 228.873904 158.123408 
L 229.319578 158.105881 
L 229.765252 158.087005 
L 230.210926 158.066781 
L 230.6566 158.045209 
L 231.102274 158.022289 
L 231.547948 157.998021 
L 231.993623 157.972404 
L 232.439297 157.945439 
L 232.884971 157.917125 
L 233.330645 157.887464 
L 233.776319 157.856454 
L 234.221993 157.824096 
L 234.667667 157.79039 
L 234.667667 7.80961 
L 234.667667 7.80961 
L 234.221993 7.775904 
L 233.776319 7.743546 
L 233.330645 7.712536 
L 232.884971 7.682875 
L 232.439297 7.654561 
L 231.993623 7.627596 
L 231.547948 7.601979 
L 231.102274 7.577711 
L 230.6566 7.554791 
L 230.210926 7.533219 
L 229.765252 7.512995 
L 229.319578 7.494119 
L 228.873904 7.476592 
L 228.42823 7.460413 
L 227.982556 7.445582 
L 227.536882 7.4321 
L 227.091208 7.419966 
L 226.645533 7.40918 
L 226.199859 7.399742 
L 225.754185 7.391652 
L 225.308511 7.384911 
L 224.862837 7.379518 
L 224.417163 7.375473 
L 223.971489 7.372777 
L 223.525815 7.371429 
L 223.080141 7.371429 
L 222.634467 7.372777 
L 222.188792 7.375473 
L 221.743118 7.379518 
L 221.297444 7.384911 
L 220.85177 7.391652 
L 220.406096 7.399742 
L 219.960422 7.40918 
L 219.514748 7.419966 
L 219.069074 7.4321 
L 218.6234 7.445582 
L 218.177726 7.460413 
L 217.732052 7.476592 
L 217.286377 7.494119 
L 216.840703 7.512995 
L 216.395029 7.533219 
L 215.949355 7.554791 
L 215.503681 7.577711 
L 215.058007 7.601979 
L 214.612333 7.627596 
L 214.166659 7.654561 
L 213.720985 7.682875 
L 213.275311 7.712536 
L 212.829637 7.743546 
L 212.383962 7.775904 
L 211.938288 7.80961 
L 211.492614 7.844665 
L 211.04694 7.881067 
L 210.601266 7.918818 
L 210.155592 7.957918 
L 209.709918 7.998365 
L 209.264244 8.040161 
L 208.81857 8.083305 
L 208.372896 8.127797 
L 207.927222 8.173638 
L 207.481547 8.220827 
L 207.035873 8.269364 
L 206.590199 8.319249 
L 206.144525 8.370482 
L 205.698851 8.423064 
L 205.253177 8.476994 
L 204.807503 8.532273 
L 204.361829 8.588899 
L 203.916155 8.646874 
L 203.470481 8.706197 
L 203.024807 8.766868 
L 202.579132 8.828888 
L 202.133458 8.892256 
L 201.687784 8.956972 
L 201.24211 9.023036 
L 200.796436 9.090448 
L 200.350762 9.159209 
L 199.905088 9.229318 
L 199.459414 9.300776 
L 199.01374 9.373581 
L 198.568066 9.447735 
L 198.122392 9.523237 
L 197.676717 9.600087 
L 197.231043 9.678286 
L 196.785369 9.757833 
L 196.339695 9.838728 
L 195.894021 9.920971 
L 195.448347 10.004562 
L 195.002673 10.089502 
L 194.556999 10.17579 
L 194.111325 10.263427 
L 193.665651 10.352411 
L 193.219977 10.442744 
L 192.774302 10.534425 
L 192.328628 10.627454 
L 191.882954 10.721832 
L 191.43728 10.817558 
L 190.991606 10.914632 
L 190.545932 11.013054 
L 190.100258 11.112825 
L 189.654584 11.213944 
L 189.20891 11.316411 
L 188.763236 11.420226 
L 188.317562 11.525389 
L 187.871887 11.631901 
L 187.426213 11.739761 
L 186.980539 11.84897 
L 186.534865 11.959526 
L 186.089191 12.071431 
L 185.643517 12.184684 
L 185.197843 12.299285 
L 184.752169 12.415235 
L 184.306495 12.532533 
L 183.860821 12.651179 
L 183.415147 12.771173 
L 182.969472 12.892516 
L 182.523798 13.015207 
L 182.078124 13.139246 
L 181.63245 13.264633 
L 181.186776 13.391369 
L 180.741102 13.519452 
L 180.295428 13.648885 
L 179.849754 13.779665 
L 179.40408 13.911793 
L 178.958406 14.04527 
L 178.512732 14.180095 
L 178.067057 14.316269 
L 177.621383 14.45379 
L 177.175709 14.59266 
L 176.730035 14.732878 
L 176.284361 14.874445 
L 175.838687 15.017359 
L 175.393013 15.161622 
L 174.947339 15.307233 
L 174.501665 15.454192 
L 174.055991 15.6025 
L 173.610317 15.752156 
L 173.164642 15.90316 
L 172.718968 16.055512 
L 172.273294 16.209213 
L 171.82762 16.364262 
L 171.381946 16.520659 
L 170.936272 16.678404 
L 170.490598 16.837498 
L 170.044924 16.99794 
L 169.59925 17.15973 
L 169.153576 17.322868 
L 168.707902 17.487355 
L 168.262227 17.65319 
L 167.816553 17.820373 
L 167.370879 17.988904 
L 166.925205 18.158784 
L 166.479531 18.330012 
L 166.033857 18.502588 
L 165.588183 18.676512 
L 165.142509 18.851785 
L 164.696835 19.028405 
L 164.251161 19.206375 
L 163.805487 19.385692 
L 163.359812 19.566358 
L 162.914138 19.748371 
L 162.468464 19.931734 
L 162.02279 20.116444 
L 161.577116 20.302503 
L 161.131442 20.489909 
L 160.685768 20.678665 
L 160.240094 20.868768 
L 159.79442 21.06022 
L 159.348746 21.253019 
L 158.903072 21.447168 
L 158.457397 21.642664 
L 158.011723 21.839509 
L 157.566049 22.037701 
L 157.120375 22.237243 
L 156.674701 22.438132 
L 156.229027 22.64037 
L 155.783353 22.843955 
L 155.337679 23.04889 
L 154.892005 23.255172 
L 154.446331 23.462803 
L 154.000657 23.671781 
L 153.554982 23.882109 
L 153.109308 24.093784 
L 152.663634 24.306808 
L 152.21796 24.521179 
L 151.772286 24.7369 
L 151.326612 24.953968 
L 150.880938 25.172385 
L 150.435264 25.39215 
L 149.98959 25.613263 
L 149.543916 25.835724 
L 149.098242 26.059534 
L 148.652567 26.284692 
L 148.206893 26.511198 
L 147.761219 26.739052 
L 147.315545 26.968255 
L 146.869871 27.198806 
L 146.424197 27.430705 
L 145.978523 27.663952 
L 145.532849 27.898548 
L 145.087175 28.134492 
L 144.641501 28.371784 
L 144.195826 28.610424 
L 143.750152 28.850413 
L 143.304478 29.09175 
L 142.858804 29.334435 
L 142.41313 29.578468 
L 141.967456 29.82385 
L 141.521782 30.07058 
L 141.076108 30.318658 
L 140.630434 30.568085 
L 140.18476 30.818859 
L 139.739086 31.070982 
L 139.293411 31.324453 
L 138.847737 31.579273 
L 138.402063 31.83544 
L 137.956389 32.092956 
L 137.510715 32.35182 
L 137.065041 32.612033 
L 136.619367 32.873594 
L 136.173693 33.136502 
L 135.728019 33.40076 
L 135.282345 33.666365 
L 134.836671 33.933319 
L 134.390996 34.201621 
L 133.945322 34.471271 
L 133.499648 34.742269 
L 133.053974 35.014616 
L 132.6083 35.288311 
L 132.162626 35.563354 
L 131.716952 35.839745 
L 131.271278 36.117485 
L 130.825604 36.396573 
L 130.37993 36.677009 
L 129.934256 36.958794 
L 129.488581 37.241926 
L 129.042907 37.526407 
L 128.597233 37.812236 
L 128.151559 38.099414 
L 127.705885 38.38794 
L 127.260211 38.677814 
L 126.814537 38.969036 
L 126.368863 39.261606 
L 125.923189 39.555525 
L 125.477515 39.850792 
L 125.031841 40.147407 
L 124.586166 40.44537 
L 124.140492 40.744682 
L 123.694818 41.045342 
L 123.249144 41.34735 
L 122.80347 41.650707 
L 122.357796 41.955411 
L 121.912122 42.261464 
L 121.466448 42.568865 
L 121.020774 42.877615 
L 120.5751 43.187713 
L 120.129426 43.499159 
L 119.683751 43.811953 
L 119.238077 44.126095 
L 118.792403 44.441586 
L 118.346729 44.758425 
L 117.901055 45.076612 
L 117.455381 45.396148 
L 117.009707 45.717031 
L 116.564033 46.039263 
L 116.118359 46.362843 
L 115.672685 46.687772 
L 115.227011 47.014049 
L 114.781336 47.341674 
L 114.335662 47.670647 
L 113.889988 48.000968 
L 113.444314 48.332638 
L 112.99864 48.665656 
L 112.552966 49.000022 
L 112.107292 49.335737 
L 111.661618 49.672799 
L 111.215944 50.01121 
L 110.77027 50.350969 
L 110.324596 50.692077 
L 109.878921 51.034533 
L 109.433247 51.378337 
L 108.987573 51.723489 
L 108.541899 52.069989 
L 108.096225 52.417838 
L 107.650551 52.767035 
L 107.204877 53.11758 
L 106.759203 53.469474 
L 106.313529 53.822715 
L 105.867855 54.177305 
L 105.422181 54.533244 
L 104.976506 54.89053 
L 104.530832 55.249165 
L 104.085158 55.609148 
L 103.639484 55.970479 
L 103.19381 56.333158 
L 102.748136 56.697186 
L 102.302462 57.062562 
L 101.856788 57.429286 
L 101.411114 57.797359 
L 100.96544 58.16678 
L 100.519766 58.537549 
L 100.074091 58.909666 
L 99.628417 59.283131 
L 99.182743 59.657945 
L 98.737069 60.034107 
L 98.291395 60.411617 
L 97.845721 60.790476 
L 97.400047 61.170683 
L 96.954373 61.552238 
L 96.508699 61.935141 
L 96.063025 62.319392 
L 95.617351 62.704992 
L 95.171676 63.09194 
L 94.726002 63.480236 
L 94.280328 63.869881 
L 93.834654 64.260874 
L 93.38898 64.653215 
L 92.943306 65.046904 
L 92.497632 65.441941 
L 92.051958 65.838327 
L 91.606284 66.236061 
L 91.16061 66.635143 
L 90.714936 67.035574 
L 90.269261 67.437353 
L 89.823587 67.84048 
L 89.377913 68.244955 
L 88.932239 68.650778 
L 88.486565 69.05795 
L 88.040891 69.46647 
L 87.595217 69.876338 
L 87.149543 70.287555 
L 86.703869 70.70012 
L 86.258195 71.114033 
L 85.812521 71.529294 
L 85.366846 71.945903 
L 84.921172 72.363861 
L 84.475498 72.783167 
L 84.029824 73.203821 
L 83.58415 73.625824 
L 83.138476 74.049175 
L 82.692802 74.473874 
L 82.247128 74.899921 
L 81.801454 75.327317 
L 81.35578 75.75606 
L 80.910106 76.186152 
L 80.464431 76.617593 
L 80.018757 77.050381 
L 79.573083 77.484518 
L 79.127409 77.920003 
L 78.681735 78.356836 
L 78.236061 78.795018 
L 77.790387 79.234548 
L 77.344713 79.675426 
L 76.899039 80.117652 
L 76.453365 80.561226 
L 76.007691 81.006149 
L 75.562016 81.45242 
L 75.116342 81.90004 
L 74.670668 82.349007 
z
" style="fill:#0000ff;fill-opacity:0.1;stroke:#0000ff;stroke-opacity:0.1;"/>
    <path clip-path="url(#pfd999ea657)" d="M 237.787386 7.844665 
L 237.787386 157.755335 
L 238.23306 157.718933 
L 238.678734 157.681182 
L 239.124408 157.642082 
L 239.570082 157.601635 
L 240.015756 157.559839 
L 240.46143 157.516695 
L 240.907104 157.472203 
L 241.352778 157.426362 
L 241.798453 157.379173 
L 242.244127 157.330636 
L 242.689801 157.280751 
L 243.135475 157.229518 
L 243.581149 157.176936 
L 244.026823 157.123006 
L 244.472497 157.067727 
L 244.918171 157.011101 
L 245.363845 156.953126 
L 245.809519 156.893803 
L 246.255193 156.833132 
L 246.700868 156.771112 
L 247.146542 156.707744 
L 247.592216 156.643028 
L 248.03789 156.576964 
L 248.483564 156.509552 
L 248.929238 156.440791 
L 249.374912 156.370682 
L 249.820586 156.299224 
L 250.26626 156.226419 
L 250.711934 156.152265 
L 251.157608 156.076763 
L 251.603283 155.999913 
L 252.048957 155.921714 
L 252.494631 155.842167 
L 252.940305 155.761272 
L 253.385979 155.679029 
L 253.831653 155.595438 
L 254.277327 155.510498 
L 254.723001 155.42421 
L 255.168675 155.336573 
L 255.614349 155.247589 
L 256.060023 155.157256 
L 256.505698 155.065575 
L 256.951372 154.972546 
L 257.397046 154.878168 
L 257.84272 154.782442 
L 258.288394 154.685368 
L 258.734068 154.586946 
L 259.179742 154.487175 
L 259.625416 154.386056 
L 260.07109 154.283589 
L 260.516764 154.179774 
L 260.962438 154.074611 
L 261.408113 153.968099 
L 261.853787 153.860239 
L 262.299461 153.75103 
L 262.745135 153.640474 
L 263.190809 153.528569 
L 263.636483 153.415316 
L 264.082157 153.300715 
L 264.527831 153.184765 
L 264.973505 153.067467 
L 265.419179 152.948821 
L 265.864853 152.828827 
L 266.310528 152.707484 
L 266.756202 152.584793 
L 267.201876 152.460754 
L 267.64755 152.335367 
L 268.093224 152.208631 
L 268.538898 152.080548 
L 268.984572 151.951115 
L 269.430246 151.820335 
L 269.87592 151.688207 
L 270.321594 151.55473 
L 270.767268 151.419905 
L 271.212943 151.283731 
L 271.658617 151.14621 
L 272.104291 151.00734 
L 272.549965 150.867122 
L 272.995639 150.725555 
L 273.441313 150.582641 
L 273.886987 150.438378 
L 274.332661 150.292767 
L 274.778335 150.145808 
L 275.224009 149.9975 
L 275.669683 149.847844 
L 276.115358 149.69684 
L 276.561032 149.544488 
L 277.006706 149.390787 
L 277.45238 149.235738 
L 277.898054 149.079341 
L 278.343728 148.921596 
L 278.789402 148.762502 
L 279.235076 148.60206 
L 279.68075 148.44027 
L 280.126424 148.277132 
L 280.572098 148.112645 
L 281.017773 147.94681 
L 281.463447 147.779627 
L 281.909121 147.611096 
L 282.354795 147.441216 
L 282.800469 147.269988 
L 283.246143 147.097412 
L 283.691817 146.923488 
L 284.137491 146.748215 
L 284.583165 146.571595 
L 285.028839 146.393625 
L 285.474513 146.214308 
L 285.920188 146.033642 
L 286.365862 145.851629 
L 286.811536 145.668266 
L 287.25721 145.483556 
L 287.702884 145.297497 
L 288.148558 145.110091 
L 288.594232 144.921335 
L 289.039906 144.731232 
L 289.48558 144.53978 
L 289.931254 144.346981 
L 290.376928 144.152832 
L 290.822603 143.957336 
L 291.268277 143.760491 
L 291.713951 143.562299 
L 292.159625 143.362757 
L 292.605299 143.161868 
L 293.050973 142.95963 
L 293.496647 142.756045 
L 293.942321 142.55111 
L 294.387995 142.344828 
L 294.833669 142.137197 
L 295.279343 141.928219 
L 295.725018 141.717891 
L 296.170692 141.506216 
L 296.616366 141.293192 
L 297.06204 141.078821 
L 297.507714 140.8631 
L 297.953388 140.646032 
L 298.399062 140.427615 
L 298.844736 140.20785 
L 299.29041 139.986737 
L 299.736084 139.764276 
L 300.181758 139.540466 
L 300.627433 139.315308 
L 301.073107 139.088802 
L 301.518781 138.860948 
L 301.964455 138.631745 
L 302.410129 138.401194 
L 302.855803 138.169295 
L 303.301477 137.936048 
L 303.747151 137.701452 
L 304.192825 137.465508 
L 304.638499 137.228216 
L 305.084174 136.989576 
L 305.529848 136.749587 
L 305.975522 136.50825 
L 306.421196 136.265565 
L 306.86687 136.021532 
L 307.312544 135.77615 
L 307.758218 135.52942 
L 308.203892 135.281342 
L 308.649566 135.031915 
L 309.09524 134.781141 
L 309.540914 134.529018 
L 309.986589 134.275547 
L 310.432263 134.020727 
L 310.877937 133.76456 
L 311.323611 133.507044 
L 311.769285 133.24818 
L 312.214959 132.987967 
L 312.660633 132.726406 
L 313.106307 132.463498 
L 313.551981 132.19924 
L 313.997655 131.933635 
L 314.443329 131.666681 
L 314.889004 131.398379 
L 315.334678 131.128729 
L 315.780352 130.857731 
L 316.226026 130.585384 
L 316.6717 130.311689 
L 317.117374 130.036646 
L 317.563048 129.760255 
L 318.008722 129.482515 
L 318.454396 129.203427 
L 318.90007 128.922991 
L 319.345744 128.641206 
L 319.791419 128.358074 
L 320.237093 128.073593 
L 320.682767 127.787764 
L 321.128441 127.500586 
L 321.574115 127.21206 
L 322.019789 126.922186 
L 322.465463 126.630964 
L 322.911137 126.338394 
L 323.356811 126.044475 
L 323.802485 125.749208 
L 324.248159 125.452593 
L 324.693834 125.15463 
L 325.139508 124.855318 
L 325.585182 124.554658 
L 326.030856 124.25265 
L 326.47653 123.949293 
L 326.922204 123.644589 
L 327.367878 123.338536 
L 327.813552 123.031135 
L 328.259226 122.722385 
L 328.7049 122.412287 
L 329.150574 122.100841 
L 329.596249 121.788047 
L 330.041923 121.473905 
L 330.487597 121.158414 
L 330.933271 120.841575 
L 331.378945 120.523388 
L 331.824619 120.203852 
L 332.270293 119.882969 
L 332.715967 119.560737 
L 333.161641 119.237157 
L 333.607315 118.912228 
L 334.052989 118.585951 
L 334.498664 118.258326 
L 334.944338 117.929353 
L 335.390012 117.599032 
L 335.835686 117.267362 
L 336.28136 116.934344 
L 336.727034 116.599978 
L 337.172708 116.264263 
L 337.618382 115.927201 
L 338.064056 115.58879 
L 338.50973 115.249031 
L 338.955404 114.907923 
L 339.401079 114.565467 
L 339.846753 114.221663 
L 340.292427 113.876511 
L 340.738101 113.530011 
L 341.183775 113.182162 
L 341.629449 112.832965 
L 342.075123 112.48242 
L 342.520797 112.130526 
L 342.966471 111.777285 
L 343.412145 111.422695 
L 343.857819 111.066756 
L 344.303494 110.70947 
L 344.749168 110.350835 
L 345.194842 109.990852 
L 345.640516 109.629521 
L 346.08619 109.266842 
L 346.531864 108.902814 
L 346.977538 108.537438 
L 347.423212 108.170714 
L 347.868886 107.802641 
L 348.31456 107.43322 
L 348.760234 107.062451 
L 349.205909 106.690334 
L 349.651583 106.316869 
L 350.097257 105.942055 
L 350.542931 105.565893 
L 350.988605 105.188383 
L 351.434279 104.809524 
L 351.879953 104.429317 
L 352.325627 104.047762 
L 352.771301 103.664859 
L 353.216975 103.280608 
L 353.662649 102.895008 
L 354.108324 102.50806 
L 354.553998 102.119764 
L 354.999672 101.730119 
L 355.445346 101.339126 
L 355.89102 100.946785 
L 356.336694 100.553096 
L 356.782368 100.158059 
L 357.228042 99.761673 
L 357.673716 99.363939 
L 358.11939 98.964857 
L 358.565064 98.564426 
L 359.010739 98.162647 
L 359.456413 97.75952 
L 359.902087 97.355045 
L 360.347761 96.949222 
L 360.793435 96.54205 
L 361.239109 96.13353 
L 361.684783 95.723662 
L 362.130457 95.312445 
L 362.576131 94.89988 
L 363.021805 94.485967 
L 363.467479 94.070706 
L 363.913154 93.654097 
L 364.358828 93.236139 
L 364.804502 92.816833 
L 365.250176 92.396179 
L 365.69585 91.974176 
L 366.141524 91.550825 
L 366.587198 91.126126 
L 367.032872 90.700079 
L 367.478546 90.272683 
L 367.92422 89.84394 
L 368.369894 89.413848 
L 368.815569 88.982407 
L 369.261243 88.549619 
L 369.706917 88.115482 
L 370.152591 87.679997 
L 370.598265 87.243164 
L 371.043939 86.804982 
L 371.489613 86.365452 
L 371.935287 85.924574 
L 372.380961 85.482348 
L 372.826635 85.038774 
L 373.272309 84.593851 
L 373.717984 84.14758 
L 374.163658 83.69996 
L 374.609332 83.250993 
L 374.609332 82.349007 
L 374.609332 82.349007 
L 374.163658 81.90004 
L 373.717984 81.45242 
L 373.272309 81.006149 
L 372.826635 80.561226 
L 372.380961 80.117652 
L 371.935287 79.675426 
L 371.489613 79.234548 
L 371.043939 78.795018 
L 370.598265 78.356836 
L 370.152591 77.920003 
L 369.706917 77.484518 
L 369.261243 77.050381 
L 368.815569 76.617593 
L 368.369894 76.186152 
L 367.92422 75.75606 
L 367.478546 75.327317 
L 367.032872 74.899921 
L 366.587198 74.473874 
L 366.141524 74.049175 
L 365.69585 73.625824 
L 365.250176 73.203821 
L 364.804502 72.783167 
L 364.358828 72.363861 
L 363.913154 71.945903 
L 363.467479 71.529294 
L 363.021805 71.114033 
L 362.576131 70.70012 
L 362.130457 70.287555 
L 361.684783 69.876338 
L 361.239109 69.46647 
L 360.793435 69.05795 
L 360.347761 68.650778 
L 359.902087 68.244955 
L 359.456413 67.84048 
L 359.010739 67.437353 
L 358.565064 67.035574 
L 358.11939 66.635143 
L 357.673716 66.236061 
L 357.228042 65.838327 
L 356.782368 65.441941 
L 356.336694 65.046904 
L 355.89102 64.653215 
L 355.445346 64.260874 
L 354.999672 63.869881 
L 354.553998 63.480236 
L 354.108324 63.09194 
L 353.662649 62.704992 
L 353.216975 62.319392 
L 352.771301 61.935141 
L 352.325627 61.552238 
L 351.879953 61.170683 
L 351.434279 60.790476 
L 350.988605 60.411617 
L 350.542931 60.034107 
L 350.097257 59.657945 
L 349.651583 59.283131 
L 349.205909 58.909666 
L 348.760234 58.537549 
L 348.31456 58.16678 
L 347.868886 57.797359 
L 347.423212 57.429286 
L 346.977538 57.062562 
L 346.531864 56.697186 
L 346.08619 56.333158 
L 345.640516 55.970479 
L 345.194842 55.609148 
L 344.749168 55.249165 
L 344.303494 54.89053 
L 343.857819 54.533244 
L 343.412145 54.177305 
L 342.966471 53.822715 
L 342.520797 53.469474 
L 342.075123 53.11758 
L 341.629449 52.767035 
L 341.183775 52.417838 
L 340.738101 52.069989 
L 340.292427 51.723489 
L 339.846753 51.378337 
L 339.401079 51.034533 
L 338.955404 50.692077 
L 338.50973 50.350969 
L 338.064056 50.01121 
L 337.618382 49.672799 
L 337.172708 49.335737 
L 336.727034 49.000022 
L 336.28136 48.665656 
L 335.835686 48.332638 
L 335.390012 48.000968 
L 334.944338 47.670647 
L 334.498664 47.341674 
L 334.052989 47.014049 
L 333.607315 46.687772 
L 333.161641 46.362843 
L 332.715967 46.039263 
L 332.270293 45.717031 
L 331.824619 45.396148 
L 331.378945 45.076612 
L 330.933271 44.758425 
L 330.487597 44.441586 
L 330.041923 44.126095 
L 329.596249 43.811953 
L 329.150574 43.499159 
L 328.7049 43.187713 
L 328.259226 42.877615 
L 327.813552 42.568865 
L 327.367878 42.261464 
L 326.922204 41.955411 
L 326.47653 41.650707 
L 326.030856 41.34735 
L 325.585182 41.045342 
L 325.139508 40.744682 
L 324.693834 40.44537 
L 324.248159 40.147407 
L 323.802485 39.850792 
L 323.356811 39.555525 
L 322.911137 39.261606 
L 322.465463 38.969036 
L 322.019789 38.677814 
L 321.574115 38.38794 
L 321.128441 38.099414 
L 320.682767 37.812236 
L 320.237093 37.526407 
L 319.791419 37.241926 
L 319.345744 36.958794 
L 318.90007 36.677009 
L 318.454396 36.396573 
L 318.008722 36.117485 
L 317.563048 35.839745 
L 317.117374 35.563354 
L 316.6717 35.288311 
L 316.226026 35.014616 
L 315.780352 34.742269 
L 315.334678 34.471271 
L 314.889004 34.201621 
L 314.443329 33.933319 
L 313.997655 33.666365 
L 313.551981 33.40076 
L 313.106307 33.136502 
L 312.660633 32.873594 
L 312.214959 32.612033 
L 311.769285 32.35182 
L 311.323611 32.092956 
L 310.877937 31.83544 
L 310.432263 31.579273 
L 309.986589 31.324453 
L 309.540914 31.070982 
L 309.09524 30.818859 
L 308.649566 30.568085 
L 308.203892 30.318658 
L 307.758218 30.07058 
L 307.312544 29.82385 
L 306.86687 29.578468 
L 306.421196 29.334435 
L 305.975522 29.09175 
L 305.529848 28.850413 
L 305.084174 28.610424 
L 304.638499 28.371784 
L 304.192825 28.134492 
L 303.747151 27.898548 
L 303.301477 27.663952 
L 302.855803 27.430705 
L 302.410129 27.198806 
L 301.964455 26.968255 
L 301.518781 26.739052 
L 301.073107 26.511198 
L 300.627433 26.284692 
L 300.181758 26.059534 
L 299.736084 25.835724 
L 299.29041 25.613263 
L 298.844736 25.39215 
L 298.399062 25.172385 
L 297.953388 24.953968 
L 297.507714 24.7369 
L 297.06204 24.521179 
L 296.616366 24.306808 
L 296.170692 24.093784 
L 295.725018 23.882109 
L 295.279343 23.671781 
L 294.833669 23.462803 
L 294.387995 23.255172 
L 293.942321 23.04889 
L 293.496647 22.843955 
L 293.050973 22.64037 
L 292.605299 22.438132 
L 292.159625 22.237243 
L 291.713951 22.037701 
L 291.268277 21.839509 
L 290.822603 21.642664 
L 290.376928 21.447168 
L 289.931254 21.253019 
L 289.48558 21.06022 
L 289.039906 20.868768 
L 288.594232 20.678665 
L 288.148558 20.489909 
L 287.702884 20.302503 
L 287.25721 20.116444 
L 286.811536 19.931734 
L 286.365862 19.748371 
L 285.920188 19.566358 
L 285.474513 19.385692 
L 285.028839 19.206375 
L 284.583165 19.028405 
L 284.137491 18.851785 
L 283.691817 18.676512 
L 283.246143 18.502588 
L 282.800469 18.330012 
L 282.354795 18.158784 
L 281.909121 17.988904 
L 281.463447 17.820373 
L 281.017773 17.65319 
L 280.572098 17.487355 
L 280.126424 17.322868 
L 279.68075 17.15973 
L 279.235076 16.99794 
L 278.789402 16.837498 
L 278.343728 16.678404 
L 277.898054 16.520659 
L 277.45238 16.364262 
L 277.006706 16.209213 
L 276.561032 16.055512 
L 276.115358 15.90316 
L 275.669683 15.752156 
L 275.224009 15.6025 
L 274.778335 15.454192 
L 274.332661 15.307233 
L 273.886987 15.161622 
L 273.441313 15.017359 
L 272.995639 14.874445 
L 272.549965 14.732878 
L 272.104291 14.59266 
L 271.658617 14.45379 
L 271.212943 14.316269 
L 270.767268 14.180095 
L 270.321594 14.04527 
L 269.87592 13.911793 
L 269.430246 13.779665 
L 268.984572 13.648885 
L 268.538898 13.519452 
L 268.093224 13.391369 
L 267.64755 13.264633 
L 267.201876 13.139246 
L 266.756202 13.015207 
L 266.310528 12.892516 
L 265.864853 12.771173 
L 265.419179 12.651179 
L 264.973505 12.532533 
L 264.527831 12.415235 
L 264.082157 12.299285 
L 263.636483 12.184684 
L 263.190809 12.071431 
L 262.745135 11.959526 
L 262.299461 11.84897 
L 261.853787 11.739761 
L 261.408113 11.631901 
L 260.962438 11.525389 
L 260.516764 11.420226 
L 260.07109 11.316411 
L 259.625416 11.213944 
L 259.179742 11.112825 
L 258.734068 11.013054 
L 258.288394 10.914632 
L 257.84272 10.817558 
L 257.397046 10.721832 
L 256.951372 10.627454 
L 256.505698 10.534425 
L 256.060023 10.442744 
L 255.614349 10.352411 
L 255.168675 10.263427 
L 254.723001 10.17579 
L 254.277327 10.089502 
L 253.831653 10.004562 
L 253.385979 9.920971 
L 252.940305 9.838728 
L 252.494631 9.757833 
L 252.048957 9.678286 
L 251.603283 9.600087 
L 251.157608 9.523237 
L 250.711934 9.447735 
L 250.26626 9.373581 
L 249.820586 9.300776 
L 249.374912 9.229318 
L 248.929238 9.159209 
L 248.483564 9.090448 
L 248.03789 9.023036 
L 247.592216 8.956972 
L 247.146542 8.892256 
L 246.700868 8.828888 
L 246.255193 8.766868 
L 245.809519 8.706197 
L 245.363845 8.646874 
L 244.918171 8.588899 
L 244.472497 8.532273 
L 244.026823 8.476994 
L 243.581149 8.423064 
L 243.135475 8.370482 
L 242.689801 8.319249 
L 242.244127 8.269364 
L 241.798453 8.220827 
L 241.352778 8.173638 
L 240.907104 8.127797 
L 240.46143 8.083305 
L 240.015756 8.040161 
L 239.570082 7.998365 
L 239.124408 7.957918 
L 238.678734 7.918818 
L 238.23306 7.881067 
L 237.787386 7.844665 
z
" style="fill:#0000ff;fill-opacity:0.1;stroke:#0000ff;stroke-opacity:0.1;"/>
   </g>
   <g id="matplotlib.axis_1">
    <g id="xtick_1">
     <g id="line2d_1">
      <defs>
       <path d="M 0 0 
L 0 3.5 
" id="m366683b971" style="stroke:#000000;stroke-width:0.8;"/>
      </defs>
      <g>
       <use style="stroke:#000000;stroke-width:0.8;" x="69.099742" xlink:href="#m366683b971" y="162"/>
      </g>
     </g>
     <g id="text_1">
      <!-- 1960 -->
      <g transform="translate(56.374742 176.598438)scale(0.1 -0.1)">
       <defs>
        <path d="M 794 531 
L 1825 531 
L 1825 4091 
L 703 3866 
L 703 4441 
L 1819 4666 
L 2450 4666 
L 2450 531 
L 3481 531 
L 3481 0 
L 794 0 
L 794 531 
z
" id="DejaVuSans-31" transform="scale(0.015625)"/>
        <path d="M 703 97 
L 703 672 
Q 941 559 1184 500 
Q 1428 441 1663 441 
Q 2288 441 2617 861 
Q 2947 1281 2994 2138 
Q 2813 1869 2534 1725 
Q 2256 1581 1919 1581 
Q 1219 1581 811 2004 
Q 403 2428 403 3163 
Q 403 3881 828 4315 
Q 1253 4750 1959 4750 
Q 2769 4750 3195 4129 
Q 3622 3509 3622 2328 
Q 3622 1225 3098 567 
Q 2575 -91 1691 -91 
Q 1453 -91 1209 -44 
Q 966 3 703 97 
z
M 1959 2075 
Q 2384 2075 2632 2365 
Q 2881 2656 2881 3163 
Q 2881 3666 2632 3958 
Q 2384 4250 1959 4250 
Q 1534 4250 1286 3958 
Q 1038 3666 1038 3163 
Q 1038 2656 1286 2365 
Q 1534 2075 1959 2075 
z
" id="DejaVuSans-39" transform="scale(0.015625)"/>
        <path d="M 2113 2584 
Q 1688 2584 1439 2293 
Q 1191 2003 1191 1497 
Q 1191 994 1439 701 
Q 1688 409 2113 409 
Q 2538 409 2786 701 
Q 3034 994 3034 1497 
Q 3034 2003 2786 2293 
Q 2538 2584 2113 2584 
z
M 3366 4563 
L 3366 3988 
Q 3128 4100 2886 4159 
Q 2644 4219 2406 4219 
Q 1781 4219 1451 3797 
Q 1122 3375 1075 2522 
Q 1259 2794 1537 2939 
Q 1816 3084 2150 3084 
Q 2853 3084 3261 2657 
Q 3669 2231 3669 1497 
Q 3669 778 3244 343 
Q 2819 -91 2113 -91 
Q 1303 -91 875 529 
Q 447 1150 447 2328 
Q 447 3434 972 4092 
Q 1497 4750 2381 4750 
Q 2619 4750 2861 4703 
Q 3103 4656 3366 4563 
z
" id="DejaVuSans-36" transform="scale(0.015625)"/>
        <path d="M 2034 4250 
Q 1547 4250 1301 3770 
Q 1056 3291 1056 2328 
Q 1056 1369 1301 889 
Q 1547 409 2034 409 
Q 2525 409 2770 889 
Q 3016 1369 3016 2328 
Q 3016 3291 2770 3770 
Q 2525 4250 2034 4250 
z
M 2034 4750 
Q 2819 4750 3233 4129 
Q 3647 3509 3647 2328 
Q 3647 1150 3233 529 
Q 2819 -91 2034 -91 
Q 1250 -91 836 529 
Q 422 1150 422 2328 
Q 422 3509 836 4129 
Q 1250 4750 2034 4750 
z
" id="DejaVuSans-30" transform="scale(0.015625)"/>
       </defs>
       <use xlink:href="#DejaVuSans-31"/>
       <use x="63.623047" xlink:href="#DejaVuSans-39"/>
       <use x="127.246094" xlink:href="#DejaVuSans-36"/>
       <use x="190.869141" xlink:href="#DejaVuSans-30"/>
      </g>
     </g>
    </g>
    <g id="xtick_2">
     <g id="line2d_2">
      <g>
       <use style="stroke:#000000;stroke-width:0.8;" x="122.580633" xlink:href="#m366683b971" y="162"/>
      </g>
     </g>
     <g id="text_2">
      <!-- 1970 -->
      <g transform="translate(109.855633 176.598438)scale(0.1 -0.1)">
       <defs>
        <path d="M 525 4666 
L 3525 4666 
L 3525 4397 
L 1831 0 
L 1172 0 
L 2766 4134 
L 525 4134 
L 525 4666 
z
" id="DejaVuSans-37" transform="scale(0.015625)"/>
       </defs>
       <use xlink:href="#DejaVuSans-31"/>
       <use x="63.623047" xlink:href="#DejaVuSans-39"/>
       <use x="127.246094" xlink:href="#DejaVuSans-37"/>
       <use x="190.869141" xlink:href="#DejaVuSans-30"/>
      </g>
     </g>
    </g>
    <g id="xtick_3">
     <g id="line2d_3">
      <g>
       <use style="stroke:#000000;stroke-width:0.8;" x="176.061524" xlink:href="#m366683b971" y="162"/>
      </g>
     </g>
     <g id="text_3">
      <!-- 1980 -->
      <g transform="translate(163.336524 176.598438)scale(0.1 -0.1)">
       <defs>
        <path d="M 2034 2216 
Q 1584 2216 1326 1975 
Q 1069 1734 1069 1313 
Q 1069 891 1326 650 
Q 1584 409 2034 409 
Q 2484 409 2743 651 
Q 3003 894 3003 1313 
Q 3003 1734 2745 1975 
Q 2488 2216 2034 2216 
z
M 1403 2484 
Q 997 2584 770 2862 
Q 544 3141 544 3541 
Q 544 4100 942 4425 
Q 1341 4750 2034 4750 
Q 2731 4750 3128 4425 
Q 3525 4100 3525 3541 
Q 3525 3141 3298 2862 
Q 3072 2584 2669 2484 
Q 3125 2378 3379 2068 
Q 3634 1759 3634 1313 
Q 3634 634 3220 271 
Q 2806 -91 2034 -91 
Q 1263 -91 848 271 
Q 434 634 434 1313 
Q 434 1759 690 2068 
Q 947 2378 1403 2484 
z
M 1172 3481 
Q 1172 3119 1398 2916 
Q 1625 2713 2034 2713 
Q 2441 2713 2670 2916 
Q 2900 3119 2900 3481 
Q 2900 3844 2670 4047 
Q 2441 4250 2034 4250 
Q 1625 4250 1398 4047 
Q 1172 3844 1172 3481 
z
" id="DejaVuSans-38" transform="scale(0.015625)"/>
       </defs>
       <use xlink:href="#DejaVuSans-31"/>
       <use x="63.623047" xlink:href="#DejaVuSans-39"/>
       <use x="127.246094" xlink:href="#DejaVuSans-38"/>
       <use x="190.869141" xlink:href="#DejaVuSans-30"/>
      </g>
     </g>
    </g>
    <g id="xtick_4">
     <g id="line2d_4">
      <g>
       <use style="stroke:#000000;stroke-width:0.8;" x="229.542415" xlink:href="#m366683b971" y="162"/>
      </g>
     </g>
     <g id="text_4">
      <!-- 1990 -->
      <g transform="translate(216.817415 176.598438)scale(0.1 -0.1)">
       <use xlink:href="#DejaVuSans-31"/>
       <use x="63.623047" xlink:href="#DejaVuSans-39"/>
       <use x="127.246094" xlink:href="#DejaVuSans-39"/>
       <use x="190.869141" xlink:href="#DejaVuSans-30"/>
      </g>
     </g>
    </g>
    <g id="xtick_5">
     <g id="line2d_5">
      <g>
       <use style="stroke:#000000;stroke-width:0.8;" x="283.023306" xlink:href="#m366683b971" y="162"/>
      </g>
     </g>
     <g id="text_5">
      <!-- 2000 -->
      <g transform="translate(270.298306 176.598438)scale(0.1 -0.1)">
       <defs>
        <path d="M 1228 531 
L 3431 531 
L 3431 0 
L 469 0 
L 469 531 
Q 828 903 1448 1529 
Q 2069 2156 2228 2338 
Q 2531 2678 2651 2914 
Q 2772 3150 2772 3378 
Q 2772 3750 2511 3984 
Q 2250 4219 1831 4219 
Q 1534 4219 1204 4116 
Q 875 4013 500 3803 
L 500 4441 
Q 881 4594 1212 4672 
Q 1544 4750 1819 4750 
Q 2544 4750 2975 4387 
Q 3406 4025 3406 3419 
Q 3406 3131 3298 2873 
Q 3191 2616 2906 2266 
Q 2828 2175 2409 1742 
Q 1991 1309 1228 531 
z
" id="DejaVuSans-32" transform="scale(0.015625)"/>
       </defs>
       <use xlink:href="#DejaVuSans-32"/>
       <use x="63.623047" xlink:href="#DejaVuSans-30"/>
       <use x="127.246094" xlink:href="#DejaVuSans-30"/>
       <use x="190.869141" xlink:href="#DejaVuSans-30"/>
      </g>
     </g>
    </g>
    <g id="xtick_6">
     <g id="line2d_6">
      <g>
       <use style="stroke:#000000;stroke-width:0.8;" x="336.504197" xlink:href="#m366683b971" y="162"/>
      </g>
     </g>
     <g id="text_6">
      <!-- 2010 -->
      <g transform="translate(323.779197 176.598438)scale(0.1 -0.1)">
       <use xlink:href="#DejaVuSans-32"/>
       <use x="63.623047" xlink:href="#DejaVuSans-30"/>
       <use x="127.246094" xlink:href="#DejaVuSans-31"/>
       <use x="190.869141" xlink:href="#DejaVuSans-30"/>
      </g>
     </g>
    </g>
    <g id="xtick_7">
     <g id="line2d_7">
      <g>
       <use style="stroke:#000000;stroke-width:0.8;" x="389.985088" xlink:href="#m366683b971" y="162"/>
      </g>
     </g>
     <g id="text_7">
      <!-- 2020 -->
      <g transform="translate(377.260088 176.598438)scale(0.1 -0.1)">
       <use xlink:href="#DejaVuSans-32"/>
       <use x="63.623047" xlink:href="#DejaVuSans-30"/>
       <use x="127.246094" xlink:href="#DejaVuSans-32"/>
       <use x="190.869141" xlink:href="#DejaVuSans-30"/>
      </g>
     </g>
    </g>
   </g>
   <g id="matplotlib.axis_2">
    <g id="ytick_1">
     <g id="line2d_8">
      <defs>
       <path d="M 0 0 
L -3.5 0 
" id="m54c001a31e" style="stroke:#000000;stroke-width:0.8;"/>
      </defs>
      <g>
       <use style="stroke:#000000;stroke-width:0.8;" x="34.56" xlink:href="#m54c001a31e" y="151.15627"/>
      </g>
     </g>
     <g id="text_8">
      <!-- −75 -->
      <g transform="translate(6.455313 154.955488)scale(0.1 -0.1)">
       <defs>
        <path d="M 678 2272 
L 4684 2272 
L 4684 1741 
L 678 1741 
L 678 2272 
z
" id="DejaVuSans-2212" transform="scale(0.015625)"/>
        <path d="M 691 4666 
L 3169 4666 
L 3169 4134 
L 1269 4134 
L 1269 2991 
Q 1406 3038 1543 3061 
Q 1681 3084 1819 3084 
Q 2600 3084 3056 2656 
Q 3513 2228 3513 1497 
Q 3513 744 3044 326 
Q 2575 -91 1722 -91 
Q 1428 -91 1123 -41 
Q 819 9 494 109 
L 494 744 
Q 775 591 1075 516 
Q 1375 441 1709 441 
Q 2250 441 2565 725 
Q 2881 1009 2881 1497 
Q 2881 1984 2565 2268 
Q 2250 2553 1709 2553 
Q 1456 2553 1204 2497 
Q 953 2441 691 2322 
L 691 4666 
z
" id="DejaVuSans-35" transform="scale(0.015625)"/>
       </defs>
       <use xlink:href="#DejaVuSans-2212"/>
       <use x="83.789062" xlink:href="#DejaVuSans-37"/>
       <use x="147.412109" xlink:href="#DejaVuSans-35"/>
      </g>
     </g>
    </g>
    <g id="ytick_2">
     <g id="line2d_9">
      <g>
       <use style="stroke:#000000;stroke-width:0.8;" x="34.56" xlink:href="#m54c001a31e" y="128.370846"/>
      </g>
     </g>
     <g id="text_9">
      <!-- −50 -->
      <g transform="translate(6.455313 132.170065)scale(0.1 -0.1)">
       <use xlink:href="#DejaVuSans-2212"/>
       <use x="83.789062" xlink:href="#DejaVuSans-35"/>
       <use x="147.412109" xlink:href="#DejaVuSans-30"/>
      </g>
     </g>
    </g>
    <g id="ytick_3">
     <g id="line2d_10">
      <g>
       <use style="stroke:#000000;stroke-width:0.8;" x="34.56" xlink:href="#m54c001a31e" y="105.585423"/>
      </g>
     </g>
     <g id="text_10">
      <!-- −25 -->
      <g transform="translate(6.455313 109.384642)scale(0.1 -0.1)">
       <use xlink:href="#DejaVuSans-2212"/>
       <use x="83.789062" xlink:href="#DejaVuSans-32"/>
       <use x="147.412109" xlink:href="#DejaVuSans-35"/>
      </g>
     </g>
    </g>
    <g id="ytick_4">
     <g id="line2d_11">
      <g>
       <use style="stroke:#000000;stroke-width:0.8;" x="34.56" xlink:href="#m54c001a31e" y="82.8"/>
      </g>
     </g>
     <g id="text_11">
      <!-- 0 -->
      <g transform="translate(21.1975 86.599219)scale(0.1 -0.1)">
       <use xlink:href="#DejaVuSans-30"/>
      </g>
     </g>
    </g>
    <g id="ytick_5">
     <g id="line2d_12">
      <g>
       <use style="stroke:#000000;stroke-width:0.8;" x="34.56" xlink:href="#m54c001a31e" y="60.014577"/>
      </g>
     </g>
     <g id="text_12">
      <!-- 25 -->
      <g transform="translate(14.835 63.813796)scale(0.1 -0.1)">
       <use xlink:href="#DejaVuSans-32"/>
       <use x="63.623047" xlink:href="#DejaVuSans-35"/>
      </g>
     </g>
    </g>
    <g id="ytick_6">
     <g id="line2d_13">
      <g>
       <use style="stroke:#000000;stroke-width:0.8;" x="34.56" xlink:href="#m54c001a31e" y="37.229154"/>
      </g>
     </g>
     <g id="text_13">
      <!-- 50 -->
      <g transform="translate(14.835 41.028372)scale(0.1 -0.1)">
       <use xlink:href="#DejaVuSans-35"/>
       <use x="63.623047" xlink:href="#DejaVuSans-30"/>
      </g>
     </g>
    </g>
    <g id="ytick_7">
     <g id="line2d_14">
      <g>
       <use style="stroke:#000000;stroke-width:0.8;" x="34.56" xlink:href="#m54c001a31e" y="14.44373"/>
      </g>
     </g>
     <g id="text_14">
      <!-- 75 -->
      <g transform="translate(14.835 18.242949)scale(0.1 -0.1)">
       <use xlink:href="#DejaVuSans-37"/>
       <use x="63.623047" xlink:href="#DejaVuSans-35"/>
      </g>
     </g>
    </g>
   </g>
   <g id="line2d_15">
    <path clip-path="url(#pfd999ea657)" d="M 74.670668 82.959361 
L 75.562016 83.195351 
L 76.007691 83.59766 
L 78.236061 84.858041 
L 78.681735 85.275767 
L 79.127409 85.245877 
L 79.573083 85.473888 
L 80.464431 85.533745 
L 81.801454 86.442432 
L 82.247128 86.958993 
L 82.692802 87.139952 
L 83.58415 87.847132 
L 85.366846 87.932715 
L 85.812521 87.82934 
L 86.703869 88.025369 
L 87.149543 87.894111 
L 87.595217 87.893538 
L 88.040891 88.173539 
L 90.269261 87.899489 
L 90.714936 87.738467 
L 91.16061 87.806586 
L 91.606284 87.644503 
L 92.943306 87.732109 
L 93.38898 87.790563 
L 95.617351 87.416495 
L 96.508699 87.505293 
L 96.954373 87.469765 
L 98.291395 86.947088 
L 98.737069 86.896513 
L 99.628417 87.015017 
L 100.074091 86.807621 
L 101.411114 86.626822 
L 101.856788 86.756385 
L 102.748136 86.695203 
L 103.19381 86.946376 
L 104.085158 86.96817 
L 104.976506 86.844373 
L 105.422181 86.899509 
L 106.313529 86.850457 
L 108.541899 87.452792 
L 108.987573 87.443564 
L 109.433247 87.583549 
L 110.324596 87.411828 
L 111.215944 87.598049 
L 111.661618 87.502084 
L 112.552966 87.758913 
L 112.99864 87.772095 
L 113.444314 88.109118 
L 114.781336 88.370055 
L 115.672685 88.212758 
L 116.118359 88.347886 
L 117.009707 88.358378 
L 117.455381 88.766623 
L 118.792403 88.841915 
L 119.683751 89.042234 
L 120.5751 89.19309 
L 122.80347 89.434083 
L 123.249144 89.784325 
L 124.140492 89.996616 
L 126.814537 90.380363 
L 127.260211 90.580871 
L 127.705885 90.532177 
L 128.597233 90.792992 
L 129.488581 91.289525 
L 129.934256 91.387255 
L 130.37993 91.226352 
L 130.825604 91.473768 
L 132.162626 91.698436 
L 132.6083 91.801194 
L 133.053974 91.734783 
L 133.499648 91.826125 
L 134.390996 92.287349 
L 134.836671 92.382829 
L 135.728019 92.256417 
L 137.065041 92.272606 
L 137.510715 92.36674 
L 137.956389 92.296066 
L 140.630434 92.873041 
L 142.41313 93.293588 
L 143.750152 93.152188 
L 144.195826 93.541777 
L 144.641501 93.716019 
L 145.532849 94.637904 
L 147.315545 95.593402 
L 148.652567 96.176455 
L 150.435264 96.25422 
L 152.21796 96.769036 
L 153.109308 96.885249 
L 154.000657 96.8721 
L 155.337679 97.164521 
L 155.783353 97.298424 
L 157.120375 98.134073 
L 157.566049 98.320478 
L 158.011723 98.334135 
L 158.457397 98.513939 
L 158.903072 98.502781 
L 161.131442 99.112848 
L 161.577116 99.141671 
L 162.468464 98.694783 
L 163.805487 97.9238 
L 164.696835 97.736022 
L 166.033857 97.369759 
L 166.479531 97.24552 
L 170.490598 95.063954 
L 170.936272 95.39558 
L 172.273294 95.17309 
L 173.164642 94.904535 
L 174.501665 94.243655 
L 176.284361 94.251362 
L 177.621383 94.661522 
L 178.512732 94.525111 
L 178.958406 94.234541 
L 180.295428 94.015263 
L 181.186776 93.725982 
L 181.63245 93.709392 
L 182.969472 93.364604 
L 183.415147 93.396688 
L 186.089191 92.559327 
L 186.534865 92.815605 
L 187.426213 92.968343 
L 189.654584 92.234045 
L 190.991606 91.472015 
L 192.328628 91.4642 
L 192.774302 91.638306 
L 194.556999 90.997493 
L 195.002673 90.822839 
L 195.894021 90.180493 
L 196.339695 89.934559 
L 198.122392 89.91501 
L 199.905088 89.232021 
L 200.350762 89.132926 
L 201.24211 88.59475 
L 201.687784 88.400895 
L 202.579132 88.895917 
L 203.470481 89.072972 
L 203.916155 89.068268 
L 204.361829 88.812748 
L 205.253177 87.833358 
L 205.698851 87.560121 
L 207.035873 86.451916 
L 207.927222 86.435298 
L 208.372896 86.425365 
L 211.04694 85.587615 
L 211.938288 85.070833 
L 212.829637 84.357324 
L 213.275311 84.282446 
L 214.612333 83.573806 
L 215.058007 83.500937 
L 215.949355 82.86011 
L 216.395029 82.647084 
L 217.286377 81.814816 
L 218.177726 81.683761 
L 219.069074 81.880975 
L 219.960422 81.702602 
L 220.406096 81.834076 
L 224.417163 81.877813 
L 224.862837 81.771159 
L 230.6566 83.565955 
L 231.102274 83.748024 
L 231.547948 84.248 
L 233.776319 85.551079 
L 234.667667 85.81289 
M 237.787386 86.2051 
L 238.678734 86.786586 
L 239.124408 87.148702 
L 240.015756 87.099392 
L 241.352778 86.80803 
L 242.244127 87.056728 
L 242.689801 87.321744 
L 243.135475 87.33259 
L 244.026823 87.073049 
L 244.918171 86.934942 
L 245.363845 86.796337 
L 246.255193 86.36706 
L 246.700868 86.14126 
L 248.03789 85.994915 
L 249.374912 85.576295 
L 249.820586 85.316566 
L 252.048957 84.667685 
L 253.385979 84.750554 
L 253.831653 85.004199 
L 254.277327 85.097934 
L 254.723001 84.875934 
L 256.060023 84.802756 
L 256.951372 84.438838 
L 257.84272 84.0235 
L 263.190809 84.587603 
L 263.636483 84.424773 
L 264.082157 84.044752 
L 266.310528 83.62575 
L 268.984572 82.822715 
L 270.767268 83.037892 
L 272.549965 83.278795 
L 273.886987 82.852411 
L 276.115358 82.524501 
L 276.561032 82.226357 
L 277.006706 82.243392 
L 278.343728 81.915354 
L 279.235076 81.953119 
L 280.572098 82.593146 
L 281.463447 83.364069 
L 282.800469 83.552712 
L 284.137491 83.45075 
L 284.583165 83.574858 
L 285.474513 84.176668 
L 285.920188 84.15905 
L 286.365862 84.436891 
L 287.25721 84.58326 
L 287.702884 84.822309 
L 289.48558 85.153254 
L 289.931254 85.021586 
L 290.376928 85.021173 
L 290.822603 84.7875 
L 291.268277 84.702858 
L 291.713951 84.790415 
L 293.050973 84.716988 
L 293.496647 84.804229 
L 293.942321 84.543695 
L 294.833669 84.386195 
L 295.279343 84.196257 
L 296.616366 84.139394 
L 297.953388 84.610582 
L 298.399062 84.736098 
L 299.29041 84.682783 
L 300.181758 84.830477 
L 300.627433 84.565253 
L 301.518781 84.950876 
L 301.964455 84.878289 
L 302.410129 85.073249 
L 303.301477 85.824917 
L 304.192825 86.149386 
L 304.638499 86.148638 
L 305.084174 86.278609 
L 306.86687 86.313117 
L 307.312544 86.135308 
L 308.649566 86.242848 
L 310.432263 85.675631 
L 310.877937 85.480544 
L 311.323611 85.477398 
L 311.769285 85.357196 
L 312.660633 85.336686 
L 313.106307 85.252531 
L 314.889004 85.425406 
L 315.780352 85.218511 
L 317.117374 84.748063 
L 317.563048 84.799775 
L 318.008722 85.090831 
L 318.454396 84.851293 
L 319.345744 84.843777 
L 319.791419 84.962554 
L 320.682767 84.69289 
L 321.128441 84.788415 
L 321.574115 84.547922 
L 322.465463 84.390545 
L 323.802485 83.657589 
L 327.367878 82.811305 
L 328.259226 82.82324 
L 330.487597 82.280052 
L 331.378945 82.214826 
L 334.052989 81.855983 
L 334.944338 82.262758 
L 335.835686 82.401973 
L 336.28136 82.554599 
L 338.064056 82.587576 
L 338.50973 82.516547 
L 339.401079 82.671858 
L 340.292427 82.321051 
L 343.857819 82.197549 
L 344.303494 82.215633 
L 345.194842 81.92288 
L 347.868886 82.060874 
L 349.651583 82.179676 
L 350.097257 82.075758 
L 352.325627 82.721298 
L 354.999672 81.998833 
L 356.782368 82.1123 
L 357.673716 81.848485 
L 358.11939 81.854734 
L 358.565064 82.018687 
L 359.456413 82.024811 
L 359.902087 81.926582 
L 361.239109 82.154195 
L 362.130457 82.084086 
L 362.576131 82.138671 
L 363.467479 81.850905 
L 366.141524 81.527737 
L 366.587198 81.733443 
L 367.032872 82.077955 
L 367.92422 82.390369 
L 369.261243 82.318235 
L 369.706917 82.467219 
L 371.489613 82.693882 
L 371.935287 82.903802 
L 372.380961 83.324463 
L 372.826635 83.178286 
L 373.272309 83.159485 
L 374.163658 82.678801 
L 374.609332 82.8 
L 374.609332 82.8 
" style="fill:none;stroke:#1f77b4;stroke-linecap:square;stroke-width:1.5;"/>
   </g>
   <g id="line2d_16">
    <path clip-path="url(#pfd999ea657)" d="M 34.56 82.8 
L 414.72 82.8 
" style="fill:none;stroke:#000000;stroke-dasharray:1.5,2.475;stroke-dashoffset:0;stroke-width:1.5;"/>
   </g>
   <g id="patch_3">
    <path d="M 34.56 162 
L 34.56 3.6 
" style="fill:none;stroke:#000000;stroke-linecap:square;stroke-linejoin:miter;stroke-width:0.8;"/>
   </g>
   <g id="patch_4">
    <path d="M 414.72 162 
L 414.72 3.6 
" style="fill:none;stroke:#000000;stroke-linecap:square;stroke-linejoin:miter;stroke-width:0.8;"/>
   </g>
   <g id="patch_5">
    <path d="M 34.56 162 
L 414.72 162 
" style="fill:none;stroke:#000000;stroke-linecap:square;stroke-linejoin:miter;stroke-width:0.8;"/>
   </g>
   <g id="patch_6">
    <path d="M 34.56 3.6 
L 414.72 3.6 
" style="fill:none;stroke:#000000;stroke-linecap:square;stroke-linejoin:miter;stroke-width:0.8;"/>
   </g>
  </g>
 </g>
 <defs>
  <clipPath id="pfd999ea657">
   <rect height="158.4" width="380.16" x="34.56" y="3.6"/>
  </clipPath>
 </defs>
</svg>
