<?xml version="1.0" encoding="utf-8" standalone="no"?>
<!DOCTYPE svg PUBLIC "-//W3C//DTD SVG 1.1//EN"
  "http://www.w3.org/Graphics/SVG/1.1/DTD/svg11.dtd">
<svg height="180pt" version="1.1" viewBox="0 0 432 180" width="432pt" xmlns="http://www.w3.org/2000/svg" xmlns:xlink="http://www.w3.org/1999/xlink">
 <metadata>
  <rdf:RDF xmlns:cc="http://creativecommons.org/ns#" xmlns:dc="http://purl.org/dc/elements/1.1/" xmlns:rdf="http://www.w3.org/1999/02/22-rdf-syntax-ns#">
   <cc:Work>
    <dc:type rdf:resource="http://purl.org/dc/dcmitype/StillImage"/>
    <dc:date>2021-08-12T10:41:47.543021</dc:date>
    <dc:format>image/svg+xml</dc:format>
    <dc:creator>
     <cc:Agent>
      <dc:title>Matplotlib v3.4.2, https://matplotlib.org/</dc:title>
     </cc:Agent>
    </dc:creator>
   </cc:Work>
  </rdf:RDF>
 </metadata>
 <defs>
  <style type="text/css">*{stroke-linecap:butt;stroke-linejoin:round;}</style>
 </defs>
 <g id="figure_1">
  <g id="patch_1">
   <path d="M 0 180 
L 432 180 
L 432 0 
L 0 0 
z
" style="fill:#ffffff;"/>
  </g>
  <g id="axes_1">
   <g id="patch_2">
    <path d="M 34.56 162 
L 414.72 162 
L 414.72 3.6 
L 34.56 3.6 
z
" style="fill:#ffffff;"/>
   </g>
   <g id="PolyCollection_1">
    <path clip-path="url(#p44995440f6)" d="M 68.070676 82.441243 
L 68.070676 83.158757 
L 68.443017 83.516232 
L 68.815357 83.872854 
L 69.187698 84.228623 
L 69.560039 84.583539 
L 69.93238 84.937601 
L 70.304721 85.290811 
L 70.677062 85.643167 
L 71.049403 85.99467 
L 71.421743 86.34532 
L 71.794084 86.695117 
L 72.166425 87.044061 
L 72.538766 87.392152 
L 72.911107 87.739389 
L 73.283448 88.085773 
L 73.655788 88.431304 
L 74.028129 88.775982 
L 74.40047 89.119807 
L 74.772811 89.462778 
L 75.145152 89.804897 
L 75.517493 90.146162 
L 75.889833 90.486574 
L 76.262174 90.826133 
L 76.634515 91.164838 
L 77.006856 91.502691 
L 77.379197 91.83969 
L 77.751538 92.175837 
L 78.123879 92.51113 
L 78.123879 73.08887 
L 78.123879 73.08887 
L 77.751538 73.424163 
L 77.379197 73.76031 
L 77.006856 74.097309 
L 76.634515 74.435162 
L 76.262174 74.773867 
L 75.889833 75.113426 
L 75.517493 75.453838 
L 75.145152 75.795103 
L 74.772811 76.137222 
L 74.40047 76.480193 
L 74.028129 76.824018 
L 73.655788 77.168696 
L 73.283448 77.514227 
L 72.911107 77.860611 
L 72.538766 78.207848 
L 72.166425 78.555939 
L 71.794084 78.904883 
L 71.421743 79.25468 
L 71.049403 79.60533 
L 70.677062 79.956833 
L 70.304721 80.309189 
L 69.93238 80.662399 
L 69.560039 81.016461 
L 69.187698 81.371377 
L 68.815357 81.727146 
L 68.443017 82.083768 
L 68.070676 82.441243 
z
" style="fill:#0000ff;fill-opacity:0.1;stroke:#0000ff;stroke-opacity:0.1;"/>
    <path clip-path="url(#p44995440f6)" d="M 79.240901 72.75443 
L 79.240901 92.84557 
L 79.613242 93.179156 
L 79.985583 93.51189 
L 80.357924 93.84377 
L 80.730264 94.174798 
L 81.102605 94.504972 
L 81.474946 94.834293 
L 81.847287 95.16276 
L 82.219628 95.490375 
L 82.591969 95.817136 
L 82.96431 96.143045 
L 83.33665 96.4681 
L 83.708991 96.792302 
L 84.081332 97.115651 
L 84.453673 97.438146 
L 84.826014 97.759789 
L 85.198355 98.080578 
L 85.570695 98.400514 
L 85.943036 98.719597 
L 86.315377 99.037827 
L 86.687718 99.355204 
L 87.060059 99.671727 
L 87.4324 99.987397 
L 87.80474 100.302214 
L 88.177081 100.616178 
L 88.549422 100.929289 
L 88.921763 101.241547 
L 89.294104 101.552951 
L 89.666445 101.863503 
L 90.038786 102.173201 
L 90.411126 102.482046 
L 90.783467 102.790038 
L 91.155808 103.097177 
L 91.528149 103.403462 
L 91.90049 103.708894 
L 92.272831 104.013474 
L 92.645171 104.3172 
L 93.017512 104.620073 
L 93.389853 104.922092 
L 93.762194 105.223259 
L 94.134535 105.523572 
L 94.506876 105.823032 
L 94.879216 106.121639 
L 95.251557 106.419393 
L 95.623898 106.716294 
L 95.996239 107.012342 
L 96.36858 107.307536 
L 96.740921 107.601877 
L 97.113262 107.895365 
L 97.485602 108.188 
L 97.857943 108.479782 
L 98.230284 108.770711 
L 98.602625 109.060786 
L 98.974966 109.350008 
L 99.347307 109.638377 
L 99.719647 109.925893 
L 100.091988 110.212556 
L 100.464329 110.498366 
L 100.83667 110.783322 
L 101.209011 111.067426 
L 101.581352 111.350676 
L 101.953692 111.633073 
L 102.326033 111.914616 
L 102.698374 112.195307 
L 103.070715 112.475145 
L 103.443056 112.754129 
L 103.815397 113.03226 
L 104.187738 113.309538 
L 104.560078 113.585963 
L 104.932419 113.861534 
L 105.30476 114.136253 
L 105.677101 114.410118 
L 106.049442 114.68313 
L 106.421783 114.955289 
L 106.794123 115.226595 
L 107.166464 115.497048 
L 107.538805 115.766648 
L 107.911146 116.035394 
L 108.283487 116.303287 
L 108.655828 116.570327 
L 109.028168 116.836514 
L 109.400509 117.101848 
L 109.77285 117.366328 
L 110.145191 117.629956 
L 110.517532 117.89273 
L 110.889873 118.154651 
L 111.262214 118.415719 
L 111.634554 118.675933 
L 112.006895 118.935295 
L 112.379236 119.193803 
L 112.751577 119.451459 
L 113.123918 119.708261 
L 113.496259 119.96421 
L 113.868599 120.219305 
L 114.24094 120.473548 
L 114.613281 120.726937 
L 114.985622 120.979474 
L 115.357963 121.231157 
L 115.730304 121.481987 
L 116.102644 121.731963 
L 116.474985 121.981087 
L 116.847326 122.229357 
L 117.219667 122.476775 
L 117.592008 122.723339 
L 117.964349 122.96905 
L 118.33669 123.213908 
L 118.70903 123.457912 
L 119.081371 123.701064 
L 119.453712 123.943362 
L 119.826053 124.184807 
L 120.198394 124.425399 
L 120.570735 124.665138 
L 120.943075 124.904024 
L 121.315416 125.142056 
L 121.687757 125.379235 
L 122.060098 125.615562 
L 122.432439 125.851035 
L 122.80478 126.085654 
L 123.17712 126.319421 
L 123.549461 126.552335 
L 123.921802 126.784395 
L 124.294143 127.015602 
L 124.666484 127.245956 
L 125.038825 127.475457 
L 125.411166 127.704105 
L 125.783506 127.931899 
L 126.155847 128.158841 
L 126.528188 128.384929 
L 126.900529 128.610164 
L 127.27287 128.834546 
L 127.645211 129.058074 
L 128.017551 129.28075 
L 128.389892 129.502572 
L 128.762233 129.723541 
L 129.134574 129.943658 
L 129.506915 130.16292 
L 129.879256 130.38133 
L 130.251596 130.598887 
L 130.623937 130.81559 
L 130.996278 131.03144 
L 131.368619 131.246438 
L 131.74096 131.460581 
L 132.113301 131.673872 
L 132.485642 131.88631 
L 132.857982 132.097894 
L 133.230323 132.308625 
L 133.602664 132.518504 
L 133.975005 132.727529 
L 134.347346 132.9357 
L 134.719687 133.143019 
L 135.092027 133.349484 
L 135.464368 133.555097 
L 135.836709 133.759856 
L 136.20905 133.963762 
L 136.581391 134.166815 
L 136.953732 134.369014 
L 137.326072 134.570361 
L 137.698413 134.770854 
L 138.070754 134.970494 
L 138.443095 135.169281 
L 138.815436 135.367215 
L 139.187777 135.564296 
L 139.560118 135.760523 
L 139.932458 135.955897 
L 140.304799 136.150419 
L 140.67714 136.344087 
L 141.049481 136.536901 
L 141.421822 136.728863 
L 141.794163 136.919972 
L 142.166503 137.110227 
L 142.538844 137.299629 
L 142.911185 137.488178 
L 143.283526 137.675874 
L 143.655867 137.862717 
L 144.028208 138.048706 
L 144.400548 138.233843 
L 144.772889 138.418126 
L 145.14523 138.601556 
L 145.517571 138.784133 
L 145.889912 138.965857 
L 146.262253 139.146727 
L 146.634594 139.326745 
L 147.006934 139.505909 
L 147.379275 139.68422 
L 147.751616 139.861678 
L 148.123957 140.038283 
L 148.496298 140.214034 
L 148.868639 140.388933 
L 149.240979 140.562978 
L 149.61332 140.73617 
L 149.985661 140.908509 
L 150.358002 141.079995 
L 150.730343 141.250627 
L 151.102684 141.420407 
L 151.475024 141.589333 
L 151.847365 141.757406 
L 152.219706 141.924626 
L 152.592047 142.090993 
L 152.964388 142.256506 
L 153.336729 142.421167 
L 153.70907 142.584974 
L 154.08141 142.747928 
L 154.453751 142.910029 
L 154.826092 143.071277 
L 155.198433 143.231672 
L 155.570774 143.391213 
L 155.943115 143.549902 
L 156.315455 143.707737 
L 156.687796 143.864719 
L 157.060137 144.020848 
L 157.432478 144.176123 
L 157.804819 144.330546 
L 158.17716 144.484115 
L 158.5495 144.636831 
L 158.921841 144.788694 
L 159.294182 144.939704 
L 159.666523 145.089861 
L 160.038864 145.239164 
L 160.411205 145.387615 
L 160.783546 145.535212 
L 161.155886 145.681956 
L 161.528227 145.827847 
L 161.900568 145.972885 
L 162.272909 146.117069 
L 162.64525 146.2604 
L 163.017591 146.402879 
L 163.389931 146.544504 
L 163.762272 146.685276 
L 164.134613 146.825194 
L 164.506954 146.96426 
L 164.879295 147.102472 
L 165.251636 147.239832 
L 165.623976 147.376338 
L 165.996317 147.511991 
L 166.368658 147.64679 
L 166.740999 147.780737 
L 167.11334 147.91383 
L 167.485681 148.046071 
L 167.858022 148.177458 
L 168.230362 148.307992 
L 168.602703 148.437673 
L 168.975044 148.5665 
L 169.347385 148.694475 
L 169.719726 148.821596 
L 170.092067 148.947864 
L 170.464407 149.073279 
L 170.836748 149.197841 
L 171.209089 149.321549 
L 171.58143 149.444405 
L 171.953771 149.566407 
L 172.326112 149.687556 
L 172.698452 149.807852 
L 173.070793 149.927295 
L 173.443134 150.045885 
L 173.815475 150.163621 
L 174.187816 150.280505 
L 174.560157 150.396535 
L 174.932498 150.511712 
L 175.304838 150.626036 
L 175.677179 150.739506 
L 176.04952 150.852124 
L 176.421861 150.963888 
L 176.794202 151.074799 
L 177.166543 151.184857 
L 177.538883 151.294062 
L 177.911224 151.402414 
L 178.283565 151.509913 
L 178.655906 151.616558 
L 179.028247 151.72235 
L 179.400588 151.827289 
L 179.772929 151.931375 
L 180.145269 152.034608 
L 180.51761 152.136987 
L 180.889951 152.238514 
L 181.262292 152.339187 
L 181.634633 152.439007 
L 182.006974 152.537974 
L 182.379314 152.636088 
L 182.751655 152.733348 
L 183.123996 152.829756 
L 183.496337 152.92531 
L 183.868678 153.020011 
L 184.241019 153.113859 
L 184.613359 153.206854 
L 184.9857 153.298995 
L 185.358041 153.390284 
L 185.730382 153.480719 
L 186.102723 153.570301 
L 186.475064 153.65903 
L 186.847405 153.746906 
L 187.219745 153.833929 
L 187.592086 153.920098 
L 187.964427 154.005414 
L 188.336768 154.089878 
L 188.709109 154.173488 
L 189.08145 154.256244 
L 189.45379 154.338148 
L 189.826131 154.419199 
L 190.198472 154.499396 
L 190.570813 154.57874 
L 190.943154 154.657231 
L 191.315495 154.734869 
L 191.687835 154.811654 
L 192.060176 154.887585 
L 192.432517 154.962663 
L 192.804858 155.036889 
L 193.177199 155.110261 
L 193.54954 155.182779 
L 193.921881 155.254445 
L 194.294221 155.325258 
L 194.666562 155.395217 
L 195.038903 155.464323 
L 195.411244 155.532576 
L 195.783585 155.599976 
L 196.155926 155.666523 
L 196.528266 155.732216 
L 196.900607 155.797057 
L 197.272948 155.861044 
L 197.645289 155.924178 
L 198.01763 155.986459 
L 198.389971 156.047887 
L 198.762311 156.108461 
L 199.134652 156.168183 
L 199.506993 156.227051 
L 199.879334 156.285066 
L 200.251675 156.342228 
L 200.624016 156.398537 
L 200.996357 156.453992 
L 201.368697 156.508595 
L 201.741038 156.562344 
L 202.113379 156.61524 
L 202.48572 156.667283 
L 202.858061 156.718473 
L 203.230402 156.768809 
L 203.602742 156.818293 
L 203.975083 156.866923 
L 204.347424 156.9147 
L 204.719765 156.961624 
L 205.092106 157.007695 
L 205.464447 157.052913 
L 205.836787 157.097277 
L 206.209128 157.140789 
L 206.581469 157.183447 
L 206.95381 157.225252 
L 207.326151 157.266204 
L 207.698492 157.306302 
L 208.070833 157.345548 
L 208.443173 157.38394 
L 208.815514 157.421479 
L 209.187855 157.458165 
L 209.560196 157.493998 
L 209.932537 157.528978 
L 210.304878 157.563104 
L 210.677218 157.596378 
L 211.049559 157.628798 
L 211.4219 157.660365 
L 211.794241 157.691079 
L 212.166582 157.720939 
L 212.538923 157.749947 
L 212.911263 157.778101 
L 213.283604 157.805403 
L 213.655945 157.831851 
L 214.028286 157.857446 
L 214.400627 157.882187 
L 214.772968 157.906076 
L 215.145309 157.929111 
L 215.517649 157.951293 
L 215.88999 157.972623 
L 216.262331 157.993098 
L 216.634672 158.012721 
L 217.007013 158.031491 
L 217.379354 158.049407 
L 217.751694 158.06647 
L 218.124035 158.082681 
L 218.496376 158.098037 
L 218.868717 158.112541 
L 219.241058 158.126192 
L 219.613399 158.138989 
L 219.985739 158.150934 
L 220.35808 158.162025 
L 220.730421 158.172263 
L 221.102762 158.181647 
L 221.475103 158.190179 
L 221.847444 158.197858 
L 222.219785 158.204683 
L 222.592125 158.210655 
L 222.964466 158.215774 
L 223.336807 158.22004 
L 223.709148 158.223452 
L 224.081489 158.226012 
L 224.45383 158.227718 
L 224.82617 158.228571 
L 225.198511 158.228571 
L 225.570852 158.227718 
L 225.943193 158.226012 
L 226.315534 158.223452 
L 226.687875 158.22004 
L 227.060215 158.215774 
L 227.432556 158.210655 
L 227.804897 158.204683 
L 228.177238 158.197858 
L 228.549579 158.190179 
L 228.92192 158.181647 
L 229.294261 158.172263 
L 229.666601 158.162025 
L 230.038942 158.150934 
L 230.411283 158.138989 
L 230.783624 158.126192 
L 231.155965 158.112541 
L 231.528306 158.098037 
L 231.900646 158.082681 
L 232.272987 158.06647 
L 232.645328 158.049407 
L 233.017669 158.031491 
L 233.39001 158.012721 
L 233.762351 157.993098 
L 234.134691 157.972623 
L 234.507032 157.951293 
L 234.879373 157.929111 
L 235.251714 157.906076 
L 235.624055 157.882187 
L 235.996396 157.857446 
L 236.368737 157.831851 
L 236.741077 157.805403 
L 237.113418 157.778101 
L 237.485759 157.749947 
L 237.8581 157.720939 
L 238.230441 157.691079 
L 238.602782 157.660365 
L 238.975122 157.628798 
L 239.347463 157.596378 
L 239.719804 157.563104 
L 240.092145 157.528978 
L 240.464486 157.493998 
L 240.836827 157.458165 
L 241.209167 157.421479 
L 241.581508 157.38394 
L 241.953849 157.345548 
L 242.32619 157.306302 
L 242.698531 157.266204 
L 243.070872 157.225252 
L 243.443213 157.183447 
L 243.815553 157.140789 
L 244.187894 157.097277 
L 244.560235 157.052913 
L 244.932576 157.007695 
L 245.304917 156.961624 
L 245.677258 156.9147 
L 246.049598 156.866923 
L 246.421939 156.818293 
L 246.79428 156.768809 
L 247.166621 156.718473 
L 247.538962 156.667283 
L 247.911303 156.61524 
L 248.283643 156.562344 
L 248.655984 156.508595 
L 249.028325 156.453992 
L 249.400666 156.398537 
L 249.773007 156.342228 
L 250.145348 156.285066 
L 250.517689 156.227051 
L 250.890029 156.168183 
L 251.26237 156.108461 
L 251.634711 156.047887 
L 252.007052 155.986459 
L 252.379393 155.924178 
L 252.751734 155.861044 
L 253.124074 155.797057 
L 253.496415 155.732216 
L 253.868756 155.666523 
L 254.241097 155.599976 
L 254.613438 155.532576 
L 254.985779 155.464323 
L 255.358119 155.395217 
L 255.73046 155.325258 
L 256.102801 155.254445 
L 256.475142 155.182779 
L 256.847483 155.110261 
L 257.219824 155.036889 
L 257.592165 154.962663 
L 257.964505 154.887585 
L 258.336846 154.811654 
L 258.709187 154.734869 
L 259.081528 154.657231 
L 259.453869 154.57874 
L 259.82621 154.499396 
L 260.19855 154.419199 
L 260.570891 154.338148 
L 260.943232 154.256244 
L 261.315573 154.173488 
L 261.687914 154.089878 
L 262.060255 154.005414 
L 262.432595 153.920098 
L 262.804936 153.833929 
L 263.177277 153.746906 
L 263.549618 153.65903 
L 263.921959 153.570301 
L 264.2943 153.480719 
L 264.666641 153.390284 
L 265.038981 153.298995 
L 265.411322 153.206854 
L 265.783663 153.113859 
L 266.156004 153.020011 
L 266.528345 152.92531 
L 266.900686 152.829756 
L 267.273026 152.733348 
L 267.645367 152.636088 
L 268.017708 152.537974 
L 268.390049 152.439007 
L 268.76239 152.339187 
L 269.134731 152.238514 
L 269.507071 152.136987 
L 269.879412 152.034608 
L 270.251753 151.931375 
L 270.624094 151.827289 
L 270.996435 151.72235 
L 271.368776 151.616558 
L 271.741117 151.509913 
L 272.113457 151.402414 
L 272.485798 151.294062 
L 272.858139 151.184857 
L 273.23048 151.074799 
L 273.602821 150.963888 
L 273.975162 150.852124 
L 274.347502 150.739506 
L 274.719843 150.626036 
L 275.092184 150.511712 
L 275.464525 150.396535 
L 275.836866 150.280505 
L 276.209207 150.163621 
L 276.581548 150.045885 
L 276.953888 149.927295 
L 277.326229 149.807852 
L 277.69857 149.687556 
L 278.070911 149.566407 
L 278.443252 149.444405 
L 278.815593 149.321549 
L 279.187933 149.197841 
L 279.560274 149.073279 
L 279.932615 148.947864 
L 280.304956 148.821596 
L 280.677297 148.694475 
L 281.049638 148.5665 
L 281.421978 148.437673 
L 281.794319 148.307992 
L 282.16666 148.177458 
L 282.539001 148.046071 
L 282.911342 147.91383 
L 283.283683 147.780737 
L 283.656024 147.64679 
L 284.028364 147.511991 
L 284.400705 147.376338 
L 284.773046 147.239832 
L 285.145387 147.102472 
L 285.517728 146.96426 
L 285.890069 146.825194 
L 286.262409 146.685276 
L 286.63475 146.544504 
L 287.007091 146.402879 
L 287.379432 146.2604 
L 287.751773 146.117069 
L 288.124114 145.972885 
L 288.496454 145.827847 
L 288.868795 145.681956 
L 289.241136 145.535212 
L 289.613477 145.387615 
L 289.985818 145.239164 
L 290.358159 145.089861 
L 290.7305 144.939704 
L 291.10284 144.788694 
L 291.475181 144.636831 
L 291.847522 144.484115 
L 292.219863 144.330546 
L 292.592204 144.176123 
L 292.964545 144.020848 
L 293.336885 143.864719 
L 293.709226 143.707737 
L 294.081567 143.549902 
L 294.453908 143.391213 
L 294.826249 143.231672 
L 295.19859 143.071277 
L 295.57093 142.910029 
L 295.943271 142.747928 
L 296.315612 142.584974 
L 296.687953 142.421167 
L 297.060294 142.256506 
L 297.432635 142.090993 
L 297.804976 141.924626 
L 298.177316 141.757406 
L 298.549657 141.589333 
L 298.921998 141.420407 
L 299.294339 141.250627 
L 299.66668 141.079995 
L 300.039021 140.908509 
L 300.411361 140.73617 
L 300.783702 140.562978 
L 301.156043 140.388933 
L 301.528384 140.214034 
L 301.900725 140.038283 
L 302.273066 139.861678 
L 302.645406 139.68422 
L 303.017747 139.505909 
L 303.390088 139.326745 
L 303.762429 139.146727 
L 304.13477 138.965857 
L 304.507111 138.784133 
L 304.879452 138.601556 
L 305.251792 138.418126 
L 305.624133 138.233843 
L 305.996474 138.048706 
L 306.368815 137.862717 
L 306.741156 137.675874 
L 307.113497 137.488178 
L 307.485837 137.299629 
L 307.858178 137.110227 
L 308.230519 136.919972 
L 308.60286 136.728863 
L 308.975201 136.536901 
L 309.347542 136.344087 
L 309.719882 136.150419 
L 310.092223 135.955897 
L 310.464564 135.760523 
L 310.836905 135.564296 
L 311.209246 135.367215 
L 311.581587 135.169281 
L 311.953928 134.970494 
L 312.326268 134.770854 
L 312.698609 134.570361 
L 313.07095 134.369014 
L 313.443291 134.166815 
L 313.815632 133.963762 
L 314.187973 133.759856 
L 314.560313 133.555097 
L 314.932654 133.349484 
L 315.304995 133.143019 
L 315.677336 132.9357 
L 316.049677 132.727529 
L 316.422018 132.518504 
L 316.794358 132.308625 
L 317.166699 132.097894 
L 317.53904 131.88631 
L 317.911381 131.673872 
L 318.283722 131.460581 
L 318.656063 131.246438 
L 319.028404 131.03144 
L 319.400744 130.81559 
L 319.773085 130.598887 
L 320.145426 130.38133 
L 320.517767 130.16292 
L 320.890108 129.943658 
L 321.262449 129.723541 
L 321.634789 129.502572 
L 322.00713 129.28075 
L 322.379471 129.058074 
L 322.751812 128.834546 
L 323.124153 128.610164 
L 323.496494 128.384929 
L 323.868834 128.158841 
L 324.241175 127.931899 
L 324.613516 127.704105 
L 324.985857 127.475457 
L 325.358198 127.245956 
L 325.730539 127.015602 
L 326.10288 126.784395 
L 326.47522 126.552335 
L 326.847561 126.319421 
L 327.219902 126.085654 
L 327.592243 125.851035 
L 327.964584 125.615562 
L 328.336925 125.379235 
L 328.709265 125.142056 
L 329.081606 124.904024 
L 329.453947 124.665138 
L 329.826288 124.425399 
L 330.198629 124.184807 
L 330.57097 123.943362 
L 330.94331 123.701064 
L 331.315651 123.457912 
L 331.687992 123.213908 
L 332.060333 122.96905 
L 332.432674 122.723339 
L 332.805015 122.476775 
L 333.177356 122.229357 
L 333.549696 121.981087 
L 333.922037 121.731963 
L 334.294378 121.481987 
L 334.666719 121.231157 
L 335.03906 120.979474 
L 335.411401 120.726937 
L 335.783741 120.473548 
L 336.156082 120.219305 
L 336.528423 119.96421 
L 336.900764 119.708261 
L 337.273105 119.451459 
L 337.645446 119.193803 
L 338.017786 118.935295 
L 338.390127 118.675933 
L 338.762468 118.415719 
L 339.134809 118.154651 
L 339.50715 117.89273 
L 339.879491 117.629956 
L 340.251832 117.366328 
L 340.624172 117.101848 
L 340.996513 116.836514 
L 341.368854 116.570327 
L 341.741195 116.303287 
L 342.113536 116.035394 
L 342.485877 115.766648 
L 342.858217 115.497048 
L 343.230558 115.226595 
L 343.602899 114.955289 
L 343.97524 114.68313 
L 344.347581 114.410118 
L 344.719922 114.136253 
L 345.092262 113.861534 
L 345.464603 113.585963 
L 345.836944 113.309538 
L 346.209285 113.03226 
L 346.581626 112.754129 
L 346.953967 112.475145 
L 347.326308 112.195307 
L 347.698648 111.914616 
L 348.070989 111.633073 
L 348.44333 111.350676 
L 348.815671 111.067426 
L 349.188012 110.783322 
L 349.560353 110.498366 
L 349.932693 110.212556 
L 350.305034 109.925893 
L 350.677375 109.638377 
L 351.049716 109.350008 
L 351.422057 109.060786 
L 351.794398 108.770711 
L 352.166738 108.479782 
L 352.539079 108.188 
L 352.91142 107.895365 
L 353.283761 107.601877 
L 353.656102 107.307536 
L 354.028443 107.012342 
L 354.400784 106.716294 
L 354.773124 106.419393 
L 355.145465 106.121639 
L 355.517806 105.823032 
L 355.890147 105.523572 
L 356.262488 105.223259 
L 356.634829 104.922092 
L 357.007169 104.620073 
L 357.37951 104.3172 
L 357.751851 104.013474 
L 358.124192 103.708894 
L 358.496533 103.403462 
L 358.868874 103.097177 
L 359.241214 102.790038 
L 359.613555 102.482046 
L 359.985896 102.173201 
L 360.358237 101.863503 
L 360.730578 101.552951 
L 361.102919 101.241547 
L 361.47526 100.929289 
L 361.8476 100.616178 
L 362.219941 100.302214 
L 362.592282 99.987397 
L 362.964623 99.671727 
L 363.336964 99.355204 
L 363.709305 99.037827 
L 364.081645 98.719597 
L 364.453986 98.400514 
L 364.826327 98.080578 
L 365.198668 97.759789 
L 365.571009 97.438146 
L 365.94335 97.115651 
L 366.31569 96.792302 
L 366.688031 96.4681 
L 367.060372 96.143045 
L 367.432713 95.817136 
L 367.805054 95.490375 
L 368.177395 95.16276 
L 368.549736 94.834293 
L 368.922076 94.504972 
L 369.294417 94.174798 
L 369.666758 93.84377 
L 370.039099 93.51189 
L 370.41144 93.179156 
L 370.783781 92.84557 
L 371.156121 92.51113 
L 371.528462 92.175837 
L 371.900803 91.83969 
L 372.273144 91.502691 
L 372.645485 91.164838 
L 373.017826 90.826133 
L 373.390167 90.486574 
L 373.762507 90.146162 
L 374.134848 89.804897 
L 374.507189 89.462778 
L 374.87953 89.119807 
L 375.251871 88.775982 
L 375.624212 88.431304 
L 375.996552 88.085773 
L 376.368893 87.739389 
L 376.741234 87.392152 
L 377.113575 87.044061 
L 377.485916 86.695117 
L 377.858257 86.34532 
L 378.230597 85.99467 
L 378.602938 85.643167 
L 378.975279 85.290811 
L 379.34762 84.937601 
L 379.719961 84.583539 
L 380.092302 84.228623 
L 380.464643 83.872854 
L 380.836983 83.516232 
L 381.209324 83.158757 
L 381.209324 82.441243 
L 381.209324 82.441243 
L 380.836983 82.083768 
L 380.464643 81.727146 
L 380.092302 81.371377 
L 379.719961 81.016461 
L 379.34762 80.662399 
L 378.975279 80.309189 
L 378.602938 79.956833 
L 378.230597 79.60533 
L 377.858257 79.25468 
L 377.485916 78.904883 
L 377.113575 78.555939 
L 376.741234 78.207848 
L 376.368893 77.860611 
L 375.996552 77.514227 
L 375.624212 77.168696 
L 375.251871 76.824018 
L 374.87953 76.480193 
L 374.507189 76.137222 
L 374.134848 75.795103 
L 373.762507 75.453838 
L 373.390167 75.113426 
L 373.017826 74.773867 
L 372.645485 74.435162 
L 372.273144 74.097309 
L 371.900803 73.76031 
L 371.528462 73.424163 
L 371.156121 73.08887 
L 370.783781 72.75443 
L 370.41144 72.420844 
L 370.039099 72.08811 
L 369.666758 71.75623 
L 369.294417 71.425202 
L 368.922076 71.095028 
L 368.549736 70.765707 
L 368.177395 70.43724 
L 367.805054 70.109625 
L 367.432713 69.782864 
L 367.060372 69.456955 
L 366.688031 69.1319 
L 366.31569 68.807698 
L 365.94335 68.484349 
L 365.571009 68.161854 
L 365.198668 67.840211 
L 364.826327 67.519422 
L 364.453986 67.199486 
L 364.081645 66.880403 
L 363.709305 66.562173 
L 363.336964 66.244796 
L 362.964623 65.928273 
L 362.592282 65.612603 
L 362.219941 65.297786 
L 361.8476 64.983822 
L 361.47526 64.670711 
L 361.102919 64.358453 
L 360.730578 64.047049 
L 360.358237 63.736497 
L 359.985896 63.426799 
L 359.613555 63.117954 
L 359.241214 62.809962 
L 358.868874 62.502823 
L 358.496533 62.196538 
L 358.124192 61.891106 
L 357.751851 61.586526 
L 357.37951 61.2828 
L 357.007169 60.979927 
L 356.634829 60.677908 
L 356.262488 60.376741 
L 355.890147 60.076428 
L 355.517806 59.776968 
L 355.145465 59.478361 
L 354.773124 59.180607 
L 354.400784 58.883706 
L 354.028443 58.587658 
L 353.656102 58.292464 
L 353.283761 57.998123 
L 352.91142 57.704635 
L 352.539079 57.412 
L 352.166738 57.120218 
L 351.794398 56.829289 
L 351.422057 56.539214 
L 351.049716 56.249992 
L 350.677375 55.961623 
L 350.305034 55.674107 
L 349.932693 55.387444 
L 349.560353 55.101634 
L 349.188012 54.816678 
L 348.815671 54.532574 
L 348.44333 54.249324 
L 348.070989 53.966927 
L 347.698648 53.685384 
L 347.326308 53.404693 
L 346.953967 53.124855 
L 346.581626 52.845871 
L 346.209285 52.56774 
L 345.836944 52.290462 
L 345.464603 52.014037 
L 345.092262 51.738466 
L 344.719922 51.463747 
L 344.347581 51.189882 
L 343.97524 50.91687 
L 343.602899 50.644711 
L 343.230558 50.373405 
L 342.858217 50.102952 
L 342.485877 49.833352 
L 342.113536 49.564606 
L 341.741195 49.296713 
L 341.368854 49.029673 
L 340.996513 48.763486 
L 340.624172 48.498152 
L 340.251832 48.233672 
L 339.879491 47.970044 
L 339.50715 47.70727 
L 339.134809 47.445349 
L 338.762468 47.184281 
L 338.390127 46.924067 
L 338.017786 46.664705 
L 337.645446 46.406197 
L 337.273105 46.148541 
L 336.900764 45.891739 
L 336.528423 45.63579 
L 336.156082 45.380695 
L 335.783741 45.126452 
L 335.411401 44.873063 
L 335.03906 44.620526 
L 334.666719 44.368843 
L 334.294378 44.118013 
L 333.922037 43.868037 
L 333.549696 43.618913 
L 333.177356 43.370643 
L 332.805015 43.123225 
L 332.432674 42.876661 
L 332.060333 42.63095 
L 331.687992 42.386092 
L 331.315651 42.142088 
L 330.94331 41.898936 
L 330.57097 41.656638 
L 330.198629 41.415193 
L 329.826288 41.174601 
L 329.453947 40.934862 
L 329.081606 40.695976 
L 328.709265 40.457944 
L 328.336925 40.220765 
L 327.964584 39.984438 
L 327.592243 39.748965 
L 327.219902 39.514346 
L 326.847561 39.280579 
L 326.47522 39.047665 
L 326.10288 38.815605 
L 325.730539 38.584398 
L 325.358198 38.354044 
L 324.985857 38.124543 
L 324.613516 37.895895 
L 324.241175 37.668101 
L 323.868834 37.441159 
L 323.496494 37.215071 
L 323.124153 36.989836 
L 322.751812 36.765454 
L 322.379471 36.541926 
L 322.00713 36.31925 
L 321.634789 36.097428 
L 321.262449 35.876459 
L 320.890108 35.656342 
L 320.517767 35.43708 
L 320.145426 35.21867 
L 319.773085 35.001113 
L 319.400744 34.78441 
L 319.028404 34.56856 
L 318.656063 34.353562 
L 318.283722 34.139419 
L 317.911381 33.926128 
L 317.53904 33.71369 
L 317.166699 33.502106 
L 316.794358 33.291375 
L 316.422018 33.081496 
L 316.049677 32.872471 
L 315.677336 32.6643 
L 315.304995 32.456981 
L 314.932654 32.250516 
L 314.560313 32.044903 
L 314.187973 31.840144 
L 313.815632 31.636238 
L 313.443291 31.433185 
L 313.07095 31.230986 
L 312.698609 31.029639 
L 312.326268 30.829146 
L 311.953928 30.629506 
L 311.581587 30.430719 
L 311.209246 30.232785 
L 310.836905 30.035704 
L 310.464564 29.839477 
L 310.092223 29.644103 
L 309.719882 29.449581 
L 309.347542 29.255913 
L 308.975201 29.063099 
L 308.60286 28.871137 
L 308.230519 28.680028 
L 307.858178 28.489773 
L 307.485837 28.300371 
L 307.113497 28.111822 
L 306.741156 27.924126 
L 306.368815 27.737283 
L 305.996474 27.551294 
L 305.624133 27.366157 
L 305.251792 27.181874 
L 304.879452 26.998444 
L 304.507111 26.815867 
L 304.13477 26.634143 
L 303.762429 26.453273 
L 303.390088 26.273255 
L 303.017747 26.094091 
L 302.645406 25.91578 
L 302.273066 25.738322 
L 301.900725 25.561717 
L 301.528384 25.385966 
L 301.156043 25.211067 
L 300.783702 25.037022 
L 300.411361 24.86383 
L 300.039021 24.691491 
L 299.66668 24.520005 
L 299.294339 24.349373 
L 298.921998 24.179593 
L 298.549657 24.010667 
L 298.177316 23.842594 
L 297.804976 23.675374 
L 297.432635 23.509007 
L 297.060294 23.343494 
L 296.687953 23.178833 
L 296.315612 23.015026 
L 295.943271 22.852072 
L 295.57093 22.689971 
L 295.19859 22.528723 
L 294.826249 22.368328 
L 294.453908 22.208787 
L 294.081567 22.050098 
L 293.709226 21.892263 
L 293.336885 21.735281 
L 292.964545 21.579152 
L 292.592204 21.423877 
L 292.219863 21.269454 
L 291.847522 21.115885 
L 291.475181 20.963169 
L 291.10284 20.811306 
L 290.7305 20.660296 
L 290.358159 20.510139 
L 289.985818 20.360836 
L 289.613477 20.212385 
L 289.241136 20.064788 
L 288.868795 19.918044 
L 288.496454 19.772153 
L 288.124114 19.627115 
L 287.751773 19.482931 
L 287.379432 19.3396 
L 287.007091 19.197121 
L 286.63475 19.055496 
L 286.262409 18.914724 
L 285.890069 18.774806 
L 285.517728 18.63574 
L 285.145387 18.497528 
L 284.773046 18.360168 
L 284.400705 18.223662 
L 284.028364 18.088009 
L 283.656024 17.95321 
L 283.283683 17.819263 
L 282.911342 17.68617 
L 282.539001 17.553929 
L 282.16666 17.422542 
L 281.794319 17.292008 
L 281.421978 17.162327 
L 281.049638 17.0335 
L 280.677297 16.905525 
L 280.304956 16.778404 
L 279.932615 16.652136 
L 279.560274 16.526721 
L 279.187933 16.402159 
L 278.815593 16.278451 
L 278.443252 16.155595 
L 278.070911 16.033593 
L 277.69857 15.912444 
L 277.326229 15.792148 
L 276.953888 15.672705 
L 276.581548 15.554115 
L 276.209207 15.436379 
L 275.836866 15.319495 
L 275.464525 15.203465 
L 275.092184 15.088288 
L 274.719843 14.973964 
L 274.347502 14.860494 
L 273.975162 14.747876 
L 273.602821 14.636112 
L 273.23048 14.525201 
L 272.858139 14.415143 
L 272.485798 14.305938 
L 272.113457 14.197586 
L 271.741117 14.090087 
L 271.368776 13.983442 
L 270.996435 13.87765 
L 270.624094 13.772711 
L 270.251753 13.668625 
L 269.879412 13.565392 
L 269.507071 13.463013 
L 269.134731 13.361486 
L 268.76239 13.260813 
L 268.390049 13.160993 
L 268.017708 13.062026 
L 267.645367 12.963912 
L 267.273026 12.866652 
L 266.900686 12.770244 
L 266.528345 12.67469 
L 266.156004 12.579989 
L 265.783663 12.486141 
L 265.411322 12.393146 
L 265.038981 12.301005 
L 264.666641 12.209716 
L 264.2943 12.119281 
L 263.921959 12.029699 
L 263.549618 11.94097 
L 263.177277 11.853094 
L 262.804936 11.766071 
L 262.432595 11.679902 
L 262.060255 11.594586 
L 261.687914 11.510122 
L 261.315573 11.426512 
L 260.943232 11.343756 
L 260.570891 11.261852 
L 260.19855 11.180801 
L 259.82621 11.100604 
L 259.453869 11.02126 
L 259.081528 10.942769 
L 258.709187 10.865131 
L 258.336846 10.788346 
L 257.964505 10.712415 
L 257.592165 10.637337 
L 257.219824 10.563111 
L 256.847483 10.489739 
L 256.475142 10.417221 
L 256.102801 10.345555 
L 255.73046 10.274742 
L 255.358119 10.204783 
L 254.985779 10.135677 
L 254.613438 10.067424 
L 254.241097 10.000024 
L 253.868756 9.933477 
L 253.496415 9.867784 
L 253.124074 9.802943 
L 252.751734 9.738956 
L 252.379393 9.675822 
L 252.007052 9.613541 
L 251.634711 9.552113 
L 251.26237 9.491539 
L 250.890029 9.431817 
L 250.517689 9.372949 
L 250.145348 9.314934 
L 249.773007 9.257772 
L 249.400666 9.201463 
L 249.028325 9.146008 
L 248.655984 9.091405 
L 248.283643 9.037656 
L 247.911303 8.98476 
L 247.538962 8.932717 
L 247.166621 8.881527 
L 246.79428 8.831191 
L 246.421939 8.781707 
L 246.049598 8.733077 
L 245.677258 8.6853 
L 245.304917 8.638376 
L 244.932576 8.592305 
L 244.560235 8.547087 
L 244.187894 8.502723 
L 243.815553 8.459211 
L 243.443213 8.416553 
L 243.070872 8.374748 
L 242.698531 8.333796 
L 242.32619 8.293698 
L 241.953849 8.254452 
L 241.581508 8.21606 
L 241.209167 8.178521 
L 240.836827 8.141835 
L 240.464486 8.106002 
L 240.092145 8.071022 
L 239.719804 8.036896 
L 239.347463 8.003622 
L 238.975122 7.971202 
L 238.602782 7.939635 
L 238.230441 7.908921 
L 237.8581 7.879061 
L 237.485759 7.850053 
L 237.113418 7.821899 
L 236.741077 7.794597 
L 236.368737 7.768149 
L 235.996396 7.742554 
L 235.624055 7.717813 
L 235.251714 7.693924 
L 234.879373 7.670889 
L 234.507032 7.648707 
L 234.134691 7.627377 
L 233.762351 7.606902 
L 233.39001 7.587279 
L 233.017669 7.568509 
L 232.645328 7.550593 
L 232.272987 7.53353 
L 231.900646 7.517319 
L 231.528306 7.501963 
L 231.155965 7.487459 
L 230.783624 7.473808 
L 230.411283 7.461011 
L 230.038942 7.449066 
L 229.666601 7.437975 
L 229.294261 7.427737 
L 228.92192 7.418353 
L 228.549579 7.409821 
L 228.177238 7.402142 
L 227.804897 7.395317 
L 227.432556 7.389345 
L 227.060215 7.384226 
L 226.687875 7.37996 
L 226.315534 7.376548 
L 225.943193 7.373988 
L 225.570852 7.372282 
L 225.198511 7.371429 
L 224.82617 7.371429 
L 224.45383 7.372282 
L 224.081489 7.373988 
L 223.709148 7.376548 
L 223.336807 7.37996 
L 222.964466 7.384226 
L 222.592125 7.389345 
L 222.219785 7.395317 
L 221.847444 7.402142 
L 221.475103 7.409821 
L 221.102762 7.418353 
L 220.730421 7.427737 
L 220.35808 7.437975 
L 219.985739 7.449066 
L 219.613399 7.461011 
L 219.241058 7.473808 
L 218.868717 7.487459 
L 218.496376 7.501963 
L 218.124035 7.517319 
L 217.751694 7.53353 
L 217.379354 7.550593 
L 217.007013 7.568509 
L 216.634672 7.587279 
L 216.262331 7.606902 
L 215.88999 7.627377 
L 215.517649 7.648707 
L 215.145309 7.670889 
L 214.772968 7.693924 
L 214.400627 7.717813 
L 214.028286 7.742554 
L 213.655945 7.768149 
L 213.283604 7.794597 
L 212.911263 7.821899 
L 212.538923 7.850053 
L 212.166582 7.879061 
L 211.794241 7.908921 
L 211.4219 7.939635 
L 211.049559 7.971202 
L 210.677218 8.003622 
L 210.304878 8.036896 
L 209.932537 8.071022 
L 209.560196 8.106002 
L 209.187855 8.141835 
L 208.815514 8.178521 
L 208.443173 8.21606 
L 208.070833 8.254452 
L 207.698492 8.293698 
L 207.326151 8.333796 
L 206.95381 8.374748 
L 206.581469 8.416553 
L 206.209128 8.459211 
L 205.836787 8.502723 
L 205.464447 8.547087 
L 205.092106 8.592305 
L 204.719765 8.638376 
L 204.347424 8.6853 
L 203.975083 8.733077 
L 203.602742 8.781707 
L 203.230402 8.831191 
L 202.858061 8.881527 
L 202.48572 8.932717 
L 202.113379 8.98476 
L 201.741038 9.037656 
L 201.368697 9.091405 
L 200.996357 9.146008 
L 200.624016 9.201463 
L 200.251675 9.257772 
L 199.879334 9.314934 
L 199.506993 9.372949 
L 199.134652 9.431817 
L 198.762311 9.491539 
L 198.389971 9.552113 
L 198.01763 9.613541 
L 197.645289 9.675822 
L 197.272948 9.738956 
L 196.900607 9.802943 
L 196.528266 9.867784 
L 196.155926 9.933477 
L 195.783585 10.000024 
L 195.411244 10.067424 
L 195.038903 10.135677 
L 194.666562 10.204783 
L 194.294221 10.274742 
L 193.921881 10.345555 
L 193.54954 10.417221 
L 193.177199 10.489739 
L 192.804858 10.563111 
L 192.432517 10.637337 
L 192.060176 10.712415 
L 191.687835 10.788346 
L 191.315495 10.865131 
L 190.943154 10.942769 
L 190.570813 11.02126 
L 190.198472 11.100604 
L 189.826131 11.180801 
L 189.45379 11.261852 
L 189.08145 11.343756 
L 188.709109 11.426512 
L 188.336768 11.510122 
L 187.964427 11.594586 
L 187.592086 11.679902 
L 187.219745 11.766071 
L 186.847405 11.853094 
L 186.475064 11.94097 
L 186.102723 12.029699 
L 185.730382 12.119281 
L 185.358041 12.209716 
L 184.9857 12.301005 
L 184.613359 12.393146 
L 184.241019 12.486141 
L 183.868678 12.579989 
L 183.496337 12.67469 
L 183.123996 12.770244 
L 182.751655 12.866652 
L 182.379314 12.963912 
L 182.006974 13.062026 
L 181.634633 13.160993 
L 181.262292 13.260813 
L 180.889951 13.361486 
L 180.51761 13.463013 
L 180.145269 13.565392 
L 179.772929 13.668625 
L 179.400588 13.772711 
L 179.028247 13.87765 
L 178.655906 13.983442 
L 178.283565 14.090087 
L 177.911224 14.197586 
L 177.538883 14.305938 
L 177.166543 14.415143 
L 176.794202 14.525201 
L 176.421861 14.636112 
L 176.04952 14.747876 
L 175.677179 14.860494 
L 175.304838 14.973964 
L 174.932498 15.088288 
L 174.560157 15.203465 
L 174.187816 15.319495 
L 173.815475 15.436379 
L 173.443134 15.554115 
L 173.070793 15.672705 
L 172.698452 15.792148 
L 172.326112 15.912444 
L 171.953771 16.033593 
L 171.58143 16.155595 
L 171.209089 16.278451 
L 170.836748 16.402159 
L 170.464407 16.526721 
L 170.092067 16.652136 
L 169.719726 16.778404 
L 169.347385 16.905525 
L 168.975044 17.0335 
L 168.602703 17.162327 
L 168.230362 17.292008 
L 167.858022 17.422542 
L 167.485681 17.553929 
L 167.11334 17.68617 
L 166.740999 17.819263 
L 166.368658 17.95321 
L 165.996317 18.088009 
L 165.623976 18.223662 
L 165.251636 18.360168 
L 164.879295 18.497528 
L 164.506954 18.63574 
L 164.134613 18.774806 
L 163.762272 18.914724 
L 163.389931 19.055496 
L 163.017591 19.197121 
L 162.64525 19.3396 
L 162.272909 19.482931 
L 161.900568 19.627115 
L 161.528227 19.772153 
L 161.155886 19.918044 
L 160.783546 20.064788 
L 160.411205 20.212385 
L 160.038864 20.360836 
L 159.666523 20.510139 
L 159.294182 20.660296 
L 158.921841 20.811306 
L 158.5495 20.963169 
L 158.17716 21.115885 
L 157.804819 21.269454 
L 157.432478 21.423877 
L 157.060137 21.579152 
L 156.687796 21.735281 
L 156.315455 21.892263 
L 155.943115 22.050098 
L 155.570774 22.208787 
L 155.198433 22.368328 
L 154.826092 22.528723 
L 154.453751 22.689971 
L 154.08141 22.852072 
L 153.70907 23.015026 
L 153.336729 23.178833 
L 152.964388 23.343494 
L 152.592047 23.509007 
L 152.219706 23.675374 
L 151.847365 23.842594 
L 151.475024 24.010667 
L 151.102684 24.179593 
L 150.730343 24.349373 
L 150.358002 24.520005 
L 149.985661 24.691491 
L 149.61332 24.86383 
L 149.240979 25.037022 
L 148.868639 25.211067 
L 148.496298 25.385966 
L 148.123957 25.561717 
L 147.751616 25.738322 
L 147.379275 25.91578 
L 147.006934 26.094091 
L 146.634594 26.273255 
L 146.262253 26.453273 
L 145.889912 26.634143 
L 145.517571 26.815867 
L 145.14523 26.998444 
L 144.772889 27.181874 
L 144.400548 27.366157 
L 144.028208 27.551294 
L 143.655867 27.737283 
L 143.283526 27.924126 
L 142.911185 28.111822 
L 142.538844 28.300371 
L 142.166503 28.489773 
L 141.794163 28.680028 
L 141.421822 28.871137 
L 141.049481 29.063099 
L 140.67714 29.255913 
L 140.304799 29.449581 
L 139.932458 29.644103 
L 139.560118 29.839477 
L 139.187777 30.035704 
L 138.815436 30.232785 
L 138.443095 30.430719 
L 138.070754 30.629506 
L 137.698413 30.829146 
L 137.326072 31.029639 
L 136.953732 31.230986 
L 136.581391 31.433185 
L 136.20905 31.636238 
L 135.836709 31.840144 
L 135.464368 32.044903 
L 135.092027 32.250516 
L 134.719687 32.456981 
L 134.347346 32.6643 
L 133.975005 32.872471 
L 133.602664 33.081496 
L 133.230323 33.291375 
L 132.857982 33.502106 
L 132.485642 33.71369 
L 132.113301 33.926128 
L 131.74096 34.139419 
L 131.368619 34.353562 
L 130.996278 34.56856 
L 130.623937 34.78441 
L 130.251596 35.001113 
L 129.879256 35.21867 
L 129.506915 35.43708 
L 129.134574 35.656342 
L 128.762233 35.876459 
L 128.389892 36.097428 
L 128.017551 36.31925 
L 127.645211 36.541926 
L 127.27287 36.765454 
L 126.900529 36.989836 
L 126.528188 37.215071 
L 126.155847 37.441159 
L 125.783506 37.668101 
L 125.411166 37.895895 
L 125.038825 38.124543 
L 124.666484 38.354044 
L 124.294143 38.584398 
L 123.921802 38.815605 
L 123.549461 39.047665 
L 123.17712 39.280579 
L 122.80478 39.514346 
L 122.432439 39.748965 
L 122.060098 39.984438 
L 121.687757 40.220765 
L 121.315416 40.457944 
L 120.943075 40.695976 
L 120.570735 40.934862 
L 120.198394 41.174601 
L 119.826053 41.415193 
L 119.453712 41.656638 
L 119.081371 41.898936 
L 118.70903 42.142088 
L 118.33669 42.386092 
L 117.964349 42.63095 
L 117.592008 42.876661 
L 117.219667 43.123225 
L 116.847326 43.370643 
L 116.474985 43.618913 
L 116.102644 43.868037 
L 115.730304 44.118013 
L 115.357963 44.368843 
L 114.985622 44.620526 
L 114.613281 44.873063 
L 114.24094 45.126452 
L 113.868599 45.380695 
L 113.496259 45.63579 
L 113.123918 45.891739 
L 112.751577 46.148541 
L 112.379236 46.406197 
L 112.006895 46.664705 
L 111.634554 46.924067 
L 111.262214 47.184281 
L 110.889873 47.445349 
L 110.517532 47.70727 
L 110.145191 47.970044 
L 109.77285 48.233672 
L 109.400509 48.498152 
L 109.028168 48.763486 
L 108.655828 49.029673 
L 108.283487 49.296713 
L 107.911146 49.564606 
L 107.538805 49.833352 
L 107.166464 50.102952 
L 106.794123 50.373405 
L 106.421783 50.644711 
L 106.049442 50.91687 
L 105.677101 51.189882 
L 105.30476 51.463747 
L 104.932419 51.738466 
L 104.560078 52.014037 
L 104.187738 52.290462 
L 103.815397 52.56774 
L 103.443056 52.845871 
L 103.070715 53.124855 
L 102.698374 53.404693 
L 102.326033 53.685384 
L 101.953692 53.966927 
L 101.581352 54.249324 
L 101.209011 54.532574 
L 100.83667 54.816678 
L 100.464329 55.101634 
L 100.091988 55.387444 
L 99.719647 55.674107 
L 99.347307 55.961623 
L 98.974966 56.249992 
L 98.602625 56.539214 
L 98.230284 56.829289 
L 97.857943 57.120218 
L 97.485602 57.412 
L 97.113262 57.704635 
L 96.740921 57.998123 
L 96.36858 58.292464 
L 95.996239 58.587658 
L 95.623898 58.883706 
L 95.251557 59.180607 
L 94.879216 59.478361 
L 94.506876 59.776968 
L 94.134535 60.076428 
L 93.762194 60.376741 
L 93.389853 60.677908 
L 93.017512 60.979927 
L 92.645171 61.2828 
L 92.272831 61.586526 
L 91.90049 61.891106 
L 91.528149 62.196538 
L 91.155808 62.502823 
L 90.783467 62.809962 
L 90.411126 63.117954 
L 90.038786 63.426799 
L 89.666445 63.736497 
L 89.294104 64.047049 
L 88.921763 64.358453 
L 88.549422 64.670711 
L 88.177081 64.983822 
L 87.80474 65.297786 
L 87.4324 65.612603 
L 87.060059 65.928273 
L 86.687718 66.244796 
L 86.315377 66.562173 
L 85.943036 66.880403 
L 85.570695 67.199486 
L 85.198355 67.519422 
L 84.826014 67.840211 
L 84.453673 68.161854 
L 84.081332 68.484349 
L 83.708991 68.807698 
L 83.33665 69.1319 
L 82.96431 69.456955 
L 82.591969 69.782864 
L 82.219628 70.109625 
L 81.847287 70.43724 
L 81.474946 70.765707 
L 81.102605 71.095028 
L 80.730264 71.425202 
L 80.357924 71.75623 
L 79.985583 72.08811 
L 79.613242 72.420844 
L 79.240901 72.75443 
z
" style="fill:#0000ff;fill-opacity:0.1;stroke:#0000ff;stroke-opacity:0.1;"/>
   </g>
   <g id="matplotlib.axis_1">
    <g id="xtick_1">
     <g id="line2d_1">
      <defs>
       <path d="M 0 0 
L 0 3.5 
" id="mc6d319c210" style="stroke:#000000;stroke-width:0.8;"/>
      </defs>
      <g>
       <use style="stroke:#000000;stroke-width:0.8;" x="36.607875" xlink:href="#mc6d319c210" y="162"/>
      </g>
     </g>
     <g id="text_1">
      <!-- 1940 -->
      <g transform="translate(23.882875 176.598438)scale(0.1 -0.1)">
       <defs>
        <path d="M 794 531 
L 1825 531 
L 1825 4091 
L 703 3866 
L 703 4441 
L 1819 4666 
L 2450 4666 
L 2450 531 
L 3481 531 
L 3481 0 
L 794 0 
L 794 531 
z
" id="DejaVuSans-31" transform="scale(0.015625)"/>
        <path d="M 703 97 
L 703 672 
Q 941 559 1184 500 
Q 1428 441 1663 441 
Q 2288 441 2617 861 
Q 2947 1281 2994 2138 
Q 2813 1869 2534 1725 
Q 2256 1581 1919 1581 
Q 1219 1581 811 2004 
Q 403 2428 403 3163 
Q 403 3881 828 4315 
Q 1253 4750 1959 4750 
Q 2769 4750 3195 4129 
Q 3622 3509 3622 2328 
Q 3622 1225 3098 567 
Q 2575 -91 1691 -91 
Q 1453 -91 1209 -44 
Q 966 3 703 97 
z
M 1959 2075 
Q 2384 2075 2632 2365 
Q 2881 2656 2881 3163 
Q 2881 3666 2632 3958 
Q 2384 4250 1959 4250 
Q 1534 4250 1286 3958 
Q 1038 3666 1038 3163 
Q 1038 2656 1286 2365 
Q 1534 2075 1959 2075 
z
" id="DejaVuSans-39" transform="scale(0.015625)"/>
        <path d="M 2419 4116 
L 825 1625 
L 2419 1625 
L 2419 4116 
z
M 2253 4666 
L 3047 4666 
L 3047 1625 
L 3713 1625 
L 3713 1100 
L 3047 1100 
L 3047 0 
L 2419 0 
L 2419 1100 
L 313 1100 
L 313 1709 
L 2253 4666 
z
" id="DejaVuSans-34" transform="scale(0.015625)"/>
        <path d="M 2034 4250 
Q 1547 4250 1301 3770 
Q 1056 3291 1056 2328 
Q 1056 1369 1301 889 
Q 1547 409 2034 409 
Q 2525 409 2770 889 
Q 3016 1369 3016 2328 
Q 3016 3291 2770 3770 
Q 2525 4250 2034 4250 
z
M 2034 4750 
Q 2819 4750 3233 4129 
Q 3647 3509 3647 2328 
Q 3647 1150 3233 529 
Q 2819 -91 2034 -91 
Q 1250 -91 836 529 
Q 422 1150 422 2328 
Q 422 3509 836 4129 
Q 1250 4750 2034 4750 
z
" id="DejaVuSans-30" transform="scale(0.015625)"/>
       </defs>
       <use xlink:href="#DejaVuSans-31"/>
       <use x="63.623047" xlink:href="#DejaVuSans-39"/>
       <use x="127.246094" xlink:href="#DejaVuSans-34"/>
       <use x="190.869141" xlink:href="#DejaVuSans-30"/>
      </g>
     </g>
    </g>
    <g id="xtick_2">
     <g id="line2d_2">
      <g>
       <use style="stroke:#000000;stroke-width:0.8;" x="81.288776" xlink:href="#mc6d319c210" y="162"/>
      </g>
     </g>
     <g id="text_2">
      <!-- 1950 -->
      <g transform="translate(68.563776 176.598438)scale(0.1 -0.1)">
       <defs>
        <path d="M 691 4666 
L 3169 4666 
L 3169 4134 
L 1269 4134 
L 1269 2991 
Q 1406 3038 1543 3061 
Q 1681 3084 1819 3084 
Q 2600 3084 3056 2656 
Q 3513 2228 3513 1497 
Q 3513 744 3044 326 
Q 2575 -91 1722 -91 
Q 1428 -91 1123 -41 
Q 819 9 494 109 
L 494 744 
Q 775 591 1075 516 
Q 1375 441 1709 441 
Q 2250 441 2565 725 
Q 2881 1009 2881 1497 
Q 2881 1984 2565 2268 
Q 2250 2553 1709 2553 
Q 1456 2553 1204 2497 
Q 953 2441 691 2322 
L 691 4666 
z
" id="DejaVuSans-35" transform="scale(0.015625)"/>
       </defs>
       <use xlink:href="#DejaVuSans-31"/>
       <use x="63.623047" xlink:href="#DejaVuSans-39"/>
       <use x="127.246094" xlink:href="#DejaVuSans-35"/>
       <use x="190.869141" xlink:href="#DejaVuSans-30"/>
      </g>
     </g>
    </g>
    <g id="xtick_3">
     <g id="line2d_3">
      <g>
       <use style="stroke:#000000;stroke-width:0.8;" x="125.969677" xlink:href="#mc6d319c210" y="162"/>
      </g>
     </g>
     <g id="text_3">
      <!-- 1960 -->
      <g transform="translate(113.244677 176.598438)scale(0.1 -0.1)">
       <defs>
        <path d="M 2113 2584 
Q 1688 2584 1439 2293 
Q 1191 2003 1191 1497 
Q 1191 994 1439 701 
Q 1688 409 2113 409 
Q 2538 409 2786 701 
Q 3034 994 3034 1497 
Q 3034 2003 2786 2293 
Q 2538 2584 2113 2584 
z
M 3366 4563 
L 3366 3988 
Q 3128 4100 2886 4159 
Q 2644 4219 2406 4219 
Q 1781 4219 1451 3797 
Q 1122 3375 1075 2522 
Q 1259 2794 1537 2939 
Q 1816 3084 2150 3084 
Q 2853 3084 3261 2657 
Q 3669 2231 3669 1497 
Q 3669 778 3244 343 
Q 2819 -91 2113 -91 
Q 1303 -91 875 529 
Q 447 1150 447 2328 
Q 447 3434 972 4092 
Q 1497 4750 2381 4750 
Q 2619 4750 2861 4703 
Q 3103 4656 3366 4563 
z
" id="DejaVuSans-36" transform="scale(0.015625)"/>
       </defs>
       <use xlink:href="#DejaVuSans-31"/>
       <use x="63.623047" xlink:href="#DejaVuSans-39"/>
       <use x="127.246094" xlink:href="#DejaVuSans-36"/>
       <use x="190.869141" xlink:href="#DejaVuSans-30"/>
      </g>
     </g>
    </g>
    <g id="xtick_4">
     <g id="line2d_4">
      <g>
       <use style="stroke:#000000;stroke-width:0.8;" x="170.650578" xlink:href="#mc6d319c210" y="162"/>
      </g>
     </g>
     <g id="text_4">
      <!-- 1970 -->
      <g transform="translate(157.925578 176.598438)scale(0.1 -0.1)">
       <defs>
        <path d="M 525 4666 
L 3525 4666 
L 3525 4397 
L 1831 0 
L 1172 0 
L 2766 4134 
L 525 4134 
L 525 4666 
z
" id="DejaVuSans-37" transform="scale(0.015625)"/>
       </defs>
       <use xlink:href="#DejaVuSans-31"/>
       <use x="63.623047" xlink:href="#DejaVuSans-39"/>
       <use x="127.246094" xlink:href="#DejaVuSans-37"/>
       <use x="190.869141" xlink:href="#DejaVuSans-30"/>
      </g>
     </g>
    </g>
    <g id="xtick_5">
     <g id="line2d_5">
      <g>
       <use style="stroke:#000000;stroke-width:0.8;" x="215.331479" xlink:href="#mc6d319c210" y="162"/>
      </g>
     </g>
     <g id="text_5">
      <!-- 1980 -->
      <g transform="translate(202.606479 176.598438)scale(0.1 -0.1)">
       <defs>
        <path d="M 2034 2216 
Q 1584 2216 1326 1975 
Q 1069 1734 1069 1313 
Q 1069 891 1326 650 
Q 1584 409 2034 409 
Q 2484 409 2743 651 
Q 3003 894 3003 1313 
Q 3003 1734 2745 1975 
Q 2488 2216 2034 2216 
z
M 1403 2484 
Q 997 2584 770 2862 
Q 544 3141 544 3541 
Q 544 4100 942 4425 
Q 1341 4750 2034 4750 
Q 2731 4750 3128 4425 
Q 3525 4100 3525 3541 
Q 3525 3141 3298 2862 
Q 3072 2584 2669 2484 
Q 3125 2378 3379 2068 
Q 3634 1759 3634 1313 
Q 3634 634 3220 271 
Q 2806 -91 2034 -91 
Q 1263 -91 848 271 
Q 434 634 434 1313 
Q 434 1759 690 2068 
Q 947 2378 1403 2484 
z
M 1172 3481 
Q 1172 3119 1398 2916 
Q 1625 2713 2034 2713 
Q 2441 2713 2670 2916 
Q 2900 3119 2900 3481 
Q 2900 3844 2670 4047 
Q 2441 4250 2034 4250 
Q 1625 4250 1398 4047 
Q 1172 3844 1172 3481 
z
" id="DejaVuSans-38" transform="scale(0.015625)"/>
       </defs>
       <use xlink:href="#DejaVuSans-31"/>
       <use x="63.623047" xlink:href="#DejaVuSans-39"/>
       <use x="127.246094" xlink:href="#DejaVuSans-38"/>
       <use x="190.869141" xlink:href="#DejaVuSans-30"/>
      </g>
     </g>
    </g>
    <g id="xtick_6">
     <g id="line2d_6">
      <g>
       <use style="stroke:#000000;stroke-width:0.8;" x="260.01238" xlink:href="#mc6d319c210" y="162"/>
      </g>
     </g>
     <g id="text_6">
      <!-- 1990 -->
      <g transform="translate(247.28738 176.598438)scale(0.1 -0.1)">
       <use xlink:href="#DejaVuSans-31"/>
       <use x="63.623047" xlink:href="#DejaVuSans-39"/>
       <use x="127.246094" xlink:href="#DejaVuSans-39"/>
       <use x="190.869141" xlink:href="#DejaVuSans-30"/>
      </g>
     </g>
    </g>
    <g id="xtick_7">
     <g id="line2d_7">
      <g>
       <use style="stroke:#000000;stroke-width:0.8;" x="304.693281" xlink:href="#mc6d319c210" y="162"/>
      </g>
     </g>
     <g id="text_7">
      <!-- 2000 -->
      <g transform="translate(291.968281 176.598438)scale(0.1 -0.1)">
       <defs>
        <path d="M 1228 531 
L 3431 531 
L 3431 0 
L 469 0 
L 469 531 
Q 828 903 1448 1529 
Q 2069 2156 2228 2338 
Q 2531 2678 2651 2914 
Q 2772 3150 2772 3378 
Q 2772 3750 2511 3984 
Q 2250 4219 1831 4219 
Q 1534 4219 1204 4116 
Q 875 4013 500 3803 
L 500 4441 
Q 881 4594 1212 4672 
Q 1544 4750 1819 4750 
Q 2544 4750 2975 4387 
Q 3406 4025 3406 3419 
Q 3406 3131 3298 2873 
Q 3191 2616 2906 2266 
Q 2828 2175 2409 1742 
Q 1991 1309 1228 531 
z
" id="DejaVuSans-32" transform="scale(0.015625)"/>
       </defs>
       <use xlink:href="#DejaVuSans-32"/>
       <use x="63.623047" xlink:href="#DejaVuSans-30"/>
       <use x="127.246094" xlink:href="#DejaVuSans-30"/>
       <use x="190.869141" xlink:href="#DejaVuSans-30"/>
      </g>
     </g>
    </g>
    <g id="xtick_8">
     <g id="line2d_8">
      <g>
       <use style="stroke:#000000;stroke-width:0.8;" x="349.374182" xlink:href="#mc6d319c210" y="162"/>
      </g>
     </g>
     <g id="text_8">
      <!-- 2010 -->
      <g transform="translate(336.649182 176.598438)scale(0.1 -0.1)">
       <use xlink:href="#DejaVuSans-32"/>
       <use x="63.623047" xlink:href="#DejaVuSans-30"/>
       <use x="127.246094" xlink:href="#DejaVuSans-31"/>
       <use x="190.869141" xlink:href="#DejaVuSans-30"/>
      </g>
     </g>
    </g>
    <g id="xtick_9">
     <g id="line2d_9">
      <g>
       <use style="stroke:#000000;stroke-width:0.8;" x="394.055083" xlink:href="#mc6d319c210" y="162"/>
      </g>
     </g>
     <g id="text_9">
      <!-- 2020 -->
      <g transform="translate(381.330083 176.598438)scale(0.1 -0.1)">
       <use xlink:href="#DejaVuSans-32"/>
       <use x="63.623047" xlink:href="#DejaVuSans-30"/>
       <use x="127.246094" xlink:href="#DejaVuSans-32"/>
       <use x="190.869141" xlink:href="#DejaVuSans-30"/>
      </g>
     </g>
    </g>
   </g>
   <g id="matplotlib.axis_2">
    <g id="ytick_1">
     <g id="line2d_10">
      <defs>
       <path d="M 0 0 
L -3.5 0 
" id="m2b6171c99d" style="stroke:#000000;stroke-width:0.8;"/>
      </defs>
      <g>
       <use style="stroke:#000000;stroke-width:0.8;" x="34.56" xlink:href="#m2b6171c99d" y="159.856814"/>
      </g>
     </g>
     <g id="text_10">
      <!-- 100 -->
      <g transform="translate(0.092813 163.656033)scale(0.1 -0.1)">
       <defs>
        <path d="M 678 2272 
L 4684 2272 
L 4684 1741 
L 678 1741 
L 678 2272 
z
" id="DejaVuSans-2212" transform="scale(0.015625)"/>
       </defs>
       <use xlink:href="#DejaVuSans-2212"/>
       <use x="83.789062" xlink:href="#DejaVuSans-31"/>
       <use x="147.412109" xlink:href="#DejaVuSans-30"/>
       <use x="211.035156" xlink:href="#DejaVuSans-30"/>
      </g>
     </g>
    </g>
    <g id="ytick_2">
     <g id="line2d_11">
      <g>
       <use style="stroke:#000000;stroke-width:0.8;" x="34.56" xlink:href="#m2b6171c99d" y="121.328407"/>
      </g>
     </g>
     <g id="text_11">
      <!-- 50 -->
      <g transform="translate(6.455313 125.127626)scale(0.1 -0.1)">
       <use xlink:href="#DejaVuSans-2212"/>
       <use x="83.789062" xlink:href="#DejaVuSans-35"/>
       <use x="147.412109" xlink:href="#DejaVuSans-30"/>
      </g>
     </g>
    </g>
    <g id="ytick_3">
     <g id="line2d_12">
      <g>
       <use style="stroke:#000000;stroke-width:0.8;" x="34.56" xlink:href="#m2b6171c99d" y="82.8"/>
      </g>
     </g>
     <g id="text_12">
      <!-- 0 -->
      <g transform="translate(21.1975 86.599219)scale(0.1 -0.1)">
       <use xlink:href="#DejaVuSans-30"/>
      </g>
     </g>
    </g>
    <g id="ytick_4">
     <g id="line2d_13">
      <g>
       <use style="stroke:#000000;stroke-width:0.8;" x="34.56" xlink:href="#m2b6171c99d" y="44.271593"/>
      </g>
     </g>
     <g id="text_13">
      <!-- 50 -->
      <g transform="translate(14.835 48.070812)scale(0.1 -0.1)">
       <use xlink:href="#DejaVuSans-35"/>
       <use x="63.623047" xlink:href="#DejaVuSans-30"/>
      </g>
     </g>
    </g>
    <g id="ytick_5">
     <g id="line2d_14">
      <g>
       <use style="stroke:#000000;stroke-width:0.8;" x="34.56" xlink:href="#m2b6171c99d" y="5.743186"/>
      </g>
     </g>
     <g id="text_14">
      <!-- 100 -->
      <g transform="translate(8.4725 9.542405)scale(0.1 -0.1)">
       <use xlink:href="#DejaVuSans-31"/>
       <use x="63.623047" xlink:href="#DejaVuSans-30"/>
       <use x="127.246094" xlink:href="#DejaVuSans-30"/>
      </g>
     </g>
    </g>
   </g>
   <g id="line2d_15">
    <path clip-path="url(#p44995440f6)" d="M 68.070676 82.667206 
L 69.187698 82.279358 
L 70.677062 80.460541 
L 71.421743 79.434998 
L 73.283448 78.593946 
L 76.634515 75.841654 
L 77.379197 75.435447 
L 77.751538 75.03432 
L 78.123879 74.371589 
M 79.240901 74.309004 
L 79.985583 73.960232 
L 80.730264 73.187988 
L 81.847287 73.098294 
L 82.96431 72.298538 
L 84.453673 70.953212 
L 84.826014 71.072671 
L 86.315377 70.636516 
L 89.294104 69.950641 
L 89.666445 70.174797 
L 93.389853 69.158426 
L 95.251557 69.050589 
L 95.996239 68.668054 
L 96.740921 68.424452 
L 97.485602 67.9895 
L 98.230284 68.096602 
L 98.602625 67.901858 
L 99.719647 68.008557 
L 101.209011 68.32284 
L 101.581352 68.305021 
L 101.953692 68.438945 
L 104.187738 68.089544 
L 105.30476 67.732908 
L 105.677101 67.738305 
L 106.049442 67.586053 
L 106.794123 67.527502 
L 107.166464 67.293043 
L 107.538805 67.191984 
L 107.911146 67.239056 
L 109.028168 66.903449 
L 109.77285 66.767604 
L 113.123918 66.525998 
L 113.496259 66.693327 
L 113.868599 66.492653 
L 114.613281 66.45388 
L 115.357963 66.121512 
L 116.474985 65.995875 
L 117.219667 65.925486 
L 117.592008 66.018727 
L 118.70903 65.732997 
L 119.453712 65.659348 
L 119.826053 65.577371 
L 120.198394 65.691925 
L 120.570735 65.615575 
L 120.943075 65.684934 
L 122.060098 65.595433 
L 126.155847 65.654726 
L 127.645211 65.470619 
L 128.389892 64.973823 
L 134.719687 64.229269 
L 135.092027 64.436643 
L 135.464368 64.772594 
L 135.836709 64.849767 
L 137.326072 65.750829 
L 137.698413 66.00696 
L 138.443095 65.990695 
L 138.815436 66.048035 
L 139.187777 65.916762 
L 139.560118 65.904763 
L 139.932458 65.708545 
L 140.304799 65.340988 
L 140.67714 65.363275 
L 141.049481 65.660423 
L 142.166503 66.964398 
L 142.911185 67.123132 
L 143.655867 67.161987 
L 145.14523 67.527281 
L 145.889912 67.587311 
L 147.379275 67.598989 
L 148.496298 67.716401 
L 149.240979 67.464201 
L 149.985661 67.62857 
L 150.358002 67.839795 
L 151.102684 67.905301 
L 151.475024 68.054421 
L 152.219706 68.099095 
L 152.964388 68.137638 
L 153.70907 68.262539 
L 154.453751 68.640159 
L 154.826092 68.586782 
L 155.198433 68.695851 
L 157.060137 68.684643 
L 158.5495 68.603492 
L 158.921841 68.539342 
L 159.294182 68.324188 
L 159.666523 68.445547 
L 162.64525 67.759 
L 163.389931 67.83639 
L 164.506954 67.692961 
L 167.11334 67.287853 
L 168.230362 67.451237 
L 168.602703 67.480116 
L 170.092067 67.053264 
L 170.464407 66.947268 
L 171.953771 66.94572 
L 172.326112 66.875449 
L 172.698452 66.562103 
L 174.932498 66.026539 
L 176.421861 65.731102 
L 176.794202 65.545652 
L 177.538883 65.874518 
L 177.911224 65.760062 
L 178.283565 65.817466 
L 178.655906 66.138285 
L 179.400588 66.013482 
L 179.772929 66.181861 
L 180.889951 66.301282 
L 182.006974 66.96214 
L 183.868678 67.365542 
L 184.241019 67.322018 
L 184.613359 67.147385 
L 186.102723 67.337119 
L 186.847405 67.626117 
L 188.336768 67.711974 
L 189.45379 67.421635 
L 189.826131 67.13595 
L 191.315495 66.79526 
L 192.060176 66.755088 
L 192.804858 66.626465 
L 193.54954 66.595957 
L 194.666562 66.489606 
L 195.038903 66.32167 
L 195.411244 66.365359 
L 195.783585 65.967347 
L 197.272948 65.893677 
L 198.762311 65.582042 
L 199.506993 65.467161 
L 200.251675 64.827174 
L 201.368697 64.617974 
L 202.858061 64.31917 
L 203.230402 64.371511 
L 203.975083 64.021168 
L 204.719765 64.136959 
L 205.464447 63.881721 
L 206.581469 64.062023 
L 208.815514 63.240786 
L 209.932537 63.382276 
L 210.677218 63.619983 
L 211.049559 63.543696 
L 211.4219 63.641443 
L 212.911263 63.43359 
L 213.655945 63.972239 
L 214.400627 63.919378 
L 215.145309 64.259512 
L 215.88999 64.377441 
L 216.262331 64.304437 
L 217.007013 63.917973 
L 218.124035 64.212368 
L 219.241058 64.157301 
L 220.730421 64.428406 
L 221.475103 64.135576 
L 222.219785 64.361618 
L 222.964466 64.321051 
L 223.336807 64.498541 
L 224.081489 64.51059 
L 225.198511 64.682629 
L 225.943193 64.585707 
L 226.315534 64.845477 
L 226.687875 64.699785 
L 227.804897 64.984264 
L 228.549579 65.148255 
L 230.038942 65.312377 
L 230.411283 65.514644 
L 231.155965 65.641675 
L 231.900646 65.938566 
L 232.272987 66.317103 
L 232.645328 66.39939 
L 233.017669 66.323932 
L 233.762351 66.510455 
L 235.251714 66.268634 
L 236.741077 66.387061 
L 237.485759 66.665548 
L 238.230441 66.723455 
L 238.602782 66.793064 
L 238.975122 66.746843 
L 239.347463 66.585226 
L 240.464486 66.915552 
L 242.32619 67.34427 
L 242.698531 67.140782 
L 243.443213 67.128373 
L 243.815553 67.218334 
L 244.187894 67.135451 
L 244.560235 67.202223 
L 246.421939 68.671624 
L 246.79428 68.608573 
L 247.538962 68.807303 
L 248.655984 68.963842 
L 249.028325 68.759864 
L 249.400666 68.724468 
L 249.773007 68.89581 
L 250.145348 68.905436 
L 250.890029 69.288216 
L 252.007052 69.503737 
L 252.751734 69.343977 
L 253.124074 69.486152 
L 253.496415 69.796269 
L 255.73046 70.764273 
L 256.102801 71.101854 
L 256.847483 71.371348 
L 257.592165 71.415312 
L 257.964505 71.304792 
L 259.453869 71.606987 
L 260.570891 72.145933 
L 261.315573 72.376198 
L 261.687914 72.299058 
L 264.666641 73.352038 
L 266.156004 73.273259 
L 266.528345 73.528488 
L 266.900686 73.55459 
L 267.273026 73.467279 
L 268.017708 73.806951 
L 268.76239 73.856882 
L 270.624094 74.272471 
L 271.368776 74.28069 
L 272.113457 74.718678 
L 272.858139 74.953136 
L 273.23048 74.986765 
L 273.602821 75.194621 
L 273.975162 75.214305 
L 274.347502 75.362983 
L 274.719843 75.323168 
L 275.092184 75.415539 
L 275.464525 75.354494 
L 276.953888 76.078316 
L 277.326229 76.019053 
L 278.070911 76.269655 
L 278.443252 76.065647 
L 278.815593 76.262323 
L 280.304956 76.040663 
L 281.049638 76.329569 
L 281.421978 76.232161 
L 282.16666 76.331916 
L 282.539001 76.204012 
L 282.911342 76.386687 
L 283.656024 76.329427 
L 284.028364 76.430537 
L 285.890069 76.273321 
L 286.262409 76.053127 
L 287.379432 75.677067 
L 287.751773 75.46534 
L 288.124114 75.584465 
L 288.868795 75.379981 
L 289.241136 75.080351 
L 289.613477 75.166814 
L 290.358159 75.035918 
L 291.847522 75.030983 
L 292.219863 75.152092 
L 292.592204 75.127987 
L 293.336885 74.91212 
L 294.081567 74.806063 
L 294.453908 74.709594 
L 295.19859 74.748737 
L 295.943271 74.6494 
L 296.315612 74.791802 
L 297.804976 74.740399 
L 298.549657 74.857274 
L 299.294339 75.092568 
L 299.66668 75.029501 
L 300.411361 75.200333 
L 301.156043 75.301902 
L 301.528384 75.498985 
L 302.273066 75.680766 
L 303.390088 76.083089 
L 304.13477 76.236709 
L 304.507111 76.221461 
L 306.368815 76.699367 
L 307.113497 76.650847 
L 308.230519 76.8848 
L 309.719882 76.716776 
L 310.464564 76.800892 
L 311.209246 76.496968 
L 311.581587 76.236896 
L 312.698609 76.413354 
L 314.932654 76.979299 
L 316.422018 76.57901 
L 316.794358 76.493526 
L 317.911381 76.754391 
L 318.283722 76.745514 
L 318.656063 76.562826 
L 319.400744 76.527124 
L 320.517767 76.050704 
L 320.890108 75.95586 
L 321.634789 76.07317 
L 322.751812 75.706354 
L 323.124153 75.85183 
L 324.613516 75.760182 
L 324.985857 75.613379 
L 325.730539 75.78903 
L 326.10288 75.776743 
L 326.47522 75.896702 
L 327.592243 75.77242 
L 327.964584 75.835584 
L 328.336925 75.755255 
L 328.709265 75.875809 
L 329.826288 75.541865 
L 330.57097 75.633438 
L 332.060333 75.07632 
L 332.432674 74.999544 
L 332.805015 75.17355 
L 333.177356 75.210426 
L 333.549696 74.997632 
L 334.294378 75.133902 
L 335.03906 75.395245 
L 336.156082 75.576419 
L 337.645446 76.768927 
L 338.017786 76.989763 
L 338.762468 77.045747 
L 339.50715 76.865006 
L 340.624172 76.639306 
L 341.741195 77.134277 
L 342.485877 77.767414 
L 343.230558 77.86637 
L 344.719922 77.365062 
L 345.092262 77.171333 
L 345.836944 77.105889 
L 346.209285 77.184505 
L 346.953967 77.583095 
L 347.326308 77.621756 
L 348.815671 77.233209 
L 349.932693 76.923219 
L 350.305034 77.000036 
L 351.794398 77.863068 
L 353.283761 77.805043 
L 354.773124 78.102993 
L 355.517806 78.492121 
L 356.262488 78.506456 
L 357.007169 78.581532 
L 357.37951 78.734077 
L 358.868874 78.649732 
L 359.613555 78.797101 
L 360.730578 79.150872 
L 361.102919 79.34974 
L 361.47526 79.367324 
L 362.219941 79.205375 
L 364.081645 79.518268 
L 365.198668 80.221579 
L 365.94335 79.997064 
L 366.688031 79.823997 
L 368.549736 80.109077 
L 369.294417 80.627078 
L 370.039099 80.769837 
L 370.783781 80.575574 
L 371.900803 80.864503 
L 372.645485 81.005075 
L 373.017826 81.373632 
L 374.507189 82.027668 
L 375.251871 82.052966 
L 375.624212 82.172099 
L 375.996552 82.148334 
L 377.113575 82.357944 
L 377.485916 82.4101 
L 378.230597 82.753959 
L 378.975279 82.898259 
L 380.464643 82.305533 
L 381.209324 82.8 
L 381.209324 82.8 
" style="fill:none;stroke:#1f77b4;stroke-linecap:square;stroke-width:1.5;"/>
   </g>
   <g id="line2d_16">
    <path clip-path="url(#p44995440f6)" d="M 34.56 82.8 
L 414.72 82.8 
" style="fill:none;stroke:#000000;stroke-dasharray:1.5,2.475;stroke-dashoffset:0;stroke-width:1.5;"/>
   </g>
   <g id="patch_3">
    <path d="M 34.56 162 
L 34.56 3.6 
" style="fill:none;stroke:#000000;stroke-linecap:square;stroke-linejoin:miter;stroke-width:0.8;"/>
   </g>
   <g id="patch_4">
    <path d="M 414.72 162 
L 414.72 3.6 
" style="fill:none;stroke:#000000;stroke-linecap:square;stroke-linejoin:miter;stroke-width:0.8;"/>
   </g>
   <g id="patch_5">
    <path d="M 34.56 162 
L 414.72 162 
" style="fill:none;stroke:#000000;stroke-linecap:square;stroke-linejoin:miter;stroke-width:0.8;"/>
   </g>
   <g id="patch_6">
    <path d="M 34.56 3.6 
L 414.72 3.6 
" style="fill:none;stroke:#000000;stroke-linecap:square;stroke-linejoin:miter;stroke-width:0.8;"/>
   </g>
  </g>
 </g>
 <defs>
  <clipPath id="p44995440f6">
   <rect height="158.4" width="380.16" x="34.56" y="3.6"/>
  </clipPath>
 </defs>
</svg>
