<?xml version="1.0" encoding="utf-8" standalone="no"?>
<!DOCTYPE svg PUBLIC "-//W3C//DTD SVG 1.1//EN"
  "http://www.w3.org/Graphics/SVG/1.1/DTD/svg11.dtd">
<svg height="180pt" version="1.1" viewBox="0 0 432 180" width="432pt" xmlns="http://www.w3.org/2000/svg" xmlns:xlink="http://www.w3.org/1999/xlink">
 <metadata>
  <rdf:RDF xmlns:cc="http://creativecommons.org/ns#" xmlns:dc="http://purl.org/dc/elements/1.1/" xmlns:rdf="http://www.w3.org/1999/02/22-rdf-syntax-ns#">
   <cc:Work>
    <dc:type rdf:resource="http://purl.org/dc/dcmitype/StillImage"/>
    <dc:date>2021-08-12T10:41:47.617571</dc:date>
    <dc:format>image/svg+xml</dc:format>
    <dc:creator>
     <cc:Agent>
      <dc:title>Matplotlib v3.4.2, https://matplotlib.org/</dc:title>
     </cc:Agent>
    </dc:creator>
   </cc:Work>
  </rdf:RDF>
 </metadata>
 <defs>
  <style type="text/css">*{stroke-linecap:butt;stroke-linejoin:round;}</style>
 </defs>
 <g id="figure_1">
  <g id="patch_1">
   <path d="M 0 180 
L 432 180 
L 432 0 
L 0 0 
z
" style="fill:#ffffff;"/>
  </g>
  <g id="axes_1">
   <g id="patch_2">
    <path d="M 34.56 162 
L 414.72 162 
L 414.72 3.6 
L 34.56 3.6 
z
" style="fill:#ffffff;"/>
   </g>
   <g id="PolyCollection_1">
    <defs>
     <path d="M 75.38864 -97.657142 
L 75.38864 -96.742858 
L 75.842291 -96.287797 
L 76.295943 -95.834122 
L 76.749594 -95.381832 
L 77.203246 -94.930927 
L 77.656897 -94.481407 
L 78.110549 -94.033273 
L 78.5642 -93.586524 
L 79.017852 -93.14116 
L 79.471504 -92.697181 
L 79.925155 -92.254588 
L 80.378807 -91.81338 
L 80.832458 -91.373557 
L 81.28611 -90.93512 
L 81.739761 -90.498067 
L 82.193413 -90.0624 
L 82.647064 -89.628119 
L 83.100716 -89.195222 
L 83.554368 -88.763711 
L 84.008019 -88.333585 
L 84.461671 -87.904844 
L 84.915322 -87.477489 
L 85.368974 -87.051519 
L 85.822625 -86.626934 
L 86.276277 -86.203735 
L 86.729928 -85.78192 
L 87.18358 -85.361491 
L 87.637232 -84.942448 
L 88.090883 -84.524789 
L 88.544535 -84.108516 
L 88.998186 -83.693628 
L 89.451838 -83.280125 
L 89.905489 -82.868008 
L 90.359141 -82.457276 
L 90.812792 -82.047929 
L 91.266444 -81.639967 
L 91.720095 -81.233391 
L 92.173747 -80.8282 
L 92.627399 -80.424394 
L 93.08105 -80.021973 
L 93.534702 -79.620938 
L 93.988353 -79.221288 
L 94.442005 -78.823024 
L 94.895656 -78.426144 
L 95.349308 -78.03065 
L 95.802959 -77.636541 
L 96.256611 -77.243817 
L 96.710263 -76.852479 
L 97.163914 -76.462526 
L 97.617566 -76.073958 
L 98.071217 -75.686775 
L 98.524869 -75.300978 
L 98.97852 -74.916566 
L 99.432172 -74.533539 
L 99.885823 -74.151898 
L 100.339475 -73.771642 
L 100.793126 -73.392771 
L 101.246778 -73.015285 
L 101.70043 -72.639184 
L 102.154081 -72.264469 
L 102.607733 -71.891139 
L 103.061384 -71.519195 
L 103.515036 -71.148635 
L 103.968687 -70.779461 
L 104.422339 -70.411673 
L 104.87599 -70.045269 
L 105.329642 -69.680251 
L 105.783294 -69.316618 
L 106.236945 -68.95437 
L 106.690597 -68.593507 
L 107.144248 -68.23403 
L 107.5979 -67.875938 
L 108.051551 -67.519232 
L 108.505203 -67.16391 
L 108.958854 -66.809974 
L 109.412506 -66.457423 
L 109.866158 -66.106258 
L 110.319809 -65.756477 
L 110.773461 -65.408082 
L 111.227112 -65.061073 
L 111.680764 -64.715448 
L 112.134415 -64.371209 
L 112.588067 -64.028355 
L 113.041718 -63.686886 
L 113.49537 -63.346803 
L 113.949021 -63.008104 
L 114.402673 -62.670792 
L 114.856325 -62.334864 
L 115.309976 -62.000322 
L 115.763628 -61.667164 
L 116.217279 -61.335393 
L 116.670931 -61.005006 
L 117.124582 -60.676005 
L 117.578234 -60.348389 
L 118.031885 -60.022158 
L 118.485537 -59.697312 
L 118.939189 -59.373852 
L 119.39284 -59.051777 
L 119.846492 -58.731088 
L 120.300143 -58.411783 
L 120.753795 -58.093864 
L 121.207446 -57.77733 
L 121.661098 -57.462182 
L 122.114749 -57.148418 
L 122.568401 -56.83604 
L 123.022053 -56.525047 
L 123.475704 -56.21544 
L 123.929356 -55.907218 
L 124.383007 -55.600381 
L 124.836659 -55.294929 
L 125.29031 -54.990862 
L 125.743962 -54.688181 
L 126.197613 -54.386885 
L 126.651265 -54.086975 
L 127.104916 -53.788449 
L 127.558568 -53.491309 
L 128.01222 -53.195554 
L 128.465871 -52.901185 
L 128.919523 -52.6082 
L 129.373174 -52.316601 
L 129.826826 -52.026388 
L 130.280477 -51.737559 
L 130.734129 -51.450116 
L 131.18778 -51.164058 
L 131.641432 -50.879385 
L 132.095084 -50.596098 
L 132.548735 -50.314196 
L 133.002387 -50.033679 
L 133.456038 -49.754547 
L 133.90969 -49.476801 
L 134.363341 -49.20044 
L 134.816993 -48.925464 
L 135.270644 -48.651873 
L 135.724296 -48.379668 
L 136.177947 -48.108848 
L 136.631599 -47.839413 
L 137.085251 -47.571364 
L 137.538902 -47.3047 
L 137.992554 -47.039421 
L 138.446205 -46.775527 
L 138.899857 -46.513019 
L 139.353508 -46.251895 
L 139.80716 -45.992158 
L 140.260811 -45.733805 
L 140.714463 -45.476838 
L 141.168115 -45.221256 
L 141.621766 -44.967059 
L 142.075418 -44.714247 
L 142.529069 -44.462821 
L 142.982721 -44.21278 
L 143.436372 -43.964124 
L 143.890024 -43.716854 
L 144.343675 -43.470969 
L 144.797327 -43.226469 
L 145.250979 -42.983354 
L 145.70463 -42.741625 
L 146.158282 -42.501281 
L 146.611933 -42.262322 
L 147.065585 -42.024748 
L 147.519236 -41.78856 
L 147.972888 -41.553757 
L 148.426539 -41.320339 
L 148.880191 -41.088307 
L 149.333842 -40.857659 
L 149.787494 -40.628397 
L 150.241146 -40.400521 
L 150.694797 -40.174029 
L 151.148449 -39.948923 
L 151.6021 -39.725202 
L 152.055752 -39.502867 
L 152.509403 -39.281916 
L 152.963055 -39.062351 
L 153.416706 -38.844172 
L 153.870358 -38.627377 
L 154.32401 -38.411968 
L 154.777661 -38.197944 
L 155.231313 -37.985305 
L 155.684964 -37.774052 
L 156.138616 -37.564183 
L 156.592267 -37.3557 
L 157.045919 -37.148603 
L 157.49957 -36.94289 
L 157.953222 -36.738563 
L 158.406874 -36.535621 
L 158.860525 -36.334065 
L 159.314177 -36.133893 
L 159.767828 -35.935107 
L 160.22148 -35.737707 
L 160.675131 -35.541691 
L 161.128783 -35.347061 
L 161.582434 -35.153816 
L 162.036086 -34.961956 
L 162.489737 -34.771482 
L 162.943389 -34.582393 
L 163.397041 -34.394689 
L 163.850692 -34.20837 
L 164.304344 -34.023437 
L 164.757995 -33.839889 
L 165.211647 -33.657726 
L 165.665298 -33.476948 
L 166.11895 -33.297556 
L 166.572601 -33.119549 
L 167.026253 -32.942927 
L 167.479905 -32.767691 
L 167.933556 -32.59384 
L 168.387208 -32.421374 
L 168.840859 -32.250293 
L 169.294511 -32.080598 
L 169.748162 -31.912287 
L 170.201814 -31.745363 
L 170.655465 -31.579823 
L 171.109117 -31.415669 
L 171.562768 -31.2529 
L 172.01642 -31.091516 
L 172.470072 -30.931517 
L 172.923723 -30.772904 
L 173.377375 -30.615676 
L 173.831026 -30.459833 
L 174.284678 -30.305376 
L 174.738329 -30.152304 
L 175.191981 -30.000617 
L 175.645632 -29.850315 
L 176.099284 -29.701399 
L 176.552936 -29.553868 
L 177.006587 -29.407722 
L 177.460239 -29.262961 
L 177.91389 -29.119586 
L 178.367542 -28.977596 
L 178.821193 -28.836991 
L 179.274845 -28.697772 
L 179.728496 -28.559937 
L 180.182148 -28.423488 
L 180.6358 -28.288425 
L 181.089451 -28.154746 
L 181.543103 -28.022453 
L 181.996754 -27.891545 
L 182.450406 -27.762023 
L 182.904057 -27.633885 
L 183.357709 -27.507133 
L 183.81136 -27.381766 
L 184.265012 -27.257785 
L 184.718663 -27.135189 
L 185.172315 -27.013978 
L 185.625967 -26.894152 
L 186.079618 -26.775711 
L 186.53327 -26.658656 
L 186.986921 -26.542986 
L 187.440573 -26.428702 
L 187.894224 -26.315802 
L 188.347876 -26.204288 
L 188.801527 -26.094159 
L 189.255179 -25.985416 
L 189.708831 -25.878057 
L 190.162482 -25.772084 
L 190.616134 -25.667497 
L 191.069785 -25.564294 
L 191.523437 -25.462477 
L 191.977088 -25.362045 
L 192.43074 -25.262998 
L 192.884391 -25.165337 
L 193.338043 -25.06906 
L 193.791695 -24.97417 
L 194.245346 -24.880664 
L 194.698998 -24.788544 
L 195.152649 -24.697809 
L 195.606301 -24.608459 
L 196.059952 -24.520494 
L 196.513604 -24.433915 
L 196.967255 -24.348721 
L 197.420907 -24.264912 
L 197.874558 -24.182489 
L 198.32821 -24.10145 
L 198.781862 -24.021797 
L 199.235513 -23.94353 
L 199.689165 -23.866647 
L 200.142816 -23.79115 
L 200.596468 -23.717038 
L 201.050119 -23.644312 
L 201.503771 -23.57297 
L 201.957422 -23.503014 
L 202.411074 -23.434444 
L 202.864726 -23.367258 
L 203.318377 -23.301458 
L 203.772029 -23.237043 
L 204.22568 -23.174013 
L 204.679332 -23.112369 
L 205.132983 -23.052109 
L 205.586635 -22.993235 
L 206.040286 -22.935747 
L 206.493938 -22.879643 
L 206.947589 -22.824925 
L 207.401241 -22.771593 
L 207.854893 -22.719645 
L 208.308544 -22.669083 
L 208.762196 -22.619906 
L 209.215847 -22.572114 
L 209.669499 -22.525707 
L 210.12315 -22.480686 
L 210.576802 -22.43705 
L 211.030453 -22.394799 
L 211.484105 -22.353934 
L 211.937757 -22.314454 
L 212.391408 -22.276359 
L 212.84506 -22.239649 
L 213.298711 -22.204325 
L 213.752363 -22.170386 
L 214.206014 -22.137832 
L 214.659666 -22.106664 
L 215.113317 -22.07688 
L 215.566969 -22.048482 
L 216.020621 -22.02147 
L 216.474272 -21.995842 
L 216.927924 -21.9716 
L 217.381575 -21.948743 
L 217.835227 -21.927271 
L 218.288878 -21.907185 
L 218.74253 -21.888484 
L 219.196181 -21.871168 
L 219.649833 -21.855237 
L 220.103484 -21.840692 
L 220.557136 -21.827532 
L 221.010788 -21.815757 
L 221.464439 -21.805368 
L 221.918091 -21.796363 
L 222.371742 -21.788744 
L 222.825394 -21.782511 
L 223.279045 -21.777662 
L 223.732697 -21.774199 
L 224.186348 -21.772121 
L 224.64 -21.771429 
L 225.093652 -21.772121 
L 225.547303 -21.774199 
L 226.000955 -21.777662 
L 226.454606 -21.782511 
L 226.908258 -21.788744 
L 227.361909 -21.796363 
L 227.815561 -21.805368 
L 228.269212 -21.815757 
L 228.722864 -21.827532 
L 229.176516 -21.840692 
L 229.630167 -21.855237 
L 230.083819 -21.871168 
L 230.53747 -21.888484 
L 230.991122 -21.907185 
L 231.444773 -21.927271 
L 231.898425 -21.948743 
L 232.352076 -21.9716 
L 232.805728 -21.995842 
L 233.259379 -22.02147 
L 233.713031 -22.048482 
L 234.166683 -22.07688 
L 234.620334 -22.106664 
L 235.073986 -22.137832 
L 235.527637 -22.170386 
L 235.981289 -22.204325 
L 236.43494 -22.239649 
L 236.888592 -22.276359 
L 237.342243 -22.314454 
L 237.795895 -22.353934 
L 238.249547 -22.394799 
L 238.703198 -22.43705 
L 239.15685 -22.480686 
L 239.610501 -22.525707 
L 240.064153 -22.572114 
L 240.517804 -22.619906 
L 240.971456 -22.669083 
L 241.425107 -22.719645 
L 241.878759 -22.771593 
L 242.332411 -22.824925 
L 242.786062 -22.879643 
L 243.239714 -22.935747 
L 243.693365 -22.993235 
L 244.147017 -23.052109 
L 244.600668 -23.112369 
L 245.05432 -23.174013 
L 245.507971 -23.237043 
L 245.961623 -23.301458 
L 246.415274 -23.367258 
L 246.868926 -23.434444 
L 247.322578 -23.503014 
L 247.776229 -23.57297 
L 248.229881 -23.644312 
L 248.683532 -23.717038 
L 249.137184 -23.79115 
L 249.590835 -23.866647 
L 250.044487 -23.94353 
L 250.498138 -24.021797 
L 250.95179 -24.10145 
L 251.405442 -24.182489 
L 251.859093 -24.264912 
L 252.312745 -24.348721 
L 252.766396 -24.433915 
L 253.220048 -24.520494 
L 253.673699 -24.608459 
L 254.127351 -24.697809 
L 254.581002 -24.788544 
L 255.034654 -24.880664 
L 255.488305 -24.97417 
L 255.941957 -25.06906 
L 256.395609 -25.165337 
L 256.84926 -25.262998 
L 257.302912 -25.362045 
L 257.756563 -25.462477 
L 258.210215 -25.564294 
L 258.663866 -25.667497 
L 259.117518 -25.772084 
L 259.571169 -25.878057 
L 260.024821 -25.985416 
L 260.478473 -26.094159 
L 260.932124 -26.204288 
L 261.385776 -26.315802 
L 261.839427 -26.428702 
L 262.293079 -26.542986 
L 262.74673 -26.658656 
L 263.200382 -26.775711 
L 263.654033 -26.894152 
L 264.107685 -27.013978 
L 264.561337 -27.135189 
L 265.014988 -27.257785 
L 265.46864 -27.381766 
L 265.922291 -27.507133 
L 266.375943 -27.633885 
L 266.829594 -27.762023 
L 267.283246 -27.891545 
L 267.736897 -28.022453 
L 268.190549 -28.154746 
L 268.6442 -28.288425 
L 269.097852 -28.423488 
L 269.551504 -28.559937 
L 270.005155 -28.697772 
L 270.458807 -28.836991 
L 270.912458 -28.977596 
L 271.36611 -29.119586 
L 271.819761 -29.262961 
L 272.273413 -29.407722 
L 272.727064 -29.553868 
L 273.180716 -29.701399 
L 273.634368 -29.850315 
L 274.088019 -30.000617 
L 274.541671 -30.152304 
L 274.995322 -30.305376 
L 275.448974 -30.459833 
L 275.902625 -30.615676 
L 276.356277 -30.772904 
L 276.809928 -30.931517 
L 277.26358 -31.091516 
L 277.717232 -31.2529 
L 278.170883 -31.415669 
L 278.624535 -31.579823 
L 279.078186 -31.745363 
L 279.531838 -31.912287 
L 279.985489 -32.080598 
L 280.439141 -32.250293 
L 280.892792 -32.421374 
L 281.346444 -32.59384 
L 281.800095 -32.767691 
L 282.253747 -32.942927 
L 282.707399 -33.119549 
L 283.16105 -33.297556 
L 283.614702 -33.476948 
L 284.068353 -33.657726 
L 284.522005 -33.839889 
L 284.975656 -34.023437 
L 285.429308 -34.20837 
L 285.882959 -34.394689 
L 286.336611 -34.582393 
L 286.790263 -34.771482 
L 287.243914 -34.961956 
L 287.697566 -35.153816 
L 288.151217 -35.347061 
L 288.604869 -35.541691 
L 289.05852 -35.737707 
L 289.512172 -35.935107 
L 289.965823 -36.133893 
L 290.419475 -36.334065 
L 290.873126 -36.535621 
L 291.326778 -36.738563 
L 291.78043 -36.94289 
L 292.234081 -37.148603 
L 292.687733 -37.3557 
L 293.141384 -37.564183 
L 293.595036 -37.774052 
L 294.048687 -37.985305 
L 294.502339 -38.197944 
L 294.95599 -38.411968 
L 295.409642 -38.627377 
L 295.863294 -38.844172 
L 296.316945 -39.062351 
L 296.770597 -39.281916 
L 297.224248 -39.502867 
L 297.6779 -39.725202 
L 298.131551 -39.948923 
L 298.585203 -40.174029 
L 299.038854 -40.400521 
L 299.492506 -40.628397 
L 299.946158 -40.857659 
L 300.399809 -41.088307 
L 300.853461 -41.320339 
L 301.307112 -41.553757 
L 301.760764 -41.78856 
L 302.214415 -42.024748 
L 302.668067 -42.262322 
L 303.121718 -42.501281 
L 303.57537 -42.741625 
L 304.029021 -42.983354 
L 304.482673 -43.226469 
L 304.936325 -43.470969 
L 305.389976 -43.716854 
L 305.843628 -43.964124 
L 306.297279 -44.21278 
L 306.750931 -44.462821 
L 307.204582 -44.714247 
L 307.658234 -44.967059 
L 308.111885 -45.221256 
L 308.565537 -45.476838 
L 309.019189 -45.733805 
L 309.47284 -45.992158 
L 309.926492 -46.251895 
L 310.380143 -46.513019 
L 310.833795 -46.775527 
L 311.287446 -47.039421 
L 311.741098 -47.3047 
L 312.194749 -47.571364 
L 312.648401 -47.839413 
L 313.102053 -48.108848 
L 313.555704 -48.379668 
L 314.009356 -48.651873 
L 314.463007 -48.925464 
L 314.916659 -49.20044 
L 315.37031 -49.476801 
L 315.823962 -49.754547 
L 316.277613 -50.033679 
L 316.731265 -50.314196 
L 317.184916 -50.596098 
L 317.638568 -50.879385 
L 318.09222 -51.164058 
L 318.545871 -51.450116 
L 318.999523 -51.737559 
L 319.453174 -52.026388 
L 319.906826 -52.316601 
L 320.360477 -52.6082 
L 320.814129 -52.901185 
L 321.26778 -53.195554 
L 321.721432 -53.491309 
L 322.175084 -53.788449 
L 322.628735 -54.086975 
L 323.082387 -54.386885 
L 323.536038 -54.688181 
L 323.98969 -54.990862 
L 324.443341 -55.294929 
L 324.896993 -55.600381 
L 325.350644 -55.907218 
L 325.804296 -56.21544 
L 326.257947 -56.525047 
L 326.711599 -56.83604 
L 327.165251 -57.148418 
L 327.618902 -57.462182 
L 328.072554 -57.77733 
L 328.526205 -58.093864 
L 328.979857 -58.411783 
L 329.433508 -58.731088 
L 329.88716 -59.051777 
L 330.340811 -59.373852 
L 330.794463 -59.697312 
L 331.248115 -60.022158 
L 331.701766 -60.348389 
L 332.155418 -60.676005 
L 332.609069 -61.005006 
L 333.062721 -61.335393 
L 333.516372 -61.667164 
L 333.970024 -62.000322 
L 334.423675 -62.334864 
L 334.877327 -62.670792 
L 335.330979 -63.008104 
L 335.78463 -63.346803 
L 336.238282 -63.686886 
L 336.691933 -64.028355 
L 337.145585 -64.371209 
L 337.599236 -64.715448 
L 338.052888 -65.061073 
L 338.506539 -65.408082 
L 338.960191 -65.756477 
L 339.413842 -66.106258 
L 339.867494 -66.457423 
L 340.321146 -66.809974 
L 340.774797 -67.16391 
L 341.228449 -67.519232 
L 341.6821 -67.875938 
L 342.135752 -68.23403 
L 342.589403 -68.593507 
L 343.043055 -68.95437 
L 343.496706 -69.316618 
L 343.950358 -69.680251 
L 344.40401 -70.045269 
L 344.857661 -70.411673 
L 345.311313 -70.779461 
L 345.764964 -71.148635 
L 346.218616 -71.519195 
L 346.672267 -71.891139 
L 347.125919 -72.264469 
L 347.57957 -72.639184 
L 348.033222 -73.015285 
L 348.486874 -73.392771 
L 348.940525 -73.771642 
L 349.394177 -74.151898 
L 349.847828 -74.533539 
L 350.30148 -74.916566 
L 350.755131 -75.300978 
L 351.208783 -75.686775 
L 351.662434 -76.073958 
L 352.116086 -76.462526 
L 352.569737 -76.852479 
L 353.023389 -77.243817 
L 353.477041 -77.636541 
L 353.930692 -78.03065 
L 354.384344 -78.426144 
L 354.837995 -78.823024 
L 355.291647 -79.221288 
L 355.745298 -79.620938 
L 356.19895 -80.021973 
L 356.652601 -80.424394 
L 357.106253 -80.8282 
L 357.559905 -81.233391 
L 358.013556 -81.639967 
L 358.467208 -82.047929 
L 358.920859 -82.457276 
L 359.374511 -82.868008 
L 359.828162 -83.280125 
L 360.281814 -83.693628 
L 360.735465 -84.108516 
L 361.189117 -84.524789 
L 361.642768 -84.942448 
L 362.09642 -85.361491 
L 362.550072 -85.78192 
L 363.003723 -86.203735 
L 363.457375 -86.626934 
L 363.911026 -87.051519 
L 364.364678 -87.477489 
L 364.818329 -87.904844 
L 365.271981 -88.333585 
L 365.725632 -88.763711 
L 366.179284 -89.195222 
L 366.632936 -89.628119 
L 367.086587 -90.0624 
L 367.540239 -90.498067 
L 367.99389 -90.93512 
L 368.447542 -91.373557 
L 368.901193 -91.81338 
L 369.354845 -92.254588 
L 369.808496 -92.697181 
L 370.262148 -93.14116 
L 370.7158 -93.586524 
L 371.169451 -94.033273 
L 371.623103 -94.481407 
L 372.076754 -94.930927 
L 372.530406 -95.381832 
L 372.984057 -95.834122 
L 373.437709 -96.287797 
L 373.89136 -96.742858 
L 373.89136 -97.657142 
L 373.89136 -97.657142 
L 373.437709 -98.112203 
L 372.984057 -98.565878 
L 372.530406 -99.018168 
L 372.076754 -99.469073 
L 371.623103 -99.918593 
L 371.169451 -100.366727 
L 370.7158 -100.813476 
L 370.262148 -101.25884 
L 369.808496 -101.702819 
L 369.354845 -102.145412 
L 368.901193 -102.58662 
L 368.447542 -103.026443 
L 367.99389 -103.46488 
L 367.540239 -103.901933 
L 367.086587 -104.3376 
L 366.632936 -104.771881 
L 366.179284 -105.204778 
L 365.725632 -105.636289 
L 365.271981 -106.066415 
L 364.818329 -106.495156 
L 364.364678 -106.922511 
L 363.911026 -107.348481 
L 363.457375 -107.773066 
L 363.003723 -108.196265 
L 362.550072 -108.61808 
L 362.09642 -109.038509 
L 361.642768 -109.457552 
L 361.189117 -109.875211 
L 360.735465 -110.291484 
L 360.281814 -110.706372 
L 359.828162 -111.119875 
L 359.374511 -111.531992 
L 358.920859 -111.942724 
L 358.467208 -112.352071 
L 358.013556 -112.760033 
L 357.559905 -113.166609 
L 357.106253 -113.5718 
L 356.652601 -113.975606 
L 356.19895 -114.378027 
L 355.745298 -114.779062 
L 355.291647 -115.178712 
L 354.837995 -115.576976 
L 354.384344 -115.973856 
L 353.930692 -116.36935 
L 353.477041 -116.763459 
L 353.023389 -117.156183 
L 352.569737 -117.547521 
L 352.116086 -117.937474 
L 351.662434 -118.326042 
L 351.208783 -118.713225 
L 350.755131 -119.099022 
L 350.30148 -119.483434 
L 349.847828 -119.866461 
L 349.394177 -120.248102 
L 348.940525 -120.628358 
L 348.486874 -121.007229 
L 348.033222 -121.384715 
L 347.57957 -121.760816 
L 347.125919 -122.135531 
L 346.672267 -122.508861 
L 346.218616 -122.880805 
L 345.764964 -123.251365 
L 345.311313 -123.620539 
L 344.857661 -123.988327 
L 344.40401 -124.354731 
L 343.950358 -124.719749 
L 343.496706 -125.083382 
L 343.043055 -125.44563 
L 342.589403 -125.806493 
L 342.135752 -126.16597 
L 341.6821 -126.524062 
L 341.228449 -126.880768 
L 340.774797 -127.23609 
L 340.321146 -127.590026 
L 339.867494 -127.942577 
L 339.413842 -128.293742 
L 338.960191 -128.643523 
L 338.506539 -128.991918 
L 338.052888 -129.338927 
L 337.599236 -129.684552 
L 337.145585 -130.028791 
L 336.691933 -130.371645 
L 336.238282 -130.713114 
L 335.78463 -131.053197 
L 335.330979 -131.391896 
L 334.877327 -131.729208 
L 334.423675 -132.065136 
L 333.970024 -132.399678 
L 333.516372 -132.732836 
L 333.062721 -133.064607 
L 332.609069 -133.394994 
L 332.155418 -133.723995 
L 331.701766 -134.051611 
L 331.248115 -134.377842 
L 330.794463 -134.702688 
L 330.340811 -135.026148 
L 329.88716 -135.348223 
L 329.433508 -135.668912 
L 328.979857 -135.988217 
L 328.526205 -136.306136 
L 328.072554 -136.62267 
L 327.618902 -136.937818 
L 327.165251 -137.251582 
L 326.711599 -137.56396 
L 326.257947 -137.874953 
L 325.804296 -138.18456 
L 325.350644 -138.492782 
L 324.896993 -138.799619 
L 324.443341 -139.105071 
L 323.98969 -139.409138 
L 323.536038 -139.711819 
L 323.082387 -140.013115 
L 322.628735 -140.313025 
L 322.175084 -140.611551 
L 321.721432 -140.908691 
L 321.26778 -141.204446 
L 320.814129 -141.498815 
L 320.360477 -141.7918 
L 319.906826 -142.083399 
L 319.453174 -142.373612 
L 318.999523 -142.662441 
L 318.545871 -142.949884 
L 318.09222 -143.235942 
L 317.638568 -143.520615 
L 317.184916 -143.803902 
L 316.731265 -144.085804 
L 316.277613 -144.366321 
L 315.823962 -144.645453 
L 315.37031 -144.923199 
L 314.916659 -145.19956 
L 314.463007 -145.474536 
L 314.009356 -145.748127 
L 313.555704 -146.020332 
L 313.102053 -146.291152 
L 312.648401 -146.560587 
L 312.194749 -146.828636 
L 311.741098 -147.0953 
L 311.287446 -147.360579 
L 310.833795 -147.624473 
L 310.380143 -147.886981 
L 309.926492 -148.148105 
L 309.47284 -148.407842 
L 309.019189 -148.666195 
L 308.565537 -148.923162 
L 308.111885 -149.178744 
L 307.658234 -149.432941 
L 307.204582 -149.685753 
L 306.750931 -149.937179 
L 306.297279 -150.18722 
L 305.843628 -150.435876 
L 305.389976 -150.683146 
L 304.936325 -150.929031 
L 304.482673 -151.173531 
L 304.029021 -151.416646 
L 303.57537 -151.658375 
L 303.121718 -151.898719 
L 302.668067 -152.137678 
L 302.214415 -152.375252 
L 301.760764 -152.61144 
L 301.307112 -152.846243 
L 300.853461 -153.079661 
L 300.399809 -153.311693 
L 299.946158 -153.542341 
L 299.492506 -153.771603 
L 299.038854 -153.999479 
L 298.585203 -154.225971 
L 298.131551 -154.451077 
L 297.6779 -154.674798 
L 297.224248 -154.897133 
L 296.770597 -155.118084 
L 296.316945 -155.337649 
L 295.863294 -155.555828 
L 295.409642 -155.772623 
L 294.95599 -155.988032 
L 294.502339 -156.202056 
L 294.048687 -156.414695 
L 293.595036 -156.625948 
L 293.141384 -156.835817 
L 292.687733 -157.0443 
L 292.234081 -157.251397 
L 291.78043 -157.45711 
L 291.326778 -157.661437 
L 290.873126 -157.864379 
L 290.419475 -158.065935 
L 289.965823 -158.266107 
L 289.512172 -158.464893 
L 289.05852 -158.662293 
L 288.604869 -158.858309 
L 288.151217 -159.052939 
L 287.697566 -159.246184 
L 287.243914 -159.438044 
L 286.790263 -159.628518 
L 286.336611 -159.817607 
L 285.882959 -160.005311 
L 285.429308 -160.19163 
L 284.975656 -160.376563 
L 284.522005 -160.560111 
L 284.068353 -160.742274 
L 283.614702 -160.923052 
L 283.16105 -161.102444 
L 282.707399 -161.280451 
L 282.253747 -161.457073 
L 281.800095 -161.632309 
L 281.346444 -161.80616 
L 280.892792 -161.978626 
L 280.439141 -162.149707 
L 279.985489 -162.319402 
L 279.531838 -162.487713 
L 279.078186 -162.654637 
L 278.624535 -162.820177 
L 278.170883 -162.984331 
L 277.717232 -163.1471 
L 277.26358 -163.308484 
L 276.809928 -163.468483 
L 276.356277 -163.627096 
L 275.902625 -163.784324 
L 275.448974 -163.940167 
L 274.995322 -164.094624 
L 274.541671 -164.247696 
L 274.088019 -164.399383 
L 273.634368 -164.549685 
L 273.180716 -164.698601 
L 272.727064 -164.846132 
L 272.273413 -164.992278 
L 271.819761 -165.137039 
L 271.36611 -165.280414 
L 270.912458 -165.422404 
L 270.458807 -165.563009 
L 270.005155 -165.702228 
L 269.551504 -165.840063 
L 269.097852 -165.976512 
L 268.6442 -166.111575 
L 268.190549 -166.245254 
L 267.736897 -166.377547 
L 267.283246 -166.508455 
L 266.829594 -166.637977 
L 266.375943 -166.766115 
L 265.922291 -166.892867 
L 265.46864 -167.018234 
L 265.014988 -167.142215 
L 264.561337 -167.264811 
L 264.107685 -167.386022 
L 263.654033 -167.505848 
L 263.200382 -167.624289 
L 262.74673 -167.741344 
L 262.293079 -167.857014 
L 261.839427 -167.971298 
L 261.385776 -168.084198 
L 260.932124 -168.195712 
L 260.478473 -168.305841 
L 260.024821 -168.414584 
L 259.571169 -168.521943 
L 259.117518 -168.627916 
L 258.663866 -168.732503 
L 258.210215 -168.835706 
L 257.756563 -168.937523 
L 257.302912 -169.037955 
L 256.84926 -169.137002 
L 256.395609 -169.234663 
L 255.941957 -169.33094 
L 255.488305 -169.42583 
L 255.034654 -169.519336 
L 254.581002 -169.611456 
L 254.127351 -169.702191 
L 253.673699 -169.791541 
L 253.220048 -169.879506 
L 252.766396 -169.966085 
L 252.312745 -170.051279 
L 251.859093 -170.135088 
L 251.405442 -170.217511 
L 250.95179 -170.29855 
L 250.498138 -170.378203 
L 250.044487 -170.45647 
L 249.590835 -170.533353 
L 249.137184 -170.60885 
L 248.683532 -170.682962 
L 248.229881 -170.755688 
L 247.776229 -170.82703 
L 247.322578 -170.896986 
L 246.868926 -170.965556 
L 246.415274 -171.032742 
L 245.961623 -171.098542 
L 245.507971 -171.162957 
L 245.05432 -171.225987 
L 244.600668 -171.287631 
L 244.147017 -171.347891 
L 243.693365 -171.406765 
L 243.239714 -171.464253 
L 242.786062 -171.520357 
L 242.332411 -171.575075 
L 241.878759 -171.628407 
L 241.425107 -171.680355 
L 240.971456 -171.730917 
L 240.517804 -171.780094 
L 240.064153 -171.827886 
L 239.610501 -171.874293 
L 239.15685 -171.919314 
L 238.703198 -171.96295 
L 238.249547 -172.005201 
L 237.795895 -172.046066 
L 237.342243 -172.085546 
L 236.888592 -172.123641 
L 236.43494 -172.160351 
L 235.981289 -172.195675 
L 235.527637 -172.229614 
L 235.073986 -172.262168 
L 234.620334 -172.293336 
L 234.166683 -172.32312 
L 233.713031 -172.351518 
L 233.259379 -172.37853 
L 232.805728 -172.404158 
L 232.352076 -172.4284 
L 231.898425 -172.451257 
L 231.444773 -172.472729 
L 230.991122 -172.492815 
L 230.53747 -172.511516 
L 230.083819 -172.528832 
L 229.630167 -172.544763 
L 229.176516 -172.559308 
L 228.722864 -172.572468 
L 228.269212 -172.584243 
L 227.815561 -172.594632 
L 227.361909 -172.603637 
L 226.908258 -172.611256 
L 226.454606 -172.617489 
L 226.000955 -172.622338 
L 225.547303 -172.625801 
L 225.093652 -172.627879 
L 224.64 -172.628571 
L 224.186348 -172.627879 
L 223.732697 -172.625801 
L 223.279045 -172.622338 
L 222.825394 -172.617489 
L 222.371742 -172.611256 
L 221.918091 -172.603637 
L 221.464439 -172.594632 
L 221.010788 -172.584243 
L 220.557136 -172.572468 
L 220.103484 -172.559308 
L 219.649833 -172.544763 
L 219.196181 -172.528832 
L 218.74253 -172.511516 
L 218.288878 -172.492815 
L 217.835227 -172.472729 
L 217.381575 -172.451257 
L 216.927924 -172.4284 
L 216.474272 -172.404158 
L 216.020621 -172.37853 
L 215.566969 -172.351518 
L 215.113317 -172.32312 
L 214.659666 -172.293336 
L 214.206014 -172.262168 
L 213.752363 -172.229614 
L 213.298711 -172.195675 
L 212.84506 -172.160351 
L 212.391408 -172.123641 
L 211.937757 -172.085546 
L 211.484105 -172.046066 
L 211.030453 -172.005201 
L 210.576802 -171.96295 
L 210.12315 -171.919314 
L 209.669499 -171.874293 
L 209.215847 -171.827886 
L 208.762196 -171.780094 
L 208.308544 -171.730917 
L 207.854893 -171.680355 
L 207.401241 -171.628407 
L 206.947589 -171.575075 
L 206.493938 -171.520357 
L 206.040286 -171.464253 
L 205.586635 -171.406765 
L 205.132983 -171.347891 
L 204.679332 -171.287631 
L 204.22568 -171.225987 
L 203.772029 -171.162957 
L 203.318377 -171.098542 
L 202.864726 -171.032742 
L 202.411074 -170.965556 
L 201.957422 -170.896986 
L 201.503771 -170.82703 
L 201.050119 -170.755688 
L 200.596468 -170.682962 
L 200.142816 -170.60885 
L 199.689165 -170.533353 
L 199.235513 -170.45647 
L 198.781862 -170.378203 
L 198.32821 -170.29855 
L 197.874558 -170.217511 
L 197.420907 -170.135088 
L 196.967255 -170.051279 
L 196.513604 -169.966085 
L 196.059952 -169.879506 
L 195.606301 -169.791541 
L 195.152649 -169.702191 
L 194.698998 -169.611456 
L 194.245346 -169.519336 
L 193.791695 -169.42583 
L 193.338043 -169.33094 
L 192.884391 -169.234663 
L 192.43074 -169.137002 
L 191.977088 -169.037955 
L 191.523437 -168.937523 
L 191.069785 -168.835706 
L 190.616134 -168.732503 
L 190.162482 -168.627916 
L 189.708831 -168.521943 
L 189.255179 -168.414584 
L 188.801527 -168.305841 
L 188.347876 -168.195712 
L 187.894224 -168.084198 
L 187.440573 -167.971298 
L 186.986921 -167.857014 
L 186.53327 -167.741344 
L 186.079618 -167.624289 
L 185.625967 -167.505848 
L 185.172315 -167.386022 
L 184.718663 -167.264811 
L 184.265012 -167.142215 
L 183.81136 -167.018234 
L 183.357709 -166.892867 
L 182.904057 -166.766115 
L 182.450406 -166.637977 
L 181.996754 -166.508455 
L 181.543103 -166.377547 
L 181.089451 -166.245254 
L 180.6358 -166.111575 
L 180.182148 -165.976512 
L 179.728496 -165.840063 
L 179.274845 -165.702228 
L 178.821193 -165.563009 
L 178.367542 -165.422404 
L 177.91389 -165.280414 
L 177.460239 -165.137039 
L 177.006587 -164.992278 
L 176.552936 -164.846132 
L 176.099284 -164.698601 
L 175.645632 -164.549685 
L 175.191981 -164.399383 
L 174.738329 -164.247696 
L 174.284678 -164.094624 
L 173.831026 -163.940167 
L 173.377375 -163.784324 
L 172.923723 -163.627096 
L 172.470072 -163.468483 
L 172.01642 -163.308484 
L 171.562768 -163.1471 
L 171.109117 -162.984331 
L 170.655465 -162.820177 
L 170.201814 -162.654637 
L 169.748162 -162.487713 
L 169.294511 -162.319402 
L 168.840859 -162.149707 
L 168.387208 -161.978626 
L 167.933556 -161.80616 
L 167.479905 -161.632309 
L 167.026253 -161.457073 
L 166.572601 -161.280451 
L 166.11895 -161.102444 
L 165.665298 -160.923052 
L 165.211647 -160.742274 
L 164.757995 -160.560111 
L 164.304344 -160.376563 
L 163.850692 -160.19163 
L 163.397041 -160.005311 
L 162.943389 -159.817607 
L 162.489737 -159.628518 
L 162.036086 -159.438044 
L 161.582434 -159.246184 
L 161.128783 -159.052939 
L 160.675131 -158.858309 
L 160.22148 -158.662293 
L 159.767828 -158.464893 
L 159.314177 -158.266107 
L 158.860525 -158.065935 
L 158.406874 -157.864379 
L 157.953222 -157.661437 
L 157.49957 -157.45711 
L 157.045919 -157.251397 
L 156.592267 -157.0443 
L 156.138616 -156.835817 
L 155.684964 -156.625948 
L 155.231313 -156.414695 
L 154.777661 -156.202056 
L 154.32401 -155.988032 
L 153.870358 -155.772623 
L 153.416706 -155.555828 
L 152.963055 -155.337649 
L 152.509403 -155.118084 
L 152.055752 -154.897133 
L 151.6021 -154.674798 
L 151.148449 -154.451077 
L 150.694797 -154.225971 
L 150.241146 -153.999479 
L 149.787494 -153.771603 
L 149.333842 -153.542341 
L 148.880191 -153.311693 
L 148.426539 -153.079661 
L 147.972888 -152.846243 
L 147.519236 -152.61144 
L 147.065585 -152.375252 
L 146.611933 -152.137678 
L 146.158282 -151.898719 
L 145.70463 -151.658375 
L 145.250979 -151.416646 
L 144.797327 -151.173531 
L 144.343675 -150.929031 
L 143.890024 -150.683146 
L 143.436372 -150.435876 
L 142.982721 -150.18722 
L 142.529069 -149.937179 
L 142.075418 -149.685753 
L 141.621766 -149.432941 
L 141.168115 -149.178744 
L 140.714463 -148.923162 
L 140.260811 -148.666195 
L 139.80716 -148.407842 
L 139.353508 -148.148105 
L 138.899857 -147.886981 
L 138.446205 -147.624473 
L 137.992554 -147.360579 
L 137.538902 -147.0953 
L 137.085251 -146.828636 
L 136.631599 -146.560587 
L 136.177947 -146.291152 
L 135.724296 -146.020332 
L 135.270644 -145.748127 
L 134.816993 -145.474536 
L 134.363341 -145.19956 
L 133.90969 -144.923199 
L 133.456038 -144.645453 
L 133.002387 -144.366321 
L 132.548735 -144.085804 
L 132.095084 -143.803902 
L 131.641432 -143.520615 
L 131.18778 -143.235942 
L 130.734129 -142.949884 
L 130.280477 -142.662441 
L 129.826826 -142.373612 
L 129.373174 -142.083399 
L 128.919523 -141.7918 
L 128.465871 -141.498815 
L 128.01222 -141.204446 
L 127.558568 -140.908691 
L 127.104916 -140.611551 
L 126.651265 -140.313025 
L 126.197613 -140.013115 
L 125.743962 -139.711819 
L 125.29031 -139.409138 
L 124.836659 -139.105071 
L 124.383007 -138.799619 
L 123.929356 -138.492782 
L 123.475704 -138.18456 
L 123.022053 -137.874953 
L 122.568401 -137.56396 
L 122.114749 -137.251582 
L 121.661098 -136.937818 
L 121.207446 -136.62267 
L 120.753795 -136.306136 
L 120.300143 -135.988217 
L 119.846492 -135.668912 
L 119.39284 -135.348223 
L 118.939189 -135.026148 
L 118.485537 -134.702688 
L 118.031885 -134.377842 
L 117.578234 -134.051611 
L 117.124582 -133.723995 
L 116.670931 -133.394994 
L 116.217279 -133.064607 
L 115.763628 -132.732836 
L 115.309976 -132.399678 
L 114.856325 -132.065136 
L 114.402673 -131.729208 
L 113.949021 -131.391896 
L 113.49537 -131.053197 
L 113.041718 -130.713114 
L 112.588067 -130.371645 
L 112.134415 -130.028791 
L 111.680764 -129.684552 
L 111.227112 -129.338927 
L 110.773461 -128.991918 
L 110.319809 -128.643523 
L 109.866158 -128.293742 
L 109.412506 -127.942577 
L 108.958854 -127.590026 
L 108.505203 -127.23609 
L 108.051551 -126.880768 
L 107.5979 -126.524062 
L 107.144248 -126.16597 
L 106.690597 -125.806493 
L 106.236945 -125.44563 
L 105.783294 -125.083382 
L 105.329642 -124.719749 
L 104.87599 -124.354731 
L 104.422339 -123.988327 
L 103.968687 -123.620539 
L 103.515036 -123.251365 
L 103.061384 -122.880805 
L 102.607733 -122.508861 
L 102.154081 -122.135531 
L 101.70043 -121.760816 
L 101.246778 -121.384715 
L 100.793126 -121.007229 
L 100.339475 -120.628358 
L 99.885823 -120.248102 
L 99.432172 -119.866461 
L 98.97852 -119.483434 
L 98.524869 -119.099022 
L 98.071217 -118.713225 
L 97.617566 -118.326042 
L 97.163914 -117.937474 
L 96.710263 -117.547521 
L 96.256611 -117.156183 
L 95.802959 -116.763459 
L 95.349308 -116.36935 
L 94.895656 -115.973856 
L 94.442005 -115.576976 
L 93.988353 -115.178712 
L 93.534702 -114.779062 
L 93.08105 -114.378027 
L 92.627399 -113.975606 
L 92.173747 -113.5718 
L 91.720095 -113.166609 
L 91.266444 -112.760033 
L 90.812792 -112.352071 
L 90.359141 -111.942724 
L 89.905489 -111.531992 
L 89.451838 -111.119875 
L 88.998186 -110.706372 
L 88.544535 -110.291484 
L 88.090883 -109.875211 
L 87.637232 -109.457552 
L 87.18358 -109.038509 
L 86.729928 -108.61808 
L 86.276277 -108.196265 
L 85.822625 -107.773066 
L 85.368974 -107.348481 
L 84.915322 -106.922511 
L 84.461671 -106.495156 
L 84.008019 -106.066415 
L 83.554368 -105.636289 
L 83.100716 -105.204778 
L 82.647064 -104.771881 
L 82.193413 -104.3376 
L 81.739761 -103.901933 
L 81.28611 -103.46488 
L 80.832458 -103.026443 
L 80.378807 -102.58662 
L 79.925155 -102.145412 
L 79.471504 -101.702819 
L 79.017852 -101.25884 
L 78.5642 -100.813476 
L 78.110549 -100.366727 
L 77.656897 -99.918593 
L 77.203246 -99.469073 
L 76.749594 -99.018168 
L 76.295943 -98.565878 
L 75.842291 -98.112203 
L 75.38864 -97.657142 
z
" id="m4d0abf03a5" style="stroke:#0000ff;stroke-opacity:0.1;"/>
    </defs>
    <g clip-path="url(#pdcf4c0b352)">
     <use style="fill:#0000ff;fill-opacity:0.1;stroke:#0000ff;stroke-opacity:0.1;" x="0" xlink:href="#m4d0abf03a5" y="180"/>
    </g>
   </g>
   <g id="matplotlib.axis_1">
    <g id="xtick_1">
     <g id="line2d_1">
      <defs>
       <path d="M 0 0 
L 0 3.5 
" id="md0c2c97a85" style="stroke:#000000;stroke-width:0.8;"/>
      </defs>
      <g>
       <use style="stroke:#000000;stroke-width:0.8;" x="57.923055" xlink:href="#md0c2c97a85" y="162"/>
      </g>
     </g>
     <g id="text_1">
      <!-- 1950 -->
      <g transform="translate(45.198055 176.598438)scale(0.1 -0.1)">
       <defs>
        <path d="M 794 531 
L 1825 531 
L 1825 4091 
L 703 3866 
L 703 4441 
L 1819 4666 
L 2450 4666 
L 2450 531 
L 3481 531 
L 3481 0 
L 794 0 
L 794 531 
z
" id="DejaVuSans-31" transform="scale(0.015625)"/>
        <path d="M 703 97 
L 703 672 
Q 941 559 1184 500 
Q 1428 441 1663 441 
Q 2288 441 2617 861 
Q 2947 1281 2994 2138 
Q 2813 1869 2534 1725 
Q 2256 1581 1919 1581 
Q 1219 1581 811 2004 
Q 403 2428 403 3163 
Q 403 3881 828 4315 
Q 1253 4750 1959 4750 
Q 2769 4750 3195 4129 
Q 3622 3509 3622 2328 
Q 3622 1225 3098 567 
Q 2575 -91 1691 -91 
Q 1453 -91 1209 -44 
Q 966 3 703 97 
z
M 1959 2075 
Q 2384 2075 2632 2365 
Q 2881 2656 2881 3163 
Q 2881 3666 2632 3958 
Q 2384 4250 1959 4250 
Q 1534 4250 1286 3958 
Q 1038 3666 1038 3163 
Q 1038 2656 1286 2365 
Q 1534 2075 1959 2075 
z
" id="DejaVuSans-39" transform="scale(0.015625)"/>
        <path d="M 691 4666 
L 3169 4666 
L 3169 4134 
L 1269 4134 
L 1269 2991 
Q 1406 3038 1543 3061 
Q 1681 3084 1819 3084 
Q 2600 3084 3056 2656 
Q 3513 2228 3513 1497 
Q 3513 744 3044 326 
Q 2575 -91 1722 -91 
Q 1428 -91 1123 -41 
Q 819 9 494 109 
L 494 744 
Q 775 591 1075 516 
Q 1375 441 1709 441 
Q 2250 441 2565 725 
Q 2881 1009 2881 1497 
Q 2881 1984 2565 2268 
Q 2250 2553 1709 2553 
Q 1456 2553 1204 2497 
Q 953 2441 691 2322 
L 691 4666 
z
" id="DejaVuSans-35" transform="scale(0.015625)"/>
        <path d="M 2034 4250 
Q 1547 4250 1301 3770 
Q 1056 3291 1056 2328 
Q 1056 1369 1301 889 
Q 1547 409 2034 409 
Q 2525 409 2770 889 
Q 3016 1369 3016 2328 
Q 3016 3291 2770 3770 
Q 2525 4250 2034 4250 
z
M 2034 4750 
Q 2819 4750 3233 4129 
Q 3647 3509 3647 2328 
Q 3647 1150 3233 529 
Q 2819 -91 2034 -91 
Q 1250 -91 836 529 
Q 422 1150 422 2328 
Q 422 3509 836 4129 
Q 1250 4750 2034 4750 
z
" id="DejaVuSans-30" transform="scale(0.015625)"/>
       </defs>
       <use xlink:href="#DejaVuSans-31"/>
       <use x="63.623047" xlink:href="#DejaVuSans-39"/>
       <use x="127.246094" xlink:href="#DejaVuSans-35"/>
       <use x="190.869141" xlink:href="#DejaVuSans-30"/>
      </g>
     </g>
    </g>
    <g id="xtick_2">
     <g id="line2d_2">
      <g>
       <use style="stroke:#000000;stroke-width:0.8;" x="112.361241" xlink:href="#md0c2c97a85" y="162"/>
      </g>
     </g>
     <g id="text_2">
      <!-- 1960 -->
      <g transform="translate(99.636241 176.598438)scale(0.1 -0.1)">
       <defs>
        <path d="M 2113 2584 
Q 1688 2584 1439 2293 
Q 1191 2003 1191 1497 
Q 1191 994 1439 701 
Q 1688 409 2113 409 
Q 2538 409 2786 701 
Q 3034 994 3034 1497 
Q 3034 2003 2786 2293 
Q 2538 2584 2113 2584 
z
M 3366 4563 
L 3366 3988 
Q 3128 4100 2886 4159 
Q 2644 4219 2406 4219 
Q 1781 4219 1451 3797 
Q 1122 3375 1075 2522 
Q 1259 2794 1537 2939 
Q 1816 3084 2150 3084 
Q 2853 3084 3261 2657 
Q 3669 2231 3669 1497 
Q 3669 778 3244 343 
Q 2819 -91 2113 -91 
Q 1303 -91 875 529 
Q 447 1150 447 2328 
Q 447 3434 972 4092 
Q 1497 4750 2381 4750 
Q 2619 4750 2861 4703 
Q 3103 4656 3366 4563 
z
" id="DejaVuSans-36" transform="scale(0.015625)"/>
       </defs>
       <use xlink:href="#DejaVuSans-31"/>
       <use x="63.623047" xlink:href="#DejaVuSans-39"/>
       <use x="127.246094" xlink:href="#DejaVuSans-36"/>
       <use x="190.869141" xlink:href="#DejaVuSans-30"/>
      </g>
     </g>
    </g>
    <g id="xtick_3">
     <g id="line2d_3">
      <g>
       <use style="stroke:#000000;stroke-width:0.8;" x="166.799427" xlink:href="#md0c2c97a85" y="162"/>
      </g>
     </g>
     <g id="text_3">
      <!-- 1970 -->
      <g transform="translate(154.074427 176.598438)scale(0.1 -0.1)">
       <defs>
        <path d="M 525 4666 
L 3525 4666 
L 3525 4397 
L 1831 0 
L 1172 0 
L 2766 4134 
L 525 4134 
L 525 4666 
z
" id="DejaVuSans-37" transform="scale(0.015625)"/>
       </defs>
       <use xlink:href="#DejaVuSans-31"/>
       <use x="63.623047" xlink:href="#DejaVuSans-39"/>
       <use x="127.246094" xlink:href="#DejaVuSans-37"/>
       <use x="190.869141" xlink:href="#DejaVuSans-30"/>
      </g>
     </g>
    </g>
    <g id="xtick_4">
     <g id="line2d_4">
      <g>
       <use style="stroke:#000000;stroke-width:0.8;" x="221.237613" xlink:href="#md0c2c97a85" y="162"/>
      </g>
     </g>
     <g id="text_4">
      <!-- 1980 -->
      <g transform="translate(208.512613 176.598438)scale(0.1 -0.1)">
       <defs>
        <path d="M 2034 2216 
Q 1584 2216 1326 1975 
Q 1069 1734 1069 1313 
Q 1069 891 1326 650 
Q 1584 409 2034 409 
Q 2484 409 2743 651 
Q 3003 894 3003 1313 
Q 3003 1734 2745 1975 
Q 2488 2216 2034 2216 
z
M 1403 2484 
Q 997 2584 770 2862 
Q 544 3141 544 3541 
Q 544 4100 942 4425 
Q 1341 4750 2034 4750 
Q 2731 4750 3128 4425 
Q 3525 4100 3525 3541 
Q 3525 3141 3298 2862 
Q 3072 2584 2669 2484 
Q 3125 2378 3379 2068 
Q 3634 1759 3634 1313 
Q 3634 634 3220 271 
Q 2806 -91 2034 -91 
Q 1263 -91 848 271 
Q 434 634 434 1313 
Q 434 1759 690 2068 
Q 947 2378 1403 2484 
z
M 1172 3481 
Q 1172 3119 1398 2916 
Q 1625 2713 2034 2713 
Q 2441 2713 2670 2916 
Q 2900 3119 2900 3481 
Q 2900 3844 2670 4047 
Q 2441 4250 2034 4250 
Q 1625 4250 1398 4047 
Q 1172 3844 1172 3481 
z
" id="DejaVuSans-38" transform="scale(0.015625)"/>
       </defs>
       <use xlink:href="#DejaVuSans-31"/>
       <use x="63.623047" xlink:href="#DejaVuSans-39"/>
       <use x="127.246094" xlink:href="#DejaVuSans-38"/>
       <use x="190.869141" xlink:href="#DejaVuSans-30"/>
      </g>
     </g>
    </g>
    <g id="xtick_5">
     <g id="line2d_5">
      <g>
       <use style="stroke:#000000;stroke-width:0.8;" x="275.6758" xlink:href="#md0c2c97a85" y="162"/>
      </g>
     </g>
     <g id="text_5">
      <!-- 1990 -->
      <g transform="translate(262.9508 176.598438)scale(0.1 -0.1)">
       <use xlink:href="#DejaVuSans-31"/>
       <use x="63.623047" xlink:href="#DejaVuSans-39"/>
       <use x="127.246094" xlink:href="#DejaVuSans-39"/>
       <use x="190.869141" xlink:href="#DejaVuSans-30"/>
      </g>
     </g>
    </g>
    <g id="xtick_6">
     <g id="line2d_6">
      <g>
       <use style="stroke:#000000;stroke-width:0.8;" x="330.113986" xlink:href="#md0c2c97a85" y="162"/>
      </g>
     </g>
     <g id="text_6">
      <!-- 2000 -->
      <g transform="translate(317.388986 176.598438)scale(0.1 -0.1)">
       <defs>
        <path d="M 1228 531 
L 3431 531 
L 3431 0 
L 469 0 
L 469 531 
Q 828 903 1448 1529 
Q 2069 2156 2228 2338 
Q 2531 2678 2651 2914 
Q 2772 3150 2772 3378 
Q 2772 3750 2511 3984 
Q 2250 4219 1831 4219 
Q 1534 4219 1204 4116 
Q 875 4013 500 3803 
L 500 4441 
Q 881 4594 1212 4672 
Q 1544 4750 1819 4750 
Q 2544 4750 2975 4387 
Q 3406 4025 3406 3419 
Q 3406 3131 3298 2873 
Q 3191 2616 2906 2266 
Q 2828 2175 2409 1742 
Q 1991 1309 1228 531 
z
" id="DejaVuSans-32" transform="scale(0.015625)"/>
       </defs>
       <use xlink:href="#DejaVuSans-32"/>
       <use x="63.623047" xlink:href="#DejaVuSans-30"/>
       <use x="127.246094" xlink:href="#DejaVuSans-30"/>
       <use x="190.869141" xlink:href="#DejaVuSans-30"/>
      </g>
     </g>
    </g>
    <g id="xtick_7">
     <g id="line2d_7">
      <g>
       <use style="stroke:#000000;stroke-width:0.8;" x="384.552172" xlink:href="#md0c2c97a85" y="162"/>
      </g>
     </g>
     <g id="text_7">
      <!-- 2010 -->
      <g transform="translate(371.827172 176.598438)scale(0.1 -0.1)">
       <use xlink:href="#DejaVuSans-32"/>
       <use x="63.623047" xlink:href="#DejaVuSans-30"/>
       <use x="127.246094" xlink:href="#DejaVuSans-31"/>
       <use x="190.869141" xlink:href="#DejaVuSans-30"/>
      </g>
     </g>
    </g>
   </g>
   <g id="matplotlib.axis_2">
    <g id="ytick_1">
     <g id="line2d_8">
      <defs>
       <path d="M 0 0 
L -3.5 0 
" id="m779e6359e9" style="stroke:#000000;stroke-width:0.8;"/>
      </defs>
      <g>
       <use style="stroke:#000000;stroke-width:0.8;" x="34.56" xlink:href="#m779e6359e9" y="151.838385"/>
      </g>
     </g>
     <g id="text_8">
      <!-- −75 -->
      <g transform="translate(6.455313 155.637604)scale(0.1 -0.1)">
       <defs>
        <path d="M 678 2272 
L 4684 2272 
L 4684 1741 
L 678 1741 
L 678 2272 
z
" id="DejaVuSans-2212" transform="scale(0.015625)"/>
       </defs>
       <use xlink:href="#DejaVuSans-2212"/>
       <use x="83.789062" xlink:href="#DejaVuSans-37"/>
       <use x="147.412109" xlink:href="#DejaVuSans-35"/>
      </g>
     </g>
    </g>
    <g id="ytick_2">
     <g id="line2d_9">
      <g>
       <use style="stroke:#000000;stroke-width:0.8;" x="34.56" xlink:href="#m779e6359e9" y="128.82559"/>
      </g>
     </g>
     <g id="text_9">
      <!-- −50 -->
      <g transform="translate(6.455313 132.624809)scale(0.1 -0.1)">
       <use xlink:href="#DejaVuSans-2212"/>
       <use x="83.789062" xlink:href="#DejaVuSans-35"/>
       <use x="147.412109" xlink:href="#DejaVuSans-30"/>
      </g>
     </g>
    </g>
    <g id="ytick_3">
     <g id="line2d_10">
      <g>
       <use style="stroke:#000000;stroke-width:0.8;" x="34.56" xlink:href="#m779e6359e9" y="105.812795"/>
      </g>
     </g>
     <g id="text_10">
      <!-- −25 -->
      <g transform="translate(6.455313 109.612014)scale(0.1 -0.1)">
       <use xlink:href="#DejaVuSans-2212"/>
       <use x="83.789062" xlink:href="#DejaVuSans-32"/>
       <use x="147.412109" xlink:href="#DejaVuSans-35"/>
      </g>
     </g>
    </g>
    <g id="ytick_4">
     <g id="line2d_11">
      <g>
       <use style="stroke:#000000;stroke-width:0.8;" x="34.56" xlink:href="#m779e6359e9" y="82.8"/>
      </g>
     </g>
     <g id="text_11">
      <!-- 0 -->
      <g transform="translate(21.1975 86.599219)scale(0.1 -0.1)">
       <use xlink:href="#DejaVuSans-30"/>
      </g>
     </g>
    </g>
    <g id="ytick_5">
     <g id="line2d_12">
      <g>
       <use style="stroke:#000000;stroke-width:0.8;" x="34.56" xlink:href="#m779e6359e9" y="59.787205"/>
      </g>
     </g>
     <g id="text_12">
      <!-- 25 -->
      <g transform="translate(14.835 63.586424)scale(0.1 -0.1)">
       <use xlink:href="#DejaVuSans-32"/>
       <use x="63.623047" xlink:href="#DejaVuSans-35"/>
      </g>
     </g>
    </g>
    <g id="ytick_6">
     <g id="line2d_13">
      <g>
       <use style="stroke:#000000;stroke-width:0.8;" x="34.56" xlink:href="#m779e6359e9" y="36.77441"/>
      </g>
     </g>
     <g id="text_13">
      <!-- 50 -->
      <g transform="translate(14.835 40.573629)scale(0.1 -0.1)">
       <use xlink:href="#DejaVuSans-35"/>
       <use x="63.623047" xlink:href="#DejaVuSans-30"/>
      </g>
     </g>
    </g>
    <g id="ytick_7">
     <g id="line2d_14">
      <g>
       <use style="stroke:#000000;stroke-width:0.8;" x="34.56" xlink:href="#m779e6359e9" y="13.761615"/>
      </g>
     </g>
     <g id="text_14">
      <!-- 75 -->
      <g transform="translate(14.835 17.560834)scale(0.1 -0.1)">
       <use xlink:href="#DejaVuSans-37"/>
       <use x="63.623047" xlink:href="#DejaVuSans-35"/>
      </g>
     </g>
    </g>
   </g>
   <g id="line2d_15">
    <path clip-path="url(#pdcf4c0b352)" d="M 75.38864 83.098138 
L 75.842291 83.680154 
L 78.110549 84.636191 
L 78.5642 85.107627 
L 79.925155 85.467862 
L 80.378807 85.306002 
L 82.193413 85.810813 
L 82.647064 85.409044 
L 83.100716 85.290005 
L 84.008019 84.631714 
L 85.368974 84.642107 
L 85.822625 85.410695 
L 86.276277 85.743104 
L 87.18358 85.131563 
L 88.090883 84.981383 
L 88.544535 85.232472 
L 89.451838 85.125294 
L 89.905489 85.019446 
L 90.812792 84.608608 
L 91.720095 85.479857 
L 92.627399 85.248897 
L 93.08105 84.920705 
L 93.534702 84.751121 
L 93.988353 84.40392 
L 94.442005 84.743244 
L 95.802959 84.541515 
L 96.256611 84.591929 
L 97.163914 84.262633 
L 98.071217 84.504722 
L 98.524869 84.857009 
L 99.885823 84.248007 
L 100.339475 84.145818 
L 100.793126 84.443111 
L 101.246778 84.43209 
L 101.70043 84.309063 
L 102.154081 83.967488 
L 102.607733 83.962935 
L 104.422339 83.202081 
L 104.87599 83.013935 
L 105.329642 83.33164 
L 105.783294 83.05774 
L 106.236945 83.228431 
L 107.144248 82.951028 
L 107.5979 82.944218 
L 108.051551 83.207826 
L 108.505203 82.990346 
L 109.412506 83.56563 
L 109.866158 83.992995 
L 110.319809 84.246 
L 111.227112 86.461305 
L 111.680764 86.550948 
L 112.588067 86.509728 
L 113.041718 86.277925 
L 113.49537 86.557208 
L 113.949021 86.571602 
L 114.856325 86.914827 
L 115.309976 86.782405 
L 115.763628 86.470835 
L 116.670931 86.597927 
L 117.124582 86.338047 
L 117.578234 86.463587 
L 118.031885 86.459888 
L 119.39284 85.545341 
L 121.207446 84.155062 
L 121.661098 84.21794 
L 122.114749 84.704367 
L 122.568401 84.552003 
L 123.022053 84.79126 
L 123.475704 84.760994 
L 123.929356 84.486799 
L 124.383007 84.512652 
L 124.836659 84.285113 
L 125.743962 83.382637 
L 126.197613 83.187466 
L 126.651265 82.756295 
L 127.104916 82.800179 
L 127.558568 83.050053 
L 128.01222 83.450075 
L 128.919523 83.92231 
L 129.373174 84.652715 
L 130.280477 84.788661 
L 130.734129 84.512968 
L 131.18778 84.644545 
L 131.641432 84.580929 
L 132.095084 84.39861 
L 133.456038 84.996679 
L 133.90969 85.21748 
L 134.363341 85.201431 
L 135.724296 85.584106 
L 136.177947 85.679196 
L 137.085251 85.535514 
L 137.538902 85.633403 
L 138.446205 86.712416 
L 140.260811 86.283239 
L 140.714463 86.772197 
L 141.168115 86.78801 
L 142.075418 86.386036 
L 142.529069 86.04991 
L 142.982721 86.284343 
L 143.890024 87.003373 
L 144.797327 86.728747 
L 145.250979 86.727642 
L 145.70463 86.589337 
L 146.158282 86.306512 
L 147.065585 86.38103 
L 147.519236 86.175314 
L 147.972888 85.806727 
L 148.426539 85.791405 
L 148.880191 85.630513 
L 150.241146 85.551391 
L 152.055752 84.972605 
L 152.509403 85.493045 
L 152.963055 85.306388 
L 153.416706 85.292291 
L 153.870358 85.459252 
L 154.32401 85.458415 
L 154.777661 85.239823 
L 155.231313 85.244035 
L 155.684964 85.129633 
L 156.138616 85.179726 
L 157.045919 84.995504 
L 157.49957 85.120378 
L 157.953222 84.890981 
L 158.406874 85.108226 
L 159.314177 85.039874 
L 159.767828 85.318921 
L 160.22148 85.135719 
L 160.675131 85.196143 
L 161.128783 85.654622 
L 162.036086 85.408131 
L 162.943389 85.594928 
L 163.397041 85.575797 
L 163.850692 85.669129 
L 164.304344 85.564461 
L 164.757995 85.589775 
L 165.665298 86.080784 
L 166.572601 85.954175 
L 168.387208 84.992137 
L 168.840859 84.713759 
L 169.748162 84.403229 
L 170.201814 84.650285 
L 170.655465 84.528554 
L 171.109117 84.134255 
L 171.562768 84.143948 
L 172.923723 83.338868 
L 173.377375 83.251711 
L 173.831026 83.310479 
L 174.284678 83.549438 
L 174.738329 83.323521 
L 175.645632 83.357265 
L 176.099284 83.151705 
L 176.552936 83.203763 
L 177.460239 82.940619 
L 177.91389 83.286286 
L 178.367542 83.459862 
L 178.821193 83.792721 
L 179.728496 83.640915 
L 180.182148 83.776155 
L 181.089451 83.483389 
L 181.543103 83.350082 
L 181.996754 83.793664 
L 182.450406 83.616434 
L 182.904057 84.12542 
L 183.357709 84.16724 
L 183.81136 83.903572 
L 184.265012 83.946209 
L 185.172315 83.405905 
L 186.079618 83.577034 
L 186.53327 83.989752 
L 186.986921 83.843074 
L 187.894224 83.954631 
L 188.801527 83.769821 
L 189.708831 84.149917 
L 191.069785 84.018851 
L 191.523437 83.736399 
L 192.43074 83.887866 
L 192.884391 83.661236 
L 193.338043 83.873784 
L 193.791695 83.793277 
L 194.698998 84.037088 
L 195.606301 84.275541 
L 196.513604 84.134453 
L 196.967255 84.111006 
L 197.420907 84.629698 
L 197.874558 84.696077 
L 198.781862 84.551165 
L 199.689165 84.419716 
L 200.142816 84.66439 
L 201.050119 84.552192 
L 201.503771 84.537408 
L 202.411074 85.022708 
L 203.318377 85.106531 
L 203.772029 85.359443 
L 205.132983 85.612757 
L 206.040286 85.749547 
L 206.493938 85.421405 
L 206.947589 85.271308 
L 207.854893 84.585606 
L 208.762196 84.390452 
L 209.215847 84.536051 
L 209.669499 84.4354 
L 210.12315 84.773451 
L 210.576802 84.819247 
L 211.030453 84.981019 
L 211.484105 84.885805 
L 213.298711 84.960829 
L 213.752363 84.771975 
L 214.206014 84.398495 
L 215.566969 84.355184 
L 216.474272 84.622748 
L 216.927924 84.519522 
L 218.288878 84.831786 
L 218.74253 84.47436 
L 219.196181 84.474185 
L 219.649833 84.148163 
L 220.103484 84.47736 
L 221.464439 84.352751 
L 221.918091 84.660174 
L 223.279045 84.854145 
L 224.186348 84.631774 
L 224.64 84.619512 
L 225.093652 84.883419 
L 226.000955 84.739529 
L 226.454606 84.530562 
L 227.361909 84.668839 
L 228.269212 84.580964 
L 228.722864 84.600286 
L 229.176516 84.275298 
L 230.083819 84.049081 
L 230.53747 84.157329 
L 230.991122 84.035543 
L 231.444773 83.787797 
L 233.259379 83.571649 
L 234.166683 84.129198 
L 234.620334 84.028637 
L 235.073986 84.268972 
L 235.527637 84.287273 
L 235.981289 84.673814 
L 236.888592 85.088956 
L 237.342243 85.085472 
L 237.795895 84.962637 
L 238.249547 85.213119 
L 238.703198 84.966357 
L 239.15685 85.112932 
L 240.064153 85.003694 
L 240.517804 85.289732 
L 240.971456 85.354005 
L 241.878759 85.107756 
L 242.332411 85.425702 
L 243.239714 85.587502 
L 244.147017 86.166338 
L 244.600668 86.715996 
L 245.05432 86.761578 
L 245.507971 86.53729 
L 245.961623 86.745461 
L 246.415274 87.301211 
L 247.322578 87.500599 
L 247.776229 87.894071 
L 248.229881 87.902496 
L 248.683532 87.778367 
L 250.044487 88.101676 
L 250.498138 88.149353 
L 250.95179 87.965425 
L 251.405442 88.300248 
L 251.859093 88.423351 
L 252.312745 88.250869 
L 252.766396 88.263524 
L 253.220048 88.628775 
L 254.127351 88.504726 
L 254.581002 89.114487 
L 255.941957 89.809577 
L 256.395609 90.232691 
L 257.302912 90.64974 
L 257.756563 90.6605 
L 258.663866 90.431396 
L 259.117518 90.440383 
L 259.571169 90.625279 
L 260.024821 90.521722 
L 260.478473 91.071918 
L 260.932124 91.421124 
L 261.839427 91.70555 
L 262.293079 92.072285 
L 263.654033 91.853382 
L 264.107685 92.051732 
L 265.46864 92.099877 
L 265.922291 91.941558 
L 266.375943 92.209021 
L 267.283246 93.063207 
L 268.190549 93.361108 
L 268.6442 93.258374 
L 270.005155 93.321036 
L 270.458807 93.282448 
L 270.912458 93.014443 
L 271.36611 92.897116 
L 271.819761 93.018869 
L 273.180716 94.725217 
L 274.088019 94.63832 
L 274.541671 94.395038 
L 275.448974 94.15042 
L 275.902625 94.24222 
L 276.356277 94.045695 
L 276.809928 94.013678 
L 277.26358 94.213785 
L 278.624535 95.335285 
L 279.078186 95.567554 
L 279.531838 95.179619 
L 279.985489 95.152649 
L 280.892792 95.516198 
L 282.253747 96.074362 
L 282.707399 96.312835 
L 283.16105 96.369814 
L 283.614702 96.146193 
L 284.068353 96.535715 
L 284.522005 96.53092 
L 285.882959 96.934426 
L 286.336611 96.891701 
L 286.790263 97.05075 
L 287.697566 97.054711 
L 288.151217 97.194944 
L 289.512172 98.829809 
L 289.965823 98.643999 
L 290.873126 98.714371 
L 291.326778 98.654609 
L 291.78043 98.807984 
L 292.687733 99.455787 
L 293.595036 99.665979 
L 294.502339 99.993604 
L 295.409642 100.058102 
L 296.316945 99.98459 
L 296.770597 100.236436 
L 297.6779 100.320617 
L 298.131551 100.563344 
L 298.585203 100.328127 
L 299.492506 100.272862 
L 299.946158 99.897622 
L 300.399809 100.371144 
L 300.853461 100.190311 
L 301.307112 99.821978 
L 301.760764 99.675376 
L 302.214415 99.919986 
L 303.121718 99.870222 
L 303.57537 99.565282 
L 304.482673 99.465147 
L 305.389976 99.664541 
L 306.297279 100.814853 
L 307.204582 100.503078 
L 307.658234 100.47306 
L 308.565537 100.797465 
L 309.47284 100.712666 
L 309.926492 100.952951 
L 310.380143 100.933737 
L 311.287446 101.263549 
L 312.194749 101.360158 
L 312.648401 101.215836 
L 313.102053 101.245878 
L 313.555704 101.570254 
L 314.009356 101.583274 
L 314.916659 101.201672 
L 315.37031 101.270453 
L 315.823962 101.21227 
L 317.184916 102.23261 
L 318.09222 102.286396 
L 318.545871 102.477337 
L 319.453174 102.523219 
L 319.906826 102.175835 
L 320.360477 101.999957 
L 321.26778 102.036718 
L 322.175084 101.885262 
L 323.082387 101.70797 
L 323.536038 101.577027 
L 324.443341 101.461621 
L 324.896993 101.295344 
L 326.257947 101.165844 
L 326.711599 100.832893 
L 327.165251 100.686314 
L 327.618902 100.725009 
L 329.433508 99.962502 
L 330.794463 99.705041 
L 331.701766 99.209585 
L 332.155418 99.525814 
L 332.609069 99.533839 
L 334.423675 98.924224 
L 335.330979 98.913411 
L 335.78463 98.897284 
L 336.238282 98.656629 
L 336.691933 98.567269 
L 337.599236 98.001756 
L 338.960191 97.732642 
L 340.321146 96.97796 
L 341.228449 96.856176 
L 343.950358 95.958945 
L 344.40401 95.875927 
L 344.857661 95.953923 
L 345.764964 95.330019 
L 346.218616 95.423765 
L 346.672267 95.293681 
L 347.125919 95.452787 
L 347.57957 95.252194 
L 348.033222 94.896464 
L 348.486874 94.737418 
L 348.940525 94.713895 
L 350.30148 94.010283 
L 351.208783 94.102975 
L 352.569737 93.703432 
L 353.023389 93.238348 
L 353.477041 92.957229 
L 353.930692 92.532568 
L 354.837995 92.14668 
L 355.291647 92.233762 
L 356.652601 91.636607 
L 358.013556 91.461807 
L 358.920859 90.91599 
L 359.828162 90.689077 
L 360.281814 90.62005 
L 360.735465 90.333968 
L 361.189117 90.362731 
L 363.003723 89.371131 
L 363.457375 89.171598 
L 364.364678 88.974367 
L 364.818329 88.826281 
L 365.271981 88.542782 
L 365.725632 88.486924 
L 366.179284 87.916417 
L 366.632936 87.651267 
L 367.99389 86.393568 
L 368.447542 86.353628 
L 369.808496 85.52609 
L 370.7158 84.681393 
L 371.169451 84.313383 
L 371.623103 84.176485 
L 372.530406 83.528034 
L 372.984057 82.977878 
L 373.89136 82.8 
L 373.89136 82.8 
" style="fill:none;stroke:#1f77b4;stroke-linecap:square;stroke-width:1.5;"/>
   </g>
   <g id="line2d_16">
    <path clip-path="url(#pdcf4c0b352)" d="M 34.56 82.8 
L 414.72 82.8 
" style="fill:none;stroke:#000000;stroke-dasharray:1.5,2.475;stroke-dashoffset:0;stroke-width:1.5;"/>
   </g>
   <g id="patch_3">
    <path d="M 34.56 162 
L 34.56 3.6 
" style="fill:none;stroke:#000000;stroke-linecap:square;stroke-linejoin:miter;stroke-width:0.8;"/>
   </g>
   <g id="patch_4">
    <path d="M 414.72 162 
L 414.72 3.6 
" style="fill:none;stroke:#000000;stroke-linecap:square;stroke-linejoin:miter;stroke-width:0.8;"/>
   </g>
   <g id="patch_5">
    <path d="M 34.56 162 
L 414.72 162 
" style="fill:none;stroke:#000000;stroke-linecap:square;stroke-linejoin:miter;stroke-width:0.8;"/>
   </g>
   <g id="patch_6">
    <path d="M 34.56 3.6 
L 414.72 3.6 
" style="fill:none;stroke:#000000;stroke-linecap:square;stroke-linejoin:miter;stroke-width:0.8;"/>
   </g>
  </g>
 </g>
 <defs>
  <clipPath id="pdcf4c0b352">
   <rect height="158.4" width="380.16" x="34.56" y="3.6"/>
  </clipPath>
 </defs>
</svg>
