<?xml version="1.0" encoding="utf-8" standalone="no"?>
<!DOCTYPE svg PUBLIC "-//W3C//DTD SVG 1.1//EN"
  "http://www.w3.org/Graphics/SVG/1.1/DTD/svg11.dtd">
<svg height="180pt" version="1.1" viewBox="0 0 432 180" width="432pt" xmlns="http://www.w3.org/2000/svg" xmlns:xlink="http://www.w3.org/1999/xlink">
 <metadata>
  <rdf:RDF xmlns:cc="http://creativecommons.org/ns#" xmlns:dc="http://purl.org/dc/elements/1.1/" xmlns:rdf="http://www.w3.org/1999/02/22-rdf-syntax-ns#">
   <cc:Work>
    <dc:type rdf:resource="http://purl.org/dc/dcmitype/StillImage"/>
    <dc:date>2021-08-12T10:43:36.214021</dc:date>
    <dc:format>image/svg+xml</dc:format>
    <dc:creator>
     <cc:Agent>
      <dc:title>Matplotlib v3.4.2, https://matplotlib.org/</dc:title>
     </cc:Agent>
    </dc:creator>
   </cc:Work>
  </rdf:RDF>
 </metadata>
 <defs>
  <style type="text/css">*{stroke-linecap:butt;stroke-linejoin:round;}</style>
 </defs>
 <g id="figure_1">
  <g id="patch_1">
   <path d="M 0 180 
L 432 180 
L 432 0 
L 0 0 
z
" style="fill:#ffffff;"/>
  </g>
  <g id="axes_1">
   <g id="patch_2">
    <path d="M 34.56 162 
L 414.72 162 
L 414.72 3.6 
L 34.56 3.6 
z
" style="fill:#ffffff;"/>
   </g>
   <g id="PolyCollection_1">
    <path clip-path="url(#pa422c9eb5d)" d="M 84.290233 81.97789 
L 84.290233 83.62211 
L 84.842791 84.437481 
L 85.395349 85.248372 
L 85.947907 86.054783 
L 86.500465 86.856714 
L 87.053023 87.654165 
L 87.605581 88.447136 
L 88.15814 89.235627 
L 88.710698 90.019637 
L 89.263256 90.799168 
L 89.815814 91.574219 
L 90.368372 92.344789 
L 90.92093 93.11088 
L 91.473488 93.87249 
L 92.026047 94.62962 
L 92.578605 95.382271 
L 93.131163 96.130441 
L 93.683721 96.874131 
L 94.236279 97.613341 
L 94.788837 98.348071 
L 95.341395 99.078321 
L 95.893953 99.804091 
L 96.446512 100.525381 
L 96.99907 101.242191 
L 97.551628 101.954521 
L 97.551628 63.645479 
L 97.551628 63.645479 
L 96.99907 64.357809 
L 96.446512 65.074619 
L 95.893953 65.795909 
L 95.341395 66.521679 
L 94.788837 67.251929 
L 94.236279 67.986659 
L 93.683721 68.725869 
L 93.131163 69.469559 
L 92.578605 70.217729 
L 92.026047 70.97038 
L 91.473488 71.72751 
L 90.92093 72.48912 
L 90.368372 73.255211 
L 89.815814 74.025781 
L 89.263256 74.800832 
L 88.710698 75.580363 
L 88.15814 76.364373 
L 87.605581 77.152864 
L 87.053023 77.945835 
L 86.500465 78.743286 
L 85.947907 79.545217 
L 85.395349 80.351628 
L 84.842791 81.162519 
L 84.290233 81.97789 
z
" style="fill:#0000ff;fill-opacity:0.1;stroke:#0000ff;stroke-opacity:0.1;"/>
    <path clip-path="url(#pa422c9eb5d)" d="M 98.656744 62.93763 
L 98.656744 102.66237 
L 99.209302 103.36574 
L 99.209302 62.23426 
L 99.209302 62.23426 
L 98.656744 62.93763 
z
" style="fill:#0000ff;fill-opacity:0.1;stroke:#0000ff;stroke-opacity:0.1;"/>
    <path clip-path="url(#pa422c9eb5d)" d="M 100.314419 61.53537 
L 100.314419 104.06463 
L 100.866977 104.759039 
L 101.419535 105.448969 
L 101.972093 106.134418 
L 102.524651 106.815387 
L 103.077209 107.491877 
L 103.629767 108.163886 
L 104.182326 108.831415 
L 104.734884 109.494464 
L 105.287442 110.153033 
L 105.84 110.807122 
L 106.392558 111.456731 
L 106.945116 112.10186 
L 107.497674 112.742509 
L 108.050233 113.378677 
L 108.602791 114.010366 
L 109.155349 114.637574 
L 109.707907 115.260303 
L 110.260465 115.878551 
L 110.813023 116.49232 
L 111.365581 117.101608 
L 111.91814 117.706417 
L 112.470698 118.306745 
L 113.023256 118.902593 
L 113.575814 119.493961 
L 114.128372 120.080849 
L 114.68093 120.663257 
L 115.233488 121.241185 
L 115.786047 121.814633 
L 116.338605 122.383601 
L 116.891163 122.948088 
L 117.443721 123.508096 
L 117.996279 124.063624 
L 118.548837 124.614671 
L 119.101395 125.161239 
L 119.653953 125.703326 
L 120.206512 126.240933 
L 120.75907 126.774061 
L 121.311628 127.302708 
L 121.864186 127.826875 
L 122.416744 128.346562 
L 122.969302 128.861769 
L 123.52186 129.372496 
L 124.074419 129.878743 
L 124.626977 130.38051 
L 125.179535 130.877797 
L 125.732093 131.370604 
L 126.284651 131.85893 
L 126.837209 132.342777 
L 127.389767 132.822144 
L 127.942326 133.29703 
L 128.494884 133.767436 
L 129.047442 134.233363 
L 129.6 134.694809 
L 130.152558 135.151775 
L 130.705116 135.604262 
L 131.257674 136.052268 
L 131.810233 136.495794 
L 132.362791 136.93484 
L 132.915349 137.369406 
L 133.467907 137.799492 
L 134.020465 138.225097 
L 134.573023 138.646223 
L 135.125581 139.062869 
L 135.67814 139.475035 
L 136.230698 139.88272 
L 136.783256 140.285926 
L 137.335814 140.684651 
L 137.888372 141.078897 
L 138.44093 141.468662 
L 138.993488 141.853947 
L 139.546047 142.234752 
L 140.098605 142.611078 
L 140.098605 22.988922 
L 140.098605 22.988922 
L 139.546047 23.365248 
L 138.993488 23.746053 
L 138.44093 24.131338 
L 137.888372 24.521103 
L 137.335814 24.915349 
L 136.783256 25.314074 
L 136.230698 25.71728 
L 135.67814 26.124965 
L 135.125581 26.537131 
L 134.573023 26.953777 
L 134.020465 27.374903 
L 133.467907 27.800508 
L 132.915349 28.230594 
L 132.362791 28.66516 
L 131.810233 29.104206 
L 131.257674 29.547732 
L 130.705116 29.995738 
L 130.152558 30.448225 
L 129.6 30.905191 
L 129.047442 31.366637 
L 128.494884 31.832564 
L 127.942326 32.30297 
L 127.389767 32.777856 
L 126.837209 33.257223 
L 126.284651 33.74107 
L 125.732093 34.229396 
L 125.179535 34.722203 
L 124.626977 35.21949 
L 124.074419 35.721257 
L 123.52186 36.227504 
L 122.969302 36.738231 
L 122.416744 37.253438 
L 121.864186 37.773125 
L 121.311628 38.297292 
L 120.75907 38.825939 
L 120.206512 39.359067 
L 119.653953 39.896674 
L 119.101395 40.438761 
L 118.548837 40.985329 
L 117.996279 41.536376 
L 117.443721 42.091904 
L 116.891163 42.651912 
L 116.338605 43.216399 
L 115.786047 43.785367 
L 115.233488 44.358815 
L 114.68093 44.936743 
L 114.128372 45.519151 
L 113.575814 46.106039 
L 113.023256 46.697407 
L 112.470698 47.293255 
L 111.91814 47.893583 
L 111.365581 48.498392 
L 110.813023 49.10768 
L 110.260465 49.721449 
L 109.707907 50.339697 
L 109.155349 50.962426 
L 108.602791 51.589634 
L 108.050233 52.221323 
L 107.497674 52.857491 
L 106.945116 53.49814 
L 106.392558 54.143269 
L 105.84 54.792878 
L 105.287442 55.446967 
L 104.734884 56.105536 
L 104.182326 56.768585 
L 103.629767 57.436114 
L 103.077209 58.108123 
L 102.524651 58.784613 
L 101.972093 59.465582 
L 101.419535 60.151031 
L 100.866977 60.840961 
L 100.314419 61.53537 
z
" style="fill:#0000ff;fill-opacity:0.1;stroke:#0000ff;stroke-opacity:0.1;"/>
    <path clip-path="url(#pa422c9eb5d)" d="M 142.861395 22.617077 
L 142.861395 142.982923 
L 143.413953 143.350288 
L 143.966512 143.713173 
L 144.51907 144.071578 
L 145.071628 144.425502 
L 145.624186 144.774947 
L 146.176744 145.119912 
L 146.729302 145.460397 
L 147.28186 145.796401 
L 147.834419 146.127926 
L 148.386977 146.45497 
L 148.939535 146.777535 
L 149.492093 147.095619 
L 150.044651 147.409223 
L 150.597209 147.718347 
L 151.149767 148.022992 
L 151.702326 148.323156 
L 152.254884 148.61884 
L 152.807442 148.910044 
L 153.36 149.196768 
L 153.912558 149.479012 
L 154.465116 149.756775 
L 155.017674 150.030059 
L 155.570233 150.298863 
L 156.122791 150.563186 
L 156.675349 150.82303 
L 157.227907 151.078394 
L 157.780465 151.329277 
L 158.333023 151.57568 
L 158.885581 151.817604 
L 159.43814 152.055047 
L 159.990698 152.28801 
L 160.543256 152.516493 
L 161.095814 152.740496 
L 161.648372 152.960019 
L 162.20093 153.175062 
L 162.753488 153.385625 
L 163.306047 153.591708 
L 163.858605 153.793311 
L 164.411163 153.990433 
L 164.963721 154.183076 
L 165.516279 154.371239 
L 166.068837 154.554921 
L 166.621395 154.734124 
L 167.173953 154.908846 
L 167.726512 155.079088 
L 168.27907 155.244851 
L 168.831628 155.406133 
L 169.384186 155.562935 
L 169.936744 155.715257 
L 170.489302 155.863099 
L 171.04186 156.006461 
L 171.594419 156.145343 
L 172.146977 156.279745 
L 172.699535 156.409667 
L 173.252093 156.535108 
L 173.804651 156.65607 
L 174.357209 156.772551 
L 174.909767 156.884553 
L 175.462326 156.992074 
L 176.014884 157.095116 
L 176.567442 157.193677 
L 177.12 157.287759 
L 177.672558 157.37736 
L 178.225116 157.462481 
L 178.777674 157.543122 
L 179.330233 157.619283 
L 179.882791 157.690964 
L 180.435349 157.758165 
L 180.987907 157.820886 
L 181.540465 157.879127 
L 182.093023 157.932887 
L 182.645581 157.982168 
L 183.19814 158.026969 
L 183.750698 158.067289 
L 184.303256 158.10313 
L 184.855814 158.13449 
L 185.408372 158.161371 
L 185.96093 158.183771 
L 186.513488 158.201691 
L 187.066047 158.215131 
L 187.066047 7.384869 
L 187.066047 7.384869 
L 186.513488 7.398309 
L 185.96093 7.416229 
L 185.408372 7.438629 
L 184.855814 7.46551 
L 184.303256 7.49687 
L 183.750698 7.532711 
L 183.19814 7.573031 
L 182.645581 7.617832 
L 182.093023 7.667113 
L 181.540465 7.720873 
L 180.987907 7.779114 
L 180.435349 7.841835 
L 179.882791 7.909036 
L 179.330233 7.980717 
L 178.777674 8.056878 
L 178.225116 8.137519 
L 177.672558 8.22264 
L 177.12 8.312241 
L 176.567442 8.406323 
L 176.014884 8.504884 
L 175.462326 8.607926 
L 174.909767 8.715447 
L 174.357209 8.827449 
L 173.804651 8.94393 
L 173.252093 9.064892 
L 172.699535 9.190333 
L 172.146977 9.320255 
L 171.594419 9.454657 
L 171.04186 9.593539 
L 170.489302 9.736901 
L 169.936744 9.884743 
L 169.384186 10.037065 
L 168.831628 10.193867 
L 168.27907 10.355149 
L 167.726512 10.520912 
L 167.173953 10.691154 
L 166.621395 10.865876 
L 166.068837 11.045079 
L 165.516279 11.228761 
L 164.963721 11.416924 
L 164.411163 11.609567 
L 163.858605 11.806689 
L 163.306047 12.008292 
L 162.753488 12.214375 
L 162.20093 12.424938 
L 161.648372 12.639981 
L 161.095814 12.859504 
L 160.543256 13.083507 
L 159.990698 13.31199 
L 159.43814 13.544953 
L 158.885581 13.782396 
L 158.333023 14.02432 
L 157.780465 14.270723 
L 157.227907 14.521606 
L 156.675349 14.77697 
L 156.122791 15.036814 
L 155.570233 15.301137 
L 155.017674 15.569941 
L 154.465116 15.843225 
L 153.912558 16.120988 
L 153.36 16.403232 
L 152.807442 16.689956 
L 152.254884 16.98116 
L 151.702326 17.276844 
L 151.149767 17.577008 
L 150.597209 17.881653 
L 150.044651 18.190777 
L 149.492093 18.504381 
L 148.939535 18.822465 
L 148.386977 19.14503 
L 147.834419 19.472074 
L 147.28186 19.803599 
L 146.729302 20.139603 
L 146.176744 20.480088 
L 145.624186 20.825053 
L 145.071628 21.174498 
L 144.51907 21.528422 
L 143.966512 21.886827 
L 143.413953 22.249712 
L 142.861395 22.617077 
z
" style="fill:#0000ff;fill-opacity:0.1;stroke:#0000ff;stroke-opacity:0.1;"/>
    <path clip-path="url(#pa422c9eb5d)" d="M 188.171163 7.375909 
L 188.171163 158.224091 
L 188.723721 158.228571 
L 189.276279 158.228571 
L 189.828837 158.224091 
L 190.381395 158.215131 
L 190.933953 158.201691 
L 191.486512 158.183771 
L 192.03907 158.161371 
L 192.591628 158.13449 
L 193.144186 158.10313 
L 193.696744 158.067289 
L 193.696744 7.532711 
L 193.696744 7.532711 
L 193.144186 7.49687 
L 192.591628 7.46551 
L 192.03907 7.438629 
L 191.486512 7.416229 
L 190.933953 7.398309 
L 190.381395 7.384869 
L 189.828837 7.375909 
L 189.276279 7.371429 
L 188.723721 7.371429 
L 188.171163 7.375909 
z
" style="fill:#0000ff;fill-opacity:0.1;stroke:#0000ff;stroke-opacity:0.1;"/>
    <path clip-path="url(#pa422c9eb5d)" d="M 195.354419 7.573031 
L 195.354419 158.026969 
L 195.906977 157.982168 
L 196.459535 157.932887 
L 197.012093 157.879127 
L 197.564651 157.820886 
L 198.117209 157.758165 
L 198.669767 157.690964 
L 199.222326 157.619283 
L 199.774884 157.543122 
L 199.774884 8.056878 
L 199.774884 8.056878 
L 199.222326 7.980717 
L 198.669767 7.909036 
L 198.117209 7.841835 
L 197.564651 7.779114 
L 197.012093 7.720873 
L 196.459535 7.667113 
L 195.906977 7.617832 
L 195.354419 7.573031 
z
" style="fill:#0000ff;fill-opacity:0.1;stroke:#0000ff;stroke-opacity:0.1;"/>
    <path clip-path="url(#pa422c9eb5d)" d="M 201.432558 8.137519 
L 201.432558 157.462481 
L 201.985116 157.37736 
L 202.537674 157.287759 
L 203.090233 157.193677 
L 203.642791 157.095116 
L 204.195349 156.992074 
L 204.747907 156.884553 
L 205.300465 156.772551 
L 205.853023 156.65607 
L 206.405581 156.535108 
L 206.95814 156.409667 
L 207.510698 156.279745 
L 208.063256 156.145343 
L 208.063256 9.454657 
L 208.063256 9.454657 
L 207.510698 9.320255 
L 206.95814 9.190333 
L 206.405581 9.064892 
L 205.853023 8.94393 
L 205.300465 8.827449 
L 204.747907 8.715447 
L 204.195349 8.607926 
L 203.642791 8.504884 
L 203.090233 8.406323 
L 202.537674 8.312241 
L 201.985116 8.22264 
L 201.432558 8.137519 
z
" style="fill:#0000ff;fill-opacity:0.1;stroke:#0000ff;stroke-opacity:0.1;"/>
    <path clip-path="url(#pa422c9eb5d)" d="M 209.72093 9.593539 
L 209.72093 156.006461 
L 210.273488 155.863099 
L 210.826047 155.715257 
L 211.378605 155.562935 
L 211.931163 155.406133 
L 212.483721 155.244851 
L 213.036279 155.079088 
L 213.588837 154.908846 
L 214.141395 154.734124 
L 214.693953 154.554921 
L 215.246512 154.371239 
L 215.79907 154.183076 
L 216.351628 153.990433 
L 216.904186 153.793311 
L 217.456744 153.591708 
L 218.009302 153.385625 
L 218.56186 153.175062 
L 219.114419 152.960019 
L 219.666977 152.740496 
L 220.219535 152.516493 
L 220.772093 152.28801 
L 221.324651 152.055047 
L 221.877209 151.817604 
L 222.429767 151.57568 
L 222.982326 151.329277 
L 223.534884 151.078394 
L 224.087442 150.82303 
L 224.64 150.563186 
L 225.192558 150.298863 
L 225.745116 150.030059 
L 226.297674 149.756775 
L 226.850233 149.479012 
L 227.402791 149.196768 
L 227.955349 148.910044 
L 228.507907 148.61884 
L 229.060465 148.323156 
L 229.613023 148.022992 
L 230.165581 147.718347 
L 230.71814 147.409223 
L 231.270698 147.095619 
L 231.823256 146.777535 
L 232.375814 146.45497 
L 232.928372 146.127926 
L 233.48093 145.796401 
L 234.033488 145.460397 
L 234.586047 145.119912 
L 235.138605 144.774947 
L 235.691163 144.425502 
L 236.243721 144.071578 
L 236.796279 143.713173 
L 237.348837 143.350288 
L 237.901395 142.982923 
L 238.453953 142.611078 
L 238.453953 22.988922 
L 238.453953 22.988922 
L 237.901395 22.617077 
L 237.348837 22.249712 
L 236.796279 21.886827 
L 236.243721 21.528422 
L 235.691163 21.174498 
L 235.138605 20.825053 
L 234.586047 20.480088 
L 234.033488 20.139603 
L 233.48093 19.803599 
L 232.928372 19.472074 
L 232.375814 19.14503 
L 231.823256 18.822465 
L 231.270698 18.504381 
L 230.71814 18.190777 
L 230.165581 17.881653 
L 229.613023 17.577008 
L 229.060465 17.276844 
L 228.507907 16.98116 
L 227.955349 16.689956 
L 227.402791 16.403232 
L 226.850233 16.120988 
L 226.297674 15.843225 
L 225.745116 15.569941 
L 225.192558 15.301137 
L 224.64 15.036814 
L 224.087442 14.77697 
L 223.534884 14.521606 
L 222.982326 14.270723 
L 222.429767 14.02432 
L 221.877209 13.782396 
L 221.324651 13.544953 
L 220.772093 13.31199 
L 220.219535 13.083507 
L 219.666977 12.859504 
L 219.114419 12.639981 
L 218.56186 12.424938 
L 218.009302 12.214375 
L 217.456744 12.008292 
L 216.904186 11.806689 
L 216.351628 11.609567 
L 215.79907 11.416924 
L 215.246512 11.228761 
L 214.693953 11.045079 
L 214.141395 10.865876 
L 213.588837 10.691154 
L 213.036279 10.520912 
L 212.483721 10.355149 
L 211.931163 10.193867 
L 211.378605 10.037065 
L 210.826047 9.884743 
L 210.273488 9.736901 
L 209.72093 9.593539 
z
" style="fill:#0000ff;fill-opacity:0.1;stroke:#0000ff;stroke-opacity:0.1;"/>
    <path clip-path="url(#pa422c9eb5d)" d="M 239.55907 23.365248 
L 239.55907 142.234752 
L 240.111628 141.853947 
L 240.664186 141.468662 
L 240.664186 24.131338 
L 240.664186 24.131338 
L 240.111628 23.746053 
L 239.55907 23.365248 
z
" style="fill:#0000ff;fill-opacity:0.1;stroke:#0000ff;stroke-opacity:0.1;"/>
    <path clip-path="url(#pa422c9eb5d)" d="M 243.979535 24.521103 
L 243.979535 141.078897 
L 243.979535 24.521103 
L 243.979535 24.521103 
z
" style="fill:#0000ff;fill-opacity:0.1;stroke:#0000ff;stroke-opacity:0.1;"/>
    <path clip-path="url(#pa422c9eb5d)" d="M 313.049302 24.915349 
L 313.049302 140.684651 
L 313.60186 140.285926 
L 314.154419 139.88272 
L 314.706977 139.475035 
L 315.259535 139.062869 
L 315.812093 138.646223 
L 316.364651 138.225097 
L 316.917209 137.799492 
L 317.469767 137.369406 
L 318.022326 136.93484 
L 318.574884 136.495794 
L 319.127442 136.052268 
L 319.68 135.604262 
L 320.232558 135.151775 
L 320.785116 134.694809 
L 321.337674 134.233363 
L 321.890233 133.767436 
L 322.442791 133.29703 
L 322.995349 132.822144 
L 323.547907 132.342777 
L 324.100465 131.85893 
L 324.653023 131.370604 
L 325.205581 130.877797 
L 325.75814 130.38051 
L 326.310698 129.878743 
L 326.863256 129.372496 
L 327.415814 128.861769 
L 327.968372 128.346562 
L 328.52093 127.826875 
L 329.073488 127.302708 
L 329.626047 126.774061 
L 330.178605 126.240933 
L 330.731163 125.703326 
L 331.283721 125.161239 
L 331.836279 124.614671 
L 332.388837 124.063624 
L 332.941395 123.508096 
L 333.493953 122.948088 
L 334.046512 122.383601 
L 334.59907 121.814633 
L 335.151628 121.241185 
L 335.704186 120.663257 
L 336.256744 120.080849 
L 336.809302 119.493961 
L 337.36186 118.902593 
L 337.914419 118.306745 
L 338.466977 117.706417 
L 339.019535 117.101608 
L 339.572093 116.49232 
L 340.124651 115.878551 
L 340.677209 115.260303 
L 341.229767 114.637574 
L 341.782326 114.010366 
L 342.334884 113.378677 
L 342.887442 112.742509 
L 343.44 112.10186 
L 343.992558 111.456731 
L 344.545116 110.807122 
L 345.097674 110.153033 
L 345.650233 109.494464 
L 346.202791 108.831415 
L 346.755349 108.163886 
L 347.307907 107.491877 
L 347.860465 106.815387 
L 348.413023 106.134418 
L 348.965581 105.448969 
L 349.51814 104.759039 
L 350.070698 104.06463 
L 350.623256 103.36574 
L 351.175814 102.66237 
L 351.728372 101.954521 
L 352.28093 101.242191 
L 352.833488 100.525381 
L 353.386047 99.804091 
L 353.938605 99.078321 
L 354.491163 98.348071 
L 355.043721 97.613341 
L 355.596279 96.874131 
L 356.148837 96.130441 
L 356.701395 95.382271 
L 357.253953 94.62962 
L 357.806512 93.87249 
L 358.35907 93.11088 
L 358.911628 92.344789 
L 359.464186 91.574219 
L 360.016744 90.799168 
L 360.569302 90.019637 
L 361.12186 89.235627 
L 361.674419 88.447136 
L 362.226977 87.654165 
L 362.779535 86.856714 
L 363.332093 86.054783 
L 363.884651 85.248372 
L 364.437209 84.437481 
L 364.989767 83.62211 
L 364.989767 81.97789 
L 364.989767 81.97789 
L 364.437209 81.162519 
L 363.884651 80.351628 
L 363.332093 79.545217 
L 362.779535 78.743286 
L 362.226977 77.945835 
L 361.674419 77.152864 
L 361.12186 76.364373 
L 360.569302 75.580363 
L 360.016744 74.800832 
L 359.464186 74.025781 
L 358.911628 73.255211 
L 358.35907 72.48912 
L 357.806512 71.72751 
L 357.253953 70.97038 
L 356.701395 70.217729 
L 356.148837 69.469559 
L 355.596279 68.725869 
L 355.043721 67.986659 
L 354.491163 67.251929 
L 353.938605 66.521679 
L 353.386047 65.795909 
L 352.833488 65.074619 
L 352.28093 64.357809 
L 351.728372 63.645479 
L 351.175814 62.93763 
L 350.623256 62.23426 
L 350.070698 61.53537 
L 349.51814 60.840961 
L 348.965581 60.151031 
L 348.413023 59.465582 
L 347.860465 58.784613 
L 347.307907 58.108123 
L 346.755349 57.436114 
L 346.202791 56.768585 
L 345.650233 56.105536 
L 345.097674 55.446967 
L 344.545116 54.792878 
L 343.992558 54.143269 
L 343.44 53.49814 
L 342.887442 52.857491 
L 342.334884 52.221323 
L 341.782326 51.589634 
L 341.229767 50.962426 
L 340.677209 50.339697 
L 340.124651 49.721449 
L 339.572093 49.10768 
L 339.019535 48.498392 
L 338.466977 47.893583 
L 337.914419 47.293255 
L 337.36186 46.697407 
L 336.809302 46.106039 
L 336.256744 45.519151 
L 335.704186 44.936743 
L 335.151628 44.358815 
L 334.59907 43.785367 
L 334.046512 43.216399 
L 333.493953 42.651912 
L 332.941395 42.091904 
L 332.388837 41.536376 
L 331.836279 40.985329 
L 331.283721 40.438761 
L 330.731163 39.896674 
L 330.178605 39.359067 
L 329.626047 38.825939 
L 329.073488 38.297292 
L 328.52093 37.773125 
L 327.968372 37.253438 
L 327.415814 36.738231 
L 326.863256 36.227504 
L 326.310698 35.721257 
L 325.75814 35.21949 
L 325.205581 34.722203 
L 324.653023 34.229396 
L 324.100465 33.74107 
L 323.547907 33.257223 
L 322.995349 32.777856 
L 322.442791 32.30297 
L 321.890233 31.832564 
L 321.337674 31.366637 
L 320.785116 30.905191 
L 320.232558 30.448225 
L 319.68 29.995738 
L 319.127442 29.547732 
L 318.574884 29.104206 
L 318.022326 28.66516 
L 317.469767 28.230594 
L 316.917209 27.800508 
L 316.364651 27.374903 
L 315.812093 26.953777 
L 315.259535 26.537131 
L 314.706977 26.124965 
L 314.154419 25.71728 
L 313.60186 25.314074 
L 313.049302 24.915349 
z
" style="fill:#0000ff;fill-opacity:0.1;stroke:#0000ff;stroke-opacity:0.1;"/>
   </g>
   <g id="matplotlib.axis_1">
    <g id="xtick_1">
     <g id="line2d_1">
      <defs>
       <path d="M 0 0 
L 0 3.5 
" id="m0f6f062115" style="stroke:#000000;stroke-width:0.8;"/>
      </defs>
      <g>
       <use style="stroke:#000000;stroke-width:0.8;" x="84.013953" xlink:href="#m0f6f062115" y="162"/>
      </g>
     </g>
     <g id="text_1">
      <!-- 1960 -->
      <g transform="translate(71.288953 176.598438)scale(0.1 -0.1)">
       <defs>
        <path d="M 794 531 
L 1825 531 
L 1825 4091 
L 703 3866 
L 703 4441 
L 1819 4666 
L 2450 4666 
L 2450 531 
L 3481 531 
L 3481 0 
L 794 0 
L 794 531 
z
" id="DejaVuSans-31" transform="scale(0.015625)"/>
        <path d="M 703 97 
L 703 672 
Q 941 559 1184 500 
Q 1428 441 1663 441 
Q 2288 441 2617 861 
Q 2947 1281 2994 2138 
Q 2813 1869 2534 1725 
Q 2256 1581 1919 1581 
Q 1219 1581 811 2004 
Q 403 2428 403 3163 
Q 403 3881 828 4315 
Q 1253 4750 1959 4750 
Q 2769 4750 3195 4129 
Q 3622 3509 3622 2328 
Q 3622 1225 3098 567 
Q 2575 -91 1691 -91 
Q 1453 -91 1209 -44 
Q 966 3 703 97 
z
M 1959 2075 
Q 2384 2075 2632 2365 
Q 2881 2656 2881 3163 
Q 2881 3666 2632 3958 
Q 2384 4250 1959 4250 
Q 1534 4250 1286 3958 
Q 1038 3666 1038 3163 
Q 1038 2656 1286 2365 
Q 1534 2075 1959 2075 
z
" id="DejaVuSans-39" transform="scale(0.015625)"/>
        <path d="M 2113 2584 
Q 1688 2584 1439 2293 
Q 1191 2003 1191 1497 
Q 1191 994 1439 701 
Q 1688 409 2113 409 
Q 2538 409 2786 701 
Q 3034 994 3034 1497 
Q 3034 2003 2786 2293 
Q 2538 2584 2113 2584 
z
M 3366 4563 
L 3366 3988 
Q 3128 4100 2886 4159 
Q 2644 4219 2406 4219 
Q 1781 4219 1451 3797 
Q 1122 3375 1075 2522 
Q 1259 2794 1537 2939 
Q 1816 3084 2150 3084 
Q 2853 3084 3261 2657 
Q 3669 2231 3669 1497 
Q 3669 778 3244 343 
Q 2819 -91 2113 -91 
Q 1303 -91 875 529 
Q 447 1150 447 2328 
Q 447 3434 972 4092 
Q 1497 4750 2381 4750 
Q 2619 4750 2861 4703 
Q 3103 4656 3366 4563 
z
" id="DejaVuSans-36" transform="scale(0.015625)"/>
        <path d="M 2034 4250 
Q 1547 4250 1301 3770 
Q 1056 3291 1056 2328 
Q 1056 1369 1301 889 
Q 1547 409 2034 409 
Q 2525 409 2770 889 
Q 3016 1369 3016 2328 
Q 3016 3291 2770 3770 
Q 2525 4250 2034 4250 
z
M 2034 4750 
Q 2819 4750 3233 4129 
Q 3647 3509 3647 2328 
Q 3647 1150 3233 529 
Q 2819 -91 2034 -91 
Q 1250 -91 836 529 
Q 422 1150 422 2328 
Q 422 3509 836 4129 
Q 1250 4750 2034 4750 
z
" id="DejaVuSans-30" transform="scale(0.015625)"/>
       </defs>
       <use xlink:href="#DejaVuSans-31"/>
       <use x="63.623047" xlink:href="#DejaVuSans-39"/>
       <use x="127.246094" xlink:href="#DejaVuSans-36"/>
       <use x="190.869141" xlink:href="#DejaVuSans-30"/>
      </g>
     </g>
    </g>
    <g id="xtick_2">
     <g id="line2d_2">
      <g>
       <use style="stroke:#000000;stroke-width:0.8;" x="150.32093" xlink:href="#m0f6f062115" y="162"/>
      </g>
     </g>
     <g id="text_2">
      <!-- 1970 -->
      <g transform="translate(137.59593 176.598438)scale(0.1 -0.1)">
       <defs>
        <path d="M 525 4666 
L 3525 4666 
L 3525 4397 
L 1831 0 
L 1172 0 
L 2766 4134 
L 525 4134 
L 525 4666 
z
" id="DejaVuSans-37" transform="scale(0.015625)"/>
       </defs>
       <use xlink:href="#DejaVuSans-31"/>
       <use x="63.623047" xlink:href="#DejaVuSans-39"/>
       <use x="127.246094" xlink:href="#DejaVuSans-37"/>
       <use x="190.869141" xlink:href="#DejaVuSans-30"/>
      </g>
     </g>
    </g>
    <g id="xtick_3">
     <g id="line2d_3">
      <g>
       <use style="stroke:#000000;stroke-width:0.8;" x="216.627907" xlink:href="#m0f6f062115" y="162"/>
      </g>
     </g>
     <g id="text_3">
      <!-- 1980 -->
      <g transform="translate(203.902907 176.598438)scale(0.1 -0.1)">
       <defs>
        <path d="M 2034 2216 
Q 1584 2216 1326 1975 
Q 1069 1734 1069 1313 
Q 1069 891 1326 650 
Q 1584 409 2034 409 
Q 2484 409 2743 651 
Q 3003 894 3003 1313 
Q 3003 1734 2745 1975 
Q 2488 2216 2034 2216 
z
M 1403 2484 
Q 997 2584 770 2862 
Q 544 3141 544 3541 
Q 544 4100 942 4425 
Q 1341 4750 2034 4750 
Q 2731 4750 3128 4425 
Q 3525 4100 3525 3541 
Q 3525 3141 3298 2862 
Q 3072 2584 2669 2484 
Q 3125 2378 3379 2068 
Q 3634 1759 3634 1313 
Q 3634 634 3220 271 
Q 2806 -91 2034 -91 
Q 1263 -91 848 271 
Q 434 634 434 1313 
Q 434 1759 690 2068 
Q 947 2378 1403 2484 
z
M 1172 3481 
Q 1172 3119 1398 2916 
Q 1625 2713 2034 2713 
Q 2441 2713 2670 2916 
Q 2900 3119 2900 3481 
Q 2900 3844 2670 4047 
Q 2441 4250 2034 4250 
Q 1625 4250 1398 4047 
Q 1172 3844 1172 3481 
z
" id="DejaVuSans-38" transform="scale(0.015625)"/>
       </defs>
       <use xlink:href="#DejaVuSans-31"/>
       <use x="63.623047" xlink:href="#DejaVuSans-39"/>
       <use x="127.246094" xlink:href="#DejaVuSans-38"/>
       <use x="190.869141" xlink:href="#DejaVuSans-30"/>
      </g>
     </g>
    </g>
    <g id="xtick_4">
     <g id="line2d_4">
      <g>
       <use style="stroke:#000000;stroke-width:0.8;" x="282.934884" xlink:href="#m0f6f062115" y="162"/>
      </g>
     </g>
     <g id="text_4">
      <!-- 1990 -->
      <g transform="translate(270.209884 176.598438)scale(0.1 -0.1)">
       <use xlink:href="#DejaVuSans-31"/>
       <use x="63.623047" xlink:href="#DejaVuSans-39"/>
       <use x="127.246094" xlink:href="#DejaVuSans-39"/>
       <use x="190.869141" xlink:href="#DejaVuSans-30"/>
      </g>
     </g>
    </g>
    <g id="xtick_5">
     <g id="line2d_5">
      <g>
       <use style="stroke:#000000;stroke-width:0.8;" x="349.24186" xlink:href="#m0f6f062115" y="162"/>
      </g>
     </g>
     <g id="text_5">
      <!-- 2000 -->
      <g transform="translate(336.51686 176.598438)scale(0.1 -0.1)">
       <defs>
        <path d="M 1228 531 
L 3431 531 
L 3431 0 
L 469 0 
L 469 531 
Q 828 903 1448 1529 
Q 2069 2156 2228 2338 
Q 2531 2678 2651 2914 
Q 2772 3150 2772 3378 
Q 2772 3750 2511 3984 
Q 2250 4219 1831 4219 
Q 1534 4219 1204 4116 
Q 875 4013 500 3803 
L 500 4441 
Q 881 4594 1212 4672 
Q 1544 4750 1819 4750 
Q 2544 4750 2975 4387 
Q 3406 4025 3406 3419 
Q 3406 3131 3298 2873 
Q 3191 2616 2906 2266 
Q 2828 2175 2409 1742 
Q 1991 1309 1228 531 
z
" id="DejaVuSans-32" transform="scale(0.015625)"/>
       </defs>
       <use xlink:href="#DejaVuSans-32"/>
       <use x="63.623047" xlink:href="#DejaVuSans-30"/>
       <use x="127.246094" xlink:href="#DejaVuSans-30"/>
       <use x="190.869141" xlink:href="#DejaVuSans-30"/>
      </g>
     </g>
    </g>
   </g>
   <g id="matplotlib.axis_2">
    <g id="ytick_1">
     <g id="line2d_6">
      <defs>
       <path d="M 0 0 
L -3.5 0 
" id="m440b1651a3" style="stroke:#000000;stroke-width:0.8;"/>
      </defs>
      <g>
       <use style="stroke:#000000;stroke-width:0.8;" x="34.56" xlink:href="#m440b1651a3" y="139.726875"/>
      </g>
     </g>
     <g id="text_6">
      <!-- −40 -->
      <g transform="translate(6.455313 143.526094)scale(0.1 -0.1)">
       <defs>
        <path d="M 678 2272 
L 4684 2272 
L 4684 1741 
L 678 1741 
L 678 2272 
z
" id="DejaVuSans-2212" transform="scale(0.015625)"/>
        <path d="M 2419 4116 
L 825 1625 
L 2419 1625 
L 2419 4116 
z
M 2253 4666 
L 3047 4666 
L 3047 1625 
L 3713 1625 
L 3713 1100 
L 3047 1100 
L 3047 0 
L 2419 0 
L 2419 1100 
L 313 1100 
L 313 1709 
L 2253 4666 
z
" id="DejaVuSans-34" transform="scale(0.015625)"/>
       </defs>
       <use xlink:href="#DejaVuSans-2212"/>
       <use x="83.789062" xlink:href="#DejaVuSans-34"/>
       <use x="147.412109" xlink:href="#DejaVuSans-30"/>
      </g>
     </g>
    </g>
    <g id="ytick_2">
     <g id="line2d_7">
      <g>
       <use style="stroke:#000000;stroke-width:0.8;" x="34.56" xlink:href="#m440b1651a3" y="111.263438"/>
      </g>
     </g>
     <g id="text_7">
      <!-- −20 -->
      <g transform="translate(6.455313 115.062656)scale(0.1 -0.1)">
       <use xlink:href="#DejaVuSans-2212"/>
       <use x="83.789062" xlink:href="#DejaVuSans-32"/>
       <use x="147.412109" xlink:href="#DejaVuSans-30"/>
      </g>
     </g>
    </g>
    <g id="ytick_3">
     <g id="line2d_8">
      <g>
       <use style="stroke:#000000;stroke-width:0.8;" x="34.56" xlink:href="#m440b1651a3" y="82.8"/>
      </g>
     </g>
     <g id="text_8">
      <!-- 0 -->
      <g transform="translate(21.1975 86.599219)scale(0.1 -0.1)">
       <use xlink:href="#DejaVuSans-30"/>
      </g>
     </g>
    </g>
    <g id="ytick_4">
     <g id="line2d_9">
      <g>
       <use style="stroke:#000000;stroke-width:0.8;" x="34.56" xlink:href="#m440b1651a3" y="54.336562"/>
      </g>
     </g>
     <g id="text_9">
      <!-- 20 -->
      <g transform="translate(14.835 58.135781)scale(0.1 -0.1)">
       <use xlink:href="#DejaVuSans-32"/>
       <use x="63.623047" xlink:href="#DejaVuSans-30"/>
      </g>
     </g>
    </g>
    <g id="ytick_5">
     <g id="line2d_10">
      <g>
       <use style="stroke:#000000;stroke-width:0.8;" x="34.56" xlink:href="#m440b1651a3" y="25.873125"/>
      </g>
     </g>
     <g id="text_10">
      <!-- 40 -->
      <g transform="translate(14.835 29.672344)scale(0.1 -0.1)">
       <use xlink:href="#DejaVuSans-34"/>
       <use x="63.623047" xlink:href="#DejaVuSans-30"/>
      </g>
     </g>
    </g>
   </g>
   <g id="line2d_11">
    <path clip-path="url(#pa422c9eb5d)" d="M 84.290233 83.23062 
L 85.947907 84.749768 
L 86.500465 84.744286 
L 87.053023 84.978518 
L 88.15814 87.939352 
L 88.710698 87.799669 
L 89.263256 88.829494 
L 89.815814 89.51184 
L 90.368372 89.158961 
L 90.92093 90.016436 
L 91.473488 92.046624 
L 92.026047 92.758203 
L 92.578605 92.300199 
L 93.131163 94.187026 
L 93.683721 94.624721 
L 94.236279 94.075155 
L 94.788837 93.173118 
L 95.341395 93.334825 
L 95.893953 94.716625 
L 96.446512 94.778335 
L 96.99907 95.552039 
L 97.551628 95.515887 
M 98.656744 96.172258 
L 99.209302 98.366946 
M 100.314419 97.762953 
L 100.866977 97.074124 
L 101.419535 97.498348 
L 101.972093 98.324648 
L 102.524651 99.520603 
L 103.077209 101.045495 
L 103.629767 101.127333 
L 104.182326 97.881859 
L 104.734884 97.060851 
L 105.287442 95.365866 
L 105.84 94.718076 
L 106.392558 93.554116 
L 106.945116 92.75526 
L 107.497674 92.695319 
L 108.050233 91.239536 
L 108.602791 90.900962 
L 109.155349 90.292056 
L 109.707907 88.970055 
L 110.260465 88.006439 
L 110.813023 88.375283 
L 111.365581 90.470001 
L 111.91814 93.386569 
L 112.470698 94.493987 
L 113.023256 94.227522 
L 113.575814 94.275633 
L 114.128372 93.444207 
L 114.68093 93.550496 
L 115.786047 95.68364 
L 116.338605 96.587402 
L 116.891163 94.653873 
L 117.443721 94.939038 
L 118.548837 98.35175 
L 119.101395 98.563264 
L 119.653953 98.458713 
L 120.206512 96.458895 
L 120.75907 95.739385 
L 121.311628 95.470775 
L 121.864186 94.627063 
L 122.416744 93.579097 
L 122.969302 92.862555 
L 123.52186 94.961133 
L 124.074419 95.304313 
L 124.626977 95.934301 
L 125.179535 96.285821 
L 125.732093 95.451233 
L 126.837209 95.742115 
L 127.389767 95.192351 
L 127.942326 96.398188 
L 129.047442 95.198949 
L 129.6 95.262378 
L 130.705116 95.569451 
L 131.257674 92.571785 
L 131.810233 92.145232 
L 132.362791 92.806839 
L 132.915349 92.64062 
L 133.467907 92.929153 
L 134.573023 90.695786 
L 135.125581 89.742592 
L 135.67814 90.932438 
L 136.230698 89.849154 
L 136.783256 89.571594 
L 137.335814 92.920615 
L 137.888372 95.550544 
L 138.993488 92.013371 
L 139.546047 92.27567 
L 140.098605 91.702478 
M 142.861395 90.231085 
L 143.413953 91.996231 
L 143.966512 94.866235 
L 144.51907 97.009424 
L 145.071628 96.720629 
L 145.624186 97.85571 
L 146.176744 97.978162 
L 146.729302 98.856353 
L 147.28186 99.119772 
L 147.834419 99.183112 
L 148.386977 99.599783 
L 148.939535 100.421225 
L 149.492093 102.195529 
L 150.044651 102.9982 
L 150.597209 104.537394 
L 151.149767 104.259266 
L 152.254884 105.555998 
L 153.36 108.21382 
L 153.912558 109.722427 
L 154.465116 111.648502 
L 155.017674 114.246908 
L 155.570233 113.738875 
L 156.122791 115.820146 
L 156.675349 118.520213 
L 157.227907 119.098009 
L 157.780465 117.472636 
L 158.333023 118.96041 
L 158.885581 120.036716 
L 159.43814 119.771522 
L 159.990698 120.403601 
L 160.543256 121.419099 
L 161.648372 125.000915 
L 162.20093 124.987643 
L 162.753488 125.54673 
L 163.306047 125.051916 
L 163.858605 123.775205 
L 164.411163 122.986884 
L 164.963721 121.080465 
L 165.516279 120.649573 
L 166.068837 120.681501 
L 166.621395 119.814607 
L 167.173953 119.247497 
L 167.726512 118.101241 
L 168.27907 116.240956 
L 168.831628 115.941783 
L 169.384186 113.974287 
L 170.489302 117.180445 
L 171.594419 115.809857 
L 172.146977 112.655902 
L 172.699535 112.795121 
L 174.357209 110.09083 
L 174.909767 109.319403 
L 176.014884 106.291194 
L 176.567442 105.98576 
L 177.12 105.248564 
L 177.672558 103.460205 
L 178.225116 102.563662 
L 178.777674 101.100528 
L 179.330233 102.16772 
L 179.882791 102.128436 
L 180.435349 102.296139 
L 180.987907 101.98713 
L 182.093023 104.44968 
L 182.645581 104.526497 
L 183.19814 103.80163 
L 183.750698 103.768796 
L 184.855814 99.638418 
L 185.408372 100.171455 
L 185.96093 101.313485 
L 186.513488 101.338837 
L 187.066047 102.46468 
M 188.171163 102.129413 
L 188.723721 103.573907 
L 189.276279 104.422976 
L 189.828837 103.156621 
L 190.381395 99.111698 
L 190.933953 98.171666 
L 192.03907 98.098138 
L 192.591628 96.08915 
L 193.696744 97.827405 
M 195.354419 98.445358 
L 195.906977 100.396742 
L 197.012093 101.396002 
L 197.564651 100.94674 
L 198.117209 100.092535 
L 198.669767 99.96873 
L 199.222326 100.351238 
L 199.774884 100.98062 
M 201.432558 102.401131 
L 201.985116 103.150461 
L 202.537674 103.292733 
L 203.090233 104.079693 
L 203.642791 103.98765 
L 204.195349 103.72354 
L 204.747907 103.846641 
L 205.300465 103.172074 
L 206.95814 102.137033 
L 207.510698 101.240057 
L 208.063256 100.638969 
M 209.72093 100.74722 
L 210.273488 100.91258 
L 210.826047 102.064601 
L 212.483721 101.152586 
L 213.036279 100.18321 
L 214.693953 99.833136 
L 215.246512 98.667971 
L 215.79907 99.870783 
L 216.351628 100.303023 
L 216.904186 101.31604 
L 217.456744 101.537577 
L 218.009302 101.113393 
L 218.56186 100.380606 
L 219.114419 98.941898 
L 219.666977 98.291703 
L 220.219535 97.200217 
L 220.772093 96.505573 
L 221.324651 96.00786 
L 221.877209 95.867267 
L 222.982326 96.13767 
L 223.534884 97.798572 
L 224.64 96.200268 
L 225.192558 95.819026 
L 225.745116 96.202559 
L 226.297674 96.076434 
L 226.850233 95.218569 
L 227.402791 95.595095 
L 227.955349 95.671167 
L 228.507907 95.533719 
L 229.060465 95.752638 
L 229.613023 95.48089 
L 230.165581 96.647357 
L 230.71814 104.200264 
L 231.270698 113.97665 
L 231.823256 118.23871 
L 232.928372 119.372352 
L 233.48093 120.685662 
L 234.033488 121.226824 
L 234.586047 123.35197 
L 235.138605 123.718628 
L 235.691163 124.239695 
L 236.243721 124.945255 
L 236.796279 125.957731 
L 237.348837 126.715067 
L 237.901395 126.973943 
L 238.453953 127.573999 
M 239.55907 128.590702 
L 240.111628 129.777416 
L 240.664186 130.267977 
M 313.049302 130.187501 
L 313.60186 130.694317 
L 314.154419 129.914973 
L 314.706977 129.520314 
L 315.259535 129.4529 
L 315.812093 129.094305 
L 316.364651 127.828445 
L 316.917209 127.360657 
L 317.469767 125.972092 
L 319.127442 124.428584 
L 319.68 124.892823 
L 320.232558 124.610391 
L 320.785116 125.645115 
L 321.890233 123.392139 
L 322.442791 121.623552 
L 323.547907 117.308459 
L 324.100465 115.273917 
L 324.653023 113.934918 
L 325.205581 113.35446 
L 326.310698 111.898415 
L 327.415814 109.345064 
L 327.968372 109.03011 
L 328.52093 107.840127 
L 329.073488 107.068717 
L 329.626047 105.359999 
L 330.178605 105.340777 
L 330.731163 104.100237 
L 331.283721 104.252629 
L 331.836279 104.028725 
L 332.388837 103.622118 
L 332.941395 103.957642 
L 334.046512 106.114525 
L 335.151628 107.268251 
L 335.704186 108.283218 
L 336.256744 108.715899 
L 336.809302 107.322704 
L 337.36186 107.208036 
L 337.914419 108.831635 
L 338.466977 109.80806 
L 339.019535 112.48524 
L 340.124651 112.945137 
L 340.677209 112.328387 
L 341.229767 112.439033 
L 341.782326 112.75432 
L 342.887442 110.508192 
L 343.44 109.863589 
L 343.992558 109.649732 
L 344.545116 108.899639 
L 345.097674 107.099683 
L 345.650233 106.148216 
L 346.202791 104.938986 
L 346.755349 104.568517 
L 347.307907 102.972165 
L 347.860465 100.574474 
L 348.413023 99.837066 
L 348.965581 98.127871 
L 350.070698 93.367138 
L 350.623256 90.914522 
L 351.175814 89.169659 
L 351.728372 89.206845 
L 352.833488 90.64467 
L 353.386047 91.120131 
L 353.938605 90.542033 
L 354.491163 90.516654 
L 355.043721 89.787758 
L 355.596279 89.493089 
L 356.148837 89.916081 
L 356.701395 89.433934 
L 357.253953 89.106415 
L 357.806512 87.476464 
L 358.35907 86.906173 
L 358.911628 86.736542 
L 359.464186 85.931977 
L 360.016744 84.673815 
L 360.569302 82.664247 
L 362.226977 78.210115 
L 362.779535 77.788558 
L 363.332093 78.11938 
L 363.884651 78.963667 
L 364.437209 81.136401 
L 364.989767 82.8 
L 364.989767 82.8 
" style="fill:none;stroke:#1f77b4;stroke-linecap:square;stroke-width:1.5;"/>
   </g>
   <g id="line2d_12">
    <path clip-path="url(#pa422c9eb5d)" d="M 34.56 82.8 
L 414.72 82.8 
" style="fill:none;stroke:#000000;stroke-dasharray:1.5,2.475;stroke-dashoffset:0;stroke-width:1.5;"/>
   </g>
   <g id="patch_3">
    <path d="M 34.56 162 
L 34.56 3.6 
" style="fill:none;stroke:#000000;stroke-linecap:square;stroke-linejoin:miter;stroke-width:0.8;"/>
   </g>
   <g id="patch_4">
    <path d="M 414.72 162 
L 414.72 3.6 
" style="fill:none;stroke:#000000;stroke-linecap:square;stroke-linejoin:miter;stroke-width:0.8;"/>
   </g>
   <g id="patch_5">
    <path d="M 34.56 162 
L 414.72 162 
" style="fill:none;stroke:#000000;stroke-linecap:square;stroke-linejoin:miter;stroke-width:0.8;"/>
   </g>
   <g id="patch_6">
    <path d="M 34.56 3.6 
L 414.72 3.6 
" style="fill:none;stroke:#000000;stroke-linecap:square;stroke-linejoin:miter;stroke-width:0.8;"/>
   </g>
  </g>
 </g>
 <defs>
  <clipPath id="pa422c9eb5d">
   <rect height="158.4" width="380.16" x="34.56" y="3.6"/>
  </clipPath>
 </defs>
</svg>
