<?xml version="1.0" encoding="utf-8" standalone="no"?>
<!DOCTYPE svg PUBLIC "-//W3C//DTD SVG 1.1//EN"
  "http://www.w3.org/Graphics/SVG/1.1/DTD/svg11.dtd">
<svg height="180pt" version="1.1" viewBox="0 0 432 180" width="432pt" xmlns="http://www.w3.org/2000/svg" xmlns:xlink="http://www.w3.org/1999/xlink">
 <metadata>
  <rdf:RDF xmlns:cc="http://creativecommons.org/ns#" xmlns:dc="http://purl.org/dc/elements/1.1/" xmlns:rdf="http://www.w3.org/1999/02/22-rdf-syntax-ns#">
   <cc:Work>
    <dc:type rdf:resource="http://purl.org/dc/dcmitype/StillImage"/>
    <dc:date>2021-08-12T10:41:48.475328</dc:date>
    <dc:format>image/svg+xml</dc:format>
    <dc:creator>
     <cc:Agent>
      <dc:title>Matplotlib v3.4.2, https://matplotlib.org/</dc:title>
     </cc:Agent>
    </dc:creator>
   </cc:Work>
  </rdf:RDF>
 </metadata>
 <defs>
  <style type="text/css">*{stroke-linecap:butt;stroke-linejoin:round;}</style>
 </defs>
 <g id="figure_1">
  <g id="patch_1">
   <path d="M 0 180 
L 432 180 
L 432 0 
L 0 0 
z
" style="fill:#ffffff;"/>
  </g>
  <g id="axes_1">
   <g id="patch_2">
    <path d="M 34.56 162 
L 414.72 162 
L 414.72 3.6 
L 34.56 3.6 
z
" style="fill:#ffffff;"/>
   </g>
   <g id="PolyCollection_1">
    <path clip-path="url(#p32cdb25b23)" d="M 92.452386 81.770258 
L 92.452386 83.829742 
L 93.095635 84.848904 
L 93.738883 85.861037 
L 94.382132 86.866142 
L 95.025381 87.864217 
L 95.668629 88.855265 
L 96.311878 89.839283 
L 96.955127 90.816273 
L 97.598376 91.786234 
L 98.241624 92.749167 
L 98.884873 93.70507 
L 99.528122 94.653945 
L 100.171371 95.595792 
L 100.814619 96.530609 
L 101.457868 97.458398 
L 102.101117 98.379158 
L 102.744365 99.29289 
L 103.387614 100.199593 
L 104.030863 101.099267 
L 104.674112 101.991912 
L 105.31736 102.877529 
L 105.960609 103.756117 
L 106.603858 104.627676 
L 107.247107 105.492207 
L 107.890355 106.349709 
L 108.533604 107.200182 
L 109.176853 108.043626 
L 109.820102 108.880042 
L 110.46335 109.709429 
L 111.106599 110.531787 
L 111.749848 111.347117 
L 112.393096 112.155418 
L 113.036345 112.95669 
L 113.679594 113.750934 
L 114.322843 114.538148 
L 114.966091 115.318335 
L 115.60934 116.091492 
L 116.252589 116.857621 
L 116.895838 117.616721 
L 117.539086 118.368792 
L 118.182335 119.113835 
L 118.825584 119.851849 
L 119.468832 120.582834 
L 120.112081 121.30679 
L 120.75533 122.023718 
L 121.398579 122.733617 
L 122.041827 123.436488 
L 122.685076 124.132329 
L 123.328325 124.821142 
L 123.971574 125.502926 
L 124.614822 126.177682 
L 125.258071 126.845409 
L 125.90132 127.506107 
L 126.544569 128.159776 
L 127.187817 128.806417 
L 127.831066 129.446029 
L 128.474315 130.078613 
L 129.117563 130.704167 
L 129.760812 131.322693 
L 130.404061 131.93419 
L 131.04731 132.538659 
L 131.690558 133.136099 
L 132.333807 133.72651 
L 132.977056 134.309892 
L 133.620305 134.886246 
L 134.263553 135.455571 
L 134.906802 136.017867 
L 135.550051 136.573135 
L 136.193299 137.121374 
L 136.836548 137.662584 
L 137.479797 138.196766 
L 138.123046 138.723918 
L 138.766294 139.244042 
L 139.409543 139.757138 
L 140.052792 140.263204 
L 140.696041 140.762242 
L 141.339289 141.254252 
L 141.982538 141.739232 
L 142.625787 142.217184 
L 143.269036 142.688107 
L 143.912284 143.152002 
L 144.555533 143.608867 
L 145.198782 144.058705 
L 145.84203 144.501513 
L 146.485279 144.937293 
L 147.128528 145.366043 
L 147.771777 145.787766 
L 148.415025 146.202459 
L 149.058274 146.610124 
L 149.701523 147.01076 
L 150.344772 147.404368 
L 150.98802 147.790946 
L 151.631269 148.170496 
L 152.274518 148.543018 
L 152.917766 148.90851 
L 153.561015 149.266974 
L 154.204264 149.618409 
L 154.847513 149.962816 
L 155.490761 150.300194 
L 156.13401 150.630543 
L 156.777259 150.953863 
L 157.420508 151.270155 
L 158.063756 151.579418 
L 158.707005 151.881652 
L 159.350254 152.176857 
L 159.993503 152.465034 
L 160.636751 152.746182 
L 161.28 153.020302 
L 161.923249 153.287393 
L 162.566497 153.547455 
L 163.209746 153.800488 
L 163.852995 154.046493 
L 164.496244 154.285469 
L 165.139492 154.517416 
L 165.782741 154.742334 
L 166.42599 154.960224 
L 167.069239 155.171085 
L 167.712487 155.374918 
L 168.355736 155.571721 
L 168.998985 155.761496 
L 169.642234 155.944243 
L 170.285482 156.11996 
L 170.928731 156.288649 
L 171.57198 156.450309 
L 172.215228 156.604941 
L 172.858477 156.752544 
L 173.501726 156.893118 
L 174.144975 157.026663 
L 174.788223 157.15318 
L 175.431472 157.272668 
L 176.074721 157.385127 
L 176.71797 157.490558 
L 177.361218 157.588959 
L 178.004467 157.680333 
L 178.647716 157.764677 
L 179.290964 157.841993 
L 179.934213 157.91228 
L 180.577462 157.975538 
L 181.220711 158.031768 
L 181.863959 158.080969 
L 182.507208 158.123141 
L 183.150457 158.158284 
L 183.793706 158.186399 
L 184.436954 158.207485 
L 185.080203 158.221543 
L 185.723452 158.228571 
L 186.366701 158.228571 
L 187.009949 158.221543 
L 187.653198 158.207485 
L 188.296447 158.186399 
L 188.939695 158.158284 
L 189.582944 158.123141 
L 190.226193 158.080969 
L 190.869442 158.031768 
L 191.51269 157.975538 
L 192.155939 157.91228 
L 192.799188 157.841993 
L 193.442437 157.764677 
L 194.085685 157.680333 
L 194.728934 157.588959 
L 195.372183 157.490558 
L 196.015431 157.385127 
L 196.65868 157.272668 
L 197.301929 157.15318 
L 197.945178 157.026663 
L 198.588426 156.893118 
L 199.231675 156.752544 
L 199.874924 156.604941 
L 199.874924 8.995059 
L 199.874924 8.995059 
L 199.231675 8.847456 
L 198.588426 8.706882 
L 197.945178 8.573337 
L 197.301929 8.44682 
L 196.65868 8.327332 
L 196.015431 8.214873 
L 195.372183 8.109442 
L 194.728934 8.011041 
L 194.085685 7.919667 
L 193.442437 7.835323 
L 192.799188 7.758007 
L 192.155939 7.68772 
L 191.51269 7.624462 
L 190.869442 7.568232 
L 190.226193 7.519031 
L 189.582944 7.476859 
L 188.939695 7.441716 
L 188.296447 7.413601 
L 187.653198 7.392515 
L 187.009949 7.378457 
L 186.366701 7.371429 
L 185.723452 7.371429 
L 185.080203 7.378457 
L 184.436954 7.392515 
L 183.793706 7.413601 
L 183.150457 7.441716 
L 182.507208 7.476859 
L 181.863959 7.519031 
L 181.220711 7.568232 
L 180.577462 7.624462 
L 179.934213 7.68772 
L 179.290964 7.758007 
L 178.647716 7.835323 
L 178.004467 7.919667 
L 177.361218 8.011041 
L 176.71797 8.109442 
L 176.074721 8.214873 
L 175.431472 8.327332 
L 174.788223 8.44682 
L 174.144975 8.573337 
L 173.501726 8.706882 
L 172.858477 8.847456 
L 172.215228 8.995059 
L 171.57198 9.149691 
L 170.928731 9.311351 
L 170.285482 9.48004 
L 169.642234 9.655757 
L 168.998985 9.838504 
L 168.355736 10.028279 
L 167.712487 10.225082 
L 167.069239 10.428915 
L 166.42599 10.639776 
L 165.782741 10.857666 
L 165.139492 11.082584 
L 164.496244 11.314531 
L 163.852995 11.553507 
L 163.209746 11.799512 
L 162.566497 12.052545 
L 161.923249 12.312607 
L 161.28 12.579698 
L 160.636751 12.853818 
L 159.993503 13.134966 
L 159.350254 13.423143 
L 158.707005 13.718348 
L 158.063756 14.020582 
L 157.420508 14.329845 
L 156.777259 14.646137 
L 156.13401 14.969457 
L 155.490761 15.299806 
L 154.847513 15.637184 
L 154.204264 15.981591 
L 153.561015 16.333026 
L 152.917766 16.69149 
L 152.274518 17.056982 
L 151.631269 17.429504 
L 150.98802 17.809054 
L 150.344772 18.195632 
L 149.701523 18.58924 
L 149.058274 18.989876 
L 148.415025 19.397541 
L 147.771777 19.812234 
L 147.128528 20.233957 
L 146.485279 20.662707 
L 145.84203 21.098487 
L 145.198782 21.541295 
L 144.555533 21.991133 
L 143.912284 22.447998 
L 143.269036 22.911893 
L 142.625787 23.382816 
L 141.982538 23.860768 
L 141.339289 24.345748 
L 140.696041 24.837758 
L 140.052792 25.336796 
L 139.409543 25.842862 
L 138.766294 26.355958 
L 138.123046 26.876082 
L 137.479797 27.403234 
L 136.836548 27.937416 
L 136.193299 28.478626 
L 135.550051 29.026865 
L 134.906802 29.582133 
L 134.263553 30.144429 
L 133.620305 30.713754 
L 132.977056 31.290108 
L 132.333807 31.87349 
L 131.690558 32.463901 
L 131.04731 33.061341 
L 130.404061 33.66581 
L 129.760812 34.277307 
L 129.117563 34.895833 
L 128.474315 35.521387 
L 127.831066 36.153971 
L 127.187817 36.793583 
L 126.544569 37.440224 
L 125.90132 38.093893 
L 125.258071 38.754591 
L 124.614822 39.422318 
L 123.971574 40.097074 
L 123.328325 40.778858 
L 122.685076 41.467671 
L 122.041827 42.163512 
L 121.398579 42.866383 
L 120.75533 43.576282 
L 120.112081 44.29321 
L 119.468832 45.017166 
L 118.825584 45.748151 
L 118.182335 46.486165 
L 117.539086 47.231208 
L 116.895838 47.983279 
L 116.252589 48.742379 
L 115.60934 49.508508 
L 114.966091 50.281665 
L 114.322843 51.061852 
L 113.679594 51.849066 
L 113.036345 52.64331 
L 112.393096 53.444582 
L 111.749848 54.252883 
L 111.106599 55.068213 
L 110.46335 55.890571 
L 109.820102 56.719958 
L 109.176853 57.556374 
L 108.533604 58.399818 
L 107.890355 59.250291 
L 107.247107 60.107793 
L 106.603858 60.972324 
L 105.960609 61.843883 
L 105.31736 62.722471 
L 104.674112 63.608088 
L 104.030863 64.500733 
L 103.387614 65.400407 
L 102.744365 66.30711 
L 102.101117 67.220842 
L 101.457868 68.141602 
L 100.814619 69.069391 
L 100.171371 70.004208 
L 99.528122 70.946055 
L 98.884873 71.89493 
L 98.241624 72.850833 
L 97.598376 73.813766 
L 96.955127 74.783727 
L 96.311878 75.760717 
L 95.668629 76.744735 
L 95.025381 77.735783 
L 94.382132 78.733858 
L 93.738883 79.738963 
L 93.095635 80.751096 
L 92.452386 81.770258 
z
" style="fill:#0000ff;fill-opacity:0.1;stroke:#0000ff;stroke-opacity:0.1;"/>
    <path clip-path="url(#p32cdb25b23)" d="M 277.70802 9.149691 
L 277.70802 156.450309 
L 278.351269 156.288649 
L 278.994518 156.11996 
L 279.637766 155.944243 
L 280.281015 155.761496 
L 280.924264 155.571721 
L 281.567513 155.374918 
L 282.210761 155.171085 
L 282.85401 154.960224 
L 283.497259 154.742334 
L 284.140508 154.517416 
L 284.783756 154.285469 
L 285.427005 154.046493 
L 286.070254 153.800488 
L 286.713503 153.547455 
L 287.356751 153.287393 
L 288 153.020302 
L 288.643249 152.746182 
L 289.286497 152.465034 
L 289.929746 152.176857 
L 290.572995 151.881652 
L 291.216244 151.579418 
L 291.859492 151.270155 
L 292.502741 150.953863 
L 293.14599 150.630543 
L 293.789239 150.300194 
L 294.432487 149.962816 
L 295.075736 149.618409 
L 295.718985 149.266974 
L 296.362234 148.90851 
L 297.005482 148.543018 
L 297.648731 148.170496 
L 298.29198 147.790946 
L 298.935228 147.404368 
L 299.578477 147.01076 
L 300.221726 146.610124 
L 300.864975 146.202459 
L 301.508223 145.787766 
L 302.151472 145.366043 
L 302.794721 144.937293 
L 303.43797 144.501513 
L 304.081218 144.058705 
L 304.724467 143.608867 
L 305.367716 143.152002 
L 306.010964 142.688107 
L 306.654213 142.217184 
L 307.297462 141.739232 
L 307.940711 141.254252 
L 308.583959 140.762242 
L 309.227208 140.263204 
L 309.870457 139.757138 
L 310.513706 139.244042 
L 311.156954 138.723918 
L 311.800203 138.196766 
L 312.443452 137.662584 
L 313.086701 137.121374 
L 313.729949 136.573135 
L 314.373198 136.017867 
L 315.016447 135.455571 
L 315.659695 134.886246 
L 316.302944 134.309892 
L 316.946193 133.72651 
L 317.589442 133.136099 
L 318.23269 132.538659 
L 318.875939 131.93419 
L 319.519188 131.322693 
L 320.162437 130.704167 
L 320.805685 130.078613 
L 321.448934 129.446029 
L 322.092183 128.806417 
L 322.735431 128.159776 
L 323.37868 127.506107 
L 324.021929 126.845409 
L 324.665178 126.177682 
L 325.308426 125.502926 
L 325.951675 124.821142 
L 326.594924 124.132329 
L 327.238173 123.436488 
L 327.881421 122.733617 
L 328.52467 122.023718 
L 329.167919 121.30679 
L 329.811168 120.582834 
L 330.454416 119.851849 
L 331.097665 119.113835 
L 331.740914 118.368792 
L 332.384162 117.616721 
L 333.027411 116.857621 
L 333.67066 116.091492 
L 334.313909 115.318335 
L 334.957157 114.538148 
L 335.600406 113.750934 
L 336.243655 112.95669 
L 336.886904 112.155418 
L 337.530152 111.347117 
L 338.173401 110.531787 
L 338.81665 109.709429 
L 339.459898 108.880042 
L 340.103147 108.043626 
L 340.746396 107.200182 
L 341.389645 106.349709 
L 342.032893 105.492207 
L 342.676142 104.627676 
L 343.319391 103.756117 
L 343.96264 102.877529 
L 344.605888 101.991912 
L 345.249137 101.099267 
L 345.892386 100.199593 
L 346.535635 99.29289 
L 347.178883 98.379158 
L 347.822132 97.458398 
L 348.465381 96.530609 
L 349.108629 95.595792 
L 349.751878 94.653945 
L 350.395127 93.70507 
L 351.038376 92.749167 
L 351.681624 91.786234 
L 352.324873 90.816273 
L 352.968122 89.839283 
L 353.611371 88.855265 
L 354.254619 87.864217 
L 354.897868 86.866142 
L 355.541117 85.861037 
L 356.184365 84.848904 
L 356.827614 83.829742 
L 356.827614 81.770258 
L 356.827614 81.770258 
L 356.184365 80.751096 
L 355.541117 79.738963 
L 354.897868 78.733858 
L 354.254619 77.735783 
L 353.611371 76.744735 
L 352.968122 75.760717 
L 352.324873 74.783727 
L 351.681624 73.813766 
L 351.038376 72.850833 
L 350.395127 71.89493 
L 349.751878 70.946055 
L 349.108629 70.004208 
L 348.465381 69.069391 
L 347.822132 68.141602 
L 347.178883 67.220842 
L 346.535635 66.30711 
L 345.892386 65.400407 
L 345.249137 64.500733 
L 344.605888 63.608088 
L 343.96264 62.722471 
L 343.319391 61.843883 
L 342.676142 60.972324 
L 342.032893 60.107793 
L 341.389645 59.250291 
L 340.746396 58.399818 
L 340.103147 57.556374 
L 339.459898 56.719958 
L 338.81665 55.890571 
L 338.173401 55.068213 
L 337.530152 54.252883 
L 336.886904 53.444582 
L 336.243655 52.64331 
L 335.600406 51.849066 
L 334.957157 51.061852 
L 334.313909 50.281665 
L 333.67066 49.508508 
L 333.027411 48.742379 
L 332.384162 47.983279 
L 331.740914 47.231208 
L 331.097665 46.486165 
L 330.454416 45.748151 
L 329.811168 45.017166 
L 329.167919 44.29321 
L 328.52467 43.576282 
L 327.881421 42.866383 
L 327.238173 42.163512 
L 326.594924 41.467671 
L 325.951675 40.778858 
L 325.308426 40.097074 
L 324.665178 39.422318 
L 324.021929 38.754591 
L 323.37868 38.093893 
L 322.735431 37.440224 
L 322.092183 36.793583 
L 321.448934 36.153971 
L 320.805685 35.521387 
L 320.162437 34.895833 
L 319.519188 34.277307 
L 318.875939 33.66581 
L 318.23269 33.061341 
L 317.589442 32.463901 
L 316.946193 31.87349 
L 316.302944 31.290108 
L 315.659695 30.713754 
L 315.016447 30.144429 
L 314.373198 29.582133 
L 313.729949 29.026865 
L 313.086701 28.478626 
L 312.443452 27.937416 
L 311.800203 27.403234 
L 311.156954 26.876082 
L 310.513706 26.355958 
L 309.870457 25.842862 
L 309.227208 25.336796 
L 308.583959 24.837758 
L 307.940711 24.345748 
L 307.297462 23.860768 
L 306.654213 23.382816 
L 306.010964 22.911893 
L 305.367716 22.447998 
L 304.724467 21.991133 
L 304.081218 21.541295 
L 303.43797 21.098487 
L 302.794721 20.662707 
L 302.151472 20.233957 
L 301.508223 19.812234 
L 300.864975 19.397541 
L 300.221726 18.989876 
L 299.578477 18.58924 
L 298.935228 18.195632 
L 298.29198 17.809054 
L 297.648731 17.429504 
L 297.005482 17.056982 
L 296.362234 16.69149 
L 295.718985 16.333026 
L 295.075736 15.981591 
L 294.432487 15.637184 
L 293.789239 15.299806 
L 293.14599 14.969457 
L 292.502741 14.646137 
L 291.859492 14.329845 
L 291.216244 14.020582 
L 290.572995 13.718348 
L 289.929746 13.423143 
L 289.286497 13.134966 
L 288.643249 12.853818 
L 288 12.579698 
L 287.356751 12.312607 
L 286.713503 12.052545 
L 286.070254 11.799512 
L 285.427005 11.553507 
L 284.783756 11.314531 
L 284.140508 11.082584 
L 283.497259 10.857666 
L 282.85401 10.639776 
L 282.210761 10.428915 
L 281.567513 10.225082 
L 280.924264 10.028279 
L 280.281015 9.838504 
L 279.637766 9.655757 
L 278.994518 9.48004 
L 278.351269 9.311351 
L 277.70802 9.149691 
z
" style="fill:#0000ff;fill-opacity:0.1;stroke:#0000ff;stroke-opacity:0.1;"/>
   </g>
   <g id="matplotlib.axis_1">
    <g id="xtick_1">
     <g id="line2d_1">
      <defs>
       <path d="M 0 0 
L 0 3.5 
" id="mc2c89e1605" style="stroke:#000000;stroke-width:0.8;"/>
      </defs>
      <g>
       <use style="stroke:#000000;stroke-width:0.8;" x="38.097868" xlink:href="#mc2c89e1605" y="162"/>
      </g>
     </g>
     <g id="text_1">
      <!-- 1960 -->
      <g transform="translate(25.372868 176.598438)scale(0.1 -0.1)">
       <defs>
        <path d="M 794 531 
L 1825 531 
L 1825 4091 
L 703 3866 
L 703 4441 
L 1819 4666 
L 2450 4666 
L 2450 531 
L 3481 531 
L 3481 0 
L 794 0 
L 794 531 
z
" id="DejaVuSans-31" transform="scale(0.015625)"/>
        <path d="M 703 97 
L 703 672 
Q 941 559 1184 500 
Q 1428 441 1663 441 
Q 2288 441 2617 861 
Q 2947 1281 2994 2138 
Q 2813 1869 2534 1725 
Q 2256 1581 1919 1581 
Q 1219 1581 811 2004 
Q 403 2428 403 3163 
Q 403 3881 828 4315 
Q 1253 4750 1959 4750 
Q 2769 4750 3195 4129 
Q 3622 3509 3622 2328 
Q 3622 1225 3098 567 
Q 2575 -91 1691 -91 
Q 1453 -91 1209 -44 
Q 966 3 703 97 
z
M 1959 2075 
Q 2384 2075 2632 2365 
Q 2881 2656 2881 3163 
Q 2881 3666 2632 3958 
Q 2384 4250 1959 4250 
Q 1534 4250 1286 3958 
Q 1038 3666 1038 3163 
Q 1038 2656 1286 2365 
Q 1534 2075 1959 2075 
z
" id="DejaVuSans-39" transform="scale(0.015625)"/>
        <path d="M 2113 2584 
Q 1688 2584 1439 2293 
Q 1191 2003 1191 1497 
Q 1191 994 1439 701 
Q 1688 409 2113 409 
Q 2538 409 2786 701 
Q 3034 994 3034 1497 
Q 3034 2003 2786 2293 
Q 2538 2584 2113 2584 
z
M 3366 4563 
L 3366 3988 
Q 3128 4100 2886 4159 
Q 2644 4219 2406 4219 
Q 1781 4219 1451 3797 
Q 1122 3375 1075 2522 
Q 1259 2794 1537 2939 
Q 1816 3084 2150 3084 
Q 2853 3084 3261 2657 
Q 3669 2231 3669 1497 
Q 3669 778 3244 343 
Q 2819 -91 2113 -91 
Q 1303 -91 875 529 
Q 447 1150 447 2328 
Q 447 3434 972 4092 
Q 1497 4750 2381 4750 
Q 2619 4750 2861 4703 
Q 3103 4656 3366 4563 
z
" id="DejaVuSans-36" transform="scale(0.015625)"/>
        <path d="M 2034 4250 
Q 1547 4250 1301 3770 
Q 1056 3291 1056 2328 
Q 1056 1369 1301 889 
Q 1547 409 2034 409 
Q 2525 409 2770 889 
Q 3016 1369 3016 2328 
Q 3016 3291 2770 3770 
Q 2525 4250 2034 4250 
z
M 2034 4750 
Q 2819 4750 3233 4129 
Q 3647 3509 3647 2328 
Q 3647 1150 3233 529 
Q 2819 -91 2034 -91 
Q 1250 -91 836 529 
Q 422 1150 422 2328 
Q 422 3509 836 4129 
Q 1250 4750 2034 4750 
z
" id="DejaVuSans-30" transform="scale(0.015625)"/>
       </defs>
       <use xlink:href="#DejaVuSans-31"/>
       <use x="63.623047" xlink:href="#DejaVuSans-39"/>
       <use x="127.246094" xlink:href="#DejaVuSans-36"/>
       <use x="190.869141" xlink:href="#DejaVuSans-30"/>
      </g>
     </g>
    </g>
    <g id="xtick_2">
     <g id="line2d_2">
      <g>
       <use style="stroke:#000000;stroke-width:0.8;" x="115.287716" xlink:href="#mc2c89e1605" y="162"/>
      </g>
     </g>
     <g id="text_2">
      <!-- 1970 -->
      <g transform="translate(102.562716 176.598438)scale(0.1 -0.1)">
       <defs>
        <path d="M 525 4666 
L 3525 4666 
L 3525 4397 
L 1831 0 
L 1172 0 
L 2766 4134 
L 525 4134 
L 525 4666 
z
" id="DejaVuSans-37" transform="scale(0.015625)"/>
       </defs>
       <use xlink:href="#DejaVuSans-31"/>
       <use x="63.623047" xlink:href="#DejaVuSans-39"/>
       <use x="127.246094" xlink:href="#DejaVuSans-37"/>
       <use x="190.869141" xlink:href="#DejaVuSans-30"/>
      </g>
     </g>
    </g>
    <g id="xtick_3">
     <g id="line2d_3">
      <g>
       <use style="stroke:#000000;stroke-width:0.8;" x="192.477563" xlink:href="#mc2c89e1605" y="162"/>
      </g>
     </g>
     <g id="text_3">
      <!-- 1980 -->
      <g transform="translate(179.752563 176.598438)scale(0.1 -0.1)">
       <defs>
        <path d="M 2034 2216 
Q 1584 2216 1326 1975 
Q 1069 1734 1069 1313 
Q 1069 891 1326 650 
Q 1584 409 2034 409 
Q 2484 409 2743 651 
Q 3003 894 3003 1313 
Q 3003 1734 2745 1975 
Q 2488 2216 2034 2216 
z
M 1403 2484 
Q 997 2584 770 2862 
Q 544 3141 544 3541 
Q 544 4100 942 4425 
Q 1341 4750 2034 4750 
Q 2731 4750 3128 4425 
Q 3525 4100 3525 3541 
Q 3525 3141 3298 2862 
Q 3072 2584 2669 2484 
Q 3125 2378 3379 2068 
Q 3634 1759 3634 1313 
Q 3634 634 3220 271 
Q 2806 -91 2034 -91 
Q 1263 -91 848 271 
Q 434 634 434 1313 
Q 434 1759 690 2068 
Q 947 2378 1403 2484 
z
M 1172 3481 
Q 1172 3119 1398 2916 
Q 1625 2713 2034 2713 
Q 2441 2713 2670 2916 
Q 2900 3119 2900 3481 
Q 2900 3844 2670 4047 
Q 2441 4250 2034 4250 
Q 1625 4250 1398 4047 
Q 1172 3844 1172 3481 
z
" id="DejaVuSans-38" transform="scale(0.015625)"/>
       </defs>
       <use xlink:href="#DejaVuSans-31"/>
       <use x="63.623047" xlink:href="#DejaVuSans-39"/>
       <use x="127.246094" xlink:href="#DejaVuSans-38"/>
       <use x="190.869141" xlink:href="#DejaVuSans-30"/>
      </g>
     </g>
    </g>
    <g id="xtick_4">
     <g id="line2d_4">
      <g>
       <use style="stroke:#000000;stroke-width:0.8;" x="269.667411" xlink:href="#mc2c89e1605" y="162"/>
      </g>
     </g>
     <g id="text_4">
      <!-- 1990 -->
      <g transform="translate(256.942411 176.598438)scale(0.1 -0.1)">
       <use xlink:href="#DejaVuSans-31"/>
       <use x="63.623047" xlink:href="#DejaVuSans-39"/>
       <use x="127.246094" xlink:href="#DejaVuSans-39"/>
       <use x="190.869141" xlink:href="#DejaVuSans-30"/>
      </g>
     </g>
    </g>
    <g id="xtick_5">
     <g id="line2d_5">
      <g>
       <use style="stroke:#000000;stroke-width:0.8;" x="346.857259" xlink:href="#mc2c89e1605" y="162"/>
      </g>
     </g>
     <g id="text_5">
      <!-- 2000 -->
      <g transform="translate(334.132259 176.598438)scale(0.1 -0.1)">
       <defs>
        <path d="M 1228 531 
L 3431 531 
L 3431 0 
L 469 0 
L 469 531 
Q 828 903 1448 1529 
Q 2069 2156 2228 2338 
Q 2531 2678 2651 2914 
Q 2772 3150 2772 3378 
Q 2772 3750 2511 3984 
Q 2250 4219 1831 4219 
Q 1534 4219 1204 4116 
Q 875 4013 500 3803 
L 500 4441 
Q 881 4594 1212 4672 
Q 1544 4750 1819 4750 
Q 2544 4750 2975 4387 
Q 3406 4025 3406 3419 
Q 3406 3131 3298 2873 
Q 3191 2616 2906 2266 
Q 2828 2175 2409 1742 
Q 1991 1309 1228 531 
z
" id="DejaVuSans-32" transform="scale(0.015625)"/>
       </defs>
       <use xlink:href="#DejaVuSans-32"/>
       <use x="63.623047" xlink:href="#DejaVuSans-30"/>
       <use x="127.246094" xlink:href="#DejaVuSans-30"/>
       <use x="190.869141" xlink:href="#DejaVuSans-30"/>
      </g>
     </g>
    </g>
   </g>
   <g id="matplotlib.axis_2">
    <g id="ytick_1">
     <g id="line2d_6">
      <defs>
       <path d="M 0 0 
L -3.5 0 
" id="m9828818cc6" style="stroke:#000000;stroke-width:0.8;"/>
      </defs>
      <g>
       <use style="stroke:#000000;stroke-width:0.8;" x="34.56" xlink:href="#m9828818cc6" y="150.457769"/>
      </g>
     </g>
     <g id="text_6">
      <!-- −40 -->
      <g transform="translate(6.455313 154.256988)scale(0.1 -0.1)">
       <defs>
        <path d="M 678 2272 
L 4684 2272 
L 4684 1741 
L 678 1741 
L 678 2272 
z
" id="DejaVuSans-2212" transform="scale(0.015625)"/>
        <path d="M 2419 4116 
L 825 1625 
L 2419 1625 
L 2419 4116 
z
M 2253 4666 
L 3047 4666 
L 3047 1625 
L 3713 1625 
L 3713 1100 
L 3047 1100 
L 3047 0 
L 2419 0 
L 2419 1100 
L 313 1100 
L 313 1709 
L 2253 4666 
z
" id="DejaVuSans-34" transform="scale(0.015625)"/>
       </defs>
       <use xlink:href="#DejaVuSans-2212"/>
       <use x="83.789062" xlink:href="#DejaVuSans-34"/>
       <use x="147.412109" xlink:href="#DejaVuSans-30"/>
      </g>
     </g>
    </g>
    <g id="ytick_2">
     <g id="line2d_7">
      <g>
       <use style="stroke:#000000;stroke-width:0.8;" x="34.56" xlink:href="#m9828818cc6" y="116.628884"/>
      </g>
     </g>
     <g id="text_7">
      <!-- −20 -->
      <g transform="translate(6.455313 120.428103)scale(0.1 -0.1)">
       <use xlink:href="#DejaVuSans-2212"/>
       <use x="83.789062" xlink:href="#DejaVuSans-32"/>
       <use x="147.412109" xlink:href="#DejaVuSans-30"/>
      </g>
     </g>
    </g>
    <g id="ytick_3">
     <g id="line2d_8">
      <g>
       <use style="stroke:#000000;stroke-width:0.8;" x="34.56" xlink:href="#m9828818cc6" y="82.8"/>
      </g>
     </g>
     <g id="text_8">
      <!-- 0 -->
      <g transform="translate(21.1975 86.599219)scale(0.1 -0.1)">
       <use xlink:href="#DejaVuSans-30"/>
      </g>
     </g>
    </g>
    <g id="ytick_4">
     <g id="line2d_9">
      <g>
       <use style="stroke:#000000;stroke-width:0.8;" x="34.56" xlink:href="#m9828818cc6" y="48.971116"/>
      </g>
     </g>
     <g id="text_9">
      <!-- 20 -->
      <g transform="translate(14.835 52.770334)scale(0.1 -0.1)">
       <use xlink:href="#DejaVuSans-32"/>
       <use x="63.623047" xlink:href="#DejaVuSans-30"/>
      </g>
     </g>
    </g>
    <g id="ytick_5">
     <g id="line2d_10">
      <g>
       <use style="stroke:#000000;stroke-width:0.8;" x="34.56" xlink:href="#m9828818cc6" y="15.142231"/>
      </g>
     </g>
     <g id="text_10">
      <!-- 40 -->
      <g transform="translate(14.835 18.94145)scale(0.1 -0.1)">
       <use xlink:href="#DejaVuSans-34"/>
       <use x="63.623047" xlink:href="#DejaVuSans-30"/>
      </g>
     </g>
    </g>
   </g>
   <g id="line2d_11">
    <path clip-path="url(#p32cdb25b23)" d="M 92.452386 82.628875 
L 93.738883 81.369289 
L 94.382132 81.313195 
L 95.025381 80.901417 
L 95.668629 80.290124 
L 96.955127 79.981429 
L 97.598376 79.922972 
L 98.241624 79.402502 
L 98.884873 79.479356 
L 99.528122 79.42183 
L 100.171371 79.009927 
L 100.814619 78.738342 
L 102.101117 79.168979 
L 102.744365 79.015671 
L 104.030863 79.406217 
L 104.674112 79.192581 
L 105.31736 79.27122 
L 105.960609 78.981057 
L 106.603858 79.173452 
L 107.247107 79.1738 
L 107.890355 78.912869 
L 108.533604 79.108444 
L 109.176853 79.442946 
L 109.820102 79.508237 
L 111.749848 79.078526 
L 112.393096 79.098096 
L 113.036345 79.670651 
L 113.679594 79.916172 
L 114.322843 79.577457 
L 115.60934 80.457467 
L 116.252589 80.186541 
L 116.895838 80.082344 
L 118.182335 79.138574 
L 118.825584 79.67048 
L 119.468832 79.575801 
L 120.112081 80.171416 
L 120.75533 80.590833 
L 121.398579 80.199139 
L 122.041827 80.253944 
L 123.971574 79.255822 
L 124.614822 79.360991 
L 125.258071 79.871392 
L 125.90132 80.09133 
L 127.187817 79.826518 
L 128.474315 80.016825 
L 129.117563 80.732407 
L 130.404061 80.922082 
L 131.04731 80.786946 
L 131.690558 81.045834 
L 132.333807 81.568145 
L 133.620305 80.936579 
L 134.906802 80.955107 
L 135.550051 80.489876 
L 136.193299 80.691184 
L 136.836548 81.327119 
L 138.123046 80.874515 
L 138.766294 81.099561 
L 139.409543 81.097757 
L 140.052792 81.898584 
L 141.339289 81.594034 
L 142.625787 80.599209 
L 143.269036 80.977164 
L 143.912284 81.492706 
L 144.555533 81.48055 
L 147.128528 80.729515 
L 147.771777 81.13027 
L 148.415025 81.935985 
L 149.058274 81.803391 
L 149.701523 81.919893 
L 150.344772 81.495966 
L 150.98802 81.444951 
L 151.631269 81.20348 
L 152.917766 80.457402 
L 153.561015 80.23027 
L 154.204264 79.788097 
L 155.490761 80.772909 
L 156.777259 80.306347 
L 158.063756 80.631825 
L 158.707005 81.076576 
L 159.350254 81.713183 
L 159.993503 81.81754 
L 160.636751 82.438212 
L 161.28 82.19435 
L 161.923249 82.246214 
L 162.566497 82.6243 
L 163.852995 82.912452 
L 165.139492 83.329901 
L 165.782741 84.07011 
L 167.069239 84.71062 
L 167.712487 84.647682 
L 168.355736 85.179784 
L 170.928731 84.522438 
L 171.57198 83.941997 
L 174.788223 83.447713 
L 175.431472 83.016857 
L 176.074721 82.392275 
L 177.361218 82.144667 
L 178.004467 82.252046 
L 178.647716 82.065114 
L 179.934213 82.050048 
L 180.577462 82.466778 
L 181.220711 82.39598 
L 182.507208 81.482096 
L 183.150457 81.20374 
L 183.793706 81.053365 
L 185.723452 81.831361 
L 186.366701 81.789945 
L 187.009949 82.213948 
L 188.296447 83.373136 
L 188.939695 83.40306 
L 189.582944 83.73164 
L 190.869442 85.166508 
L 191.51269 85.367338 
L 192.155939 85.14075 
L 193.442437 85.786011 
L 194.085685 85.917451 
L 194.728934 85.785791 
L 195.372183 85.794606 
L 196.65868 84.544879 
L 197.301929 83.486095 
L 197.945178 83.050096 
L 198.588426 82.375325 
L 199.231675 82.061047 
L 199.874924 82.232719 
M 277.70802 82.383605 
L 278.351269 82.92138 
L 278.994518 83.120473 
L 279.637766 83.535451 
L 280.281015 83.734735 
L 280.924264 83.777169 
L 281.567513 83.982635 
L 282.210761 83.996413 
L 282.85401 84.640317 
L 284.140508 84.553392 
L 284.783756 84.908583 
L 287.356751 84.827824 
L 289.286497 86.432179 
L 290.572995 86.47563 
L 291.859492 86.8138 
L 292.502741 86.800984 
L 293.14599 86.60065 
L 293.789239 86.273791 
L 294.432487 86.811364 
L 295.075736 86.643715 
L 295.718985 87.506844 
L 296.362234 87.78386 
L 297.005482 87.458357 
L 297.648731 87.618622 
L 298.29198 87.231224 
L 298.935228 87.564596 
L 299.578477 87.613106 
L 300.864975 87.55399 
L 301.508223 87.563607 
L 302.794721 86.571024 
L 304.081218 85.984524 
L 304.724467 87.428295 
L 305.367716 87.458984 
L 306.010964 86.934196 
L 308.583959 86.098021 
L 309.227208 85.641173 
L 310.513706 84.272992 
L 311.156954 84.72217 
L 311.800203 84.411321 
L 312.443452 85.290738 
L 313.086701 85.931868 
L 313.729949 85.641801 
L 314.373198 85.985575 
L 315.016447 86.12647 
L 315.659695 86.135181 
L 316.302944 85.841039 
L 316.946193 85.776415 
L 317.589442 85.132615 
L 318.23269 85.851806 
L 318.875939 85.113123 
L 319.519188 85.244464 
L 320.162437 84.773631 
L 320.805685 84.125999 
L 321.448934 83.284968 
L 322.092183 83.395084 
L 322.735431 83.288514 
L 324.021929 84.322217 
L 324.665178 84.321029 
L 325.308426 84.851209 
L 326.594924 84.271545 
L 327.238173 83.685886 
L 327.881421 83.362158 
L 328.52467 83.622815 
L 329.167919 83.424077 
L 330.454416 83.505171 
L 331.097665 83.404957 
L 331.740914 84.131302 
L 332.384162 84.282555 
L 333.027411 84.095896 
L 333.67066 83.600655 
L 334.313909 83.561169 
L 334.957157 83.240092 
L 335.600406 82.771754 
L 336.886904 81.507039 
L 337.530152 81.037519 
L 338.173401 80.962777 
L 339.459898 81.035861 
L 340.746396 80.542262 
L 341.389645 80.5245 
L 342.032893 80.367423 
L 343.319391 80.616707 
L 343.96264 80.738345 
L 344.605888 81.345263 
L 345.892386 81.9444 
L 346.535635 81.786696 
L 347.178883 81.796785 
L 348.465381 81.208339 
L 349.108629 81.549325 
L 350.395127 82.507511 
L 351.038376 82.028063 
L 351.681624 82.198732 
L 352.324873 81.576309 
L 352.968122 81.568212 
L 354.254619 81.922971 
L 354.897868 82.47516 
L 355.541117 82.838285 
L 356.184365 82.379398 
L 356.827614 82.8 
L 356.827614 82.8 
" style="fill:none;stroke:#1f77b4;stroke-linecap:square;stroke-width:1.5;"/>
   </g>
   <g id="line2d_12">
    <path clip-path="url(#p32cdb25b23)" d="M 34.56 82.8 
L 414.72 82.8 
" style="fill:none;stroke:#000000;stroke-dasharray:1.5,2.475;stroke-dashoffset:0;stroke-width:1.5;"/>
   </g>
   <g id="patch_3">
    <path d="M 34.56 162 
L 34.56 3.6 
" style="fill:none;stroke:#000000;stroke-linecap:square;stroke-linejoin:miter;stroke-width:0.8;"/>
   </g>
   <g id="patch_4">
    <path d="M 414.72 162 
L 414.72 3.6 
" style="fill:none;stroke:#000000;stroke-linecap:square;stroke-linejoin:miter;stroke-width:0.8;"/>
   </g>
   <g id="patch_5">
    <path d="M 34.56 162 
L 414.72 162 
" style="fill:none;stroke:#000000;stroke-linecap:square;stroke-linejoin:miter;stroke-width:0.8;"/>
   </g>
   <g id="patch_6">
    <path d="M 34.56 3.6 
L 414.72 3.6 
" style="fill:none;stroke:#000000;stroke-linecap:square;stroke-linejoin:miter;stroke-width:0.8;"/>
   </g>
  </g>
 </g>
 <defs>
  <clipPath id="p32cdb25b23">
   <rect height="158.4" width="380.16" x="34.56" y="3.6"/>
  </clipPath>
 </defs>
</svg>
